<?xml version="1.0" encoding="UTF-8" standalone="no"?>
<!-- Created with Inkscape (http://www.inkscape.org/) -->

<svg
   width="94.243408mm"
   height="23.413946mm"
   viewBox="0 0 94.243408 23.413946"
   version="1.1"
   id="svg1"
   xml:space="preserve"
   inkscape:version="1.4.2 (ebf0e940, 2025-05-08)"
   sodipodi:docname="new-boneco.svg"
   inkscape:export-batch-path="/Users/eduardo/Pictures/inkscape/kanjikka"
   inkscape:export-batch-name="new-boneco"
   inkscape:export-filename="new-boneco.png"
   inkscape:export-xdpi="96"
   inkscape:export-ydpi="96"
   xmlns:inkscape="http://www.inkscape.org/namespaces/inkscape"
   xmlns:sodipodi="http://sodipodi.sourceforge.net/DTD/sodipodi-0.dtd"
   xmlns="http://www.w3.org/2000/svg"
   xmlns:svg="http://www.w3.org/2000/svg"><sodipodi:namedview
     id="namedview1"
     pagecolor="#ffffff"
     bordercolor="#000000"
     borderopacity="0.25"
     inkscape:showpageshadow="2"
     inkscape:pageopacity="0.0"
     inkscape:pagecheckerboard="0"
     inkscape:deskcolor="#d1d1d1"
     inkscape:document-units="mm"
     showguides="true"
     inkscape:zoom="1.3808221"
     inkscape:cx="1279.3103"
     inkscape:cy="752.81239"
     inkscape:window-width="3360"
     inkscape:window-height="1822"
     inkscape:window-x="0"
     inkscape:window-y="0"
     inkscape:window-maximized="0"
     inkscape:current-layer="g164"
     inkscape:export-bgcolor="#ffffff00"><sodipodi:guide
       position="-246.65884,113.92186"
       orientation="1,0"
       id="guide10"
       inkscape:locked="false" /><sodipodi:guide
       position="-167.64181,134.63596"
       orientation="0,-1"
       id="guide12"
       inkscape:locked="false" /><sodipodi:guide
       position="-251.49367,209.00346"
       orientation="0,-1"
       id="guide18"
       inkscape:locked="false" /><sodipodi:guide
       position="-250.08796,213.18674"
       orientation="0,-1"
       id="guide19"
       inkscape:locked="false" /><sodipodi:guide
       position="170.81417,-84.859124"
       orientation="0,-1"
       id="guide27"
       inkscape:locked="false" /><inkscape:page
       x="0"
       y="0"
       width="94.243408"
       height="23.413946"
       id="page2"
       margin="0"
       bleed="0" /></sodipodi:namedview><defs
     id="defs1" /><g
     inkscape:groupmode="layer"
     id="layer14"
     inkscape:label="alligator"
     style="display:inline"
     transform="translate(-355.974,-233.1637)"><g
       id="g165"
       transform="matrix(0.63875203,0,0,0.63875203,-78.582453,164.6667)"><g
         id="g164"
         transform="translate(536.5435,-45.524903)"><path
           style="opacity:1;fill:#63cf8d;fill-opacity:1;stroke:none;stroke-width:1.9;stroke-dasharray:none;stroke-opacity:1;paint-order:fill markers stroke"
           d="m 233.78074,175.25758 1.62589,4.06472 -7.85847,7.3165 1.76138,-5.8261 -5.55512,2.70981 2.70981,-3.65825 -4.60668,0.94844 5.41963,-3.38727 0.54196,-3.65825 z"
           id="path127"
           inkscape:export-filename="/Users/eduardo/projects/kanji-drawing-practice/src/app/components/Disclaimer/alligator.svg"
           inkscape:export-xdpi="96"
           inkscape:export-ydpi="96" /><path
           style="opacity:1;fill:#63cf8d;fill-opacity:1;stroke:none;stroke-width:1.9;stroke-dasharray:none;stroke-opacity:1;paint-order:fill markers stroke"
           d="m 203.76953,175.66405 1.62589,4.06472 -7.85847,7.3165 1.76138,-5.8261 -5.55512,2.70981 2.70981,-3.65825 -4.60668,0.94844 5.41963,-3.38727 0.54196,-3.65825 z"
           id="path128" /><path
           style="opacity:1;fill:#9ee1b8;fill-opacity:1;stroke:none;stroke-width:1.31538;stroke-dasharray:none;stroke-opacity:1;paint-order:fill markers stroke"
           d="m 290.29023,164.67896 c -7.15054,-0.34603 -16.22738,-1.14561 -25.39033,-1.76299 -6.04686,-0.40743 -12.11495,-0.52913 -17.75726,-1.03285 -7.87055,-0.70265 -22.28657,-1.22704 -32.96758,-2.8455 -8.27438,-1.25379 -17.31736,0.59149 -21.62275,0.46606 -4.21406,-0.12277 -7.29709,-6.05222 -11.76168,-6.67099 -4.34303,-0.60192 -8.40714,2.75141 -12.77504,3.13309 -7.53599,0.65852 -16.10063,-5.29599 -22.64445,-1.50083 -0.8778,0.50909 -2.14445,2.45976 -1.33374,2.73651 6.2526,2.13442 19.20555,4.38711 28.66826,7.20643 2.10191,0.62624 5.65587,1.09127 5.70149,3.28401 0.0476,2.28555 -3.66845,2.82905 -5.79529,3.66723 -8.18856,3.22708 -16.35483,2.84282 -25.75433,7.24825 -0.9557,0.44792 -0.42749,4.9402 0.95244,4.37317 5.20783,-2.13997 17.74834,-7.41736 27.24072,-8.53592 12.94578,-1.5255 26.05297,2.07307 39.07655,1.51906 7.99707,-0.34018 15.6867,0.61161 24.6956,-1.062 2.47791,-0.46033 5.598,-4.4179 11.91438,-5.47995 17.95912,-3.01967 46.3506,-4.41383 39.55301,-4.74278 z"
           id="path129"
           sodipodi:nodetypes="sssssaaassassssssss" /><path
           style="opacity:1;fill:#e3dedb;fill-opacity:1;stroke:none;stroke-width:1.02749;stroke-dasharray:none;stroke-opacity:1;paint-order:fill markers stroke"
           d="m 174.02813,164.68346 -1.50529,1.48495 -0.92073,-2.09375 -0.94607,1.07706 -0.87177,-1.53324 -1.73971,2.25062 -0.75462,-2.87657 -1.21954,1.29525 -0.78135,-1.79737 -1.58929,1.80615 -0.70011,-2.38067 -1.21112,1.30526 -0.68963,-1.78226 -1.98857,2.77391 -0.38373,-3.36922 -0.96807,1.16055 -0.44655,-1.51555 -1.66486,1.98763 -0.34334,-2.49158 -1.51601,1.36388 -0.27731,-1.81392 -1.12651,1.1069 -0.117,-1.41896 -1.64989,1.80258 -0.21172,-2.26974 -1.06982,1.18066 -0.54243,-1.58524 -1.5393,1.61335 -0.38865,-2.09717 -1.45595,1.47217 -0.27833,-1.90739 z"
           id="path130" /><path
           style="opacity:1;fill:#e3dedb;fill-opacity:1;stroke:none;stroke-width:0.938154;stroke-dasharray:none;stroke-opacity:1;paint-order:fill markers stroke"
           d="m 174.06636,171.176 -1.20861,-1.44383 -0.72082,1.96194 -1.33175,-1.54309 0.0323,1.89204 -1.05843,-0.87529 -0.31374,1.28622 -1.23309,-1.86187 -0.42519,2.17465 -1.36743,-1.23265 -0.44952,1.63067 -0.88372,-1.13291 -0.24995,1.47054 -0.98849,-2.04971 -0.89915,2.45399 -1.27461,-1.52577 -0.74607,2.03678 -1.58167,-2.04478 -0.20755,2.48785 -1.34946,-1.56666 -0.11407,1.93345 -1.07559,-0.6173 -0.78016,1.11373 -1.44447,-2.1044 -0.71066,2.43734 -1.98497,-1.77168 -0.60326,2.3091 -1.65992,-1.5867 -0.25467,2.49201 -2.01816,-1.34135 -0.30595,2.44906 z"
           id="path131" /><path
           style="opacity:1;fill:#9ee1b8;fill-opacity:1;stroke:none;stroke-width:1.9;stroke-dasharray:none;stroke-opacity:1;paint-order:fill markers stroke"
           d="m 247.26207,169.02499 3.52276,11.99094 -5.01316,7.99396 -0.54196,-4.94541 -4.67443,3.72599 0.0677,-4.3357 -5.69062,2.1001 2.30335,-5.01315 5.28414,-2.16786 -2.57433,-5.69061 z"
           id="path132"
           sodipodi:nodetypes="ccccccccccc" /><path
           style="opacity:1;fill:#9ee1b8;fill-opacity:1;stroke:none;stroke-width:1.9;stroke-dasharray:none;stroke-opacity:1;paint-order:fill markers stroke"
           d="m 195.03037,172.34452 0.33873,11.11025 -9.28112,5.96159 2.9808,-5.48737 -6.63905,1.89687 3.5905,-4.33571 -8.12944,-0.33872 8.87464,-2.50658 0.74521,-7.04552 z"
           id="path133" /><g
           id="g141"
           transform="matrix(-1,0,0,1,322.37662,-1.7342845)"><path
             sodipodi:type="star"
             style="opacity:1;fill:#e3dedb;fill-opacity:1;stroke:none;stroke-width:1.9;stroke-dasharray:none;stroke-opacity:1;paint-order:fill markers stroke"
             id="path134"
             inkscape:flatsided="true"
             sodipodi:sides="3"
             sodipodi:cx="21.136562"
             sodipodi:cy="82.920357"
             sodipodi:r1="5.638761"
             sodipodi:r2="2.8193805"
             sodipodi:arg1="0.95613337"
             sodipodi:arg2="2.0033309"
             inkscape:rounded="0"
             inkscape:randomized="0"
             d="M 24.388341,87.527043 15.521165,83.433137 23.500181,77.80089 Z"
             inkscape:transform-center-x="-0.13979872"
             inkscape:transform-center-y="-0.76589193"
             transform="matrix(0.55045627,-0.30875607,0.30875607,0.55045627,37.872351,123.09108)" /><path
             sodipodi:type="star"
             style="opacity:1;fill:#e3dedb;fill-opacity:1;stroke:none;stroke-width:1.9;stroke-dasharray:none;stroke-opacity:1;paint-order:fill markers stroke"
             id="path135"
             inkscape:flatsided="true"
             sodipodi:sides="3"
             sodipodi:cx="21.136562"
             sodipodi:cy="82.920357"
             sodipodi:r1="5.9047761"
             sodipodi:r2="2.8193805"
             sodipodi:arg1="1.041917"
             sodipodi:arg2="2.0891145"
             inkscape:rounded="0"
             inkscape:randomized="0"
             d="m 24.115912,88.018381 -8.884043,-5.066844 8.830037,-5.160385 z"
             inkscape:transform-center-x="-0.13979843"
             inkscape:transform-center-y="-0.76588304"
             transform="matrix(0.55045627,-0.30875607,0.30875607,0.55045627,45.566292,122.35555)" /><path
             sodipodi:type="star"
             style="opacity:1;fill:#e3dedb;fill-opacity:1;stroke:none;stroke-width:1.9;stroke-dasharray:none;stroke-opacity:1;paint-order:fill markers stroke"
             id="path136"
             inkscape:flatsided="true"
             sodipodi:sides="3"
             sodipodi:cx="21.136562"
             sodipodi:cy="82.920357"
             sodipodi:r1="5.638761"
             sodipodi:r2="2.8193805"
             sodipodi:arg1="0.95613337"
             sodipodi:arg2="2.0033309"
             inkscape:rounded="0"
             inkscape:randomized="0"
             d="M 24.388341,87.527043 15.521165,83.433137 23.500181,77.80089 Z"
             inkscape:transform-center-x="-0.13979878"
             inkscape:transform-center-y="-0.76589147"
             transform="matrix(0.55045627,-0.30875607,0.30875607,0.55045627,53.056996,121.68778)" /><path
             sodipodi:type="star"
             style="opacity:1;fill:#e3dedb;fill-opacity:1;stroke:none;stroke-width:1.9;stroke-dasharray:none;stroke-opacity:1;paint-order:fill markers stroke"
             id="path137"
             inkscape:flatsided="true"
             sodipodi:sides="3"
             sodipodi:cx="21.136562"
             sodipodi:cy="82.920357"
             sodipodi:r1="5.638761"
             sodipodi:r2="2.8193805"
             sodipodi:arg1="0.95613337"
             sodipodi:arg2="2.0033309"
             inkscape:rounded="0"
             inkscape:randomized="0"
             d="M 24.388341,87.527043 15.521165,83.433137 23.500181,77.80089 Z"
             inkscape:transform-center-x="-0.1397983"
             inkscape:transform-center-y="-0.76588599"
             transform="matrix(0.55045627,-0.30875607,0.30875607,0.55045627,60.41221,121.08775)" /><path
             sodipodi:type="star"
             style="opacity:1;fill:#e3dedb;fill-opacity:1;stroke:none;stroke-width:1.9;stroke-dasharray:none;stroke-opacity:1;paint-order:fill markers stroke"
             id="path138"
             inkscape:flatsided="true"
             sodipodi:sides="3"
             sodipodi:cx="21.136562"
             sodipodi:cy="82.920357"
             sodipodi:r1="5.638761"
             sodipodi:r2="2.8193805"
             sodipodi:arg1="0.95613337"
             sodipodi:arg2="2.0033309"
             inkscape:rounded="0"
             inkscape:randomized="0"
             d="M 24.388341,87.527043 15.521165,83.433137 23.500181,77.80089 Z"
             inkscape:transform-center-x="-0.13979878"
             inkscape:transform-center-y="-0.76588364"
             transform="matrix(0.55045627,-0.30875607,0.30875607,0.55045627,67.767424,120.48772)" /><path
             sodipodi:type="star"
             style="opacity:1;fill:#e3dedb;fill-opacity:1;stroke:none;stroke-width:1.9;stroke-dasharray:none;stroke-opacity:1;paint-order:fill markers stroke"
             id="path139"
             inkscape:flatsided="true"
             sodipodi:sides="3"
             sodipodi:cx="21.136562"
             sodipodi:cy="82.920357"
             sodipodi:r1="5.638761"
             sodipodi:r2="2.8193805"
             sodipodi:arg1="0.95613337"
             sodipodi:arg2="2.0033309"
             inkscape:rounded="0"
             inkscape:randomized="0"
             d="M 24.388341,87.527043 15.521165,83.433137 23.500181,77.80089 Z"
             inkscape:transform-center-x="-0.13979826"
             inkscape:transform-center-y="-0.76589051"
             transform="matrix(0.55045627,-0.30875607,0.30875607,0.55045627,75.190384,119.89736)" /><path
             sodipodi:type="star"
             style="opacity:1;fill:#e3dedb;fill-opacity:1;stroke:none;stroke-width:1.9;stroke-dasharray:none;stroke-opacity:1;paint-order:fill markers stroke"
             id="path140"
             inkscape:flatsided="true"
             sodipodi:sides="3"
             sodipodi:cx="21.136562"
             sodipodi:cy="82.920357"
             sodipodi:r1="5.638761"
             sodipodi:r2="2.8193805"
             sodipodi:arg1="0.95613337"
             sodipodi:arg2="2.0033309"
             inkscape:rounded="0"
             inkscape:randomized="0"
             d="M 24.388341,87.527043 15.521165,83.433137 23.500181,77.80089 Z"
             inkscape:transform-center-x="0.132237"
             inkscape:transform-center-y="-0.77272882"
             transform="matrix(0.59108811,-0.22124029,0.22124029,0.59108811,89.146856,114.68805)" /><path
             sodipodi:type="star"
             style="opacity:1;fill:#e3dedb;fill-opacity:1;stroke:none;stroke-width:1.9;stroke-dasharray:none;stroke-opacity:1;paint-order:fill markers stroke"
             id="path141"
             inkscape:flatsided="true"
             sodipodi:sides="3"
             sodipodi:cx="21.136562"
             sodipodi:cy="82.920357"
             sodipodi:r1="5.638761"
             sodipodi:r2="2.8193805"
             sodipodi:arg1="0.95613337"
             sodipodi:arg2="2.0033309"
             inkscape:rounded="0"
             inkscape:randomized="0"
             d="M 24.388341,87.527043 15.521165,83.433137 23.500181,77.80089 Z"
             inkscape:transform-center-x="0.16400464"
             inkscape:transform-center-y="-0.74389534"
             transform="matrix(0.59495658,-0.21061595,0.21061595,0.59495658,96.894806,114.66532)" /></g><path
           sodipodi:type="star"
           style="opacity:1;fill:#e3dedb;fill-opacity:1;stroke:none;stroke-width:1.9;stroke-dasharray:none;stroke-opacity:1;paint-order:fill markers stroke"
           id="path150"
           inkscape:flatsided="true"
           sodipodi:sides="3"
           sodipodi:cx="21.136562"
           sodipodi:cy="82.920357"
           sodipodi:r1="5.638761"
           sodipodi:r2="2.8193805"
           sodipodi:arg1="0.95613337"
           sodipodi:arg2="2.0033309"
           inkscape:rounded="0"
           inkscape:randomized="0"
           d="M 24.388341,87.527043 15.521165,83.433137 23.500181,77.80089 Z"
           inkscape:transform-center-x="0.13979902"
           inkscape:transform-center-y="-0.76589193"
           transform="matrix(-0.55045627,-0.30875607,-0.30875607,0.55045627,291.51323,121.47025)" /><path
           sodipodi:type="star"
           style="opacity:1;fill:#e3dedb;fill-opacity:1;stroke:none;stroke-width:1.9;stroke-dasharray:none;stroke-opacity:1;paint-order:fill markers stroke"
           id="path151"
           inkscape:flatsided="true"
           sodipodi:sides="3"
           sodipodi:cx="21.136562"
           sodipodi:cy="82.920357"
           sodipodi:r1="5.6967382"
           sodipodi:r2="2.8193805"
           sodipodi:arg1="1.0080852"
           sodipodi:arg2="2.0552828"
           inkscape:rounded="0"
           inkscape:randomized="0"
           d="m 24.175665,87.738726 -8.731484,-4.595613 8.34566,-5.263881 z"
           inkscape:transform-center-x="0.13979902"
           inkscape:transform-center-y="-0.76589193"
           transform="matrix(-0.55045627,-0.30875607,-0.30875607,0.55045627,298.69871,121.85348)" /><path
           sodipodi:type="star"
           style="opacity:1;fill:#e3dedb;fill-opacity:1;stroke:none;stroke-width:1.9;stroke-dasharray:none;stroke-opacity:1;paint-order:fill markers stroke"
           id="path157"
           inkscape:flatsided="true"
           sodipodi:sides="3"
           sodipodi:cx="21.136562"
           sodipodi:cy="82.920357"
           sodipodi:r1="5.638761"
           sodipodi:r2="2.8193805"
           sodipodi:arg1="0.95613337"
           sodipodi:arg2="2.0033309"
           inkscape:rounded="0"
           inkscape:randomized="0"
           d="M 24.388341,87.527043 15.521165,83.433137 23.500181,77.80089 Z"
           inkscape:transform-center-x="0.13979902"
           inkscape:transform-center-y="-0.76589193"
           transform="matrix(-0.55045627,-0.30875607,-0.30875607,0.55045627,305.59678,122.42832)" /><path
           sodipodi:type="star"
           style="opacity:1;fill:#e3dedb;fill-opacity:1;stroke:none;stroke-width:1.9;stroke-dasharray:none;stroke-opacity:1;paint-order:fill markers stroke"
           id="path162"
           inkscape:flatsided="true"
           sodipodi:sides="3"
           sodipodi:cx="21.136562"
           sodipodi:cy="82.920357"
           sodipodi:r1="5.638761"
           sodipodi:r2="2.8193805"
           sodipodi:arg1="0.95613337"
           sodipodi:arg2="2.0033309"
           inkscape:rounded="0"
           inkscape:randomized="0"
           d="M 24.388341,87.527043 15.521165,83.433137 23.500181,77.80089 Z"
           inkscape:transform-center-x="0.13979845"
           inkscape:transform-center-y="-0.76589193"
           transform="matrix(-0.55045627,-0.30875607,-0.30875607,0.55045627,312.39904,123.00316)" /><path
           sodipodi:type="star"
           style="opacity:1;fill:#e3dedb;fill-opacity:1;stroke:none;stroke-width:1.9;stroke-dasharray:none;stroke-opacity:1;paint-order:fill markers stroke"
           id="path163"
           inkscape:flatsided="true"
           sodipodi:sides="3"
           sodipodi:cx="21.136562"
           sodipodi:cy="82.920357"
           sodipodi:r1="5.638761"
           sodipodi:r2="2.8193805"
           sodipodi:arg1="0.95613337"
           sodipodi:arg2="2.0033309"
           inkscape:rounded="0"
           inkscape:randomized="0"
           d="M 24.388341,87.527043 15.521165,83.433137 23.500181,77.80089 Z"
           inkscape:transform-center-x="0.1397989"
           inkscape:transform-center-y="-0.76589193"
           transform="matrix(-0.55045627,-0.30875607,-0.30875607,0.55045627,318.91387,123.38639)" /><path
           sodipodi:type="star"
           style="opacity:1;fill:#e3dedb;fill-opacity:1;stroke:none;stroke-width:1.9;stroke-dasharray:none;stroke-opacity:1;paint-order:fill markers stroke"
           id="path164"
           inkscape:flatsided="true"
           sodipodi:sides="3"
           sodipodi:cx="21.136562"
           sodipodi:cy="82.920357"
           sodipodi:r1="5.638761"
           sodipodi:r2="2.8193805"
           sodipodi:arg1="0.95613337"
           sodipodi:arg2="2.0033309"
           inkscape:rounded="0"
           inkscape:randomized="0"
           d="M 24.388341,87.527043 15.521165,83.433137 23.500181,77.80089 Z"
           inkscape:transform-center-x="0.09165424"
           inkscape:transform-center-y="-0.50212883"
           transform="matrix(-0.36088599,-0.20242433,-0.20242433,0.36088599,311.69864,137.74405)" /></g></g></g></svg>
