<svg width="458" height="408" viewBox="0 0 458 408" fill="none" xmlns="http://www.w3.org/2000/svg">
<g clip-path="url(#clip0_88_1571)">
<path d="M296.739 167.945L253.528 108.107L224.912 121.003L106.064 98.8003L219.947 148.434L115.408 159.808L229.875 177.903L247.396 194.965L296.739 167.945Z" fill="#00AA44"/>
<path d="M340.254 147.4L195.78 215.613L216.953 264.127L267.252 355.239L356.606 321.634L340.254 147.4Z" fill="#AC6715"/>
<path d="M195.78 215.612L129.425 199.101L55.255 136.542L107.232 218.231L216.953 264.126L195.78 215.612Z" fill="#E69332"/>
<path d="M218.373 266.7L129.603 284.796L122.595 349.939L140.699 290.483L225.781 280.119L218.373 266.7Z" fill="#E69332"/>
<path d="M239.229 304.478L155.889 333.949L168.737 381.514L172.241 337.568L249.915 323.091L239.229 304.478Z" fill="#E69332"/>
<path d="M255.692 334.3L196.002 368.682L208.851 407.458L214.691 372.301L267.252 355.239L255.692 334.3Z" fill="#E69332"/>
<path d="M40.5254 64.6992L72.7368 89.5584L61.1871 143.179L61.3492 143.384L61.1493 143.36L61.1249 143.474L61.0539 143.349L7.49 136.72L0.675928 90.1076L56.6937 137.756L40.5254 64.6992Z" fill="#AC6715"/>
<path d="M334.855 -0.158899L344.198 41.9501L306.343 72.23L255.357 57.6302L337.792 40.4333L281.54 1.5031L334.855 -0.158899Z" fill="#AC6715"/>
<path d="M340.254 147.4L363.03 101.903L338.502 34.6909L392.231 103.971L389.311 167.563L343.758 195.482L340.254 147.4Z" fill="#E69332"/>
<path d="M346.535 214.326L449.861 220.042L457.707 255.87L433.755 230.644L348.239 232.484L346.535 214.326Z" fill="#E69332"/>
<path d="M349.564 246.604L446.144 262.815L452.338 310.341L421.779 271.955L352.134 273.984L349.564 246.604Z" fill="#E69332"/>
<path d="M353.737 291.058L439.124 314.728L434.994 352.018L413.108 318.019L356.606 321.633L353.737 291.058Z" fill="#E69332"/>
<path d="M205.707 142.228L197.462 146.107L195.917 137.961L188.264 142.488L185.555 133.445L174.248 138.869L174.593 128.667L167.386 133.182L163.006 123.617L154.391 129.563L150.868 118.328L141.251 124.522L138.156 112.787L125.045 119.481L124.097 106.66L111.612 115.733L113.441 102.016L205.707 142.228Z" fill="#E2E3DB"/>
<path d="M115.408 159.808L121.145 149.485L127.523 158.49L131.262 150.581L138.351 157.312L145.716 147.291L151.822 155.846L157.692 147.474L164.227 154.497L170.287 146.194L179.25 152.862L183.708 144.732L190.895 151.595L115.408 159.808Z" fill="#E2E3DB"/>
<path d="M433.755 230.644L449.861 220.042L457.707 255.869L433.755 230.644Z" fill="#AC6715"/>
<path d="M421.779 271.955L446.144 262.815L452.338 310.341L421.779 271.955Z" fill="#AC6715"/>
<path d="M413.108 318.019L439.124 314.729L434.994 352.018L413.108 318.019Z" fill="#AC6715"/>
<path d="M196.002 368.682L214.69 372.301L208.85 407.458L196.002 368.682Z" fill="#AC6715"/>
<path d="M172.241 337.568L155.889 333.949L168.737 381.514L172.241 337.568Z" fill="#AC6715"/>
<path d="M140.7 290.483L129.603 284.796L122.595 349.94L140.7 290.483Z" fill="#AC6715"/>
</g>
<defs>
<clipPath id="clip0_88_1571">
<rect width="457.031" height="407.458" fill="white" transform="matrix(-1 0 0 1 457.707 0)"/>
</clipPath>
</defs>
</svg>
