<svg width="109px" height="109px" viewBox="0 0 109 109" xmlns="http://www.w3.org/2000/svg" xmlns:xlink="http://www.w3.org/1999/xlink" xml:space="preserve" version="1.1" baseProfile="full">
<line x1="1" y1="1" x2="108" y2="1" style="stroke:#ddd;stroke-width:2"></line>
<line x1="1" y1="1" x2="1" y2="108" style="stroke:#ddd;stroke-width:2"></line>
<line x1="1" y1="108" x2="108" y2="108" style="stroke:#ddd;stroke-width:2"></line>
<line x1="108" y1="1" x2="108" y2="108" style="stroke:#ddd;stroke-width:2"></line>
<line x1="1" y1="54" x2="108" y2="54" style="stroke:#ddd;stroke-width:2;stroke-dasharray:3 3"></line>
<line x1="55" y1="1" x2="55" y2="108" style="stroke:#ddd;stroke-width:2;stroke-dasharray:3 3"></line>
<path d="M32.23,28.07c3.61-7.23,13.73-12.39,23.37-12.39c15.36,0,23.16,6.78,23.16,15.88c0,8.96-3.61,18.61-22.98,18.33c-6.44-0.1-6.37,0.27,0,0c20.81-0.87,27.46,8.53,27.46,20.81c0,11.99-12.86,21.68-26.73,21.68c-13.87,0-24.38-5.67-29.01-13.18" style="fill:none;stroke:#999;stroke-width:3"></path>

</svg>