<svg width="218px" height="109px" viewBox="0 0 218 109" xmlns="http://www.w3.org/2000/svg" xmlns:xlink="http://www.w3.org/1999/xlink" xml:space="preserve" version="1.1" baseProfile="full">
<line x1="1" y1="1" x2="217" y2="1" style="stroke:#ddd;stroke-width:2"></line>
<line x1="1" y1="1" x2="1" y2="108" style="stroke:#ddd;stroke-width:2"></line>
<line x1="1" y1="108" x2="217" y2="108" style="stroke:#ddd;stroke-width:2"></line>
<line x1="217" y1="1" x2="217" y2="108" style="stroke:#ddd;stroke-width:2"></line>
<line x1="109" y1="1" x2="109" y2="108" style="stroke:#ddd;stroke-width:2"></line>
<line x1="1" y1="54" x2="217" y2="54" style="stroke:#ddd;stroke-width:2;stroke-dasharray:3 3"></line>
<line x1="55" y1="1" x2="55" y2="108" style="stroke:#ddd;stroke-width:2;stroke-dasharray:3 3"></line>
<line x1="164" y1="1" x2="164" y2="108" style="stroke:#ddd;stroke-width:2;stroke-dasharray:3 3"></line>
<path d="M60.96,16.08c-5.06,9.1-28.1,48.04-34.46,58.45c14.16,0,50.53,0,57.03,0" style="fill:none;stroke:#999;stroke-width:3"></path>

<path d="M169.96,16.08c-5.06,9.1-28.1,48.04-34.46,58.45c14.16,0,50.53,0,57.03,0" style="fill:none;stroke:#999;stroke-width:3"></path>
<path d="M175.55,47.33c0,7.23,0,38.76,0,45.11" style="fill:none;stroke:#999;stroke-width:3"></path>

</svg>