<svg width="327px" height="109px" viewBox="0 0 327 109" xmlns="http://www.w3.org/2000/svg" xmlns:xlink="http://www.w3.org/1999/xlink" xml:space="preserve" version="1.1" baseProfile="full">
<line x1="1" y1="1" x2="326" y2="1" style="stroke:#ddd;stroke-width:2"></line>
<line x1="1" y1="1" x2="1" y2="108" style="stroke:#ddd;stroke-width:2"></line>
<line x1="1" y1="108" x2="326" y2="108" style="stroke:#ddd;stroke-width:2"></line>
<line x1="326" y1="1" x2="326" y2="108" style="stroke:#ddd;stroke-width:2"></line>
<line x1="109" y1="1" x2="109" y2="108" style="stroke:#ddd;stroke-width:2"></line>
<line x1="218" y1="1" x2="218" y2="108" style="stroke:#ddd;stroke-width:2"></line>
<line x1="1" y1="54" x2="326" y2="54" style="stroke:#ddd;stroke-width:2;stroke-dasharray:3 3"></line>
<line x1="55" y1="1" x2="55" y2="108" style="stroke:#ddd;stroke-width:2;stroke-dasharray:3 3"></line>
<line x1="164" y1="1" x2="164" y2="108" style="stroke:#ddd;stroke-width:2;stroke-dasharray:3 3"></line>
<line x1="273" y1="1" x2="273" y2="108" style="stroke:#ddd;stroke-width:2;stroke-dasharray:3 3"></line>
<path d="M28.29,17.66c0,8.53-0.29,65.32-0.29,72.4" style="fill:none;stroke:#999;stroke-width:3"></path>

<path d="M137.29,17.66c0,8.53-0.29,65.32-0.29,72.4" style="fill:none;stroke:#999;stroke-width:3"></path>
<path d="M137.53,16.94c17.05,0,13.74,0,30.94,0c24.41,0,24.55,33.81,0,33.81c-16.47,0-17.07,0-30.51,0" style="fill:none;stroke:#999;stroke-width:3"></path>

<path d="M246.29,17.66c0,8.53-0.29,65.32-0.29,72.4" style="fill:none;stroke:#999;stroke-width:3"></path>
<path d="M246.53,16.94c17.05,0,13.74,0,30.94,0c24.41,0,24.55,33.81,0,33.81c-16.47,0-17.07,0-30.51,0" style="fill:none;stroke:#999;stroke-width:3"></path>
<path d="M246.53,52.78c18.2,0,14.67,0,33.02,0c26.05,0,26.21,38.01,0,38.01c-17.58,0-18.22,0-32.56,0" style="fill:none;stroke:#999;stroke-width:3"></path>

</svg>