<svg width="327px" height="109px" viewBox="0 0 327 109" xmlns="http://www.w3.org/2000/svg" xmlns:xlink="http://www.w3.org/1999/xlink" xml:space="preserve" version="1.1" baseProfile="full">
<line x1="1" y1="1" x2="326" y2="1" style="stroke:#ddd;stroke-width:2"></line>
<line x1="1" y1="1" x2="1" y2="108" style="stroke:#ddd;stroke-width:2"></line>
<line x1="1" y1="108" x2="326" y2="108" style="stroke:#ddd;stroke-width:2"></line>
<line x1="326" y1="1" x2="326" y2="108" style="stroke:#ddd;stroke-width:2"></line>
<line x1="109" y1="1" x2="109" y2="108" style="stroke:#ddd;stroke-width:2"></line>
<line x1="218" y1="1" x2="218" y2="108" style="stroke:#ddd;stroke-width:2"></line>
<line x1="1" y1="54" x2="326" y2="54" style="stroke:#ddd;stroke-width:2;stroke-dasharray:3 3"></line>
<line x1="55" y1="1" x2="55" y2="108" style="stroke:#ddd;stroke-width:2;stroke-dasharray:3 3"></line>
<line x1="164" y1="1" x2="164" y2="108" style="stroke:#ddd;stroke-width:2;stroke-dasharray:3 3"></line>
<line x1="273" y1="1" x2="273" y2="108" style="stroke:#ddd;stroke-width:2;stroke-dasharray:3 3"></line>
<path d="M21.64,35.33c0,7.23-0.14,51.62-0.14,57.4" style="fill:none;stroke:#999;stroke-width:3"></path>

<path d="M130.64,35.33c0,7.23-0.14,51.62-0.14,57.4" style="fill:none;stroke:#999;stroke-width:3"></path>
<path d="M130.65,50.44c6.92-19.34,33.32-21.07,33.32-2.27c0,19.22,0,37.48,0,44.42" style="fill:none;stroke:#999;stroke-width:3"></path>

<path d="M239.64,35.33c0,7.23-0.14,51.62-0.14,57.4" style="fill:none;stroke:#999;stroke-width:3"></path>
<path d="M239.65,50.44c6.92-19.34,33.32-21.07,33.32-2.27c0,19.22,0,37.48,0,44.42" style="fill:none;stroke:#999;stroke-width:3"></path>
<path d="M273.1,50.1c6.92-19.34,33.32-21.07,33.32-2.27c0,19.22,0,37.48,0,44.42" style="fill:none;stroke:#999;stroke-width:3"></path>

</svg>