<svg width="327px" height="109px" viewBox="0 0 327 109" xmlns="http://www.w3.org/2000/svg" xmlns:xlink="http://www.w3.org/1999/xlink" xml:space="preserve" version="1.1" baseProfile="full">
<line x1="1" y1="1" x2="326" y2="1" style="stroke:#ddd;stroke-width:2"></line>
<line x1="1" y1="1" x2="1" y2="108" style="stroke:#ddd;stroke-width:2"></line>
<line x1="1" y1="108" x2="326" y2="108" style="stroke:#ddd;stroke-width:2"></line>
<line x1="326" y1="1" x2="326" y2="108" style="stroke:#ddd;stroke-width:2"></line>
<line x1="109" y1="1" x2="109" y2="108" style="stroke:#ddd;stroke-width:2"></line>
<line x1="218" y1="1" x2="218" y2="108" style="stroke:#ddd;stroke-width:2"></line>
<line x1="1" y1="54" x2="326" y2="54" style="stroke:#ddd;stroke-width:2;stroke-dasharray:3 3"></line>
<line x1="55" y1="1" x2="55" y2="108" style="stroke:#ddd;stroke-width:2;stroke-dasharray:3 3"></line>
<line x1="164" y1="1" x2="164" y2="108" style="stroke:#ddd;stroke-width:2;stroke-dasharray:3 3"></line>
<line x1="273" y1="1" x2="273" y2="108" style="stroke:#ddd;stroke-width:2;stroke-dasharray:3 3"></line>
<path d="M26.95,16.94c6.94,0,52.32,0,57.38,0" style="fill:none;stroke:#999;stroke-width:3"></path>

<path d="M135.95,16.94c6.94,0,52.32,0,57.38,0" style="fill:none;stroke:#999;stroke-width:3"></path>
<path d="M193.2,17.25c-11.69,14.64-50.05,61.98-59.7,73.55" style="fill:none;stroke:#999;stroke-width:3"></path>

<path d="M244.95,16.94c6.94,0,52.32,0,57.38,0" style="fill:none;stroke:#999;stroke-width:3"></path>
<path d="M302.2,17.25c-11.69,14.64-50.05,61.98-59.7,73.55" style="fill:none;stroke:#999;stroke-width:3"></path>
<path d="M242.95,90.79c6.94,0,57.07,0,62.13,0" style="fill:none;stroke:#999;stroke-width:3"></path>

</svg>