<svg width="327px" height="109px" viewBox="0 0 327 109" xmlns="http://www.w3.org/2000/svg" xmlns:xlink="http://www.w3.org/1999/xlink" xml:space="preserve" version="1.1" baseProfile="full">
<line x1="1" y1="1" x2="326" y2="1" style="stroke:#ddd;stroke-width:2"></line>
<line x1="1" y1="1" x2="1" y2="108" style="stroke:#ddd;stroke-width:2"></line>
<line x1="1" y1="108" x2="326" y2="108" style="stroke:#ddd;stroke-width:2"></line>
<line x1="326" y1="1" x2="326" y2="108" style="stroke:#ddd;stroke-width:2"></line>
<line x1="109" y1="1" x2="109" y2="108" style="stroke:#ddd;stroke-width:2"></line>
<line x1="218" y1="1" x2="218" y2="108" style="stroke:#ddd;stroke-width:2"></line>
<line x1="1" y1="54" x2="326" y2="54" style="stroke:#ddd;stroke-width:2;stroke-dasharray:3 3"></line>
<line x1="55" y1="1" x2="55" y2="108" style="stroke:#ddd;stroke-width:2;stroke-dasharray:3 3"></line>
<line x1="164" y1="1" x2="164" y2="108" style="stroke:#ddd;stroke-width:2;stroke-dasharray:3 3"></line>
<line x1="273" y1="1" x2="273" y2="108" style="stroke:#ddd;stroke-width:2;stroke-dasharray:3 3"></line>
<path d="M68.23,9c0.08,0.7-0.38,2.04-0.91,2.79c-6.79,9.58-18.69,16.35-35.19,26.71" style="fill:none;stroke:#999;stroke-width:3"></path>

<path d="M177.23000000000002,9c0.08,0.7-0.38,2.04-0.91,2.79c-6.79,9.58-18.69,16.35-35.19,26.71" style="fill:none;stroke:#999;stroke-width:3"></path>
<path d="M148.39,10.78C184.62,31,176.12,109.38,159.07999999999998,89.47" style="fill:none;stroke:#999;stroke-width:3"></path>

<path d="M286.23,9c0.08,0.7-0.38,2.04-0.91,2.79c-6.79,9.58-18.69,16.35-35.19,26.71" style="fill:none;stroke:#999;stroke-width:3"></path>
<path d="M257.39,10.78C293.62,31,285.12,109.38,268.08,89.47" style="fill:none;stroke:#999;stroke-width:3"></path>
<path d="M277.13,39.79c-0.26,1.84-0.76,2.79-1.55,3.9c-5.75,8.06-13.03,16.38-28.33,28.19" style="fill:none;stroke:#999;stroke-width:3"></path>

</svg>