<svg width="218px" height="109px" viewBox="0 0 218 109" xmlns="http://www.w3.org/2000/svg" xmlns:xlink="http://www.w3.org/1999/xlink" xml:space="preserve" version="1.1" baseProfile="full">
<line x1="1" y1="1" x2="217" y2="1" style="stroke:#ddd;stroke-width:2"></line>
<line x1="1" y1="1" x2="1" y2="108" style="stroke:#ddd;stroke-width:2"></line>
<line x1="1" y1="108" x2="217" y2="108" style="stroke:#ddd;stroke-width:2"></line>
<line x1="217" y1="1" x2="217" y2="108" style="stroke:#ddd;stroke-width:2"></line>
<line x1="109" y1="1" x2="109" y2="108" style="stroke:#ddd;stroke-width:2"></line>
<line x1="1" y1="54" x2="217" y2="54" style="stroke:#ddd;stroke-width:2;stroke-dasharray:3 3"></line>
<line x1="55" y1="1" x2="55" y2="108" style="stroke:#ddd;stroke-width:2;stroke-dasharray:3 3"></line>
<line x1="164" y1="1" x2="164" y2="108" style="stroke:#ddd;stroke-width:2;stroke-dasharray:3 3"></line>
<path d="M21.5,29.66c2.01,2.17,2.61,4.68,2.17,7.43c-3.09,19.16-1.03,32.01,7.93,41.45c6.12,6.45,6.26,3.14,7.04-5.21" style="fill:none;stroke:#999;stroke-width:3"></path>

<path d="M130.5,29.66c2.01,2.17,2.61,4.68,2.17,7.43c-3.09,19.16-1.03,32.01,7.93,41.45c6.12,6.45,6.26,3.14,7.04-5.21" style="fill:none;stroke:#999;stroke-width:3"></path>
<path d="M181.95999999999998,36.51c9.44,8.05,17.79,18.82,18.41,33.83" style="fill:none;stroke:#999;stroke-width:3"></path>

</svg>