<svg width="327px" height="109px" viewBox="0 0 327 109" xmlns="http://www.w3.org/2000/svg" xmlns:xlink="http://www.w3.org/1999/xlink" xml:space="preserve" version="1.1" baseProfile="full">
<line x1="1" y1="1" x2="326" y2="1" style="stroke:#ddd;stroke-width:2"></line>
<line x1="1" y1="1" x2="1" y2="108" style="stroke:#ddd;stroke-width:2"></line>
<line x1="1" y1="108" x2="326" y2="108" style="stroke:#ddd;stroke-width:2"></line>
<line x1="326" y1="1" x2="326" y2="108" style="stroke:#ddd;stroke-width:2"></line>
<line x1="109" y1="1" x2="109" y2="108" style="stroke:#ddd;stroke-width:2"></line>
<line x1="218" y1="1" x2="218" y2="108" style="stroke:#ddd;stroke-width:2"></line>
<line x1="1" y1="54" x2="326" y2="54" style="stroke:#ddd;stroke-width:2;stroke-dasharray:3 3"></line>
<line x1="55" y1="1" x2="55" y2="108" style="stroke:#ddd;stroke-width:2;stroke-dasharray:3 3"></line>
<line x1="164" y1="1" x2="164" y2="108" style="stroke:#ddd;stroke-width:2;stroke-dasharray:3 3"></line>
<line x1="273" y1="1" x2="273" y2="108" style="stroke:#ddd;stroke-width:2;stroke-dasharray:3 3"></line>
<path d="M27.0,38.9c2.42,1.33,5.38,1.47,8.32,1.06c8.79-1.24,28.67-7.76,34.15-10.43c2.79-1.36,3.78-1.91,6.28-3.53" style="fill:none;stroke:#999;stroke-width:3"></path>

<path d="M136.0,38.9c2.42,1.33,5.38,1.47,8.32,1.06c8.79-1.24,28.67-7.76,34.15-10.43c2.79-1.36,3.78-1.91,6.28-3.53" style="fill:none;stroke:#999;stroke-width:3"></path>
<path d="M150.5,13.88c1.5,0.88,3.63,2.94,4.5,5.12c5.5,13.75,15.25,27.62,26.87,39.5c7.98,8.15,6.38,10-6,3.12" style="fill:none;stroke:#999;stroke-width:3"></path>

<path d="M245.0,38.9c2.42,1.33,5.38,1.47,8.32,1.06c8.79-1.24,28.67-7.76,34.15-10.43c2.79-1.36,3.78-1.91,6.28-3.53" style="fill:none;stroke:#999;stroke-width:3"></path>
<path d="M259.5,13.88c1.5,0.88,3.63,2.94,4.5,5.12c5.5,13.75,15.25,27.62,26.87,39.5c7.98,8.15,6.38,10-6,3.12" style="fill:none;stroke:#999;stroke-width:3"></path>
<path d="M253.25,80.5c4.5,11.75,20.88,12.5,38.38,7.5" style="fill:none;stroke:#999;stroke-width:3"></path>

</svg>