<svg width="436px" height="109px" viewBox="0 0 436 109" xmlns="http://www.w3.org/2000/svg" xmlns:xlink="http://www.w3.org/1999/xlink" xml:space="preserve" version="1.1" baseProfile="full">
<line x1="1" y1="1" x2="435" y2="1" style="stroke:#ddd;stroke-width:2"></line>
<line x1="1" y1="1" x2="1" y2="108" style="stroke:#ddd;stroke-width:2"></line>
<line x1="1" y1="108" x2="435" y2="108" style="stroke:#ddd;stroke-width:2"></line>
<line x1="435" y1="1" x2="435" y2="108" style="stroke:#ddd;stroke-width:2"></line>
<line x1="109" y1="1" x2="109" y2="108" style="stroke:#ddd;stroke-width:2"></line>
<line x1="218" y1="1" x2="218" y2="108" style="stroke:#ddd;stroke-width:2"></line>
<line x1="327" y1="1" x2="327" y2="108" style="stroke:#ddd;stroke-width:2"></line>
<line x1="1" y1="54" x2="435" y2="54" style="stroke:#ddd;stroke-width:2;stroke-dasharray:3 3"></line>
<line x1="55" y1="1" x2="55" y2="108" style="stroke:#ddd;stroke-width:2;stroke-dasharray:3 3"></line>
<line x1="164" y1="1" x2="164" y2="108" style="stroke:#ddd;stroke-width:2;stroke-dasharray:3 3"></line>
<line x1="273" y1="1" x2="273" y2="108" style="stroke:#ddd;stroke-width:2;stroke-dasharray:3 3"></line>
<line x1="382" y1="1" x2="382" y2="108" style="stroke:#ddd;stroke-width:2;stroke-dasharray:3 3"></line>
<path d="M15.5,37.12c2.88,2.12,6.94,1.51,12.75,0.25c16.12-3.5,36.14-5.38,46.62-6.5c7-0.75,11.88-0.62,17.75,0.12" style="fill:none;stroke:#999;stroke-width:3"></path>

<path d="M124.5,37.12c2.88,2.12,6.94,1.51,12.75,0.25c16.12-3.5,36.14-5.38,46.62-6.5c7-0.75,11.88-0.62,17.75,0.12" style="fill:none;stroke:#999;stroke-width:3"></path>
<path d="M166.62,13.38c2,1.5,2.75,3.25,2.75,5.88c0,10.38,0,35.12,0,40.75c0,14.62-15.62,16.38-15.62,1.75c0-14.25,18-14.12,18,6.38c0,13.25-7.75,21.5-16,28.38" style="fill:none;stroke:#999;stroke-width:3"></path>

<path d="M233.5,37.12c2.88,2.12,6.94,1.51,12.75,0.25c16.12-3.5,36.14-5.38,46.62-6.5c7-0.75,11.88-0.62,17.75,0.12" style="fill:none;stroke:#999;stroke-width:3"></path>
<path d="M275.62,13.38c2,1.5,2.75,3.25,2.75,5.88c0,10.38,0,35.12,0,40.75c0,14.62-15.62,16.38-15.62,1.75c0-14.25,18-14.12,18,6.38c0,13.25-7.75,21.5-16,28.38" style="fill:none;stroke:#999;stroke-width:3"></path>
<path d="M295.0,13c2.75,1.75,6,5.38,7.75,8.5" style="fill:none;stroke:#999;stroke-width:3"></path>

<path d="M342.5,37.12c2.88,2.12,6.94,1.51,12.75,0.25c16.12-3.5,36.14-5.38,46.62-6.5c7-0.75,11.88-0.62,17.75,0.12" style="fill:none;stroke:#999;stroke-width:3"></path>
<path d="M384.62,13.38c2,1.5,2.75,3.25,2.75,5.88c0,10.38,0,35.12,0,40.75c0,14.62-15.62,16.38-15.62,1.75c0-14.25,18-14.12,18,6.38c0,13.25-7.75,21.5-16,28.38" style="fill:none;stroke:#999;stroke-width:3"></path>
<path d="M404.0,13c2.75,1.75,6,5.38,7.75,8.5" style="fill:none;stroke:#999;stroke-width:3"></path>
<path d="M410.37,8.12c3.06,1.57,6.68,4.82,8.62,7.62" style="fill:none;stroke:#999;stroke-width:3"></path>

</svg>