<svg width="545px" height="109px" viewBox="0 0 545 109" xmlns="http://www.w3.org/2000/svg" xmlns:xlink="http://www.w3.org/1999/xlink" xml:space="preserve" version="1.1" baseProfile="full">
<line x1="1" y1="1" x2="544" y2="1" style="stroke:#ddd;stroke-width:2"></line>
<line x1="1" y1="1" x2="1" y2="108" style="stroke:#ddd;stroke-width:2"></line>
<line x1="1" y1="108" x2="544" y2="108" style="stroke:#ddd;stroke-width:2"></line>
<line x1="544" y1="1" x2="544" y2="108" style="stroke:#ddd;stroke-width:2"></line>
<line x1="109" y1="1" x2="109" y2="108" style="stroke:#ddd;stroke-width:2"></line>
<line x1="218" y1="1" x2="218" y2="108" style="stroke:#ddd;stroke-width:2"></line>
<line x1="327" y1="1" x2="327" y2="108" style="stroke:#ddd;stroke-width:2"></line>
<line x1="436" y1="1" x2="436" y2="108" style="stroke:#ddd;stroke-width:2"></line>
<line x1="1" y1="54" x2="544" y2="54" style="stroke:#ddd;stroke-width:2;stroke-dasharray:3 3"></line>
<line x1="55" y1="1" x2="55" y2="108" style="stroke:#ddd;stroke-width:2;stroke-dasharray:3 3"></line>
<line x1="164" y1="1" x2="164" y2="108" style="stroke:#ddd;stroke-width:2;stroke-dasharray:3 3"></line>
<line x1="273" y1="1" x2="273" y2="108" style="stroke:#ddd;stroke-width:2;stroke-dasharray:3 3"></line>
<line x1="382" y1="1" x2="382" y2="108" style="stroke:#ddd;stroke-width:2;stroke-dasharray:3 3"></line>
<line x1="491" y1="1" x2="491" y2="108" style="stroke:#ddd;stroke-width:2;stroke-dasharray:3 3"></line>
<path d="M16.5,49.93c2.88,2.42,6.86,1.57,12.75,0.53c19-3.34,32.5-5.34,47.12-7.64c6.97-1.1,11.88-1.21,17.75-0.36" style="fill:none;stroke:#999;stroke-width:3"></path>

<path d="M125.5,49.93c2.88,2.42,6.86,1.57,12.75,0.53c19-3.34,32.5-5.34,47.12-7.64c6.97-1.1,11.88-1.21,17.75-0.36" style="fill:none;stroke:#999;stroke-width:3"></path>
<path d="M178.74,17.75c2,1.5,2.75,3.25,2.75,5.88c0,10.38,0,17.88,0,23.5c0,25.62-5.75,23.25-11.88,19" style="fill:none;stroke:#999;stroke-width:3"></path>

<path d="M234.5,49.93c2.88,2.42,6.86,1.57,12.75,0.53c19-3.34,32.5-5.34,47.12-7.64c6.97-1.1,11.88-1.21,17.75-0.36" style="fill:none;stroke:#999;stroke-width:3"></path>
<path d="M287.74,17.75c2,1.5,2.75,3.25,2.75,5.88c0,10.38,0,17.88,0,23.5c0,25.62-5.75,23.25-11.88,19" style="fill:none;stroke:#999;stroke-width:3"></path>
<path d="M253.62,26.25c2,1.5,2.75,3.25,2.75,5.88c0,10.38,0,28.38,0,34c0,14.5,6.38,19.55,20.14,19.55c10.24,0,13.74,0.07,22.61-1.68" style="fill:none;stroke:#999;stroke-width:3"></path>

<path d="M343.5,49.93c2.88,2.42,6.86,1.57,12.75,0.53c19-3.34,32.5-5.34,47.12-7.64c6.97-1.1,11.88-1.21,17.75-0.36" style="fill:none;stroke:#999;stroke-width:3"></path>
<path d="M396.74,17.75c2,1.5,2.75,3.25,2.75,5.88c0,10.38,0,17.88,0,23.5c0,25.62-5.75,23.25-11.88,19" style="fill:none;stroke:#999;stroke-width:3"></path>
<path d="M362.62,26.25c2,1.5,2.75,3.25,2.75,5.88c0,10.38,0,28.38,0,34c0,14.5,6.38,19.55,20.14,19.55c10.24,0,13.74,0.07,22.61-1.68" style="fill:none;stroke:#999;stroke-width:3"></path>
<path d="M411.5,17.25c2.75,1.75,6,5.38,7.75,8.5" style="fill:none;stroke:#999;stroke-width:3"></path>

<path d="M452.5,49.93c2.88,2.42,6.86,1.57,12.75,0.53c19-3.34,32.5-5.34,47.12-7.64c6.97-1.1,11.88-1.21,17.75-0.36" style="fill:none;stroke:#999;stroke-width:3"></path>
<path d="M505.74,17.75c2,1.5,2.75,3.25,2.75,5.88c0,10.38,0,17.88,0,23.5c0,25.62-5.75,23.25-11.88,19" style="fill:none;stroke:#999;stroke-width:3"></path>
<path d="M471.62,26.25c2,1.5,2.75,3.25,2.75,5.88c0,10.38,0,28.38,0,34c0,14.5,6.38,19.55,20.14,19.55c10.24,0,13.74,0.07,22.61-1.68" style="fill:none;stroke:#999;stroke-width:3"></path>
<path d="M520.5,17.25c2.75,1.75,6,5.38,7.75,8.5" style="fill:none;stroke:#999;stroke-width:3"></path>
<path d="M526.87,12.38c3.06,1.57,6.68,4.82,8.62,7.62" style="fill:none;stroke:#999;stroke-width:3"></path>

</svg>