<svg width="654px" height="109px" viewBox="0 0 654 109" xmlns="http://www.w3.org/2000/svg" xmlns:xlink="http://www.w3.org/1999/xlink" xml:space="preserve" version="1.1" baseProfile="full">
<line x1="1" y1="1" x2="653" y2="1" style="stroke:#ddd;stroke-width:2"></line>
<line x1="1" y1="1" x2="1" y2="108" style="stroke:#ddd;stroke-width:2"></line>
<line x1="1" y1="108" x2="653" y2="108" style="stroke:#ddd;stroke-width:2"></line>
<line x1="653" y1="1" x2="653" y2="108" style="stroke:#ddd;stroke-width:2"></line>
<line x1="109" y1="1" x2="109" y2="108" style="stroke:#ddd;stroke-width:2"></line>
<line x1="218" y1="1" x2="218" y2="108" style="stroke:#ddd;stroke-width:2"></line>
<line x1="327" y1="1" x2="327" y2="108" style="stroke:#ddd;stroke-width:2"></line>
<line x1="436" y1="1" x2="436" y2="108" style="stroke:#ddd;stroke-width:2"></line>
<line x1="545" y1="1" x2="545" y2="108" style="stroke:#ddd;stroke-width:2"></line>
<line x1="1" y1="54" x2="653" y2="54" style="stroke:#ddd;stroke-width:2;stroke-dasharray:3 3"></line>
<line x1="55" y1="1" x2="55" y2="108" style="stroke:#ddd;stroke-width:2;stroke-dasharray:3 3"></line>
<line x1="164" y1="1" x2="164" y2="108" style="stroke:#ddd;stroke-width:2;stroke-dasharray:3 3"></line>
<line x1="273" y1="1" x2="273" y2="108" style="stroke:#ddd;stroke-width:2;stroke-dasharray:3 3"></line>
<line x1="382" y1="1" x2="382" y2="108" style="stroke:#ddd;stroke-width:2;stroke-dasharray:3 3"></line>
<line x1="491" y1="1" x2="491" y2="108" style="stroke:#ddd;stroke-width:2;stroke-dasharray:3 3"></line>
<line x1="600" y1="1" x2="600" y2="108" style="stroke:#ddd;stroke-width:2;stroke-dasharray:3 3"></line>
<path d="M24.38,35.38c1.38,0.62,3.88,1.51,6.38,1.12c6.5-1,16.25-2.88,24.88-4.75c2.64-0.57,5.38-1.5,7.62-2.38" style="fill:none;stroke:#999;stroke-width:3"></path>

<path d="M133.38,35.38c1.38,0.62,3.88,1.51,6.38,1.12c6.5-1,16.25-2.88,24.88-4.75c2.64-0.57,5.38-1.5,7.62-2.38" style="fill:none;stroke:#999;stroke-width:3"></path>
<path d="M154.0,16.88c0.75,1.25,0.87,3.62,0.38,5.25c-6.35,20.94-12.75,36.37-18.88,52.37c-1.36,3.56-4.75,11.75-6,14.62" style="fill:none;stroke:#999;stroke-width:3"></path>

<path d="M242.38,35.38c1.38,0.62,3.88,1.51,6.38,1.12c6.5-1,16.25-2.88,24.88-4.75c2.64-0.57,5.38-1.5,7.62-2.38" style="fill:none;stroke:#999;stroke-width:3"></path>
<path d="M263.0,16.88c0.75,1.25,0.87,3.62,0.38,5.25c-6.35,20.94-12.75,36.37-18.88,52.37c-1.36,3.56-4.75,11.75-6,14.62" style="fill:none;stroke:#999;stroke-width:3"></path>
<path d="M274.38,53.25c12.38-2.75,18.25-3.7,23.62-3.12c15.12,1.62-1.12,2.25-4.25,4.88" style="fill:none;stroke:#999;stroke-width:3"></path>

<path d="M351.38,35.38c1.38,0.62,3.88,1.51,6.38,1.12c6.5-1,16.25-2.88,24.88-4.75c2.64-0.57,5.38-1.5,7.62-2.38" style="fill:none;stroke:#999;stroke-width:3"></path>
<path d="M372.0,16.88c0.75,1.25,0.87,3.62,0.38,5.25c-6.35,20.94-12.75,36.37-18.88,52.37c-1.36,3.56-4.75,11.75-6,14.62" style="fill:none;stroke:#999;stroke-width:3"></path>
<path d="M383.38,53.25c12.38-2.75,18.25-3.7,23.62-3.12c15.12,1.62-1.12,2.25-4.25,4.88" style="fill:none;stroke:#999;stroke-width:3"></path>
<path d="M381.13,82.25c4.38,7,14.25,8.12,34.5,5.62" style="fill:none;stroke:#999;stroke-width:3"></path>

<path d="M460.38,35.38c1.38,0.62,3.88,1.51,6.38,1.12c6.5-1,16.25-2.88,24.88-4.75c2.64-0.57,5.38-1.5,7.62-2.38" style="fill:none;stroke:#999;stroke-width:3"></path>
<path d="M481.0,16.88c0.75,1.25,0.87,3.62,0.38,5.25c-6.35,20.94-12.75,36.37-18.88,52.37c-1.36,3.56-4.75,11.75-6,14.62" style="fill:none;stroke:#999;stroke-width:3"></path>
<path d="M492.38,53.25c12.38-2.75,18.25-3.7,23.62-3.12c15.12,1.62-1.12,2.25-4.25,4.88" style="fill:none;stroke:#999;stroke-width:3"></path>
<path d="M490.13,82.25c4.38,7,14.25,8.12,34.5,5.62" style="fill:none;stroke:#999;stroke-width:3"></path>
<path d="M512.0,22.5c2.75,1.75,6,5.38,7.75,8.5" style="fill:none;stroke:#999;stroke-width:3"></path>

<path d="M569.38,35.38c1.38,0.62,3.88,1.51,6.38,1.12c6.5-1,16.25-2.88,24.88-4.75c2.64-0.57,5.38-1.5,7.62-2.38" style="fill:none;stroke:#999;stroke-width:3"></path>
<path d="M590.0,16.88c0.75,1.25,0.87,3.62,0.38,5.25c-6.35,20.94-12.75,36.37-18.88,52.37c-1.36,3.56-4.75,11.75-6,14.62" style="fill:none;stroke:#999;stroke-width:3"></path>
<path d="M601.38,53.25c12.38-2.75,18.25-3.7,23.62-3.12c15.12,1.62-1.12,2.25-4.25,4.88" style="fill:none;stroke:#999;stroke-width:3"></path>
<path d="M599.13,82.25c4.38,7,14.25,8.12,34.5,5.62" style="fill:none;stroke:#999;stroke-width:3"></path>
<path d="M621.0,22.5c2.75,1.75,6,5.38,7.75,8.5" style="fill:none;stroke:#999;stroke-width:3"></path>
<path d="M627.38,17.62c3.06,1.57,6.68,4.82,8.62,7.62" style="fill:none;stroke:#999;stroke-width:3"></path>

</svg>