<svg width="436px" height="109px" viewBox="0 0 436 109" xmlns="http://www.w3.org/2000/svg" xmlns:xlink="http://www.w3.org/1999/xlink" xml:space="preserve" version="1.1" baseProfile="full">
<line x1="1" y1="1" x2="435" y2="1" style="stroke:#ddd;stroke-width:2"></line>
<line x1="1" y1="1" x2="1" y2="108" style="stroke:#ddd;stroke-width:2"></line>
<line x1="1" y1="108" x2="435" y2="108" style="stroke:#ddd;stroke-width:2"></line>
<line x1="435" y1="1" x2="435" y2="108" style="stroke:#ddd;stroke-width:2"></line>
<line x1="109" y1="1" x2="109" y2="108" style="stroke:#ddd;stroke-width:2"></line>
<line x1="218" y1="1" x2="218" y2="108" style="stroke:#ddd;stroke-width:2"></line>
<line x1="327" y1="1" x2="327" y2="108" style="stroke:#ddd;stroke-width:2"></line>
<line x1="1" y1="54" x2="435" y2="54" style="stroke:#ddd;stroke-width:2;stroke-dasharray:3 3"></line>
<line x1="55" y1="1" x2="55" y2="108" style="stroke:#ddd;stroke-width:2;stroke-dasharray:3 3"></line>
<line x1="164" y1="1" x2="164" y2="108" style="stroke:#ddd;stroke-width:2;stroke-dasharray:3 3"></line>
<line x1="273" y1="1" x2="273" y2="108" style="stroke:#ddd;stroke-width:2;stroke-dasharray:3 3"></line>
<line x1="382" y1="1" x2="382" y2="108" style="stroke:#ddd;stroke-width:2;stroke-dasharray:3 3"></line>
<path d="M22.88,28.96c1.18,0.58,3.3,1.1,5.47,1.05c5.53-0.13,10.9-0.98,16.52-2.42c4.82-1.23,9.13-3.12,11.38-4.22" style="fill:none;stroke:#999;stroke-width:3"></path>

<path d="M131.88,28.96c1.18,0.58,3.3,1.1,5.47,1.05c5.53-0.13,10.9-0.98,16.52-2.42c4.82-1.23,9.13-3.12,11.38-4.22" style="fill:none;stroke:#999;stroke-width:3"></path>
<path d="M151.99,14c0.63,0.89,0.56,2.52,0.31,3.72c-2.96,14.16-7.95,26.56-14.25,37.87c-2.05,3.69-4.25,7.24-6.55,10.65" style="fill:none;stroke:#999;stroke-width:3"></path>

<path d="M240.88,28.96c1.18,0.58,3.3,1.1,5.47,1.05c5.53-0.13,10.9-0.98,16.52-2.42c4.82-1.23,9.13-3.12,11.38-4.22" style="fill:none;stroke:#999;stroke-width:3"></path>
<path d="M260.99,14c0.63,0.89,0.56,2.52,0.31,3.72c-2.96,14.16-7.95,26.56-14.25,37.87c-2.05,3.69-4.25,7.24-6.55,10.65" style="fill:none;stroke:#999;stroke-width:3"></path>
<path d="M290.26,23.25c6.88,2.5,12.62,5.62,14.75,9.5c4.06,7.41-0.25,3.38-3.5,3.88" style="fill:none;stroke:#999;stroke-width:3"></path>

<path d="M349.88,28.96c1.18,0.58,3.3,1.1,5.47,1.05c5.53-0.13,10.9-0.98,16.52-2.42c4.82-1.23,9.13-3.12,11.38-4.22" style="fill:none;stroke:#999;stroke-width:3"></path>
<path d="M369.99,14c0.63,0.89,0.56,2.52,0.31,3.72c-2.96,14.16-7.95,26.56-14.25,37.87c-2.05,3.69-4.25,7.24-6.55,10.65" style="fill:none;stroke:#999;stroke-width:3"></path>
<path d="M399.26,23.25c6.88,2.5,12.62,5.62,14.75,9.5c4.06,7.41-0.25,3.38-3.5,3.88" style="fill:none;stroke:#999;stroke-width:3"></path>
<path d="M395.88,44.62c-1,1.88-2.14,5.24-1.88,8.25c0.62,7,1.5,13.12,1.5,20.62c0,20-27.88,19.75-27.88,9.38c0-5.62,8.25-8.25,13.88-8.25c8.75,0,21.5,3.25,29.75,11.5" style="fill:none;stroke:#999;stroke-width:3"></path>

</svg>