<svg width="327px" height="109px" viewBox="0 0 327 109" xmlns="http://www.w3.org/2000/svg" xmlns:xlink="http://www.w3.org/1999/xlink" xml:space="preserve" version="1.1" baseProfile="full">
<line x1="1" y1="1" x2="326" y2="1" style="stroke:#ddd;stroke-width:2"></line>
<line x1="1" y1="1" x2="1" y2="108" style="stroke:#ddd;stroke-width:2"></line>
<line x1="1" y1="108" x2="326" y2="108" style="stroke:#ddd;stroke-width:2"></line>
<line x1="326" y1="1" x2="326" y2="108" style="stroke:#ddd;stroke-width:2"></line>
<line x1="109" y1="1" x2="109" y2="108" style="stroke:#ddd;stroke-width:2"></line>
<line x1="218" y1="1" x2="218" y2="108" style="stroke:#ddd;stroke-width:2"></line>
<line x1="1" y1="54" x2="326" y2="54" style="stroke:#ddd;stroke-width:2;stroke-dasharray:3 3"></line>
<line x1="55" y1="1" x2="55" y2="108" style="stroke:#ddd;stroke-width:2;stroke-dasharray:3 3"></line>
<line x1="164" y1="1" x2="164" y2="108" style="stroke:#ddd;stroke-width:2;stroke-dasharray:3 3"></line>
<line x1="273" y1="1" x2="273" y2="108" style="stroke:#ddd;stroke-width:2;stroke-dasharray:3 3"></line>
<path d="M20.0,25.12c1.25,0.88,3.75,2.25,6.5,1.38c2.75-0.87,7.31-2.38,11.38-4.5c6-3.12,8.42-1.01,4.25,4c-27.13,32.62-23.76,58.5-1.52,62.88c18.07,3.56,37.63-16.38,35.63-56.51c-0.72-14.5-0.17-14.78,4.12-1.75c3.76,11.38,10.26,20.76,16.14,26.5" style="fill:none;stroke:#999;stroke-width:3"></path>

<path d="M129.0,25.12c1.25,0.88,3.75,2.25,6.5,1.38c2.75-0.87,7.31-2.38,11.38-4.5c6-3.12,8.42-1.01,4.25,4c-27.13,32.62-23.76,58.5-1.52,62.88c18.07,3.56,37.63-16.38,35.63-56.51c-0.72-14.5-0.17-14.78,4.12-1.75c3.76,11.38,10.26,20.76,16.14,26.5" style="fill:none;stroke:#999;stroke-width:3"></path>
<path d="M195.5,13.5c2.75,1.75,6,5.38,7.75,8.5" style="fill:none;stroke:#999;stroke-width:3"></path>

<path d="M238.0,25.12c1.25,0.88,3.75,2.25,6.5,1.38c2.75-0.87,7.31-2.38,11.38-4.5c6-3.12,8.42-1.01,4.25,4c-27.13,32.62-23.76,58.5-1.52,62.88c18.07,3.56,37.63-16.38,35.63-56.51c-0.72-14.5-0.17-14.78,4.12-1.75c3.76,11.38,10.26,20.76,16.14,26.5" style="fill:none;stroke:#999;stroke-width:3"></path>
<path d="M304.5,13.5c2.75,1.75,6,5.38,7.75,8.5" style="fill:none;stroke:#999;stroke-width:3"></path>
<path d="M310.87,8.62c3.06,1.57,6.68,4.82,8.62,7.62" style="fill:none;stroke:#999;stroke-width:3"></path>

</svg>