<svg width="218px" height="109px" viewBox="0 0 218 109" xmlns="http://www.w3.org/2000/svg" xmlns:xlink="http://www.w3.org/1999/xlink" xml:space="preserve" version="1.1" baseProfile="full">
<line x1="1" y1="1" x2="217" y2="1" style="stroke:#ddd;stroke-width:2"></line>
<line x1="1" y1="1" x2="1" y2="108" style="stroke:#ddd;stroke-width:2"></line>
<line x1="1" y1="108" x2="217" y2="108" style="stroke:#ddd;stroke-width:2"></line>
<line x1="217" y1="1" x2="217" y2="108" style="stroke:#ddd;stroke-width:2"></line>
<line x1="109" y1="1" x2="109" y2="108" style="stroke:#ddd;stroke-width:2"></line>
<line x1="1" y1="54" x2="217" y2="54" style="stroke:#ddd;stroke-width:2;stroke-dasharray:3 3"></line>
<line x1="55" y1="1" x2="55" y2="108" style="stroke:#ddd;stroke-width:2;stroke-dasharray:3 3"></line>
<line x1="164" y1="1" x2="164" y2="108" style="stroke:#ddd;stroke-width:2;stroke-dasharray:3 3"></line>
<path d="M15.0,48.75c2.25,1.62,4.67,1.96,7-0.38c3.62-3.62,7.46-6.54,11.25-10.5c5.5-5.75,8.48-4.75,13.12-0.88c12.12,10.12,30.38,25.12,33.38,27.38c3,2.26,12.38,10.38,13.88,11.63" style="fill:none;stroke:#999;stroke-width:3"></path>

<path d="M124.0,48.75c2.25,1.62,4.67,1.96,7-0.38c3.62-3.62,7.46-6.54,11.25-10.5c5.5-5.75,8.48-4.75,13.12-0.88c12.12,10.12,30.38,25.12,33.38,27.38c3,2.26,12.38,10.38,13.88,11.63" style="fill:none;stroke:#999;stroke-width:3"></path>
<path d="M182.63,36.75c-9.62,0-9.25-14.25,0-14.25c9.75,0,9.5,14.25,0,14.25" style="fill:none;stroke:#999;stroke-width:3"></path>

</svg>