<svg width="327px" height="109px" viewBox="0 0 327 109" xmlns="http://www.w3.org/2000/svg" xmlns:xlink="http://www.w3.org/1999/xlink" xml:space="preserve" version="1.1" baseProfile="full">
<line x1="1" y1="1" x2="326" y2="1" style="stroke:#ddd;stroke-width:2"></line>
<line x1="1" y1="1" x2="1" y2="108" style="stroke:#ddd;stroke-width:2"></line>
<line x1="1" y1="108" x2="326" y2="108" style="stroke:#ddd;stroke-width:2"></line>
<line x1="326" y1="1" x2="326" y2="108" style="stroke:#ddd;stroke-width:2"></line>
<line x1="109" y1="1" x2="109" y2="108" style="stroke:#ddd;stroke-width:2"></line>
<line x1="218" y1="1" x2="218" y2="108" style="stroke:#ddd;stroke-width:2"></line>
<line x1="1" y1="54" x2="326" y2="54" style="stroke:#ddd;stroke-width:2;stroke-dasharray:3 3"></line>
<line x1="55" y1="1" x2="55" y2="108" style="stroke:#ddd;stroke-width:2;stroke-dasharray:3 3"></line>
<line x1="164" y1="1" x2="164" y2="108" style="stroke:#ddd;stroke-width:2;stroke-dasharray:3 3"></line>
<line x1="273" y1="1" x2="273" y2="108" style="stroke:#ddd;stroke-width:2;stroke-dasharray:3 3"></line>
<path d="M19.59,31.65c2.1,1.55,4.24,1.66,6.81,1.21c8.17-1.41,15.33-2.98,23.19-4.96c2.76-0.69,5.44-1.27,7.05-1.27" style="fill:none;stroke:#999;stroke-width:3"></path>

<path d="M128.59,31.65c2.1,1.55,4.24,1.66,6.81,1.21c8.17-1.41,15.33-2.98,23.19-4.96c2.76-0.69,5.44-1.27,7.05-1.27" style="fill:none;stroke:#999;stroke-width:3"></path>
<path d="M146.02,15.5c1.62,1.25,2.31,2.88,2.12,5.25c-0.88,11.12-1.5,20.75-4,34.88c-3.61,20.44-19.25,16.99-18.62,7.37c0.5-7.74,6.25-12.86,12.62-13.5c5-0.5,14.28,1.93,5.88,15c-12.62,19.62-11.42,24.51,5.11,25.54c10.98,0.68,19.26,0.72,28.49-0.92c14.15-2.5,7.4-2.63,7.4-11.13" style="fill:none;stroke:#999;stroke-width:3"></path>

<path d="M237.59,31.65c2.1,1.55,4.24,1.66,6.81,1.21c8.17-1.41,15.33-2.98,23.19-4.96c2.76-0.69,5.44-1.27,7.05-1.27" style="fill:none;stroke:#999;stroke-width:3"></path>
<path d="M255.02,15.5c1.62,1.25,2.31,2.88,2.12,5.25c-0.88,11.12-1.5,20.75-4,34.88c-3.61,20.44-19.25,16.99-18.62,7.37c0.5-7.74,6.25-12.86,12.62-13.5c5-0.5,14.28,1.93,5.88,15c-12.62,19.62-11.42,24.51,5.11,25.54c10.98,0.68,19.26,0.72,28.49-0.92c14.15-2.5,7.4-2.63,7.4-11.13" style="fill:none;stroke:#999;stroke-width:3"></path>
<path d="M296.52,36.25c6.88,3.12,11.71,5.95,14.88,10.12c6.25,8.25-1.38,3.62-4.5,4.5" style="fill:none;stroke:#999;stroke-width:3"></path>

</svg>