<svg width="327px" height="109px" viewBox="0 0 327 109" xmlns="http://www.w3.org/2000/svg" xmlns:xlink="http://www.w3.org/1999/xlink" xml:space="preserve" version="1.1" baseProfile="full">
<line x1="1" y1="1" x2="326" y2="1" style="stroke:#ddd;stroke-width:2"></line>
<line x1="1" y1="1" x2="1" y2="108" style="stroke:#ddd;stroke-width:2"></line>
<line x1="1" y1="108" x2="326" y2="108" style="stroke:#ddd;stroke-width:2"></line>
<line x1="326" y1="1" x2="326" y2="108" style="stroke:#ddd;stroke-width:2"></line>
<line x1="109" y1="1" x2="109" y2="108" style="stroke:#ddd;stroke-width:2"></line>
<line x1="218" y1="1" x2="218" y2="108" style="stroke:#ddd;stroke-width:2"></line>
<line x1="1" y1="54" x2="326" y2="54" style="stroke:#ddd;stroke-width:2;stroke-dasharray:3 3"></line>
<line x1="55" y1="1" x2="55" y2="108" style="stroke:#ddd;stroke-width:2;stroke-dasharray:3 3"></line>
<line x1="164" y1="1" x2="164" y2="108" style="stroke:#ddd;stroke-width:2;stroke-dasharray:3 3"></line>
<line x1="273" y1="1" x2="273" y2="108" style="stroke:#ddd;stroke-width:2;stroke-dasharray:3 3"></line>
<path d="M18.0,49.38c1.88,1.62,5.25,2.5,8.62,0.88c18.51-8.88,35.76-19.38,50.83-19.26c9.02,0.14,16.01,4.13,15.93,12.29c0,8.33-10.88,16.58-24.5,17.83" style="fill:none;stroke:#999;stroke-width:3"></path>

<path d="M127.0,49.38c1.88,1.62,5.25,2.5,8.62,0.88c18.51-8.88,35.76-19.38,50.83-19.26c9.02,0.14,16.01,4.13,15.93,12.29c0,8.33-10.88,16.58-24.5,17.83" style="fill:none;stroke:#999;stroke-width:3"></path>
<path d="M156.13,15.88c5.12,0.88,10.41,4.05,11.5,6.62c2.12,5-1,2.38-2.88,2.62" style="fill:none;stroke:#999;stroke-width:3"></path>

<path d="M236.0,49.38c1.88,1.62,5.25,2.5,8.62,0.88c18.51-8.88,35.76-19.38,50.83-19.26c9.02,0.14,16.01,4.13,15.93,12.29c0,8.33-10.88,16.58-24.5,17.83" style="fill:none;stroke:#999;stroke-width:3"></path>
<path d="M265.13,15.88c5.12,0.88,10.41,4.05,11.5,6.62c2.12,5-1,2.38-2.88,2.62" style="fill:none;stroke:#999;stroke-width:3"></path>
<path d="M248.0,24.38c2.38,1.88,3.28,2.87,3.88,5.25c2.62,10.5,11.12,41.12,14.75,52.5c0.65,2.04,1.88,6.25,2.88,9.38" style="fill:none;stroke:#999;stroke-width:3"></path>

</svg>