<svg width="109px" height="109px" viewBox="0 0 109 109" xmlns="http://www.w3.org/2000/svg" xmlns:xlink="http://www.w3.org/1999/xlink" xml:space="preserve" version="1.1" baseProfile="full">
<line x1="1" y1="1" x2="108" y2="1" style="stroke:#ddd;stroke-width:2"></line>
<line x1="1" y1="1" x2="1" y2="108" style="stroke:#ddd;stroke-width:2"></line>
<line x1="1" y1="108" x2="108" y2="108" style="stroke:#ddd;stroke-width:2"></line>
<line x1="108" y1="1" x2="108" y2="108" style="stroke:#ddd;stroke-width:2"></line>
<line x1="1" y1="54" x2="108" y2="54" style="stroke:#ddd;stroke-width:2;stroke-dasharray:3 3"></line>
<line x1="55" y1="1" x2="55" y2="108" style="stroke:#ddd;stroke-width:2;stroke-dasharray:3 3"></line>
<path d="M36.95,21.88c1.5,2,4.62,3.62,8.5,2.5c3.88-1.12,8.12-2.25,14.12-4.38c6-2.13,6.53-0.1,3.38,4.25c-7.88,10.88-18,22.75-27.5,35.25c-7.49,9.86-10.68,11.32,2.88,2.25c17.38-11.62,46.62-14,46.62,8.12c0,15.62-16,22.5-32.12,25.12" style="fill:none;stroke:#999;stroke-width:3"></path>

</svg>