<svg width="218px" height="109px" viewBox="0 0 218 109" xmlns="http://www.w3.org/2000/svg" xmlns:xlink="http://www.w3.org/1999/xlink" xml:space="preserve" version="1.1" baseProfile="full">
<line x1="1" y1="1" x2="217" y2="1" style="stroke:#ddd;stroke-width:2"></line>
<line x1="1" y1="1" x2="1" y2="108" style="stroke:#ddd;stroke-width:2"></line>
<line x1="1" y1="108" x2="217" y2="108" style="stroke:#ddd;stroke-width:2"></line>
<line x1="217" y1="1" x2="217" y2="108" style="stroke:#ddd;stroke-width:2"></line>
<line x1="109" y1="1" x2="109" y2="108" style="stroke:#ddd;stroke-width:2"></line>
<line x1="1" y1="54" x2="217" y2="54" style="stroke:#ddd;stroke-width:2;stroke-dasharray:3 3"></line>
<line x1="55" y1="1" x2="55" y2="108" style="stroke:#ddd;stroke-width:2;stroke-dasharray:3 3"></line>
<line x1="164" y1="1" x2="164" y2="108" style="stroke:#ddd;stroke-width:2;stroke-dasharray:3 3"></line>
<path d="M67.75,32.78c0.1,1.39-0.27,3.07-1.28,4.37c-7.98,10.24-18.72,23.55-35.97,34.08" style="fill:none;stroke:#999;stroke-width:3"></path>

<path d="M176.75,32.78c0.1,1.39-0.27,3.07-1.28,4.37c-7.98,10.24-18.72,23.55-35.97,34.08" style="fill:none;stroke:#999;stroke-width:3"></path>
<path d="M166.19,54.22c0.81,0.92,1.02,2.46,1.02,3.79c0,1.33,0,26.33,0,27.87c0,1.54-0.1,7.48-0.1,9.63" style="fill:none;stroke:#999;stroke-width:3"></path>

</svg>