<svg width="436px" height="109px" viewBox="0 0 436 109" xmlns="http://www.w3.org/2000/svg" xmlns:xlink="http://www.w3.org/1999/xlink" xml:space="preserve" version="1.1" baseProfile="full">
<line x1="1" y1="1" x2="435" y2="1" style="stroke:#ddd;stroke-width:2"></line>
<line x1="1" y1="1" x2="1" y2="108" style="stroke:#ddd;stroke-width:2"></line>
<line x1="1" y1="108" x2="435" y2="108" style="stroke:#ddd;stroke-width:2"></line>
<line x1="435" y1="1" x2="435" y2="108" style="stroke:#ddd;stroke-width:2"></line>
<line x1="109" y1="1" x2="109" y2="108" style="stroke:#ddd;stroke-width:2"></line>
<line x1="218" y1="1" x2="218" y2="108" style="stroke:#ddd;stroke-width:2"></line>
<line x1="327" y1="1" x2="327" y2="108" style="stroke:#ddd;stroke-width:2"></line>
<line x1="1" y1="54" x2="435" y2="54" style="stroke:#ddd;stroke-width:2;stroke-dasharray:3 3"></line>
<line x1="55" y1="1" x2="55" y2="108" style="stroke:#ddd;stroke-width:2;stroke-dasharray:3 3"></line>
<line x1="164" y1="1" x2="164" y2="108" style="stroke:#ddd;stroke-width:2;stroke-dasharray:3 3"></line>
<line x1="273" y1="1" x2="273" y2="108" style="stroke:#ddd;stroke-width:2;stroke-dasharray:3 3"></line>
<line x1="382" y1="1" x2="382" y2="108" style="stroke:#ddd;stroke-width:2;stroke-dasharray:3 3"></line>
<path d="M25.5,40.62c1.88,1.25,4.51,1.87,7.12,1.5c17.88-2.5,32.78-4.51,42.5-5.88c7.12-1,10.59,0.24,8.62,7.88c-2.12,8.25-4.47,17.81-9.25,29.12c-10.49,24.88-14.11,14.51-19.24,11.88" style="fill:none;stroke:#999;stroke-width:3"></path>

<path d="M134.5,40.62c1.88,1.25,4.51,1.87,7.12,1.5c17.88-2.5,32.78-4.51,42.5-5.88c7.12-1,10.59,0.24,8.62,7.88c-2.12,8.25-4.47,17.81-9.25,29.12c-10.49,24.88-14.11,14.51-19.24,11.88" style="fill:none;stroke:#999;stroke-width:3"></path>
<path d="M164.88,17.12c0.88,1.62,1.29,3.83,0.75,6.75c-4.25,22.88-15.88,45.25-30.25,58.88" style="fill:none;stroke:#999;stroke-width:3"></path>

<path d="M243.5,40.62c1.88,1.25,4.51,1.87,7.12,1.5c17.88-2.5,32.78-4.51,42.5-5.88c7.12-1,10.59,0.24,8.62,7.88c-2.12,8.25-4.47,17.81-9.25,29.12c-10.49,24.88-14.11,14.51-19.24,11.88" style="fill:none;stroke:#999;stroke-width:3"></path>
<path d="M273.88,17.12c0.88,1.62,1.29,3.83,0.75,6.75c-4.25,22.88-15.88,45.25-30.25,58.88" style="fill:none;stroke:#999;stroke-width:3"></path>
<path d="M301.0,19.75c2.75,1.75,6,5.38,7.75,8.5" style="fill:none;stroke:#999;stroke-width:3"></path>

<path d="M352.5,40.62c1.88,1.25,4.51,1.87,7.12,1.5c17.88-2.5,32.78-4.51,42.5-5.88c7.12-1,10.59,0.24,8.62,7.88c-2.12,8.25-4.47,17.81-9.25,29.12c-10.49,24.88-14.11,14.51-19.24,11.88" style="fill:none;stroke:#999;stroke-width:3"></path>
<path d="M382.88,17.12c0.88,1.62,1.29,3.83,0.75,6.75c-4.25,22.88-15.88,45.25-30.25,58.88" style="fill:none;stroke:#999;stroke-width:3"></path>
<path d="M410.0,19.75c2.75,1.75,6,5.38,7.75,8.5" style="fill:none;stroke:#999;stroke-width:3"></path>
<path d="M416.38,14.88c3.06,1.57,6.68,4.82,8.62,7.62" style="fill:none;stroke:#999;stroke-width:3"></path>

</svg>