<svg width="545px" height="109px" viewBox="0 0 545 109" xmlns="http://www.w3.org/2000/svg" xmlns:xlink="http://www.w3.org/1999/xlink" xml:space="preserve" version="1.1" baseProfile="full">
<line x1="1" y1="1" x2="544" y2="1" style="stroke:#ddd;stroke-width:2"></line>
<line x1="1" y1="1" x2="1" y2="108" style="stroke:#ddd;stroke-width:2"></line>
<line x1="1" y1="108" x2="544" y2="108" style="stroke:#ddd;stroke-width:2"></line>
<line x1="544" y1="1" x2="544" y2="108" style="stroke:#ddd;stroke-width:2"></line>
<line x1="109" y1="1" x2="109" y2="108" style="stroke:#ddd;stroke-width:2"></line>
<line x1="218" y1="1" x2="218" y2="108" style="stroke:#ddd;stroke-width:2"></line>
<line x1="327" y1="1" x2="327" y2="108" style="stroke:#ddd;stroke-width:2"></line>
<line x1="436" y1="1" x2="436" y2="108" style="stroke:#ddd;stroke-width:2"></line>
<line x1="1" y1="54" x2="544" y2="54" style="stroke:#ddd;stroke-width:2;stroke-dasharray:3 3"></line>
<line x1="55" y1="1" x2="55" y2="108" style="stroke:#ddd;stroke-width:2;stroke-dasharray:3 3"></line>
<line x1="164" y1="1" x2="164" y2="108" style="stroke:#ddd;stroke-width:2;stroke-dasharray:3 3"></line>
<line x1="273" y1="1" x2="273" y2="108" style="stroke:#ddd;stroke-width:2;stroke-dasharray:3 3"></line>
<line x1="382" y1="1" x2="382" y2="108" style="stroke:#ddd;stroke-width:2;stroke-dasharray:3 3"></line>
<line x1="491" y1="1" x2="491" y2="108" style="stroke:#ddd;stroke-width:2;stroke-dasharray:3 3"></line>
<path d="M16.5,44.34c2.84,1.27,4.77,1.91,8.93,1.13c17.2-3.22,40.45-5.35,58.53-5.34c4.33,0,6.92,0.37,10.42,0.82" style="fill:none;stroke:#999;stroke-width:3"></path>

<path d="M125.5,44.34c2.84,1.27,4.77,1.91,8.93,1.13c17.2-3.22,40.45-5.35,58.53-5.34c4.33,0,6.92,0.37,10.42,0.82" style="fill:none;stroke:#999;stroke-width:3"></path>
<path d="M145.63,23.38c1.12,1.38,1.19,2.5,1.25,4.75c0.25,9,0.38,20.25,0.75,28.88c0.14,3.25,0.38,7.12,0.38,9.25" style="fill:none;stroke:#999;stroke-width:3"></path>

<path d="M234.5,44.34c2.84,1.27,4.77,1.91,8.93,1.13c17.2-3.22,40.45-5.35,58.53-5.34c4.33,0,6.92,0.37,10.42,0.82" style="fill:none;stroke:#999;stroke-width:3"></path>
<path d="M254.63,23.38c1.12,1.38,1.19,2.5,1.25,4.75c0.25,9,0.38,20.25,0.75,28.88c0.14,3.25,0.38,7.12,0.38,9.25" style="fill:none;stroke:#999;stroke-width:3"></path>
<path d="M287.63,16.62c1.5,2,1.62,2.87,1.62,6.25c0,8.25-0.16,9-0.16,15.88c0,23.25-9.34,42.5-23.21,53" style="fill:none;stroke:#999;stroke-width:3"></path>

<path d="M343.5,44.34c2.84,1.27,4.77,1.91,8.93,1.13c17.2-3.22,40.45-5.35,58.53-5.34c4.33,0,6.92,0.37,10.42,0.82" style="fill:none;stroke:#999;stroke-width:3"></path>
<path d="M363.63,23.38c1.12,1.38,1.19,2.5,1.25,4.75c0.25,9,0.38,20.25,0.75,28.88c0.14,3.25,0.38,7.12,0.38,9.25" style="fill:none;stroke:#999;stroke-width:3"></path>
<path d="M396.63,16.62c1.5,2,1.62,2.87,1.62,6.25c0,8.25-0.16,9-0.16,15.88c0,23.25-9.34,42.5-23.21,53" style="fill:none;stroke:#999;stroke-width:3"></path>
<path d="M409.75,18.73c2.85,1.78,6.21,5.47,8.03,8.65" style="fill:none;stroke:#999;stroke-width:3"></path>

<path d="M452.5,44.34c2.84,1.27,4.77,1.91,8.93,1.13c17.2-3.22,40.45-5.35,58.53-5.34c4.33,0,6.92,0.37,10.42,0.82" style="fill:none;stroke:#999;stroke-width:3"></path>
<path d="M472.63,23.38c1.12,1.38,1.19,2.5,1.25,4.75c0.25,9,0.38,20.25,0.75,28.88c0.14,3.25,0.38,7.12,0.38,9.25" style="fill:none;stroke:#999;stroke-width:3"></path>
<path d="M505.63,16.62c1.5,2,1.62,2.87,1.62,6.25c0,8.25-0.16,9-0.16,15.88c0,23.25-9.34,42.5-23.21,53" style="fill:none;stroke:#999;stroke-width:3"></path>
<path d="M518.75,18.73c2.85,1.78,6.21,5.47,8.03,8.65" style="fill:none;stroke:#999;stroke-width:3"></path>
<path d="M525.5,14.12c2.93,1.57,6.39,4.83,8.25,7.63" style="fill:none;stroke:#999;stroke-width:3"></path>

</svg>