<svg width="327px" height="109px" viewBox="0 0 327 109" xmlns="http://www.w3.org/2000/svg" xmlns:xlink="http://www.w3.org/1999/xlink" xml:space="preserve" version="1.1" baseProfile="full">
<line x1="1" y1="1" x2="326" y2="1" style="stroke:#ddd;stroke-width:2"></line>
<line x1="1" y1="1" x2="1" y2="108" style="stroke:#ddd;stroke-width:2"></line>
<line x1="1" y1="108" x2="326" y2="108" style="stroke:#ddd;stroke-width:2"></line>
<line x1="326" y1="1" x2="326" y2="108" style="stroke:#ddd;stroke-width:2"></line>
<line x1="109" y1="1" x2="109" y2="108" style="stroke:#ddd;stroke-width:2"></line>
<line x1="218" y1="1" x2="218" y2="108" style="stroke:#ddd;stroke-width:2"></line>
<line x1="1" y1="54" x2="326" y2="54" style="stroke:#ddd;stroke-width:2;stroke-dasharray:3 3"></line>
<line x1="55" y1="1" x2="55" y2="108" style="stroke:#ddd;stroke-width:2;stroke-dasharray:3 3"></line>
<line x1="164" y1="1" x2="164" y2="108" style="stroke:#ddd;stroke-width:2;stroke-dasharray:3 3"></line>
<line x1="273" y1="1" x2="273" y2="108" style="stroke:#ddd;stroke-width:2;stroke-dasharray:3 3"></line>
<path d="M39.87,19.75c5.14,1.57,9.79,6.01,11.5,8.62" style="fill:none;stroke:#999;stroke-width:3"></path>

<path d="M148.87,19.75c5.14,1.57,9.79,6.01,11.5,8.62" style="fill:none;stroke:#999;stroke-width:3"></path>
<path d="M135.0,42.62c3.25,0.88,10.25,5.5,12.25,8.13" style="fill:none;stroke:#999;stroke-width:3"></path>

<path d="M257.87,19.75c5.14,1.57,9.79,6.01,11.5,8.62" style="fill:none;stroke:#999;stroke-width:3"></path>
<path d="M244.0,42.62c3.25,0.88,10.25,5.5,12.25,8.13" style="fill:none;stroke:#999;stroke-width:3"></path>
<path d="M251.0,85c3.75,0.88,7.12,0.49,10.38-1.38c17.87-10.24,32.37-23.87,46.12-42.87" style="fill:none;stroke:#999;stroke-width:3"></path>

</svg>