<svg width="545px" height="109px" viewBox="0 0 545 109" xmlns="http://www.w3.org/2000/svg" xmlns:xlink="http://www.w3.org/1999/xlink" xml:space="preserve" version="1.1" baseProfile="full">
<line x1="1" y1="1" x2="544" y2="1" style="stroke:#ddd;stroke-width:2"></line>
<line x1="1" y1="1" x2="1" y2="108" style="stroke:#ddd;stroke-width:2"></line>
<line x1="1" y1="108" x2="544" y2="108" style="stroke:#ddd;stroke-width:2"></line>
<line x1="544" y1="1" x2="544" y2="108" style="stroke:#ddd;stroke-width:2"></line>
<line x1="109" y1="1" x2="109" y2="108" style="stroke:#ddd;stroke-width:2"></line>
<line x1="218" y1="1" x2="218" y2="108" style="stroke:#ddd;stroke-width:2"></line>
<line x1="327" y1="1" x2="327" y2="108" style="stroke:#ddd;stroke-width:2"></line>
<line x1="436" y1="1" x2="436" y2="108" style="stroke:#ddd;stroke-width:2"></line>
<line x1="1" y1="54" x2="544" y2="54" style="stroke:#ddd;stroke-width:2;stroke-dasharray:3 3"></line>
<line x1="55" y1="1" x2="55" y2="108" style="stroke:#ddd;stroke-width:2;stroke-dasharray:3 3"></line>
<line x1="164" y1="1" x2="164" y2="108" style="stroke:#ddd;stroke-width:2;stroke-dasharray:3 3"></line>
<line x1="273" y1="1" x2="273" y2="108" style="stroke:#ddd;stroke-width:2;stroke-dasharray:3 3"></line>
<line x1="382" y1="1" x2="382" y2="108" style="stroke:#ddd;stroke-width:2;stroke-dasharray:3 3"></line>
<line x1="491" y1="1" x2="491" y2="108" style="stroke:#ddd;stroke-width:2;stroke-dasharray:3 3"></line>
<path d="M39.87,19.75c5.14,1.57,9.79,6.01,11.5,8.62" style="fill:none;stroke:#999;stroke-width:3"></path>

<path d="M148.87,19.75c5.14,1.57,9.79,6.01,11.5,8.62" style="fill:none;stroke:#999;stroke-width:3"></path>
<path d="M135.0,42.62c3.25,0.88,10.25,5.5,12.25,8.13" style="fill:none;stroke:#999;stroke-width:3"></path>

<path d="M257.87,19.75c5.14,1.57,9.79,6.01,11.5,8.62" style="fill:none;stroke:#999;stroke-width:3"></path>
<path d="M244.0,42.62c3.25,0.88,10.25,5.5,12.25,8.13" style="fill:none;stroke:#999;stroke-width:3"></path>
<path d="M251.0,85c3.62,1.62,6.5,0.88,10.38-1.38c17.81-10.34,32.37-23.87,46.12-42.87" style="fill:none;stroke:#999;stroke-width:3"></path>

<path d="M366.87,19.75c5.14,1.57,9.79,6.01,11.5,8.62" style="fill:none;stroke:#999;stroke-width:3"></path>
<path d="M353.0,42.62c3.25,0.88,10.25,5.5,12.25,8.13" style="fill:none;stroke:#999;stroke-width:3"></path>
<path d="M360.0,85c3.62,1.62,6.5,0.88,10.38-1.38c17.81-10.34,32.37-23.87,46.12-42.87" style="fill:none;stroke:#999;stroke-width:3"></path>
<path d="M405.5,18.98c2.85,1.78,6.21,5.47,8.03,8.65" style="fill:none;stroke:#999;stroke-width:3"></path>

<path d="M475.87,19.75c5.14,1.57,9.79,6.01,11.5,8.62" style="fill:none;stroke:#999;stroke-width:3"></path>
<path d="M462.0,42.62c3.25,0.88,10.25,5.5,12.25,8.13" style="fill:none;stroke:#999;stroke-width:3"></path>
<path d="M469.0,85c3.62,1.62,6.5,0.88,10.38-1.38c17.81-10.34,32.37-23.87,46.12-42.87" style="fill:none;stroke:#999;stroke-width:3"></path>
<path d="M514.5,18.98c2.85,1.78,6.21,5.47,8.03,8.65" style="fill:none;stroke:#999;stroke-width:3"></path>
<path d="M521.25,14.38c2.93,1.57,6.39,4.83,8.25,7.63" style="fill:none;stroke:#999;stroke-width:3"></path>

</svg>