<svg width="545px" height="109px" viewBox="0 0 545 109" xmlns="http://www.w3.org/2000/svg" xmlns:xlink="http://www.w3.org/1999/xlink" xml:space="preserve" version="1.1" baseProfile="full">
<line x1="1" y1="1" x2="544" y2="1" style="stroke:#ddd;stroke-width:2"></line>
<line x1="1" y1="1" x2="1" y2="108" style="stroke:#ddd;stroke-width:2"></line>
<line x1="1" y1="108" x2="544" y2="108" style="stroke:#ddd;stroke-width:2"></line>
<line x1="544" y1="1" x2="544" y2="108" style="stroke:#ddd;stroke-width:2"></line>
<line x1="109" y1="1" x2="109" y2="108" style="stroke:#ddd;stroke-width:2"></line>
<line x1="218" y1="1" x2="218" y2="108" style="stroke:#ddd;stroke-width:2"></line>
<line x1="327" y1="1" x2="327" y2="108" style="stroke:#ddd;stroke-width:2"></line>
<line x1="436" y1="1" x2="436" y2="108" style="stroke:#ddd;stroke-width:2"></line>
<line x1="1" y1="54" x2="544" y2="54" style="stroke:#ddd;stroke-width:2;stroke-dasharray:3 3"></line>
<line x1="55" y1="1" x2="55" y2="108" style="stroke:#ddd;stroke-width:2;stroke-dasharray:3 3"></line>
<line x1="164" y1="1" x2="164" y2="108" style="stroke:#ddd;stroke-width:2;stroke-dasharray:3 3"></line>
<line x1="273" y1="1" x2="273" y2="108" style="stroke:#ddd;stroke-width:2;stroke-dasharray:3 3"></line>
<line x1="382" y1="1" x2="382" y2="108" style="stroke:#ddd;stroke-width:2;stroke-dasharray:3 3"></line>
<line x1="491" y1="1" x2="491" y2="108" style="stroke:#ddd;stroke-width:2;stroke-dasharray:3 3"></line>
<path d="M48.83,19.75c0.43,1.72,0.39,4-0.58,5.89c-4.77,9.34-9.1,17.82-18.63,27.73" style="fill:none;stroke:#999;stroke-width:3"></path>

<path d="M157.82999999999998,19.75c0.43,1.72,0.39,4-0.58,5.89c-4.77,9.34-9.1,17.82-18.63,27.73" style="fill:none;stroke:#999;stroke-width:3"></path>
<path d="M158.75,30.38c2.5,0.62,5.67-0.14,7.62-0.62c6-1.5,10.5-2.62,15.88-4.12c5.79-1.62,8.22,0.31,5.88,5.62c-10.88,24.62-22.13,43.99-50.13,59.99" style="fill:none;stroke:#999;stroke-width:3"></path>

<path d="M266.83,19.75c0.43,1.72,0.39,4-0.58,5.89c-4.77,9.34-9.1,17.82-18.63,27.73" style="fill:none;stroke:#999;stroke-width:3"></path>
<path d="M267.75,30.38c2.5,0.62,5.67-0.14,7.62-0.62c6-1.5,10.5-2.62,15.88-4.12c5.79-1.62,8.22,0.31,5.88,5.62c-10.88,24.62-22.13,43.99-50.13,59.99" style="fill:none;stroke:#999;stroke-width:3"></path>
<path d="M261.38,45.62c6.75,3.5,10.62,7.88,14.75,15.25" style="fill:none;stroke:#999;stroke-width:3"></path>

<path d="M375.83,19.75c0.43,1.72,0.39,4-0.58,5.89c-4.77,9.34-9.1,17.82-18.63,27.73" style="fill:none;stroke:#999;stroke-width:3"></path>
<path d="M376.75,30.38c2.5,0.62,5.67-0.14,7.62-0.62c6-1.5,10.5-2.62,15.88-4.12c5.79-1.62,8.22,0.31,5.88,5.62c-10.88,24.62-22.13,43.99-50.13,59.99" style="fill:none;stroke:#999;stroke-width:3"></path>
<path d="M370.38,45.62c6.75,3.5,10.62,7.88,14.75,15.25" style="fill:none;stroke:#999;stroke-width:3"></path>
<path d="M410.62,14.19c2.95,1.81,6.43,5.57,8.3,8.81" style="fill:none;stroke:#999;stroke-width:3"></path>

<path d="M484.83,19.75c0.43,1.72,0.39,4-0.58,5.89c-4.77,9.34-9.1,17.82-18.63,27.73" style="fill:none;stroke:#999;stroke-width:3"></path>
<path d="M485.75,30.38c2.5,0.62,5.67-0.14,7.62-0.62c6-1.5,10.5-2.62,15.88-4.12c5.79-1.62,8.22,0.31,5.88,5.62c-10.88,24.62-22.13,43.99-50.13,59.99" style="fill:none;stroke:#999;stroke-width:3"></path>
<path d="M479.38,45.62c6.75,3.5,10.62,7.88,14.75,15.25" style="fill:none;stroke:#999;stroke-width:3"></path>
<path d="M519.62,14.19c2.95,1.81,6.43,5.57,8.3,8.81" style="fill:none;stroke:#999;stroke-width:3"></path>
<path d="M526.12,9.38c3.02,1.63,6.58,5,8.5,7.9" style="fill:none;stroke:#999;stroke-width:3"></path>

</svg>