<svg width="545px" height="109px" viewBox="0 0 545 109" xmlns="http://www.w3.org/2000/svg" xmlns:xlink="http://www.w3.org/1999/xlink" xml:space="preserve" version="1.1" baseProfile="full">
<line x1="1" y1="1" x2="544" y2="1" style="stroke:#ddd;stroke-width:2"></line>
<line x1="1" y1="1" x2="1" y2="108" style="stroke:#ddd;stroke-width:2"></line>
<line x1="1" y1="108" x2="544" y2="108" style="stroke:#ddd;stroke-width:2"></line>
<line x1="544" y1="1" x2="544" y2="108" style="stroke:#ddd;stroke-width:2"></line>
<line x1="109" y1="1" x2="109" y2="108" style="stroke:#ddd;stroke-width:2"></line>
<line x1="218" y1="1" x2="218" y2="108" style="stroke:#ddd;stroke-width:2"></line>
<line x1="327" y1="1" x2="327" y2="108" style="stroke:#ddd;stroke-width:2"></line>
<line x1="436" y1="1" x2="436" y2="108" style="stroke:#ddd;stroke-width:2"></line>
<line x1="1" y1="54" x2="544" y2="54" style="stroke:#ddd;stroke-width:2;stroke-dasharray:3 3"></line>
<line x1="55" y1="1" x2="55" y2="108" style="stroke:#ddd;stroke-width:2;stroke-dasharray:3 3"></line>
<line x1="164" y1="1" x2="164" y2="108" style="stroke:#ddd;stroke-width:2;stroke-dasharray:3 3"></line>
<line x1="273" y1="1" x2="273" y2="108" style="stroke:#ddd;stroke-width:2;stroke-dasharray:3 3"></line>
<line x1="382" y1="1" x2="382" y2="108" style="stroke:#ddd;stroke-width:2;stroke-dasharray:3 3"></line>
<line x1="491" y1="1" x2="491" y2="108" style="stroke:#ddd;stroke-width:2;stroke-dasharray:3 3"></line>
<path d="M21.5,30.62c2.38,3,5,9.38,5.38,13.88" style="fill:none;stroke:#999;stroke-width:3"></path>

<path d="M130.5,30.62c2.38,3,5,9.38,5.38,13.88" style="fill:none;stroke:#999;stroke-width:3"></path>
<path d="M154.87,23c3.38,3.5,6.62,9.5,7,14.88" style="fill:none;stroke:#999;stroke-width:3"></path>

<path d="M239.5,30.62c2.38,3,5,9.38,5.38,13.88" style="fill:none;stroke:#999;stroke-width:3"></path>
<path d="M263.87,23c3.38,3.5,6.62,9.5,7,14.88" style="fill:none;stroke:#999;stroke-width:3"></path>
<path d="M302.62,27.62c0.75,2.25,0.39,5.26-0.75,8c-7.63,18.38-21.25,41.38-46,52.76" style="fill:none;stroke:#999;stroke-width:3"></path>

<path d="M348.5,30.62c2.38,3,5,9.38,5.38,13.88" style="fill:none;stroke:#999;stroke-width:3"></path>
<path d="M372.87,23c3.38,3.5,6.62,9.5,7,14.88" style="fill:none;stroke:#999;stroke-width:3"></path>
<path d="M411.62,27.62c0.75,2.25,0.39,5.26-0.75,8c-7.63,18.38-21.25,41.38-46,52.76" style="fill:none;stroke:#999;stroke-width:3"></path>
<path d="M413.5,14.58c2.61,1.91,5.7,5.88,7.36,9.3" style="fill:none;stroke:#999;stroke-width:3"></path>

<path d="M457.5,30.62c2.38,3,5,9.38,5.38,13.88" style="fill:none;stroke:#999;stroke-width:3"></path>
<path d="M481.87,23c3.38,3.5,6.62,9.5,7,14.88" style="fill:none;stroke:#999;stroke-width:3"></path>
<path d="M520.62,27.62c0.75,2.25,0.39,5.26-0.75,8c-7.63,18.38-21.25,41.38-46,52.76" style="fill:none;stroke:#999;stroke-width:3"></path>
<path d="M522.5,14.58c2.61,1.91,5.7,5.88,7.36,9.3" style="fill:none;stroke:#999;stroke-width:3"></path>
<path d="M528.6800000000001,9.62c2.73,1.8,5.95,5.53,7.69,8.75" style="fill:none;stroke:#999;stroke-width:3"></path>

</svg>