<svg width="545px" height="109px" viewBox="0 0 545 109" xmlns="http://www.w3.org/2000/svg" xmlns:xlink="http://www.w3.org/1999/xlink" xml:space="preserve" version="1.1" baseProfile="full">
<line x1="1" y1="1" x2="544" y2="1" style="stroke:#ddd;stroke-width:2"></line>
<line x1="1" y1="1" x2="1" y2="108" style="stroke:#ddd;stroke-width:2"></line>
<line x1="1" y1="108" x2="544" y2="108" style="stroke:#ddd;stroke-width:2"></line>
<line x1="544" y1="1" x2="544" y2="108" style="stroke:#ddd;stroke-width:2"></line>
<line x1="109" y1="1" x2="109" y2="108" style="stroke:#ddd;stroke-width:2"></line>
<line x1="218" y1="1" x2="218" y2="108" style="stroke:#ddd;stroke-width:2"></line>
<line x1="327" y1="1" x2="327" y2="108" style="stroke:#ddd;stroke-width:2"></line>
<line x1="436" y1="1" x2="436" y2="108" style="stroke:#ddd;stroke-width:2"></line>
<line x1="1" y1="54" x2="544" y2="54" style="stroke:#ddd;stroke-width:2;stroke-dasharray:3 3"></line>
<line x1="55" y1="1" x2="55" y2="108" style="stroke:#ddd;stroke-width:2;stroke-dasharray:3 3"></line>
<line x1="164" y1="1" x2="164" y2="108" style="stroke:#ddd;stroke-width:2;stroke-dasharray:3 3"></line>
<line x1="273" y1="1" x2="273" y2="108" style="stroke:#ddd;stroke-width:2;stroke-dasharray:3 3"></line>
<line x1="382" y1="1" x2="382" y2="108" style="stroke:#ddd;stroke-width:2;stroke-dasharray:3 3"></line>
<line x1="491" y1="1" x2="491" y2="108" style="stroke:#ddd;stroke-width:2;stroke-dasharray:3 3"></line>
<path d="M36.5,21.5c2.12,1.25,4.38,1.59,7.25,1.25c10.62-1.25,16.88-2.25,24.62-3.25c3.73-0.48,5.63-0.5,8.13-0.25" style="fill:none;stroke:#999;stroke-width:3"></path>

<path d="M145.5,21.5c2.12,1.25,4.38,1.59,7.25,1.25c10.62-1.25,16.88-2.25,24.62-3.25c3.73-0.48,5.63-0.5,8.13-0.25" style="fill:none;stroke:#999;stroke-width:3"></path>
<path d="M129.0,44.12c2.88,1,5.26,1.05,7.5,0.75c22.38-3,37-5.62,54.13-6.12c5.62-0.16,7.75,0,10.38,0.62" style="fill:none;stroke:#999;stroke-width:3"></path>

<path d="M254.5,21.5c2.12,1.25,4.38,1.59,7.25,1.25c10.62-1.25,16.88-2.25,24.62-3.25c3.73-0.48,5.63-0.5,8.13-0.25" style="fill:none;stroke:#999;stroke-width:3"></path>
<path d="M238.0,44.12c2.88,1,5.26,1.05,7.5,0.75c22.38-3,37-5.62,54.13-6.12c5.62-0.16,7.75,0,10.38,0.62" style="fill:none;stroke:#999;stroke-width:3"></path>
<path d="M276.0,43.25c0.88,1,1.32,2.63,1.12,4.38c-1.74,15.37-11.62,34.99-24.62,41.87" style="fill:none;stroke:#999;stroke-width:3"></path>

<path d="M363.5,21.5c2.12,1.25,4.38,1.59,7.25,1.25c10.62-1.25,16.88-2.25,24.62-3.25c3.73-0.48,5.63-0.5,8.13-0.25" style="fill:none;stroke:#999;stroke-width:3"></path>
<path d="M347.0,44.12c2.88,1,5.26,1.05,7.5,0.75c22.38-3,37-5.62,54.13-6.12c5.62-0.16,7.75,0,10.38,0.62" style="fill:none;stroke:#999;stroke-width:3"></path>
<path d="M385.0,43.25c0.88,1,1.32,2.63,1.12,4.38c-1.74,15.37-11.62,34.99-24.62,41.87" style="fill:none;stroke:#999;stroke-width:3"></path>
<path d="M411.25,16.98c2.85,1.78,6.21,5.47,8.03,8.65" style="fill:none;stroke:#999;stroke-width:3"></path>

<path d="M472.5,21.5c2.12,1.25,4.38,1.59,7.25,1.25c10.62-1.25,16.88-2.25,24.62-3.25c3.73-0.48,5.63-0.5,8.13-0.25" style="fill:none;stroke:#999;stroke-width:3"></path>
<path d="M456.0,44.12c2.88,1,5.26,1.05,7.5,0.75c22.38-3,37-5.62,54.13-6.12c5.62-0.16,7.75,0,10.38,0.62" style="fill:none;stroke:#999;stroke-width:3"></path>
<path d="M494.0,43.25c0.88,1,1.32,2.63,1.12,4.38c-1.74,15.37-11.62,34.99-24.62,41.87" style="fill:none;stroke:#999;stroke-width:3"></path>
<path d="M520.25,16.98c2.85,1.78,6.21,5.47,8.03,8.65" style="fill:none;stroke:#999;stroke-width:3"></path>
<path d="M527.0,12.38c2.93,1.57,6.39,4.83,8.25,7.63" style="fill:none;stroke:#999;stroke-width:3"></path>

</svg>