<svg width="218px" height="109px" viewBox="0 0 218 109" xmlns="http://www.w3.org/2000/svg" xmlns:xlink="http://www.w3.org/1999/xlink" xml:space="preserve" version="1.1" baseProfile="full">
<line x1="1" y1="1" x2="217" y2="1" style="stroke:#ddd;stroke-width:2"></line>
<line x1="1" y1="1" x2="1" y2="108" style="stroke:#ddd;stroke-width:2"></line>
<line x1="1" y1="108" x2="217" y2="108" style="stroke:#ddd;stroke-width:2"></line>
<line x1="217" y1="1" x2="217" y2="108" style="stroke:#ddd;stroke-width:2"></line>
<line x1="109" y1="1" x2="109" y2="108" style="stroke:#ddd;stroke-width:2"></line>
<line x1="1" y1="54" x2="217" y2="54" style="stroke:#ddd;stroke-width:2;stroke-dasharray:3 3"></line>
<line x1="55" y1="1" x2="55" y2="108" style="stroke:#ddd;stroke-width:2;stroke-dasharray:3 3"></line>
<line x1="164" y1="1" x2="164" y2="108" style="stroke:#ddd;stroke-width:2;stroke-dasharray:3 3"></line>
<path d="M44.0,16.38c1.25,1.12,2.12,3.25,2.12,5.5c0,26.12,0,53.5,0,57.62c0,4.12,0,10.5,0,13.38" style="fill:none;stroke:#999;stroke-width:3"></path>

<path d="M153.0,16.38c1.25,1.12,2.12,3.25,2.12,5.5c0,26.12,0,53.5,0,57.62c0,4.12,0,10.5,0,13.38" style="fill:none;stroke:#999;stroke-width:3"></path>
<path d="M158.24,43.12c11.75,4.12,18.25,10.62,24.5,18.75" style="fill:none;stroke:#999;stroke-width:3"></path>

</svg>