<svg width="218px" height="109px" viewBox="0 0 218 109" xmlns="http://www.w3.org/2000/svg" xmlns:xlink="http://www.w3.org/1999/xlink" xml:space="preserve" version="1.1" baseProfile="full">
<line x1="1" y1="1" x2="217" y2="1" style="stroke:#ddd;stroke-width:2"></line>
<line x1="1" y1="1" x2="1" y2="108" style="stroke:#ddd;stroke-width:2"></line>
<line x1="1" y1="108" x2="217" y2="108" style="stroke:#ddd;stroke-width:2"></line>
<line x1="217" y1="1" x2="217" y2="108" style="stroke:#ddd;stroke-width:2"></line>
<line x1="109" y1="1" x2="109" y2="108" style="stroke:#ddd;stroke-width:2"></line>
<line x1="1" y1="54" x2="217" y2="54" style="stroke:#ddd;stroke-width:2;stroke-dasharray:3 3"></line>
<line x1="55" y1="1" x2="55" y2="108" style="stroke:#ddd;stroke-width:2;stroke-dasharray:3 3"></line>
<line x1="164" y1="1" x2="164" y2="108" style="stroke:#ddd;stroke-width:2;stroke-dasharray:3 3"></line>
<path d="M33.38,27.62c2.75,1.25,5.38,1.16,8.5,0.62c10.12-1.75,19-3.12,28.62-5c6.67-1.3,7.75-0.12,5.38,5.62c-6.7,16.22-20.63,40.52-48.88,57.89" style="fill:none;stroke:#999;stroke-width:3"></path>

<path d="M142.38,27.62c2.75,1.25,5.38,1.16,8.5,0.62c10.12-1.75,19-3.12,28.62-5c6.67-1.3,7.75-0.12,5.38,5.62c-6.7,16.22-20.63,40.52-48.88,57.89" style="fill:none;stroke:#999;stroke-width:3"></path>
<path d="M153.88,46.38c12,6.75,22.38,15.38,30.62,28.12" style="fill:none;stroke:#999;stroke-width:3"></path>

</svg>