<svg width="436px" height="109px" viewBox="0 0 436 109" xmlns="http://www.w3.org/2000/svg" xmlns:xlink="http://www.w3.org/1999/xlink" xml:space="preserve" version="1.1" baseProfile="full">
<line x1="1" y1="1" x2="435" y2="1" style="stroke:#ddd;stroke-width:2"></line>
<line x1="1" y1="1" x2="1" y2="108" style="stroke:#ddd;stroke-width:2"></line>
<line x1="1" y1="108" x2="435" y2="108" style="stroke:#ddd;stroke-width:2"></line>
<line x1="435" y1="1" x2="435" y2="108" style="stroke:#ddd;stroke-width:2"></line>
<line x1="109" y1="1" x2="109" y2="108" style="stroke:#ddd;stroke-width:2"></line>
<line x1="218" y1="1" x2="218" y2="108" style="stroke:#ddd;stroke-width:2"></line>
<line x1="327" y1="1" x2="327" y2="108" style="stroke:#ddd;stroke-width:2"></line>
<line x1="1" y1="54" x2="435" y2="54" style="stroke:#ddd;stroke-width:2;stroke-dasharray:3 3"></line>
<line x1="55" y1="1" x2="55" y2="108" style="stroke:#ddd;stroke-width:2;stroke-dasharray:3 3"></line>
<line x1="164" y1="1" x2="164" y2="108" style="stroke:#ddd;stroke-width:2;stroke-dasharray:3 3"></line>
<line x1="273" y1="1" x2="273" y2="108" style="stroke:#ddd;stroke-width:2;stroke-dasharray:3 3"></line>
<line x1="382" y1="1" x2="382" y2="108" style="stroke:#ddd;stroke-width:2;stroke-dasharray:3 3"></line>
<path d="M39.08,36.62c0.38,1.14,0.38,2.84-0.12,4.14c-5.46,13.99-13.08,24.12-21.96,32.49" style="fill:none;stroke:#999;stroke-width:3"></path>

<path d="M148.07999999999998,36.62c0.38,1.14,0.38,2.84-0.12,4.14c-5.46,13.99-13.08,24.12-21.96,32.49" style="fill:none;stroke:#999;stroke-width:3"></path>
<path d="M174.5,36.38c13,9.12,23.12,22.62,28,33.38" style="fill:none;stroke:#999;stroke-width:3"></path>

<path d="M257.08,36.62c0.38,1.14,0.38,2.84-0.12,4.14c-5.46,13.99-13.08,24.12-21.96,32.49" style="fill:none;stroke:#999;stroke-width:3"></path>
<path d="M283.5,36.38c13,9.12,23.12,22.62,28,33.38" style="fill:none;stroke:#999;stroke-width:3"></path>
<path d="M299.13,21c2.75,1.75,6,5.38,7.75,8.5" style="fill:none;stroke:#999;stroke-width:3"></path>

<path d="M366.08,36.62c0.38,1.14,0.38,2.84-0.12,4.14c-5.46,13.99-13.08,24.12-21.96,32.49" style="fill:none;stroke:#999;stroke-width:3"></path>
<path d="M392.5,36.38c13,9.12,23.12,22.62,28,33.38" style="fill:none;stroke:#999;stroke-width:3"></path>
<path d="M408.13,21c2.75,1.75,6,5.38,7.75,8.5" style="fill:none;stroke:#999;stroke-width:3"></path>
<path d="M414.5,16.12c3.06,1.57,6.68,4.82,8.62,7.62" style="fill:none;stroke:#999;stroke-width:3"></path>

</svg>