<svg width="327px" height="109px" viewBox="0 0 327 109" xmlns="http://www.w3.org/2000/svg" xmlns:xlink="http://www.w3.org/1999/xlink" xml:space="preserve" version="1.1" baseProfile="full">
<line x1="1" y1="1" x2="326" y2="1" style="stroke:#ddd;stroke-width:2"></line>
<line x1="1" y1="1" x2="1" y2="108" style="stroke:#ddd;stroke-width:2"></line>
<line x1="1" y1="108" x2="326" y2="108" style="stroke:#ddd;stroke-width:2"></line>
<line x1="326" y1="1" x2="326" y2="108" style="stroke:#ddd;stroke-width:2"></line>
<line x1="109" y1="1" x2="109" y2="108" style="stroke:#ddd;stroke-width:2"></line>
<line x1="218" y1="1" x2="218" y2="108" style="stroke:#ddd;stroke-width:2"></line>
<line x1="1" y1="54" x2="326" y2="54" style="stroke:#ddd;stroke-width:2;stroke-dasharray:3 3"></line>
<line x1="55" y1="1" x2="55" y2="108" style="stroke:#ddd;stroke-width:2;stroke-dasharray:3 3"></line>
<line x1="164" y1="1" x2="164" y2="108" style="stroke:#ddd;stroke-width:2;stroke-dasharray:3 3"></line>
<line x1="273" y1="1" x2="273" y2="108" style="stroke:#ddd;stroke-width:2;stroke-dasharray:3 3"></line>
<path d="M24.5,30c1.88,1.88,3.5,2.04,6.5,1.62c14.5-2,29-4.38,43.75-6.88c6.82-1.16,10.58,2.29,6.88,9.12c-10.38,19.14-21.25,39.52-50.01,53.64" style="fill:none;stroke:#999;stroke-width:3"></path>

<path d="M133.5,30c1.88,1.88,3.5,2.04,6.5,1.62c14.5-2,29-4.38,43.75-6.88c6.82-1.16,10.58,2.29,6.88,9.12c-10.38,19.14-21.25,39.52-50.01,53.64" style="fill:none;stroke:#999;stroke-width:3"></path>
<path d="M195.0,15.63c2.61,1.93,5.7,5.93,7.36,9.37" style="fill:none;stroke:#999;stroke-width:3"></path>

<path d="M242.5,30c1.88,1.88,3.5,2.04,6.5,1.62c14.5-2,29-4.38,43.75-6.88c6.82-1.16,10.58,2.29,6.88,9.12c-10.38,19.14-21.25,39.52-50.01,53.64" style="fill:none;stroke:#999;stroke-width:3"></path>
<path d="M304.0,15.63c2.61,1.93,5.7,5.93,7.36,9.37" style="fill:none;stroke:#999;stroke-width:3"></path>
<path d="M310.06,10.5c2.82,1.78,6.15,5.48,7.94,8.66" style="fill:none;stroke:#999;stroke-width:3"></path>

</svg>