<svg width="545px" height="109px" viewBox="0 0 545 109" xmlns="http://www.w3.org/2000/svg" xmlns:xlink="http://www.w3.org/1999/xlink" xml:space="preserve" version="1.1" baseProfile="full">
<line x1="1" y1="1" x2="544" y2="1" style="stroke:#ddd;stroke-width:2"></line>
<line x1="1" y1="1" x2="1" y2="108" style="stroke:#ddd;stroke-width:2"></line>
<line x1="1" y1="108" x2="544" y2="108" style="stroke:#ddd;stroke-width:2"></line>
<line x1="544" y1="1" x2="544" y2="108" style="stroke:#ddd;stroke-width:2"></line>
<line x1="109" y1="1" x2="109" y2="108" style="stroke:#ddd;stroke-width:2"></line>
<line x1="218" y1="1" x2="218" y2="108" style="stroke:#ddd;stroke-width:2"></line>
<line x1="327" y1="1" x2="327" y2="108" style="stroke:#ddd;stroke-width:2"></line>
<line x1="436" y1="1" x2="436" y2="108" style="stroke:#ddd;stroke-width:2"></line>
<line x1="1" y1="54" x2="544" y2="54" style="stroke:#ddd;stroke-width:2;stroke-dasharray:3 3"></line>
<line x1="55" y1="1" x2="55" y2="108" style="stroke:#ddd;stroke-width:2;stroke-dasharray:3 3"></line>
<line x1="164" y1="1" x2="164" y2="108" style="stroke:#ddd;stroke-width:2;stroke-dasharray:3 3"></line>
<line x1="273" y1="1" x2="273" y2="108" style="stroke:#ddd;stroke-width:2;stroke-dasharray:3 3"></line>
<line x1="382" y1="1" x2="382" y2="108" style="stroke:#ddd;stroke-width:2;stroke-dasharray:3 3"></line>
<line x1="491" y1="1" x2="491" y2="108" style="stroke:#ddd;stroke-width:2;stroke-dasharray:3 3"></line>
<path d="M22.63,40.38c2.62,1,4.75,1.71,9.12,1.25c17.75-1.88,29.25-2.75,45.38-3.88c3.74-0.26,7.38-0.12,11.12,0.62" style="fill:none;stroke:#999;stroke-width:3"></path>

<path d="M131.63,40.38c2.62,1,4.75,1.71,9.12,1.25c17.75-1.88,29.25-2.75,45.38-3.88c3.74-0.26,7.38-0.12,11.12,0.62" style="fill:none;stroke:#999;stroke-width:3"></path>
<path d="M162.75,17.12c1.38,1.88,1.38,4.5,1.38,7.38c0,2.88-0.12,46.62-0.12,51.88c0,23.12-6.25,11.25-9.75,9.62" style="fill:none;stroke:#999;stroke-width:3"></path>

<path d="M240.63,40.38c2.62,1,4.75,1.71,9.12,1.25c17.75-1.88,29.25-2.75,45.38-3.88c3.74-0.26,7.38-0.12,11.12,0.62" style="fill:none;stroke:#999;stroke-width:3"></path>
<path d="M271.75,17.12c1.38,1.88,1.38,4.5,1.38,7.38c0,2.88-0.12,46.62-0.12,51.88c0,23.12-6.25,11.25-9.75,9.62" style="fill:none;stroke:#999;stroke-width:3"></path>
<path d="M245.38,59.38c0.5,9.25-1.38,16.62-6.38,21.88" style="fill:none;stroke:#999;stroke-width:3"></path>

<path d="M349.63,40.38c2.62,1,4.75,1.71,9.12,1.25c17.75-1.88,29.25-2.75,45.38-3.88c3.74-0.26,7.38-0.12,11.12,0.62" style="fill:none;stroke:#999;stroke-width:3"></path>
<path d="M380.75,17.12c1.38,1.88,1.38,4.5,1.38,7.38c0,2.88-0.12,46.62-0.12,51.88c0,23.12-6.25,11.25-9.75,9.62" style="fill:none;stroke:#999;stroke-width:3"></path>
<path d="M354.38,59.38c0.5,9.25-1.38,16.62-6.38,21.88" style="fill:none;stroke:#999;stroke-width:3"></path>
<path d="M400.51,53c10.87,9.62,15.5,17.62,16.62,24.88" style="fill:none;stroke:#999;stroke-width:3"></path>

<path d="M458.63,40.38c2.62,1,4.75,1.71,9.12,1.25c17.75-1.88,29.25-2.75,45.38-3.88c3.74-0.26,7.38-0.12,11.12,0.62" style="fill:none;stroke:#999;stroke-width:3"></path>
<path d="M489.75,17.12c1.38,1.88,1.38,4.5,1.38,7.38c0,2.88-0.12,46.62-0.12,51.88c0,23.12-6.25,11.25-9.75,9.62" style="fill:none;stroke:#999;stroke-width:3"></path>
<path d="M463.38,59.38c0.5,9.25-1.38,16.62-6.38,21.88" style="fill:none;stroke:#999;stroke-width:3"></path>
<path d="M509.51,53c10.87,9.62,15.5,17.62,16.62,24.88" style="fill:none;stroke:#999;stroke-width:3"></path>
<path d="M515.75,25.62c-9.62,0-9.25-14.25,0-14.25c9.76,0.01,9.5,14.25,0,14.25" style="fill:none;stroke:#999;stroke-width:3"></path>

</svg>