<svg width="327px" height="109px" viewBox="0 0 327 109" xmlns="http://www.w3.org/2000/svg" xmlns:xlink="http://www.w3.org/1999/xlink" xml:space="preserve" version="1.1" baseProfile="full">
<line x1="1" y1="1" x2="326" y2="1" style="stroke:#ddd;stroke-width:2"></line>
<line x1="1" y1="1" x2="1" y2="108" style="stroke:#ddd;stroke-width:2"></line>
<line x1="1" y1="108" x2="326" y2="108" style="stroke:#ddd;stroke-width:2"></line>
<line x1="326" y1="1" x2="326" y2="108" style="stroke:#ddd;stroke-width:2"></line>
<line x1="109" y1="1" x2="109" y2="108" style="stroke:#ddd;stroke-width:2"></line>
<line x1="218" y1="1" x2="218" y2="108" style="stroke:#ddd;stroke-width:2"></line>
<line x1="1" y1="54" x2="326" y2="54" style="stroke:#ddd;stroke-width:2;stroke-dasharray:3 3"></line>
<line x1="55" y1="1" x2="55" y2="108" style="stroke:#ddd;stroke-width:2;stroke-dasharray:3 3"></line>
<line x1="164" y1="1" x2="164" y2="108" style="stroke:#ddd;stroke-width:2;stroke-dasharray:3 3"></line>
<line x1="273" y1="1" x2="273" y2="108" style="stroke:#ddd;stroke-width:2;stroke-dasharray:3 3"></line>
<path d="M41.87,20c10.4,2.57,20.5,6.3,25,10.38" style="fill:none;stroke:#999;stroke-width:3"></path>

<path d="M150.87,20c10.4,2.57,20.5,6.3,25,10.38" style="fill:none;stroke:#999;stroke-width:3"></path>
<path d="M151.0,46.88c10.72,2.69,21.11,6.6,25.75,10.88" style="fill:none;stroke:#999;stroke-width:3"></path>

<path d="M259.87,20c10.4,2.57,20.5,6.3,25,10.38" style="fill:none;stroke:#999;stroke-width:3"></path>
<path d="M260.0,46.88c10.72,2.69,21.11,6.6,25.75,10.88" style="fill:none;stroke:#999;stroke-width:3"></path>
<path d="M254.5,75c15.71,4.49,30.95,11,37.75,18.12" style="fill:none;stroke:#999;stroke-width:3"></path>

</svg>