<svg width="218px" height="109px" viewBox="0 0 218 109" xmlns="http://www.w3.org/2000/svg" xmlns:xlink="http://www.w3.org/1999/xlink" xml:space="preserve" version="1.1" baseProfile="full">
<line x1="1" y1="1" x2="217" y2="1" style="stroke:#ddd;stroke-width:2"></line>
<line x1="1" y1="1" x2="1" y2="108" style="stroke:#ddd;stroke-width:2"></line>
<line x1="1" y1="108" x2="217" y2="108" style="stroke:#ddd;stroke-width:2"></line>
<line x1="217" y1="1" x2="217" y2="108" style="stroke:#ddd;stroke-width:2"></line>
<line x1="109" y1="1" x2="109" y2="108" style="stroke:#ddd;stroke-width:2"></line>
<line x1="1" y1="54" x2="217" y2="54" style="stroke:#ddd;stroke-width:2;stroke-dasharray:3 3"></line>
<line x1="55" y1="1" x2="55" y2="108" style="stroke:#ddd;stroke-width:2;stroke-dasharray:3 3"></line>
<line x1="164" y1="1" x2="164" y2="108" style="stroke:#ddd;stroke-width:2;stroke-dasharray:3 3"></line>
<path d="M29.5,35.38c2.38,1.5,5.14,2.08,9.25,1.5c13.25-1.88,18.02-2.4,27.62-4c6.75-1.12,7.78,0.16,6.5,6.38c-2.38,11.5-4.88,24.5-6.5,34.5" style="fill:none;stroke:#999;stroke-width:3"></path>

<path d="M138.5,35.38c2.38,1.5,5.14,2.08,9.25,1.5c13.25-1.88,18.02-2.4,27.62-4c6.75-1.12,7.78,0.16,6.5,6.38c-2.38,11.5-4.88,24.5-6.5,34.5" style="fill:none;stroke:#999;stroke-width:3"></path>
<path d="M126.0,76.88c2.75,1.5,4.76,2.05,9.12,1.5c22.62-2.88,36-3.88,54.12-3.88c3.75,0,7.38,0.5,11.12,1.12" style="fill:none;stroke:#999;stroke-width:3"></path>

</svg>