<svg width="327px" height="109px" viewBox="0 0 327 109" xmlns="http://www.w3.org/2000/svg" xmlns:xlink="http://www.w3.org/1999/xlink" xml:space="preserve" version="1.1" baseProfile="full">
<line x1="1" y1="1" x2="326" y2="1" style="stroke:#ddd;stroke-width:2"></line>
<line x1="1" y1="1" x2="1" y2="108" style="stroke:#ddd;stroke-width:2"></line>
<line x1="1" y1="108" x2="326" y2="108" style="stroke:#ddd;stroke-width:2"></line>
<line x1="326" y1="1" x2="326" y2="108" style="stroke:#ddd;stroke-width:2"></line>
<line x1="109" y1="1" x2="109" y2="108" style="stroke:#ddd;stroke-width:2"></line>
<line x1="218" y1="1" x2="218" y2="108" style="stroke:#ddd;stroke-width:2"></line>
<line x1="1" y1="54" x2="326" y2="54" style="stroke:#ddd;stroke-width:2;stroke-dasharray:3 3"></line>
<line x1="55" y1="1" x2="55" y2="108" style="stroke:#ddd;stroke-width:2;stroke-dasharray:3 3"></line>
<line x1="164" y1="1" x2="164" y2="108" style="stroke:#ddd;stroke-width:2;stroke-dasharray:3 3"></line>
<line x1="273" y1="1" x2="273" y2="108" style="stroke:#ddd;stroke-width:2;stroke-dasharray:3 3"></line>
<path d="M29.13,30.12c2.38,1.5,5.12,1.98,9.25,1.5c14-1.62,26.71-3.04,36.38-4.25c6-0.75,6.88,0.5,6.5,6.38c-1,15.51-1.89,30.63-3.01,42.25" style="fill:none;stroke:#999;stroke-width:3"></path>

<path d="M138.13,30.12c2.38,1.5,5.12,1.98,9.25,1.5c14-1.62,26.71-3.04,36.38-4.25c6-0.75,6.88,0.5,6.5,6.38c-1,15.51-1.89,30.63-3.01,42.25" style="fill:none;stroke:#999;stroke-width:3"></path>
<path d="M138.25,52.88c2.38,1.5,5.12,1.98,9.25,1.5c10.5-1.22,22.81-2.29,31.11-3.04c2.77-0.25,5.27,0.04,7.77,0.54" style="fill:none;stroke:#999;stroke-width:3"></path>

<path d="M247.13,30.12c2.38,1.5,5.12,1.98,9.25,1.5c14-1.62,26.71-3.04,36.38-4.25c6-0.75,6.88,0.5,6.5,6.38c-1,15.51-1.89,30.63-3.01,42.25" style="fill:none;stroke:#999;stroke-width:3"></path>
<path d="M247.25,52.88c2.38,1.5,5.12,1.98,9.25,1.5c10.5-1.22,22.81-2.29,31.11-3.04c2.77-0.25,5.27,0.04,7.77,0.54" style="fill:none;stroke:#999;stroke-width:3"></path>
<path d="M241.5,78.84c2.75,1.3,4.74,1.68,9.12,1.3c12.5-1.08,29.37-2.9,41.38-2.9c3.38,0,5.62,0,9.38,0.54" style="fill:none;stroke:#999;stroke-width:3"></path>

</svg>