<svg width="218px" height="109px" viewBox="0 0 218 109" xmlns="http://www.w3.org/2000/svg" xmlns:xlink="http://www.w3.org/1999/xlink" xml:space="preserve" version="1.1" baseProfile="full">
<line x1="1" y1="1" x2="217" y2="1" style="stroke:#ddd;stroke-width:2"></line>
<line x1="1" y1="1" x2="1" y2="108" style="stroke:#ddd;stroke-width:2"></line>
<line x1="1" y1="108" x2="217" y2="108" style="stroke:#ddd;stroke-width:2"></line>
<line x1="217" y1="1" x2="217" y2="108" style="stroke:#ddd;stroke-width:2"></line>
<line x1="109" y1="1" x2="109" y2="108" style="stroke:#ddd;stroke-width:2"></line>
<line x1="1" y1="54" x2="217" y2="54" style="stroke:#ddd;stroke-width:2;stroke-dasharray:3 3"></line>
<line x1="55" y1="1" x2="55" y2="108" style="stroke:#ddd;stroke-width:2;stroke-dasharray:3 3"></line>
<line x1="164" y1="1" x2="164" y2="108" style="stroke:#ddd;stroke-width:2;stroke-dasharray:3 3"></line>
<path d="M38.63,21.06c2.07,1.86,4.43,2.53,8.05,2.15c9.2-0.96,14.34-2.01,21.57-2.95c2.41-0.31,4.13-0.53,6.51-0.19" style="fill:none;stroke:#999;stroke-width:3"></path>

<path d="M147.63,21.06c2.07,1.86,4.43,2.53,8.05,2.15c9.2-0.96,14.34-2.01,21.57-2.95c2.41-0.31,4.13-0.53,6.51-0.19" style="fill:none;stroke:#999;stroke-width:3"></path>
<path d="M135.0,41.89c2.38,1.7,5.12,2.24,9.25,1.7c14-1.84,31.21-4.95,40.88-6.32c6-0.85,8.14,0.62,6.25,5.72c-6.88,18.62-22,38.25-45.25,48.62" style="fill:none;stroke:#999;stroke-width:3"></path>

</svg>