<svg width="545px" height="109px" viewBox="0 0 545 109" xmlns="http://www.w3.org/2000/svg" xmlns:xlink="http://www.w3.org/1999/xlink" xml:space="preserve" version="1.1" baseProfile="full">
<line x1="1" y1="1" x2="544" y2="1" style="stroke:#ddd;stroke-width:2"></line>
<line x1="1" y1="1" x2="1" y2="108" style="stroke:#ddd;stroke-width:2"></line>
<line x1="1" y1="108" x2="544" y2="108" style="stroke:#ddd;stroke-width:2"></line>
<line x1="544" y1="1" x2="544" y2="108" style="stroke:#ddd;stroke-width:2"></line>
<line x1="109" y1="1" x2="109" y2="108" style="stroke:#ddd;stroke-width:2"></line>
<line x1="218" y1="1" x2="218" y2="108" style="stroke:#ddd;stroke-width:2"></line>
<line x1="327" y1="1" x2="327" y2="108" style="stroke:#ddd;stroke-width:2"></line>
<line x1="436" y1="1" x2="436" y2="108" style="stroke:#ddd;stroke-width:2"></line>
<line x1="1" y1="54" x2="544" y2="54" style="stroke:#ddd;stroke-width:2;stroke-dasharray:3 3"></line>
<line x1="55" y1="1" x2="55" y2="108" style="stroke:#ddd;stroke-width:2;stroke-dasharray:3 3"></line>
<line x1="164" y1="1" x2="164" y2="108" style="stroke:#ddd;stroke-width:2;stroke-dasharray:3 3"></line>
<line x1="273" y1="1" x2="273" y2="108" style="stroke:#ddd;stroke-width:2;stroke-dasharray:3 3"></line>
<line x1="382" y1="1" x2="382" y2="108" style="stroke:#ddd;stroke-width:2;stroke-dasharray:3 3"></line>
<line x1="491" y1="1" x2="491" y2="108" style="stroke:#ddd;stroke-width:2;stroke-dasharray:3 3"></line>
<path d="M53.25,14.62c1,1.12,1.25,3,1.25,4.62c0,1.62,0,10.76,0,12.64" style="fill:none;stroke:#999;stroke-width:3"></path>

<path d="M162.25,14.62c1,1.12,1.25,3,1.25,4.62c0,1.62,0,10.76,0,12.64" style="fill:none;stroke:#999;stroke-width:3"></path>
<path d="M135.5,31.25c1,1.12,1.22,3,1.25,4.62c0.09,4.45,0.29,10.95,0.45,16.37c0.07,2.5,0.14,4.77,0.18,6.5" style="fill:none;stroke:#999;stroke-width:3"></path>

<path d="M271.25,14.62c1,1.12,1.25,3,1.25,4.62c0,1.62,0,10.76,0,12.64" style="fill:none;stroke:#999;stroke-width:3"></path>
<path d="M244.5,31.25c1,1.12,1.22,3,1.25,4.62c0.09,4.45,0.29,10.95,0.45,16.37c0.07,2.5,0.14,4.77,0.18,6.5" style="fill:none;stroke:#999;stroke-width:3"></path>
<path d="M247.12,35.88c19.38-2.25,40.25-4.25,49-5.5c8.75-1.25,8.28,0.84,6.25,6.88c-5,14.88-20.12,43.5-41,56.62" style="fill:none;stroke:#999;stroke-width:3"></path>

<path d="M380.25,14.62c1,1.12,1.25,3,1.25,4.62c0,1.62,0,10.76,0,12.64" style="fill:none;stroke:#999;stroke-width:3"></path>
<path d="M353.5,31.25c1,1.12,1.22,3,1.25,4.62c0.09,4.45,0.29,10.95,0.45,16.37c0.07,2.5,0.14,4.77,0.18,6.5" style="fill:none;stroke:#999;stroke-width:3"></path>
<path d="M356.12,35.88c19.38-2.25,40.25-4.25,49-5.5c8.75-1.25,8.28,0.84,6.25,6.88c-5,14.88-20.12,43.5-41,56.62" style="fill:none;stroke:#999;stroke-width:3"></path>
<path d="M412.12,16.5c2.75,1.75,6,5.38,7.75,8.5" style="fill:none;stroke:#999;stroke-width:3"></path>

<path d="M489.25,14.62c1,1.12,1.25,3,1.25,4.62c0,1.62,0,10.76,0,12.64" style="fill:none;stroke:#999;stroke-width:3"></path>
<path d="M462.5,31.25c1,1.12,1.22,3,1.25,4.62c0.09,4.45,0.29,10.95,0.45,16.37c0.07,2.5,0.14,4.77,0.18,6.5" style="fill:none;stroke:#999;stroke-width:3"></path>
<path d="M465.12,35.88c19.38-2.25,40.25-4.25,49-5.5c8.75-1.25,8.28,0.84,6.25,6.88c-5,14.88-20.12,43.5-41,56.62" style="fill:none;stroke:#999;stroke-width:3"></path>
<path d="M521.12,16.5c2.75,1.75,6,5.38,7.75,8.5" style="fill:none;stroke:#999;stroke-width:3"></path>
<path d="M527.5,11.62c3.06,1.57,6.68,4.82,8.62,7.62" style="fill:none;stroke:#999;stroke-width:3"></path>

</svg>