<svg width="654px" height="109px" viewBox="0 0 654 109" xmlns="http://www.w3.org/2000/svg" xmlns:xlink="http://www.w3.org/1999/xlink" xml:space="preserve" version="1.1" baseProfile="full">
<line x1="1" y1="1" x2="653" y2="1" style="stroke:#ddd;stroke-width:2"></line>
<line x1="1" y1="1" x2="1" y2="108" style="stroke:#ddd;stroke-width:2"></line>
<line x1="1" y1="108" x2="653" y2="108" style="stroke:#ddd;stroke-width:2"></line>
<line x1="653" y1="1" x2="653" y2="108" style="stroke:#ddd;stroke-width:2"></line>
<line x1="109" y1="1" x2="109" y2="108" style="stroke:#ddd;stroke-width:2"></line>
<line x1="218" y1="1" x2="218" y2="108" style="stroke:#ddd;stroke-width:2"></line>
<line x1="327" y1="1" x2="327" y2="108" style="stroke:#ddd;stroke-width:2"></line>
<line x1="436" y1="1" x2="436" y2="108" style="stroke:#ddd;stroke-width:2"></line>
<line x1="545" y1="1" x2="545" y2="108" style="stroke:#ddd;stroke-width:2"></line>
<line x1="1" y1="54" x2="653" y2="54" style="stroke:#ddd;stroke-width:2;stroke-dasharray:3 3"></line>
<line x1="55" y1="1" x2="55" y2="108" style="stroke:#ddd;stroke-width:2;stroke-dasharray:3 3"></line>
<line x1="164" y1="1" x2="164" y2="108" style="stroke:#ddd;stroke-width:2;stroke-dasharray:3 3"></line>
<line x1="273" y1="1" x2="273" y2="108" style="stroke:#ddd;stroke-width:2;stroke-dasharray:3 3"></line>
<line x1="382" y1="1" x2="382" y2="108" style="stroke:#ddd;stroke-width:2;stroke-dasharray:3 3"></line>
<line x1="491" y1="1" x2="491" y2="108" style="stroke:#ddd;stroke-width:2;stroke-dasharray:3 3"></line>
<line x1="600" y1="1" x2="600" y2="108" style="stroke:#ddd;stroke-width:2;stroke-dasharray:3 3"></line>
<path d="M28.12,35c3,1.25,5.87,1.17,8.75,0.88c14.88-1.5,25.25-2.5,40.25-4c3.73-0.37,6.88,0,8.88,0.38" style="fill:none;stroke:#999;stroke-width:3"></path>

<path d="M137.12,35c3,1.25,5.87,1.17,8.75,0.88c14.88-1.5,25.25-2.5,40.25-4c3.73-0.37,6.88,0,8.88,0.38" style="fill:none;stroke:#999;stroke-width:3"></path>
<path d="M147.62,38.88c1,1.38,1.22,2.75,1.12,4.38c-0.5,8.25-1.12,15.12-1.5,20" style="fill:none;stroke:#999;stroke-width:3"></path>

<path d="M246.12,35c3,1.25,5.87,1.17,8.75,0.88c14.88-1.5,25.25-2.5,40.25-4c3.73-0.37,6.88,0,8.88,0.38" style="fill:none;stroke:#999;stroke-width:3"></path>
<path d="M256.62,38.88c1,1.38,1.22,2.75,1.12,4.38c-0.5,8.25-1.12,15.12-1.5,20" style="fill:none;stroke:#999;stroke-width:3"></path>
<path d="M236.0,65.25c2.5,0.88,5.25,1.03,8.62,0.5c23-3.62,38.88-5.12,57.25-5.5c4.76-0.1,8.75,0.5,12,1.62" style="fill:none;stroke:#999;stroke-width:3"></path>

<path d="M355.12,35c3,1.25,5.87,1.17,8.75,0.88c14.88-1.5,25.25-2.5,40.25-4c3.73-0.37,6.88,0,8.88,0.38" style="fill:none;stroke:#999;stroke-width:3"></path>
<path d="M365.62,38.88c1,1.38,1.22,2.75,1.12,4.38c-0.5,8.25-1.12,15.12-1.5,20" style="fill:none;stroke:#999;stroke-width:3"></path>
<path d="M345.0,65.25c2.5,0.88,5.25,1.03,8.62,0.5c23-3.62,38.88-5.12,57.25-5.5c4.76-0.1,8.75,0.5,12,1.62" style="fill:none;stroke:#999;stroke-width:3"></path>
<path d="M387.12,14.38c2,1.62,2.75,3.5,2.75,6.12c0,2.62,0,56,0,59.38c0,3.38,0,10.62,0,13.88" style="fill:none;stroke:#999;stroke-width:3"></path>

<path d="M464.12,35c3,1.25,5.87,1.17,8.75,0.88c14.88-1.5,25.25-2.5,40.25-4c3.73-0.37,6.88,0,8.88,0.38" style="fill:none;stroke:#999;stroke-width:3"></path>
<path d="M474.62,38.88c1,1.38,1.22,2.75,1.12,4.38c-0.5,8.25-1.12,15.12-1.5,20" style="fill:none;stroke:#999;stroke-width:3"></path>
<path d="M454.0,65.25c2.5,0.88,5.25,1.03,8.62,0.5c23-3.62,38.88-5.12,57.25-5.5c4.76-0.1,8.75,0.5,12,1.62" style="fill:none;stroke:#999;stroke-width:3"></path>
<path d="M496.12,14.38c2,1.62,2.75,3.5,2.75,6.12c0,2.62,0,56,0,59.38c0,3.38,0,10.62,0,13.88" style="fill:none;stroke:#999;stroke-width:3"></path>
<path d="M520.24,13.25c2.75,1.75,6,5.38,7.75,8.5" style="fill:none;stroke:#999;stroke-width:3"></path>

<path d="M573.12,35c3,1.25,5.87,1.17,8.75,0.88c14.88-1.5,25.25-2.5,40.25-4c3.73-0.37,6.88,0,8.88,0.38" style="fill:none;stroke:#999;stroke-width:3"></path>
<path d="M583.62,38.88c1,1.38,1.22,2.75,1.12,4.38c-0.5,8.25-1.12,15.12-1.5,20" style="fill:none;stroke:#999;stroke-width:3"></path>
<path d="M563.0,65.25c2.5,0.88,5.25,1.03,8.62,0.5c23-3.62,38.88-5.12,57.25-5.5c4.76-0.1,8.75,0.5,12,1.62" style="fill:none;stroke:#999;stroke-width:3"></path>
<path d="M605.12,14.38c2,1.62,2.75,3.5,2.75,6.12c0,2.62,0,56,0,59.38c0,3.38,0,10.62,0,13.88" style="fill:none;stroke:#999;stroke-width:3"></path>
<path d="M629.24,13.25c2.75,1.75,6,5.38,7.75,8.5" style="fill:none;stroke:#999;stroke-width:3"></path>
<path d="M635.62,8.38c3.06,1.57,6.68,4.82,8.62,7.62" style="fill:none;stroke:#999;stroke-width:3"></path>

</svg>