<svg width="327px" height="109px" viewBox="0 0 327 109" xmlns="http://www.w3.org/2000/svg" xmlns:xlink="http://www.w3.org/1999/xlink" xml:space="preserve" version="1.1" baseProfile="full">
<line x1="1" y1="1" x2="326" y2="1" style="stroke:#ddd;stroke-width:2"></line>
<line x1="1" y1="1" x2="1" y2="108" style="stroke:#ddd;stroke-width:2"></line>
<line x1="1" y1="108" x2="326" y2="108" style="stroke:#ddd;stroke-width:2"></line>
<line x1="326" y1="1" x2="326" y2="108" style="stroke:#ddd;stroke-width:2"></line>
<line x1="109" y1="1" x2="109" y2="108" style="stroke:#ddd;stroke-width:2"></line>
<line x1="218" y1="1" x2="218" y2="108" style="stroke:#ddd;stroke-width:2"></line>
<line x1="1" y1="54" x2="326" y2="54" style="stroke:#ddd;stroke-width:2;stroke-dasharray:3 3"></line>
<line x1="55" y1="1" x2="55" y2="108" style="stroke:#ddd;stroke-width:2;stroke-dasharray:3 3"></line>
<line x1="164" y1="1" x2="164" y2="108" style="stroke:#ddd;stroke-width:2;stroke-dasharray:3 3"></line>
<line x1="273" y1="1" x2="273" y2="108" style="stroke:#ddd;stroke-width:2;stroke-dasharray:3 3"></line>
<path d="M13.25,22.5c0.94,0.23,5.18,0.96,7.74,0.75c17.87-1.5,46.54-4.75,66.38-4.75c2.92,0,6.42,0.75,7.88,1.25" style="fill:none;stroke:#999;stroke-width:3"></path>

<path d="M122.25,22.5c0.94,0.23,5.18,0.96,7.74,0.75c17.87-1.5,46.54-4.75,66.38-4.75c2.92,0,6.42,0.75,7.88,1.25" style="fill:none;stroke:#999;stroke-width:3"></path>
<path d="M161.97,23.25c0.93,1.07,1.56,2.75,1.56,5.3c0,8.65-0.2,39.42-0.27,57.2c-0.02,3.86-0.02,5.89-0.02,8.25" style="fill:none;stroke:#999;stroke-width:3"></path>

<path d="M231.25,22.5c0.94,0.23,5.18,0.96,7.74,0.75c17.87-1.5,46.54-4.75,66.38-4.75c2.92,0,6.42,0.75,7.88,1.25" style="fill:none;stroke:#999;stroke-width:3"></path>
<path d="M270.97,23.25c0.93,1.07,1.56,2.75,1.56,5.3c0,8.65-0.2,39.42-0.27,57.2c-0.02,3.86-0.02,5.89-0.02,8.25" style="fill:none;stroke:#999;stroke-width:3"></path>
<path d="M285.83,37.17C290.75,39.5,297.88,47.62,300.0,52.12" style="fill:none;stroke:#999;stroke-width:3"></path>

</svg>