<svg width="545px" height="109px" viewBox="0 0 545 109" xmlns="http://www.w3.org/2000/svg" xmlns:xlink="http://www.w3.org/1999/xlink" xml:space="preserve" version="1.1" baseProfile="full">
<line x1="1" y1="1" x2="544" y2="1" style="stroke:#ddd;stroke-width:2"></line>
<line x1="1" y1="1" x2="1" y2="108" style="stroke:#ddd;stroke-width:2"></line>
<line x1="1" y1="108" x2="544" y2="108" style="stroke:#ddd;stroke-width:2"></line>
<line x1="544" y1="1" x2="544" y2="108" style="stroke:#ddd;stroke-width:2"></line>
<line x1="109" y1="1" x2="109" y2="108" style="stroke:#ddd;stroke-width:2"></line>
<line x1="218" y1="1" x2="218" y2="108" style="stroke:#ddd;stroke-width:2"></line>
<line x1="327" y1="1" x2="327" y2="108" style="stroke:#ddd;stroke-width:2"></line>
<line x1="436" y1="1" x2="436" y2="108" style="stroke:#ddd;stroke-width:2"></line>
<line x1="1" y1="54" x2="544" y2="54" style="stroke:#ddd;stroke-width:2;stroke-dasharray:3 3"></line>
<line x1="55" y1="1" x2="55" y2="108" style="stroke:#ddd;stroke-width:2;stroke-dasharray:3 3"></line>
<line x1="164" y1="1" x2="164" y2="108" style="stroke:#ddd;stroke-width:2;stroke-dasharray:3 3"></line>
<line x1="273" y1="1" x2="273" y2="108" style="stroke:#ddd;stroke-width:2;stroke-dasharray:3 3"></line>
<line x1="382" y1="1" x2="382" y2="108" style="stroke:#ddd;stroke-width:2;stroke-dasharray:3 3"></line>
<line x1="491" y1="1" x2="491" y2="108" style="stroke:#ddd;stroke-width:2;stroke-dasharray:3 3"></line>
<path d="M33.75,19.87c0.75,1.05,1.25,2.3,1.25,3.36c0,4.77,0.3,62.69,0.21,64.96" style="fill:none;stroke:#999;stroke-width:3"></path>

<path d="M142.75,19.87c0.75,1.05,1.25,2.3,1.25,3.36c0,4.77,0.3,62.69,0.21,64.96" style="fill:none;stroke:#999;stroke-width:3"></path>
<path d="M144.97,21.78c2.97-0.11,30.42-3.03,32.62-3.2c3.96-0.31,4.97,0.67,4.97,5.05c0,1.51-0.06,40.88-0.06,61.5" style="fill:none;stroke:#999;stroke-width:3"></path>

<path d="M251.75,19.87c0.75,1.05,1.25,2.3,1.25,3.36c0,4.77,0.3,62.69,0.21,64.96" style="fill:none;stroke:#999;stroke-width:3"></path>
<path d="M253.97,21.78c2.97-0.11,30.42-3.03,32.62-3.2c3.96-0.31,4.97,0.67,4.97,5.05c0,1.51-0.06,40.88-0.06,61.5" style="fill:none;stroke:#999;stroke-width:3"></path>
<path d="M254.32,43.24c10.13-1.02,26.94-2.22,35.84-2.54" style="fill:none;stroke:#999;stroke-width:3"></path>

<path d="M360.75,19.87c0.75,1.05,1.25,2.3,1.25,3.36c0,4.77,0.3,62.69,0.21,64.96" style="fill:none;stroke:#999;stroke-width:3"></path>
<path d="M362.97,21.78c2.97-0.11,30.42-3.03,32.62-3.2c3.96-0.31,4.97,0.67,4.97,5.05c0,1.51-0.06,40.88-0.06,61.5" style="fill:none;stroke:#999;stroke-width:3"></path>
<path d="M363.32,43.24c10.13-1.02,26.94-2.22,35.84-2.54" style="fill:none;stroke:#999;stroke-width:3"></path>
<path d="M363.42,65c8.83-0.75,26.71-2.29,35.86-2.34" style="fill:none;stroke:#999;stroke-width:3"></path>

<path d="M469.75,19.87c0.75,1.05,1.25,2.3,1.25,3.36c0,4.77,0.3,62.69,0.21,64.96" style="fill:none;stroke:#999;stroke-width:3"></path>
<path d="M471.97,21.78c2.97-0.11,30.42-3.03,32.62-3.2c3.96-0.31,4.97,0.67,4.97,5.05c0,1.51-0.06,40.88-0.06,61.5" style="fill:none;stroke:#999;stroke-width:3"></path>
<path d="M472.32,43.24c10.13-1.02,26.94-2.22,35.84-2.54" style="fill:none;stroke:#999;stroke-width:3"></path>
<path d="M472.42,65c8.83-0.75,26.71-2.29,35.86-2.34" style="fill:none;stroke:#999;stroke-width:3"></path>
<path d="M452.04,89.56c3.29,0.97,7.12,0.64,10.47,0.41C477.09000000000003,89,499.75,87.5,520.62,86.83c3.34-0.11,6.7,0.05,10.01,0.64" style="fill:none;stroke:#999;stroke-width:3"></path>

</svg>