<svg width="327px" height="109px" viewBox="0 0 327 109" xmlns="http://www.w3.org/2000/svg" xmlns:xlink="http://www.w3.org/1999/xlink" xml:space="preserve" version="1.1" baseProfile="full">
<line x1="1" y1="1" x2="326" y2="1" style="stroke:#ddd;stroke-width:2"></line>
<line x1="1" y1="1" x2="1" y2="108" style="stroke:#ddd;stroke-width:2"></line>
<line x1="1" y1="108" x2="326" y2="108" style="stroke:#ddd;stroke-width:2"></line>
<line x1="326" y1="1" x2="326" y2="108" style="stroke:#ddd;stroke-width:2"></line>
<line x1="109" y1="1" x2="109" y2="108" style="stroke:#ddd;stroke-width:2"></line>
<line x1="218" y1="1" x2="218" y2="108" style="stroke:#ddd;stroke-width:2"></line>
<line x1="1" y1="54" x2="326" y2="54" style="stroke:#ddd;stroke-width:2;stroke-dasharray:3 3"></line>
<line x1="55" y1="1" x2="55" y2="108" style="stroke:#ddd;stroke-width:2;stroke-dasharray:3 3"></line>
<line x1="164" y1="1" x2="164" y2="108" style="stroke:#ddd;stroke-width:2;stroke-dasharray:3 3"></line>
<line x1="273" y1="1" x2="273" y2="108" style="stroke:#ddd;stroke-width:2;stroke-dasharray:3 3"></line>
<path d="M50.65,16.5c1.3,1.3,1.42,2.5,1.42,4.52c0,3.9-0.06,12.06-0.06,15.6" style="fill:none;stroke:#999;stroke-width:3"></path>

<path d="M159.65,16.5c1.3,1.3,1.42,2.5,1.42,4.52c0,3.9-0.06,12.06-0.06,15.6" style="fill:none;stroke:#999;stroke-width:3"></path>
<path d="M132.57999999999998,41.5c2.54,1.13,5.41,0.73,8.07,0.26c10.23-1.81,30.92-5.79,38.18-7.01c5.92-1,7.65,2.76,2.5,6.5C164.62,53.38,150.5,62,133.0,71.25" style="fill:none;stroke:#999;stroke-width:3"></path>

<path d="M268.65,16.5c1.3,1.3,1.42,2.5,1.42,4.52c0,3.9-0.06,12.06-0.06,15.6" style="fill:none;stroke:#999;stroke-width:3"></path>
<path d="M241.57999999999998,41.5c2.54,1.13,5.41,0.73,8.07,0.26c10.23-1.81,30.92-5.79,38.18-7.01c5.92-1,7.65,2.76,2.5,6.5C273.62,53.38,259.5,62,242.0,71.25" style="fill:none;stroke:#999;stroke-width:3"></path>
<path d="M232.75,72.5c2.75-0.25,5.37,0.07,7.17,0.37c18.58,3.13,33.83,10,50.39,14.99C296.76,89.81,299.5,90.38,305.0,91" style="fill:none;stroke:#999;stroke-width:3"></path>

</svg>