<svg width="436px" height="109px" viewBox="0 0 436 109" xmlns="http://www.w3.org/2000/svg" xmlns:xlink="http://www.w3.org/1999/xlink" xml:space="preserve" version="1.1" baseProfile="full">
<line x1="1" y1="1" x2="435" y2="1" style="stroke:#ddd;stroke-width:2"></line>
<line x1="1" y1="1" x2="1" y2="108" style="stroke:#ddd;stroke-width:2"></line>
<line x1="1" y1="108" x2="435" y2="108" style="stroke:#ddd;stroke-width:2"></line>
<line x1="435" y1="1" x2="435" y2="108" style="stroke:#ddd;stroke-width:2"></line>
<line x1="109" y1="1" x2="109" y2="108" style="stroke:#ddd;stroke-width:2"></line>
<line x1="218" y1="1" x2="218" y2="108" style="stroke:#ddd;stroke-width:2"></line>
<line x1="327" y1="1" x2="327" y2="108" style="stroke:#ddd;stroke-width:2"></line>
<line x1="1" y1="54" x2="435" y2="54" style="stroke:#ddd;stroke-width:2;stroke-dasharray:3 3"></line>
<line x1="55" y1="1" x2="55" y2="108" style="stroke:#ddd;stroke-width:2;stroke-dasharray:3 3"></line>
<line x1="164" y1="1" x2="164" y2="108" style="stroke:#ddd;stroke-width:2;stroke-dasharray:3 3"></line>
<line x1="273" y1="1" x2="273" y2="108" style="stroke:#ddd;stroke-width:2;stroke-dasharray:3 3"></line>
<line x1="382" y1="1" x2="382" y2="108" style="stroke:#ddd;stroke-width:2;stroke-dasharray:3 3"></line>
<path d="M68.96,13.75c-0.34,1.25-1.19,2.09-1.94,2.54c-8.86,5.4-24.27,9.96-43.77,14.5" style="fill:none;stroke:#999;stroke-width:3"></path>

<path d="M177.95999999999998,13.75c-0.34,1.25-1.19,2.09-1.94,2.54c-8.86,5.4-24.27,9.96-43.77,14.5" style="fill:none;stroke:#999;stroke-width:3"></path>
<path d="M159.02,31.58C160.0,32.5,160.52,34,160.52,36.1c0,3.15-0.02,6.94-0.02,11.9" style="fill:none;stroke:#999;stroke-width:3"></path>

<path d="M286.96,13.75c-0.34,1.25-1.19,2.09-1.94,2.54c-8.86,5.4-24.27,9.96-43.77,14.5" style="fill:none;stroke:#999;stroke-width:3"></path>
<path d="M268.02,31.58C269.0,32.5,269.52,34,269.52,36.1c0,3.15-0.02,6.94-0.02,11.9" style="fill:none;stroke:#999;stroke-width:3"></path>
<path d="M240.57999999999998,53.5c2.14,0.95,5.94,0.32,8.2-0.12c10.52-2.04,38.16-7.04,40.3-7.38c4.67-0.75,5.67,2,2.5,4.75C277.89,62.59,263.75,72.5,243.25,83" style="fill:none;stroke:#999;stroke-width:3"></path>

<path d="M395.96,13.75c-0.34,1.25-1.19,2.09-1.94,2.54c-8.86,5.4-24.27,9.96-43.77,14.5" style="fill:none;stroke:#999;stroke-width:3"></path>
<path d="M377.02,31.58C378.0,32.5,378.52,34,378.52,36.1c0,3.15-0.02,6.94-0.02,11.9" style="fill:none;stroke:#999;stroke-width:3"></path>
<path d="M349.58,53.5c2.14,0.95,5.94,0.32,8.2-0.12c10.52-2.04,38.16-7.04,40.3-7.38c4.67-0.75,5.67,2,2.5,4.75C386.89,62.59,372.75,72.5,352.25,83" style="fill:none;stroke:#999;stroke-width:3"></path>
<path d="M343.75,84.35c3.02-0.43,8.99-0.99,13.59-0.65c9.04,0.68,30.27,6.67,34.72,7.79C404.13,94.51,410.12,95,419.5,94.61" style="fill:none;stroke:#999;stroke-width:3"></path>

</svg>