<svg width="981px" height="109px" viewBox="0 0 981 109" xmlns="http://www.w3.org/2000/svg" xmlns:xlink="http://www.w3.org/1999/xlink" xml:space="preserve" version="1.1" baseProfile="full">
<line x1="1" y1="1" x2="980" y2="1" style="stroke:#ddd;stroke-width:2"></line>
<line x1="1" y1="1" x2="1" y2="108" style="stroke:#ddd;stroke-width:2"></line>
<line x1="1" y1="108" x2="980" y2="108" style="stroke:#ddd;stroke-width:2"></line>
<line x1="980" y1="1" x2="980" y2="108" style="stroke:#ddd;stroke-width:2"></line>
<line x1="109" y1="1" x2="109" y2="108" style="stroke:#ddd;stroke-width:2"></line>
<line x1="218" y1="1" x2="218" y2="108" style="stroke:#ddd;stroke-width:2"></line>
<line x1="327" y1="1" x2="327" y2="108" style="stroke:#ddd;stroke-width:2"></line>
<line x1="436" y1="1" x2="436" y2="108" style="stroke:#ddd;stroke-width:2"></line>
<line x1="545" y1="1" x2="545" y2="108" style="stroke:#ddd;stroke-width:2"></line>
<line x1="654" y1="1" x2="654" y2="108" style="stroke:#ddd;stroke-width:2"></line>
<line x1="763" y1="1" x2="763" y2="108" style="stroke:#ddd;stroke-width:2"></line>
<line x1="872" y1="1" x2="872" y2="108" style="stroke:#ddd;stroke-width:2"></line>
<line x1="1" y1="54" x2="980" y2="54" style="stroke:#ddd;stroke-width:2;stroke-dasharray:3 3"></line>
<line x1="55" y1="1" x2="55" y2="108" style="stroke:#ddd;stroke-width:2;stroke-dasharray:3 3"></line>
<line x1="164" y1="1" x2="164" y2="108" style="stroke:#ddd;stroke-width:2;stroke-dasharray:3 3"></line>
<line x1="273" y1="1" x2="273" y2="108" style="stroke:#ddd;stroke-width:2;stroke-dasharray:3 3"></line>
<line x1="382" y1="1" x2="382" y2="108" style="stroke:#ddd;stroke-width:2;stroke-dasharray:3 3"></line>
<line x1="491" y1="1" x2="491" y2="108" style="stroke:#ddd;stroke-width:2;stroke-dasharray:3 3"></line>
<line x1="600" y1="1" x2="600" y2="108" style="stroke:#ddd;stroke-width:2;stroke-dasharray:3 3"></line>
<line x1="709" y1="1" x2="709" y2="108" style="stroke:#ddd;stroke-width:2;stroke-dasharray:3 3"></line>
<line x1="818" y1="1" x2="818" y2="108" style="stroke:#ddd;stroke-width:2;stroke-dasharray:3 3"></line>
<line x1="927" y1="1" x2="927" y2="108" style="stroke:#ddd;stroke-width:2;stroke-dasharray:3 3"></line>
<path d="M68.21,10.39c-0.33,0.98-0.83,1.61-1.87,2.11c-4.32,2.09-17.96,6.87-33.78,9.72" style="fill:none;stroke:#999;stroke-width:3"></path>

<path d="M177.20999999999998,10.39c-0.33,0.98-0.83,1.61-1.87,2.11c-4.32,2.09-17.96,6.87-33.78,9.72" style="fill:none;stroke:#999;stroke-width:3"></path>
<path d="M133.0,32.7c2.01,0.54,5.71,0.51,7.71,0.29c14.85-1.62,30.99-3.62,45-4.23c3.35-0.15,5.36,0.26,7.04,0.53" style="fill:none;stroke:#999;stroke-width:3"></path>

<path d="M286.21,10.39c-0.33,0.98-0.83,1.61-1.87,2.11c-4.32,2.09-17.96,6.87-33.78,9.72" style="fill:none;stroke:#999;stroke-width:3"></path>
<path d="M242.0,32.7c2.01,0.54,5.71,0.51,7.71,0.29c14.85-1.62,30.99-3.62,45-4.23c3.35-0.15,5.36,0.26,7.04,0.53" style="fill:none;stroke:#999;stroke-width:3"></path>
<path d="M232.5,47.95c2.47,0.54,7,0.46,9.46,0.29c16.04-1.12,39.16-3.62,59.27-4.48c4.11-0.18,6.58,0.26,8.64,0.53" style="fill:none;stroke:#999;stroke-width:3"></path>

<path d="M395.21,10.39c-0.33,0.98-0.83,1.61-1.87,2.11c-4.32,2.09-17.96,6.87-33.78,9.72" style="fill:none;stroke:#999;stroke-width:3"></path>
<path d="M351.0,32.7c2.01,0.54,5.71,0.51,7.71,0.29c14.85-1.62,30.99-3.62,45-4.23c3.35-0.15,5.36,0.26,7.04,0.53" style="fill:none;stroke:#999;stroke-width:3"></path>
<path d="M341.5,47.95c2.47,0.54,7,0.46,9.46,0.29c16.04-1.12,39.16-3.62,59.27-4.48c4.11-0.18,6.58,0.26,8.64,0.53" style="fill:none;stroke:#999;stroke-width:3"></path>
<path d="M361.81,36.63c1.28,1.28,1.82,2.13,2.01,3.5c0.93,6.62,1.53,16.82,1.93,21.12" style="fill:none;stroke:#999;stroke-width:3"></path>

<path d="M504.21,10.39c-0.33,0.98-0.83,1.61-1.87,2.11c-4.32,2.09-17.96,6.87-33.78,9.72" style="fill:none;stroke:#999;stroke-width:3"></path>
<path d="M460.0,32.7c2.01,0.54,5.71,0.51,7.71,0.29c14.85-1.62,30.99-3.62,45-4.23c3.35-0.15,5.36,0.26,7.04,0.53" style="fill:none;stroke:#999;stroke-width:3"></path>
<path d="M450.5,47.95c2.47,0.54,7,0.46,9.46,0.29c16.04-1.12,39.16-3.62,59.27-4.48c4.11-0.18,6.58,0.26,8.64,0.53" style="fill:none;stroke:#999;stroke-width:3"></path>
<path d="M470.81,36.63c1.28,1.28,1.82,2.13,2.01,3.5c0.93,6.62,1.53,16.82,1.93,21.12" style="fill:none;stroke:#999;stroke-width:3"></path>
<path d="M508.81,32.63c0.9,0.9,1.11,2.6,1.01,3.5C509.25,41.38,508.0,51.75,506.25,59" style="fill:none;stroke:#999;stroke-width:3"></path>

<path d="M613.21,10.39c-0.33,0.98-0.83,1.61-1.87,2.11c-4.32,2.09-17.96,6.87-33.78,9.72" style="fill:none;stroke:#999;stroke-width:3"></path>
<path d="M569.0,32.7c2.01,0.54,5.71,0.51,7.71,0.29c14.85-1.62,30.99-3.62,45-4.23c3.35-0.15,5.36,0.26,7.04,0.53" style="fill:none;stroke:#999;stroke-width:3"></path>
<path d="M559.5,47.95c2.47,0.54,7,0.46,9.46,0.29c16.04-1.12,39.16-3.62,59.27-4.48c4.11-0.18,6.58,0.26,8.64,0.53" style="fill:none;stroke:#999;stroke-width:3"></path>
<path d="M579.81,36.63c1.28,1.28,1.82,2.13,2.01,3.5c0.93,6.62,1.53,16.82,1.93,21.12" style="fill:none;stroke:#999;stroke-width:3"></path>
<path d="M617.81,32.63c0.9,0.9,1.11,2.6,1.01,3.5C618.25,41.38,617.0,51.75,615.25,59" style="fill:none;stroke:#999;stroke-width:3"></path>
<path d="M569.0,62.05c2.09,0.58,5.92,0.47,8,0.31c10.56-0.79,32.6-3.2,49.69-3.72c3.48-0.11,5.57,0.28,7.31,0.56" style="fill:none;stroke:#999;stroke-width:3"></path>

<path d="M722.21,10.39c-0.33,0.98-0.83,1.61-1.87,2.11c-4.32,2.09-17.96,6.87-33.78,9.72" style="fill:none;stroke:#999;stroke-width:3"></path>
<path d="M678.0,32.7c2.01,0.54,5.71,0.51,7.71,0.29c14.85-1.62,30.99-3.62,45-4.23c3.35-0.15,5.36,0.26,7.04,0.53" style="fill:none;stroke:#999;stroke-width:3"></path>
<path d="M668.5,47.95c2.47,0.54,7,0.46,9.46,0.29c16.04-1.12,39.16-3.62,59.27-4.48c4.11-0.18,6.58,0.26,8.64,0.53" style="fill:none;stroke:#999;stroke-width:3"></path>
<path d="M688.81,36.63c1.28,1.28,1.82,2.13,2.01,3.5c0.93,6.62,1.53,16.82,1.93,21.12" style="fill:none;stroke:#999;stroke-width:3"></path>
<path d="M726.81,32.63c0.9,0.9,1.11,2.6,1.01,3.5C727.25,41.38,726.0,51.75,724.25,59" style="fill:none;stroke:#999;stroke-width:3"></path>
<path d="M678.0,62.05c2.09,0.58,5.92,0.47,8,0.31c10.56-0.79,32.6-3.2,49.69-3.72c3.48-0.11,5.57,0.28,7.31,0.56" style="fill:none;stroke:#999;stroke-width:3"></path>
<path d="M706.56,20.13c0.84,0.84,1.51,2.62,1.51,4.25c0,4.61,0,48.92,0,66.99c0,2.98,0,5.25,0,6.51" style="fill:none;stroke:#999;stroke-width:3"></path>

<path d="M831.21,10.39c-0.33,0.98-0.83,1.61-1.87,2.11c-4.32,2.09-17.96,6.87-33.78,9.72" style="fill:none;stroke:#999;stroke-width:3"></path>
<path d="M787.0,32.7c2.01,0.54,5.71,0.51,7.71,0.29c14.85-1.62,30.99-3.62,45-4.23c3.35-0.15,5.36,0.26,7.04,0.53" style="fill:none;stroke:#999;stroke-width:3"></path>
<path d="M777.5,47.95c2.47,0.54,7,0.46,9.46,0.29c16.04-1.12,39.16-3.62,59.27-4.48c4.11-0.18,6.58,0.26,8.64,0.53" style="fill:none;stroke:#999;stroke-width:3"></path>
<path d="M797.81,36.63c1.28,1.28,1.82,2.13,2.01,3.5c0.93,6.62,1.53,16.82,1.93,21.12" style="fill:none;stroke:#999;stroke-width:3"></path>
<path d="M835.81,32.63c0.9,0.9,1.11,2.6,1.01,3.5C836.25,41.38,835.0,51.75,833.25,59" style="fill:none;stroke:#999;stroke-width:3"></path>
<path d="M787.0,62.05c2.09,0.58,5.92,0.47,8,0.31c10.56-0.79,32.6-3.2,49.69-3.72c3.48-0.11,5.57,0.28,7.31,0.56" style="fill:none;stroke:#999;stroke-width:3"></path>
<path d="M815.56,20.13c0.84,0.84,1.51,2.62,1.51,4.25c0,4.61,0,48.92,0,66.99c0,2.98,0,5.25,0,6.51" style="fill:none;stroke:#999;stroke-width:3"></path>
<path d="M813.75,61.25c0,0.62-0.7,1.85-1.41,2.81C805.35,73.56,791.38,85.46,780.0,90.5" style="fill:none;stroke:#999;stroke-width:3"></path>

<path d="M940.21,10.39c-0.33,0.98-0.83,1.61-1.87,2.11c-4.32,2.09-17.96,6.87-33.78,9.72" style="fill:none;stroke:#999;stroke-width:3"></path>
<path d="M896.0,32.7c2.01,0.54,5.71,0.51,7.71,0.29c14.85-1.62,30.99-3.62,45-4.23c3.35-0.15,5.36,0.26,7.04,0.53" style="fill:none;stroke:#999;stroke-width:3"></path>
<path d="M886.5,47.95c2.47,0.54,7,0.46,9.46,0.29c16.04-1.12,39.16-3.62,59.27-4.48c4.11-0.18,6.58,0.26,8.64,0.53" style="fill:none;stroke:#999;stroke-width:3"></path>
<path d="M906.81,36.63c1.28,1.28,1.82,2.13,2.01,3.5c0.93,6.62,1.53,16.82,1.93,21.12" style="fill:none;stroke:#999;stroke-width:3"></path>
<path d="M944.81,32.63c0.9,0.9,1.11,2.6,1.01,3.5C945.25,41.38,944.0,51.75,942.25,59" style="fill:none;stroke:#999;stroke-width:3"></path>
<path d="M896.0,62.05c2.09,0.58,5.92,0.47,8,0.31c10.56-0.79,32.6-3.2,49.69-3.72c3.48-0.11,5.57,0.28,7.31,0.56" style="fill:none;stroke:#999;stroke-width:3"></path>
<path d="M924.56,20.13c0.84,0.84,1.51,2.62,1.51,4.25c0,4.61,0,48.92,0,66.99c0,2.98,0,5.25,0,6.51" style="fill:none;stroke:#999;stroke-width:3"></path>
<path d="M922.75,61.25c0,0.62-0.7,1.85-1.41,2.81C914.35,73.56,900.38,85.46,889.0,90.5" style="fill:none;stroke:#999;stroke-width:3"></path>
<path d="M928.5,61.5c4.2,3.45,19.42,17.95,27.52,23.46c2.64,1.8,5.19,3.54,7.85,4.41" style="fill:none;stroke:#999;stroke-width:3"></path>

</svg>