<svg width="763px" height="109px" viewBox="0 0 763 109" xmlns="http://www.w3.org/2000/svg" xmlns:xlink="http://www.w3.org/1999/xlink" xml:space="preserve" version="1.1" baseProfile="full">
<line x1="1" y1="1" x2="762" y2="1" style="stroke:#ddd;stroke-width:2"></line>
<line x1="1" y1="1" x2="1" y2="108" style="stroke:#ddd;stroke-width:2"></line>
<line x1="1" y1="108" x2="762" y2="108" style="stroke:#ddd;stroke-width:2"></line>
<line x1="762" y1="1" x2="762" y2="108" style="stroke:#ddd;stroke-width:2"></line>
<line x1="109" y1="1" x2="109" y2="108" style="stroke:#ddd;stroke-width:2"></line>
<line x1="218" y1="1" x2="218" y2="108" style="stroke:#ddd;stroke-width:2"></line>
<line x1="327" y1="1" x2="327" y2="108" style="stroke:#ddd;stroke-width:2"></line>
<line x1="436" y1="1" x2="436" y2="108" style="stroke:#ddd;stroke-width:2"></line>
<line x1="545" y1="1" x2="545" y2="108" style="stroke:#ddd;stroke-width:2"></line>
<line x1="654" y1="1" x2="654" y2="108" style="stroke:#ddd;stroke-width:2"></line>
<line x1="1" y1="54" x2="762" y2="54" style="stroke:#ddd;stroke-width:2;stroke-dasharray:3 3"></line>
<line x1="55" y1="1" x2="55" y2="108" style="stroke:#ddd;stroke-width:2;stroke-dasharray:3 3"></line>
<line x1="164" y1="1" x2="164" y2="108" style="stroke:#ddd;stroke-width:2;stroke-dasharray:3 3"></line>
<line x1="273" y1="1" x2="273" y2="108" style="stroke:#ddd;stroke-width:2;stroke-dasharray:3 3"></line>
<line x1="382" y1="1" x2="382" y2="108" style="stroke:#ddd;stroke-width:2;stroke-dasharray:3 3"></line>
<line x1="491" y1="1" x2="491" y2="108" style="stroke:#ddd;stroke-width:2;stroke-dasharray:3 3"></line>
<line x1="600" y1="1" x2="600" y2="108" style="stroke:#ddd;stroke-width:2;stroke-dasharray:3 3"></line>
<line x1="709" y1="1" x2="709" y2="108" style="stroke:#ddd;stroke-width:2;stroke-dasharray:3 3"></line>
<path d="M23.38,21.68c2.99,0.65,5.98,0.58,9.01,0.33c13.11-1.04,30.12-2.73,45.99-3.15c2.81-0.07,5.73-0.07,8.5,0.53" style="fill:none;stroke:#999;stroke-width:3"></path>

<path d="M132.38,21.68c2.99,0.65,5.98,0.58,9.01,0.33c13.11-1.04,30.12-2.73,45.99-3.15c2.81-0.07,5.73-0.07,8.5,0.53" style="fill:none;stroke:#999;stroke-width:3"></path>
<path d="M129.0,43.14c1.19,0.96,1.48,1.7,1.82,3.1c1.31,5.39,2.44,12.96,3.43,19.51c0.3,2,0.57,3.56,0.81,5" style="fill:none;stroke:#999;stroke-width:3"></path>

<path d="M241.38,21.68c2.99,0.65,5.98,0.58,9.01,0.33c13.11-1.04,30.12-2.73,45.99-3.15c2.81-0.07,5.73-0.07,8.5,0.53" style="fill:none;stroke:#999;stroke-width:3"></path>
<path d="M238.0,43.14c1.19,0.96,1.48,1.7,1.82,3.1c1.31,5.39,2.44,12.96,3.43,19.51c0.3,2,0.57,3.56,0.81,5" style="fill:none;stroke:#999;stroke-width:3"></path>
<path d="M240.75,45.54c23-2.79,41.54-4.46,60.89-5.84c3.48-0.25,6.74,0.45,5.39,5.54c-1.26,4.77-3.41,11.01-5.27,16.76" style="fill:none;stroke:#999;stroke-width:3"></path>

<path d="M350.38,21.68c2.99,0.65,5.98,0.58,9.01,0.33c13.11-1.04,30.12-2.73,45.99-3.15c2.81-0.07,5.73-0.07,8.5,0.53" style="fill:none;stroke:#999;stroke-width:3"></path>
<path d="M347.0,43.14c1.19,0.96,1.48,1.7,1.82,3.1c1.31,5.39,2.44,12.96,3.43,19.51c0.3,2,0.57,3.56,0.81,5" style="fill:none;stroke:#999;stroke-width:3"></path>
<path d="M349.75,45.54c23-2.79,41.54-4.46,60.89-5.84c3.48-0.25,6.74,0.45,5.39,5.54c-1.26,4.77-3.41,11.01-5.27,16.76" style="fill:none;stroke:#999;stroke-width:3"></path>
<path d="M353.5,67c19.64-1.66,31.34-2.67,50.25-3.8c2.63-0.25,5.26-0.28,7.89-0.09" style="fill:none;stroke:#999;stroke-width:3"></path>

<path d="M459.38,21.68c2.99,0.65,5.98,0.58,9.01,0.33c13.11-1.04,30.12-2.73,45.99-3.15c2.81-0.07,5.73-0.07,8.5,0.53" style="fill:none;stroke:#999;stroke-width:3"></path>
<path d="M456.0,43.14c1.19,0.96,1.48,1.7,1.82,3.1c1.31,5.39,2.44,12.96,3.43,19.51c0.3,2,0.57,3.56,0.81,5" style="fill:none;stroke:#999;stroke-width:3"></path>
<path d="M458.75,45.54c23-2.79,41.54-4.46,60.89-5.84c3.48-0.25,6.74,0.45,5.39,5.54c-1.26,4.77-3.41,11.01-5.27,16.76" style="fill:none;stroke:#999;stroke-width:3"></path>
<path d="M462.5,67c19.64-1.66,31.34-2.67,50.25-3.8c2.63-0.25,5.26-0.28,7.89-0.09" style="fill:none;stroke:#999;stroke-width:3"></path>
<path d="M478.12,24c1.09,1.56,1.57,3.23,1.46,5.01c0,7.22,0.03,50.43,0.03,58.99" style="fill:none;stroke:#999;stroke-width:3"></path>

<path d="M568.38,21.68c2.99,0.65,5.98,0.58,9.01,0.33c13.11-1.04,30.12-2.73,45.99-3.15c2.81-0.07,5.73-0.07,8.5,0.53" style="fill:none;stroke:#999;stroke-width:3"></path>
<path d="M565.0,43.14c1.19,0.96,1.48,1.7,1.82,3.1c1.31,5.39,2.44,12.96,3.43,19.51c0.3,2,0.57,3.56,0.81,5" style="fill:none;stroke:#999;stroke-width:3"></path>
<path d="M567.75,45.54c23-2.79,41.54-4.46,60.89-5.84c3.48-0.25,6.74,0.45,5.39,5.54c-1.26,4.77-3.41,11.01-5.27,16.76" style="fill:none;stroke:#999;stroke-width:3"></path>
<path d="M571.5,67c19.64-1.66,31.34-2.67,50.25-3.8c2.63-0.25,5.26-0.28,7.89-0.09" style="fill:none;stroke:#999;stroke-width:3"></path>
<path d="M587.12,24c1.09,1.56,1.57,3.23,1.46,5.01c0,7.22,0.03,50.43,0.03,58.99" style="fill:none;stroke:#999;stroke-width:3"></path>
<path d="M607.62,22.75c0.91,1.63,1.32,3.09,1.21,4.88c0,8.29,0.03,52.17,0.03,58.88" style="fill:none;stroke:#999;stroke-width:3"></path>

<path d="M677.38,21.68c2.99,0.65,5.98,0.58,9.01,0.33c13.11-1.04,30.12-2.73,45.99-3.15c2.81-0.07,5.73-0.07,8.5,0.53" style="fill:none;stroke:#999;stroke-width:3"></path>
<path d="M674.0,43.14c1.19,0.96,1.48,1.7,1.82,3.1c1.31,5.39,2.44,12.96,3.43,19.51c0.3,2,0.57,3.56,0.81,5" style="fill:none;stroke:#999;stroke-width:3"></path>
<path d="M676.75,45.54c23-2.79,41.54-4.46,60.89-5.84c3.48-0.25,6.74,0.45,5.39,5.54c-1.26,4.77-3.41,11.01-5.27,16.76" style="fill:none;stroke:#999;stroke-width:3"></path>
<path d="M680.5,67c19.64-1.66,31.34-2.67,50.25-3.8c2.63-0.25,5.26-0.28,7.89-0.09" style="fill:none;stroke:#999;stroke-width:3"></path>
<path d="M696.12,24c1.09,1.56,1.57,3.23,1.46,5.01c0,7.22,0.03,50.43,0.03,58.99" style="fill:none;stroke:#999;stroke-width:3"></path>
<path d="M716.62,22.75c0.91,1.63,1.32,3.09,1.21,4.88c0,8.29,0.03,52.17,0.03,58.88" style="fill:none;stroke:#999;stroke-width:3"></path>
<path d="M669.88,89.23c3.62,0.65,7.25,0.71,10.62,0.49c18.61-1.21,42.5-2.34,60.12-2.56c3.21-0.04,6.34,0.23,9.5,0.91" style="fill:none;stroke:#999;stroke-width:3"></path>

</svg>