<svg width="218px" height="109px" viewBox="0 0 218 109" xmlns="http://www.w3.org/2000/svg" xmlns:xlink="http://www.w3.org/1999/xlink" xml:space="preserve" version="1.1" baseProfile="full">
<line x1="1" y1="1" x2="217" y2="1" style="stroke:#ddd;stroke-width:2"></line>
<line x1="1" y1="1" x2="1" y2="108" style="stroke:#ddd;stroke-width:2"></line>
<line x1="1" y1="108" x2="217" y2="108" style="stroke:#ddd;stroke-width:2"></line>
<line x1="217" y1="1" x2="217" y2="108" style="stroke:#ddd;stroke-width:2"></line>
<line x1="109" y1="1" x2="109" y2="108" style="stroke:#ddd;stroke-width:2"></line>
<line x1="1" y1="54" x2="217" y2="54" style="stroke:#ddd;stroke-width:2;stroke-dasharray:3 3"></line>
<line x1="55" y1="1" x2="55" y2="108" style="stroke:#ddd;stroke-width:2;stroke-dasharray:3 3"></line>
<line x1="164" y1="1" x2="164" y2="108" style="stroke:#ddd;stroke-width:2;stroke-dasharray:3 3"></line>
<path d="M51.11,34.75c1.13,0.61,2.98,2.96,2.98,4.16c0,4.45-0.35,9.38-0.15,13.15" style="fill:none;stroke:#999;stroke-width:3"></path>

<path d="M160.11,34.75c1.13,0.61,2.98,2.96,2.98,4.16c0,4.45-0.35,9.38-0.15,13.15" style="fill:none;stroke:#999;stroke-width:3"></path>
<path d="M123.5,56.11c2,0.39,3.76,0.83,6.06,0.55c13.69-1.66,52.69-4.91,68.64-5.7c2.35-0.12,3.55,0.05,5.3,0.7" style="fill:none;stroke:#999;stroke-width:3"></path>

</svg>