<svg width="436px" height="109px" viewBox="0 0 436 109" xmlns="http://www.w3.org/2000/svg" xmlns:xlink="http://www.w3.org/1999/xlink" xml:space="preserve" version="1.1" baseProfile="full">
<line x1="1" y1="1" x2="435" y2="1" style="stroke:#ddd;stroke-width:2"></line>
<line x1="1" y1="1" x2="1" y2="108" style="stroke:#ddd;stroke-width:2"></line>
<line x1="1" y1="108" x2="435" y2="108" style="stroke:#ddd;stroke-width:2"></line>
<line x1="435" y1="1" x2="435" y2="108" style="stroke:#ddd;stroke-width:2"></line>
<line x1="109" y1="1" x2="109" y2="108" style="stroke:#ddd;stroke-width:2"></line>
<line x1="218" y1="1" x2="218" y2="108" style="stroke:#ddd;stroke-width:2"></line>
<line x1="327" y1="1" x2="327" y2="108" style="stroke:#ddd;stroke-width:2"></line>
<line x1="1" y1="54" x2="435" y2="54" style="stroke:#ddd;stroke-width:2;stroke-dasharray:3 3"></line>
<line x1="55" y1="1" x2="55" y2="108" style="stroke:#ddd;stroke-width:2;stroke-dasharray:3 3"></line>
<line x1="164" y1="1" x2="164" y2="108" style="stroke:#ddd;stroke-width:2;stroke-dasharray:3 3"></line>
<line x1="273" y1="1" x2="273" y2="108" style="stroke:#ddd;stroke-width:2;stroke-dasharray:3 3"></line>
<line x1="382" y1="1" x2="382" y2="108" style="stroke:#ddd;stroke-width:2;stroke-dasharray:3 3"></line>
<path d="M36.51,16.75c0.24,1.62-0.06,3.24-0.79,5.09c-4.65,11.79-11.3,24.86-21.97,39.2" style="fill:none;stroke:#999;stroke-width:3"></path>

<path d="M145.51,16.75c0.24,1.62-0.06,3.24-0.79,5.09c-4.65,11.79-11.3,24.86-21.97,39.2" style="fill:none;stroke:#999;stroke-width:3"></path>
<path d="M137.28,41.75c1.05,1.05,1.51,2.12,1.51,3.98c0,12.28-0.03,30.57-0.04,42.52c0,2.67,0,5.04,0,7" style="fill:none;stroke:#999;stroke-width:3"></path>

<path d="M254.51,16.75c0.24,1.62-0.06,3.24-0.79,5.09c-4.65,11.79-11.3,24.86-21.97,39.2" style="fill:none;stroke:#999;stroke-width:3"></path>
<path d="M246.28,41.75c1.05,1.05,1.51,2.12,1.51,3.98c0,12.28-0.03,30.57-0.04,42.52c0,2.67,0,5.04,0,7" style="fill:none;stroke:#999;stroke-width:3"></path>
<path d="M285.45,23.14c0.59,1.16,0.44,2.75-0.02,4.22C280.62,42.5,272.75,63.62,265.5,78.16c-2.19,4.38-0.97,4.87,2.67,3.69c9.95-3.22,24.45-7.6,39.01-12.04" style="fill:none;stroke:#999;stroke-width:3"></path>

<path d="M363.51,16.75c0.24,1.62-0.06,3.24-0.79,5.09c-4.65,11.79-11.3,24.86-21.97,39.2" style="fill:none;stroke:#999;stroke-width:3"></path>
<path d="M355.28,41.75c1.05,1.05,1.51,2.12,1.51,3.98c0,12.28-0.03,30.57-0.04,42.52c0,2.67,0,5.04,0,7" style="fill:none;stroke:#999;stroke-width:3"></path>
<path d="M394.45,23.14c0.59,1.16,0.44,2.75-0.02,4.22C389.62,42.5,381.75,63.62,374.5,78.16c-2.19,4.38-0.97,4.87,2.67,3.69c9.95-3.22,24.45-7.6,39.01-12.04" style="fill:none;stroke:#999;stroke-width:3"></path>
<path d="M405.38,52.62c6.15,5.24,15.9,21.55,17.43,29.7" style="fill:none;stroke:#999;stroke-width:3"></path>

</svg>