<svg width="545px" height="109px" viewBox="0 0 545 109" xmlns="http://www.w3.org/2000/svg" xmlns:xlink="http://www.w3.org/1999/xlink" xml:space="preserve" version="1.1" baseProfile="full">
<line x1="1" y1="1" x2="544" y2="1" style="stroke:#ddd;stroke-width:2"></line>
<line x1="1" y1="1" x2="1" y2="108" style="stroke:#ddd;stroke-width:2"></line>
<line x1="1" y1="108" x2="544" y2="108" style="stroke:#ddd;stroke-width:2"></line>
<line x1="544" y1="1" x2="544" y2="108" style="stroke:#ddd;stroke-width:2"></line>
<line x1="109" y1="1" x2="109" y2="108" style="stroke:#ddd;stroke-width:2"></line>
<line x1="218" y1="1" x2="218" y2="108" style="stroke:#ddd;stroke-width:2"></line>
<line x1="327" y1="1" x2="327" y2="108" style="stroke:#ddd;stroke-width:2"></line>
<line x1="436" y1="1" x2="436" y2="108" style="stroke:#ddd;stroke-width:2"></line>
<line x1="1" y1="54" x2="544" y2="54" style="stroke:#ddd;stroke-width:2;stroke-dasharray:3 3"></line>
<line x1="55" y1="1" x2="55" y2="108" style="stroke:#ddd;stroke-width:2;stroke-dasharray:3 3"></line>
<line x1="164" y1="1" x2="164" y2="108" style="stroke:#ddd;stroke-width:2;stroke-dasharray:3 3"></line>
<line x1="273" y1="1" x2="273" y2="108" style="stroke:#ddd;stroke-width:2;stroke-dasharray:3 3"></line>
<line x1="382" y1="1" x2="382" y2="108" style="stroke:#ddd;stroke-width:2;stroke-dasharray:3 3"></line>
<line x1="491" y1="1" x2="491" y2="108" style="stroke:#ddd;stroke-width:2;stroke-dasharray:3 3"></line>
<path d="M34.5,14.25c0.13,1.25-0.16,2.46-0.89,4.35C28.88,31,22.05,43.75,10.12,58.12" style="fill:none;stroke:#999;stroke-width:3"></path>

<path d="M143.5,14.25c0.13,1.25-0.16,2.46-0.89,4.35C137.88,31,131.05,43.75,119.12,58.12" style="fill:none;stroke:#999;stroke-width:3"></path>
<path d="M133.03,41.5c0.92,0.92,1.75,2.38,1.75,4.12c0,9.46-0.02,33.3-0.03,46.12c0,2.92,0,5.27,0,6.75" style="fill:none;stroke:#999;stroke-width:3"></path>

<path d="M252.5,14.25c0.13,1.25-0.16,2.46-0.89,4.35C246.88,31,240.05,43.75,228.12,58.12" style="fill:none;stroke:#999;stroke-width:3"></path>
<path d="M242.03,41.5c0.92,0.92,1.75,2.38,1.75,4.12c0,9.46-0.02,33.3-0.03,46.12c0,2.92,0,5.27,0,6.75" style="fill:none;stroke:#999;stroke-width:3"></path>
<path d="M252.88,47.47c2.1,0.67,5.94,0.8,8.04,0.67c18.7-1.25,31.09-2.8,48.25-3.22c3.49-0.08,5.59,0.32,7.34,0.65" style="fill:none;stroke:#999;stroke-width:3"></path>

<path d="M361.5,14.25c0.13,1.25-0.16,2.46-0.89,4.35C355.88,31,349.05,43.75,337.12,58.12" style="fill:none;stroke:#999;stroke-width:3"></path>
<path d="M351.03,41.5c0.92,0.92,1.75,2.38,1.75,4.12c0,9.46-0.02,33.3-0.03,46.12c0,2.92,0,5.27,0,6.75" style="fill:none;stroke:#999;stroke-width:3"></path>
<path d="M361.88,47.47c2.1,0.67,5.94,0.8,8.04,0.67c18.7-1.25,31.09-2.8,48.25-3.22c3.49-0.08,5.59,0.32,7.34,0.65" style="fill:none;stroke:#999;stroke-width:3"></path>
<path d="M392.75,15.75c1.19,1.19,1.75,2.38,1.75,3.75c0,5.5,0,57.75,0,65" style="fill:none;stroke:#999;stroke-width:3"></path>

<path d="M470.5,14.25c0.13,1.25-0.16,2.46-0.89,4.35C464.88,31,458.05,43.75,446.12,58.12" style="fill:none;stroke:#999;stroke-width:3"></path>
<path d="M460.03,41.5c0.92,0.92,1.75,2.38,1.75,4.12c0,9.46-0.02,33.3-0.03,46.12c0,2.92,0,5.27,0,6.75" style="fill:none;stroke:#999;stroke-width:3"></path>
<path d="M470.88,47.47c2.1,0.67,5.94,0.8,8.04,0.67c18.7-1.25,31.09-2.8,48.25-3.22c3.49-0.08,5.59,0.32,7.34,0.65" style="fill:none;stroke:#999;stroke-width:3"></path>
<path d="M501.75,15.75c1.19,1.19,1.75,2.38,1.75,3.75c0,5.5,0,57.75,0,65" style="fill:none;stroke:#999;stroke-width:3"></path>
<path d="M473.0,86.17c3.05,0.71,5.58,0.68,7.56,0.56c13.82-0.86,31.07-1.98,44.74-2.32c3.29-0.08,5.56,0.13,7.21,0.54" style="fill:none;stroke:#999;stroke-width:3"></path>

</svg>