<svg width="545px" height="109px" viewBox="0 0 545 109" xmlns="http://www.w3.org/2000/svg" xmlns:xlink="http://www.w3.org/1999/xlink" xml:space="preserve" version="1.1" baseProfile="full">
<line x1="1" y1="1" x2="544" y2="1" style="stroke:#ddd;stroke-width:2"></line>
<line x1="1" y1="1" x2="1" y2="108" style="stroke:#ddd;stroke-width:2"></line>
<line x1="1" y1="108" x2="544" y2="108" style="stroke:#ddd;stroke-width:2"></line>
<line x1="544" y1="1" x2="544" y2="108" style="stroke:#ddd;stroke-width:2"></line>
<line x1="109" y1="1" x2="109" y2="108" style="stroke:#ddd;stroke-width:2"></line>
<line x1="218" y1="1" x2="218" y2="108" style="stroke:#ddd;stroke-width:2"></line>
<line x1="327" y1="1" x2="327" y2="108" style="stroke:#ddd;stroke-width:2"></line>
<line x1="436" y1="1" x2="436" y2="108" style="stroke:#ddd;stroke-width:2"></line>
<line x1="1" y1="54" x2="544" y2="54" style="stroke:#ddd;stroke-width:2;stroke-dasharray:3 3"></line>
<line x1="55" y1="1" x2="55" y2="108" style="stroke:#ddd;stroke-width:2;stroke-dasharray:3 3"></line>
<line x1="164" y1="1" x2="164" y2="108" style="stroke:#ddd;stroke-width:2;stroke-dasharray:3 3"></line>
<line x1="273" y1="1" x2="273" y2="108" style="stroke:#ddd;stroke-width:2;stroke-dasharray:3 3"></line>
<line x1="382" y1="1" x2="382" y2="108" style="stroke:#ddd;stroke-width:2;stroke-dasharray:3 3"></line>
<line x1="491" y1="1" x2="491" y2="108" style="stroke:#ddd;stroke-width:2;stroke-dasharray:3 3"></line>
<path d="M32.49,15.39c0.13,1.17,0.24,2.64-0.12,4.08c-2.26,9.09-11.02,26.67-21.56,39" style="fill:none;stroke:#999;stroke-width:3"></path>

<path d="M141.49,15.39c0.13,1.17,0.24,2.64-0.12,4.08c-2.26,9.09-11.02,26.67-21.56,39" style="fill:none;stroke:#999;stroke-width:3"></path>
<path d="M136.03,39c0.59,0.61,0.76,1.97,0.76,3.23c0,13.02-0.29,43.65-0.29,52.4" style="fill:none;stroke:#999;stroke-width:3"></path>

<path d="M250.49,15.39c0.13,1.17,0.24,2.64-0.12,4.08c-2.26,9.09-11.02,26.67-21.56,39" style="fill:none;stroke:#999;stroke-width:3"></path>
<path d="M245.03,39c0.59,0.61,0.76,1.97,0.76,3.23c0,13.02-0.29,43.65-0.29,52.4" style="fill:none;stroke:#999;stroke-width:3"></path>
<path d="M264.22,24.4c1.66,0.83,3.74,0.61,5.21,0.45C281.5,23.5,298.0,21.61,304.57,20.76c4.27-0.55,6.17,1.66,5.93,5.55c-0.63,10.25-7.05,49.63-12.87,61.41c-4.22,8.55-6.69,5.81-9.88,0.26" style="fill:none;stroke:#999;stroke-width:3"></path>

<path d="M359.49,15.39c0.13,1.17,0.24,2.64-0.12,4.08c-2.26,9.09-11.02,26.67-21.56,39" style="fill:none;stroke:#999;stroke-width:3"></path>
<path d="M354.03,39c0.59,0.61,0.76,1.97,0.76,3.23c0,13.02-0.29,43.65-0.29,52.4" style="fill:none;stroke:#999;stroke-width:3"></path>
<path d="M373.22,24.4c1.66,0.83,3.74,0.61,5.21,0.45C390.5,23.5,407.0,21.61,413.57,20.76c4.27-0.55,6.17,1.66,5.93,5.55c-0.63,10.25-7.05,49.63-12.87,61.41c-4.22,8.55-6.69,5.81-9.88,0.26" style="fill:none;stroke:#999;stroke-width:3"></path>
<path d="M391.44,27.33c0.81,1.17,0.59,3.49,0.37,5.44C389.63,51.82,383.7,71.14,369.5,88.11" style="fill:none;stroke:#999;stroke-width:3"></path>

<path d="M468.49,15.39c0.13,1.17,0.24,2.64-0.12,4.08c-2.26,9.09-11.02,26.67-21.56,39" style="fill:none;stroke:#999;stroke-width:3"></path>
<path d="M463.03,39c0.59,0.61,0.76,1.97,0.76,3.23c0,13.02-0.29,43.65-0.29,52.4" style="fill:none;stroke:#999;stroke-width:3"></path>
<path d="M482.22,24.4c1.66,0.83,3.74,0.61,5.21,0.45C499.5,23.5,516.0,21.61,522.5699999999999,20.76c4.27-0.55,6.17,1.66,5.93,5.55c-0.63,10.25-7.05,49.63-12.87,61.41c-4.22,8.55-6.69,5.81-9.88,0.26" style="fill:none;stroke:#999;stroke-width:3"></path>
<path d="M500.44,27.33c0.81,1.17,0.59,3.49,0.37,5.44C498.63,51.82,492.7,71.14,478.5,88.11" style="fill:none;stroke:#999;stroke-width:3"></path>
<path d="M485.89,41.32c0.38,2.32-3.16,13.34-6.81,16.42" style="fill:none;stroke:#999;stroke-width:3"></path>

</svg>