<svg width="545px" height="109px" viewBox="0 0 545 109" xmlns="http://www.w3.org/2000/svg" xmlns:xlink="http://www.w3.org/1999/xlink" xml:space="preserve" version="1.1" baseProfile="full">
<line x1="1" y1="1" x2="544" y2="1" style="stroke:#ddd;stroke-width:2"></line>
<line x1="1" y1="1" x2="1" y2="108" style="stroke:#ddd;stroke-width:2"></line>
<line x1="1" y1="108" x2="544" y2="108" style="stroke:#ddd;stroke-width:2"></line>
<line x1="544" y1="1" x2="544" y2="108" style="stroke:#ddd;stroke-width:2"></line>
<line x1="109" y1="1" x2="109" y2="108" style="stroke:#ddd;stroke-width:2"></line>
<line x1="218" y1="1" x2="218" y2="108" style="stroke:#ddd;stroke-width:2"></line>
<line x1="327" y1="1" x2="327" y2="108" style="stroke:#ddd;stroke-width:2"></line>
<line x1="436" y1="1" x2="436" y2="108" style="stroke:#ddd;stroke-width:2"></line>
<line x1="1" y1="54" x2="544" y2="54" style="stroke:#ddd;stroke-width:2;stroke-dasharray:3 3"></line>
<line x1="55" y1="1" x2="55" y2="108" style="stroke:#ddd;stroke-width:2;stroke-dasharray:3 3"></line>
<line x1="164" y1="1" x2="164" y2="108" style="stroke:#ddd;stroke-width:2;stroke-dasharray:3 3"></line>
<line x1="273" y1="1" x2="273" y2="108" style="stroke:#ddd;stroke-width:2;stroke-dasharray:3 3"></line>
<line x1="382" y1="1" x2="382" y2="108" style="stroke:#ddd;stroke-width:2;stroke-dasharray:3 3"></line>
<line x1="491" y1="1" x2="491" y2="108" style="stroke:#ddd;stroke-width:2;stroke-dasharray:3 3"></line>
<path d="M20.87,27.5c1.09,0.5,2.28,1.72,2.46,3.25C25.0,45.12,27.0,61.75,28.25,70.5" style="fill:none;stroke:#999;stroke-width:3"></path>

<path d="M129.87,27.5c1.09,0.5,2.28,1.72,2.46,3.25C134.0,45.12,136.0,61.75,137.25,70.5" style="fill:none;stroke:#999;stroke-width:3"></path>
<path d="M124.37,77.52c2.25,1.32,3.9,0.34,6.32-1.32c1.61-1.11,14.59-10.49,21.43-15.82" style="fill:none;stroke:#999;stroke-width:3"></path>

<path d="M238.87,27.5c1.09,0.5,2.28,1.72,2.46,3.25C243.0,45.12,245.0,61.75,246.25,70.5" style="fill:none;stroke:#999;stroke-width:3"></path>
<path d="M233.37,77.52c2.25,1.32,3.9,0.34,6.32-1.32c1.61-1.11,14.59-10.49,21.43-15.82" style="fill:none;stroke:#999;stroke-width:3"></path>
<path d="M261.62,23.12c4.3,4.16,11.11,17.12,12.18,23.59" style="fill:none;stroke:#999;stroke-width:3"></path>

<path d="M347.87,27.5c1.09,0.5,2.28,1.72,2.46,3.25C352.0,45.12,354.0,61.75,355.25,70.5" style="fill:none;stroke:#999;stroke-width:3"></path>
<path d="M342.37,77.52c2.25,1.32,3.9,0.34,6.32-1.32c1.61-1.11,14.59-10.49,21.43-15.82" style="fill:none;stroke:#999;stroke-width:3"></path>
<path d="M370.62,23.12c4.3,4.16,11.11,17.12,12.18,23.59" style="fill:none;stroke:#999;stroke-width:3"></path>
<path d="M410.76,21.3c0.74,1.58,0.87,3.04,0.3,5.25C406.75,43.12,396.5,67.88,373.14,86.4" style="fill:none;stroke:#999;stroke-width:3"></path>

<path d="M456.87,27.5c1.09,0.5,2.28,1.72,2.46,3.25C461.0,45.12,463.0,61.75,464.25,70.5" style="fill:none;stroke:#999;stroke-width:3"></path>
<path d="M451.37,77.52c2.25,1.32,3.9,0.34,6.32-1.32c1.61-1.11,14.59-10.49,21.43-15.82" style="fill:none;stroke:#999;stroke-width:3"></path>
<path d="M479.62,23.12c4.3,4.16,11.11,17.12,12.18,23.59" style="fill:none;stroke:#999;stroke-width:3"></path>
<path d="M519.76,21.3c0.74,1.58,0.87,3.04,0.3,5.25C515.75,43.12,505.5,67.88,482.14,86.4" style="fill:none;stroke:#999;stroke-width:3"></path>
<path d="M507.52,61.33c8.04,4.26,20.78,17.51,22.79,24.13" style="fill:none;stroke:#999;stroke-width:3"></path>

</svg>