<svg width="654px" height="109px" viewBox="0 0 654 109" xmlns="http://www.w3.org/2000/svg" xmlns:xlink="http://www.w3.org/1999/xlink" xml:space="preserve" version="1.1" baseProfile="full">
<line x1="1" y1="1" x2="653" y2="1" style="stroke:#ddd;stroke-width:2"></line>
<line x1="1" y1="1" x2="1" y2="108" style="stroke:#ddd;stroke-width:2"></line>
<line x1="1" y1="108" x2="653" y2="108" style="stroke:#ddd;stroke-width:2"></line>
<line x1="653" y1="1" x2="653" y2="108" style="stroke:#ddd;stroke-width:2"></line>
<line x1="109" y1="1" x2="109" y2="108" style="stroke:#ddd;stroke-width:2"></line>
<line x1="218" y1="1" x2="218" y2="108" style="stroke:#ddd;stroke-width:2"></line>
<line x1="327" y1="1" x2="327" y2="108" style="stroke:#ddd;stroke-width:2"></line>
<line x1="436" y1="1" x2="436" y2="108" style="stroke:#ddd;stroke-width:2"></line>
<line x1="545" y1="1" x2="545" y2="108" style="stroke:#ddd;stroke-width:2"></line>
<line x1="1" y1="54" x2="653" y2="54" style="stroke:#ddd;stroke-width:2;stroke-dasharray:3 3"></line>
<line x1="55" y1="1" x2="55" y2="108" style="stroke:#ddd;stroke-width:2;stroke-dasharray:3 3"></line>
<line x1="164" y1="1" x2="164" y2="108" style="stroke:#ddd;stroke-width:2;stroke-dasharray:3 3"></line>
<line x1="273" y1="1" x2="273" y2="108" style="stroke:#ddd;stroke-width:2;stroke-dasharray:3 3"></line>
<line x1="382" y1="1" x2="382" y2="108" style="stroke:#ddd;stroke-width:2;stroke-dasharray:3 3"></line>
<line x1="491" y1="1" x2="491" y2="108" style="stroke:#ddd;stroke-width:2;stroke-dasharray:3 3"></line>
<line x1="600" y1="1" x2="600" y2="108" style="stroke:#ddd;stroke-width:2;stroke-dasharray:3 3"></line>
<path d="M34.0,16.25c0.24,2.13-0.11,4.16-0.83,6c-4.43,11.5-10.31,24.11-21.43,38.29" style="fill:none;stroke:#999;stroke-width:3"></path>

<path d="M143.0,16.25c0.24,2.13-0.11,4.16-0.83,6c-4.43,11.5-10.31,24.11-21.43,38.29" style="fill:none;stroke:#999;stroke-width:3"></path>
<path d="M136.03,40.25c0.73,0.73,1.27,1.85,1.27,3.24c0,11.45,0.1,35.22-0.02,46.01c-0.02,1.95-0.03,3.57-0.03,4.75" style="fill:none;stroke:#999;stroke-width:3"></path>

<path d="M252.0,16.25c0.24,2.13-0.11,4.16-0.83,6c-4.43,11.5-10.31,24.11-21.43,38.29" style="fill:none;stroke:#999;stroke-width:3"></path>
<path d="M245.03,40.25c0.73,0.73,1.27,1.85,1.27,3.24c0,11.45,0.1,35.22-0.02,46.01c-0.02,1.95-0.03,3.57-0.03,4.75" style="fill:none;stroke:#999;stroke-width:3"></path>
<path d="M297.18,16.5c-0.18,0.88-1.17,2.03-1.8,2.53c-6.45,5.19-15.29,9.54-31.54,13.78" style="fill:none;stroke:#999;stroke-width:3"></path>

<path d="M361.0,16.25c0.24,2.13-0.11,4.16-0.83,6c-4.43,11.5-10.31,24.11-21.43,38.29" style="fill:none;stroke:#999;stroke-width:3"></path>
<path d="M354.03,40.25c0.73,0.73,1.27,1.85,1.27,3.24c0,11.45,0.1,35.22-0.02,46.01c-0.02,1.95-0.03,3.57-0.03,4.75" style="fill:none;stroke:#999;stroke-width:3"></path>
<path d="M406.18,16.5c-0.18,0.88-1.17,2.03-1.8,2.53c-6.45,5.19-15.29,9.54-31.54,13.78" style="fill:none;stroke:#999;stroke-width:3"></path>
<path d="M366.2,55.35c2.55,0.65,5.73,0.69,8.06,0.42c12.24-1.4,30.92-3.48,43.25-3.92c2.44-0.09,4.92-0.22,7.3,0.42" style="fill:none;stroke:#999;stroke-width:3"></path>

<path d="M470.0,16.25c0.24,2.13-0.11,4.16-0.83,6c-4.43,11.5-10.31,24.11-21.43,38.29" style="fill:none;stroke:#999;stroke-width:3"></path>
<path d="M463.03,40.25c0.73,0.73,1.27,1.85,1.27,3.24c0,11.45,0.1,35.22-0.02,46.01c-0.02,1.95-0.03,3.57-0.03,4.75" style="fill:none;stroke:#999;stroke-width:3"></path>
<path d="M515.1800000000001,16.5c-0.18,0.88-1.17,2.03-1.8,2.53c-6.45,5.19-15.29,9.54-31.54,13.78" style="fill:none;stroke:#999;stroke-width:3"></path>
<path d="M475.2,55.35c2.55,0.65,5.73,0.69,8.06,0.42c12.24-1.4,30.92-3.48,43.25-3.92c2.44-0.09,4.92-0.22,7.3,0.42" style="fill:none;stroke:#999;stroke-width:3"></path>
<path d="M503.29,29.86c0.86,0.86,1.39,2.26,1.39,3.46c0,0.93-0.18,42.18-0.18,50.73" style="fill:none;stroke:#999;stroke-width:3"></path>

<path d="M579.0,16.25c0.24,2.13-0.11,4.16-0.83,6c-4.43,11.5-10.31,24.11-21.43,38.29" style="fill:none;stroke:#999;stroke-width:3"></path>
<path d="M572.03,40.25c0.73,0.73,1.27,1.85,1.27,3.24c0,11.45,0.1,35.22-0.02,46.01c-0.02,1.95-0.03,3.57-0.03,4.75" style="fill:none;stroke:#999;stroke-width:3"></path>
<path d="M624.1800000000001,16.5c-0.18,0.88-1.17,2.03-1.8,2.53c-6.45,5.19-15.29,9.54-31.54,13.78" style="fill:none;stroke:#999;stroke-width:3"></path>
<path d="M584.2,55.35c2.55,0.65,5.73,0.69,8.06,0.42c12.24-1.4,30.92-3.48,43.25-3.92c2.44-0.09,4.92-0.22,7.3,0.42" style="fill:none;stroke:#999;stroke-width:3"></path>
<path d="M612.29,29.86c0.86,0.86,1.39,2.26,1.39,3.46c0,0.93-0.18,42.18-0.18,50.73" style="fill:none;stroke:#999;stroke-width:3"></path>
<path d="M591.33,86.03c2.3,0.47,4.54,0.3,6.56,0.19c10.35-0.58,23.95-2.19,34.72-2.42c2.08-0.04,4.23-0.17,6.28,0.3" style="fill:none;stroke:#999;stroke-width:3"></path>

</svg>