<svg width="654px" height="109px" viewBox="0 0 654 109" xmlns="http://www.w3.org/2000/svg" xmlns:xlink="http://www.w3.org/1999/xlink" xml:space="preserve" version="1.1" baseProfile="full">
<line x1="1" y1="1" x2="653" y2="1" style="stroke:#ddd;stroke-width:2"></line>
<line x1="1" y1="1" x2="1" y2="108" style="stroke:#ddd;stroke-width:2"></line>
<line x1="1" y1="108" x2="653" y2="108" style="stroke:#ddd;stroke-width:2"></line>
<line x1="653" y1="1" x2="653" y2="108" style="stroke:#ddd;stroke-width:2"></line>
<line x1="109" y1="1" x2="109" y2="108" style="stroke:#ddd;stroke-width:2"></line>
<line x1="218" y1="1" x2="218" y2="108" style="stroke:#ddd;stroke-width:2"></line>
<line x1="327" y1="1" x2="327" y2="108" style="stroke:#ddd;stroke-width:2"></line>
<line x1="436" y1="1" x2="436" y2="108" style="stroke:#ddd;stroke-width:2"></line>
<line x1="545" y1="1" x2="545" y2="108" style="stroke:#ddd;stroke-width:2"></line>
<line x1="1" y1="54" x2="653" y2="54" style="stroke:#ddd;stroke-width:2;stroke-dasharray:3 3"></line>
<line x1="55" y1="1" x2="55" y2="108" style="stroke:#ddd;stroke-width:2;stroke-dasharray:3 3"></line>
<line x1="164" y1="1" x2="164" y2="108" style="stroke:#ddd;stroke-width:2;stroke-dasharray:3 3"></line>
<line x1="273" y1="1" x2="273" y2="108" style="stroke:#ddd;stroke-width:2;stroke-dasharray:3 3"></line>
<line x1="382" y1="1" x2="382" y2="108" style="stroke:#ddd;stroke-width:2;stroke-dasharray:3 3"></line>
<line x1="491" y1="1" x2="491" y2="108" style="stroke:#ddd;stroke-width:2;stroke-dasharray:3 3"></line>
<line x1="600" y1="1" x2="600" y2="108" style="stroke:#ddd;stroke-width:2;stroke-dasharray:3 3"></line>
<path d="M32.75,14.64c0.13,1.23,0.12,2.57-0.36,4.04C28.88,29.38,22.0,43.75,12.06,56.72" style="fill:none;stroke:#999;stroke-width:3"></path>

<path d="M141.75,14.64c0.13,1.23,0.12,2.57-0.36,4.04C137.88,29.38,131.0,43.75,121.06,56.72" style="fill:none;stroke:#999;stroke-width:3"></path>
<path d="M134.03,40.5c0.92,0.92,1.26,2.12,1.26,3.73c0,10.5,0.06,32.2-0.01,44.52c-0.02,2.96-0.03,5.43-0.03,7.12" style="fill:none;stroke:#999;stroke-width:3"></path>

<path d="M250.75,14.64c0.13,1.23,0.12,2.57-0.36,4.04C246.88,29.38,240.0,43.75,230.06,56.72" style="fill:none;stroke:#999;stroke-width:3"></path>
<path d="M243.03,40.5c0.92,0.92,1.26,2.12,1.26,3.73c0,10.5,0.06,32.2-0.01,44.52c-0.02,2.96-0.03,5.43-0.03,7.12" style="fill:none;stroke:#999;stroke-width:3"></path>
<path d="M253.88,46.44c2.62,0.56,5.59,0.51,7.99,0.21c9.12-1.15,24.88-3.15,36.52-4.04c2.63-0.2,5.03-0.36,7.62,0.29" style="fill:none;stroke:#999;stroke-width:3"></path>

<path d="M359.75,14.64c0.13,1.23,0.12,2.57-0.36,4.04C355.88,29.38,349.0,43.75,339.06,56.72" style="fill:none;stroke:#999;stroke-width:3"></path>
<path d="M352.03,40.5c0.92,0.92,1.26,2.12,1.26,3.73c0,10.5,0.06,32.2-0.01,44.52c-0.02,2.96-0.03,5.43-0.03,7.12" style="fill:none;stroke:#999;stroke-width:3"></path>
<path d="M362.88,46.44c2.62,0.56,5.59,0.51,7.99,0.21c9.12-1.15,24.88-3.15,36.52-4.04c2.63-0.2,5.03-0.36,7.62,0.29" style="fill:none;stroke:#999;stroke-width:3"></path>
<path d="M386.27,14.75c1.05,1.05,1.21,2.25,1.29,4.36C388.62,49.25,384.62,81.38,361.75,96" style="fill:none;stroke:#999;stroke-width:3"></path>

<path d="M468.75,14.64c0.13,1.23,0.12,2.57-0.36,4.04C464.88,29.38,458.0,43.75,448.06,56.72" style="fill:none;stroke:#999;stroke-width:3"></path>
<path d="M461.03,40.5c0.92,0.92,1.26,2.12,1.26,3.73c0,10.5,0.06,32.2-0.01,44.52c-0.02,2.96-0.03,5.43-0.03,7.12" style="fill:none;stroke:#999;stroke-width:3"></path>
<path d="M471.88,46.44c2.62,0.56,5.59,0.51,7.99,0.21c9.12-1.15,24.88-3.15,36.52-4.04c2.63-0.2,5.03-0.36,7.62,0.29" style="fill:none;stroke:#999;stroke-width:3"></path>
<path d="M495.27,14.75c1.05,1.05,1.21,2.25,1.29,4.36C497.62,49.25,493.62,81.38,470.75,96" style="fill:none;stroke:#999;stroke-width:3"></path>
<path d="M496.62,48.75c6.22,10.89,16.59,27.39,25.41,37.54c2.16,2.49,4.48,5.32,7.21,7.21" style="fill:none;stroke:#999;stroke-width:3"></path>

<path d="M577.75,14.64c0.13,1.23,0.12,2.57-0.36,4.04C573.88,29.38,567.0,43.75,557.06,56.72" style="fill:none;stroke:#999;stroke-width:3"></path>
<path d="M570.03,40.5c0.92,0.92,1.26,2.12,1.26,3.73c0,10.5,0.06,32.2-0.01,44.52c-0.02,2.96-0.03,5.43-0.03,7.12" style="fill:none;stroke:#999;stroke-width:3"></path>
<path d="M580.88,46.44c2.62,0.56,5.59,0.51,7.99,0.21c9.12-1.15,24.88-3.15,36.52-4.04c2.63-0.2,5.03-0.36,7.62,0.29" style="fill:none;stroke:#999;stroke-width:3"></path>
<path d="M604.27,14.75c1.05,1.05,1.21,2.25,1.29,4.36C606.62,49.25,602.62,81.38,579.75,96" style="fill:none;stroke:#999;stroke-width:3"></path>
<path d="M605.62,48.75c6.22,10.89,16.59,27.39,25.41,37.54c2.16,2.49,4.48,5.32,7.21,7.21" style="fill:none;stroke:#999;stroke-width:3"></path>
<path d="M622.58,20.75c5.29,3.38,8.93,7.09,11.17,11" style="fill:none;stroke:#999;stroke-width:3"></path>

</svg>