<svg width="763px" height="109px" viewBox="0 0 763 109" xmlns="http://www.w3.org/2000/svg" xmlns:xlink="http://www.w3.org/1999/xlink" xml:space="preserve" version="1.1" baseProfile="full">
<line x1="1" y1="1" x2="762" y2="1" style="stroke:#ddd;stroke-width:2"></line>
<line x1="1" y1="1" x2="1" y2="108" style="stroke:#ddd;stroke-width:2"></line>
<line x1="1" y1="108" x2="762" y2="108" style="stroke:#ddd;stroke-width:2"></line>
<line x1="762" y1="1" x2="762" y2="108" style="stroke:#ddd;stroke-width:2"></line>
<line x1="109" y1="1" x2="109" y2="108" style="stroke:#ddd;stroke-width:2"></line>
<line x1="218" y1="1" x2="218" y2="108" style="stroke:#ddd;stroke-width:2"></line>
<line x1="327" y1="1" x2="327" y2="108" style="stroke:#ddd;stroke-width:2"></line>
<line x1="436" y1="1" x2="436" y2="108" style="stroke:#ddd;stroke-width:2"></line>
<line x1="545" y1="1" x2="545" y2="108" style="stroke:#ddd;stroke-width:2"></line>
<line x1="654" y1="1" x2="654" y2="108" style="stroke:#ddd;stroke-width:2"></line>
<line x1="1" y1="54" x2="762" y2="54" style="stroke:#ddd;stroke-width:2;stroke-dasharray:3 3"></line>
<line x1="55" y1="1" x2="55" y2="108" style="stroke:#ddd;stroke-width:2;stroke-dasharray:3 3"></line>
<line x1="164" y1="1" x2="164" y2="108" style="stroke:#ddd;stroke-width:2;stroke-dasharray:3 3"></line>
<line x1="273" y1="1" x2="273" y2="108" style="stroke:#ddd;stroke-width:2;stroke-dasharray:3 3"></line>
<line x1="382" y1="1" x2="382" y2="108" style="stroke:#ddd;stroke-width:2;stroke-dasharray:3 3"></line>
<line x1="491" y1="1" x2="491" y2="108" style="stroke:#ddd;stroke-width:2;stroke-dasharray:3 3"></line>
<line x1="600" y1="1" x2="600" y2="108" style="stroke:#ddd;stroke-width:2;stroke-dasharray:3 3"></line>
<line x1="709" y1="1" x2="709" y2="108" style="stroke:#ddd;stroke-width:2;stroke-dasharray:3 3"></line>
<path d="M35.73,14.89c0.14,1.15,0,2.34-0.38,3.76c-2.39,8.93-11.65,26.46-22.8,38.57" style="fill:none;stroke:#999;stroke-width:3"></path>

<path d="M144.73,14.89c0.14,1.15,0,2.34-0.38,3.76c-2.39,8.93-11.65,26.46-22.8,38.57" style="fill:none;stroke:#999;stroke-width:3"></path>
<path d="M137.53,37.75c0.92,0.92,1.26,1.97,1.26,3.23c0,10.64-0.03,32.78-0.04,45.03c0,2.74,0,5.02,0,6.62" style="fill:none;stroke:#999;stroke-width:3"></path>

<path d="M253.73,14.89c0.14,1.15,0,2.34-0.38,3.76c-2.39,8.93-11.65,26.46-22.8,38.57" style="fill:none;stroke:#999;stroke-width:3"></path>
<path d="M246.53,37.75c0.92,0.92,1.26,1.97,1.26,3.23c0,10.64-0.03,32.78-0.04,45.03c0,2.74,0,5.02,0,6.62" style="fill:none;stroke:#999;stroke-width:3"></path>
<path d="M265.5,23.5c2.97,2.26,7.67,9.28,8.41,12.79" style="fill:none;stroke:#999;stroke-width:3"></path>

<path d="M362.73,14.89c0.14,1.15,0,2.34-0.38,3.76c-2.39,8.93-11.65,26.46-22.8,38.57" style="fill:none;stroke:#999;stroke-width:3"></path>
<path d="M355.53,37.75c0.92,0.92,1.26,1.97,1.26,3.23c0,10.64-0.03,32.78-0.04,45.03c0,2.74,0,5.02,0,6.62" style="fill:none;stroke:#999;stroke-width:3"></path>
<path d="M374.5,23.5c2.97,2.26,7.67,9.28,8.41,12.79" style="fill:none;stroke:#999;stroke-width:3"></path>
<path d="M418.18,19.63c0.08,1.03-0.04,1.45-0.56,2.38c-2.02,3.67-5.12,7.64-9.51,12.29" style="fill:none;stroke:#999;stroke-width:3"></path>

<path d="M471.73,14.89c0.14,1.15,0,2.34-0.38,3.76c-2.39,8.93-11.65,26.46-22.8,38.57" style="fill:none;stroke:#999;stroke-width:3"></path>
<path d="M464.53,37.75c0.92,0.92,1.26,1.97,1.26,3.23c0,10.64-0.03,32.78-0.04,45.03c0,2.74,0,5.02,0,6.62" style="fill:none;stroke:#999;stroke-width:3"></path>
<path d="M483.5,23.5c2.97,2.26,7.67,9.28,8.41,12.79" style="fill:none;stroke:#999;stroke-width:3"></path>
<path d="M527.1800000000001,19.63c0.08,1.03-0.04,1.45-0.56,2.38c-2.02,3.67-5.12,7.64-9.51,12.29" style="fill:none;stroke:#999;stroke-width:3"></path>
<path d="M483.71,46.93c2.13,0.7,4.74,0.66,6.89,0.29c7.9-1.35,20.65-2.85,31.02-3.85c2.09-0.2,4.17-0.19,6.24,0.22" style="fill:none;stroke:#999;stroke-width:3"></path>

<path d="M580.73,14.89c0.14,1.15,0,2.34-0.38,3.76c-2.39,8.93-11.65,26.46-22.8,38.57" style="fill:none;stroke:#999;stroke-width:3"></path>
<path d="M573.53,37.75c0.92,0.92,1.26,1.97,1.26,3.23c0,10.64-0.03,32.78-0.04,45.03c0,2.74,0,5.02,0,6.62" style="fill:none;stroke:#999;stroke-width:3"></path>
<path d="M592.5,23.5c2.97,2.26,7.67,9.28,8.41,12.79" style="fill:none;stroke:#999;stroke-width:3"></path>
<path d="M636.1800000000001,19.63c0.08,1.03-0.04,1.45-0.56,2.38c-2.02,3.67-5.12,7.64-9.51,12.29" style="fill:none;stroke:#999;stroke-width:3"></path>
<path d="M592.71,46.93c2.13,0.7,4.74,0.66,6.89,0.29c7.9-1.35,20.65-2.85,31.02-3.85c2.09-0.2,4.17-0.19,6.24,0.22" style="fill:none;stroke:#999;stroke-width:3"></path>
<path d="M584.56,65.64c2.64,0.76,5.75,0.58,8.45,0.23c10.93-1.41,28.49-3.37,42.86-3.97c2.71-0.11,5.15-0.12,7.81,0.34" style="fill:none;stroke:#999;stroke-width:3"></path>

<path d="M689.73,14.89c0.14,1.15,0,2.34-0.38,3.76c-2.39,8.93-11.65,26.46-22.8,38.57" style="fill:none;stroke:#999;stroke-width:3"></path>
<path d="M682.53,37.75c0.92,0.92,1.26,1.97,1.26,3.23c0,10.64-0.03,32.78-0.04,45.03c0,2.74,0,5.02,0,6.62" style="fill:none;stroke:#999;stroke-width:3"></path>
<path d="M701.5,23.5c2.97,2.26,7.67,9.28,8.41,12.79" style="fill:none;stroke:#999;stroke-width:3"></path>
<path d="M745.1800000000001,19.63c0.08,1.03-0.04,1.45-0.56,2.38c-2.02,3.67-5.12,7.64-9.51,12.29" style="fill:none;stroke:#999;stroke-width:3"></path>
<path d="M701.71,46.93c2.13,0.7,4.74,0.66,6.89,0.29c7.9-1.35,20.65-2.85,31.02-3.85c2.09-0.2,4.17-0.19,6.24,0.22" style="fill:none;stroke:#999;stroke-width:3"></path>
<path d="M693.56,65.64c2.64,0.76,5.75,0.58,8.45,0.23c10.93-1.41,28.49-3.37,42.86-3.97c2.71-0.11,5.15-0.12,7.81,0.34" style="fill:none;stroke:#999;stroke-width:3"></path>
<path d="M722.6,10.75c1.2,1.2,1.5,2.62,1.5,4.08c0,0.87-0.09,67.42-0.09,73.42c0,4.59-0.01,7.92-0.01,9.25" style="fill:none;stroke:#999;stroke-width:3"></path>

</svg>