<svg width="763px" height="109px" viewBox="0 0 763 109" xmlns="http://www.w3.org/2000/svg" xmlns:xlink="http://www.w3.org/1999/xlink" xml:space="preserve" version="1.1" baseProfile="full">
<line x1="1" y1="1" x2="762" y2="1" style="stroke:#ddd;stroke-width:2"></line>
<line x1="1" y1="1" x2="1" y2="108" style="stroke:#ddd;stroke-width:2"></line>
<line x1="1" y1="108" x2="762" y2="108" style="stroke:#ddd;stroke-width:2"></line>
<line x1="762" y1="1" x2="762" y2="108" style="stroke:#ddd;stroke-width:2"></line>
<line x1="109" y1="1" x2="109" y2="108" style="stroke:#ddd;stroke-width:2"></line>
<line x1="218" y1="1" x2="218" y2="108" style="stroke:#ddd;stroke-width:2"></line>
<line x1="327" y1="1" x2="327" y2="108" style="stroke:#ddd;stroke-width:2"></line>
<line x1="436" y1="1" x2="436" y2="108" style="stroke:#ddd;stroke-width:2"></line>
<line x1="545" y1="1" x2="545" y2="108" style="stroke:#ddd;stroke-width:2"></line>
<line x1="654" y1="1" x2="654" y2="108" style="stroke:#ddd;stroke-width:2"></line>
<line x1="1" y1="54" x2="762" y2="54" style="stroke:#ddd;stroke-width:2;stroke-dasharray:3 3"></line>
<line x1="55" y1="1" x2="55" y2="108" style="stroke:#ddd;stroke-width:2;stroke-dasharray:3 3"></line>
<line x1="164" y1="1" x2="164" y2="108" style="stroke:#ddd;stroke-width:2;stroke-dasharray:3 3"></line>
<line x1="273" y1="1" x2="273" y2="108" style="stroke:#ddd;stroke-width:2;stroke-dasharray:3 3"></line>
<line x1="382" y1="1" x2="382" y2="108" style="stroke:#ddd;stroke-width:2;stroke-dasharray:3 3"></line>
<line x1="491" y1="1" x2="491" y2="108" style="stroke:#ddd;stroke-width:2;stroke-dasharray:3 3"></line>
<line x1="600" y1="1" x2="600" y2="108" style="stroke:#ddd;stroke-width:2;stroke-dasharray:3 3"></line>
<line x1="709" y1="1" x2="709" y2="108" style="stroke:#ddd;stroke-width:2;stroke-dasharray:3 3"></line>
<path d="M32.5,16.89c0.13,1.12,0.22,2.52-0.11,3.89C30.25,29.45,22.0,46.22,12.06,57.97" style="fill:none;stroke:#999;stroke-width:3"></path>

<path d="M141.5,16.89c0.13,1.12,0.22,2.52-0.11,3.89C139.25,29.45,131.0,46.22,121.06,57.97" style="fill:none;stroke:#999;stroke-width:3"></path>
<path d="M135.49,41.5c0.66,0.68,0.84,2.19,0.84,3.58c0,14.46-0.32,40.58-0.32,50.29" style="fill:none;stroke:#999;stroke-width:3"></path>

<path d="M250.5,16.89c0.13,1.12,0.22,2.52-0.11,3.89C248.25,29.45,240.0,46.22,230.06,57.97" style="fill:none;stroke:#999;stroke-width:3"></path>
<path d="M244.49,41.5c0.66,0.68,0.84,2.19,0.84,3.58c0,14.46-0.32,40.58-0.32,50.29" style="fill:none;stroke:#999;stroke-width:3"></path>
<path d="M282.04,13c0.73,0.43,1.78,1.53,1.76,2.77c-0.05,3.9-0.05,8.54-0.06,12.08" style="fill:none;stroke:#999;stroke-width:3"></path>

<path d="M359.5,16.89c0.13,1.12,0.22,2.52-0.11,3.89C357.25,29.45,349.0,46.22,339.06,57.97" style="fill:none;stroke:#999;stroke-width:3"></path>
<path d="M353.49,41.5c0.66,0.68,0.84,2.19,0.84,3.58c0,14.46-0.32,40.58-0.32,50.29" style="fill:none;stroke:#999;stroke-width:3"></path>
<path d="M391.04,13c0.73,0.43,1.78,1.53,1.76,2.77c-0.05,3.9-0.05,8.54-0.06,12.08" style="fill:none;stroke:#999;stroke-width:3"></path>
<path d="M368.15,28.38c0,2.89-1.92,11.69-2.59,13.62" style="fill:none;stroke:#999;stroke-width:3"></path>

<path d="M468.5,16.89c0.13,1.12,0.22,2.52-0.11,3.89C466.25,29.45,458.0,46.22,448.06,57.97" style="fill:none;stroke:#999;stroke-width:3"></path>
<path d="M462.49,41.5c0.66,0.68,0.84,2.19,0.84,3.58c0,14.46-0.32,40.58-0.32,50.29" style="fill:none;stroke:#999;stroke-width:3"></path>
<path d="M500.04,13c0.73,0.43,1.78,1.53,1.76,2.77c-0.05,3.9-0.05,8.54-0.06,12.08" style="fill:none;stroke:#999;stroke-width:3"></path>
<path d="M477.15,28.38c0,2.89-1.92,11.69-2.59,13.62" style="fill:none;stroke:#999;stroke-width:3"></path>
<path d="M477.65999999999997,30.24c0.85,0.09,43.01-4.43,47.29-4.9C537.0,24,527.25,33,525.7,34.61" style="fill:none;stroke:#999;stroke-width:3"></path>

<path d="M577.5,16.89c0.13,1.12,0.22,2.52-0.11,3.89C575.25,29.45,567.0,46.22,557.06,57.97" style="fill:none;stroke:#999;stroke-width:3"></path>
<path d="M571.49,41.5c0.66,0.68,0.84,2.19,0.84,3.58c0,14.46-0.32,40.58-0.32,50.29" style="fill:none;stroke:#999;stroke-width:3"></path>
<path d="M609.04,13c0.73,0.43,1.78,1.53,1.76,2.77c-0.05,3.9-0.05,8.54-0.06,12.08" style="fill:none;stroke:#999;stroke-width:3"></path>
<path d="M586.15,28.38c0,2.89-1.92,11.69-2.59,13.62" style="fill:none;stroke:#999;stroke-width:3"></path>
<path d="M586.66,30.24c0.85,0.09,43.01-4.43,47.29-4.9C646.0,24,636.25,33,634.7,34.61" style="fill:none;stroke:#999;stroke-width:3"></path>
<path d="M585.18,52.34c1.46,0.44,4.14,0.58,5.59,0.44c9.92-1.03,30.92-4.53,43.95-4.77c2.43-0.04,3.89,0.21,5.1,0.43" style="fill:none;stroke:#999;stroke-width:3"></path>

<path d="M686.5,16.89c0.13,1.12,0.22,2.52-0.11,3.89C684.25,29.45,676.0,46.22,666.06,57.97" style="fill:none;stroke:#999;stroke-width:3"></path>
<path d="M680.49,41.5c0.66,0.68,0.84,2.19,0.84,3.58c0,14.46-0.32,40.58-0.32,50.29" style="fill:none;stroke:#999;stroke-width:3"></path>
<path d="M718.04,13c0.73,0.43,1.78,1.53,1.76,2.77c-0.05,3.9-0.05,8.54-0.06,12.08" style="fill:none;stroke:#999;stroke-width:3"></path>
<path d="M695.15,28.38c0,2.89-1.92,11.69-2.59,13.62" style="fill:none;stroke:#999;stroke-width:3"></path>
<path d="M695.66,30.24c0.85,0.09,43.01-4.43,47.29-4.9C755.0,24,745.25,33,743.7,34.61" style="fill:none;stroke:#999;stroke-width:3"></path>
<path d="M694.18,52.34c1.46,0.44,4.14,0.58,5.59,0.44c9.92-1.03,30.92-4.53,43.95-4.77c2.43-0.04,3.89,0.21,5.1,0.43" style="fill:none;stroke:#999;stroke-width:3"></path>
<path d="M720.75,52.11c0.07,0.37,0.96,1.93,0.96,4.29c0,13.6-0.2,31.32-0.2,35.17c0,10.93-6.53,0.39-7.68-0.58" style="fill:none;stroke:#999;stroke-width:3"></path>

</svg>