<svg width="872px" height="109px" viewBox="0 0 872 109" xmlns="http://www.w3.org/2000/svg" xmlns:xlink="http://www.w3.org/1999/xlink" xml:space="preserve" version="1.1" baseProfile="full">
<line x1="1" y1="1" x2="871" y2="1" style="stroke:#ddd;stroke-width:2"></line>
<line x1="1" y1="1" x2="1" y2="108" style="stroke:#ddd;stroke-width:2"></line>
<line x1="1" y1="108" x2="871" y2="108" style="stroke:#ddd;stroke-width:2"></line>
<line x1="871" y1="1" x2="871" y2="108" style="stroke:#ddd;stroke-width:2"></line>
<line x1="109" y1="1" x2="109" y2="108" style="stroke:#ddd;stroke-width:2"></line>
<line x1="218" y1="1" x2="218" y2="108" style="stroke:#ddd;stroke-width:2"></line>
<line x1="327" y1="1" x2="327" y2="108" style="stroke:#ddd;stroke-width:2"></line>
<line x1="436" y1="1" x2="436" y2="108" style="stroke:#ddd;stroke-width:2"></line>
<line x1="545" y1="1" x2="545" y2="108" style="stroke:#ddd;stroke-width:2"></line>
<line x1="654" y1="1" x2="654" y2="108" style="stroke:#ddd;stroke-width:2"></line>
<line x1="763" y1="1" x2="763" y2="108" style="stroke:#ddd;stroke-width:2"></line>
<line x1="1" y1="54" x2="871" y2="54" style="stroke:#ddd;stroke-width:2;stroke-dasharray:3 3"></line>
<line x1="55" y1="1" x2="55" y2="108" style="stroke:#ddd;stroke-width:2;stroke-dasharray:3 3"></line>
<line x1="164" y1="1" x2="164" y2="108" style="stroke:#ddd;stroke-width:2;stroke-dasharray:3 3"></line>
<line x1="273" y1="1" x2="273" y2="108" style="stroke:#ddd;stroke-width:2;stroke-dasharray:3 3"></line>
<line x1="382" y1="1" x2="382" y2="108" style="stroke:#ddd;stroke-width:2;stroke-dasharray:3 3"></line>
<line x1="491" y1="1" x2="491" y2="108" style="stroke:#ddd;stroke-width:2;stroke-dasharray:3 3"></line>
<line x1="600" y1="1" x2="600" y2="108" style="stroke:#ddd;stroke-width:2;stroke-dasharray:3 3"></line>
<line x1="709" y1="1" x2="709" y2="108" style="stroke:#ddd;stroke-width:2;stroke-dasharray:3 3"></line>
<line x1="818" y1="1" x2="818" y2="108" style="stroke:#ddd;stroke-width:2;stroke-dasharray:3 3"></line>
<path d="M32.5,16.39c0.13,1.11,0.22,2.5-0.11,3.86c-2.11,8.62-10.26,25.28-20.08,36.96" style="fill:none;stroke:#999;stroke-width:3"></path>

<path d="M141.5,16.39c0.13,1.11,0.22,2.5-0.11,3.86c-2.11,8.62-10.26,25.28-20.08,36.96" style="fill:none;stroke:#999;stroke-width:3"></path>
<path d="M136.5,38c0.64,0.66,0.81,2.12,0.81,3.48c0,14.02-0.31,43.23-0.31,52.65" style="fill:none;stroke:#999;stroke-width:3"></path>

<path d="M250.5,16.39c0.13,1.11,0.22,2.5-0.11,3.86c-2.11,8.62-10.26,25.28-20.08,36.96" style="fill:none;stroke:#999;stroke-width:3"></path>
<path d="M245.5,38c0.64,0.66,0.81,2.12,0.81,3.48c0,14.02-0.31,43.23-0.31,52.65" style="fill:none;stroke:#999;stroke-width:3"></path>
<path d="M265.65,13.83c3.83,2.19,9.9,8.98,10.86,12.38" style="fill:none;stroke:#999;stroke-width:3"></path>

<path d="M359.5,16.39c0.13,1.11,0.22,2.5-0.11,3.86c-2.11,8.62-10.26,25.28-20.08,36.96" style="fill:none;stroke:#999;stroke-width:3"></path>
<path d="M354.5,38c0.64,0.66,0.81,2.12,0.81,3.48c0,14.02-0.31,43.23-0.31,52.65" style="fill:none;stroke:#999;stroke-width:3"></path>
<path d="M374.65,13.83c3.83,2.19,9.9,8.98,10.86,12.38" style="fill:none;stroke:#999;stroke-width:3"></path>
<path d="M409.25,11.14c0.03,0.35,0.06,0.9-0.05,1.4c-0.65,2.96-4.39,9.45-9.5,13.42" style="fill:none;stroke:#999;stroke-width:3"></path>

<path d="M468.5,16.39c0.13,1.11,0.22,2.5-0.11,3.86c-2.11,8.62-10.26,25.28-20.08,36.96" style="fill:none;stroke:#999;stroke-width:3"></path>
<path d="M463.5,38c0.64,0.66,0.81,2.12,0.81,3.48c0,14.02-0.31,43.23-0.31,52.65" style="fill:none;stroke:#999;stroke-width:3"></path>
<path d="M483.65,13.83c3.83,2.19,9.9,8.98,10.86,12.38" style="fill:none;stroke:#999;stroke-width:3"></path>
<path d="M518.25,11.14c0.03,0.35,0.06,0.9-0.05,1.4c-0.65,2.96-4.39,9.45-9.5,13.42" style="fill:none;stroke:#999;stroke-width:3"></path>
<path d="M480.57,33.74c1.14,0.61,3.2,0.71,4.36,0.61C495.0,33.5,512.5,31,522.13,30.06c1.89-0.19,3.03,0.29,3.98,0.59" style="fill:none;stroke:#999;stroke-width:3"></path>

<path d="M577.5,16.39c0.13,1.11,0.22,2.5-0.11,3.86c-2.11,8.62-10.26,25.28-20.08,36.96" style="fill:none;stroke:#999;stroke-width:3"></path>
<path d="M572.5,38c0.64,0.66,0.81,2.12,0.81,3.48c0,14.02-0.31,43.23-0.31,52.65" style="fill:none;stroke:#999;stroke-width:3"></path>
<path d="M592.65,13.83c3.83,2.19,9.9,8.98,10.86,12.38" style="fill:none;stroke:#999;stroke-width:3"></path>
<path d="M627.25,11.14c0.03,0.35,0.06,0.9-0.05,1.4c-0.65,2.96-4.39,9.45-9.5,13.42" style="fill:none;stroke:#999;stroke-width:3"></path>
<path d="M589.5699999999999,33.74c1.14,0.61,3.2,0.71,4.36,0.61C604.0,33.5,621.5,31,631.13,30.06c1.89-0.19,3.03,0.29,3.98,0.59" style="fill:none;stroke:#999;stroke-width:3"></path>
<path d="M590.28,50.19c1.13,0.6,3.17,0.66,4.32,0.6c10.15-0.54,21.6-1.98,35.48-3.35c1.87-0.18,2.92-0.19,4.45,0.3" style="fill:none;stroke:#999;stroke-width:3"></path>

<path d="M686.5,16.39c0.13,1.11,0.22,2.5-0.11,3.86c-2.11,8.62-10.26,25.28-20.08,36.96" style="fill:none;stroke:#999;stroke-width:3"></path>
<path d="M681.5,38c0.64,0.66,0.81,2.12,0.81,3.48c0,14.02-0.31,43.23-0.31,52.65" style="fill:none;stroke:#999;stroke-width:3"></path>
<path d="M701.65,13.83c3.83,2.19,9.9,8.98,10.86,12.38" style="fill:none;stroke:#999;stroke-width:3"></path>
<path d="M736.25,11.14c0.03,0.35,0.06,0.9-0.05,1.4c-0.65,2.96-4.39,9.45-9.5,13.42" style="fill:none;stroke:#999;stroke-width:3"></path>
<path d="M698.5699999999999,33.74c1.14,0.61,3.2,0.71,4.36,0.61C713.0,33.5,730.5,31,740.13,30.06c1.89-0.19,3.03,0.29,3.98,0.59" style="fill:none;stroke:#999;stroke-width:3"></path>
<path d="M699.28,50.19c1.13,0.6,3.17,0.66,4.32,0.6c10.15-0.54,21.6-1.98,35.48-3.35c1.87-0.18,2.92-0.19,4.45,0.3" style="fill:none;stroke:#999;stroke-width:3"></path>
<path d="M692.5,68.7c1.42,0.54,4.01,0.67,5.44,0.54c11.16-0.99,34.32-3.49,49.96-4.23c2.36-0.11,2.2-0.01,4.35,0.24" style="fill:none;stroke:#999;stroke-width:3"></path>

<path d="M795.5,16.39c0.13,1.11,0.22,2.5-0.11,3.86c-2.11,8.62-10.26,25.28-20.08,36.96" style="fill:none;stroke:#999;stroke-width:3"></path>
<path d="M790.5,38c0.64,0.66,0.81,2.12,0.81,3.48c0,14.02-0.31,43.23-0.31,52.65" style="fill:none;stroke:#999;stroke-width:3"></path>
<path d="M810.65,13.83c3.83,2.19,9.9,8.98,10.86,12.38" style="fill:none;stroke:#999;stroke-width:3"></path>
<path d="M845.25,11.14c0.03,0.35,0.06,0.9-0.05,1.4c-0.65,2.96-4.39,9.45-9.5,13.42" style="fill:none;stroke:#999;stroke-width:3"></path>
<path d="M807.5699999999999,33.74c1.14,0.61,3.2,0.71,4.36,0.61C822.0,33.5,839.5,31,849.13,30.06c1.89-0.19,3.03,0.29,3.98,0.59" style="fill:none;stroke:#999;stroke-width:3"></path>
<path d="M808.28,50.19c1.13,0.6,3.17,0.66,4.32,0.6c10.15-0.54,21.6-1.98,35.48-3.35c1.87-0.18,2.92-0.19,4.45,0.3" style="fill:none;stroke:#999;stroke-width:3"></path>
<path d="M801.5,68.7c1.42,0.54,4.01,0.67,5.44,0.54c11.16-0.99,34.32-3.49,49.96-4.23c2.36-0.11,2.2-0.01,4.35,0.24" style="fill:none;stroke:#999;stroke-width:3"></path>
<path d="M828.26,33.25c0.95,0.5,1.52,2.25,1.71,3.25c0.19,1,0,55.25-0.19,61.5" style="fill:none;stroke:#999;stroke-width:3"></path>

</svg>