<svg width="872px" height="109px" viewBox="0 0 872 109" xmlns="http://www.w3.org/2000/svg" xmlns:xlink="http://www.w3.org/1999/xlink" xml:space="preserve" version="1.1" baseProfile="full">
<line x1="1" y1="1" x2="871" y2="1" style="stroke:#ddd;stroke-width:2"></line>
<line x1="1" y1="1" x2="1" y2="108" style="stroke:#ddd;stroke-width:2"></line>
<line x1="1" y1="108" x2="871" y2="108" style="stroke:#ddd;stroke-width:2"></line>
<line x1="871" y1="1" x2="871" y2="108" style="stroke:#ddd;stroke-width:2"></line>
<line x1="109" y1="1" x2="109" y2="108" style="stroke:#ddd;stroke-width:2"></line>
<line x1="218" y1="1" x2="218" y2="108" style="stroke:#ddd;stroke-width:2"></line>
<line x1="327" y1="1" x2="327" y2="108" style="stroke:#ddd;stroke-width:2"></line>
<line x1="436" y1="1" x2="436" y2="108" style="stroke:#ddd;stroke-width:2"></line>
<line x1="545" y1="1" x2="545" y2="108" style="stroke:#ddd;stroke-width:2"></line>
<line x1="654" y1="1" x2="654" y2="108" style="stroke:#ddd;stroke-width:2"></line>
<line x1="763" y1="1" x2="763" y2="108" style="stroke:#ddd;stroke-width:2"></line>
<line x1="1" y1="54" x2="871" y2="54" style="stroke:#ddd;stroke-width:2;stroke-dasharray:3 3"></line>
<line x1="55" y1="1" x2="55" y2="108" style="stroke:#ddd;stroke-width:2;stroke-dasharray:3 3"></line>
<line x1="164" y1="1" x2="164" y2="108" style="stroke:#ddd;stroke-width:2;stroke-dasharray:3 3"></line>
<line x1="273" y1="1" x2="273" y2="108" style="stroke:#ddd;stroke-width:2;stroke-dasharray:3 3"></line>
<line x1="382" y1="1" x2="382" y2="108" style="stroke:#ddd;stroke-width:2;stroke-dasharray:3 3"></line>
<line x1="491" y1="1" x2="491" y2="108" style="stroke:#ddd;stroke-width:2;stroke-dasharray:3 3"></line>
<line x1="600" y1="1" x2="600" y2="108" style="stroke:#ddd;stroke-width:2;stroke-dasharray:3 3"></line>
<line x1="709" y1="1" x2="709" y2="108" style="stroke:#ddd;stroke-width:2;stroke-dasharray:3 3"></line>
<line x1="818" y1="1" x2="818" y2="108" style="stroke:#ddd;stroke-width:2;stroke-dasharray:3 3"></line>
<path d="M30.01,15.39c0.11,1.19,0.2,2.68-0.1,4.15c-1.9,9.25-9.25,27.14-18.1,39.68" style="fill:none;stroke:#999;stroke-width:3"></path>

<path d="M139.01,15.39c0.11,1.19,0.2,2.68-0.1,4.15c-1.9,9.25-9.25,27.14-18.1,39.68" style="fill:none;stroke:#999;stroke-width:3"></path>
<path d="M134.53,40.5c0.59,0.61,0.76,1.97,0.76,3.23c0,13.04-0.29,41.12-0.29,49.9" style="fill:none;stroke:#999;stroke-width:3"></path>

<path d="M248.01,15.39c0.11,1.19,0.2,2.68-0.1,4.15c-1.9,9.25-9.25,27.14-18.1,39.68" style="fill:none;stroke:#999;stroke-width:3"></path>
<path d="M243.53,40.5c0.59,0.61,0.76,1.97,0.76,3.23c0,13.04-0.29,41.12-0.29,49.9" style="fill:none;stroke:#999;stroke-width:3"></path>
<path d="M272.5,16.41c0.73,1.69,1.43,3.81,1.43,5.12c0,8.28,0.06,23.56,0.06,32.68c0,22.6-7.49,34.55-17.09,42.72" style="fill:none;stroke:#999;stroke-width:3"></path>

<path d="M357.01,15.39c0.11,1.19,0.2,2.68-0.1,4.15c-1.9,9.25-9.25,27.14-18.1,39.68" style="fill:none;stroke:#999;stroke-width:3"></path>
<path d="M352.53,40.5c0.59,0.61,0.76,1.97,0.76,3.23c0,13.04-0.29,41.12-0.29,49.9" style="fill:none;stroke:#999;stroke-width:3"></path>
<path d="M381.5,16.41c0.73,1.69,1.43,3.81,1.43,5.12c0,8.28,0.06,23.56,0.06,32.68c0,22.6-7.49,34.55-17.09,42.72" style="fill:none;stroke:#999;stroke-width:3"></path>
<path d="M362.65999999999997,33.06c4.04,2.57,10.44,10.57,11.45,14.57" style="fill:none;stroke:#999;stroke-width:3"></path>

<path d="M466.01,15.39c0.11,1.19,0.2,2.68-0.1,4.15c-1.9,9.25-9.25,27.14-18.1,39.68" style="fill:none;stroke:#999;stroke-width:3"></path>
<path d="M461.53,40.5c0.59,0.61,0.76,1.97,0.76,3.23c0,13.04-0.29,41.12-0.29,49.9" style="fill:none;stroke:#999;stroke-width:3"></path>
<path d="M490.5,16.41c0.73,1.69,1.43,3.81,1.43,5.12c0,8.28,0.06,23.56,0.06,32.68c0,22.6-7.49,34.55-17.09,42.72" style="fill:none;stroke:#999;stroke-width:3"></path>
<path d="M471.65999999999997,33.06c4.04,2.57,10.44,10.57,11.45,14.57" style="fill:none;stroke:#999;stroke-width:3"></path>
<path d="M472.11,70.79c1.09,0.45,2.19,0.59,3.02,0.09c1.15-0.7,9.42-6.48,13.93-9.85" style="fill:none;stroke:#999;stroke-width:3"></path>

<path d="M575.01,15.39c0.11,1.19,0.2,2.68-0.1,4.15c-1.9,9.25-9.25,27.14-18.1,39.68" style="fill:none;stroke:#999;stroke-width:3"></path>
<path d="M570.53,40.5c0.59,0.61,0.76,1.97,0.76,3.23c0,13.04-0.29,41.12-0.29,49.9" style="fill:none;stroke:#999;stroke-width:3"></path>
<path d="M599.5,16.41c0.73,1.69,1.43,3.81,1.43,5.12c0,8.28,0.06,23.56,0.06,32.68c0,22.6-7.49,34.55-17.09,42.72" style="fill:none;stroke:#999;stroke-width:3"></path>
<path d="M580.66,33.06c4.04,2.57,10.44,10.57,11.45,14.57" style="fill:none;stroke:#999;stroke-width:3"></path>
<path d="M581.11,70.79c1.09,0.45,2.19,0.59,3.02,0.09c1.15-0.7,9.42-6.48,13.93-9.85" style="fill:none;stroke:#999;stroke-width:3"></path>
<path d="M614.78,13.19c0.97,1.06,1.46,2.83,1.49,4.47c0.14,7.34-0.02,61.29-0.02,66.29c0,11.66,4.76,10.79,13.19,10.79C639.75,94.73,642.0,93,642.0,86.05" style="fill:none;stroke:#999;stroke-width:3"></path>

<path d="M684.01,15.39c0.11,1.19,0.2,2.68-0.1,4.15c-1.9,9.25-9.25,27.14-18.1,39.68" style="fill:none;stroke:#999;stroke-width:3"></path>
<path d="M679.53,40.5c0.59,0.61,0.76,1.97,0.76,3.23c0,13.04-0.29,41.12-0.29,49.9" style="fill:none;stroke:#999;stroke-width:3"></path>
<path d="M708.5,16.41c0.73,1.69,1.43,3.81,1.43,5.12c0,8.28,0.06,23.56,0.06,32.68c0,22.6-7.49,34.55-17.09,42.72" style="fill:none;stroke:#999;stroke-width:3"></path>
<path d="M689.66,33.06c4.04,2.57,10.44,10.57,11.45,14.57" style="fill:none;stroke:#999;stroke-width:3"></path>
<path d="M690.11,70.79c1.09,0.45,2.19,0.59,3.02,0.09c1.15-0.7,9.42-6.48,13.93-9.85" style="fill:none;stroke:#999;stroke-width:3"></path>
<path d="M723.78,13.19c0.97,1.06,1.46,2.83,1.49,4.47c0.14,7.34-0.02,61.29-0.02,66.29c0,11.66,4.76,10.79,13.19,10.79C748.75,94.73,751.0,93,751.0,86.05" style="fill:none;stroke:#999;stroke-width:3"></path>
<path d="M744.63,27.75c0.04,0.39,0.1,1-0.09,1.55c-1.1,3.27-7.44,10.45-16.1,14.84" style="fill:none;stroke:#999;stroke-width:3"></path>

<path d="M793.01,15.39c0.11,1.19,0.2,2.68-0.1,4.15c-1.9,9.25-9.25,27.14-18.1,39.68" style="fill:none;stroke:#999;stroke-width:3"></path>
<path d="M788.53,40.5c0.59,0.61,0.76,1.97,0.76,3.23c0,13.04-0.29,41.12-0.29,49.9" style="fill:none;stroke:#999;stroke-width:3"></path>
<path d="M817.5,16.41c0.73,1.69,1.43,3.81,1.43,5.12c0,8.28,0.06,23.56,0.06,32.68c0,22.6-7.49,34.55-17.09,42.72" style="fill:none;stroke:#999;stroke-width:3"></path>
<path d="M798.66,33.06c4.04,2.57,10.44,10.57,11.45,14.57" style="fill:none;stroke:#999;stroke-width:3"></path>
<path d="M799.11,70.79c1.09,0.45,2.19,0.59,3.02,0.09c1.15-0.7,9.42-6.48,13.93-9.85" style="fill:none;stroke:#999;stroke-width:3"></path>
<path d="M832.78,13.19c0.97,1.06,1.46,2.83,1.49,4.47c0.14,7.34-0.02,61.29-0.02,66.29c0,11.66,4.76,10.79,13.19,10.79C857.75,94.73,860.0,93,860.0,86.05" style="fill:none;stroke:#999;stroke-width:3"></path>
<path d="M853.63,27.75c0.04,0.39,0.1,1-0.09,1.55c-1.1,3.27-7.44,10.45-16.1,14.84" style="fill:none;stroke:#999;stroke-width:3"></path>
<path d="M836.95,53.02c5.1,3.37,13.17,13.85,14.45,19.09" style="fill:none;stroke:#999;stroke-width:3"></path>

</svg>