<svg width="872px" height="109px" viewBox="0 0 872 109" xmlns="http://www.w3.org/2000/svg" xmlns:xlink="http://www.w3.org/1999/xlink" xml:space="preserve" version="1.1" baseProfile="full">
<line x1="1" y1="1" x2="871" y2="1" style="stroke:#ddd;stroke-width:2"></line>
<line x1="1" y1="1" x2="1" y2="108" style="stroke:#ddd;stroke-width:2"></line>
<line x1="1" y1="108" x2="871" y2="108" style="stroke:#ddd;stroke-width:2"></line>
<line x1="871" y1="1" x2="871" y2="108" style="stroke:#ddd;stroke-width:2"></line>
<line x1="109" y1="1" x2="109" y2="108" style="stroke:#ddd;stroke-width:2"></line>
<line x1="218" y1="1" x2="218" y2="108" style="stroke:#ddd;stroke-width:2"></line>
<line x1="327" y1="1" x2="327" y2="108" style="stroke:#ddd;stroke-width:2"></line>
<line x1="436" y1="1" x2="436" y2="108" style="stroke:#ddd;stroke-width:2"></line>
<line x1="545" y1="1" x2="545" y2="108" style="stroke:#ddd;stroke-width:2"></line>
<line x1="654" y1="1" x2="654" y2="108" style="stroke:#ddd;stroke-width:2"></line>
<line x1="763" y1="1" x2="763" y2="108" style="stroke:#ddd;stroke-width:2"></line>
<line x1="1" y1="54" x2="871" y2="54" style="stroke:#ddd;stroke-width:2;stroke-dasharray:3 3"></line>
<line x1="55" y1="1" x2="55" y2="108" style="stroke:#ddd;stroke-width:2;stroke-dasharray:3 3"></line>
<line x1="164" y1="1" x2="164" y2="108" style="stroke:#ddd;stroke-width:2;stroke-dasharray:3 3"></line>
<line x1="273" y1="1" x2="273" y2="108" style="stroke:#ddd;stroke-width:2;stroke-dasharray:3 3"></line>
<line x1="382" y1="1" x2="382" y2="108" style="stroke:#ddd;stroke-width:2;stroke-dasharray:3 3"></line>
<line x1="491" y1="1" x2="491" y2="108" style="stroke:#ddd;stroke-width:2;stroke-dasharray:3 3"></line>
<line x1="600" y1="1" x2="600" y2="108" style="stroke:#ddd;stroke-width:2;stroke-dasharray:3 3"></line>
<line x1="709" y1="1" x2="709" y2="108" style="stroke:#ddd;stroke-width:2;stroke-dasharray:3 3"></line>
<line x1="818" y1="1" x2="818" y2="108" style="stroke:#ddd;stroke-width:2;stroke-dasharray:3 3"></line>
<path d="M18.25,30.96c1.89,0.7,4.05,0.93,6.23,0.7c11.1-1.15,43.31-5.15,60.09-6.5c2.16-0.17,3.52,0.12,5.68,0.62" style="fill:none;stroke:#999;stroke-width:3"></path>

<path d="M127.25,30.96c1.89,0.7,4.05,0.93,6.23,0.7c11.1-1.15,43.31-5.15,60.09-6.5c2.16-0.17,3.52,0.12,5.68,0.62" style="fill:none;stroke:#999;stroke-width:3"></path>
<path d="M142.5,38.49c0,0.65,0.08,1.2-0.13,1.95c-1.93,7.07-7.69,15.87-16.15,23.68" style="fill:none;stroke:#999;stroke-width:3"></path>

<path d="M236.25,30.96c1.89,0.7,4.05,0.93,6.23,0.7c11.1-1.15,43.31-5.15,60.09-6.5c2.16-0.17,3.52,0.12,5.68,0.62" style="fill:none;stroke:#999;stroke-width:3"></path>
<path d="M251.5,38.49c0,0.65,0.08,1.2-0.13,1.95c-1.93,7.07-7.69,15.87-16.15,23.68" style="fill:none;stroke:#999;stroke-width:3"></path>
<path d="M250.14,49.46c3.3,1.87,7.51,6.83,9.11,11.54" style="fill:none;stroke:#999;stroke-width:3"></path>

<path d="M345.25,30.96c1.89,0.7,4.05,0.93,6.23,0.7c11.1-1.15,43.31-5.15,60.09-6.5c2.16-0.17,3.52,0.12,5.68,0.62" style="fill:none;stroke:#999;stroke-width:3"></path>
<path d="M360.5,38.49c0,0.65,0.08,1.2-0.13,1.95c-1.93,7.07-7.69,15.87-16.15,23.68" style="fill:none;stroke:#999;stroke-width:3"></path>
<path d="M359.14,49.46c3.3,1.87,7.51,6.83,9.11,11.54" style="fill:none;stroke:#999;stroke-width:3"></path>
<path d="M404.76,34.24c0,0.52,0.11,0.97-0.1,1.56c-1.82,5.1-7.01,14.18-13.18,19.32" style="fill:none;stroke:#999;stroke-width:3"></path>

<path d="M454.25,30.96c1.89,0.7,4.05,0.93,6.23,0.7c11.1-1.15,43.31-5.15,60.09-6.5c2.16-0.17,3.52,0.12,5.68,0.62" style="fill:none;stroke:#999;stroke-width:3"></path>
<path d="M469.5,38.49c0,0.65,0.08,1.2-0.13,1.95c-1.93,7.07-7.69,15.87-16.15,23.68" style="fill:none;stroke:#999;stroke-width:3"></path>
<path d="M468.14,49.46c3.3,1.87,7.51,6.83,9.11,11.54" style="fill:none;stroke:#999;stroke-width:3"></path>
<path d="M513.76,34.24c0,0.52,0.11,0.97-0.1,1.56c-1.82,5.1-7.01,14.18-13.18,19.32" style="fill:none;stroke:#999;stroke-width:3"></path>
<path d="M511.14,45.21c4.7,3.39,8.3,7.64,11.11,12.79" style="fill:none;stroke:#999;stroke-width:3"></path>

<path d="M563.25,30.96c1.89,0.7,4.05,0.93,6.23,0.7c11.1-1.15,43.31-5.15,60.09-6.5c2.16-0.17,3.52,0.12,5.68,0.62" style="fill:none;stroke:#999;stroke-width:3"></path>
<path d="M578.5,38.49c0,0.65,0.08,1.2-0.13,1.95c-1.93,7.07-7.69,15.87-16.15,23.68" style="fill:none;stroke:#999;stroke-width:3"></path>
<path d="M577.14,49.46c3.3,1.87,7.51,6.83,9.11,11.54" style="fill:none;stroke:#999;stroke-width:3"></path>
<path d="M622.76,34.24c0,0.52,0.11,0.97-0.1,1.56c-1.82,5.1-7.01,14.18-13.18,19.32" style="fill:none;stroke:#999;stroke-width:3"></path>
<path d="M620.14,45.21c4.7,3.39,8.3,7.64,11.11,12.79" style="fill:none;stroke:#999;stroke-width:3"></path>
<path d="M597.25,10.75c1.25,0.5,2.25,2.22,2.25,3.25c0,10.5,0,79.75-0.25,86" style="fill:none;stroke:#999;stroke-width:3"></path>

<path d="M672.25,30.96c1.89,0.7,4.05,0.93,6.23,0.7c11.1-1.15,43.31-5.15,60.09-6.5c2.16-0.17,3.52,0.12,5.68,0.62" style="fill:none;stroke:#999;stroke-width:3"></path>
<path d="M687.5,38.49c0,0.65,0.08,1.2-0.13,1.95c-1.93,7.07-7.69,15.87-16.15,23.68" style="fill:none;stroke:#999;stroke-width:3"></path>
<path d="M686.14,49.46c3.3,1.87,7.51,6.83,9.11,11.54" style="fill:none;stroke:#999;stroke-width:3"></path>
<path d="M731.76,34.24c0,0.52,0.11,0.97-0.1,1.56c-1.82,5.1-7.01,14.18-13.18,19.32" style="fill:none;stroke:#999;stroke-width:3"></path>
<path d="M729.14,45.21c4.7,3.39,8.3,7.64,11.11,12.79" style="fill:none;stroke:#999;stroke-width:3"></path>
<path d="M706.25,10.75c1.25,0.5,2.25,2.22,2.25,3.25c0,10.5,0,79.75-0.25,86" style="fill:none;stroke:#999;stroke-width:3"></path>
<path d="M708.25,53.75c-6.77,12.28-24.92,31.05-39,38" style="fill:none;stroke:#999;stroke-width:3"></path>

<path d="M781.25,30.96c1.89,0.7,4.05,0.93,6.23,0.7c11.1-1.15,43.31-5.15,60.09-6.5c2.16-0.17,3.52,0.12,5.68,0.62" style="fill:none;stroke:#999;stroke-width:3"></path>
<path d="M796.5,38.49c0,0.65,0.08,1.2-0.13,1.95c-1.93,7.07-7.69,15.87-16.15,23.68" style="fill:none;stroke:#999;stroke-width:3"></path>
<path d="M795.14,49.46c3.3,1.87,7.51,6.83,9.11,11.54" style="fill:none;stroke:#999;stroke-width:3"></path>
<path d="M840.76,34.24c0,0.52,0.11,0.97-0.1,1.56c-1.82,5.1-7.01,14.18-13.18,19.32" style="fill:none;stroke:#999;stroke-width:3"></path>
<path d="M838.14,45.21c4.7,3.39,8.3,7.64,11.11,12.79" style="fill:none;stroke:#999;stroke-width:3"></path>
<path d="M815.25,10.75c1.25,0.5,2.25,2.22,2.25,3.25c0,10.5,0,79.75-0.25,86" style="fill:none;stroke:#999;stroke-width:3"></path>
<path d="M817.25,53.75c-6.77,12.28-24.92,31.05-39,38" style="fill:none;stroke:#999;stroke-width:3"></path>
<path d="M817.5,55c4.75,4.39,27.09,26.42,32.25,30.74c1.75,1.46,3.25,2.09,5,2.51" style="fill:none;stroke:#999;stroke-width:3"></path>

</svg>