<svg width="872px" height="109px" viewBox="0 0 872 109" xmlns="http://www.w3.org/2000/svg" xmlns:xlink="http://www.w3.org/1999/xlink" xml:space="preserve" version="1.1" baseProfile="full">
<line x1="1" y1="1" x2="871" y2="1" style="stroke:#ddd;stroke-width:2"></line>
<line x1="1" y1="1" x2="1" y2="108" style="stroke:#ddd;stroke-width:2"></line>
<line x1="1" y1="108" x2="871" y2="108" style="stroke:#ddd;stroke-width:2"></line>
<line x1="871" y1="1" x2="871" y2="108" style="stroke:#ddd;stroke-width:2"></line>
<line x1="109" y1="1" x2="109" y2="108" style="stroke:#ddd;stroke-width:2"></line>
<line x1="218" y1="1" x2="218" y2="108" style="stroke:#ddd;stroke-width:2"></line>
<line x1="327" y1="1" x2="327" y2="108" style="stroke:#ddd;stroke-width:2"></line>
<line x1="436" y1="1" x2="436" y2="108" style="stroke:#ddd;stroke-width:2"></line>
<line x1="545" y1="1" x2="545" y2="108" style="stroke:#ddd;stroke-width:2"></line>
<line x1="654" y1="1" x2="654" y2="108" style="stroke:#ddd;stroke-width:2"></line>
<line x1="763" y1="1" x2="763" y2="108" style="stroke:#ddd;stroke-width:2"></line>
<line x1="1" y1="54" x2="871" y2="54" style="stroke:#ddd;stroke-width:2;stroke-dasharray:3 3"></line>
<line x1="55" y1="1" x2="55" y2="108" style="stroke:#ddd;stroke-width:2;stroke-dasharray:3 3"></line>
<line x1="164" y1="1" x2="164" y2="108" style="stroke:#ddd;stroke-width:2;stroke-dasharray:3 3"></line>
<line x1="273" y1="1" x2="273" y2="108" style="stroke:#ddd;stroke-width:2;stroke-dasharray:3 3"></line>
<line x1="382" y1="1" x2="382" y2="108" style="stroke:#ddd;stroke-width:2;stroke-dasharray:3 3"></line>
<line x1="491" y1="1" x2="491" y2="108" style="stroke:#ddd;stroke-width:2;stroke-dasharray:3 3"></line>
<line x1="600" y1="1" x2="600" y2="108" style="stroke:#ddd;stroke-width:2;stroke-dasharray:3 3"></line>
<line x1="709" y1="1" x2="709" y2="108" style="stroke:#ddd;stroke-width:2;stroke-dasharray:3 3"></line>
<line x1="818" y1="1" x2="818" y2="108" style="stroke:#ddd;stroke-width:2;stroke-dasharray:3 3"></line>
<path d="M35.48,13.89c0.15,1.2,0.26,2.71-0.13,4.19c-2.5,9.36-12.15,27.45-23.79,40.13" style="fill:none;stroke:#999;stroke-width:3"></path>

<path d="M144.48,13.89c0.15,1.2,0.26,2.71-0.13,4.19c-2.5,9.36-12.15,27.45-23.79,40.13" style="fill:none;stroke:#999;stroke-width:3"></path>
<path d="M135.49,42c0.66,0.68,0.84,2.19,0.84,3.58c0,14.46-0.32,42.08-0.32,51.79" style="fill:none;stroke:#999;stroke-width:3"></path>

<path d="M253.48,13.89c0.15,1.2,0.26,2.71-0.13,4.19c-2.5,9.36-12.15,27.45-23.79,40.13" style="fill:none;stroke:#999;stroke-width:3"></path>
<path d="M244.49,42c0.66,0.68,0.84,2.19,0.84,3.58c0,14.46-0.32,42.08-0.32,51.79" style="fill:none;stroke:#999;stroke-width:3"></path>
<path d="M283.13,11.67c0.22,0.31,0.19,1.23,0.03,1.85c-0.96,3.66-9.38,14.64-19.56,21.55" style="fill:none;stroke:#999;stroke-width:3"></path>

<path d="M362.48,13.89c0.15,1.2,0.26,2.71-0.13,4.19c-2.5,9.36-12.15,27.45-23.79,40.13" style="fill:none;stroke:#999;stroke-width:3"></path>
<path d="M353.49,42c0.66,0.68,0.84,2.19,0.84,3.58c0,14.46-0.32,42.08-0.32,51.79" style="fill:none;stroke:#999;stroke-width:3"></path>
<path d="M392.13,11.67c0.22,0.31,0.19,1.23,0.03,1.85c-0.96,3.66-9.38,14.64-19.56,21.55" style="fill:none;stroke:#999;stroke-width:3"></path>
<path d="M394.26,17.14c0.29,0.02,2.51,0.48,3.32,0.39c2.66-0.3,10.04-2.21,13.54-3.27c2.52-0.77,3.54,0.65,2.86,2.16C409.0,27.5,389.0,49.75,369.15999999999997,55.84" style="fill:none;stroke:#999;stroke-width:3"></path>

<path d="M471.48,13.89c0.15,1.2,0.26,2.71-0.13,4.19c-2.5,9.36-12.15,27.45-23.79,40.13" style="fill:none;stroke:#999;stroke-width:3"></path>
<path d="M462.49,42c0.66,0.68,0.84,2.19,0.84,3.58c0,14.46-0.32,42.08-0.32,51.79" style="fill:none;stroke:#999;stroke-width:3"></path>
<path d="M501.13,11.67c0.22,0.31,0.19,1.23,0.03,1.85c-0.96,3.66-9.38,14.64-19.56,21.55" style="fill:none;stroke:#999;stroke-width:3"></path>
<path d="M503.26,17.14c0.29,0.02,2.51,0.48,3.32,0.39c2.66-0.3,10.04-2.21,13.54-3.27c2.52-0.77,3.54,0.65,2.86,2.16C518.0,27.5,498.0,49.75,478.15999999999997,55.84" style="fill:none;stroke:#999;stroke-width:3"></path>
<path d="M494.4,29.08c2.29,1.68,6,6.98,6.65,9.67" style="fill:none;stroke:#999;stroke-width:3"></path>

<path d="M580.48,13.89c0.15,1.2,0.26,2.71-0.13,4.19c-2.5,9.36-12.15,27.45-23.79,40.13" style="fill:none;stroke:#999;stroke-width:3"></path>
<path d="M571.49,42c0.66,0.68,0.84,2.19,0.84,3.58c0,14.46-0.32,42.08-0.32,51.79" style="fill:none;stroke:#999;stroke-width:3"></path>
<path d="M610.13,11.67c0.22,0.31,0.19,1.23,0.03,1.85c-0.96,3.66-9.38,14.64-19.56,21.55" style="fill:none;stroke:#999;stroke-width:3"></path>
<path d="M612.26,17.14c0.29,0.02,2.51,0.48,3.32,0.39c2.66-0.3,10.04-2.21,13.54-3.27c2.52-0.77,3.54,0.65,2.86,2.16C627.0,27.5,607.0,49.75,587.16,55.84" style="fill:none;stroke:#999;stroke-width:3"></path>
<path d="M603.4,29.08c2.29,1.68,6,6.98,6.65,9.67" style="fill:none;stroke:#999;stroke-width:3"></path>
<path d="M618.64,45.75c0.35,0.45,0.25,1.86-0.2,2.69c-3.43,6.4-10.96,15.97-26.07,24.65" style="fill:none;stroke:#999;stroke-width:3"></path>

<path d="M689.48,13.89c0.15,1.2,0.26,2.71-0.13,4.19c-2.5,9.36-12.15,27.45-23.79,40.13" style="fill:none;stroke:#999;stroke-width:3"></path>
<path d="M680.49,42c0.66,0.68,0.84,2.19,0.84,3.58c0,14.46-0.32,42.08-0.32,51.79" style="fill:none;stroke:#999;stroke-width:3"></path>
<path d="M719.13,11.67c0.22,0.31,0.19,1.23,0.03,1.85c-0.96,3.66-9.38,14.64-19.56,21.55" style="fill:none;stroke:#999;stroke-width:3"></path>
<path d="M721.26,17.14c0.29,0.02,2.51,0.48,3.32,0.39c2.66-0.3,10.04-2.21,13.54-3.27c2.52-0.77,3.54,0.65,2.86,2.16C736.0,27.5,716.0,49.75,696.16,55.84" style="fill:none;stroke:#999;stroke-width:3"></path>
<path d="M712.4,29.08c2.29,1.68,6,6.98,6.65,9.67" style="fill:none;stroke:#999;stroke-width:3"></path>
<path d="M727.64,45.75c0.35,0.45,0.25,1.86-0.2,2.69c-3.43,6.4-10.96,15.97-26.07,24.65" style="fill:none;stroke:#999;stroke-width:3"></path>
<path d="M728.29,52.69c1.21,0.56,2.46,0.31,4.03,0.38c2.92,0.13,10.75-1.33,14.57-2.45c2.74-0.81,3.93,1.23,3.12,2.77C741.0,70.5,721.25,90,700.75,97" style="fill:none;stroke:#999;stroke-width:3"></path>

<path d="M798.48,13.89c0.15,1.2,0.26,2.71-0.13,4.19c-2.5,9.36-12.15,27.45-23.79,40.13" style="fill:none;stroke:#999;stroke-width:3"></path>
<path d="M789.49,42c0.66,0.68,0.84,2.19,0.84,3.58c0,14.46-0.32,42.08-0.32,51.79" style="fill:none;stroke:#999;stroke-width:3"></path>
<path d="M828.13,11.67c0.22,0.31,0.19,1.23,0.03,1.85c-0.96,3.66-9.38,14.64-19.56,21.55" style="fill:none;stroke:#999;stroke-width:3"></path>
<path d="M830.26,17.14c0.29,0.02,2.51,0.48,3.32,0.39c2.66-0.3,10.04-2.21,13.54-3.27c2.52-0.77,3.54,0.65,2.86,2.16C845.0,27.5,825.0,49.75,805.16,55.84" style="fill:none;stroke:#999;stroke-width:3"></path>
<path d="M821.4,29.08c2.29,1.68,6,6.98,6.65,9.67" style="fill:none;stroke:#999;stroke-width:3"></path>
<path d="M836.64,45.75c0.35,0.45,0.25,1.86-0.2,2.69c-3.43,6.4-10.96,15.97-26.07,24.65" style="fill:none;stroke:#999;stroke-width:3"></path>
<path d="M837.29,52.69c1.21,0.56,2.46,0.31,4.03,0.38c2.92,0.13,10.75-1.33,14.57-2.45c2.74-0.81,3.93,1.23,3.12,2.77C850.0,70.5,830.25,90,809.75,97" style="fill:none;stroke:#999;stroke-width:3"></path>
<path d="M825.76,65.88c2.35,2.41,6.16,10.04,6.82,13.89" style="fill:none;stroke:#999;stroke-width:3"></path>

</svg>