<svg width="872px" height="109px" viewBox="0 0 872 109" xmlns="http://www.w3.org/2000/svg" xmlns:xlink="http://www.w3.org/1999/xlink" xml:space="preserve" version="1.1" baseProfile="full">
<line x1="1" y1="1" x2="871" y2="1" style="stroke:#ddd;stroke-width:2"></line>
<line x1="1" y1="1" x2="1" y2="108" style="stroke:#ddd;stroke-width:2"></line>
<line x1="1" y1="108" x2="871" y2="108" style="stroke:#ddd;stroke-width:2"></line>
<line x1="871" y1="1" x2="871" y2="108" style="stroke:#ddd;stroke-width:2"></line>
<line x1="109" y1="1" x2="109" y2="108" style="stroke:#ddd;stroke-width:2"></line>
<line x1="218" y1="1" x2="218" y2="108" style="stroke:#ddd;stroke-width:2"></line>
<line x1="327" y1="1" x2="327" y2="108" style="stroke:#ddd;stroke-width:2"></line>
<line x1="436" y1="1" x2="436" y2="108" style="stroke:#ddd;stroke-width:2"></line>
<line x1="545" y1="1" x2="545" y2="108" style="stroke:#ddd;stroke-width:2"></line>
<line x1="654" y1="1" x2="654" y2="108" style="stroke:#ddd;stroke-width:2"></line>
<line x1="763" y1="1" x2="763" y2="108" style="stroke:#ddd;stroke-width:2"></line>
<line x1="1" y1="54" x2="871" y2="54" style="stroke:#ddd;stroke-width:2;stroke-dasharray:3 3"></line>
<line x1="55" y1="1" x2="55" y2="108" style="stroke:#ddd;stroke-width:2;stroke-dasharray:3 3"></line>
<line x1="164" y1="1" x2="164" y2="108" style="stroke:#ddd;stroke-width:2;stroke-dasharray:3 3"></line>
<line x1="273" y1="1" x2="273" y2="108" style="stroke:#ddd;stroke-width:2;stroke-dasharray:3 3"></line>
<line x1="382" y1="1" x2="382" y2="108" style="stroke:#ddd;stroke-width:2;stroke-dasharray:3 3"></line>
<line x1="491" y1="1" x2="491" y2="108" style="stroke:#ddd;stroke-width:2;stroke-dasharray:3 3"></line>
<line x1="600" y1="1" x2="600" y2="108" style="stroke:#ddd;stroke-width:2;stroke-dasharray:3 3"></line>
<line x1="709" y1="1" x2="709" y2="108" style="stroke:#ddd;stroke-width:2;stroke-dasharray:3 3"></line>
<line x1="818" y1="1" x2="818" y2="108" style="stroke:#ddd;stroke-width:2;stroke-dasharray:3 3"></line>
<path d="M30.12,17.5c0.25,1.75-0.06,3.29-0.72,5.08C25.15,33.98,20.12,45,9.75,58.79" style="fill:none;stroke:#999;stroke-width:3"></path>

<path d="M139.12,17.5c0.25,1.75-0.06,3.29-0.72,5.08C134.15,33.98,129.12,45,118.75,58.79" style="fill:none;stroke:#999;stroke-width:3"></path>
<path d="M131.78,43.75c0.98,0.98,1.35,2.25,1.35,3.98c0,9.99-0.09,27.46-0.12,37.52C133.0,87.66,133.0,89.65,133.0,91" style="fill:none;stroke:#999;stroke-width:3"></path>

<path d="M248.12,17.5c0.25,1.75-0.06,3.29-0.72,5.08C243.15,33.98,238.12,45,227.75,58.79" style="fill:none;stroke:#999;stroke-width:3"></path>
<path d="M240.78,43.75c0.98,0.98,1.35,2.25,1.35,3.98c0,9.99-0.09,27.46-0.12,37.52C242.0,87.66,242.0,89.65,242.0,91" style="fill:none;stroke:#999;stroke-width:3"></path>
<path d="M255.45,22.06c0.92,0.37,2.6,0.45,3.52,0.37c5.93-0.53,14.28-2.05,21.06-2.82c1.52-0.17,2.7-0.07,3.47,0.11" style="fill:none;stroke:#999;stroke-width:3"></path>

<path d="M357.12,17.5c0.25,1.75-0.06,3.29-0.72,5.08C352.15,33.98,347.12,45,336.75,58.79" style="fill:none;stroke:#999;stroke-width:3"></path>
<path d="M349.78,43.75c0.98,0.98,1.35,2.25,1.35,3.98c0,9.99-0.09,27.46-0.12,37.52C351.0,87.66,351.0,89.65,351.0,91" style="fill:none;stroke:#999;stroke-width:3"></path>
<path d="M364.45,22.06c0.92,0.37,2.6,0.45,3.52,0.37c5.93-0.53,14.28-2.05,21.06-2.82c1.52-0.17,2.7-0.07,3.47,0.11" style="fill:none;stroke:#999;stroke-width:3"></path>
<path d="M376.73,25.21c0.39,1.16,0.41,2.1,0.12,3.26c-2.11,8.41-8.23,20.28-17.56,31.59" style="fill:none;stroke:#999;stroke-width:3"></path>

<path d="M466.12,17.5c0.25,1.75-0.06,3.29-0.72,5.08C461.15,33.98,456.12,45,445.75,58.79" style="fill:none;stroke:#999;stroke-width:3"></path>
<path d="M458.78,43.75c0.98,0.98,1.35,2.25,1.35,3.98c0,9.99-0.09,27.46-0.12,37.52C460.0,87.66,460.0,89.65,460.0,91" style="fill:none;stroke:#999;stroke-width:3"></path>
<path d="M473.45,22.06c0.92,0.37,2.6,0.45,3.52,0.37c5.93-0.53,14.28-2.05,21.06-2.82c1.52-0.17,2.7-0.07,3.47,0.11" style="fill:none;stroke:#999;stroke-width:3"></path>
<path d="M485.73,25.21c0.39,1.16,0.41,2.1,0.12,3.26c-2.11,8.41-8.23,20.28-17.56,31.59" style="fill:none;stroke:#999;stroke-width:3"></path>
<path d="M483.82,40.96c1.06,0.29,2.06,0.16,3.51-0.12c3.31-0.66,4.58-0.75,6.7-1.51c2.97-1.07,4.84,0.26,3.83,3.77C493.75,57.38,484.38,78.75,467.77,90.5" style="fill:none;stroke:#999;stroke-width:3"></path>

<path d="M575.12,17.5c0.25,1.75-0.06,3.29-0.72,5.08C570.15,33.98,565.12,45,554.75,58.79" style="fill:none;stroke:#999;stroke-width:3"></path>
<path d="M567.78,43.75c0.98,0.98,1.35,2.25,1.35,3.98c0,9.99-0.09,27.46-0.12,37.52C569.0,87.66,569.0,89.65,569.0,91" style="fill:none;stroke:#999;stroke-width:3"></path>
<path d="M582.45,22.06c0.92,0.37,2.6,0.45,3.52,0.37c5.93-0.53,14.28-2.05,21.06-2.82c1.52-0.17,2.7-0.07,3.47,0.11" style="fill:none;stroke:#999;stroke-width:3"></path>
<path d="M594.73,25.21c0.39,1.16,0.41,2.1,0.12,3.26c-2.11,8.41-8.23,20.28-17.56,31.59" style="fill:none;stroke:#999;stroke-width:3"></path>
<path d="M592.8199999999999,40.96c1.06,0.29,2.06,0.16,3.51-0.12c3.31-0.66,4.58-0.75,6.7-1.51c2.97-1.07,4.84,0.26,3.83,3.77C602.75,57.38,593.38,78.75,576.77,90.5" style="fill:none;stroke:#999;stroke-width:3"></path>
<path d="M586.25,56.25c3.42,1.53,7.84,6.04,8.69,8.42" style="fill:none;stroke:#999;stroke-width:3"></path>

<path d="M684.12,17.5c0.25,1.75-0.06,3.29-0.72,5.08C679.15,33.98,674.12,45,663.75,58.79" style="fill:none;stroke:#999;stroke-width:3"></path>
<path d="M676.78,43.75c0.98,0.98,1.35,2.25,1.35,3.98c0,9.99-0.09,27.46-0.12,37.52C678.0,87.66,678.0,89.65,678.0,91" style="fill:none;stroke:#999;stroke-width:3"></path>
<path d="M691.45,22.06c0.92,0.37,2.6,0.45,3.52,0.37c5.93-0.53,14.28-2.05,21.06-2.82c1.52-0.17,2.7-0.07,3.47,0.11" style="fill:none;stroke:#999;stroke-width:3"></path>
<path d="M703.73,25.21c0.39,1.16,0.41,2.1,0.12,3.26c-2.11,8.41-8.23,20.28-17.56,31.59" style="fill:none;stroke:#999;stroke-width:3"></path>
<path d="M701.8199999999999,40.96c1.06,0.29,2.06,0.16,3.51-0.12c3.31-0.66,4.58-0.75,6.7-1.51c2.97-1.07,4.84,0.26,3.83,3.77C711.75,57.38,702.38,78.75,685.77,90.5" style="fill:none;stroke:#999;stroke-width:3"></path>
<path d="M695.25,56.25c3.42,1.53,7.84,6.04,8.69,8.42" style="fill:none;stroke:#999;stroke-width:3"></path>
<path d="M727.27,27.12c1.25,1.25,1.76,2.76,1.76,5.02c0,10.99,0,21.7,0,29.37c0,2.53,0,4.73,0,6.5" style="fill:none;stroke:#999;stroke-width:3"></path>

<path d="M793.12,17.5c0.25,1.75-0.06,3.29-0.72,5.08C788.15,33.98,783.12,45,772.75,58.79" style="fill:none;stroke:#999;stroke-width:3"></path>
<path d="M785.78,43.75c0.98,0.98,1.35,2.25,1.35,3.98c0,9.99-0.09,27.46-0.12,37.52C787.0,87.66,787.0,89.65,787.0,91" style="fill:none;stroke:#999;stroke-width:3"></path>
<path d="M800.45,22.06c0.92,0.37,2.6,0.45,3.52,0.37c5.93-0.53,14.28-2.05,21.06-2.82c1.52-0.17,2.7-0.07,3.47,0.11" style="fill:none;stroke:#999;stroke-width:3"></path>
<path d="M812.73,25.21c0.39,1.16,0.41,2.1,0.12,3.26c-2.11,8.41-8.23,20.28-17.56,31.59" style="fill:none;stroke:#999;stroke-width:3"></path>
<path d="M810.8199999999999,40.96c1.06,0.29,2.06,0.16,3.51-0.12c3.31-0.66,4.58-0.75,6.7-1.51c2.97-1.07,4.84,0.26,3.83,3.77C820.75,57.38,811.38,78.75,794.77,90.5" style="fill:none;stroke:#999;stroke-width:3"></path>
<path d="M804.25,56.25c3.42,1.53,7.84,6.04,8.69,8.42" style="fill:none;stroke:#999;stroke-width:3"></path>
<path d="M836.27,27.12c1.25,1.25,1.76,2.76,1.76,5.02c0,10.99,0,21.7,0,29.37c0,2.53,0,4.73,0,6.5" style="fill:none;stroke:#999;stroke-width:3"></path>
<path d="M853.02,14.08c1.39,1.39,2.01,2.92,2.01,5.52c0,16.4-0.01,62.41-0.01,67.37c0,9.28-5.52,3.78-8.71,0.25" style="fill:none;stroke:#999;stroke-width:3"></path>

</svg>