<svg width="981px" height="109px" viewBox="0 0 981 109" xmlns="http://www.w3.org/2000/svg" xmlns:xlink="http://www.w3.org/1999/xlink" xml:space="preserve" version="1.1" baseProfile="full">
<line x1="1" y1="1" x2="980" y2="1" style="stroke:#ddd;stroke-width:2"></line>
<line x1="1" y1="1" x2="1" y2="108" style="stroke:#ddd;stroke-width:2"></line>
<line x1="1" y1="108" x2="980" y2="108" style="stroke:#ddd;stroke-width:2"></line>
<line x1="980" y1="1" x2="980" y2="108" style="stroke:#ddd;stroke-width:2"></line>
<line x1="109" y1="1" x2="109" y2="108" style="stroke:#ddd;stroke-width:2"></line>
<line x1="218" y1="1" x2="218" y2="108" style="stroke:#ddd;stroke-width:2"></line>
<line x1="327" y1="1" x2="327" y2="108" style="stroke:#ddd;stroke-width:2"></line>
<line x1="436" y1="1" x2="436" y2="108" style="stroke:#ddd;stroke-width:2"></line>
<line x1="545" y1="1" x2="545" y2="108" style="stroke:#ddd;stroke-width:2"></line>
<line x1="654" y1="1" x2="654" y2="108" style="stroke:#ddd;stroke-width:2"></line>
<line x1="763" y1="1" x2="763" y2="108" style="stroke:#ddd;stroke-width:2"></line>
<line x1="872" y1="1" x2="872" y2="108" style="stroke:#ddd;stroke-width:2"></line>
<line x1="1" y1="54" x2="980" y2="54" style="stroke:#ddd;stroke-width:2;stroke-dasharray:3 3"></line>
<line x1="55" y1="1" x2="55" y2="108" style="stroke:#ddd;stroke-width:2;stroke-dasharray:3 3"></line>
<line x1="164" y1="1" x2="164" y2="108" style="stroke:#ddd;stroke-width:2;stroke-dasharray:3 3"></line>
<line x1="273" y1="1" x2="273" y2="108" style="stroke:#ddd;stroke-width:2;stroke-dasharray:3 3"></line>
<line x1="382" y1="1" x2="382" y2="108" style="stroke:#ddd;stroke-width:2;stroke-dasharray:3 3"></line>
<line x1="491" y1="1" x2="491" y2="108" style="stroke:#ddd;stroke-width:2;stroke-dasharray:3 3"></line>
<line x1="600" y1="1" x2="600" y2="108" style="stroke:#ddd;stroke-width:2;stroke-dasharray:3 3"></line>
<line x1="709" y1="1" x2="709" y2="108" style="stroke:#ddd;stroke-width:2;stroke-dasharray:3 3"></line>
<line x1="818" y1="1" x2="818" y2="108" style="stroke:#ddd;stroke-width:2;stroke-dasharray:3 3"></line>
<line x1="927" y1="1" x2="927" y2="108" style="stroke:#ddd;stroke-width:2;stroke-dasharray:3 3"></line>
<path d="M35.72,12.89c0.16,1.29-0.06,2.95-0.64,4.48C30.25,30.12,23.0,44.25,10.06,59.72" style="fill:none;stroke:#999;stroke-width:3"></path>

<path d="M144.72,12.89c0.16,1.29-0.06,2.95-0.64,4.48C139.25,30.12,132.0,44.25,119.06,59.72" style="fill:none;stroke:#999;stroke-width:3"></path>
<path d="M133.28,44.5c0.8,0.8,1.01,2.22,1.01,3.48c0,9.77-0.02,28.06-0.03,40.27c0,4.06-0.01,7.44-0.01,9.62" style="fill:none;stroke:#999;stroke-width:3"></path>

<path d="M253.72,12.89c0.16,1.29-0.06,2.95-0.64,4.48C248.25,30.12,241.0,44.25,228.06,59.72" style="fill:none;stroke:#999;stroke-width:3"></path>
<path d="M242.28,44.5c0.8,0.8,1.01,2.22,1.01,3.48c0,9.77-0.02,28.06-0.03,40.27c0,4.06-0.01,7.44-0.01,9.62" style="fill:none;stroke:#999;stroke-width:3"></path>
<path d="M275.06,19.64c-0.27,1.12-0.79,2.11-1.57,2.95c-3.75,4.28-8.25,8.03-19.09,14.15" style="fill:none;stroke:#999;stroke-width:3"></path>

<path d="M362.72,12.89c0.16,1.29-0.06,2.95-0.64,4.48C357.25,30.12,350.0,44.25,337.06,59.72" style="fill:none;stroke:#999;stroke-width:3"></path>
<path d="M351.28,44.5c0.8,0.8,1.01,2.22,1.01,3.48c0,9.77-0.02,28.06-0.03,40.27c0,4.06-0.01,7.44-0.01,9.62" style="fill:none;stroke:#999;stroke-width:3"></path>
<path d="M384.06,19.64c-0.27,1.12-0.79,2.11-1.57,2.95c-3.75,4.28-8.25,8.03-19.09,14.15" style="fill:none;stroke:#999;stroke-width:3"></path>
<path d="M358.81,47.36c3.62,0.63,7.18,0.28,10.83-0.28c12.61-1.95,29.49-4.57,43.62-5.61c2.92-0.43,5.83-0.4,8.73,0.1" style="fill:none;stroke:#999;stroke-width:3"></path>

<path d="M471.72,12.89c0.16,1.29-0.06,2.95-0.64,4.48C466.25,30.12,459.0,44.25,446.06,59.72" style="fill:none;stroke:#999;stroke-width:3"></path>
<path d="M460.28,44.5c0.8,0.8,1.01,2.22,1.01,3.48c0,9.77-0.02,28.06-0.03,40.27c0,4.06-0.01,7.44-0.01,9.62" style="fill:none;stroke:#999;stroke-width:3"></path>
<path d="M493.06,19.64c-0.27,1.12-0.79,2.11-1.57,2.95c-3.75,4.28-8.25,8.03-19.09,14.15" style="fill:none;stroke:#999;stroke-width:3"></path>
<path d="M467.81,47.36c3.62,0.63,7.18,0.28,10.83-0.28c12.61-1.95,29.49-4.57,43.62-5.61c2.92-0.43,5.83-0.4,8.73,0.1" style="fill:none;stroke:#999;stroke-width:3"></path>
<path d="M486.78,32.58c1.01,1.01,1.09,2.42,1.09,4.27c0,14.56,0.02,49.57,0,54.52c-0.04,9.28-4.71,1.59-5.98,0.34" style="fill:none;stroke:#999;stroke-width:3"></path>

<path d="M580.72,12.89c0.16,1.29-0.06,2.95-0.64,4.48C575.25,30.12,568.0,44.25,555.06,59.72" style="fill:none;stroke:#999;stroke-width:3"></path>
<path d="M569.28,44.5c0.8,0.8,1.01,2.22,1.01,3.48c0,9.77-0.02,28.06-0.03,40.27c0,4.06-0.01,7.44-0.01,9.62" style="fill:none;stroke:#999;stroke-width:3"></path>
<path d="M602.06,19.64c-0.27,1.12-0.79,2.11-1.57,2.95c-3.75,4.28-8.25,8.03-19.09,14.15" style="fill:none;stroke:#999;stroke-width:3"></path>
<path d="M576.81,47.36c3.62,0.63,7.18,0.28,10.83-0.28c12.61-1.95,29.49-4.57,43.62-5.61c2.92-0.43,5.83-0.4,8.73,0.1" style="fill:none;stroke:#999;stroke-width:3"></path>
<path d="M595.78,32.58c1.01,1.01,1.09,2.42,1.09,4.27c0,14.56,0.02,49.57,0,54.52c-0.04,9.28-4.71,1.59-5.98,0.34" style="fill:none;stroke:#999;stroke-width:3"></path>
<path d="M578.73,72.77c1.65,1.36,2.99,0.86,4.62-0.01c0.96-0.51,19.44-11.05,23.53-13.51" style="fill:none;stroke:#999;stroke-width:3"></path>

<path d="M689.72,12.89c0.16,1.29-0.06,2.95-0.64,4.48C684.25,30.12,677.0,44.25,664.06,59.72" style="fill:none;stroke:#999;stroke-width:3"></path>
<path d="M678.28,44.5c0.8,0.8,1.01,2.22,1.01,3.48c0,9.77-0.02,28.06-0.03,40.27c0,4.06-0.01,7.44-0.01,9.62" style="fill:none;stroke:#999;stroke-width:3"></path>
<path d="M711.06,19.64c-0.27,1.12-0.79,2.11-1.57,2.95c-3.75,4.28-8.25,8.03-19.09,14.15" style="fill:none;stroke:#999;stroke-width:3"></path>
<path d="M685.81,47.36c3.62,0.63,7.18,0.28,10.83-0.28c12.61-1.95,29.49-4.57,43.62-5.61c2.92-0.43,5.83-0.4,8.73,0.1" style="fill:none;stroke:#999;stroke-width:3"></path>
<path d="M704.78,32.58c1.01,1.01,1.09,2.42,1.09,4.27c0,14.56,0.02,49.57,0,54.52c-0.04,9.28-4.71,1.59-5.98,0.34" style="fill:none;stroke:#999;stroke-width:3"></path>
<path d="M687.73,72.77c1.65,1.36,2.99,0.86,4.62-0.01c0.96-0.51,19.44-11.05,23.53-13.51" style="fill:none;stroke:#999;stroke-width:3"></path>
<path d="M719.54,11.5c1.15,1.84,1.61,3.59,1.87,7.54C723.5,51,732.0,83.5,747.23,95.17c4.64,3.56,4.02-1.17,2.81-7.34" style="fill:none;stroke:#999;stroke-width:3"></path>

<path d="M798.72,12.89c0.16,1.29-0.06,2.95-0.64,4.48C793.25,30.12,786.0,44.25,773.06,59.72" style="fill:none;stroke:#999;stroke-width:3"></path>
<path d="M787.28,44.5c0.8,0.8,1.01,2.22,1.01,3.48c0,9.77-0.02,28.06-0.03,40.27c0,4.06-0.01,7.44-0.01,9.62" style="fill:none;stroke:#999;stroke-width:3"></path>
<path d="M820.06,19.64c-0.27,1.12-0.79,2.11-1.57,2.95c-3.75,4.28-8.25,8.03-19.09,14.15" style="fill:none;stroke:#999;stroke-width:3"></path>
<path d="M794.81,47.36c3.62,0.63,7.18,0.28,10.83-0.28c12.61-1.95,29.49-4.57,43.62-5.61c2.92-0.43,5.83-0.4,8.73,0.1" style="fill:none;stroke:#999;stroke-width:3"></path>
<path d="M813.78,32.58c1.01,1.01,1.09,2.42,1.09,4.27c0,14.56,0.02,49.57,0,54.52c-0.04,9.28-4.71,1.59-5.98,0.34" style="fill:none;stroke:#999;stroke-width:3"></path>
<path d="M796.73,72.77c1.65,1.36,2.99,0.86,4.62-0.01c0.96-0.51,19.44-11.05,23.53-13.51" style="fill:none;stroke:#999;stroke-width:3"></path>
<path d="M828.54,11.5c1.15,1.84,1.61,3.59,1.87,7.54C832.5,51,841.0,83.5,856.23,95.17c4.64,3.56,4.02-1.17,2.81-7.34" style="fill:none;stroke:#999;stroke-width:3"></path>
<path d="M850.86,52.89c-0.16,1.45-0.54,2.81-1.32,4C844.0,65.38,834.0,77.62,822.84,86.75" style="fill:none;stroke:#999;stroke-width:3"></path>

<path d="M907.72,12.89c0.16,1.29-0.06,2.95-0.64,4.48C902.25,30.12,895.0,44.25,882.06,59.72" style="fill:none;stroke:#999;stroke-width:3"></path>
<path d="M896.28,44.5c0.8,0.8,1.01,2.22,1.01,3.48c0,9.77-0.02,28.06-0.03,40.27c0,4.06-0.01,7.44-0.01,9.62" style="fill:none;stroke:#999;stroke-width:3"></path>
<path d="M929.06,19.64c-0.27,1.12-0.79,2.11-1.57,2.95c-3.75,4.28-8.25,8.03-19.09,14.15" style="fill:none;stroke:#999;stroke-width:3"></path>
<path d="M903.81,47.36c3.62,0.63,7.18,0.28,10.83-0.28c12.61-1.95,29.49-4.57,43.62-5.61c2.92-0.43,5.83-0.4,8.73,0.1" style="fill:none;stroke:#999;stroke-width:3"></path>
<path d="M922.78,32.58c1.01,1.01,1.09,2.42,1.09,4.27c0,14.56,0.02,49.57,0,54.52c-0.04,9.28-4.71,1.59-5.98,0.34" style="fill:none;stroke:#999;stroke-width:3"></path>
<path d="M905.73,72.77c1.65,1.36,2.99,0.86,4.62-0.01c0.96-0.51,19.44-11.05,23.53-13.51" style="fill:none;stroke:#999;stroke-width:3"></path>
<path d="M937.54,11.5c1.15,1.84,1.61,3.59,1.87,7.54C941.5,51,950.0,83.5,965.23,95.17c4.64,3.56,4.02-1.17,2.81-7.34" style="fill:none;stroke:#999;stroke-width:3"></path>
<path d="M959.86,52.89c-0.16,1.45-0.54,2.81-1.32,4C953.0,65.38,943.0,77.62,931.84,86.75" style="fill:none;stroke:#999;stroke-width:3"></path>
<path d="M950.63,20c3.1,2.1,7.8,7.15,9.24,10.75" style="fill:none;stroke:#999;stroke-width:3"></path>

</svg>