<svg width="981px" height="109px" viewBox="0 0 981 109" xmlns="http://www.w3.org/2000/svg" xmlns:xlink="http://www.w3.org/1999/xlink" xml:space="preserve" version="1.1" baseProfile="full">
<line x1="1" y1="1" x2="980" y2="1" style="stroke:#ddd;stroke-width:2"></line>
<line x1="1" y1="1" x2="1" y2="108" style="stroke:#ddd;stroke-width:2"></line>
<line x1="1" y1="108" x2="980" y2="108" style="stroke:#ddd;stroke-width:2"></line>
<line x1="980" y1="1" x2="980" y2="108" style="stroke:#ddd;stroke-width:2"></line>
<line x1="109" y1="1" x2="109" y2="108" style="stroke:#ddd;stroke-width:2"></line>
<line x1="218" y1="1" x2="218" y2="108" style="stroke:#ddd;stroke-width:2"></line>
<line x1="327" y1="1" x2="327" y2="108" style="stroke:#ddd;stroke-width:2"></line>
<line x1="436" y1="1" x2="436" y2="108" style="stroke:#ddd;stroke-width:2"></line>
<line x1="545" y1="1" x2="545" y2="108" style="stroke:#ddd;stroke-width:2"></line>
<line x1="654" y1="1" x2="654" y2="108" style="stroke:#ddd;stroke-width:2"></line>
<line x1="763" y1="1" x2="763" y2="108" style="stroke:#ddd;stroke-width:2"></line>
<line x1="872" y1="1" x2="872" y2="108" style="stroke:#ddd;stroke-width:2"></line>
<line x1="1" y1="54" x2="980" y2="54" style="stroke:#ddd;stroke-width:2;stroke-dasharray:3 3"></line>
<line x1="55" y1="1" x2="55" y2="108" style="stroke:#ddd;stroke-width:2;stroke-dasharray:3 3"></line>
<line x1="164" y1="1" x2="164" y2="108" style="stroke:#ddd;stroke-width:2;stroke-dasharray:3 3"></line>
<line x1="273" y1="1" x2="273" y2="108" style="stroke:#ddd;stroke-width:2;stroke-dasharray:3 3"></line>
<line x1="382" y1="1" x2="382" y2="108" style="stroke:#ddd;stroke-width:2;stroke-dasharray:3 3"></line>
<line x1="491" y1="1" x2="491" y2="108" style="stroke:#ddd;stroke-width:2;stroke-dasharray:3 3"></line>
<line x1="600" y1="1" x2="600" y2="108" style="stroke:#ddd;stroke-width:2;stroke-dasharray:3 3"></line>
<line x1="709" y1="1" x2="709" y2="108" style="stroke:#ddd;stroke-width:2;stroke-dasharray:3 3"></line>
<line x1="818" y1="1" x2="818" y2="108" style="stroke:#ddd;stroke-width:2;stroke-dasharray:3 3"></line>
<line x1="927" y1="1" x2="927" y2="108" style="stroke:#ddd;stroke-width:2;stroke-dasharray:3 3"></line>
<path d="M32.99,14.89c0.14,1.18,0.24,2.67-0.12,4.12c-2.34,9.2-11.39,26.98-22.3,39.45" style="fill:none;stroke:#999;stroke-width:3"></path>

<path d="M141.99,14.89c0.14,1.18,0.24,2.67-0.12,4.12c-2.34,9.2-11.39,26.98-22.3,39.45" style="fill:none;stroke:#999;stroke-width:3"></path>
<path d="M134.99,41c0.66,0.68,0.84,2.19,0.84,3.58c0,14.46-0.32,40.08-0.32,49.79" style="fill:none;stroke:#999;stroke-width:3"></path>

<path d="M250.99,14.89c0.14,1.18,0.24,2.67-0.12,4.12c-2.34,9.2-11.39,26.98-22.3,39.45" style="fill:none;stroke:#999;stroke-width:3"></path>
<path d="M243.99,41c0.66,0.68,0.84,2.19,0.84,3.58c0,14.46-0.32,40.08-0.32,49.79" style="fill:none;stroke:#999;stroke-width:3"></path>
<path d="M261.19,25.87c0.95,0.38,2.7,0.51,3.64,0.38c13.85-1.88,23.43-2.88,36.9-3.88c1.58-0.12,2.54,0.18,3.33,0.37" style="fill:none;stroke:#999;stroke-width:3"></path>

<path d="M359.99,14.89c0.14,1.18,0.24,2.67-0.12,4.12c-2.34,9.2-11.39,26.98-22.3,39.45" style="fill:none;stroke:#999;stroke-width:3"></path>
<path d="M352.99,41c0.66,0.68,0.84,2.19,0.84,3.58c0,14.46-0.32,40.08-0.32,49.79" style="fill:none;stroke:#999;stroke-width:3"></path>
<path d="M370.19,25.87c0.95,0.38,2.7,0.51,3.64,0.38c13.85-1.88,23.43-2.88,36.9-3.88c1.58-0.12,2.54,0.18,3.33,0.37" style="fill:none;stroke:#999;stroke-width:3"></path>
<path d="M366.84000000000003,37.78c0.74,0.5,1.69,2.39,1.83,3.05c1.01,4.81,2.22,18.17,3.63,27.28" style="fill:none;stroke:#999;stroke-width:3"></path>

<path d="M468.99,14.89c0.14,1.18,0.24,2.67-0.12,4.12c-2.34,9.2-11.39,26.98-22.3,39.45" style="fill:none;stroke:#999;stroke-width:3"></path>
<path d="M461.99,41c0.66,0.68,0.84,2.19,0.84,3.58c0,14.46-0.32,40.08-0.32,49.79" style="fill:none;stroke:#999;stroke-width:3"></path>
<path d="M479.19,25.87c0.95,0.38,2.7,0.51,3.64,0.38c13.85-1.88,23.43-2.88,36.9-3.88c1.58-0.12,2.54,0.18,3.33,0.37" style="fill:none;stroke:#999;stroke-width:3"></path>
<path d="M475.84000000000003,37.78c0.74,0.5,1.69,2.39,1.83,3.05c1.01,4.81,2.22,18.17,3.63,27.28" style="fill:none;stroke:#999;stroke-width:3"></path>
<path d="M477.2,39.36c11.3-1.15,35.96-4.58,43.66-4.76c3.19-0.07,3.84,1.57,3.71,3.36c-0.47,6.17-2.12,16.28-4.65,26.4" style="fill:none;stroke:#999;stroke-width:3"></path>

<path d="M577.99,14.89c0.14,1.18,0.24,2.67-0.12,4.12c-2.34,9.2-11.39,26.98-22.3,39.45" style="fill:none;stroke:#999;stroke-width:3"></path>
<path d="M570.99,41c0.66,0.68,0.84,2.19,0.84,3.58c0,14.46-0.32,40.08-0.32,49.79" style="fill:none;stroke:#999;stroke-width:3"></path>
<path d="M588.19,25.87c0.95,0.38,2.7,0.51,3.64,0.38c13.85-1.88,23.43-2.88,36.9-3.88c1.58-0.12,2.54,0.18,3.33,0.37" style="fill:none;stroke:#999;stroke-width:3"></path>
<path d="M584.84,37.78c0.74,0.5,1.69,2.39,1.83,3.05c1.01,4.81,2.22,18.17,3.63,27.28" style="fill:none;stroke:#999;stroke-width:3"></path>
<path d="M586.2,39.36c11.3-1.15,35.96-4.58,43.66-4.76c3.19-0.07,3.84,1.57,3.71,3.36c-0.47,6.17-2.12,16.28-4.65,26.4" style="fill:none;stroke:#999;stroke-width:3"></path>
<path d="M588.36,52.12c8.52-0.25,29.39-2.87,43.36-3.25" style="fill:none;stroke:#999;stroke-width:3"></path>

<path d="M686.99,14.89c0.14,1.18,0.24,2.67-0.12,4.12c-2.34,9.2-11.39,26.98-22.3,39.45" style="fill:none;stroke:#999;stroke-width:3"></path>
<path d="M679.99,41c0.66,0.68,0.84,2.19,0.84,3.58c0,14.46-0.32,40.08-0.32,49.79" style="fill:none;stroke:#999;stroke-width:3"></path>
<path d="M697.19,25.87c0.95,0.38,2.7,0.51,3.64,0.38c13.85-1.88,23.43-2.88,36.9-3.88c1.58-0.12,2.54,0.18,3.33,0.37" style="fill:none;stroke:#999;stroke-width:3"></path>
<path d="M693.84,37.78c0.74,0.5,1.69,2.39,1.83,3.05c1.01,4.81,2.22,18.17,3.63,27.28" style="fill:none;stroke:#999;stroke-width:3"></path>
<path d="M695.2,39.36c11.3-1.15,35.96-4.58,43.66-4.76c3.19-0.07,3.84,1.57,3.71,3.36c-0.47,6.17-2.12,16.28-4.65,26.4" style="fill:none;stroke:#999;stroke-width:3"></path>
<path d="M697.36,52.12c8.52-0.25,29.39-2.87,43.36-3.25" style="fill:none;stroke:#999;stroke-width:3"></path>
<path d="M699.36,66.12c9.9-1,25.16-2.5,38.05-2.5" style="fill:none;stroke:#999;stroke-width:3"></path>

<path d="M795.99,14.89c0.14,1.18,0.24,2.67-0.12,4.12c-2.34,9.2-11.39,26.98-22.3,39.45" style="fill:none;stroke:#999;stroke-width:3"></path>
<path d="M788.99,41c0.66,0.68,0.84,2.19,0.84,3.58c0,14.46-0.32,40.08-0.32,49.79" style="fill:none;stroke:#999;stroke-width:3"></path>
<path d="M806.19,25.87c0.95,0.38,2.7,0.51,3.64,0.38c13.85-1.88,23.43-2.88,36.9-3.88c1.58-0.12,2.54,0.18,3.33,0.37" style="fill:none;stroke:#999;stroke-width:3"></path>
<path d="M802.84,37.78c0.74,0.5,1.69,2.39,1.83,3.05c1.01,4.81,2.22,18.17,3.63,27.28" style="fill:none;stroke:#999;stroke-width:3"></path>
<path d="M804.2,39.36c11.3-1.15,35.96-4.58,43.66-4.76c3.19-0.07,3.84,1.57,3.71,3.36c-0.47,6.17-2.12,16.28-4.65,26.4" style="fill:none;stroke:#999;stroke-width:3"></path>
<path d="M806.36,52.12c8.52-0.25,29.39-2.87,43.36-3.25" style="fill:none;stroke:#999;stroke-width:3"></path>
<path d="M808.36,66.12c9.9-1,25.16-2.5,38.05-2.5" style="fill:none;stroke:#999;stroke-width:3"></path>
<path d="M800.25,80.41c1.36,0.77,3.82,0.9,5.19,0.77C817.5,80,836.78,77.87,852.76,77.37c2.26-0.07,3.61,0.37,4.74,0.75" style="fill:none;stroke:#999;stroke-width:3"></path>

<path d="M904.99,14.89c0.14,1.18,0.24,2.67-0.12,4.12c-2.34,9.2-11.39,26.98-22.3,39.45" style="fill:none;stroke:#999;stroke-width:3"></path>
<path d="M897.99,41c0.66,0.68,0.84,2.19,0.84,3.58c0,14.46-0.32,40.08-0.32,49.79" style="fill:none;stroke:#999;stroke-width:3"></path>
<path d="M915.19,25.87c0.95,0.38,2.7,0.51,3.64,0.38c13.85-1.88,23.43-2.88,36.9-3.88c1.58-0.12,2.54,0.18,3.33,0.37" style="fill:none;stroke:#999;stroke-width:3"></path>
<path d="M911.84,37.78c0.74,0.5,1.69,2.39,1.83,3.05c1.01,4.81,2.22,18.17,3.63,27.28" style="fill:none;stroke:#999;stroke-width:3"></path>
<path d="M913.2,39.36c11.3-1.15,35.96-4.58,43.66-4.76c3.19-0.07,3.84,1.57,3.71,3.36c-0.47,6.17-2.12,16.28-4.65,26.4" style="fill:none;stroke:#999;stroke-width:3"></path>
<path d="M915.36,52.12c8.52-0.25,29.39-2.87,43.36-3.25" style="fill:none;stroke:#999;stroke-width:3"></path>
<path d="M917.36,66.12c9.9-1,25.16-2.5,38.05-2.5" style="fill:none;stroke:#999;stroke-width:3"></path>
<path d="M909.25,80.41c1.36,0.77,3.82,0.9,5.19,0.77C926.5,80,945.78,77.87,961.76,77.37c2.26-0.07,3.61,0.37,4.74,0.75" style="fill:none;stroke:#999;stroke-width:3"></path>
<path d="M934.95,11c0.7,0.6,1.31,2.5,1.31,5.16c0,7.59-0.23,70.09-0.23,82.59" style="fill:none;stroke:#999;stroke-width:3"></path>

</svg>