<svg width="1090px" height="109px" viewBox="0 0 1090 109" xmlns="http://www.w3.org/2000/svg" xmlns:xlink="http://www.w3.org/1999/xlink" xml:space="preserve" version="1.1" baseProfile="full">
<line x1="1" y1="1" x2="1089" y2="1" style="stroke:#ddd;stroke-width:2"></line>
<line x1="1" y1="1" x2="1" y2="108" style="stroke:#ddd;stroke-width:2"></line>
<line x1="1" y1="108" x2="1089" y2="108" style="stroke:#ddd;stroke-width:2"></line>
<line x1="1089" y1="1" x2="1089" y2="108" style="stroke:#ddd;stroke-width:2"></line>
<line x1="109" y1="1" x2="109" y2="108" style="stroke:#ddd;stroke-width:2"></line>
<line x1="218" y1="1" x2="218" y2="108" style="stroke:#ddd;stroke-width:2"></line>
<line x1="327" y1="1" x2="327" y2="108" style="stroke:#ddd;stroke-width:2"></line>
<line x1="436" y1="1" x2="436" y2="108" style="stroke:#ddd;stroke-width:2"></line>
<line x1="545" y1="1" x2="545" y2="108" style="stroke:#ddd;stroke-width:2"></line>
<line x1="654" y1="1" x2="654" y2="108" style="stroke:#ddd;stroke-width:2"></line>
<line x1="763" y1="1" x2="763" y2="108" style="stroke:#ddd;stroke-width:2"></line>
<line x1="872" y1="1" x2="872" y2="108" style="stroke:#ddd;stroke-width:2"></line>
<line x1="981" y1="1" x2="981" y2="108" style="stroke:#ddd;stroke-width:2"></line>
<line x1="1" y1="54" x2="1089" y2="54" style="stroke:#ddd;stroke-width:2;stroke-dasharray:3 3"></line>
<line x1="55" y1="1" x2="55" y2="108" style="stroke:#ddd;stroke-width:2;stroke-dasharray:3 3"></line>
<line x1="164" y1="1" x2="164" y2="108" style="stroke:#ddd;stroke-width:2;stroke-dasharray:3 3"></line>
<line x1="273" y1="1" x2="273" y2="108" style="stroke:#ddd;stroke-width:2;stroke-dasharray:3 3"></line>
<line x1="382" y1="1" x2="382" y2="108" style="stroke:#ddd;stroke-width:2;stroke-dasharray:3 3"></line>
<line x1="491" y1="1" x2="491" y2="108" style="stroke:#ddd;stroke-width:2;stroke-dasharray:3 3"></line>
<line x1="600" y1="1" x2="600" y2="108" style="stroke:#ddd;stroke-width:2;stroke-dasharray:3 3"></line>
<line x1="709" y1="1" x2="709" y2="108" style="stroke:#ddd;stroke-width:2;stroke-dasharray:3 3"></line>
<line x1="818" y1="1" x2="818" y2="108" style="stroke:#ddd;stroke-width:2;stroke-dasharray:3 3"></line>
<line x1="927" y1="1" x2="927" y2="108" style="stroke:#ddd;stroke-width:2;stroke-dasharray:3 3"></line>
<line x1="1036" y1="1" x2="1036" y2="108" style="stroke:#ddd;stroke-width:2;stroke-dasharray:3 3"></line>
<path d="M31.99,14.39c0.14,1.1,0.24,2.47-0.12,3.82c-2.34,8.51-9.89,25.47-20.8,37.01" style="fill:none;stroke:#999;stroke-width:3"></path>

<path d="M140.99,14.39c0.14,1.1,0.24,2.47-0.12,3.82c-2.34,8.51-9.89,25.47-20.8,37.01" style="fill:none;stroke:#999;stroke-width:3"></path>
<path d="M133.96,38.5c0.71,0.73,0.91,2.37,0.91,3.88c0,15.65-0.35,41.23-0.35,51.74" style="fill:none;stroke:#999;stroke-width:3"></path>

<path d="M249.99,14.39c0.14,1.1,0.24,2.47-0.12,3.82c-2.34,8.51-9.89,25.47-20.8,37.01" style="fill:none;stroke:#999;stroke-width:3"></path>
<path d="M242.96,38.5c0.71,0.73,0.91,2.37,0.91,3.88c0,15.65-0.35,41.23-0.35,51.74" style="fill:none;stroke:#999;stroke-width:3"></path>
<path d="M280.0,10.13c0.61,0.42,1.9,3.12,2.02,3.96c0.12,0.83,0.06,3.54-0.06,8.75" style="fill:none;stroke:#999;stroke-width:3"></path>

<path d="M358.99,14.39c0.14,1.1,0.24,2.47-0.12,3.82c-2.34,8.51-9.89,25.47-20.8,37.01" style="fill:none;stroke:#999;stroke-width:3"></path>
<path d="M351.96000000000004,38.5c0.71,0.73,0.91,2.37,0.91,3.88c0,15.65-0.35,41.23-0.35,51.74" style="fill:none;stroke:#999;stroke-width:3"></path>
<path d="M389.0,10.13c0.61,0.42,1.9,3.12,2.02,3.96c0.12,0.83,0.06,3.54-0.06,8.75" style="fill:none;stroke:#999;stroke-width:3"></path>
<path d="M364.81,25.03c1.22,0.59,3.46,0.68,4.68,0.59c12.72-0.98,30.13-4.94,46.07-5.17c2.04-0.03,3.26,0.28,4.28,0.57" style="fill:none;stroke:#999;stroke-width:3"></path>

<path d="M467.99,14.39c0.14,1.1,0.24,2.47-0.12,3.82c-2.34,8.51-9.89,25.47-20.8,37.01" style="fill:none;stroke:#999;stroke-width:3"></path>
<path d="M460.96000000000004,38.5c0.71,0.73,0.91,2.37,0.91,3.88c0,15.65-0.35,41.23-0.35,51.74" style="fill:none;stroke:#999;stroke-width:3"></path>
<path d="M498.0,10.13c0.61,0.42,1.9,3.12,2.02,3.96c0.12,0.83,0.06,3.54-0.06,8.75" style="fill:none;stroke:#999;stroke-width:3"></path>
<path d="M473.81,25.03c1.22,0.59,3.46,0.68,4.68,0.59c12.72-0.98,30.13-4.94,46.07-5.17c2.04-0.03,3.26,0.28,4.28,0.57" style="fill:none;stroke:#999;stroke-width:3"></path>
<path d="M478.73,27.53c0.04,1.39,0.07,3.6-0.07,5.6c-0.85,11.81-1.16,40.12-11.91,53.16" style="fill:none;stroke:#999;stroke-width:3"></path>

<path d="M576.99,14.39c0.14,1.1,0.24,2.47-0.12,3.82c-2.34,8.51-9.89,25.47-20.8,37.01" style="fill:none;stroke:#999;stroke-width:3"></path>
<path d="M569.96,38.5c0.71,0.73,0.91,2.37,0.91,3.88c0,15.65-0.35,41.23-0.35,51.74" style="fill:none;stroke:#999;stroke-width:3"></path>
<path d="M607.0,10.13c0.61,0.42,1.9,3.12,2.02,3.96c0.12,0.83,0.06,3.54-0.06,8.75" style="fill:none;stroke:#999;stroke-width:3"></path>
<path d="M582.81,25.03c1.22,0.59,3.46,0.68,4.68,0.59c12.72-0.98,30.13-4.94,46.07-5.17c2.04-0.03,3.26,0.28,4.28,0.57" style="fill:none;stroke:#999;stroke-width:3"></path>
<path d="M587.73,27.53c0.04,1.39,0.07,3.6-0.07,5.6c-0.85,11.81-1.16,40.12-11.91,53.16" style="fill:none;stroke:#999;stroke-width:3"></path>
<path d="M606.48,32.2c0.17,1.51-0.05,3.48-0.59,4.77c-3.45,8.23-8.16,18.6-16.07,28.62" style="fill:none;stroke:#999;stroke-width:3"></path>

<path d="M685.99,14.39c0.14,1.1,0.24,2.47-0.12,3.82c-2.34,8.51-9.89,25.47-20.8,37.01" style="fill:none;stroke:#999;stroke-width:3"></path>
<path d="M678.96,38.5c0.71,0.73,0.91,2.37,0.91,3.88c0,15.65-0.35,41.23-0.35,51.74" style="fill:none;stroke:#999;stroke-width:3"></path>
<path d="M716.0,10.13c0.61,0.42,1.9,3.12,2.02,3.96c0.12,0.83,0.06,3.54-0.06,8.75" style="fill:none;stroke:#999;stroke-width:3"></path>
<path d="M691.81,25.03c1.22,0.59,3.46,0.68,4.68,0.59c12.72-0.98,30.13-4.94,46.07-5.17c2.04-0.03,3.26,0.28,4.28,0.57" style="fill:none;stroke:#999;stroke-width:3"></path>
<path d="M696.73,27.53c0.04,1.39,0.07,3.6-0.07,5.6c-0.85,11.81-1.16,40.12-11.91,53.16" style="fill:none;stroke:#999;stroke-width:3"></path>
<path d="M715.48,32.2c0.17,1.51-0.05,3.48-0.59,4.77c-3.45,8.23-8.16,18.6-16.07,28.62" style="fill:none;stroke:#999;stroke-width:3"></path>
<path d="M708.47,53.57c0.53,0.68,0.7,1.9,0.7,3.18c0,11-0.4,31.5-0.4,37.79" style="fill:none;stroke:#999;stroke-width:3"></path>

<path d="M794.99,14.39c0.14,1.1,0.24,2.47-0.12,3.82c-2.34,8.51-9.89,25.47-20.8,37.01" style="fill:none;stroke:#999;stroke-width:3"></path>
<path d="M787.96,38.5c0.71,0.73,0.91,2.37,0.91,3.88c0,15.65-0.35,41.23-0.35,51.74" style="fill:none;stroke:#999;stroke-width:3"></path>
<path d="M825.0,10.13c0.61,0.42,1.9,3.12,2.02,3.96c0.12,0.83,0.06,3.54-0.06,8.75" style="fill:none;stroke:#999;stroke-width:3"></path>
<path d="M800.81,25.03c1.22,0.59,3.46,0.68,4.68,0.59c12.72-0.98,30.13-4.94,46.07-5.17c2.04-0.03,3.26,0.28,4.28,0.57" style="fill:none;stroke:#999;stroke-width:3"></path>
<path d="M805.73,27.53c0.04,1.39,0.07,3.6-0.07,5.6c-0.85,11.81-1.16,40.12-11.91,53.16" style="fill:none;stroke:#999;stroke-width:3"></path>
<path d="M824.48,32.2c0.17,1.51-0.05,3.48-0.59,4.77c-3.45,8.23-8.16,18.6-16.07,28.62" style="fill:none;stroke:#999;stroke-width:3"></path>
<path d="M817.47,53.57c0.53,0.68,0.7,1.9,0.7,3.18c0,11-0.4,31.5-0.4,37.79" style="fill:none;stroke:#999;stroke-width:3"></path>
<path d="M824.9,49.26c1.03,0.37,2.91,0.26,3.94,0.14c6.04-0.68,18.33-2.5,28.13-2.94c1.71-0.08,2.74,0.18,3.6,0.36" style="fill:none;stroke:#999;stroke-width:3"></path>

<path d="M903.99,14.39c0.14,1.1,0.24,2.47-0.12,3.82c-2.34,8.51-9.89,25.47-20.8,37.01" style="fill:none;stroke:#999;stroke-width:3"></path>
<path d="M896.96,38.5c0.71,0.73,0.91,2.37,0.91,3.88c0,15.65-0.35,41.23-0.35,51.74" style="fill:none;stroke:#999;stroke-width:3"></path>
<path d="M934.0,10.13c0.61,0.42,1.9,3.12,2.02,3.96c0.12,0.83,0.06,3.54-0.06,8.75" style="fill:none;stroke:#999;stroke-width:3"></path>
<path d="M909.81,25.03c1.22,0.59,3.46,0.68,4.68,0.59c12.72-0.98,30.13-4.94,46.07-5.17c2.04-0.03,3.26,0.28,4.28,0.57" style="fill:none;stroke:#999;stroke-width:3"></path>
<path d="M914.73,27.53c0.04,1.39,0.07,3.6-0.07,5.6c-0.85,11.81-1.16,40.12-11.91,53.16" style="fill:none;stroke:#999;stroke-width:3"></path>
<path d="M933.48,32.2c0.17,1.51-0.05,3.48-0.59,4.77c-3.45,8.23-8.16,18.6-16.07,28.62" style="fill:none;stroke:#999;stroke-width:3"></path>
<path d="M926.47,53.57c0.53,0.68,0.7,1.9,0.7,3.18c0,11-0.4,31.5-0.4,37.79" style="fill:none;stroke:#999;stroke-width:3"></path>
<path d="M933.9,49.26c1.03,0.37,2.91,0.26,3.94,0.14c6.04-0.68,18.33-2.5,28.13-2.94c1.71-0.08,2.74,0.18,3.6,0.36" style="fill:none;stroke:#999;stroke-width:3"></path>
<path d="M953.8,29.71c0.06,0.39,1.36,2.02,1.36,4.49c0,17.06-0.17,52.93-0.17,56.96c0,7.55-4.97,1.45-6.47,0.2" style="fill:none;stroke:#999;stroke-width:3"></path>

<path d="M1012.99,14.39c0.14,1.1,0.24,2.47-0.12,3.82c-2.34,8.51-9.89,25.47-20.8,37.01" style="fill:none;stroke:#999;stroke-width:3"></path>
<path d="M1005.96,38.5c0.71,0.73,0.91,2.37,0.91,3.88c0,15.65-0.35,41.23-0.35,51.74" style="fill:none;stroke:#999;stroke-width:3"></path>
<path d="M1043.0,10.13c0.61,0.42,1.9,3.12,2.02,3.96c0.12,0.83,0.06,3.54-0.06,8.75" style="fill:none;stroke:#999;stroke-width:3"></path>
<path d="M1018.81,25.03c1.22,0.59,3.46,0.68,4.68,0.59c12.72-0.98,30.13-4.94,46.07-5.17c2.04-0.03,3.26,0.28,4.28,0.57" style="fill:none;stroke:#999;stroke-width:3"></path>
<path d="M1023.73,27.53c0.04,1.39,0.07,3.6-0.07,5.6c-0.85,11.81-1.16,40.12-11.91,53.16" style="fill:none;stroke:#999;stroke-width:3"></path>
<path d="M1042.48,32.2c0.17,1.51-0.05,3.48-0.59,4.77c-3.45,8.23-8.16,18.6-16.07,28.62" style="fill:none;stroke:#999;stroke-width:3"></path>
<path d="M1035.47,53.57c0.53,0.68,0.7,1.9,0.7,3.18c0,11-0.4,31.5-0.4,37.79" style="fill:none;stroke:#999;stroke-width:3"></path>
<path d="M1042.9,49.26c1.03,0.37,2.91,0.26,3.94,0.14c6.04-0.68,18.33-2.5,28.13-2.94c1.71-0.08,2.74,0.18,3.6,0.36" style="fill:none;stroke:#999;stroke-width:3"></path>
<path d="M1062.8,29.71c0.06,0.39,1.36,2.02,1.36,4.49c0,17.06-0.17,52.93-0.17,56.96c0,7.55-4.97,1.45-6.47,0.2" style="fill:none;stroke:#999;stroke-width:3"></path>
<path d="M1046.36,59.2c2.4,2.21,6.2,9.09,6.8,12.53" style="fill:none;stroke:#999;stroke-width:3"></path>

</svg>