<svg width="1090px" height="109px" viewBox="0 0 1090 109" xmlns="http://www.w3.org/2000/svg" xmlns:xlink="http://www.w3.org/1999/xlink" xml:space="preserve" version="1.1" baseProfile="full">
<line x1="1" y1="1" x2="1089" y2="1" style="stroke:#ddd;stroke-width:2"></line>
<line x1="1" y1="1" x2="1" y2="108" style="stroke:#ddd;stroke-width:2"></line>
<line x1="1" y1="108" x2="1089" y2="108" style="stroke:#ddd;stroke-width:2"></line>
<line x1="1089" y1="1" x2="1089" y2="108" style="stroke:#ddd;stroke-width:2"></line>
<line x1="109" y1="1" x2="109" y2="108" style="stroke:#ddd;stroke-width:2"></line>
<line x1="218" y1="1" x2="218" y2="108" style="stroke:#ddd;stroke-width:2"></line>
<line x1="327" y1="1" x2="327" y2="108" style="stroke:#ddd;stroke-width:2"></line>
<line x1="436" y1="1" x2="436" y2="108" style="stroke:#ddd;stroke-width:2"></line>
<line x1="545" y1="1" x2="545" y2="108" style="stroke:#ddd;stroke-width:2"></line>
<line x1="654" y1="1" x2="654" y2="108" style="stroke:#ddd;stroke-width:2"></line>
<line x1="763" y1="1" x2="763" y2="108" style="stroke:#ddd;stroke-width:2"></line>
<line x1="872" y1="1" x2="872" y2="108" style="stroke:#ddd;stroke-width:2"></line>
<line x1="981" y1="1" x2="981" y2="108" style="stroke:#ddd;stroke-width:2"></line>
<line x1="1" y1="54" x2="1089" y2="54" style="stroke:#ddd;stroke-width:2;stroke-dasharray:3 3"></line>
<line x1="55" y1="1" x2="55" y2="108" style="stroke:#ddd;stroke-width:2;stroke-dasharray:3 3"></line>
<line x1="164" y1="1" x2="164" y2="108" style="stroke:#ddd;stroke-width:2;stroke-dasharray:3 3"></line>
<line x1="273" y1="1" x2="273" y2="108" style="stroke:#ddd;stroke-width:2;stroke-dasharray:3 3"></line>
<line x1="382" y1="1" x2="382" y2="108" style="stroke:#ddd;stroke-width:2;stroke-dasharray:3 3"></line>
<line x1="491" y1="1" x2="491" y2="108" style="stroke:#ddd;stroke-width:2;stroke-dasharray:3 3"></line>
<line x1="600" y1="1" x2="600" y2="108" style="stroke:#ddd;stroke-width:2;stroke-dasharray:3 3"></line>
<line x1="709" y1="1" x2="709" y2="108" style="stroke:#ddd;stroke-width:2;stroke-dasharray:3 3"></line>
<line x1="818" y1="1" x2="818" y2="108" style="stroke:#ddd;stroke-width:2;stroke-dasharray:3 3"></line>
<line x1="927" y1="1" x2="927" y2="108" style="stroke:#ddd;stroke-width:2;stroke-dasharray:3 3"></line>
<line x1="1036" y1="1" x2="1036" y2="108" style="stroke:#ddd;stroke-width:2;stroke-dasharray:3 3"></line>
<path d="M30.5,17.89c0.12,1.14,0.21,2.58-0.11,3.98c-2.06,8.88-10,26.05-19.58,38.09" style="fill:none;stroke:#999;stroke-width:3"></path>

<path d="M139.5,17.89c0.12,1.14,0.21,2.58-0.11,3.98c-2.06,8.88-10,26.05-19.58,38.09" style="fill:none;stroke:#999;stroke-width:3"></path>
<path d="M132.49,45c0.66,0.68,0.84,2.19,0.84,3.58c0,14.46-0.32,38.08-0.32,47.79" style="fill:none;stroke:#999;stroke-width:3"></path>

<path d="M248.5,17.89c0.12,1.14,0.21,2.58-0.11,3.98c-2.06,8.88-10,26.05-19.58,38.09" style="fill:none;stroke:#999;stroke-width:3"></path>
<path d="M241.49,45c0.66,0.68,0.84,2.19,0.84,3.58c0,14.46-0.32,38.08-0.32,47.79" style="fill:none;stroke:#999;stroke-width:3"></path>
<path d="M263.33,13.88c0.66,0.43,2.07,3.18,2.2,4.04c0.13,0.85-0.09,24.15-0.22,29.47" style="fill:none;stroke:#999;stroke-width:3"></path>

<path d="M357.5,17.89c0.12,1.14,0.21,2.58-0.11,3.98c-2.06,8.88-10,26.05-19.58,38.09" style="fill:none;stroke:#999;stroke-width:3"></path>
<path d="M350.49,45c0.66,0.68,0.84,2.19,0.84,3.58c0,14.46-0.32,38.08-0.32,47.79" style="fill:none;stroke:#999;stroke-width:3"></path>
<path d="M372.33,13.88c0.66,0.43,2.07,3.18,2.2,4.04c0.13,0.85-0.09,24.15-0.22,29.47" style="fill:none;stroke:#999;stroke-width:3"></path>
<path d="M374.92,31.27c1.76,0,4.97-0.93,10.1-1.64c1.84-0.25,2.64-0.23,3.74-0.18" style="fill:none;stroke:#999;stroke-width:3"></path>

<path d="M466.5,17.89c0.12,1.14,0.21,2.58-0.11,3.98c-2.06,8.88-10,26.05-19.58,38.09" style="fill:none;stroke:#999;stroke-width:3"></path>
<path d="M459.49,45c0.66,0.68,0.84,2.19,0.84,3.58c0,14.46-0.32,38.08-0.32,47.79" style="fill:none;stroke:#999;stroke-width:3"></path>
<path d="M481.33,13.88c0.66,0.43,2.07,3.18,2.2,4.04c0.13,0.85-0.09,24.15-0.22,29.47" style="fill:none;stroke:#999;stroke-width:3"></path>
<path d="M483.92,31.27c1.76,0,4.97-0.93,10.1-1.64c1.84-0.25,2.64-0.23,3.74-0.18" style="fill:none;stroke:#999;stroke-width:3"></path>
<path d="M466.41,49.05c2.15,0.72,3.19,0.72,5,0.6c6.8-0.45,17.46-3.01,25.76-3.71c1.04-0.09,3.15-0.33,4.27,0.07" style="fill:none;stroke:#999;stroke-width:3"></path>

<path d="M575.5,17.89c0.12,1.14,0.21,2.58-0.11,3.98c-2.06,8.88-10,26.05-19.58,38.09" style="fill:none;stroke:#999;stroke-width:3"></path>
<path d="M568.49,45c0.66,0.68,0.84,2.19,0.84,3.58c0,14.46-0.32,38.08-0.32,47.79" style="fill:none;stroke:#999;stroke-width:3"></path>
<path d="M590.3299999999999,13.88c0.66,0.43,2.07,3.18,2.2,4.04c0.13,0.85-0.09,24.15-0.22,29.47" style="fill:none;stroke:#999;stroke-width:3"></path>
<path d="M592.9200000000001,31.27c1.76,0,4.97-0.93,10.1-1.64c1.84-0.25,2.64-0.23,3.74-0.18" style="fill:none;stroke:#999;stroke-width:3"></path>
<path d="M575.4100000000001,49.05c2.15,0.72,3.19,0.72,5,0.6c6.8-0.45,17.46-3.01,25.76-3.71c1.04-0.09,3.15-0.33,4.27,0.07" style="fill:none;stroke:#999;stroke-width:3"></path>
<path d="M592.21,50.53c0.07,0.41,1.07,2.12,1.07,4.71c0,13.52-0.22,29.57-0.22,33.8c0,9.59-6.14,1.28-7.42,0.21" style="fill:none;stroke:#999;stroke-width:3"></path>

<path d="M684.5,17.89c0.12,1.14,0.21,2.58-0.11,3.98c-2.06,8.88-10,26.05-19.58,38.09" style="fill:none;stroke:#999;stroke-width:3"></path>
<path d="M677.49,45c0.66,0.68,0.84,2.19,0.84,3.58c0,14.46-0.32,38.08-0.32,47.79" style="fill:none;stroke:#999;stroke-width:3"></path>
<path d="M699.3299999999999,13.88c0.66,0.43,2.07,3.18,2.2,4.04c0.13,0.85-0.09,24.15-0.22,29.47" style="fill:none;stroke:#999;stroke-width:3"></path>
<path d="M701.9200000000001,31.27c1.76,0,4.97-0.93,10.1-1.64c1.84-0.25,2.64-0.23,3.74-0.18" style="fill:none;stroke:#999;stroke-width:3"></path>
<path d="M684.4100000000001,49.05c2.15,0.72,3.19,0.72,5,0.6c6.8-0.45,17.46-3.01,25.76-3.71c1.04-0.09,3.15-0.33,4.27,0.07" style="fill:none;stroke:#999;stroke-width:3"></path>
<path d="M701.21,50.53c0.07,0.41,1.07,2.12,1.07,4.71c0,13.52-0.22,29.57-0.22,33.8c0,9.59-6.14,1.28-7.42,0.21" style="fill:none;stroke:#999;stroke-width:3"></path>
<path d="M692.82,62.79c0.03,0.51,0.05,1.31-0.05,2.04c-0.63,4.31-4.25,13.76-9.2,19.55" style="fill:none;stroke:#999;stroke-width:3"></path>

<path d="M793.5,17.89c0.12,1.14,0.21,2.58-0.11,3.98c-2.06,8.88-10,26.05-19.58,38.09" style="fill:none;stroke:#999;stroke-width:3"></path>
<path d="M786.49,45c0.66,0.68,0.84,2.19,0.84,3.58c0,14.46-0.32,38.08-0.32,47.79" style="fill:none;stroke:#999;stroke-width:3"></path>
<path d="M808.3299999999999,13.88c0.66,0.43,2.07,3.18,2.2,4.04c0.13,0.85-0.09,24.15-0.22,29.47" style="fill:none;stroke:#999;stroke-width:3"></path>
<path d="M810.9200000000001,31.27c1.76,0,4.97-0.93,10.1-1.64c1.84-0.25,2.64-0.23,3.74-0.18" style="fill:none;stroke:#999;stroke-width:3"></path>
<path d="M793.4100000000001,49.05c2.15,0.72,3.19,0.72,5,0.6c6.8-0.45,17.46-3.01,25.76-3.71c1.04-0.09,3.15-0.33,4.27,0.07" style="fill:none;stroke:#999;stroke-width:3"></path>
<path d="M810.21,50.53c0.07,0.41,1.07,2.12,1.07,4.71c0,13.52-0.22,29.57-0.22,33.8c0,9.59-6.14,1.28-7.42,0.21" style="fill:none;stroke:#999;stroke-width:3"></path>
<path d="M801.82,62.79c0.03,0.51,0.05,1.31-0.05,2.04c-0.63,4.31-4.25,13.76-9.2,19.55" style="fill:none;stroke:#999;stroke-width:3"></path>
<path d="M819.28,61.61c2.25,2.78,5.82,11.42,6.38,15.75" style="fill:none;stroke:#999;stroke-width:3"></path>

<path d="M902.5,17.89c0.12,1.14,0.21,2.58-0.11,3.98c-2.06,8.88-10,26.05-19.58,38.09" style="fill:none;stroke:#999;stroke-width:3"></path>
<path d="M895.49,45c0.66,0.68,0.84,2.19,0.84,3.58c0,14.46-0.32,38.08-0.32,47.79" style="fill:none;stroke:#999;stroke-width:3"></path>
<path d="M917.3299999999999,13.88c0.66,0.43,2.07,3.18,2.2,4.04c0.13,0.85-0.09,24.15-0.22,29.47" style="fill:none;stroke:#999;stroke-width:3"></path>
<path d="M919.9200000000001,31.27c1.76,0,4.97-0.93,10.1-1.64c1.84-0.25,2.64-0.23,3.74-0.18" style="fill:none;stroke:#999;stroke-width:3"></path>
<path d="M902.4100000000001,49.05c2.15,0.72,3.19,0.72,5,0.6c6.8-0.45,17.46-3.01,25.76-3.71c1.04-0.09,3.15-0.33,4.27,0.07" style="fill:none;stroke:#999;stroke-width:3"></path>
<path d="M919.21,50.53c0.07,0.41,1.07,2.12,1.07,4.71c0,13.52-0.22,29.57-0.22,33.8c0,9.59-6.14,1.28-7.42,0.21" style="fill:none;stroke:#999;stroke-width:3"></path>
<path d="M910.82,62.79c0.03,0.51,0.05,1.31-0.05,2.04c-0.63,4.31-4.25,13.76-9.2,19.55" style="fill:none;stroke:#999;stroke-width:3"></path>
<path d="M928.28,61.61c2.25,2.78,5.82,11.42,6.38,15.75" style="fill:none;stroke:#999;stroke-width:3"></path>
<path d="M939.51,29.51c1.39,0.46,1.52,0.93,4.35,0.46c3.76-0.63,15.52-3.61,17.49-4.07c2.22-0.52,4.37,1.44,3.67,3.95c-8.17,29.62-14.77,46.91-33.75,64.91" style="fill:none;stroke:#999;stroke-width:3"></path>

<path d="M1011.5,17.89c0.12,1.14,0.21,2.58-0.11,3.98c-2.06,8.88-10,26.05-19.58,38.09" style="fill:none;stroke:#999;stroke-width:3"></path>
<path d="M1004.49,45c0.66,0.68,0.84,2.19,0.84,3.58c0,14.46-0.32,38.08-0.32,47.79" style="fill:none;stroke:#999;stroke-width:3"></path>
<path d="M1026.33,13.88c0.66,0.43,2.07,3.18,2.2,4.04c0.13,0.85-0.09,24.15-0.22,29.47" style="fill:none;stroke:#999;stroke-width:3"></path>
<path d="M1028.92,31.27c1.76,0,4.97-0.93,10.1-1.64c1.84-0.25,2.64-0.23,3.74-0.18" style="fill:none;stroke:#999;stroke-width:3"></path>
<path d="M1011.4100000000001,49.05c2.15,0.72,3.19,0.72,5,0.6c6.8-0.45,17.46-3.01,25.76-3.71c1.04-0.09,3.15-0.33,4.27,0.07" style="fill:none;stroke:#999;stroke-width:3"></path>
<path d="M1028.21,50.53c0.07,0.41,1.07,2.12,1.07,4.71c0,13.52-0.22,29.57-0.22,33.8c0,9.59-6.14,1.28-7.42,0.21" style="fill:none;stroke:#999;stroke-width:3"></path>
<path d="M1019.82,62.79c0.03,0.51,0.05,1.31-0.05,2.04c-0.63,4.31-4.25,13.76-9.2,19.55" style="fill:none;stroke:#999;stroke-width:3"></path>
<path d="M1037.28,61.61c2.25,2.78,5.82,11.42,6.38,15.75" style="fill:none;stroke:#999;stroke-width:3"></path>
<path d="M1048.51,29.51c1.39,0.46,1.52,0.93,4.35,0.46c3.76-0.63,15.52-3.61,17.49-4.07c2.22-0.52,4.37,1.44,3.67,3.95c-8.17,29.62-14.77,46.91-33.75,64.91" style="fill:none;stroke:#999;stroke-width:3"></path>
<path d="M1048.66,37.54C1051.0,44.5,1064.69,75.85,1073.71,88.44c1.64,2.29,3.91,4.89,5.44,5.65" style="fill:none;stroke:#999;stroke-width:3"></path>

</svg>