<svg width="1090px" height="109px" viewBox="0 0 1090 109" xmlns="http://www.w3.org/2000/svg" xmlns:xlink="http://www.w3.org/1999/xlink" xml:space="preserve" version="1.1" baseProfile="full">
<line x1="1" y1="1" x2="1089" y2="1" style="stroke:#ddd;stroke-width:2"></line>
<line x1="1" y1="1" x2="1" y2="108" style="stroke:#ddd;stroke-width:2"></line>
<line x1="1" y1="108" x2="1089" y2="108" style="stroke:#ddd;stroke-width:2"></line>
<line x1="1089" y1="1" x2="1089" y2="108" style="stroke:#ddd;stroke-width:2"></line>
<line x1="109" y1="1" x2="109" y2="108" style="stroke:#ddd;stroke-width:2"></line>
<line x1="218" y1="1" x2="218" y2="108" style="stroke:#ddd;stroke-width:2"></line>
<line x1="327" y1="1" x2="327" y2="108" style="stroke:#ddd;stroke-width:2"></line>
<line x1="436" y1="1" x2="436" y2="108" style="stroke:#ddd;stroke-width:2"></line>
<line x1="545" y1="1" x2="545" y2="108" style="stroke:#ddd;stroke-width:2"></line>
<line x1="654" y1="1" x2="654" y2="108" style="stroke:#ddd;stroke-width:2"></line>
<line x1="763" y1="1" x2="763" y2="108" style="stroke:#ddd;stroke-width:2"></line>
<line x1="872" y1="1" x2="872" y2="108" style="stroke:#ddd;stroke-width:2"></line>
<line x1="981" y1="1" x2="981" y2="108" style="stroke:#ddd;stroke-width:2"></line>
<line x1="1" y1="54" x2="1089" y2="54" style="stroke:#ddd;stroke-width:2;stroke-dasharray:3 3"></line>
<line x1="55" y1="1" x2="55" y2="108" style="stroke:#ddd;stroke-width:2;stroke-dasharray:3 3"></line>
<line x1="164" y1="1" x2="164" y2="108" style="stroke:#ddd;stroke-width:2;stroke-dasharray:3 3"></line>
<line x1="273" y1="1" x2="273" y2="108" style="stroke:#ddd;stroke-width:2;stroke-dasharray:3 3"></line>
<line x1="382" y1="1" x2="382" y2="108" style="stroke:#ddd;stroke-width:2;stroke-dasharray:3 3"></line>
<line x1="491" y1="1" x2="491" y2="108" style="stroke:#ddd;stroke-width:2;stroke-dasharray:3 3"></line>
<line x1="600" y1="1" x2="600" y2="108" style="stroke:#ddd;stroke-width:2;stroke-dasharray:3 3"></line>
<line x1="709" y1="1" x2="709" y2="108" style="stroke:#ddd;stroke-width:2;stroke-dasharray:3 3"></line>
<line x1="818" y1="1" x2="818" y2="108" style="stroke:#ddd;stroke-width:2;stroke-dasharray:3 3"></line>
<line x1="927" y1="1" x2="927" y2="108" style="stroke:#ddd;stroke-width:2;stroke-dasharray:3 3"></line>
<line x1="1036" y1="1" x2="1036" y2="108" style="stroke:#ddd;stroke-width:2;stroke-dasharray:3 3"></line>
<path d="M32.88,18c0.23,2.28-0.06,3.73-0.79,5.69C27.46,36.16,22.5,48,11.0,63.04" style="fill:none;stroke:#999;stroke-width:3"></path>

<path d="M141.88,18c0.23,2.28-0.06,3.73-0.79,5.69C136.46,36.16,131.5,48,120.0,63.04" style="fill:none;stroke:#999;stroke-width:3"></path>
<path d="M134.03,44.5c0.86,0.86,1.5,2.33,1.49,3.75c-0.04,10.52-0.2,30.15-0.26,41.25c-0.01,2.48-0.02,4.54-0.02,6" style="fill:none;stroke:#999;stroke-width:3"></path>

<path d="M250.88,18c0.23,2.28-0.06,3.73-0.79,5.69C245.46,36.16,240.5,48,229.0,63.04" style="fill:none;stroke:#999;stroke-width:3"></path>
<path d="M243.03,44.5c0.86,0.86,1.5,2.33,1.49,3.75c-0.04,10.52-0.2,30.15-0.26,41.25c-0.01,2.48-0.02,4.54-0.02,6" style="fill:none;stroke:#999;stroke-width:3"></path>
<path d="M262.65,34.14c2.22,0.36,4.67,0.19,6.73-0.05c7.78-0.9,24.06-2.84,31.49-3.32c1.85-0.12,3.95-0.26,5.76,0.25" style="fill:none;stroke:#999;stroke-width:3"></path>

<path d="M359.88,18c0.23,2.28-0.06,3.73-0.79,5.69C354.46000000000004,36.16,349.5,48,338.0,63.04" style="fill:none;stroke:#999;stroke-width:3"></path>
<path d="M352.03,44.5c0.86,0.86,1.5,2.33,1.49,3.75c-0.04,10.52-0.2,30.15-0.26,41.25c-0.01,2.48-0.02,4.54-0.02,6" style="fill:none;stroke:#999;stroke-width:3"></path>
<path d="M371.65,34.14c2.22,0.36,4.67,0.19,6.73-0.05c7.78-0.9,24.06-2.84,31.49-3.32c1.85-0.12,3.95-0.26,5.76,0.25" style="fill:none;stroke:#999;stroke-width:3"></path>
<path d="M381.33,20.25c0.96,0.96,1.42,2.38,1.69,4c0.17,1,0.85,15,1.51,26" style="fill:none;stroke:#999;stroke-width:3"></path>

<path d="M468.88,18c0.23,2.28-0.06,3.73-0.79,5.69C463.46000000000004,36.16,458.5,48,447.0,63.04" style="fill:none;stroke:#999;stroke-width:3"></path>
<path d="M461.03,44.5c0.86,0.86,1.5,2.33,1.49,3.75c-0.04,10.52-0.2,30.15-0.26,41.25c-0.01,2.48-0.02,4.54-0.02,6" style="fill:none;stroke:#999;stroke-width:3"></path>
<path d="M480.65,34.14c2.22,0.36,4.67,0.19,6.73-0.05c7.78-0.9,24.06-2.84,31.49-3.32c1.85-0.12,3.95-0.26,5.76,0.25" style="fill:none;stroke:#999;stroke-width:3"></path>
<path d="M490.33,20.25c0.96,0.96,1.42,2.38,1.69,4c0.17,1,0.85,15,1.51,26" style="fill:none;stroke:#999;stroke-width:3"></path>
<path d="M512.88,14.25c0.81,0.81,1.31,2.24,1.19,3.25c-0.33,2.75-1.95,17.88-3.24,30.75" style="fill:none;stroke:#999;stroke-width:3"></path>

<path d="M577.88,18c0.23,2.28-0.06,3.73-0.79,5.69C572.46,36.16,567.5,48,556.0,63.04" style="fill:none;stroke:#999;stroke-width:3"></path>
<path d="M570.03,44.5c0.86,0.86,1.5,2.33,1.49,3.75c-0.04,10.52-0.2,30.15-0.26,41.25c-0.01,2.48-0.02,4.54-0.02,6" style="fill:none;stroke:#999;stroke-width:3"></path>
<path d="M589.65,34.14c2.22,0.36,4.67,0.19,6.73-0.05c7.78-0.9,24.06-2.84,31.49-3.32c1.85-0.12,3.95-0.26,5.76,0.25" style="fill:none;stroke:#999;stroke-width:3"></path>
<path d="M599.3299999999999,20.25c0.96,0.96,1.42,2.38,1.69,4c0.17,1,0.85,15,1.51,26" style="fill:none;stroke:#999;stroke-width:3"></path>
<path d="M621.88,14.25c0.81,0.81,1.31,2.24,1.19,3.25c-0.33,2.75-1.95,17.88-3.24,30.75" style="fill:none;stroke:#999;stroke-width:3"></path>
<path d="M582.25,52.7c3,0.55,5.72,0.32,8.48,0.02c13.17-1.46,25.84-3.07,41.65-4.03c2.83-0.17,5.49-0.31,8.24,0.11" style="fill:none;stroke:#999;stroke-width:3"></path>

<path d="M686.88,18c0.23,2.28-0.06,3.73-0.79,5.69C681.46,36.16,676.5,48,665.0,63.04" style="fill:none;stroke:#999;stroke-width:3"></path>
<path d="M679.03,44.5c0.86,0.86,1.5,2.33,1.49,3.75c-0.04,10.52-0.2,30.15-0.26,41.25c-0.01,2.48-0.02,4.54-0.02,6" style="fill:none;stroke:#999;stroke-width:3"></path>
<path d="M698.65,34.14c2.22,0.36,4.67,0.19,6.73-0.05c7.78-0.9,24.06-2.84,31.49-3.32c1.85-0.12,3.95-0.26,5.76,0.25" style="fill:none;stroke:#999;stroke-width:3"></path>
<path d="M708.3299999999999,20.25c0.96,0.96,1.42,2.38,1.69,4c0.17,1,0.85,15,1.51,26" style="fill:none;stroke:#999;stroke-width:3"></path>
<path d="M730.88,14.25c0.81,0.81,1.31,2.24,1.19,3.25c-0.33,2.75-1.95,17.88-3.24,30.75" style="fill:none;stroke:#999;stroke-width:3"></path>
<path d="M691.25,52.7c3,0.55,5.72,0.32,8.48,0.02c13.17-1.46,25.84-3.07,41.65-4.03c2.83-0.17,5.49-0.31,8.24,0.11" style="fill:none;stroke:#999;stroke-width:3"></path>
<path d="M705.43,61.83c0.75,0.75,1.21,1.89,1.21,2.95c0,0.82-0.01,18.86-0.01,27.1c0,2.36,0,3.92,0,4.04" style="fill:none;stroke:#999;stroke-width:3"></path>

<path d="M795.88,18c0.23,2.28-0.06,3.73-0.79,5.69C790.46,36.16,785.5,48,774.0,63.04" style="fill:none;stroke:#999;stroke-width:3"></path>
<path d="M788.03,44.5c0.86,0.86,1.5,2.33,1.49,3.75c-0.04,10.52-0.2,30.15-0.26,41.25c-0.01,2.48-0.02,4.54-0.02,6" style="fill:none;stroke:#999;stroke-width:3"></path>
<path d="M807.65,34.14c2.22,0.36,4.67,0.19,6.73-0.05c7.78-0.9,24.06-2.84,31.49-3.32c1.85-0.12,3.95-0.26,5.76,0.25" style="fill:none;stroke:#999;stroke-width:3"></path>
<path d="M817.3299999999999,20.25c0.96,0.96,1.42,2.38,1.69,4c0.17,1,0.85,15,1.51,26" style="fill:none;stroke:#999;stroke-width:3"></path>
<path d="M839.88,14.25c0.81,0.81,1.31,2.24,1.19,3.25c-0.33,2.75-1.95,17.88-3.24,30.75" style="fill:none;stroke:#999;stroke-width:3"></path>
<path d="M800.25,52.7c3,0.55,5.72,0.32,8.48,0.02c13.17-1.46,25.84-3.07,41.65-4.03c2.83-0.17,5.49-0.31,8.24,0.11" style="fill:none;stroke:#999;stroke-width:3"></path>
<path d="M814.43,61.83c0.75,0.75,1.21,1.89,1.21,2.95c0,0.82-0.01,18.86-0.01,27.1c0,2.36,0,3.92,0,4.04" style="fill:none;stroke:#999;stroke-width:3"></path>
<path d="M816.29,63.16c1.86-0.11,17.41-2.36,23.46-3.15c3.42-0.44,4.82,0.25,4.7,3.74c-0.16,4.48,0,16.22-0.02,25.75c0,1.82-0.01,3.55,0,5.14" style="fill:none;stroke:#999;stroke-width:3"></path>

<path d="M904.88,18c0.23,2.28-0.06,3.73-0.79,5.69C899.46,36.16,894.5,48,883.0,63.04" style="fill:none;stroke:#999;stroke-width:3"></path>
<path d="M897.03,44.5c0.86,0.86,1.5,2.33,1.49,3.75c-0.04,10.52-0.2,30.15-0.26,41.25c-0.01,2.48-0.02,4.54-0.02,6" style="fill:none;stroke:#999;stroke-width:3"></path>
<path d="M916.65,34.14c2.22,0.36,4.67,0.19,6.73-0.05c7.78-0.9,24.06-2.84,31.49-3.32c1.85-0.12,3.95-0.26,5.76,0.25" style="fill:none;stroke:#999;stroke-width:3"></path>
<path d="M926.3299999999999,20.25c0.96,0.96,1.42,2.38,1.69,4c0.17,1,0.85,15,1.51,26" style="fill:none;stroke:#999;stroke-width:3"></path>
<path d="M948.88,14.25c0.81,0.81,1.31,2.24,1.19,3.25c-0.33,2.75-1.95,17.88-3.24,30.75" style="fill:none;stroke:#999;stroke-width:3"></path>
<path d="M909.25,52.7c3,0.55,5.72,0.32,8.48,0.02c13.17-1.46,25.84-3.07,41.65-4.03c2.83-0.17,5.49-0.31,8.24,0.11" style="fill:none;stroke:#999;stroke-width:3"></path>
<path d="M923.43,61.83c0.75,0.75,1.21,1.89,1.21,2.95c0,0.82-0.01,18.86-0.01,27.1c0,2.36,0,3.92,0,4.04" style="fill:none;stroke:#999;stroke-width:3"></path>
<path d="M925.29,63.16c1.86-0.11,17.41-2.36,23.46-3.15c3.42-0.44,4.82,0.25,4.7,3.74c-0.16,4.48,0,16.22-0.02,25.75c0,1.82-0.01,3.55,0,5.14" style="fill:none;stroke:#999;stroke-width:3"></path>
<path d="M925.68,77.24c7.2-0.62,19.32-1.99,26.71-2.64" style="fill:none;stroke:#999;stroke-width:3"></path>

<path d="M1013.88,18c0.23,2.28-0.06,3.73-0.79,5.69C1008.46,36.16,1003.5,48,992.0,63.04" style="fill:none;stroke:#999;stroke-width:3"></path>
<path d="M1006.03,44.5c0.86,0.86,1.5,2.33,1.49,3.75c-0.04,10.52-0.2,30.15-0.26,41.25c-0.01,2.48-0.02,4.54-0.02,6" style="fill:none;stroke:#999;stroke-width:3"></path>
<path d="M1025.65,34.14c2.22,0.36,4.67,0.19,6.73-0.05c7.78-0.9,24.06-2.84,31.49-3.32c1.85-0.12,3.95-0.26,5.76,0.25" style="fill:none;stroke:#999;stroke-width:3"></path>
<path d="M1035.33,20.25c0.96,0.96,1.42,2.38,1.69,4c0.17,1,0.85,15,1.51,26" style="fill:none;stroke:#999;stroke-width:3"></path>
<path d="M1057.88,14.25c0.81,0.81,1.31,2.24,1.19,3.25c-0.33,2.75-1.95,17.88-3.24,30.75" style="fill:none;stroke:#999;stroke-width:3"></path>
<path d="M1018.25,52.7c3,0.55,5.72,0.32,8.48,0.02c13.17-1.46,25.84-3.07,41.65-4.03c2.83-0.17,5.49-0.31,8.24,0.11" style="fill:none;stroke:#999;stroke-width:3"></path>
<path d="M1032.4299999999998,61.83c0.75,0.75,1.21,1.89,1.21,2.95c0,0.82-0.01,18.86-0.01,27.1c0,2.36,0,3.92,0,4.04" style="fill:none;stroke:#999;stroke-width:3"></path>
<path d="M1034.29,63.16c1.86-0.11,17.41-2.36,23.46-3.15c3.42-0.44,4.82,0.25,4.7,3.74c-0.16,4.48,0,16.22-0.02,25.75c0,1.82-0.01,3.55,0,5.14" style="fill:none;stroke:#999;stroke-width:3"></path>
<path d="M1034.6799999999998,77.24c7.2-0.62,19.32-1.99,26.71-2.64" style="fill:none;stroke:#999;stroke-width:3"></path>
<path d="M1034.79,92.78c6.05-0.57,19.04-1.89,26.58-2.37" style="fill:none;stroke:#999;stroke-width:3"></path>

</svg>