<svg width="1090px" height="109px" viewBox="0 0 1090 109" xmlns="http://www.w3.org/2000/svg" xmlns:xlink="http://www.w3.org/1999/xlink" xml:space="preserve" version="1.1" baseProfile="full">
<line x1="1" y1="1" x2="1089" y2="1" style="stroke:#ddd;stroke-width:2"></line>
<line x1="1" y1="1" x2="1" y2="108" style="stroke:#ddd;stroke-width:2"></line>
<line x1="1" y1="108" x2="1089" y2="108" style="stroke:#ddd;stroke-width:2"></line>
<line x1="1089" y1="1" x2="1089" y2="108" style="stroke:#ddd;stroke-width:2"></line>
<line x1="109" y1="1" x2="109" y2="108" style="stroke:#ddd;stroke-width:2"></line>
<line x1="218" y1="1" x2="218" y2="108" style="stroke:#ddd;stroke-width:2"></line>
<line x1="327" y1="1" x2="327" y2="108" style="stroke:#ddd;stroke-width:2"></line>
<line x1="436" y1="1" x2="436" y2="108" style="stroke:#ddd;stroke-width:2"></line>
<line x1="545" y1="1" x2="545" y2="108" style="stroke:#ddd;stroke-width:2"></line>
<line x1="654" y1="1" x2="654" y2="108" style="stroke:#ddd;stroke-width:2"></line>
<line x1="763" y1="1" x2="763" y2="108" style="stroke:#ddd;stroke-width:2"></line>
<line x1="872" y1="1" x2="872" y2="108" style="stroke:#ddd;stroke-width:2"></line>
<line x1="981" y1="1" x2="981" y2="108" style="stroke:#ddd;stroke-width:2"></line>
<line x1="1" y1="54" x2="1089" y2="54" style="stroke:#ddd;stroke-width:2;stroke-dasharray:3 3"></line>
<line x1="55" y1="1" x2="55" y2="108" style="stroke:#ddd;stroke-width:2;stroke-dasharray:3 3"></line>
<line x1="164" y1="1" x2="164" y2="108" style="stroke:#ddd;stroke-width:2;stroke-dasharray:3 3"></line>
<line x1="273" y1="1" x2="273" y2="108" style="stroke:#ddd;stroke-width:2;stroke-dasharray:3 3"></line>
<line x1="382" y1="1" x2="382" y2="108" style="stroke:#ddd;stroke-width:2;stroke-dasharray:3 3"></line>
<line x1="491" y1="1" x2="491" y2="108" style="stroke:#ddd;stroke-width:2;stroke-dasharray:3 3"></line>
<line x1="600" y1="1" x2="600" y2="108" style="stroke:#ddd;stroke-width:2;stroke-dasharray:3 3"></line>
<line x1="709" y1="1" x2="709" y2="108" style="stroke:#ddd;stroke-width:2;stroke-dasharray:3 3"></line>
<line x1="818" y1="1" x2="818" y2="108" style="stroke:#ddd;stroke-width:2;stroke-dasharray:3 3"></line>
<line x1="927" y1="1" x2="927" y2="108" style="stroke:#ddd;stroke-width:2;stroke-dasharray:3 3"></line>
<line x1="1036" y1="1" x2="1036" y2="108" style="stroke:#ddd;stroke-width:2;stroke-dasharray:3 3"></line>
<path d="M30.49,16.39c0.13,1.16,0.23,2.62-0.12,4.05c-2.21,9.04-10.76,26.52-21.07,38.77" style="fill:none;stroke:#999;stroke-width:3"></path>

<path d="M139.49,16.39c0.13,1.16,0.23,2.62-0.12,4.05c-2.21,9.04-10.76,26.52-21.07,38.77" style="fill:none;stroke:#999;stroke-width:3"></path>
<path d="M134.03,40c0.59,0.61,0.76,1.97,0.76,3.23c0,13.02-0.29,41.65-0.29,50.4" style="fill:none;stroke:#999;stroke-width:3"></path>

<path d="M248.49,16.39c0.13,1.16,0.23,2.62-0.12,4.05c-2.21,9.04-10.76,26.52-21.07,38.77" style="fill:none;stroke:#999;stroke-width:3"></path>
<path d="M243.03,40c0.59,0.61,0.76,1.97,0.76,3.23c0,13.02-0.29,41.65-0.29,50.4" style="fill:none;stroke:#999;stroke-width:3"></path>
<path d="M268.24,19.06c0.04,0.38,0.08,0.99-0.08,1.54c-0.94,3.25-6.15,8.78-13.77,14.73" style="fill:none;stroke:#999;stroke-width:3"></path>

<path d="M357.49,16.39c0.13,1.16,0.23,2.62-0.12,4.05c-2.21,9.04-10.76,26.52-21.07,38.77" style="fill:none;stroke:#999;stroke-width:3"></path>
<path d="M352.03,40c0.59,0.61,0.76,1.97,0.76,3.23c0,13.02-0.29,41.65-0.29,50.4" style="fill:none;stroke:#999;stroke-width:3"></path>
<path d="M377.24,19.06c0.04,0.38,0.08,0.99-0.08,1.54c-0.94,3.25-6.15,8.78-13.77,14.73" style="fill:none;stroke:#999;stroke-width:3"></path>
<path d="M401.12,18.8c6.22,2.34,15.15,9.06,16.71,12.69" style="fill:none;stroke:#999;stroke-width:3"></path>

<path d="M466.49,16.39c0.13,1.16,0.23,2.62-0.12,4.05c-2.21,9.04-10.76,26.52-21.07,38.77" style="fill:none;stroke:#999;stroke-width:3"></path>
<path d="M461.03,40c0.59,0.61,0.76,1.97,0.76,3.23c0,13.02-0.29,41.65-0.29,50.4" style="fill:none;stroke:#999;stroke-width:3"></path>
<path d="M486.24,19.06c0.04,0.38,0.08,0.99-0.08,1.54c-0.94,3.25-6.15,8.78-13.77,14.73" style="fill:none;stroke:#999;stroke-width:3"></path>
<path d="M510.12,18.8c6.22,2.34,15.15,9.06,16.71,12.69" style="fill:none;stroke:#999;stroke-width:3"></path>
<path d="M478.15999999999997,35.21c1.16,0.18,3.28,0.23,4.43,0.18c7.37-0.31,24.53-2.14,33.72-2.31c1.93-0.04,3.08,0.09,4.05,0.18" style="fill:none;stroke:#999;stroke-width:3"></path>

<path d="M575.49,16.39c0.13,1.16,0.23,2.62-0.12,4.05c-2.21,9.04-10.76,26.52-21.07,38.77" style="fill:none;stroke:#999;stroke-width:3"></path>
<path d="M570.03,40c0.59,0.61,0.76,1.97,0.76,3.23c0,13.02-0.29,41.65-0.29,50.4" style="fill:none;stroke:#999;stroke-width:3"></path>
<path d="M595.24,19.06c0.04,0.38,0.08,0.99-0.08,1.54c-0.94,3.25-6.15,8.78-13.77,14.73" style="fill:none;stroke:#999;stroke-width:3"></path>
<path d="M619.12,18.8c6.22,2.34,15.15,9.06,16.71,12.69" style="fill:none;stroke:#999;stroke-width:3"></path>
<path d="M587.16,35.21c1.16,0.18,3.28,0.23,4.43,0.18c7.37-0.31,24.53-2.14,33.72-2.31c1.93-0.04,3.08,0.09,4.05,0.18" style="fill:none;stroke:#999;stroke-width:3"></path>
<path d="M580.58,48.24c1.69,0.47,4.79,0.47,6.48,0.47c10.07-0.02,30.98-2.72,48.72-2.92c2.82-0.03,4.51,0.22,5.92,0.46" style="fill:none;stroke:#999;stroke-width:3"></path>

<path d="M684.49,16.39c0.13,1.16,0.23,2.62-0.12,4.05c-2.21,9.04-10.76,26.52-21.07,38.77" style="fill:none;stroke:#999;stroke-width:3"></path>
<path d="M679.03,40c0.59,0.61,0.76,1.97,0.76,3.23c0,13.02-0.29,41.65-0.29,50.4" style="fill:none;stroke:#999;stroke-width:3"></path>
<path d="M704.24,19.06c0.04,0.38,0.08,0.99-0.08,1.54c-0.94,3.25-6.15,8.78-13.77,14.73" style="fill:none;stroke:#999;stroke-width:3"></path>
<path d="M728.12,18.8c6.22,2.34,15.15,9.06,16.71,12.69" style="fill:none;stroke:#999;stroke-width:3"></path>
<path d="M696.16,35.21c1.16,0.18,3.28,0.23,4.43,0.18c7.37-0.31,24.53-2.14,33.72-2.31c1.93-0.04,3.08,0.09,4.05,0.18" style="fill:none;stroke:#999;stroke-width:3"></path>
<path d="M689.58,48.24c1.69,0.47,4.79,0.47,6.48,0.47c10.07-0.02,30.98-2.72,48.72-2.92c2.82-0.03,4.51,0.22,5.92,0.46" style="fill:none;stroke:#999;stroke-width:3"></path>
<path d="M716.51,14.25c0.57,0.8,0.92,2.01,0.6,3.8c-1.07,5.97-13.52,38.59-28.61,49.13" style="fill:none;stroke:#999;stroke-width:3"></path>

<path d="M793.49,16.39c0.13,1.16,0.23,2.62-0.12,4.05c-2.21,9.04-10.76,26.52-21.07,38.77" style="fill:none;stroke:#999;stroke-width:3"></path>
<path d="M788.03,40c0.59,0.61,0.76,1.97,0.76,3.23c0,13.02-0.29,41.65-0.29,50.4" style="fill:none;stroke:#999;stroke-width:3"></path>
<path d="M813.24,19.06c0.04,0.38,0.08,0.99-0.08,1.54c-0.94,3.25-6.15,8.78-13.77,14.73" style="fill:none;stroke:#999;stroke-width:3"></path>
<path d="M837.12,18.8c6.22,2.34,15.15,9.06,16.71,12.69" style="fill:none;stroke:#999;stroke-width:3"></path>
<path d="M805.16,35.21c1.16,0.18,3.28,0.23,4.43,0.18c7.37-0.31,24.53-2.14,33.72-2.31c1.93-0.04,3.08,0.09,4.05,0.18" style="fill:none;stroke:#999;stroke-width:3"></path>
<path d="M798.58,48.24c1.69,0.47,4.79,0.47,6.48,0.47c10.07-0.02,30.98-2.72,48.72-2.92c2.82-0.03,4.51,0.22,5.92,0.46" style="fill:none;stroke:#999;stroke-width:3"></path>
<path d="M825.51,14.25c0.57,0.8,0.92,2.01,0.6,3.8c-1.07,5.97-13.52,38.59-28.61,49.13" style="fill:none;stroke:#999;stroke-width:3"></path>
<path d="M830.38,35.56c3.56,5.61,18.91,23.92,22.84,28.03c1.33,1.39,3.05,1.99,4.38,2.39" style="fill:none;stroke:#999;stroke-width:3"></path>

<path d="M902.49,16.39c0.13,1.16,0.23,2.62-0.12,4.05c-2.21,9.04-10.76,26.52-21.07,38.77" style="fill:none;stroke:#999;stroke-width:3"></path>
<path d="M897.03,40c0.59,0.61,0.76,1.97,0.76,3.23c0,13.02-0.29,41.65-0.29,50.4" style="fill:none;stroke:#999;stroke-width:3"></path>
<path d="M922.24,19.06c0.04,0.38,0.08,0.99-0.08,1.54c-0.94,3.25-6.15,8.78-13.77,14.73" style="fill:none;stroke:#999;stroke-width:3"></path>
<path d="M946.12,18.8c6.22,2.34,15.15,9.06,16.71,12.69" style="fill:none;stroke:#999;stroke-width:3"></path>
<path d="M914.16,35.21c1.16,0.18,3.28,0.23,4.43,0.18c7.37-0.31,24.53-2.14,33.72-2.31c1.93-0.04,3.08,0.09,4.05,0.18" style="fill:none;stroke:#999;stroke-width:3"></path>
<path d="M907.58,48.24c1.69,0.47,4.79,0.47,6.48,0.47c10.07-0.02,30.98-2.72,48.72-2.92c2.82-0.03,4.51,0.22,5.92,0.46" style="fill:none;stroke:#999;stroke-width:3"></path>
<path d="M934.51,14.25c0.57,0.8,0.92,2.01,0.6,3.8c-1.07,5.97-13.52,38.59-28.61,49.13" style="fill:none;stroke:#999;stroke-width:3"></path>
<path d="M939.38,35.56c3.56,5.61,18.91,23.92,22.84,28.03c1.33,1.39,3.05,1.99,4.38,2.39" style="fill:none;stroke:#999;stroke-width:3"></path>
<path d="M921.93,61.54c0.59,0.06,2.15,0.17,3.32,0.05c4.58-0.5,18.76-2.32,20.3-2.71c2.31-0.59,3.91,0.66,3.94,2.58c0.04,3.27-2.16,10.65-4.92,15.98c-2.01,3.89-4.65,0.76-5.73-0.46" style="fill:none;stroke:#999;stroke-width:3"></path>

<path d="M1011.49,16.39c0.13,1.16,0.23,2.62-0.12,4.05c-2.21,9.04-10.76,26.52-21.07,38.77" style="fill:none;stroke:#999;stroke-width:3"></path>
<path d="M1006.03,40c0.59,0.61,0.76,1.97,0.76,3.23c0,13.02-0.29,41.65-0.29,50.4" style="fill:none;stroke:#999;stroke-width:3"></path>
<path d="M1031.24,19.06c0.04,0.38,0.08,0.99-0.08,1.54c-0.94,3.25-6.15,8.78-13.77,14.73" style="fill:none;stroke:#999;stroke-width:3"></path>
<path d="M1055.12,18.8c6.22,2.34,15.15,9.06,16.71,12.69" style="fill:none;stroke:#999;stroke-width:3"></path>
<path d="M1023.16,35.21c1.16,0.18,3.28,0.23,4.43,0.18c7.37-0.31,24.53-2.14,33.72-2.31c1.93-0.04,3.08,0.09,4.05,0.18" style="fill:none;stroke:#999;stroke-width:3"></path>
<path d="M1016.58,48.24c1.69,0.47,4.79,0.47,6.48,0.47c10.07-0.02,30.98-2.72,48.72-2.92c2.82-0.03,4.51,0.22,5.92,0.46" style="fill:none;stroke:#999;stroke-width:3"></path>
<path d="M1043.51,14.25c0.57,0.8,0.92,2.01,0.6,3.8c-1.07,5.97-13.52,38.59-28.61,49.13" style="fill:none;stroke:#999;stroke-width:3"></path>
<path d="M1048.38,35.56c3.56,5.61,18.91,23.92,22.84,28.03c1.33,1.39,3.05,1.99,4.38,2.39" style="fill:none;stroke:#999;stroke-width:3"></path>
<path d="M1030.9299999999998,61.54c0.59,0.06,2.15,0.17,3.32,0.05c4.58-0.5,18.76-2.32,20.3-2.71c2.31-0.59,3.91,0.66,3.94,2.58c0.04,3.27-2.16,10.65-4.92,15.98c-2.01,3.89-4.65,0.76-5.73-0.46" style="fill:none;stroke:#999;stroke-width:3"></path>
<path d="M1033.08,62.12c0,1.94,0.08,3.14,0.08,4.94c0,10.75,0.22,10.1,0.22,15.57c0,10.99,2.12,11.32,18.24,11.32c16.74,0,18.92-0.92,18.92-8.96" style="fill:none;stroke:#999;stroke-width:3"></path>

</svg>