<svg width="1090px" height="109px" viewBox="0 0 1090 109" xmlns="http://www.w3.org/2000/svg" xmlns:xlink="http://www.w3.org/1999/xlink" xml:space="preserve" version="1.1" baseProfile="full">
<line x1="1" y1="1" x2="1089" y2="1" style="stroke:#ddd;stroke-width:2"></line>
<line x1="1" y1="1" x2="1" y2="108" style="stroke:#ddd;stroke-width:2"></line>
<line x1="1" y1="108" x2="1089" y2="108" style="stroke:#ddd;stroke-width:2"></line>
<line x1="1089" y1="1" x2="1089" y2="108" style="stroke:#ddd;stroke-width:2"></line>
<line x1="109" y1="1" x2="109" y2="108" style="stroke:#ddd;stroke-width:2"></line>
<line x1="218" y1="1" x2="218" y2="108" style="stroke:#ddd;stroke-width:2"></line>
<line x1="327" y1="1" x2="327" y2="108" style="stroke:#ddd;stroke-width:2"></line>
<line x1="436" y1="1" x2="436" y2="108" style="stroke:#ddd;stroke-width:2"></line>
<line x1="545" y1="1" x2="545" y2="108" style="stroke:#ddd;stroke-width:2"></line>
<line x1="654" y1="1" x2="654" y2="108" style="stroke:#ddd;stroke-width:2"></line>
<line x1="763" y1="1" x2="763" y2="108" style="stroke:#ddd;stroke-width:2"></line>
<line x1="872" y1="1" x2="872" y2="108" style="stroke:#ddd;stroke-width:2"></line>
<line x1="981" y1="1" x2="981" y2="108" style="stroke:#ddd;stroke-width:2"></line>
<line x1="1" y1="54" x2="1089" y2="54" style="stroke:#ddd;stroke-width:2;stroke-dasharray:3 3"></line>
<line x1="55" y1="1" x2="55" y2="108" style="stroke:#ddd;stroke-width:2;stroke-dasharray:3 3"></line>
<line x1="164" y1="1" x2="164" y2="108" style="stroke:#ddd;stroke-width:2;stroke-dasharray:3 3"></line>
<line x1="273" y1="1" x2="273" y2="108" style="stroke:#ddd;stroke-width:2;stroke-dasharray:3 3"></line>
<line x1="382" y1="1" x2="382" y2="108" style="stroke:#ddd;stroke-width:2;stroke-dasharray:3 3"></line>
<line x1="491" y1="1" x2="491" y2="108" style="stroke:#ddd;stroke-width:2;stroke-dasharray:3 3"></line>
<line x1="600" y1="1" x2="600" y2="108" style="stroke:#ddd;stroke-width:2;stroke-dasharray:3 3"></line>
<line x1="709" y1="1" x2="709" y2="108" style="stroke:#ddd;stroke-width:2;stroke-dasharray:3 3"></line>
<line x1="818" y1="1" x2="818" y2="108" style="stroke:#ddd;stroke-width:2;stroke-dasharray:3 3"></line>
<line x1="927" y1="1" x2="927" y2="108" style="stroke:#ddd;stroke-width:2;stroke-dasharray:3 3"></line>
<line x1="1036" y1="1" x2="1036" y2="108" style="stroke:#ddd;stroke-width:2;stroke-dasharray:3 3"></line>
<path d="M33.25,17.39c0.13,1.18,0.22,2.67-0.11,4.12c-2.11,9.2-10.26,26.98-20.08,39.45" style="fill:none;stroke:#999;stroke-width:3"></path>

<path d="M142.25,17.39c0.13,1.18,0.22,2.67-0.11,4.12c-2.11,9.2-10.26,26.98-20.08,39.45" style="fill:none;stroke:#999;stroke-width:3"></path>
<path d="M135.99,43.5c0.66,0.68,0.84,2.19,0.84,3.58c0,14.46-0.32,38.08-0.32,47.79" style="fill:none;stroke:#999;stroke-width:3"></path>

<path d="M251.25,17.39c0.13,1.18,0.22,2.67-0.11,4.12c-2.11,9.2-10.26,26.98-20.08,39.45" style="fill:none;stroke:#999;stroke-width:3"></path>
<path d="M244.99,43.5c0.66,0.68,0.84,2.19,0.84,3.58c0,14.46-0.32,38.08-0.32,47.79" style="fill:none;stroke:#999;stroke-width:3"></path>
<path d="M261.62,21.85c0.99,0.34,2.8,0.41,3.79,0.34c7.12-0.49,29.75-3.52,35.89-4.05c1.64-0.14,2.32-0.08,3.19-0.02" style="fill:none;stroke:#999;stroke-width:3"></path>

<path d="M360.25,17.39c0.13,1.18,0.22,2.67-0.11,4.12c-2.11,9.2-10.26,26.98-20.08,39.45" style="fill:none;stroke:#999;stroke-width:3"></path>
<path d="M353.99,43.5c0.66,0.68,0.84,2.19,0.84,3.58c0,14.46-0.32,38.08-0.32,47.79" style="fill:none;stroke:#999;stroke-width:3"></path>
<path d="M370.62,21.85c0.99,0.34,2.8,0.41,3.79,0.34c7.12-0.49,29.75-3.52,35.89-4.05c1.64-0.14,2.32-0.08,3.19-0.02" style="fill:none;stroke:#999;stroke-width:3"></path>
<path d="M388.62,10.88c0.8,0.23,2.65,2.7,2.65,3.18c0,5.93,0.37,20.08,0.45,27.41" style="fill:none;stroke:#999;stroke-width:3"></path>

<path d="M469.25,17.39c0.13,1.18,0.22,2.67-0.11,4.12c-2.11,9.2-10.26,26.98-20.08,39.45" style="fill:none;stroke:#999;stroke-width:3"></path>
<path d="M462.99,43.5c0.66,0.68,0.84,2.19,0.84,3.58c0,14.46-0.32,38.08-0.32,47.79" style="fill:none;stroke:#999;stroke-width:3"></path>
<path d="M479.62,21.85c0.99,0.34,2.8,0.41,3.79,0.34c7.12-0.49,29.75-3.52,35.89-4.05c1.64-0.14,2.32-0.08,3.19-0.02" style="fill:none;stroke:#999;stroke-width:3"></path>
<path d="M497.62,10.88c0.8,0.23,2.65,2.7,2.65,3.18c0,5.93,0.37,20.08,0.45,27.41" style="fill:none;stroke:#999;stroke-width:3"></path>
<path d="M479.96,32.82c0.99,0.25,2.8,0.3,3.79,0.25c7.13-0.36,28.11-3.64,34.25-4.03c1.64-0.1,2.85-0.06,3.72-0.02" style="fill:none;stroke:#999;stroke-width:3"></path>

<path d="M578.25,17.39c0.13,1.18,0.22,2.67-0.11,4.12c-2.11,9.2-10.26,26.98-20.08,39.45" style="fill:none;stroke:#999;stroke-width:3"></path>
<path d="M571.99,43.5c0.66,0.68,0.84,2.19,0.84,3.58c0,14.46-0.32,38.08-0.32,47.79" style="fill:none;stroke:#999;stroke-width:3"></path>
<path d="M588.62,21.85c0.99,0.34,2.8,0.41,3.79,0.34c7.12-0.49,29.75-3.52,35.89-4.05c1.64-0.14,2.32-0.08,3.19-0.02" style="fill:none;stroke:#999;stroke-width:3"></path>
<path d="M606.62,10.88c0.8,0.23,2.65,2.7,2.65,3.18c0,5.93,0.37,20.08,0.45,27.41" style="fill:none;stroke:#999;stroke-width:3"></path>
<path d="M588.96,32.82c0.99,0.25,2.8,0.3,3.79,0.25c7.13-0.36,28.11-3.64,34.25-4.03c1.64-0.1,2.85-0.06,3.72-0.02" style="fill:none;stroke:#999;stroke-width:3"></path>
<path d="M580.88,44.64c1.54,0.27,4.37,0.41,5.91,0.27c12.52-1.16,34.53-3.91,47.82-5.18c2.54-0.24,6.29-0.23,8.14,0.43" style="fill:none;stroke:#999;stroke-width:3"></path>

<path d="M687.25,17.39c0.13,1.18,0.22,2.67-0.11,4.12c-2.11,9.2-10.26,26.98-20.08,39.45" style="fill:none;stroke:#999;stroke-width:3"></path>
<path d="M680.99,43.5c0.66,0.68,0.84,2.19,0.84,3.58c0,14.46-0.32,38.08-0.32,47.79" style="fill:none;stroke:#999;stroke-width:3"></path>
<path d="M697.62,21.85c0.99,0.34,2.8,0.41,3.79,0.34c7.12-0.49,29.75-3.52,35.89-4.05c1.64-0.14,2.32-0.08,3.19-0.02" style="fill:none;stroke:#999;stroke-width:3"></path>
<path d="M715.62,10.88c0.8,0.23,2.65,2.7,2.65,3.18c0,5.93,0.37,20.08,0.45,27.41" style="fill:none;stroke:#999;stroke-width:3"></path>
<path d="M697.96,32.82c0.99,0.25,2.8,0.3,3.79,0.25c7.13-0.36,28.11-3.64,34.25-4.03c1.64-0.1,2.85-0.06,3.72-0.02" style="fill:none;stroke:#999;stroke-width:3"></path>
<path d="M689.88,44.64c1.54,0.27,4.37,0.41,5.91,0.27c12.52-1.16,34.53-3.91,47.82-5.18c2.54-0.24,6.29-0.23,8.14,0.43" style="fill:none;stroke:#999;stroke-width:3"></path>
<path d="M702.06,52.78c0.71,0.55,1.18,2.1,1.41,2.65c0.24,0.55,0.13,24.58,0.13,40.32" style="fill:none;stroke:#999;stroke-width:3"></path>

<path d="M796.25,17.39c0.13,1.18,0.22,2.67-0.11,4.12c-2.11,9.2-10.26,26.98-20.08,39.45" style="fill:none;stroke:#999;stroke-width:3"></path>
<path d="M789.99,43.5c0.66,0.68,0.84,2.19,0.84,3.58c0,14.46-0.32,38.08-0.32,47.79" style="fill:none;stroke:#999;stroke-width:3"></path>
<path d="M806.62,21.85c0.99,0.34,2.8,0.41,3.79,0.34c7.12-0.49,29.75-3.52,35.89-4.05c1.64-0.14,2.32-0.08,3.19-0.02" style="fill:none;stroke:#999;stroke-width:3"></path>
<path d="M824.62,10.88c0.8,0.23,2.65,2.7,2.65,3.18c0,5.93,0.37,20.08,0.45,27.41" style="fill:none;stroke:#999;stroke-width:3"></path>
<path d="M806.96,32.82c0.99,0.25,2.8,0.3,3.79,0.25c7.13-0.36,28.11-3.64,34.25-4.03c1.64-0.1,2.85-0.06,3.72-0.02" style="fill:none;stroke:#999;stroke-width:3"></path>
<path d="M798.88,44.64c1.54,0.27,4.37,0.41,5.91,0.27c12.52-1.16,34.53-3.91,47.82-5.18c2.54-0.24,6.29-0.23,8.14,0.43" style="fill:none;stroke:#999;stroke-width:3"></path>
<path d="M811.06,52.78c0.71,0.55,1.18,2.1,1.41,2.65c0.24,0.55,0.13,24.58,0.13,40.32" style="fill:none;stroke:#999;stroke-width:3"></path>
<path d="M812.39,54.33c5.36-0.58,26.26-3.61,28.37-3.61c2.49,0,4.21,0.78,4.21,2.61c0,4.18-0.1,25.74-0.21,36.85C844.67,100,840.0,94,837.97,91.91" style="fill:none;stroke:#999;stroke-width:3"></path>

<path d="M905.25,17.39c0.13,1.18,0.22,2.67-0.11,4.12c-2.11,9.2-10.26,26.98-20.08,39.45" style="fill:none;stroke:#999;stroke-width:3"></path>
<path d="M898.99,43.5c0.66,0.68,0.84,2.19,0.84,3.58c0,14.46-0.32,38.08-0.32,47.79" style="fill:none;stroke:#999;stroke-width:3"></path>
<path d="M915.62,21.85c0.99,0.34,2.8,0.41,3.79,0.34c7.12-0.49,29.75-3.52,35.89-4.05c1.64-0.14,2.32-0.08,3.19-0.02" style="fill:none;stroke:#999;stroke-width:3"></path>
<path d="M933.62,10.88c0.8,0.23,2.65,2.7,2.65,3.18c0,5.93,0.37,20.08,0.45,27.41" style="fill:none;stroke:#999;stroke-width:3"></path>
<path d="M915.96,32.82c0.99,0.25,2.8,0.3,3.79,0.25c7.13-0.36,28.11-3.64,34.25-4.03c1.64-0.1,2.85-0.06,3.72-0.02" style="fill:none;stroke:#999;stroke-width:3"></path>
<path d="M907.88,44.64c1.54,0.27,4.37,0.41,5.91,0.27c12.52-1.16,34.53-3.91,47.82-5.18c2.54-0.24,6.29-0.23,8.14,0.43" style="fill:none;stroke:#999;stroke-width:3"></path>
<path d="M920.06,52.78c0.71,0.55,1.18,2.1,1.41,2.65c0.24,0.55,0.13,24.58,0.13,40.32" style="fill:none;stroke:#999;stroke-width:3"></path>
<path d="M921.39,54.33c5.36-0.58,26.26-3.61,28.37-3.61c2.49,0,4.21,0.78,4.21,2.61c0,4.18-0.1,25.74-0.21,36.85C953.67,100,949.0,94,946.97,91.91" style="fill:none;stroke:#999;stroke-width:3"></path>
<path d="M937.39,52.36c0,4.64-0.14,13.89-0.14,16.64" style="fill:none;stroke:#999;stroke-width:3"></path>

<path d="M1014.25,17.39c0.13,1.18,0.22,2.67-0.11,4.12c-2.11,9.2-10.26,26.98-20.08,39.45" style="fill:none;stroke:#999;stroke-width:3"></path>
<path d="M1007.99,43.5c0.66,0.68,0.84,2.19,0.84,3.58c0,14.46-0.32,38.08-0.32,47.79" style="fill:none;stroke:#999;stroke-width:3"></path>
<path d="M1024.62,21.85c0.99,0.34,2.8,0.41,3.79,0.34c7.12-0.49,29.75-3.52,35.89-4.05c1.64-0.14,2.32-0.08,3.19-0.02" style="fill:none;stroke:#999;stroke-width:3"></path>
<path d="M1042.62,10.88c0.8,0.23,2.65,2.7,2.65,3.18c0,5.93,0.37,20.08,0.45,27.41" style="fill:none;stroke:#999;stroke-width:3"></path>
<path d="M1024.96,32.82c0.99,0.25,2.8,0.3,3.79,0.25c7.13-0.36,28.11-3.64,34.25-4.03c1.64-0.1,2.85-0.06,3.72-0.02" style="fill:none;stroke:#999;stroke-width:3"></path>
<path d="M1016.88,44.64c1.54,0.27,4.37,0.41,5.91,0.27c12.52-1.16,34.53-3.91,47.82-5.18c2.54-0.24,6.29-0.23,8.14,0.43" style="fill:none;stroke:#999;stroke-width:3"></path>
<path d="M1029.06,52.78c0.71,0.55,1.18,2.1,1.41,2.65c0.24,0.55,0.13,24.58,0.13,40.32" style="fill:none;stroke:#999;stroke-width:3"></path>
<path d="M1030.3899999999999,54.33c5.36-0.58,26.26-3.61,28.37-3.61c2.49,0,4.21,0.78,4.21,2.61c0,4.18-0.1,25.74-0.21,36.85C1062.67,100,1058.0,94,1055.97,91.91" style="fill:none;stroke:#999;stroke-width:3"></path>
<path d="M1046.3899999999999,52.36c0,4.64-0.14,13.89-0.14,16.64" style="fill:none;stroke:#999;stroke-width:3"></path>
<path d="M1031.6,70.74c9.65-0.74,21.65-2.24,31.47-2.42" style="fill:none;stroke:#999;stroke-width:3"></path>

</svg>