<svg width="1635px" height="109px" viewBox="0 0 1635 109" xmlns="http://www.w3.org/2000/svg" xmlns:xlink="http://www.w3.org/1999/xlink" xml:space="preserve" version="1.1" baseProfile="full">
<line x1="1" y1="1" x2="1634" y2="1" style="stroke:#ddd;stroke-width:2"></line>
<line x1="1" y1="1" x2="1" y2="108" style="stroke:#ddd;stroke-width:2"></line>
<line x1="1" y1="108" x2="1634" y2="108" style="stroke:#ddd;stroke-width:2"></line>
<line x1="1634" y1="1" x2="1634" y2="108" style="stroke:#ddd;stroke-width:2"></line>
<line x1="109" y1="1" x2="109" y2="108" style="stroke:#ddd;stroke-width:2"></line>
<line x1="218" y1="1" x2="218" y2="108" style="stroke:#ddd;stroke-width:2"></line>
<line x1="327" y1="1" x2="327" y2="108" style="stroke:#ddd;stroke-width:2"></line>
<line x1="436" y1="1" x2="436" y2="108" style="stroke:#ddd;stroke-width:2"></line>
<line x1="545" y1="1" x2="545" y2="108" style="stroke:#ddd;stroke-width:2"></line>
<line x1="654" y1="1" x2="654" y2="108" style="stroke:#ddd;stroke-width:2"></line>
<line x1="763" y1="1" x2="763" y2="108" style="stroke:#ddd;stroke-width:2"></line>
<line x1="872" y1="1" x2="872" y2="108" style="stroke:#ddd;stroke-width:2"></line>
<line x1="981" y1="1" x2="981" y2="108" style="stroke:#ddd;stroke-width:2"></line>
<line x1="1090" y1="1" x2="1090" y2="108" style="stroke:#ddd;stroke-width:2"></line>
<line x1="1199" y1="1" x2="1199" y2="108" style="stroke:#ddd;stroke-width:2"></line>
<line x1="1308" y1="1" x2="1308" y2="108" style="stroke:#ddd;stroke-width:2"></line>
<line x1="1417" y1="1" x2="1417" y2="108" style="stroke:#ddd;stroke-width:2"></line>
<line x1="1526" y1="1" x2="1526" y2="108" style="stroke:#ddd;stroke-width:2"></line>
<line x1="1" y1="54" x2="1634" y2="54" style="stroke:#ddd;stroke-width:2;stroke-dasharray:3 3"></line>
<line x1="55" y1="1" x2="55" y2="108" style="stroke:#ddd;stroke-width:2;stroke-dasharray:3 3"></line>
<line x1="164" y1="1" x2="164" y2="108" style="stroke:#ddd;stroke-width:2;stroke-dasharray:3 3"></line>
<line x1="273" y1="1" x2="273" y2="108" style="stroke:#ddd;stroke-width:2;stroke-dasharray:3 3"></line>
<line x1="382" y1="1" x2="382" y2="108" style="stroke:#ddd;stroke-width:2;stroke-dasharray:3 3"></line>
<line x1="491" y1="1" x2="491" y2="108" style="stroke:#ddd;stroke-width:2;stroke-dasharray:3 3"></line>
<line x1="600" y1="1" x2="600" y2="108" style="stroke:#ddd;stroke-width:2;stroke-dasharray:3 3"></line>
<line x1="709" y1="1" x2="709" y2="108" style="stroke:#ddd;stroke-width:2;stroke-dasharray:3 3"></line>
<line x1="818" y1="1" x2="818" y2="108" style="stroke:#ddd;stroke-width:2;stroke-dasharray:3 3"></line>
<line x1="927" y1="1" x2="927" y2="108" style="stroke:#ddd;stroke-width:2;stroke-dasharray:3 3"></line>
<line x1="1036" y1="1" x2="1036" y2="108" style="stroke:#ddd;stroke-width:2;stroke-dasharray:3 3"></line>
<line x1="1145" y1="1" x2="1145" y2="108" style="stroke:#ddd;stroke-width:2;stroke-dasharray:3 3"></line>
<line x1="1254" y1="1" x2="1254" y2="108" style="stroke:#ddd;stroke-width:2;stroke-dasharray:3 3"></line>
<line x1="1363" y1="1" x2="1363" y2="108" style="stroke:#ddd;stroke-width:2;stroke-dasharray:3 3"></line>
<line x1="1472" y1="1" x2="1472" y2="108" style="stroke:#ddd;stroke-width:2;stroke-dasharray:3 3"></line>
<line x1="1581" y1="1" x2="1581" y2="108" style="stroke:#ddd;stroke-width:2;stroke-dasharray:3 3"></line>
<path d="M32.93,16c0.13,1.15,0.24,2.59-0.12,4.01c-2.26,8.93-11.02,26.21-21.56,38.32" style="fill:none;stroke:#999;stroke-width:3"></path>

<path d="M141.93,16c0.13,1.15,0.24,2.59-0.12,4.01c-2.26,8.93-11.02,26.21-21.56,38.32" style="fill:none;stroke:#999;stroke-width:3"></path>
<path d="M134.45,41.11c0.63,0.65,0.81,2.1,0.81,3.45c0,13.9-0.31,42.84-0.31,52.18" style="fill:none;stroke:#999;stroke-width:3"></path>

<path d="M250.93,16c0.13,1.15,0.24,2.59-0.12,4.01c-2.26,8.93-11.02,26.21-21.56,38.32" style="fill:none;stroke:#999;stroke-width:3"></path>
<path d="M243.45,41.11c0.63,0.65,0.81,2.1,0.81,3.45c0,13.9-0.31,42.84-0.31,52.18" style="fill:none;stroke:#999;stroke-width:3"></path>
<path d="M258.36,22.8c1.02,0.43,2.21,0.51,3.23,0.43c9.39-0.78,37.01-3.9,47.83-3.96c1.7-0.01,2.72,0.2,3.58,0.42" style="fill:none;stroke:#999;stroke-width:3"></path>

<path d="M359.93,16c0.13,1.15,0.24,2.59-0.12,4.01c-2.26,8.93-11.02,26.21-21.56,38.32" style="fill:none;stroke:#999;stroke-width:3"></path>
<path d="M352.45,41.11c0.63,0.65,0.81,2.1,0.81,3.45c0,13.9-0.31,42.84-0.31,52.18" style="fill:none;stroke:#999;stroke-width:3"></path>
<path d="M367.36,22.8c1.02,0.43,2.21,0.51,3.23,0.43c9.39-0.78,37.01-3.9,47.83-3.96c1.7-0.01,2.72,0.2,3.58,0.42" style="fill:none;stroke:#999;stroke-width:3"></path>
<path d="M380.4,12.94c1.25,0.9,1.65,1.18,1.78,1.73c1.25,5.2,1.81,11.06,2.17,12.96" style="fill:none;stroke:#999;stroke-width:3"></path>

<path d="M468.93,16c0.13,1.15,0.24,2.59-0.12,4.01c-2.26,8.93-11.02,26.21-21.56,38.32" style="fill:none;stroke:#999;stroke-width:3"></path>
<path d="M461.45,41.11c0.63,0.65,0.81,2.1,0.81,3.45c0,13.9-0.31,42.84-0.31,52.18" style="fill:none;stroke:#999;stroke-width:3"></path>
<path d="M476.36,22.8c1.02,0.43,2.21,0.51,3.23,0.43c9.39-0.78,37.01-3.9,47.83-3.96c1.7-0.01,2.72,0.2,3.58,0.42" style="fill:none;stroke:#999;stroke-width:3"></path>
<path d="M489.4,12.94c1.25,0.9,1.65,1.18,1.78,1.73c1.25,5.2,1.81,11.06,2.17,12.96" style="fill:none;stroke:#999;stroke-width:3"></path>
<path d="M511.37,11.75c0.23,0.74,0.32,1.25,0.27,2.19c-0.14,2.56-1.39,7.81-2.28,12.47" style="fill:none;stroke:#999;stroke-width:3"></path>

<path d="M577.9300000000001,16c0.13,1.15,0.24,2.59-0.12,4.01c-2.26,8.93-11.02,26.21-21.56,38.32" style="fill:none;stroke:#999;stroke-width:3"></path>
<path d="M570.45,41.11c0.63,0.65,0.81,2.1,0.81,3.45c0,13.9-0.31,42.84-0.31,52.18" style="fill:none;stroke:#999;stroke-width:3"></path>
<path d="M585.36,22.8c1.02,0.43,2.21,0.51,3.23,0.43c9.39-0.78,37.01-3.9,47.83-3.96c1.7-0.01,2.72,0.2,3.58,0.42" style="fill:none;stroke:#999;stroke-width:3"></path>
<path d="M598.4,12.94c1.25,0.9,1.65,1.18,1.78,1.73c1.25,5.2,1.81,11.06,2.17,12.96" style="fill:none;stroke:#999;stroke-width:3"></path>
<path d="M620.37,11.75c0.23,0.74,0.32,1.25,0.27,2.19c-0.14,2.56-1.39,7.81-2.28,12.47" style="fill:none;stroke:#999;stroke-width:3"></path>
<path d="M587.92,32.16c0.24,0.23,0.49,0.42,0.6,0.71c0.84,2.28,2.27,8.57,2.85,12.67" style="fill:none;stroke:#999;stroke-width:3"></path>

<path d="M686.9300000000001,16c0.13,1.15,0.24,2.59-0.12,4.01c-2.26,8.93-11.02,26.21-21.56,38.32" style="fill:none;stroke:#999;stroke-width:3"></path>
<path d="M679.45,41.11c0.63,0.65,0.81,2.1,0.81,3.45c0,13.9-0.31,42.84-0.31,52.18" style="fill:none;stroke:#999;stroke-width:3"></path>
<path d="M694.36,22.8c1.02,0.43,2.21,0.51,3.23,0.43c9.39-0.78,37.01-3.9,47.83-3.96c1.7-0.01,2.72,0.2,3.58,0.42" style="fill:none;stroke:#999;stroke-width:3"></path>
<path d="M707.4,12.94c1.25,0.9,1.65,1.18,1.78,1.73c1.25,5.2,1.81,11.06,2.17,12.96" style="fill:none;stroke:#999;stroke-width:3"></path>
<path d="M729.37,11.75c0.23,0.74,0.32,1.25,0.27,2.19c-0.14,2.56-1.39,7.81-2.28,12.47" style="fill:none;stroke:#999;stroke-width:3"></path>
<path d="M696.92,32.16c0.24,0.23,0.49,0.42,0.6,0.71c0.84,2.28,2.27,8.57,2.85,12.67" style="fill:none;stroke:#999;stroke-width:3"></path>
<path d="M698.43,33.71c5.35-0.89,41.69-3.73,44.53-4.03c1.04-0.11,2.45,0.77,2.17,2.05c-0.58,2.68-2.01,7.73-3.56,11.55" style="fill:none;stroke:#999;stroke-width:3"></path>

<path d="M795.9300000000001,16c0.13,1.15,0.24,2.59-0.12,4.01c-2.26,8.93-11.02,26.21-21.56,38.32" style="fill:none;stroke:#999;stroke-width:3"></path>
<path d="M788.45,41.11c0.63,0.65,0.81,2.1,0.81,3.45c0,13.9-0.31,42.84-0.31,52.18" style="fill:none;stroke:#999;stroke-width:3"></path>
<path d="M803.36,22.8c1.02,0.43,2.21,0.51,3.23,0.43c9.39-0.78,37.01-3.9,47.83-3.96c1.7-0.01,2.72,0.2,3.58,0.42" style="fill:none;stroke:#999;stroke-width:3"></path>
<path d="M816.4,12.94c1.25,0.9,1.65,1.18,1.78,1.73c1.25,5.2,1.81,11.06,2.17,12.96" style="fill:none;stroke:#999;stroke-width:3"></path>
<path d="M838.37,11.75c0.23,0.74,0.32,1.25,0.27,2.19c-0.14,2.56-1.39,7.81-2.28,12.47" style="fill:none;stroke:#999;stroke-width:3"></path>
<path d="M805.92,32.16c0.24,0.23,0.49,0.42,0.6,0.71c0.84,2.28,2.27,8.57,2.85,12.67" style="fill:none;stroke:#999;stroke-width:3"></path>
<path d="M807.43,33.71c5.35-0.89,41.69-3.73,44.53-4.03c1.04-0.11,2.45,0.77,2.17,2.05c-0.58,2.68-2.01,7.73-3.56,11.55" style="fill:none;stroke:#999;stroke-width:3"></path>
<path d="M821.79,32.44c0.16,1.52,1.31,8.93,1.47,10.64" style="fill:none;stroke:#999;stroke-width:3"></path>

<path d="M904.9300000000001,16c0.13,1.15,0.24,2.59-0.12,4.01c-2.26,8.93-11.02,26.21-21.56,38.32" style="fill:none;stroke:#999;stroke-width:3"></path>
<path d="M897.45,41.11c0.63,0.65,0.81,2.1,0.81,3.45c0,13.9-0.31,42.84-0.31,52.18" style="fill:none;stroke:#999;stroke-width:3"></path>
<path d="M912.36,22.8c1.02,0.43,2.21,0.51,3.23,0.43c9.39-0.78,37.01-3.9,47.83-3.96c1.7-0.01,2.72,0.2,3.58,0.42" style="fill:none;stroke:#999;stroke-width:3"></path>
<path d="M925.4,12.94c1.25,0.9,1.65,1.18,1.78,1.73c1.25,5.2,1.81,11.06,2.17,12.96" style="fill:none;stroke:#999;stroke-width:3"></path>
<path d="M947.37,11.75c0.23,0.74,0.32,1.25,0.27,2.19c-0.14,2.56-1.39,7.81-2.28,12.47" style="fill:none;stroke:#999;stroke-width:3"></path>
<path d="M914.92,32.16c0.24,0.23,0.49,0.42,0.6,0.71c0.84,2.28,2.27,8.57,2.85,12.67" style="fill:none;stroke:#999;stroke-width:3"></path>
<path d="M916.43,33.71c5.35-0.89,41.69-3.73,44.53-4.03c1.04-0.11,2.45,0.77,2.17,2.05c-0.58,2.68-2.01,7.73-3.56,11.55" style="fill:none;stroke:#999;stroke-width:3"></path>
<path d="M930.79,32.44c0.16,1.52,1.31,8.93,1.47,10.64" style="fill:none;stroke:#999;stroke-width:3"></path>
<path d="M945.04,31.49c0.84,0.72,1.15,1.88,1.05,2.81c-0.31,2.94-0.84,6.49-1.09,7.64" style="fill:none;stroke:#999;stroke-width:3"></path>

<path d="M1013.9300000000001,16c0.13,1.15,0.24,2.59-0.12,4.01c-2.26,8.93-11.02,26.21-21.56,38.32" style="fill:none;stroke:#999;stroke-width:3"></path>
<path d="M1006.45,41.11c0.63,0.65,0.81,2.1,0.81,3.45c0,13.9-0.31,42.84-0.31,52.18" style="fill:none;stroke:#999;stroke-width:3"></path>
<path d="M1021.36,22.8c1.02,0.43,2.21,0.51,3.23,0.43c9.39-0.78,37.01-3.9,47.83-3.96c1.7-0.01,2.72,0.2,3.58,0.42" style="fill:none;stroke:#999;stroke-width:3"></path>
<path d="M1034.4,12.94c1.25,0.9,1.65,1.18,1.78,1.73c1.25,5.2,1.81,11.06,2.17,12.96" style="fill:none;stroke:#999;stroke-width:3"></path>
<path d="M1056.37,11.75c0.23,0.74,0.32,1.25,0.27,2.19c-0.14,2.56-1.39,7.81-2.28,12.47" style="fill:none;stroke:#999;stroke-width:3"></path>
<path d="M1023.92,32.16c0.24,0.23,0.49,0.42,0.6,0.71c0.84,2.28,2.27,8.57,2.85,12.67" style="fill:none;stroke:#999;stroke-width:3"></path>
<path d="M1025.4299999999998,33.71c5.35-0.89,41.69-3.73,44.53-4.03c1.04-0.11,2.45,0.77,2.17,2.05c-0.58,2.68-2.01,7.73-3.56,11.55" style="fill:none;stroke:#999;stroke-width:3"></path>
<path d="M1039.79,32.44c0.16,1.52,1.31,8.93,1.47,10.64" style="fill:none;stroke:#999;stroke-width:3"></path>
<path d="M1054.04,31.49c0.84,0.72,1.15,1.88,1.05,2.81c-0.31,2.94-0.84,6.49-1.09,7.64" style="fill:none;stroke:#999;stroke-width:3"></path>
<path d="M1028.13,44.3c3.34-0.34,36.24-2.44,40.82-2.97" style="fill:none;stroke:#999;stroke-width:3"></path>

<path d="M1122.93,16c0.13,1.15,0.24,2.59-0.12,4.01c-2.26,8.93-11.02,26.21-21.56,38.32" style="fill:none;stroke:#999;stroke-width:3"></path>
<path d="M1115.45,41.11c0.63,0.65,0.81,2.1,0.81,3.45c0,13.9-0.31,42.84-0.31,52.18" style="fill:none;stroke:#999;stroke-width:3"></path>
<path d="M1130.3600000000001,22.8c1.02,0.43,2.21,0.51,3.23,0.43c9.39-0.78,37.01-3.9,47.83-3.96c1.7-0.01,2.72,0.2,3.58,0.42" style="fill:none;stroke:#999;stroke-width:3"></path>
<path d="M1143.4,12.94c1.25,0.9,1.65,1.18,1.78,1.73c1.25,5.2,1.81,11.06,2.17,12.96" style="fill:none;stroke:#999;stroke-width:3"></path>
<path d="M1165.37,11.75c0.23,0.74,0.32,1.25,0.27,2.19c-0.14,2.56-1.39,7.81-2.28,12.47" style="fill:none;stroke:#999;stroke-width:3"></path>
<path d="M1132.92,32.16c0.24,0.23,0.49,0.42,0.6,0.71c0.84,2.28,2.27,8.57,2.85,12.67" style="fill:none;stroke:#999;stroke-width:3"></path>
<path d="M1134.4299999999998,33.71c5.35-0.89,41.69-3.73,44.53-4.03c1.04-0.11,2.45,0.77,2.17,2.05c-0.58,2.68-2.01,7.73-3.56,11.55" style="fill:none;stroke:#999;stroke-width:3"></path>
<path d="M1148.79,32.44c0.16,1.52,1.31,8.93,1.47,10.64" style="fill:none;stroke:#999;stroke-width:3"></path>
<path d="M1163.04,31.49c0.84,0.72,1.15,1.88,1.05,2.81c-0.31,2.94-0.84,6.49-1.09,7.64" style="fill:none;stroke:#999;stroke-width:3"></path>
<path d="M1137.13,44.3c3.34-0.34,36.24-2.44,40.82-2.97" style="fill:none;stroke:#999;stroke-width:3"></path>
<path d="M1132.62,49.33c-0.15,3.22-3.82,11.63-5.12,13.55" style="fill:none;stroke:#999;stroke-width:3"></path>

<path d="M1231.93,16c0.13,1.15,0.24,2.59-0.12,4.01c-2.26,8.93-11.02,26.21-21.56,38.32" style="fill:none;stroke:#999;stroke-width:3"></path>
<path d="M1224.45,41.11c0.63,0.65,0.81,2.1,0.81,3.45c0,13.9-0.31,42.84-0.31,52.18" style="fill:none;stroke:#999;stroke-width:3"></path>
<path d="M1239.3600000000001,22.8c1.02,0.43,2.21,0.51,3.23,0.43c9.39-0.78,37.01-3.9,47.83-3.96c1.7-0.01,2.72,0.2,3.58,0.42" style="fill:none;stroke:#999;stroke-width:3"></path>
<path d="M1252.4,12.94c1.25,0.9,1.65,1.18,1.78,1.73c1.25,5.2,1.81,11.06,2.17,12.96" style="fill:none;stroke:#999;stroke-width:3"></path>
<path d="M1274.37,11.75c0.23,0.74,0.32,1.25,0.27,2.19c-0.14,2.56-1.39,7.81-2.28,12.47" style="fill:none;stroke:#999;stroke-width:3"></path>
<path d="M1241.92,32.16c0.24,0.23,0.49,0.42,0.6,0.71c0.84,2.28,2.27,8.57,2.85,12.67" style="fill:none;stroke:#999;stroke-width:3"></path>
<path d="M1243.4299999999998,33.71c5.35-0.89,41.69-3.73,44.53-4.03c1.04-0.11,2.45,0.77,2.17,2.05c-0.58,2.68-2.01,7.73-3.56,11.55" style="fill:none;stroke:#999;stroke-width:3"></path>
<path d="M1257.79,32.44c0.16,1.52,1.31,8.93,1.47,10.64" style="fill:none;stroke:#999;stroke-width:3"></path>
<path d="M1272.04,31.49c0.84,0.72,1.15,1.88,1.05,2.81c-0.31,2.94-0.84,6.49-1.09,7.64" style="fill:none;stroke:#999;stroke-width:3"></path>
<path d="M1246.13,44.3c3.34-0.34,36.24-2.44,40.82-2.97" style="fill:none;stroke:#999;stroke-width:3"></path>
<path d="M1241.62,49.33c-0.15,3.22-3.82,11.63-5.12,13.55" style="fill:none;stroke:#999;stroke-width:3"></path>
<path d="M1241.1,52.93c2.98,0,34.3-4.19,50.07-4.89c10.17-0.45,3.21,5.31-0.59,8.77" style="fill:none;stroke:#999;stroke-width:3"></path>

<path d="M1340.93,16c0.13,1.15,0.24,2.59-0.12,4.01c-2.26,8.93-11.02,26.21-21.56,38.32" style="fill:none;stroke:#999;stroke-width:3"></path>
<path d="M1333.45,41.11c0.63,0.65,0.81,2.1,0.81,3.45c0,13.9-0.31,42.84-0.31,52.18" style="fill:none;stroke:#999;stroke-width:3"></path>
<path d="M1348.3600000000001,22.8c1.02,0.43,2.21,0.51,3.23,0.43c9.39-0.78,37.01-3.9,47.83-3.96c1.7-0.01,2.72,0.2,3.58,0.42" style="fill:none;stroke:#999;stroke-width:3"></path>
<path d="M1361.4,12.94c1.25,0.9,1.65,1.18,1.78,1.73c1.25,5.2,1.81,11.06,2.17,12.96" style="fill:none;stroke:#999;stroke-width:3"></path>
<path d="M1383.37,11.75c0.23,0.74,0.32,1.25,0.27,2.19c-0.14,2.56-1.39,7.81-2.28,12.47" style="fill:none;stroke:#999;stroke-width:3"></path>
<path d="M1350.92,32.16c0.24,0.23,0.49,0.42,0.6,0.71c0.84,2.28,2.27,8.57,2.85,12.67" style="fill:none;stroke:#999;stroke-width:3"></path>
<path d="M1352.4299999999998,33.71c5.35-0.89,41.69-3.73,44.53-4.03c1.04-0.11,2.45,0.77,2.17,2.05c-0.58,2.68-2.01,7.73-3.56,11.55" style="fill:none;stroke:#999;stroke-width:3"></path>
<path d="M1366.79,32.44c0.16,1.52,1.31,8.93,1.47,10.64" style="fill:none;stroke:#999;stroke-width:3"></path>
<path d="M1381.04,31.49c0.84,0.72,1.15,1.88,1.05,2.81c-0.31,2.94-0.84,6.49-1.09,7.64" style="fill:none;stroke:#999;stroke-width:3"></path>
<path d="M1355.13,44.3c3.34-0.34,36.24-2.44,40.82-2.97" style="fill:none;stroke:#999;stroke-width:3"></path>
<path d="M1350.62,49.33c-0.15,3.22-3.82,11.63-5.12,13.55" style="fill:none;stroke:#999;stroke-width:3"></path>
<path d="M1350.1,52.93c2.98,0,34.3-4.19,50.07-4.89c10.17-0.45,3.21,5.31-0.59,8.77" style="fill:none;stroke:#999;stroke-width:3"></path>
<path d="M1370.99,53.29c0.21,0.42-0.24,2.19-0.59,2.98c-2.4,5.49-8.74,14.9-19.48,21.44" style="fill:none;stroke:#999;stroke-width:3"></path>

<path d="M1449.93,16c0.13,1.15,0.24,2.59-0.12,4.01c-2.26,8.93-11.02,26.21-21.56,38.32" style="fill:none;stroke:#999;stroke-width:3"></path>
<path d="M1442.45,41.11c0.63,0.65,0.81,2.1,0.81,3.45c0,13.9-0.31,42.84-0.31,52.18" style="fill:none;stroke:#999;stroke-width:3"></path>
<path d="M1457.3600000000001,22.8c1.02,0.43,2.21,0.51,3.23,0.43c9.39-0.78,37.01-3.9,47.83-3.96c1.7-0.01,2.72,0.2,3.58,0.42" style="fill:none;stroke:#999;stroke-width:3"></path>
<path d="M1470.4,12.94c1.25,0.9,1.65,1.18,1.78,1.73c1.25,5.2,1.81,11.06,2.17,12.96" style="fill:none;stroke:#999;stroke-width:3"></path>
<path d="M1492.37,11.75c0.23,0.74,0.32,1.25,0.27,2.19c-0.14,2.56-1.39,7.81-2.28,12.47" style="fill:none;stroke:#999;stroke-width:3"></path>
<path d="M1459.92,32.16c0.24,0.23,0.49,0.42,0.6,0.71c0.84,2.28,2.27,8.57,2.85,12.67" style="fill:none;stroke:#999;stroke-width:3"></path>
<path d="M1461.4299999999998,33.71c5.35-0.89,41.69-3.73,44.53-4.03c1.04-0.11,2.45,0.77,2.17,2.05c-0.58,2.68-2.01,7.73-3.56,11.55" style="fill:none;stroke:#999;stroke-width:3"></path>
<path d="M1475.79,32.44c0.16,1.52,1.31,8.93,1.47,10.64" style="fill:none;stroke:#999;stroke-width:3"></path>
<path d="M1490.04,31.49c0.84,0.72,1.15,1.88,1.05,2.81c-0.31,2.94-0.84,6.49-1.09,7.64" style="fill:none;stroke:#999;stroke-width:3"></path>
<path d="M1464.13,44.3c3.34-0.34,36.24-2.44,40.82-2.97" style="fill:none;stroke:#999;stroke-width:3"></path>
<path d="M1459.62,49.33c-0.15,3.22-3.82,11.63-5.12,13.55" style="fill:none;stroke:#999;stroke-width:3"></path>
<path d="M1459.1,52.93c2.98,0,34.3-4.19,50.07-4.89c10.17-0.45,3.21,5.31-0.59,8.77" style="fill:none;stroke:#999;stroke-width:3"></path>
<path d="M1479.99,53.29c0.21,0.42-0.24,2.19-0.59,2.98c-2.4,5.49-8.74,14.9-19.48,21.44" style="fill:none;stroke:#999;stroke-width:3"></path>
<path d="M1479.71,62.71c0.31,0.04,2.63,0,3.52-0.12c2.91-0.4,8.46-1.86,13.47-2.31c2.96-0.26,2.99,1.32,1.67,3.3C1490.25,75.75,1480.0,89.25,1458.2,97.25" style="fill:none;stroke:#999;stroke-width:3"></path>

<path d="M1558.93,16c0.13,1.15,0.24,2.59-0.12,4.01c-2.26,8.93-11.02,26.21-21.56,38.32" style="fill:none;stroke:#999;stroke-width:3"></path>
<path d="M1551.45,41.11c0.63,0.65,0.81,2.1,0.81,3.45c0,13.9-0.31,42.84-0.31,52.18" style="fill:none;stroke:#999;stroke-width:3"></path>
<path d="M1566.3600000000001,22.8c1.02,0.43,2.21,0.51,3.23,0.43c9.39-0.78,37.01-3.9,47.83-3.96c1.7-0.01,2.72,0.2,3.58,0.42" style="fill:none;stroke:#999;stroke-width:3"></path>
<path d="M1579.4,12.94c1.25,0.9,1.65,1.18,1.78,1.73c1.25,5.2,1.81,11.06,2.17,12.96" style="fill:none;stroke:#999;stroke-width:3"></path>
<path d="M1601.37,11.75c0.23,0.74,0.32,1.25,0.27,2.19c-0.14,2.56-1.39,7.81-2.28,12.47" style="fill:none;stroke:#999;stroke-width:3"></path>
<path d="M1568.92,32.16c0.24,0.23,0.49,0.42,0.6,0.71c0.84,2.28,2.27,8.57,2.85,12.67" style="fill:none;stroke:#999;stroke-width:3"></path>
<path d="M1570.4299999999998,33.71c5.35-0.89,41.69-3.73,44.53-4.03c1.04-0.11,2.45,0.77,2.17,2.05c-0.58,2.68-2.01,7.73-3.56,11.55" style="fill:none;stroke:#999;stroke-width:3"></path>
<path d="M1584.79,32.44c0.16,1.52,1.31,8.93,1.47,10.64" style="fill:none;stroke:#999;stroke-width:3"></path>
<path d="M1599.04,31.49c0.84,0.72,1.15,1.88,1.05,2.81c-0.31,2.94-0.84,6.49-1.09,7.64" style="fill:none;stroke:#999;stroke-width:3"></path>
<path d="M1573.13,44.3c3.34-0.34,36.24-2.44,40.82-2.97" style="fill:none;stroke:#999;stroke-width:3"></path>
<path d="M1568.62,49.33c-0.15,3.22-3.82,11.63-5.12,13.55" style="fill:none;stroke:#999;stroke-width:3"></path>
<path d="M1568.1,52.93c2.98,0,34.3-4.19,50.07-4.89c10.17-0.45,3.21,5.31-0.59,8.77" style="fill:none;stroke:#999;stroke-width:3"></path>
<path d="M1588.99,53.29c0.21,0.42-0.24,2.19-0.59,2.98c-2.4,5.49-8.74,14.9-19.48,21.44" style="fill:none;stroke:#999;stroke-width:3"></path>
<path d="M1588.71,62.71c0.31,0.04,2.63,0,3.52-0.12c2.91-0.4,8.46-1.86,13.47-2.31c2.96-0.26,2.99,1.32,1.67,3.3C1599.25,75.75,1589.0,89.25,1567.2,97.25" style="fill:none;stroke:#999;stroke-width:3"></path>
<path d="M1580.11,71.92c3.08,1.61,7.96,6.63,8.73,9.14" style="fill:none;stroke:#999;stroke-width:3"></path>

</svg>