<svg width="218px" height="109px" viewBox="0 0 218 109" xmlns="http://www.w3.org/2000/svg" xmlns:xlink="http://www.w3.org/1999/xlink" xml:space="preserve" version="1.1" baseProfile="full">
<line x1="1" y1="1" x2="217" y2="1" style="stroke:#ddd;stroke-width:2"></line>
<line x1="1" y1="1" x2="1" y2="108" style="stroke:#ddd;stroke-width:2"></line>
<line x1="1" y1="108" x2="217" y2="108" style="stroke:#ddd;stroke-width:2"></line>
<line x1="217" y1="1" x2="217" y2="108" style="stroke:#ddd;stroke-width:2"></line>
<line x1="109" y1="1" x2="109" y2="108" style="stroke:#ddd;stroke-width:2"></line>
<line x1="1" y1="54" x2="217" y2="54" style="stroke:#ddd;stroke-width:2;stroke-dasharray:3 3"></line>
<line x1="55" y1="1" x2="55" y2="108" style="stroke:#ddd;stroke-width:2;stroke-dasharray:3 3"></line>
<line x1="164" y1="1" x2="164" y2="108" style="stroke:#ddd;stroke-width:2;stroke-dasharray:3 3"></line>
<path d="M41.32,15.75c0.83,2.23,1.43,5.46,1.43,8.25c0,25.45,3.99,60.65-24.25,73.75" style="fill:none;stroke:#999;stroke-width:3"></path>

<path d="M150.32,15.75c0.83,2.23,1.43,5.46,1.43,8.25c0,25.45,3.99,60.65-24.25,73.75" style="fill:none;stroke:#999;stroke-width:3"></path>
<path d="M172.25,13.25c0.65,1.21,1.3,3.02,1.52,4.63c0.22,1.61-0.65,60.3,0.22,65.13c0.87,4.84,1.52,10.49,4.99,10.89c3.47,0.4,21.78,1.27,24.08-2.28C204.75,89,205.0,86.07,205.0,81.62" style="fill:none;stroke:#999;stroke-width:3"></path>

</svg>