<svg width="654px" height="109px" viewBox="0 0 654 109" xmlns="http://www.w3.org/2000/svg" xmlns:xlink="http://www.w3.org/1999/xlink" xml:space="preserve" version="1.1" baseProfile="full">
<line x1="1" y1="1" x2="653" y2="1" style="stroke:#ddd;stroke-width:2"></line>
<line x1="1" y1="1" x2="1" y2="108" style="stroke:#ddd;stroke-width:2"></line>
<line x1="1" y1="108" x2="653" y2="108" style="stroke:#ddd;stroke-width:2"></line>
<line x1="653" y1="1" x2="653" y2="108" style="stroke:#ddd;stroke-width:2"></line>
<line x1="109" y1="1" x2="109" y2="108" style="stroke:#ddd;stroke-width:2"></line>
<line x1="218" y1="1" x2="218" y2="108" style="stroke:#ddd;stroke-width:2"></line>
<line x1="327" y1="1" x2="327" y2="108" style="stroke:#ddd;stroke-width:2"></line>
<line x1="436" y1="1" x2="436" y2="108" style="stroke:#ddd;stroke-width:2"></line>
<line x1="545" y1="1" x2="545" y2="108" style="stroke:#ddd;stroke-width:2"></line>
<line x1="1" y1="54" x2="653" y2="54" style="stroke:#ddd;stroke-width:2;stroke-dasharray:3 3"></line>
<line x1="55" y1="1" x2="55" y2="108" style="stroke:#ddd;stroke-width:2;stroke-dasharray:3 3"></line>
<line x1="164" y1="1" x2="164" y2="108" style="stroke:#ddd;stroke-width:2;stroke-dasharray:3 3"></line>
<line x1="273" y1="1" x2="273" y2="108" style="stroke:#ddd;stroke-width:2;stroke-dasharray:3 3"></line>
<line x1="382" y1="1" x2="382" y2="108" style="stroke:#ddd;stroke-width:2;stroke-dasharray:3 3"></line>
<line x1="491" y1="1" x2="491" y2="108" style="stroke:#ddd;stroke-width:2;stroke-dasharray:3 3"></line>
<line x1="600" y1="1" x2="600" y2="108" style="stroke:#ddd;stroke-width:2;stroke-dasharray:3 3"></line>
<path d="M37.51,21c0.07,0.62,0.15,1.61-0.14,2.49C35.25,29.88,31.62,37.38,24.5,45" style="fill:none;stroke:#999;stroke-width:3"></path>

<path d="M146.51,21c0.07,0.62,0.15,1.61-0.14,2.49C144.25,29.88,140.62,37.38,133.5,45" style="fill:none;stroke:#999;stroke-width:3"></path>
<path d="M147.13,32.04c1.5,0.09,3.95-0.16,4.64-0.22c6.48-0.57,20.36-1.82,27.82-2.94c1.65-0.25,3.66-0.13,5.16,0.27" style="fill:none;stroke:#999;stroke-width:3"></path>

<path d="M255.51,21c0.07,0.62,0.15,1.61-0.14,2.49C253.25,29.88,249.62,37.38,242.5,45" style="fill:none;stroke:#999;stroke-width:3"></path>
<path d="M256.13,32.04c1.5,0.09,3.95-0.16,4.64-0.22c6.48-0.57,20.36-1.82,27.82-2.94c1.65-0.25,3.66-0.13,5.16,0.27" style="fill:none;stroke:#999;stroke-width:3"></path>
<path d="M270.81,12.38c1.28,1.28,2.01,3.12,2.01,4.75c0,0.75-0.05,31.92-0.07,32.87" style="fill:none;stroke:#999;stroke-width:3"></path>

<path d="M364.51,21c0.07,0.62,0.15,1.61-0.14,2.49C362.25,29.88,358.62,37.38,351.5,45" style="fill:none;stroke:#999;stroke-width:3"></path>
<path d="M365.13,32.04c1.5,0.09,3.95-0.16,4.64-0.22c6.48-0.57,20.36-1.82,27.82-2.94c1.65-0.25,3.66-0.13,5.16,0.27" style="fill:none;stroke:#999;stroke-width:3"></path>
<path d="M379.81,12.38c1.28,1.28,2.01,3.12,2.01,4.75c0,0.75-0.05,31.92-0.07,32.87" style="fill:none;stroke:#999;stroke-width:3"></path>
<path d="M342.88,53.26c3.42,0.98,7.15,0.5,10.62,0.22c15.99-1.3,38.99-3.55,59-4.4c2.94-0.13,5.84-0.03,8.75,0.47" style="fill:none;stroke:#999;stroke-width:3"></path>

<path d="M473.51,21c0.07,0.62,0.15,1.61-0.14,2.49C471.25,29.88,467.62,37.38,460.5,45" style="fill:none;stroke:#999;stroke-width:3"></path>
<path d="M474.13,32.04c1.5,0.09,3.95-0.16,4.64-0.22c6.48-0.57,20.36-1.82,27.82-2.94c1.65-0.25,3.66-0.13,5.16,0.27" style="fill:none;stroke:#999;stroke-width:3"></path>
<path d="M488.81,12.38c1.28,1.28,2.01,3.12,2.01,4.75c0,0.75-0.05,31.92-0.07,32.87" style="fill:none;stroke:#999;stroke-width:3"></path>
<path d="M451.88,53.26c3.42,0.98,7.15,0.5,10.62,0.22c15.99-1.3,38.99-3.55,59-4.4c2.94-0.13,5.84-0.03,8.75,0.47" style="fill:none;stroke:#999;stroke-width:3"></path>
<path d="M481.18,55.68c0.32,1.45,0.15,2.48-0.15,3.85C479.24,67.65,471.0,86.62,456.0,96.38" style="fill:none;stroke:#999;stroke-width:3"></path>

<path d="M582.51,21c0.07,0.62,0.15,1.61-0.14,2.49C580.25,29.88,576.62,37.38,569.5,45" style="fill:none;stroke:#999;stroke-width:3"></path>
<path d="M583.13,32.04c1.5,0.09,3.95-0.16,4.64-0.22c6.48-0.57,20.36-1.82,27.82-2.94c1.65-0.25,3.66-0.13,5.16,0.27" style="fill:none;stroke:#999;stroke-width:3"></path>
<path d="M597.81,12.38c1.28,1.28,2.01,3.12,2.01,4.75c0,0.75-0.05,31.92-0.07,32.87" style="fill:none;stroke:#999;stroke-width:3"></path>
<path d="M560.88,53.26c3.42,0.98,7.15,0.5,10.62,0.22c15.99-1.3,38.99-3.55,59-4.4c2.94-0.13,5.84-0.03,8.75,0.47" style="fill:none;stroke:#999;stroke-width:3"></path>
<path d="M590.1800000000001,55.68c0.32,1.45,0.15,2.48-0.15,3.85C588.24,67.65,580.0,86.62,565.0,96.38" style="fill:none;stroke:#999;stroke-width:3"></path>
<path d="M605.49,53.62c1.07,1.07,1.38,2.71,1.38,4.98c0,7.78-0.22,14.88-0.22,21.89c0,15.14,1.1,16.04,15.85,16.04c14.62,0,15.64-1.78,15.64-11.29" style="fill:none;stroke:#999;stroke-width:3"></path>

</svg>