<svg width="1090px" height="109px" viewBox="0 0 1090 109" xmlns="http://www.w3.org/2000/svg" xmlns:xlink="http://www.w3.org/1999/xlink" xml:space="preserve" version="1.1" baseProfile="full">
<line x1="1" y1="1" x2="1089" y2="1" style="stroke:#ddd;stroke-width:2"></line>
<line x1="1" y1="1" x2="1" y2="108" style="stroke:#ddd;stroke-width:2"></line>
<line x1="1" y1="108" x2="1089" y2="108" style="stroke:#ddd;stroke-width:2"></line>
<line x1="1089" y1="1" x2="1089" y2="108" style="stroke:#ddd;stroke-width:2"></line>
<line x1="109" y1="1" x2="109" y2="108" style="stroke:#ddd;stroke-width:2"></line>
<line x1="218" y1="1" x2="218" y2="108" style="stroke:#ddd;stroke-width:2"></line>
<line x1="327" y1="1" x2="327" y2="108" style="stroke:#ddd;stroke-width:2"></line>
<line x1="436" y1="1" x2="436" y2="108" style="stroke:#ddd;stroke-width:2"></line>
<line x1="545" y1="1" x2="545" y2="108" style="stroke:#ddd;stroke-width:2"></line>
<line x1="654" y1="1" x2="654" y2="108" style="stroke:#ddd;stroke-width:2"></line>
<line x1="763" y1="1" x2="763" y2="108" style="stroke:#ddd;stroke-width:2"></line>
<line x1="872" y1="1" x2="872" y2="108" style="stroke:#ddd;stroke-width:2"></line>
<line x1="981" y1="1" x2="981" y2="108" style="stroke:#ddd;stroke-width:2"></line>
<line x1="1" y1="54" x2="1089" y2="54" style="stroke:#ddd;stroke-width:2;stroke-dasharray:3 3"></line>
<line x1="55" y1="1" x2="55" y2="108" style="stroke:#ddd;stroke-width:2;stroke-dasharray:3 3"></line>
<line x1="164" y1="1" x2="164" y2="108" style="stroke:#ddd;stroke-width:2;stroke-dasharray:3 3"></line>
<line x1="273" y1="1" x2="273" y2="108" style="stroke:#ddd;stroke-width:2;stroke-dasharray:3 3"></line>
<line x1="382" y1="1" x2="382" y2="108" style="stroke:#ddd;stroke-width:2;stroke-dasharray:3 3"></line>
<line x1="491" y1="1" x2="491" y2="108" style="stroke:#ddd;stroke-width:2;stroke-dasharray:3 3"></line>
<line x1="600" y1="1" x2="600" y2="108" style="stroke:#ddd;stroke-width:2;stroke-dasharray:3 3"></line>
<line x1="709" y1="1" x2="709" y2="108" style="stroke:#ddd;stroke-width:2;stroke-dasharray:3 3"></line>
<line x1="818" y1="1" x2="818" y2="108" style="stroke:#ddd;stroke-width:2;stroke-dasharray:3 3"></line>
<line x1="927" y1="1" x2="927" y2="108" style="stroke:#ddd;stroke-width:2;stroke-dasharray:3 3"></line>
<line x1="1036" y1="1" x2="1036" y2="108" style="stroke:#ddd;stroke-width:2;stroke-dasharray:3 3"></line>
<path d="M52.46,13.37c1.04,0.88,1.51,2.35,1.51,3.99c0,7.39-0.01,14.07-0.01,16.76" style="fill:none;stroke:#999;stroke-width:3"></path>

<path d="M161.46,13.37c1.04,0.88,1.51,2.35,1.51,3.99c0,7.39-0.01,14.07-0.01,16.76" style="fill:none;stroke:#999;stroke-width:3"></path>
<path d="M138.02,19.71c3.28,1.99,8.47,8.17,9.29,11.26" style="fill:none;stroke:#999;stroke-width:3"></path>

<path d="M270.46000000000004,13.37c1.04,0.88,1.51,2.35,1.51,3.99c0,7.39-0.01,14.07-0.01,16.76" style="fill:none;stroke:#999;stroke-width:3"></path>
<path d="M247.02,19.71c3.28,1.99,8.47,8.17,9.29,11.26" style="fill:none;stroke:#999;stroke-width:3"></path>
<path d="M295.01,16.25c0.07,0.84-0.02,1.66-0.37,2.42c-1.64,3.58-3.62,7.2-7.83,13.3" style="fill:none;stroke:#999;stroke-width:3"></path>

<path d="M379.46000000000004,13.37c1.04,0.88,1.51,2.35,1.51,3.99c0,7.39-0.01,14.07-0.01,16.76" style="fill:none;stroke:#999;stroke-width:3"></path>
<path d="M356.02,19.71c3.28,1.99,8.47,8.17,9.29,11.26" style="fill:none;stroke:#999;stroke-width:3"></path>
<path d="M404.01,16.25c0.07,0.84-0.02,1.66-0.37,2.42c-1.64,3.58-3.62,7.2-7.83,13.3" style="fill:none;stroke:#999;stroke-width:3"></path>
<path d="M346.75,36.12c-0.14,4.65-2.56,15.54-3.75,18.31" style="fill:none;stroke:#999;stroke-width:3"></path>

<path d="M488.46000000000004,13.37c1.04,0.88,1.51,2.35,1.51,3.99c0,7.39-0.01,14.07-0.01,16.76" style="fill:none;stroke:#999;stroke-width:3"></path>
<path d="M465.02,19.71c3.28,1.99,8.47,8.17,9.29,11.26" style="fill:none;stroke:#999;stroke-width:3"></path>
<path d="M513.01,16.25c0.07,0.84-0.02,1.66-0.37,2.42c-1.64,3.58-3.62,7.2-7.83,13.3" style="fill:none;stroke:#999;stroke-width:3"></path>
<path d="M455.75,36.12c-0.14,4.65-2.56,15.54-3.75,18.31" style="fill:none;stroke:#999;stroke-width:3"></path>
<path d="M456.74,39.18c12.76-1.8,45.26-5.3,66.55-6.37c12.94-0.65,0.9,7.94-0.65,9.2" style="fill:none;stroke:#999;stroke-width:3"></path>

<path d="M597.46,13.37c1.04,0.88,1.51,2.35,1.51,3.99c0,7.39-0.01,14.07-0.01,16.76" style="fill:none;stroke:#999;stroke-width:3"></path>
<path d="M574.02,19.71c3.28,1.99,8.47,8.17,9.29,11.26" style="fill:none;stroke:#999;stroke-width:3"></path>
<path d="M622.01,16.25c0.07,0.84-0.02,1.66-0.37,2.42c-1.64,3.58-3.62,7.2-7.83,13.3" style="fill:none;stroke:#999;stroke-width:3"></path>
<path d="M564.75,36.12c-0.14,4.65-2.56,15.54-3.75,18.31" style="fill:none;stroke:#999;stroke-width:3"></path>
<path d="M565.74,39.18c12.76-1.8,45.26-5.3,66.55-6.37c12.94-0.65,0.9,7.94-0.65,9.2" style="fill:none;stroke:#999;stroke-width:3"></path>
<path d="M579.64,46.98c0.69,0.69,1.36,1.52,1.55,2.51c0.61,3.24,1.58,7.78,2.44,12.23c0.32,1.68,0.61,3.31,0.82,4.78" style="fill:none;stroke:#999;stroke-width:3"></path>

<path d="M706.46,13.37c1.04,0.88,1.51,2.35,1.51,3.99c0,7.39-0.01,14.07-0.01,16.76" style="fill:none;stroke:#999;stroke-width:3"></path>
<path d="M683.02,19.71c3.28,1.99,8.47,8.17,9.29,11.26" style="fill:none;stroke:#999;stroke-width:3"></path>
<path d="M731.01,16.25c0.07,0.84-0.02,1.66-0.37,2.42c-1.64,3.58-3.62,7.2-7.83,13.3" style="fill:none;stroke:#999;stroke-width:3"></path>
<path d="M673.75,36.12c-0.14,4.65-2.56,15.54-3.75,18.31" style="fill:none;stroke:#999;stroke-width:3"></path>
<path d="M674.74,39.18c12.76-1.8,45.26-5.3,66.55-6.37c12.94-0.65,0.9,7.94-0.65,9.2" style="fill:none;stroke:#999;stroke-width:3"></path>
<path d="M688.64,46.98c0.69,0.69,1.36,1.52,1.55,2.51c0.61,3.24,1.58,7.78,2.44,12.23c0.32,1.68,0.61,3.31,0.82,4.78" style="fill:none;stroke:#999;stroke-width:3"></path>
<path d="M690.52,48.13c4.84-0.75,22.14-2.64,30.22-3.5c3.51-0.38,5.51,1.37,5,4.06c-0.82,4.3-1.36,6.19-2.42,12.1" style="fill:none;stroke:#999;stroke-width:3"></path>

<path d="M815.46,13.37c1.04,0.88,1.51,2.35,1.51,3.99c0,7.39-0.01,14.07-0.01,16.76" style="fill:none;stroke:#999;stroke-width:3"></path>
<path d="M792.02,19.71c3.28,1.99,8.47,8.17,9.29,11.26" style="fill:none;stroke:#999;stroke-width:3"></path>
<path d="M840.01,16.25c0.07,0.84-0.02,1.66-0.37,2.42c-1.64,3.58-3.62,7.2-7.83,13.3" style="fill:none;stroke:#999;stroke-width:3"></path>
<path d="M782.75,36.12c-0.14,4.65-2.56,15.54-3.75,18.31" style="fill:none;stroke:#999;stroke-width:3"></path>
<path d="M783.74,39.18c12.76-1.8,45.26-5.3,66.55-6.37c12.94-0.65,0.9,7.94-0.65,9.2" style="fill:none;stroke:#999;stroke-width:3"></path>
<path d="M797.64,46.98c0.69,0.69,1.36,1.52,1.55,2.51c0.61,3.24,1.58,7.78,2.44,12.23c0.32,1.68,0.61,3.31,0.82,4.78" style="fill:none;stroke:#999;stroke-width:3"></path>
<path d="M799.52,48.13c4.84-0.75,22.14-2.64,30.22-3.5c3.51-0.38,5.51,1.37,5,4.06c-0.82,4.3-1.36,6.19-2.42,12.1" style="fill:none;stroke:#999;stroke-width:3"></path>
<path d="M802.58,63.69c9.8-0.98,17.37-1.57,25.94-2.11c1.85-0.12,3.98-0.21,5.7-0.13" style="fill:none;stroke:#999;stroke-width:3"></path>

<path d="M924.46,13.37c1.04,0.88,1.51,2.35,1.51,3.99c0,7.39-0.01,14.07-0.01,16.76" style="fill:none;stroke:#999;stroke-width:3"></path>
<path d="M901.02,19.71c3.28,1.99,8.47,8.17,9.29,11.26" style="fill:none;stroke:#999;stroke-width:3"></path>
<path d="M949.01,16.25c0.07,0.84-0.02,1.66-0.37,2.42c-1.64,3.58-3.62,7.2-7.83,13.3" style="fill:none;stroke:#999;stroke-width:3"></path>
<path d="M891.75,36.12c-0.14,4.65-2.56,15.54-3.75,18.31" style="fill:none;stroke:#999;stroke-width:3"></path>
<path d="M892.74,39.18c12.76-1.8,45.26-5.3,66.55-6.37c12.94-0.65,0.9,7.94-0.65,9.2" style="fill:none;stroke:#999;stroke-width:3"></path>
<path d="M906.64,46.98c0.69,0.69,1.36,1.52,1.55,2.51c0.61,3.24,1.58,7.78,2.44,12.23c0.32,1.68,0.61,3.31,0.82,4.78" style="fill:none;stroke:#999;stroke-width:3"></path>
<path d="M908.52,48.13c4.84-0.75,22.14-2.64,30.22-3.5c3.51-0.38,5.51,1.37,5,4.06c-0.82,4.3-1.36,6.19-2.42,12.1" style="fill:none;stroke:#999;stroke-width:3"></path>
<path d="M911.58,63.69c9.8-0.98,17.37-1.57,25.94-2.11c1.85-0.12,3.98-0.21,5.7-0.13" style="fill:none;stroke:#999;stroke-width:3"></path>
<path d="M916.99,66.75c0.07,0.66,0.28,1.68,0.11,2.67c-1.23,6.96-8.48,19.33-25.68,25.75" style="fill:none;stroke:#999;stroke-width:3"></path>

<path d="M1033.46,13.37c1.04,0.88,1.51,2.35,1.51,3.99c0,7.39-0.01,14.07-0.01,16.76" style="fill:none;stroke:#999;stroke-width:3"></path>
<path d="M1010.02,19.71c3.28,1.99,8.47,8.17,9.29,11.26" style="fill:none;stroke:#999;stroke-width:3"></path>
<path d="M1058.01,16.25c0.07,0.84-0.02,1.66-0.37,2.42c-1.64,3.58-3.62,7.2-7.83,13.3" style="fill:none;stroke:#999;stroke-width:3"></path>
<path d="M1000.75,36.12c-0.14,4.65-2.56,15.54-3.75,18.31" style="fill:none;stroke:#999;stroke-width:3"></path>
<path d="M1001.74,39.18c12.76-1.8,45.26-5.3,66.55-6.37c12.94-0.65,0.9,7.94-0.65,9.2" style="fill:none;stroke:#999;stroke-width:3"></path>
<path d="M1015.64,46.98c0.69,0.69,1.36,1.52,1.55,2.51c0.61,3.24,1.58,7.78,2.44,12.23c0.32,1.68,0.61,3.31,0.82,4.78" style="fill:none;stroke:#999;stroke-width:3"></path>
<path d="M1017.52,48.13c4.84-0.75,22.14-2.64,30.22-3.5c3.51-0.38,5.51,1.37,5,4.06c-0.82,4.3-1.36,6.19-2.42,12.1" style="fill:none;stroke:#999;stroke-width:3"></path>
<path d="M1020.58,63.69c9.8-0.98,17.37-1.57,25.94-2.11c1.85-0.12,3.98-0.21,5.7-0.13" style="fill:none;stroke:#999;stroke-width:3"></path>
<path d="M1025.99,66.75c0.07,0.66,0.28,1.68,0.11,2.67c-1.23,6.96-8.48,19.33-25.68,25.75" style="fill:none;stroke:#999;stroke-width:3"></path>
<path d="M1039.24,64.12c0.88,0.88,1.28,2.02,1.28,3.46c0,7.42,0.01,13.11,0.01,17.46c0,9.59,1.35,10.25,16.49,10.25c15.99,0,16.87-1.04,16.87-9.38" style="fill:none;stroke:#999;stroke-width:3"></path>

</svg>