<svg width="218px" height="109px" viewBox="0 0 218 109" xmlns="http://www.w3.org/2000/svg" xmlns:xlink="http://www.w3.org/1999/xlink" xml:space="preserve" version="1.1" baseProfile="full">
<line x1="1" y1="1" x2="217" y2="1" style="stroke:#ddd;stroke-width:2"></line>
<line x1="1" y1="1" x2="1" y2="108" style="stroke:#ddd;stroke-width:2"></line>
<line x1="1" y1="108" x2="217" y2="108" style="stroke:#ddd;stroke-width:2"></line>
<line x1="217" y1="1" x2="217" y2="108" style="stroke:#ddd;stroke-width:2"></line>
<line x1="109" y1="1" x2="109" y2="108" style="stroke:#ddd;stroke-width:2"></line>
<line x1="1" y1="54" x2="217" y2="54" style="stroke:#ddd;stroke-width:2;stroke-dasharray:3 3"></line>
<line x1="55" y1="1" x2="55" y2="108" style="stroke:#ddd;stroke-width:2;stroke-dasharray:3 3"></line>
<line x1="164" y1="1" x2="164" y2="108" style="stroke:#ddd;stroke-width:2;stroke-dasharray:3 3"></line>
<path d="M37.22,45c0.28,1.5,0.2,3.21-0.86,5.48c-4.23,9.02-11.48,20.4-24.1,32.02" style="fill:none;stroke:#999;stroke-width:3"></path>

<path d="M146.22,45c0.28,1.5,0.2,3.21-0.86,5.48c-4.23,9.02-11.48,20.4-24.1,32.02" style="fill:none;stroke:#999;stroke-width:3"></path>
<path d="M157.0,27.25c9.38,0.25,21.12,30,37.27,45.72c3.79,3.69,6.73,5.66,9.98,7.03" style="fill:none;stroke:#999;stroke-width:3"></path>

</svg>