<svg width="545px" height="109px" viewBox="0 0 545 109" xmlns="http://www.w3.org/2000/svg" xmlns:xlink="http://www.w3.org/1999/xlink" xml:space="preserve" version="1.1" baseProfile="full">
<line x1="1" y1="1" x2="544" y2="1" style="stroke:#ddd;stroke-width:2"></line>
<line x1="1" y1="1" x2="1" y2="108" style="stroke:#ddd;stroke-width:2"></line>
<line x1="1" y1="108" x2="544" y2="108" style="stroke:#ddd;stroke-width:2"></line>
<line x1="544" y1="1" x2="544" y2="108" style="stroke:#ddd;stroke-width:2"></line>
<line x1="109" y1="1" x2="109" y2="108" style="stroke:#ddd;stroke-width:2"></line>
<line x1="218" y1="1" x2="218" y2="108" style="stroke:#ddd;stroke-width:2"></line>
<line x1="327" y1="1" x2="327" y2="108" style="stroke:#ddd;stroke-width:2"></line>
<line x1="436" y1="1" x2="436" y2="108" style="stroke:#ddd;stroke-width:2"></line>
<line x1="1" y1="54" x2="544" y2="54" style="stroke:#ddd;stroke-width:2;stroke-dasharray:3 3"></line>
<line x1="55" y1="1" x2="55" y2="108" style="stroke:#ddd;stroke-width:2;stroke-dasharray:3 3"></line>
<line x1="164" y1="1" x2="164" y2="108" style="stroke:#ddd;stroke-width:2;stroke-dasharray:3 3"></line>
<line x1="273" y1="1" x2="273" y2="108" style="stroke:#ddd;stroke-width:2;stroke-dasharray:3 3"></line>
<line x1="382" y1="1" x2="382" y2="108" style="stroke:#ddd;stroke-width:2;stroke-dasharray:3 3"></line>
<line x1="491" y1="1" x2="491" y2="108" style="stroke:#ddd;stroke-width:2;stroke-dasharray:3 3"></line>
<path d="M28.45,30.19c0.53,1.1,0.88,2.87,0.71,4.85c-0.18,1.98,0.18,57.9,0.18,61.21" style="fill:none;stroke:#999;stroke-width:3"></path>

<path d="M137.45,30.19c0.53,1.1,0.88,2.87,0.71,4.85c-0.18,1.98,0.18,57.9,0.18,61.21" style="fill:none;stroke:#999;stroke-width:3"></path>
<path d="M138.15,32.39c6.71-0.88,43.5-4.1,44.82-4.41c2.82-0.66,4.9,1.61,4.59,2.65c-0.53,1.76-0.53,56.04-0.53,61.11c0,8.16-5.29,3.01-7.62,1.32" style="fill:none;stroke:#999;stroke-width:3"></path>

<path d="M246.45,30.19c0.53,1.1,0.88,2.87,0.71,4.85c-0.18,1.98,0.18,57.9,0.18,61.21" style="fill:none;stroke:#999;stroke-width:3"></path>
<path d="M247.15,32.39c6.71-0.88,43.5-4.1,44.82-4.41c2.82-0.66,4.9,1.61,4.59,2.65c-0.53,1.76-0.53,56.04-0.53,61.11c0,8.16-5.29,3.01-7.62,1.32" style="fill:none;stroke:#999;stroke-width:3"></path>
<path d="M269.92,13.12c0.12,0.29,1.77,1.52,1.77,3.39c0,12,0.14,33.5,0.14,49.36" style="fill:none;stroke:#999;stroke-width:3"></path>

<path d="M355.45,30.19c0.53,1.1,0.88,2.87,0.71,4.85c-0.18,1.98,0.18,57.9,0.18,61.21" style="fill:none;stroke:#999;stroke-width:3"></path>
<path d="M356.15,32.39c6.71-0.88,43.5-4.1,44.82-4.41c2.82-0.66,4.9,1.61,4.59,2.65c-0.53,1.76-0.53,56.04-0.53,61.11c0,8.16-5.29,3.01-7.62,1.32" style="fill:none;stroke:#999;stroke-width:3"></path>
<path d="M378.92,13.12c0.12,0.29,1.77,1.52,1.77,3.39c0,12,0.14,33.5,0.14,49.36" style="fill:none;stroke:#999;stroke-width:3"></path>
<path d="M356.39,50.05C369.5,49,390.5,47.5,404.69,46.66" style="fill:none;stroke:#999;stroke-width:3"></path>

<path d="M464.45,30.19c0.53,1.1,0.88,2.87,0.71,4.85c-0.18,1.98,0.18,57.9,0.18,61.21" style="fill:none;stroke:#999;stroke-width:3"></path>
<path d="M465.15,32.39c6.71-0.88,43.5-4.1,44.82-4.41c2.82-0.66,4.9,1.61,4.59,2.65c-0.53,1.76-0.53,56.04-0.53,61.11c0,8.16-5.29,3.01-7.62,1.32" style="fill:none;stroke:#999;stroke-width:3"></path>
<path d="M487.92,13.12c0.12,0.29,1.77,1.52,1.77,3.39c0,12,0.14,33.5,0.14,49.36" style="fill:none;stroke:#999;stroke-width:3"></path>
<path d="M465.39,50.05C478.5,49,499.5,47.5,513.69,46.66" style="fill:none;stroke:#999;stroke-width:3"></path>
<path d="M447.88,70.23c1.52,0.54,4.31,0.66,5.82,0.54c18.8-1.52,58.3-5.02,75.11-5.73c2.53-0.11,4.05,0.26,5.31,0.53" style="fill:none;stroke:#999;stroke-width:3"></path>

</svg>