<svg width="654px" height="109px" viewBox="0 0 654 109" xmlns="http://www.w3.org/2000/svg" xmlns:xlink="http://www.w3.org/1999/xlink" xml:space="preserve" version="1.1" baseProfile="full">
<line x1="1" y1="1" x2="653" y2="1" style="stroke:#ddd;stroke-width:2"></line>
<line x1="1" y1="1" x2="1" y2="108" style="stroke:#ddd;stroke-width:2"></line>
<line x1="1" y1="108" x2="653" y2="108" style="stroke:#ddd;stroke-width:2"></line>
<line x1="653" y1="1" x2="653" y2="108" style="stroke:#ddd;stroke-width:2"></line>
<line x1="109" y1="1" x2="109" y2="108" style="stroke:#ddd;stroke-width:2"></line>
<line x1="218" y1="1" x2="218" y2="108" style="stroke:#ddd;stroke-width:2"></line>
<line x1="327" y1="1" x2="327" y2="108" style="stroke:#ddd;stroke-width:2"></line>
<line x1="436" y1="1" x2="436" y2="108" style="stroke:#ddd;stroke-width:2"></line>
<line x1="545" y1="1" x2="545" y2="108" style="stroke:#ddd;stroke-width:2"></line>
<line x1="1" y1="54" x2="653" y2="54" style="stroke:#ddd;stroke-width:2;stroke-dasharray:3 3"></line>
<line x1="55" y1="1" x2="55" y2="108" style="stroke:#ddd;stroke-width:2;stroke-dasharray:3 3"></line>
<line x1="164" y1="1" x2="164" y2="108" style="stroke:#ddd;stroke-width:2;stroke-dasharray:3 3"></line>
<line x1="273" y1="1" x2="273" y2="108" style="stroke:#ddd;stroke-width:2;stroke-dasharray:3 3"></line>
<line x1="382" y1="1" x2="382" y2="108" style="stroke:#ddd;stroke-width:2;stroke-dasharray:3 3"></line>
<line x1="491" y1="1" x2="491" y2="108" style="stroke:#ddd;stroke-width:2;stroke-dasharray:3 3"></line>
<line x1="600" y1="1" x2="600" y2="108" style="stroke:#ddd;stroke-width:2;stroke-dasharray:3 3"></line>
<path d="M15.29,22.25c3.99,1.93,10.3,7.92,11.29,10.91" style="fill:none;stroke:#999;stroke-width:3"></path>

<path d="M124.28999999999999,22.25c3.99,1.93,10.3,7.92,11.29,10.91" style="fill:none;stroke:#999;stroke-width:3"></path>
<path d="M121.48,84.67c2.02,0.83,4.14-0.14,5.13-2c2.64-4.92,5.89-12.67,9.66-24.01" style="fill:none;stroke:#999;stroke-width:3"></path>

<path d="M233.29,22.25c3.99,1.93,10.3,7.92,11.29,10.91" style="fill:none;stroke:#999;stroke-width:3"></path>
<path d="M230.48000000000002,84.67c2.02,0.83,4.14-0.14,5.13-2c2.64-4.92,5.89-12.67,9.66-24.01" style="fill:none;stroke:#999;stroke-width:3"></path>
<path d="M254.01,18.44c1.01,0.33,2.85,0.39,3.85,0.33c9.7-0.6,35.97-3.74,45.52-3.74c1.68,0,2.68,0.16,3.52,0.32" style="fill:none;stroke:#999;stroke-width:3"></path>

<path d="M342.28999999999996,22.25c3.99,1.93,10.3,7.92,11.29,10.91" style="fill:none;stroke:#999;stroke-width:3"></path>
<path d="M339.48,84.67c2.02,0.83,4.14-0.14,5.13-2c2.64-4.92,5.89-12.67,9.66-24.01" style="fill:none;stroke:#999;stroke-width:3"></path>
<path d="M363.01,18.44c1.01,0.33,2.85,0.39,3.85,0.33c9.7-0.6,35.97-3.74,45.52-3.74c1.68,0,2.68,0.16,3.52,0.32" style="fill:none;stroke:#999;stroke-width:3"></path>
<path d="M380.02,21.57c0.87,1.58,0.89,4.63,0.44,7.11c-2.18,11.85-7.26,27.83-9.99,36.89c-0.76,2.53-0.57,4.15,2.28,3.93C382.5,68.75,390.0,68,399.2,67.7" style="fill:none;stroke:#999;stroke-width:3"></path>

<path d="M451.28999999999996,22.25c3.99,1.93,10.3,7.92,11.29,10.91" style="fill:none;stroke:#999;stroke-width:3"></path>
<path d="M448.48,84.67c2.02,0.83,4.14-0.14,5.13-2c2.64-4.92,5.89-12.67,9.66-24.01" style="fill:none;stroke:#999;stroke-width:3"></path>
<path d="M472.01,18.44c1.01,0.33,2.85,0.39,3.85,0.33c9.7-0.6,35.97-3.74,45.52-3.74c1.68,0,2.68,0.16,3.52,0.32" style="fill:none;stroke:#999;stroke-width:3"></path>
<path d="M489.02,21.57c0.87,1.58,0.89,4.63,0.44,7.11c-2.18,11.85-7.26,27.83-9.99,36.89c-0.76,2.53-0.57,4.15,2.28,3.93C491.5,68.75,499.0,68,508.2,67.7" style="fill:none;stroke:#999;stroke-width:3"></path>
<path d="M485.87,43.91c8.13-1.16,24.68-2.5,27.03-2.74c2.84-0.3,3.36,1.81,2.66,3.87C512.0,55.5,508.0,69.5,503.18,91.09" style="fill:none;stroke:#999;stroke-width:3"></path>

<path d="M560.29,22.25c3.99,1.93,10.3,7.92,11.29,10.91" style="fill:none;stroke:#999;stroke-width:3"></path>
<path d="M557.48,84.67c2.02,0.83,4.14-0.14,5.13-2c2.64-4.92,5.89-12.67,9.66-24.01" style="fill:none;stroke:#999;stroke-width:3"></path>
<path d="M581.01,18.44c1.01,0.33,2.85,0.39,3.85,0.33c9.7-0.6,35.97-3.74,45.52-3.74c1.68,0,2.68,0.16,3.52,0.32" style="fill:none;stroke:#999;stroke-width:3"></path>
<path d="M598.02,21.57c0.87,1.58,0.89,4.63,0.44,7.11c-2.18,11.85-7.26,27.83-9.99,36.89c-0.76,2.53-0.57,4.15,2.28,3.93C600.5,68.75,608.0,68,617.2,67.7" style="fill:none;stroke:#999;stroke-width:3"></path>
<path d="M594.87,43.91c8.13-1.16,24.68-2.5,27.03-2.74c2.84-0.3,3.36,1.81,2.66,3.87C621.0,55.5,617.0,69.5,612.1800000000001,91.09" style="fill:none;stroke:#999;stroke-width:3"></path>
<path d="M573.75,93.68c1.3,0.56,3.68,0.61,4.98,0.56c13.77-0.52,46.07-4.56,59.72-3.77c2.16,0.12,3.47,0.27,4.55,0.55" style="fill:none;stroke:#999;stroke-width:3"></path>

</svg>