<svg width="654px" height="109px" viewBox="0 0 654 109" xmlns="http://www.w3.org/2000/svg" xmlns:xlink="http://www.w3.org/1999/xlink" xml:space="preserve" version="1.1" baseProfile="full">
<line x1="1" y1="1" x2="653" y2="1" style="stroke:#ddd;stroke-width:2"></line>
<line x1="1" y1="1" x2="1" y2="108" style="stroke:#ddd;stroke-width:2"></line>
<line x1="1" y1="108" x2="653" y2="108" style="stroke:#ddd;stroke-width:2"></line>
<line x1="653" y1="1" x2="653" y2="108" style="stroke:#ddd;stroke-width:2"></line>
<line x1="109" y1="1" x2="109" y2="108" style="stroke:#ddd;stroke-width:2"></line>
<line x1="218" y1="1" x2="218" y2="108" style="stroke:#ddd;stroke-width:2"></line>
<line x1="327" y1="1" x2="327" y2="108" style="stroke:#ddd;stroke-width:2"></line>
<line x1="436" y1="1" x2="436" y2="108" style="stroke:#ddd;stroke-width:2"></line>
<line x1="545" y1="1" x2="545" y2="108" style="stroke:#ddd;stroke-width:2"></line>
<line x1="1" y1="54" x2="653" y2="54" style="stroke:#ddd;stroke-width:2;stroke-dasharray:3 3"></line>
<line x1="55" y1="1" x2="55" y2="108" style="stroke:#ddd;stroke-width:2;stroke-dasharray:3 3"></line>
<line x1="164" y1="1" x2="164" y2="108" style="stroke:#ddd;stroke-width:2;stroke-dasharray:3 3"></line>
<line x1="273" y1="1" x2="273" y2="108" style="stroke:#ddd;stroke-width:2;stroke-dasharray:3 3"></line>
<line x1="382" y1="1" x2="382" y2="108" style="stroke:#ddd;stroke-width:2;stroke-dasharray:3 3"></line>
<line x1="491" y1="1" x2="491" y2="108" style="stroke:#ddd;stroke-width:2;stroke-dasharray:3 3"></line>
<line x1="600" y1="1" x2="600" y2="108" style="stroke:#ddd;stroke-width:2;stroke-dasharray:3 3"></line>
<path d="M16.29,23.5c4.69,2.06,12.12,8.46,13.29,11.66" style="fill:none;stroke:#999;stroke-width:3"></path>

<path d="M125.28999999999999,23.5c4.69,2.06,12.12,8.46,13.29,11.66" style="fill:none;stroke:#999;stroke-width:3"></path>
<path d="M121.48,84.17c1.27,0.58,3.44,0.23,4.63-1.5c1.16-1.68,8.39-14.17,12.66-23.51" style="fill:none;stroke:#999;stroke-width:3"></path>

<path d="M234.29,23.5c4.69,2.06,12.12,8.46,13.29,11.66" style="fill:none;stroke:#999;stroke-width:3"></path>
<path d="M230.48000000000002,84.17c1.27,0.58,3.44,0.23,4.63-1.5c1.16-1.68,8.39-14.17,12.66-23.51" style="fill:none;stroke:#999;stroke-width:3"></path>
<path d="M259.06,39.38c0.48,0.26,1.42,0.86,1.57,1.54c1.09,4.89,2.41,13.56,3.95,22.83" style="fill:none;stroke:#999;stroke-width:3"></path>

<path d="M343.28999999999996,23.5c4.69,2.06,12.12,8.46,13.29,11.66" style="fill:none;stroke:#999;stroke-width:3"></path>
<path d="M339.48,84.17c1.27,0.58,3.44,0.23,4.63-1.5c1.16-1.68,8.39-14.17,12.66-23.51" style="fill:none;stroke:#999;stroke-width:3"></path>
<path d="M368.06,39.38c0.48,0.26,1.42,0.86,1.57,1.54c1.09,4.89,2.41,13.56,3.95,22.83" style="fill:none;stroke:#999;stroke-width:3"></path>
<path d="M369.95,40.53c13.55-2.03,39.68-4.42,48.38-4.8c3.39-0.15,4.07,2.43,3.65,3.92c-1.44,5.1-2.58,10.04-4.92,18.52" style="fill:none;stroke:#999;stroke-width:3"></path>

<path d="M452.28999999999996,23.5c4.69,2.06,12.12,8.46,13.29,11.66" style="fill:none;stroke:#999;stroke-width:3"></path>
<path d="M448.48,84.17c1.27,0.58,3.44,0.23,4.63-1.5c1.16-1.68,8.39-14.17,12.66-23.51" style="fill:none;stroke:#999;stroke-width:3"></path>
<path d="M477.06,39.38c0.48,0.26,1.42,0.86,1.57,1.54c1.09,4.89,2.41,13.56,3.95,22.83" style="fill:none;stroke:#999;stroke-width:3"></path>
<path d="M478.95,40.53c13.55-2.03,39.68-4.42,48.38-4.8c3.39-0.15,4.07,2.43,3.65,3.92c-1.44,5.1-2.58,10.04-4.92,18.52" style="fill:none;stroke:#999;stroke-width:3"></path>
<path d="M482.72,62.21c9.75-1.32,31.98-2.74,45.62-4.12" style="fill:none;stroke:#999;stroke-width:3"></path>

<path d="M561.29,23.5c4.69,2.06,12.12,8.46,13.29,11.66" style="fill:none;stroke:#999;stroke-width:3"></path>
<path d="M557.48,84.17c1.27,0.58,3.44,0.23,4.63-1.5c1.16-1.68,8.39-14.17,12.66-23.51" style="fill:none;stroke:#999;stroke-width:3"></path>
<path d="M586.06,39.38c0.48,0.26,1.42,0.86,1.57,1.54c1.09,4.89,2.41,13.56,3.95,22.83" style="fill:none;stroke:#999;stroke-width:3"></path>
<path d="M587.95,40.53c13.55-2.03,39.68-4.42,48.38-4.8c3.39-0.15,4.07,2.43,3.65,3.92c-1.44,5.1-2.58,10.04-4.92,18.52" style="fill:none;stroke:#999;stroke-width:3"></path>
<path d="M591.72,62.21c9.75-1.32,31.98-2.74,45.62-4.12" style="fill:none;stroke:#999;stroke-width:3"></path>
<path d="M610.66,11.75c1.21,0.49,1.94,2.22,2.18,3.21c0.24,0.99,0,77.88-0.24,84.04" style="fill:none;stroke:#999;stroke-width:3"></path>

</svg>