<svg width="763px" height="109px" viewBox="0 0 763 109" xmlns="http://www.w3.org/2000/svg" xmlns:xlink="http://www.w3.org/1999/xlink" xml:space="preserve" version="1.1" baseProfile="full">
<line x1="1" y1="1" x2="762" y2="1" style="stroke:#ddd;stroke-width:2"></line>
<line x1="1" y1="1" x2="1" y2="108" style="stroke:#ddd;stroke-width:2"></line>
<line x1="1" y1="108" x2="762" y2="108" style="stroke:#ddd;stroke-width:2"></line>
<line x1="762" y1="1" x2="762" y2="108" style="stroke:#ddd;stroke-width:2"></line>
<line x1="109" y1="1" x2="109" y2="108" style="stroke:#ddd;stroke-width:2"></line>
<line x1="218" y1="1" x2="218" y2="108" style="stroke:#ddd;stroke-width:2"></line>
<line x1="327" y1="1" x2="327" y2="108" style="stroke:#ddd;stroke-width:2"></line>
<line x1="436" y1="1" x2="436" y2="108" style="stroke:#ddd;stroke-width:2"></line>
<line x1="545" y1="1" x2="545" y2="108" style="stroke:#ddd;stroke-width:2"></line>
<line x1="654" y1="1" x2="654" y2="108" style="stroke:#ddd;stroke-width:2"></line>
<line x1="1" y1="54" x2="762" y2="54" style="stroke:#ddd;stroke-width:2;stroke-dasharray:3 3"></line>
<line x1="55" y1="1" x2="55" y2="108" style="stroke:#ddd;stroke-width:2;stroke-dasharray:3 3"></line>
<line x1="164" y1="1" x2="164" y2="108" style="stroke:#ddd;stroke-width:2;stroke-dasharray:3 3"></line>
<line x1="273" y1="1" x2="273" y2="108" style="stroke:#ddd;stroke-width:2;stroke-dasharray:3 3"></line>
<line x1="382" y1="1" x2="382" y2="108" style="stroke:#ddd;stroke-width:2;stroke-dasharray:3 3"></line>
<line x1="491" y1="1" x2="491" y2="108" style="stroke:#ddd;stroke-width:2;stroke-dasharray:3 3"></line>
<line x1="600" y1="1" x2="600" y2="108" style="stroke:#ddd;stroke-width:2;stroke-dasharray:3 3"></line>
<line x1="709" y1="1" x2="709" y2="108" style="stroke:#ddd;stroke-width:2;stroke-dasharray:3 3"></line>
<path d="M16.29,20.5c3.99,1.93,10.3,7.92,11.29,10.91" style="fill:none;stroke:#999;stroke-width:3"></path>

<path d="M125.28999999999999,20.5c3.99,1.93,10.3,7.92,11.29,10.91" style="fill:none;stroke:#999;stroke-width:3"></path>
<path d="M120.23,79.92c2.02,0.7,3.64,0.11,4.63-1.75c1.64-3.05,6.89-13.55,11.66-23.26" style="fill:none;stroke:#999;stroke-width:3"></path>

<path d="M234.29,20.5c3.99,1.93,10.3,7.92,11.29,10.91" style="fill:none;stroke:#999;stroke-width:3"></path>
<path d="M229.23000000000002,79.92c2.02,0.7,3.64,0.11,4.63-1.75c1.64-3.05,6.89-13.55,11.66-23.26" style="fill:none;stroke:#999;stroke-width:3"></path>
<path d="M255.97,18.44c3.03,0.81,5.91,0.67,8.54,0.42c8.81-0.83,22.92-2.85,32.87-3.5c2.6-0.17,5.16-0.36,7.7,0.3" style="fill:none;stroke:#999;stroke-width:3"></path>

<path d="M343.28999999999996,20.5c3.99,1.93,10.3,7.92,11.29,10.91" style="fill:none;stroke:#999;stroke-width:3"></path>
<path d="M338.23,79.92c2.02,0.7,3.64,0.11,4.63-1.75c1.64-3.05,6.89-13.55,11.66-23.26" style="fill:none;stroke:#999;stroke-width:3"></path>
<path d="M364.97,18.44c3.03,0.81,5.91,0.67,8.54,0.42c8.81-0.83,22.92-2.85,32.87-3.5c2.6-0.17,5.16-0.36,7.7,0.3" style="fill:none;stroke:#999;stroke-width:3"></path>
<path d="M375.17,23.53c0.46,1.22,0.53,2.36,0.18,4.34c-1.23,7-2.73,13.37-4.09,19.12" style="fill:none;stroke:#999;stroke-width:3"></path>

<path d="M452.28999999999996,20.5c3.99,1.93,10.3,7.92,11.29,10.91" style="fill:none;stroke:#999;stroke-width:3"></path>
<path d="M447.23,79.92c2.02,0.7,3.64,0.11,4.63-1.75c1.64-3.05,6.89-13.55,11.66-23.26" style="fill:none;stroke:#999;stroke-width:3"></path>
<path d="M473.97,18.44c3.03,0.81,5.91,0.67,8.54,0.42c8.81-0.83,22.92-2.85,32.87-3.5c2.6-0.17,5.16-0.36,7.7,0.3" style="fill:none;stroke:#999;stroke-width:3"></path>
<path d="M484.17,23.53c0.46,1.22,0.53,2.36,0.18,4.34c-1.23,7-2.73,13.37-4.09,19.12" style="fill:none;stroke:#999;stroke-width:3"></path>
<path d="M471.25,47.5c3.38,0.96,6.7,0.99,10.13,0.54c13.5-1.79,30-3.17,40.36-3.72c3.78-0.2,6.48-0.13,10.08,0.79" style="fill:none;stroke:#999;stroke-width:3"></path>

<path d="M561.29,20.5c3.99,1.93,10.3,7.92,11.29,10.91" style="fill:none;stroke:#999;stroke-width:3"></path>
<path d="M556.23,79.92c2.02,0.7,3.64,0.11,4.63-1.75c1.64-3.05,6.89-13.55,11.66-23.26" style="fill:none;stroke:#999;stroke-width:3"></path>
<path d="M582.97,18.44c3.03,0.81,5.91,0.67,8.54,0.42c8.81-0.83,22.92-2.85,32.87-3.5c2.6-0.17,5.16-0.36,7.7,0.3" style="fill:none;stroke:#999;stroke-width:3"></path>
<path d="M593.1700000000001,23.53c0.46,1.22,0.53,2.36,0.18,4.34c-1.23,7-2.73,13.37-4.09,19.12" style="fill:none;stroke:#999;stroke-width:3"></path>
<path d="M580.25,47.5c3.38,0.96,6.7,0.99,10.13,0.54c13.5-1.79,30-3.17,40.36-3.72c3.78-0.2,6.48-0.13,10.08,0.79" style="fill:none;stroke:#999;stroke-width:3"></path>
<path d="M617.01,19.13c1.18,1.18,1.39,2.37,1.39,4.66c0,14.94,0.02,62.48,0.02,67.57c0,10.17-6.56,1.79-7.92,0.5" style="fill:none;stroke:#999;stroke-width:3"></path>

<path d="M670.29,20.5c3.99,1.93,10.3,7.92,11.29,10.91" style="fill:none;stroke:#999;stroke-width:3"></path>
<path d="M665.23,79.92c2.02,0.7,3.64,0.11,4.63-1.75c1.64-3.05,6.89-13.55,11.66-23.26" style="fill:none;stroke:#999;stroke-width:3"></path>
<path d="M691.97,18.44c3.03,0.81,5.91,0.67,8.54,0.42c8.81-0.83,22.92-2.85,32.87-3.5c2.6-0.17,5.16-0.36,7.7,0.3" style="fill:none;stroke:#999;stroke-width:3"></path>
<path d="M702.1700000000001,23.53c0.46,1.22,0.53,2.36,0.18,4.34c-1.23,7-2.73,13.37-4.09,19.12" style="fill:none;stroke:#999;stroke-width:3"></path>
<path d="M689.25,47.5c3.38,0.96,6.7,0.99,10.13,0.54c13.5-1.79,30-3.17,40.36-3.72c3.78-0.2,6.48-0.13,10.08,0.79" style="fill:none;stroke:#999;stroke-width:3"></path>
<path d="M726.01,19.13c1.18,1.18,1.39,2.37,1.39,4.66c0,14.94,0.02,62.48,0.02,67.57c0,10.17-6.56,1.79-7.92,0.5" style="fill:none;stroke:#999;stroke-width:3"></path>
<path d="M724.54,46.48c0,1.02-0.33,2.08-0.78,3.01C719.1800000000001,58.93,704.7,75.16,685.0,85.75" style="fill:none;stroke:#999;stroke-width:3"></path>

</svg>