<svg width="654px" height="109px" viewBox="0 0 654 109" xmlns="http://www.w3.org/2000/svg" xmlns:xlink="http://www.w3.org/1999/xlink" xml:space="preserve" version="1.1" baseProfile="full">
<line x1="1" y1="1" x2="653" y2="1" style="stroke:#ddd;stroke-width:2"></line>
<line x1="1" y1="1" x2="1" y2="108" style="stroke:#ddd;stroke-width:2"></line>
<line x1="1" y1="108" x2="653" y2="108" style="stroke:#ddd;stroke-width:2"></line>
<line x1="653" y1="1" x2="653" y2="108" style="stroke:#ddd;stroke-width:2"></line>
<line x1="109" y1="1" x2="109" y2="108" style="stroke:#ddd;stroke-width:2"></line>
<line x1="218" y1="1" x2="218" y2="108" style="stroke:#ddd;stroke-width:2"></line>
<line x1="327" y1="1" x2="327" y2="108" style="stroke:#ddd;stroke-width:2"></line>
<line x1="436" y1="1" x2="436" y2="108" style="stroke:#ddd;stroke-width:2"></line>
<line x1="545" y1="1" x2="545" y2="108" style="stroke:#ddd;stroke-width:2"></line>
<line x1="1" y1="54" x2="653" y2="54" style="stroke:#ddd;stroke-width:2;stroke-dasharray:3 3"></line>
<line x1="55" y1="1" x2="55" y2="108" style="stroke:#ddd;stroke-width:2;stroke-dasharray:3 3"></line>
<line x1="164" y1="1" x2="164" y2="108" style="stroke:#ddd;stroke-width:2;stroke-dasharray:3 3"></line>
<line x1="273" y1="1" x2="273" y2="108" style="stroke:#ddd;stroke-width:2;stroke-dasharray:3 3"></line>
<line x1="382" y1="1" x2="382" y2="108" style="stroke:#ddd;stroke-width:2;stroke-dasharray:3 3"></line>
<line x1="491" y1="1" x2="491" y2="108" style="stroke:#ddd;stroke-width:2;stroke-dasharray:3 3"></line>
<line x1="600" y1="1" x2="600" y2="108" style="stroke:#ddd;stroke-width:2;stroke-dasharray:3 3"></line>
<path d="M25.23,19c0.48,1.97,1.17,3.52,1.17,5.98c0,22.5,0.85,49.27-14.4,66.52" style="fill:none;stroke:#999;stroke-width:3"></path>

<path d="M134.23,19c0.48,1.97,1.17,3.52,1.17,5.98c0,22.5,0.85,49.27-14.4,66.52" style="fill:none;stroke:#999;stroke-width:3"></path>
<path d="M135.75,22c11-1.75,45.25-6.25,49.25-6.25s5.95,0.95,5.5,4.75c-2.5,21-3.25,45,9,66.25c5.12,8.88,7,3.5,5.5-5" style="fill:none;stroke:#999;stroke-width:3"></path>

<path d="M243.23,19c0.48,1.97,1.17,3.52,1.17,5.98c0,22.5,0.85,49.27-14.4,66.52" style="fill:none;stroke:#999;stroke-width:3"></path>
<path d="M244.75,22c11-1.75,45.25-6.25,49.25-6.25s5.95,0.95,5.5,4.75c-2.5,21-3.25,45,9,66.25c5.12,8.88,7,3.5,5.5-5" style="fill:none;stroke:#999;stroke-width:3"></path>
<path d="M251.71,44.93c1.11,0.49,2.37,0.65,3.64,0.49c6.49-0.81,23.34-3.61,33.16-4.56c1.26-0.12,2.06,0.08,3.33,0.43" style="fill:none;stroke:#999;stroke-width:3"></path>

<path d="M352.23,19c0.48,1.97,1.17,3.52,1.17,5.98c0,22.5,0.85,49.27-14.4,66.52" style="fill:none;stroke:#999;stroke-width:3"></path>
<path d="M353.75,22c11-1.75,45.25-6.25,49.25-6.25s5.95,0.95,5.5,4.75c-2.5,21-3.25,45,9,66.25c5.12,8.88,7,3.5,5.5-5" style="fill:none;stroke:#999;stroke-width:3"></path>
<path d="M360.71000000000004,44.93c1.11,0.49,2.37,0.65,3.64,0.49c6.49-0.81,23.34-3.61,33.16-4.56c1.26-0.12,2.06,0.08,3.33,0.43" style="fill:none;stroke:#999;stroke-width:3"></path>
<path d="M380.17,26c0.79,0.43,1.43,1.92,1.43,2.81c0,9.07,0,60.29-0.16,65.69" style="fill:none;stroke:#999;stroke-width:3"></path>

<path d="M461.23,19c0.48,1.97,1.17,3.52,1.17,5.98c0,22.5,0.85,49.27-14.4,66.52" style="fill:none;stroke:#999;stroke-width:3"></path>
<path d="M462.75,22c11-1.75,45.25-6.25,49.25-6.25s5.95,0.95,5.5,4.75c-2.5,21-3.25,45,9,66.25c5.12,8.88,7,3.5,5.5-5" style="fill:none;stroke:#999;stroke-width:3"></path>
<path d="M469.71000000000004,44.93c1.11,0.49,2.37,0.65,3.64,0.49c6.49-0.81,23.34-3.61,33.16-4.56c1.26-0.12,2.06,0.08,3.33,0.43" style="fill:none;stroke:#999;stroke-width:3"></path>
<path d="M489.17,26c0.79,0.43,1.43,1.92,1.43,2.81c0,9.07,0,60.29-0.16,65.69" style="fill:none;stroke:#999;stroke-width:3"></path>
<path d="M490.48,43.69C485.96,54.97,473.84000000000003,72.21,464.43,78.6" style="fill:none;stroke:#999;stroke-width:3"></path>

<path d="M570.23,19c0.48,1.97,1.17,3.52,1.17,5.98c0,22.5,0.85,49.27-14.4,66.52" style="fill:none;stroke:#999;stroke-width:3"></path>
<path d="M571.75,22c11-1.75,45.25-6.25,49.25-6.25s5.95,0.95,5.5,4.75c-2.5,21-3.25,45,9,66.25c5.12,8.88,7,3.5,5.5-5" style="fill:none;stroke:#999;stroke-width:3"></path>
<path d="M578.71,44.93c1.11,0.49,2.37,0.65,3.64,0.49c6.49-0.81,23.34-3.61,33.16-4.56c1.26-0.12,2.06,0.08,3.33,0.43" style="fill:none;stroke:#999;stroke-width:3"></path>
<path d="M598.1700000000001,26c0.79,0.43,1.43,1.92,1.43,2.81c0,9.07,0,60.29-0.16,65.69" style="fill:none;stroke:#999;stroke-width:3"></path>
<path d="M599.48,43.69C594.96,54.97,582.84,72.21,573.4300000000001,78.6" style="fill:none;stroke:#999;stroke-width:3"></path>
<path d="M602.47,55.72c6.9,2.69,14.47,10.9,16.68,17.74" style="fill:none;stroke:#999;stroke-width:3"></path>

</svg>