<svg width="545px" height="109px" viewBox="0 0 545 109" xmlns="http://www.w3.org/2000/svg" xmlns:xlink="http://www.w3.org/1999/xlink" xml:space="preserve" version="1.1" baseProfile="full">
<line x1="1" y1="1" x2="544" y2="1" style="stroke:#ddd;stroke-width:2"></line>
<line x1="1" y1="1" x2="1" y2="108" style="stroke:#ddd;stroke-width:2"></line>
<line x1="1" y1="108" x2="544" y2="108" style="stroke:#ddd;stroke-width:2"></line>
<line x1="544" y1="1" x2="544" y2="108" style="stroke:#ddd;stroke-width:2"></line>
<line x1="109" y1="1" x2="109" y2="108" style="stroke:#ddd;stroke-width:2"></line>
<line x1="218" y1="1" x2="218" y2="108" style="stroke:#ddd;stroke-width:2"></line>
<line x1="327" y1="1" x2="327" y2="108" style="stroke:#ddd;stroke-width:2"></line>
<line x1="436" y1="1" x2="436" y2="108" style="stroke:#ddd;stroke-width:2"></line>
<line x1="1" y1="54" x2="544" y2="54" style="stroke:#ddd;stroke-width:2;stroke-dasharray:3 3"></line>
<line x1="55" y1="1" x2="55" y2="108" style="stroke:#ddd;stroke-width:2;stroke-dasharray:3 3"></line>
<line x1="164" y1="1" x2="164" y2="108" style="stroke:#ddd;stroke-width:2;stroke-dasharray:3 3"></line>
<line x1="273" y1="1" x2="273" y2="108" style="stroke:#ddd;stroke-width:2;stroke-dasharray:3 3"></line>
<line x1="382" y1="1" x2="382" y2="108" style="stroke:#ddd;stroke-width:2;stroke-dasharray:3 3"></line>
<line x1="491" y1="1" x2="491" y2="108" style="stroke:#ddd;stroke-width:2;stroke-dasharray:3 3"></line>
<path d="M17.79,26.53c1.68,0.31,3.42,0.39,5.1,0.17c5.15-0.67,16.03-2.46,23.11-3.28c1.84-0.21,3.75-0.28,5.53,0.36" style="fill:none;stroke:#999;stroke-width:3"></path>

<path d="M126.78999999999999,26.53c1.68,0.31,3.42,0.39,5.1,0.17c5.15-0.67,16.03-2.46,23.11-3.28c1.84-0.21,3.75-0.28,5.53,0.36" style="fill:none;stroke:#999;stroke-width:3"></path>
<path d="M120.78999999999999,48.72c1.95,0.77,4.67,0.58,6.71,0.28c10.56-1.55,21.53-3.24,31.5-4.36c2.51-0.28,4.74-0.57,7.21,0.03" style="fill:none;stroke:#999;stroke-width:3"></path>

<path d="M235.79,26.53c1.68,0.31,3.42,0.39,5.1,0.17c5.15-0.67,16.03-2.46,23.11-3.28c1.84-0.21,3.75-0.28,5.53,0.36" style="fill:none;stroke:#999;stroke-width:3"></path>
<path d="M229.79,48.72c1.95,0.77,4.67,0.58,6.71,0.28c10.56-1.55,21.53-3.24,31.5-4.36c2.51-0.28,4.74-0.57,7.21,0.03" style="fill:none;stroke:#999;stroke-width:3"></path>
<path d="M251.85,28.58c1.1,1.1,1.74,2.54,1.74,3.94c0,0.79-0.03,39.01-0.09,54.86c-0.01,3.08-0.02,5.31-0.03,6.26" style="fill:none;stroke:#999;stroke-width:3"></path>

<path d="M344.78999999999996,26.53c1.68,0.31,3.42,0.39,5.1,0.17c5.15-0.67,16.03-2.46,23.11-3.28c1.84-0.21,3.75-0.28,5.53,0.36" style="fill:none;stroke:#999;stroke-width:3"></path>
<path d="M338.78999999999996,48.72c1.95,0.77,4.67,0.58,6.71,0.28c10.56-1.55,21.53-3.24,31.5-4.36c2.51-0.28,4.74-0.57,7.21,0.03" style="fill:none;stroke:#999;stroke-width:3"></path>
<path d="M360.85,28.58c1.1,1.1,1.74,2.54,1.74,3.94c0,0.79-0.03,39.01-0.09,54.86c-0.01,3.08-0.02,5.31-0.03,6.26" style="fill:none;stroke:#999;stroke-width:3"></path>
<path d="M393.02,33.08C394.0,34,394.52,35.62,394.52,37.6c0,10.25-0.01,18.3-0.02,23.9c0,2.36,0,4.28,0,5.75" style="fill:none;stroke:#999;stroke-width:3"></path>

<path d="M453.78999999999996,26.53c1.68,0.31,3.42,0.39,5.1,0.17c5.15-0.67,16.03-2.46,23.11-3.28c1.84-0.21,3.75-0.28,5.53,0.36" style="fill:none;stroke:#999;stroke-width:3"></path>
<path d="M447.78999999999996,48.72c1.95,0.77,4.67,0.58,6.71,0.28c10.56-1.55,21.53-3.24,31.5-4.36c2.51-0.28,4.74-0.57,7.21,0.03" style="fill:none;stroke:#999;stroke-width:3"></path>
<path d="M469.85,28.58c1.1,1.1,1.74,2.54,1.74,3.94c0,0.79-0.03,39.01-0.09,54.86c-0.01,3.08-0.02,5.31-0.03,6.26" style="fill:none;stroke:#999;stroke-width:3"></path>
<path d="M502.02,33.08C503.0,34,503.52,35.62,503.52,37.6c0,10.25-0.01,18.3-0.02,23.9c0,2.36,0,4.28,0,5.75" style="fill:none;stroke:#999;stroke-width:3"></path>
<path d="M523.27,16.83c0.98,0.92,1.76,2.29,1.76,4.27c0,14.56-0.01,60.41-0.01,65.37c0,14.28-6.77,4.78-8.71,2.5" style="fill:none;stroke:#999;stroke-width:3"></path>

</svg>