<svg width="545px" height="109px" viewBox="0 0 545 109" xmlns="http://www.w3.org/2000/svg" xmlns:xlink="http://www.w3.org/1999/xlink" xml:space="preserve" version="1.1" baseProfile="full">
<line x1="1" y1="1" x2="544" y2="1" style="stroke:#ddd;stroke-width:2"></line>
<line x1="1" y1="1" x2="1" y2="108" style="stroke:#ddd;stroke-width:2"></line>
<line x1="1" y1="108" x2="544" y2="108" style="stroke:#ddd;stroke-width:2"></line>
<line x1="544" y1="1" x2="544" y2="108" style="stroke:#ddd;stroke-width:2"></line>
<line x1="109" y1="1" x2="109" y2="108" style="stroke:#ddd;stroke-width:2"></line>
<line x1="218" y1="1" x2="218" y2="108" style="stroke:#ddd;stroke-width:2"></line>
<line x1="327" y1="1" x2="327" y2="108" style="stroke:#ddd;stroke-width:2"></line>
<line x1="436" y1="1" x2="436" y2="108" style="stroke:#ddd;stroke-width:2"></line>
<line x1="1" y1="54" x2="544" y2="54" style="stroke:#ddd;stroke-width:2;stroke-dasharray:3 3"></line>
<line x1="55" y1="1" x2="55" y2="108" style="stroke:#ddd;stroke-width:2;stroke-dasharray:3 3"></line>
<line x1="164" y1="1" x2="164" y2="108" style="stroke:#ddd;stroke-width:2;stroke-dasharray:3 3"></line>
<line x1="273" y1="1" x2="273" y2="108" style="stroke:#ddd;stroke-width:2;stroke-dasharray:3 3"></line>
<line x1="382" y1="1" x2="382" y2="108" style="stroke:#ddd;stroke-width:2;stroke-dasharray:3 3"></line>
<line x1="491" y1="1" x2="491" y2="108" style="stroke:#ddd;stroke-width:2;stroke-dasharray:3 3"></line>
<path d="M50.63,13.92c0.1,0.46-0.2,2.54-1.33,3.35C43.75,21.25,36.0,26.5,17.14,32.91" style="fill:none;stroke:#999;stroke-width:3"></path>

<path d="M159.63,13.92c0.1,0.46-0.2,2.54-1.33,3.35C152.75,21.25,145.0,26.5,126.14,32.91" style="fill:none;stroke:#999;stroke-width:3"></path>
<path d="M119.63,51.79c0.85,0.51,2.98,0.55,3.84,0.51c11.03-0.55,26.53-5.05,41.17-6c1.42-0.09,2.28,0.24,2.99,0.5" style="fill:none;stroke:#999;stroke-width:3"></path>

<path d="M268.63,13.92c0.1,0.46-0.2,2.54-1.33,3.35C261.75,21.25,254.0,26.5,235.14,32.91" style="fill:none;stroke:#999;stroke-width:3"></path>
<path d="M228.63,51.79c0.85,0.51,2.98,0.55,3.84,0.51c11.03-0.55,26.53-5.05,41.17-6c1.42-0.09,2.28,0.24,2.99,0.5" style="fill:none;stroke:#999;stroke-width:3"></path>
<path d="M254.41,27.25c0.6,1.79,1.47,3.19,1.47,5.42c0,20.4,0.62,45.08-18.07,60.29" style="fill:none;stroke:#999;stroke-width:3"></path>

<path d="M377.63,13.92c0.1,0.46-0.2,2.54-1.33,3.35C370.75,21.25,363.0,26.5,344.14,32.91" style="fill:none;stroke:#999;stroke-width:3"></path>
<path d="M337.63,51.79c0.85,0.51,2.98,0.55,3.84,0.51c11.03-0.55,26.53-5.05,41.17-6c1.42-0.09,2.28,0.24,2.99,0.5" style="fill:none;stroke:#999;stroke-width:3"></path>
<path d="M363.40999999999997,27.25c0.6,1.79,1.47,3.19,1.47,5.42c0,20.4,0.62,45.08-18.07,60.29" style="fill:none;stroke:#999;stroke-width:3"></path>
<path d="M394.27,31.83c0.98,0.92,1.67,1.99,1.76,5.02C396.42,51.41,396.0,62.54,396.0,67.5" style="fill:none;stroke:#999;stroke-width:3"></path>

<path d="M486.63,13.92c0.1,0.46-0.2,2.54-1.33,3.35C479.75,21.25,472.0,26.5,453.14,32.91" style="fill:none;stroke:#999;stroke-width:3"></path>
<path d="M446.63,51.79c0.85,0.51,2.98,0.55,3.84,0.51c11.03-0.55,26.53-5.05,41.17-6c1.42-0.09,2.28,0.24,2.99,0.5" style="fill:none;stroke:#999;stroke-width:3"></path>
<path d="M472.40999999999997,27.25c0.6,1.79,1.47,3.19,1.47,5.42c0,20.4,0.62,45.08-18.07,60.29" style="fill:none;stroke:#999;stroke-width:3"></path>
<path d="M503.27,31.83c0.98,0.92,1.67,1.99,1.76,5.02C505.42,51.41,505.0,62.54,505.0,67.5" style="fill:none;stroke:#999;stroke-width:3"></path>
<path d="M524.77,16.33c0.98,0.92,1.67,1.99,1.76,5.02c0.4,14.55-0.26,61.16-0.26,66.12c0,13.14-7.21,1.5-8.71,0.25" style="fill:none;stroke:#999;stroke-width:3"></path>

</svg>