<svg width="872px" height="109px" viewBox="0 0 872 109" xmlns="http://www.w3.org/2000/svg" xmlns:xlink="http://www.w3.org/1999/xlink" xml:space="preserve" version="1.1" baseProfile="full">
<line x1="1" y1="1" x2="871" y2="1" style="stroke:#ddd;stroke-width:2"></line>
<line x1="1" y1="1" x2="1" y2="108" style="stroke:#ddd;stroke-width:2"></line>
<line x1="1" y1="108" x2="871" y2="108" style="stroke:#ddd;stroke-width:2"></line>
<line x1="871" y1="1" x2="871" y2="108" style="stroke:#ddd;stroke-width:2"></line>
<line x1="109" y1="1" x2="109" y2="108" style="stroke:#ddd;stroke-width:2"></line>
<line x1="218" y1="1" x2="218" y2="108" style="stroke:#ddd;stroke-width:2"></line>
<line x1="327" y1="1" x2="327" y2="108" style="stroke:#ddd;stroke-width:2"></line>
<line x1="436" y1="1" x2="436" y2="108" style="stroke:#ddd;stroke-width:2"></line>
<line x1="545" y1="1" x2="545" y2="108" style="stroke:#ddd;stroke-width:2"></line>
<line x1="654" y1="1" x2="654" y2="108" style="stroke:#ddd;stroke-width:2"></line>
<line x1="763" y1="1" x2="763" y2="108" style="stroke:#ddd;stroke-width:2"></line>
<line x1="1" y1="54" x2="871" y2="54" style="stroke:#ddd;stroke-width:2;stroke-dasharray:3 3"></line>
<line x1="55" y1="1" x2="55" y2="108" style="stroke:#ddd;stroke-width:2;stroke-dasharray:3 3"></line>
<line x1="164" y1="1" x2="164" y2="108" style="stroke:#ddd;stroke-width:2;stroke-dasharray:3 3"></line>
<line x1="273" y1="1" x2="273" y2="108" style="stroke:#ddd;stroke-width:2;stroke-dasharray:3 3"></line>
<line x1="382" y1="1" x2="382" y2="108" style="stroke:#ddd;stroke-width:2;stroke-dasharray:3 3"></line>
<line x1="491" y1="1" x2="491" y2="108" style="stroke:#ddd;stroke-width:2;stroke-dasharray:3 3"></line>
<line x1="600" y1="1" x2="600" y2="108" style="stroke:#ddd;stroke-width:2;stroke-dasharray:3 3"></line>
<line x1="709" y1="1" x2="709" y2="108" style="stroke:#ddd;stroke-width:2;stroke-dasharray:3 3"></line>
<line x1="818" y1="1" x2="818" y2="108" style="stroke:#ddd;stroke-width:2;stroke-dasharray:3 3"></line>
<path d="M46.77,13.25c0.08,0.41-0.64,1.95-1.1,2.39c-3.53,3.35-12.48,9.49-28.12,14.15" style="fill:none;stroke:#999;stroke-width:3"></path>

<path d="M155.77,13.25c0.08,0.41-0.64,1.95-1.1,2.39c-3.53,3.35-12.48,9.49-28.12,14.15" style="fill:none;stroke:#999;stroke-width:3"></path>
<path d="M119.03,48.06c1.06,0.45,3.69,0.58,4.75,0.45c9.35-1.11,35.47-5.07,42.5-5.65c1.76-0.15,2.82,0.22,3.7,0.44" style="fill:none;stroke:#999;stroke-width:3"></path>

<path d="M264.77,13.25c0.08,0.41-0.64,1.95-1.1,2.39c-3.53,3.35-12.48,9.49-28.12,14.15" style="fill:none;stroke:#999;stroke-width:3"></path>
<path d="M228.03,48.06c1.06,0.45,3.69,0.58,4.75,0.45c9.35-1.11,35.47-5.07,42.5-5.65c1.76-0.15,2.82,0.22,3.7,0.44" style="fill:none;stroke:#999;stroke-width:3"></path>
<path d="M252.71,26.87c0.44,0.35,1.35,2.63,1.44,3.33c0.16,1.31,0.45,33.67,0.36,38.19" style="fill:none;stroke:#999;stroke-width:3"></path>

<path d="M373.77,13.25c0.08,0.41-0.64,1.95-1.1,2.39c-3.53,3.35-12.48,9.49-28.12,14.15" style="fill:none;stroke:#999;stroke-width:3"></path>
<path d="M337.03,48.06c1.06,0.45,3.69,0.58,4.75,0.45c9.35-1.11,35.47-5.07,42.5-5.65c1.76-0.15,2.82,0.22,3.7,0.44" style="fill:none;stroke:#999;stroke-width:3"></path>
<path d="M361.71000000000004,26.87c0.44,0.35,1.35,2.63,1.44,3.33c0.16,1.31,0.45,33.67,0.36,38.19" style="fill:none;stroke:#999;stroke-width:3"></path>
<path d="M345.18,70.09c0.43,0.45,0.86,0.82,1.05,1.38c1.47,4.44,3.74,15.79,4.75,23.77" style="fill:none;stroke:#999;stroke-width:3"></path>

<path d="M482.77,13.25c0.08,0.41-0.64,1.95-1.1,2.39c-3.53,3.35-12.48,9.49-28.12,14.15" style="fill:none;stroke:#999;stroke-width:3"></path>
<path d="M446.03,48.06c1.06,0.45,3.69,0.58,4.75,0.45c9.35-1.11,35.47-5.07,42.5-5.65c1.76-0.15,2.82,0.22,3.7,0.44" style="fill:none;stroke:#999;stroke-width:3"></path>
<path d="M470.71000000000004,26.87c0.44,0.35,1.35,2.63,1.44,3.33c0.16,1.31,0.45,33.67,0.36,38.19" style="fill:none;stroke:#999;stroke-width:3"></path>
<path d="M454.18,70.09c0.43,0.45,0.86,0.82,1.05,1.38c1.47,4.44,3.74,15.79,4.75,23.77" style="fill:none;stroke:#999;stroke-width:3"></path>
<path d="M456.55,71.35c11.2-1.34,23.85-3.41,30.15-3.96c2.3-0.2,2.97,2.04,2.64,3.23c-1.26,4.52-2.58,10.64-4.08,18.48" style="fill:none;stroke:#999;stroke-width:3"></path>

<path d="M591.77,13.25c0.08,0.41-0.64,1.95-1.1,2.39c-3.53,3.35-12.48,9.49-28.12,14.15" style="fill:none;stroke:#999;stroke-width:3"></path>
<path d="M555.03,48.06c1.06,0.45,3.69,0.58,4.75,0.45c9.35-1.11,35.47-5.07,42.5-5.65c1.76-0.15,2.82,0.22,3.7,0.44" style="fill:none;stroke:#999;stroke-width:3"></path>
<path d="M579.71,26.87c0.44,0.35,1.35,2.63,1.44,3.33c0.16,1.31,0.45,33.67,0.36,38.19" style="fill:none;stroke:#999;stroke-width:3"></path>
<path d="M563.1800000000001,70.09c0.43,0.45,0.86,0.82,1.05,1.38c1.47,4.44,3.74,15.79,4.75,23.77" style="fill:none;stroke:#999;stroke-width:3"></path>
<path d="M565.55,71.35c11.2-1.34,23.85-3.41,30.15-3.96c2.3-0.2,2.97,2.04,2.64,3.23c-1.26,4.52-2.58,10.64-4.08,18.48" style="fill:none;stroke:#999;stroke-width:3"></path>
<path d="M569.27,91.78c6.61-0.67,18.5-1.42,27.57-2.46" style="fill:none;stroke:#999;stroke-width:3"></path>

<path d="M700.77,13.25c0.08,0.41-0.64,1.95-1.1,2.39c-3.53,3.35-12.48,9.49-28.12,14.15" style="fill:none;stroke:#999;stroke-width:3"></path>
<path d="M664.03,48.06c1.06,0.45,3.69,0.58,4.75,0.45c9.35-1.11,35.47-5.07,42.5-5.65c1.76-0.15,2.82,0.22,3.7,0.44" style="fill:none;stroke:#999;stroke-width:3"></path>
<path d="M688.71,26.87c0.44,0.35,1.35,2.63,1.44,3.33c0.16,1.31,0.45,33.67,0.36,38.19" style="fill:none;stroke:#999;stroke-width:3"></path>
<path d="M672.1800000000001,70.09c0.43,0.45,0.86,0.82,1.05,1.38c1.47,4.44,3.74,15.79,4.75,23.77" style="fill:none;stroke:#999;stroke-width:3"></path>
<path d="M674.55,71.35c11.2-1.34,23.85-3.41,30.15-3.96c2.3-0.2,2.97,2.04,2.64,3.23c-1.26,4.52-2.58,10.64-4.08,18.48" style="fill:none;stroke:#999;stroke-width:3"></path>
<path d="M678.27,91.78c6.61-0.67,18.5-1.42,27.57-2.46" style="fill:none;stroke:#999;stroke-width:3"></path>
<path d="M723.27,25.08c0.98,0.92,1.67,1.99,1.76,5.02C725.42,44.66,725.0,58.79,725.0,63.75" style="fill:none;stroke:#999;stroke-width:3"></path>

<path d="M809.77,13.25c0.08,0.41-0.64,1.95-1.1,2.39c-3.53,3.35-12.48,9.49-28.12,14.15" style="fill:none;stroke:#999;stroke-width:3"></path>
<path d="M773.03,48.06c1.06,0.45,3.69,0.58,4.75,0.45c9.35-1.11,35.47-5.07,42.5-5.65c1.76-0.15,2.82,0.22,3.7,0.44" style="fill:none;stroke:#999;stroke-width:3"></path>
<path d="M797.71,26.87c0.44,0.35,1.35,2.63,1.44,3.33c0.16,1.31,0.45,33.67,0.36,38.19" style="fill:none;stroke:#999;stroke-width:3"></path>
<path d="M781.1800000000001,70.09c0.43,0.45,0.86,0.82,1.05,1.38c1.47,4.44,3.74,15.79,4.75,23.77" style="fill:none;stroke:#999;stroke-width:3"></path>
<path d="M783.55,71.35c11.2-1.34,23.85-3.41,30.15-3.96c2.3-0.2,2.97,2.04,2.64,3.23c-1.26,4.52-2.58,10.64-4.08,18.48" style="fill:none;stroke:#999;stroke-width:3"></path>
<path d="M787.27,91.78c6.61-0.67,18.5-1.42,27.57-2.46" style="fill:none;stroke:#999;stroke-width:3"></path>
<path d="M832.27,25.08c0.98,0.92,1.67,1.99,1.76,5.02C834.42,44.66,834.0,58.79,834.0,63.75" style="fill:none;stroke:#999;stroke-width:3"></path>
<path d="M852.27,11.08c0.98,0.92,1.67,1.99,1.76,5.02c0.4,14.55-0.26,68.66-0.26,73.62c0,13.14-7.21,1.5-8.71,0.25" style="fill:none;stroke:#999;stroke-width:3"></path>

</svg>