<svg width="981px" height="109px" viewBox="0 0 981 109" xmlns="http://www.w3.org/2000/svg" xmlns:xlink="http://www.w3.org/1999/xlink" xml:space="preserve" version="1.1" baseProfile="full">
<line x1="1" y1="1" x2="980" y2="1" style="stroke:#ddd;stroke-width:2"></line>
<line x1="1" y1="1" x2="1" y2="108" style="stroke:#ddd;stroke-width:2"></line>
<line x1="1" y1="108" x2="980" y2="108" style="stroke:#ddd;stroke-width:2"></line>
<line x1="980" y1="1" x2="980" y2="108" style="stroke:#ddd;stroke-width:2"></line>
<line x1="109" y1="1" x2="109" y2="108" style="stroke:#ddd;stroke-width:2"></line>
<line x1="218" y1="1" x2="218" y2="108" style="stroke:#ddd;stroke-width:2"></line>
<line x1="327" y1="1" x2="327" y2="108" style="stroke:#ddd;stroke-width:2"></line>
<line x1="436" y1="1" x2="436" y2="108" style="stroke:#ddd;stroke-width:2"></line>
<line x1="545" y1="1" x2="545" y2="108" style="stroke:#ddd;stroke-width:2"></line>
<line x1="654" y1="1" x2="654" y2="108" style="stroke:#ddd;stroke-width:2"></line>
<line x1="763" y1="1" x2="763" y2="108" style="stroke:#ddd;stroke-width:2"></line>
<line x1="872" y1="1" x2="872" y2="108" style="stroke:#ddd;stroke-width:2"></line>
<line x1="1" y1="54" x2="980" y2="54" style="stroke:#ddd;stroke-width:2;stroke-dasharray:3 3"></line>
<line x1="55" y1="1" x2="55" y2="108" style="stroke:#ddd;stroke-width:2;stroke-dasharray:3 3"></line>
<line x1="164" y1="1" x2="164" y2="108" style="stroke:#ddd;stroke-width:2;stroke-dasharray:3 3"></line>
<line x1="273" y1="1" x2="273" y2="108" style="stroke:#ddd;stroke-width:2;stroke-dasharray:3 3"></line>
<line x1="382" y1="1" x2="382" y2="108" style="stroke:#ddd;stroke-width:2;stroke-dasharray:3 3"></line>
<line x1="491" y1="1" x2="491" y2="108" style="stroke:#ddd;stroke-width:2;stroke-dasharray:3 3"></line>
<line x1="600" y1="1" x2="600" y2="108" style="stroke:#ddd;stroke-width:2;stroke-dasharray:3 3"></line>
<line x1="709" y1="1" x2="709" y2="108" style="stroke:#ddd;stroke-width:2;stroke-dasharray:3 3"></line>
<line x1="818" y1="1" x2="818" y2="108" style="stroke:#ddd;stroke-width:2;stroke-dasharray:3 3"></line>
<line x1="927" y1="1" x2="927" y2="108" style="stroke:#ddd;stroke-width:2;stroke-dasharray:3 3"></line>
<path d="M35.24,11.25c0.12,0.38,1.67,1.95,1.67,4.34c0,8.16-0.03,21.38-0.03,25.28" style="fill:none;stroke:#999;stroke-width:3"></path>

<path d="M144.24,11.25c0.12,0.38,1.67,1.95,1.67,4.34c0,8.16-0.03,21.38-0.03,25.28" style="fill:none;stroke:#999;stroke-width:3"></path>
<path d="M124.62,20.62c3.98,2.91,9.01,9.92,10.01,14.44" style="fill:none;stroke:#999;stroke-width:3"></path>

<path d="M253.24,11.25c0.12,0.38,1.67,1.95,1.67,4.34c0,8.16-0.03,21.38-0.03,25.28" style="fill:none;stroke:#999;stroke-width:3"></path>
<path d="M233.62,20.62c3.98,2.91,9.01,9.92,10.01,14.44" style="fill:none;stroke:#999;stroke-width:3"></path>
<path d="M274.21,17.85c0.09,0.86-0.01,1.69-0.31,2.5c-1.11,3.41-4.49,8.22-8.27,11.67" style="fill:none;stroke:#999;stroke-width:3"></path>

<path d="M362.24,11.25c0.12,0.38,1.67,1.95,1.67,4.34c0,8.16-0.03,21.38-0.03,25.28" style="fill:none;stroke:#999;stroke-width:3"></path>
<path d="M342.62,20.62c3.98,2.91,9.01,9.92,10.01,14.44" style="fill:none;stroke:#999;stroke-width:3"></path>
<path d="M383.21,17.85c0.09,0.86-0.01,1.69-0.31,2.5c-1.11,3.41-4.49,8.22-8.27,11.67" style="fill:none;stroke:#999;stroke-width:3"></path>
<path d="M348.86,42.44c0.85,0.85,1.35,1.93,1.35,3.28c0,0.73-0.03,30.34-0.04,44.02c0,3.92-0.01,6.62-0.03,7.08" style="fill:none;stroke:#999;stroke-width:3"></path>

<path d="M471.24,11.25c0.12,0.38,1.67,1.95,1.67,4.34c0,8.16-0.03,21.38-0.03,25.28" style="fill:none;stroke:#999;stroke-width:3"></path>
<path d="M451.62,20.62c3.98,2.91,9.01,9.92,10.01,14.44" style="fill:none;stroke:#999;stroke-width:3"></path>
<path d="M492.21,17.85c0.09,0.86-0.01,1.69-0.31,2.5c-1.11,3.41-4.49,8.22-8.27,11.67" style="fill:none;stroke:#999;stroke-width:3"></path>
<path d="M457.86,42.44c0.85,0.85,1.35,1.93,1.35,3.28c0,0.73-0.03,30.34-0.04,44.02c0,3.92-0.01,6.62-0.03,7.08" style="fill:none;stroke:#999;stroke-width:3"></path>
<path d="M459.81,43.37c4.06-0.62,19.42-3.12,23.23-3.44c2.21-0.18,4.18,1.19,4.18,4.4c0,9.99-0.05,26.65-0.05,45.42c0,11.25-4.97,2.58-6.62,0.96" style="fill:none;stroke:#999;stroke-width:3"></path>

<path d="M580.24,11.25c0.12,0.38,1.67,1.95,1.67,4.34c0,8.16-0.03,21.38-0.03,25.28" style="fill:none;stroke:#999;stroke-width:3"></path>
<path d="M560.62,20.62c3.98,2.91,9.01,9.92,10.01,14.44" style="fill:none;stroke:#999;stroke-width:3"></path>
<path d="M601.21,17.85c0.09,0.86-0.01,1.69-0.31,2.5c-1.11,3.41-4.49,8.22-8.27,11.67" style="fill:none;stroke:#999;stroke-width:3"></path>
<path d="M566.86,42.44c0.85,0.85,1.35,1.93,1.35,3.28c0,0.73-0.03,30.34-0.04,44.02c0,3.92-0.01,6.62-0.03,7.08" style="fill:none;stroke:#999;stroke-width:3"></path>
<path d="M568.81,43.37c4.06-0.62,19.42-3.12,23.23-3.44c2.21-0.18,4.18,1.19,4.18,4.4c0,9.99-0.05,26.65-0.05,45.42c0,11.25-4.97,2.58-6.62,0.96" style="fill:none;stroke:#999;stroke-width:3"></path>
<path d="M569.06,56.94c8.56-1.19,18.31-2.56,26.24-3.28" style="fill:none;stroke:#999;stroke-width:3"></path>

<path d="M689.24,11.25c0.12,0.38,1.67,1.95,1.67,4.34c0,8.16-0.03,21.38-0.03,25.28" style="fill:none;stroke:#999;stroke-width:3"></path>
<path d="M669.62,20.62c3.98,2.91,9.01,9.92,10.01,14.44" style="fill:none;stroke:#999;stroke-width:3"></path>
<path d="M710.21,17.85c0.09,0.86-0.01,1.69-0.31,2.5c-1.11,3.41-4.49,8.22-8.27,11.67" style="fill:none;stroke:#999;stroke-width:3"></path>
<path d="M675.86,42.44c0.85,0.85,1.35,1.93,1.35,3.28c0,0.73-0.03,30.34-0.04,44.02c0,3.92-0.01,6.62-0.03,7.08" style="fill:none;stroke:#999;stroke-width:3"></path>
<path d="M677.81,43.37c4.06-0.62,19.42-3.12,23.23-3.44c2.21-0.18,4.18,1.19,4.18,4.4c0,9.99-0.05,26.65-0.05,45.42c0,11.25-4.97,2.58-6.62,0.96" style="fill:none;stroke:#999;stroke-width:3"></path>
<path d="M678.06,56.94c8.56-1.19,18.31-2.56,26.24-3.28" style="fill:none;stroke:#999;stroke-width:3"></path>
<path d="M678.26,71.61c5.89-0.7,19-2.57,25.81-3.03" style="fill:none;stroke:#999;stroke-width:3"></path>

<path d="M798.24,11.25c0.12,0.38,1.67,1.95,1.67,4.34c0,8.16-0.03,21.38-0.03,25.28" style="fill:none;stroke:#999;stroke-width:3"></path>
<path d="M778.62,20.62c3.98,2.91,9.01,9.92,10.01,14.44" style="fill:none;stroke:#999;stroke-width:3"></path>
<path d="M819.21,17.85c0.09,0.86-0.01,1.69-0.31,2.5c-1.11,3.41-4.49,8.22-8.27,11.67" style="fill:none;stroke:#999;stroke-width:3"></path>
<path d="M784.86,42.44c0.85,0.85,1.35,1.93,1.35,3.28c0,0.73-0.03,30.34-0.04,44.02c0,3.92-0.01,6.62-0.03,7.08" style="fill:none;stroke:#999;stroke-width:3"></path>
<path d="M786.81,43.37c4.06-0.62,19.42-3.12,23.23-3.44c2.21-0.18,4.18,1.19,4.18,4.4c0,9.99-0.05,26.65-0.05,45.42c0,11.25-4.97,2.58-6.62,0.96" style="fill:none;stroke:#999;stroke-width:3"></path>
<path d="M787.06,56.94c8.56-1.19,18.31-2.56,26.24-3.28" style="fill:none;stroke:#999;stroke-width:3"></path>
<path d="M787.26,71.61c5.89-0.7,19-2.57,25.81-3.03" style="fill:none;stroke:#999;stroke-width:3"></path>
<path d="M833.27,26.83c0.98,0.92,1.76,2.42,1.76,4.52c0,10.53,0.15,23.4,0.05,30.9c-0.04,2.87-0.07,5.13-0.07,6.5" style="fill:none;stroke:#999;stroke-width:3"></path>

<path d="M907.24,11.25c0.12,0.38,1.67,1.95,1.67,4.34c0,8.16-0.03,21.38-0.03,25.28" style="fill:none;stroke:#999;stroke-width:3"></path>
<path d="M887.62,20.62c3.98,2.91,9.01,9.92,10.01,14.44" style="fill:none;stroke:#999;stroke-width:3"></path>
<path d="M928.21,17.85c0.09,0.86-0.01,1.69-0.31,2.5c-1.11,3.41-4.49,8.22-8.27,11.67" style="fill:none;stroke:#999;stroke-width:3"></path>
<path d="M893.86,42.44c0.85,0.85,1.35,1.93,1.35,3.28c0,0.73-0.03,30.34-0.04,44.02c0,3.92-0.01,6.62-0.03,7.08" style="fill:none;stroke:#999;stroke-width:3"></path>
<path d="M895.81,43.37c4.06-0.62,19.42-3.12,23.23-3.44c2.21-0.18,4.18,1.19,4.18,4.4c0,9.99-0.05,26.65-0.05,45.42c0,11.25-4.97,2.58-6.62,0.96" style="fill:none;stroke:#999;stroke-width:3"></path>
<path d="M896.06,56.94c8.56-1.19,18.31-2.56,26.24-3.28" style="fill:none;stroke:#999;stroke-width:3"></path>
<path d="M896.26,71.61c5.89-0.7,19-2.57,25.81-3.03" style="fill:none;stroke:#999;stroke-width:3"></path>
<path d="M942.27,26.83c0.98,0.92,1.76,2.42,1.76,4.52c0,10.53,0.15,23.4,0.05,30.9c-0.04,2.87-0.07,5.13-0.07,6.5" style="fill:none;stroke:#999;stroke-width:3"></path>
<path d="M961.27,13.58c0.98,0.92,1.76,2.17,1.76,4.52c0,14.56-0.01,65.9-0.01,71.12c0,14.91-5.64,5.41-7.96,2.5" style="fill:none;stroke:#999;stroke-width:3"></path>

</svg>