<svg width="1199px" height="109px" viewBox="0 0 1199 109" xmlns="http://www.w3.org/2000/svg" xmlns:xlink="http://www.w3.org/1999/xlink" xml:space="preserve" version="1.1" baseProfile="full">
<line x1="1" y1="1" x2="1198" y2="1" style="stroke:#ddd;stroke-width:2"></line>
<line x1="1" y1="1" x2="1" y2="108" style="stroke:#ddd;stroke-width:2"></line>
<line x1="1" y1="108" x2="1198" y2="108" style="stroke:#ddd;stroke-width:2"></line>
<line x1="1198" y1="1" x2="1198" y2="108" style="stroke:#ddd;stroke-width:2"></line>
<line x1="109" y1="1" x2="109" y2="108" style="stroke:#ddd;stroke-width:2"></line>
<line x1="218" y1="1" x2="218" y2="108" style="stroke:#ddd;stroke-width:2"></line>
<line x1="327" y1="1" x2="327" y2="108" style="stroke:#ddd;stroke-width:2"></line>
<line x1="436" y1="1" x2="436" y2="108" style="stroke:#ddd;stroke-width:2"></line>
<line x1="545" y1="1" x2="545" y2="108" style="stroke:#ddd;stroke-width:2"></line>
<line x1="654" y1="1" x2="654" y2="108" style="stroke:#ddd;stroke-width:2"></line>
<line x1="763" y1="1" x2="763" y2="108" style="stroke:#ddd;stroke-width:2"></line>
<line x1="872" y1="1" x2="872" y2="108" style="stroke:#ddd;stroke-width:2"></line>
<line x1="981" y1="1" x2="981" y2="108" style="stroke:#ddd;stroke-width:2"></line>
<line x1="1090" y1="1" x2="1090" y2="108" style="stroke:#ddd;stroke-width:2"></line>
<line x1="1" y1="54" x2="1198" y2="54" style="stroke:#ddd;stroke-width:2;stroke-dasharray:3 3"></line>
<line x1="55" y1="1" x2="55" y2="108" style="stroke:#ddd;stroke-width:2;stroke-dasharray:3 3"></line>
<line x1="164" y1="1" x2="164" y2="108" style="stroke:#ddd;stroke-width:2;stroke-dasharray:3 3"></line>
<line x1="273" y1="1" x2="273" y2="108" style="stroke:#ddd;stroke-width:2;stroke-dasharray:3 3"></line>
<line x1="382" y1="1" x2="382" y2="108" style="stroke:#ddd;stroke-width:2;stroke-dasharray:3 3"></line>
<line x1="491" y1="1" x2="491" y2="108" style="stroke:#ddd;stroke-width:2;stroke-dasharray:3 3"></line>
<line x1="600" y1="1" x2="600" y2="108" style="stroke:#ddd;stroke-width:2;stroke-dasharray:3 3"></line>
<line x1="709" y1="1" x2="709" y2="108" style="stroke:#ddd;stroke-width:2;stroke-dasharray:3 3"></line>
<line x1="818" y1="1" x2="818" y2="108" style="stroke:#ddd;stroke-width:2;stroke-dasharray:3 3"></line>
<line x1="927" y1="1" x2="927" y2="108" style="stroke:#ddd;stroke-width:2;stroke-dasharray:3 3"></line>
<line x1="1036" y1="1" x2="1036" y2="108" style="stroke:#ddd;stroke-width:2;stroke-dasharray:3 3"></line>
<line x1="1145" y1="1" x2="1145" y2="108" style="stroke:#ddd;stroke-width:2;stroke-dasharray:3 3"></line>
<path d="M46.84,14.89c-0.21,1.11-1.28,2.1-1.91,2.45c-4.12,2.27-14.32,5.75-28.35,8.92" style="fill:none;stroke:#999;stroke-width:3"></path>

<path d="M155.84,14.89c-0.21,1.11-1.28,2.1-1.91,2.45c-4.12,2.27-14.32,5.75-28.35,8.92" style="fill:none;stroke:#999;stroke-width:3"></path>
<path d="M120.97,34.81c1.95,0.28,3.83,0.15,5.77-0.11c7.72-1.04,21.63-3.11,29.88-4.06c1.98-0.23,4.37-0.4,6.15-0.1" style="fill:none;stroke:#999;stroke-width:3"></path>

<path d="M264.84000000000003,14.89c-0.21,1.11-1.28,2.1-1.91,2.45c-4.12,2.27-14.32,5.75-28.35,8.92" style="fill:none;stroke:#999;stroke-width:3"></path>
<path d="M229.97,34.81c1.95,0.28,3.83,0.15,5.77-0.11c7.72-1.04,21.63-3.11,29.88-4.06c1.98-0.23,4.37-0.4,6.15-0.1" style="fill:none;stroke:#999;stroke-width:3"></path>
<path d="M233.16,44.9c0.72,0.72,1.26,1.49,1.42,2.3c1.12,5.65,2.11,10.33,3.43,16.52c0.21,0.98,0.43,2,0.66,3.07" style="fill:none;stroke:#999;stroke-width:3"></path>

<path d="M373.84000000000003,14.89c-0.21,1.11-1.28,2.1-1.91,2.45c-4.12,2.27-14.32,5.75-28.35,8.92" style="fill:none;stroke:#999;stroke-width:3"></path>
<path d="M338.97,34.81c1.95,0.28,3.83,0.15,5.77-0.11c7.72-1.04,21.63-3.11,29.88-4.06c1.98-0.23,4.37-0.4,6.15-0.1" style="fill:none;stroke:#999;stroke-width:3"></path>
<path d="M342.15999999999997,44.9c0.72,0.72,1.26,1.49,1.42,2.3c1.12,5.65,2.11,10.33,3.43,16.52c0.21,0.98,0.43,2,0.66,3.07" style="fill:none;stroke:#999;stroke-width:3"></path>
<path d="M343.91,45.8c9.66-1.45,22.22-3.28,30.49-4.35c3.47-0.45,5.45,1.69,5.09,3.84c-0.74,4.46-1.76,9.87-2.82,14.38c-0.22,0.94-0.43,1.79-0.61,2.51" style="fill:none;stroke:#999;stroke-width:3"></path>

<path d="M482.84000000000003,14.89c-0.21,1.11-1.28,2.1-1.91,2.45c-4.12,2.27-14.32,5.75-28.35,8.92" style="fill:none;stroke:#999;stroke-width:3"></path>
<path d="M447.97,34.81c1.95,0.28,3.83,0.15,5.77-0.11c7.72-1.04,21.63-3.11,29.88-4.06c1.98-0.23,4.37-0.4,6.15-0.1" style="fill:none;stroke:#999;stroke-width:3"></path>
<path d="M451.15999999999997,44.9c0.72,0.72,1.26,1.49,1.42,2.3c1.12,5.65,2.11,10.33,3.43,16.52c0.21,0.98,0.43,2,0.66,3.07" style="fill:none;stroke:#999;stroke-width:3"></path>
<path d="M452.91,45.8c9.66-1.45,22.22-3.28,30.49-4.35c3.47-0.45,5.45,1.69,5.09,3.84c-0.74,4.46-1.76,9.87-2.82,14.38c-0.22,0.94-0.43,1.79-0.61,2.51" style="fill:none;stroke:#999;stroke-width:3"></path>
<path d="M455.3,54.39c6.07-0.89,26.77-3.02,31.02-3.4" style="fill:none;stroke:#999;stroke-width:3"></path>

<path d="M591.84,14.89c-0.21,1.11-1.28,2.1-1.91,2.45c-4.12,2.27-14.32,5.75-28.35,8.92" style="fill:none;stroke:#999;stroke-width:3"></path>
<path d="M556.97,34.81c1.95,0.28,3.83,0.15,5.77-0.11c7.72-1.04,21.63-3.11,29.88-4.06c1.98-0.23,4.37-0.4,6.15-0.1" style="fill:none;stroke:#999;stroke-width:3"></path>
<path d="M560.16,44.9c0.72,0.72,1.26,1.49,1.42,2.3c1.12,5.65,2.11,10.33,3.43,16.52c0.21,0.98,0.43,2,0.66,3.07" style="fill:none;stroke:#999;stroke-width:3"></path>
<path d="M561.9100000000001,45.8c9.66-1.45,22.22-3.28,30.49-4.35c3.47-0.45,5.45,1.69,5.09,3.84c-0.74,4.46-1.76,9.87-2.82,14.38c-0.22,0.94-0.43,1.79-0.61,2.51" style="fill:none;stroke:#999;stroke-width:3"></path>
<path d="M564.3,54.39c6.07-0.89,26.77-3.02,31.02-3.4" style="fill:none;stroke:#999;stroke-width:3"></path>
<path d="M566.3,64.09c8.7-1.46,17.33-2.59,27.27-3.21" style="fill:none;stroke:#999;stroke-width:3"></path>

<path d="M700.84,14.89c-0.21,1.11-1.28,2.1-1.91,2.45c-4.12,2.27-14.32,5.75-28.35,8.92" style="fill:none;stroke:#999;stroke-width:3"></path>
<path d="M665.97,34.81c1.95,0.28,3.83,0.15,5.77-0.11c7.72-1.04,21.63-3.11,29.88-4.06c1.98-0.23,4.37-0.4,6.15-0.1" style="fill:none;stroke:#999;stroke-width:3"></path>
<path d="M669.16,44.9c0.72,0.72,1.26,1.49,1.42,2.3c1.12,5.65,2.11,10.33,3.43,16.52c0.21,0.98,0.43,2,0.66,3.07" style="fill:none;stroke:#999;stroke-width:3"></path>
<path d="M670.9100000000001,45.8c9.66-1.45,22.22-3.28,30.49-4.35c3.47-0.45,5.45,1.69,5.09,3.84c-0.74,4.46-1.76,9.87-2.82,14.38c-0.22,0.94-0.43,1.79-0.61,2.51" style="fill:none;stroke:#999;stroke-width:3"></path>
<path d="M673.3,54.39c6.07-0.89,26.77-3.02,31.02-3.4" style="fill:none;stroke:#999;stroke-width:3"></path>
<path d="M675.3,64.09c8.7-1.46,17.33-2.59,27.27-3.21" style="fill:none;stroke:#999;stroke-width:3"></path>
<path d="M686.96,24.91c1,1,1.58,2.34,1.58,3.54c0,3.44,0.07,51.55,0.07,57.64" style="fill:none;stroke:#999;stroke-width:3"></path>

<path d="M809.84,14.89c-0.21,1.11-1.28,2.1-1.91,2.45c-4.12,2.27-14.32,5.75-28.35,8.92" style="fill:none;stroke:#999;stroke-width:3"></path>
<path d="M774.97,34.81c1.95,0.28,3.83,0.15,5.77-0.11c7.72-1.04,21.63-3.11,29.88-4.06c1.98-0.23,4.37-0.4,6.15-0.1" style="fill:none;stroke:#999;stroke-width:3"></path>
<path d="M778.16,44.9c0.72,0.72,1.26,1.49,1.42,2.3c1.12,5.65,2.11,10.33,3.43,16.52c0.21,0.98,0.43,2,0.66,3.07" style="fill:none;stroke:#999;stroke-width:3"></path>
<path d="M779.9100000000001,45.8c9.66-1.45,22.22-3.28,30.49-4.35c3.47-0.45,5.45,1.69,5.09,3.84c-0.74,4.46-1.76,9.87-2.82,14.38c-0.22,0.94-0.43,1.79-0.61,2.51" style="fill:none;stroke:#999;stroke-width:3"></path>
<path d="M782.3,54.39c6.07-0.89,26.77-3.02,31.02-3.4" style="fill:none;stroke:#999;stroke-width:3"></path>
<path d="M784.3,64.09c8.7-1.46,17.33-2.59,27.27-3.21" style="fill:none;stroke:#999;stroke-width:3"></path>
<path d="M795.96,24.91c1,1,1.58,2.34,1.58,3.54c0,3.44,0.07,51.55,0.07,57.64" style="fill:none;stroke:#999;stroke-width:3"></path>
<path d="M782.57,76.63c1.55,0.37,3.1,0.2,4.32,0.06c8.11-0.94,14.86-2.19,20.62-3.53c1.88-0.44,3.62-0.53,4.74-0.4" style="fill:none;stroke:#999;stroke-width:3"></path>

<path d="M918.84,14.89c-0.21,1.11-1.28,2.1-1.91,2.45c-4.12,2.27-14.32,5.75-28.35,8.92" style="fill:none;stroke:#999;stroke-width:3"></path>
<path d="M883.97,34.81c1.95,0.28,3.83,0.15,5.77-0.11c7.72-1.04,21.63-3.11,29.88-4.06c1.98-0.23,4.37-0.4,6.15-0.1" style="fill:none;stroke:#999;stroke-width:3"></path>
<path d="M887.16,44.9c0.72,0.72,1.26,1.49,1.42,2.3c1.12,5.65,2.11,10.33,3.43,16.52c0.21,0.98,0.43,2,0.66,3.07" style="fill:none;stroke:#999;stroke-width:3"></path>
<path d="M888.9100000000001,45.8c9.66-1.45,22.22-3.28,30.49-4.35c3.47-0.45,5.45,1.69,5.09,3.84c-0.74,4.46-1.76,9.87-2.82,14.38c-0.22,0.94-0.43,1.79-0.61,2.51" style="fill:none;stroke:#999;stroke-width:3"></path>
<path d="M891.3,54.39c6.07-0.89,26.77-3.02,31.02-3.4" style="fill:none;stroke:#999;stroke-width:3"></path>
<path d="M893.3,64.09c8.7-1.46,17.33-2.59,27.27-3.21" style="fill:none;stroke:#999;stroke-width:3"></path>
<path d="M904.96,24.91c1,1,1.58,2.34,1.58,3.54c0,3.44,0.07,51.55,0.07,57.64" style="fill:none;stroke:#999;stroke-width:3"></path>
<path d="M891.57,76.63c1.55,0.37,3.1,0.2,4.32,0.06c8.11-0.94,14.86-2.19,20.62-3.53c1.88-0.44,3.62-0.53,4.74-0.4" style="fill:none;stroke:#999;stroke-width:3"></path>
<path d="M886.55,91.36c1.08,1.01,2.41,1.52,5.51,0.53C901.12,89,905.75,88,919.47,83.53" style="fill:none;stroke:#999;stroke-width:3"></path>

<path d="M1027.8400000000001,14.89c-0.21,1.11-1.28,2.1-1.91,2.45c-4.12,2.27-14.32,5.75-28.35,8.92" style="fill:none;stroke:#999;stroke-width:3"></path>
<path d="M992.97,34.81c1.95,0.28,3.83,0.15,5.77-0.11c7.72-1.04,21.63-3.11,29.88-4.06c1.98-0.23,4.37-0.4,6.15-0.1" style="fill:none;stroke:#999;stroke-width:3"></path>
<path d="M996.16,44.9c0.72,0.72,1.26,1.49,1.42,2.3c1.12,5.65,2.11,10.33,3.43,16.52c0.21,0.98,0.43,2,0.66,3.07" style="fill:none;stroke:#999;stroke-width:3"></path>
<path d="M997.9100000000001,45.8c9.66-1.45,22.22-3.28,30.49-4.35c3.47-0.45,5.45,1.69,5.09,3.84c-0.74,4.46-1.76,9.87-2.82,14.38c-0.22,0.94-0.43,1.79-0.61,2.51" style="fill:none;stroke:#999;stroke-width:3"></path>
<path d="M1000.3,54.39c6.07-0.89,26.77-3.02,31.02-3.4" style="fill:none;stroke:#999;stroke-width:3"></path>
<path d="M1002.3,64.09c8.7-1.46,17.33-2.59,27.27-3.21" style="fill:none;stroke:#999;stroke-width:3"></path>
<path d="M1013.96,24.91c1,1,1.58,2.34,1.58,3.54c0,3.44,0.07,51.55,0.07,57.64" style="fill:none;stroke:#999;stroke-width:3"></path>
<path d="M1000.57,76.63c1.55,0.37,3.1,0.2,4.32,0.06c8.11-0.94,14.86-2.19,20.62-3.53c1.88-0.44,3.62-0.53,4.74-0.4" style="fill:none;stroke:#999;stroke-width:3"></path>
<path d="M995.55,91.36c1.08,1.01,2.41,1.52,5.51,0.53C1010.12,89,1014.75,88,1028.47,83.53" style="fill:none;stroke:#999;stroke-width:3"></path>
<path d="M1040.67,43.15c1.46,0.6,3.31,0.59,5.27,0.36c8.82-1.01,19.68-3.07,25.05-4.28c3.77-0.85,6.06,1.02,5.78,4.15C1075.38,59,1071.5,78.12,1064.67,90.85c-2.67,4.97-6.05,3.02-9.25-0.67" style="fill:none;stroke:#999;stroke-width:3"></path>

<path d="M1136.8400000000001,14.89c-0.21,1.11-1.28,2.1-1.91,2.45c-4.12,2.27-14.32,5.75-28.35,8.92" style="fill:none;stroke:#999;stroke-width:3"></path>
<path d="M1101.97,34.81c1.95,0.28,3.83,0.15,5.77-0.11c7.72-1.04,21.63-3.11,29.88-4.06c1.98-0.23,4.37-0.4,6.15-0.1" style="fill:none;stroke:#999;stroke-width:3"></path>
<path d="M1105.1599999999999,44.9c0.72,0.72,1.26,1.49,1.42,2.3c1.12,5.65,2.11,10.33,3.43,16.52c0.21,0.98,0.43,2,0.66,3.07" style="fill:none;stroke:#999;stroke-width:3"></path>
<path d="M1106.91,45.8c9.66-1.45,22.22-3.28,30.49-4.35c3.47-0.45,5.45,1.69,5.09,3.84c-0.74,4.46-1.76,9.87-2.82,14.38c-0.22,0.94-0.43,1.79-0.61,2.51" style="fill:none;stroke:#999;stroke-width:3"></path>
<path d="M1109.3,54.39c6.07-0.89,26.77-3.02,31.02-3.4" style="fill:none;stroke:#999;stroke-width:3"></path>
<path d="M1111.3,64.09c8.7-1.46,17.33-2.59,27.27-3.21" style="fill:none;stroke:#999;stroke-width:3"></path>
<path d="M1122.96,24.91c1,1,1.58,2.34,1.58,3.54c0,3.44,0.07,51.55,0.07,57.64" style="fill:none;stroke:#999;stroke-width:3"></path>
<path d="M1109.5700000000002,76.63c1.55,0.37,3.1,0.2,4.32,0.06c8.11-0.94,14.86-2.19,20.62-3.53c1.88-0.44,3.62-0.53,4.74-0.4" style="fill:none;stroke:#999;stroke-width:3"></path>
<path d="M1104.55,91.36c1.08,1.01,2.41,1.52,5.51,0.53C1119.12,89,1123.75,88,1137.47,83.53" style="fill:none;stroke:#999;stroke-width:3"></path>
<path d="M1149.67,43.15c1.46,0.6,3.31,0.59,5.27,0.36c8.82-1.01,19.68-3.07,25.05-4.28c3.77-0.85,6.06,1.02,5.78,4.15C1184.38,59,1180.5,78.12,1173.67,90.85c-2.67,4.97-6.05,3.02-9.25-0.67" style="fill:none;stroke:#999;stroke-width:3"></path>
<path d="M1166.39,18.43c1.22,1.22,1.48,2.58,1.37,5C1166.88,42.5,1160.38,75.5,1144.14,90.27" style="fill:none;stroke:#999;stroke-width:3"></path>

</svg>