<svg width="1199px" height="109px" viewBox="0 0 1199 109" xmlns="http://www.w3.org/2000/svg" xmlns:xlink="http://www.w3.org/1999/xlink" xml:space="preserve" version="1.1" baseProfile="full">
<line x1="1" y1="1" x2="1198" y2="1" style="stroke:#ddd;stroke-width:2"></line>
<line x1="1" y1="1" x2="1" y2="108" style="stroke:#ddd;stroke-width:2"></line>
<line x1="1" y1="108" x2="1198" y2="108" style="stroke:#ddd;stroke-width:2"></line>
<line x1="1198" y1="1" x2="1198" y2="108" style="stroke:#ddd;stroke-width:2"></line>
<line x1="109" y1="1" x2="109" y2="108" style="stroke:#ddd;stroke-width:2"></line>
<line x1="218" y1="1" x2="218" y2="108" style="stroke:#ddd;stroke-width:2"></line>
<line x1="327" y1="1" x2="327" y2="108" style="stroke:#ddd;stroke-width:2"></line>
<line x1="436" y1="1" x2="436" y2="108" style="stroke:#ddd;stroke-width:2"></line>
<line x1="545" y1="1" x2="545" y2="108" style="stroke:#ddd;stroke-width:2"></line>
<line x1="654" y1="1" x2="654" y2="108" style="stroke:#ddd;stroke-width:2"></line>
<line x1="763" y1="1" x2="763" y2="108" style="stroke:#ddd;stroke-width:2"></line>
<line x1="872" y1="1" x2="872" y2="108" style="stroke:#ddd;stroke-width:2"></line>
<line x1="981" y1="1" x2="981" y2="108" style="stroke:#ddd;stroke-width:2"></line>
<line x1="1090" y1="1" x2="1090" y2="108" style="stroke:#ddd;stroke-width:2"></line>
<line x1="1" y1="54" x2="1198" y2="54" style="stroke:#ddd;stroke-width:2;stroke-dasharray:3 3"></line>
<line x1="55" y1="1" x2="55" y2="108" style="stroke:#ddd;stroke-width:2;stroke-dasharray:3 3"></line>
<line x1="164" y1="1" x2="164" y2="108" style="stroke:#ddd;stroke-width:2;stroke-dasharray:3 3"></line>
<line x1="273" y1="1" x2="273" y2="108" style="stroke:#ddd;stroke-width:2;stroke-dasharray:3 3"></line>
<line x1="382" y1="1" x2="382" y2="108" style="stroke:#ddd;stroke-width:2;stroke-dasharray:3 3"></line>
<line x1="491" y1="1" x2="491" y2="108" style="stroke:#ddd;stroke-width:2;stroke-dasharray:3 3"></line>
<line x1="600" y1="1" x2="600" y2="108" style="stroke:#ddd;stroke-width:2;stroke-dasharray:3 3"></line>
<line x1="709" y1="1" x2="709" y2="108" style="stroke:#ddd;stroke-width:2;stroke-dasharray:3 3"></line>
<line x1="818" y1="1" x2="818" y2="108" style="stroke:#ddd;stroke-width:2;stroke-dasharray:3 3"></line>
<line x1="927" y1="1" x2="927" y2="108" style="stroke:#ddd;stroke-width:2;stroke-dasharray:3 3"></line>
<line x1="1036" y1="1" x2="1036" y2="108" style="stroke:#ddd;stroke-width:2;stroke-dasharray:3 3"></line>
<line x1="1145" y1="1" x2="1145" y2="108" style="stroke:#ddd;stroke-width:2;stroke-dasharray:3 3"></line>
<path d="M14.03,29.66c2.6,0.59,4.66,0.28,6.74-0.02c7.48-1.07,20.34-3.13,29.99-4.19c2.47-0.27,4.83-0.68,7.25,0.02" style="fill:none;stroke:#999;stroke-width:3"></path>

<path d="M123.03,29.66c2.6,0.59,4.66,0.28,6.74-0.02c7.48-1.07,20.34-3.13,29.99-4.19c2.47-0.27,4.83-0.68,7.25,0.02" style="fill:none;stroke:#999;stroke-width:3"></path>
<path d="M133.0,17c0.94,0.94,1.15,2.25,1.15,3.62S134.16,59.75,134.16,65" style="fill:none;stroke:#999;stroke-width:3"></path>

<path d="M232.03,29.66c2.6,0.59,4.66,0.28,6.74-0.02c7.48-1.07,20.34-3.13,29.99-4.19c2.47-0.27,4.83-0.68,7.25,0.02" style="fill:none;stroke:#999;stroke-width:3"></path>
<path d="M242.0,17c0.94,0.94,1.15,2.25,1.15,3.62S243.16,59.75,243.16,65" style="fill:none;stroke:#999;stroke-width:3"></path>
<path d="M263.31,13.78c0.83,0.83,0.94,1.97,0.94,3.47s0.09,39.38,0.09,44.96" style="fill:none;stroke:#999;stroke-width:3"></path>

<path d="M341.03,29.66c2.6,0.59,4.66,0.28,6.74-0.02c7.48-1.07,20.34-3.13,29.99-4.19c2.47-0.27,4.83-0.68,7.25,0.02" style="fill:none;stroke:#999;stroke-width:3"></path>
<path d="M351.0,17c0.94,0.94,1.15,2.25,1.15,3.62S352.15999999999997,59.75,352.15999999999997,65" style="fill:none;stroke:#999;stroke-width:3"></path>
<path d="M372.31,13.78c0.83,0.83,0.94,1.97,0.94,3.47s0.09,39.38,0.09,44.96" style="fill:none;stroke:#999;stroke-width:3"></path>
<path d="M353.19,40.37c2.5-0.4,17.13-2.13,18.89-2.13" style="fill:none;stroke:#999;stroke-width:3"></path>

<path d="M450.03,29.66c2.6,0.59,4.66,0.28,6.74-0.02c7.48-1.07,20.34-3.13,29.99-4.19c2.47-0.27,4.83-0.68,7.25,0.02" style="fill:none;stroke:#999;stroke-width:3"></path>
<path d="M460.0,17c0.94,0.94,1.15,2.25,1.15,3.62S461.15999999999997,59.75,461.15999999999997,65" style="fill:none;stroke:#999;stroke-width:3"></path>
<path d="M481.31,13.78c0.83,0.83,0.94,1.97,0.94,3.47s0.09,39.38,0.09,44.96" style="fill:none;stroke:#999;stroke-width:3"></path>
<path d="M462.19,40.37c2.5-0.4,17.13-2.13,18.89-2.13" style="fill:none;stroke:#999;stroke-width:3"></path>
<path d="M462.19,53.05c4.44-0.55,14.44-2.3,19-2.58" style="fill:none;stroke:#999;stroke-width:3"></path>

<path d="M559.03,29.66c2.6,0.59,4.66,0.28,6.74-0.02c7.48-1.07,20.34-3.13,29.99-4.19c2.47-0.27,4.83-0.68,7.25,0.02" style="fill:none;stroke:#999;stroke-width:3"></path>
<path d="M569.0,17c0.94,0.94,1.15,2.25,1.15,3.62S570.16,59.75,570.16,65" style="fill:none;stroke:#999;stroke-width:3"></path>
<path d="M590.31,13.78c0.83,0.83,0.94,1.97,0.94,3.47s0.09,39.38,0.09,44.96" style="fill:none;stroke:#999;stroke-width:3"></path>
<path d="M571.19,40.37c2.5-0.4,17.13-2.13,18.89-2.13" style="fill:none;stroke:#999;stroke-width:3"></path>
<path d="M571.19,53.05c4.44-0.55,14.44-2.3,19-2.58" style="fill:none;stroke:#999;stroke-width:3"></path>
<path d="M555.0,67.05c2.29,0.95,5.56,0.46,7.9,0.09c10.34-1.63,24.9-3.56,34.84-4.56c2.71-0.27,5.33-0.62,8.01,0.05" style="fill:none;stroke:#999;stroke-width:3"></path>

<path d="M668.03,29.66c2.6,0.59,4.66,0.28,6.74-0.02c7.48-1.07,20.34-3.13,29.99-4.19c2.47-0.27,4.83-0.68,7.25,0.02" style="fill:none;stroke:#999;stroke-width:3"></path>
<path d="M678.0,17c0.94,0.94,1.15,2.25,1.15,3.62S679.16,59.75,679.16,65" style="fill:none;stroke:#999;stroke-width:3"></path>
<path d="M699.31,13.78c0.83,0.83,0.94,1.97,0.94,3.47s0.09,39.38,0.09,44.96" style="fill:none;stroke:#999;stroke-width:3"></path>
<path d="M680.19,40.37c2.5-0.4,17.13-2.13,18.89-2.13" style="fill:none;stroke:#999;stroke-width:3"></path>
<path d="M680.19,53.05c4.44-0.55,14.44-2.3,19-2.58" style="fill:none;stroke:#999;stroke-width:3"></path>
<path d="M664.0,67.05c2.29,0.95,5.56,0.46,7.9,0.09c10.34-1.63,24.9-3.56,34.84-4.56c2.71-0.27,5.33-0.62,8.01,0.05" style="fill:none;stroke:#999;stroke-width:3"></path>
<path d="M687.0,68.25c0.26,0.29,0.41,1.29,0.26,1.86c-1.38,5.02-4,9.64-8.5,14.64" style="fill:none;stroke:#999;stroke-width:3"></path>

<path d="M777.03,29.66c2.6,0.59,4.66,0.28,6.74-0.02c7.48-1.07,20.34-3.13,29.99-4.19c2.47-0.27,4.83-0.68,7.25,0.02" style="fill:none;stroke:#999;stroke-width:3"></path>
<path d="M787.0,17c0.94,0.94,1.15,2.25,1.15,3.62S788.16,59.75,788.16,65" style="fill:none;stroke:#999;stroke-width:3"></path>
<path d="M808.31,13.78c0.83,0.83,0.94,1.97,0.94,3.47s0.09,39.38,0.09,44.96" style="fill:none;stroke:#999;stroke-width:3"></path>
<path d="M789.19,40.37c2.5-0.4,17.13-2.13,18.89-2.13" style="fill:none;stroke:#999;stroke-width:3"></path>
<path d="M789.19,53.05c4.44-0.55,14.44-2.3,19-2.58" style="fill:none;stroke:#999;stroke-width:3"></path>
<path d="M773.0,67.05c2.29,0.95,5.56,0.46,7.9,0.09c10.34-1.63,24.9-3.56,34.84-4.56c2.71-0.27,5.33-0.62,8.01,0.05" style="fill:none;stroke:#999;stroke-width:3"></path>
<path d="M796.0,68.25c0.26,0.29,0.41,1.29,0.26,1.86c-1.38,5.02-4,9.64-8.5,14.64" style="fill:none;stroke:#999;stroke-width:3"></path>
<path d="M804.21,66.53c0.88,0.88,1.05,1.97,1.05,3.51c0,0.95-0.13,2.28-0.13,5.06c0,6.02,1.52,6.64,6.63,6.64s5.52-0.79,6.24-1.62" style="fill:none;stroke:#999;stroke-width:3"></path>

<path d="M886.03,29.66c2.6,0.59,4.66,0.28,6.74-0.02c7.48-1.07,20.34-3.13,29.99-4.19c2.47-0.27,4.83-0.68,7.25,0.02" style="fill:none;stroke:#999;stroke-width:3"></path>
<path d="M896.0,17c0.94,0.94,1.15,2.25,1.15,3.62S897.16,59.75,897.16,65" style="fill:none;stroke:#999;stroke-width:3"></path>
<path d="M917.31,13.78c0.83,0.83,0.94,1.97,0.94,3.47s0.09,39.38,0.09,44.96" style="fill:none;stroke:#999;stroke-width:3"></path>
<path d="M898.19,40.37c2.5-0.4,17.13-2.13,18.89-2.13" style="fill:none;stroke:#999;stroke-width:3"></path>
<path d="M898.19,53.05c4.44-0.55,14.44-2.3,19-2.58" style="fill:none;stroke:#999;stroke-width:3"></path>
<path d="M882.0,67.05c2.29,0.95,5.56,0.46,7.9,0.09c10.34-1.63,24.9-3.56,34.84-4.56c2.71-0.27,5.33-0.62,8.01,0.05" style="fill:none;stroke:#999;stroke-width:3"></path>
<path d="M905.0,68.25c0.26,0.29,0.41,1.29,0.26,1.86c-1.38,5.02-4,9.64-8.5,14.64" style="fill:none;stroke:#999;stroke-width:3"></path>
<path d="M913.21,66.53c0.88,0.88,1.05,1.97,1.05,3.51c0,0.95-0.13,2.28-0.13,5.06c0,6.02,1.52,6.64,6.63,6.64s5.52-0.79,6.24-1.62" style="fill:none;stroke:#999;stroke-width:3"></path>
<path d="M890.31,69.14c1.15,1.15,1.26,2.24,1.26,4.18c0,2.8-0.08,4.06-0.08,11.18S892.88,93,909.35,93c10.53,0,14.78-0.76,16.7-1.77" style="fill:none;stroke:#999;stroke-width:3"></path>

<path d="M995.03,29.66c2.6,0.59,4.66,0.28,6.74-0.02c7.48-1.07,20.34-3.13,29.99-4.19c2.47-0.27,4.83-0.68,7.25,0.02" style="fill:none;stroke:#999;stroke-width:3"></path>
<path d="M1005.0,17c0.94,0.94,1.15,2.25,1.15,3.62S1006.16,59.75,1006.16,65" style="fill:none;stroke:#999;stroke-width:3"></path>
<path d="M1026.31,13.78c0.83,0.83,0.94,1.97,0.94,3.47s0.09,39.38,0.09,44.96" style="fill:none;stroke:#999;stroke-width:3"></path>
<path d="M1007.19,40.37c2.5-0.4,17.13-2.13,18.89-2.13" style="fill:none;stroke:#999;stroke-width:3"></path>
<path d="M1007.19,53.05c4.44-0.55,14.44-2.3,19-2.58" style="fill:none;stroke:#999;stroke-width:3"></path>
<path d="M991.0,67.05c2.29,0.95,5.56,0.46,7.9,0.09c10.34-1.63,24.9-3.56,34.84-4.56c2.71-0.27,5.33-0.62,8.01,0.05" style="fill:none;stroke:#999;stroke-width:3"></path>
<path d="M1014.0,68.25c0.26,0.29,0.41,1.29,0.26,1.86c-1.38,5.02-4,9.64-8.5,14.64" style="fill:none;stroke:#999;stroke-width:3"></path>
<path d="M1022.21,66.53c0.88,0.88,1.05,1.97,1.05,3.51c0,0.95-0.13,2.28-0.13,5.06c0,6.02,1.52,6.64,6.63,6.64s5.52-0.79,6.24-1.62" style="fill:none;stroke:#999;stroke-width:3"></path>
<path d="M999.31,69.14c1.15,1.15,1.26,2.24,1.26,4.18c0,2.8-0.08,4.06-0.08,11.18S1001.88,93,1018.35,93c10.53,0,14.78-0.76,16.7-1.77" style="fill:none;stroke:#999;stroke-width:3"></path>
<path d="M1040.22,43.89c2.03,0.61,4.92,0.7,6.51,0.45c10.41-1.62,21.59-4.1,25.84-4.84c3.55-0.62,4.53,0.58,4.41,3.81c-0.44,11.87-4.24,34-8.79,46.75c-3.06,8.57-6.56,5.19-9.64,1.77" style="fill:none;stroke:#999;stroke-width:3"></path>

<path d="M1104.03,29.66c2.6,0.59,4.66,0.28,6.74-0.02c7.48-1.07,20.34-3.13,29.99-4.19c2.47-0.27,4.83-0.68,7.25,0.02" style="fill:none;stroke:#999;stroke-width:3"></path>
<path d="M1114.0,17c0.94,0.94,1.15,2.25,1.15,3.62S1115.1599999999999,59.75,1115.1599999999999,65" style="fill:none;stroke:#999;stroke-width:3"></path>
<path d="M1135.31,13.78c0.83,0.83,0.94,1.97,0.94,3.47s0.09,39.38,0.09,44.96" style="fill:none;stroke:#999;stroke-width:3"></path>
<path d="M1116.19,40.37c2.5-0.4,17.13-2.13,18.89-2.13" style="fill:none;stroke:#999;stroke-width:3"></path>
<path d="M1116.19,53.05c4.44-0.55,14.44-2.3,19-2.58" style="fill:none;stroke:#999;stroke-width:3"></path>
<path d="M1100.0,67.05c2.29,0.95,5.56,0.46,7.9,0.09c10.34-1.63,24.9-3.56,34.84-4.56c2.71-0.27,5.33-0.62,8.01,0.05" style="fill:none;stroke:#999;stroke-width:3"></path>
<path d="M1123.0,68.25c0.26,0.29,0.41,1.29,0.26,1.86c-1.38,5.02-4,9.64-8.5,14.64" style="fill:none;stroke:#999;stroke-width:3"></path>
<path d="M1131.21,66.53c0.88,0.88,1.05,1.97,1.05,3.51c0,0.95-0.13,2.28-0.13,5.06c0,6.02,1.52,6.64,6.63,6.64s5.52-0.79,6.24-1.62" style="fill:none;stroke:#999;stroke-width:3"></path>
<path d="M1108.31,69.14c1.15,1.15,1.26,2.24,1.26,4.18c0,2.8-0.08,4.06-0.08,11.18S1110.88,93,1127.35,93c10.53,0,14.78-0.76,16.7-1.77" style="fill:none;stroke:#999;stroke-width:3"></path>
<path d="M1149.22,43.89c2.03,0.61,4.92,0.7,6.51,0.45c10.41-1.62,21.59-4.1,25.84-4.84c3.55-0.62,4.53,0.58,4.41,3.81c-0.44,11.87-4.24,34-8.79,46.75c-3.06,8.57-6.56,5.19-9.64,1.77" style="fill:none;stroke:#999;stroke-width:3"></path>
<path d="M1167.42,17.68c0.83,1.07,0.98,2.58,0.9,4.4c-0.95,20.8-3.95,54.3-19.46,73.33" style="fill:none;stroke:#999;stroke-width:3"></path>

</svg>