<svg width="436px" height="109px" viewBox="0 0 436 109" xmlns="http://www.w3.org/2000/svg" xmlns:xlink="http://www.w3.org/1999/xlink" xml:space="preserve" version="1.1" baseProfile="full">
<line x1="1" y1="1" x2="435" y2="1" style="stroke:#ddd;stroke-width:2"></line>
<line x1="1" y1="1" x2="1" y2="108" style="stroke:#ddd;stroke-width:2"></line>
<line x1="1" y1="108" x2="435" y2="108" style="stroke:#ddd;stroke-width:2"></line>
<line x1="435" y1="1" x2="435" y2="108" style="stroke:#ddd;stroke-width:2"></line>
<line x1="109" y1="1" x2="109" y2="108" style="stroke:#ddd;stroke-width:2"></line>
<line x1="218" y1="1" x2="218" y2="108" style="stroke:#ddd;stroke-width:2"></line>
<line x1="327" y1="1" x2="327" y2="108" style="stroke:#ddd;stroke-width:2"></line>
<line x1="1" y1="54" x2="435" y2="54" style="stroke:#ddd;stroke-width:2;stroke-dasharray:3 3"></line>
<line x1="55" y1="1" x2="55" y2="108" style="stroke:#ddd;stroke-width:2;stroke-dasharray:3 3"></line>
<line x1="164" y1="1" x2="164" y2="108" style="stroke:#ddd;stroke-width:2;stroke-dasharray:3 3"></line>
<line x1="273" y1="1" x2="273" y2="108" style="stroke:#ddd;stroke-width:2;stroke-dasharray:3 3"></line>
<line x1="382" y1="1" x2="382" y2="108" style="stroke:#ddd;stroke-width:2;stroke-dasharray:3 3"></line>
<path d="M44.74,13.25c0.08,0.87-0.09,1.83-0.66,2.99C40.5,23.5,31.75,38.75,16.5,49.63" style="fill:none;stroke:#999;stroke-width:3"></path>

<path d="M153.74,13.25c0.08,0.87-0.09,1.83-0.66,2.99C149.5,23.5,140.75,38.75,125.5,49.63" style="fill:none;stroke:#999;stroke-width:3"></path>
<path d="M148.0,31.25c3.38,0.62,6.05,0.4,9.02-0.02c7.72-1.08,23.89-3.58,30.1-4.3c5.67-0.66,7.32,1.18,6.66,6.57c-0.59,4.77-7.93,37.41-20.08,53.65c-5.46,7.29-7.19,7.63-11.68,2.1" style="fill:none;stroke:#999;stroke-width:3"></path>

<path d="M262.74,13.25c0.08,0.87-0.09,1.83-0.66,2.99C258.5,23.5,249.75,38.75,234.5,49.63" style="fill:none;stroke:#999;stroke-width:3"></path>
<path d="M257.0,31.25c3.38,0.62,6.05,0.4,9.02-0.02c7.72-1.08,23.89-3.58,30.1-4.3c5.67-0.66,7.32,1.18,6.66,6.57c-0.59,4.77-7.93,37.41-20.08,53.65c-5.46,7.29-7.19,7.63-11.68,2.1" style="fill:none;stroke:#999;stroke-width:3"></path>
<path d="M273.28,33.68c0.6,1.29,0.6,3.02-0.2,5.32C265.96,59.51,255.5,74,236.25,85.75" style="fill:none;stroke:#999;stroke-width:3"></path>

<path d="M371.74,13.25c0.08,0.87-0.09,1.83-0.66,2.99C367.5,23.5,358.75,38.75,343.5,49.63" style="fill:none;stroke:#999;stroke-width:3"></path>
<path d="M366.0,31.25c3.38,0.62,6.05,0.4,9.02-0.02c7.72-1.08,23.89-3.58,30.1-4.3c5.67-0.66,7.32,1.18,6.66,6.57c-0.59,4.77-7.93,37.41-20.08,53.65c-5.46,7.29-7.19,7.63-11.68,2.1" style="fill:none;stroke:#999;stroke-width:3"></path>
<path d="M382.28,33.68c0.6,1.29,0.6,3.02-0.2,5.32C374.96,59.51,364.5,74,345.25,85.75" style="fill:none;stroke:#999;stroke-width:3"></path>
<path d="M358.25,45.25c4.39,0.21,30.25,24.5,48.62,38.16c4.55,3.38,9.11,6.19,14.38,8.34" style="fill:none;stroke:#999;stroke-width:3"></path>

</svg>