<svg width="436px" height="109px" viewBox="0 0 436 109" xmlns="http://www.w3.org/2000/svg" xmlns:xlink="http://www.w3.org/1999/xlink" xml:space="preserve" version="1.1" baseProfile="full">
<line x1="1" y1="1" x2="435" y2="1" style="stroke:#ddd;stroke-width:2"></line>
<line x1="1" y1="1" x2="1" y2="108" style="stroke:#ddd;stroke-width:2"></line>
<line x1="1" y1="108" x2="435" y2="108" style="stroke:#ddd;stroke-width:2"></line>
<line x1="435" y1="1" x2="435" y2="108" style="stroke:#ddd;stroke-width:2"></line>
<line x1="109" y1="1" x2="109" y2="108" style="stroke:#ddd;stroke-width:2"></line>
<line x1="218" y1="1" x2="218" y2="108" style="stroke:#ddd;stroke-width:2"></line>
<line x1="327" y1="1" x2="327" y2="108" style="stroke:#ddd;stroke-width:2"></line>
<line x1="1" y1="54" x2="435" y2="54" style="stroke:#ddd;stroke-width:2;stroke-dasharray:3 3"></line>
<line x1="55" y1="1" x2="55" y2="108" style="stroke:#ddd;stroke-width:2;stroke-dasharray:3 3"></line>
<line x1="164" y1="1" x2="164" y2="108" style="stroke:#ddd;stroke-width:2;stroke-dasharray:3 3"></line>
<line x1="273" y1="1" x2="273" y2="108" style="stroke:#ddd;stroke-width:2;stroke-dasharray:3 3"></line>
<line x1="382" y1="1" x2="382" y2="108" style="stroke:#ddd;stroke-width:2;stroke-dasharray:3 3"></line>
<path d="M37.25,20.25c0.24,1.93-0.07,4.46-0.83,6.12c-4.89,10.56-11.58,20.95-22.79,33.79" style="fill:none;stroke:#999;stroke-width:3"></path>

<path d="M146.25,20.25c0.24,1.93-0.07,4.46-0.83,6.12c-4.89,10.56-11.58,20.95-22.79,33.79" style="fill:none;stroke:#999;stroke-width:3"></path>
<path d="M138.03,44.25c0.97,1.38,1.26,2.98,1.26,4.25c0,12.12,0.1,28.67-0.17,40C139.05,91.52,139.0,94.11,139.0,96" style="fill:none;stroke:#999;stroke-width:3"></path>

<path d="M255.25,20.25c0.24,1.93-0.07,4.46-0.83,6.12c-4.89,10.56-11.58,20.95-22.79,33.79" style="fill:none;stroke:#999;stroke-width:3"></path>
<path d="M247.03,44.25c0.97,1.38,1.26,2.98,1.26,4.25c0,12.12,0.1,28.67-0.17,40C248.05,91.52,248.0,94.11,248.0,96" style="fill:none;stroke:#999;stroke-width:3"></path>
<path d="M307.25,29.25c0,1.66-0.79,2.93-2.25,4.5c-4.62,4.98-15.38,12.5-25.5,15.98" style="fill:none;stroke:#999;stroke-width:3"></path>

<path d="M364.25,20.25c0.24,1.93-0.07,4.46-0.83,6.12c-4.89,10.56-11.58,20.95-22.79,33.79" style="fill:none;stroke:#999;stroke-width:3"></path>
<path d="M356.03,44.25c0.97,1.38,1.26,2.98,1.26,4.25c0,12.12,0.1,28.67-0.17,40C357.05,91.52,357.0,94.11,357.0,96" style="fill:none;stroke:#999;stroke-width:3"></path>
<path d="M416.25,29.25c0,1.66-0.79,2.93-2.25,4.5c-4.62,4.98-15.38,12.5-25.5,15.98" style="fill:none;stroke:#999;stroke-width:3"></path>
<path d="M383.75,15.25c1.25,1,1.75,2.65,1.75,4.21c0,3.66,0.07,36.46,0.07,54.49c0,19.3,1.18,19.87,18.93,19.87c16.25,0,17.75-1.7,17.75-11.57" style="fill:none;stroke:#999;stroke-width:3"></path>

</svg>