<svg width="1090px" height="109px" viewBox="0 0 1090 109" xmlns="http://www.w3.org/2000/svg" xmlns:xlink="http://www.w3.org/1999/xlink" xml:space="preserve" version="1.1" baseProfile="full">
<line x1="1" y1="1" x2="1089" y2="1" style="stroke:#ddd;stroke-width:2"></line>
<line x1="1" y1="1" x2="1" y2="108" style="stroke:#ddd;stroke-width:2"></line>
<line x1="1" y1="108" x2="1089" y2="108" style="stroke:#ddd;stroke-width:2"></line>
<line x1="1089" y1="1" x2="1089" y2="108" style="stroke:#ddd;stroke-width:2"></line>
<line x1="109" y1="1" x2="109" y2="108" style="stroke:#ddd;stroke-width:2"></line>
<line x1="218" y1="1" x2="218" y2="108" style="stroke:#ddd;stroke-width:2"></line>
<line x1="327" y1="1" x2="327" y2="108" style="stroke:#ddd;stroke-width:2"></line>
<line x1="436" y1="1" x2="436" y2="108" style="stroke:#ddd;stroke-width:2"></line>
<line x1="545" y1="1" x2="545" y2="108" style="stroke:#ddd;stroke-width:2"></line>
<line x1="654" y1="1" x2="654" y2="108" style="stroke:#ddd;stroke-width:2"></line>
<line x1="763" y1="1" x2="763" y2="108" style="stroke:#ddd;stroke-width:2"></line>
<line x1="872" y1="1" x2="872" y2="108" style="stroke:#ddd;stroke-width:2"></line>
<line x1="981" y1="1" x2="981" y2="108" style="stroke:#ddd;stroke-width:2"></line>
<line x1="1" y1="54" x2="1089" y2="54" style="stroke:#ddd;stroke-width:2;stroke-dasharray:3 3"></line>
<line x1="55" y1="1" x2="55" y2="108" style="stroke:#ddd;stroke-width:2;stroke-dasharray:3 3"></line>
<line x1="164" y1="1" x2="164" y2="108" style="stroke:#ddd;stroke-width:2;stroke-dasharray:3 3"></line>
<line x1="273" y1="1" x2="273" y2="108" style="stroke:#ddd;stroke-width:2;stroke-dasharray:3 3"></line>
<line x1="382" y1="1" x2="382" y2="108" style="stroke:#ddd;stroke-width:2;stroke-dasharray:3 3"></line>
<line x1="491" y1="1" x2="491" y2="108" style="stroke:#ddd;stroke-width:2;stroke-dasharray:3 3"></line>
<line x1="600" y1="1" x2="600" y2="108" style="stroke:#ddd;stroke-width:2;stroke-dasharray:3 3"></line>
<line x1="709" y1="1" x2="709" y2="108" style="stroke:#ddd;stroke-width:2;stroke-dasharray:3 3"></line>
<line x1="818" y1="1" x2="818" y2="108" style="stroke:#ddd;stroke-width:2;stroke-dasharray:3 3"></line>
<line x1="927" y1="1" x2="927" y2="108" style="stroke:#ddd;stroke-width:2;stroke-dasharray:3 3"></line>
<line x1="1036" y1="1" x2="1036" y2="108" style="stroke:#ddd;stroke-width:2;stroke-dasharray:3 3"></line>
<path d="M20.63,20.48c3.4,1.21,7.11,0.46,10.63,0.24c14.54-0.91,34.6-2.38,50.5-3.64c3.08-0.24,5.84-0.4,8.87,0.25" style="fill:none;stroke:#999;stroke-width:3"></path>

<path d="M129.63,20.48c3.4,1.21,7.11,0.46,10.63,0.24c14.54-0.91,34.6-2.38,50.5-3.64c3.08-0.24,5.84-0.4,8.87,0.25" style="fill:none;stroke:#999;stroke-width:3"></path>
<path d="M143.41,38.73c2.09,0.64,4.51,0.55,6.48,0.34c9.58-1.03,27.98-3.25,37.73-3.73c1.95-0.1,3.92-0.2,5.82,0.34" style="fill:none;stroke:#999;stroke-width:3"></path>

<path d="M238.63,20.48c3.4,1.21,7.11,0.46,10.63,0.24c14.54-0.91,34.6-2.38,50.5-3.64c3.08-0.24,5.84-0.4,8.87,0.25" style="fill:none;stroke:#999;stroke-width:3"></path>
<path d="M252.41,38.73c2.09,0.64,4.51,0.55,6.48,0.34c9.58-1.03,27.98-3.25,37.73-3.73c1.95-0.1,3.92-0.2,5.82,0.34" style="fill:none;stroke:#999;stroke-width:3"></path>
<path d="M264.83,27.16c0.88,0.88,1.05,1.59,1.14,2.83c0.61,8.5,1.04,11.25,1.45,16.24" style="fill:none;stroke:#999;stroke-width:3"></path>

<path d="M347.63,20.48c3.4,1.21,7.11,0.46,10.63,0.24c14.54-0.91,34.6-2.38,50.5-3.64c3.08-0.24,5.84-0.4,8.87,0.25" style="fill:none;stroke:#999;stroke-width:3"></path>
<path d="M361.40999999999997,38.73c2.09,0.64,4.51,0.55,6.48,0.34c9.58-1.03,27.98-3.25,37.73-3.73c1.95-0.1,3.92-0.2,5.82,0.34" style="fill:none;stroke:#999;stroke-width:3"></path>
<path d="M373.83,27.16c0.88,0.88,1.05,1.59,1.14,2.83c0.61,8.5,1.04,11.25,1.45,16.24" style="fill:none;stroke:#999;stroke-width:3"></path>
<path d="M396.35,25.77c0.27,0.74,0.4,1.62,0.16,2.76c-1.45,6.7-2.63,10.97-4.19,16.36" style="fill:none;stroke:#999;stroke-width:3"></path>

<path d="M456.63,20.48c3.4,1.21,7.11,0.46,10.63,0.24c14.54-0.91,34.6-2.38,50.5-3.64c3.08-0.24,5.84-0.4,8.87,0.25" style="fill:none;stroke:#999;stroke-width:3"></path>
<path d="M470.40999999999997,38.73c2.09,0.64,4.51,0.55,6.48,0.34c9.58-1.03,27.98-3.25,37.73-3.73c1.95-0.1,3.92-0.2,5.82,0.34" style="fill:none;stroke:#999;stroke-width:3"></path>
<path d="M482.83,27.16c0.88,0.88,1.05,1.59,1.14,2.83c0.61,8.5,1.04,11.25,1.45,16.24" style="fill:none;stroke:#999;stroke-width:3"></path>
<path d="M505.35,25.77c0.27,0.74,0.4,1.62,0.16,2.76c-1.45,6.7-2.63,10.97-4.19,16.36" style="fill:none;stroke:#999;stroke-width:3"></path>
<path d="M493.65999999999997,46.2c0.22,0.92,0.03,1.71-0.3,2.47C490.25,55.75,485.38,63,475.7,70.77" style="fill:none;stroke:#999;stroke-width:3"></path>

<path d="M565.63,20.48c3.4,1.21,7.11,0.46,10.63,0.24c14.54-0.91,34.6-2.38,50.5-3.64c3.08-0.24,5.84-0.4,8.87,0.25" style="fill:none;stroke:#999;stroke-width:3"></path>
<path d="M579.41,38.73c2.09,0.64,4.51,0.55,6.48,0.34c9.58-1.03,27.98-3.25,37.73-3.73c1.95-0.1,3.92-0.2,5.82,0.34" style="fill:none;stroke:#999;stroke-width:3"></path>
<path d="M591.8299999999999,27.16c0.88,0.88,1.05,1.59,1.14,2.83c0.61,8.5,1.04,11.25,1.45,16.24" style="fill:none;stroke:#999;stroke-width:3"></path>
<path d="M614.35,25.77c0.27,0.74,0.4,1.62,0.16,2.76c-1.45,6.7-2.63,10.97-4.19,16.36" style="fill:none;stroke:#999;stroke-width:3"></path>
<path d="M602.66,46.2c0.22,0.92,0.03,1.71-0.3,2.47C599.25,55.75,594.38,63,584.7,70.77" style="fill:none;stroke:#999;stroke-width:3"></path>
<path d="M576.82,56.05c2.19,0.84,4.46,0.43,6.7,0.17c12.33-1.41,30.37-3.43,39.74-3.92c2.34-0.12,4.61-0.15,6.91,0.4" style="fill:none;stroke:#999;stroke-width:3"></path>

<path d="M674.63,20.48c3.4,1.21,7.11,0.46,10.63,0.24c14.54-0.91,34.6-2.38,50.5-3.64c3.08-0.24,5.84-0.4,8.87,0.25" style="fill:none;stroke:#999;stroke-width:3"></path>
<path d="M688.41,38.73c2.09,0.64,4.51,0.55,6.48,0.34c9.58-1.03,27.98-3.25,37.73-3.73c1.95-0.1,3.92-0.2,5.82,0.34" style="fill:none;stroke:#999;stroke-width:3"></path>
<path d="M700.8299999999999,27.16c0.88,0.88,1.05,1.59,1.14,2.83c0.61,8.5,1.04,11.25,1.45,16.24" style="fill:none;stroke:#999;stroke-width:3"></path>
<path d="M723.35,25.77c0.27,0.74,0.4,1.62,0.16,2.76c-1.45,6.7-2.63,10.97-4.19,16.36" style="fill:none;stroke:#999;stroke-width:3"></path>
<path d="M711.66,46.2c0.22,0.92,0.03,1.71-0.3,2.47C708.25,55.75,703.38,63,693.7,70.77" style="fill:none;stroke:#999;stroke-width:3"></path>
<path d="M685.82,56.05c2.19,0.84,4.46,0.43,6.7,0.17c12.33-1.41,30.37-3.43,39.74-3.92c2.34-0.12,4.61-0.15,6.91,0.4" style="fill:none;stroke:#999;stroke-width:3"></path>
<path d="M702.75,66.47c0.54,0.73,0.85,1.54,0.93,2.42c0.46,2.4,1.21,5.93,1.54,8.84c0.18,1.56,0.29,2.79,0.29,3.27" style="fill:none;stroke:#999;stroke-width:3"></path>

<path d="M783.63,20.48c3.4,1.21,7.11,0.46,10.63,0.24c14.54-0.91,34.6-2.38,50.5-3.64c3.08-0.24,5.84-0.4,8.87,0.25" style="fill:none;stroke:#999;stroke-width:3"></path>
<path d="M797.41,38.73c2.09,0.64,4.51,0.55,6.48,0.34c9.58-1.03,27.98-3.25,37.73-3.73c1.95-0.1,3.92-0.2,5.82,0.34" style="fill:none;stroke:#999;stroke-width:3"></path>
<path d="M809.8299999999999,27.16c0.88,0.88,1.05,1.59,1.14,2.83c0.61,8.5,1.04,11.25,1.45,16.24" style="fill:none;stroke:#999;stroke-width:3"></path>
<path d="M832.35,25.77c0.27,0.74,0.4,1.62,0.16,2.76c-1.45,6.7-2.63,10.97-4.19,16.36" style="fill:none;stroke:#999;stroke-width:3"></path>
<path d="M820.66,46.2c0.22,0.92,0.03,1.71-0.3,2.47C817.25,55.75,812.38,63,802.7,70.77" style="fill:none;stroke:#999;stroke-width:3"></path>
<path d="M794.82,56.05c2.19,0.84,4.46,0.43,6.7,0.17c12.33-1.41,30.37-3.43,39.74-3.92c2.34-0.12,4.61-0.15,6.91,0.4" style="fill:none;stroke:#999;stroke-width:3"></path>
<path d="M811.75,66.47c0.54,0.73,0.85,1.54,0.93,2.42c0.46,2.4,1.21,5.93,1.54,8.84c0.18,1.56,0.29,2.79,0.29,3.27" style="fill:none;stroke:#999;stroke-width:3"></path>
<path d="M813.18,67.4c6.2-0.9,19.9-2.68,23.96-3.15c2.28-0.27,3.71,0.49,2.88,2.83c-0.89,2.49-1.72,5.52-2.42,8.5" style="fill:none;stroke:#999;stroke-width:3"></path>

<path d="M892.63,20.48c3.4,1.21,7.11,0.46,10.63,0.24c14.54-0.91,34.6-2.38,50.5-3.64c3.08-0.24,5.84-0.4,8.87,0.25" style="fill:none;stroke:#999;stroke-width:3"></path>
<path d="M906.41,38.73c2.09,0.64,4.51,0.55,6.48,0.34c9.58-1.03,27.98-3.25,37.73-3.73c1.95-0.1,3.92-0.2,5.82,0.34" style="fill:none;stroke:#999;stroke-width:3"></path>
<path d="M918.8299999999999,27.16c0.88,0.88,1.05,1.59,1.14,2.83c0.61,8.5,1.04,11.25,1.45,16.24" style="fill:none;stroke:#999;stroke-width:3"></path>
<path d="M941.35,25.77c0.27,0.74,0.4,1.62,0.16,2.76c-1.45,6.7-2.63,10.97-4.19,16.36" style="fill:none;stroke:#999;stroke-width:3"></path>
<path d="M929.66,46.2c0.22,0.92,0.03,1.71-0.3,2.47C926.25,55.75,921.38,63,911.7,70.77" style="fill:none;stroke:#999;stroke-width:3"></path>
<path d="M903.82,56.05c2.19,0.84,4.46,0.43,6.7,0.17c12.33-1.41,30.37-3.43,39.74-3.92c2.34-0.12,4.61-0.15,6.91,0.4" style="fill:none;stroke:#999;stroke-width:3"></path>
<path d="M920.75,66.47c0.54,0.73,0.85,1.54,0.93,2.42c0.46,2.4,1.21,5.93,1.54,8.84c0.18,1.56,0.29,2.79,0.29,3.27" style="fill:none;stroke:#999;stroke-width:3"></path>
<path d="M922.18,67.4c6.2-0.9,19.9-2.68,23.96-3.15c2.28-0.27,3.71,0.49,2.88,2.83c-0.89,2.49-1.72,5.52-2.42,8.5" style="fill:none;stroke:#999;stroke-width:3"></path>
<path d="M924.69,78.69c4.93-0.57,12.87-1.32,19.31-1.71c1.65-0.1,3.09-0.16,4.15-0.16" style="fill:none;stroke:#999;stroke-width:3"></path>

<path d="M1001.63,20.48c3.4,1.21,7.11,0.46,10.63,0.24c14.54-0.91,34.6-2.38,50.5-3.64c3.08-0.24,5.84-0.4,8.87,0.25" style="fill:none;stroke:#999;stroke-width:3"></path>
<path d="M1015.41,38.73c2.09,0.64,4.51,0.55,6.48,0.34c9.58-1.03,27.98-3.25,37.73-3.73c1.95-0.1,3.92-0.2,5.82,0.34" style="fill:none;stroke:#999;stroke-width:3"></path>
<path d="M1027.83,27.16c0.88,0.88,1.05,1.59,1.14,2.83c0.61,8.5,1.04,11.25,1.45,16.24" style="fill:none;stroke:#999;stroke-width:3"></path>
<path d="M1050.35,25.77c0.27,0.74,0.4,1.62,0.16,2.76c-1.45,6.7-2.63,10.97-4.19,16.36" style="fill:none;stroke:#999;stroke-width:3"></path>
<path d="M1038.6599999999999,46.2c0.22,0.92,0.03,1.71-0.3,2.47C1035.25,55.75,1030.38,63,1020.7,70.77" style="fill:none;stroke:#999;stroke-width:3"></path>
<path d="M1012.82,56.05c2.19,0.84,4.46,0.43,6.7,0.17c12.33-1.41,30.37-3.43,39.74-3.92c2.34-0.12,4.61-0.15,6.91,0.4" style="fill:none;stroke:#999;stroke-width:3"></path>
<path d="M1029.75,66.47c0.54,0.73,0.85,1.54,0.93,2.42c0.46,2.4,1.21,5.93,1.54,8.84c0.18,1.56,0.29,2.79,0.29,3.27" style="fill:none;stroke:#999;stroke-width:3"></path>
<path d="M1031.1799999999998,67.4c6.2-0.9,19.9-2.68,23.96-3.15c2.28-0.27,3.71,0.49,2.88,2.83c-0.89,2.49-1.72,5.52-2.42,8.5" style="fill:none;stroke:#999;stroke-width:3"></path>
<path d="M1033.69,78.69c4.93-0.57,12.87-1.32,19.31-1.71c1.65-0.1,3.09-0.16,4.15-0.16" style="fill:none;stroke:#999;stroke-width:3"></path>
<path d="M1003.5,21.25c0.81,0.81,1.13,2.12,1.13,3.53c0,10.72-0.63,59.1-0.63,62.97c0,3.14,1,4.2,4,3.85c20.04-2.39,49.67-3.34,57.5-3.1c3.25,0.1,6,0.75,8,1.25" style="fill:none;stroke:#999;stroke-width:3"></path>

</svg>