<svg width="545px" height="109px" viewBox="0 0 545 109" xmlns="http://www.w3.org/2000/svg" xmlns:xlink="http://www.w3.org/1999/xlink" xml:space="preserve" version="1.1" baseProfile="full">
<line x1="1" y1="1" x2="544" y2="1" style="stroke:#ddd;stroke-width:2"></line>
<line x1="1" y1="1" x2="1" y2="108" style="stroke:#ddd;stroke-width:2"></line>
<line x1="1" y1="108" x2="544" y2="108" style="stroke:#ddd;stroke-width:2"></line>
<line x1="544" y1="1" x2="544" y2="108" style="stroke:#ddd;stroke-width:2"></line>
<line x1="109" y1="1" x2="109" y2="108" style="stroke:#ddd;stroke-width:2"></line>
<line x1="218" y1="1" x2="218" y2="108" style="stroke:#ddd;stroke-width:2"></line>
<line x1="327" y1="1" x2="327" y2="108" style="stroke:#ddd;stroke-width:2"></line>
<line x1="436" y1="1" x2="436" y2="108" style="stroke:#ddd;stroke-width:2"></line>
<line x1="1" y1="54" x2="544" y2="54" style="stroke:#ddd;stroke-width:2;stroke-dasharray:3 3"></line>
<line x1="55" y1="1" x2="55" y2="108" style="stroke:#ddd;stroke-width:2;stroke-dasharray:3 3"></line>
<line x1="164" y1="1" x2="164" y2="108" style="stroke:#ddd;stroke-width:2;stroke-dasharray:3 3"></line>
<line x1="273" y1="1" x2="273" y2="108" style="stroke:#ddd;stroke-width:2;stroke-dasharray:3 3"></line>
<line x1="382" y1="1" x2="382" y2="108" style="stroke:#ddd;stroke-width:2;stroke-dasharray:3 3"></line>
<line x1="491" y1="1" x2="491" y2="108" style="stroke:#ddd;stroke-width:2;stroke-dasharray:3 3"></line>
<path d="M24.89,30.46c1.1,0.39,3.11,0.49,4.2,0.39c13.93-1.28,42.08-4.34,51.69-4.5c1.83-0.03,2.92,0.19,3.84,0.38" style="fill:none;stroke:#999;stroke-width:3"></path>

<path d="M133.89,30.46c1.1,0.39,3.11,0.49,4.2,0.39c13.93-1.28,42.08-4.34,51.69-4.5c1.83-0.03,2.92,0.19,3.84,0.38" style="fill:none;stroke:#999;stroke-width:3"></path>
<path d="M162.27,11.88c0.38,0.3,1.19,2.27,1.26,2.87c0.08,0.61-0.05,30.6-0.13,34.38" style="fill:none;stroke:#999;stroke-width:3"></path>

<path d="M242.89,30.46c1.1,0.39,3.11,0.49,4.2,0.39c13.93-1.28,42.08-4.34,51.69-4.5c1.83-0.03,2.92,0.19,3.84,0.38" style="fill:none;stroke:#999;stroke-width:3"></path>
<path d="M271.27,11.88c0.38,0.3,1.19,2.27,1.26,2.87c0.08,0.61-0.05,30.6-0.13,34.38" style="fill:none;stroke:#999;stroke-width:3"></path>
<path d="M231.88,59.98c1.52,0.54,4.3,0.63,5.82,0.54c15.8-0.91,50.55-5.27,70.61-5.73c2.53-0.06,4.05,0.26,5.31,0.53" style="fill:none;stroke:#999;stroke-width:3"></path>

<path d="M351.89,30.46c1.1,0.39,3.11,0.49,4.2,0.39c13.93-1.28,42.08-4.34,51.69-4.5c1.83-0.03,2.92,0.19,3.84,0.38" style="fill:none;stroke:#999;stroke-width:3"></path>
<path d="M380.27,11.88c0.38,0.3,1.19,2.27,1.26,2.87c0.08,0.61-0.05,30.6-0.13,34.38" style="fill:none;stroke:#999;stroke-width:3"></path>
<path d="M340.88,59.98c1.52,0.54,4.3,0.63,5.82,0.54c15.8-0.91,50.55-5.27,70.61-5.73c2.53-0.06,4.05,0.26,5.31,0.53" style="fill:none;stroke:#999;stroke-width:3"></path>
<path d="M364.61,45c0.66,1.21,1.28,2.47,1.34,4.23c0.53,16.09-2.12,38.99-19.7,47.77" style="fill:none;stroke:#999;stroke-width:3"></path>

<path d="M460.89,30.46c1.1,0.39,3.11,0.49,4.2,0.39c13.93-1.28,42.08-4.34,51.69-4.5c1.83-0.03,2.92,0.19,3.84,0.38" style="fill:none;stroke:#999;stroke-width:3"></path>
<path d="M489.27,11.88c0.38,0.3,1.19,2.27,1.26,2.87c0.08,0.61-0.05,30.6-0.13,34.38" style="fill:none;stroke:#999;stroke-width:3"></path>
<path d="M449.88,59.98c1.52,0.54,4.3,0.63,5.82,0.54c15.8-0.91,50.55-5.27,70.61-5.73c2.53-0.06,4.05,0.26,5.31,0.53" style="fill:none;stroke:#999;stroke-width:3"></path>
<path d="M473.61,45c0.66,1.21,1.28,2.47,1.34,4.23c0.53,16.09-2.12,38.99-19.7,47.77" style="fill:none;stroke:#999;stroke-width:3"></path>
<path d="M506.87,41.75c0.7,0.72,1.96,1.75,1.96,3.25c0,6.75,0,45.75-0.22,52" style="fill:none;stroke:#999;stroke-width:3"></path>

</svg>