<svg width="872px" height="109px" viewBox="0 0 872 109" xmlns="http://www.w3.org/2000/svg" xmlns:xlink="http://www.w3.org/1999/xlink" xml:space="preserve" version="1.1" baseProfile="full">
<line x1="1" y1="1" x2="871" y2="1" style="stroke:#ddd;stroke-width:2"></line>
<line x1="1" y1="1" x2="1" y2="108" style="stroke:#ddd;stroke-width:2"></line>
<line x1="1" y1="108" x2="871" y2="108" style="stroke:#ddd;stroke-width:2"></line>
<line x1="871" y1="1" x2="871" y2="108" style="stroke:#ddd;stroke-width:2"></line>
<line x1="109" y1="1" x2="109" y2="108" style="stroke:#ddd;stroke-width:2"></line>
<line x1="218" y1="1" x2="218" y2="108" style="stroke:#ddd;stroke-width:2"></line>
<line x1="327" y1="1" x2="327" y2="108" style="stroke:#ddd;stroke-width:2"></line>
<line x1="436" y1="1" x2="436" y2="108" style="stroke:#ddd;stroke-width:2"></line>
<line x1="545" y1="1" x2="545" y2="108" style="stroke:#ddd;stroke-width:2"></line>
<line x1="654" y1="1" x2="654" y2="108" style="stroke:#ddd;stroke-width:2"></line>
<line x1="763" y1="1" x2="763" y2="108" style="stroke:#ddd;stroke-width:2"></line>
<line x1="1" y1="54" x2="871" y2="54" style="stroke:#ddd;stroke-width:2;stroke-dasharray:3 3"></line>
<line x1="55" y1="1" x2="55" y2="108" style="stroke:#ddd;stroke-width:2;stroke-dasharray:3 3"></line>
<line x1="164" y1="1" x2="164" y2="108" style="stroke:#ddd;stroke-width:2;stroke-dasharray:3 3"></line>
<line x1="273" y1="1" x2="273" y2="108" style="stroke:#ddd;stroke-width:2;stroke-dasharray:3 3"></line>
<line x1="382" y1="1" x2="382" y2="108" style="stroke:#ddd;stroke-width:2;stroke-dasharray:3 3"></line>
<line x1="491" y1="1" x2="491" y2="108" style="stroke:#ddd;stroke-width:2;stroke-dasharray:3 3"></line>
<line x1="600" y1="1" x2="600" y2="108" style="stroke:#ddd;stroke-width:2;stroke-dasharray:3 3"></line>
<line x1="709" y1="1" x2="709" y2="108" style="stroke:#ddd;stroke-width:2;stroke-dasharray:3 3"></line>
<line x1="818" y1="1" x2="818" y2="108" style="stroke:#ddd;stroke-width:2;stroke-dasharray:3 3"></line>
<path d="M52.81,11.13c0.9,0.9,1.51,2.12,1.51,3.37c0,0.67,0,12.75,0,19.13" style="fill:none;stroke:#999;stroke-width:3"></path>

<path d="M161.81,11.13c0.9,0.9,1.51,2.12,1.51,3.37c0,0.67,0,12.75,0,19.13" style="fill:none;stroke:#999;stroke-width:3"></path>
<path d="M166.0,24.5c3.62-0.62,8.38-1.5,15.25-2.77c2.08-0.38,3.76-0.4,5-0.48" style="fill:none;stroke:#999;stroke-width:3"></path>

<path d="M270.81,11.13c0.9,0.9,1.51,2.12,1.51,3.37c0,0.67,0,12.75,0,19.13" style="fill:none;stroke:#999;stroke-width:3"></path>
<path d="M275.0,24.5c3.62-0.62,8.38-1.5,15.25-2.77c2.08-0.38,3.76-0.4,5-0.48" style="fill:none;stroke:#999;stroke-width:3"></path>
<path d="M251.91,35.78c1.03,1.03,1.47,2.36,1.7,4c0.5,3.47,1.96,13.09,2.61,19.19c0.19,1.76,0.3,3.19,0.31,4.03" style="fill:none;stroke:#999;stroke-width:3"></path>

<path d="M379.81,11.13c0.9,0.9,1.51,2.12,1.51,3.37c0,0.67,0,12.75,0,19.13" style="fill:none;stroke:#999;stroke-width:3"></path>
<path d="M384.0,24.5c3.62-0.62,8.38-1.5,15.25-2.77c2.08-0.38,3.76-0.4,5-0.48" style="fill:none;stroke:#999;stroke-width:3"></path>
<path d="M360.90999999999997,35.78c1.03,1.03,1.47,2.36,1.7,4c0.5,3.47,1.96,13.09,2.61,19.19c0.19,1.76,0.3,3.19,0.31,4.03" style="fill:none;stroke:#999;stroke-width:3"></path>
<path d="M362.8,37.03c4.92-0.66,27.99-3.46,37.2-4c4.18-0.24,6.48,0.56,5.51,5.25c-0.76,3.69-2.09,10.51-3.22,16.28c-0.35,1.77-0.72,3.44-1.13,4.89" style="fill:none;stroke:#999;stroke-width:3"></path>

<path d="M488.81,11.13c0.9,0.9,1.51,2.12,1.51,3.37c0,0.67,0,12.75,0,19.13" style="fill:none;stroke:#999;stroke-width:3"></path>
<path d="M493.0,24.5c3.62-0.62,8.38-1.5,15.25-2.77c2.08-0.38,3.76-0.4,5-0.48" style="fill:none;stroke:#999;stroke-width:3"></path>
<path d="M469.90999999999997,35.78c1.03,1.03,1.47,2.36,1.7,4c0.5,3.47,1.96,13.09,2.61,19.19c0.19,1.76,0.3,3.19,0.31,4.03" style="fill:none;stroke:#999;stroke-width:3"></path>
<path d="M471.8,37.03c4.92-0.66,27.99-3.46,37.2-4c4.18-0.24,6.48,0.56,5.51,5.25c-0.76,3.69-2.09,10.51-3.22,16.28c-0.35,1.77-0.72,3.44-1.13,4.89" style="fill:none;stroke:#999;stroke-width:3"></path>
<path d="M473.39,48.2c9.11-1.08,28.11-2.7,38.35-3.09" style="fill:none;stroke:#999;stroke-width:3"></path>

<path d="M597.81,11.13c0.9,0.9,1.51,2.12,1.51,3.37c0,0.67,0,12.75,0,19.13" style="fill:none;stroke:#999;stroke-width:3"></path>
<path d="M602.0,24.5c3.62-0.62,8.38-1.5,15.25-2.77c2.08-0.38,3.76-0.4,5-0.48" style="fill:none;stroke:#999;stroke-width:3"></path>
<path d="M578.91,35.78c1.03,1.03,1.47,2.36,1.7,4c0.5,3.47,1.96,13.09,2.61,19.19c0.19,1.76,0.3,3.19,0.31,4.03" style="fill:none;stroke:#999;stroke-width:3"></path>
<path d="M580.8,37.03c4.92-0.66,27.99-3.46,37.2-4c4.18-0.24,6.48,0.56,5.51,5.25c-0.76,3.69-2.09,10.51-3.22,16.28c-0.35,1.77-0.72,3.44-1.13,4.89" style="fill:none;stroke:#999;stroke-width:3"></path>
<path d="M582.39,48.2c9.11-1.08,28.11-2.7,38.35-3.09" style="fill:none;stroke:#999;stroke-width:3"></path>
<path d="M584.51,60.27c11.99-1.39,25.99-2.39,34.22-2.69" style="fill:none;stroke:#999;stroke-width:3"></path>

<path d="M706.81,11.13c0.9,0.9,1.51,2.12,1.51,3.37c0,0.67,0,12.75,0,19.13" style="fill:none;stroke:#999;stroke-width:3"></path>
<path d="M711.0,24.5c3.62-0.62,8.38-1.5,15.25-2.77c2.08-0.38,3.76-0.4,5-0.48" style="fill:none;stroke:#999;stroke-width:3"></path>
<path d="M687.91,35.78c1.03,1.03,1.47,2.36,1.7,4c0.5,3.47,1.96,13.09,2.61,19.19c0.19,1.76,0.3,3.19,0.31,4.03" style="fill:none;stroke:#999;stroke-width:3"></path>
<path d="M689.8,37.03c4.92-0.66,27.99-3.46,37.2-4c4.18-0.24,6.48,0.56,5.51,5.25c-0.76,3.69-2.09,10.51-3.22,16.28c-0.35,1.77-0.72,3.44-1.13,4.89" style="fill:none;stroke:#999;stroke-width:3"></path>
<path d="M691.39,48.2c9.11-1.08,28.11-2.7,38.35-3.09" style="fill:none;stroke:#999;stroke-width:3"></path>
<path d="M693.51,60.27c11.99-1.39,25.99-2.39,34.22-2.69" style="fill:none;stroke:#999;stroke-width:3"></path>
<path d="M670.63,75.66c2.77,0.89,6.52,0.7,9.37,0.41c16.1-1.63,46.09-3.65,60-3.98c3.23-0.08,6.21,0.05,9.38,0.66" style="fill:none;stroke:#999;stroke-width:3"></path>

<path d="M815.81,11.13c0.9,0.9,1.51,2.12,1.51,3.37c0,0.67,0,12.75,0,19.13" style="fill:none;stroke:#999;stroke-width:3"></path>
<path d="M820.0,24.5c3.62-0.62,8.38-1.5,15.25-2.77c2.08-0.38,3.76-0.4,5-0.48" style="fill:none;stroke:#999;stroke-width:3"></path>
<path d="M796.91,35.78c1.03,1.03,1.47,2.36,1.7,4c0.5,3.47,1.96,13.09,2.61,19.19c0.19,1.76,0.3,3.19,0.31,4.03" style="fill:none;stroke:#999;stroke-width:3"></path>
<path d="M798.8,37.03c4.92-0.66,27.99-3.46,37.2-4c4.18-0.24,6.48,0.56,5.51,5.25c-0.76,3.69-2.09,10.51-3.22,16.28c-0.35,1.77-0.72,3.44-1.13,4.89" style="fill:none;stroke:#999;stroke-width:3"></path>
<path d="M800.39,48.2c9.11-1.08,28.11-2.7,38.35-3.09" style="fill:none;stroke:#999;stroke-width:3"></path>
<path d="M802.51,60.27c11.99-1.39,25.99-2.39,34.22-2.69" style="fill:none;stroke:#999;stroke-width:3"></path>
<path d="M779.63,75.66c2.77,0.89,6.52,0.7,9.37,0.41c16.1-1.63,46.09-3.65,60-3.98c3.23-0.08,6.21,0.05,9.38,0.66" style="fill:none;stroke:#999;stroke-width:3"></path>
<path d="M817.73,61.25c1.13,1.13,1.22,2.38,1.22,4.24c0,0.87,0.07,16.75-0.01,27.01c-0.02,2.74-0.04,5.05-0.06,6.5" style="fill:none;stroke:#999;stroke-width:3"></path>

</svg>