<svg width="218px" height="109px" viewBox="0 0 218 109" xmlns="http://www.w3.org/2000/svg" xmlns:xlink="http://www.w3.org/1999/xlink" xml:space="preserve" version="1.1" baseProfile="full">
<line x1="1" y1="1" x2="217" y2="1" style="stroke:#ddd;stroke-width:2"></line>
<line x1="1" y1="1" x2="1" y2="108" style="stroke:#ddd;stroke-width:2"></line>
<line x1="1" y1="108" x2="217" y2="108" style="stroke:#ddd;stroke-width:2"></line>
<line x1="217" y1="1" x2="217" y2="108" style="stroke:#ddd;stroke-width:2"></line>
<line x1="109" y1="1" x2="109" y2="108" style="stroke:#ddd;stroke-width:2"></line>
<line x1="1" y1="54" x2="217" y2="54" style="stroke:#ddd;stroke-width:2;stroke-dasharray:3 3"></line>
<line x1="55" y1="1" x2="55" y2="108" style="stroke:#ddd;stroke-width:2;stroke-dasharray:3 3"></line>
<line x1="164" y1="1" x2="164" y2="108" style="stroke:#ddd;stroke-width:2;stroke-dasharray:3 3"></line>
<path d="M49.81,12.13c0.76,0.45,2.36,3.35,2.51,4.25c0.15,0.9-0.1,75.15-0.25,80.75" style="fill:none;stroke:#999;stroke-width:3"></path>

<path d="M158.81,12.13c0.76,0.45,2.36,3.35,2.51,4.25c0.15,0.9-0.1,75.15-0.25,80.75" style="fill:none;stroke:#999;stroke-width:3"></path>
<path d="M164.25,39.25c7.59,3.62,19.5,13.25,21.5,20.5" style="fill:none;stroke:#999;stroke-width:3"></path>

</svg>