<svg width="654px" height="109px" viewBox="0 0 654 109" xmlns="http://www.w3.org/2000/svg" xmlns:xlink="http://www.w3.org/1999/xlink" xml:space="preserve" version="1.1" baseProfile="full">
<line x1="1" y1="1" x2="653" y2="1" style="stroke:#ddd;stroke-width:2"></line>
<line x1="1" y1="1" x2="1" y2="108" style="stroke:#ddd;stroke-width:2"></line>
<line x1="1" y1="108" x2="653" y2="108" style="stroke:#ddd;stroke-width:2"></line>
<line x1="653" y1="1" x2="653" y2="108" style="stroke:#ddd;stroke-width:2"></line>
<line x1="109" y1="1" x2="109" y2="108" style="stroke:#ddd;stroke-width:2"></line>
<line x1="218" y1="1" x2="218" y2="108" style="stroke:#ddd;stroke-width:2"></line>
<line x1="327" y1="1" x2="327" y2="108" style="stroke:#ddd;stroke-width:2"></line>
<line x1="436" y1="1" x2="436" y2="108" style="stroke:#ddd;stroke-width:2"></line>
<line x1="545" y1="1" x2="545" y2="108" style="stroke:#ddd;stroke-width:2"></line>
<line x1="1" y1="54" x2="653" y2="54" style="stroke:#ddd;stroke-width:2;stroke-dasharray:3 3"></line>
<line x1="55" y1="1" x2="55" y2="108" style="stroke:#ddd;stroke-width:2;stroke-dasharray:3 3"></line>
<line x1="164" y1="1" x2="164" y2="108" style="stroke:#ddd;stroke-width:2;stroke-dasharray:3 3"></line>
<line x1="273" y1="1" x2="273" y2="108" style="stroke:#ddd;stroke-width:2;stroke-dasharray:3 3"></line>
<line x1="382" y1="1" x2="382" y2="108" style="stroke:#ddd;stroke-width:2;stroke-dasharray:3 3"></line>
<line x1="491" y1="1" x2="491" y2="108" style="stroke:#ddd;stroke-width:2;stroke-dasharray:3 3"></line>
<line x1="600" y1="1" x2="600" y2="108" style="stroke:#ddd;stroke-width:2;stroke-dasharray:3 3"></line>
<path d="M42.38,13.25c0,1.25-0.6,2.34-1.37,3.09c-3.98,3.91-9.81,7.29-20.2,12.13" style="fill:none;stroke:#999;stroke-width:3"></path>

<path d="M151.38,13.25c0,1.25-0.6,2.34-1.37,3.09c-3.98,3.91-9.81,7.29-20.2,12.13" style="fill:none;stroke:#999;stroke-width:3"></path>
<path d="M126.87,29.75c0.88,0.88,1.46,2.38,1.46,3.75c0,3.04-0.14,23.52-0.2,34.75c-0.01,2.61-0.02,4.73-0.02,6" style="fill:none;stroke:#999;stroke-width:3"></path>

<path d="M260.38,13.25c0,1.25-0.6,2.34-1.37,3.09c-3.98,3.91-9.81,7.29-20.2,12.13" style="fill:none;stroke:#999;stroke-width:3"></path>
<path d="M235.87,29.75c0.88,0.88,1.46,2.38,1.46,3.75c0,3.04-0.14,23.52-0.2,34.75c-0.01,2.61-0.02,4.73-0.02,6" style="fill:none;stroke:#999;stroke-width:3"></path>
<path d="M238.0,49c9-1.62,17.62-3.75,19.5-4c1.51-0.2,2.88-0.25,4.25,0" style="fill:none;stroke:#999;stroke-width:3"></path>

<path d="M369.38,13.25c0,1.25-0.6,2.34-1.37,3.09c-3.98,3.91-9.81,7.29-20.2,12.13" style="fill:none;stroke:#999;stroke-width:3"></path>
<path d="M344.87,29.75c0.88,0.88,1.46,2.38,1.46,3.75c0,3.04-0.14,23.52-0.2,34.75c-0.01,2.61-0.02,4.73-0.02,6" style="fill:none;stroke:#999;stroke-width:3"></path>
<path d="M347.0,49c9-1.62,17.62-3.75,19.5-4c1.51-0.2,2.88-0.25,4.25,0" style="fill:none;stroke:#999;stroke-width:3"></path>
<path d="M346.75,71.5c8.88-1.88,19.38-4,21.55-4.25c1.31-0.15,2.88-0.25,4.2,0.03" style="fill:none;stroke:#999;stroke-width:3"></path>

<path d="M478.38,13.25c0,1.25-0.6,2.34-1.37,3.09c-3.98,3.91-9.81,7.29-20.2,12.13" style="fill:none;stroke:#999;stroke-width:3"></path>
<path d="M453.87,29.75c0.88,0.88,1.46,2.38,1.46,3.75c0,3.04-0.14,23.52-0.2,34.75c-0.01,2.61-0.02,4.73-0.02,6" style="fill:none;stroke:#999;stroke-width:3"></path>
<path d="M456.0,49c9-1.62,17.62-3.75,19.5-4c1.51-0.2,2.88-0.25,4.25,0" style="fill:none;stroke:#999;stroke-width:3"></path>
<path d="M455.75,71.5c8.88-1.88,19.38-4,21.55-4.25c1.31-0.15,2.88-0.25,4.2,0.03" style="fill:none;stroke:#999;stroke-width:3"></path>
<path d="M493.5,26.16c1.5,0.44,2.81,0.38,3.91,0.29c7.97-0.72,21.75-2.92,26.68-3.46c3.21-0.35,4.01,1.59,3.92,4.06C527.5,40.35,524.5,54.49,519.4,65.43c-2.17,4.66-5.52,1.7-8.3-1.52" style="fill:none;stroke:#999;stroke-width:3"></path>

<path d="M587.38,13.25c0,1.25-0.6,2.34-1.37,3.09c-3.98,3.91-9.81,7.29-20.2,12.13" style="fill:none;stroke:#999;stroke-width:3"></path>
<path d="M562.87,29.75c0.88,0.88,1.46,2.38,1.46,3.75c0,3.04-0.14,23.52-0.2,34.75c-0.01,2.61-0.02,4.73-0.02,6" style="fill:none;stroke:#999;stroke-width:3"></path>
<path d="M565.0,49c9-1.62,17.62-3.75,19.5-4c1.51-0.2,2.88-0.25,4.25,0" style="fill:none;stroke:#999;stroke-width:3"></path>
<path d="M564.75,71.5c8.88-1.88,19.38-4,21.55-4.25c1.31-0.15,2.88-0.25,4.2,0.03" style="fill:none;stroke:#999;stroke-width:3"></path>
<path d="M602.5,26.16c1.5,0.44,2.81,0.38,3.91,0.29c7.97-0.72,21.75-2.92,26.68-3.46c3.21-0.35,4.01,1.59,3.92,4.06C636.5,40.35,633.5,54.49,628.4,65.43c-2.17,4.66-5.52,1.7-8.3-1.52" style="fill:none;stroke:#999;stroke-width:3"></path>
<path d="M605.0,27c0.81,0.81,1.25,2.43,1.25,3.88c0,11.58,0,47.58,0,62.12c0,2.8,0,4.82,0,5.75" style="fill:none;stroke:#999;stroke-width:3"></path>

</svg>