<svg width="981px" height="109px" viewBox="0 0 981 109" xmlns="http://www.w3.org/2000/svg" xmlns:xlink="http://www.w3.org/1999/xlink" xml:space="preserve" version="1.1" baseProfile="full">
<line x1="1" y1="1" x2="980" y2="1" style="stroke:#ddd;stroke-width:2"></line>
<line x1="1" y1="1" x2="1" y2="108" style="stroke:#ddd;stroke-width:2"></line>
<line x1="1" y1="108" x2="980" y2="108" style="stroke:#ddd;stroke-width:2"></line>
<line x1="980" y1="1" x2="980" y2="108" style="stroke:#ddd;stroke-width:2"></line>
<line x1="109" y1="1" x2="109" y2="108" style="stroke:#ddd;stroke-width:2"></line>
<line x1="218" y1="1" x2="218" y2="108" style="stroke:#ddd;stroke-width:2"></line>
<line x1="327" y1="1" x2="327" y2="108" style="stroke:#ddd;stroke-width:2"></line>
<line x1="436" y1="1" x2="436" y2="108" style="stroke:#ddd;stroke-width:2"></line>
<line x1="545" y1="1" x2="545" y2="108" style="stroke:#ddd;stroke-width:2"></line>
<line x1="654" y1="1" x2="654" y2="108" style="stroke:#ddd;stroke-width:2"></line>
<line x1="763" y1="1" x2="763" y2="108" style="stroke:#ddd;stroke-width:2"></line>
<line x1="872" y1="1" x2="872" y2="108" style="stroke:#ddd;stroke-width:2"></line>
<line x1="1" y1="54" x2="980" y2="54" style="stroke:#ddd;stroke-width:2;stroke-dasharray:3 3"></line>
<line x1="55" y1="1" x2="55" y2="108" style="stroke:#ddd;stroke-width:2;stroke-dasharray:3 3"></line>
<line x1="164" y1="1" x2="164" y2="108" style="stroke:#ddd;stroke-width:2;stroke-dasharray:3 3"></line>
<line x1="273" y1="1" x2="273" y2="108" style="stroke:#ddd;stroke-width:2;stroke-dasharray:3 3"></line>
<line x1="382" y1="1" x2="382" y2="108" style="stroke:#ddd;stroke-width:2;stroke-dasharray:3 3"></line>
<line x1="491" y1="1" x2="491" y2="108" style="stroke:#ddd;stroke-width:2;stroke-dasharray:3 3"></line>
<line x1="600" y1="1" x2="600" y2="108" style="stroke:#ddd;stroke-width:2;stroke-dasharray:3 3"></line>
<line x1="709" y1="1" x2="709" y2="108" style="stroke:#ddd;stroke-width:2;stroke-dasharray:3 3"></line>
<line x1="818" y1="1" x2="818" y2="108" style="stroke:#ddd;stroke-width:2;stroke-dasharray:3 3"></line>
<line x1="927" y1="1" x2="927" y2="108" style="stroke:#ddd;stroke-width:2;stroke-dasharray:3 3"></line>
<path d="M31.09,12.75c0.08,1.2,0.02,2.14-0.4,3.27c-2.98,8-7.21,14.51-14.69,22.27" style="fill:none;stroke:#999;stroke-width:3"></path>

<path d="M140.09,12.75c0.08,1.2,0.02,2.14-0.4,3.27c-2.98,8-7.21,14.51-14.69,22.27" style="fill:none;stroke:#999;stroke-width:3"></path>
<path d="M137.25,28.64c1.88,0.11,2.64-0.18,4.14-0.47c5.36-1.04,11.19-2.2,15.5-3.12c1.46-0.31,3.61-0.68,4.86-0.29" style="fill:none;stroke:#999;stroke-width:3"></path>

<path d="M249.09,12.75c0.08,1.2,0.02,2.14-0.4,3.27c-2.98,8-7.21,14.51-14.69,22.27" style="fill:none;stroke:#999;stroke-width:3"></path>
<path d="M246.25,28.64c1.88,0.11,2.64-0.18,4.14-0.47c5.36-1.04,11.19-2.2,15.5-3.12c1.46-0.31,3.61-0.68,4.86-0.29" style="fill:none;stroke:#999;stroke-width:3"></path>
<path d="M233.25,46.75c2.62,0.5,5.31,0.09,7.77-0.41c7.59-1.53,20.04-4.02,27.5-5.18c2.54-0.39,5.18-0.88,7.72-0.26" style="fill:none;stroke:#999;stroke-width:3"></path>

<path d="M358.09000000000003,12.75c0.08,1.2,0.02,2.14-0.4,3.27c-2.98,8-7.21,14.51-14.69,22.27" style="fill:none;stroke:#999;stroke-width:3"></path>
<path d="M355.25,28.64c1.88,0.11,2.64-0.18,4.14-0.47c5.36-1.04,11.19-2.2,15.5-3.12c1.46-0.31,3.61-0.68,4.86-0.29" style="fill:none;stroke:#999;stroke-width:3"></path>
<path d="M342.25,46.75c2.62,0.5,5.31,0.09,7.77-0.41c7.59-1.53,20.04-4.02,27.5-5.18c2.54-0.39,5.18-0.88,7.72-0.26" style="fill:none;stroke:#999;stroke-width:3"></path>
<path d="M364.12,30.5c0.94,0.94,1.21,2.25,1.21,3.75c0,1.02,0.03,36.12,0.03,44" style="fill:none;stroke:#999;stroke-width:3"></path>

<path d="M467.09000000000003,12.75c0.08,1.2,0.02,2.14-0.4,3.27c-2.98,8-7.21,14.51-14.69,22.27" style="fill:none;stroke:#999;stroke-width:3"></path>
<path d="M464.25,28.64c1.88,0.11,2.64-0.18,4.14-0.47c5.36-1.04,11.19-2.2,15.5-3.12c1.46-0.31,3.61-0.68,4.86-0.29" style="fill:none;stroke:#999;stroke-width:3"></path>
<path d="M451.25,46.75c2.62,0.5,5.31,0.09,7.77-0.41c7.59-1.53,20.04-4.02,27.5-5.18c2.54-0.39,5.18-0.88,7.72-0.26" style="fill:none;stroke:#999;stroke-width:3"></path>
<path d="M473.12,30.5c0.94,0.94,1.21,2.25,1.21,3.75c0,1.02,0.03,36.12,0.03,44" style="fill:none;stroke:#999;stroke-width:3"></path>
<path d="M475.38,56.75c4.03-0.87,7.28-1.56,10.49-2.22C487.53,54.2,489.3,53.61,491.0,54" style="fill:none;stroke:#999;stroke-width:3"></path>

<path d="M576.09,12.75c0.08,1.2,0.02,2.14-0.4,3.27c-2.98,8-7.21,14.51-14.69,22.27" style="fill:none;stroke:#999;stroke-width:3"></path>
<path d="M573.25,28.64c1.88,0.11,2.64-0.18,4.14-0.47c5.36-1.04,11.19-2.2,15.5-3.12c1.46-0.31,3.61-0.68,4.86-0.29" style="fill:none;stroke:#999;stroke-width:3"></path>
<path d="M560.25,46.75c2.62,0.5,5.31,0.09,7.77-0.41c7.59-1.53,20.04-4.02,27.5-5.18c2.54-0.39,5.18-0.88,7.72-0.26" style="fill:none;stroke:#999;stroke-width:3"></path>
<path d="M582.12,30.5c0.94,0.94,1.21,2.25,1.21,3.75c0,1.02,0.03,36.12,0.03,44" style="fill:none;stroke:#999;stroke-width:3"></path>
<path d="M584.38,56.75c4.03-0.87,7.28-1.56,10.49-2.22C596.53,54.2,598.3,53.61,600.0,54" style="fill:none;stroke:#999;stroke-width:3"></path>
<path d="M567.62,57.75c1,1,1.21,2.25,1.21,3.75c0,1.02,0.03,16.62,0.03,23.75" style="fill:none;stroke:#999;stroke-width:3"></path>

<path d="M685.09,12.75c0.08,1.2,0.02,2.14-0.4,3.27c-2.98,8-7.21,14.51-14.69,22.27" style="fill:none;stroke:#999;stroke-width:3"></path>
<path d="M682.25,28.64c1.88,0.11,2.64-0.18,4.14-0.47c5.36-1.04,11.19-2.2,15.5-3.12c1.46-0.31,3.61-0.68,4.86-0.29" style="fill:none;stroke:#999;stroke-width:3"></path>
<path d="M669.25,46.75c2.62,0.5,5.31,0.09,7.77-0.41c7.59-1.53,20.04-4.02,27.5-5.18c2.54-0.39,5.18-0.88,7.72-0.26" style="fill:none;stroke:#999;stroke-width:3"></path>
<path d="M691.12,30.5c0.94,0.94,1.21,2.25,1.21,3.75c0,1.02,0.03,36.12,0.03,44" style="fill:none;stroke:#999;stroke-width:3"></path>
<path d="M693.38,56.75c4.03-0.87,7.28-1.56,10.49-2.22C705.53,54.2,707.3,53.61,709.0,54" style="fill:none;stroke:#999;stroke-width:3"></path>
<path d="M676.62,57.75c1,1,1.21,2.25,1.21,3.75c0,1.02,0.03,16.62,0.03,23.75" style="fill:none;stroke:#999;stroke-width:3"></path>
<path d="M672.5,86.88c0.41,0.95,2.11,1.41,3.12,0.85C682.75,83.75,703.0,73.75,709.0,70.25" style="fill:none;stroke:#999;stroke-width:3"></path>

<path d="M794.09,12.75c0.08,1.2,0.02,2.14-0.4,3.27c-2.98,8-7.21,14.51-14.69,22.27" style="fill:none;stroke:#999;stroke-width:3"></path>
<path d="M791.25,28.64c1.88,0.11,2.64-0.18,4.14-0.47c5.36-1.04,11.19-2.2,15.5-3.12c1.46-0.31,3.61-0.68,4.86-0.29" style="fill:none;stroke:#999;stroke-width:3"></path>
<path d="M778.25,46.75c2.62,0.5,5.31,0.09,7.77-0.41c7.59-1.53,20.04-4.02,27.5-5.18c2.54-0.39,5.18-0.88,7.72-0.26" style="fill:none;stroke:#999;stroke-width:3"></path>
<path d="M800.12,30.5c0.94,0.94,1.21,2.25,1.21,3.75c0,1.02,0.03,36.12,0.03,44" style="fill:none;stroke:#999;stroke-width:3"></path>
<path d="M802.38,56.75c4.03-0.87,7.28-1.56,10.49-2.22C814.53,54.2,816.3,53.61,818.0,54" style="fill:none;stroke:#999;stroke-width:3"></path>
<path d="M785.62,57.75c1,1,1.21,2.25,1.21,3.75c0,1.02,0.03,16.62,0.03,23.75" style="fill:none;stroke:#999;stroke-width:3"></path>
<path d="M781.5,86.88c0.41,0.95,2.11,1.41,3.12,0.85C791.75,83.75,812.0,73.75,818.0,70.25" style="fill:none;stroke:#999;stroke-width:3"></path>
<path d="M827.0,26.33c0.83,0.21,2.49,0.2,4.15,0s18.13-4.08,20.21-4.28s5.19-0.42,5.4,3.94c0.1,2.08-0.86,27.56-3.02,37.09c-2.08,9.13-7.89,1.04-8.51,0.62" style="fill:none;stroke:#999;stroke-width:3"></path>

<path d="M903.09,12.75c0.08,1.2,0.02,2.14-0.4,3.27c-2.98,8-7.21,14.51-14.69,22.27" style="fill:none;stroke:#999;stroke-width:3"></path>
<path d="M900.25,28.64c1.88,0.11,2.64-0.18,4.14-0.47c5.36-1.04,11.19-2.2,15.5-3.12c1.46-0.31,3.61-0.68,4.86-0.29" style="fill:none;stroke:#999;stroke-width:3"></path>
<path d="M887.25,46.75c2.62,0.5,5.31,0.09,7.77-0.41c7.59-1.53,20.04-4.02,27.5-5.18c2.54-0.39,5.18-0.88,7.72-0.26" style="fill:none;stroke:#999;stroke-width:3"></path>
<path d="M909.12,30.5c0.94,0.94,1.21,2.25,1.21,3.75c0,1.02,0.03,36.12,0.03,44" style="fill:none;stroke:#999;stroke-width:3"></path>
<path d="M911.38,56.75c4.03-0.87,7.28-1.56,10.49-2.22C923.53,54.2,925.3,53.61,927.0,54" style="fill:none;stroke:#999;stroke-width:3"></path>
<path d="M894.62,57.75c1,1,1.21,2.25,1.21,3.75c0,1.02,0.03,16.62,0.03,23.75" style="fill:none;stroke:#999;stroke-width:3"></path>
<path d="M890.5,86.88c0.41,0.95,2.11,1.41,3.12,0.85C900.75,83.75,921.0,73.75,927.0,70.25" style="fill:none;stroke:#999;stroke-width:3"></path>
<path d="M936.0,26.33c0.83,0.21,2.49,0.2,4.15,0s18.13-4.08,20.21-4.28s5.19-0.42,5.4,3.94c0.1,2.08-0.86,27.56-3.02,37.09c-2.08,9.13-7.89,1.04-8.51,0.62" style="fill:none;stroke:#999;stroke-width:3"></path>
<path d="M938.08,27c0.96,0.96,1.31,2.12,1.31,3.25c0,7.78-0.01,45.27-0.01,61.12c0,3.63,0,6.13,0,6.88" style="fill:none;stroke:#999;stroke-width:3"></path>

</svg>