<svg width="1526px" height="109px" viewBox="0 0 1526 109" xmlns="http://www.w3.org/2000/svg" xmlns:xlink="http://www.w3.org/1999/xlink" xml:space="preserve" version="1.1" baseProfile="full">
<line x1="1" y1="1" x2="1525" y2="1" style="stroke:#ddd;stroke-width:2"></line>
<line x1="1" y1="1" x2="1" y2="108" style="stroke:#ddd;stroke-width:2"></line>
<line x1="1" y1="108" x2="1525" y2="108" style="stroke:#ddd;stroke-width:2"></line>
<line x1="1525" y1="1" x2="1525" y2="108" style="stroke:#ddd;stroke-width:2"></line>
<line x1="109" y1="1" x2="109" y2="108" style="stroke:#ddd;stroke-width:2"></line>
<line x1="218" y1="1" x2="218" y2="108" style="stroke:#ddd;stroke-width:2"></line>
<line x1="327" y1="1" x2="327" y2="108" style="stroke:#ddd;stroke-width:2"></line>
<line x1="436" y1="1" x2="436" y2="108" style="stroke:#ddd;stroke-width:2"></line>
<line x1="545" y1="1" x2="545" y2="108" style="stroke:#ddd;stroke-width:2"></line>
<line x1="654" y1="1" x2="654" y2="108" style="stroke:#ddd;stroke-width:2"></line>
<line x1="763" y1="1" x2="763" y2="108" style="stroke:#ddd;stroke-width:2"></line>
<line x1="872" y1="1" x2="872" y2="108" style="stroke:#ddd;stroke-width:2"></line>
<line x1="981" y1="1" x2="981" y2="108" style="stroke:#ddd;stroke-width:2"></line>
<line x1="1090" y1="1" x2="1090" y2="108" style="stroke:#ddd;stroke-width:2"></line>
<line x1="1199" y1="1" x2="1199" y2="108" style="stroke:#ddd;stroke-width:2"></line>
<line x1="1308" y1="1" x2="1308" y2="108" style="stroke:#ddd;stroke-width:2"></line>
<line x1="1417" y1="1" x2="1417" y2="108" style="stroke:#ddd;stroke-width:2"></line>
<line x1="1" y1="54" x2="1525" y2="54" style="stroke:#ddd;stroke-width:2;stroke-dasharray:3 3"></line>
<line x1="55" y1="1" x2="55" y2="108" style="stroke:#ddd;stroke-width:2;stroke-dasharray:3 3"></line>
<line x1="164" y1="1" x2="164" y2="108" style="stroke:#ddd;stroke-width:2;stroke-dasharray:3 3"></line>
<line x1="273" y1="1" x2="273" y2="108" style="stroke:#ddd;stroke-width:2;stroke-dasharray:3 3"></line>
<line x1="382" y1="1" x2="382" y2="108" style="stroke:#ddd;stroke-width:2;stroke-dasharray:3 3"></line>
<line x1="491" y1="1" x2="491" y2="108" style="stroke:#ddd;stroke-width:2;stroke-dasharray:3 3"></line>
<line x1="600" y1="1" x2="600" y2="108" style="stroke:#ddd;stroke-width:2;stroke-dasharray:3 3"></line>
<line x1="709" y1="1" x2="709" y2="108" style="stroke:#ddd;stroke-width:2;stroke-dasharray:3 3"></line>
<line x1="818" y1="1" x2="818" y2="108" style="stroke:#ddd;stroke-width:2;stroke-dasharray:3 3"></line>
<line x1="927" y1="1" x2="927" y2="108" style="stroke:#ddd;stroke-width:2;stroke-dasharray:3 3"></line>
<line x1="1036" y1="1" x2="1036" y2="108" style="stroke:#ddd;stroke-width:2;stroke-dasharray:3 3"></line>
<line x1="1145" y1="1" x2="1145" y2="108" style="stroke:#ddd;stroke-width:2;stroke-dasharray:3 3"></line>
<line x1="1254" y1="1" x2="1254" y2="108" style="stroke:#ddd;stroke-width:2;stroke-dasharray:3 3"></line>
<line x1="1363" y1="1" x2="1363" y2="108" style="stroke:#ddd;stroke-width:2;stroke-dasharray:3 3"></line>
<line x1="1472" y1="1" x2="1472" y2="108" style="stroke:#ddd;stroke-width:2;stroke-dasharray:3 3"></line>
<path d="M19.63,18.73c1.52,0.54,4.3,0.63,5.82,0.54c15.8-0.91,45.3-3.52,60.61-4.23c2.53-0.12,4.05,0.26,5.31,0.53" style="fill:none;stroke:#999;stroke-width:3"></path>

<path d="M128.63,18.73c1.52,0.54,4.3,0.63,5.82,0.54c15.8-0.91,45.3-3.52,60.61-4.23c2.53-0.12,4.05,0.26,5.31,0.53" style="fill:none;stroke:#999;stroke-width:3"></path>
<path d="M132.5,19.5c0.5,1.5,0.51,1.9,0.43,4.36C132.25,43.5,130.5,74.75,119.81,91.47" style="fill:none;stroke:#999;stroke-width:3"></path>

<path d="M237.63,18.73c1.52,0.54,4.3,0.63,5.82,0.54c15.8-0.91,45.3-3.52,60.61-4.23c2.53-0.12,4.05,0.26,5.31,0.53" style="fill:none;stroke:#999;stroke-width:3"></path>
<path d="M241.5,19.5c0.5,1.5,0.51,1.9,0.43,4.36C241.25,43.5,239.5,74.75,228.81,91.47" style="fill:none;stroke:#999;stroke-width:3"></path>
<path d="M245.21,38.92c1.23,0.15,3.29,0.85,3.88,0.79c5.32-0.64,18.79-2.47,25.32-3.01c0.96-0.08,2.42,0.15,2.9,0.31" style="fill:none;stroke:#999;stroke-width:3"></path>

<path d="M346.63,18.73c1.52,0.54,4.3,0.63,5.82,0.54c15.8-0.91,45.3-3.52,60.61-4.23c2.53-0.12,4.05,0.26,5.31,0.53" style="fill:none;stroke:#999;stroke-width:3"></path>
<path d="M350.5,19.5c0.5,1.5,0.51,1.9,0.43,4.36C350.25,43.5,348.5,74.75,337.81,91.47" style="fill:none;stroke:#999;stroke-width:3"></path>
<path d="M354.21000000000004,38.92c1.23,0.15,3.29,0.85,3.88,0.79c5.32-0.64,18.79-2.47,25.32-3.01c0.96-0.08,2.42,0.15,2.9,0.31" style="fill:none;stroke:#999;stroke-width:3"></path>
<path d="M361.7,27.85c0.67,0.45,1.07,2.01,1.2,2.91c0.13,0.89,0,37.94-0.13,43.52" style="fill:none;stroke:#999;stroke-width:3"></path>

<path d="M455.63,18.73c1.52,0.54,4.3,0.63,5.82,0.54c15.8-0.91,45.3-3.52,60.61-4.23c2.53-0.12,4.05,0.26,5.31,0.53" style="fill:none;stroke:#999;stroke-width:3"></path>
<path d="M459.5,19.5c0.5,1.5,0.51,1.9,0.43,4.36C459.25,43.5,457.5,74.75,446.81,91.47" style="fill:none;stroke:#999;stroke-width:3"></path>
<path d="M463.21000000000004,38.92c1.23,0.15,3.29,0.85,3.88,0.79c5.32-0.64,18.79-2.47,25.32-3.01c0.96-0.08,2.42,0.15,2.9,0.31" style="fill:none;stroke:#999;stroke-width:3"></path>
<path d="M470.7,27.85c0.67,0.45,1.07,2.01,1.2,2.91c0.13,0.89,0,37.94-0.13,43.52" style="fill:none;stroke:#999;stroke-width:3"></path>
<path d="M486.79,25.25c0.67,0.45,1.07,2.01,1.2,2.91c0.13,0.89,0,39.68-0.13,45.27" style="fill:none;stroke:#999;stroke-width:3"></path>

<path d="M564.63,18.73c1.52,0.54,4.3,0.63,5.82,0.54c15.8-0.91,45.3-3.52,60.61-4.23c2.53-0.12,4.05,0.26,5.31,0.53" style="fill:none;stroke:#999;stroke-width:3"></path>
<path d="M568.5,19.5c0.5,1.5,0.51,1.9,0.43,4.36C568.25,43.5,566.5,74.75,555.81,91.47" style="fill:none;stroke:#999;stroke-width:3"></path>
<path d="M572.21,38.92c1.23,0.15,3.29,0.85,3.88,0.79c5.32-0.64,18.79-2.47,25.32-3.01c0.96-0.08,2.42,0.15,2.9,0.31" style="fill:none;stroke:#999;stroke-width:3"></path>
<path d="M579.7,27.85c0.67,0.45,1.07,2.01,1.2,2.91c0.13,0.89,0,37.94-0.13,43.52" style="fill:none;stroke:#999;stroke-width:3"></path>
<path d="M595.79,25.25c0.67,0.45,1.07,2.01,1.2,2.91c0.13,0.89,0,39.68-0.13,45.27" style="fill:none;stroke:#999;stroke-width:3"></path>
<path d="M581.66,51.1c2.46-0.22,12.67-1.77,14.97-1.99" style="fill:none;stroke:#999;stroke-width:3"></path>

<path d="M673.63,18.73c1.52,0.54,4.3,0.63,5.82,0.54c15.8-0.91,45.3-3.52,60.61-4.23c2.53-0.12,4.05,0.26,5.31,0.53" style="fill:none;stroke:#999;stroke-width:3"></path>
<path d="M677.5,19.5c0.5,1.5,0.51,1.9,0.43,4.36C677.25,43.5,675.5,74.75,664.81,91.47" style="fill:none;stroke:#999;stroke-width:3"></path>
<path d="M681.21,38.92c1.23,0.15,3.29,0.85,3.88,0.79c5.32-0.64,18.79-2.47,25.32-3.01c0.96-0.08,2.42,0.15,2.9,0.31" style="fill:none;stroke:#999;stroke-width:3"></path>
<path d="M688.7,27.85c0.67,0.45,1.07,2.01,1.2,2.91c0.13,0.89,0,37.94-0.13,43.52" style="fill:none;stroke:#999;stroke-width:3"></path>
<path d="M704.79,25.25c0.67,0.45,1.07,2.01,1.2,2.91c0.13,0.89,0,39.68-0.13,45.27" style="fill:none;stroke:#999;stroke-width:3"></path>
<path d="M690.66,51.1c2.46-0.22,12.67-1.77,14.97-1.99" style="fill:none;stroke:#999;stroke-width:3"></path>
<path d="M690.51,62.72c2.77-0.22,11.75-1.54,14.98-1.99" style="fill:none;stroke:#999;stroke-width:3"></path>

<path d="M782.63,18.73c1.52,0.54,4.3,0.63,5.82,0.54c15.8-0.91,45.3-3.52,60.61-4.23c2.53-0.12,4.05,0.26,5.31,0.53" style="fill:none;stroke:#999;stroke-width:3"></path>
<path d="M786.5,19.5c0.5,1.5,0.51,1.9,0.43,4.36C786.25,43.5,784.5,74.75,773.81,91.47" style="fill:none;stroke:#999;stroke-width:3"></path>
<path d="M790.21,38.92c1.23,0.15,3.29,0.85,3.88,0.79c5.32-0.64,18.79-2.47,25.32-3.01c0.96-0.08,2.42,0.15,2.9,0.31" style="fill:none;stroke:#999;stroke-width:3"></path>
<path d="M797.7,27.85c0.67,0.45,1.07,2.01,1.2,2.91c0.13,0.89,0,37.94-0.13,43.52" style="fill:none;stroke:#999;stroke-width:3"></path>
<path d="M813.79,25.25c0.67,0.45,1.07,2.01,1.2,2.91c0.13,0.89,0,39.68-0.13,45.27" style="fill:none;stroke:#999;stroke-width:3"></path>
<path d="M799.66,51.1c2.46-0.22,12.67-1.77,14.97-1.99" style="fill:none;stroke:#999;stroke-width:3"></path>
<path d="M799.51,62.72c2.77-0.22,11.75-1.54,14.98-1.99" style="fill:none;stroke:#999;stroke-width:3"></path>
<path d="M785.13,76.19c1.19,0.06,2.37,0.09,3.22,0c6.46-0.64,22.58-2.28,31.85-3.14c1.4-0.13,2.24,0.23,2.94,0.46" style="fill:none;stroke:#999;stroke-width:3"></path>

<path d="M891.63,18.73c1.52,0.54,4.3,0.63,5.82,0.54c15.8-0.91,45.3-3.52,60.61-4.23c2.53-0.12,4.05,0.26,5.31,0.53" style="fill:none;stroke:#999;stroke-width:3"></path>
<path d="M895.5,19.5c0.5,1.5,0.51,1.9,0.43,4.36C895.25,43.5,893.5,74.75,882.81,91.47" style="fill:none;stroke:#999;stroke-width:3"></path>
<path d="M899.21,38.92c1.23,0.15,3.29,0.85,3.88,0.79c5.32-0.64,18.79-2.47,25.32-3.01c0.96-0.08,2.42,0.15,2.9,0.31" style="fill:none;stroke:#999;stroke-width:3"></path>
<path d="M906.7,27.85c0.67,0.45,1.07,2.01,1.2,2.91c0.13,0.89,0,37.94-0.13,43.52" style="fill:none;stroke:#999;stroke-width:3"></path>
<path d="M922.79,25.25c0.67,0.45,1.07,2.01,1.2,2.91c0.13,0.89,0,39.68-0.13,45.27" style="fill:none;stroke:#999;stroke-width:3"></path>
<path d="M908.66,51.1c2.46-0.22,12.67-1.77,14.97-1.99" style="fill:none;stroke:#999;stroke-width:3"></path>
<path d="M908.51,62.72c2.77-0.22,11.75-1.54,14.98-1.99" style="fill:none;stroke:#999;stroke-width:3"></path>
<path d="M894.13,76.19c1.19,0.06,2.37,0.09,3.22,0c6.46-0.64,22.58-2.28,31.85-3.14c1.4-0.13,2.24,0.23,2.94,0.46" style="fill:none;stroke:#999;stroke-width:3"></path>
<path d="M908.21,81.02c0.04,0.38,0.09,0.97-0.08,1.52c-1,3.2-6.74,10.21-14.59,14.51" style="fill:none;stroke:#999;stroke-width:3"></path>

<path d="M1000.63,18.73c1.52,0.54,4.3,0.63,5.82,0.54c15.8-0.91,45.3-3.52,60.61-4.23c2.53-0.12,4.05,0.26,5.31,0.53" style="fill:none;stroke:#999;stroke-width:3"></path>
<path d="M1004.5,19.5c0.5,1.5,0.51,1.9,0.43,4.36C1004.25,43.5,1002.5,74.75,991.81,91.47" style="fill:none;stroke:#999;stroke-width:3"></path>
<path d="M1008.21,38.92c1.23,0.15,3.29,0.85,3.88,0.79c5.32-0.64,18.79-2.47,25.32-3.01c0.96-0.08,2.42,0.15,2.9,0.31" style="fill:none;stroke:#999;stroke-width:3"></path>
<path d="M1015.7,27.85c0.67,0.45,1.07,2.01,1.2,2.91c0.13,0.89,0,37.94-0.13,43.52" style="fill:none;stroke:#999;stroke-width:3"></path>
<path d="M1031.79,25.25c0.67,0.45,1.07,2.01,1.2,2.91c0.13,0.89,0,39.68-0.13,45.27" style="fill:none;stroke:#999;stroke-width:3"></path>
<path d="M1017.66,51.1c2.46-0.22,12.67-1.77,14.97-1.99" style="fill:none;stroke:#999;stroke-width:3"></path>
<path d="M1017.51,62.72c2.77-0.22,11.75-1.54,14.98-1.99" style="fill:none;stroke:#999;stroke-width:3"></path>
<path d="M1003.13,76.19c1.19,0.06,2.37,0.09,3.22,0c6.46-0.64,22.58-2.28,31.85-3.14c1.4-0.13,2.24,0.23,2.94,0.46" style="fill:none;stroke:#999;stroke-width:3"></path>
<path d="M1017.21,81.02c0.04,0.38,0.09,0.97-0.08,1.52c-1,3.2-6.74,10.21-14.59,14.51" style="fill:none;stroke:#999;stroke-width:3"></path>
<path d="M1029.1,80.74c2.62,1.82,6.77,7.47,7.43,10.3" style="fill:none;stroke:#999;stroke-width:3"></path>

<path d="M1109.63,18.73c1.52,0.54,4.3,0.63,5.82,0.54c15.8-0.91,45.3-3.52,60.61-4.23c2.53-0.12,4.05,0.26,5.31,0.53" style="fill:none;stroke:#999;stroke-width:3"></path>
<path d="M1113.5,19.5c0.5,1.5,0.51,1.9,0.43,4.36C1113.25,43.5,1111.5,74.75,1100.81,91.47" style="fill:none;stroke:#999;stroke-width:3"></path>
<path d="M1117.21,38.92c1.23,0.15,3.29,0.85,3.88,0.79c5.32-0.64,18.79-2.47,25.32-3.01c0.96-0.08,2.42,0.15,2.9,0.31" style="fill:none;stroke:#999;stroke-width:3"></path>
<path d="M1124.7,27.85c0.67,0.45,1.07,2.01,1.2,2.91c0.13,0.89,0,37.94-0.13,43.52" style="fill:none;stroke:#999;stroke-width:3"></path>
<path d="M1140.79,25.25c0.67,0.45,1.07,2.01,1.2,2.91c0.13,0.89,0,39.68-0.13,45.27" style="fill:none;stroke:#999;stroke-width:3"></path>
<path d="M1126.6599999999999,51.1c2.46-0.22,12.67-1.77,14.97-1.99" style="fill:none;stroke:#999;stroke-width:3"></path>
<path d="M1126.51,62.72c2.77-0.22,11.75-1.54,14.98-1.99" style="fill:none;stroke:#999;stroke-width:3"></path>
<path d="M1112.13,76.19c1.19,0.06,2.37,0.09,3.22,0c6.46-0.64,22.58-2.28,31.85-3.14c1.4-0.13,2.24,0.23,2.94,0.46" style="fill:none;stroke:#999;stroke-width:3"></path>
<path d="M1126.21,81.02c0.04,0.38,0.09,0.97-0.08,1.52c-1,3.2-6.74,10.21-14.59,14.51" style="fill:none;stroke:#999;stroke-width:3"></path>
<path d="M1138.1,80.74c2.62,1.82,6.77,7.47,7.43,10.3" style="fill:none;stroke:#999;stroke-width:3"></path>
<path d="M1177.3,24.37c0.05,0.36,0.2,1.05-0.09,1.43c-3.92,5.22-8.93,9.18-17.19,13.67" style="fill:none;stroke:#999;stroke-width:3"></path>

<path d="M1218.63,18.73c1.52,0.54,4.3,0.63,5.82,0.54c15.8-0.91,45.3-3.52,60.61-4.23c2.53-0.12,4.05,0.26,5.31,0.53" style="fill:none;stroke:#999;stroke-width:3"></path>
<path d="M1222.5,19.5c0.5,1.5,0.51,1.9,0.43,4.36C1222.25,43.5,1220.5,74.75,1209.81,91.47" style="fill:none;stroke:#999;stroke-width:3"></path>
<path d="M1226.21,38.92c1.23,0.15,3.29,0.85,3.88,0.79c5.32-0.64,18.79-2.47,25.32-3.01c0.96-0.08,2.42,0.15,2.9,0.31" style="fill:none;stroke:#999;stroke-width:3"></path>
<path d="M1233.7,27.85c0.67,0.45,1.07,2.01,1.2,2.91c0.13,0.89,0,37.94-0.13,43.52" style="fill:none;stroke:#999;stroke-width:3"></path>
<path d="M1249.79,25.25c0.67,0.45,1.07,2.01,1.2,2.91c0.13,0.89,0,39.68-0.13,45.27" style="fill:none;stroke:#999;stroke-width:3"></path>
<path d="M1235.6599999999999,51.1c2.46-0.22,12.67-1.77,14.97-1.99" style="fill:none;stroke:#999;stroke-width:3"></path>
<path d="M1235.51,62.72c2.77-0.22,11.75-1.54,14.98-1.99" style="fill:none;stroke:#999;stroke-width:3"></path>
<path d="M1221.13,76.19c1.19,0.06,2.37,0.09,3.22,0c6.46-0.64,22.58-2.28,31.85-3.14c1.4-0.13,2.24,0.23,2.94,0.46" style="fill:none;stroke:#999;stroke-width:3"></path>
<path d="M1235.21,81.02c0.04,0.38,0.09,0.97-0.08,1.52c-1,3.2-6.74,10.21-14.59,14.51" style="fill:none;stroke:#999;stroke-width:3"></path>
<path d="M1247.1,80.74c2.62,1.82,6.77,7.47,7.43,10.3" style="fill:none;stroke:#999;stroke-width:3"></path>
<path d="M1286.3,24.37c0.05,0.36,0.2,1.05-0.09,1.43c-3.92,5.22-8.93,9.18-17.19,13.67" style="fill:none;stroke:#999;stroke-width:3"></path>
<path d="M1265.68,39.35c1.02,1.62,1,3.17,1,4.93c0,22.47-1.82,41.5-9.24,49.66" style="fill:none;stroke:#999;stroke-width:3"></path>

<path d="M1327.63,18.73c1.52,0.54,4.3,0.63,5.82,0.54c15.8-0.91,45.3-3.52,60.61-4.23c2.53-0.12,4.05,0.26,5.31,0.53" style="fill:none;stroke:#999;stroke-width:3"></path>
<path d="M1331.5,19.5c0.5,1.5,0.51,1.9,0.43,4.36C1331.25,43.5,1329.5,74.75,1318.81,91.47" style="fill:none;stroke:#999;stroke-width:3"></path>
<path d="M1335.21,38.92c1.23,0.15,3.29,0.85,3.88,0.79c5.32-0.64,18.79-2.47,25.32-3.01c0.96-0.08,2.42,0.15,2.9,0.31" style="fill:none;stroke:#999;stroke-width:3"></path>
<path d="M1342.7,27.85c0.67,0.45,1.07,2.01,1.2,2.91c0.13,0.89,0,37.94-0.13,43.52" style="fill:none;stroke:#999;stroke-width:3"></path>
<path d="M1358.79,25.25c0.67,0.45,1.07,2.01,1.2,2.91c0.13,0.89,0,39.68-0.13,45.27" style="fill:none;stroke:#999;stroke-width:3"></path>
<path d="M1344.6599999999999,51.1c2.46-0.22,12.67-1.77,14.97-1.99" style="fill:none;stroke:#999;stroke-width:3"></path>
<path d="M1344.51,62.72c2.77-0.22,11.75-1.54,14.98-1.99" style="fill:none;stroke:#999;stroke-width:3"></path>
<path d="M1330.13,76.19c1.19,0.06,2.37,0.09,3.22,0c6.46-0.64,22.58-2.28,31.85-3.14c1.4-0.13,2.24,0.23,2.94,0.46" style="fill:none;stroke:#999;stroke-width:3"></path>
<path d="M1344.21,81.02c0.04,0.38,0.09,0.97-0.08,1.52c-1,3.2-6.74,10.21-14.59,14.51" style="fill:none;stroke:#999;stroke-width:3"></path>
<path d="M1356.1,80.74c2.62,1.82,6.77,7.47,7.43,10.3" style="fill:none;stroke:#999;stroke-width:3"></path>
<path d="M1395.3,24.37c0.05,0.36,0.2,1.05-0.09,1.43c-3.92,5.22-8.93,9.18-17.19,13.67" style="fill:none;stroke:#999;stroke-width:3"></path>
<path d="M1374.68,39.35c1.02,1.62,1,3.17,1,4.93c0,22.47-1.82,41.5-9.24,49.66" style="fill:none;stroke:#999;stroke-width:3"></path>
<path d="M1376.81,50.34c0.3,0.16,1.48,0.27,2.28,0.09c4.4-1,17.71-2.49,22.71-2.99c0.8-0.08,2.19-0.16,2.7,0" style="fill:none;stroke:#999;stroke-width:3"></path>

<path d="M1436.63,18.73c1.52,0.54,4.3,0.63,5.82,0.54c15.8-0.91,45.3-3.52,60.61-4.23c2.53-0.12,4.05,0.26,5.31,0.53" style="fill:none;stroke:#999;stroke-width:3"></path>
<path d="M1440.5,19.5c0.5,1.5,0.51,1.9,0.43,4.36C1440.25,43.5,1438.5,74.75,1427.81,91.47" style="fill:none;stroke:#999;stroke-width:3"></path>
<path d="M1444.21,38.92c1.23,0.15,3.29,0.85,3.88,0.79c5.32-0.64,18.79-2.47,25.32-3.01c0.96-0.08,2.42,0.15,2.9,0.31" style="fill:none;stroke:#999;stroke-width:3"></path>
<path d="M1451.7,27.85c0.67,0.45,1.07,2.01,1.2,2.91c0.13,0.89,0,37.94-0.13,43.52" style="fill:none;stroke:#999;stroke-width:3"></path>
<path d="M1467.79,25.25c0.67,0.45,1.07,2.01,1.2,2.91c0.13,0.89,0,39.68-0.13,45.27" style="fill:none;stroke:#999;stroke-width:3"></path>
<path d="M1453.6599999999999,51.1c2.46-0.22,12.67-1.77,14.97-1.99" style="fill:none;stroke:#999;stroke-width:3"></path>
<path d="M1453.51,62.72c2.77-0.22,11.75-1.54,14.98-1.99" style="fill:none;stroke:#999;stroke-width:3"></path>
<path d="M1439.13,76.19c1.19,0.06,2.37,0.09,3.22,0c6.46-0.64,22.58-2.28,31.85-3.14c1.4-0.13,2.24,0.23,2.94,0.46" style="fill:none;stroke:#999;stroke-width:3"></path>
<path d="M1453.21,81.02c0.04,0.38,0.09,0.97-0.08,1.52c-1,3.2-6.74,10.21-14.59,14.51" style="fill:none;stroke:#999;stroke-width:3"></path>
<path d="M1465.1,80.74c2.62,1.82,6.77,7.47,7.43,10.3" style="fill:none;stroke:#999;stroke-width:3"></path>
<path d="M1504.3,24.37c0.05,0.36,0.2,1.05-0.09,1.43c-3.92,5.22-8.93,9.18-17.19,13.67" style="fill:none;stroke:#999;stroke-width:3"></path>
<path d="M1483.68,39.35c1.02,1.62,1,3.17,1,4.93c0,22.47-1.82,41.5-9.24,49.66" style="fill:none;stroke:#999;stroke-width:3"></path>
<path d="M1485.81,50.34c0.3,0.16,1.48,0.27,2.28,0.09c4.4-1,17.71-2.49,22.71-2.99c0.8-0.08,2.19-0.16,2.7,0" style="fill:none;stroke:#999;stroke-width:3"></path>
<path d="M1500.06,51.01c0.65,0.5,1.04,2.25,1.17,3.25s0,38.74-0.13,44.99" style="fill:none;stroke:#999;stroke-width:3"></path>

</svg>