<svg width="436px" height="109px" viewBox="0 0 436 109" xmlns="http://www.w3.org/2000/svg" xmlns:xlink="http://www.w3.org/1999/xlink" xml:space="preserve" version="1.1" baseProfile="full">
<line x1="1" y1="1" x2="435" y2="1" style="stroke:#ddd;stroke-width:2"></line>
<line x1="1" y1="1" x2="1" y2="108" style="stroke:#ddd;stroke-width:2"></line>
<line x1="1" y1="108" x2="435" y2="108" style="stroke:#ddd;stroke-width:2"></line>
<line x1="435" y1="1" x2="435" y2="108" style="stroke:#ddd;stroke-width:2"></line>
<line x1="109" y1="1" x2="109" y2="108" style="stroke:#ddd;stroke-width:2"></line>
<line x1="218" y1="1" x2="218" y2="108" style="stroke:#ddd;stroke-width:2"></line>
<line x1="327" y1="1" x2="327" y2="108" style="stroke:#ddd;stroke-width:2"></line>
<line x1="1" y1="54" x2="435" y2="54" style="stroke:#ddd;stroke-width:2;stroke-dasharray:3 3"></line>
<line x1="55" y1="1" x2="55" y2="108" style="stroke:#ddd;stroke-width:2;stroke-dasharray:3 3"></line>
<line x1="164" y1="1" x2="164" y2="108" style="stroke:#ddd;stroke-width:2;stroke-dasharray:3 3"></line>
<line x1="273" y1="1" x2="273" y2="108" style="stroke:#ddd;stroke-width:2;stroke-dasharray:3 3"></line>
<line x1="382" y1="1" x2="382" y2="108" style="stroke:#ddd;stroke-width:2;stroke-dasharray:3 3"></line>
<path d="M28.13,22.29c1.84,0.48,5.22,0.64,7.06,0.48C50.0,21.5,64.62,19.12,79.06,18.04c3.06-0.23,4.91-0.02,6.44,0.22" style="fill:none;stroke:#999;stroke-width:3"></path>

<path d="M137.13,22.29c1.84,0.48,5.22,0.64,7.06,0.48C159.0,21.5,173.62,19.12,188.06,18.04c3.06-0.23,4.91-0.02,6.44,0.22" style="fill:none;stroke:#999;stroke-width:3"></path>
<path d="M140.24,23c1.13,1.13,1.49,2.69,1.4,4.89C140.75,50,138.62,73.25,124.81,89.47" style="fill:none;stroke:#999;stroke-width:3"></path>

<path d="M246.13,22.29c1.84,0.48,5.22,0.64,7.06,0.48C268.0,21.5,282.62,19.12,297.06,18.04c3.06-0.23,4.91-0.02,6.44,0.22" style="fill:none;stroke:#999;stroke-width:3"></path>
<path d="M249.24,23c1.13,1.13,1.49,2.69,1.4,4.89C249.75,50,247.62,73.25,233.81,89.47" style="fill:none;stroke:#999;stroke-width:3"></path>
<path d="M253.09,43.98c1.81,0.37,2.76,0.74,6.4,0.37C267.88,43.5,284.25,40,288.83,38.7c3.42-0.97,5.17,1.43,3.89,4.31C282.06,66.95,269.88,83.25,244.0,93.51" style="fill:none;stroke:#999;stroke-width:3"></path>

<path d="M355.13,22.29c1.84,0.48,5.22,0.64,7.06,0.48C377.0,21.5,391.62,19.12,406.06,18.04c3.06-0.23,4.91-0.02,6.44,0.22" style="fill:none;stroke:#999;stroke-width:3"></path>
<path d="M358.24,23c1.13,1.13,1.49,2.69,1.4,4.89C358.75,50,356.62,73.25,342.81,89.47" style="fill:none;stroke:#999;stroke-width:3"></path>
<path d="M362.09000000000003,43.98c1.81,0.37,2.76,0.74,6.4,0.37C376.88,43.5,393.25,40,397.83,38.7c3.42-0.97,5.17,1.43,3.89,4.31C391.06,66.95,378.88,83.25,353.0,93.51" style="fill:none;stroke:#999;stroke-width:3"></path>
<path d="M364.5,52.82c5.09,0.96,28.95,25.78,46.67,36.36c2.76,1.65,4.77,2.74,7.33,3.29" style="fill:none;stroke:#999;stroke-width:3"></path>

</svg>