<svg width="545px" height="109px" viewBox="0 0 545 109" xmlns="http://www.w3.org/2000/svg" xmlns:xlink="http://www.w3.org/1999/xlink" xml:space="preserve" version="1.1" baseProfile="full">
<line x1="1" y1="1" x2="544" y2="1" style="stroke:#ddd;stroke-width:2"></line>
<line x1="1" y1="1" x2="1" y2="108" style="stroke:#ddd;stroke-width:2"></line>
<line x1="1" y1="108" x2="544" y2="108" style="stroke:#ddd;stroke-width:2"></line>
<line x1="544" y1="1" x2="544" y2="108" style="stroke:#ddd;stroke-width:2"></line>
<line x1="109" y1="1" x2="109" y2="108" style="stroke:#ddd;stroke-width:2"></line>
<line x1="218" y1="1" x2="218" y2="108" style="stroke:#ddd;stroke-width:2"></line>
<line x1="327" y1="1" x2="327" y2="108" style="stroke:#ddd;stroke-width:2"></line>
<line x1="436" y1="1" x2="436" y2="108" style="stroke:#ddd;stroke-width:2"></line>
<line x1="1" y1="54" x2="544" y2="54" style="stroke:#ddd;stroke-width:2;stroke-dasharray:3 3"></line>
<line x1="55" y1="1" x2="55" y2="108" style="stroke:#ddd;stroke-width:2;stroke-dasharray:3 3"></line>
<line x1="164" y1="1" x2="164" y2="108" style="stroke:#ddd;stroke-width:2;stroke-dasharray:3 3"></line>
<line x1="273" y1="1" x2="273" y2="108" style="stroke:#ddd;stroke-width:2;stroke-dasharray:3 3"></line>
<line x1="382" y1="1" x2="382" y2="108" style="stroke:#ddd;stroke-width:2;stroke-dasharray:3 3"></line>
<line x1="491" y1="1" x2="491" y2="108" style="stroke:#ddd;stroke-width:2;stroke-dasharray:3 3"></line>
<path d="M11.25,43.25c2.75,0.62,5.54,0.83,9.53,0.5c23.85-2,49.47-4.12,67.35-4.75c4.02-0.14,6.87,0,9.12,0.5" style="fill:none;stroke:#999;stroke-width:3"></path>

<path d="M120.25,43.25c2.75,0.62,5.54,0.83,9.53,0.5c23.85-2,49.47-4.12,67.35-4.75c4.02-0.14,6.87,0,9.12,0.5" style="fill:none;stroke:#999;stroke-width:3"></path>
<path d="M161.41,12.5c1.42,1.42,2.13,3.25,2.13,5.06c0,17.05-0.14,39.31-0.14,48.94" style="fill:none;stroke:#999;stroke-width:3"></path>

<path d="M229.25,43.25c2.75,0.62,5.54,0.83,9.53,0.5c23.85-2,49.47-4.12,67.35-4.75c4.02-0.14,6.87,0,9.12,0.5" style="fill:none;stroke:#999;stroke-width:3"></path>
<path d="M270.40999999999997,12.5c1.42,1.42,2.13,3.25,2.13,5.06c0,17.05-0.14,39.31-0.14,48.94" style="fill:none;stroke:#999;stroke-width:3"></path>
<path d="M249.0,67.77c1.12,1.12,2,2.73,2.24,4.48c0.61,4.43,1.87,12.12,3.22,20.93c0.2,1.31,0.39,2.59,0.57,3.83" style="fill:none;stroke:#999;stroke-width:3"></path>

<path d="M338.25,43.25c2.75,0.62,5.54,0.83,9.53,0.5c23.85-2,49.47-4.12,67.35-4.75c4.02-0.14,6.87,0,9.12,0.5" style="fill:none;stroke:#999;stroke-width:3"></path>
<path d="M379.40999999999997,12.5c1.42,1.42,2.13,3.25,2.13,5.06c0,17.05-0.14,39.31-0.14,48.94" style="fill:none;stroke:#999;stroke-width:3"></path>
<path d="M358.0,67.77c1.12,1.12,2,2.73,2.24,4.48c0.61,4.43,1.87,12.12,3.22,20.93c0.2,1.31,0.39,2.59,0.57,3.83" style="fill:none;stroke:#999;stroke-width:3"></path>
<path d="M360.77,69.3c11.97-1.17,36.4-3.39,42.99-3.81c3.74-0.24,5.11,1.39,4.26,4.71c-1.18,4.63-3.81,13.6-5.23,20.06" style="fill:none;stroke:#999;stroke-width:3"></path>

<path d="M447.25,43.25c2.75,0.62,5.54,0.83,9.53,0.5c23.85-2,49.47-4.12,67.35-4.75c4.02-0.14,6.87,0,9.12,0.5" style="fill:none;stroke:#999;stroke-width:3"></path>
<path d="M488.40999999999997,12.5c1.42,1.42,2.13,3.25,2.13,5.06c0,17.05-0.14,39.31-0.14,48.94" style="fill:none;stroke:#999;stroke-width:3"></path>
<path d="M467.0,67.77c1.12,1.12,2,2.73,2.24,4.48c0.61,4.43,1.87,12.12,3.22,20.93c0.2,1.31,0.39,2.59,0.57,3.83" style="fill:none;stroke:#999;stroke-width:3"></path>
<path d="M469.77,69.3c11.97-1.17,36.4-3.39,42.99-3.81c3.74-0.24,5.11,1.39,4.26,4.71c-1.18,4.63-3.81,13.6-5.23,20.06" style="fill:none;stroke:#999;stroke-width:3"></path>
<path d="M473.88,94.42c7.81-0.36,23.99-1.88,35.14-2.65c1.87-0.13,3.61-0.24,5.18-0.32" style="fill:none;stroke:#999;stroke-width:3"></path>

</svg>