<svg width="545px" height="109px" viewBox="0 0 545 109" xmlns="http://www.w3.org/2000/svg" xmlns:xlink="http://www.w3.org/1999/xlink" xml:space="preserve" version="1.1" baseProfile="full">
<line x1="1" y1="1" x2="544" y2="1" style="stroke:#ddd;stroke-width:2"></line>
<line x1="1" y1="1" x2="1" y2="108" style="stroke:#ddd;stroke-width:2"></line>
<line x1="1" y1="108" x2="544" y2="108" style="stroke:#ddd;stroke-width:2"></line>
<line x1="544" y1="1" x2="544" y2="108" style="stroke:#ddd;stroke-width:2"></line>
<line x1="109" y1="1" x2="109" y2="108" style="stroke:#ddd;stroke-width:2"></line>
<line x1="218" y1="1" x2="218" y2="108" style="stroke:#ddd;stroke-width:2"></line>
<line x1="327" y1="1" x2="327" y2="108" style="stroke:#ddd;stroke-width:2"></line>
<line x1="436" y1="1" x2="436" y2="108" style="stroke:#ddd;stroke-width:2"></line>
<line x1="1" y1="54" x2="544" y2="54" style="stroke:#ddd;stroke-width:2;stroke-dasharray:3 3"></line>
<line x1="55" y1="1" x2="55" y2="108" style="stroke:#ddd;stroke-width:2;stroke-dasharray:3 3"></line>
<line x1="164" y1="1" x2="164" y2="108" style="stroke:#ddd;stroke-width:2;stroke-dasharray:3 3"></line>
<line x1="273" y1="1" x2="273" y2="108" style="stroke:#ddd;stroke-width:2;stroke-dasharray:3 3"></line>
<line x1="382" y1="1" x2="382" y2="108" style="stroke:#ddd;stroke-width:2;stroke-dasharray:3 3"></line>
<line x1="491" y1="1" x2="491" y2="108" style="stroke:#ddd;stroke-width:2;stroke-dasharray:3 3"></line>
<path d="M13.25,33.29c0.37,0.51,0.76,0.94,0.92,1.58C15.46,39.93,17.51,53.9,18.4,63" style="fill:none;stroke:#999;stroke-width:3"></path>

<path d="M122.25,33.29c0.37,0.51,0.76,0.94,0.92,1.58C124.46000000000001,39.93,126.51,53.9,127.4,63" style="fill:none;stroke:#999;stroke-width:3"></path>
<path d="M123.58,35.22c7.42-1.47,18.55-3.06,22.92-3.73c1.6-0.24,2.56,1.44,2.33,2.87c-0.95,5.92-3.05,15.07-4.46,23.25" style="fill:none;stroke:#999;stroke-width:3"></path>

<path d="M231.25,33.29c0.37,0.51,0.76,0.94,0.92,1.58C233.46,39.93,235.51,53.9,236.4,63" style="fill:none;stroke:#999;stroke-width:3"></path>
<path d="M232.57999999999998,35.22c7.42-1.47,18.55-3.06,22.92-3.73c1.6-0.24,2.56,1.44,2.33,2.87c-0.95,5.92-3.05,15.07-4.46,23.25" style="fill:none;stroke:#999;stroke-width:3"></path>
<path d="M236.57,60.05c5.14-0.75,11.68-1.55,19.39-2.21" style="fill:none;stroke:#999;stroke-width:3"></path>

<path d="M340.25,33.29c0.37,0.51,0.76,0.94,0.92,1.58C342.46000000000004,39.93,344.51,53.9,345.4,63" style="fill:none;stroke:#999;stroke-width:3"></path>
<path d="M341.58,35.22c7.42-1.47,18.55-3.06,22.92-3.73c1.6-0.24,2.56,1.44,2.33,2.87c-0.95,5.92-3.05,15.07-4.46,23.25" style="fill:none;stroke:#999;stroke-width:3"></path>
<path d="M345.57,60.05c5.14-0.75,11.68-1.55,19.39-2.21" style="fill:none;stroke:#999;stroke-width:3"></path>
<path d="M370.90999999999997,22.83c1.36,0.39,3.86,0.48,5.22,0.39c13.94-1.01,27.94-3.63,44.69-4.13c2.27-0.07,3.63,0.18,4.76,0.38" style="fill:none;stroke:#999;stroke-width:3"></path>

<path d="M449.25,33.29c0.37,0.51,0.76,0.94,0.92,1.58C451.46000000000004,39.93,453.51,53.9,454.4,63" style="fill:none;stroke:#999;stroke-width:3"></path>
<path d="M450.58,35.22c7.42-1.47,18.55-3.06,22.92-3.73c1.6-0.24,2.56,1.44,2.33,2.87c-0.95,5.92-3.05,15.07-4.46,23.25" style="fill:none;stroke:#999;stroke-width:3"></path>
<path d="M454.57,60.05c5.14-0.75,11.68-1.55,19.39-2.21" style="fill:none;stroke:#999;stroke-width:3"></path>
<path d="M479.90999999999997,22.83c1.36,0.39,3.86,0.48,5.22,0.39c13.94-1.01,27.94-3.63,44.69-4.13c2.27-0.07,3.63,0.18,4.76,0.38" style="fill:none;stroke:#999;stroke-width:3"></path>
<path d="M508.35,24.21c0.09,0.51,1.79,2.68,1.79,5.95c0,19.59-0.26,55.82-0.26,61.17c0,12.11-8.24,0.55-9.78-0.8" style="fill:none;stroke:#999;stroke-width:3"></path>

</svg>