<svg width="545px" height="109px" viewBox="0 0 545 109" xmlns="http://www.w3.org/2000/svg" xmlns:xlink="http://www.w3.org/1999/xlink" xml:space="preserve" version="1.1" baseProfile="full">
<line x1="1" y1="1" x2="544" y2="1" style="stroke:#ddd;stroke-width:2"></line>
<line x1="1" y1="1" x2="1" y2="108" style="stroke:#ddd;stroke-width:2"></line>
<line x1="1" y1="108" x2="544" y2="108" style="stroke:#ddd;stroke-width:2"></line>
<line x1="544" y1="1" x2="544" y2="108" style="stroke:#ddd;stroke-width:2"></line>
<line x1="109" y1="1" x2="109" y2="108" style="stroke:#ddd;stroke-width:2"></line>
<line x1="218" y1="1" x2="218" y2="108" style="stroke:#ddd;stroke-width:2"></line>
<line x1="327" y1="1" x2="327" y2="108" style="stroke:#ddd;stroke-width:2"></line>
<line x1="436" y1="1" x2="436" y2="108" style="stroke:#ddd;stroke-width:2"></line>
<line x1="1" y1="54" x2="544" y2="54" style="stroke:#ddd;stroke-width:2;stroke-dasharray:3 3"></line>
<line x1="55" y1="1" x2="55" y2="108" style="stroke:#ddd;stroke-width:2;stroke-dasharray:3 3"></line>
<line x1="164" y1="1" x2="164" y2="108" style="stroke:#ddd;stroke-width:2;stroke-dasharray:3 3"></line>
<line x1="273" y1="1" x2="273" y2="108" style="stroke:#ddd;stroke-width:2;stroke-dasharray:3 3"></line>
<line x1="382" y1="1" x2="382" y2="108" style="stroke:#ddd;stroke-width:2;stroke-dasharray:3 3"></line>
<line x1="491" y1="1" x2="491" y2="108" style="stroke:#ddd;stroke-width:2;stroke-dasharray:3 3"></line>
<path d="M13.39,31.17c0.92,1.16,1.11,1.82,1.37,3.33c0.96,5.52,2.08,14.2,3.08,22.02c0.25,1.92,0.49,3.77,0.72,5.49" style="fill:none;stroke:#999;stroke-width:3"></path>

<path d="M122.39,31.17c0.92,1.16,1.11,1.82,1.37,3.33c0.96,5.52,2.08,14.2,3.08,22.02c0.25,1.92,0.49,3.77,0.72,5.49" style="fill:none;stroke:#999;stroke-width:3"></path>
<path d="M124.37,32.52c8.27-1.04,13.2-1.65,20.63-2.59c4.31-0.54,5.42,0.41,4.7,4.66c-0.9,5.28-1.62,12.7-2.63,22.33" style="fill:none;stroke:#999;stroke-width:3"></path>

<path d="M231.39,31.17c0.92,1.16,1.11,1.82,1.37,3.33c0.96,5.52,2.08,14.2,3.08,22.02c0.25,1.92,0.49,3.77,0.72,5.49" style="fill:none;stroke:#999;stroke-width:3"></path>
<path d="M233.37,32.52c8.27-1.04,13.2-1.65,20.63-2.59c4.31-0.54,5.42,0.41,4.7,4.66c-0.9,5.28-1.62,12.7-2.63,22.33" style="fill:none;stroke:#999;stroke-width:3"></path>
<path d="M237.47,59.24c4.65-0.52,10.89-1.22,15.78-1.48c1.47-0.08,2.81-0.13,3.96-0.17" style="fill:none;stroke:#999;stroke-width:3"></path>

<path d="M340.39,31.17c0.92,1.16,1.11,1.82,1.37,3.33c0.96,5.52,2.08,14.2,3.08,22.02c0.25,1.92,0.49,3.77,0.72,5.49" style="fill:none;stroke:#999;stroke-width:3"></path>
<path d="M342.37,32.52c8.27-1.04,13.2-1.65,20.63-2.59c4.31-0.54,5.42,0.41,4.7,4.66c-0.9,5.28-1.62,12.7-2.63,22.33" style="fill:none;stroke:#999;stroke-width:3"></path>
<path d="M346.47,59.24c4.65-0.52,10.89-1.22,15.78-1.48c1.47-0.08,2.81-0.13,3.96-0.17" style="fill:none;stroke:#999;stroke-width:3"></path>
<path d="M372.5,45.25c2.64,1.01,5.13,0.67,7.88,0.39c10.55-1.08,27.07-3.17,37-3.56c2.71-0.11,5.47,0.06,8.13,0.68" style="fill:none;stroke:#999;stroke-width:3"></path>

<path d="M449.39,31.17c0.92,1.16,1.11,1.82,1.37,3.33c0.96,5.52,2.08,14.2,3.08,22.02c0.25,1.92,0.49,3.77,0.72,5.49" style="fill:none;stroke:#999;stroke-width:3"></path>
<path d="M451.37,32.52c8.27-1.04,13.2-1.65,20.63-2.59c4.31-0.54,5.42,0.41,4.7,4.66c-0.9,5.28-1.62,12.7-2.63,22.33" style="fill:none;stroke:#999;stroke-width:3"></path>
<path d="M455.47,59.24c4.65-0.52,10.89-1.22,15.78-1.48c1.47-0.08,2.81-0.13,3.96-0.17" style="fill:none;stroke:#999;stroke-width:3"></path>
<path d="M481.5,45.25c2.64,1.01,5.13,0.67,7.88,0.39c10.55-1.08,27.07-3.17,37-3.56c2.71-0.11,5.47,0.06,8.13,0.68" style="fill:none;stroke:#999;stroke-width:3"></path>
<path d="M507.12,12.75c1.07,1.06,1.21,2.38,1.21,4c0,9.59,0.03,61.62,0.03,71c0,3.88,0,7.14,0,9.5" style="fill:none;stroke:#999;stroke-width:3"></path>

</svg>