<svg width="545px" height="109px" viewBox="0 0 545 109" xmlns="http://www.w3.org/2000/svg" xmlns:xlink="http://www.w3.org/1999/xlink" xml:space="preserve" version="1.1" baseProfile="full">
<line x1="1" y1="1" x2="544" y2="1" style="stroke:#ddd;stroke-width:2"></line>
<line x1="1" y1="1" x2="1" y2="108" style="stroke:#ddd;stroke-width:2"></line>
<line x1="1" y1="108" x2="544" y2="108" style="stroke:#ddd;stroke-width:2"></line>
<line x1="544" y1="1" x2="544" y2="108" style="stroke:#ddd;stroke-width:2"></line>
<line x1="109" y1="1" x2="109" y2="108" style="stroke:#ddd;stroke-width:2"></line>
<line x1="218" y1="1" x2="218" y2="108" style="stroke:#ddd;stroke-width:2"></line>
<line x1="327" y1="1" x2="327" y2="108" style="stroke:#ddd;stroke-width:2"></line>
<line x1="436" y1="1" x2="436" y2="108" style="stroke:#ddd;stroke-width:2"></line>
<line x1="1" y1="54" x2="544" y2="54" style="stroke:#ddd;stroke-width:2;stroke-dasharray:3 3"></line>
<line x1="55" y1="1" x2="55" y2="108" style="stroke:#ddd;stroke-width:2;stroke-dasharray:3 3"></line>
<line x1="164" y1="1" x2="164" y2="108" style="stroke:#ddd;stroke-width:2;stroke-dasharray:3 3"></line>
<line x1="273" y1="1" x2="273" y2="108" style="stroke:#ddd;stroke-width:2;stroke-dasharray:3 3"></line>
<line x1="382" y1="1" x2="382" y2="108" style="stroke:#ddd;stroke-width:2;stroke-dasharray:3 3"></line>
<line x1="491" y1="1" x2="491" y2="108" style="stroke:#ddd;stroke-width:2;stroke-dasharray:3 3"></line>
<path d="M10.25,33.29c0.37,0.51,0.76,0.94,0.92,1.58c1.29,5.07,3.34,18.54,4.23,27.63" style="fill:none;stroke:#999;stroke-width:3"></path>

<path d="M119.25,33.29c0.37,0.51,0.76,0.94,0.92,1.58c1.29,5.07,3.34,18.54,4.23,27.63" style="fill:none;stroke:#999;stroke-width:3"></path>
<path d="M121.58,35.72c9.17-2.22,16.55-3.06,20.92-3.73c1.6-0.24,2.56,1.44,2.33,2.87c-0.95,5.92-3.05,12.57-4.46,20.75" style="fill:none;stroke:#999;stroke-width:3"></path>

<path d="M228.25,33.29c0.37,0.51,0.76,0.94,0.92,1.58c1.29,5.07,3.34,18.54,4.23,27.63" style="fill:none;stroke:#999;stroke-width:3"></path>
<path d="M230.57999999999998,35.72c9.17-2.22,16.55-3.06,20.92-3.73c1.6-0.24,2.56,1.44,2.33,2.87c-0.95,5.92-3.05,12.57-4.46,20.75" style="fill:none;stroke:#999;stroke-width:3"></path>
<path d="M233.57,58.55c5.14-0.75,11.33-1.05,18.39-2.21" style="fill:none;stroke:#999;stroke-width:3"></path>

<path d="M337.25,33.29c0.37,0.51,0.76,0.94,0.92,1.58c1.29,5.07,3.34,18.54,4.23,27.63" style="fill:none;stroke:#999;stroke-width:3"></path>
<path d="M339.58,35.72c9.17-2.22,16.55-3.06,20.92-3.73c1.6-0.24,2.56,1.44,2.33,2.87c-0.95,5.92-3.05,12.57-4.46,20.75" style="fill:none;stroke:#999;stroke-width:3"></path>
<path d="M342.57,58.55c5.14-0.75,11.33-1.05,18.39-2.21" style="fill:none;stroke:#999;stroke-width:3"></path>
<path d="M389.38,39.5c-5.83,17.25-21,41.66-33.13,51.42" style="fill:none;stroke:#999;stroke-width:3"></path>

<path d="M446.25,33.29c0.37,0.51,0.76,0.94,0.92,1.58c1.29,5.07,3.34,18.54,4.23,27.63" style="fill:none;stroke:#999;stroke-width:3"></path>
<path d="M448.58,35.72c9.17-2.22,16.55-3.06,20.92-3.73c1.6-0.24,2.56,1.44,2.33,2.87c-0.95,5.92-3.05,12.57-4.46,20.75" style="fill:none;stroke:#999;stroke-width:3"></path>
<path d="M451.57,58.55c5.14-0.75,11.33-1.05,18.39-2.21" style="fill:none;stroke:#999;stroke-width:3"></path>
<path d="M498.38,39.5c-5.83,17.25-21,41.66-33.13,51.42" style="fill:none;stroke:#999;stroke-width:3"></path>
<path d="M485.48,14.25c1.65,0,3.27,1.98,3.92,3.64c9.68,24.92,23.1,52.61,40.48,70c1.67,1.67,2.68,2.8,4.12,3.36" style="fill:none;stroke:#999;stroke-width:3"></path>

</svg>