<svg width="654px" height="109px" viewBox="0 0 654 109" xmlns="http://www.w3.org/2000/svg" xmlns:xlink="http://www.w3.org/1999/xlink" xml:space="preserve" version="1.1" baseProfile="full">
<line x1="1" y1="1" x2="653" y2="1" style="stroke:#ddd;stroke-width:2"></line>
<line x1="1" y1="1" x2="1" y2="108" style="stroke:#ddd;stroke-width:2"></line>
<line x1="1" y1="108" x2="653" y2="108" style="stroke:#ddd;stroke-width:2"></line>
<line x1="653" y1="1" x2="653" y2="108" style="stroke:#ddd;stroke-width:2"></line>
<line x1="109" y1="1" x2="109" y2="108" style="stroke:#ddd;stroke-width:2"></line>
<line x1="218" y1="1" x2="218" y2="108" style="stroke:#ddd;stroke-width:2"></line>
<line x1="327" y1="1" x2="327" y2="108" style="stroke:#ddd;stroke-width:2"></line>
<line x1="436" y1="1" x2="436" y2="108" style="stroke:#ddd;stroke-width:2"></line>
<line x1="545" y1="1" x2="545" y2="108" style="stroke:#ddd;stroke-width:2"></line>
<line x1="1" y1="54" x2="653" y2="54" style="stroke:#ddd;stroke-width:2;stroke-dasharray:3 3"></line>
<line x1="55" y1="1" x2="55" y2="108" style="stroke:#ddd;stroke-width:2;stroke-dasharray:3 3"></line>
<line x1="164" y1="1" x2="164" y2="108" style="stroke:#ddd;stroke-width:2;stroke-dasharray:3 3"></line>
<line x1="273" y1="1" x2="273" y2="108" style="stroke:#ddd;stroke-width:2;stroke-dasharray:3 3"></line>
<line x1="382" y1="1" x2="382" y2="108" style="stroke:#ddd;stroke-width:2;stroke-dasharray:3 3"></line>
<line x1="491" y1="1" x2="491" y2="108" style="stroke:#ddd;stroke-width:2;stroke-dasharray:3 3"></line>
<line x1="600" y1="1" x2="600" y2="108" style="stroke:#ddd;stroke-width:2;stroke-dasharray:3 3"></line>
<path d="M23.51,27.95c3.24,0.55,6.34,0.2,9.25-0.14c10.64-1.25,32.38-3.74,42.88-4.71c2.71-0.25,5.58-0.3,8.24,0.27" style="fill:none;stroke:#999;stroke-width:3"></path>

<path d="M132.51,27.95c3.24,0.55,6.34,0.2,9.25-0.14c10.64-1.25,32.38-3.74,42.88-4.71c2.71-0.25,5.58-0.3,8.24,0.27" style="fill:none;stroke:#999;stroke-width:3"></path>
<path d="M138.56,40.03c0.89,0.89,1.39,1.53,1.55,2.52c0.89,2.98,1.59,8.54,2.16,13.19c0.19,1.57,0.4,3.09,0.64,4.47" style="fill:none;stroke:#999;stroke-width:3"></path>

<path d="M241.51,27.95c3.24,0.55,6.34,0.2,9.25-0.14c10.64-1.25,32.38-3.74,42.88-4.71c2.71-0.25,5.58-0.3,8.24,0.27" style="fill:none;stroke:#999;stroke-width:3"></path>
<path d="M247.56,40.03c0.89,0.89,1.39,1.53,1.55,2.52c0.89,2.98,1.59,8.54,2.16,13.19c0.19,1.57,0.4,3.09,0.64,4.47" style="fill:none;stroke:#999;stroke-width:3"></path>
<path d="M249.86,41.95c10.86-1.2,34.82-3.35,43.53-4.12c3.44-0.3,5.45,0.66,4.39,4.42c-0.97,3.43-1.5,5.12-3.4,12.32" style="fill:none;stroke:#999;stroke-width:3"></path>

<path d="M350.51,27.95c3.24,0.55,6.34,0.2,9.25-0.14c10.64-1.25,32.38-3.74,42.88-4.71c2.71-0.25,5.58-0.3,8.24,0.27" style="fill:none;stroke:#999;stroke-width:3"></path>
<path d="M356.56,40.03c0.89,0.89,1.39,1.53,1.55,2.52c0.89,2.98,1.59,8.54,2.16,13.19c0.19,1.57,0.4,3.09,0.64,4.47" style="fill:none;stroke:#999;stroke-width:3"></path>
<path d="M358.86,41.95c10.86-1.2,34.82-3.35,43.53-4.12c3.44-0.3,5.45,0.66,4.39,4.42c-0.97,3.43-1.5,5.12-3.4,12.32" style="fill:none;stroke:#999;stroke-width:3"></path>
<path d="M361.35,57.97c5.65-0.46,28.03-1.69,39.67-2.31c2.11-0.11,4.11-0.05,5.18-0.05" style="fill:none;stroke:#999;stroke-width:3"></path>

<path d="M459.51,27.95c3.24,0.55,6.34,0.2,9.25-0.14c10.64-1.25,32.38-3.74,42.88-4.71c2.71-0.25,5.58-0.3,8.24,0.27" style="fill:none;stroke:#999;stroke-width:3"></path>
<path d="M465.56,40.03c0.89,0.89,1.39,1.53,1.55,2.52c0.89,2.98,1.59,8.54,2.16,13.19c0.19,1.57,0.4,3.09,0.64,4.47" style="fill:none;stroke:#999;stroke-width:3"></path>
<path d="M467.86,41.95c10.86-1.2,34.82-3.35,43.53-4.12c3.44-0.3,5.45,0.66,4.39,4.42c-0.97,3.43-1.5,5.12-3.4,12.32" style="fill:none;stroke:#999;stroke-width:3"></path>
<path d="M470.35,57.97c5.65-0.46,28.03-1.69,39.67-2.31c2.11-0.11,4.11-0.05,5.18-0.05" style="fill:none;stroke:#999;stroke-width:3"></path>
<path d="M489.9,11.68c1.27,1.27,1.39,2.95,1.45,5.7C492.62,70.62,490.25,81.5,455.46,98" style="fill:none;stroke:#999;stroke-width:3"></path>

<path d="M568.51,27.95c3.24,0.55,6.34,0.2,9.25-0.14c10.64-1.25,32.38-3.74,42.88-4.71c2.71-0.25,5.58-0.3,8.24,0.27" style="fill:none;stroke:#999;stroke-width:3"></path>
<path d="M574.56,40.03c0.89,0.89,1.39,1.53,1.55,2.52c0.89,2.98,1.59,8.54,2.16,13.19c0.19,1.57,0.4,3.09,0.64,4.47" style="fill:none;stroke:#999;stroke-width:3"></path>
<path d="M576.86,41.95c10.86-1.2,34.82-3.35,43.53-4.12c3.44-0.3,5.45,0.66,4.39,4.42c-0.97,3.43-1.5,5.12-3.4,12.32" style="fill:none;stroke:#999;stroke-width:3"></path>
<path d="M579.35,57.97c5.65-0.46,28.03-1.69,39.67-2.31c2.11-0.11,4.11-0.05,5.18-0.05" style="fill:none;stroke:#999;stroke-width:3"></path>
<path d="M598.9,11.68c1.27,1.27,1.39,2.95,1.45,5.7C601.62,70.62,599.25,81.5,564.46,98" style="fill:none;stroke:#999;stroke-width:3"></path>
<path d="M579.31,66.53c5.61-0.03,28.83,17.26,45,25.72c3.66,1.91,6.44,3.25,11.23,4.69" style="fill:none;stroke:#999;stroke-width:3"></path>

</svg>