<svg width="654px" height="109px" viewBox="0 0 654 109" xmlns="http://www.w3.org/2000/svg" xmlns:xlink="http://www.w3.org/1999/xlink" xml:space="preserve" version="1.1" baseProfile="full">
<line x1="1" y1="1" x2="653" y2="1" style="stroke:#ddd;stroke-width:2"></line>
<line x1="1" y1="1" x2="1" y2="108" style="stroke:#ddd;stroke-width:2"></line>
<line x1="1" y1="108" x2="653" y2="108" style="stroke:#ddd;stroke-width:2"></line>
<line x1="653" y1="1" x2="653" y2="108" style="stroke:#ddd;stroke-width:2"></line>
<line x1="109" y1="1" x2="109" y2="108" style="stroke:#ddd;stroke-width:2"></line>
<line x1="218" y1="1" x2="218" y2="108" style="stroke:#ddd;stroke-width:2"></line>
<line x1="327" y1="1" x2="327" y2="108" style="stroke:#ddd;stroke-width:2"></line>
<line x1="436" y1="1" x2="436" y2="108" style="stroke:#ddd;stroke-width:2"></line>
<line x1="545" y1="1" x2="545" y2="108" style="stroke:#ddd;stroke-width:2"></line>
<line x1="1" y1="54" x2="653" y2="54" style="stroke:#ddd;stroke-width:2;stroke-dasharray:3 3"></line>
<line x1="55" y1="1" x2="55" y2="108" style="stroke:#ddd;stroke-width:2;stroke-dasharray:3 3"></line>
<line x1="164" y1="1" x2="164" y2="108" style="stroke:#ddd;stroke-width:2;stroke-dasharray:3 3"></line>
<line x1="273" y1="1" x2="273" y2="108" style="stroke:#ddd;stroke-width:2;stroke-dasharray:3 3"></line>
<line x1="382" y1="1" x2="382" y2="108" style="stroke:#ddd;stroke-width:2;stroke-dasharray:3 3"></line>
<line x1="491" y1="1" x2="491" y2="108" style="stroke:#ddd;stroke-width:2;stroke-dasharray:3 3"></line>
<line x1="600" y1="1" x2="600" y2="108" style="stroke:#ddd;stroke-width:2;stroke-dasharray:3 3"></line>
<path d="M13.0,38.81c0.75,1.04,1,1.77,1.25,3.06c0.87,4.5,1.67,12.81,2.46,20.13c0.27,2.48,0.51,4.87,0.71,7" style="fill:none;stroke:#999;stroke-width:3"></path>

<path d="M122.0,38.81c0.75,1.04,1,1.77,1.25,3.06c0.87,4.5,1.67,12.81,2.46,20.13c0.27,2.48,0.51,4.87,0.71,7" style="fill:none;stroke:#999;stroke-width:3"></path>
<path d="M123.84,40.02c9.08-1.74,15.14-2.67,19.45-3.25c3.34-0.45,4.62,0.41,4.09,3.87c-0.84,5.58-1.5,13.48-2.28,19.65" style="fill:none;stroke:#999;stroke-width:3"></path>

<path d="M231.0,38.81c0.75,1.04,1,1.77,1.25,3.06c0.87,4.5,1.67,12.81,2.46,20.13c0.27,2.48,0.51,4.87,0.71,7" style="fill:none;stroke:#999;stroke-width:3"></path>
<path d="M232.84,40.02c9.08-1.74,15.14-2.67,19.45-3.25c3.34-0.45,4.62,0.41,4.09,3.87c-0.84,5.58-1.5,13.48-2.28,19.65" style="fill:none;stroke:#999;stroke-width:3"></path>
<path d="M235.85,63.27c4-0.59,9.76-1.21,15.45-2c1.66-0.23,3.83-0.49,5.16-0.49" style="fill:none;stroke:#999;stroke-width:3"></path>

<path d="M340.0,38.81c0.75,1.04,1,1.77,1.25,3.06c0.87,4.5,1.67,12.81,2.46,20.13c0.27,2.48,0.51,4.87,0.71,7" style="fill:none;stroke:#999;stroke-width:3"></path>
<path d="M341.84000000000003,40.02c9.08-1.74,15.14-2.67,19.45-3.25c3.34-0.45,4.62,0.41,4.09,3.87c-0.84,5.58-1.5,13.48-2.28,19.65" style="fill:none;stroke:#999;stroke-width:3"></path>
<path d="M344.85,63.27c4-0.59,9.76-1.21,15.45-2c1.66-0.23,3.83-0.49,5.16-0.49" style="fill:none;stroke:#999;stroke-width:3"></path>
<path d="M373.85,48.92c2.15,0.46,3.78,0.58,5.4,0.4c9.42-1.01,20.76-2.85,29.62-3.48c1.99-0.14,4.02-0.39,5.96,0.2" style="fill:none;stroke:#999;stroke-width:3"></path>

<path d="M449.0,38.81c0.75,1.04,1,1.77,1.25,3.06c0.87,4.5,1.67,12.81,2.46,20.13c0.27,2.48,0.51,4.87,0.71,7" style="fill:none;stroke:#999;stroke-width:3"></path>
<path d="M450.84000000000003,40.02c9.08-1.74,15.14-2.67,19.45-3.25c3.34-0.45,4.62,0.41,4.09,3.87c-0.84,5.58-1.5,13.48-2.28,19.65" style="fill:none;stroke:#999;stroke-width:3"></path>
<path d="M453.85,63.27c4-0.59,9.76-1.21,15.45-2c1.66-0.23,3.83-0.49,5.16-0.49" style="fill:none;stroke:#999;stroke-width:3"></path>
<path d="M482.85,48.92c2.15,0.46,3.78,0.58,5.4,0.4c9.42-1.01,20.76-2.85,29.62-3.48c1.99-0.14,4.02-0.39,5.96,0.2" style="fill:none;stroke:#999;stroke-width:3"></path>
<path d="M500.67,17.62c0.86,0.85,1.27,2.27,1.27,4.14c0,12-0.07,47.13-0.07,62.75" style="fill:none;stroke:#999;stroke-width:3"></path>

<path d="M558.0,38.81c0.75,1.04,1,1.77,1.25,3.06c0.87,4.5,1.67,12.81,2.46,20.13c0.27,2.48,0.51,4.87,0.71,7" style="fill:none;stroke:#999;stroke-width:3"></path>
<path d="M559.84,40.02c9.08-1.74,15.14-2.67,19.45-3.25c3.34-0.45,4.62,0.41,4.09,3.87c-0.84,5.58-1.5,13.48-2.28,19.65" style="fill:none;stroke:#999;stroke-width:3"></path>
<path d="M562.85,63.27c4-0.59,9.76-1.21,15.45-2c1.66-0.23,3.83-0.49,5.16-0.49" style="fill:none;stroke:#999;stroke-width:3"></path>
<path d="M591.85,48.92c2.15,0.46,3.78,0.58,5.4,0.4c9.42-1.01,20.76-2.85,29.62-3.48c1.99-0.14,4.02-0.39,5.96,0.2" style="fill:none;stroke:#999;stroke-width:3"></path>
<path d="M609.6700000000001,17.62c0.86,0.85,1.27,2.27,1.27,4.14c0,12-0.07,47.13-0.07,62.75" style="fill:none;stroke:#999;stroke-width:3"></path>
<path d="M581.88,87.23c2.87,0.77,6.09,0.67,8.62,0.38c14.07-1.6,31.24-2.86,43.27-3.52c3.39-0.19,6.33-0.43,9.61,0.48" style="fill:none;stroke:#999;stroke-width:3"></path>

</svg>