<svg width="763px" height="109px" viewBox="0 0 763 109" xmlns="http://www.w3.org/2000/svg" xmlns:xlink="http://www.w3.org/1999/xlink" xml:space="preserve" version="1.1" baseProfile="full">
<line x1="1" y1="1" x2="762" y2="1" style="stroke:#ddd;stroke-width:2"></line>
<line x1="1" y1="1" x2="1" y2="108" style="stroke:#ddd;stroke-width:2"></line>
<line x1="1" y1="108" x2="762" y2="108" style="stroke:#ddd;stroke-width:2"></line>
<line x1="762" y1="1" x2="762" y2="108" style="stroke:#ddd;stroke-width:2"></line>
<line x1="109" y1="1" x2="109" y2="108" style="stroke:#ddd;stroke-width:2"></line>
<line x1="218" y1="1" x2="218" y2="108" style="stroke:#ddd;stroke-width:2"></line>
<line x1="327" y1="1" x2="327" y2="108" style="stroke:#ddd;stroke-width:2"></line>
<line x1="436" y1="1" x2="436" y2="108" style="stroke:#ddd;stroke-width:2"></line>
<line x1="545" y1="1" x2="545" y2="108" style="stroke:#ddd;stroke-width:2"></line>
<line x1="654" y1="1" x2="654" y2="108" style="stroke:#ddd;stroke-width:2"></line>
<line x1="1" y1="54" x2="762" y2="54" style="stroke:#ddd;stroke-width:2;stroke-dasharray:3 3"></line>
<line x1="55" y1="1" x2="55" y2="108" style="stroke:#ddd;stroke-width:2;stroke-dasharray:3 3"></line>
<line x1="164" y1="1" x2="164" y2="108" style="stroke:#ddd;stroke-width:2;stroke-dasharray:3 3"></line>
<line x1="273" y1="1" x2="273" y2="108" style="stroke:#ddd;stroke-width:2;stroke-dasharray:3 3"></line>
<line x1="382" y1="1" x2="382" y2="108" style="stroke:#ddd;stroke-width:2;stroke-dasharray:3 3"></line>
<line x1="491" y1="1" x2="491" y2="108" style="stroke:#ddd;stroke-width:2;stroke-dasharray:3 3"></line>
<line x1="600" y1="1" x2="600" y2="108" style="stroke:#ddd;stroke-width:2;stroke-dasharray:3 3"></line>
<line x1="709" y1="1" x2="709" y2="108" style="stroke:#ddd;stroke-width:2;stroke-dasharray:3 3"></line>
<path d="M10.75,38.89c0.38,0.4,0.78,0.73,0.95,1.23c1.33,3.94,2.93,14.81,3.85,21.89" style="fill:none;stroke:#999;stroke-width:3"></path>

<path d="M119.75,38.89c0.38,0.4,0.78,0.73,0.95,1.23c1.33,3.94,2.93,14.81,3.85,21.89" style="fill:none;stroke:#999;stroke-width:3"></path>
<path d="M122.15,40.78c9.72-1.73,16.51-2.77,21.02-3.29c1.65-0.19,2.64,1.12,2.4,2.23c-0.98,4.6-2.62,10.72-4.07,17.09" style="fill:none;stroke:#999;stroke-width:3"></path>

<path d="M228.75,38.89c0.38,0.4,0.78,0.73,0.95,1.23c1.33,3.94,2.93,14.81,3.85,21.89" style="fill:none;stroke:#999;stroke-width:3"></path>
<path d="M231.15,40.78c9.72-1.73,16.51-2.77,21.02-3.29c1.65-0.19,2.64,1.12,2.4,2.23c-0.98,4.6-2.62,10.72-4.07,17.09" style="fill:none;stroke:#999;stroke-width:3"></path>
<path d="M233.73,60.1c5.29-0.59,12.19-1.82,19.46-2.72" style="fill:none;stroke:#999;stroke-width:3"></path>

<path d="M337.75,38.89c0.38,0.4,0.78,0.73,0.95,1.23c1.33,3.94,2.93,14.81,3.85,21.89" style="fill:none;stroke:#999;stroke-width:3"></path>
<path d="M340.15,40.78c9.72-1.73,16.51-2.77,21.02-3.29c1.65-0.19,2.64,1.12,2.4,2.23c-0.98,4.6-2.62,10.72-4.07,17.09" style="fill:none;stroke:#999;stroke-width:3"></path>
<path d="M342.73,60.1c5.29-0.59,12.19-1.82,19.46-2.72" style="fill:none;stroke:#999;stroke-width:3"></path>
<path d="M370.4,45.27c0.72,0.35,3.18,0.79,4.57,0.58c7.28-1.07,32.46-4.28,41.23-5.02c1-0.08,2.42,0.14,4.66,0.74" style="fill:none;stroke:#999;stroke-width:3"></path>

<path d="M446.75,38.89c0.38,0.4,0.78,0.73,0.95,1.23c1.33,3.94,2.93,14.81,3.85,21.89" style="fill:none;stroke:#999;stroke-width:3"></path>
<path d="M449.15,40.78c9.72-1.73,16.51-2.77,21.02-3.29c1.65-0.19,2.64,1.12,2.4,2.23c-0.98,4.6-2.62,10.72-4.07,17.09" style="fill:none;stroke:#999;stroke-width:3"></path>
<path d="M451.73,60.1c5.29-0.59,12.19-1.82,19.46-2.72" style="fill:none;stroke:#999;stroke-width:3"></path>
<path d="M479.4,45.27c0.72,0.35,3.18,0.79,4.57,0.58c7.28-1.07,32.46-4.28,41.23-5.02c1-0.08,2.42,0.14,4.66,0.74" style="fill:none;stroke:#999;stroke-width:3"></path>
<path d="M498.5,14.25c1.02,1.18,1.65,2.35,1.78,4.7c1.8,30.67-3.54,64.55-35.79,78.55" style="fill:none;stroke:#999;stroke-width:3"></path>

<path d="M555.75,38.89c0.38,0.4,0.78,0.73,0.95,1.23c1.33,3.94,2.93,14.81,3.85,21.89" style="fill:none;stroke:#999;stroke-width:3"></path>
<path d="M558.15,40.78c9.72-1.73,16.51-2.77,21.02-3.29c1.65-0.19,2.64,1.12,2.4,2.23c-0.98,4.6-2.62,10.72-4.07,17.09" style="fill:none;stroke:#999;stroke-width:3"></path>
<path d="M560.73,60.1c5.29-0.59,12.19-1.82,19.46-2.72" style="fill:none;stroke:#999;stroke-width:3"></path>
<path d="M588.4,45.27c0.72,0.35,3.18,0.79,4.57,0.58c7.28-1.07,32.46-4.28,41.23-5.02c1-0.08,2.42,0.14,4.66,0.74" style="fill:none;stroke:#999;stroke-width:3"></path>
<path d="M607.5,14.25c1.02,1.18,1.65,2.35,1.78,4.7c1.8,30.67-3.54,64.55-35.79,78.55" style="fill:none;stroke:#999;stroke-width:3"></path>
<path d="M610.06,45c6.4,14.1,18.85,37.96,27.02,48.03c2.15,2.64,2.93,2.98,3.92,3.22" style="fill:none;stroke:#999;stroke-width:3"></path>

<path d="M664.75,38.89c0.38,0.4,0.78,0.73,0.95,1.23c1.33,3.94,2.93,14.81,3.85,21.89" style="fill:none;stroke:#999;stroke-width:3"></path>
<path d="M667.15,40.78c9.72-1.73,16.51-2.77,21.02-3.29c1.65-0.19,2.64,1.12,2.4,2.23c-0.98,4.6-2.62,10.72-4.07,17.09" style="fill:none;stroke:#999;stroke-width:3"></path>
<path d="M669.73,60.1c5.29-0.59,12.19-1.82,19.46-2.72" style="fill:none;stroke:#999;stroke-width:3"></path>
<path d="M697.4,45.27c0.72,0.35,3.18,0.79,4.57,0.58c7.28-1.07,32.46-4.28,41.23-5.02c1-0.08,2.42,0.14,4.66,0.74" style="fill:none;stroke:#999;stroke-width:3"></path>
<path d="M716.5,14.25c1.02,1.18,1.65,2.35,1.78,4.7c1.8,30.67-3.54,64.55-35.79,78.55" style="fill:none;stroke:#999;stroke-width:3"></path>
<path d="M719.06,45c6.4,14.1,18.85,37.96,27.02,48.03c2.15,2.64,2.93,2.98,3.92,3.22" style="fill:none;stroke:#999;stroke-width:3"></path>
<path d="M731.41,20c6.09,3.61,7.75,6.36,9.64,9.75" style="fill:none;stroke:#999;stroke-width:3"></path>

</svg>