<svg width="763px" height="109px" viewBox="0 0 763 109" xmlns="http://www.w3.org/2000/svg" xmlns:xlink="http://www.w3.org/1999/xlink" xml:space="preserve" version="1.1" baseProfile="full">
<line x1="1" y1="1" x2="762" y2="1" style="stroke:#ddd;stroke-width:2"></line>
<line x1="1" y1="1" x2="1" y2="108" style="stroke:#ddd;stroke-width:2"></line>
<line x1="1" y1="108" x2="762" y2="108" style="stroke:#ddd;stroke-width:2"></line>
<line x1="762" y1="1" x2="762" y2="108" style="stroke:#ddd;stroke-width:2"></line>
<line x1="109" y1="1" x2="109" y2="108" style="stroke:#ddd;stroke-width:2"></line>
<line x1="218" y1="1" x2="218" y2="108" style="stroke:#ddd;stroke-width:2"></line>
<line x1="327" y1="1" x2="327" y2="108" style="stroke:#ddd;stroke-width:2"></line>
<line x1="436" y1="1" x2="436" y2="108" style="stroke:#ddd;stroke-width:2"></line>
<line x1="545" y1="1" x2="545" y2="108" style="stroke:#ddd;stroke-width:2"></line>
<line x1="654" y1="1" x2="654" y2="108" style="stroke:#ddd;stroke-width:2"></line>
<line x1="1" y1="54" x2="762" y2="54" style="stroke:#ddd;stroke-width:2;stroke-dasharray:3 3"></line>
<line x1="55" y1="1" x2="55" y2="108" style="stroke:#ddd;stroke-width:2;stroke-dasharray:3 3"></line>
<line x1="164" y1="1" x2="164" y2="108" style="stroke:#ddd;stroke-width:2;stroke-dasharray:3 3"></line>
<line x1="273" y1="1" x2="273" y2="108" style="stroke:#ddd;stroke-width:2;stroke-dasharray:3 3"></line>
<line x1="382" y1="1" x2="382" y2="108" style="stroke:#ddd;stroke-width:2;stroke-dasharray:3 3"></line>
<line x1="491" y1="1" x2="491" y2="108" style="stroke:#ddd;stroke-width:2;stroke-dasharray:3 3"></line>
<line x1="600" y1="1" x2="600" y2="108" style="stroke:#ddd;stroke-width:2;stroke-dasharray:3 3"></line>
<line x1="709" y1="1" x2="709" y2="108" style="stroke:#ddd;stroke-width:2;stroke-dasharray:3 3"></line>
<path d="M28.88,18.24c2.38,0.38,4.9,0.48,7.15,0.25c9.85-0.99,24.48-2.35,35.1-2.68c2.29-0.07,5.37,0.04,7.63,0.46" style="fill:none;stroke:#999;stroke-width:3"></path>

<path d="M137.88,18.24c2.38,0.38,4.9,0.48,7.15,0.25c9.85-0.99,24.48-2.35,35.1-2.68c2.29-0.07,5.37,0.04,7.63,0.46" style="fill:none;stroke:#999;stroke-width:3"></path>
<path d="M162.24,20c0.38,1,0.13,2.25-0.21,3.39c-1.56,5.15-7.15,24.74-9.53,31.36" style="fill:none;stroke:#999;stroke-width:3"></path>

<path d="M246.88,18.24c2.38,0.38,4.9,0.48,7.15,0.25c9.85-0.99,24.48-2.35,35.1-2.68c2.29-0.07,5.37,0.04,7.63,0.46" style="fill:none;stroke:#999;stroke-width:3"></path>
<path d="M271.24,20c0.38,1,0.13,2.25-0.21,3.39c-1.56,5.15-7.15,24.74-9.53,31.36" style="fill:none;stroke:#999;stroke-width:3"></path>
<path d="M248.23,37.96c1.64,0.91,4.46,0.88,6.02,0.65c11.64-1.7,26.25-3.99,34.44-4.34c2.14-0.09,3.44,1.35,3,3.24c-1.01,4.42-2.82,12.61-3.94,16.48" style="fill:none;stroke:#999;stroke-width:3"></path>

<path d="M355.88,18.24c2.38,0.38,4.9,0.48,7.15,0.25c9.85-0.99,24.48-2.35,35.1-2.68c2.29-0.07,5.37,0.04,7.63,0.46" style="fill:none;stroke:#999;stroke-width:3"></path>
<path d="M380.24,20c0.38,1,0.13,2.25-0.21,3.39c-1.56,5.15-7.15,24.74-9.53,31.36" style="fill:none;stroke:#999;stroke-width:3"></path>
<path d="M357.23,37.96c1.64,0.91,4.46,0.88,6.02,0.65c11.64-1.7,26.25-3.99,34.44-4.34c2.14-0.09,3.44,1.35,3,3.24c-1.01,4.42-2.82,12.61-3.94,16.48" style="fill:none;stroke:#999;stroke-width:3"></path>
<path d="M339.63,57.98c2.94,0.82,6.37,0.69,9.38,0.45c14.37-1.12,44.86-3.19,63.61-3.83c3.55-0.12,6.98-0.08,10.5,0.5" style="fill:none;stroke:#999;stroke-width:3"></path>

<path d="M464.88,18.24c2.38,0.38,4.9,0.48,7.15,0.25c9.85-0.99,24.48-2.35,35.1-2.68c2.29-0.07,5.37,0.04,7.63,0.46" style="fill:none;stroke:#999;stroke-width:3"></path>
<path d="M489.24,20c0.38,1,0.13,2.25-0.21,3.39c-1.56,5.15-7.15,24.74-9.53,31.36" style="fill:none;stroke:#999;stroke-width:3"></path>
<path d="M466.23,37.96c1.64,0.91,4.46,0.88,6.02,0.65c11.64-1.7,26.25-3.99,34.44-4.34c2.14-0.09,3.44,1.35,3,3.24c-1.01,4.42-2.82,12.61-3.94,16.48" style="fill:none;stroke:#999;stroke-width:3"></path>
<path d="M448.63,57.98c2.94,0.82,6.37,0.69,9.38,0.45c14.37-1.12,44.86-3.19,63.61-3.83c3.55-0.12,6.98-0.08,10.5,0.5" style="fill:none;stroke:#999;stroke-width:3"></path>
<path d="M468.6,70.5c0.53,0.75,0.9,1.75,1.2,3.27c1.01,5.1,2.38,15,3.2,21.48" style="fill:none;stroke:#999;stroke-width:3"></path>

<path d="M573.88,18.24c2.38,0.38,4.9,0.48,7.15,0.25c9.85-0.99,24.48-2.35,35.1-2.68c2.29-0.07,5.37,0.04,7.63,0.46" style="fill:none;stroke:#999;stroke-width:3"></path>
<path d="M598.24,20c0.38,1,0.13,2.25-0.21,3.39c-1.56,5.15-7.15,24.74-9.53,31.36" style="fill:none;stroke:#999;stroke-width:3"></path>
<path d="M575.23,37.96c1.64,0.91,4.46,0.88,6.02,0.65c11.64-1.7,26.25-3.99,34.44-4.34c2.14-0.09,3.44,1.35,3,3.24c-1.01,4.42-2.82,12.61-3.94,16.48" style="fill:none;stroke:#999;stroke-width:3"></path>
<path d="M557.63,57.98c2.94,0.82,6.37,0.69,9.38,0.45c14.37-1.12,44.86-3.19,63.61-3.83c3.55-0.12,6.98-0.08,10.5,0.5" style="fill:none;stroke:#999;stroke-width:3"></path>
<path d="M577.6,70.5c0.53,0.75,0.9,1.75,1.2,3.27c1.01,5.1,2.38,15,3.2,21.48" style="fill:none;stroke:#999;stroke-width:3"></path>
<path d="M579.73,72.59c8.03-0.97,25.84-2.62,33.39-3.35c3.51-0.34,5.7-0.06,4.73,4.04c-1.11,4.69-2.68,9.71-4.14,16.2" style="fill:none;stroke:#999;stroke-width:3"></path>

<path d="M682.88,18.24c2.38,0.38,4.9,0.48,7.15,0.25c9.85-0.99,24.48-2.35,35.1-2.68c2.29-0.07,5.37,0.04,7.63,0.46" style="fill:none;stroke:#999;stroke-width:3"></path>
<path d="M707.24,20c0.38,1,0.13,2.25-0.21,3.39c-1.56,5.15-7.15,24.74-9.53,31.36" style="fill:none;stroke:#999;stroke-width:3"></path>
<path d="M684.23,37.96c1.64,0.91,4.46,0.88,6.02,0.65c11.64-1.7,26.25-3.99,34.44-4.34c2.14-0.09,3.44,1.35,3,3.24c-1.01,4.42-2.82,12.61-3.94,16.48" style="fill:none;stroke:#999;stroke-width:3"></path>
<path d="M666.63,57.98c2.94,0.82,6.37,0.69,9.38,0.45c14.37-1.12,44.86-3.19,63.61-3.83c3.55-0.12,6.98-0.08,10.5,0.5" style="fill:none;stroke:#999;stroke-width:3"></path>
<path d="M686.6,70.5c0.53,0.75,0.9,1.75,1.2,3.27c1.01,5.1,2.38,15,3.2,21.48" style="fill:none;stroke:#999;stroke-width:3"></path>
<path d="M688.73,72.59c8.03-0.97,25.84-2.62,33.39-3.35c3.51-0.34,5.7-0.06,4.73,4.04c-1.11,4.69-2.68,9.71-4.14,16.2" style="fill:none;stroke:#999;stroke-width:3"></path>
<path d="M692.19,92.16c6.47-0.33,19.99-1.2,28.96-1.66c2.2-0.11,4.13-0.2,5.61-0.25" style="fill:none;stroke:#999;stroke-width:3"></path>

</svg>