<svg width="763px" height="109px" viewBox="0 0 763 109" xmlns="http://www.w3.org/2000/svg" xmlns:xlink="http://www.w3.org/1999/xlink" xml:space="preserve" version="1.1" baseProfile="full">
<line x1="1" y1="1" x2="762" y2="1" style="stroke:#ddd;stroke-width:2"></line>
<line x1="1" y1="1" x2="1" y2="108" style="stroke:#ddd;stroke-width:2"></line>
<line x1="1" y1="108" x2="762" y2="108" style="stroke:#ddd;stroke-width:2"></line>
<line x1="762" y1="1" x2="762" y2="108" style="stroke:#ddd;stroke-width:2"></line>
<line x1="109" y1="1" x2="109" y2="108" style="stroke:#ddd;stroke-width:2"></line>
<line x1="218" y1="1" x2="218" y2="108" style="stroke:#ddd;stroke-width:2"></line>
<line x1="327" y1="1" x2="327" y2="108" style="stroke:#ddd;stroke-width:2"></line>
<line x1="436" y1="1" x2="436" y2="108" style="stroke:#ddd;stroke-width:2"></line>
<line x1="545" y1="1" x2="545" y2="108" style="stroke:#ddd;stroke-width:2"></line>
<line x1="654" y1="1" x2="654" y2="108" style="stroke:#ddd;stroke-width:2"></line>
<line x1="1" y1="54" x2="762" y2="54" style="stroke:#ddd;stroke-width:2;stroke-dasharray:3 3"></line>
<line x1="55" y1="1" x2="55" y2="108" style="stroke:#ddd;stroke-width:2;stroke-dasharray:3 3"></line>
<line x1="164" y1="1" x2="164" y2="108" style="stroke:#ddd;stroke-width:2;stroke-dasharray:3 3"></line>
<line x1="273" y1="1" x2="273" y2="108" style="stroke:#ddd;stroke-width:2;stroke-dasharray:3 3"></line>
<line x1="382" y1="1" x2="382" y2="108" style="stroke:#ddd;stroke-width:2;stroke-dasharray:3 3"></line>
<line x1="491" y1="1" x2="491" y2="108" style="stroke:#ddd;stroke-width:2;stroke-dasharray:3 3"></line>
<line x1="600" y1="1" x2="600" y2="108" style="stroke:#ddd;stroke-width:2;stroke-dasharray:3 3"></line>
<line x1="709" y1="1" x2="709" y2="108" style="stroke:#ddd;stroke-width:2;stroke-dasharray:3 3"></line>
<path d="M28.3,17.97c1.02,0.89,1.54,1.55,1.88,2.93c1.36,5.69,2.52,12.28,3.89,19.26c0.34,1.73,0.69,3.47,1.06,5.24" style="fill:none;stroke:#999;stroke-width:3"></path>

<path d="M137.3,17.97c1.02,0.89,1.54,1.55,1.88,2.93c1.36,5.69,2.52,12.28,3.89,19.26c0.34,1.73,0.69,3.47,1.06,5.24" style="fill:none;stroke:#999;stroke-width:3"></path>
<path d="M139.99,19.31c11.74-1.08,30.48-3.06,38.31-3.74c3.71-0.32,5.72,0.98,4.98,4.71c-1.16,5.84-2.16,9.59-4.16,18.73" style="fill:none;stroke:#999;stroke-width:3"></path>

<path d="M246.3,17.97c1.02,0.89,1.54,1.55,1.88,2.93c1.36,5.69,2.52,12.28,3.89,19.26c0.34,1.73,0.69,3.47,1.06,5.24" style="fill:none;stroke:#999;stroke-width:3"></path>
<path d="M248.99,19.31c11.74-1.08,30.48-3.06,38.31-3.74c3.71-0.32,5.72,0.98,4.98,4.71c-1.16,5.84-2.16,9.59-4.16,18.73" style="fill:none;stroke:#999;stroke-width:3"></path>
<path d="M253.6,43.23c5.77-0.5,21.08-1.93,31.29-2.74c2.2-0.17,4.17-0.32,5.75-0.42" style="fill:none;stroke:#999;stroke-width:3"></path>

<path d="M355.3,17.97c1.02,0.89,1.54,1.55,1.88,2.93c1.36,5.69,2.52,12.28,3.89,19.26c0.34,1.73,0.69,3.47,1.06,5.24" style="fill:none;stroke:#999;stroke-width:3"></path>
<path d="M357.99,19.31c11.74-1.08,30.48-3.06,38.31-3.74c3.71-0.32,5.72,0.98,4.98,4.71c-1.16,5.84-2.16,9.59-4.16,18.73" style="fill:none;stroke:#999;stroke-width:3"></path>
<path d="M362.6,43.23c5.77-0.5,21.08-1.93,31.29-2.74c2.2-0.17,4.17-0.32,5.75-0.42" style="fill:none;stroke:#999;stroke-width:3"></path>
<path d="M378.58,45.43c0.29,0.94,0.17,1.82-0.58,3.32c-1.68,3.36-5.5,9.62-7.81,13.14" style="fill:none;stroke:#999;stroke-width:3"></path>

<path d="M464.3,17.97c1.02,0.89,1.54,1.55,1.88,2.93c1.36,5.69,2.52,12.28,3.89,19.26c0.34,1.73,0.69,3.47,1.06,5.24" style="fill:none;stroke:#999;stroke-width:3"></path>
<path d="M466.99,19.31c11.74-1.08,30.48-3.06,38.31-3.74c3.71-0.32,5.72,0.98,4.98,4.71c-1.16,5.84-2.16,9.59-4.16,18.73" style="fill:none;stroke:#999;stroke-width:3"></path>
<path d="M471.6,43.23c5.77-0.5,21.08-1.93,31.29-2.74c2.2-0.17,4.17-0.32,5.75-0.42" style="fill:none;stroke:#999;stroke-width:3"></path>
<path d="M487.58,45.43c0.29,0.94,0.17,1.82-0.58,3.32c-1.68,3.36-5.5,9.62-7.81,13.14" style="fill:none;stroke:#999;stroke-width:3"></path>
<path d="M461.59,64.27c0.91,1.11,1.42,2.03,1.64,3.52c1.09,7.14,2.18,14,3.37,21.7c0.32,2.1,0.65,4.25,0.99,6.5" style="fill:none;stroke:#999;stroke-width:3"></path>

<path d="M573.3,17.97c1.02,0.89,1.54,1.55,1.88,2.93c1.36,5.69,2.52,12.28,3.89,19.26c0.34,1.73,0.69,3.47,1.06,5.24" style="fill:none;stroke:#999;stroke-width:3"></path>
<path d="M575.99,19.31c11.74-1.08,30.48-3.06,38.31-3.74c3.71-0.32,5.72,0.98,4.98,4.71c-1.16,5.84-2.16,9.59-4.16,18.73" style="fill:none;stroke:#999;stroke-width:3"></path>
<path d="M580.6,43.23c5.77-0.5,21.08-1.93,31.29-2.74c2.2-0.17,4.17-0.32,5.75-0.42" style="fill:none;stroke:#999;stroke-width:3"></path>
<path d="M596.5799999999999,45.43c0.29,0.94,0.17,1.82-0.58,3.32c-1.68,3.36-5.5,9.62-7.81,13.14" style="fill:none;stroke:#999;stroke-width:3"></path>
<path d="M570.5899999999999,64.27c0.91,1.11,1.42,2.03,1.64,3.52c1.09,7.14,2.18,14,3.37,21.7c0.32,2.1,0.65,4.25,0.99,6.5" style="fill:none;stroke:#999;stroke-width:3"></path>
<path d="M572.63,65.88c16.51-1.72,38.75-3.64,48.25-4.29c4.26-0.29,6.97,1.54,5.97,6.16c-1.46,6.75-2.34,11.5-4.34,22.07" style="fill:none;stroke:#999;stroke-width:3"></path>

<path d="M682.3,17.97c1.02,0.89,1.54,1.55,1.88,2.93c1.36,5.69,2.52,12.28,3.89,19.26c0.34,1.73,0.69,3.47,1.06,5.24" style="fill:none;stroke:#999;stroke-width:3"></path>
<path d="M684.99,19.31c11.74-1.08,30.48-3.06,38.31-3.74c3.71-0.32,5.72,0.98,4.98,4.71c-1.16,5.84-2.16,9.59-4.16,18.73" style="fill:none;stroke:#999;stroke-width:3"></path>
<path d="M689.6,43.23c5.77-0.5,21.08-1.93,31.29-2.74c2.2-0.17,4.17-0.32,5.75-0.42" style="fill:none;stroke:#999;stroke-width:3"></path>
<path d="M705.5799999999999,45.43c0.29,0.94,0.17,1.82-0.58,3.32c-1.68,3.36-5.5,9.62-7.81,13.14" style="fill:none;stroke:#999;stroke-width:3"></path>
<path d="M679.5899999999999,64.27c0.91,1.11,1.42,2.03,1.64,3.52c1.09,7.14,2.18,14,3.37,21.7c0.32,2.1,0.65,4.25,0.99,6.5" style="fill:none;stroke:#999;stroke-width:3"></path>
<path d="M681.63,65.88c16.51-1.72,38.75-3.64,48.25-4.29c4.26-0.29,6.97,1.54,5.97,6.16c-1.46,6.75-2.34,11.5-4.34,22.07" style="fill:none;stroke:#999;stroke-width:3"></path>
<path d="M686.45,93.64c7.47-0.4,27.3-1.81,40.42-2.49c2.75-0.14,5.2-0.26,7.19-0.32" style="fill:none;stroke:#999;stroke-width:3"></path>

</svg>