<svg width="872px" height="109px" viewBox="0 0 872 109" xmlns="http://www.w3.org/2000/svg" xmlns:xlink="http://www.w3.org/1999/xlink" xml:space="preserve" version="1.1" baseProfile="full">
<line x1="1" y1="1" x2="871" y2="1" style="stroke:#ddd;stroke-width:2"></line>
<line x1="1" y1="1" x2="1" y2="108" style="stroke:#ddd;stroke-width:2"></line>
<line x1="1" y1="108" x2="871" y2="108" style="stroke:#ddd;stroke-width:2"></line>
<line x1="871" y1="1" x2="871" y2="108" style="stroke:#ddd;stroke-width:2"></line>
<line x1="109" y1="1" x2="109" y2="108" style="stroke:#ddd;stroke-width:2"></line>
<line x1="218" y1="1" x2="218" y2="108" style="stroke:#ddd;stroke-width:2"></line>
<line x1="327" y1="1" x2="327" y2="108" style="stroke:#ddd;stroke-width:2"></line>
<line x1="436" y1="1" x2="436" y2="108" style="stroke:#ddd;stroke-width:2"></line>
<line x1="545" y1="1" x2="545" y2="108" style="stroke:#ddd;stroke-width:2"></line>
<line x1="654" y1="1" x2="654" y2="108" style="stroke:#ddd;stroke-width:2"></line>
<line x1="763" y1="1" x2="763" y2="108" style="stroke:#ddd;stroke-width:2"></line>
<line x1="1" y1="54" x2="871" y2="54" style="stroke:#ddd;stroke-width:2;stroke-dasharray:3 3"></line>
<line x1="55" y1="1" x2="55" y2="108" style="stroke:#ddd;stroke-width:2;stroke-dasharray:3 3"></line>
<line x1="164" y1="1" x2="164" y2="108" style="stroke:#ddd;stroke-width:2;stroke-dasharray:3 3"></line>
<line x1="273" y1="1" x2="273" y2="108" style="stroke:#ddd;stroke-width:2;stroke-dasharray:3 3"></line>
<line x1="382" y1="1" x2="382" y2="108" style="stroke:#ddd;stroke-width:2;stroke-dasharray:3 3"></line>
<line x1="491" y1="1" x2="491" y2="108" style="stroke:#ddd;stroke-width:2;stroke-dasharray:3 3"></line>
<line x1="600" y1="1" x2="600" y2="108" style="stroke:#ddd;stroke-width:2;stroke-dasharray:3 3"></line>
<line x1="709" y1="1" x2="709" y2="108" style="stroke:#ddd;stroke-width:2;stroke-dasharray:3 3"></line>
<line x1="818" y1="1" x2="818" y2="108" style="stroke:#ddd;stroke-width:2;stroke-dasharray:3 3"></line>
<path d="M34.32,13.23c1.01,0.35,1.62,1.56,1.82,2.25c0.2,0.69-0.07,27.91-0.07,35.35" style="fill:none;stroke:#999;stroke-width:3"></path>

<path d="M143.32,13.23c1.01,0.35,1.62,1.56,1.82,2.25c0.2,0.69-0.07,27.91-0.07,35.35" style="fill:none;stroke:#999;stroke-width:3"></path>
<path d="M145.65,31.49c4.5-0.52,10.82-2.06,15.24-2.58c1.1-0.13,1.38-0.17,2.06,0" style="fill:none;stroke:#999;stroke-width:3"></path>

<path d="M252.32,13.23c1.01,0.35,1.62,1.56,1.82,2.25c0.2,0.69-0.07,27.91-0.07,35.35" style="fill:none;stroke:#999;stroke-width:3"></path>
<path d="M254.65,31.49c4.5-0.52,10.82-2.06,15.24-2.58c1.1-0.13,1.38-0.17,2.06,0" style="fill:none;stroke:#999;stroke-width:3"></path>
<path d="M235.45,27.51c1.01,0.35,1.82,2.04,1.82,2.75c0,3.81-0.74,18.49-0.74,24.11c0,1.38,0.48,2.4,2.47,1.88c6.75-1.75,18.25-5.75,30.5-10" style="fill:none;stroke:#999;stroke-width:3"></path>

<path d="M361.32,13.23c1.01,0.35,1.62,1.56,1.82,2.25c0.2,0.69-0.07,27.91-0.07,35.35" style="fill:none;stroke:#999;stroke-width:3"></path>
<path d="M363.65,31.49c4.5-0.52,10.82-2.06,15.24-2.58c1.1-0.13,1.38-0.17,2.06,0" style="fill:none;stroke:#999;stroke-width:3"></path>
<path d="M344.45,27.51c1.01,0.35,1.82,2.04,1.82,2.75c0,3.81-0.74,18.49-0.74,24.11c0,1.38,0.48,2.4,2.47,1.88c6.75-1.75,18.25-5.75,30.5-10" style="fill:none;stroke:#999;stroke-width:3"></path>
<path d="M415.04,16.19c0.2,0.33,0.32,1.3-0.18,1.81c-3.25,3.3-14.41,12.4-24.92,15.78" style="fill:none;stroke:#999;stroke-width:3"></path>

<path d="M470.32,13.23c1.01,0.35,1.62,1.56,1.82,2.25c0.2,0.69-0.07,27.91-0.07,35.35" style="fill:none;stroke:#999;stroke-width:3"></path>
<path d="M472.65,31.49c4.5-0.52,10.82-2.06,15.24-2.58c1.1-0.13,1.38-0.17,2.06,0" style="fill:none;stroke:#999;stroke-width:3"></path>
<path d="M453.45,27.51c1.01,0.35,1.82,2.04,1.82,2.75c0,3.81-0.74,18.49-0.74,24.11c0,1.38,0.48,2.4,2.47,1.88c6.75-1.75,18.25-5.75,30.5-10" style="fill:none;stroke:#999;stroke-width:3"></path>
<path d="M524.04,16.19c0.2,0.33,0.32,1.3-0.18,1.81c-3.25,3.3-14.41,12.4-24.92,15.78" style="fill:none;stroke:#999;stroke-width:3"></path>
<path d="M496.46,12.5c1.09,1.03,1.16,1.71,1.53,3.08c0.36,1.37,0.11,21.54,0.11,30.88c0,9.34,8.87,7.84,16.43,7.84c14.86,0,15.11-2.6,15.11-9.15" style="fill:none;stroke:#999;stroke-width:3"></path>

<path d="M579.3199999999999,13.23c1.01,0.35,1.62,1.56,1.82,2.25c0.2,0.69-0.07,27.91-0.07,35.35" style="fill:none;stroke:#999;stroke-width:3"></path>
<path d="M581.65,31.49c4.5-0.52,10.82-2.06,15.24-2.58c1.1-0.13,1.38-0.17,2.06,0" style="fill:none;stroke:#999;stroke-width:3"></path>
<path d="M562.45,27.51c1.01,0.35,1.82,2.04,1.82,2.75c0,3.81-0.74,18.49-0.74,24.11c0,1.38,0.48,2.4,2.47,1.88c6.75-1.75,18.25-5.75,30.5-10" style="fill:none;stroke:#999;stroke-width:3"></path>
<path d="M633.04,16.19c0.2,0.33,0.32,1.3-0.18,1.81c-3.25,3.3-14.41,12.4-24.92,15.78" style="fill:none;stroke:#999;stroke-width:3"></path>
<path d="M605.46,12.5c1.09,1.03,1.16,1.71,1.53,3.08c0.36,1.37,0.11,21.54,0.11,30.88c0,9.34,8.87,7.84,16.43,7.84c14.86,0,15.11-2.6,15.11-9.15" style="fill:none;stroke:#999;stroke-width:3"></path>
<path d="M576.0,67.35c0.47,0.52,0.95,0.96,1.16,1.61c1.63,5.18,3.09,18.47,4.2,27.78" style="fill:none;stroke:#999;stroke-width:3"></path>

<path d="M688.3199999999999,13.23c1.01,0.35,1.62,1.56,1.82,2.25c0.2,0.69-0.07,27.91-0.07,35.35" style="fill:none;stroke:#999;stroke-width:3"></path>
<path d="M690.65,31.49c4.5-0.52,10.82-2.06,15.24-2.58c1.1-0.13,1.38-0.17,2.06,0" style="fill:none;stroke:#999;stroke-width:3"></path>
<path d="M671.45,27.51c1.01,0.35,1.82,2.04,1.82,2.75c0,3.81-0.74,18.49-0.74,24.11c0,1.38,0.48,2.4,2.47,1.88c6.75-1.75,18.25-5.75,30.5-10" style="fill:none;stroke:#999;stroke-width:3"></path>
<path d="M742.04,16.19c0.2,0.33,0.32,1.3-0.18,1.81c-3.25,3.3-14.41,12.4-24.92,15.78" style="fill:none;stroke:#999;stroke-width:3"></path>
<path d="M714.46,12.5c1.09,1.03,1.16,1.71,1.53,3.08c0.36,1.37,0.11,21.54,0.11,30.88c0,9.34,8.87,7.84,16.43,7.84c14.86,0,15.11-2.6,15.11-9.15" style="fill:none;stroke:#999;stroke-width:3"></path>
<path d="M685.0,67.35c0.47,0.52,0.95,0.96,1.16,1.61c1.63,5.18,3.09,18.47,4.2,27.78" style="fill:none;stroke:#999;stroke-width:3"></path>
<path d="M686.56,69.37c14.94-1.87,32.54-3.69,40.18-4.37c2.79-0.25,4.46,1.48,4.06,2.94c-1.65,6.05-3.08,13.87-5.54,22.24" style="fill:none;stroke:#999;stroke-width:3"></path>

<path d="M797.3199999999999,13.23c1.01,0.35,1.62,1.56,1.82,2.25c0.2,0.69-0.07,27.91-0.07,35.35" style="fill:none;stroke:#999;stroke-width:3"></path>
<path d="M799.65,31.49c4.5-0.52,10.82-2.06,15.24-2.58c1.1-0.13,1.38-0.17,2.06,0" style="fill:none;stroke:#999;stroke-width:3"></path>
<path d="M780.45,27.51c1.01,0.35,1.82,2.04,1.82,2.75c0,3.81-0.74,18.49-0.74,24.11c0,1.38,0.48,2.4,2.47,1.88c6.75-1.75,18.25-5.75,30.5-10" style="fill:none;stroke:#999;stroke-width:3"></path>
<path d="M851.04,16.19c0.2,0.33,0.32,1.3-0.18,1.81c-3.25,3.3-14.41,12.4-24.92,15.78" style="fill:none;stroke:#999;stroke-width:3"></path>
<path d="M823.46,12.5c1.09,1.03,1.16,1.71,1.53,3.08c0.36,1.37,0.11,21.54,0.11,30.88c0,9.34,8.87,7.84,16.43,7.84c14.86,0,15.11-2.6,15.11-9.15" style="fill:none;stroke:#999;stroke-width:3"></path>
<path d="M794.0,67.35c0.47,0.52,0.95,0.96,1.16,1.61c1.63,5.18,3.09,18.47,4.2,27.78" style="fill:none;stroke:#999;stroke-width:3"></path>
<path d="M795.56,69.37c14.94-1.87,32.54-3.69,40.18-4.37c2.79-0.25,4.46,1.48,4.06,2.94c-1.65,6.05-3.08,13.87-5.54,22.24" style="fill:none;stroke:#999;stroke-width:3"></path>
<path d="M799.42,93.7c8.96-0.77,25.32-2.1,37.63-3.28" style="fill:none;stroke:#999;stroke-width:3"></path>

</svg>