<svg width="872px" height="109px" viewBox="0 0 872 109" xmlns="http://www.w3.org/2000/svg" xmlns:xlink="http://www.w3.org/1999/xlink" xml:space="preserve" version="1.1" baseProfile="full">
<line x1="1" y1="1" x2="871" y2="1" style="stroke:#ddd;stroke-width:2"></line>
<line x1="1" y1="1" x2="1" y2="108" style="stroke:#ddd;stroke-width:2"></line>
<line x1="1" y1="108" x2="871" y2="108" style="stroke:#ddd;stroke-width:2"></line>
<line x1="871" y1="1" x2="871" y2="108" style="stroke:#ddd;stroke-width:2"></line>
<line x1="109" y1="1" x2="109" y2="108" style="stroke:#ddd;stroke-width:2"></line>
<line x1="218" y1="1" x2="218" y2="108" style="stroke:#ddd;stroke-width:2"></line>
<line x1="327" y1="1" x2="327" y2="108" style="stroke:#ddd;stroke-width:2"></line>
<line x1="436" y1="1" x2="436" y2="108" style="stroke:#ddd;stroke-width:2"></line>
<line x1="545" y1="1" x2="545" y2="108" style="stroke:#ddd;stroke-width:2"></line>
<line x1="654" y1="1" x2="654" y2="108" style="stroke:#ddd;stroke-width:2"></line>
<line x1="763" y1="1" x2="763" y2="108" style="stroke:#ddd;stroke-width:2"></line>
<line x1="1" y1="54" x2="871" y2="54" style="stroke:#ddd;stroke-width:2;stroke-dasharray:3 3"></line>
<line x1="55" y1="1" x2="55" y2="108" style="stroke:#ddd;stroke-width:2;stroke-dasharray:3 3"></line>
<line x1="164" y1="1" x2="164" y2="108" style="stroke:#ddd;stroke-width:2;stroke-dasharray:3 3"></line>
<line x1="273" y1="1" x2="273" y2="108" style="stroke:#ddd;stroke-width:2;stroke-dasharray:3 3"></line>
<line x1="382" y1="1" x2="382" y2="108" style="stroke:#ddd;stroke-width:2;stroke-dasharray:3 3"></line>
<line x1="491" y1="1" x2="491" y2="108" style="stroke:#ddd;stroke-width:2;stroke-dasharray:3 3"></line>
<line x1="600" y1="1" x2="600" y2="108" style="stroke:#ddd;stroke-width:2;stroke-dasharray:3 3"></line>
<line x1="709" y1="1" x2="709" y2="108" style="stroke:#ddd;stroke-width:2;stroke-dasharray:3 3"></line>
<line x1="818" y1="1" x2="818" y2="108" style="stroke:#ddd;stroke-width:2;stroke-dasharray:3 3"></line>
<path d="M10.75,34.79c0.37,0.51,0.76,0.94,0.92,1.58C12.96,41.43,15.01,52.9,15.9,62" style="fill:none;stroke:#999;stroke-width:3"></path>

<path d="M119.75,34.79c0.37,0.51,0.76,0.94,0.92,1.58C121.96000000000001,41.43,124.01,52.9,124.9,62" style="fill:none;stroke:#999;stroke-width:3"></path>
<path d="M121.58,35.72c7.92-1.22,16.05-2.56,20.42-3.23c1.6-0.24,2.56,1.44,2.33,2.87c-0.95,5.92-2.55,11.57-3.96,19.75" style="fill:none;stroke:#999;stroke-width:3"></path>

<path d="M228.75,34.79c0.37,0.51,0.76,0.94,0.92,1.58C230.96,41.43,233.01,52.9,233.9,62" style="fill:none;stroke:#999;stroke-width:3"></path>
<path d="M230.57999999999998,35.72c7.92-1.22,16.05-2.56,20.42-3.23c1.6-0.24,2.56,1.44,2.33,2.87c-0.95,5.92-2.55,11.57-3.96,19.75" style="fill:none;stroke:#999;stroke-width:3"></path>
<path d="M234.07,58.05c5.14-0.75,10.83-1.05,17.89-2.21" style="fill:none;stroke:#999;stroke-width:3"></path>

<path d="M337.75,34.79c0.37,0.51,0.76,0.94,0.92,1.58C339.96000000000004,41.43,342.01,52.9,342.9,62" style="fill:none;stroke:#999;stroke-width:3"></path>
<path d="M339.58,35.72c7.92-1.22,16.05-2.56,20.42-3.23c1.6-0.24,2.56,1.44,2.33,2.87c-0.95,5.92-2.55,11.57-3.96,19.75" style="fill:none;stroke:#999;stroke-width:3"></path>
<path d="M343.07,58.05c5.14-0.75,10.83-1.05,17.89-2.21" style="fill:none;stroke:#999;stroke-width:3"></path>
<path d="M371.79,17.08c0.34,0.72,1.41,2.29,1.58,3.18c1.71,9.05,4.49,25.96,5.39,39.41" style="fill:none;stroke:#999;stroke-width:3"></path>

<path d="M446.75,34.79c0.37,0.51,0.76,0.94,0.92,1.58C448.96000000000004,41.43,451.01,52.9,451.9,62" style="fill:none;stroke:#999;stroke-width:3"></path>
<path d="M448.58,35.72c7.92-1.22,16.05-2.56,20.42-3.23c1.6-0.24,2.56,1.44,2.33,2.87c-0.95,5.92-2.55,11.57-3.96,19.75" style="fill:none;stroke:#999;stroke-width:3"></path>
<path d="M452.07,58.05c5.14-0.75,10.83-1.05,17.89-2.21" style="fill:none;stroke:#999;stroke-width:3"></path>
<path d="M480.79,17.08c0.34,0.72,1.41,2.29,1.58,3.18c1.71,9.05,4.49,25.96,5.39,39.41" style="fill:none;stroke:#999;stroke-width:3"></path>
<path d="M482.95,18.74c13.15-1.66,34.99-4.05,44.03-4.76c3.32-0.26,5.32,1.28,5.2,4.31c-0.28,7.21-4.53,33.95-5.84,38.38" style="fill:none;stroke:#999;stroke-width:3"></path>

<path d="M555.75,34.79c0.37,0.51,0.76,0.94,0.92,1.58C557.96,41.43,560.01,52.9,560.9,62" style="fill:none;stroke:#999;stroke-width:3"></path>
<path d="M557.5799999999999,35.72c7.92-1.22,16.05-2.56,20.42-3.23c1.6-0.24,2.56,1.44,2.33,2.87c-0.95,5.92-2.55,11.57-3.96,19.75" style="fill:none;stroke:#999;stroke-width:3"></path>
<path d="M561.0699999999999,58.05c5.14-0.75,10.83-1.05,17.89-2.21" style="fill:none;stroke:#999;stroke-width:3"></path>
<path d="M589.79,17.08c0.34,0.72,1.41,2.29,1.58,3.18c1.71,9.05,4.49,25.96,5.39,39.41" style="fill:none;stroke:#999;stroke-width:3"></path>
<path d="M591.95,18.74c13.15-1.66,34.99-4.05,44.03-4.76c3.32-0.26,5.32,1.28,5.2,4.31c-0.28,7.21-4.53,33.95-5.84,38.38" style="fill:none;stroke:#999;stroke-width:3"></path>
<path d="M594.16,37.47c3.95-0.35,41.64-3.54,44.9-3.54" style="fill:none;stroke:#999;stroke-width:3"></path>

<path d="M664.75,34.79c0.37,0.51,0.76,0.94,0.92,1.58C666.96,41.43,669.01,52.9,669.9,62" style="fill:none;stroke:#999;stroke-width:3"></path>
<path d="M666.5799999999999,35.72c7.92-1.22,16.05-2.56,20.42-3.23c1.6-0.24,2.56,1.44,2.33,2.87c-0.95,5.92-2.55,11.57-3.96,19.75" style="fill:none;stroke:#999;stroke-width:3"></path>
<path d="M670.0699999999999,58.05c5.14-0.75,10.83-1.05,17.89-2.21" style="fill:none;stroke:#999;stroke-width:3"></path>
<path d="M698.79,17.08c0.34,0.72,1.41,2.29,1.58,3.18c1.71,9.05,4.49,25.96,5.39,39.41" style="fill:none;stroke:#999;stroke-width:3"></path>
<path d="M700.95,18.74c13.15-1.66,34.99-4.05,44.03-4.76c3.32-0.26,5.32,1.28,5.2,4.31c-0.28,7.21-4.53,33.95-5.84,38.38" style="fill:none;stroke:#999;stroke-width:3"></path>
<path d="M703.16,37.47c3.95-0.35,41.64-3.54,44.9-3.54" style="fill:none;stroke:#999;stroke-width:3"></path>
<path d="M705.39,56.26c11.44-1.64,27.09-2.69,39.6-3.39" style="fill:none;stroke:#999;stroke-width:3"></path>

<path d="M773.75,34.79c0.37,0.51,0.76,0.94,0.92,1.58C775.96,41.43,778.01,52.9,778.9,62" style="fill:none;stroke:#999;stroke-width:3"></path>
<path d="M775.5799999999999,35.72c7.92-1.22,16.05-2.56,20.42-3.23c1.6-0.24,2.56,1.44,2.33,2.87c-0.95,5.92-2.55,11.57-3.96,19.75" style="fill:none;stroke:#999;stroke-width:3"></path>
<path d="M779.0699999999999,58.05c5.14-0.75,10.83-1.05,17.89-2.21" style="fill:none;stroke:#999;stroke-width:3"></path>
<path d="M807.79,17.08c0.34,0.72,1.41,2.29,1.58,3.18c1.71,9.05,4.49,25.96,5.39,39.41" style="fill:none;stroke:#999;stroke-width:3"></path>
<path d="M809.95,18.74c13.15-1.66,34.99-4.05,44.03-4.76c3.32-0.26,5.32,1.28,5.2,4.31c-0.28,7.21-4.53,33.95-5.84,38.38" style="fill:none;stroke:#999;stroke-width:3"></path>
<path d="M812.16,37.47c3.95-0.35,41.64-3.54,44.9-3.54" style="fill:none;stroke:#999;stroke-width:3"></path>
<path d="M814.39,56.26c11.44-1.64,27.09-2.69,39.6-3.39" style="fill:none;stroke:#999;stroke-width:3"></path>
<path d="M832.4300000000001,18.41c0.97,0.61,1.58,2.23,1.57,4.16c-0.03,9.83,0.33,73.69,0.33,76.89" style="fill:none;stroke:#999;stroke-width:3"></path>

</svg>