<svg width="981px" height="109px" viewBox="0 0 981 109" xmlns="http://www.w3.org/2000/svg" xmlns:xlink="http://www.w3.org/1999/xlink" xml:space="preserve" version="1.1" baseProfile="full">
<line x1="1" y1="1" x2="980" y2="1" style="stroke:#ddd;stroke-width:2"></line>
<line x1="1" y1="1" x2="1" y2="108" style="stroke:#ddd;stroke-width:2"></line>
<line x1="1" y1="108" x2="980" y2="108" style="stroke:#ddd;stroke-width:2"></line>
<line x1="980" y1="1" x2="980" y2="108" style="stroke:#ddd;stroke-width:2"></line>
<line x1="109" y1="1" x2="109" y2="108" style="stroke:#ddd;stroke-width:2"></line>
<line x1="218" y1="1" x2="218" y2="108" style="stroke:#ddd;stroke-width:2"></line>
<line x1="327" y1="1" x2="327" y2="108" style="stroke:#ddd;stroke-width:2"></line>
<line x1="436" y1="1" x2="436" y2="108" style="stroke:#ddd;stroke-width:2"></line>
<line x1="545" y1="1" x2="545" y2="108" style="stroke:#ddd;stroke-width:2"></line>
<line x1="654" y1="1" x2="654" y2="108" style="stroke:#ddd;stroke-width:2"></line>
<line x1="763" y1="1" x2="763" y2="108" style="stroke:#ddd;stroke-width:2"></line>
<line x1="872" y1="1" x2="872" y2="108" style="stroke:#ddd;stroke-width:2"></line>
<line x1="1" y1="54" x2="980" y2="54" style="stroke:#ddd;stroke-width:2;stroke-dasharray:3 3"></line>
<line x1="55" y1="1" x2="55" y2="108" style="stroke:#ddd;stroke-width:2;stroke-dasharray:3 3"></line>
<line x1="164" y1="1" x2="164" y2="108" style="stroke:#ddd;stroke-width:2;stroke-dasharray:3 3"></line>
<line x1="273" y1="1" x2="273" y2="108" style="stroke:#ddd;stroke-width:2;stroke-dasharray:3 3"></line>
<line x1="382" y1="1" x2="382" y2="108" style="stroke:#ddd;stroke-width:2;stroke-dasharray:3 3"></line>
<line x1="491" y1="1" x2="491" y2="108" style="stroke:#ddd;stroke-width:2;stroke-dasharray:3 3"></line>
<line x1="600" y1="1" x2="600" y2="108" style="stroke:#ddd;stroke-width:2;stroke-dasharray:3 3"></line>
<line x1="709" y1="1" x2="709" y2="108" style="stroke:#ddd;stroke-width:2;stroke-dasharray:3 3"></line>
<line x1="818" y1="1" x2="818" y2="108" style="stroke:#ddd;stroke-width:2;stroke-dasharray:3 3"></line>
<line x1="927" y1="1" x2="927" y2="108" style="stroke:#ddd;stroke-width:2;stroke-dasharray:3 3"></line>
<path d="M28.01,34.89c0.05,1.4-0.05,3.6-0.1,5.61c-0.41,18.75-5.41,45.75-16.1,54.47" style="fill:none;stroke:#999;stroke-width:3"></path>

<path d="M137.01,34.89c0.05,1.4-0.05,3.6-0.1,5.61c-0.41,18.75-5.41,45.75-16.1,54.47" style="fill:none;stroke:#999;stroke-width:3"></path>
<path d="M133.75,33.7c1.52,0.54,4.32,0.8,5.82,0.54c6.15-1.05,34.93-4.74,51.11-5.23c2.53-0.08,4.05,0.26,5.31,0.53" style="fill:none;stroke:#999;stroke-width:3"></path>

<path d="M246.01,34.89c0.05,1.4-0.05,3.6-0.1,5.61c-0.41,18.75-5.41,45.75-16.1,54.47" style="fill:none;stroke:#999;stroke-width:3"></path>
<path d="M242.75,33.7c1.52,0.54,4.32,0.8,5.82,0.54c6.15-1.05,34.93-4.74,51.11-5.23c2.53-0.08,4.05,0.26,5.31,0.53" style="fill:none;stroke:#999;stroke-width:3"></path>
<path d="M249.75,49.38c1.15,0.47,3.26,0.66,4.41,0.47c4.06-0.65,10.36-1.52,14.08-1.95c1.9-0.22,3.55-0.39,4.51-0.15" style="fill:none;stroke:#999;stroke-width:3"></path>

<path d="M355.01,34.89c0.05,1.4-0.05,3.6-0.1,5.61c-0.41,18.75-5.41,45.75-16.1,54.47" style="fill:none;stroke:#999;stroke-width:3"></path>
<path d="M351.75,33.7c1.52,0.54,4.32,0.8,5.82,0.54c6.15-1.05,34.93-4.74,51.11-5.23c2.53-0.08,4.05,0.26,5.31,0.53" style="fill:none;stroke:#999;stroke-width:3"></path>
<path d="M358.75,49.38c1.15,0.47,3.26,0.66,4.41,0.47c4.06-0.65,10.36-1.52,14.08-1.95c1.9-0.22,3.55-0.39,4.51-0.15" style="fill:none;stroke:#999;stroke-width:3"></path>
<path d="M358.75,62.14c0.42,0.39,0.85,0.72,1.04,1.21c1.46,3.9,2.46,11.9,3.46,18.9" style="fill:none;stroke:#999;stroke-width:3"></path>

<path d="M464.01,34.89c0.05,1.4-0.05,3.6-0.1,5.61c-0.41,18.75-5.41,45.75-16.1,54.47" style="fill:none;stroke:#999;stroke-width:3"></path>
<path d="M460.75,33.7c1.52,0.54,4.32,0.8,5.82,0.54c6.15-1.05,34.93-4.74,51.11-5.23c2.53-0.08,4.05,0.26,5.31,0.53" style="fill:none;stroke:#999;stroke-width:3"></path>
<path d="M467.75,49.38c1.15,0.47,3.26,0.66,4.41,0.47c4.06-0.65,10.36-1.52,14.08-1.95c1.9-0.22,3.55-0.39,4.51-0.15" style="fill:none;stroke:#999;stroke-width:3"></path>
<path d="M467.75,62.14c0.42,0.39,0.85,0.72,1.04,1.21c1.46,3.9,2.46,11.9,3.46,18.9" style="fill:none;stroke:#999;stroke-width:3"></path>
<path d="M470.38,63.78C479.0,62.25,484.5,60.5,489.44,59.99c1.8-0.19,2.89,1.11,2.63,2.21c-1.07,4.55-1.82,8.3-3.41,14.6" style="fill:none;stroke:#999;stroke-width:3"></path>

<path d="M573.01,34.89c0.05,1.4-0.05,3.6-0.1,5.61c-0.41,18.75-5.41,45.75-16.1,54.47" style="fill:none;stroke:#999;stroke-width:3"></path>
<path d="M569.75,33.7c1.52,0.54,4.32,0.8,5.82,0.54c6.15-1.05,34.93-4.74,51.11-5.23c2.53-0.08,4.05,0.26,5.31,0.53" style="fill:none;stroke:#999;stroke-width:3"></path>
<path d="M576.75,49.38c1.15,0.47,3.26,0.66,4.41,0.47c4.06-0.65,10.36-1.52,14.08-1.95c1.9-0.22,3.55-0.39,4.51-0.15" style="fill:none;stroke:#999;stroke-width:3"></path>
<path d="M576.75,62.14c0.42,0.39,0.85,0.72,1.04,1.21c1.46,3.9,2.46,11.9,3.46,18.9" style="fill:none;stroke:#999;stroke-width:3"></path>
<path d="M579.38,63.78C588.0,62.25,593.5,60.5,598.44,59.99c1.8-0.19,2.89,1.11,2.63,2.21c-1.07,4.55-1.82,8.3-3.41,14.6" style="fill:none;stroke:#999;stroke-width:3"></path>
<path d="M581.0,80c5.8-0.58,10.5-1.75,18.46-2.64" style="fill:none;stroke:#999;stroke-width:3"></path>

<path d="M682.01,34.89c0.05,1.4-0.05,3.6-0.1,5.61c-0.41,18.75-5.41,45.75-16.1,54.47" style="fill:none;stroke:#999;stroke-width:3"></path>
<path d="M678.75,33.7c1.52,0.54,4.32,0.8,5.82,0.54c6.15-1.05,34.93-4.74,51.11-5.23c2.53-0.08,4.05,0.26,5.31,0.53" style="fill:none;stroke:#999;stroke-width:3"></path>
<path d="M685.75,49.38c1.15,0.47,3.26,0.66,4.41,0.47c4.06-0.65,10.36-1.52,14.08-1.95c1.9-0.22,3.55-0.39,4.51-0.15" style="fill:none;stroke:#999;stroke-width:3"></path>
<path d="M685.75,62.14c0.42,0.39,0.85,0.72,1.04,1.21c1.46,3.9,2.46,11.9,3.46,18.9" style="fill:none;stroke:#999;stroke-width:3"></path>
<path d="M688.38,63.78C697.0,62.25,702.5,60.5,707.44,59.99c1.8-0.19,2.89,1.11,2.63,2.21c-1.07,4.55-1.82,8.3-3.41,14.6" style="fill:none;stroke:#999;stroke-width:3"></path>
<path d="M690.0,80c5.8-0.58,10.5-1.75,18.46-2.64" style="fill:none;stroke:#999;stroke-width:3"></path>
<path d="M708.25,11c1.79,1.83,2.62,2.32,2.91,6.26c2.3,30.77,14.02,64.33,35.11,76.5c6.97,4.02,5.95,1.45,5.05-6.63" style="fill:none;stroke:#999;stroke-width:3"></path>

<path d="M791.01,34.89c0.05,1.4-0.05,3.6-0.1,5.61c-0.41,18.75-5.41,45.75-16.1,54.47" style="fill:none;stroke:#999;stroke-width:3"></path>
<path d="M787.75,33.7c1.52,0.54,4.32,0.8,5.82,0.54c6.15-1.05,34.93-4.74,51.11-5.23c2.53-0.08,4.05,0.26,5.31,0.53" style="fill:none;stroke:#999;stroke-width:3"></path>
<path d="M794.75,49.38c1.15,0.47,3.26,0.66,4.41,0.47c4.06-0.65,10.36-1.52,14.08-1.95c1.9-0.22,3.55-0.39,4.51-0.15" style="fill:none;stroke:#999;stroke-width:3"></path>
<path d="M794.75,62.14c0.42,0.39,0.85,0.72,1.04,1.21c1.46,3.9,2.46,11.9,3.46,18.9" style="fill:none;stroke:#999;stroke-width:3"></path>
<path d="M797.38,63.78C806.0,62.25,811.5,60.5,816.44,59.99c1.8-0.19,2.89,1.11,2.63,2.21c-1.07,4.55-1.82,8.3-3.41,14.6" style="fill:none;stroke:#999;stroke-width:3"></path>
<path d="M799.0,80c5.8-0.58,10.5-1.75,18.46-2.64" style="fill:none;stroke:#999;stroke-width:3"></path>
<path d="M817.25,11c1.79,1.83,2.62,2.32,2.91,6.26c2.3,30.77,14.02,64.33,35.11,76.5c6.97,4.02,5.95,1.45,5.05-6.63" style="fill:none;stroke:#999;stroke-width:3"></path>
<path d="M845.47,45.14c0.09,1.13,0.18,2.92-0.17,4.54c-2.12,9.58-13.85,31.41-30.49,44.28" style="fill:none;stroke:#999;stroke-width:3"></path>

<path d="M900.01,34.89c0.05,1.4-0.05,3.6-0.1,5.61c-0.41,18.75-5.41,45.75-16.1,54.47" style="fill:none;stroke:#999;stroke-width:3"></path>
<path d="M896.75,33.7c1.52,0.54,4.32,0.8,5.82,0.54c6.15-1.05,34.93-4.74,51.11-5.23c2.53-0.08,4.05,0.26,5.31,0.53" style="fill:none;stroke:#999;stroke-width:3"></path>
<path d="M903.75,49.38c1.15,0.47,3.26,0.66,4.41,0.47c4.06-0.65,10.36-1.52,14.08-1.95c1.9-0.22,3.55-0.39,4.51-0.15" style="fill:none;stroke:#999;stroke-width:3"></path>
<path d="M903.75,62.14c0.42,0.39,0.85,0.72,1.04,1.21c1.46,3.9,2.46,11.9,3.46,18.9" style="fill:none;stroke:#999;stroke-width:3"></path>
<path d="M906.38,63.78C915.0,62.25,920.5,60.5,925.44,59.99c1.8-0.19,2.89,1.11,2.63,2.21c-1.07,4.55-1.82,8.3-3.41,14.6" style="fill:none;stroke:#999;stroke-width:3"></path>
<path d="M908.0,80c5.8-0.58,10.5-1.75,18.46-2.64" style="fill:none;stroke:#999;stroke-width:3"></path>
<path d="M926.25,11c1.79,1.83,2.62,2.32,2.91,6.26c2.3,30.77,14.02,64.33,35.11,76.5c6.97,4.02,5.95,1.45,5.05-6.63" style="fill:none;stroke:#999;stroke-width:3"></path>
<path d="M954.47,45.14c0.09,1.13,0.18,2.92-0.17,4.54c-2.12,9.58-13.85,31.41-30.49,44.28" style="fill:none;stroke:#999;stroke-width:3"></path>
<path d="M944.25,12.5c3.59,1.6,9.33,5.26,11,8" style="fill:none;stroke:#999;stroke-width:3"></path>

</svg>