<svg width="981px" height="109px" viewBox="0 0 981 109" xmlns="http://www.w3.org/2000/svg" xmlns:xlink="http://www.w3.org/1999/xlink" xml:space="preserve" version="1.1" baseProfile="full">
<line x1="1" y1="1" x2="980" y2="1" style="stroke:#ddd;stroke-width:2"></line>
<line x1="1" y1="1" x2="1" y2="108" style="stroke:#ddd;stroke-width:2"></line>
<line x1="1" y1="108" x2="980" y2="108" style="stroke:#ddd;stroke-width:2"></line>
<line x1="980" y1="1" x2="980" y2="108" style="stroke:#ddd;stroke-width:2"></line>
<line x1="109" y1="1" x2="109" y2="108" style="stroke:#ddd;stroke-width:2"></line>
<line x1="218" y1="1" x2="218" y2="108" style="stroke:#ddd;stroke-width:2"></line>
<line x1="327" y1="1" x2="327" y2="108" style="stroke:#ddd;stroke-width:2"></line>
<line x1="436" y1="1" x2="436" y2="108" style="stroke:#ddd;stroke-width:2"></line>
<line x1="545" y1="1" x2="545" y2="108" style="stroke:#ddd;stroke-width:2"></line>
<line x1="654" y1="1" x2="654" y2="108" style="stroke:#ddd;stroke-width:2"></line>
<line x1="763" y1="1" x2="763" y2="108" style="stroke:#ddd;stroke-width:2"></line>
<line x1="872" y1="1" x2="872" y2="108" style="stroke:#ddd;stroke-width:2"></line>
<line x1="1" y1="54" x2="980" y2="54" style="stroke:#ddd;stroke-width:2;stroke-dasharray:3 3"></line>
<line x1="55" y1="1" x2="55" y2="108" style="stroke:#ddd;stroke-width:2;stroke-dasharray:3 3"></line>
<line x1="164" y1="1" x2="164" y2="108" style="stroke:#ddd;stroke-width:2;stroke-dasharray:3 3"></line>
<line x1="273" y1="1" x2="273" y2="108" style="stroke:#ddd;stroke-width:2;stroke-dasharray:3 3"></line>
<line x1="382" y1="1" x2="382" y2="108" style="stroke:#ddd;stroke-width:2;stroke-dasharray:3 3"></line>
<line x1="491" y1="1" x2="491" y2="108" style="stroke:#ddd;stroke-width:2;stroke-dasharray:3 3"></line>
<line x1="600" y1="1" x2="600" y2="108" style="stroke:#ddd;stroke-width:2;stroke-dasharray:3 3"></line>
<line x1="709" y1="1" x2="709" y2="108" style="stroke:#ddd;stroke-width:2;stroke-dasharray:3 3"></line>
<line x1="818" y1="1" x2="818" y2="108" style="stroke:#ddd;stroke-width:2;stroke-dasharray:3 3"></line>
<line x1="927" y1="1" x2="927" y2="108" style="stroke:#ddd;stroke-width:2;stroke-dasharray:3 3"></line>
<path d="M31.25,18.63c1.12,0.9,1.84,1.63,2.17,3.11c1.34,6.06,2.95,14.39,4.27,22.02c0.23,1.36,0.46,2.69,0.67,3.99" style="fill:none;stroke:#999;stroke-width:3"></path>

<path d="M140.25,18.63c1.12,0.9,1.84,1.63,2.17,3.11c1.34,6.06,2.95,14.39,4.27,22.02c0.23,1.36,0.46,2.69,0.67,3.99" style="fill:none;stroke:#999;stroke-width:3"></path>
<path d="M143.31,20.67c11.36-2.13,27.84-3.97,36.21-4.76c3.58-0.34,6.48,0.83,5.44,4.83c-1.51,5.84-2.91,12.77-5.2,20.62" style="fill:none;stroke:#999;stroke-width:3"></path>

<path d="M249.25,18.63c1.12,0.9,1.84,1.63,2.17,3.11c1.34,6.06,2.95,14.39,4.27,22.02c0.23,1.36,0.46,2.69,0.67,3.99" style="fill:none;stroke:#999;stroke-width:3"></path>
<path d="M252.31,20.67c11.36-2.13,27.84-3.97,36.21-4.76c3.58-0.34,6.48,0.83,5.44,4.83c-1.51,5.84-2.91,12.77-5.2,20.62" style="fill:none;stroke:#999;stroke-width:3"></path>
<path d="M257.17,45.17c7.95-0.69,18.78-1.62,29.71-2.66c1.39-0.13,2.78-0.26,4.17-0.4" style="fill:none;stroke:#999;stroke-width:3"></path>

<path d="M358.25,18.63c1.12,0.9,1.84,1.63,2.17,3.11c1.34,6.06,2.95,14.39,4.27,22.02c0.23,1.36,0.46,2.69,0.67,3.99" style="fill:none;stroke:#999;stroke-width:3"></path>
<path d="M361.31,20.67c11.36-2.13,27.84-3.97,36.21-4.76c3.58-0.34,6.48,0.83,5.44,4.83c-1.51,5.84-2.91,12.77-5.2,20.62" style="fill:none;stroke:#999;stroke-width:3"></path>
<path d="M366.17,45.17c7.95-0.69,18.78-1.62,29.71-2.66c1.39-0.13,2.78-0.26,4.17-0.4" style="fill:none;stroke:#999;stroke-width:3"></path>
<path d="M341.25,63.88c0.92,1.02,1.24,1.7,1.57,3.08c1.25,5.11,2.39,15.01,3.33,23.15c0.18,1.54,0.35,3.02,0.52,4.4" style="fill:none;stroke:#999;stroke-width:3"></path>

<path d="M467.25,18.63c1.12,0.9,1.84,1.63,2.17,3.11c1.34,6.06,2.95,14.39,4.27,22.02c0.23,1.36,0.46,2.69,0.67,3.99" style="fill:none;stroke:#999;stroke-width:3"></path>
<path d="M470.31,20.67c11.36-2.13,27.84-3.97,36.21-4.76c3.58-0.34,6.48,0.83,5.44,4.83c-1.51,5.84-2.91,12.77-5.2,20.62" style="fill:none;stroke:#999;stroke-width:3"></path>
<path d="M475.17,45.17c7.95-0.69,18.78-1.62,29.71-2.66c1.39-0.13,2.78-0.26,4.17-0.4" style="fill:none;stroke:#999;stroke-width:3"></path>
<path d="M450.25,63.88c0.92,1.02,1.24,1.7,1.57,3.08c1.25,5.11,2.39,15.01,3.33,23.15c0.18,1.54,0.35,3.02,0.52,4.4" style="fill:none;stroke:#999;stroke-width:3"></path>
<path d="M452.71,65.42c10.62-1.69,18.5-2.68,24.05-3.17c4.11-0.37,5.36,1.01,4.85,3.73c-1.12,5.95-2.51,13.41-4.21,21.38" style="fill:none;stroke:#999;stroke-width:3"></path>

<path d="M576.25,18.63c1.12,0.9,1.84,1.63,2.17,3.11c1.34,6.06,2.95,14.39,4.27,22.02c0.23,1.36,0.46,2.69,0.67,3.99" style="fill:none;stroke:#999;stroke-width:3"></path>
<path d="M579.31,20.67c11.36-2.13,27.84-3.97,36.21-4.76c3.58-0.34,6.48,0.83,5.44,4.83c-1.51,5.84-2.91,12.77-5.2,20.62" style="fill:none;stroke:#999;stroke-width:3"></path>
<path d="M584.1700000000001,45.17c7.95-0.69,18.78-1.62,29.71-2.66c1.39-0.13,2.78-0.26,4.17-0.4" style="fill:none;stroke:#999;stroke-width:3"></path>
<path d="M559.25,63.88c0.92,1.02,1.24,1.7,1.57,3.08c1.25,5.11,2.39,15.01,3.33,23.15c0.18,1.54,0.35,3.02,0.52,4.4" style="fill:none;stroke:#999;stroke-width:3"></path>
<path d="M561.71,65.42c10.62-1.69,18.5-2.68,24.05-3.17c4.11-0.37,5.36,1.01,4.85,3.73c-1.12,5.95-2.51,13.41-4.21,21.38" style="fill:none;stroke:#999;stroke-width:3"></path>
<path d="M564.9,90.92c5.67-0.67,11.17-1.43,20.47-2.36c1.43-0.14,2.95-0.29,4.57-0.44" style="fill:none;stroke:#999;stroke-width:3"></path>

<path d="M685.25,18.63c1.12,0.9,1.84,1.63,2.17,3.11c1.34,6.06,2.95,14.39,4.27,22.02c0.23,1.36,0.46,2.69,0.67,3.99" style="fill:none;stroke:#999;stroke-width:3"></path>
<path d="M688.31,20.67c11.36-2.13,27.84-3.97,36.21-4.76c3.58-0.34,6.48,0.83,5.44,4.83c-1.51,5.84-2.91,12.77-5.2,20.62" style="fill:none;stroke:#999;stroke-width:3"></path>
<path d="M693.1700000000001,45.17c7.95-0.69,18.78-1.62,29.71-2.66c1.39-0.13,2.78-0.26,4.17-0.4" style="fill:none;stroke:#999;stroke-width:3"></path>
<path d="M668.25,63.88c0.92,1.02,1.24,1.7,1.57,3.08c1.25,5.11,2.39,15.01,3.33,23.15c0.18,1.54,0.35,3.02,0.52,4.4" style="fill:none;stroke:#999;stroke-width:3"></path>
<path d="M670.71,65.42c10.62-1.69,18.5-2.68,24.05-3.17c4.11-0.37,5.36,1.01,4.85,3.73c-1.12,5.95-2.51,13.41-4.21,21.38" style="fill:none;stroke:#999;stroke-width:3"></path>
<path d="M673.9,90.92c5.67-0.67,11.17-1.43,20.47-2.36c1.43-0.14,2.95-0.29,4.57-0.44" style="fill:none;stroke:#999;stroke-width:3"></path>
<path d="M712.75,61.88c1,1,1.54,1.84,1.77,3.12c1.11,6.25,2.07,14.89,2.93,22.87c0.15,1.42,0.31,2.81,0.47,4.13" style="fill:none;stroke:#999;stroke-width:3"></path>

<path d="M794.25,18.63c1.12,0.9,1.84,1.63,2.17,3.11c1.34,6.06,2.95,14.39,4.27,22.02c0.23,1.36,0.46,2.69,0.67,3.99" style="fill:none;stroke:#999;stroke-width:3"></path>
<path d="M797.31,20.67c11.36-2.13,27.84-3.97,36.21-4.76c3.58-0.34,6.48,0.83,5.44,4.83c-1.51,5.84-2.91,12.77-5.2,20.62" style="fill:none;stroke:#999;stroke-width:3"></path>
<path d="M802.1700000000001,45.17c7.95-0.69,18.78-1.62,29.71-2.66c1.39-0.13,2.78-0.26,4.17-0.4" style="fill:none;stroke:#999;stroke-width:3"></path>
<path d="M777.25,63.88c0.92,1.02,1.24,1.7,1.57,3.08c1.25,5.11,2.39,15.01,3.33,23.15c0.18,1.54,0.35,3.02,0.52,4.4" style="fill:none;stroke:#999;stroke-width:3"></path>
<path d="M779.71,65.42c10.62-1.69,18.5-2.68,24.05-3.17c4.11-0.37,5.36,1.01,4.85,3.73c-1.12,5.95-2.51,13.41-4.21,21.38" style="fill:none;stroke:#999;stroke-width:3"></path>
<path d="M782.9,90.92c5.67-0.67,11.17-1.43,20.47-2.36c1.43-0.14,2.95-0.29,4.57-0.44" style="fill:none;stroke:#999;stroke-width:3"></path>
<path d="M821.75,61.88c1,1,1.54,1.84,1.77,3.12c1.11,6.25,2.07,14.89,2.93,22.87c0.15,1.42,0.31,2.81,0.47,4.13" style="fill:none;stroke:#999;stroke-width:3"></path>
<path d="M824.71,64.67c10.68-1.7,20.56-3.71,26.54-4.63c3.5-0.54,5.37,0.84,4.89,3.57c-1.09,6.13-2.53,15.22-4.23,23.25" style="fill:none;stroke:#999;stroke-width:3"></path>

<path d="M903.25,18.63c1.12,0.9,1.84,1.63,2.17,3.11c1.34,6.06,2.95,14.39,4.27,22.02c0.23,1.36,0.46,2.69,0.67,3.99" style="fill:none;stroke:#999;stroke-width:3"></path>
<path d="M906.31,20.67c11.36-2.13,27.84-3.97,36.21-4.76c3.58-0.34,6.48,0.83,5.44,4.83c-1.51,5.84-2.91,12.77-5.2,20.62" style="fill:none;stroke:#999;stroke-width:3"></path>
<path d="M911.1700000000001,45.17c7.95-0.69,18.78-1.62,29.71-2.66c1.39-0.13,2.78-0.26,4.17-0.4" style="fill:none;stroke:#999;stroke-width:3"></path>
<path d="M886.25,63.88c0.92,1.02,1.24,1.7,1.57,3.08c1.25,5.11,2.39,15.01,3.33,23.15c0.18,1.54,0.35,3.02,0.52,4.4" style="fill:none;stroke:#999;stroke-width:3"></path>
<path d="M888.71,65.42c10.62-1.69,18.5-2.68,24.05-3.17c4.11-0.37,5.36,1.01,4.85,3.73c-1.12,5.95-2.51,13.41-4.21,21.38" style="fill:none;stroke:#999;stroke-width:3"></path>
<path d="M891.9,90.92c5.67-0.67,11.17-1.43,20.47-2.36c1.43-0.14,2.95-0.29,4.57-0.44" style="fill:none;stroke:#999;stroke-width:3"></path>
<path d="M930.75,61.88c1,1,1.54,1.84,1.77,3.12c1.11,6.25,2.07,14.89,2.93,22.87c0.15,1.42,0.31,2.81,0.47,4.13" style="fill:none;stroke:#999;stroke-width:3"></path>
<path d="M933.71,64.67c10.68-1.7,20.56-3.71,26.54-4.63c3.5-0.54,5.37,0.84,4.89,3.57c-1.09,6.13-2.53,15.22-4.23,23.25" style="fill:none;stroke:#999;stroke-width:3"></path>
<path d="M936.4,89.42c7.96-0.58,12.59-0.85,23.11-1.5c1.51-0.09,3.15-0.2,4.93-0.31" style="fill:none;stroke:#999;stroke-width:3"></path>

</svg>