<svg width="1090px" height="109px" viewBox="0 0 1090 109" xmlns="http://www.w3.org/2000/svg" xmlns:xlink="http://www.w3.org/1999/xlink" xml:space="preserve" version="1.1" baseProfile="full">
<line x1="1" y1="1" x2="1089" y2="1" style="stroke:#ddd;stroke-width:2"></line>
<line x1="1" y1="1" x2="1" y2="108" style="stroke:#ddd;stroke-width:2"></line>
<line x1="1" y1="108" x2="1089" y2="108" style="stroke:#ddd;stroke-width:2"></line>
<line x1="1089" y1="1" x2="1089" y2="108" style="stroke:#ddd;stroke-width:2"></line>
<line x1="109" y1="1" x2="109" y2="108" style="stroke:#ddd;stroke-width:2"></line>
<line x1="218" y1="1" x2="218" y2="108" style="stroke:#ddd;stroke-width:2"></line>
<line x1="327" y1="1" x2="327" y2="108" style="stroke:#ddd;stroke-width:2"></line>
<line x1="436" y1="1" x2="436" y2="108" style="stroke:#ddd;stroke-width:2"></line>
<line x1="545" y1="1" x2="545" y2="108" style="stroke:#ddd;stroke-width:2"></line>
<line x1="654" y1="1" x2="654" y2="108" style="stroke:#ddd;stroke-width:2"></line>
<line x1="763" y1="1" x2="763" y2="108" style="stroke:#ddd;stroke-width:2"></line>
<line x1="872" y1="1" x2="872" y2="108" style="stroke:#ddd;stroke-width:2"></line>
<line x1="981" y1="1" x2="981" y2="108" style="stroke:#ddd;stroke-width:2"></line>
<line x1="1" y1="54" x2="1089" y2="54" style="stroke:#ddd;stroke-width:2;stroke-dasharray:3 3"></line>
<line x1="55" y1="1" x2="55" y2="108" style="stroke:#ddd;stroke-width:2;stroke-dasharray:3 3"></line>
<line x1="164" y1="1" x2="164" y2="108" style="stroke:#ddd;stroke-width:2;stroke-dasharray:3 3"></line>
<line x1="273" y1="1" x2="273" y2="108" style="stroke:#ddd;stroke-width:2;stroke-dasharray:3 3"></line>
<line x1="382" y1="1" x2="382" y2="108" style="stroke:#ddd;stroke-width:2;stroke-dasharray:3 3"></line>
<line x1="491" y1="1" x2="491" y2="108" style="stroke:#ddd;stroke-width:2;stroke-dasharray:3 3"></line>
<line x1="600" y1="1" x2="600" y2="108" style="stroke:#ddd;stroke-width:2;stroke-dasharray:3 3"></line>
<line x1="709" y1="1" x2="709" y2="108" style="stroke:#ddd;stroke-width:2;stroke-dasharray:3 3"></line>
<line x1="818" y1="1" x2="818" y2="108" style="stroke:#ddd;stroke-width:2;stroke-dasharray:3 3"></line>
<line x1="927" y1="1" x2="927" y2="108" style="stroke:#ddd;stroke-width:2;stroke-dasharray:3 3"></line>
<line x1="1036" y1="1" x2="1036" y2="108" style="stroke:#ddd;stroke-width:2;stroke-dasharray:3 3"></line>
<path d="M19.63,16.52c1.32,0.56,3.75,0.82,5.05,0.56c5.33-1.08,35.6-5.23,60.84-5.38c2.2-0.01,3.51,0.27,4.61,0.54" style="fill:none;stroke:#999;stroke-width:3"></path>

<path d="M128.63,16.52c1.32,0.56,3.75,0.82,5.05,0.56c5.33-1.08,35.6-5.23,60.84-5.38c2.2-0.01,3.51,0.27,4.61,0.54" style="fill:none;stroke:#999;stroke-width:3"></path>
<path d="M141.81,26.82c0.34,0.28,0.7,0.5,0.85,0.85c1.19,2.72,2.77,9.94,3.59,14.83" style="fill:none;stroke:#999;stroke-width:3"></path>

<path d="M237.63,16.52c1.32,0.56,3.75,0.82,5.05,0.56c5.33-1.08,35.6-5.23,60.84-5.38c2.2-0.01,3.51,0.27,4.61,0.54" style="fill:none;stroke:#999;stroke-width:3"></path>
<path d="M250.81,26.82c0.34,0.28,0.7,0.5,0.85,0.85c1.19,2.72,2.77,9.94,3.59,14.83" style="fill:none;stroke:#999;stroke-width:3"></path>
<path d="M252.96,28.67c7.04-1.42,15.62-2.99,19.65-3.35c1.47-0.13,2.36,0.77,2.15,1.54c-0.87,3.18-1.89,7.02-3.19,11.41" style="fill:none;stroke:#999;stroke-width:3"></path>

<path d="M346.63,16.52c1.32,0.56,3.75,0.82,5.05,0.56c5.33-1.08,35.6-5.23,60.84-5.38c2.2-0.01,3.51,0.27,4.61,0.54" style="fill:none;stroke:#999;stroke-width:3"></path>
<path d="M359.81,26.82c0.34,0.28,0.7,0.5,0.85,0.85c1.19,2.72,2.77,9.94,3.59,14.83" style="fill:none;stroke:#999;stroke-width:3"></path>
<path d="M361.96000000000004,28.67c7.04-1.42,15.62-2.99,19.65-3.35c1.47-0.13,2.36,0.77,2.15,1.54c-0.87,3.18-1.89,7.02-3.19,11.41" style="fill:none;stroke:#999;stroke-width:3"></path>
<path d="M364.40999999999997,40.11c4.74-0.41,11.12-0.82,17.62-1.44" style="fill:none;stroke:#999;stroke-width:3"></path>

<path d="M455.63,16.52c1.32,0.56,3.75,0.82,5.05,0.56c5.33-1.08,35.6-5.23,60.84-5.38c2.2-0.01,3.51,0.27,4.61,0.54" style="fill:none;stroke:#999;stroke-width:3"></path>
<path d="M468.81,26.82c0.34,0.28,0.7,0.5,0.85,0.85c1.19,2.72,2.77,9.94,3.59,14.83" style="fill:none;stroke:#999;stroke-width:3"></path>
<path d="M470.96000000000004,28.67c7.04-1.42,15.62-2.99,19.65-3.35c1.47-0.13,2.36,0.77,2.15,1.54c-0.87,3.18-1.89,7.02-3.19,11.41" style="fill:none;stroke:#999;stroke-width:3"></path>
<path d="M473.40999999999997,40.11c4.74-0.41,11.12-0.82,17.62-1.44" style="fill:none;stroke:#999;stroke-width:3"></path>
<path d="M509.94,14.17c0.06,0.29,0.82,1.54,0.88,3.41c0.28,9-0.01,24.9-0.18,27.96c-0.1,1.87-1.2,2.62-2.78,2.47c-1.72-0.17-2.61-2.26-4.34-4.32" style="fill:none;stroke:#999;stroke-width:3"></path>

<path d="M564.63,16.52c1.32,0.56,3.75,0.82,5.05,0.56c5.33-1.08,35.6-5.23,60.84-5.38c2.2-0.01,3.51,0.27,4.61,0.54" style="fill:none;stroke:#999;stroke-width:3"></path>
<path d="M577.81,26.82c0.34,0.28,0.7,0.5,0.85,0.85c1.19,2.72,2.77,9.94,3.59,14.83" style="fill:none;stroke:#999;stroke-width:3"></path>
<path d="M579.96,28.67c7.04-1.42,15.62-2.99,19.65-3.35c1.47-0.13,2.36,0.77,2.15,1.54c-0.87,3.18-1.89,7.02-3.19,11.41" style="fill:none;stroke:#999;stroke-width:3"></path>
<path d="M582.41,40.11c4.74-0.41,11.12-0.82,17.62-1.44" style="fill:none;stroke:#999;stroke-width:3"></path>
<path d="M618.94,14.17c0.06,0.29,0.82,1.54,0.88,3.41c0.28,9-0.01,24.9-0.18,27.96c-0.1,1.87-1.2,2.62-2.78,2.47c-1.72-0.17-2.61-2.26-4.34-4.32" style="fill:none;stroke:#999;stroke-width:3"></path>
<path d="M563.13,58.52c1.32,0.56,3.75,0.82,5.05,0.56c5.33-1.09,41.6-5.23,66.84-5.38c2.2-0.01,3.51,0.27,4.61,0.54" style="fill:none;stroke:#999;stroke-width:3"></path>

<path d="M673.63,16.52c1.32,0.56,3.75,0.82,5.05,0.56c5.33-1.08,35.6-5.23,60.84-5.38c2.2-0.01,3.51,0.27,4.61,0.54" style="fill:none;stroke:#999;stroke-width:3"></path>
<path d="M686.81,26.82c0.34,0.28,0.7,0.5,0.85,0.85c1.19,2.72,2.77,9.94,3.59,14.83" style="fill:none;stroke:#999;stroke-width:3"></path>
<path d="M688.96,28.67c7.04-1.42,15.62-2.99,19.65-3.35c1.47-0.13,2.36,0.77,2.15,1.54c-0.87,3.18-1.89,7.02-3.19,11.41" style="fill:none;stroke:#999;stroke-width:3"></path>
<path d="M691.41,40.11c4.74-0.41,11.12-0.82,17.62-1.44" style="fill:none;stroke:#999;stroke-width:3"></path>
<path d="M727.94,14.17c0.06,0.29,0.82,1.54,0.88,3.41c0.28,9-0.01,24.9-0.18,27.96c-0.1,1.87-1.2,2.62-2.78,2.47c-1.72-0.17-2.61-2.26-4.34-4.32" style="fill:none;stroke:#999;stroke-width:3"></path>
<path d="M672.13,58.52c1.32,0.56,3.75,0.82,5.05,0.56c5.33-1.09,41.6-5.23,66.84-5.38c2.2-0.01,3.51,0.27,4.61,0.54" style="fill:none;stroke:#999;stroke-width:3"></path>
<path d="M687.31,68.27c0.36,0.31,0.73,0.57,0.88,0.96c1.24,3.08,2.89,11.25,3.74,16.77" style="fill:none;stroke:#999;stroke-width:3"></path>

<path d="M782.63,16.52c1.32,0.56,3.75,0.82,5.05,0.56c5.33-1.08,35.6-5.23,60.84-5.38c2.2-0.01,3.51,0.27,4.61,0.54" style="fill:none;stroke:#999;stroke-width:3"></path>
<path d="M795.81,26.82c0.34,0.28,0.7,0.5,0.85,0.85c1.19,2.72,2.77,9.94,3.59,14.83" style="fill:none;stroke:#999;stroke-width:3"></path>
<path d="M797.96,28.67c7.04-1.42,15.62-2.99,19.65-3.35c1.47-0.13,2.36,0.77,2.15,1.54c-0.87,3.18-1.89,7.02-3.19,11.41" style="fill:none;stroke:#999;stroke-width:3"></path>
<path d="M800.41,40.11c4.74-0.41,11.12-0.82,17.62-1.44" style="fill:none;stroke:#999;stroke-width:3"></path>
<path d="M836.94,14.17c0.06,0.29,0.82,1.54,0.88,3.41c0.28,9-0.01,24.9-0.18,27.96c-0.1,1.87-1.2,2.62-2.78,2.47c-1.72-0.17-2.61-2.26-4.34-4.32" style="fill:none;stroke:#999;stroke-width:3"></path>
<path d="M781.13,58.52c1.32,0.56,3.75,0.82,5.05,0.56c5.33-1.09,41.6-5.23,66.84-5.38c2.2-0.01,3.51,0.27,4.61,0.54" style="fill:none;stroke:#999;stroke-width:3"></path>
<path d="M796.31,68.27c0.36,0.31,0.73,0.57,0.88,0.96c1.24,3.08,2.89,11.25,3.74,16.77" style="fill:none;stroke:#999;stroke-width:3"></path>
<path d="M798.55,70.36c7.34-1.6,16.27-3.38,20.47-3.78c1.54-0.15,2.46,0.88,2.24,1.74c-0.91,3.59-1.97,7.93-3.32,12.9" style="fill:none;stroke:#999;stroke-width:3"></path>

<path d="M891.63,16.52c1.32,0.56,3.75,0.82,5.05,0.56c5.33-1.08,35.6-5.23,60.84-5.38c2.2-0.01,3.51,0.27,4.61,0.54" style="fill:none;stroke:#999;stroke-width:3"></path>
<path d="M904.81,26.82c0.34,0.28,0.7,0.5,0.85,0.85c1.19,2.72,2.77,9.94,3.59,14.83" style="fill:none;stroke:#999;stroke-width:3"></path>
<path d="M906.96,28.67c7.04-1.42,15.62-2.99,19.65-3.35c1.47-0.13,2.36,0.77,2.15,1.54c-0.87,3.18-1.89,7.02-3.19,11.41" style="fill:none;stroke:#999;stroke-width:3"></path>
<path d="M909.41,40.11c4.74-0.41,11.12-0.82,17.62-1.44" style="fill:none;stroke:#999;stroke-width:3"></path>
<path d="M945.94,14.17c0.06,0.29,0.82,1.54,0.88,3.41c0.28,9-0.01,24.9-0.18,27.96c-0.1,1.87-1.2,2.62-2.78,2.47c-1.72-0.17-2.61-2.26-4.34-4.32" style="fill:none;stroke:#999;stroke-width:3"></path>
<path d="M890.13,58.52c1.32,0.56,3.75,0.82,5.05,0.56c5.33-1.09,41.6-5.23,66.84-5.38c2.2-0.01,3.51,0.27,4.61,0.54" style="fill:none;stroke:#999;stroke-width:3"></path>
<path d="M905.31,68.27c0.36,0.31,0.73,0.57,0.88,0.96c1.24,3.08,2.89,11.25,3.74,16.77" style="fill:none;stroke:#999;stroke-width:3"></path>
<path d="M907.55,70.36c7.34-1.6,16.27-3.38,20.47-3.78c1.54-0.15,2.46,0.88,2.24,1.74c-0.91,3.59-1.97,7.93-3.32,12.9" style="fill:none;stroke:#999;stroke-width:3"></path>
<path d="M910.1,83.3c4.93-0.46,11.58-0.93,18.36-1.63" style="fill:none;stroke:#999;stroke-width:3"></path>

<path d="M1000.63,16.52c1.32,0.56,3.75,0.82,5.05,0.56c5.33-1.08,35.6-5.23,60.84-5.38c2.2-0.01,3.51,0.27,4.61,0.54" style="fill:none;stroke:#999;stroke-width:3"></path>
<path d="M1013.81,26.82c0.34,0.28,0.7,0.5,0.85,0.85c1.19,2.72,2.77,9.94,3.59,14.83" style="fill:none;stroke:#999;stroke-width:3"></path>
<path d="M1015.96,28.67c7.04-1.42,15.62-2.99,19.65-3.35c1.47-0.13,2.36,0.77,2.15,1.54c-0.87,3.18-1.89,7.02-3.19,11.41" style="fill:none;stroke:#999;stroke-width:3"></path>
<path d="M1018.41,40.11c4.74-0.41,11.12-0.82,17.62-1.44" style="fill:none;stroke:#999;stroke-width:3"></path>
<path d="M1054.94,14.17c0.06,0.29,0.82,1.54,0.88,3.41c0.28,9-0.01,24.9-0.18,27.96c-0.1,1.87-1.2,2.62-2.78,2.47c-1.72-0.17-2.61-2.26-4.34-4.32" style="fill:none;stroke:#999;stroke-width:3"></path>
<path d="M999.13,58.52c1.32,0.56,3.75,0.82,5.05,0.56c5.33-1.09,41.6-5.23,66.84-5.38c2.2-0.01,3.51,0.27,4.61,0.54" style="fill:none;stroke:#999;stroke-width:3"></path>
<path d="M1014.31,68.27c0.36,0.31,0.73,0.57,0.88,0.96c1.24,3.08,2.89,11.25,3.74,16.77" style="fill:none;stroke:#999;stroke-width:3"></path>
<path d="M1016.55,70.36c7.34-1.6,16.27-3.38,20.47-3.78c1.54-0.15,2.46,0.88,2.24,1.74c-0.91,3.59-1.97,7.93-3.32,12.9" style="fill:none;stroke:#999;stroke-width:3"></path>
<path d="M1019.1,83.3c4.93-0.46,11.58-0.93,18.36-1.63" style="fill:none;stroke:#999;stroke-width:3"></path>
<path d="M1055.31,56.17c0.07,0.29,0.94,1.54,1,3.41c0.32,9-0.01,32.9-0.21,35.96c-0.12,1.87-1.36,2.62-3.16,2.47C1051.0,97.84,1050.5,95,1048.02,93.69" style="fill:none;stroke:#999;stroke-width:3"></path>

</svg>