<svg width="1090px" height="109px" viewBox="0 0 1090 109" xmlns="http://www.w3.org/2000/svg" xmlns:xlink="http://www.w3.org/1999/xlink" xml:space="preserve" version="1.1" baseProfile="full">
<line x1="1" y1="1" x2="1089" y2="1" style="stroke:#ddd;stroke-width:2"></line>
<line x1="1" y1="1" x2="1" y2="108" style="stroke:#ddd;stroke-width:2"></line>
<line x1="1" y1="108" x2="1089" y2="108" style="stroke:#ddd;stroke-width:2"></line>
<line x1="1089" y1="1" x2="1089" y2="108" style="stroke:#ddd;stroke-width:2"></line>
<line x1="109" y1="1" x2="109" y2="108" style="stroke:#ddd;stroke-width:2"></line>
<line x1="218" y1="1" x2="218" y2="108" style="stroke:#ddd;stroke-width:2"></line>
<line x1="327" y1="1" x2="327" y2="108" style="stroke:#ddd;stroke-width:2"></line>
<line x1="436" y1="1" x2="436" y2="108" style="stroke:#ddd;stroke-width:2"></line>
<line x1="545" y1="1" x2="545" y2="108" style="stroke:#ddd;stroke-width:2"></line>
<line x1="654" y1="1" x2="654" y2="108" style="stroke:#ddd;stroke-width:2"></line>
<line x1="763" y1="1" x2="763" y2="108" style="stroke:#ddd;stroke-width:2"></line>
<line x1="872" y1="1" x2="872" y2="108" style="stroke:#ddd;stroke-width:2"></line>
<line x1="981" y1="1" x2="981" y2="108" style="stroke:#ddd;stroke-width:2"></line>
<line x1="1" y1="54" x2="1089" y2="54" style="stroke:#ddd;stroke-width:2;stroke-dasharray:3 3"></line>
<line x1="55" y1="1" x2="55" y2="108" style="stroke:#ddd;stroke-width:2;stroke-dasharray:3 3"></line>
<line x1="164" y1="1" x2="164" y2="108" style="stroke:#ddd;stroke-width:2;stroke-dasharray:3 3"></line>
<line x1="273" y1="1" x2="273" y2="108" style="stroke:#ddd;stroke-width:2;stroke-dasharray:3 3"></line>
<line x1="382" y1="1" x2="382" y2="108" style="stroke:#ddd;stroke-width:2;stroke-dasharray:3 3"></line>
<line x1="491" y1="1" x2="491" y2="108" style="stroke:#ddd;stroke-width:2;stroke-dasharray:3 3"></line>
<line x1="600" y1="1" x2="600" y2="108" style="stroke:#ddd;stroke-width:2;stroke-dasharray:3 3"></line>
<line x1="709" y1="1" x2="709" y2="108" style="stroke:#ddd;stroke-width:2;stroke-dasharray:3 3"></line>
<line x1="818" y1="1" x2="818" y2="108" style="stroke:#ddd;stroke-width:2;stroke-dasharray:3 3"></line>
<line x1="927" y1="1" x2="927" y2="108" style="stroke:#ddd;stroke-width:2;stroke-dasharray:3 3"></line>
<line x1="1036" y1="1" x2="1036" y2="108" style="stroke:#ddd;stroke-width:2;stroke-dasharray:3 3"></line>
<path d="M14.25,29.76c1.99,0.23,3.89,0.3,5.89,0.1c5.04-0.52,14.17-2.32,21.85-3.92c0.83-0.17,2.14-0.32,3.18-0.25" style="fill:none;stroke:#999;stroke-width:3"></path>

<path d="M123.25,29.76c1.99,0.23,3.89,0.3,5.89,0.1c5.04-0.52,14.17-2.32,21.85-3.92c0.83-0.17,2.14-0.32,3.18-0.25" style="fill:none;stroke:#999;stroke-width:3"></path>
<path d="M143.77,12.33c1.08,1.08,1.51,2.67,1.51,4.61c0,12.15-0.01,36.38-0.01,40.52c0,10.67-6.21,2.09-7.71,1.04" style="fill:none;stroke:#999;stroke-width:3"></path>

<path d="M232.25,29.76c1.99,0.23,3.89,0.3,5.89,0.1c5.04-0.52,14.17-2.32,21.85-3.92c0.83-0.17,2.14-0.32,3.18-0.25" style="fill:none;stroke:#999;stroke-width:3"></path>
<path d="M252.77,12.33c1.08,1.08,1.51,2.67,1.51,4.61c0,12.15-0.01,36.38-0.01,40.52c0,10.67-6.21,2.09-7.71,1.04" style="fill:none;stroke:#999;stroke-width:3"></path>
<path d="M232.25,51.45c0.88,0.92,1.75,0.92,3.38,0.22c1.72-0.74,17.12-8.92,25.87-13.61" style="fill:none;stroke:#999;stroke-width:3"></path>

<path d="M341.25,29.76c1.99,0.23,3.89,0.3,5.89,0.1c5.04-0.52,14.17-2.32,21.85-3.92c0.83-0.17,2.14-0.32,3.18-0.25" style="fill:none;stroke:#999;stroke-width:3"></path>
<path d="M361.77,12.33c1.08,1.08,1.51,2.67,1.51,4.61c0,12.15-0.01,36.38-0.01,40.52c0,10.67-6.21,2.09-7.71,1.04" style="fill:none;stroke:#999;stroke-width:3"></path>
<path d="M341.25,51.45c0.88,0.92,1.75,0.92,3.38,0.22c1.72-0.74,17.12-8.92,25.87-13.61" style="fill:none;stroke:#999;stroke-width:3"></path>
<path d="M405.88,11.75c0.18,0.87-0.12,1.65-0.87,2.13c-4.88,3.12-8.38,4.24-17.5,7.87" style="fill:none;stroke:#999;stroke-width:3"></path>

<path d="M450.25,29.76c1.99,0.23,3.89,0.3,5.89,0.1c5.04-0.52,14.17-2.32,21.85-3.92c0.83-0.17,2.14-0.32,3.18-0.25" style="fill:none;stroke:#999;stroke-width:3"></path>
<path d="M470.77,12.33c1.08,1.08,1.51,2.67,1.51,4.61c0,12.15-0.01,36.38-0.01,40.52c0,10.67-6.21,2.09-7.71,1.04" style="fill:none;stroke:#999;stroke-width:3"></path>
<path d="M450.25,51.45c0.88,0.92,1.75,0.92,3.38,0.22c1.72-0.74,17.12-8.92,25.87-13.61" style="fill:none;stroke:#999;stroke-width:3"></path>
<path d="M514.88,11.75c0.18,0.87-0.12,1.65-0.87,2.13c-4.88,3.12-8.38,4.24-17.5,7.87" style="fill:none;stroke:#999;stroke-width:3"></path>
<path d="M493.25,22.5c0.88,0.88,1.11,1.88,1.11,3.19c0,19.88-0.99,27.93-8.36,36.07" style="fill:none;stroke:#999;stroke-width:3"></path>

<path d="M559.25,29.76c1.99,0.23,3.89,0.3,5.89,0.1c5.04-0.52,14.17-2.32,21.85-3.92c0.83-0.17,2.14-0.32,3.18-0.25" style="fill:none;stroke:#999;stroke-width:3"></path>
<path d="M579.77,12.33c1.08,1.08,1.51,2.67,1.51,4.61c0,12.15-0.01,36.38-0.01,40.52c0,10.67-6.21,2.09-7.71,1.04" style="fill:none;stroke:#999;stroke-width:3"></path>
<path d="M559.25,51.45c0.88,0.92,1.75,0.92,3.38,0.22c1.72-0.74,17.12-8.92,25.87-13.61" style="fill:none;stroke:#999;stroke-width:3"></path>
<path d="M623.88,11.75c0.18,0.87-0.12,1.65-0.87,2.13c-4.88,3.12-8.38,4.24-17.5,7.87" style="fill:none;stroke:#999;stroke-width:3"></path>
<path d="M602.25,22.5c0.88,0.88,1.11,1.88,1.11,3.19c0,19.88-0.99,27.93-8.36,36.07" style="fill:none;stroke:#999;stroke-width:3"></path>
<path d="M606.5,32.94c1.38,0.06,2.83-0.04,3.95-0.19c5.61-0.79,17.27-1.82,24.17-2.77c1.84-0.25,3.81-0.63,5.67-0.27" style="fill:none;stroke:#999;stroke-width:3"></path>

<path d="M668.25,29.76c1.99,0.23,3.89,0.3,5.89,0.1c5.04-0.52,14.17-2.32,21.85-3.92c0.83-0.17,2.14-0.32,3.18-0.25" style="fill:none;stroke:#999;stroke-width:3"></path>
<path d="M688.77,12.33c1.08,1.08,1.51,2.67,1.51,4.61c0,12.15-0.01,36.38-0.01,40.52c0,10.67-6.21,2.09-7.71,1.04" style="fill:none;stroke:#999;stroke-width:3"></path>
<path d="M668.25,51.45c0.88,0.92,1.75,0.92,3.38,0.22c1.72-0.74,17.12-8.92,25.87-13.61" style="fill:none;stroke:#999;stroke-width:3"></path>
<path d="M732.88,11.75c0.18,0.87-0.12,1.65-0.87,2.13c-4.88,3.12-8.38,4.24-17.5,7.87" style="fill:none;stroke:#999;stroke-width:3"></path>
<path d="M711.25,22.5c0.88,0.88,1.11,1.88,1.11,3.19c0,19.88-0.99,27.93-8.36,36.07" style="fill:none;stroke:#999;stroke-width:3"></path>
<path d="M715.5,32.94c1.38,0.06,2.83-0.04,3.95-0.19c5.61-0.79,17.27-1.82,24.17-2.77c1.84-0.25,3.81-0.63,5.67-0.27" style="fill:none;stroke:#999;stroke-width:3"></path>
<path d="M732.81,33.13c0.91,0.91,1.13,2.12,1.13,3.56c0,0.64-0.04,9.56-0.04,17.81c0,2.93,0.02,5.37-0.03,6.88" style="fill:none;stroke:#999;stroke-width:3"></path>

<path d="M777.25,29.76c1.99,0.23,3.89,0.3,5.89,0.1c5.04-0.52,14.17-2.32,21.85-3.92c0.83-0.17,2.14-0.32,3.18-0.25" style="fill:none;stroke:#999;stroke-width:3"></path>
<path d="M797.77,12.33c1.08,1.08,1.51,2.67,1.51,4.61c0,12.15-0.01,36.38-0.01,40.52c0,10.67-6.21,2.09-7.71,1.04" style="fill:none;stroke:#999;stroke-width:3"></path>
<path d="M777.25,51.45c0.88,0.92,1.75,0.92,3.38,0.22c1.72-0.74,17.12-8.92,25.87-13.61" style="fill:none;stroke:#999;stroke-width:3"></path>
<path d="M841.88,11.75c0.18,0.87-0.12,1.65-0.87,2.13c-4.88,3.12-8.38,4.24-17.5,7.87" style="fill:none;stroke:#999;stroke-width:3"></path>
<path d="M820.25,22.5c0.88,0.88,1.11,1.88,1.11,3.19c0,19.88-0.99,27.93-8.36,36.07" style="fill:none;stroke:#999;stroke-width:3"></path>
<path d="M824.5,32.94c1.38,0.06,2.83-0.04,3.95-0.19c5.61-0.79,17.27-1.82,24.17-2.77c1.84-0.25,3.81-0.63,5.67-0.27" style="fill:none;stroke:#999;stroke-width:3"></path>
<path d="M841.81,33.13c0.91,0.91,1.13,2.12,1.13,3.56c0,0.64-0.04,9.56-0.04,17.81c0,2.93,0.02,5.37-0.03,6.88" style="fill:none;stroke:#999;stroke-width:3"></path>
<path d="M793.75,72.68c0.91,0.91,1.43,1.86,1.69,3.31c1.31,7.39,2.14,12.25,3.04,18.73c0.21,1.5,0.41,2.93,0.62,4.25" style="fill:none;stroke:#999;stroke-width:3"></path>

<path d="M886.25,29.76c1.99,0.23,3.89,0.3,5.89,0.1c5.04-0.52,14.17-2.32,21.85-3.92c0.83-0.17,2.14-0.32,3.18-0.25" style="fill:none;stroke:#999;stroke-width:3"></path>
<path d="M906.77,12.33c1.08,1.08,1.51,2.67,1.51,4.61c0,12.15-0.01,36.38-0.01,40.52c0,10.67-6.21,2.09-7.71,1.04" style="fill:none;stroke:#999;stroke-width:3"></path>
<path d="M886.25,51.45c0.88,0.92,1.75,0.92,3.38,0.22c1.72-0.74,17.12-8.92,25.87-13.61" style="fill:none;stroke:#999;stroke-width:3"></path>
<path d="M950.88,11.75c0.18,0.87-0.12,1.65-0.87,2.13c-4.88,3.12-8.38,4.24-17.5,7.87" style="fill:none;stroke:#999;stroke-width:3"></path>
<path d="M929.25,22.5c0.88,0.88,1.11,1.88,1.11,3.19c0,19.88-0.99,27.93-8.36,36.07" style="fill:none;stroke:#999;stroke-width:3"></path>
<path d="M933.5,32.94c1.38,0.06,2.83-0.04,3.95-0.19c5.61-0.79,17.27-1.82,24.17-2.77c1.84-0.25,3.81-0.63,5.67-0.27" style="fill:none;stroke:#999;stroke-width:3"></path>
<path d="M950.81,33.13c0.91,0.91,1.13,2.12,1.13,3.56c0,0.64-0.04,9.56-0.04,17.81c0,2.93,0.02,5.37-0.03,6.88" style="fill:none;stroke:#999;stroke-width:3"></path>
<path d="M902.75,72.68c0.91,0.91,1.43,1.86,1.69,3.31c1.31,7.39,2.14,12.25,3.04,18.73c0.21,1.5,0.41,2.93,0.62,4.25" style="fill:none;stroke:#999;stroke-width:3"></path>
<path d="M905.06,74.2c13.02-1.46,33.86-3.27,42.2-4.02c3.41-0.31,5.5,1.18,4.52,4.95c-1.32,5.04-2.27,8.24-4.91,16.51" style="fill:none;stroke:#999;stroke-width:3"></path>

<path d="M995.25,29.76c1.99,0.23,3.89,0.3,5.89,0.1c5.04-0.52,14.17-2.32,21.85-3.92c0.83-0.17,2.14-0.32,3.18-0.25" style="fill:none;stroke:#999;stroke-width:3"></path>
<path d="M1015.77,12.33c1.08,1.08,1.51,2.67,1.51,4.61c0,12.15-0.01,36.38-0.01,40.52c0,10.67-6.21,2.09-7.71,1.04" style="fill:none;stroke:#999;stroke-width:3"></path>
<path d="M995.25,51.45c0.88,0.92,1.75,0.92,3.38,0.22c1.72-0.74,17.12-8.92,25.87-13.61" style="fill:none;stroke:#999;stroke-width:3"></path>
<path d="M1059.88,11.75c0.18,0.87-0.12,1.65-0.87,2.13c-4.88,3.12-8.38,4.24-17.5,7.87" style="fill:none;stroke:#999;stroke-width:3"></path>
<path d="M1038.25,22.5c0.88,0.88,1.11,1.88,1.11,3.19c0,19.88-0.99,27.93-8.36,36.07" style="fill:none;stroke:#999;stroke-width:3"></path>
<path d="M1042.5,32.94c1.38,0.06,2.83-0.04,3.95-0.19c5.61-0.79,17.27-1.82,24.17-2.77c1.84-0.25,3.81-0.63,5.67-0.27" style="fill:none;stroke:#999;stroke-width:3"></path>
<path d="M1059.81,33.13c0.91,0.91,1.13,2.12,1.13,3.56c0,0.64-0.04,9.56-0.04,17.81c0,2.93,0.02,5.37-0.03,6.88" style="fill:none;stroke:#999;stroke-width:3"></path>
<path d="M1011.75,72.68c0.91,0.91,1.43,1.86,1.69,3.31c1.31,7.39,2.14,12.25,3.04,18.73c0.21,1.5,0.41,2.93,0.62,4.25" style="fill:none;stroke:#999;stroke-width:3"></path>
<path d="M1014.06,74.2c13.02-1.46,33.86-3.27,42.2-4.02c3.41-0.31,5.5,1.18,4.52,4.95c-1.32,5.04-2.27,8.24-4.91,16.51" style="fill:none;stroke:#999;stroke-width:3"></path>
<path d="M1017.88,95.53c6.87-0.55,25.38-2.14,36.82-2.98c1.82-0.13,3.47-0.25,4.86-0.33" style="fill:none;stroke:#999;stroke-width:3"></path>

</svg>