<svg width="1090px" height="109px" viewBox="0 0 1090 109" xmlns="http://www.w3.org/2000/svg" xmlns:xlink="http://www.w3.org/1999/xlink" xml:space="preserve" version="1.1" baseProfile="full">
<line x1="1" y1="1" x2="1089" y2="1" style="stroke:#ddd;stroke-width:2"></line>
<line x1="1" y1="1" x2="1" y2="108" style="stroke:#ddd;stroke-width:2"></line>
<line x1="1" y1="108" x2="1089" y2="108" style="stroke:#ddd;stroke-width:2"></line>
<line x1="1089" y1="1" x2="1089" y2="108" style="stroke:#ddd;stroke-width:2"></line>
<line x1="109" y1="1" x2="109" y2="108" style="stroke:#ddd;stroke-width:2"></line>
<line x1="218" y1="1" x2="218" y2="108" style="stroke:#ddd;stroke-width:2"></line>
<line x1="327" y1="1" x2="327" y2="108" style="stroke:#ddd;stroke-width:2"></line>
<line x1="436" y1="1" x2="436" y2="108" style="stroke:#ddd;stroke-width:2"></line>
<line x1="545" y1="1" x2="545" y2="108" style="stroke:#ddd;stroke-width:2"></line>
<line x1="654" y1="1" x2="654" y2="108" style="stroke:#ddd;stroke-width:2"></line>
<line x1="763" y1="1" x2="763" y2="108" style="stroke:#ddd;stroke-width:2"></line>
<line x1="872" y1="1" x2="872" y2="108" style="stroke:#ddd;stroke-width:2"></line>
<line x1="981" y1="1" x2="981" y2="108" style="stroke:#ddd;stroke-width:2"></line>
<line x1="1" y1="54" x2="1089" y2="54" style="stroke:#ddd;stroke-width:2;stroke-dasharray:3 3"></line>
<line x1="55" y1="1" x2="55" y2="108" style="stroke:#ddd;stroke-width:2;stroke-dasharray:3 3"></line>
<line x1="164" y1="1" x2="164" y2="108" style="stroke:#ddd;stroke-width:2;stroke-dasharray:3 3"></line>
<line x1="273" y1="1" x2="273" y2="108" style="stroke:#ddd;stroke-width:2;stroke-dasharray:3 3"></line>
<line x1="382" y1="1" x2="382" y2="108" style="stroke:#ddd;stroke-width:2;stroke-dasharray:3 3"></line>
<line x1="491" y1="1" x2="491" y2="108" style="stroke:#ddd;stroke-width:2;stroke-dasharray:3 3"></line>
<line x1="600" y1="1" x2="600" y2="108" style="stroke:#ddd;stroke-width:2;stroke-dasharray:3 3"></line>
<line x1="709" y1="1" x2="709" y2="108" style="stroke:#ddd;stroke-width:2;stroke-dasharray:3 3"></line>
<line x1="818" y1="1" x2="818" y2="108" style="stroke:#ddd;stroke-width:2;stroke-dasharray:3 3"></line>
<line x1="927" y1="1" x2="927" y2="108" style="stroke:#ddd;stroke-width:2;stroke-dasharray:3 3"></line>
<line x1="1036" y1="1" x2="1036" y2="108" style="stroke:#ddd;stroke-width:2;stroke-dasharray:3 3"></line>
<path d="M13.25,28.71c0.81,1.18,1.07,2.27,1.34,3.67c1.03,5.33,2.28,15.07,3.06,23.11c0.17,1.76,0.33,3.45,0.47,5.01" style="fill:none;stroke:#999;stroke-width:3"></path>

<path d="M122.25,28.71c0.81,1.18,1.07,2.27,1.34,3.67c1.03,5.33,2.28,15.07,3.06,23.11c0.17,1.76,0.33,3.45,0.47,5.01" style="fill:none;stroke:#999;stroke-width:3"></path>
<path d="M124.31,31.11c8.35-1.6,15.19-2.42,19.71-3.06c3.06-0.44,4.69,0.21,4.17,3.61c-0.95,6.23-2.22,14.14-3.56,22.44" style="fill:none;stroke:#999;stroke-width:3"></path>

<path d="M231.25,28.71c0.81,1.18,1.07,2.27,1.34,3.67c1.03,5.33,2.28,15.07,3.06,23.11c0.17,1.76,0.33,3.45,0.47,5.01" style="fill:none;stroke:#999;stroke-width:3"></path>
<path d="M233.31,31.11c8.35-1.6,15.19-2.42,19.71-3.06c3.06-0.44,4.69,0.21,4.17,3.61c-0.95,6.23-2.22,14.14-3.56,22.44" style="fill:none;stroke:#999;stroke-width:3"></path>
<path d="M237.05,57.28c6-0.65,8.5-1.03,14.46-1.73c1.2-0.14,2.5-0.28,3.96-0.43" style="fill:none;stroke:#999;stroke-width:3"></path>

<path d="M340.25,28.71c0.81,1.18,1.07,2.27,1.34,3.67c1.03,5.33,2.28,15.07,3.06,23.11c0.17,1.76,0.33,3.45,0.47,5.01" style="fill:none;stroke:#999;stroke-width:3"></path>
<path d="M342.31,31.11c8.35-1.6,15.19-2.42,19.71-3.06c3.06-0.44,4.69,0.21,4.17,3.61c-0.95,6.23-2.22,14.14-3.56,22.44" style="fill:none;stroke:#999;stroke-width:3"></path>
<path d="M346.05,57.28c6-0.65,8.5-1.03,14.46-1.73c1.2-0.14,2.5-0.28,3.96-0.43" style="fill:none;stroke:#999;stroke-width:3"></path>
<path d="M378.08,15.08c1.04,1.04,1.35,2.38,1.35,4.2c0,1.51-0.05,34.29-0.05,49.79c0,3.06-0.01,4.62-0.01,6.69" style="fill:none;stroke:#999;stroke-width:3"></path>

<path d="M449.25,28.71c0.81,1.18,1.07,2.27,1.34,3.67c1.03,5.33,2.28,15.07,3.06,23.11c0.17,1.76,0.33,3.45,0.47,5.01" style="fill:none;stroke:#999;stroke-width:3"></path>
<path d="M451.31,31.11c8.35-1.6,15.19-2.42,19.71-3.06c3.06-0.44,4.69,0.21,4.17,3.61c-0.95,6.23-2.22,14.14-3.56,22.44" style="fill:none;stroke:#999;stroke-width:3"></path>
<path d="M455.05,57.28c6-0.65,8.5-1.03,14.46-1.73c1.2-0.14,2.5-0.28,3.96-0.43" style="fill:none;stroke:#999;stroke-width:3"></path>
<path d="M487.08,15.08c1.04,1.04,1.35,2.38,1.35,4.2c0,1.51-0.05,34.29-0.05,49.79c0,3.06-0.01,4.62-0.01,6.69" style="fill:none;stroke:#999;stroke-width:3"></path>
<path d="M489.35,16.66c3.11-0.23,25.69-2.34,28.53-2.61c2.36-0.23,3.62,1.25,3.62,2.95c0,3.27,0.01,43.62,0.01,50.26c0,3.9-0.01,6.58-0.01,6.87" style="fill:none;stroke:#999;stroke-width:3"></path>

<path d="M558.25,28.71c0.81,1.18,1.07,2.27,1.34,3.67c1.03,5.33,2.28,15.07,3.06,23.11c0.17,1.76,0.33,3.45,0.47,5.01" style="fill:none;stroke:#999;stroke-width:3"></path>
<path d="M560.31,31.11c8.35-1.6,15.19-2.42,19.71-3.06c3.06-0.44,4.69,0.21,4.17,3.61c-0.95,6.23-2.22,14.14-3.56,22.44" style="fill:none;stroke:#999;stroke-width:3"></path>
<path d="M564.05,57.28c6-0.65,8.5-1.03,14.46-1.73c1.2-0.14,2.5-0.28,3.96-0.43" style="fill:none;stroke:#999;stroke-width:3"></path>
<path d="M596.0799999999999,15.08c1.04,1.04,1.35,2.38,1.35,4.2c0,1.51-0.05,34.29-0.05,49.79c0,3.06-0.01,4.62-0.01,6.69" style="fill:none;stroke:#999;stroke-width:3"></path>
<path d="M598.35,16.66c3.11-0.23,25.69-2.34,28.53-2.61c2.36-0.23,3.62,1.25,3.62,2.95c0,3.27,0.01,43.62,0.01,50.26c0,3.9-0.01,6.58-0.01,6.87" style="fill:none;stroke:#999;stroke-width:3"></path>
<path d="M598.75,35.38c5.46-0.48,25.92-2.46,30.61-2.46" style="fill:none;stroke:#999;stroke-width:3"></path>

<path d="M667.25,28.71c0.81,1.18,1.07,2.27,1.34,3.67c1.03,5.33,2.28,15.07,3.06,23.11c0.17,1.76,0.33,3.45,0.47,5.01" style="fill:none;stroke:#999;stroke-width:3"></path>
<path d="M669.31,31.11c8.35-1.6,15.19-2.42,19.71-3.06c3.06-0.44,4.69,0.21,4.17,3.61c-0.95,6.23-2.22,14.14-3.56,22.44" style="fill:none;stroke:#999;stroke-width:3"></path>
<path d="M673.05,57.28c6-0.65,8.5-1.03,14.46-1.73c1.2-0.14,2.5-0.28,3.96-0.43" style="fill:none;stroke:#999;stroke-width:3"></path>
<path d="M705.0799999999999,15.08c1.04,1.04,1.35,2.38,1.35,4.2c0,1.51-0.05,34.29-0.05,49.79c0,3.06-0.01,4.62-0.01,6.69" style="fill:none;stroke:#999;stroke-width:3"></path>
<path d="M707.35,16.66c3.11-0.23,25.69-2.34,28.53-2.61c2.36-0.23,3.62,1.25,3.62,2.95c0,3.27,0.01,43.62,0.01,50.26c0,3.9-0.01,6.58-0.01,6.87" style="fill:none;stroke:#999;stroke-width:3"></path>
<path d="M707.75,35.38c5.46-0.48,25.92-2.46,30.61-2.46" style="fill:none;stroke:#999;stroke-width:3"></path>
<path d="M707.5,52.84c8.78-1,21.59-1.78,30.89-1.98" style="fill:none;stroke:#999;stroke-width:3"></path>

<path d="M776.25,28.71c0.81,1.18,1.07,2.27,1.34,3.67c1.03,5.33,2.28,15.07,3.06,23.11c0.17,1.76,0.33,3.45,0.47,5.01" style="fill:none;stroke:#999;stroke-width:3"></path>
<path d="M778.31,31.11c8.35-1.6,15.19-2.42,19.71-3.06c3.06-0.44,4.69,0.21,4.17,3.61c-0.95,6.23-2.22,14.14-3.56,22.44" style="fill:none;stroke:#999;stroke-width:3"></path>
<path d="M782.05,57.28c6-0.65,8.5-1.03,14.46-1.73c1.2-0.14,2.5-0.28,3.96-0.43" style="fill:none;stroke:#999;stroke-width:3"></path>
<path d="M814.0799999999999,15.08c1.04,1.04,1.35,2.38,1.35,4.2c0,1.51-0.05,34.29-0.05,49.79c0,3.06-0.01,4.62-0.01,6.69" style="fill:none;stroke:#999;stroke-width:3"></path>
<path d="M816.35,16.66c3.11-0.23,25.69-2.34,28.53-2.61c2.36-0.23,3.62,1.25,3.62,2.95c0,3.27,0.01,43.62,0.01,50.26c0,3.9-0.01,6.58-0.01,6.87" style="fill:none;stroke:#999;stroke-width:3"></path>
<path d="M816.75,35.38c5.46-0.48,25.92-2.46,30.61-2.46" style="fill:none;stroke:#999;stroke-width:3"></path>
<path d="M816.5,52.84c8.78-1,21.59-1.78,30.89-1.98" style="fill:none;stroke:#999;stroke-width:3"></path>
<path d="M816.6,72.12c8.78-0.75,22.54-1.73,30.55-1.73" style="fill:none;stroke:#999;stroke-width:3"></path>

<path d="M885.25,28.71c0.81,1.18,1.07,2.27,1.34,3.67c1.03,5.33,2.28,15.07,3.06,23.11c0.17,1.76,0.33,3.45,0.47,5.01" style="fill:none;stroke:#999;stroke-width:3"></path>
<path d="M887.31,31.11c8.35-1.6,15.19-2.42,19.71-3.06c3.06-0.44,4.69,0.21,4.17,3.61c-0.95,6.23-2.22,14.14-3.56,22.44" style="fill:none;stroke:#999;stroke-width:3"></path>
<path d="M891.05,57.28c6-0.65,8.5-1.03,14.46-1.73c1.2-0.14,2.5-0.28,3.96-0.43" style="fill:none;stroke:#999;stroke-width:3"></path>
<path d="M923.0799999999999,15.08c1.04,1.04,1.35,2.38,1.35,4.2c0,1.51-0.05,34.29-0.05,49.79c0,3.06-0.01,4.62-0.01,6.69" style="fill:none;stroke:#999;stroke-width:3"></path>
<path d="M925.35,16.66c3.11-0.23,25.69-2.34,28.53-2.61c2.36-0.23,3.62,1.25,3.62,2.95c0,3.27,0.01,43.62,0.01,50.26c0,3.9-0.01,6.58-0.01,6.87" style="fill:none;stroke:#999;stroke-width:3"></path>
<path d="M925.75,35.38c5.46-0.48,25.92-2.46,30.61-2.46" style="fill:none;stroke:#999;stroke-width:3"></path>
<path d="M925.5,52.84c8.78-1,21.59-1.78,30.89-1.98" style="fill:none;stroke:#999;stroke-width:3"></path>
<path d="M925.6,72.12c8.78-0.75,22.54-1.73,30.55-1.73" style="fill:none;stroke:#999;stroke-width:3"></path>
<path d="M931.31,79.24c0.07,1.14-0.51,2.27-1.75,3.29C925.81,85.59,916.0,92.5,907.75,95.75" style="fill:none;stroke:#999;stroke-width:3"></path>

<path d="M994.25,28.71c0.81,1.18,1.07,2.27,1.34,3.67c1.03,5.33,2.28,15.07,3.06,23.11c0.17,1.76,0.33,3.45,0.47,5.01" style="fill:none;stroke:#999;stroke-width:3"></path>
<path d="M996.31,31.11c8.35-1.6,15.19-2.42,19.71-3.06c3.06-0.44,4.69,0.21,4.17,3.61c-0.95,6.23-2.22,14.14-3.56,22.44" style="fill:none;stroke:#999;stroke-width:3"></path>
<path d="M1000.05,57.28c6-0.65,8.5-1.03,14.46-1.73c1.2-0.14,2.5-0.28,3.96-0.43" style="fill:none;stroke:#999;stroke-width:3"></path>
<path d="M1032.08,15.08c1.04,1.04,1.35,2.38,1.35,4.2c0,1.51-0.05,34.29-0.05,49.79c0,3.06-0.01,4.62-0.01,6.69" style="fill:none;stroke:#999;stroke-width:3"></path>
<path d="M1034.35,16.66c3.11-0.23,25.69-2.34,28.53-2.61c2.36-0.23,3.62,1.25,3.62,2.95c0,3.27,0.01,43.62,0.01,50.26c0,3.9-0.01,6.58-0.01,6.87" style="fill:none;stroke:#999;stroke-width:3"></path>
<path d="M1034.75,35.38c5.46-0.48,25.92-2.46,30.61-2.46" style="fill:none;stroke:#999;stroke-width:3"></path>
<path d="M1034.5,52.84c8.78-1,21.59-1.78,30.89-1.98" style="fill:none;stroke:#999;stroke-width:3"></path>
<path d="M1034.6,72.12c8.78-0.75,22.54-1.73,30.55-1.73" style="fill:none;stroke:#999;stroke-width:3"></path>
<path d="M1040.31,79.24c0.07,1.14-0.51,2.27-1.75,3.29C1034.81,85.59,1025.0,92.5,1016.75,95.75" style="fill:none;stroke:#999;stroke-width:3"></path>
<path d="M1056.89,79.73C1064.47,84.21,1071.75,90.88,1075.25,96" style="fill:none;stroke:#999;stroke-width:3"></path>

</svg>