<svg width="2289px" height="109px" viewBox="0 0 2289 109" xmlns="http://www.w3.org/2000/svg" xmlns:xlink="http://www.w3.org/1999/xlink" xml:space="preserve" version="1.1" baseProfile="full">
<line x1="1" y1="1" x2="2288" y2="1" style="stroke:#ddd;stroke-width:2"></line>
<line x1="1" y1="1" x2="1" y2="108" style="stroke:#ddd;stroke-width:2"></line>
<line x1="1" y1="108" x2="2288" y2="108" style="stroke:#ddd;stroke-width:2"></line>
<line x1="2288" y1="1" x2="2288" y2="108" style="stroke:#ddd;stroke-width:2"></line>
<line x1="109" y1="1" x2="109" y2="108" style="stroke:#ddd;stroke-width:2"></line>
<line x1="218" y1="1" x2="218" y2="108" style="stroke:#ddd;stroke-width:2"></line>
<line x1="327" y1="1" x2="327" y2="108" style="stroke:#ddd;stroke-width:2"></line>
<line x1="436" y1="1" x2="436" y2="108" style="stroke:#ddd;stroke-width:2"></line>
<line x1="545" y1="1" x2="545" y2="108" style="stroke:#ddd;stroke-width:2"></line>
<line x1="654" y1="1" x2="654" y2="108" style="stroke:#ddd;stroke-width:2"></line>
<line x1="763" y1="1" x2="763" y2="108" style="stroke:#ddd;stroke-width:2"></line>
<line x1="872" y1="1" x2="872" y2="108" style="stroke:#ddd;stroke-width:2"></line>
<line x1="981" y1="1" x2="981" y2="108" style="stroke:#ddd;stroke-width:2"></line>
<line x1="1090" y1="1" x2="1090" y2="108" style="stroke:#ddd;stroke-width:2"></line>
<line x1="1199" y1="1" x2="1199" y2="108" style="stroke:#ddd;stroke-width:2"></line>
<line x1="1308" y1="1" x2="1308" y2="108" style="stroke:#ddd;stroke-width:2"></line>
<line x1="1417" y1="1" x2="1417" y2="108" style="stroke:#ddd;stroke-width:2"></line>
<line x1="1526" y1="1" x2="1526" y2="108" style="stroke:#ddd;stroke-width:2"></line>
<line x1="1635" y1="1" x2="1635" y2="108" style="stroke:#ddd;stroke-width:2"></line>
<line x1="1744" y1="1" x2="1744" y2="108" style="stroke:#ddd;stroke-width:2"></line>
<line x1="1853" y1="1" x2="1853" y2="108" style="stroke:#ddd;stroke-width:2"></line>
<line x1="1962" y1="1" x2="1962" y2="108" style="stroke:#ddd;stroke-width:2"></line>
<line x1="2071" y1="1" x2="2071" y2="108" style="stroke:#ddd;stroke-width:2"></line>
<line x1="2180" y1="1" x2="2180" y2="108" style="stroke:#ddd;stroke-width:2"></line>
<line x1="1" y1="54" x2="2288" y2="54" style="stroke:#ddd;stroke-width:2;stroke-dasharray:3 3"></line>
<line x1="55" y1="1" x2="55" y2="108" style="stroke:#ddd;stroke-width:2;stroke-dasharray:3 3"></line>
<line x1="164" y1="1" x2="164" y2="108" style="stroke:#ddd;stroke-width:2;stroke-dasharray:3 3"></line>
<line x1="273" y1="1" x2="273" y2="108" style="stroke:#ddd;stroke-width:2;stroke-dasharray:3 3"></line>
<line x1="382" y1="1" x2="382" y2="108" style="stroke:#ddd;stroke-width:2;stroke-dasharray:3 3"></line>
<line x1="491" y1="1" x2="491" y2="108" style="stroke:#ddd;stroke-width:2;stroke-dasharray:3 3"></line>
<line x1="600" y1="1" x2="600" y2="108" style="stroke:#ddd;stroke-width:2;stroke-dasharray:3 3"></line>
<line x1="709" y1="1" x2="709" y2="108" style="stroke:#ddd;stroke-width:2;stroke-dasharray:3 3"></line>
<line x1="818" y1="1" x2="818" y2="108" style="stroke:#ddd;stroke-width:2;stroke-dasharray:3 3"></line>
<line x1="927" y1="1" x2="927" y2="108" style="stroke:#ddd;stroke-width:2;stroke-dasharray:3 3"></line>
<line x1="1036" y1="1" x2="1036" y2="108" style="stroke:#ddd;stroke-width:2;stroke-dasharray:3 3"></line>
<line x1="1145" y1="1" x2="1145" y2="108" style="stroke:#ddd;stroke-width:2;stroke-dasharray:3 3"></line>
<line x1="1254" y1="1" x2="1254" y2="108" style="stroke:#ddd;stroke-width:2;stroke-dasharray:3 3"></line>
<line x1="1363" y1="1" x2="1363" y2="108" style="stroke:#ddd;stroke-width:2;stroke-dasharray:3 3"></line>
<line x1="1472" y1="1" x2="1472" y2="108" style="stroke:#ddd;stroke-width:2;stroke-dasharray:3 3"></line>
<line x1="1581" y1="1" x2="1581" y2="108" style="stroke:#ddd;stroke-width:2;stroke-dasharray:3 3"></line>
<line x1="1690" y1="1" x2="1690" y2="108" style="stroke:#ddd;stroke-width:2;stroke-dasharray:3 3"></line>
<line x1="1799" y1="1" x2="1799" y2="108" style="stroke:#ddd;stroke-width:2;stroke-dasharray:3 3"></line>
<line x1="1908" y1="1" x2="1908" y2="108" style="stroke:#ddd;stroke-width:2;stroke-dasharray:3 3"></line>
<line x1="2017" y1="1" x2="2017" y2="108" style="stroke:#ddd;stroke-width:2;stroke-dasharray:3 3"></line>
<line x1="2126" y1="1" x2="2126" y2="108" style="stroke:#ddd;stroke-width:2;stroke-dasharray:3 3"></line>
<line x1="2235" y1="1" x2="2235" y2="108" style="stroke:#ddd;stroke-width:2;stroke-dasharray:3 3"></line>
<path d="M8.25,34.56c0.32,0.45,0.66,0.82,0.8,1.38c1.12,4.42,3.39,18.12,4.16,26.06" style="fill:none;stroke:#999;stroke-width:3"></path>

<path d="M117.25,34.56c0.32,0.45,0.66,0.82,0.8,1.38c1.12,4.42,3.39,18.12,4.16,26.06" style="fill:none;stroke:#999;stroke-width:3"></path>
<path d="M119.27,36.68c8.19-1.94,14.49-3.11,18.28-3.69c1.39-0.21,2.22,1.26,2.02,2.51c-0.82,5.17-2.24,12.65-3.46,19.8" style="fill:none;stroke:#999;stroke-width:3"></path>

<path d="M226.25,34.56c0.32,0.45,0.66,0.82,0.8,1.38c1.12,4.42,3.39,18.12,4.16,26.06" style="fill:none;stroke:#999;stroke-width:3"></path>
<path d="M228.26999999999998,36.68c8.19-1.94,14.49-3.11,18.28-3.69c1.39-0.21,2.22,1.26,2.02,2.51c-0.82,5.17-2.24,12.65-3.46,19.8" style="fill:none;stroke:#999;stroke-width:3"></path>
<path d="M230.9,58.36c4.46-0.66,9.84-1.42,15.97-2.43" style="fill:none;stroke:#999;stroke-width:3"></path>

<path d="M335.25,34.56c0.32,0.45,0.66,0.82,0.8,1.38c1.12,4.42,3.39,18.12,4.16,26.06" style="fill:none;stroke:#999;stroke-width:3"></path>
<path d="M337.27,36.68c8.19-1.94,14.49-3.11,18.28-3.69c1.39-0.21,2.22,1.26,2.02,2.51c-0.82,5.17-2.24,12.65-3.46,19.8" style="fill:none;stroke:#999;stroke-width:3"></path>
<path d="M339.9,58.36c4.46-0.66,9.84-1.42,15.97-2.43" style="fill:none;stroke:#999;stroke-width:3"></path>
<path d="M375.23,12c0.62,0.49,1.64,2.37,1.64,3.34c0,3.58-0.2,6.49-0.08,9.51" style="fill:none;stroke:#999;stroke-width:3"></path>

<path d="M444.25,34.56c0.32,0.45,0.66,0.82,0.8,1.38c1.12,4.42,3.39,18.12,4.16,26.06" style="fill:none;stroke:#999;stroke-width:3"></path>
<path d="M446.27,36.68c8.19-1.94,14.49-3.11,18.28-3.69c1.39-0.21,2.22,1.26,2.02,2.51c-0.82,5.17-2.24,12.65-3.46,19.8" style="fill:none;stroke:#999;stroke-width:3"></path>
<path d="M448.9,58.36c4.46-0.66,9.84-1.42,15.97-2.43" style="fill:none;stroke:#999;stroke-width:3"></path>
<path d="M484.23,12c0.62,0.49,1.64,2.37,1.64,3.34c0,3.58-0.2,6.49-0.08,9.51" style="fill:none;stroke:#999;stroke-width:3"></path>
<path d="M469.99,26.69c0.57,0.05,1.88,0.35,2.43,0.28c4.49-0.58,20.44-2.47,26.14-2.62c0.94-0.02,1.42,0.02,2.12,0.35" style="fill:none;stroke:#999;stroke-width:3"></path>

<path d="M553.25,34.56c0.32,0.45,0.66,0.82,0.8,1.38c1.12,4.42,3.39,18.12,4.16,26.06" style="fill:none;stroke:#999;stroke-width:3"></path>
<path d="M555.27,36.68c8.19-1.94,14.49-3.11,18.28-3.69c1.39-0.21,2.22,1.26,2.02,2.51c-0.82,5.17-2.24,12.65-3.46,19.8" style="fill:none;stroke:#999;stroke-width:3"></path>
<path d="M557.9,58.36c4.46-0.66,9.84-1.42,15.97-2.43" style="fill:none;stroke:#999;stroke-width:3"></path>
<path d="M593.23,12c0.62,0.49,1.64,2.37,1.64,3.34c0,3.58-0.2,6.49-0.08,9.51" style="fill:none;stroke:#999;stroke-width:3"></path>
<path d="M578.99,26.69c0.57,0.05,1.88,0.35,2.43,0.28c4.49-0.58,20.44-2.47,26.14-2.62c0.94-0.02,1.42,0.02,2.12,0.35" style="fill:none;stroke:#999;stroke-width:3"></path>
<path d="M588.21,32.39c0,0.51,0.02,0.92-0.07,1.53c-0.46,3.19-4.85,13.82-8.61,18.53" style="fill:none;stroke:#999;stroke-width:3"></path>

<path d="M662.25,34.56c0.32,0.45,0.66,0.82,0.8,1.38c1.12,4.42,3.39,18.12,4.16,26.06" style="fill:none;stroke:#999;stroke-width:3"></path>
<path d="M664.27,36.68c8.19-1.94,14.49-3.11,18.28-3.69c1.39-0.21,2.22,1.26,2.02,2.51c-0.82,5.17-2.24,12.65-3.46,19.8" style="fill:none;stroke:#999;stroke-width:3"></path>
<path d="M666.9,58.36c4.46-0.66,9.84-1.42,15.97-2.43" style="fill:none;stroke:#999;stroke-width:3"></path>
<path d="M702.23,12c0.62,0.49,1.64,2.37,1.64,3.34c0,3.58-0.2,6.49-0.08,9.51" style="fill:none;stroke:#999;stroke-width:3"></path>
<path d="M687.99,26.69c0.57,0.05,1.88,0.35,2.43,0.28c4.49-0.58,20.44-2.47,26.14-2.62c0.94-0.02,1.42,0.02,2.12,0.35" style="fill:none;stroke:#999;stroke-width:3"></path>
<path d="M697.21,32.39c0,0.51,0.02,0.92-0.07,1.53c-0.46,3.19-4.85,13.82-8.61,18.53" style="fill:none;stroke:#999;stroke-width:3"></path>
<path d="M697.42,38.65c2.07,1.11,4.71,4.06,5.72,6.85" style="fill:none;stroke:#999;stroke-width:3"></path>

<path d="M771.25,34.56c0.32,0.45,0.66,0.82,0.8,1.38c1.12,4.42,3.39,18.12,4.16,26.06" style="fill:none;stroke:#999;stroke-width:3"></path>
<path d="M773.27,36.68c8.19-1.94,14.49-3.11,18.28-3.69c1.39-0.21,2.22,1.26,2.02,2.51c-0.82,5.17-2.24,12.65-3.46,19.8" style="fill:none;stroke:#999;stroke-width:3"></path>
<path d="M775.9,58.36c4.46-0.66,9.84-1.42,15.97-2.43" style="fill:none;stroke:#999;stroke-width:3"></path>
<path d="M811.23,12c0.62,0.49,1.64,2.37,1.64,3.34c0,3.58-0.2,6.49-0.08,9.51" style="fill:none;stroke:#999;stroke-width:3"></path>
<path d="M796.99,26.69c0.57,0.05,1.88,0.35,2.43,0.28c4.49-0.58,20.44-2.47,26.14-2.62c0.94-0.02,1.42,0.02,2.12,0.35" style="fill:none;stroke:#999;stroke-width:3"></path>
<path d="M806.21,32.39c0,0.51,0.02,0.92-0.07,1.53c-0.46,3.19-4.85,13.82-8.61,18.53" style="fill:none;stroke:#999;stroke-width:3"></path>
<path d="M806.42,38.65c2.07,1.11,4.71,4.06,5.72,6.85" style="fill:none;stroke:#999;stroke-width:3"></path>
<path d="M820.87,30.77c0,0.57,0.03,1.03-0.1,1.72c-0.7,3.58-7.37,15.51-13.08,20.81" style="fill:none;stroke:#999;stroke-width:3"></path>

<path d="M880.25,34.56c0.32,0.45,0.66,0.82,0.8,1.38c1.12,4.42,3.39,18.12,4.16,26.06" style="fill:none;stroke:#999;stroke-width:3"></path>
<path d="M882.27,36.68c8.19-1.94,14.49-3.11,18.28-3.69c1.39-0.21,2.22,1.26,2.02,2.51c-0.82,5.17-2.24,12.65-3.46,19.8" style="fill:none;stroke:#999;stroke-width:3"></path>
<path d="M884.9,58.36c4.46-0.66,9.84-1.42,15.97-2.43" style="fill:none;stroke:#999;stroke-width:3"></path>
<path d="M920.23,12c0.62,0.49,1.64,2.37,1.64,3.34c0,3.58-0.2,6.49-0.08,9.51" style="fill:none;stroke:#999;stroke-width:3"></path>
<path d="M905.99,26.69c0.57,0.05,1.88,0.35,2.43,0.28c4.49-0.58,20.44-2.47,26.14-2.62c0.94-0.02,1.42,0.02,2.12,0.35" style="fill:none;stroke:#999;stroke-width:3"></path>
<path d="M915.21,32.39c0,0.51,0.02,0.92-0.07,1.53c-0.46,3.19-4.85,13.82-8.61,18.53" style="fill:none;stroke:#999;stroke-width:3"></path>
<path d="M915.42,38.65c2.07,1.11,4.71,4.06,5.72,6.85" style="fill:none;stroke:#999;stroke-width:3"></path>
<path d="M929.87,30.77c0,0.57,0.03,1.03-0.1,1.72c-0.7,3.58-7.37,15.51-13.08,20.81" style="fill:none;stroke:#999;stroke-width:3"></path>
<path d="M928.2,43.08c2.94,1.51,6.69,5.54,8.12,9.36" style="fill:none;stroke:#999;stroke-width:3"></path>

<path d="M989.25,34.56c0.32,0.45,0.66,0.82,0.8,1.38c1.12,4.42,3.39,18.12,4.16,26.06" style="fill:none;stroke:#999;stroke-width:3"></path>
<path d="M991.27,36.68c8.19-1.94,14.49-3.11,18.28-3.69c1.39-0.21,2.22,1.26,2.02,2.51c-0.82,5.17-2.24,12.65-3.46,19.8" style="fill:none;stroke:#999;stroke-width:3"></path>
<path d="M993.9,58.36c4.46-0.66,9.84-1.42,15.97-2.43" style="fill:none;stroke:#999;stroke-width:3"></path>
<path d="M1029.23,12c0.62,0.49,1.64,2.37,1.64,3.34c0,3.58-0.2,6.49-0.08,9.51" style="fill:none;stroke:#999;stroke-width:3"></path>
<path d="M1014.99,26.69c0.57,0.05,1.88,0.35,2.43,0.28c4.49-0.58,20.44-2.47,26.14-2.62c0.94-0.02,1.42,0.02,2.12,0.35" style="fill:none;stroke:#999;stroke-width:3"></path>
<path d="M1024.21,32.39c0,0.51,0.02,0.92-0.07,1.53c-0.46,3.19-4.85,13.82-8.61,18.53" style="fill:none;stroke:#999;stroke-width:3"></path>
<path d="M1024.42,38.65c2.07,1.11,4.71,4.06,5.72,6.85" style="fill:none;stroke:#999;stroke-width:3"></path>
<path d="M1038.87,30.77c0,0.57,0.03,1.03-0.1,1.72c-0.7,3.58-7.37,15.51-13.08,20.81" style="fill:none;stroke:#999;stroke-width:3"></path>
<path d="M1037.2,43.08c2.94,1.51,6.69,5.54,8.12,9.36" style="fill:none;stroke:#999;stroke-width:3"></path>
<path d="M1012.3,66.42c0.5,0.29,1.86,0.48,3.21,0.36c5.74-0.53,18.49-1.96,27.77-3.39c1.34-0.21,1.68-0.29,2.53,0" style="fill:none;stroke:#999;stroke-width:3"></path>

<path d="M1098.25,34.56c0.32,0.45,0.66,0.82,0.8,1.38c1.12,4.42,3.39,18.12,4.16,26.06" style="fill:none;stroke:#999;stroke-width:3"></path>
<path d="M1100.27,36.68c8.19-1.94,14.49-3.11,18.28-3.69c1.39-0.21,2.22,1.26,2.02,2.51c-0.82,5.17-2.24,12.65-3.46,19.8" style="fill:none;stroke:#999;stroke-width:3"></path>
<path d="M1102.9,58.36c4.46-0.66,9.84-1.42,15.97-2.43" style="fill:none;stroke:#999;stroke-width:3"></path>
<path d="M1138.23,12c0.62,0.49,1.64,2.37,1.64,3.34c0,3.58-0.2,6.49-0.08,9.51" style="fill:none;stroke:#999;stroke-width:3"></path>
<path d="M1123.99,26.69c0.57,0.05,1.88,0.35,2.43,0.28c4.49-0.58,20.44-2.47,26.14-2.62c0.94-0.02,1.42,0.02,2.12,0.35" style="fill:none;stroke:#999;stroke-width:3"></path>
<path d="M1133.21,32.39c0,0.51,0.02,0.92-0.07,1.53c-0.46,3.19-4.85,13.82-8.61,18.53" style="fill:none;stroke:#999;stroke-width:3"></path>
<path d="M1133.42,38.65c2.07,1.11,4.71,4.06,5.72,6.85" style="fill:none;stroke:#999;stroke-width:3"></path>
<path d="M1147.87,30.77c0,0.57,0.03,1.03-0.1,1.72c-0.7,3.58-7.37,15.51-13.08,20.81" style="fill:none;stroke:#999;stroke-width:3"></path>
<path d="M1146.2,43.08c2.94,1.51,6.69,5.54,8.12,9.36" style="fill:none;stroke:#999;stroke-width:3"></path>
<path d="M1121.3,66.42c0.5,0.29,1.86,0.48,3.21,0.36c5.74-0.53,18.49-1.96,27.77-3.39c1.34-0.21,1.68-0.29,2.53,0" style="fill:none;stroke:#999;stroke-width:3"></path>
<path d="M1138.47,55.29c1.06,0.56,1.69,2.51,1.9,3.63c0.21,1.12,0,32.11-0.21,39.08" style="fill:none;stroke:#999;stroke-width:3"></path>

<path d="M1207.25,34.56c0.32,0.45,0.66,0.82,0.8,1.38c1.12,4.42,3.39,18.12,4.16,26.06" style="fill:none;stroke:#999;stroke-width:3"></path>
<path d="M1209.27,36.68c8.19-1.94,14.49-3.11,18.28-3.69c1.39-0.21,2.22,1.26,2.02,2.51c-0.82,5.17-2.24,12.65-3.46,19.8" style="fill:none;stroke:#999;stroke-width:3"></path>
<path d="M1211.9,58.36c4.46-0.66,9.84-1.42,15.97-2.43" style="fill:none;stroke:#999;stroke-width:3"></path>
<path d="M1247.23,12c0.62,0.49,1.64,2.37,1.64,3.34c0,3.58-0.2,6.49-0.08,9.51" style="fill:none;stroke:#999;stroke-width:3"></path>
<path d="M1232.99,26.69c0.57,0.05,1.88,0.35,2.43,0.28c4.49-0.58,20.44-2.47,26.14-2.62c0.94-0.02,1.42,0.02,2.12,0.35" style="fill:none;stroke:#999;stroke-width:3"></path>
<path d="M1242.21,32.39c0,0.51,0.02,0.92-0.07,1.53c-0.46,3.19-4.85,13.82-8.61,18.53" style="fill:none;stroke:#999;stroke-width:3"></path>
<path d="M1242.42,38.65c2.07,1.11,4.71,4.06,5.72,6.85" style="fill:none;stroke:#999;stroke-width:3"></path>
<path d="M1256.87,30.77c0,0.57,0.03,1.03-0.1,1.72c-0.7,3.58-7.37,15.51-13.08,20.81" style="fill:none;stroke:#999;stroke-width:3"></path>
<path d="M1255.2,43.08c2.94,1.51,6.69,5.54,8.12,9.36" style="fill:none;stroke:#999;stroke-width:3"></path>
<path d="M1230.3,66.42c0.5,0.29,1.86,0.48,3.21,0.36c5.74-0.53,18.49-1.96,27.77-3.39c1.34-0.21,1.68-0.29,2.53,0" style="fill:none;stroke:#999;stroke-width:3"></path>
<path d="M1247.47,55.29c1.06,0.56,1.69,2.51,1.9,3.63c0.21,1.12,0,32.11-0.21,39.08" style="fill:none;stroke:#999;stroke-width:3"></path>
<path d="M1249.02,66.31c-4.51,7.13-12.05,15.92-22.27,21.75" style="fill:none;stroke:#999;stroke-width:3"></path>

<path d="M1316.25,34.56c0.32,0.45,0.66,0.82,0.8,1.38c1.12,4.42,3.39,18.12,4.16,26.06" style="fill:none;stroke:#999;stroke-width:3"></path>
<path d="M1318.27,36.68c8.19-1.94,14.49-3.11,18.28-3.69c1.39-0.21,2.22,1.26,2.02,2.51c-0.82,5.17-2.24,12.65-3.46,19.8" style="fill:none;stroke:#999;stroke-width:3"></path>
<path d="M1320.9,58.36c4.46-0.66,9.84-1.42,15.97-2.43" style="fill:none;stroke:#999;stroke-width:3"></path>
<path d="M1356.23,12c0.62,0.49,1.64,2.37,1.64,3.34c0,3.58-0.2,6.49-0.08,9.51" style="fill:none;stroke:#999;stroke-width:3"></path>
<path d="M1341.99,26.69c0.57,0.05,1.88,0.35,2.43,0.28c4.49-0.58,20.44-2.47,26.14-2.62c0.94-0.02,1.42,0.02,2.12,0.35" style="fill:none;stroke:#999;stroke-width:3"></path>
<path d="M1351.21,32.39c0,0.51,0.02,0.92-0.07,1.53c-0.46,3.19-4.85,13.82-8.61,18.53" style="fill:none;stroke:#999;stroke-width:3"></path>
<path d="M1351.42,38.65c2.07,1.11,4.71,4.06,5.72,6.85" style="fill:none;stroke:#999;stroke-width:3"></path>
<path d="M1365.87,30.77c0,0.57,0.03,1.03-0.1,1.72c-0.7,3.58-7.37,15.51-13.08,20.81" style="fill:none;stroke:#999;stroke-width:3"></path>
<path d="M1364.2,43.08c2.94,1.51,6.69,5.54,8.12,9.36" style="fill:none;stroke:#999;stroke-width:3"></path>
<path d="M1339.3,66.42c0.5,0.29,1.86,0.48,3.21,0.36c5.74-0.53,18.49-1.96,27.77-3.39c1.34-0.21,1.68-0.29,2.53,0" style="fill:none;stroke:#999;stroke-width:3"></path>
<path d="M1356.47,55.29c1.06,0.56,1.69,2.51,1.9,3.63c0.21,1.12,0,32.11-0.21,39.08" style="fill:none;stroke:#999;stroke-width:3"></path>
<path d="M1358.02,66.31c-4.51,7.13-12.05,15.92-22.27,21.75" style="fill:none;stroke:#999;stroke-width:3"></path>
<path d="M1360.36,71.34c4.6,2.4,8.49,7.2,10.96,10.28" style="fill:none;stroke:#999;stroke-width:3"></path>

<path d="M1425.25,34.56c0.32,0.45,0.66,0.82,0.8,1.38c1.12,4.42,3.39,18.12,4.16,26.06" style="fill:none;stroke:#999;stroke-width:3"></path>
<path d="M1427.27,36.68c8.19-1.94,14.49-3.11,18.28-3.69c1.39-0.21,2.22,1.26,2.02,2.51c-0.82,5.17-2.24,12.65-3.46,19.8" style="fill:none;stroke:#999;stroke-width:3"></path>
<path d="M1429.9,58.36c4.46-0.66,9.84-1.42,15.97-2.43" style="fill:none;stroke:#999;stroke-width:3"></path>
<path d="M1465.23,12c0.62,0.49,1.64,2.37,1.64,3.34c0,3.58-0.2,6.49-0.08,9.51" style="fill:none;stroke:#999;stroke-width:3"></path>
<path d="M1450.99,26.69c0.57,0.05,1.88,0.35,2.43,0.28c4.49-0.58,20.44-2.47,26.14-2.62c0.94-0.02,1.42,0.02,2.12,0.35" style="fill:none;stroke:#999;stroke-width:3"></path>
<path d="M1460.21,32.39c0,0.51,0.02,0.92-0.07,1.53c-0.46,3.19-4.85,13.82-8.61,18.53" style="fill:none;stroke:#999;stroke-width:3"></path>
<path d="M1460.42,38.65c2.07,1.11,4.71,4.06,5.72,6.85" style="fill:none;stroke:#999;stroke-width:3"></path>
<path d="M1474.87,30.77c0,0.57,0.03,1.03-0.1,1.72c-0.7,3.58-7.37,15.51-13.08,20.81" style="fill:none;stroke:#999;stroke-width:3"></path>
<path d="M1473.2,43.08c2.94,1.51,6.69,5.54,8.12,9.36" style="fill:none;stroke:#999;stroke-width:3"></path>
<path d="M1448.3,66.42c0.5,0.29,1.86,0.48,3.21,0.36c5.74-0.53,18.49-1.96,27.77-3.39c1.34-0.21,1.68-0.29,2.53,0" style="fill:none;stroke:#999;stroke-width:3"></path>
<path d="M1465.47,55.29c1.06,0.56,1.69,2.51,1.9,3.63c0.21,1.12,0,32.11-0.21,39.08" style="fill:none;stroke:#999;stroke-width:3"></path>
<path d="M1467.02,66.31c-4.51,7.13-12.05,15.92-22.27,21.75" style="fill:none;stroke:#999;stroke-width:3"></path>
<path d="M1469.36,71.34c4.6,2.4,8.49,7.2,10.96,10.28" style="fill:none;stroke:#999;stroke-width:3"></path>
<path d="M1493.21,14.07c0.1,1.37-0.03,3.17-0.36,4.35c-2.12,7.5-4.81,13.84-9.68,22.97" style="fill:none;stroke:#999;stroke-width:3"></path>

<path d="M1534.25,34.56c0.32,0.45,0.66,0.82,0.8,1.38c1.12,4.42,3.39,18.12,4.16,26.06" style="fill:none;stroke:#999;stroke-width:3"></path>
<path d="M1536.27,36.68c8.19-1.94,14.49-3.11,18.28-3.69c1.39-0.21,2.22,1.26,2.02,2.51c-0.82,5.17-2.24,12.65-3.46,19.8" style="fill:none;stroke:#999;stroke-width:3"></path>
<path d="M1538.9,58.36c4.46-0.66,9.84-1.42,15.97-2.43" style="fill:none;stroke:#999;stroke-width:3"></path>
<path d="M1574.23,12c0.62,0.49,1.64,2.37,1.64,3.34c0,3.58-0.2,6.49-0.08,9.51" style="fill:none;stroke:#999;stroke-width:3"></path>
<path d="M1559.99,26.69c0.57,0.05,1.88,0.35,2.43,0.28c4.49-0.58,20.44-2.47,26.14-2.62c0.94-0.02,1.42,0.02,2.12,0.35" style="fill:none;stroke:#999;stroke-width:3"></path>
<path d="M1569.21,32.39c0,0.51,0.02,0.92-0.07,1.53c-0.46,3.19-4.85,13.82-8.61,18.53" style="fill:none;stroke:#999;stroke-width:3"></path>
<path d="M1569.42,38.65c2.07,1.11,4.71,4.06,5.72,6.85" style="fill:none;stroke:#999;stroke-width:3"></path>
<path d="M1583.87,30.77c0,0.57,0.03,1.03-0.1,1.72c-0.7,3.58-7.37,15.51-13.08,20.81" style="fill:none;stroke:#999;stroke-width:3"></path>
<path d="M1582.2,43.08c2.94,1.51,6.69,5.54,8.12,9.36" style="fill:none;stroke:#999;stroke-width:3"></path>
<path d="M1557.3,66.42c0.5,0.29,1.86,0.48,3.21,0.36c5.74-0.53,18.49-1.96,27.77-3.39c1.34-0.21,1.68-0.29,2.53,0" style="fill:none;stroke:#999;stroke-width:3"></path>
<path d="M1574.47,55.29c1.06,0.56,1.69,2.51,1.9,3.63c0.21,1.12,0,32.11-0.21,39.08" style="fill:none;stroke:#999;stroke-width:3"></path>
<path d="M1576.02,66.31c-4.51,7.13-12.05,15.92-22.27,21.75" style="fill:none;stroke:#999;stroke-width:3"></path>
<path d="M1578.36,71.34c4.6,2.4,8.49,7.2,10.96,10.28" style="fill:none;stroke:#999;stroke-width:3"></path>
<path d="M1602.21,14.07c0.1,1.37-0.03,3.17-0.36,4.35c-2.12,7.5-4.81,13.84-9.68,22.97" style="fill:none;stroke:#999;stroke-width:3"></path>
<path d="M1596.12,36.75c0.51,0.92,0.9,2.94,0.93,4.37c0.3,12.71-0.41,49.94-0.16,56.55" style="fill:none;stroke:#999;stroke-width:3"></path>

<path d="M1643.25,34.56c0.32,0.45,0.66,0.82,0.8,1.38c1.12,4.42,3.39,18.12,4.16,26.06" style="fill:none;stroke:#999;stroke-width:3"></path>
<path d="M1645.27,36.68c8.19-1.94,14.49-3.11,18.28-3.69c1.39-0.21,2.22,1.26,2.02,2.51c-0.82,5.17-2.24,12.65-3.46,19.8" style="fill:none;stroke:#999;stroke-width:3"></path>
<path d="M1647.9,58.36c4.46-0.66,9.84-1.42,15.97-2.43" style="fill:none;stroke:#999;stroke-width:3"></path>
<path d="M1683.23,12c0.62,0.49,1.64,2.37,1.64,3.34c0,3.58-0.2,6.49-0.08,9.51" style="fill:none;stroke:#999;stroke-width:3"></path>
<path d="M1668.99,26.69c0.57,0.05,1.88,0.35,2.43,0.28c4.49-0.58,20.44-2.47,26.14-2.62c0.94-0.02,1.42,0.02,2.12,0.35" style="fill:none;stroke:#999;stroke-width:3"></path>
<path d="M1678.21,32.39c0,0.51,0.02,0.92-0.07,1.53c-0.46,3.19-4.85,13.82-8.61,18.53" style="fill:none;stroke:#999;stroke-width:3"></path>
<path d="M1678.42,38.65c2.07,1.11,4.71,4.06,5.72,6.85" style="fill:none;stroke:#999;stroke-width:3"></path>
<path d="M1692.87,30.77c0,0.57,0.03,1.03-0.1,1.72c-0.7,3.58-7.37,15.51-13.08,20.81" style="fill:none;stroke:#999;stroke-width:3"></path>
<path d="M1691.2,43.08c2.94,1.51,6.69,5.54,8.12,9.36" style="fill:none;stroke:#999;stroke-width:3"></path>
<path d="M1666.3,66.42c0.5,0.29,1.86,0.48,3.21,0.36c5.74-0.53,18.49-1.96,27.77-3.39c1.34-0.21,1.68-0.29,2.53,0" style="fill:none;stroke:#999;stroke-width:3"></path>
<path d="M1683.47,55.29c1.06,0.56,1.69,2.51,1.9,3.63c0.21,1.12,0,32.11-0.21,39.08" style="fill:none;stroke:#999;stroke-width:3"></path>
<path d="M1685.02,66.31c-4.51,7.13-12.05,15.92-22.27,21.75" style="fill:none;stroke:#999;stroke-width:3"></path>
<path d="M1687.36,71.34c4.6,2.4,8.49,7.2,10.96,10.28" style="fill:none;stroke:#999;stroke-width:3"></path>
<path d="M1711.21,14.07c0.1,1.37-0.03,3.17-0.36,4.35c-2.12,7.5-4.81,13.84-9.68,22.97" style="fill:none;stroke:#999;stroke-width:3"></path>
<path d="M1705.12,36.75c0.51,0.92,0.9,2.94,0.93,4.37c0.3,12.71-0.41,49.94-0.16,56.55" style="fill:none;stroke:#999;stroke-width:3"></path>
<path d="M1724.85,14.07c0.07,0.97-0.02,2.25-0.23,3.08c-1.33,5.32-3.03,9.43-6.09,15.9" style="fill:none;stroke:#999;stroke-width:3"></path>

<path d="M1752.25,34.56c0.32,0.45,0.66,0.82,0.8,1.38c1.12,4.42,3.39,18.12,4.16,26.06" style="fill:none;stroke:#999;stroke-width:3"></path>
<path d="M1754.27,36.68c8.19-1.94,14.49-3.11,18.28-3.69c1.39-0.21,2.22,1.26,2.02,2.51c-0.82,5.17-2.24,12.65-3.46,19.8" style="fill:none;stroke:#999;stroke-width:3"></path>
<path d="M1756.9,58.36c4.46-0.66,9.84-1.42,15.97-2.43" style="fill:none;stroke:#999;stroke-width:3"></path>
<path d="M1792.23,12c0.62,0.49,1.64,2.37,1.64,3.34c0,3.58-0.2,6.49-0.08,9.51" style="fill:none;stroke:#999;stroke-width:3"></path>
<path d="M1777.99,26.69c0.57,0.05,1.88,0.35,2.43,0.28c4.49-0.58,20.44-2.47,26.14-2.62c0.94-0.02,1.42,0.02,2.12,0.35" style="fill:none;stroke:#999;stroke-width:3"></path>
<path d="M1787.21,32.39c0,0.51,0.02,0.92-0.07,1.53c-0.46,3.19-4.85,13.82-8.61,18.53" style="fill:none;stroke:#999;stroke-width:3"></path>
<path d="M1787.42,38.65c2.07,1.11,4.71,4.06,5.72,6.85" style="fill:none;stroke:#999;stroke-width:3"></path>
<path d="M1801.87,30.77c0,0.57,0.03,1.03-0.1,1.72c-0.7,3.58-7.37,15.51-13.08,20.81" style="fill:none;stroke:#999;stroke-width:3"></path>
<path d="M1800.2,43.08c2.94,1.51,6.69,5.54,8.12,9.36" style="fill:none;stroke:#999;stroke-width:3"></path>
<path d="M1775.3,66.42c0.5,0.29,1.86,0.48,3.21,0.36c5.74-0.53,18.49-1.96,27.77-3.39c1.34-0.21,1.68-0.29,2.53,0" style="fill:none;stroke:#999;stroke-width:3"></path>
<path d="M1792.47,55.29c1.06,0.56,1.69,2.51,1.9,3.63c0.21,1.12,0,32.11-0.21,39.08" style="fill:none;stroke:#999;stroke-width:3"></path>
<path d="M1794.02,66.31c-4.51,7.13-12.05,15.92-22.27,21.75" style="fill:none;stroke:#999;stroke-width:3"></path>
<path d="M1796.36,71.34c4.6,2.4,8.49,7.2,10.96,10.28" style="fill:none;stroke:#999;stroke-width:3"></path>
<path d="M1820.21,14.07c0.1,1.37-0.03,3.17-0.36,4.35c-2.12,7.5-4.81,13.84-9.68,22.97" style="fill:none;stroke:#999;stroke-width:3"></path>
<path d="M1814.12,36.75c0.51,0.92,0.9,2.94,0.93,4.37c0.3,12.71-0.41,49.94-0.16,56.55" style="fill:none;stroke:#999;stroke-width:3"></path>
<path d="M1833.85,14.07c0.07,0.97-0.02,2.25-0.23,3.08c-1.33,5.32-3.03,9.43-6.09,15.9" style="fill:none;stroke:#999;stroke-width:3"></path>
<path d="M1814.6,35.5c8.15-0.5,25.86-1.63,28.38-2.29" style="fill:none;stroke:#999;stroke-width:3"></path>

<path d="M1861.25,34.56c0.32,0.45,0.66,0.82,0.8,1.38c1.12,4.42,3.39,18.12,4.16,26.06" style="fill:none;stroke:#999;stroke-width:3"></path>
<path d="M1863.27,36.68c8.19-1.94,14.49-3.11,18.28-3.69c1.39-0.21,2.22,1.26,2.02,2.51c-0.82,5.17-2.24,12.65-3.46,19.8" style="fill:none;stroke:#999;stroke-width:3"></path>
<path d="M1865.9,58.36c4.46-0.66,9.84-1.42,15.97-2.43" style="fill:none;stroke:#999;stroke-width:3"></path>
<path d="M1901.23,12c0.62,0.49,1.64,2.37,1.64,3.34c0,3.58-0.2,6.49-0.08,9.51" style="fill:none;stroke:#999;stroke-width:3"></path>
<path d="M1886.99,26.69c0.57,0.05,1.88,0.35,2.43,0.28c4.49-0.58,20.44-2.47,26.14-2.62c0.94-0.02,1.42,0.02,2.12,0.35" style="fill:none;stroke:#999;stroke-width:3"></path>
<path d="M1896.21,32.39c0,0.51,0.02,0.92-0.07,1.53c-0.46,3.19-4.85,13.82-8.61,18.53" style="fill:none;stroke:#999;stroke-width:3"></path>
<path d="M1896.42,38.65c2.07,1.11,4.71,4.06,5.72,6.85" style="fill:none;stroke:#999;stroke-width:3"></path>
<path d="M1910.87,30.77c0,0.57,0.03,1.03-0.1,1.72c-0.7,3.58-7.37,15.51-13.08,20.81" style="fill:none;stroke:#999;stroke-width:3"></path>
<path d="M1909.2,43.08c2.94,1.51,6.69,5.54,8.12,9.36" style="fill:none;stroke:#999;stroke-width:3"></path>
<path d="M1884.3,66.42c0.5,0.29,1.86,0.48,3.21,0.36c5.74-0.53,18.49-1.96,27.77-3.39c1.34-0.21,1.68-0.29,2.53,0" style="fill:none;stroke:#999;stroke-width:3"></path>
<path d="M1901.47,55.29c1.06,0.56,1.69,2.51,1.9,3.63c0.21,1.12,0,32.11-0.21,39.08" style="fill:none;stroke:#999;stroke-width:3"></path>
<path d="M1903.02,66.31c-4.51,7.13-12.05,15.92-22.27,21.75" style="fill:none;stroke:#999;stroke-width:3"></path>
<path d="M1905.36,71.34c4.6,2.4,8.49,7.2,10.96,10.28" style="fill:none;stroke:#999;stroke-width:3"></path>
<path d="M1929.21,14.07c0.1,1.37-0.03,3.17-0.36,4.35c-2.12,7.5-4.81,13.84-9.68,22.97" style="fill:none;stroke:#999;stroke-width:3"></path>
<path d="M1923.12,36.75c0.51,0.92,0.9,2.94,0.93,4.37c0.3,12.71-0.41,49.94-0.16,56.55" style="fill:none;stroke:#999;stroke-width:3"></path>
<path d="M1942.85,14.07c0.07,0.97-0.02,2.25-0.23,3.08c-1.33,5.32-3.03,9.43-6.09,15.9" style="fill:none;stroke:#999;stroke-width:3"></path>
<path d="M1923.6,35.5c8.15-0.5,25.86-1.63,28.38-2.29" style="fill:none;stroke:#999;stroke-width:3"></path>
<path d="M1937.64,36.46c0.31,0.51,0.55,1.2,0.55,2.07c0,8.88,0.03,39.55-0.15,53.53" style="fill:none;stroke:#999;stroke-width:3"></path>

<path d="M1970.25,34.56c0.32,0.45,0.66,0.82,0.8,1.38c1.12,4.42,3.39,18.12,4.16,26.06" style="fill:none;stroke:#999;stroke-width:3"></path>
<path d="M1972.27,36.68c8.19-1.94,14.49-3.11,18.28-3.69c1.39-0.21,2.22,1.26,2.02,2.51c-0.82,5.17-2.24,12.65-3.46,19.8" style="fill:none;stroke:#999;stroke-width:3"></path>
<path d="M1974.9,58.36c4.46-0.66,9.84-1.42,15.97-2.43" style="fill:none;stroke:#999;stroke-width:3"></path>
<path d="M2010.23,12c0.62,0.49,1.64,2.37,1.64,3.34c0,3.58-0.2,6.49-0.08,9.51" style="fill:none;stroke:#999;stroke-width:3"></path>
<path d="M1995.99,26.69c0.57,0.05,1.88,0.35,2.43,0.28c4.49-0.58,20.44-2.47,26.14-2.62c0.94-0.02,1.42,0.02,2.12,0.35" style="fill:none;stroke:#999;stroke-width:3"></path>
<path d="M2005.21,32.39c0,0.51,0.02,0.92-0.07,1.53c-0.46,3.19-4.85,13.82-8.61,18.53" style="fill:none;stroke:#999;stroke-width:3"></path>
<path d="M2005.42,38.65c2.07,1.11,4.71,4.06,5.72,6.85" style="fill:none;stroke:#999;stroke-width:3"></path>
<path d="M2019.87,30.77c0,0.57,0.03,1.03-0.1,1.72c-0.7,3.58-7.37,15.51-13.08,20.81" style="fill:none;stroke:#999;stroke-width:3"></path>
<path d="M2018.2,43.08c2.94,1.51,6.69,5.54,8.12,9.36" style="fill:none;stroke:#999;stroke-width:3"></path>
<path d="M1993.3,66.42c0.5,0.29,1.86,0.48,3.21,0.36c5.74-0.53,18.49-1.96,27.77-3.39c1.34-0.21,1.68-0.29,2.53,0" style="fill:none;stroke:#999;stroke-width:3"></path>
<path d="M2010.47,55.29c1.06,0.56,1.69,2.51,1.9,3.63c0.21,1.12,0,32.11-0.21,39.08" style="fill:none;stroke:#999;stroke-width:3"></path>
<path d="M2012.02,66.31c-4.51,7.13-12.05,15.92-22.27,21.75" style="fill:none;stroke:#999;stroke-width:3"></path>
<path d="M2014.36,71.34c4.6,2.4,8.49,7.2,10.96,10.28" style="fill:none;stroke:#999;stroke-width:3"></path>
<path d="M2038.21,14.07c0.1,1.37-0.03,3.17-0.36,4.35c-2.12,7.5-4.81,13.84-9.68,22.97" style="fill:none;stroke:#999;stroke-width:3"></path>
<path d="M2032.12,36.75c0.51,0.92,0.9,2.94,0.93,4.37c0.3,12.71-0.41,49.94-0.16,56.55" style="fill:none;stroke:#999;stroke-width:3"></path>
<path d="M2051.85,14.07c0.07,0.97-0.02,2.25-0.23,3.08c-1.33,5.32-3.03,9.43-6.09,15.9" style="fill:none;stroke:#999;stroke-width:3"></path>
<path d="M2032.6,35.5c8.15-0.5,25.86-1.63,28.38-2.29" style="fill:none;stroke:#999;stroke-width:3"></path>
<path d="M2046.64,36.46c0.31,0.51,0.55,1.2,0.55,2.07c0,8.88,0.03,39.55-0.15,53.53" style="fill:none;stroke:#999;stroke-width:3"></path>
<path d="M2033.29,53.23c6.46-0.23,23.47-1.83,25.85-2.37" style="fill:none;stroke:#999;stroke-width:3"></path>

<path d="M2079.25,34.56c0.32,0.45,0.66,0.82,0.8,1.38c1.12,4.42,3.39,18.12,4.16,26.06" style="fill:none;stroke:#999;stroke-width:3"></path>
<path d="M2081.27,36.68c8.19-1.94,14.49-3.11,18.28-3.69c1.39-0.21,2.22,1.26,2.02,2.51c-0.82,5.17-2.24,12.65-3.46,19.8" style="fill:none;stroke:#999;stroke-width:3"></path>
<path d="M2083.9,58.36c4.46-0.66,9.84-1.42,15.97-2.43" style="fill:none;stroke:#999;stroke-width:3"></path>
<path d="M2119.23,12c0.62,0.49,1.64,2.37,1.64,3.34c0,3.58-0.2,6.49-0.08,9.51" style="fill:none;stroke:#999;stroke-width:3"></path>
<path d="M2104.99,26.69c0.57,0.05,1.88,0.35,2.43,0.28c4.49-0.58,20.44-2.47,26.14-2.62c0.94-0.02,1.42,0.02,2.12,0.35" style="fill:none;stroke:#999;stroke-width:3"></path>
<path d="M2114.21,32.39c0,0.51,0.02,0.92-0.07,1.53c-0.46,3.19-4.85,13.82-8.61,18.53" style="fill:none;stroke:#999;stroke-width:3"></path>
<path d="M2114.42,38.65c2.07,1.11,4.71,4.06,5.72,6.85" style="fill:none;stroke:#999;stroke-width:3"></path>
<path d="M2128.87,30.77c0,0.57,0.03,1.03-0.1,1.72c-0.7,3.58-7.37,15.51-13.08,20.81" style="fill:none;stroke:#999;stroke-width:3"></path>
<path d="M2127.2,43.08c2.94,1.51,6.69,5.54,8.12,9.36" style="fill:none;stroke:#999;stroke-width:3"></path>
<path d="M2102.3,66.42c0.5,0.29,1.86,0.48,3.21,0.36c5.74-0.53,18.49-1.96,27.77-3.39c1.34-0.21,1.68-0.29,2.53,0" style="fill:none;stroke:#999;stroke-width:3"></path>
<path d="M2119.4700000000003,55.29c1.06,0.56,1.69,2.51,1.9,3.63c0.21,1.12,0,32.11-0.21,39.08" style="fill:none;stroke:#999;stroke-width:3"></path>
<path d="M2121.02,66.31c-4.51,7.13-12.05,15.92-22.27,21.75" style="fill:none;stroke:#999;stroke-width:3"></path>
<path d="M2123.3599999999997,71.34c4.6,2.4,8.49,7.2,10.96,10.28" style="fill:none;stroke:#999;stroke-width:3"></path>
<path d="M2147.21,14.07c0.1,1.37-0.03,3.17-0.36,4.35c-2.12,7.5-4.81,13.84-9.68,22.97" style="fill:none;stroke:#999;stroke-width:3"></path>
<path d="M2141.12,36.75c0.51,0.92,0.9,2.94,0.93,4.37c0.3,12.71-0.41,49.94-0.16,56.55" style="fill:none;stroke:#999;stroke-width:3"></path>
<path d="M2160.85,14.07c0.07,0.97-0.02,2.25-0.23,3.08c-1.33,5.32-3.03,9.43-6.09,15.9" style="fill:none;stroke:#999;stroke-width:3"></path>
<path d="M2141.6,35.5c8.15-0.5,25.86-1.63,28.38-2.29" style="fill:none;stroke:#999;stroke-width:3"></path>
<path d="M2155.6400000000003,36.46c0.31,0.51,0.55,1.2,0.55,2.07c0,8.88,0.03,39.55-0.15,53.53" style="fill:none;stroke:#999;stroke-width:3"></path>
<path d="M2142.29,53.23c6.46-0.23,23.47-1.83,25.85-2.37" style="fill:none;stroke:#999;stroke-width:3"></path>
<path d="M2142.43,69.99c8.57-0.49,23.49-2.03,26-2.49" style="fill:none;stroke:#999;stroke-width:3"></path>

<path d="M2188.25,34.56c0.32,0.45,0.66,0.82,0.8,1.38c1.12,4.42,3.39,18.12,4.16,26.06" style="fill:none;stroke:#999;stroke-width:3"></path>
<path d="M2190.27,36.68c8.19-1.94,14.49-3.11,18.28-3.69c1.39-0.21,2.22,1.26,2.02,2.51c-0.82,5.17-2.24,12.65-3.46,19.8" style="fill:none;stroke:#999;stroke-width:3"></path>
<path d="M2192.9,58.36c4.46-0.66,9.84-1.42,15.97-2.43" style="fill:none;stroke:#999;stroke-width:3"></path>
<path d="M2228.23,12c0.62,0.49,1.64,2.37,1.64,3.34c0,3.58-0.2,6.49-0.08,9.51" style="fill:none;stroke:#999;stroke-width:3"></path>
<path d="M2213.99,26.69c0.57,0.05,1.88,0.35,2.43,0.28c4.49-0.58,20.44-2.47,26.14-2.62c0.94-0.02,1.42,0.02,2.12,0.35" style="fill:none;stroke:#999;stroke-width:3"></path>
<path d="M2223.21,32.39c0,0.51,0.02,0.92-0.07,1.53c-0.46,3.19-4.85,13.82-8.61,18.53" style="fill:none;stroke:#999;stroke-width:3"></path>
<path d="M2223.42,38.65c2.07,1.11,4.71,4.06,5.72,6.85" style="fill:none;stroke:#999;stroke-width:3"></path>
<path d="M2237.87,30.77c0,0.57,0.03,1.03-0.1,1.72c-0.7,3.58-7.37,15.51-13.08,20.81" style="fill:none;stroke:#999;stroke-width:3"></path>
<path d="M2236.2,43.08c2.94,1.51,6.69,5.54,8.12,9.36" style="fill:none;stroke:#999;stroke-width:3"></path>
<path d="M2211.3,66.42c0.5,0.29,1.86,0.48,3.21,0.36c5.74-0.53,18.49-1.96,27.77-3.39c1.34-0.21,1.68-0.29,2.53,0" style="fill:none;stroke:#999;stroke-width:3"></path>
<path d="M2228.4700000000003,55.29c1.06,0.56,1.69,2.51,1.9,3.63c0.21,1.12,0,32.11-0.21,39.08" style="fill:none;stroke:#999;stroke-width:3"></path>
<path d="M2230.02,66.31c-4.51,7.13-12.05,15.92-22.27,21.75" style="fill:none;stroke:#999;stroke-width:3"></path>
<path d="M2232.3599999999997,71.34c4.6,2.4,8.49,7.2,10.96,10.28" style="fill:none;stroke:#999;stroke-width:3"></path>
<path d="M2256.21,14.07c0.1,1.37-0.03,3.17-0.36,4.35c-2.12,7.5-4.81,13.84-9.68,22.97" style="fill:none;stroke:#999;stroke-width:3"></path>
<path d="M2250.12,36.75c0.51,0.92,0.9,2.94,0.93,4.37c0.3,12.71-0.41,49.94-0.16,56.55" style="fill:none;stroke:#999;stroke-width:3"></path>
<path d="M2269.85,14.07c0.07,0.97-0.02,2.25-0.23,3.08c-1.33,5.32-3.03,9.43-6.09,15.9" style="fill:none;stroke:#999;stroke-width:3"></path>
<path d="M2250.6,35.5c8.15-0.5,25.86-1.63,28.38-2.29" style="fill:none;stroke:#999;stroke-width:3"></path>
<path d="M2264.6400000000003,36.46c0.31,0.51,0.55,1.2,0.55,2.07c0,8.88,0.03,39.55-0.15,53.53" style="fill:none;stroke:#999;stroke-width:3"></path>
<path d="M2251.29,53.23c6.46-0.23,23.47-1.83,25.85-2.37" style="fill:none;stroke:#999;stroke-width:3"></path>
<path d="M2251.43,69.99c8.57-0.49,23.49-2.03,26-2.49" style="fill:none;stroke:#999;stroke-width:3"></path>
<path d="M2251.53,92.28C2260.0,91.75,2278.48,90.82,2281.0,90.16" style="fill:none;stroke:#999;stroke-width:3"></path>

</svg>