<svg width="654px" height="109px" viewBox="0 0 654 109" xmlns="http://www.w3.org/2000/svg" xmlns:xlink="http://www.w3.org/1999/xlink" xml:space="preserve" version="1.1" baseProfile="full">
<line x1="1" y1="1" x2="653" y2="1" style="stroke:#ddd;stroke-width:2"></line>
<line x1="1" y1="1" x2="1" y2="108" style="stroke:#ddd;stroke-width:2"></line>
<line x1="1" y1="108" x2="653" y2="108" style="stroke:#ddd;stroke-width:2"></line>
<line x1="653" y1="1" x2="653" y2="108" style="stroke:#ddd;stroke-width:2"></line>
<line x1="109" y1="1" x2="109" y2="108" style="stroke:#ddd;stroke-width:2"></line>
<line x1="218" y1="1" x2="218" y2="108" style="stroke:#ddd;stroke-width:2"></line>
<line x1="327" y1="1" x2="327" y2="108" style="stroke:#ddd;stroke-width:2"></line>
<line x1="436" y1="1" x2="436" y2="108" style="stroke:#ddd;stroke-width:2"></line>
<line x1="545" y1="1" x2="545" y2="108" style="stroke:#ddd;stroke-width:2"></line>
<line x1="1" y1="54" x2="653" y2="54" style="stroke:#ddd;stroke-width:2;stroke-dasharray:3 3"></line>
<line x1="55" y1="1" x2="55" y2="108" style="stroke:#ddd;stroke-width:2;stroke-dasharray:3 3"></line>
<line x1="164" y1="1" x2="164" y2="108" style="stroke:#ddd;stroke-width:2;stroke-dasharray:3 3"></line>
<line x1="273" y1="1" x2="273" y2="108" style="stroke:#ddd;stroke-width:2;stroke-dasharray:3 3"></line>
<line x1="382" y1="1" x2="382" y2="108" style="stroke:#ddd;stroke-width:2;stroke-dasharray:3 3"></line>
<line x1="491" y1="1" x2="491" y2="108" style="stroke:#ddd;stroke-width:2;stroke-dasharray:3 3"></line>
<line x1="600" y1="1" x2="600" y2="108" style="stroke:#ddd;stroke-width:2;stroke-dasharray:3 3"></line>
<path d="M17.5,26.25c1.06,1.06,1.9,3.09,2.11,4.98c1.27,11.64,2.42,29.54,4.16,51.27c0.17,2.12,0.34,2.78,0.53,5" style="fill:none;stroke:#999;stroke-width:3"></path>

<path d="M126.5,26.25c1.06,1.06,1.9,3.09,2.11,4.98c1.27,11.64,2.42,29.54,4.16,51.27c0.17,2.12,0.34,2.78,0.53,5" style="fill:none;stroke:#999;stroke-width:3"></path>
<path d="M129.54,28.66c20.23-2.59,57.72-6.91,68.71-6.91c2.75,0,3.82,2.51,3.5,5.5c-1.35,12.85-3.11,34.06-5.64,51.98c-0.28,1.95-0.56,2.88-0.86,4.77" style="fill:none;stroke:#999;stroke-width:3"></path>

<path d="M235.5,26.25c1.06,1.06,1.9,3.09,2.11,4.98c1.27,11.64,2.42,29.54,4.16,51.27c0.17,2.12,0.34,2.78,0.53,5" style="fill:none;stroke:#999;stroke-width:3"></path>
<path d="M238.54,28.66c20.23-2.59,57.72-6.91,68.71-6.91c2.75,0,3.82,2.51,3.5,5.5c-1.35,12.85-3.11,34.06-5.64,51.98c-0.28,1.95-0.56,2.88-0.86,4.77" style="fill:none;stroke:#999;stroke-width:3"></path>
<path d="M255.75,45.14c0.8,0.64,1.29,1.45,1.47,2.45c1.2,3.61,2.35,10.46,3.54,16.12c0.28,1.32,0.53,2.1,0.74,3.3" style="fill:none;stroke:#999;stroke-width:3"></path>

<path d="M344.5,26.25c1.06,1.06,1.9,3.09,2.11,4.98c1.27,11.64,2.42,29.54,4.16,51.27c0.17,2.12,0.34,2.78,0.53,5" style="fill:none;stroke:#999;stroke-width:3"></path>
<path d="M347.53999999999996,28.66c20.23-2.59,57.72-6.91,68.71-6.91c2.75,0,3.82,2.51,3.5,5.5c-1.35,12.85-3.11,34.06-5.64,51.98c-0.28,1.95-0.56,2.88-0.86,4.77" style="fill:none;stroke:#999;stroke-width:3"></path>
<path d="M364.75,45.14c0.8,0.64,1.29,1.45,1.47,2.45c1.2,3.61,2.35,10.46,3.54,16.12c0.28,1.32,0.53,2.1,0.74,3.3" style="fill:none;stroke:#999;stroke-width:3"></path>
<path d="M367.03,46.4c7.97-1.53,22.18-3.48,26.41-3.91c1.8-0.19,2.89,1.11,2.63,2.21c-0.88,3.74-3.13,11.37-4.34,16.3" style="fill:none;stroke:#999;stroke-width:3"></path>

<path d="M453.5,26.25c1.06,1.06,1.9,3.09,2.11,4.98c1.27,11.64,2.42,29.54,4.16,51.27c0.17,2.12,0.34,2.78,0.53,5" style="fill:none;stroke:#999;stroke-width:3"></path>
<path d="M456.53999999999996,28.66c20.23-2.59,57.72-6.91,68.71-6.91c2.75,0,3.82,2.51,3.5,5.5c-1.35,12.85-3.11,34.06-5.64,51.98c-0.28,1.95-0.56,2.88-0.86,4.77" style="fill:none;stroke:#999;stroke-width:3"></path>
<path d="M473.75,45.14c0.8,0.64,1.29,1.45,1.47,2.45c1.2,3.61,2.35,10.46,3.54,16.12c0.28,1.32,0.53,2.1,0.74,3.3" style="fill:none;stroke:#999;stroke-width:3"></path>
<path d="M476.03,46.4c7.97-1.53,22.18-3.48,26.41-3.91c1.8-0.19,2.89,1.11,2.63,2.21c-0.88,3.74-3.13,11.37-4.34,16.3" style="fill:none;stroke:#999;stroke-width:3"></path>
<path d="M480.25,64.5c5.23-0.84,12.05-1.6,18.8-2.43c1.31-0.16,2.62-0.32,3.92-0.46" style="fill:none;stroke:#999;stroke-width:3"></path>

<path d="M562.5,26.25c1.06,1.06,1.9,3.09,2.11,4.98c1.27,11.64,2.42,29.54,4.16,51.27c0.17,2.12,0.34,2.78,0.53,5" style="fill:none;stroke:#999;stroke-width:3"></path>
<path d="M565.54,28.66c20.23-2.59,57.72-6.91,68.71-6.91c2.75,0,3.82,2.51,3.5,5.5c-1.35,12.85-3.11,34.06-5.64,51.98c-0.28,1.95-0.56,2.88-0.86,4.77" style="fill:none;stroke:#999;stroke-width:3"></path>
<path d="M582.75,45.14c0.8,0.64,1.29,1.45,1.47,2.45c1.2,3.61,2.35,10.46,3.54,16.12c0.28,1.32,0.53,2.1,0.74,3.3" style="fill:none;stroke:#999;stroke-width:3"></path>
<path d="M585.03,46.4c7.97-1.53,22.18-3.48,26.41-3.91c1.8-0.19,2.89,1.11,2.63,2.21c-0.88,3.74-3.13,11.37-4.34,16.3" style="fill:none;stroke:#999;stroke-width:3"></path>
<path d="M589.25,64.5c5.23-0.84,12.05-1.6,18.8-2.43c1.31-0.16,2.62-0.32,3.92-0.46" style="fill:none;stroke:#999;stroke-width:3"></path>
<path d="M570.25,84.76c15.54-1.45,41.13-3.14,60.75-4.51" style="fill:none;stroke:#999;stroke-width:3"></path>

</svg>