<svg width="872px" height="109px" viewBox="0 0 872 109" xmlns="http://www.w3.org/2000/svg" xmlns:xlink="http://www.w3.org/1999/xlink" xml:space="preserve" version="1.1" baseProfile="full">
<line x1="1" y1="1" x2="871" y2="1" style="stroke:#ddd;stroke-width:2"></line>
<line x1="1" y1="1" x2="1" y2="108" style="stroke:#ddd;stroke-width:2"></line>
<line x1="1" y1="108" x2="871" y2="108" style="stroke:#ddd;stroke-width:2"></line>
<line x1="871" y1="1" x2="871" y2="108" style="stroke:#ddd;stroke-width:2"></line>
<line x1="109" y1="1" x2="109" y2="108" style="stroke:#ddd;stroke-width:2"></line>
<line x1="218" y1="1" x2="218" y2="108" style="stroke:#ddd;stroke-width:2"></line>
<line x1="327" y1="1" x2="327" y2="108" style="stroke:#ddd;stroke-width:2"></line>
<line x1="436" y1="1" x2="436" y2="108" style="stroke:#ddd;stroke-width:2"></line>
<line x1="545" y1="1" x2="545" y2="108" style="stroke:#ddd;stroke-width:2"></line>
<line x1="654" y1="1" x2="654" y2="108" style="stroke:#ddd;stroke-width:2"></line>
<line x1="763" y1="1" x2="763" y2="108" style="stroke:#ddd;stroke-width:2"></line>
<line x1="1" y1="54" x2="871" y2="54" style="stroke:#ddd;stroke-width:2;stroke-dasharray:3 3"></line>
<line x1="55" y1="1" x2="55" y2="108" style="stroke:#ddd;stroke-width:2;stroke-dasharray:3 3"></line>
<line x1="164" y1="1" x2="164" y2="108" style="stroke:#ddd;stroke-width:2;stroke-dasharray:3 3"></line>
<line x1="273" y1="1" x2="273" y2="108" style="stroke:#ddd;stroke-width:2;stroke-dasharray:3 3"></line>
<line x1="382" y1="1" x2="382" y2="108" style="stroke:#ddd;stroke-width:2;stroke-dasharray:3 3"></line>
<line x1="491" y1="1" x2="491" y2="108" style="stroke:#ddd;stroke-width:2;stroke-dasharray:3 3"></line>
<line x1="600" y1="1" x2="600" y2="108" style="stroke:#ddd;stroke-width:2;stroke-dasharray:3 3"></line>
<line x1="709" y1="1" x2="709" y2="108" style="stroke:#ddd;stroke-width:2;stroke-dasharray:3 3"></line>
<line x1="818" y1="1" x2="818" y2="108" style="stroke:#ddd;stroke-width:2;stroke-dasharray:3 3"></line>
<path d="M13.5,47.89c2.16,0.41,4.33,0.5,6.52,0.26c5.46-0.72,13.66-2.56,18.37-3.22c1.53-0.26,3.07-0.31,4.62-0.17" style="fill:none;stroke:#999;stroke-width:3"></path>

<path d="M122.5,47.89c2.16,0.41,4.33,0.5,6.52,0.26c5.46-0.72,13.66-2.56,18.37-3.22c1.53-0.26,3.07-0.31,4.62-0.17" style="fill:none;stroke:#999;stroke-width:3"></path>
<path d="M137.12,20.75c1.13,1.13,1.21,2.38,1.21,3.75c0,1.02,0.03,42,0.03,49.25" style="fill:none;stroke:#999;stroke-width:3"></path>

<path d="M231.5,47.89c2.16,0.41,4.33,0.5,6.52,0.26c5.46-0.72,13.66-2.56,18.37-3.22c1.53-0.26,3.07-0.31,4.62-0.17" style="fill:none;stroke:#999;stroke-width:3"></path>
<path d="M246.12,20.75c1.13,1.13,1.21,2.38,1.21,3.75c0,1.02,0.03,42,0.03,49.25" style="fill:none;stroke:#999;stroke-width:3"></path>
<path d="M231.25,80.27c1.5,0.73,3.04,1,5.57-0.29c7.05-3.58,16.75-8.28,23.8-11.86" style="fill:none;stroke:#999;stroke-width:3"></path>

<path d="M340.5,47.89c2.16,0.41,4.33,0.5,6.52,0.26c5.46-0.72,13.66-2.56,18.37-3.22c1.53-0.26,3.07-0.31,4.62-0.17" style="fill:none;stroke:#999;stroke-width:3"></path>
<path d="M355.12,20.75c1.13,1.13,1.21,2.38,1.21,3.75c0,1.02,0.03,42,0.03,49.25" style="fill:none;stroke:#999;stroke-width:3"></path>
<path d="M340.25,80.27c1.5,0.73,3.04,1,5.57-0.29c7.05-3.58,16.75-8.28,23.8-11.86" style="fill:none;stroke:#999;stroke-width:3"></path>
<path d="M375.75,32.99c0.82,0.82,1.16,1.87,1.25,2.63c0.7,6,1.72,16.15,2.71,26.24c0.25,2.53,0.5,5.06,0.74,7.52" style="fill:none;stroke:#999;stroke-width:3"></path>

<path d="M449.5,47.89c2.16,0.41,4.33,0.5,6.52,0.26c5.46-0.72,13.66-2.56,18.37-3.22c1.53-0.26,3.07-0.31,4.62-0.17" style="fill:none;stroke:#999;stroke-width:3"></path>
<path d="M464.12,20.75c1.13,1.13,1.21,2.38,1.21,3.75c0,1.02,0.03,42,0.03,49.25" style="fill:none;stroke:#999;stroke-width:3"></path>
<path d="M449.25,80.27c1.5,0.73,3.04,1,5.57-0.29c7.05-3.58,16.75-8.28,23.8-11.86" style="fill:none;stroke:#999;stroke-width:3"></path>
<path d="M484.75,32.99c0.82,0.82,1.16,1.87,1.25,2.63c0.7,6,1.72,16.15,2.71,26.24c0.25,2.53,0.5,5.06,0.74,7.52" style="fill:none;stroke:#999;stroke-width:3"></path>
<path d="M486.69,34.67c14.18-2.05,29.39-3.1,37.82-3.72c3.5-0.26,6.05,0.56,5.67,4.44c-0.5,5.13-1.5,13.85-2.87,23.74c-0.37,2.67-0.77,5.42-1.19,8.21" style="fill:none;stroke:#999;stroke-width:3"></path>

<path d="M558.5,47.89c2.16,0.41,4.33,0.5,6.52,0.26c5.46-0.72,13.66-2.56,18.37-3.22c1.53-0.26,3.07-0.31,4.62-0.17" style="fill:none;stroke:#999;stroke-width:3"></path>
<path d="M573.12,20.75c1.13,1.13,1.21,2.38,1.21,3.75c0,1.02,0.03,42,0.03,49.25" style="fill:none;stroke:#999;stroke-width:3"></path>
<path d="M558.25,80.27c1.5,0.73,3.04,1,5.57-0.29c7.05-3.58,16.75-8.28,23.8-11.86" style="fill:none;stroke:#999;stroke-width:3"></path>
<path d="M593.75,32.99c0.82,0.82,1.16,1.87,1.25,2.63c0.7,6,1.72,16.15,2.71,26.24c0.25,2.53,0.5,5.06,0.74,7.52" style="fill:none;stroke:#999;stroke-width:3"></path>
<path d="M595.69,34.67c14.18-2.05,29.39-3.1,37.82-3.72c3.5-0.26,6.05,0.56,5.67,4.44c-0.5,5.13-1.5,13.85-2.87,23.74c-0.37,2.67-0.77,5.42-1.19,8.21" style="fill:none;stroke:#999;stroke-width:3"></path>
<path d="M597.46,50.22c9.67-1.1,27.79-2.47,39.36-2.97" style="fill:none;stroke:#999;stroke-width:3"></path>

<path d="M667.5,47.89c2.16,0.41,4.33,0.5,6.52,0.26c5.46-0.72,13.66-2.56,18.37-3.22c1.53-0.26,3.07-0.31,4.62-0.17" style="fill:none;stroke:#999;stroke-width:3"></path>
<path d="M682.12,20.75c1.13,1.13,1.21,2.38,1.21,3.75c0,1.02,0.03,42,0.03,49.25" style="fill:none;stroke:#999;stroke-width:3"></path>
<path d="M667.25,80.27c1.5,0.73,3.04,1,5.57-0.29c7.05-3.58,16.75-8.28,23.8-11.86" style="fill:none;stroke:#999;stroke-width:3"></path>
<path d="M702.75,32.99c0.82,0.82,1.16,1.87,1.25,2.63c0.7,6,1.72,16.15,2.71,26.24c0.25,2.53,0.5,5.06,0.74,7.52" style="fill:none;stroke:#999;stroke-width:3"></path>
<path d="M704.69,34.67c14.18-2.05,29.39-3.1,37.82-3.72c3.5-0.26,6.05,0.56,5.67,4.44c-0.5,5.13-1.5,13.85-2.87,23.74c-0.37,2.67-0.77,5.42-1.19,8.21" style="fill:none;stroke:#999;stroke-width:3"></path>
<path d="M706.46,50.22c9.67-1.1,27.79-2.47,39.36-2.97" style="fill:none;stroke:#999;stroke-width:3"></path>
<path d="M708.26,67.03c11.49-1.16,21.61-2.16,35.29-2.85" style="fill:none;stroke:#999;stroke-width:3"></path>

<path d="M776.5,47.89c2.16,0.41,4.33,0.5,6.52,0.26c5.46-0.72,13.66-2.56,18.37-3.22c1.53-0.26,3.07-0.31,4.62-0.17" style="fill:none;stroke:#999;stroke-width:3"></path>
<path d="M791.12,20.75c1.13,1.13,1.21,2.38,1.21,3.75c0,1.02,0.03,42,0.03,49.25" style="fill:none;stroke:#999;stroke-width:3"></path>
<path d="M776.25,80.27c1.5,0.73,3.04,1,5.57-0.29c7.05-3.58,16.75-8.28,23.8-11.86" style="fill:none;stroke:#999;stroke-width:3"></path>
<path d="M811.75,32.99c0.82,0.82,1.16,1.87,1.25,2.63c0.7,6,1.72,16.15,2.71,26.24c0.25,2.53,0.5,5.06,0.74,7.52" style="fill:none;stroke:#999;stroke-width:3"></path>
<path d="M813.69,34.67c14.18-2.05,29.39-3.1,37.82-3.72c3.5-0.26,6.05,0.56,5.67,4.44c-0.5,5.13-1.5,13.85-2.87,23.74c-0.37,2.67-0.77,5.42-1.19,8.21" style="fill:none;stroke:#999;stroke-width:3"></path>
<path d="M815.46,50.22c9.67-1.1,27.79-2.47,39.36-2.97" style="fill:none;stroke:#999;stroke-width:3"></path>
<path d="M817.26,67.03c11.49-1.16,21.61-2.16,35.29-2.85" style="fill:none;stroke:#999;stroke-width:3"></path>
<path d="M832.12,11.75c0.94,0.94,1.21,2.38,1.21,3.75c0,0.83,0.02,45.41,0.03,70.12c0,5.86,0,10.6,0,13.38" style="fill:none;stroke:#999;stroke-width:3"></path>

</svg>