<svg width="327px" height="109px" viewBox="0 0 327 109" xmlns="http://www.w3.org/2000/svg" xmlns:xlink="http://www.w3.org/1999/xlink" xml:space="preserve" version="1.1" baseProfile="full">
<line x1="1" y1="1" x2="326" y2="1" style="stroke:#ddd;stroke-width:2"></line>
<line x1="1" y1="1" x2="1" y2="108" style="stroke:#ddd;stroke-width:2"></line>
<line x1="1" y1="108" x2="326" y2="108" style="stroke:#ddd;stroke-width:2"></line>
<line x1="326" y1="1" x2="326" y2="108" style="stroke:#ddd;stroke-width:2"></line>
<line x1="109" y1="1" x2="109" y2="108" style="stroke:#ddd;stroke-width:2"></line>
<line x1="218" y1="1" x2="218" y2="108" style="stroke:#ddd;stroke-width:2"></line>
<line x1="1" y1="54" x2="326" y2="54" style="stroke:#ddd;stroke-width:2;stroke-dasharray:3 3"></line>
<line x1="55" y1="1" x2="55" y2="108" style="stroke:#ddd;stroke-width:2;stroke-dasharray:3 3"></line>
<line x1="164" y1="1" x2="164" y2="108" style="stroke:#ddd;stroke-width:2;stroke-dasharray:3 3"></line>
<line x1="273" y1="1" x2="273" y2="108" style="stroke:#ddd;stroke-width:2;stroke-dasharray:3 3"></line>
<path d="M13.13,54.98c3.87,0.9,7.66,0.43,11.36,0.16c18.76-1.39,44.96-3.08,61.9-3.32c3.22-0.05,6.57,0.08,9.74,0.76" style="fill:none;stroke:#999;stroke-width:3"></path>

<path d="M122.13,54.98c3.87,0.9,7.66,0.43,11.36,0.16c18.76-1.39,44.96-3.08,61.9-3.32c3.22-0.05,6.57,0.08,9.74,0.76" style="fill:none;stroke:#999;stroke-width:3"></path>
<path d="M161.25,17.25C162.31,18.31,163.0,19.88,163.0,21.5c0,1.03,0.25,58.62,0.25,66" style="fill:none;stroke:#999;stroke-width:3"></path>

<path d="M231.13,54.98c3.87,0.9,7.66,0.43,11.36,0.16c18.76-1.39,44.96-3.08,61.9-3.32c3.22-0.05,6.57,0.08,9.74,0.76" style="fill:none;stroke:#999;stroke-width:3"></path>
<path d="M270.25,17.25C271.31,18.31,272.0,19.88,272.0,21.5c0,1.03,0.25,58.62,0.25,66" style="fill:none;stroke:#999;stroke-width:3"></path>
<path d="M239.75,89.45c2.73,0.83,5.82,0.54,8.62,0.42c12.73-0.57,33.94-2.04,45.88-2.17c2.97-0.03,5.83,0.21,8.75,0.74" style="fill:none;stroke:#999;stroke-width:3"></path>

</svg>