<svg width="763px" height="109px" viewBox="0 0 763 109" xmlns="http://www.w3.org/2000/svg" xmlns:xlink="http://www.w3.org/1999/xlink" xml:space="preserve" version="1.1" baseProfile="full">
<line x1="1" y1="1" x2="762" y2="1" style="stroke:#ddd;stroke-width:2"></line>
<line x1="1" y1="1" x2="1" y2="108" style="stroke:#ddd;stroke-width:2"></line>
<line x1="1" y1="108" x2="762" y2="108" style="stroke:#ddd;stroke-width:2"></line>
<line x1="762" y1="1" x2="762" y2="108" style="stroke:#ddd;stroke-width:2"></line>
<line x1="109" y1="1" x2="109" y2="108" style="stroke:#ddd;stroke-width:2"></line>
<line x1="218" y1="1" x2="218" y2="108" style="stroke:#ddd;stroke-width:2"></line>
<line x1="327" y1="1" x2="327" y2="108" style="stroke:#ddd;stroke-width:2"></line>
<line x1="436" y1="1" x2="436" y2="108" style="stroke:#ddd;stroke-width:2"></line>
<line x1="545" y1="1" x2="545" y2="108" style="stroke:#ddd;stroke-width:2"></line>
<line x1="654" y1="1" x2="654" y2="108" style="stroke:#ddd;stroke-width:2"></line>
<line x1="1" y1="54" x2="762" y2="54" style="stroke:#ddd;stroke-width:2;stroke-dasharray:3 3"></line>
<line x1="55" y1="1" x2="55" y2="108" style="stroke:#ddd;stroke-width:2;stroke-dasharray:3 3"></line>
<line x1="164" y1="1" x2="164" y2="108" style="stroke:#ddd;stroke-width:2;stroke-dasharray:3 3"></line>
<line x1="273" y1="1" x2="273" y2="108" style="stroke:#ddd;stroke-width:2;stroke-dasharray:3 3"></line>
<line x1="382" y1="1" x2="382" y2="108" style="stroke:#ddd;stroke-width:2;stroke-dasharray:3 3"></line>
<line x1="491" y1="1" x2="491" y2="108" style="stroke:#ddd;stroke-width:2;stroke-dasharray:3 3"></line>
<line x1="600" y1="1" x2="600" y2="108" style="stroke:#ddd;stroke-width:2;stroke-dasharray:3 3"></line>
<line x1="709" y1="1" x2="709" y2="108" style="stroke:#ddd;stroke-width:2;stroke-dasharray:3 3"></line>
<path d="M27.38,24.88c2.04,1.02,5.5,0.6,7.65,0.39c10.24-1.04,26.98-2.51,38.1-3.47c2.4-0.21,4.91-0.3,7.25,0.4" style="fill:none;stroke:#999;stroke-width:3"></path>

<path d="M136.38,24.88c2.04,1.02,5.5,0.6,7.65,0.39c10.24-1.04,26.98-2.51,38.1-3.47c2.4-0.21,4.91-0.3,7.25,0.4" style="fill:none;stroke:#999;stroke-width:3"></path>
<path d="M160.53,11.11c0.99,0.99,1.35,2.39,1.35,3.76c0,2.62-0.02,12.12-0.02,22.01" style="fill:none;stroke:#999;stroke-width:3"></path>

<path d="M245.38,24.88c2.04,1.02,5.5,0.6,7.65,0.39c10.24-1.04,26.98-2.51,38.1-3.47c2.4-0.21,4.91-0.3,7.25,0.4" style="fill:none;stroke:#999;stroke-width:3"></path>
<path d="M269.53,11.11c0.99,0.99,1.35,2.39,1.35,3.76c0,2.62-0.02,12.12-0.02,22.01" style="fill:none;stroke:#999;stroke-width:3"></path>
<path d="M248.81,39.17c2.57,0.33,4.84,0.32,6.94,0.16c10.75-0.83,22.53-2.32,32.01-2.81c1.96-0.1,3.9-0.24,5.83,0.21" style="fill:none;stroke:#999;stroke-width:3"></path>

<path d="M354.38,24.88c2.04,1.02,5.5,0.6,7.65,0.39c10.24-1.04,26.98-2.51,38.1-3.47c2.4-0.21,4.91-0.3,7.25,0.4" style="fill:none;stroke:#999;stroke-width:3"></path>
<path d="M378.53,11.11c0.99,0.99,1.35,2.39,1.35,3.76c0,2.62-0.02,12.12-0.02,22.01" style="fill:none;stroke:#999;stroke-width:3"></path>
<path d="M357.81,39.17c2.57,0.33,4.84,0.32,6.94,0.16c10.75-0.83,22.53-2.32,32.01-2.81c1.96-0.1,3.9-0.24,5.83,0.21" style="fill:none;stroke:#999;stroke-width:3"></path>
<path d="M344.41,51.13c0,3.48-3.03,14.55-4.41,16.87" style="fill:none;stroke:#999;stroke-width:3"></path>

<path d="M463.38,24.88c2.04,1.02,5.5,0.6,7.65,0.39c10.24-1.04,26.98-2.51,38.1-3.47c2.4-0.21,4.91-0.3,7.25,0.4" style="fill:none;stroke:#999;stroke-width:3"></path>
<path d="M487.53,11.11c0.99,0.99,1.35,2.39,1.35,3.76c0,2.62-0.02,12.12-0.02,22.01" style="fill:none;stroke:#999;stroke-width:3"></path>
<path d="M466.81,39.17c2.57,0.33,4.84,0.32,6.94,0.16c10.75-0.83,22.53-2.32,32.01-2.81c1.96-0.1,3.9-0.24,5.83,0.21" style="fill:none;stroke:#999;stroke-width:3"></path>
<path d="M453.41,51.13c0,3.48-3.03,14.55-4.41,16.87" style="fill:none;stroke:#999;stroke-width:3"></path>
<path d="M454.27,52.91C473.25,51,500.88,48.12,524.2,47.09c12.06-0.54,2.55,7.41-0.45,9.53" style="fill:none;stroke:#999;stroke-width:3"></path>

<path d="M572.38,24.88c2.04,1.02,5.5,0.6,7.65,0.39c10.24-1.04,26.98-2.51,38.1-3.47c2.4-0.21,4.91-0.3,7.25,0.4" style="fill:none;stroke:#999;stroke-width:3"></path>
<path d="M596.53,11.11c0.99,0.99,1.35,2.39,1.35,3.76c0,2.62-0.02,12.12-0.02,22.01" style="fill:none;stroke:#999;stroke-width:3"></path>
<path d="M575.81,39.17c2.57,0.33,4.84,0.32,6.94,0.16c10.75-0.83,22.53-2.32,32.01-2.81c1.96-0.1,3.9-0.24,5.83,0.21" style="fill:none;stroke:#999;stroke-width:3"></path>
<path d="M562.4100000000001,51.13c0,3.48-3.03,14.55-4.41,16.87" style="fill:none;stroke:#999;stroke-width:3"></path>
<path d="M563.27,52.91C582.25,51,609.88,48.12,633.2,47.09c12.06-0.54,2.55,7.41-0.45,9.53" style="fill:none;stroke:#999;stroke-width:3"></path>
<path d="M617.19,60.03c-0.06,0.97-0.72,2.16-1.27,2.52C610.62,66,600.75,71,588.41,74.96" style="fill:none;stroke:#999;stroke-width:3"></path>

<path d="M681.38,24.88c2.04,1.02,5.5,0.6,7.65,0.39c10.24-1.04,26.98-2.51,38.1-3.47c2.4-0.21,4.91-0.3,7.25,0.4" style="fill:none;stroke:#999;stroke-width:3"></path>
<path d="M705.53,11.11c0.99,0.99,1.35,2.39,1.35,3.76c0,2.62-0.02,12.12-0.02,22.01" style="fill:none;stroke:#999;stroke-width:3"></path>
<path d="M684.81,39.17c2.57,0.33,4.84,0.32,6.94,0.16c10.75-0.83,22.53-2.32,32.01-2.81c1.96-0.1,3.9-0.24,5.83,0.21" style="fill:none;stroke:#999;stroke-width:3"></path>
<path d="M671.4100000000001,51.13c0,3.48-3.03,14.55-4.41,16.87" style="fill:none;stroke:#999;stroke-width:3"></path>
<path d="M672.27,52.91C691.25,51,718.88,48.12,742.2,47.09c12.06-0.54,2.55,7.41-0.45,9.53" style="fill:none;stroke:#999;stroke-width:3"></path>
<path d="M726.19,60.03c-0.06,0.97-0.72,2.16-1.27,2.52C719.62,66,709.75,71,697.41,74.96" style="fill:none;stroke:#999;stroke-width:3"></path>
<path d="M693.0,57.5c0.75,0.75,1.29,2,1.29,3.31c0,1.39,0.06,18.72,0.06,22.98c0,9.84,1.66,11.73,21.79,11.73c20.99,0,22.46-1.27,22.46-13.31" style="fill:none;stroke:#999;stroke-width:3"></path>

</svg>