<svg width="654px" height="109px" viewBox="0 0 654 109" xmlns="http://www.w3.org/2000/svg" xmlns:xlink="http://www.w3.org/1999/xlink" xml:space="preserve" version="1.1" baseProfile="full">
<line x1="1" y1="1" x2="653" y2="1" style="stroke:#ddd;stroke-width:2"></line>
<line x1="1" y1="1" x2="1" y2="108" style="stroke:#ddd;stroke-width:2"></line>
<line x1="1" y1="108" x2="653" y2="108" style="stroke:#ddd;stroke-width:2"></line>
<line x1="653" y1="1" x2="653" y2="108" style="stroke:#ddd;stroke-width:2"></line>
<line x1="109" y1="1" x2="109" y2="108" style="stroke:#ddd;stroke-width:2"></line>
<line x1="218" y1="1" x2="218" y2="108" style="stroke:#ddd;stroke-width:2"></line>
<line x1="327" y1="1" x2="327" y2="108" style="stroke:#ddd;stroke-width:2"></line>
<line x1="436" y1="1" x2="436" y2="108" style="stroke:#ddd;stroke-width:2"></line>
<line x1="545" y1="1" x2="545" y2="108" style="stroke:#ddd;stroke-width:2"></line>
<line x1="1" y1="54" x2="653" y2="54" style="stroke:#ddd;stroke-width:2;stroke-dasharray:3 3"></line>
<line x1="55" y1="1" x2="55" y2="108" style="stroke:#ddd;stroke-width:2;stroke-dasharray:3 3"></line>
<line x1="164" y1="1" x2="164" y2="108" style="stroke:#ddd;stroke-width:2;stroke-dasharray:3 3"></line>
<line x1="273" y1="1" x2="273" y2="108" style="stroke:#ddd;stroke-width:2;stroke-dasharray:3 3"></line>
<line x1="382" y1="1" x2="382" y2="108" style="stroke:#ddd;stroke-width:2;stroke-dasharray:3 3"></line>
<line x1="491" y1="1" x2="491" y2="108" style="stroke:#ddd;stroke-width:2;stroke-dasharray:3 3"></line>
<line x1="600" y1="1" x2="600" y2="108" style="stroke:#ddd;stroke-width:2;stroke-dasharray:3 3"></line>
<path d="M29.0,15.25c2,0.5,3.7,0.66,6,0.5c14-1,30.5-2.75,41.5-2.75c3.25,0,4.7,1.3,4,3.75c-1.5,5.25-3.5,11.5-5,21.5" style="fill:none;stroke:#999;stroke-width:3"></path>

<path d="M138.0,15.25c2,0.5,3.7,0.66,6,0.5c14-1,30.5-2.75,41.5-2.75c3.25,0,4.7,1.3,4,3.75c-1.5,5.25-3.5,11.5-5,21.5" style="fill:none;stroke:#999;stroke-width:3"></path>
<path d="M137.75,28c2.25,0.25,4.01,0.67,6.5,0.5c15-1,28.75-2.25,42-2.75" style="fill:none;stroke:#999;stroke-width:3"></path>

<path d="M247.0,15.25c2,0.5,3.7,0.66,6,0.5c14-1,30.5-2.75,41.5-2.75c3.25,0,4.7,1.3,4,3.75c-1.5,5.25-3.5,11.5-5,21.5" style="fill:none;stroke:#999;stroke-width:3"></path>
<path d="M246.75,28c2.25,0.25,4.01,0.67,6.5,0.5c15-1,28.75-2.25,42-2.75" style="fill:none;stroke:#999;stroke-width:3"></path>
<path d="M232.0,42.37c3.25,1.13,5.47,1.22,8,0.91c21-2.54,47.17-4.96,68.42-5.57c3.4-0.1,5.53,0,8.08,0.3" style="fill:none;stroke:#999;stroke-width:3"></path>

<path d="M356.0,15.25c2,0.5,3.7,0.66,6,0.5c14-1,30.5-2.75,41.5-2.75c3.25,0,4.7,1.3,4,3.75c-1.5,5.25-3.5,11.5-5,21.5" style="fill:none;stroke:#999;stroke-width:3"></path>
<path d="M355.75,28c2.25,0.25,4.01,0.67,6.5,0.5c15-1,28.75-2.25,42-2.75" style="fill:none;stroke:#999;stroke-width:3"></path>
<path d="M341.0,42.37c3.25,1.13,5.47,1.22,8,0.91c21-2.54,47.17-4.96,68.42-5.57c3.4-0.1,5.53,0,8.08,0.3" style="fill:none;stroke:#999;stroke-width:3"></path>
<path d="M380.88,43.64c0.12,1.11,0.03,2.37-0.49,3.23c-3.75,6.25-11.43,16.5-25.72,23.73" style="fill:none;stroke:#999;stroke-width:3"></path>

<path d="M465.0,15.25c2,0.5,3.7,0.66,6,0.5c14-1,30.5-2.75,41.5-2.75c3.25,0,4.7,1.3,4,3.75c-1.5,5.25-3.5,11.5-5,21.5" style="fill:none;stroke:#999;stroke-width:3"></path>
<path d="M464.75,28c2.25,0.25,4.01,0.67,6.5,0.5c15-1,28.75-2.25,42-2.75" style="fill:none;stroke:#999;stroke-width:3"></path>
<path d="M450.0,42.37c3.25,1.13,5.47,1.22,8,0.91c21-2.54,47.17-4.96,68.42-5.57c3.4-0.1,5.53,0,8.08,0.3" style="fill:none;stroke:#999;stroke-width:3"></path>
<path d="M489.88,43.64c0.12,1.11,0.03,2.37-0.49,3.23c-3.75,6.25-11.43,16.5-25.72,23.73" style="fill:none;stroke:#999;stroke-width:3"></path>
<path d="M488.17,52.06c1.77,0.35,3.49,0.35,4.84,0.23c4.42-0.39,10.14-1.06,16.03-2.54c4.23-1.06,5.76,0.99,4.46,3.18C503.12,70.45,485.25,89.25,454.25,100" style="fill:none;stroke:#999;stroke-width:3"></path>

<path d="M574.0,15.25c2,0.5,3.7,0.66,6,0.5c14-1,30.5-2.75,41.5-2.75c3.25,0,4.7,1.3,4,3.75c-1.5,5.25-3.5,11.5-5,21.5" style="fill:none;stroke:#999;stroke-width:3"></path>
<path d="M573.75,28c2.25,0.25,4.01,0.67,6.5,0.5c15-1,28.75-2.25,42-2.75" style="fill:none;stroke:#999;stroke-width:3"></path>
<path d="M559.0,42.37c3.25,1.13,5.47,1.22,8,0.91c21-2.54,47.17-4.96,68.42-5.57c3.4-0.1,5.53,0,8.08,0.3" style="fill:none;stroke:#999;stroke-width:3"></path>
<path d="M598.88,43.64c0.12,1.11,0.03,2.37-0.49,3.23c-3.75,6.25-11.43,16.5-25.72,23.73" style="fill:none;stroke:#999;stroke-width:3"></path>
<path d="M597.1700000000001,52.06c1.77,0.35,3.49,0.35,4.84,0.23c4.42-0.39,10.14-1.06,16.03-2.54c4.23-1.06,5.76,0.99,4.46,3.18C612.12,70.45,594.25,89.25,563.25,100" style="fill:none;stroke:#999;stroke-width:3"></path>
<path d="M585.33,65.02c4.84,1.88,12.51,7.72,13.72,10.64" style="fill:none;stroke:#999;stroke-width:3"></path>

</svg>