<svg width="436px" height="109px" viewBox="0 0 436 109" xmlns="http://www.w3.org/2000/svg" xmlns:xlink="http://www.w3.org/1999/xlink" xml:space="preserve" version="1.1" baseProfile="full">
<line x1="1" y1="1" x2="435" y2="1" style="stroke:#ddd;stroke-width:2"></line>
<line x1="1" y1="1" x2="1" y2="108" style="stroke:#ddd;stroke-width:2"></line>
<line x1="1" y1="108" x2="435" y2="108" style="stroke:#ddd;stroke-width:2"></line>
<line x1="435" y1="1" x2="435" y2="108" style="stroke:#ddd;stroke-width:2"></line>
<line x1="109" y1="1" x2="109" y2="108" style="stroke:#ddd;stroke-width:2"></line>
<line x1="218" y1="1" x2="218" y2="108" style="stroke:#ddd;stroke-width:2"></line>
<line x1="327" y1="1" x2="327" y2="108" style="stroke:#ddd;stroke-width:2"></line>
<line x1="1" y1="54" x2="435" y2="54" style="stroke:#ddd;stroke-width:2;stroke-dasharray:3 3"></line>
<line x1="55" y1="1" x2="55" y2="108" style="stroke:#ddd;stroke-width:2;stroke-dasharray:3 3"></line>
<line x1="164" y1="1" x2="164" y2="108" style="stroke:#ddd;stroke-width:2;stroke-dasharray:3 3"></line>
<line x1="273" y1="1" x2="273" y2="108" style="stroke:#ddd;stroke-width:2;stroke-dasharray:3 3"></line>
<line x1="382" y1="1" x2="382" y2="108" style="stroke:#ddd;stroke-width:2;stroke-dasharray:3 3"></line>
<path d="M19.38,47.86c2.65,0.92,5.89,1.11,8.63,0.7c13.62-2.06,33.87-5.31,48.67-6.23c2.62-0.16,5.62,0.17,8.08,0.92" style="fill:none;stroke:#999;stroke-width:3"></path>

<path d="M128.38,47.86c2.65,0.92,5.89,1.11,8.63,0.7c13.62-2.06,33.87-5.31,48.67-6.23c2.62-0.16,5.62,0.17,8.08,0.92" style="fill:none;stroke:#999;stroke-width:3"></path>
<path d="M158.0,18c1,1,1.49,2.41,1.49,4.57C159.49,56.75,146.75,80.5,127.0,92" style="fill:none;stroke:#999;stroke-width:3"></path>

<path d="M237.38,47.86c2.65,0.92,5.89,1.11,8.63,0.7c13.62-2.06,33.87-5.31,48.67-6.23c2.62-0.16,5.62,0.17,8.08,0.92" style="fill:none;stroke:#999;stroke-width:3"></path>
<path d="M267.0,18c1,1,1.49,2.41,1.49,4.57C268.49,56.75,255.75,80.5,236.0,92" style="fill:none;stroke:#999;stroke-width:3"></path>
<path d="M268.75,47.75c8.04,9.38,24.72,30.39,34.53,39.72c2.4,2.28,4.97,4.66,8.22,5.78" style="fill:none;stroke:#999;stroke-width:3"></path>

<path d="M346.38,47.86c2.65,0.92,5.89,1.11,8.63,0.7c13.62-2.06,33.87-5.31,48.67-6.23c2.62-0.16,5.62,0.17,8.08,0.92" style="fill:none;stroke:#999;stroke-width:3"></path>
<path d="M376.0,18c1,1,1.49,2.41,1.49,4.57C377.49,56.75,364.75,80.5,345.0,92" style="fill:none;stroke:#999;stroke-width:3"></path>
<path d="M377.75,47.75c8.04,9.38,24.72,30.39,34.53,39.72c2.4,2.28,4.97,4.66,8.22,5.78" style="fill:none;stroke:#999;stroke-width:3"></path>
<path d="M371.5,81.5c3.79,2.16,9.8,8.89,10.75,12.25" style="fill:none;stroke:#999;stroke-width:3"></path>

</svg>