<svg width="763px" height="109px" viewBox="0 0 763 109" xmlns="http://www.w3.org/2000/svg" xmlns:xlink="http://www.w3.org/1999/xlink" xml:space="preserve" version="1.1" baseProfile="full">
<line x1="1" y1="1" x2="762" y2="1" style="stroke:#ddd;stroke-width:2"></line>
<line x1="1" y1="1" x2="1" y2="108" style="stroke:#ddd;stroke-width:2"></line>
<line x1="1" y1="108" x2="762" y2="108" style="stroke:#ddd;stroke-width:2"></line>
<line x1="762" y1="1" x2="762" y2="108" style="stroke:#ddd;stroke-width:2"></line>
<line x1="109" y1="1" x2="109" y2="108" style="stroke:#ddd;stroke-width:2"></line>
<line x1="218" y1="1" x2="218" y2="108" style="stroke:#ddd;stroke-width:2"></line>
<line x1="327" y1="1" x2="327" y2="108" style="stroke:#ddd;stroke-width:2"></line>
<line x1="436" y1="1" x2="436" y2="108" style="stroke:#ddd;stroke-width:2"></line>
<line x1="545" y1="1" x2="545" y2="108" style="stroke:#ddd;stroke-width:2"></line>
<line x1="654" y1="1" x2="654" y2="108" style="stroke:#ddd;stroke-width:2"></line>
<line x1="1" y1="54" x2="762" y2="54" style="stroke:#ddd;stroke-width:2;stroke-dasharray:3 3"></line>
<line x1="55" y1="1" x2="55" y2="108" style="stroke:#ddd;stroke-width:2;stroke-dasharray:3 3"></line>
<line x1="164" y1="1" x2="164" y2="108" style="stroke:#ddd;stroke-width:2;stroke-dasharray:3 3"></line>
<line x1="273" y1="1" x2="273" y2="108" style="stroke:#ddd;stroke-width:2;stroke-dasharray:3 3"></line>
<line x1="382" y1="1" x2="382" y2="108" style="stroke:#ddd;stroke-width:2;stroke-dasharray:3 3"></line>
<line x1="491" y1="1" x2="491" y2="108" style="stroke:#ddd;stroke-width:2;stroke-dasharray:3 3"></line>
<line x1="600" y1="1" x2="600" y2="108" style="stroke:#ddd;stroke-width:2;stroke-dasharray:3 3"></line>
<line x1="709" y1="1" x2="709" y2="108" style="stroke:#ddd;stroke-width:2;stroke-dasharray:3 3"></line>
<path d="M53.01,8.88c0.56,0.33,1.75,2.48,1.86,3.15c0.11,0.66-0.07,15.08-0.18,19.23" style="fill:none;stroke:#999;stroke-width:3"></path>

<path d="M162.01,8.88c0.56,0.33,1.75,2.48,1.86,3.15c0.11,0.66-0.07,15.08-0.18,19.23" style="fill:none;stroke:#999;stroke-width:3"></path>
<path d="M136.43,19.75c0.56,0.33,1.12,1.73,1.12,2.41c0,2.59-0.8,6.84-2.09,10.76c-0.48,1.45,0.83,2.59,2.11,2.28c4.93-1.2,47.83-5.92,52.85-6.05" style="fill:none;stroke:#999;stroke-width:3"></path>

<path d="M271.01,8.88c0.56,0.33,1.75,2.48,1.86,3.15c0.11,0.66-0.07,15.08-0.18,19.23" style="fill:none;stroke:#999;stroke-width:3"></path>
<path d="M245.43,19.75c0.56,0.33,1.12,1.73,1.12,2.41c0,2.59-0.8,6.84-2.09,10.76c-0.48,1.45,0.83,2.59,2.11,2.28c4.93-1.2,47.83-5.92,52.85-6.05" style="fill:none;stroke:#999;stroke-width:3"></path>
<path d="M300.52,15.12c0.56,0.39,1.21,2.87,1.12,3.64c-0.56,4.71-1.14,10.11-2.04,14.69" style="fill:none;stroke:#999;stroke-width:3"></path>

<path d="M380.01,8.88c0.56,0.33,1.75,2.48,1.86,3.15c0.11,0.66-0.07,15.08-0.18,19.23" style="fill:none;stroke:#999;stroke-width:3"></path>
<path d="M354.43,19.75c0.56,0.33,1.12,1.73,1.12,2.41c0,2.59-0.8,6.84-2.09,10.76c-0.48,1.45,0.83,2.59,2.11,2.28c4.93-1.2,47.83-5.92,52.85-6.05" style="fill:none;stroke:#999;stroke-width:3"></path>
<path d="M409.52,15.12c0.56,0.39,1.21,2.87,1.12,3.64c-0.56,4.71-1.14,10.11-2.04,14.69" style="fill:none;stroke:#999;stroke-width:3"></path>
<path d="M346.04,48.76c1.99,0.25,5.22,0.6,6.7,0.5C370.86,48,398.36,44.49,413.75,44.5c2.48,0,3.97,0.24,5.21,0.49" style="fill:none;stroke:#999;stroke-width:3"></path>

<path d="M489.01,8.88c0.56,0.33,1.75,2.48,1.86,3.15c0.11,0.66-0.07,15.08-0.18,19.23" style="fill:none;stroke:#999;stroke-width:3"></path>
<path d="M463.43,19.75c0.56,0.33,1.12,1.73,1.12,2.41c0,2.59-0.8,6.84-2.09,10.76c-0.48,1.45,0.83,2.59,2.11,2.28c4.93-1.2,47.83-5.92,52.85-6.05" style="fill:none;stroke:#999;stroke-width:3"></path>
<path d="M518.52,15.12c0.56,0.39,1.21,2.87,1.12,3.64c-0.56,4.71-1.14,10.11-2.04,14.69" style="fill:none;stroke:#999;stroke-width:3"></path>
<path d="M455.04,48.76c1.99,0.25,5.22,0.6,6.7,0.5C479.86,48,507.36,44.49,522.75,44.5c2.48,0,3.97,0.24,5.21,0.49" style="fill:none;stroke:#999;stroke-width:3"></path>
<path d="M485.55,50.37c0.49,1.19,0.15,2.7-0.24,4.18c-1.92,7.28-5.72,14.01-11.84,22.37c-1.33,1.82-0.27,2.18,0.73,2.19c14.2,0.2,36.96,10.16,44.31,19.52" style="fill:none;stroke:#999;stroke-width:3"></path>

<path d="M598.01,8.88c0.56,0.33,1.75,2.48,1.86,3.15c0.11,0.66-0.07,15.08-0.18,19.23" style="fill:none;stroke:#999;stroke-width:3"></path>
<path d="M572.4300000000001,19.75c0.56,0.33,1.12,1.73,1.12,2.41c0,2.59-0.8,6.84-2.09,10.76c-0.48,1.45,0.83,2.59,2.11,2.28c4.93-1.2,47.83-5.92,52.85-6.05" style="fill:none;stroke:#999;stroke-width:3"></path>
<path d="M627.52,15.12c0.56,0.39,1.21,2.87,1.12,3.64c-0.56,4.71-1.14,10.11-2.04,14.69" style="fill:none;stroke:#999;stroke-width:3"></path>
<path d="M564.04,48.76c1.99,0.25,5.22,0.6,6.7,0.5C588.86,48,616.36,44.49,631.75,44.5c2.48,0,3.97,0.24,5.21,0.49" style="fill:none;stroke:#999;stroke-width:3"></path>
<path d="M594.55,50.37c0.49,1.19,0.15,2.7-0.24,4.18c-1.92,7.28-5.72,14.01-11.84,22.37c-1.33,1.82-0.27,2.18,0.73,2.19c14.2,0.2,36.96,10.16,44.31,19.52" style="fill:none;stroke:#999;stroke-width:3"></path>
<path d="M613.75,56.38c0.12,1.03,0.21,3.55-0.25,5.05c-3.67,12.12-14.25,29.31-40.49,38.33" style="fill:none;stroke:#999;stroke-width:3"></path>

<path d="M707.01,8.88c0.56,0.33,1.75,2.48,1.86,3.15c0.11,0.66-0.07,15.08-0.18,19.23" style="fill:none;stroke:#999;stroke-width:3"></path>
<path d="M681.4300000000001,19.75c0.56,0.33,1.12,1.73,1.12,2.41c0,2.59-0.8,6.84-2.09,10.76c-0.48,1.45,0.83,2.59,2.11,2.28c4.93-1.2,47.83-5.92,52.85-6.05" style="fill:none;stroke:#999;stroke-width:3"></path>
<path d="M736.52,15.12c0.56,0.39,1.21,2.87,1.12,3.64c-0.56,4.71-1.14,10.11-2.04,14.69" style="fill:none;stroke:#999;stroke-width:3"></path>
<path d="M673.04,48.76c1.99,0.25,5.22,0.6,6.7,0.5C697.86,48,725.36,44.49,740.75,44.5c2.48,0,3.97,0.24,5.21,0.49" style="fill:none;stroke:#999;stroke-width:3"></path>
<path d="M703.55,50.37c0.49,1.19,0.15,2.7-0.24,4.18c-1.92,7.28-5.72,14.01-11.84,22.37c-1.33,1.82-0.27,2.18,0.73,2.19c14.2,0.2,36.96,10.16,44.31,19.52" style="fill:none;stroke:#999;stroke-width:3"></path>
<path d="M722.75,56.38c0.12,1.03,0.21,3.55-0.25,5.05c-3.67,12.12-14.25,29.31-40.49,38.33" style="fill:none;stroke:#999;stroke-width:3"></path>
<path d="M671.94,66.77c2.33,0.68,4.81,1.14,5.93,1.04C701.41,65.67,720.0,63.5,741.61,61.99c1.86-0.13,5.07,0.42,6.58,1.19" style="fill:none;stroke:#999;stroke-width:3"></path>

</svg>