<svg width="763px" height="109px" viewBox="0 0 763 109" xmlns="http://www.w3.org/2000/svg" xmlns:xlink="http://www.w3.org/1999/xlink" xml:space="preserve" version="1.1" baseProfile="full">
<line x1="1" y1="1" x2="762" y2="1" style="stroke:#ddd;stroke-width:2"></line>
<line x1="1" y1="1" x2="1" y2="108" style="stroke:#ddd;stroke-width:2"></line>
<line x1="1" y1="108" x2="762" y2="108" style="stroke:#ddd;stroke-width:2"></line>
<line x1="762" y1="1" x2="762" y2="108" style="stroke:#ddd;stroke-width:2"></line>
<line x1="109" y1="1" x2="109" y2="108" style="stroke:#ddd;stroke-width:2"></line>
<line x1="218" y1="1" x2="218" y2="108" style="stroke:#ddd;stroke-width:2"></line>
<line x1="327" y1="1" x2="327" y2="108" style="stroke:#ddd;stroke-width:2"></line>
<line x1="436" y1="1" x2="436" y2="108" style="stroke:#ddd;stroke-width:2"></line>
<line x1="545" y1="1" x2="545" y2="108" style="stroke:#ddd;stroke-width:2"></line>
<line x1="654" y1="1" x2="654" y2="108" style="stroke:#ddd;stroke-width:2"></line>
<line x1="1" y1="54" x2="762" y2="54" style="stroke:#ddd;stroke-width:2;stroke-dasharray:3 3"></line>
<line x1="55" y1="1" x2="55" y2="108" style="stroke:#ddd;stroke-width:2;stroke-dasharray:3 3"></line>
<line x1="164" y1="1" x2="164" y2="108" style="stroke:#ddd;stroke-width:2;stroke-dasharray:3 3"></line>
<line x1="273" y1="1" x2="273" y2="108" style="stroke:#ddd;stroke-width:2;stroke-dasharray:3 3"></line>
<line x1="382" y1="1" x2="382" y2="108" style="stroke:#ddd;stroke-width:2;stroke-dasharray:3 3"></line>
<line x1="491" y1="1" x2="491" y2="108" style="stroke:#ddd;stroke-width:2;stroke-dasharray:3 3"></line>
<line x1="600" y1="1" x2="600" y2="108" style="stroke:#ddd;stroke-width:2;stroke-dasharray:3 3"></line>
<line x1="709" y1="1" x2="709" y2="108" style="stroke:#ddd;stroke-width:2;stroke-dasharray:3 3"></line>
<path d="M37.6,13.72c1.21,1.37,1.98,3.71,1.98,5.33c0,15.46-0.04,69.81-0.04,75.08" style="fill:none;stroke:#999;stroke-width:3"></path>

<path d="M146.6,13.72c1.21,1.37,1.98,3.71,1.98,5.33c0,15.46-0.04,69.81-0.04,75.08" style="fill:none;stroke:#999;stroke-width:3"></path>
<path d="M126.25,18.42c1.37,0.64,1.89,1.38,2.01,3.48c0.18,3.15-0.74,15.51-1.16,18.81c-0.14,1.05,0.24,2.62,2.28,2.46C136.56,42.6,144.0,41.25,148.56,40.6" style="fill:none;stroke:#999;stroke-width:3"></path>

<path d="M255.6,13.72c1.21,1.37,1.98,3.71,1.98,5.33c0,15.46-0.04,69.81-0.04,75.08" style="fill:none;stroke:#999;stroke-width:3"></path>
<path d="M235.25,18.42c1.37,0.64,1.89,1.38,2.01,3.48c0.18,3.15-0.74,15.51-1.16,18.81c-0.14,1.05,0.24,2.62,2.28,2.46C245.56,42.6,253.0,41.25,257.56,40.6" style="fill:none;stroke:#999;stroke-width:3"></path>
<path d="M230.8,58.68c1.33,0.14,1.61,0.57,3.17,0.47c6.66-0.42,18.69-1.92,23.34-2.15" style="fill:none;stroke:#999;stroke-width:3"></path>

<path d="M364.6,13.72c1.21,1.37,1.98,3.71,1.98,5.33c0,15.46-0.04,69.81-0.04,75.08" style="fill:none;stroke:#999;stroke-width:3"></path>
<path d="M344.25,18.42c1.37,0.64,1.89,1.38,2.01,3.48c0.18,3.15-0.74,15.51-1.16,18.81c-0.14,1.05,0.24,2.62,2.28,2.46C354.56,42.6,362.0,41.25,366.56,40.6" style="fill:none;stroke:#999;stroke-width:3"></path>
<path d="M339.8,58.68c1.33,0.14,1.61,0.57,3.17,0.47c6.66-0.42,18.69-1.92,23.34-2.15" style="fill:none;stroke:#999;stroke-width:3"></path>
<path d="M349.74,60.89c0.26,0.86,0.51,1.72,0.45,2.97C349.5,77.25,345.5,87.5,337.0,93.75" style="fill:none;stroke:#999;stroke-width:3"></path>

<path d="M473.6,13.72c1.21,1.37,1.98,3.71,1.98,5.33c0,15.46-0.04,69.81-0.04,75.08" style="fill:none;stroke:#999;stroke-width:3"></path>
<path d="M453.25,18.42c1.37,0.64,1.89,1.38,2.01,3.48c0.18,3.15-0.74,15.51-1.16,18.81c-0.14,1.05,0.24,2.62,2.28,2.46C463.56,42.6,471.0,41.25,475.56,40.6" style="fill:none;stroke:#999;stroke-width:3"></path>
<path d="M448.8,58.68c1.33,0.14,1.61,0.57,3.17,0.47c6.66-0.42,18.69-1.92,23.34-2.15" style="fill:none;stroke:#999;stroke-width:3"></path>
<path d="M458.74,60.89c0.26,0.86,0.51,1.72,0.45,2.97C458.5,77.25,454.5,87.5,446.0,93.75" style="fill:none;stroke:#999;stroke-width:3"></path>
<path d="M504.1,15.87c0.34,1.54,0.1,3.48-0.17,5.39C502.6,30.64,495.0,55.5,488.9,66.51c-1.22,2.21,0.31,2.83,1.01,2.83C502.75,69.25,518.75,78.5,527.0,92.22" style="fill:none;stroke:#999;stroke-width:3"></path>

<path d="M582.6,13.72c1.21,1.37,1.98,3.71,1.98,5.33c0,15.46-0.04,69.81-0.04,75.08" style="fill:none;stroke:#999;stroke-width:3"></path>
<path d="M562.25,18.42c1.37,0.64,1.89,1.38,2.01,3.48c0.18,3.15-0.74,15.51-1.16,18.81c-0.14,1.05,0.24,2.62,2.28,2.46C572.56,42.6,580.0,41.25,584.56,40.6" style="fill:none;stroke:#999;stroke-width:3"></path>
<path d="M557.8,58.68c1.33,0.14,1.61,0.57,3.17,0.47c6.66-0.42,18.69-1.92,23.34-2.15" style="fill:none;stroke:#999;stroke-width:3"></path>
<path d="M567.74,60.89c0.26,0.86,0.51,1.72,0.45,2.97C567.5,77.25,563.5,87.5,555.0,93.75" style="fill:none;stroke:#999;stroke-width:3"></path>
<path d="M613.1,15.87c0.34,1.54,0.1,3.48-0.17,5.39C611.6,30.64,604.0,55.5,597.9,66.51c-1.22,2.21,0.31,2.83,1.01,2.83C611.75,69.25,627.75,78.5,636.0,92.22" style="fill:none;stroke:#999;stroke-width:3"></path>
<path d="M627.79,32.09c1.01,1.42,1.1,2.53,0.9,4.67C627.0,54,616.25,83,593.29,93.75" style="fill:none;stroke:#999;stroke-width:3"></path>

<path d="M691.6,13.72c1.21,1.37,1.98,3.71,1.98,5.33c0,15.46-0.04,69.81-0.04,75.08" style="fill:none;stroke:#999;stroke-width:3"></path>
<path d="M671.25,18.42c1.37,0.64,1.89,1.38,2.01,3.48c0.18,3.15-0.74,15.51-1.16,18.81c-0.14,1.05,0.24,2.62,2.28,2.46C681.56,42.6,689.0,41.25,693.56,40.6" style="fill:none;stroke:#999;stroke-width:3"></path>
<path d="M666.8,58.68c1.33,0.14,1.61,0.57,3.17,0.47c6.66-0.42,18.69-1.92,23.34-2.15" style="fill:none;stroke:#999;stroke-width:3"></path>
<path d="M676.74,60.89c0.26,0.86,0.51,1.72,0.45,2.97C676.5,77.25,672.5,87.5,664.0,93.75" style="fill:none;stroke:#999;stroke-width:3"></path>
<path d="M722.1,15.87c0.34,1.54,0.1,3.48-0.17,5.39C720.6,30.64,713.0,55.5,706.9,66.51c-1.22,2.21,0.31,2.83,1.01,2.83C720.75,69.25,736.75,78.5,745.0,92.22" style="fill:none;stroke:#999;stroke-width:3"></path>
<path d="M736.79,32.09c1.01,1.42,1.1,2.53,0.9,4.67C736.0,54,725.25,83,702.29,93.75" style="fill:none;stroke:#999;stroke-width:3"></path>
<path d="M699.88,42.93c1.39,0.35,2.87,0.58,3.54,0.53c14.06-1.09,32.23-3.06,45.65-3.21c1.11-0.01,3.03,0.21,3.93,0.61" style="fill:none;stroke:#999;stroke-width:3"></path>

</svg>