<svg width="981px" height="109px" viewBox="0 0 981 109" xmlns="http://www.w3.org/2000/svg" xmlns:xlink="http://www.w3.org/1999/xlink" xml:space="preserve" version="1.1" baseProfile="full">
<line x1="1" y1="1" x2="980" y2="1" style="stroke:#ddd;stroke-width:2"></line>
<line x1="1" y1="1" x2="1" y2="108" style="stroke:#ddd;stroke-width:2"></line>
<line x1="1" y1="108" x2="980" y2="108" style="stroke:#ddd;stroke-width:2"></line>
<line x1="980" y1="1" x2="980" y2="108" style="stroke:#ddd;stroke-width:2"></line>
<line x1="109" y1="1" x2="109" y2="108" style="stroke:#ddd;stroke-width:2"></line>
<line x1="218" y1="1" x2="218" y2="108" style="stroke:#ddd;stroke-width:2"></line>
<line x1="327" y1="1" x2="327" y2="108" style="stroke:#ddd;stroke-width:2"></line>
<line x1="436" y1="1" x2="436" y2="108" style="stroke:#ddd;stroke-width:2"></line>
<line x1="545" y1="1" x2="545" y2="108" style="stroke:#ddd;stroke-width:2"></line>
<line x1="654" y1="1" x2="654" y2="108" style="stroke:#ddd;stroke-width:2"></line>
<line x1="763" y1="1" x2="763" y2="108" style="stroke:#ddd;stroke-width:2"></line>
<line x1="872" y1="1" x2="872" y2="108" style="stroke:#ddd;stroke-width:2"></line>
<line x1="1" y1="54" x2="980" y2="54" style="stroke:#ddd;stroke-width:2;stroke-dasharray:3 3"></line>
<line x1="55" y1="1" x2="55" y2="108" style="stroke:#ddd;stroke-width:2;stroke-dasharray:3 3"></line>
<line x1="164" y1="1" x2="164" y2="108" style="stroke:#ddd;stroke-width:2;stroke-dasharray:3 3"></line>
<line x1="273" y1="1" x2="273" y2="108" style="stroke:#ddd;stroke-width:2;stroke-dasharray:3 3"></line>
<line x1="382" y1="1" x2="382" y2="108" style="stroke:#ddd;stroke-width:2;stroke-dasharray:3 3"></line>
<line x1="491" y1="1" x2="491" y2="108" style="stroke:#ddd;stroke-width:2;stroke-dasharray:3 3"></line>
<line x1="600" y1="1" x2="600" y2="108" style="stroke:#ddd;stroke-width:2;stroke-dasharray:3 3"></line>
<line x1="709" y1="1" x2="709" y2="108" style="stroke:#ddd;stroke-width:2;stroke-dasharray:3 3"></line>
<line x1="818" y1="1" x2="818" y2="108" style="stroke:#ddd;stroke-width:2;stroke-dasharray:3 3"></line>
<line x1="927" y1="1" x2="927" y2="108" style="stroke:#ddd;stroke-width:2;stroke-dasharray:3 3"></line>
<path d="M28.62,18.87c0.6,1.77,0.59,3.83,0.2,5.64c-2.46,11.58-7.09,29.55-11.05,38.93c-1.07,2.53-1.06,3.54,1.49,4.55c5.3,2.09,11.44,5.33,16.73,10.72c1.89,1.93,3.67,4.1,5.27,6.54" style="fill:none;stroke:#999;stroke-width:3"></path>

<path d="M137.62,18.87c0.6,1.77,0.59,3.83,0.2,5.64c-2.46,11.58-7.09,29.55-11.05,38.93c-1.07,2.53-1.06,3.54,1.49,4.55c5.3,2.09,11.44,5.33,16.73,10.72c1.89,1.93,3.67,4.1,5.27,6.54" style="fill:none;stroke:#999;stroke-width:3"></path>
<path d="M148.76,37.75c0.62,1.88,0.74,3.75,0.35,6.37c-2.33,15.29-6.6,36.13-25.35,48.38" style="fill:none;stroke:#999;stroke-width:3"></path>

<path d="M246.62,18.87c0.6,1.77,0.59,3.83,0.2,5.64c-2.46,11.58-7.09,29.55-11.05,38.93c-1.07,2.53-1.06,3.54,1.49,4.55c5.3,2.09,11.44,5.33,16.73,10.72c1.89,1.93,3.67,4.1,5.27,6.54" style="fill:none;stroke:#999;stroke-width:3"></path>
<path d="M257.76,37.75c0.62,1.88,0.74,3.75,0.35,6.37c-2.33,15.29-6.6,36.13-25.35,48.38" style="fill:none;stroke:#999;stroke-width:3"></path>
<path d="M228.0,50.21c0.75,1.04,1.75,1.79,3.75,1.54c2.15-0.27,22.84-5.63,31.75-8.28" style="fill:none;stroke:#999;stroke-width:3"></path>

<path d="M355.62,18.87c0.6,1.77,0.59,3.83,0.2,5.64c-2.46,11.58-7.09,29.55-11.05,38.93c-1.07,2.53-1.06,3.54,1.49,4.55c5.3,2.09,11.44,5.33,16.73,10.72c1.89,1.93,3.67,4.1,5.27,6.54" style="fill:none;stroke:#999;stroke-width:3"></path>
<path d="M366.76,37.75c0.62,1.88,0.74,3.75,0.35,6.37c-2.33,15.29-6.6,36.13-25.35,48.38" style="fill:none;stroke:#999;stroke-width:3"></path>
<path d="M337.0,50.21c0.75,1.04,1.75,1.79,3.75,1.54c2.15-0.27,22.84-5.63,31.75-8.28" style="fill:none;stroke:#999;stroke-width:3"></path>
<path d="M392.42,12.5c0.06,1.05-0.19,3.3-0.62,4.7c-3.55,11.42-8.92,26.55-20.98,40.23" style="fill:none;stroke:#999;stroke-width:3"></path>

<path d="M464.62,18.87c0.6,1.77,0.59,3.83,0.2,5.64c-2.46,11.58-7.09,29.55-11.05,38.93c-1.07,2.53-1.06,3.54,1.49,4.55c5.3,2.09,11.44,5.33,16.73,10.72c1.89,1.93,3.67,4.1,5.27,6.54" style="fill:none;stroke:#999;stroke-width:3"></path>
<path d="M475.76,37.75c0.62,1.88,0.74,3.75,0.35,6.37c-2.33,15.29-6.6,36.13-25.35,48.38" style="fill:none;stroke:#999;stroke-width:3"></path>
<path d="M446.0,50.21c0.75,1.04,1.75,1.79,3.75,1.54c2.15-0.27,22.84-5.63,31.75-8.28" style="fill:none;stroke:#999;stroke-width:3"></path>
<path d="M501.42,12.5c0.06,1.05-0.19,3.3-0.62,4.7c-3.55,11.42-8.92,26.55-20.98,40.23" style="fill:none;stroke:#999;stroke-width:3"></path>
<path d="M502.08,16.58c5.42,8.17,15.79,22.3,22.82,31.14c1.85,2.33,3.97,4.4,7.03,6.34" style="fill:none;stroke:#999;stroke-width:3"></path>

<path d="M573.62,18.87c0.6,1.77,0.59,3.83,0.2,5.64c-2.46,11.58-7.09,29.55-11.05,38.93c-1.07,2.53-1.06,3.54,1.49,4.55c5.3,2.09,11.44,5.33,16.73,10.72c1.89,1.93,3.67,4.1,5.27,6.54" style="fill:none;stroke:#999;stroke-width:3"></path>
<path d="M584.76,37.75c0.62,1.88,0.74,3.75,0.35,6.37c-2.33,15.29-6.6,36.13-25.35,48.38" style="fill:none;stroke:#999;stroke-width:3"></path>
<path d="M555.0,50.21c0.75,1.04,1.75,1.79,3.75,1.54c2.15-0.27,22.84-5.63,31.75-8.28" style="fill:none;stroke:#999;stroke-width:3"></path>
<path d="M610.4200000000001,12.5c0.06,1.05-0.19,3.3-0.62,4.7c-3.55,11.42-8.92,26.55-20.98,40.23" style="fill:none;stroke:#999;stroke-width:3"></path>
<path d="M611.0799999999999,16.58c5.42,8.17,15.79,22.3,22.82,31.14c1.85,2.33,3.97,4.4,7.03,6.34" style="fill:none;stroke:#999;stroke-width:3"></path>
<path d="M600.55,51.39c1.83,0.48,3.94,0.29,5.21,0.05c4.37-0.82,9.49-1.57,13.24-1.94c1.46-0.15,3.17-0.27,4.6,0.16" style="fill:none;stroke:#999;stroke-width:3"></path>

<path d="M682.62,18.87c0.6,1.77,0.59,3.83,0.2,5.64c-2.46,11.58-7.09,29.55-11.05,38.93c-1.07,2.53-1.06,3.54,1.49,4.55c5.3,2.09,11.44,5.33,16.73,10.72c1.89,1.93,3.67,4.1,5.27,6.54" style="fill:none;stroke:#999;stroke-width:3"></path>
<path d="M693.76,37.75c0.62,1.88,0.74,3.75,0.35,6.37c-2.33,15.29-6.6,36.13-25.35,48.38" style="fill:none;stroke:#999;stroke-width:3"></path>
<path d="M664.0,50.21c0.75,1.04,1.75,1.79,3.75,1.54c2.15-0.27,22.84-5.63,31.75-8.28" style="fill:none;stroke:#999;stroke-width:3"></path>
<path d="M719.4200000000001,12.5c0.06,1.05-0.19,3.3-0.62,4.7c-3.55,11.42-8.92,26.55-20.98,40.23" style="fill:none;stroke:#999;stroke-width:3"></path>
<path d="M720.0799999999999,16.58c5.42,8.17,15.79,22.3,22.82,31.14c1.85,2.33,3.97,4.4,7.03,6.34" style="fill:none;stroke:#999;stroke-width:3"></path>
<path d="M709.55,51.39c1.83,0.48,3.94,0.29,5.21,0.05c4.37-0.82,9.49-1.57,13.24-1.94c1.46-0.15,3.17-0.27,4.6,0.16" style="fill:none;stroke:#999;stroke-width:3"></path>
<path d="M704.84,66.58c0.91,1.15,1.55,2.88,1.76,4.3c1.18,7.65,2.15,12.95,3,18.88c0.23,1.61,0.46,3.27,0.68,5.03" style="fill:none;stroke:#999;stroke-width:3"></path>

<path d="M791.62,18.87c0.6,1.77,0.59,3.83,0.2,5.64c-2.46,11.58-7.09,29.55-11.05,38.93c-1.07,2.53-1.06,3.54,1.49,4.55c5.3,2.09,11.44,5.33,16.73,10.72c1.89,1.93,3.67,4.1,5.27,6.54" style="fill:none;stroke:#999;stroke-width:3"></path>
<path d="M802.76,37.75c0.62,1.88,0.74,3.75,0.35,6.37c-2.33,15.29-6.6,36.13-25.35,48.38" style="fill:none;stroke:#999;stroke-width:3"></path>
<path d="M773.0,50.21c0.75,1.04,1.75,1.79,3.75,1.54c2.15-0.27,22.84-5.63,31.75-8.28" style="fill:none;stroke:#999;stroke-width:3"></path>
<path d="M828.4200000000001,12.5c0.06,1.05-0.19,3.3-0.62,4.7c-3.55,11.42-8.92,26.55-20.98,40.23" style="fill:none;stroke:#999;stroke-width:3"></path>
<path d="M829.0799999999999,16.58c5.42,8.17,15.79,22.3,22.82,31.14c1.85,2.33,3.97,4.4,7.03,6.34" style="fill:none;stroke:#999;stroke-width:3"></path>
<path d="M818.55,51.39c1.83,0.48,3.94,0.29,5.21,0.05c4.37-0.82,9.49-1.57,13.24-1.94c1.46-0.15,3.17-0.27,4.6,0.16" style="fill:none;stroke:#999;stroke-width:3"></path>
<path d="M813.84,66.58c0.91,1.15,1.55,2.88,1.76,4.3c1.18,7.65,2.15,12.95,3,18.88c0.23,1.61,0.46,3.27,0.68,5.03" style="fill:none;stroke:#999;stroke-width:3"></path>
<path d="M816.06,68.09c10.03-1.46,21.11-2.57,27.08-3.34c3.64-0.46,4.74,1.17,4.14,4.65c-1.07,6.23-2.41,13.22-4.05,21.05" style="fill:none;stroke:#999;stroke-width:3"></path>

<path d="M900.62,18.87c0.6,1.77,0.59,3.83,0.2,5.64c-2.46,11.58-7.09,29.55-11.05,38.93c-1.07,2.53-1.06,3.54,1.49,4.55c5.3,2.09,11.44,5.33,16.73,10.72c1.89,1.93,3.67,4.1,5.27,6.54" style="fill:none;stroke:#999;stroke-width:3"></path>
<path d="M911.76,37.75c0.62,1.88,0.74,3.75,0.35,6.37c-2.33,15.29-6.6,36.13-25.35,48.38" style="fill:none;stroke:#999;stroke-width:3"></path>
<path d="M882.0,50.21c0.75,1.04,1.75,1.79,3.75,1.54c2.15-0.27,22.84-5.63,31.75-8.28" style="fill:none;stroke:#999;stroke-width:3"></path>
<path d="M937.4200000000001,12.5c0.06,1.05-0.19,3.3-0.62,4.7c-3.55,11.42-8.92,26.55-20.98,40.23" style="fill:none;stroke:#999;stroke-width:3"></path>
<path d="M938.0799999999999,16.58c5.42,8.17,15.79,22.3,22.82,31.14c1.85,2.33,3.97,4.4,7.03,6.34" style="fill:none;stroke:#999;stroke-width:3"></path>
<path d="M927.55,51.39c1.83,0.48,3.94,0.29,5.21,0.05c4.37-0.82,9.49-1.57,13.24-1.94c1.46-0.15,3.17-0.27,4.6,0.16" style="fill:none;stroke:#999;stroke-width:3"></path>
<path d="M922.84,66.58c0.91,1.15,1.55,2.88,1.76,4.3c1.18,7.65,2.15,12.95,3,18.88c0.23,1.61,0.46,3.27,0.68,5.03" style="fill:none;stroke:#999;stroke-width:3"></path>
<path d="M925.06,68.09c10.03-1.46,21.11-2.57,27.08-3.34c3.64-0.46,4.74,1.17,4.14,4.65c-1.07,6.23-2.41,13.22-4.05,21.05" style="fill:none;stroke:#999;stroke-width:3"></path>
<path d="M929.0,93.31c6.64-0.58,13.69-1.15,21.37-1.7c1.43-0.1,2.88-0.2,4.35-0.3" style="fill:none;stroke:#999;stroke-width:3"></path>

</svg>