<svg width="872px" height="109px" viewBox="0 0 872 109" xmlns="http://www.w3.org/2000/svg" xmlns:xlink="http://www.w3.org/1999/xlink" xml:space="preserve" version="1.1" baseProfile="full">
<line x1="1" y1="1" x2="871" y2="1" style="stroke:#ddd;stroke-width:2"></line>
<line x1="1" y1="1" x2="1" y2="108" style="stroke:#ddd;stroke-width:2"></line>
<line x1="1" y1="108" x2="871" y2="108" style="stroke:#ddd;stroke-width:2"></line>
<line x1="871" y1="1" x2="871" y2="108" style="stroke:#ddd;stroke-width:2"></line>
<line x1="109" y1="1" x2="109" y2="108" style="stroke:#ddd;stroke-width:2"></line>
<line x1="218" y1="1" x2="218" y2="108" style="stroke:#ddd;stroke-width:2"></line>
<line x1="327" y1="1" x2="327" y2="108" style="stroke:#ddd;stroke-width:2"></line>
<line x1="436" y1="1" x2="436" y2="108" style="stroke:#ddd;stroke-width:2"></line>
<line x1="545" y1="1" x2="545" y2="108" style="stroke:#ddd;stroke-width:2"></line>
<line x1="654" y1="1" x2="654" y2="108" style="stroke:#ddd;stroke-width:2"></line>
<line x1="763" y1="1" x2="763" y2="108" style="stroke:#ddd;stroke-width:2"></line>
<line x1="1" y1="54" x2="871" y2="54" style="stroke:#ddd;stroke-width:2;stroke-dasharray:3 3"></line>
<line x1="55" y1="1" x2="55" y2="108" style="stroke:#ddd;stroke-width:2;stroke-dasharray:3 3"></line>
<line x1="164" y1="1" x2="164" y2="108" style="stroke:#ddd;stroke-width:2;stroke-dasharray:3 3"></line>
<line x1="273" y1="1" x2="273" y2="108" style="stroke:#ddd;stroke-width:2;stroke-dasharray:3 3"></line>
<line x1="382" y1="1" x2="382" y2="108" style="stroke:#ddd;stroke-width:2;stroke-dasharray:3 3"></line>
<line x1="491" y1="1" x2="491" y2="108" style="stroke:#ddd;stroke-width:2;stroke-dasharray:3 3"></line>
<line x1="600" y1="1" x2="600" y2="108" style="stroke:#ddd;stroke-width:2;stroke-dasharray:3 3"></line>
<line x1="709" y1="1" x2="709" y2="108" style="stroke:#ddd;stroke-width:2;stroke-dasharray:3 3"></line>
<line x1="818" y1="1" x2="818" y2="108" style="stroke:#ddd;stroke-width:2;stroke-dasharray:3 3"></line>
<path d="M29.5,17.25c3.5,3,6.5,7.25,7.75,9.75" style="fill:none;stroke:#999;stroke-width:3"></path>

<path d="M138.5,17.25c3.5,3,6.5,7.25,7.75,9.75" style="fill:none;stroke:#999;stroke-width:3"></path>
<path d="M158.0,12c1.25,2,4.75,8.25,5.25,11.5" style="fill:none;stroke:#999;stroke-width:3"></path>

<path d="M247.5,17.25c3.5,3,6.5,7.25,7.75,9.75" style="fill:none;stroke:#999;stroke-width:3"></path>
<path d="M267.0,12c1.25,2,4.75,8.25,5.25,11.5" style="fill:none;stroke:#999;stroke-width:3"></path>
<path d="M293.0,11c0.25,1.75-0.12,2.75-0.75,4.25c-1.29,3.1-4.25,7.38-6.5,9.75" style="fill:none;stroke:#999;stroke-width:3"></path>

<path d="M356.5,17.25c3.5,3,6.5,7.25,7.75,9.75" style="fill:none;stroke:#999;stroke-width:3"></path>
<path d="M376.0,12c1.25,2,4.75,8.25,5.25,11.5" style="fill:none;stroke:#999;stroke-width:3"></path>
<path d="M402.0,11c0.25,1.75-0.12,2.75-0.75,4.25c-1.29,3.1-4.25,7.38-6.5,9.75" style="fill:none;stroke:#999;stroke-width:3"></path>
<path d="M348.25,33.75c-0.12,4.75-2,12.5-3.75,16.25" style="fill:none;stroke:#999;stroke-width:3"></path>

<path d="M465.5,17.25c3.5,3,6.5,7.25,7.75,9.75" style="fill:none;stroke:#999;stroke-width:3"></path>
<path d="M485.0,12c1.25,2,4.75,8.25,5.25,11.5" style="fill:none;stroke:#999;stroke-width:3"></path>
<path d="M511.0,11c0.25,1.75-0.12,2.75-0.75,4.25c-1.29,3.1-4.25,7.38-6.5,9.75" style="fill:none;stroke:#999;stroke-width:3"></path>
<path d="M457.25,33.75c-0.12,4.75-2,12.5-3.75,16.25" style="fill:none;stroke:#999;stroke-width:3"></path>
<path d="M459.5,36.5c17-1.62,42.38-5.5,60-5.75c9.5-0.13,4.12,5.12,0,9" style="fill:none;stroke:#999;stroke-width:3"></path>

<path d="M574.5,17.25c3.5,3,6.5,7.25,7.75,9.75" style="fill:none;stroke:#999;stroke-width:3"></path>
<path d="M594.0,12c1.25,2,4.75,8.25,5.25,11.5" style="fill:none;stroke:#999;stroke-width:3"></path>
<path d="M620.0,11c0.25,1.75-0.12,2.75-0.75,4.25c-1.29,3.1-4.25,7.38-6.5,9.75" style="fill:none;stroke:#999;stroke-width:3"></path>
<path d="M566.25,33.75c-0.12,4.75-2,12.5-3.75,16.25" style="fill:none;stroke:#999;stroke-width:3"></path>
<path d="M568.5,36.5c17-1.62,42.38-5.5,60-5.75c9.5-0.13,4.12,5.12,0,9" style="fill:none;stroke:#999;stroke-width:3"></path>
<path d="M582.25,46.5c1,0.25,3.75,0.25,5.5-0.25s18.25-4,20-4s2.75,0.75,1,2.25S599.5,53.5,598.0,54.75" style="fill:none;stroke:#999;stroke-width:3"></path>

<path d="M683.5,17.25c3.5,3,6.5,7.25,7.75,9.75" style="fill:none;stroke:#999;stroke-width:3"></path>
<path d="M703.0,12c1.25,2,4.75,8.25,5.25,11.5" style="fill:none;stroke:#999;stroke-width:3"></path>
<path d="M729.0,11c0.25,1.75-0.12,2.75-0.75,4.25c-1.29,3.1-4.25,7.38-6.5,9.75" style="fill:none;stroke:#999;stroke-width:3"></path>
<path d="M675.25,33.75c-0.12,4.75-2,12.5-3.75,16.25" style="fill:none;stroke:#999;stroke-width:3"></path>
<path d="M677.5,36.5c17-1.62,42.38-5.5,60-5.75c9.5-0.13,4.12,5.12,0,9" style="fill:none;stroke:#999;stroke-width:3"></path>
<path d="M691.25,46.5c1,0.25,3.75,0.25,5.5-0.25s18.25-4,20-4s2.75,0.75,1,2.25S708.5,53.5,707.0,54.75" style="fill:none;stroke:#999;stroke-width:3"></path>
<path d="M704.75,55.75c4,8.75,7.18,24.67,1.75,38c-2.75,6.75-7.75,1.25-9.75-2" style="fill:none;stroke:#999;stroke-width:3"></path>

<path d="M792.5,17.25c3.5,3,6.5,7.25,7.75,9.75" style="fill:none;stroke:#999;stroke-width:3"></path>
<path d="M812.0,12c1.25,2,4.75,8.25,5.25,11.5" style="fill:none;stroke:#999;stroke-width:3"></path>
<path d="M838.0,11c0.25,1.75-0.12,2.75-0.75,4.25c-1.29,3.1-4.25,7.38-6.5,9.75" style="fill:none;stroke:#999;stroke-width:3"></path>
<path d="M784.25,33.75c-0.12,4.75-2,12.5-3.75,16.25" style="fill:none;stroke:#999;stroke-width:3"></path>
<path d="M786.5,36.5c17-1.62,42.38-5.5,60-5.75c9.5-0.13,4.12,5.12,0,9" style="fill:none;stroke:#999;stroke-width:3"></path>
<path d="M800.25,46.5c1,0.25,3.75,0.25,5.5-0.25s18.25-4,20-4s2.75,0.75,1,2.25S817.5,53.5,816.0,54.75" style="fill:none;stroke:#999;stroke-width:3"></path>
<path d="M813.75,55.75c4,8.75,7.18,24.67,1.75,38c-2.75,6.75-7.75,1.25-9.75-2" style="fill:none;stroke:#999;stroke-width:3"></path>
<path d="M778.75,67.75c1.75,1,4.64,1.36,7.5,1c15.88-2,44.43-6.25,61.37-5.5c2.5,0.11,4.72,0.25,6.39,1" style="fill:none;stroke:#999;stroke-width:3"></path>

</svg>