<svg width="654px" height="109px" viewBox="0 0 654 109" xmlns="http://www.w3.org/2000/svg" xmlns:xlink="http://www.w3.org/1999/xlink" xml:space="preserve" version="1.1" baseProfile="full">
<line x1="1" y1="1" x2="653" y2="1" style="stroke:#ddd;stroke-width:2"></line>
<line x1="1" y1="1" x2="1" y2="108" style="stroke:#ddd;stroke-width:2"></line>
<line x1="1" y1="108" x2="653" y2="108" style="stroke:#ddd;stroke-width:2"></line>
<line x1="653" y1="1" x2="653" y2="108" style="stroke:#ddd;stroke-width:2"></line>
<line x1="109" y1="1" x2="109" y2="108" style="stroke:#ddd;stroke-width:2"></line>
<line x1="218" y1="1" x2="218" y2="108" style="stroke:#ddd;stroke-width:2"></line>
<line x1="327" y1="1" x2="327" y2="108" style="stroke:#ddd;stroke-width:2"></line>
<line x1="436" y1="1" x2="436" y2="108" style="stroke:#ddd;stroke-width:2"></line>
<line x1="545" y1="1" x2="545" y2="108" style="stroke:#ddd;stroke-width:2"></line>
<line x1="1" y1="54" x2="653" y2="54" style="stroke:#ddd;stroke-width:2;stroke-dasharray:3 3"></line>
<line x1="55" y1="1" x2="55" y2="108" style="stroke:#ddd;stroke-width:2;stroke-dasharray:3 3"></line>
<line x1="164" y1="1" x2="164" y2="108" style="stroke:#ddd;stroke-width:2;stroke-dasharray:3 3"></line>
<line x1="273" y1="1" x2="273" y2="108" style="stroke:#ddd;stroke-width:2;stroke-dasharray:3 3"></line>
<line x1="382" y1="1" x2="382" y2="108" style="stroke:#ddd;stroke-width:2;stroke-dasharray:3 3"></line>
<line x1="491" y1="1" x2="491" y2="108" style="stroke:#ddd;stroke-width:2;stroke-dasharray:3 3"></line>
<line x1="600" y1="1" x2="600" y2="108" style="stroke:#ddd;stroke-width:2;stroke-dasharray:3 3"></line>
<path d="M52.04,9.25c1.11,1.11,1.64,2.5,1.64,4.27c0,3.9-0.07,5.54-0.08,9.08" style="fill:none;stroke:#999;stroke-width:3"></path>

<path d="M161.04,9.25c1.11,1.11,1.64,2.5,1.64,4.27c0,3.9-0.07,5.54-0.08,9.08" style="fill:none;stroke:#999;stroke-width:3"></path>
<path d="M129.86,24.13c0,4.38-4.03,16.44-5.86,19.37" style="fill:none;stroke:#999;stroke-width:3"></path>

<path d="M270.03999999999996,9.25c1.11,1.11,1.64,2.5,1.64,4.27c0,3.9-0.07,5.54-0.08,9.08" style="fill:none;stroke:#999;stroke-width:3"></path>
<path d="M238.86,24.13c0,4.38-4.03,16.44-5.86,19.37" style="fill:none;stroke:#999;stroke-width:3"></path>
<path d="M239.51,27.78c20.24-2.53,48.61-6.03,63.59-6.2c12.9-0.14,0.88,8.16-0.92,9.03" style="fill:none;stroke:#999;stroke-width:3"></path>

<path d="M379.03999999999996,9.25c1.11,1.11,1.64,2.5,1.64,4.27c0,3.9-0.07,5.54-0.08,9.08" style="fill:none;stroke:#999;stroke-width:3"></path>
<path d="M347.86,24.13c0,4.38-4.03,16.44-5.86,19.37" style="fill:none;stroke:#999;stroke-width:3"></path>
<path d="M348.51,27.78c20.24-2.53,48.61-6.03,63.59-6.2c12.9-0.14,0.88,8.16-0.92,9.03" style="fill:none;stroke:#999;stroke-width:3"></path>
<path d="M342.63,56.92c2.94,0.58,6.22,0.82,8.42,0.55c20.65-2.6,49.39-6.35,59.89-6.68c3.66-0.12,5.86,0.13,7.69,0.53" style="fill:none;stroke:#999;stroke-width:3"></path>

<path d="M488.03999999999996,9.25c1.11,1.11,1.64,2.5,1.64,4.27c0,3.9-0.07,5.54-0.08,9.08" style="fill:none;stroke:#999;stroke-width:3"></path>
<path d="M456.86,24.13c0,4.38-4.03,16.44-5.86,19.37" style="fill:none;stroke:#999;stroke-width:3"></path>
<path d="M457.51,27.78c20.24-2.53,48.61-6.03,63.59-6.2c12.9-0.14,0.88,8.16-0.92,9.03" style="fill:none;stroke:#999;stroke-width:3"></path>
<path d="M451.63,56.92c2.94,0.58,6.22,0.82,8.42,0.55c20.65-2.6,49.39-6.35,59.89-6.68c3.66-0.12,5.86,0.13,7.69,0.53" style="fill:none;stroke:#999;stroke-width:3"></path>
<path d="M502.27,34.33c1.14,1.14,1.76,2.92,1.76,5.27c0,14.56,0.24,47.41,0.24,52.37c0,11.78-6.52,1.78-8.71,0.25" style="fill:none;stroke:#999;stroke-width:3"></path>

<path d="M597.04,9.25c1.11,1.11,1.64,2.5,1.64,4.27c0,3.9-0.07,5.54-0.08,9.08" style="fill:none;stroke:#999;stroke-width:3"></path>
<path d="M565.86,24.13c0,4.38-4.03,16.44-5.86,19.37" style="fill:none;stroke:#999;stroke-width:3"></path>
<path d="M566.51,27.78c20.24-2.53,48.61-6.03,63.59-6.2c12.9-0.14,0.88,8.16-0.92,9.03" style="fill:none;stroke:#999;stroke-width:3"></path>
<path d="M560.63,56.92c2.94,0.58,6.22,0.82,8.42,0.55c20.65-2.6,49.39-6.35,59.89-6.68c3.66-0.12,5.86,0.13,7.69,0.53" style="fill:none;stroke:#999;stroke-width:3"></path>
<path d="M611.27,34.33c1.14,1.14,1.76,2.92,1.76,5.27c0,14.56,0.24,47.41,0.24,52.37c0,11.78-6.52,1.78-8.71,0.25" style="fill:none;stroke:#999;stroke-width:3"></path>
<path d="M581.46,67.24c3.26,2.23,8.43,9.16,9.25,12.62" style="fill:none;stroke:#999;stroke-width:3"></path>

</svg>