<svg width="981px" height="109px" viewBox="0 0 981 109" xmlns="http://www.w3.org/2000/svg" xmlns:xlink="http://www.w3.org/1999/xlink" xml:space="preserve" version="1.1" baseProfile="full">
<line x1="1" y1="1" x2="980" y2="1" style="stroke:#ddd;stroke-width:2"></line>
<line x1="1" y1="1" x2="1" y2="108" style="stroke:#ddd;stroke-width:2"></line>
<line x1="1" y1="108" x2="980" y2="108" style="stroke:#ddd;stroke-width:2"></line>
<line x1="980" y1="1" x2="980" y2="108" style="stroke:#ddd;stroke-width:2"></line>
<line x1="109" y1="1" x2="109" y2="108" style="stroke:#ddd;stroke-width:2"></line>
<line x1="218" y1="1" x2="218" y2="108" style="stroke:#ddd;stroke-width:2"></line>
<line x1="327" y1="1" x2="327" y2="108" style="stroke:#ddd;stroke-width:2"></line>
<line x1="436" y1="1" x2="436" y2="108" style="stroke:#ddd;stroke-width:2"></line>
<line x1="545" y1="1" x2="545" y2="108" style="stroke:#ddd;stroke-width:2"></line>
<line x1="654" y1="1" x2="654" y2="108" style="stroke:#ddd;stroke-width:2"></line>
<line x1="763" y1="1" x2="763" y2="108" style="stroke:#ddd;stroke-width:2"></line>
<line x1="872" y1="1" x2="872" y2="108" style="stroke:#ddd;stroke-width:2"></line>
<line x1="1" y1="54" x2="980" y2="54" style="stroke:#ddd;stroke-width:2;stroke-dasharray:3 3"></line>
<line x1="55" y1="1" x2="55" y2="108" style="stroke:#ddd;stroke-width:2;stroke-dasharray:3 3"></line>
<line x1="164" y1="1" x2="164" y2="108" style="stroke:#ddd;stroke-width:2;stroke-dasharray:3 3"></line>
<line x1="273" y1="1" x2="273" y2="108" style="stroke:#ddd;stroke-width:2;stroke-dasharray:3 3"></line>
<line x1="382" y1="1" x2="382" y2="108" style="stroke:#ddd;stroke-width:2;stroke-dasharray:3 3"></line>
<line x1="491" y1="1" x2="491" y2="108" style="stroke:#ddd;stroke-width:2;stroke-dasharray:3 3"></line>
<line x1="600" y1="1" x2="600" y2="108" style="stroke:#ddd;stroke-width:2;stroke-dasharray:3 3"></line>
<line x1="709" y1="1" x2="709" y2="108" style="stroke:#ddd;stroke-width:2;stroke-dasharray:3 3"></line>
<line x1="818" y1="1" x2="818" y2="108" style="stroke:#ddd;stroke-width:2;stroke-dasharray:3 3"></line>
<line x1="927" y1="1" x2="927" y2="108" style="stroke:#ddd;stroke-width:2;stroke-dasharray:3 3"></line>
<path d="M53.04,9.25c1.17,1.17,1.31,2.38,1.31,4.1c0,3.46-0.09,4.35-0.09,7.5" style="fill:none;stroke:#999;stroke-width:3"></path>

<path d="M162.04,9.25c1.17,1.17,1.31,2.38,1.31,4.1c0,3.46-0.09,4.35-0.09,7.5" style="fill:none;stroke:#999;stroke-width:3"></path>
<path d="M130.12,21.38c0,3.34-3.34,12.53-4.85,14.75" style="fill:none;stroke:#999;stroke-width:3"></path>

<path d="M271.03999999999996,9.25c1.17,1.17,1.31,2.38,1.31,4.1c0,3.46-0.09,4.35-0.09,7.5" style="fill:none;stroke:#999;stroke-width:3"></path>
<path d="M239.12,21.38c0,3.34-3.34,12.53-4.85,14.75" style="fill:none;stroke:#999;stroke-width:3"></path>
<path d="M240.53,24.64c8.82-0.87,56.92-4.98,64.08-5.31c11.18-0.52,2.37,6.31-0.42,8.18" style="fill:none;stroke:#999;stroke-width:3"></path>

<path d="M380.03999999999996,9.25c1.17,1.17,1.31,2.38,1.31,4.1c0,3.46-0.09,4.35-0.09,7.5" style="fill:none;stroke:#999;stroke-width:3"></path>
<path d="M348.12,21.38c0,3.34-3.34,12.53-4.85,14.75" style="fill:none;stroke:#999;stroke-width:3"></path>
<path d="M349.53,24.64c8.82-0.87,56.92-4.98,64.08-5.31c11.18-0.52,2.37,6.31-0.42,8.18" style="fill:none;stroke:#999;stroke-width:3"></path>
<path d="M378.90999999999997,28.45c0.09,1.14-0.15,2.99-0.69,4.58c-4.3,12.7-14.97,30.71-33.58,43.86" style="fill:none;stroke:#999;stroke-width:3"></path>

<path d="M489.03999999999996,9.25c1.17,1.17,1.31,2.38,1.31,4.1c0,3.46-0.09,4.35-0.09,7.5" style="fill:none;stroke:#999;stroke-width:3"></path>
<path d="M457.12,21.38c0,3.34-3.34,12.53-4.85,14.75" style="fill:none;stroke:#999;stroke-width:3"></path>
<path d="M458.53,24.64c8.82-0.87,56.92-4.98,64.08-5.31c11.18-0.52,2.37,6.31-0.42,8.18" style="fill:none;stroke:#999;stroke-width:3"></path>
<path d="M487.90999999999997,28.45c0.09,1.14-0.15,2.99-0.69,4.58c-4.3,12.7-14.97,30.71-33.58,43.86" style="fill:none;stroke:#999;stroke-width:3"></path>
<path d="M456.5,41.98c3.5,1.25,7.17,0.69,10.76,0.34c11.39-1.11,33.66-3.74,48.62-4.93c3.28-0.26,6.65-0.26,9.87,0.44" style="fill:none;stroke:#999;stroke-width:3"></path>

<path d="M598.04,9.25c1.17,1.17,1.31,2.38,1.31,4.1c0,3.46-0.09,4.35-0.09,7.5" style="fill:none;stroke:#999;stroke-width:3"></path>
<path d="M566.12,21.38c0,3.34-3.34,12.53-4.85,14.75" style="fill:none;stroke:#999;stroke-width:3"></path>
<path d="M567.53,24.64c8.82-0.87,56.92-4.98,64.08-5.31c11.18-0.52,2.37,6.31-0.42,8.18" style="fill:none;stroke:#999;stroke-width:3"></path>
<path d="M596.91,28.45c0.09,1.14-0.15,2.99-0.69,4.58c-4.3,12.7-14.97,30.71-33.58,43.86" style="fill:none;stroke:#999;stroke-width:3"></path>
<path d="M565.5,41.98c3.5,1.25,7.17,0.69,10.76,0.34c11.39-1.11,33.66-3.74,48.62-4.93c3.28-0.26,6.65-0.26,9.87,0.44" style="fill:none;stroke:#999;stroke-width:3"></path>
<path d="M587.98,56.42c0.86,0.86,1.19,1.83,1.19,3.07c0,0.61-0.03,21.18-0.04,33.01c0,3.67-0.01,6.5-0.01,7.63" style="fill:none;stroke:#999;stroke-width:3"></path>

<path d="M707.04,9.25c1.17,1.17,1.31,2.38,1.31,4.1c0,3.46-0.09,4.35-0.09,7.5" style="fill:none;stroke:#999;stroke-width:3"></path>
<path d="M675.12,21.38c0,3.34-3.34,12.53-4.85,14.75" style="fill:none;stroke:#999;stroke-width:3"></path>
<path d="M676.53,24.64c8.82-0.87,56.92-4.98,64.08-5.31c11.18-0.52,2.37,6.31-0.42,8.18" style="fill:none;stroke:#999;stroke-width:3"></path>
<path d="M705.91,28.45c0.09,1.14-0.15,2.99-0.69,4.58c-4.3,12.7-14.97,30.71-33.58,43.86" style="fill:none;stroke:#999;stroke-width:3"></path>
<path d="M674.5,41.98c3.5,1.25,7.17,0.69,10.76,0.34c11.39-1.11,33.66-3.74,48.62-4.93c3.28-0.26,6.65-0.26,9.87,0.44" style="fill:none;stroke:#999;stroke-width:3"></path>
<path d="M696.98,56.42c0.86,0.86,1.19,1.83,1.19,3.07c0,0.61-0.03,21.18-0.04,33.01c0,3.67-0.01,6.5-0.01,7.63" style="fill:none;stroke:#999;stroke-width:3"></path>
<path d="M699.11,58.19C701.5,58,723.08,55.3,724.86,55.12c2.52-0.25,3.97,1.13,3.97,3.68c0,4.83-0.08,18.78-0.08,34.45c0,11.05-6.22,2.04-7.02,1.07" style="fill:none;stroke:#999;stroke-width:3"></path>

<path d="M816.04,9.25c1.17,1.17,1.31,2.38,1.31,4.1c0,3.46-0.09,4.35-0.09,7.5" style="fill:none;stroke:#999;stroke-width:3"></path>
<path d="M784.12,21.38c0,3.34-3.34,12.53-4.85,14.75" style="fill:none;stroke:#999;stroke-width:3"></path>
<path d="M785.53,24.64c8.82-0.87,56.92-4.98,64.08-5.31c11.18-0.52,2.37,6.31-0.42,8.18" style="fill:none;stroke:#999;stroke-width:3"></path>
<path d="M814.91,28.45c0.09,1.14-0.15,2.99-0.69,4.58c-4.3,12.7-14.97,30.71-33.58,43.86" style="fill:none;stroke:#999;stroke-width:3"></path>
<path d="M783.5,41.98c3.5,1.25,7.17,0.69,10.76,0.34c11.39-1.11,33.66-3.74,48.62-4.93c3.28-0.26,6.65-0.26,9.87,0.44" style="fill:none;stroke:#999;stroke-width:3"></path>
<path d="M805.98,56.42c0.86,0.86,1.19,1.83,1.19,3.07c0,0.61-0.03,21.18-0.04,33.01c0,3.67-0.01,6.5-0.01,7.63" style="fill:none;stroke:#999;stroke-width:3"></path>
<path d="M808.11,58.19C810.5,58,832.08,55.3,833.86,55.12c2.52-0.25,3.97,1.13,3.97,3.68c0,4.83-0.08,18.78-0.08,34.45c0,11.05-6.22,2.04-7.02,1.07" style="fill:none;stroke:#999;stroke-width:3"></path>
<path d="M808.11,69.09c9.51-0.99,21.68-1.85,28.82-2.38" style="fill:none;stroke:#999;stroke-width:3"></path>

<path d="M925.04,9.25c1.17,1.17,1.31,2.38,1.31,4.1c0,3.46-0.09,4.35-0.09,7.5" style="fill:none;stroke:#999;stroke-width:3"></path>
<path d="M893.12,21.38c0,3.34-3.34,12.53-4.85,14.75" style="fill:none;stroke:#999;stroke-width:3"></path>
<path d="M894.53,24.64c8.82-0.87,56.92-4.98,64.08-5.31c11.18-0.52,2.37,6.31-0.42,8.18" style="fill:none;stroke:#999;stroke-width:3"></path>
<path d="M923.91,28.45c0.09,1.14-0.15,2.99-0.69,4.58c-4.3,12.7-14.97,30.71-33.58,43.86" style="fill:none;stroke:#999;stroke-width:3"></path>
<path d="M892.5,41.98c3.5,1.25,7.17,0.69,10.76,0.34c11.39-1.11,33.66-3.74,48.62-4.93c3.28-0.26,6.65-0.26,9.87,0.44" style="fill:none;stroke:#999;stroke-width:3"></path>
<path d="M914.98,56.42c0.86,0.86,1.19,1.83,1.19,3.07c0,0.61-0.03,21.18-0.04,33.01c0,3.67-0.01,6.5-0.01,7.63" style="fill:none;stroke:#999;stroke-width:3"></path>
<path d="M917.11,58.19C919.5,58,941.08,55.3,942.86,55.12c2.52-0.25,3.97,1.13,3.97,3.68c0,4.83-0.08,18.78-0.08,34.45c0,11.05-6.22,2.04-7.02,1.07" style="fill:none;stroke:#999;stroke-width:3"></path>
<path d="M917.11,69.09c9.51-0.99,21.68-1.85,28.82-2.38" style="fill:none;stroke:#999;stroke-width:3"></path>
<path d="M917.46,80.12c6.35-0.58,20.99-1.96,28.33-2.35" style="fill:none;stroke:#999;stroke-width:3"></path>

</svg>