<svg width="1090px" height="109px" viewBox="0 0 1090 109" xmlns="http://www.w3.org/2000/svg" xmlns:xlink="http://www.w3.org/1999/xlink" xml:space="preserve" version="1.1" baseProfile="full">
<line x1="1" y1="1" x2="1089" y2="1" style="stroke:#ddd;stroke-width:2"></line>
<line x1="1" y1="1" x2="1" y2="108" style="stroke:#ddd;stroke-width:2"></line>
<line x1="1" y1="108" x2="1089" y2="108" style="stroke:#ddd;stroke-width:2"></line>
<line x1="1089" y1="1" x2="1089" y2="108" style="stroke:#ddd;stroke-width:2"></line>
<line x1="109" y1="1" x2="109" y2="108" style="stroke:#ddd;stroke-width:2"></line>
<line x1="218" y1="1" x2="218" y2="108" style="stroke:#ddd;stroke-width:2"></line>
<line x1="327" y1="1" x2="327" y2="108" style="stroke:#ddd;stroke-width:2"></line>
<line x1="436" y1="1" x2="436" y2="108" style="stroke:#ddd;stroke-width:2"></line>
<line x1="545" y1="1" x2="545" y2="108" style="stroke:#ddd;stroke-width:2"></line>
<line x1="654" y1="1" x2="654" y2="108" style="stroke:#ddd;stroke-width:2"></line>
<line x1="763" y1="1" x2="763" y2="108" style="stroke:#ddd;stroke-width:2"></line>
<line x1="872" y1="1" x2="872" y2="108" style="stroke:#ddd;stroke-width:2"></line>
<line x1="981" y1="1" x2="981" y2="108" style="stroke:#ddd;stroke-width:2"></line>
<line x1="1" y1="54" x2="1089" y2="54" style="stroke:#ddd;stroke-width:2;stroke-dasharray:3 3"></line>
<line x1="55" y1="1" x2="55" y2="108" style="stroke:#ddd;stroke-width:2;stroke-dasharray:3 3"></line>
<line x1="164" y1="1" x2="164" y2="108" style="stroke:#ddd;stroke-width:2;stroke-dasharray:3 3"></line>
<line x1="273" y1="1" x2="273" y2="108" style="stroke:#ddd;stroke-width:2;stroke-dasharray:3 3"></line>
<line x1="382" y1="1" x2="382" y2="108" style="stroke:#ddd;stroke-width:2;stroke-dasharray:3 3"></line>
<line x1="491" y1="1" x2="491" y2="108" style="stroke:#ddd;stroke-width:2;stroke-dasharray:3 3"></line>
<line x1="600" y1="1" x2="600" y2="108" style="stroke:#ddd;stroke-width:2;stroke-dasharray:3 3"></line>
<line x1="709" y1="1" x2="709" y2="108" style="stroke:#ddd;stroke-width:2;stroke-dasharray:3 3"></line>
<line x1="818" y1="1" x2="818" y2="108" style="stroke:#ddd;stroke-width:2;stroke-dasharray:3 3"></line>
<line x1="927" y1="1" x2="927" y2="108" style="stroke:#ddd;stroke-width:2;stroke-dasharray:3 3"></line>
<line x1="1036" y1="1" x2="1036" y2="108" style="stroke:#ddd;stroke-width:2;stroke-dasharray:3 3"></line>
<path d="M52.8,11.54c0.89,0.89,1.19,1.83,1.19,3.41c0,3.01-0.07,5.14-0.08,7.88" style="fill:none;stroke:#999;stroke-width:3"></path>

<path d="M161.8,11.54c0.89,0.89,1.19,1.83,1.19,3.41c0,3.01-0.07,5.14-0.08,7.88" style="fill:none;stroke:#999;stroke-width:3"></path>
<path d="M135.62,24.09c0,3.48-2.64,13.05-3.83,15.37" style="fill:none;stroke:#999;stroke-width:3"></path>

<path d="M270.8,11.54c0.89,0.89,1.19,1.83,1.19,3.41c0,3.01-0.07,5.14-0.08,7.88" style="fill:none;stroke:#999;stroke-width:3"></path>
<path d="M244.62,24.09c0,3.48-2.64,13.05-3.83,15.37" style="fill:none;stroke:#999;stroke-width:3"></path>
<path d="M245.57,26.45c11.3-1.58,35.43-4.58,54.28-5.7c9.71-0.58,2.78,5.37-0.36,7.98" style="fill:none;stroke:#999;stroke-width:3"></path>

<path d="M379.8,11.54c0.89,0.89,1.19,1.83,1.19,3.41c0,3.01-0.07,5.14-0.08,7.88" style="fill:none;stroke:#999;stroke-width:3"></path>
<path d="M353.62,24.09c0,3.48-2.64,13.05-3.83,15.37" style="fill:none;stroke:#999;stroke-width:3"></path>
<path d="M354.57,26.45c11.3-1.58,35.43-4.58,54.28-5.7c9.71-0.58,2.78,5.37-0.36,7.98" style="fill:none;stroke:#999;stroke-width:3"></path>
<path d="M363.75,34.16c0.8,0.8,1.12,2.13,1.12,2.92c0.31,4.25,1.63,13.1,2.29,18.91c0.15,1.27,0.27,2.39,0.37,3.29" style="fill:none;stroke:#999;stroke-width:3"></path>

<path d="M488.8,11.54c0.89,0.89,1.19,1.83,1.19,3.41c0,3.01-0.07,5.14-0.08,7.88" style="fill:none;stroke:#999;stroke-width:3"></path>
<path d="M462.62,24.09c0,3.48-2.64,13.05-3.83,15.37" style="fill:none;stroke:#999;stroke-width:3"></path>
<path d="M463.57,26.45c11.3-1.58,35.43-4.58,54.28-5.7c9.71-0.58,2.78,5.37-0.36,7.98" style="fill:none;stroke:#999;stroke-width:3"></path>
<path d="M472.75,34.16c0.8,0.8,1.12,2.13,1.12,2.92c0.31,4.25,1.63,13.1,2.29,18.91c0.15,1.27,0.27,2.39,0.37,3.29" style="fill:none;stroke:#999;stroke-width:3"></path>
<path d="M474.59000000000003,35.51c9.41-1.26,21.03-2.76,28.03-3.39c2.44-0.22,4.3,0.9,3.96,3.5c-0.64,4.84-1.54,11.54-2.39,16.64c-0.25,1.5-0.49,2.86-0.73,3.99" style="fill:none;stroke:#999;stroke-width:3"></path>

<path d="M597.8,11.54c0.89,0.89,1.19,1.83,1.19,3.41c0,3.01-0.07,5.14-0.08,7.88" style="fill:none;stroke:#999;stroke-width:3"></path>
<path d="M571.62,24.09c0,3.48-2.64,13.05-3.83,15.37" style="fill:none;stroke:#999;stroke-width:3"></path>
<path d="M572.5699999999999,26.45c11.3-1.58,35.43-4.58,54.28-5.7c9.71-0.58,2.78,5.37-0.36,7.98" style="fill:none;stroke:#999;stroke-width:3"></path>
<path d="M581.75,34.16c0.8,0.8,1.12,2.13,1.12,2.92c0.31,4.25,1.63,13.1,2.29,18.91c0.15,1.27,0.27,2.39,0.37,3.29" style="fill:none;stroke:#999;stroke-width:3"></path>
<path d="M583.59,35.51c9.41-1.26,21.03-2.76,28.03-3.39c2.44-0.22,4.3,0.9,3.96,3.5c-0.64,4.84-1.54,11.54-2.39,16.64c-0.25,1.5-0.49,2.86-0.73,3.99" style="fill:none;stroke:#999;stroke-width:3"></path>
<path d="M585.05,46.39c8.45-1.01,20.95-2.64,28.28-2.86" style="fill:none;stroke:#999;stroke-width:3"></path>

<path d="M706.8,11.54c0.89,0.89,1.19,1.83,1.19,3.41c0,3.01-0.07,5.14-0.08,7.88" style="fill:none;stroke:#999;stroke-width:3"></path>
<path d="M680.62,24.09c0,3.48-2.64,13.05-3.83,15.37" style="fill:none;stroke:#999;stroke-width:3"></path>
<path d="M681.5699999999999,26.45c11.3-1.58,35.43-4.58,54.28-5.7c9.71-0.58,2.78,5.37-0.36,7.98" style="fill:none;stroke:#999;stroke-width:3"></path>
<path d="M690.75,34.16c0.8,0.8,1.12,2.13,1.12,2.92c0.31,4.25,1.63,13.1,2.29,18.91c0.15,1.27,0.27,2.39,0.37,3.29" style="fill:none;stroke:#999;stroke-width:3"></path>
<path d="M692.59,35.51c9.41-1.26,21.03-2.76,28.03-3.39c2.44-0.22,4.3,0.9,3.96,3.5c-0.64,4.84-1.54,11.54-2.39,16.64c-0.25,1.5-0.49,2.86-0.73,3.99" style="fill:none;stroke:#999;stroke-width:3"></path>
<path d="M694.05,46.39c8.45-1.01,20.95-2.64,28.28-2.86" style="fill:none;stroke:#999;stroke-width:3"></path>
<path d="M695.42,57.31c7.46-0.81,18.62-2.1,25.15-2.42" style="fill:none;stroke:#999;stroke-width:3"></path>

<path d="M815.8,11.54c0.89,0.89,1.19,1.83,1.19,3.41c0,3.01-0.07,5.14-0.08,7.88" style="fill:none;stroke:#999;stroke-width:3"></path>
<path d="M789.62,24.09c0,3.48-2.64,13.05-3.83,15.37" style="fill:none;stroke:#999;stroke-width:3"></path>
<path d="M790.5699999999999,26.45c11.3-1.58,35.43-4.58,54.28-5.7c9.71-0.58,2.78,5.37-0.36,7.98" style="fill:none;stroke:#999;stroke-width:3"></path>
<path d="M799.75,34.16c0.8,0.8,1.12,2.13,1.12,2.92c0.31,4.25,1.63,13.1,2.29,18.91c0.15,1.27,0.27,2.39,0.37,3.29" style="fill:none;stroke:#999;stroke-width:3"></path>
<path d="M801.59,35.51c9.41-1.26,21.03-2.76,28.03-3.39c2.44-0.22,4.3,0.9,3.96,3.5c-0.64,4.84-1.54,11.54-2.39,16.64c-0.25,1.5-0.49,2.86-0.73,3.99" style="fill:none;stroke:#999;stroke-width:3"></path>
<path d="M803.05,46.39c8.45-1.01,20.95-2.64,28.28-2.86" style="fill:none;stroke:#999;stroke-width:3"></path>
<path d="M804.42,57.31c7.46-0.81,18.62-2.1,25.15-2.42" style="fill:none;stroke:#999;stroke-width:3"></path>
<path d="M811.21,59.75c0.42,1,0.4,1.83,0,2.98C807.75,69.38,805.43,73.16,800.0,79.12c-1.38,1.51-1.12,2.38,0.75,2.4c8.76,0.08,21.49,3.57,32.68,8.89c5.36,2.55,9.39,5.74,11.82,8.84" style="fill:none;stroke:#999;stroke-width:3"></path>

<path d="M924.8,11.54c0.89,0.89,1.19,1.83,1.19,3.41c0,3.01-0.07,5.14-0.08,7.88" style="fill:none;stroke:#999;stroke-width:3"></path>
<path d="M898.62,24.09c0,3.48-2.64,13.05-3.83,15.37" style="fill:none;stroke:#999;stroke-width:3"></path>
<path d="M899.5699999999999,26.45c11.3-1.58,35.43-4.58,54.28-5.7c9.71-0.58,2.78,5.37-0.36,7.98" style="fill:none;stroke:#999;stroke-width:3"></path>
<path d="M908.75,34.16c0.8,0.8,1.12,2.13,1.12,2.92c0.31,4.25,1.63,13.1,2.29,18.91c0.15,1.27,0.27,2.39,0.37,3.29" style="fill:none;stroke:#999;stroke-width:3"></path>
<path d="M910.59,35.51c9.41-1.26,21.03-2.76,28.03-3.39c2.44-0.22,4.3,0.9,3.96,3.5c-0.64,4.84-1.54,11.54-2.39,16.64c-0.25,1.5-0.49,2.86-0.73,3.99" style="fill:none;stroke:#999;stroke-width:3"></path>
<path d="M912.05,46.39c8.45-1.01,20.95-2.64,28.28-2.86" style="fill:none;stroke:#999;stroke-width:3"></path>
<path d="M913.42,57.31c7.46-0.81,18.62-2.1,25.15-2.42" style="fill:none;stroke:#999;stroke-width:3"></path>
<path d="M920.21,59.75c0.42,1,0.4,1.83,0,2.98C916.75,69.38,914.43,73.16,909.0,79.12c-1.38,1.51-1.12,2.38,0.75,2.4c8.76,0.08,21.49,3.57,32.68,8.89c5.36,2.55,9.39,5.74,11.82,8.84" style="fill:none;stroke:#999;stroke-width:3"></path>
<path d="M939.88,64.43c0.38,1.45,0.22,2.89-0.25,4.11c-3.8,9.87-15.75,24.34-42.37,30.97" style="fill:none;stroke:#999;stroke-width:3"></path>

<path d="M1033.8,11.54c0.89,0.89,1.19,1.83,1.19,3.41c0,3.01-0.07,5.14-0.08,7.88" style="fill:none;stroke:#999;stroke-width:3"></path>
<path d="M1007.62,24.09c0,3.48-2.64,13.05-3.83,15.37" style="fill:none;stroke:#999;stroke-width:3"></path>
<path d="M1008.5699999999999,26.45c11.3-1.58,35.43-4.58,54.28-5.7c9.71-0.58,2.78,5.37-0.36,7.98" style="fill:none;stroke:#999;stroke-width:3"></path>
<path d="M1017.75,34.16c0.8,0.8,1.12,2.13,1.12,2.92c0.31,4.25,1.63,13.1,2.29,18.91c0.15,1.27,0.27,2.39,0.37,3.29" style="fill:none;stroke:#999;stroke-width:3"></path>
<path d="M1019.59,35.51c9.41-1.26,21.03-2.76,28.03-3.39c2.44-0.22,4.3,0.9,3.96,3.5c-0.64,4.84-1.54,11.54-2.39,16.64c-0.25,1.5-0.49,2.86-0.73,3.99" style="fill:none;stroke:#999;stroke-width:3"></path>
<path d="M1021.05,46.39c8.45-1.01,20.95-2.64,28.28-2.86" style="fill:none;stroke:#999;stroke-width:3"></path>
<path d="M1022.42,57.31c7.46-0.81,18.62-2.1,25.15-2.42" style="fill:none;stroke:#999;stroke-width:3"></path>
<path d="M1029.21,59.75c0.42,1,0.4,1.83,0,2.98C1025.75,69.38,1023.43,73.16,1018.0,79.12c-1.38,1.51-1.12,2.38,0.75,2.4c8.76,0.08,21.49,3.57,32.68,8.89c5.36,2.55,9.39,5.74,11.82,8.84" style="fill:none;stroke:#999;stroke-width:3"></path>
<path d="M1048.88,64.43c0.38,1.45,0.22,2.89-0.25,4.11c-3.8,9.87-15.75,24.34-42.37,30.97" style="fill:none;stroke:#999;stroke-width:3"></path>
<path d="M996.63,70.18c2.11,0.77,5.18,0.51,7.36,0.31c12.62-1.15,44.93-4.09,63.26-4.45c2.82-0.06,6.12-0.28,8.75,0.96" style="fill:none;stroke:#999;stroke-width:3"></path>

</svg>