<svg width="1090px" height="109px" viewBox="0 0 1090 109" xmlns="http://www.w3.org/2000/svg" xmlns:xlink="http://www.w3.org/1999/xlink" xml:space="preserve" version="1.1" baseProfile="full">
<line x1="1" y1="1" x2="1089" y2="1" style="stroke:#ddd;stroke-width:2"></line>
<line x1="1" y1="1" x2="1" y2="108" style="stroke:#ddd;stroke-width:2"></line>
<line x1="1" y1="108" x2="1089" y2="108" style="stroke:#ddd;stroke-width:2"></line>
<line x1="1089" y1="1" x2="1089" y2="108" style="stroke:#ddd;stroke-width:2"></line>
<line x1="109" y1="1" x2="109" y2="108" style="stroke:#ddd;stroke-width:2"></line>
<line x1="218" y1="1" x2="218" y2="108" style="stroke:#ddd;stroke-width:2"></line>
<line x1="327" y1="1" x2="327" y2="108" style="stroke:#ddd;stroke-width:2"></line>
<line x1="436" y1="1" x2="436" y2="108" style="stroke:#ddd;stroke-width:2"></line>
<line x1="545" y1="1" x2="545" y2="108" style="stroke:#ddd;stroke-width:2"></line>
<line x1="654" y1="1" x2="654" y2="108" style="stroke:#ddd;stroke-width:2"></line>
<line x1="763" y1="1" x2="763" y2="108" style="stroke:#ddd;stroke-width:2"></line>
<line x1="872" y1="1" x2="872" y2="108" style="stroke:#ddd;stroke-width:2"></line>
<line x1="981" y1="1" x2="981" y2="108" style="stroke:#ddd;stroke-width:2"></line>
<line x1="1" y1="54" x2="1089" y2="54" style="stroke:#ddd;stroke-width:2;stroke-dasharray:3 3"></line>
<line x1="55" y1="1" x2="55" y2="108" style="stroke:#ddd;stroke-width:2;stroke-dasharray:3 3"></line>
<line x1="164" y1="1" x2="164" y2="108" style="stroke:#ddd;stroke-width:2;stroke-dasharray:3 3"></line>
<line x1="273" y1="1" x2="273" y2="108" style="stroke:#ddd;stroke-width:2;stroke-dasharray:3 3"></line>
<line x1="382" y1="1" x2="382" y2="108" style="stroke:#ddd;stroke-width:2;stroke-dasharray:3 3"></line>
<line x1="491" y1="1" x2="491" y2="108" style="stroke:#ddd;stroke-width:2;stroke-dasharray:3 3"></line>
<line x1="600" y1="1" x2="600" y2="108" style="stroke:#ddd;stroke-width:2;stroke-dasharray:3 3"></line>
<line x1="709" y1="1" x2="709" y2="108" style="stroke:#ddd;stroke-width:2;stroke-dasharray:3 3"></line>
<line x1="818" y1="1" x2="818" y2="108" style="stroke:#ddd;stroke-width:2;stroke-dasharray:3 3"></line>
<line x1="927" y1="1" x2="927" y2="108" style="stroke:#ddd;stroke-width:2;stroke-dasharray:3 3"></line>
<line x1="1036" y1="1" x2="1036" y2="108" style="stroke:#ddd;stroke-width:2;stroke-dasharray:3 3"></line>
<path d="M52.65,8.25c1.11,1.11,1.67,2.75,1.67,4.77c0,4.1-0.06,4.87-0.06,7.23" style="fill:none;stroke:#999;stroke-width:3"></path>

<path d="M161.65,8.25c1.11,1.11,1.67,2.75,1.67,4.77c0,4.1-0.06,4.87-0.06,7.23" style="fill:none;stroke:#999;stroke-width:3"></path>
<path d="M128.91,21.13c0,3.74-1.74,15.12-2.91,17.62" style="fill:none;stroke:#999;stroke-width:3"></path>

<path d="M270.65,8.25c1.11,1.11,1.67,2.75,1.67,4.77c0,4.1-0.06,4.87-0.06,7.23" style="fill:none;stroke:#999;stroke-width:3"></path>
<path d="M237.91,21.13c0,3.74-1.74,15.12-2.91,17.62" style="fill:none;stroke:#999;stroke-width:3"></path>
<path d="M238.74,24.49C261.25,21.88,290.0,19.88,305.2,19.34c12.06-0.43,2.55,7.16-0.45,9.28" style="fill:none;stroke:#999;stroke-width:3"></path>

<path d="M379.65,8.25c1.11,1.11,1.67,2.75,1.67,4.77c0,4.1-0.06,4.87-0.06,7.23" style="fill:none;stroke:#999;stroke-width:3"></path>
<path d="M346.90999999999997,21.13c0,3.74-1.74,15.12-2.91,17.62" style="fill:none;stroke:#999;stroke-width:3"></path>
<path d="M347.74,24.49C370.25,21.88,399.0,19.88,414.2,19.34c12.06-0.43,2.55,7.16-0.45,9.28" style="fill:none;stroke:#999;stroke-width:3"></path>
<path d="M380.19,27.12c0.97,0.97,1.47,2.51,1.47,4.06c0,9.83,0,14.4,0,16.93" style="fill:none;stroke:#999;stroke-width:3"></path>

<path d="M488.65,8.25c1.11,1.11,1.67,2.75,1.67,4.77c0,4.1-0.06,4.87-0.06,7.23" style="fill:none;stroke:#999;stroke-width:3"></path>
<path d="M455.90999999999997,21.13c0,3.74-1.74,15.12-2.91,17.62" style="fill:none;stroke:#999;stroke-width:3"></path>
<path d="M456.74,24.49C479.25,21.88,508.0,19.88,523.2,19.34c12.06-0.43,2.55,7.16-0.45,9.28" style="fill:none;stroke:#999;stroke-width:3"></path>
<path d="M489.19,27.12c0.97,0.97,1.47,2.51,1.47,4.06c0,9.83,0,14.4,0,16.93" style="fill:none;stroke:#999;stroke-width:3"></path>
<path d="M466.56,31.14c3.24,2.27,8.38,8.88,9.19,12.41" style="fill:none;stroke:#999;stroke-width:3"></path>

<path d="M597.65,8.25c1.11,1.11,1.67,2.75,1.67,4.77c0,4.1-0.06,4.87-0.06,7.23" style="fill:none;stroke:#999;stroke-width:3"></path>
<path d="M564.91,21.13c0,3.74-1.74,15.12-2.91,17.62" style="fill:none;stroke:#999;stroke-width:3"></path>
<path d="M565.74,24.49C588.25,21.88,617.0,19.88,632.2,19.34c12.06-0.43,2.55,7.16-0.45,9.28" style="fill:none;stroke:#999;stroke-width:3"></path>
<path d="M598.19,27.12c0.97,0.97,1.47,2.51,1.47,4.06c0,9.83,0,14.4,0,16.93" style="fill:none;stroke:#999;stroke-width:3"></path>
<path d="M575.56,31.14c3.24,2.27,8.38,8.88,9.19,12.41" style="fill:none;stroke:#999;stroke-width:3"></path>
<path d="M619.21,28.85c0.08,0.86,0.06,1.73-0.34,2.49c-1.99,3.78-3.54,6.58-9.01,12.03" style="fill:none;stroke:#999;stroke-width:3"></path>

<path d="M706.65,8.25c1.11,1.11,1.67,2.75,1.67,4.77c0,4.1-0.06,4.87-0.06,7.23" style="fill:none;stroke:#999;stroke-width:3"></path>
<path d="M673.91,21.13c0,3.74-1.74,15.12-2.91,17.62" style="fill:none;stroke:#999;stroke-width:3"></path>
<path d="M674.74,24.49C697.25,21.88,726.0,19.88,741.2,19.34c12.06-0.43,2.55,7.16-0.45,9.28" style="fill:none;stroke:#999;stroke-width:3"></path>
<path d="M707.19,27.12c0.97,0.97,1.47,2.51,1.47,4.06c0,9.83,0,14.4,0,16.93" style="fill:none;stroke:#999;stroke-width:3"></path>
<path d="M684.56,31.14c3.24,2.27,8.38,8.88,9.19,12.41" style="fill:none;stroke:#999;stroke-width:3"></path>
<path d="M728.21,28.85c0.08,0.86,0.06,1.73-0.34,2.49c-1.99,3.78-3.54,6.58-9.01,12.03" style="fill:none;stroke:#999;stroke-width:3"></path>
<path d="M687.0,49.43c0.97,0.97,1.32,2.45,1.32,3.72c0,0.61,0.01,26.95,0.01,39.85c0,3.45,0,5.93,0,6.72" style="fill:none;stroke:#999;stroke-width:3"></path>

<path d="M815.65,8.25c1.11,1.11,1.67,2.75,1.67,4.77c0,4.1-0.06,4.87-0.06,7.23" style="fill:none;stroke:#999;stroke-width:3"></path>
<path d="M782.91,21.13c0,3.74-1.74,15.12-2.91,17.62" style="fill:none;stroke:#999;stroke-width:3"></path>
<path d="M783.74,24.49C806.25,21.88,835.0,19.88,850.2,19.34c12.06-0.43,2.55,7.16-0.45,9.28" style="fill:none;stroke:#999;stroke-width:3"></path>
<path d="M816.19,27.12c0.97,0.97,1.47,2.51,1.47,4.06c0,9.83,0,14.4,0,16.93" style="fill:none;stroke:#999;stroke-width:3"></path>
<path d="M793.56,31.14c3.24,2.27,8.38,8.88,9.19,12.41" style="fill:none;stroke:#999;stroke-width:3"></path>
<path d="M837.21,28.85c0.08,0.86,0.06,1.73-0.34,2.49c-1.99,3.78-3.54,6.58-9.01,12.03" style="fill:none;stroke:#999;stroke-width:3"></path>
<path d="M796.0,49.43c0.97,0.97,1.32,2.45,1.32,3.72c0,0.61,0.01,26.95,0.01,39.85c0,3.45,0,5.93,0,6.72" style="fill:none;stroke:#999;stroke-width:3"></path>
<path d="M798.15,51.42c2.85-0.22,26.92-2.44,33.24-3.07c4.19-0.42,6.61,1.21,6.61,5.52c-0.02,10.44,0,20.77,0,40.25c0,9.23-6.12,2.88-8.23,0.92" style="fill:none;stroke:#999;stroke-width:3"></path>

<path d="M924.65,8.25c1.11,1.11,1.67,2.75,1.67,4.77c0,4.1-0.06,4.87-0.06,7.23" style="fill:none;stroke:#999;stroke-width:3"></path>
<path d="M891.91,21.13c0,3.74-1.74,15.12-2.91,17.62" style="fill:none;stroke:#999;stroke-width:3"></path>
<path d="M892.74,24.49C915.25,21.88,944.0,19.88,959.2,19.34c12.06-0.43,2.55,7.16-0.45,9.28" style="fill:none;stroke:#999;stroke-width:3"></path>
<path d="M925.19,27.12c0.97,0.97,1.47,2.51,1.47,4.06c0,9.83,0,14.4,0,16.93" style="fill:none;stroke:#999;stroke-width:3"></path>
<path d="M902.56,31.14c3.24,2.27,8.38,8.88,9.19,12.41" style="fill:none;stroke:#999;stroke-width:3"></path>
<path d="M946.21,28.85c0.08,0.86,0.06,1.73-0.34,2.49c-1.99,3.78-3.54,6.58-9.01,12.03" style="fill:none;stroke:#999;stroke-width:3"></path>
<path d="M905.0,49.43c0.97,0.97,1.32,2.45,1.32,3.72c0,0.61,0.01,26.95,0.01,39.85c0,3.45,0,5.93,0,6.72" style="fill:none;stroke:#999;stroke-width:3"></path>
<path d="M907.15,51.42c2.85-0.22,26.92-2.44,33.24-3.07c4.19-0.42,6.61,1.21,6.61,5.52c-0.02,10.44,0,20.77,0,40.25c0,9.23-6.12,2.88-8.23,0.92" style="fill:none;stroke:#999;stroke-width:3"></path>
<path d="M907.9,64.56c12.6-1.06,25.98-2.06,37.79-2.47" style="fill:none;stroke:#999;stroke-width:3"></path>

<path d="M1033.65,8.25c1.11,1.11,1.67,2.75,1.67,4.77c0,4.1-0.06,4.87-0.06,7.23" style="fill:none;stroke:#999;stroke-width:3"></path>
<path d="M1000.91,21.13c0,3.74-1.74,15.12-2.91,17.62" style="fill:none;stroke:#999;stroke-width:3"></path>
<path d="M1001.74,24.49C1024.25,21.88,1053.0,19.88,1068.2,19.34c12.06-0.43,2.55,7.16-0.45,9.28" style="fill:none;stroke:#999;stroke-width:3"></path>
<path d="M1034.19,27.12c0.97,0.97,1.47,2.51,1.47,4.06c0,9.83,0,14.4,0,16.93" style="fill:none;stroke:#999;stroke-width:3"></path>
<path d="M1011.56,31.14c3.24,2.27,8.38,8.88,9.19,12.41" style="fill:none;stroke:#999;stroke-width:3"></path>
<path d="M1055.21,28.85c0.08,0.86,0.06,1.73-0.34,2.49c-1.99,3.78-3.54,6.58-9.01,12.03" style="fill:none;stroke:#999;stroke-width:3"></path>
<path d="M1014.0,49.43c0.97,0.97,1.32,2.45,1.32,3.72c0,0.61,0.01,26.95,0.01,39.85c0,3.45,0,5.93,0,6.72" style="fill:none;stroke:#999;stroke-width:3"></path>
<path d="M1016.15,51.42c2.85-0.22,26.92-2.44,33.24-3.07c4.19-0.42,6.61,1.21,6.61,5.52c-0.02,10.44,0,20.77,0,40.25c0,9.23-6.12,2.88-8.23,0.92" style="fill:none;stroke:#999;stroke-width:3"></path>
<path d="M1016.9,64.56c12.6-1.06,25.98-2.06,37.79-2.47" style="fill:none;stroke:#999;stroke-width:3"></path>
<path d="M1016.36,77.68c8.59-0.69,28.2-1.6,38.14-2.05" style="fill:none;stroke:#999;stroke-width:3"></path>

</svg>