<svg width="1199px" height="109px" viewBox="0 0 1199 109" xmlns="http://www.w3.org/2000/svg" xmlns:xlink="http://www.w3.org/1999/xlink" xml:space="preserve" version="1.1" baseProfile="full">
<line x1="1" y1="1" x2="1198" y2="1" style="stroke:#ddd;stroke-width:2"></line>
<line x1="1" y1="1" x2="1" y2="108" style="stroke:#ddd;stroke-width:2"></line>
<line x1="1" y1="108" x2="1198" y2="108" style="stroke:#ddd;stroke-width:2"></line>
<line x1="1198" y1="1" x2="1198" y2="108" style="stroke:#ddd;stroke-width:2"></line>
<line x1="109" y1="1" x2="109" y2="108" style="stroke:#ddd;stroke-width:2"></line>
<line x1="218" y1="1" x2="218" y2="108" style="stroke:#ddd;stroke-width:2"></line>
<line x1="327" y1="1" x2="327" y2="108" style="stroke:#ddd;stroke-width:2"></line>
<line x1="436" y1="1" x2="436" y2="108" style="stroke:#ddd;stroke-width:2"></line>
<line x1="545" y1="1" x2="545" y2="108" style="stroke:#ddd;stroke-width:2"></line>
<line x1="654" y1="1" x2="654" y2="108" style="stroke:#ddd;stroke-width:2"></line>
<line x1="763" y1="1" x2="763" y2="108" style="stroke:#ddd;stroke-width:2"></line>
<line x1="872" y1="1" x2="872" y2="108" style="stroke:#ddd;stroke-width:2"></line>
<line x1="981" y1="1" x2="981" y2="108" style="stroke:#ddd;stroke-width:2"></line>
<line x1="1090" y1="1" x2="1090" y2="108" style="stroke:#ddd;stroke-width:2"></line>
<line x1="1" y1="54" x2="1198" y2="54" style="stroke:#ddd;stroke-width:2;stroke-dasharray:3 3"></line>
<line x1="55" y1="1" x2="55" y2="108" style="stroke:#ddd;stroke-width:2;stroke-dasharray:3 3"></line>
<line x1="164" y1="1" x2="164" y2="108" style="stroke:#ddd;stroke-width:2;stroke-dasharray:3 3"></line>
<line x1="273" y1="1" x2="273" y2="108" style="stroke:#ddd;stroke-width:2;stroke-dasharray:3 3"></line>
<line x1="382" y1="1" x2="382" y2="108" style="stroke:#ddd;stroke-width:2;stroke-dasharray:3 3"></line>
<line x1="491" y1="1" x2="491" y2="108" style="stroke:#ddd;stroke-width:2;stroke-dasharray:3 3"></line>
<line x1="600" y1="1" x2="600" y2="108" style="stroke:#ddd;stroke-width:2;stroke-dasharray:3 3"></line>
<line x1="709" y1="1" x2="709" y2="108" style="stroke:#ddd;stroke-width:2;stroke-dasharray:3 3"></line>
<line x1="818" y1="1" x2="818" y2="108" style="stroke:#ddd;stroke-width:2;stroke-dasharray:3 3"></line>
<line x1="927" y1="1" x2="927" y2="108" style="stroke:#ddd;stroke-width:2;stroke-dasharray:3 3"></line>
<line x1="1036" y1="1" x2="1036" y2="108" style="stroke:#ddd;stroke-width:2;stroke-dasharray:3 3"></line>
<line x1="1145" y1="1" x2="1145" y2="108" style="stroke:#ddd;stroke-width:2;stroke-dasharray:3 3"></line>
<path d="M50.91,11.33c1.24,0.4,3,2.38,2.97,3.54c-0.09,3.66-0.09,7.2-0.1,10.53" style="fill:none;stroke:#999;stroke-width:3"></path>

<path d="M159.91,11.33c1.24,0.4,3,2.38,2.97,3.54c-0.09,3.66-0.09,7.2-0.1,10.53" style="fill:none;stroke:#999;stroke-width:3"></path>
<path d="M130.7,24.12c0,3.8-2.72,14.27-3.95,16.8" style="fill:none;stroke:#999;stroke-width:3"></path>

<path d="M268.90999999999997,11.33c1.24,0.4,3,2.38,2.97,3.54c-0.09,3.66-0.09,7.2-0.1,10.53" style="fill:none;stroke:#999;stroke-width:3"></path>
<path d="M239.7,24.12c0,3.8-2.72,14.27-3.95,16.8" style="fill:none;stroke:#999;stroke-width:3"></path>
<path d="M239.87,28.45c8.92-0.93,56.54-5.13,63.78-5.48c11.31-0.55,1.71,8.01-1.11,9.99" style="fill:none;stroke:#999;stroke-width:3"></path>

<path d="M377.90999999999997,11.33c1.24,0.4,3,2.38,2.97,3.54c-0.09,3.66-0.09,7.2-0.1,10.53" style="fill:none;stroke:#999;stroke-width:3"></path>
<path d="M348.7,24.12c0,3.8-2.72,14.27-3.95,16.8" style="fill:none;stroke:#999;stroke-width:3"></path>
<path d="M348.87,28.45c8.92-0.93,56.54-5.13,63.78-5.48c11.31-0.55,1.71,8.01-1.11,9.99" style="fill:none;stroke:#999;stroke-width:3"></path>
<path d="M364.76,31.25c0.23,1.52-0.06,3.5-0.79,4.8c-4.65,8.28-10.55,15.28-21.22,25.36" style="fill:none;stroke:#999;stroke-width:3"></path>

<path d="M486.90999999999997,11.33c1.24,0.4,3,2.38,2.97,3.54c-0.09,3.66-0.09,7.2-0.1,10.53" style="fill:none;stroke:#999;stroke-width:3"></path>
<path d="M457.7,24.12c0,3.8-2.72,14.27-3.95,16.8" style="fill:none;stroke:#999;stroke-width:3"></path>
<path d="M457.87,28.45c8.92-0.93,56.54-5.13,63.78-5.48c11.31-0.55,1.71,8.01-1.11,9.99" style="fill:none;stroke:#999;stroke-width:3"></path>
<path d="M473.76,31.25c0.23,1.52-0.06,3.5-0.79,4.8c-4.65,8.28-10.55,15.28-21.22,25.36" style="fill:none;stroke:#999;stroke-width:3"></path>
<path d="M467.47,47.81c0.84,0.79,1.49,2.54,1.54,3.77c0.5,10.98-0.69,42.46-0.27,48.17" style="fill:none;stroke:#999;stroke-width:3"></path>

<path d="M595.91,11.33c1.24,0.4,3,2.38,2.97,3.54c-0.09,3.66-0.09,7.2-0.1,10.53" style="fill:none;stroke:#999;stroke-width:3"></path>
<path d="M566.7,24.12c0,3.8-2.72,14.27-3.95,16.8" style="fill:none;stroke:#999;stroke-width:3"></path>
<path d="M566.87,28.45c8.92-0.93,56.54-5.13,63.78-5.48c11.31-0.55,1.71,8.01-1.11,9.99" style="fill:none;stroke:#999;stroke-width:3"></path>
<path d="M582.76,31.25c0.23,1.52-0.06,3.5-0.79,4.8c-4.65,8.28-10.55,15.28-21.22,25.36" style="fill:none;stroke:#999;stroke-width:3"></path>
<path d="M576.47,47.81c0.84,0.79,1.49,2.54,1.54,3.77c0.5,10.98-0.69,42.46-0.27,48.17" style="fill:none;stroke:#999;stroke-width:3"></path>
<path d="M606.43,29.75c0.07,0.81-0.02,1.88-0.24,2.57c-1.4,4.43-3.17,7.86-6.37,13.26" style="fill:none;stroke:#999;stroke-width:3"></path>

<path d="M704.91,11.33c1.24,0.4,3,2.38,2.97,3.54c-0.09,3.66-0.09,7.2-0.1,10.53" style="fill:none;stroke:#999;stroke-width:3"></path>
<path d="M675.7,24.12c0,3.8-2.72,14.27-3.95,16.8" style="fill:none;stroke:#999;stroke-width:3"></path>
<path d="M675.87,28.45c8.92-0.93,56.54-5.13,63.78-5.48c11.31-0.55,1.71,8.01-1.11,9.99" style="fill:none;stroke:#999;stroke-width:3"></path>
<path d="M691.76,31.25c0.23,1.52-0.06,3.5-0.79,4.8c-4.65,8.28-10.55,15.28-21.22,25.36" style="fill:none;stroke:#999;stroke-width:3"></path>
<path d="M685.47,47.81c0.84,0.79,1.49,2.54,1.54,3.77c0.5,10.98-0.69,42.46-0.27,48.17" style="fill:none;stroke:#999;stroke-width:3"></path>
<path d="M715.43,29.75c0.07,0.81-0.02,1.88-0.24,2.57c-1.4,4.43-3.17,7.86-6.37,13.26" style="fill:none;stroke:#999;stroke-width:3"></path>
<path d="M686.27,49.04c9.77-1.03,48.96-4.54,53.15-5.11" style="fill:none;stroke:#999;stroke-width:3"></path>

<path d="M813.91,11.33c1.24,0.4,3,2.38,2.97,3.54c-0.09,3.66-0.09,7.2-0.1,10.53" style="fill:none;stroke:#999;stroke-width:3"></path>
<path d="M784.7,24.12c0,3.8-2.72,14.27-3.95,16.8" style="fill:none;stroke:#999;stroke-width:3"></path>
<path d="M784.87,28.45c8.92-0.93,56.54-5.13,63.78-5.48c11.31-0.55,1.71,8.01-1.11,9.99" style="fill:none;stroke:#999;stroke-width:3"></path>
<path d="M800.76,31.25c0.23,1.52-0.06,3.5-0.79,4.8c-4.65,8.28-10.55,15.28-21.22,25.36" style="fill:none;stroke:#999;stroke-width:3"></path>
<path d="M794.47,47.81c0.84,0.79,1.49,2.54,1.54,3.77c0.5,10.98-0.69,42.46-0.27,48.17" style="fill:none;stroke:#999;stroke-width:3"></path>
<path d="M824.43,29.75c0.07,0.81-0.02,1.88-0.24,2.57c-1.4,4.43-3.17,7.86-6.37,13.26" style="fill:none;stroke:#999;stroke-width:3"></path>
<path d="M795.27,49.04c9.77-1.03,48.96-4.54,53.15-5.11" style="fill:none;stroke:#999;stroke-width:3"></path>
<path d="M819.79,47.61c0.47,0.41,0.85,0.96,0.85,1.66c0,7.12,0.05,32.6-0.23,43.81" style="fill:none;stroke:#999;stroke-width:3"></path>

<path d="M922.91,11.33c1.24,0.4,3,2.38,2.97,3.54c-0.09,3.66-0.09,7.2-0.1,10.53" style="fill:none;stroke:#999;stroke-width:3"></path>
<path d="M893.7,24.12c0,3.8-2.72,14.27-3.95,16.8" style="fill:none;stroke:#999;stroke-width:3"></path>
<path d="M893.87,28.45c8.92-0.93,56.54-5.13,63.78-5.48c11.31-0.55,1.71,8.01-1.11,9.99" style="fill:none;stroke:#999;stroke-width:3"></path>
<path d="M909.76,31.25c0.23,1.52-0.06,3.5-0.79,4.8c-4.65,8.28-10.55,15.28-21.22,25.36" style="fill:none;stroke:#999;stroke-width:3"></path>
<path d="M903.47,47.81c0.84,0.79,1.49,2.54,1.54,3.77c0.5,10.98-0.69,42.46-0.27,48.17" style="fill:none;stroke:#999;stroke-width:3"></path>
<path d="M933.43,29.75c0.07,0.81-0.02,1.88-0.24,2.57c-1.4,4.43-3.17,7.86-6.37,13.26" style="fill:none;stroke:#999;stroke-width:3"></path>
<path d="M904.27,49.04c9.77-1.03,48.96-4.54,53.15-5.11" style="fill:none;stroke:#999;stroke-width:3"></path>
<path d="M928.79,47.61c0.47,0.41,0.85,0.96,0.85,1.66c0,7.12,0.05,32.6-0.23,43.81" style="fill:none;stroke:#999;stroke-width:3"></path>
<path d="M905.58,62.55c9.22-0.86,44.49-4.35,48.44-4.81" style="fill:none;stroke:#999;stroke-width:3"></path>

<path d="M1031.9099999999999,11.33c1.24,0.4,3,2.38,2.97,3.54c-0.09,3.66-0.09,7.2-0.1,10.53" style="fill:none;stroke:#999;stroke-width:3"></path>
<path d="M1002.7,24.12c0,3.8-2.72,14.27-3.95,16.8" style="fill:none;stroke:#999;stroke-width:3"></path>
<path d="M1002.87,28.45c8.92-0.93,56.54-5.13,63.78-5.48c11.31-0.55,1.71,8.01-1.11,9.99" style="fill:none;stroke:#999;stroke-width:3"></path>
<path d="M1018.76,31.25c0.23,1.52-0.06,3.5-0.79,4.8c-4.65,8.28-10.55,15.28-21.22,25.36" style="fill:none;stroke:#999;stroke-width:3"></path>
<path d="M1012.47,47.81c0.84,0.79,1.49,2.54,1.54,3.77c0.5,10.98-0.69,42.46-0.27,48.17" style="fill:none;stroke:#999;stroke-width:3"></path>
<path d="M1042.4299999999998,29.75c0.07,0.81-0.02,1.88-0.24,2.57c-1.4,4.43-3.17,7.86-6.37,13.26" style="fill:none;stroke:#999;stroke-width:3"></path>
<path d="M1013.27,49.04c9.77-1.03,48.96-4.54,53.15-5.11" style="fill:none;stroke:#999;stroke-width:3"></path>
<path d="M1037.79,47.61c0.47,0.41,0.85,0.96,0.85,1.66c0,7.12,0.05,32.6-0.23,43.81" style="fill:none;stroke:#999;stroke-width:3"></path>
<path d="M1014.58,62.55c9.22-0.86,44.49-4.35,48.44-4.81" style="fill:none;stroke:#999;stroke-width:3"></path>
<path d="M1014.46,77.5c9.73-0.72,45.19-4.69,49.37-5.08" style="fill:none;stroke:#999;stroke-width:3"></path>

<path d="M1140.9099999999999,11.33c1.24,0.4,3,2.38,2.97,3.54c-0.09,3.66-0.09,7.2-0.1,10.53" style="fill:none;stroke:#999;stroke-width:3"></path>
<path d="M1111.7,24.12c0,3.8-2.72,14.27-3.95,16.8" style="fill:none;stroke:#999;stroke-width:3"></path>
<path d="M1111.87,28.45c8.92-0.93,56.54-5.13,63.78-5.48c11.31-0.55,1.71,8.01-1.11,9.99" style="fill:none;stroke:#999;stroke-width:3"></path>
<path d="M1127.76,31.25c0.23,1.52-0.06,3.5-0.79,4.8c-4.65,8.28-10.55,15.28-21.22,25.36" style="fill:none;stroke:#999;stroke-width:3"></path>
<path d="M1121.47,47.81c0.84,0.79,1.49,2.54,1.54,3.77c0.5,10.98-0.69,42.46-0.27,48.17" style="fill:none;stroke:#999;stroke-width:3"></path>
<path d="M1151.4299999999998,29.75c0.07,0.81-0.02,1.88-0.24,2.57c-1.4,4.43-3.17,7.86-6.37,13.26" style="fill:none;stroke:#999;stroke-width:3"></path>
<path d="M1122.27,49.04c9.77-1.03,48.96-4.54,53.15-5.11" style="fill:none;stroke:#999;stroke-width:3"></path>
<path d="M1146.79,47.61c0.47,0.41,0.85,0.96,0.85,1.66c0,7.12,0.05,32.6-0.23,43.81" style="fill:none;stroke:#999;stroke-width:3"></path>
<path d="M1123.58,62.55c9.22-0.86,44.49-4.35,48.44-4.81" style="fill:none;stroke:#999;stroke-width:3"></path>
<path d="M1123.46,77.5c9.73-0.72,45.19-4.69,49.37-5.08" style="fill:none;stroke:#999;stroke-width:3"></path>
<path d="M1122.96,95.97c9.77-1.03,51.1-4.01,55.29-4.57" style="fill:none;stroke:#999;stroke-width:3"></path>

</svg>