<svg width="327px" height="109px" viewBox="0 0 327 109" xmlns="http://www.w3.org/2000/svg" xmlns:xlink="http://www.w3.org/1999/xlink" xml:space="preserve" version="1.1" baseProfile="full">
<line x1="1" y1="1" x2="326" y2="1" style="stroke:#ddd;stroke-width:2"></line>
<line x1="1" y1="1" x2="1" y2="108" style="stroke:#ddd;stroke-width:2"></line>
<line x1="1" y1="108" x2="326" y2="108" style="stroke:#ddd;stroke-width:2"></line>
<line x1="326" y1="1" x2="326" y2="108" style="stroke:#ddd;stroke-width:2"></line>
<line x1="109" y1="1" x2="109" y2="108" style="stroke:#ddd;stroke-width:2"></line>
<line x1="218" y1="1" x2="218" y2="108" style="stroke:#ddd;stroke-width:2"></line>
<line x1="1" y1="54" x2="326" y2="54" style="stroke:#ddd;stroke-width:2;stroke-dasharray:3 3"></line>
<line x1="55" y1="1" x2="55" y2="108" style="stroke:#ddd;stroke-width:2;stroke-dasharray:3 3"></line>
<line x1="164" y1="1" x2="164" y2="108" style="stroke:#ddd;stroke-width:2;stroke-dasharray:3 3"></line>
<line x1="273" y1="1" x2="273" y2="108" style="stroke:#ddd;stroke-width:2;stroke-dasharray:3 3"></line>
<path d="M11.38,40.67c3.62,1.08,8.48,0.79,11.88,0.4c21.24-2.45,43.24-4.7,63.24-6.1c3.86-0.27,8.38-0.1,11.63,0.59" style="fill:none;stroke:#999;stroke-width:3"></path>

<path d="M120.38,40.67c3.62,1.08,8.48,0.79,11.88,0.4c21.24-2.45,43.24-4.7,63.24-6.1c3.86-0.27,8.38-0.1,11.63,0.59" style="fill:none;stroke:#999;stroke-width:3"></path>
<path d="M175.26999999999998,11.83c1.08,1.08,1.76,2.42,1.76,4.52c0,20.4-0.01,69.16-0.01,74.12c0,13.28-7.52,1.78-9.71,0.25" style="fill:none;stroke:#999;stroke-width:3"></path>

<path d="M229.38,40.67c3.62,1.08,8.48,0.79,11.88,0.4c21.24-2.45,43.24-4.7,63.24-6.1c3.86-0.27,8.38-0.1,11.63,0.59" style="fill:none;stroke:#999;stroke-width:3"></path>
<path d="M284.27,11.83c1.08,1.08,1.76,2.42,1.76,4.52c0,20.4-0.01,69.16-0.01,74.12c0,13.28-7.52,1.78-9.71,0.25" style="fill:none;stroke:#999;stroke-width:3"></path>
<path d="M258.38,51.62c3.65,2.87,9.42,11.78,10.33,16.24" style="fill:none;stroke:#999;stroke-width:3"></path>

</svg>