<svg width="1308px" height="109px" viewBox="0 0 1308 109" xmlns="http://www.w3.org/2000/svg" xmlns:xlink="http://www.w3.org/1999/xlink" xml:space="preserve" version="1.1" baseProfile="full">
<line x1="1" y1="1" x2="1307" y2="1" style="stroke:#ddd;stroke-width:2"></line>
<line x1="1" y1="1" x2="1" y2="108" style="stroke:#ddd;stroke-width:2"></line>
<line x1="1" y1="108" x2="1307" y2="108" style="stroke:#ddd;stroke-width:2"></line>
<line x1="1307" y1="1" x2="1307" y2="108" style="stroke:#ddd;stroke-width:2"></line>
<line x1="109" y1="1" x2="109" y2="108" style="stroke:#ddd;stroke-width:2"></line>
<line x1="218" y1="1" x2="218" y2="108" style="stroke:#ddd;stroke-width:2"></line>
<line x1="327" y1="1" x2="327" y2="108" style="stroke:#ddd;stroke-width:2"></line>
<line x1="436" y1="1" x2="436" y2="108" style="stroke:#ddd;stroke-width:2"></line>
<line x1="545" y1="1" x2="545" y2="108" style="stroke:#ddd;stroke-width:2"></line>
<line x1="654" y1="1" x2="654" y2="108" style="stroke:#ddd;stroke-width:2"></line>
<line x1="763" y1="1" x2="763" y2="108" style="stroke:#ddd;stroke-width:2"></line>
<line x1="872" y1="1" x2="872" y2="108" style="stroke:#ddd;stroke-width:2"></line>
<line x1="981" y1="1" x2="981" y2="108" style="stroke:#ddd;stroke-width:2"></line>
<line x1="1090" y1="1" x2="1090" y2="108" style="stroke:#ddd;stroke-width:2"></line>
<line x1="1199" y1="1" x2="1199" y2="108" style="stroke:#ddd;stroke-width:2"></line>
<line x1="1" y1="54" x2="1307" y2="54" style="stroke:#ddd;stroke-width:2;stroke-dasharray:3 3"></line>
<line x1="55" y1="1" x2="55" y2="108" style="stroke:#ddd;stroke-width:2;stroke-dasharray:3 3"></line>
<line x1="164" y1="1" x2="164" y2="108" style="stroke:#ddd;stroke-width:2;stroke-dasharray:3 3"></line>
<line x1="273" y1="1" x2="273" y2="108" style="stroke:#ddd;stroke-width:2;stroke-dasharray:3 3"></line>
<line x1="382" y1="1" x2="382" y2="108" style="stroke:#ddd;stroke-width:2;stroke-dasharray:3 3"></line>
<line x1="491" y1="1" x2="491" y2="108" style="stroke:#ddd;stroke-width:2;stroke-dasharray:3 3"></line>
<line x1="600" y1="1" x2="600" y2="108" style="stroke:#ddd;stroke-width:2;stroke-dasharray:3 3"></line>
<line x1="709" y1="1" x2="709" y2="108" style="stroke:#ddd;stroke-width:2;stroke-dasharray:3 3"></line>
<line x1="818" y1="1" x2="818" y2="108" style="stroke:#ddd;stroke-width:2;stroke-dasharray:3 3"></line>
<line x1="927" y1="1" x2="927" y2="108" style="stroke:#ddd;stroke-width:2;stroke-dasharray:3 3"></line>
<line x1="1036" y1="1" x2="1036" y2="108" style="stroke:#ddd;stroke-width:2;stroke-dasharray:3 3"></line>
<line x1="1145" y1="1" x2="1145" y2="108" style="stroke:#ddd;stroke-width:2;stroke-dasharray:3 3"></line>
<line x1="1254" y1="1" x2="1254" y2="108" style="stroke:#ddd;stroke-width:2;stroke-dasharray:3 3"></line>
<path d="M32.0,10.69c3.98,1.87,10.29,7.69,11.28,10.6" style="fill:none;stroke:#999;stroke-width:3"></path>

<path d="M141.0,10.69c3.98,1.87,10.29,7.69,11.28,10.6" style="fill:none;stroke:#999;stroke-width:3"></path>
<path d="M176.48000000000002,8.46c0.05,0.85,0,1.38-0.35,2.16c-1.27,2.86-2.97,5.84-7.06,10.86" style="fill:none;stroke:#999;stroke-width:3"></path>

<path d="M250.0,10.69c3.98,1.87,10.29,7.69,11.28,10.6" style="fill:none;stroke:#999;stroke-width:3"></path>
<path d="M285.48,8.46c0.05,0.85,0,1.38-0.35,2.16c-1.27,2.86-2.97,5.84-7.06,10.86" style="fill:none;stroke:#999;stroke-width:3"></path>
<path d="M236.4,26.65c3.1,0.54,6.13,0.41,8.72,0.13c12.5-1.34,41.79-3.69,54.75-4.11c2.58-0.08,5.19-0.22,7.72,0.39" style="fill:none;stroke:#999;stroke-width:3"></path>

<path d="M359.0,10.69c3.98,1.87,10.29,7.69,11.28,10.6" style="fill:none;stroke:#999;stroke-width:3"></path>
<path d="M394.48,8.46c0.05,0.85,0,1.38-0.35,2.16c-1.27,2.86-2.97,5.84-7.06,10.86" style="fill:none;stroke:#999;stroke-width:3"></path>
<path d="M345.4,26.65c3.1,0.54,6.13,0.41,8.72,0.13c12.5-1.34,41.79-3.69,54.75-4.11c2.58-0.08,5.19-0.22,7.72,0.39" style="fill:none;stroke:#999;stroke-width:3"></path>
<path d="M356.85,36.63c0.92,0.92,1.14,2.06,1.14,3.54c0,0.56-0.01,12.88,0,21.14c0,1.69,0,3.22,0,4.43" style="fill:none;stroke:#999;stroke-width:3"></path>

<path d="M468.0,10.69c3.98,1.87,10.29,7.69,11.28,10.6" style="fill:none;stroke:#999;stroke-width:3"></path>
<path d="M503.48,8.46c0.05,0.85,0,1.38-0.35,2.16c-1.27,2.86-2.97,5.84-7.06,10.86" style="fill:none;stroke:#999;stroke-width:3"></path>
<path d="M454.4,26.65c3.1,0.54,6.13,0.41,8.72,0.13c12.5-1.34,41.79-3.69,54.75-4.11c2.58-0.08,5.19-0.22,7.72,0.39" style="fill:none;stroke:#999;stroke-width:3"></path>
<path d="M465.85,36.63c0.92,0.92,1.14,2.06,1.14,3.54c0,0.56-0.01,12.88,0,21.14c0,1.69,0,3.22,0,4.43" style="fill:none;stroke:#999;stroke-width:3"></path>
<path d="M467.82,38.31c3.66-0.12,38.87-4.25,41.98-4.33c2.59-0.07,3.94,1.15,3.94,2.67c0,0.72,0.1,13.85,0.02,22.3c-0.01,1.56-0.02,2.96-0.02,4.11" style="fill:none;stroke:#999;stroke-width:3"></path>

<path d="M577.0,10.69c3.98,1.87,10.29,7.69,11.28,10.6" style="fill:none;stroke:#999;stroke-width:3"></path>
<path d="M612.48,8.46c0.05,0.85,0,1.38-0.35,2.16c-1.27,2.86-2.97,5.84-7.06,10.86" style="fill:none;stroke:#999;stroke-width:3"></path>
<path d="M563.4,26.65c3.1,0.54,6.13,0.41,8.72,0.13c12.5-1.34,41.79-3.69,54.75-4.11c2.58-0.08,5.19-0.22,7.72,0.39" style="fill:none;stroke:#999;stroke-width:3"></path>
<path d="M574.85,36.63c0.92,0.92,1.14,2.06,1.14,3.54c0,0.56-0.01,12.88,0,21.14c0,1.69,0,3.22,0,4.43" style="fill:none;stroke:#999;stroke-width:3"></path>
<path d="M576.8199999999999,38.31c3.66-0.12,38.87-4.25,41.98-4.33c2.59-0.07,3.94,1.15,3.94,2.67c0,0.72,0.1,13.85,0.02,22.3c-0.01,1.56-0.02,2.96-0.02,4.11" style="fill:none;stroke:#999;stroke-width:3"></path>
<path d="M591.12,28.18c0.51,0.51,0.87,1.65,0.87,2.61c0,5.15-0.62,12.9-9.21,18.81" style="fill:none;stroke:#999;stroke-width:3"></path>

<path d="M686.0,10.69c3.98,1.87,10.29,7.69,11.28,10.6" style="fill:none;stroke:#999;stroke-width:3"></path>
<path d="M721.48,8.46c0.05,0.85,0,1.38-0.35,2.16c-1.27,2.86-2.97,5.84-7.06,10.86" style="fill:none;stroke:#999;stroke-width:3"></path>
<path d="M672.4,26.65c3.1,0.54,6.13,0.41,8.72,0.13c12.5-1.34,41.79-3.69,54.75-4.11c2.58-0.08,5.19-0.22,7.72,0.39" style="fill:none;stroke:#999;stroke-width:3"></path>
<path d="M683.85,36.63c0.92,0.92,1.14,2.06,1.14,3.54c0,0.56-0.01,12.88,0,21.14c0,1.69,0,3.22,0,4.43" style="fill:none;stroke:#999;stroke-width:3"></path>
<path d="M685.8199999999999,38.31c3.66-0.12,38.87-4.25,41.98-4.33c2.59-0.07,3.94,1.15,3.94,2.67c0,0.72,0.1,13.85,0.02,22.3c-0.01,1.56-0.02,2.96-0.02,4.11" style="fill:none;stroke:#999;stroke-width:3"></path>
<path d="M700.12,28.18c0.51,0.51,0.87,1.65,0.87,2.61c0,5.15-0.62,12.9-9.21,18.81" style="fill:none;stroke:#999;stroke-width:3"></path>
<path d="M711.84,26.06c0.61,0.64,1.08,1.39,1.12,2.38c0.11,3.13-0.07,7.63-0.07,11.97c0,2.29,1.11,3.77,7.45,3.77c3.65,0,7.28-0.42,7.7-0.8" style="fill:none;stroke:#999;stroke-width:3"></path>

<path d="M795.0,10.69c3.98,1.87,10.29,7.69,11.28,10.6" style="fill:none;stroke:#999;stroke-width:3"></path>
<path d="M830.48,8.46c0.05,0.85,0,1.38-0.35,2.16c-1.27,2.86-2.97,5.84-7.06,10.86" style="fill:none;stroke:#999;stroke-width:3"></path>
<path d="M781.4,26.65c3.1,0.54,6.13,0.41,8.72,0.13c12.5-1.34,41.79-3.69,54.75-4.11c2.58-0.08,5.19-0.22,7.72,0.39" style="fill:none;stroke:#999;stroke-width:3"></path>
<path d="M792.85,36.63c0.92,0.92,1.14,2.06,1.14,3.54c0,0.56-0.01,12.88,0,21.14c0,1.69,0,3.22,0,4.43" style="fill:none;stroke:#999;stroke-width:3"></path>
<path d="M794.8199999999999,38.31c3.66-0.12,38.87-4.25,41.98-4.33c2.59-0.07,3.94,1.15,3.94,2.67c0,0.72,0.1,13.85,0.02,22.3c-0.01,1.56-0.02,2.96-0.02,4.11" style="fill:none;stroke:#999;stroke-width:3"></path>
<path d="M809.12,28.18c0.51,0.51,0.87,1.65,0.87,2.61c0,5.15-0.62,12.9-9.21,18.81" style="fill:none;stroke:#999;stroke-width:3"></path>
<path d="M820.84,26.06c0.61,0.64,1.08,1.39,1.12,2.38c0.11,3.13-0.07,7.63-0.07,11.97c0,2.29,1.11,3.77,7.45,3.77c3.65,0,7.28-0.42,7.7-0.8" style="fill:none;stroke:#999;stroke-width:3"></path>
<path d="M795.12,54.71c12.26-1.02,29.01-2.02,44.39-2.66" style="fill:none;stroke:#999;stroke-width:3"></path>

<path d="M904.0,10.69c3.98,1.87,10.29,7.69,11.28,10.6" style="fill:none;stroke:#999;stroke-width:3"></path>
<path d="M939.48,8.46c0.05,0.85,0,1.38-0.35,2.16c-1.27,2.86-2.97,5.84-7.06,10.86" style="fill:none;stroke:#999;stroke-width:3"></path>
<path d="M890.4,26.65c3.1,0.54,6.13,0.41,8.72,0.13c12.5-1.34,41.79-3.69,54.75-4.11c2.58-0.08,5.19-0.22,7.72,0.39" style="fill:none;stroke:#999;stroke-width:3"></path>
<path d="M901.85,36.63c0.92,0.92,1.14,2.06,1.14,3.54c0,0.56-0.01,12.88,0,21.14c0,1.69,0,3.22,0,4.43" style="fill:none;stroke:#999;stroke-width:3"></path>
<path d="M903.8199999999999,38.31c3.66-0.12,38.87-4.25,41.98-4.33c2.59-0.07,3.94,1.15,3.94,2.67c0,0.72,0.1,13.85,0.02,22.3c-0.01,1.56-0.02,2.96-0.02,4.11" style="fill:none;stroke:#999;stroke-width:3"></path>
<path d="M918.12,28.18c0.51,0.51,0.87,1.65,0.87,2.61c0,5.15-0.62,12.9-9.21,18.81" style="fill:none;stroke:#999;stroke-width:3"></path>
<path d="M929.84,26.06c0.61,0.64,1.08,1.39,1.12,2.38c0.11,3.13-0.07,7.63-0.07,11.97c0,2.29,1.11,3.77,7.45,3.77c3.65,0,7.28-0.42,7.7-0.8" style="fill:none;stroke:#999;stroke-width:3"></path>
<path d="M904.12,54.71c12.26-1.02,29.01-2.02,44.39-2.66" style="fill:none;stroke:#999;stroke-width:3"></path>
<path d="M904.12,63.27c11.63-0.7,32.68-2.02,44.42-2.27" style="fill:none;stroke:#999;stroke-width:3"></path>

<path d="M1013.0,10.69c3.98,1.87,10.29,7.69,11.28,10.6" style="fill:none;stroke:#999;stroke-width:3"></path>
<path d="M1048.48,8.46c0.05,0.85,0,1.38-0.35,2.16c-1.27,2.86-2.97,5.84-7.06,10.86" style="fill:none;stroke:#999;stroke-width:3"></path>
<path d="M999.4,26.65c3.1,0.54,6.13,0.41,8.72,0.13c12.5-1.34,41.79-3.69,54.75-4.11c2.58-0.08,5.19-0.22,7.72,0.39" style="fill:none;stroke:#999;stroke-width:3"></path>
<path d="M1010.85,36.63c0.92,0.92,1.14,2.06,1.14,3.54c0,0.56-0.01,12.88,0,21.14c0,1.69,0,3.22,0,4.43" style="fill:none;stroke:#999;stroke-width:3"></path>
<path d="M1012.8199999999999,38.31c3.66-0.12,38.87-4.25,41.98-4.33c2.59-0.07,3.94,1.15,3.94,2.67c0,0.72,0.1,13.85,0.02,22.3c-0.01,1.56-0.02,2.96-0.02,4.11" style="fill:none;stroke:#999;stroke-width:3"></path>
<path d="M1027.12,28.18c0.51,0.51,0.87,1.65,0.87,2.61c0,5.15-0.62,12.9-9.21,18.81" style="fill:none;stroke:#999;stroke-width:3"></path>
<path d="M1038.8400000000001,26.06c0.61,0.64,1.08,1.39,1.12,2.38c0.11,3.13-0.07,7.63-0.07,11.97c0,2.29,1.11,3.77,7.45,3.77c3.65,0,7.28-0.42,7.7-0.8" style="fill:none;stroke:#999;stroke-width:3"></path>
<path d="M1013.12,54.71c12.26-1.02,29.01-2.02,44.39-2.66" style="fill:none;stroke:#999;stroke-width:3"></path>
<path d="M1013.12,63.27c11.63-0.7,32.68-2.02,44.42-2.27" style="fill:none;stroke:#999;stroke-width:3"></path>
<path d="M993.88,76.24c3.75,0.83,7.01,0.83,10.12,0.55c22-1.97,45.91-3.39,64-4.48c3.1-0.18,6.75-0.24,9.63,0.57" style="fill:none;stroke:#999;stroke-width:3"></path>

<path d="M1122.0,10.69c3.98,1.87,10.29,7.69,11.28,10.6" style="fill:none;stroke:#999;stroke-width:3"></path>
<path d="M1157.48,8.46c0.05,0.85,0,1.38-0.35,2.16c-1.27,2.86-2.97,5.84-7.06,10.86" style="fill:none;stroke:#999;stroke-width:3"></path>
<path d="M1108.4,26.65c3.1,0.54,6.13,0.41,8.72,0.13c12.5-1.34,41.79-3.69,54.75-4.11c2.58-0.08,5.19-0.22,7.72,0.39" style="fill:none;stroke:#999;stroke-width:3"></path>
<path d="M1119.85,36.63c0.92,0.92,1.14,2.06,1.14,3.54c0,0.56-0.01,12.88,0,21.14c0,1.69,0,3.22,0,4.43" style="fill:none;stroke:#999;stroke-width:3"></path>
<path d="M1121.82,38.31c3.66-0.12,38.87-4.25,41.98-4.33c2.59-0.07,3.94,1.15,3.94,2.67c0,0.72,0.1,13.85,0.02,22.3c-0.01,1.56-0.02,2.96-0.02,4.11" style="fill:none;stroke:#999;stroke-width:3"></path>
<path d="M1136.12,28.18c0.51,0.51,0.87,1.65,0.87,2.61c0,5.15-0.62,12.9-9.21,18.81" style="fill:none;stroke:#999;stroke-width:3"></path>
<path d="M1147.8400000000001,26.06c0.61,0.64,1.08,1.39,1.12,2.38c0.11,3.13-0.07,7.63-0.07,11.97c0,2.29,1.11,3.77,7.45,3.77c3.65,0,7.28-0.42,7.7-0.8" style="fill:none;stroke:#999;stroke-width:3"></path>
<path d="M1122.12,54.71c12.26-1.02,29.01-2.02,44.39-2.66" style="fill:none;stroke:#999;stroke-width:3"></path>
<path d="M1122.12,63.27c11.63-0.7,32.68-2.02,44.42-2.27" style="fill:none;stroke:#999;stroke-width:3"></path>
<path d="M1102.88,76.24c3.75,0.83,7.01,0.83,10.12,0.55c22-1.97,45.91-3.39,64-4.48c3.1-0.18,6.75-0.24,9.63,0.57" style="fill:none;stroke:#999;stroke-width:3"></path>
<path d="M1157.78,65.65c0.94,0.94,1.51,2.42,1.51,4.18c0,8.48,0.04,21.35,0.04,25.34c0,9.67-6.04,1.43-7.8,0.2" style="fill:none;stroke:#999;stroke-width:3"></path>

<path d="M1231.0,10.69c3.98,1.87,10.29,7.69,11.28,10.6" style="fill:none;stroke:#999;stroke-width:3"></path>
<path d="M1266.48,8.46c0.05,0.85,0,1.38-0.35,2.16c-1.27,2.86-2.97,5.84-7.06,10.86" style="fill:none;stroke:#999;stroke-width:3"></path>
<path d="M1217.4,26.65c3.1,0.54,6.13,0.41,8.72,0.13c12.5-1.34,41.79-3.69,54.75-4.11c2.58-0.08,5.19-0.22,7.72,0.39" style="fill:none;stroke:#999;stroke-width:3"></path>
<path d="M1228.85,36.63c0.92,0.92,1.14,2.06,1.14,3.54c0,0.56-0.01,12.88,0,21.14c0,1.69,0,3.22,0,4.43" style="fill:none;stroke:#999;stroke-width:3"></path>
<path d="M1230.82,38.31c3.66-0.12,38.87-4.25,41.98-4.33c2.59-0.07,3.94,1.15,3.94,2.67c0,0.72,0.1,13.85,0.02,22.3c-0.01,1.56-0.02,2.96-0.02,4.11" style="fill:none;stroke:#999;stroke-width:3"></path>
<path d="M1245.12,28.18c0.51,0.51,0.87,1.65,0.87,2.61c0,5.15-0.62,12.9-9.21,18.81" style="fill:none;stroke:#999;stroke-width:3"></path>
<path d="M1256.8400000000001,26.06c0.61,0.64,1.08,1.39,1.12,2.38c0.11,3.13-0.07,7.63-0.07,11.97c0,2.29,1.11,3.77,7.45,3.77c3.65,0,7.28-0.42,7.7-0.8" style="fill:none;stroke:#999;stroke-width:3"></path>
<path d="M1231.12,54.71c12.26-1.02,29.01-2.02,44.39-2.66" style="fill:none;stroke:#999;stroke-width:3"></path>
<path d="M1231.12,63.27c11.63-0.7,32.68-2.02,44.42-2.27" style="fill:none;stroke:#999;stroke-width:3"></path>
<path d="M1211.88,76.24c3.75,0.83,7.01,0.83,10.12,0.55c22-1.97,45.91-3.39,64-4.48c3.1-0.18,6.75-0.24,9.63,0.57" style="fill:none;stroke:#999;stroke-width:3"></path>
<path d="M1266.78,65.65c0.94,0.94,1.51,2.42,1.51,4.18c0,8.48,0.04,21.35,0.04,25.34c0,9.67-6.04,1.43-7.8,0.2" style="fill:none;stroke:#999;stroke-width:3"></path>
<path d="M1236.46,80.68c3.53,1.81,9.12,7.44,10,10.25" style="fill:none;stroke:#999;stroke-width:3"></path>

</svg>