<svg width="872px" height="109px" viewBox="0 0 872 109" xmlns="http://www.w3.org/2000/svg" xmlns:xlink="http://www.w3.org/1999/xlink" xml:space="preserve" version="1.1" baseProfile="full">
<line x1="1" y1="1" x2="871" y2="1" style="stroke:#ddd;stroke-width:2"></line>
<line x1="1" y1="1" x2="1" y2="108" style="stroke:#ddd;stroke-width:2"></line>
<line x1="1" y1="108" x2="871" y2="108" style="stroke:#ddd;stroke-width:2"></line>
<line x1="871" y1="1" x2="871" y2="108" style="stroke:#ddd;stroke-width:2"></line>
<line x1="109" y1="1" x2="109" y2="108" style="stroke:#ddd;stroke-width:2"></line>
<line x1="218" y1="1" x2="218" y2="108" style="stroke:#ddd;stroke-width:2"></line>
<line x1="327" y1="1" x2="327" y2="108" style="stroke:#ddd;stroke-width:2"></line>
<line x1="436" y1="1" x2="436" y2="108" style="stroke:#ddd;stroke-width:2"></line>
<line x1="545" y1="1" x2="545" y2="108" style="stroke:#ddd;stroke-width:2"></line>
<line x1="654" y1="1" x2="654" y2="108" style="stroke:#ddd;stroke-width:2"></line>
<line x1="763" y1="1" x2="763" y2="108" style="stroke:#ddd;stroke-width:2"></line>
<line x1="1" y1="54" x2="871" y2="54" style="stroke:#ddd;stroke-width:2;stroke-dasharray:3 3"></line>
<line x1="55" y1="1" x2="55" y2="108" style="stroke:#ddd;stroke-width:2;stroke-dasharray:3 3"></line>
<line x1="164" y1="1" x2="164" y2="108" style="stroke:#ddd;stroke-width:2;stroke-dasharray:3 3"></line>
<line x1="273" y1="1" x2="273" y2="108" style="stroke:#ddd;stroke-width:2;stroke-dasharray:3 3"></line>
<line x1="382" y1="1" x2="382" y2="108" style="stroke:#ddd;stroke-width:2;stroke-dasharray:3 3"></line>
<line x1="491" y1="1" x2="491" y2="108" style="stroke:#ddd;stroke-width:2;stroke-dasharray:3 3"></line>
<line x1="600" y1="1" x2="600" y2="108" style="stroke:#ddd;stroke-width:2;stroke-dasharray:3 3"></line>
<line x1="709" y1="1" x2="709" y2="108" style="stroke:#ddd;stroke-width:2;stroke-dasharray:3 3"></line>
<line x1="818" y1="1" x2="818" y2="108" style="stroke:#ddd;stroke-width:2;stroke-dasharray:3 3"></line>
<path d="M26.38,25.82c2.64,0.78,5.56,0.44,8.24,0.1c10.26-1.3,28.12-3.15,39.64-3.63c2.8-0.12,5.61-0.2,8.38,0.29" style="fill:none;stroke:#999;stroke-width:3"></path>

<path d="M135.38,25.82c2.64,0.78,5.56,0.44,8.24,0.1c10.26-1.3,28.12-3.15,39.64-3.63c2.8-0.12,5.61-0.2,8.38,0.29" style="fill:none;stroke:#999;stroke-width:3"></path>
<path d="M161.62,10.88c1.06,1.06,1.44,2.74,1.44,4.65c0,0.89,0.03,21.59,0.03,28.35" style="fill:none;stroke:#999;stroke-width:3"></path>

<path d="M244.38,25.82c2.64,0.78,5.56,0.44,8.24,0.1c10.26-1.3,28.12-3.15,39.64-3.63c2.8-0.12,5.61-0.2,8.38,0.29" style="fill:none;stroke:#999;stroke-width:3"></path>
<path d="M270.62,10.88c1.06,1.06,1.44,2.74,1.44,4.65c0,0.89,0.03,21.59,0.03,28.35" style="fill:none;stroke:#999;stroke-width:3"></path>
<path d="M236.0,47.02c3.88,0.73,7.44,0.57,11.01,0.23c13.63-1.28,35.62-3.91,54.24-4.36c3.22-0.08,6.11-0.13,9.25,0.64" style="fill:none;stroke:#999;stroke-width:3"></path>

<path d="M353.38,25.82c2.64,0.78,5.56,0.44,8.24,0.1c10.26-1.3,28.12-3.15,39.64-3.63c2.8-0.12,5.61-0.2,8.38,0.29" style="fill:none;stroke:#999;stroke-width:3"></path>
<path d="M379.62,10.88c1.06,1.06,1.44,2.74,1.44,4.65c0,0.89,0.03,21.59,0.03,28.35" style="fill:none;stroke:#999;stroke-width:3"></path>
<path d="M345.0,47.02c3.88,0.73,7.44,0.57,11.01,0.23c13.63-1.28,35.62-3.91,54.24-4.36c3.22-0.08,6.11-0.13,9.25,0.64" style="fill:none;stroke:#999;stroke-width:3"></path>
<path d="M361.75,35.25c1.06,1.06,1.5,2.12,1.6,3.53c0.68,9.51,1.4,18.97,1.9,25.72" style="fill:none;stroke:#999;stroke-width:3"></path>

<path d="M462.38,25.82c2.64,0.78,5.56,0.44,8.24,0.1c10.26-1.3,28.12-3.15,39.64-3.63c2.8-0.12,5.61-0.2,8.38,0.29" style="fill:none;stroke:#999;stroke-width:3"></path>
<path d="M488.62,10.88c1.06,1.06,1.44,2.74,1.44,4.65c0,0.89,0.03,21.59,0.03,28.35" style="fill:none;stroke:#999;stroke-width:3"></path>
<path d="M454.0,47.02c3.88,0.73,7.44,0.57,11.01,0.23c13.63-1.28,35.62-3.91,54.24-4.36c3.22-0.08,6.11-0.13,9.25,0.64" style="fill:none;stroke:#999;stroke-width:3"></path>
<path d="M470.75,35.25c1.06,1.06,1.5,2.12,1.6,3.53c0.68,9.51,1.4,18.97,1.9,25.72" style="fill:none;stroke:#999;stroke-width:3"></path>
<path d="M508.18,32c0.7,1.25,0.61,2.58,0.44,4.4C507.59000000000003,47.09,507.12,51.94,506.0,62" style="fill:none;stroke:#999;stroke-width:3"></path>

<path d="M571.38,25.82c2.64,0.78,5.56,0.44,8.24,0.1c10.26-1.3,28.12-3.15,39.64-3.63c2.8-0.12,5.61-0.2,8.38,0.29" style="fill:none;stroke:#999;stroke-width:3"></path>
<path d="M597.62,10.88c1.06,1.06,1.44,2.74,1.44,4.65c0,0.89,0.03,21.59,0.03,28.35" style="fill:none;stroke:#999;stroke-width:3"></path>
<path d="M563.0,47.02c3.88,0.73,7.44,0.57,11.01,0.23c13.63-1.28,35.62-3.91,54.24-4.36c3.22-0.08,6.11-0.13,9.25,0.64" style="fill:none;stroke:#999;stroke-width:3"></path>
<path d="M579.75,35.25c1.06,1.06,1.5,2.12,1.6,3.53c0.68,9.51,1.4,18.97,1.9,25.72" style="fill:none;stroke:#999;stroke-width:3"></path>
<path d="M617.1800000000001,32c0.7,1.25,0.61,2.58,0.44,4.4C616.59,47.09,616.12,51.94,615.0,62" style="fill:none;stroke:#999;stroke-width:3"></path>
<path d="M570.0,65.52c2.38,0.61,5.96,0.48,8.75,0.11C591.0,64,607.12,62.5,621.38,61.94c2.84-0.11,5.59,0.15,8.38,0.83" style="fill:none;stroke:#999;stroke-width:3"></path>

<path d="M680.38,25.82c2.64,0.78,5.56,0.44,8.24,0.1c10.26-1.3,28.12-3.15,39.64-3.63c2.8-0.12,5.61-0.2,8.38,0.29" style="fill:none;stroke:#999;stroke-width:3"></path>
<path d="M706.62,10.88c1.06,1.06,1.44,2.74,1.44,4.65c0,0.89,0.03,21.59,0.03,28.35" style="fill:none;stroke:#999;stroke-width:3"></path>
<path d="M672.0,47.02c3.88,0.73,7.44,0.57,11.01,0.23c13.63-1.28,35.62-3.91,54.24-4.36c3.22-0.08,6.11-0.13,9.25,0.64" style="fill:none;stroke:#999;stroke-width:3"></path>
<path d="M688.75,35.25c1.06,1.06,1.5,2.12,1.6,3.53c0.68,9.51,1.4,18.97,1.9,25.72" style="fill:none;stroke:#999;stroke-width:3"></path>
<path d="M726.1800000000001,32c0.7,1.25,0.61,2.58,0.44,4.4C725.59,47.09,725.12,51.94,724.0,62" style="fill:none;stroke:#999;stroke-width:3"></path>
<path d="M679.0,65.52c2.38,0.61,5.96,0.48,8.75,0.11C700.0,64,716.12,62.5,730.38,61.94c2.84-0.11,5.59,0.15,8.38,0.83" style="fill:none;stroke:#999;stroke-width:3"></path>
<path d="M697.85,68.77c0.12,1.24-0.24,2.75-0.84,3.83c-3.39,6.15-11.14,17.52-24.1,24.32" style="fill:none;stroke:#999;stroke-width:3"></path>

<path d="M789.38,25.82c2.64,0.78,5.56,0.44,8.24,0.1c10.26-1.3,28.12-3.15,39.64-3.63c2.8-0.12,5.61-0.2,8.38,0.29" style="fill:none;stroke:#999;stroke-width:3"></path>
<path d="M815.62,10.88c1.06,1.06,1.44,2.74,1.44,4.65c0,0.89,0.03,21.59,0.03,28.35" style="fill:none;stroke:#999;stroke-width:3"></path>
<path d="M781.0,47.02c3.88,0.73,7.44,0.57,11.01,0.23c13.63-1.28,35.62-3.91,54.24-4.36c3.22-0.08,6.11-0.13,9.25,0.64" style="fill:none;stroke:#999;stroke-width:3"></path>
<path d="M797.75,35.25c1.06,1.06,1.5,2.12,1.6,3.53c0.68,9.51,1.4,18.97,1.9,25.72" style="fill:none;stroke:#999;stroke-width:3"></path>
<path d="M835.1800000000001,32c0.7,1.25,0.61,2.58,0.44,4.4C834.59,47.09,834.12,51.94,833.0,62" style="fill:none;stroke:#999;stroke-width:3"></path>
<path d="M788.0,65.52c2.38,0.61,5.96,0.48,8.75,0.11C809.0,64,825.12,62.5,839.38,61.94c2.84-0.11,5.59,0.15,8.38,0.83" style="fill:none;stroke:#999;stroke-width:3"></path>
<path d="M806.85,68.77c0.12,1.24-0.24,2.75-0.84,3.83c-3.39,6.15-11.14,17.52-24.1,24.32" style="fill:none;stroke:#999;stroke-width:3"></path>
<path d="M823.73,66.62c0.83,0.83,0.93,2.04,0.93,3.48c0,6.52,0.05,12.7,0.05,17.09c0,7.44,1.67,9.07,16.19,9.07c13.23,0,15.49-2.01,15.49-7.68" style="fill:none;stroke:#999;stroke-width:3"></path>

</svg>