<svg width="1090px" height="109px" viewBox="0 0 1090 109" xmlns="http://www.w3.org/2000/svg" xmlns:xlink="http://www.w3.org/1999/xlink" xml:space="preserve" version="1.1" baseProfile="full">
<line x1="1" y1="1" x2="1089" y2="1" style="stroke:#ddd;stroke-width:2"></line>
<line x1="1" y1="1" x2="1" y2="108" style="stroke:#ddd;stroke-width:2"></line>
<line x1="1" y1="108" x2="1089" y2="108" style="stroke:#ddd;stroke-width:2"></line>
<line x1="1089" y1="1" x2="1089" y2="108" style="stroke:#ddd;stroke-width:2"></line>
<line x1="109" y1="1" x2="109" y2="108" style="stroke:#ddd;stroke-width:2"></line>
<line x1="218" y1="1" x2="218" y2="108" style="stroke:#ddd;stroke-width:2"></line>
<line x1="327" y1="1" x2="327" y2="108" style="stroke:#ddd;stroke-width:2"></line>
<line x1="436" y1="1" x2="436" y2="108" style="stroke:#ddd;stroke-width:2"></line>
<line x1="545" y1="1" x2="545" y2="108" style="stroke:#ddd;stroke-width:2"></line>
<line x1="654" y1="1" x2="654" y2="108" style="stroke:#ddd;stroke-width:2"></line>
<line x1="763" y1="1" x2="763" y2="108" style="stroke:#ddd;stroke-width:2"></line>
<line x1="872" y1="1" x2="872" y2="108" style="stroke:#ddd;stroke-width:2"></line>
<line x1="981" y1="1" x2="981" y2="108" style="stroke:#ddd;stroke-width:2"></line>
<line x1="1" y1="54" x2="1089" y2="54" style="stroke:#ddd;stroke-width:2;stroke-dasharray:3 3"></line>
<line x1="55" y1="1" x2="55" y2="108" style="stroke:#ddd;stroke-width:2;stroke-dasharray:3 3"></line>
<line x1="164" y1="1" x2="164" y2="108" style="stroke:#ddd;stroke-width:2;stroke-dasharray:3 3"></line>
<line x1="273" y1="1" x2="273" y2="108" style="stroke:#ddd;stroke-width:2;stroke-dasharray:3 3"></line>
<line x1="382" y1="1" x2="382" y2="108" style="stroke:#ddd;stroke-width:2;stroke-dasharray:3 3"></line>
<line x1="491" y1="1" x2="491" y2="108" style="stroke:#ddd;stroke-width:2;stroke-dasharray:3 3"></line>
<line x1="600" y1="1" x2="600" y2="108" style="stroke:#ddd;stroke-width:2;stroke-dasharray:3 3"></line>
<line x1="709" y1="1" x2="709" y2="108" style="stroke:#ddd;stroke-width:2;stroke-dasharray:3 3"></line>
<line x1="818" y1="1" x2="818" y2="108" style="stroke:#ddd;stroke-width:2;stroke-dasharray:3 3"></line>
<line x1="927" y1="1" x2="927" y2="108" style="stroke:#ddd;stroke-width:2;stroke-dasharray:3 3"></line>
<line x1="1036" y1="1" x2="1036" y2="108" style="stroke:#ddd;stroke-width:2;stroke-dasharray:3 3"></line>
<path d="M26.68,15.65c1.91,0.73,4.13,0.88,6.16,0.73c10.97-0.81,44.66-4.13,49.03-4.73c2.88-0.4,3.63,1.1,3.13,3.97c-0.63,3.61-2.5,5.63-3.37,9.94" style="fill:none;stroke:#999;stroke-width:3"></path>

<path d="M135.68,15.65c1.91,0.73,4.13,0.88,6.16,0.73c10.97-0.81,44.66-4.13,49.03-4.73c2.88-0.4,3.63,1.1,3.13,3.97c-0.63,3.61-2.5,5.63-3.37,9.94" style="fill:none;stroke:#999;stroke-width:3"></path>
<path d="M140.9,30.17c5.5-0.24,45.67-4.13,51.41-4.37" style="fill:none;stroke:#999;stroke-width:3"></path>

<path d="M244.68,15.65c1.91,0.73,4.13,0.88,6.16,0.73c10.97-0.81,44.66-4.13,49.03-4.73c2.88-0.4,3.63,1.1,3.13,3.97c-0.63,3.61-2.5,5.63-3.37,9.94" style="fill:none;stroke:#999;stroke-width:3"></path>
<path d="M249.9,30.17c5.5-0.24,45.67-4.13,51.41-4.37" style="fill:none;stroke:#999;stroke-width:3"></path>
<path d="M249.07999999999998,17.33c0,3.84-0.31,15.03-0.79,18.61C245.54,56.28,243.52,72.4,230.0,87" style="fill:none;stroke:#999;stroke-width:3"></path>

<path d="M353.68,15.65c1.91,0.73,4.13,0.88,6.16,0.73c10.97-0.81,44.66-4.13,49.03-4.73c2.88-0.4,3.63,1.1,3.13,3.97c-0.63,3.61-2.5,5.63-3.37,9.94" style="fill:none;stroke:#999;stroke-width:3"></path>
<path d="M358.9,30.17c5.5-0.24,45.67-4.13,51.41-4.37" style="fill:none;stroke:#999;stroke-width:3"></path>
<path d="M358.08,17.33c0,3.84-0.31,15.03-0.79,18.61C354.53999999999996,56.28,352.52,72.4,339.0,87" style="fill:none;stroke:#999;stroke-width:3"></path>
<path d="M386.81,31.58c0.14,0.29,1.99,1.53,1.99,3.39c0,6.37,0.11,12.92,0.11,15.96" style="fill:none;stroke:#999;stroke-width:3"></path>

<path d="M462.68,15.65c1.91,0.73,4.13,0.88,6.16,0.73c10.97-0.81,44.66-4.13,49.03-4.73c2.88-0.4,3.63,1.1,3.13,3.97c-0.63,3.61-2.5,5.63-3.37,9.94" style="fill:none;stroke:#999;stroke-width:3"></path>
<path d="M467.9,30.17c5.5-0.24,45.67-4.13,51.41-4.37" style="fill:none;stroke:#999;stroke-width:3"></path>
<path d="M467.08,17.33c0,3.84-0.31,15.03-0.79,18.61C463.53999999999996,56.28,461.52,72.4,448.0,87" style="fill:none;stroke:#999;stroke-width:3"></path>
<path d="M495.81,31.58c0.14,0.29,1.99,1.53,1.99,3.39c0,6.37,0.11,12.92,0.11,15.96" style="fill:none;stroke:#999;stroke-width:3"></path>
<path d="M484.38,34.04c0.03,0.36,0.07,0.93-0.07,1.46c-0.82,3.07-5.75,9.73-10.24,13.12" style="fill:none;stroke:#999;stroke-width:3"></path>

<path d="M571.6800000000001,15.65c1.91,0.73,4.13,0.88,6.16,0.73c10.97-0.81,44.66-4.13,49.03-4.73c2.88-0.4,3.63,1.1,3.13,3.97c-0.63,3.61-2.5,5.63-3.37,9.94" style="fill:none;stroke:#999;stroke-width:3"></path>
<path d="M576.9,30.17c5.5-0.24,45.67-4.13,51.41-4.37" style="fill:none;stroke:#999;stroke-width:3"></path>
<path d="M576.0799999999999,17.33c0,3.84-0.31,15.03-0.79,18.61C572.54,56.28,570.52,72.4,557.0,87" style="fill:none;stroke:#999;stroke-width:3"></path>
<path d="M604.81,31.58c0.14,0.29,1.99,1.53,1.99,3.39c0,6.37,0.11,12.92,0.11,15.96" style="fill:none;stroke:#999;stroke-width:3"></path>
<path d="M593.38,34.04c0.03,0.36,0.07,0.93-0.07,1.46c-0.82,3.07-5.75,9.73-10.24,13.12" style="fill:none;stroke:#999;stroke-width:3"></path>
<path d="M617.53,33.33c5.24,2.58,11.86,8.79,13.17,12.81" style="fill:none;stroke:#999;stroke-width:3"></path>

<path d="M680.6800000000001,15.65c1.91,0.73,4.13,0.88,6.16,0.73c10.97-0.81,44.66-4.13,49.03-4.73c2.88-0.4,3.63,1.1,3.13,3.97c-0.63,3.61-2.5,5.63-3.37,9.94" style="fill:none;stroke:#999;stroke-width:3"></path>
<path d="M685.9,30.17c5.5-0.24,45.67-4.13,51.41-4.37" style="fill:none;stroke:#999;stroke-width:3"></path>
<path d="M685.0799999999999,17.33c0,3.84-0.31,15.03-0.79,18.61C681.54,56.28,679.52,72.4,666.0,87" style="fill:none;stroke:#999;stroke-width:3"></path>
<path d="M713.81,31.58c0.14,0.29,1.99,1.53,1.99,3.39c0,6.37,0.11,12.92,0.11,15.96" style="fill:none;stroke:#999;stroke-width:3"></path>
<path d="M702.38,34.04c0.03,0.36,0.07,0.93-0.07,1.46c-0.82,3.07-5.75,9.73-10.24,13.12" style="fill:none;stroke:#999;stroke-width:3"></path>
<path d="M726.53,33.33c5.24,2.58,11.86,8.79,13.17,12.81" style="fill:none;stroke:#999;stroke-width:3"></path>
<path d="M694.33,51.87c0.85,0.83,1.42,1.66,1.7,2.49c0.28,0.83,0.4,42.98,0.28,44.84" style="fill:none;stroke:#999;stroke-width:3"></path>

<path d="M789.6800000000001,15.65c1.91,0.73,4.13,0.88,6.16,0.73c10.97-0.81,44.66-4.13,49.03-4.73c2.88-0.4,3.63,1.1,3.13,3.97c-0.63,3.61-2.5,5.63-3.37,9.94" style="fill:none;stroke:#999;stroke-width:3"></path>
<path d="M794.9,30.17c5.5-0.24,45.67-4.13,51.41-4.37" style="fill:none;stroke:#999;stroke-width:3"></path>
<path d="M794.0799999999999,17.33c0,3.84-0.31,15.03-0.79,18.61C790.54,56.28,788.52,72.4,775.0,87" style="fill:none;stroke:#999;stroke-width:3"></path>
<path d="M822.81,31.58c0.14,0.29,1.99,1.53,1.99,3.39c0,6.37,0.11,12.92,0.11,15.96" style="fill:none;stroke:#999;stroke-width:3"></path>
<path d="M811.38,34.04c0.03,0.36,0.07,0.93-0.07,1.46c-0.82,3.07-5.75,9.73-10.24,13.12" style="fill:none;stroke:#999;stroke-width:3"></path>
<path d="M835.53,33.33c5.24,2.58,11.86,8.79,13.17,12.81" style="fill:none;stroke:#999;stroke-width:3"></path>
<path d="M803.33,51.87c0.85,0.83,1.42,1.66,1.7,2.49c0.28,0.83,0.4,42.98,0.28,44.84" style="fill:none;stroke:#999;stroke-width:3"></path>
<path d="M804.92,53.09c2.97-0.18,32.18-2.88,34.39-3.08c3.96-0.36,4.94,2.29,4.94,3.44c0,7.81-0.24,24.19-0.24,38.86c0,8.79-6.67,2.02-8.9,0.75" style="fill:none;stroke:#999;stroke-width:3"></path>

<path d="M898.6800000000001,15.65c1.91,0.73,4.13,0.88,6.16,0.73c10.97-0.81,44.66-4.13,49.03-4.73c2.88-0.4,3.63,1.1,3.13,3.97c-0.63,3.61-2.5,5.63-3.37,9.94" style="fill:none;stroke:#999;stroke-width:3"></path>
<path d="M903.9,30.17c5.5-0.24,45.67-4.13,51.41-4.37" style="fill:none;stroke:#999;stroke-width:3"></path>
<path d="M903.0799999999999,17.33c0,3.84-0.31,15.03-0.79,18.61C899.54,56.28,897.52,72.4,884.0,87" style="fill:none;stroke:#999;stroke-width:3"></path>
<path d="M931.81,31.58c0.14,0.29,1.99,1.53,1.99,3.39c0,6.37,0.11,12.92,0.11,15.96" style="fill:none;stroke:#999;stroke-width:3"></path>
<path d="M920.38,34.04c0.03,0.36,0.07,0.93-0.07,1.46c-0.82,3.07-5.75,9.73-10.24,13.12" style="fill:none;stroke:#999;stroke-width:3"></path>
<path d="M944.53,33.33c5.24,2.58,11.86,8.79,13.17,12.81" style="fill:none;stroke:#999;stroke-width:3"></path>
<path d="M912.33,51.87c0.85,0.83,1.42,1.66,1.7,2.49c0.28,0.83,0.4,42.98,0.28,44.84" style="fill:none;stroke:#999;stroke-width:3"></path>
<path d="M913.92,53.09c2.97-0.18,32.18-2.88,34.39-3.08c3.96-0.36,4.94,2.29,4.94,3.44c0,7.81-0.24,24.19-0.24,38.86c0,8.79-6.67,2.02-8.9,0.75" style="fill:none;stroke:#999;stroke-width:3"></path>
<path d="M915.42,65c10.14-1.09,28.2-2.13,37.1-2.67" style="fill:none;stroke:#999;stroke-width:3"></path>

<path d="M1007.6800000000001,15.65c1.91,0.73,4.13,0.88,6.16,0.73c10.97-0.81,44.66-4.13,49.03-4.73c2.88-0.4,3.63,1.1,3.13,3.97c-0.63,3.61-2.5,5.63-3.37,9.94" style="fill:none;stroke:#999;stroke-width:3"></path>
<path d="M1012.9,30.17c5.5-0.24,45.67-4.13,51.41-4.37" style="fill:none;stroke:#999;stroke-width:3"></path>
<path d="M1012.0799999999999,17.33c0,3.84-0.31,15.03-0.79,18.61C1008.54,56.28,1006.52,72.4,993.0,87" style="fill:none;stroke:#999;stroke-width:3"></path>
<path d="M1040.81,31.58c0.14,0.29,1.99,1.53,1.99,3.39c0,6.37,0.11,12.92,0.11,15.96" style="fill:none;stroke:#999;stroke-width:3"></path>
<path d="M1029.38,34.04c0.03,0.36,0.07,0.93-0.07,1.46c-0.82,3.07-5.75,9.73-10.24,13.12" style="fill:none;stroke:#999;stroke-width:3"></path>
<path d="M1053.53,33.33c5.24,2.58,11.86,8.79,13.17,12.81" style="fill:none;stroke:#999;stroke-width:3"></path>
<path d="M1021.33,51.87c0.85,0.83,1.42,1.66,1.7,2.49c0.28,0.83,0.4,42.98,0.28,44.84" style="fill:none;stroke:#999;stroke-width:3"></path>
<path d="M1022.92,53.09c2.97-0.18,32.18-2.88,34.39-3.08c3.96-0.36,4.94,2.29,4.94,3.44c0,7.81-0.24,24.19-0.24,38.86c0,8.79-6.67,2.02-8.9,0.75" style="fill:none;stroke:#999;stroke-width:3"></path>
<path d="M1024.42,65c10.14-1.09,28.2-2.13,37.1-2.67" style="fill:none;stroke:#999;stroke-width:3"></path>
<path d="M1023.68,77.07c7.91-0.54,29.21-1.81,38.35-2.17" style="fill:none;stroke:#999;stroke-width:3"></path>

</svg>