<svg width="327px" height="109px" viewBox="0 0 327 109" xmlns="http://www.w3.org/2000/svg" xmlns:xlink="http://www.w3.org/1999/xlink" xml:space="preserve" version="1.1" baseProfile="full">
<line x1="1" y1="1" x2="326" y2="1" style="stroke:#ddd;stroke-width:2"></line>
<line x1="1" y1="1" x2="1" y2="108" style="stroke:#ddd;stroke-width:2"></line>
<line x1="1" y1="108" x2="326" y2="108" style="stroke:#ddd;stroke-width:2"></line>
<line x1="326" y1="1" x2="326" y2="108" style="stroke:#ddd;stroke-width:2"></line>
<line x1="109" y1="1" x2="109" y2="108" style="stroke:#ddd;stroke-width:2"></line>
<line x1="218" y1="1" x2="218" y2="108" style="stroke:#ddd;stroke-width:2"></line>
<line x1="1" y1="54" x2="326" y2="54" style="stroke:#ddd;stroke-width:2;stroke-dasharray:3 3"></line>
<line x1="55" y1="1" x2="55" y2="108" style="stroke:#ddd;stroke-width:2;stroke-dasharray:3 3"></line>
<line x1="164" y1="1" x2="164" y2="108" style="stroke:#ddd;stroke-width:2;stroke-dasharray:3 3"></line>
<line x1="273" y1="1" x2="273" y2="108" style="stroke:#ddd;stroke-width:2;stroke-dasharray:3 3"></line>
<path d="M52.49,15.5c1.38,1.38,2.26,3.5,2.26,5.75c0,0.75-0.22,58.3-0.25,59.25" style="fill:none;stroke:#999;stroke-width:3"></path>

<path d="M161.49,15.5c1.38,1.38,2.26,3.5,2.26,5.75c0,0.75-0.22,58.3-0.25,59.25" style="fill:none;stroke:#999;stroke-width:3"></path>
<path d="M130.49,54.5c0.88,0.88,1.39,2.25,1.26,3.75c-0.58,6.99-1,16-2.5,23c-0.7,3.26,0.11,4,2,3.75c17-2.25,47.12-5.12,65.5-6" style="fill:none;stroke:#999;stroke-width:3"></path>

<path d="M270.49,15.5c1.38,1.38,2.26,3.5,2.26,5.75c0,0.75-0.22,58.3-0.25,59.25" style="fill:none;stroke:#999;stroke-width:3"></path>
<path d="M239.49,54.5c0.88,0.88,1.39,2.25,1.26,3.75c-0.58,6.99-1,16-2.5,23c-0.7,3.26,0.11,4,2,3.75c17-2.25,47.12-5.12,65.5-6" style="fill:none;stroke:#999;stroke-width:3"></path>
<path d="M307.24,49c0.94,0.94,1.64,2.38,1.51,4.25c-0.25,3.68-1.83,20.3-2.55,28.77c-0.22,2.64-0.39,4.51-0.45,4.98" style="fill:none;stroke:#999;stroke-width:3"></path>

</svg>