<svg width="872px" height="109px" viewBox="0 0 872 109" xmlns="http://www.w3.org/2000/svg" xmlns:xlink="http://www.w3.org/1999/xlink" xml:space="preserve" version="1.1" baseProfile="full">
<line x1="1" y1="1" x2="871" y2="1" style="stroke:#ddd;stroke-width:2"></line>
<line x1="1" y1="1" x2="1" y2="108" style="stroke:#ddd;stroke-width:2"></line>
<line x1="1" y1="108" x2="871" y2="108" style="stroke:#ddd;stroke-width:2"></line>
<line x1="871" y1="1" x2="871" y2="108" style="stroke:#ddd;stroke-width:2"></line>
<line x1="109" y1="1" x2="109" y2="108" style="stroke:#ddd;stroke-width:2"></line>
<line x1="218" y1="1" x2="218" y2="108" style="stroke:#ddd;stroke-width:2"></line>
<line x1="327" y1="1" x2="327" y2="108" style="stroke:#ddd;stroke-width:2"></line>
<line x1="436" y1="1" x2="436" y2="108" style="stroke:#ddd;stroke-width:2"></line>
<line x1="545" y1="1" x2="545" y2="108" style="stroke:#ddd;stroke-width:2"></line>
<line x1="654" y1="1" x2="654" y2="108" style="stroke:#ddd;stroke-width:2"></line>
<line x1="763" y1="1" x2="763" y2="108" style="stroke:#ddd;stroke-width:2"></line>
<line x1="1" y1="54" x2="871" y2="54" style="stroke:#ddd;stroke-width:2;stroke-dasharray:3 3"></line>
<line x1="55" y1="1" x2="55" y2="108" style="stroke:#ddd;stroke-width:2;stroke-dasharray:3 3"></line>
<line x1="164" y1="1" x2="164" y2="108" style="stroke:#ddd;stroke-width:2;stroke-dasharray:3 3"></line>
<line x1="273" y1="1" x2="273" y2="108" style="stroke:#ddd;stroke-width:2;stroke-dasharray:3 3"></line>
<line x1="382" y1="1" x2="382" y2="108" style="stroke:#ddd;stroke-width:2;stroke-dasharray:3 3"></line>
<line x1="491" y1="1" x2="491" y2="108" style="stroke:#ddd;stroke-width:2;stroke-dasharray:3 3"></line>
<line x1="600" y1="1" x2="600" y2="108" style="stroke:#ddd;stroke-width:2;stroke-dasharray:3 3"></line>
<line x1="709" y1="1" x2="709" y2="108" style="stroke:#ddd;stroke-width:2;stroke-dasharray:3 3"></line>
<line x1="818" y1="1" x2="818" y2="108" style="stroke:#ddd;stroke-width:2;stroke-dasharray:3 3"></line>
<path d="M25.2,16.75c0.61,0.36,2.01,2.69,2.01,3.42c0,7.55,0.25,42.97,0.25,52.65" style="fill:none;stroke:#999;stroke-width:3"></path>

<path d="M134.2,16.75c0.61,0.36,2.01,2.69,2.01,3.42c0,7.55,0.25,42.97,0.25,52.65" style="fill:none;stroke:#999;stroke-width:3"></path>
<path d="M121.03999999999999,43.1c0.73,0.43,1.51,2.26,1.45,3.13c-0.41,6,0.14,19.22-1.31,28.25c-0.31,1.96,0.21,2.41,1.98,1.97c10.07-2.51,14.1-3.6,26.33-6.1" style="fill:none;stroke:#999;stroke-width:3"></path>

<path d="M243.2,16.75c0.61,0.36,2.01,2.69,2.01,3.42c0,7.55,0.25,42.97,0.25,52.65" style="fill:none;stroke:#999;stroke-width:3"></path>
<path d="M230.04,43.1c0.73,0.43,1.51,2.26,1.45,3.13c-0.41,6,0.14,19.22-1.31,28.25c-0.31,1.96,0.21,2.41,1.98,1.97c10.07-2.51,14.1-3.6,26.33-6.1" style="fill:none;stroke:#999;stroke-width:3"></path>
<path d="M259.72,38.16c0.67,0.4,1.33,2.96,1.33,3.76c0,6.21-1.55,23.32-2.42,33.31" style="fill:none;stroke:#999;stroke-width:3"></path>

<path d="M352.2,16.75c0.61,0.36,2.01,2.69,2.01,3.42c0,7.55,0.25,42.97,0.25,52.65" style="fill:none;stroke:#999;stroke-width:3"></path>
<path d="M339.03999999999996,43.1c0.73,0.43,1.51,2.26,1.45,3.13c-0.41,6,0.14,19.22-1.31,28.25c-0.31,1.96,0.21,2.41,1.98,1.97c10.07-2.51,14.1-3.6,26.33-6.1" style="fill:none;stroke:#999;stroke-width:3"></path>
<path d="M368.72,38.16c0.67,0.4,1.33,2.96,1.33,3.76c0,6.21-1.55,23.32-2.42,33.31" style="fill:none;stroke:#999;stroke-width:3"></path>
<path d="M380.5,41.31c0.75,1.38,1.33,2.8,1.5,4c1.43,9.88,1.16,32.2,2.01,50.4" style="fill:none;stroke:#999;stroke-width:3"></path>

<path d="M461.2,16.75c0.61,0.36,2.01,2.69,2.01,3.42c0,7.55,0.25,42.97,0.25,52.65" style="fill:none;stroke:#999;stroke-width:3"></path>
<path d="M448.03999999999996,43.1c0.73,0.43,1.51,2.26,1.45,3.13c-0.41,6,0.14,19.22-1.31,28.25c-0.31,1.96,0.21,2.41,1.98,1.97c10.07-2.51,14.1-3.6,26.33-6.1" style="fill:none;stroke:#999;stroke-width:3"></path>
<path d="M477.72,38.16c0.67,0.4,1.33,2.96,1.33,3.76c0,6.21-1.55,23.32-2.42,33.31" style="fill:none;stroke:#999;stroke-width:3"></path>
<path d="M489.5,41.31c0.75,1.38,1.33,2.8,1.5,4c1.43,9.88,1.16,32.2,2.01,50.4" style="fill:none;stroke:#999;stroke-width:3"></path>
<path d="M491.02,43.98c13.23-1.48,29.08-3.35,37.58-4.32c3.12-0.36,4.29,2.51,4.12,5.15c-0.62,9.7-0.5,32.61-2.47,48.6" style="fill:none;stroke:#999;stroke-width:3"></path>

<path d="M570.2,16.75c0.61,0.36,2.01,2.69,2.01,3.42c0,7.55,0.25,42.97,0.25,52.65" style="fill:none;stroke:#999;stroke-width:3"></path>
<path d="M557.04,43.1c0.73,0.43,1.51,2.26,1.45,3.13c-0.41,6,0.14,19.22-1.31,28.25c-0.31,1.96,0.21,2.41,1.98,1.97c10.07-2.51,14.1-3.6,26.33-6.1" style="fill:none;stroke:#999;stroke-width:3"></path>
<path d="M586.72,38.16c0.67,0.4,1.33,2.96,1.33,3.76c0,6.21-1.55,23.32-2.42,33.31" style="fill:none;stroke:#999;stroke-width:3"></path>
<path d="M598.5,41.31c0.75,1.38,1.33,2.8,1.5,4c1.43,9.88,1.16,32.2,2.01,50.4" style="fill:none;stroke:#999;stroke-width:3"></path>
<path d="M600.02,43.98c13.23-1.48,29.08-3.35,37.58-4.32c3.12-0.36,4.29,2.51,4.12,5.15c-0.62,9.7-0.5,32.61-2.47,48.6" style="fill:none;stroke:#999;stroke-width:3"></path>
<path d="M617.86,12.86c1.16,1.09,1.85,2.66,1.85,4.1c0.04,14.16,0.21,70.88,0.21,74.58" style="fill:none;stroke:#999;stroke-width:3"></path>

<path d="M679.2,16.75c0.61,0.36,2.01,2.69,2.01,3.42c0,7.55,0.25,42.97,0.25,52.65" style="fill:none;stroke:#999;stroke-width:3"></path>
<path d="M666.04,43.1c0.73,0.43,1.51,2.26,1.45,3.13c-0.41,6,0.14,19.22-1.31,28.25c-0.31,1.96,0.21,2.41,1.98,1.97c10.07-2.51,14.1-3.6,26.33-6.1" style="fill:none;stroke:#999;stroke-width:3"></path>
<path d="M695.72,38.16c0.67,0.4,1.33,2.96,1.33,3.76c0,6.21-1.55,23.32-2.42,33.31" style="fill:none;stroke:#999;stroke-width:3"></path>
<path d="M707.5,41.31c0.75,1.38,1.33,2.8,1.5,4c1.43,9.88,1.16,32.2,2.01,50.4" style="fill:none;stroke:#999;stroke-width:3"></path>
<path d="M709.02,43.98c13.23-1.48,29.08-3.35,37.58-4.32c3.12-0.36,4.29,2.51,4.12,5.15c-0.62,9.7-0.5,32.61-2.47,48.6" style="fill:none;stroke:#999;stroke-width:3"></path>
<path d="M726.86,12.86c1.16,1.09,1.85,2.66,1.85,4.1c0.04,14.16,0.21,70.88,0.21,74.58" style="fill:none;stroke:#999;stroke-width:3"></path>
<path d="M710.54,66.56c3.71-0.48,36.15-2.94,39.22-2.94" style="fill:none;stroke:#999;stroke-width:3"></path>

<path d="M788.2,16.75c0.61,0.36,2.01,2.69,2.01,3.42c0,7.55,0.25,42.97,0.25,52.65" style="fill:none;stroke:#999;stroke-width:3"></path>
<path d="M775.04,43.1c0.73,0.43,1.51,2.26,1.45,3.13c-0.41,6,0.14,19.22-1.31,28.25c-0.31,1.96,0.21,2.41,1.98,1.97c10.07-2.51,14.1-3.6,26.33-6.1" style="fill:none;stroke:#999;stroke-width:3"></path>
<path d="M804.72,38.16c0.67,0.4,1.33,2.96,1.33,3.76c0,6.21-1.55,23.32-2.42,33.31" style="fill:none;stroke:#999;stroke-width:3"></path>
<path d="M816.5,41.31c0.75,1.38,1.33,2.8,1.5,4c1.43,9.88,1.16,32.2,2.01,50.4" style="fill:none;stroke:#999;stroke-width:3"></path>
<path d="M818.02,43.98c13.23-1.48,29.08-3.35,37.58-4.32c3.12-0.36,4.29,2.51,4.12,5.15c-0.62,9.7-0.5,32.61-2.47,48.6" style="fill:none;stroke:#999;stroke-width:3"></path>
<path d="M835.86,12.86c1.16,1.09,1.85,2.66,1.85,4.1c0.04,14.16,0.21,70.88,0.21,74.58" style="fill:none;stroke:#999;stroke-width:3"></path>
<path d="M819.54,66.56c3.71-0.48,36.15-2.94,39.22-2.94" style="fill:none;stroke:#999;stroke-width:3"></path>
<path d="M820.61,93.24c9.39-0.7,25.43-2.21,36.75-2.47" style="fill:none;stroke:#999;stroke-width:3"></path>

</svg>