<svg width="872px" height="109px" viewBox="0 0 872 109" xmlns="http://www.w3.org/2000/svg" xmlns:xlink="http://www.w3.org/1999/xlink" xml:space="preserve" version="1.1" baseProfile="full">
<line x1="1" y1="1" x2="871" y2="1" style="stroke:#ddd;stroke-width:2"></line>
<line x1="1" y1="1" x2="1" y2="108" style="stroke:#ddd;stroke-width:2"></line>
<line x1="1" y1="108" x2="871" y2="108" style="stroke:#ddd;stroke-width:2"></line>
<line x1="871" y1="1" x2="871" y2="108" style="stroke:#ddd;stroke-width:2"></line>
<line x1="109" y1="1" x2="109" y2="108" style="stroke:#ddd;stroke-width:2"></line>
<line x1="218" y1="1" x2="218" y2="108" style="stroke:#ddd;stroke-width:2"></line>
<line x1="327" y1="1" x2="327" y2="108" style="stroke:#ddd;stroke-width:2"></line>
<line x1="436" y1="1" x2="436" y2="108" style="stroke:#ddd;stroke-width:2"></line>
<line x1="545" y1="1" x2="545" y2="108" style="stroke:#ddd;stroke-width:2"></line>
<line x1="654" y1="1" x2="654" y2="108" style="stroke:#ddd;stroke-width:2"></line>
<line x1="763" y1="1" x2="763" y2="108" style="stroke:#ddd;stroke-width:2"></line>
<line x1="1" y1="54" x2="871" y2="54" style="stroke:#ddd;stroke-width:2;stroke-dasharray:3 3"></line>
<line x1="55" y1="1" x2="55" y2="108" style="stroke:#ddd;stroke-width:2;stroke-dasharray:3 3"></line>
<line x1="164" y1="1" x2="164" y2="108" style="stroke:#ddd;stroke-width:2;stroke-dasharray:3 3"></line>
<line x1="273" y1="1" x2="273" y2="108" style="stroke:#ddd;stroke-width:2;stroke-dasharray:3 3"></line>
<line x1="382" y1="1" x2="382" y2="108" style="stroke:#ddd;stroke-width:2;stroke-dasharray:3 3"></line>
<line x1="491" y1="1" x2="491" y2="108" style="stroke:#ddd;stroke-width:2;stroke-dasharray:3 3"></line>
<line x1="600" y1="1" x2="600" y2="108" style="stroke:#ddd;stroke-width:2;stroke-dasharray:3 3"></line>
<line x1="709" y1="1" x2="709" y2="108" style="stroke:#ddd;stroke-width:2;stroke-dasharray:3 3"></line>
<line x1="818" y1="1" x2="818" y2="108" style="stroke:#ddd;stroke-width:2;stroke-dasharray:3 3"></line>
<path d="M25.2,16.25c0.61,0.36,2.01,2.69,2.01,3.42c0,7.55,0.25,42.97,0.25,52.65" style="fill:none;stroke:#999;stroke-width:3"></path>

<path d="M134.2,16.25c0.61,0.36,2.01,2.69,2.01,3.42c0,7.55,0.25,42.97,0.25,52.65" style="fill:none;stroke:#999;stroke-width:3"></path>
<path d="M121.28999999999999,43.01c0.67,0.4,1.39,2.07,1.33,2.88c-0.37,5.52,0.13,20.06-1.2,28.36c-0.29,1.8,0.19,2.22,1.82,1.81c9.26-2.31,14.51-3.81,25.76-6.11" style="fill:none;stroke:#999;stroke-width:3"></path>

<path d="M243.2,16.25c0.61,0.36,2.01,2.69,2.01,3.42c0,7.55,0.25,42.97,0.25,52.65" style="fill:none;stroke:#999;stroke-width:3"></path>
<path d="M230.29,43.01c0.67,0.4,1.39,2.07,1.33,2.88c-0.37,5.52,0.13,20.06-1.2,28.36c-0.29,1.8,0.19,2.22,1.82,1.81c9.26-2.31,14.51-3.81,25.76-6.11" style="fill:none;stroke:#999;stroke-width:3"></path>
<path d="M258.72,38.66c0.67,0.4,1.33,2.96,1.33,3.76c0,6.21-0.8,21.57-1.92,32.31" style="fill:none;stroke:#999;stroke-width:3"></path>

<path d="M352.2,16.25c0.61,0.36,2.01,2.69,2.01,3.42c0,7.55,0.25,42.97,0.25,52.65" style="fill:none;stroke:#999;stroke-width:3"></path>
<path d="M339.28999999999996,43.01c0.67,0.4,1.39,2.07,1.33,2.88c-0.37,5.52,0.13,20.06-1.2,28.36c-0.29,1.8,0.19,2.22,1.82,1.81c9.26-2.31,14.51-3.81,25.76-6.11" style="fill:none;stroke:#999;stroke-width:3"></path>
<path d="M367.72,38.66c0.67,0.4,1.33,2.96,1.33,3.76c0,6.21-0.8,21.57-1.92,32.31" style="fill:none;stroke:#999;stroke-width:3"></path>
<path d="M393.81,13.13c0.76,0.45,2.36,3.35,2.51,4.25c0.15,0.9-0.25,34.12-0.25,47.25" style="fill:none;stroke:#999;stroke-width:3"></path>

<path d="M461.2,16.25c0.61,0.36,2.01,2.69,2.01,3.42c0,7.55,0.25,42.97,0.25,52.65" style="fill:none;stroke:#999;stroke-width:3"></path>
<path d="M448.28999999999996,43.01c0.67,0.4,1.39,2.07,1.33,2.88c-0.37,5.52,0.13,20.06-1.2,28.36c-0.29,1.8,0.19,2.22,1.82,1.81c9.26-2.31,14.51-3.81,25.76-6.11" style="fill:none;stroke:#999;stroke-width:3"></path>
<path d="M476.72,38.66c0.67,0.4,1.33,2.96,1.33,3.76c0,6.21-0.8,21.57-1.92,32.31" style="fill:none;stroke:#999;stroke-width:3"></path>
<path d="M502.81,13.13c0.76,0.45,2.36,3.35,2.51,4.25c0.15,0.9-0.25,34.12-0.25,47.25" style="fill:none;stroke:#999;stroke-width:3"></path>
<path d="M505.25,39.23c10.54-0.98,22.76-2.95,24.23-2.95c1.47,0,4.1,0,5.27,0.33" style="fill:none;stroke:#999;stroke-width:3"></path>

<path d="M570.2,16.25c0.61,0.36,2.01,2.69,2.01,3.42c0,7.55,0.25,42.97,0.25,52.65" style="fill:none;stroke:#999;stroke-width:3"></path>
<path d="M557.29,43.01c0.67,0.4,1.39,2.07,1.33,2.88c-0.37,5.52,0.13,20.06-1.2,28.36c-0.29,1.8,0.19,2.22,1.82,1.81c9.26-2.31,14.51-3.81,25.76-6.11" style="fill:none;stroke:#999;stroke-width:3"></path>
<path d="M585.72,38.66c0.67,0.4,1.33,2.96,1.33,3.76c0,6.21-0.8,21.57-1.92,32.31" style="fill:none;stroke:#999;stroke-width:3"></path>
<path d="M611.81,13.13c0.76,0.45,2.36,3.35,2.51,4.25c0.15,0.9-0.25,34.12-0.25,47.25" style="fill:none;stroke:#999;stroke-width:3"></path>
<path d="M614.25,39.23c10.54-0.98,22.76-2.95,24.23-2.95c1.47,0,4.1,0,5.27,0.33" style="fill:none;stroke:#999;stroke-width:3"></path>
<path d="M596.41,66.34c0.42,0.52,0.85,0.96,1.04,1.61c1.46,5.17,3.21,19.43,4.21,28.71" style="fill:none;stroke:#999;stroke-width:3"></path>

<path d="M679.2,16.25c0.61,0.36,2.01,2.69,2.01,3.42c0,7.55,0.25,42.97,0.25,52.65" style="fill:none;stroke:#999;stroke-width:3"></path>
<path d="M666.29,43.01c0.67,0.4,1.39,2.07,1.33,2.88c-0.37,5.52,0.13,20.06-1.2,28.36c-0.29,1.8,0.19,2.22,1.82,1.81c9.26-2.31,14.51-3.81,25.76-6.11" style="fill:none;stroke:#999;stroke-width:3"></path>
<path d="M694.72,38.66c0.67,0.4,1.33,2.96,1.33,3.76c0,6.21-0.8,21.57-1.92,32.31" style="fill:none;stroke:#999;stroke-width:3"></path>
<path d="M720.81,13.13c0.76,0.45,2.36,3.35,2.51,4.25c0.15,0.9-0.25,34.12-0.25,47.25" style="fill:none;stroke:#999;stroke-width:3"></path>
<path d="M723.25,39.23c10.54-0.98,22.76-2.95,24.23-2.95c1.47,0,4.1,0,5.27,0.33" style="fill:none;stroke:#999;stroke-width:3"></path>
<path d="M705.41,66.34c0.42,0.52,0.85,0.96,1.04,1.61c1.46,5.17,3.21,19.43,4.21,28.71" style="fill:none;stroke:#999;stroke-width:3"></path>
<path d="M707.28,68.21c11.22-1.92,29.76-3.49,35.08-4.23c1.94-0.27,3.11,2.69,2.83,4.27c-1.15,6.51-2.59,13.72-4.18,21.97" style="fill:none;stroke:#999;stroke-width:3"></path>

<path d="M788.2,16.25c0.61,0.36,2.01,2.69,2.01,3.42c0,7.55,0.25,42.97,0.25,52.65" style="fill:none;stroke:#999;stroke-width:3"></path>
<path d="M775.29,43.01c0.67,0.4,1.39,2.07,1.33,2.88c-0.37,5.52,0.13,20.06-1.2,28.36c-0.29,1.8,0.19,2.22,1.82,1.81c9.26-2.31,14.51-3.81,25.76-6.11" style="fill:none;stroke:#999;stroke-width:3"></path>
<path d="M803.72,38.66c0.67,0.4,1.33,2.96,1.33,3.76c0,6.21-0.8,21.57-1.92,32.31" style="fill:none;stroke:#999;stroke-width:3"></path>
<path d="M829.81,13.13c0.76,0.45,2.36,3.35,2.51,4.25c0.15,0.9-0.25,34.12-0.25,47.25" style="fill:none;stroke:#999;stroke-width:3"></path>
<path d="M832.25,39.23c10.54-0.98,22.76-2.95,24.23-2.95c1.47,0,4.1,0,5.27,0.33" style="fill:none;stroke:#999;stroke-width:3"></path>
<path d="M814.41,66.34c0.42,0.52,0.85,0.96,1.04,1.61c1.46,5.17,3.21,19.43,4.21,28.71" style="fill:none;stroke:#999;stroke-width:3"></path>
<path d="M816.28,68.21c11.22-1.92,29.76-3.49,35.08-4.23c1.94-0.27,3.11,2.69,2.83,4.27c-1.15,6.51-2.59,13.72-4.18,21.97" style="fill:none;stroke:#999;stroke-width:3"></path>
<path d="M820.07,92.67c7.94-0.46,22.49-1.89,32.92-2.21" style="fill:none;stroke:#999;stroke-width:3"></path>

</svg>