<svg width="1090px" height="109px" viewBox="0 0 1090 109" xmlns="http://www.w3.org/2000/svg" xmlns:xlink="http://www.w3.org/1999/xlink" xml:space="preserve" version="1.1" baseProfile="full">
<line x1="1" y1="1" x2="1089" y2="1" style="stroke:#ddd;stroke-width:2"></line>
<line x1="1" y1="1" x2="1" y2="108" style="stroke:#ddd;stroke-width:2"></line>
<line x1="1" y1="108" x2="1089" y2="108" style="stroke:#ddd;stroke-width:2"></line>
<line x1="1089" y1="1" x2="1089" y2="108" style="stroke:#ddd;stroke-width:2"></line>
<line x1="109" y1="1" x2="109" y2="108" style="stroke:#ddd;stroke-width:2"></line>
<line x1="218" y1="1" x2="218" y2="108" style="stroke:#ddd;stroke-width:2"></line>
<line x1="327" y1="1" x2="327" y2="108" style="stroke:#ddd;stroke-width:2"></line>
<line x1="436" y1="1" x2="436" y2="108" style="stroke:#ddd;stroke-width:2"></line>
<line x1="545" y1="1" x2="545" y2="108" style="stroke:#ddd;stroke-width:2"></line>
<line x1="654" y1="1" x2="654" y2="108" style="stroke:#ddd;stroke-width:2"></line>
<line x1="763" y1="1" x2="763" y2="108" style="stroke:#ddd;stroke-width:2"></line>
<line x1="872" y1="1" x2="872" y2="108" style="stroke:#ddd;stroke-width:2"></line>
<line x1="981" y1="1" x2="981" y2="108" style="stroke:#ddd;stroke-width:2"></line>
<line x1="1" y1="54" x2="1089" y2="54" style="stroke:#ddd;stroke-width:2;stroke-dasharray:3 3"></line>
<line x1="55" y1="1" x2="55" y2="108" style="stroke:#ddd;stroke-width:2;stroke-dasharray:3 3"></line>
<line x1="164" y1="1" x2="164" y2="108" style="stroke:#ddd;stroke-width:2;stroke-dasharray:3 3"></line>
<line x1="273" y1="1" x2="273" y2="108" style="stroke:#ddd;stroke-width:2;stroke-dasharray:3 3"></line>
<line x1="382" y1="1" x2="382" y2="108" style="stroke:#ddd;stroke-width:2;stroke-dasharray:3 3"></line>
<line x1="491" y1="1" x2="491" y2="108" style="stroke:#ddd;stroke-width:2;stroke-dasharray:3 3"></line>
<line x1="600" y1="1" x2="600" y2="108" style="stroke:#ddd;stroke-width:2;stroke-dasharray:3 3"></line>
<line x1="709" y1="1" x2="709" y2="108" style="stroke:#ddd;stroke-width:2;stroke-dasharray:3 3"></line>
<line x1="818" y1="1" x2="818" y2="108" style="stroke:#ddd;stroke-width:2;stroke-dasharray:3 3"></line>
<line x1="927" y1="1" x2="927" y2="108" style="stroke:#ddd;stroke-width:2;stroke-dasharray:3 3"></line>
<line x1="1036" y1="1" x2="1036" y2="108" style="stroke:#ddd;stroke-width:2;stroke-dasharray:3 3"></line>
<path d="M24.6,17.25c0.63,0.35,2.09,2.62,2.09,3.33c0,7.36,0.26,41.88,0.26,51.32" style="fill:none;stroke:#999;stroke-width:3"></path>

<path d="M133.6,17.25c0.63,0.35,2.09,2.62,2.09,3.33c0,7.36,0.26,41.88,0.26,51.32" style="fill:none;stroke:#999;stroke-width:3"></path>
<path d="M121.78999999999999,47.83c0.69,0.39,1.44,2.02,1.38,2.8c-0.39,5.38-0.37,14.58-1.75,22.67c-0.3,1.76,0.2,2.16,1.89,1.77c9.6-2.25,13.97-2.73,25.63-4.97" style="fill:none;stroke:#999;stroke-width:3"></path>

<path d="M242.6,17.25c0.63,0.35,2.09,2.62,2.09,3.33c0,7.36,0.26,41.88,0.26,51.32" style="fill:none;stroke:#999;stroke-width:3"></path>
<path d="M230.79,47.83c0.69,0.39,1.44,2.02,1.38,2.8c-0.39,5.38-0.37,14.58-1.75,22.67c-0.3,1.76,0.2,2.16,1.89,1.77c9.6-2.25,13.97-2.73,25.63-4.97" style="fill:none;stroke:#999;stroke-width:3"></path>
<path d="M258.17,42.55c0.69,0.39,1.38,2.88,1.38,3.67c0,6.05-0.8,16.29-1.45,26.07" style="fill:none;stroke:#999;stroke-width:3"></path>

<path d="M351.6,17.25c0.63,0.35,2.09,2.62,2.09,3.33c0,7.36,0.26,41.88,0.26,51.32" style="fill:none;stroke:#999;stroke-width:3"></path>
<path d="M339.78999999999996,47.83c0.69,0.39,1.44,2.02,1.38,2.8c-0.39,5.38-0.37,14.58-1.75,22.67c-0.3,1.76,0.2,2.16,1.89,1.77c9.6-2.25,13.97-2.73,25.63-4.97" style="fill:none;stroke:#999;stroke-width:3"></path>
<path d="M367.17,42.55c0.69,0.39,1.38,2.88,1.38,3.67c0,6.05-0.8,16.29-1.45,26.07" style="fill:none;stroke:#999;stroke-width:3"></path>
<path d="M373.82,18.65c0.97,0.48,2.75,0.61,3.71,0.48c6.17-0.83,27.08-3.46,36.91-3.6c1.62-0.02,2.58,0.23,3.39,0.47" style="fill:none;stroke:#999;stroke-width:3"></path>

<path d="M460.6,17.25c0.63,0.35,2.09,2.62,2.09,3.33c0,7.36,0.26,41.88,0.26,51.32" style="fill:none;stroke:#999;stroke-width:3"></path>
<path d="M448.78999999999996,47.83c0.69,0.39,1.44,2.02,1.38,2.8c-0.39,5.38-0.37,14.58-1.75,22.67c-0.3,1.76,0.2,2.16,1.89,1.77c9.6-2.25,13.97-2.73,25.63-4.97" style="fill:none;stroke:#999;stroke-width:3"></path>
<path d="M476.17,42.55c0.69,0.39,1.38,2.88,1.38,3.67c0,6.05-0.8,16.29-1.45,26.07" style="fill:none;stroke:#999;stroke-width:3"></path>
<path d="M482.82,18.65c0.97,0.48,2.75,0.61,3.71,0.48c6.17-0.83,27.08-3.46,36.91-3.6c1.62-0.02,2.58,0.23,3.39,0.47" style="fill:none;stroke:#999;stroke-width:3"></path>
<path d="M483.23,31.91c0.52,0.76,1.05,1.7,1.05,2.72s3.64,25.11,3.81,26.12" style="fill:none;stroke:#999;stroke-width:3"></path>

<path d="M569.6,17.25c0.63,0.35,2.09,2.62,2.09,3.33c0,7.36,0.26,41.88,0.26,51.32" style="fill:none;stroke:#999;stroke-width:3"></path>
<path d="M557.79,47.83c0.69,0.39,1.44,2.02,1.38,2.8c-0.39,5.38-0.37,14.58-1.75,22.67c-0.3,1.76,0.2,2.16,1.89,1.77c9.6-2.25,13.97-2.73,25.63-4.97" style="fill:none;stroke:#999;stroke-width:3"></path>
<path d="M585.1700000000001,42.55c0.69,0.39,1.38,2.88,1.38,3.67c0,6.05-0.8,16.29-1.45,26.07" style="fill:none;stroke:#999;stroke-width:3"></path>
<path d="M591.8199999999999,18.65c0.97,0.48,2.75,0.61,3.71,0.48c6.17-0.83,27.08-3.46,36.91-3.6c1.62-0.02,2.58,0.23,3.39,0.47" style="fill:none;stroke:#999;stroke-width:3"></path>
<path d="M592.23,31.91c0.52,0.76,1.05,1.7,1.05,2.72s3.64,25.11,3.81,26.12" style="fill:none;stroke:#999;stroke-width:3"></path>
<path d="M594.15,33.14c2.96-0.13,37.24-3.75,39.93-3.9c2.25-0.13,3.54,1.16,2.89,4.97c-1.02,5.99-1.46,10.48-4.48,23.75" style="fill:none;stroke:#999;stroke-width:3"></path>

<path d="M678.6,17.25c0.63,0.35,2.09,2.62,2.09,3.33c0,7.36,0.26,41.88,0.26,51.32" style="fill:none;stroke:#999;stroke-width:3"></path>
<path d="M666.79,47.83c0.69,0.39,1.44,2.02,1.38,2.8c-0.39,5.38-0.37,14.58-1.75,22.67c-0.3,1.76,0.2,2.16,1.89,1.77c9.6-2.25,13.97-2.73,25.63-4.97" style="fill:none;stroke:#999;stroke-width:3"></path>
<path d="M694.1700000000001,42.55c0.69,0.39,1.38,2.88,1.38,3.67c0,6.05-0.8,16.29-1.45,26.07" style="fill:none;stroke:#999;stroke-width:3"></path>
<path d="M700.8199999999999,18.65c0.97,0.48,2.75,0.61,3.71,0.48c6.17-0.83,27.08-3.46,36.91-3.6c1.62-0.02,2.58,0.23,3.39,0.47" style="fill:none;stroke:#999;stroke-width:3"></path>
<path d="M701.23,31.91c0.52,0.76,1.05,1.7,1.05,2.72s3.64,25.11,3.81,26.12" style="fill:none;stroke:#999;stroke-width:3"></path>
<path d="M703.15,33.14c2.96-0.13,37.24-3.75,39.93-3.9c2.25-0.13,3.54,1.16,2.89,4.97c-1.02,5.99-1.46,10.48-4.48,23.75" style="fill:none;stroke:#999;stroke-width:3"></path>
<path d="M704.12,45.78c7.44-1.3,34.18-3.84,38.71-3.84" style="fill:none;stroke:#999;stroke-width:3"></path>

<path d="M787.6,17.25c0.63,0.35,2.09,2.62,2.09,3.33c0,7.36,0.26,41.88,0.26,51.32" style="fill:none;stroke:#999;stroke-width:3"></path>
<path d="M775.79,47.83c0.69,0.39,1.44,2.02,1.38,2.8c-0.39,5.38-0.37,14.58-1.75,22.67c-0.3,1.76,0.2,2.16,1.89,1.77c9.6-2.25,13.97-2.73,25.63-4.97" style="fill:none;stroke:#999;stroke-width:3"></path>
<path d="M803.1700000000001,42.55c0.69,0.39,1.38,2.88,1.38,3.67c0,6.05-0.8,16.29-1.45,26.07" style="fill:none;stroke:#999;stroke-width:3"></path>
<path d="M809.8199999999999,18.65c0.97,0.48,2.75,0.61,3.71,0.48c6.17-0.83,27.08-3.46,36.91-3.6c1.62-0.02,2.58,0.23,3.39,0.47" style="fill:none;stroke:#999;stroke-width:3"></path>
<path d="M810.23,31.91c0.52,0.76,1.05,1.7,1.05,2.72s3.64,25.11,3.81,26.12" style="fill:none;stroke:#999;stroke-width:3"></path>
<path d="M812.15,33.14c2.96-0.13,37.24-3.75,39.93-3.9c2.25-0.13,3.54,1.16,2.89,4.97c-1.02,5.99-1.46,10.48-4.48,23.75" style="fill:none;stroke:#999;stroke-width:3"></path>
<path d="M813.12,45.78c7.44-1.3,34.18-3.84,38.71-3.84" style="fill:none;stroke:#999;stroke-width:3"></path>
<path d="M815.27,58.89c11.52-1.55,23.23-2.64,35.47-3.08" style="fill:none;stroke:#999;stroke-width:3"></path>

<path d="M896.6,17.25c0.63,0.35,2.09,2.62,2.09,3.33c0,7.36,0.26,41.88,0.26,51.32" style="fill:none;stroke:#999;stroke-width:3"></path>
<path d="M884.79,47.83c0.69,0.39,1.44,2.02,1.38,2.8c-0.39,5.38-0.37,14.58-1.75,22.67c-0.3,1.76,0.2,2.16,1.89,1.77c9.6-2.25,13.97-2.73,25.63-4.97" style="fill:none;stroke:#999;stroke-width:3"></path>
<path d="M912.1700000000001,42.55c0.69,0.39,1.38,2.88,1.38,3.67c0,6.05-0.8,16.29-1.45,26.07" style="fill:none;stroke:#999;stroke-width:3"></path>
<path d="M918.8199999999999,18.65c0.97,0.48,2.75,0.61,3.71,0.48c6.17-0.83,27.08-3.46,36.91-3.6c1.62-0.02,2.58,0.23,3.39,0.47" style="fill:none;stroke:#999;stroke-width:3"></path>
<path d="M919.23,31.91c0.52,0.76,1.05,1.7,1.05,2.72s3.64,25.11,3.81,26.12" style="fill:none;stroke:#999;stroke-width:3"></path>
<path d="M921.15,33.14c2.96-0.13,37.24-3.75,39.93-3.9c2.25-0.13,3.54,1.16,2.89,4.97c-1.02,5.99-1.46,10.48-4.48,23.75" style="fill:none;stroke:#999;stroke-width:3"></path>
<path d="M922.12,45.78c7.44-1.3,34.18-3.84,38.71-3.84" style="fill:none;stroke:#999;stroke-width:3"></path>
<path d="M924.27,58.89c11.52-1.55,23.23-2.64,35.47-3.08" style="fill:none;stroke:#999;stroke-width:3"></path>
<path d="M940.75,20c0.75,1.5,0.71,2.75,0.71,4.93c0,34.57-0.71,61.57-30.46,73.61" style="fill:none;stroke:#999;stroke-width:3"></path>

<path d="M1005.6,17.25c0.63,0.35,2.09,2.62,2.09,3.33c0,7.36,0.26,41.88,0.26,51.32" style="fill:none;stroke:#999;stroke-width:3"></path>
<path d="M993.79,47.83c0.69,0.39,1.44,2.02,1.38,2.8c-0.39,5.38-0.37,14.58-1.75,22.67c-0.3,1.76,0.2,2.16,1.89,1.77c9.6-2.25,13.97-2.73,25.63-4.97" style="fill:none;stroke:#999;stroke-width:3"></path>
<path d="M1021.1700000000001,42.55c0.69,0.39,1.38,2.88,1.38,3.67c0,6.05-0.8,16.29-1.45,26.07" style="fill:none;stroke:#999;stroke-width:3"></path>
<path d="M1027.82,18.65c0.97,0.48,2.75,0.61,3.71,0.48c6.17-0.83,27.08-3.46,36.91-3.6c1.62-0.02,2.58,0.23,3.39,0.47" style="fill:none;stroke:#999;stroke-width:3"></path>
<path d="M1028.23,31.91c0.52,0.76,1.05,1.7,1.05,2.72s3.64,25.11,3.81,26.12" style="fill:none;stroke:#999;stroke-width:3"></path>
<path d="M1030.15,33.14c2.96-0.13,37.24-3.75,39.93-3.9c2.25-0.13,3.54,1.16,2.89,4.97c-1.02,5.99-1.46,10.48-4.48,23.75" style="fill:none;stroke:#999;stroke-width:3"></path>
<path d="M1031.12,45.78c7.44-1.3,34.18-3.84,38.71-3.84" style="fill:none;stroke:#999;stroke-width:3"></path>
<path d="M1033.27,58.89c11.52-1.55,23.23-2.64,35.47-3.08" style="fill:none;stroke:#999;stroke-width:3"></path>
<path d="M1049.75,20c0.75,1.5,0.71,2.75,0.71,4.93c0,34.57-0.71,61.57-30.46,73.61" style="fill:none;stroke:#999;stroke-width:3"></path>
<path d="M1030.72,67.75C1038.25,70,1059.0,89.25,1073.32,94.67c2.6,0.98,4.5,1.95,6.93,2.33" style="fill:none;stroke:#999;stroke-width:3"></path>

</svg>