<svg width="327px" height="109px" viewBox="0 0 327 109" xmlns="http://www.w3.org/2000/svg" xmlns:xlink="http://www.w3.org/1999/xlink" xml:space="preserve" version="1.1" baseProfile="full">
<line x1="1" y1="1" x2="326" y2="1" style="stroke:#ddd;stroke-width:2"></line>
<line x1="1" y1="1" x2="1" y2="108" style="stroke:#ddd;stroke-width:2"></line>
<line x1="1" y1="108" x2="326" y2="108" style="stroke:#ddd;stroke-width:2"></line>
<line x1="326" y1="1" x2="326" y2="108" style="stroke:#ddd;stroke-width:2"></line>
<line x1="109" y1="1" x2="109" y2="108" style="stroke:#ddd;stroke-width:2"></line>
<line x1="218" y1="1" x2="218" y2="108" style="stroke:#ddd;stroke-width:2"></line>
<line x1="1" y1="54" x2="326" y2="54" style="stroke:#ddd;stroke-width:2;stroke-dasharray:3 3"></line>
<line x1="55" y1="1" x2="55" y2="108" style="stroke:#ddd;stroke-width:2;stroke-dasharray:3 3"></line>
<line x1="164" y1="1" x2="164" y2="108" style="stroke:#ddd;stroke-width:2;stroke-dasharray:3 3"></line>
<line x1="273" y1="1" x2="273" y2="108" style="stroke:#ddd;stroke-width:2;stroke-dasharray:3 3"></line>
<path d="M28.25,31.97c2.28,0.53,4.93,0.8,7.34,0.53c12.41-1.38,27.81-4,41.59-4.54c2.4-0.09,4.58,0.1,6.56,0.54" style="fill:none;stroke:#999;stroke-width:3"></path>

<path d="M137.25,31.97c2.28,0.53,4.93,0.8,7.34,0.53c12.41-1.38,27.81-4,41.59-4.54c2.4-0.09,4.58,0.1,6.56,0.54" style="fill:none;stroke:#999;stroke-width:3"></path>
<path d="M161.87,32.75c1.25,1.25,1.77,3.03,1.77,5.3c0,7.2-0.07,32.83-0.07,41.45" style="fill:none;stroke:#999;stroke-width:3"></path>

<path d="M246.25,31.97c2.28,0.53,4.93,0.8,7.34,0.53c12.41-1.38,27.81-4,41.59-4.54c2.4-0.09,4.58,0.1,6.56,0.54" style="fill:none;stroke:#999;stroke-width:3"></path>
<path d="M270.87,32.75c1.25,1.25,1.77,3.03,1.77,5.3c0,7.2-0.07,32.83-0.07,41.45" style="fill:none;stroke:#999;stroke-width:3"></path>
<path d="M233.5,83.05c2.26,0.33,5.6,0.75,8.84,0.51c17.03-1.3,43.16-4.3,60.65-5.03c3.84-0.16,8.46,0.53,10.38,1.03" style="fill:none;stroke:#999;stroke-width:3"></path>

</svg>