<svg width="1199px" height="109px" viewBox="0 0 1199 109" xmlns="http://www.w3.org/2000/svg" xmlns:xlink="http://www.w3.org/1999/xlink" xml:space="preserve" version="1.1" baseProfile="full">
<line x1="1" y1="1" x2="1198" y2="1" style="stroke:#ddd;stroke-width:2"></line>
<line x1="1" y1="1" x2="1" y2="108" style="stroke:#ddd;stroke-width:2"></line>
<line x1="1" y1="108" x2="1198" y2="108" style="stroke:#ddd;stroke-width:2"></line>
<line x1="1198" y1="1" x2="1198" y2="108" style="stroke:#ddd;stroke-width:2"></line>
<line x1="109" y1="1" x2="109" y2="108" style="stroke:#ddd;stroke-width:2"></line>
<line x1="218" y1="1" x2="218" y2="108" style="stroke:#ddd;stroke-width:2"></line>
<line x1="327" y1="1" x2="327" y2="108" style="stroke:#ddd;stroke-width:2"></line>
<line x1="436" y1="1" x2="436" y2="108" style="stroke:#ddd;stroke-width:2"></line>
<line x1="545" y1="1" x2="545" y2="108" style="stroke:#ddd;stroke-width:2"></line>
<line x1="654" y1="1" x2="654" y2="108" style="stroke:#ddd;stroke-width:2"></line>
<line x1="763" y1="1" x2="763" y2="108" style="stroke:#ddd;stroke-width:2"></line>
<line x1="872" y1="1" x2="872" y2="108" style="stroke:#ddd;stroke-width:2"></line>
<line x1="981" y1="1" x2="981" y2="108" style="stroke:#ddd;stroke-width:2"></line>
<line x1="1090" y1="1" x2="1090" y2="108" style="stroke:#ddd;stroke-width:2"></line>
<line x1="1" y1="54" x2="1198" y2="54" style="stroke:#ddd;stroke-width:2;stroke-dasharray:3 3"></line>
<line x1="55" y1="1" x2="55" y2="108" style="stroke:#ddd;stroke-width:2;stroke-dasharray:3 3"></line>
<line x1="164" y1="1" x2="164" y2="108" style="stroke:#ddd;stroke-width:2;stroke-dasharray:3 3"></line>
<line x1="273" y1="1" x2="273" y2="108" style="stroke:#ddd;stroke-width:2;stroke-dasharray:3 3"></line>
<line x1="382" y1="1" x2="382" y2="108" style="stroke:#ddd;stroke-width:2;stroke-dasharray:3 3"></line>
<line x1="491" y1="1" x2="491" y2="108" style="stroke:#ddd;stroke-width:2;stroke-dasharray:3 3"></line>
<line x1="600" y1="1" x2="600" y2="108" style="stroke:#ddd;stroke-width:2;stroke-dasharray:3 3"></line>
<line x1="709" y1="1" x2="709" y2="108" style="stroke:#ddd;stroke-width:2;stroke-dasharray:3 3"></line>
<line x1="818" y1="1" x2="818" y2="108" style="stroke:#ddd;stroke-width:2;stroke-dasharray:3 3"></line>
<line x1="927" y1="1" x2="927" y2="108" style="stroke:#ddd;stroke-width:2;stroke-dasharray:3 3"></line>
<line x1="1036" y1="1" x2="1036" y2="108" style="stroke:#ddd;stroke-width:2;stroke-dasharray:3 3"></line>
<line x1="1145" y1="1" x2="1145" y2="108" style="stroke:#ddd;stroke-width:2;stroke-dasharray:3 3"></line>
<path d="M17.2,23.16c1.29,0.46,3.65,0.54,4.94,0.46c6.72-0.42,48.26-4.66,62.41-4.86c2.15-0.03,3.43,0.22,4.51,0.45" style="fill:none;stroke:#999;stroke-width:3"></path>

<path d="M126.2,23.16c1.29,0.46,3.65,0.54,4.94,0.46c6.72-0.42,48.26-4.66,62.41-4.86c2.15-0.03,3.43,0.22,4.51,0.45" style="fill:none;stroke:#999;stroke-width:3"></path>
<path d="M153.64,11.11c0.9,0.32,1.44,1.43,1.63,2.07c0.18,0.64,0,18.59-0.18,22.57" style="fill:none;stroke:#999;stroke-width:3"></path>

<path d="M235.2,23.16c1.29,0.46,3.65,0.54,4.94,0.46c6.72-0.42,48.26-4.66,62.41-4.86c2.15-0.03,3.43,0.22,4.51,0.45" style="fill:none;stroke:#999;stroke-width:3"></path>
<path d="M262.64,11.11c0.9,0.32,1.44,1.43,1.63,2.07c0.18,0.64,0,18.59-0.18,22.57" style="fill:none;stroke:#999;stroke-width:3"></path>
<path d="M276.4,9.75c0.9,0.32,1.45,1.43,1.63,2.07s-0.95,15.36-1.49,21.25" style="fill:none;stroke:#999;stroke-width:3"></path>

<path d="M344.2,23.16c1.29,0.46,3.65,0.54,4.94,0.46c6.72-0.42,48.26-4.66,62.41-4.86c2.15-0.03,3.43,0.22,4.51,0.45" style="fill:none;stroke:#999;stroke-width:3"></path>
<path d="M371.64,11.11c0.9,0.32,1.44,1.43,1.63,2.07c0.18,0.64,0,18.59-0.18,22.57" style="fill:none;stroke:#999;stroke-width:3"></path>
<path d="M385.4,9.75c0.9,0.32,1.45,1.43,1.63,2.07s-0.95,15.36-1.49,21.25" style="fill:none;stroke:#999;stroke-width:3"></path>
<path d="M373.08,34.64c4.17-0.39,11.66-1.61,14.75-1.75" style="fill:none;stroke:#999;stroke-width:3"></path>

<path d="M453.2,23.16c1.29,0.46,3.65,0.54,4.94,0.46c6.72-0.42,48.26-4.66,62.41-4.86c2.15-0.03,3.43,0.22,4.51,0.45" style="fill:none;stroke:#999;stroke-width:3"></path>
<path d="M480.64,11.11c0.9,0.32,1.44,1.43,1.63,2.07c0.18,0.64,0,18.59-0.18,22.57" style="fill:none;stroke:#999;stroke-width:3"></path>
<path d="M494.4,9.75c0.9,0.32,1.45,1.43,1.63,2.07s-0.95,15.36-1.49,21.25" style="fill:none;stroke:#999;stroke-width:3"></path>
<path d="M482.08,34.64c4.17-0.39,11.66-1.61,14.75-1.75" style="fill:none;stroke:#999;stroke-width:3"></path>
<path d="M469.73,13.25c0.48,0.71,0.66,1.27,0.66,2.16c0,8.14-2.14,20.84-13.84,24.55" style="fill:none;stroke:#999;stroke-width:3"></path>

<path d="M562.2,23.16c1.29,0.46,3.65,0.54,4.94,0.46c6.72-0.42,48.26-4.66,62.41-4.86c2.15-0.03,3.43,0.22,4.51,0.45" style="fill:none;stroke:#999;stroke-width:3"></path>
<path d="M589.64,11.11c0.9,0.32,1.44,1.43,1.63,2.07c0.18,0.64,0,18.59-0.18,22.57" style="fill:none;stroke:#999;stroke-width:3"></path>
<path d="M603.4,9.75c0.9,0.32,1.45,1.43,1.63,2.07s-0.95,15.36-1.49,21.25" style="fill:none;stroke:#999;stroke-width:3"></path>
<path d="M591.0799999999999,34.64c4.17-0.39,11.66-1.61,14.75-1.75" style="fill:none;stroke:#999;stroke-width:3"></path>
<path d="M578.73,13.25c0.48,0.71,0.66,1.27,0.66,2.16c0,8.14-2.14,20.84-13.84,24.55" style="fill:none;stroke:#999;stroke-width:3"></path>
<path d="M615.25,10.5c0.8,1.05,1.49,2.29,1.49,3.92c0,2.18-0.24,11.28-0.24,12.83c0,5,1,6,8,6c4.75,0,7.25,0,9.26-1.37" style="fill:none;stroke:#999;stroke-width:3"></path>

<path d="M671.2,23.16c1.29,0.46,3.65,0.54,4.94,0.46c6.72-0.42,48.26-4.66,62.41-4.86c2.15-0.03,3.43,0.22,4.51,0.45" style="fill:none;stroke:#999;stroke-width:3"></path>
<path d="M698.64,11.11c0.9,0.32,1.44,1.43,1.63,2.07c0.18,0.64,0,18.59-0.18,22.57" style="fill:none;stroke:#999;stroke-width:3"></path>
<path d="M712.4,9.75c0.9,0.32,1.45,1.43,1.63,2.07s-0.95,15.36-1.49,21.25" style="fill:none;stroke:#999;stroke-width:3"></path>
<path d="M700.0799999999999,34.64c4.17-0.39,11.66-1.61,14.75-1.75" style="fill:none;stroke:#999;stroke-width:3"></path>
<path d="M687.73,13.25c0.48,0.71,0.66,1.27,0.66,2.16c0,8.14-2.14,20.84-13.84,24.55" style="fill:none;stroke:#999;stroke-width:3"></path>
<path d="M724.25,10.5c0.8,1.05,1.49,2.29,1.49,3.92c0,2.18-0.24,11.28-0.24,12.83c0,5,1,6,8,6c4.75,0,7.25,0,9.26-1.37" style="fill:none;stroke:#999;stroke-width:3"></path>
<path d="M676.41,43.63c0,3.48-3.03,13.05-4.41,15.37" style="fill:none;stroke:#999;stroke-width:3"></path>

<path d="M780.2,23.16c1.29,0.46,3.65,0.54,4.94,0.46c6.72-0.42,48.26-4.66,62.41-4.86c2.15-0.03,3.43,0.22,4.51,0.45" style="fill:none;stroke:#999;stroke-width:3"></path>
<path d="M807.64,11.11c0.9,0.32,1.44,1.43,1.63,2.07c0.18,0.64,0,18.59-0.18,22.57" style="fill:none;stroke:#999;stroke-width:3"></path>
<path d="M821.4,9.75c0.9,0.32,1.45,1.43,1.63,2.07s-0.95,15.36-1.49,21.25" style="fill:none;stroke:#999;stroke-width:3"></path>
<path d="M809.0799999999999,34.64c4.17-0.39,11.66-1.61,14.75-1.75" style="fill:none;stroke:#999;stroke-width:3"></path>
<path d="M796.73,13.25c0.48,0.71,0.66,1.27,0.66,2.16c0,8.14-2.14,20.84-13.84,24.55" style="fill:none;stroke:#999;stroke-width:3"></path>
<path d="M833.25,10.5c0.8,1.05,1.49,2.29,1.49,3.92c0,2.18-0.24,11.28-0.24,12.83c0,5,1,6,8,6c4.75,0,7.25,0,9.26-1.37" style="fill:none;stroke:#999;stroke-width:3"></path>
<path d="M785.41,43.63c0,3.48-3.03,13.05-4.41,15.37" style="fill:none;stroke:#999;stroke-width:3"></path>
<path d="M785.24,46.74c15.26-2.24,55.74-5.53,63.45-5.9c12.05-0.59,2.55,7.16-0.45,9.28" style="fill:none;stroke:#999;stroke-width:3"></path>

<path d="M889.2,23.16c1.29,0.46,3.65,0.54,4.94,0.46c6.72-0.42,48.26-4.66,62.41-4.86c2.15-0.03,3.43,0.22,4.51,0.45" style="fill:none;stroke:#999;stroke-width:3"></path>
<path d="M916.64,11.11c0.9,0.32,1.44,1.43,1.63,2.07c0.18,0.64,0,18.59-0.18,22.57" style="fill:none;stroke:#999;stroke-width:3"></path>
<path d="M930.4,9.75c0.9,0.32,1.45,1.43,1.63,2.07s-0.95,15.36-1.49,21.25" style="fill:none;stroke:#999;stroke-width:3"></path>
<path d="M918.0799999999999,34.64c4.17-0.39,11.66-1.61,14.75-1.75" style="fill:none;stroke:#999;stroke-width:3"></path>
<path d="M905.73,13.25c0.48,0.71,0.66,1.27,0.66,2.16c0,8.14-2.14,20.84-13.84,24.55" style="fill:none;stroke:#999;stroke-width:3"></path>
<path d="M942.25,10.5c0.8,1.05,1.49,2.29,1.49,3.92c0,2.18-0.24,11.28-0.24,12.83c0,5,1,6,8,6c4.75,0,7.25,0,9.26-1.37" style="fill:none;stroke:#999;stroke-width:3"></path>
<path d="M894.41,43.63c0,3.48-3.03,13.05-4.41,15.37" style="fill:none;stroke:#999;stroke-width:3"></path>
<path d="M894.24,46.74c15.26-2.24,55.74-5.53,63.45-5.9c12.05-0.59,2.55,7.16-0.45,9.28" style="fill:none;stroke:#999;stroke-width:3"></path>
<path d="M903.26,59.2c0.48,0.29,1.5,2.13,1.6,2.7c0.1,0.57-0.06,23.37-0.16,26.93" style="fill:none;stroke:#999;stroke-width:3"></path>

<path d="M998.2,23.16c1.29,0.46,3.65,0.54,4.94,0.46c6.72-0.42,48.26-4.66,62.41-4.86c2.15-0.03,3.43,0.22,4.51,0.45" style="fill:none;stroke:#999;stroke-width:3"></path>
<path d="M1025.6399999999999,11.11c0.9,0.32,1.44,1.43,1.63,2.07c0.18,0.64,0,18.59-0.18,22.57" style="fill:none;stroke:#999;stroke-width:3"></path>
<path d="M1039.4,9.75c0.9,0.32,1.45,1.43,1.63,2.07s-0.95,15.36-1.49,21.25" style="fill:none;stroke:#999;stroke-width:3"></path>
<path d="M1027.08,34.64c4.17-0.39,11.66-1.61,14.75-1.75" style="fill:none;stroke:#999;stroke-width:3"></path>
<path d="M1014.73,13.25c0.48,0.71,0.66,1.27,0.66,2.16c0,8.14-2.14,20.84-13.84,24.55" style="fill:none;stroke:#999;stroke-width:3"></path>
<path d="M1051.25,10.5c0.8,1.05,1.49,2.29,1.49,3.92c0,2.18-0.24,11.28-0.24,12.83c0,5,1,6,8,6c4.75,0,7.25,0,9.26-1.37" style="fill:none;stroke:#999;stroke-width:3"></path>
<path d="M1003.41,43.63c0,3.48-3.03,13.05-4.41,15.37" style="fill:none;stroke:#999;stroke-width:3"></path>
<path d="M1003.24,46.74c15.26-2.24,55.74-5.53,63.45-5.9c12.05-0.59,2.55,7.16-0.45,9.28" style="fill:none;stroke:#999;stroke-width:3"></path>
<path d="M1012.26,59.2c0.48,0.29,1.5,2.13,1.6,2.7c0.1,0.57-0.06,23.37-0.16,26.93" style="fill:none;stroke:#999;stroke-width:3"></path>
<path d="M1014.29,61.8c3.02-0.2,39.64-3.69,41.9-3.81c2.65-0.14,3.22,2.51,3.13,3.81c-0.48,6.54-1.81,16.7-4.5,23.45c-1.76,4.41-3.98,0.64-5.25-0.96" style="fill:none;stroke:#999;stroke-width:3"></path>

<path d="M1107.2,23.16c1.29,0.46,3.65,0.54,4.94,0.46c6.72-0.42,48.26-4.66,62.41-4.86c2.15-0.03,3.43,0.22,4.51,0.45" style="fill:none;stroke:#999;stroke-width:3"></path>
<path d="M1134.6399999999999,11.11c0.9,0.32,1.44,1.43,1.63,2.07c0.18,0.64,0,18.59-0.18,22.57" style="fill:none;stroke:#999;stroke-width:3"></path>
<path d="M1148.4,9.75c0.9,0.32,1.45,1.43,1.63,2.07s-0.95,15.36-1.49,21.25" style="fill:none;stroke:#999;stroke-width:3"></path>
<path d="M1136.08,34.64c4.17-0.39,11.66-1.61,14.75-1.75" style="fill:none;stroke:#999;stroke-width:3"></path>
<path d="M1123.73,13.25c0.48,0.71,0.66,1.27,0.66,2.16c0,8.14-2.14,20.84-13.84,24.55" style="fill:none;stroke:#999;stroke-width:3"></path>
<path d="M1160.25,10.5c0.8,1.05,1.49,2.29,1.49,3.92c0,2.18-0.24,11.28-0.24,12.83c0,5,1,6,8,6c4.75,0,7.25,0,9.26-1.37" style="fill:none;stroke:#999;stroke-width:3"></path>
<path d="M1112.4099999999999,43.63c0,3.48-3.03,13.05-4.41,15.37" style="fill:none;stroke:#999;stroke-width:3"></path>
<path d="M1112.24,46.74c15.26-2.24,55.74-5.53,63.45-5.9c12.05-0.59,2.55,7.16-0.45,9.28" style="fill:none;stroke:#999;stroke-width:3"></path>
<path d="M1121.26,59.2c0.48,0.29,1.5,2.13,1.6,2.7c0.1,0.57-0.06,23.37-0.16,26.93" style="fill:none;stroke:#999;stroke-width:3"></path>
<path d="M1123.29,61.8c3.02-0.2,39.64-3.69,41.9-3.81c2.65-0.14,3.22,2.51,3.13,3.81c-0.48,6.54-1.81,16.7-4.5,23.45c-1.76,4.41-3.98,0.64-5.25-0.96" style="fill:none;stroke:#999;stroke-width:3"></path>
<path d="M1142.58,45.38c0.48,0.29,1.5,2.13,1.6,2.7c0.1,0.57-0.06,49.73-0.16,53.3" style="fill:none;stroke:#999;stroke-width:3"></path>

</svg>