<svg width="1199px" height="109px" viewBox="0 0 1199 109" xmlns="http://www.w3.org/2000/svg" xmlns:xlink="http://www.w3.org/1999/xlink" xml:space="preserve" version="1.1" baseProfile="full">
<line x1="1" y1="1" x2="1198" y2="1" style="stroke:#ddd;stroke-width:2"></line>
<line x1="1" y1="1" x2="1" y2="108" style="stroke:#ddd;stroke-width:2"></line>
<line x1="1" y1="108" x2="1198" y2="108" style="stroke:#ddd;stroke-width:2"></line>
<line x1="1198" y1="1" x2="1198" y2="108" style="stroke:#ddd;stroke-width:2"></line>
<line x1="109" y1="1" x2="109" y2="108" style="stroke:#ddd;stroke-width:2"></line>
<line x1="218" y1="1" x2="218" y2="108" style="stroke:#ddd;stroke-width:2"></line>
<line x1="327" y1="1" x2="327" y2="108" style="stroke:#ddd;stroke-width:2"></line>
<line x1="436" y1="1" x2="436" y2="108" style="stroke:#ddd;stroke-width:2"></line>
<line x1="545" y1="1" x2="545" y2="108" style="stroke:#ddd;stroke-width:2"></line>
<line x1="654" y1="1" x2="654" y2="108" style="stroke:#ddd;stroke-width:2"></line>
<line x1="763" y1="1" x2="763" y2="108" style="stroke:#ddd;stroke-width:2"></line>
<line x1="872" y1="1" x2="872" y2="108" style="stroke:#ddd;stroke-width:2"></line>
<line x1="981" y1="1" x2="981" y2="108" style="stroke:#ddd;stroke-width:2"></line>
<line x1="1090" y1="1" x2="1090" y2="108" style="stroke:#ddd;stroke-width:2"></line>
<line x1="1" y1="54" x2="1198" y2="54" style="stroke:#ddd;stroke-width:2;stroke-dasharray:3 3"></line>
<line x1="55" y1="1" x2="55" y2="108" style="stroke:#ddd;stroke-width:2;stroke-dasharray:3 3"></line>
<line x1="164" y1="1" x2="164" y2="108" style="stroke:#ddd;stroke-width:2;stroke-dasharray:3 3"></line>
<line x1="273" y1="1" x2="273" y2="108" style="stroke:#ddd;stroke-width:2;stroke-dasharray:3 3"></line>
<line x1="382" y1="1" x2="382" y2="108" style="stroke:#ddd;stroke-width:2;stroke-dasharray:3 3"></line>
<line x1="491" y1="1" x2="491" y2="108" style="stroke:#ddd;stroke-width:2;stroke-dasharray:3 3"></line>
<line x1="600" y1="1" x2="600" y2="108" style="stroke:#ddd;stroke-width:2;stroke-dasharray:3 3"></line>
<line x1="709" y1="1" x2="709" y2="108" style="stroke:#ddd;stroke-width:2;stroke-dasharray:3 3"></line>
<line x1="818" y1="1" x2="818" y2="108" style="stroke:#ddd;stroke-width:2;stroke-dasharray:3 3"></line>
<line x1="927" y1="1" x2="927" y2="108" style="stroke:#ddd;stroke-width:2;stroke-dasharray:3 3"></line>
<line x1="1036" y1="1" x2="1036" y2="108" style="stroke:#ddd;stroke-width:2;stroke-dasharray:3 3"></line>
<line x1="1145" y1="1" x2="1145" y2="108" style="stroke:#ddd;stroke-width:2;stroke-dasharray:3 3"></line>
<path d="M13.49,33.31c0.43,0.39,1.33,2.88,1.42,3.65c0.34,3.04-0.06,36.17-0.14,40.98" style="fill:none;stroke:#999;stroke-width:3"></path>

<path d="M122.49,33.31c0.43,0.39,1.33,2.88,1.42,3.65c0.34,3.04-0.06,36.17-0.14,40.98" style="fill:none;stroke:#999;stroke-width:3"></path>
<path d="M124.28999999999999,36.25c2.47-0.27,22.15-3.91,23.99-4.07c2.16-0.19,3.52,1.34,3.55,3.07C152.0,44,151.24,64.09,149.97,72.63c-0.91,6.14-4.25,1.85-5.29-0.27" style="fill:none;stroke:#999;stroke-width:3"></path>

<path d="M231.49,33.31c0.43,0.39,1.33,2.88,1.42,3.65c0.34,3.04-0.06,36.17-0.14,40.98" style="fill:none;stroke:#999;stroke-width:3"></path>
<path d="M233.29,36.25c2.47-0.27,22.15-3.91,23.99-4.07c2.16-0.19,3.52,1.34,3.55,3.07C261.0,44,260.24,64.09,258.97,72.63c-0.91,6.14-4.25,1.85-5.29-0.27" style="fill:none;stroke:#999;stroke-width:3"></path>
<path d="M244.0,12.63c0.61,0.42,1.89,3.18,2.01,4.03c0.12,0.85-0.08,75.66-0.2,80.97" style="fill:none;stroke:#999;stroke-width:3"></path>

<path d="M340.49,33.31c0.43,0.39,1.33,2.88,1.42,3.65c0.34,3.04-0.06,36.17-0.14,40.98" style="fill:none;stroke:#999;stroke-width:3"></path>
<path d="M342.28999999999996,36.25c2.47-0.27,22.15-3.91,23.99-4.07c2.16-0.19,3.52,1.34,3.55,3.07C370.0,44,369.24,64.09,367.97,72.63c-0.91,6.14-4.25,1.85-5.29-0.27" style="fill:none;stroke:#999;stroke-width:3"></path>
<path d="M353.0,12.63c0.61,0.42,1.89,3.18,2.01,4.03c0.12,0.85-0.08,75.66-0.2,80.97" style="fill:none;stroke:#999;stroke-width:3"></path>
<path d="M388.64,13.5c0.14,1.64-0.04,3.79-0.48,5.2c-2.83,8.97-6.42,16.56-12.9,27.48" style="fill:none;stroke:#999;stroke-width:3"></path>

<path d="M449.49,33.31c0.43,0.39,1.33,2.88,1.42,3.65c0.34,3.04-0.06,36.17-0.14,40.98" style="fill:none;stroke:#999;stroke-width:3"></path>
<path d="M451.28999999999996,36.25c2.47-0.27,22.15-3.91,23.99-4.07c2.16-0.19,3.52,1.34,3.55,3.07C479.0,44,478.24,64.09,476.97,72.63c-0.91,6.14-4.25,1.85-5.29-0.27" style="fill:none;stroke:#999;stroke-width:3"></path>
<path d="M462.0,12.63c0.61,0.42,1.89,3.18,2.01,4.03c0.12,0.85-0.08,75.66-0.2,80.97" style="fill:none;stroke:#999;stroke-width:3"></path>
<path d="M497.64,13.5c0.14,1.64-0.04,3.79-0.48,5.2c-2.83,8.97-6.42,16.56-12.9,27.48" style="fill:none;stroke:#999;stroke-width:3"></path>
<path d="M489.69,36.77c0.69,0.91,1.22,2.89,1.26,4.3c0.41,12.52-0.56,48.16-0.22,54.68" style="fill:none;stroke:#999;stroke-width:3"></path>

<path d="M558.49,33.31c0.43,0.39,1.33,2.88,1.42,3.65c0.34,3.04-0.06,36.17-0.14,40.98" style="fill:none;stroke:#999;stroke-width:3"></path>
<path d="M560.29,36.25c2.47-0.27,22.15-3.91,23.99-4.07c2.16-0.19,3.52,1.34,3.55,3.07C588.0,44,587.24,64.09,585.97,72.63c-0.91,6.14-4.25,1.85-5.29-0.27" style="fill:none;stroke:#999;stroke-width:3"></path>
<path d="M571.0,12.63c0.61,0.42,1.89,3.18,2.01,4.03c0.12,0.85-0.08,75.66-0.2,80.97" style="fill:none;stroke:#999;stroke-width:3"></path>
<path d="M606.64,13.5c0.14,1.64-0.04,3.79-0.48,5.2c-2.83,8.97-6.42,16.56-12.9,27.48" style="fill:none;stroke:#999;stroke-width:3"></path>
<path d="M598.69,36.77c0.69,0.91,1.22,2.89,1.26,4.3c0.41,12.52-0.56,48.16-0.22,54.68" style="fill:none;stroke:#999;stroke-width:3"></path>
<path d="M625.7,13.5c0.06,1.02-0.01,2.35-0.2,3.23c-1.17,5.56-2.66,9.86-5.36,16.63" style="fill:none;stroke:#999;stroke-width:3"></path>

<path d="M667.49,33.31c0.43,0.39,1.33,2.88,1.42,3.65c0.34,3.04-0.06,36.17-0.14,40.98" style="fill:none;stroke:#999;stroke-width:3"></path>
<path d="M669.29,36.25c2.47-0.27,22.15-3.91,23.99-4.07c2.16-0.19,3.52,1.34,3.55,3.07C697.0,44,696.24,64.09,694.97,72.63c-0.91,6.14-4.25,1.85-5.29-0.27" style="fill:none;stroke:#999;stroke-width:3"></path>
<path d="M680.0,12.63c0.61,0.42,1.89,3.18,2.01,4.03c0.12,0.85-0.08,75.66-0.2,80.97" style="fill:none;stroke:#999;stroke-width:3"></path>
<path d="M715.64,13.5c0.14,1.64-0.04,3.79-0.48,5.2c-2.83,8.97-6.42,16.56-12.9,27.48" style="fill:none;stroke:#999;stroke-width:3"></path>
<path d="M707.69,36.77c0.69,0.91,1.22,2.89,1.26,4.3c0.41,12.52-0.56,48.16-0.22,54.68" style="fill:none;stroke:#999;stroke-width:3"></path>
<path d="M734.7,13.5c0.06,1.02-0.01,2.35-0.2,3.23c-1.17,5.56-2.66,9.86-5.36,16.63" style="fill:none;stroke:#999;stroke-width:3"></path>
<path d="M708.75,37.56c9.66-1.2,36.71-4.09,40.14-4.74" style="fill:none;stroke:#999;stroke-width:3"></path>

<path d="M776.49,33.31c0.43,0.39,1.33,2.88,1.42,3.65c0.34,3.04-0.06,36.17-0.14,40.98" style="fill:none;stroke:#999;stroke-width:3"></path>
<path d="M778.29,36.25c2.47-0.27,22.15-3.91,23.99-4.07c2.16-0.19,3.52,1.34,3.55,3.07C806.0,44,805.24,64.09,803.97,72.63c-0.91,6.14-4.25,1.85-5.29-0.27" style="fill:none;stroke:#999;stroke-width:3"></path>
<path d="M789.0,12.63c0.61,0.42,1.89,3.18,2.01,4.03c0.12,0.85-0.08,75.66-0.2,80.97" style="fill:none;stroke:#999;stroke-width:3"></path>
<path d="M824.64,13.5c0.14,1.64-0.04,3.79-0.48,5.2c-2.83,8.97-6.42,16.56-12.9,27.48" style="fill:none;stroke:#999;stroke-width:3"></path>
<path d="M816.69,36.77c0.69,0.91,1.22,2.89,1.26,4.3c0.41,12.52-0.56,48.16-0.22,54.68" style="fill:none;stroke:#999;stroke-width:3"></path>
<path d="M843.7,13.5c0.06,1.02-0.01,2.35-0.2,3.23c-1.17,5.56-2.66,9.86-5.36,16.63" style="fill:none;stroke:#999;stroke-width:3"></path>
<path d="M817.75,37.56c9.66-1.2,36.71-4.09,40.14-4.74" style="fill:none;stroke:#999;stroke-width:3"></path>
<path d="M836.73,38.48c0.39,0.46,0.69,1.1,0.69,1.89c0,8.12,0.04,38.15-0.19,50.94" style="fill:none;stroke:#999;stroke-width:3"></path>

<path d="M885.49,33.31c0.43,0.39,1.33,2.88,1.42,3.65c0.34,3.04-0.06,36.17-0.14,40.98" style="fill:none;stroke:#999;stroke-width:3"></path>
<path d="M887.29,36.25c2.47-0.27,22.15-3.91,23.99-4.07c2.16-0.19,3.52,1.34,3.55,3.07C915.0,44,914.24,64.09,912.97,72.63c-0.91,6.14-4.25,1.85-5.29-0.27" style="fill:none;stroke:#999;stroke-width:3"></path>
<path d="M898.0,12.63c0.61,0.42,1.89,3.18,2.01,4.03c0.12,0.85-0.08,75.66-0.2,80.97" style="fill:none;stroke:#999;stroke-width:3"></path>
<path d="M933.64,13.5c0.14,1.64-0.04,3.79-0.48,5.2c-2.83,8.97-6.42,16.56-12.9,27.48" style="fill:none;stroke:#999;stroke-width:3"></path>
<path d="M925.69,36.77c0.69,0.91,1.22,2.89,1.26,4.3c0.41,12.52-0.56,48.16-0.22,54.68" style="fill:none;stroke:#999;stroke-width:3"></path>
<path d="M952.7,13.5c0.06,1.02-0.01,2.35-0.2,3.23c-1.17,5.56-2.66,9.86-5.36,16.63" style="fill:none;stroke:#999;stroke-width:3"></path>
<path d="M926.75,37.56c9.66-1.2,36.71-4.09,40.14-4.74" style="fill:none;stroke:#999;stroke-width:3"></path>
<path d="M945.73,38.48c0.39,0.46,0.69,1.1,0.69,1.89c0,8.12,0.04,38.15-0.19,50.94" style="fill:none;stroke:#999;stroke-width:3"></path>
<path d="M927.82,53.01c8.68-0.76,32.24-2.32,35.47-2.85" style="fill:none;stroke:#999;stroke-width:3"></path>

<path d="M994.49,33.31c0.43,0.39,1.33,2.88,1.42,3.65c0.34,3.04-0.06,36.17-0.14,40.98" style="fill:none;stroke:#999;stroke-width:3"></path>
<path d="M996.29,36.25c2.47-0.27,22.15-3.91,23.99-4.07c2.16-0.19,3.52,1.34,3.55,3.07C1024.0,44,1023.24,64.09,1021.97,72.63c-0.91,6.14-4.25,1.85-5.29-0.27" style="fill:none;stroke:#999;stroke-width:3"></path>
<path d="M1007.0,12.63c0.61,0.42,1.89,3.18,2.01,4.03c0.12,0.85-0.08,75.66-0.2,80.97" style="fill:none;stroke:#999;stroke-width:3"></path>
<path d="M1042.6399999999999,13.5c0.14,1.64-0.04,3.79-0.48,5.2c-2.83,8.97-6.42,16.56-12.9,27.48" style="fill:none;stroke:#999;stroke-width:3"></path>
<path d="M1034.69,36.77c0.69,0.91,1.22,2.89,1.26,4.3c0.41,12.52-0.56,48.16-0.22,54.68" style="fill:none;stroke:#999;stroke-width:3"></path>
<path d="M1061.7,13.5c0.06,1.02-0.01,2.35-0.2,3.23c-1.17,5.56-2.66,9.86-5.36,16.63" style="fill:none;stroke:#999;stroke-width:3"></path>
<path d="M1035.75,37.56c9.66-1.2,36.71-4.09,40.14-4.74" style="fill:none;stroke:#999;stroke-width:3"></path>
<path d="M1054.73,38.48c0.39,0.46,0.69,1.1,0.69,1.89c0,8.12,0.04,38.15-0.19,50.94" style="fill:none;stroke:#999;stroke-width:3"></path>
<path d="M1036.8200000000002,53.01c8.68-0.76,32.24-2.32,35.47-2.85" style="fill:none;stroke:#999;stroke-width:3"></path>
<path d="M1035.91,70.48c7.94-0.82,33.05-2.51,36.45-2.96" style="fill:none;stroke:#999;stroke-width:3"></path>

<path d="M1103.49,33.31c0.43,0.39,1.33,2.88,1.42,3.65c0.34,3.04-0.06,36.17-0.14,40.98" style="fill:none;stroke:#999;stroke-width:3"></path>
<path d="M1105.29,36.25c2.47-0.27,22.15-3.91,23.99-4.07c2.16-0.19,3.52,1.34,3.55,3.07C1133.0,44,1132.24,64.09,1130.97,72.63c-0.91,6.14-4.25,1.85-5.29-0.27" style="fill:none;stroke:#999;stroke-width:3"></path>
<path d="M1116.0,12.63c0.61,0.42,1.89,3.18,2.01,4.03c0.12,0.85-0.08,75.66-0.2,80.97" style="fill:none;stroke:#999;stroke-width:3"></path>
<path d="M1151.6399999999999,13.5c0.14,1.64-0.04,3.79-0.48,5.2c-2.83,8.97-6.42,16.56-12.9,27.48" style="fill:none;stroke:#999;stroke-width:3"></path>
<path d="M1143.69,36.77c0.69,0.91,1.22,2.89,1.26,4.3c0.41,12.52-0.56,48.16-0.22,54.68" style="fill:none;stroke:#999;stroke-width:3"></path>
<path d="M1170.7,13.5c0.06,1.02-0.01,2.35-0.2,3.23c-1.17,5.56-2.66,9.86-5.36,16.63" style="fill:none;stroke:#999;stroke-width:3"></path>
<path d="M1144.75,37.56c9.66-1.2,36.71-4.09,40.14-4.74" style="fill:none;stroke:#999;stroke-width:3"></path>
<path d="M1163.73,38.48c0.39,0.46,0.69,1.1,0.69,1.89c0,8.12,0.04,38.15-0.19,50.94" style="fill:none;stroke:#999;stroke-width:3"></path>
<path d="M1145.8200000000002,53.01c8.68-0.76,32.24-2.32,35.47-2.85" style="fill:none;stroke:#999;stroke-width:3"></path>
<path d="M1144.91,70.48c7.94-0.82,33.05-2.51,36.45-2.96" style="fill:none;stroke:#999;stroke-width:3"></path>
<path d="M1144.91,92.53c7.98-1.18,39.42-1.43,42.84-2.08" style="fill:none;stroke:#999;stroke-width:3"></path>

</svg>