<svg width="1090px" height="109px" viewBox="0 0 1090 109" xmlns="http://www.w3.org/2000/svg" xmlns:xlink="http://www.w3.org/1999/xlink" xml:space="preserve" version="1.1" baseProfile="full">
<line x1="1" y1="1" x2="1089" y2="1" style="stroke:#ddd;stroke-width:2"></line>
<line x1="1" y1="1" x2="1" y2="108" style="stroke:#ddd;stroke-width:2"></line>
<line x1="1" y1="108" x2="1089" y2="108" style="stroke:#ddd;stroke-width:2"></line>
<line x1="1089" y1="1" x2="1089" y2="108" style="stroke:#ddd;stroke-width:2"></line>
<line x1="109" y1="1" x2="109" y2="108" style="stroke:#ddd;stroke-width:2"></line>
<line x1="218" y1="1" x2="218" y2="108" style="stroke:#ddd;stroke-width:2"></line>
<line x1="327" y1="1" x2="327" y2="108" style="stroke:#ddd;stroke-width:2"></line>
<line x1="436" y1="1" x2="436" y2="108" style="stroke:#ddd;stroke-width:2"></line>
<line x1="545" y1="1" x2="545" y2="108" style="stroke:#ddd;stroke-width:2"></line>
<line x1="654" y1="1" x2="654" y2="108" style="stroke:#ddd;stroke-width:2"></line>
<line x1="763" y1="1" x2="763" y2="108" style="stroke:#ddd;stroke-width:2"></line>
<line x1="872" y1="1" x2="872" y2="108" style="stroke:#ddd;stroke-width:2"></line>
<line x1="981" y1="1" x2="981" y2="108" style="stroke:#ddd;stroke-width:2"></line>
<line x1="1" y1="54" x2="1089" y2="54" style="stroke:#ddd;stroke-width:2;stroke-dasharray:3 3"></line>
<line x1="55" y1="1" x2="55" y2="108" style="stroke:#ddd;stroke-width:2;stroke-dasharray:3 3"></line>
<line x1="164" y1="1" x2="164" y2="108" style="stroke:#ddd;stroke-width:2;stroke-dasharray:3 3"></line>
<line x1="273" y1="1" x2="273" y2="108" style="stroke:#ddd;stroke-width:2;stroke-dasharray:3 3"></line>
<line x1="382" y1="1" x2="382" y2="108" style="stroke:#ddd;stroke-width:2;stroke-dasharray:3 3"></line>
<line x1="491" y1="1" x2="491" y2="108" style="stroke:#ddd;stroke-width:2;stroke-dasharray:3 3"></line>
<line x1="600" y1="1" x2="600" y2="108" style="stroke:#ddd;stroke-width:2;stroke-dasharray:3 3"></line>
<line x1="709" y1="1" x2="709" y2="108" style="stroke:#ddd;stroke-width:2;stroke-dasharray:3 3"></line>
<line x1="818" y1="1" x2="818" y2="108" style="stroke:#ddd;stroke-width:2;stroke-dasharray:3 3"></line>
<line x1="927" y1="1" x2="927" y2="108" style="stroke:#ddd;stroke-width:2;stroke-dasharray:3 3"></line>
<line x1="1036" y1="1" x2="1036" y2="108" style="stroke:#ddd;stroke-width:2;stroke-dasharray:3 3"></line>
<path d="M53.88,10.13c0.94,0.94,1.64,2.5,1.64,3.97c0,0.75-0.07,4.15-0.07,7.75" style="fill:none;stroke:#999;stroke-width:3"></path>

<path d="M162.88,10.13c0.94,0.94,1.64,2.5,1.64,3.97c0,0.75-0.07,4.15-0.07,7.75" style="fill:none;stroke:#999;stroke-width:3"></path>
<path d="M132.46,24.94c1.78,0.51,5.04,0.67,6.82,0.51c16.97-1.46,38.59-4.08,52.65-4.77c2.96-0.14,4.74,0.25,6.22,0.5" style="fill:none;stroke:#999;stroke-width:3"></path>

<path d="M271.88,10.13c0.94,0.94,1.64,2.5,1.64,3.97c0,0.75-0.07,4.15-0.07,7.75" style="fill:none;stroke:#999;stroke-width:3"></path>
<path d="M241.46,24.94c1.78,0.51,5.04,0.67,6.82,0.51c16.97-1.46,38.59-4.08,52.65-4.77c2.96-0.14,4.74,0.25,6.22,0.5" style="fill:none;stroke:#999;stroke-width:3"></path>
<path d="M243.82999999999998,25.58c0.8,0.8,1.18,1.67,1.14,2.95c-0.59,19.6-3.22,41.85-17.81,56.2" style="fill:none;stroke:#999;stroke-width:3"></path>

<path d="M380.88,10.13c0.94,0.94,1.64,2.5,1.64,3.97c0,0.75-0.07,4.15-0.07,7.75" style="fill:none;stroke:#999;stroke-width:3"></path>
<path d="M350.46000000000004,24.94c1.78,0.51,5.04,0.67,6.82,0.51c16.97-1.46,38.59-4.08,52.65-4.77c2.96-0.14,4.74,0.25,6.22,0.5" style="fill:none;stroke:#999;stroke-width:3"></path>
<path d="M352.83,25.58c0.8,0.8,1.18,1.67,1.14,2.95c-0.59,19.6-3.22,41.85-17.81,56.2" style="fill:none;stroke:#999;stroke-width:3"></path>
<path d="M364.62,36.88c1.29,0.35,3.4,0.48,4.68,0.35c11.08-1.11,24.2-2.98,34.83-3.76c2.14-0.16,3.68,0.17,4.75,0.34" style="fill:none;stroke:#999;stroke-width:3"></path>

<path d="M489.88,10.13c0.94,0.94,1.64,2.5,1.64,3.97c0,0.75-0.07,4.15-0.07,7.75" style="fill:none;stroke:#999;stroke-width:3"></path>
<path d="M459.46000000000004,24.94c1.78,0.51,5.04,0.67,6.82,0.51c16.97-1.46,38.59-4.08,52.65-4.77c2.96-0.14,4.74,0.25,6.22,0.5" style="fill:none;stroke:#999;stroke-width:3"></path>
<path d="M461.83,25.58c0.8,0.8,1.18,1.67,1.14,2.95c-0.59,19.6-3.22,41.85-17.81,56.2" style="fill:none;stroke:#999;stroke-width:3"></path>
<path d="M473.62,36.88c1.29,0.35,3.4,0.48,4.68,0.35c11.08-1.11,24.2-2.98,34.83-3.76c2.14-0.16,3.68,0.17,4.75,0.34" style="fill:none;stroke:#999;stroke-width:3"></path>
<path d="M472.76,47.61c0.94,0.94,1.86,2.01,2.06,3.17c0.61,3.62,1.49,9.86,2.45,16.57c0.21,1.48,0.43,2.99,0.65,4.5" style="fill:none;stroke:#999;stroke-width:3"></path>

<path d="M598.88,10.13c0.94,0.94,1.64,2.5,1.64,3.97c0,0.75-0.07,4.15-0.07,7.75" style="fill:none;stroke:#999;stroke-width:3"></path>
<path d="M568.46,24.94c1.78,0.51,5.04,0.67,6.82,0.51c16.97-1.46,38.59-4.08,52.65-4.77c2.96-0.14,4.74,0.25,6.22,0.5" style="fill:none;stroke:#999;stroke-width:3"></path>
<path d="M570.8299999999999,25.58c0.8,0.8,1.18,1.67,1.14,2.95c-0.59,19.6-3.22,41.85-17.81,56.2" style="fill:none;stroke:#999;stroke-width:3"></path>
<path d="M582.62,36.88c1.29,0.35,3.4,0.48,4.68,0.35c11.08-1.11,24.2-2.98,34.83-3.76c2.14-0.16,3.68,0.17,4.75,0.34" style="fill:none;stroke:#999;stroke-width:3"></path>
<path d="M581.76,47.61c0.94,0.94,1.86,2.01,2.06,3.17c0.61,3.62,1.49,9.86,2.45,16.57c0.21,1.48,0.43,2.99,0.65,4.5" style="fill:none;stroke:#999;stroke-width:3"></path>
<path d="M584.2,49.02c10.87-1.23,27.48-3.35,36.93-4.08c2.9-0.22,4.49,0.35,4.17,3.44c-0.41,3.94-1.96,10.42-3.62,16.66c-0.36,1.34-0.72,2.66-1.07,3.95" style="fill:none;stroke:#999;stroke-width:3"></path>

<path d="M707.88,10.13c0.94,0.94,1.64,2.5,1.64,3.97c0,0.75-0.07,4.15-0.07,7.75" style="fill:none;stroke:#999;stroke-width:3"></path>
<path d="M677.46,24.94c1.78,0.51,5.04,0.67,6.82,0.51c16.97-1.46,38.59-4.08,52.65-4.77c2.96-0.14,4.74,0.25,6.22,0.5" style="fill:none;stroke:#999;stroke-width:3"></path>
<path d="M679.8299999999999,25.58c0.8,0.8,1.18,1.67,1.14,2.95c-0.59,19.6-3.22,41.85-17.81,56.2" style="fill:none;stroke:#999;stroke-width:3"></path>
<path d="M691.62,36.88c1.29,0.35,3.4,0.48,4.68,0.35c11.08-1.11,24.2-2.98,34.83-3.76c2.14-0.16,3.68,0.17,4.75,0.34" style="fill:none;stroke:#999;stroke-width:3"></path>
<path d="M690.76,47.61c0.94,0.94,1.86,2.01,2.06,3.17c0.61,3.62,1.49,9.86,2.45,16.57c0.21,1.48,0.43,2.99,0.65,4.5" style="fill:none;stroke:#999;stroke-width:3"></path>
<path d="M693.2,49.02c10.87-1.23,27.48-3.35,36.93-4.08c2.9-0.22,4.49,0.35,4.17,3.44c-0.41,3.94-1.96,10.42-3.62,16.66c-0.36,1.34-0.72,2.66-1.07,3.95" style="fill:none;stroke:#999;stroke-width:3"></path>
<path d="M695.97,59.01c9.78-1.01,24.9-2.13,35.84-2.93" style="fill:none;stroke:#999;stroke-width:3"></path>

<path d="M816.88,10.13c0.94,0.94,1.64,2.5,1.64,3.97c0,0.75-0.07,4.15-0.07,7.75" style="fill:none;stroke:#999;stroke-width:3"></path>
<path d="M786.46,24.94c1.78,0.51,5.04,0.67,6.82,0.51c16.97-1.46,38.59-4.08,52.65-4.77c2.96-0.14,4.74,0.25,6.22,0.5" style="fill:none;stroke:#999;stroke-width:3"></path>
<path d="M788.8299999999999,25.58c0.8,0.8,1.18,1.67,1.14,2.95c-0.59,19.6-3.22,41.85-17.81,56.2" style="fill:none;stroke:#999;stroke-width:3"></path>
<path d="M800.62,36.88c1.29,0.35,3.4,0.48,4.68,0.35c11.08-1.11,24.2-2.98,34.83-3.76c2.14-0.16,3.68,0.17,4.75,0.34" style="fill:none;stroke:#999;stroke-width:3"></path>
<path d="M799.76,47.61c0.94,0.94,1.86,2.01,2.06,3.17c0.61,3.62,1.49,9.86,2.45,16.57c0.21,1.48,0.43,2.99,0.65,4.5" style="fill:none;stroke:#999;stroke-width:3"></path>
<path d="M802.2,49.02c10.87-1.23,27.48-3.35,36.93-4.08c2.9-0.22,4.49,0.35,4.17,3.44c-0.41,3.94-1.96,10.42-3.62,16.66c-0.36,1.34-0.72,2.66-1.07,3.95" style="fill:none;stroke:#999;stroke-width:3"></path>
<path d="M804.97,59.01c9.78-1.01,24.9-2.13,35.84-2.93" style="fill:none;stroke:#999;stroke-width:3"></path>
<path d="M805.72,69.73c10.53-1.48,20.53-2.23,32.38-3.16" style="fill:none;stroke:#999;stroke-width:3"></path>

<path d="M925.88,10.13c0.94,0.94,1.64,2.5,1.64,3.97c0,0.75-0.07,4.15-0.07,7.75" style="fill:none;stroke:#999;stroke-width:3"></path>
<path d="M895.46,24.94c1.78,0.51,5.04,0.67,6.82,0.51c16.97-1.46,38.59-4.08,52.65-4.77c2.96-0.14,4.74,0.25,6.22,0.5" style="fill:none;stroke:#999;stroke-width:3"></path>
<path d="M897.8299999999999,25.58c0.8,0.8,1.18,1.67,1.14,2.95c-0.59,19.6-3.22,41.85-17.81,56.2" style="fill:none;stroke:#999;stroke-width:3"></path>
<path d="M909.62,36.88c1.29,0.35,3.4,0.48,4.68,0.35c11.08-1.11,24.2-2.98,34.83-3.76c2.14-0.16,3.68,0.17,4.75,0.34" style="fill:none;stroke:#999;stroke-width:3"></path>
<path d="M908.76,47.61c0.94,0.94,1.86,2.01,2.06,3.17c0.61,3.62,1.49,9.86,2.45,16.57c0.21,1.48,0.43,2.99,0.65,4.5" style="fill:none;stroke:#999;stroke-width:3"></path>
<path d="M911.2,49.02c10.87-1.23,27.48-3.35,36.93-4.08c2.9-0.22,4.49,0.35,4.17,3.44c-0.41,3.94-1.96,10.42-3.62,16.66c-0.36,1.34-0.72,2.66-1.07,3.95" style="fill:none;stroke:#999;stroke-width:3"></path>
<path d="M913.97,59.01c9.78-1.01,24.9-2.13,35.84-2.93" style="fill:none;stroke:#999;stroke-width:3"></path>
<path d="M914.72,69.73c10.53-1.48,20.53-2.23,32.38-3.16" style="fill:none;stroke:#999;stroke-width:3"></path>
<path d="M900.25,82.75c3.25,0.87,6.15,0.67,8.87,0.44C926.0,81.75,944.7,79.77,956.26,79.43c2.68-0.08,5.37-0.05,7.99,0.65" style="fill:none;stroke:#999;stroke-width:3"></path>

<path d="M1034.88,10.13c0.94,0.94,1.64,2.5,1.64,3.97c0,0.75-0.07,4.15-0.07,7.75" style="fill:none;stroke:#999;stroke-width:3"></path>
<path d="M1004.46,24.94c1.78,0.51,5.04,0.67,6.82,0.51c16.97-1.46,38.59-4.08,52.65-4.77c2.96-0.14,4.74,0.25,6.22,0.5" style="fill:none;stroke:#999;stroke-width:3"></path>
<path d="M1006.8299999999999,25.58c0.8,0.8,1.18,1.67,1.14,2.95c-0.59,19.6-3.22,41.85-17.81,56.2" style="fill:none;stroke:#999;stroke-width:3"></path>
<path d="M1018.62,36.88c1.29,0.35,3.4,0.48,4.68,0.35c11.08-1.11,24.2-2.98,34.83-3.76c2.14-0.16,3.68,0.17,4.75,0.34" style="fill:none;stroke:#999;stroke-width:3"></path>
<path d="M1017.76,47.61c0.94,0.94,1.86,2.01,2.06,3.17c0.61,3.62,1.49,9.86,2.45,16.57c0.21,1.48,0.43,2.99,0.65,4.5" style="fill:none;stroke:#999;stroke-width:3"></path>
<path d="M1020.2,49.02c10.87-1.23,27.48-3.35,36.93-4.08c2.9-0.22,4.49,0.35,4.17,3.44c-0.41,3.94-1.96,10.42-3.62,16.66c-0.36,1.34-0.72,2.66-1.07,3.95" style="fill:none;stroke:#999;stroke-width:3"></path>
<path d="M1022.97,59.01c9.78-1.01,24.9-2.13,35.84-2.93" style="fill:none;stroke:#999;stroke-width:3"></path>
<path d="M1023.72,69.73c10.53-1.48,20.53-2.23,32.38-3.16" style="fill:none;stroke:#999;stroke-width:3"></path>
<path d="M1009.25,82.75c3.25,0.87,6.15,0.67,8.87,0.44C1035.0,81.75,1053.7,79.77,1065.26,79.43c2.68-0.08,5.37-0.05,7.99,0.65" style="fill:none;stroke:#999;stroke-width:3"></path>
<path d="M1038.01,26.79c1.04,1.04,1.72,2.58,1.72,4.18c0,0.92-0.05,44.38-0.12,62.28c-0.01,3.41-0.03,5.89-0.05,6.98" style="fill:none;stroke:#999;stroke-width:3"></path>

</svg>