<svg width="436px" height="109px" viewBox="0 0 436 109" xmlns="http://www.w3.org/2000/svg" xmlns:xlink="http://www.w3.org/1999/xlink" xml:space="preserve" version="1.1" baseProfile="full">
<line x1="1" y1="1" x2="435" y2="1" style="stroke:#ddd;stroke-width:2"></line>
<line x1="1" y1="1" x2="1" y2="108" style="stroke:#ddd;stroke-width:2"></line>
<line x1="1" y1="108" x2="435" y2="108" style="stroke:#ddd;stroke-width:2"></line>
<line x1="435" y1="1" x2="435" y2="108" style="stroke:#ddd;stroke-width:2"></line>
<line x1="109" y1="1" x2="109" y2="108" style="stroke:#ddd;stroke-width:2"></line>
<line x1="218" y1="1" x2="218" y2="108" style="stroke:#ddd;stroke-width:2"></line>
<line x1="327" y1="1" x2="327" y2="108" style="stroke:#ddd;stroke-width:2"></line>
<line x1="1" y1="54" x2="435" y2="54" style="stroke:#ddd;stroke-width:2;stroke-dasharray:3 3"></line>
<line x1="55" y1="1" x2="55" y2="108" style="stroke:#ddd;stroke-width:2;stroke-dasharray:3 3"></line>
<line x1="164" y1="1" x2="164" y2="108" style="stroke:#ddd;stroke-width:2;stroke-dasharray:3 3"></line>
<line x1="273" y1="1" x2="273" y2="108" style="stroke:#ddd;stroke-width:2;stroke-dasharray:3 3"></line>
<line x1="382" y1="1" x2="382" y2="108" style="stroke:#ddd;stroke-width:2;stroke-dasharray:3 3"></line>
<path d="M12.75,51.2c1.52,0.54,4.3,0.64,5.82,0.54c7.93-0.49,56.93-5.49,73.61-5.73c2.53-0.04,4.05,0.26,5.31,0.53" style="fill:none;stroke:#999;stroke-width:3"></path>

<path d="M121.75,51.2c1.52,0.54,4.3,0.64,5.82,0.54c7.93-0.49,56.93-5.49,73.61-5.73c2.53-0.04,4.05,0.26,5.31,0.53" style="fill:none;stroke:#999;stroke-width:3"></path>
<path d="M147.75,24.25c1.25,0.5,2,2.25,2.25,3.25s0,58.25-0.25,64.5" style="fill:none;stroke:#999;stroke-width:3"></path>

<path d="M230.75,51.2c1.52,0.54,4.3,0.64,5.82,0.54c7.93-0.49,56.93-5.49,73.61-5.73c2.53-0.04,4.05,0.26,5.31,0.53" style="fill:none;stroke:#999;stroke-width:3"></path>
<path d="M256.75,24.25c1.25,0.5,2,2.25,2.25,3.25s0,58.25-0.25,64.5" style="fill:none;stroke:#999;stroke-width:3"></path>
<path d="M288.25,19.75c1.25,0.5,2,2.25,2.25,3.25s-2,54.75-2.75,64" style="fill:none;stroke:#999;stroke-width:3"></path>

<path d="M339.75,51.2c1.52,0.54,4.3,0.64,5.82,0.54c7.93-0.49,56.93-5.49,73.61-5.73c2.53-0.04,4.05,0.26,5.31,0.53" style="fill:none;stroke:#999;stroke-width:3"></path>
<path d="M365.75,24.25c1.25,0.5,2,2.25,2.25,3.25s0,58.25-0.25,64.5" style="fill:none;stroke:#999;stroke-width:3"></path>
<path d="M397.25,19.75c1.25,0.5,2,2.25,2.25,3.25s-2,54.75-2.75,64" style="fill:none;stroke:#999;stroke-width:3"></path>
<path d="M367.75,90.25c4.75,0,29.98-2.53,34.25-2.75" style="fill:none;stroke:#999;stroke-width:3"></path>

</svg>