<svg width="981px" height="109px" viewBox="0 0 981 109" xmlns="http://www.w3.org/2000/svg" xmlns:xlink="http://www.w3.org/1999/xlink" xml:space="preserve" version="1.1" baseProfile="full">
<line x1="1" y1="1" x2="980" y2="1" style="stroke:#ddd;stroke-width:2"></line>
<line x1="1" y1="1" x2="1" y2="108" style="stroke:#ddd;stroke-width:2"></line>
<line x1="1" y1="108" x2="980" y2="108" style="stroke:#ddd;stroke-width:2"></line>
<line x1="980" y1="1" x2="980" y2="108" style="stroke:#ddd;stroke-width:2"></line>
<line x1="109" y1="1" x2="109" y2="108" style="stroke:#ddd;stroke-width:2"></line>
<line x1="218" y1="1" x2="218" y2="108" style="stroke:#ddd;stroke-width:2"></line>
<line x1="327" y1="1" x2="327" y2="108" style="stroke:#ddd;stroke-width:2"></line>
<line x1="436" y1="1" x2="436" y2="108" style="stroke:#ddd;stroke-width:2"></line>
<line x1="545" y1="1" x2="545" y2="108" style="stroke:#ddd;stroke-width:2"></line>
<line x1="654" y1="1" x2="654" y2="108" style="stroke:#ddd;stroke-width:2"></line>
<line x1="763" y1="1" x2="763" y2="108" style="stroke:#ddd;stroke-width:2"></line>
<line x1="872" y1="1" x2="872" y2="108" style="stroke:#ddd;stroke-width:2"></line>
<line x1="1" y1="54" x2="980" y2="54" style="stroke:#ddd;stroke-width:2;stroke-dasharray:3 3"></line>
<line x1="55" y1="1" x2="55" y2="108" style="stroke:#ddd;stroke-width:2;stroke-dasharray:3 3"></line>
<line x1="164" y1="1" x2="164" y2="108" style="stroke:#ddd;stroke-width:2;stroke-dasharray:3 3"></line>
<line x1="273" y1="1" x2="273" y2="108" style="stroke:#ddd;stroke-width:2;stroke-dasharray:3 3"></line>
<line x1="382" y1="1" x2="382" y2="108" style="stroke:#ddd;stroke-width:2;stroke-dasharray:3 3"></line>
<line x1="491" y1="1" x2="491" y2="108" style="stroke:#ddd;stroke-width:2;stroke-dasharray:3 3"></line>
<line x1="600" y1="1" x2="600" y2="108" style="stroke:#ddd;stroke-width:2;stroke-dasharray:3 3"></line>
<line x1="709" y1="1" x2="709" y2="108" style="stroke:#ddd;stroke-width:2;stroke-dasharray:3 3"></line>
<line x1="818" y1="1" x2="818" y2="108" style="stroke:#ddd;stroke-width:2;stroke-dasharray:3 3"></line>
<line x1="927" y1="1" x2="927" y2="108" style="stroke:#ddd;stroke-width:2;stroke-dasharray:3 3"></line>
<path d="M40.7,13.25c0.79,1.19,1.12,3.07,0.4,4.84C39.5,22,37.75,26.25,35.5,29.52c-0.94,1.37,0.25,2.23,2.18,1.98c8.03-1.02,13.19-1.55,25.13-2.28" style="fill:none;stroke:#999;stroke-width:3"></path>

<path d="M149.7,13.25c0.79,1.19,1.12,3.07,0.4,4.84C148.5,22,146.75,26.25,144.5,29.52c-0.94,1.37,0.25,2.23,2.18,1.98c8.03-1.02,13.19-1.55,25.13-2.28" style="fill:none;stroke:#999;stroke-width:3"></path>
<path d="M151.25,17.46c3.44-0.23,18.63-2.44,21.77-2.71c2.61-0.23,3.68,1.31,3.25,2.95c-1.61,6.08-4.52,15.05-6.55,21.05" style="fill:none;stroke:#999;stroke-width:3"></path>

<path d="M258.7,13.25c0.79,1.19,1.12,3.07,0.4,4.84C257.5,22,255.75,26.25,253.5,29.52c-0.94,1.37,0.25,2.23,2.18,1.98c8.03-1.02,13.19-1.55,25.13-2.28" style="fill:none;stroke:#999;stroke-width:3"></path>
<path d="M260.25,17.46c3.44-0.23,18.63-2.44,21.77-2.71c2.61-0.23,3.68,1.31,3.25,2.95c-1.61,6.08-4.52,15.05-6.55,21.05" style="fill:none;stroke:#999;stroke-width:3"></path>
<path d="M234.25,41.21c1.49,0.53,4.22,0.58,5.71,0.53c15.79-0.49,52.18-4.38,67.82-3.63c2.48,0.12,3.97,0.25,5.22,0.52" style="fill:none;stroke:#999;stroke-width:3"></path>

<path d="M367.7,13.25c0.79,1.19,1.12,3.07,0.4,4.84C366.5,22,364.75,26.25,362.5,29.52c-0.94,1.37,0.25,2.23,2.18,1.98c8.03-1.02,13.19-1.55,25.13-2.28" style="fill:none;stroke:#999;stroke-width:3"></path>
<path d="M369.25,17.46c3.44-0.23,18.63-2.44,21.77-2.71c2.61-0.23,3.68,1.31,3.25,2.95c-1.61,6.08-4.52,15.05-6.55,21.05" style="fill:none;stroke:#999;stroke-width:3"></path>
<path d="M343.25,41.21c1.49,0.53,4.22,0.58,5.71,0.53c15.79-0.49,52.18-4.38,67.82-3.63c2.48,0.12,3.97,0.25,5.22,0.52" style="fill:none;stroke:#999;stroke-width:3"></path>
<path d="M379.65999999999997,42.4c0.09,0.43,0.2,1.12-0.19,1.74c-2.27,3.68-15.28,11.75-33.08,16.69" style="fill:none;stroke:#999;stroke-width:3"></path>

<path d="M476.7,13.25c0.79,1.19,1.12,3.07,0.4,4.84C475.5,22,473.75,26.25,471.5,29.52c-0.94,1.37,0.25,2.23,2.18,1.98c8.03-1.02,13.19-1.55,25.13-2.28" style="fill:none;stroke:#999;stroke-width:3"></path>
<path d="M478.25,17.46c3.44-0.23,18.63-2.44,21.77-2.71c2.61-0.23,3.68,1.31,3.25,2.95c-1.61,6.08-4.52,15.05-6.55,21.05" style="fill:none;stroke:#999;stroke-width:3"></path>
<path d="M452.25,41.21c1.49,0.53,4.22,0.58,5.71,0.53c15.79-0.49,52.18-4.38,67.82-3.63c2.48,0.12,3.97,0.25,5.22,0.52" style="fill:none;stroke:#999;stroke-width:3"></path>
<path d="M488.65999999999997,42.4c0.09,0.43,0.2,1.12-0.19,1.74c-2.27,3.68-15.28,11.75-33.08,16.69" style="fill:none;stroke:#999;stroke-width:3"></path>
<path d="M484.75,47.9c9.5,7.35,14.25,26.85,9.08,44.42c-2.25,7.66-9.64,0.86-10.89,0.05" style="fill:none;stroke:#999;stroke-width:3"></path>

<path d="M585.7,13.25c0.79,1.19,1.12,3.07,0.4,4.84C584.5,22,582.75,26.25,580.5,29.52c-0.94,1.37,0.25,2.23,2.18,1.98c8.03-1.02,13.19-1.55,25.13-2.28" style="fill:none;stroke:#999;stroke-width:3"></path>
<path d="M587.25,17.46c3.44-0.23,18.63-2.44,21.77-2.71c2.61-0.23,3.68,1.31,3.25,2.95c-1.61,6.08-4.52,15.05-6.55,21.05" style="fill:none;stroke:#999;stroke-width:3"></path>
<path d="M561.25,41.21c1.49,0.53,4.22,0.58,5.71,0.53c15.79-0.49,52.18-4.38,67.82-3.63c2.48,0.12,3.97,0.25,5.22,0.52" style="fill:none;stroke:#999;stroke-width:3"></path>
<path d="M597.66,42.4c0.09,0.43,0.2,1.12-0.19,1.74c-2.27,3.68-15.28,11.75-33.08,16.69" style="fill:none;stroke:#999;stroke-width:3"></path>
<path d="M593.75,47.9c9.5,7.35,14.25,26.85,9.08,44.42c-2.25,7.66-9.64,0.86-10.89,0.05" style="fill:none;stroke:#999;stroke-width:3"></path>
<path d="M595.26,54.48c0.08,0.51,0.18,1.32-0.17,2.05c-2.05,4.33-13.83,13.83-29.95,19.66" style="fill:none;stroke:#999;stroke-width:3"></path>

<path d="M694.7,13.25c0.79,1.19,1.12,3.07,0.4,4.84C693.5,22,691.75,26.25,689.5,29.52c-0.94,1.37,0.25,2.23,2.18,1.98c8.03-1.02,13.19-1.55,25.13-2.28" style="fill:none;stroke:#999;stroke-width:3"></path>
<path d="M696.25,17.46c3.44-0.23,18.63-2.44,21.77-2.71c2.61-0.23,3.68,1.31,3.25,2.95c-1.61,6.08-4.52,15.05-6.55,21.05" style="fill:none;stroke:#999;stroke-width:3"></path>
<path d="M670.25,41.21c1.49,0.53,4.22,0.58,5.71,0.53c15.79-0.49,52.18-4.38,67.82-3.63c2.48,0.12,3.97,0.25,5.22,0.52" style="fill:none;stroke:#999;stroke-width:3"></path>
<path d="M706.66,42.4c0.09,0.43,0.2,1.12-0.19,1.74c-2.27,3.68-15.28,11.75-33.08,16.69" style="fill:none;stroke:#999;stroke-width:3"></path>
<path d="M702.75,47.9c9.5,7.35,14.25,26.85,9.08,44.42c-2.25,7.66-9.64,0.86-10.89,0.05" style="fill:none;stroke:#999;stroke-width:3"></path>
<path d="M704.26,54.48c0.08,0.51,0.18,1.32-0.17,2.05c-2.05,4.33-13.83,13.83-29.95,19.66" style="fill:none;stroke:#999;stroke-width:3"></path>
<path d="M709.25,64.45c0.1,0.66,0.22,1.7-0.21,2.65c-2.49,5.58-16.76,17.83-36.29,25.33" style="fill:none;stroke:#999;stroke-width:3"></path>

<path d="M803.7,13.25c0.79,1.19,1.12,3.07,0.4,4.84C802.5,22,800.75,26.25,798.5,29.52c-0.94,1.37,0.25,2.23,2.18,1.98c8.03-1.02,13.19-1.55,25.13-2.28" style="fill:none;stroke:#999;stroke-width:3"></path>
<path d="M805.25,17.46c3.44-0.23,18.63-2.44,21.77-2.71c2.61-0.23,3.68,1.31,3.25,2.95c-1.61,6.08-4.52,15.05-6.55,21.05" style="fill:none;stroke:#999;stroke-width:3"></path>
<path d="M779.25,41.21c1.49,0.53,4.22,0.58,5.71,0.53c15.79-0.49,52.18-4.38,67.82-3.63c2.48,0.12,3.97,0.25,5.22,0.52" style="fill:none;stroke:#999;stroke-width:3"></path>
<path d="M815.66,42.4c0.09,0.43,0.2,1.12-0.19,1.74c-2.27,3.68-15.28,11.75-33.08,16.69" style="fill:none;stroke:#999;stroke-width:3"></path>
<path d="M811.75,47.9c9.5,7.35,14.25,26.85,9.08,44.42c-2.25,7.66-9.64,0.86-10.89,0.05" style="fill:none;stroke:#999;stroke-width:3"></path>
<path d="M813.26,54.48c0.08,0.51,0.18,1.32-0.17,2.05c-2.05,4.33-13.83,13.83-29.95,19.66" style="fill:none;stroke:#999;stroke-width:3"></path>
<path d="M818.25,64.45c0.1,0.66,0.22,1.7-0.21,2.65c-2.49,5.58-16.76,17.83-36.29,25.33" style="fill:none;stroke:#999;stroke-width:3"></path>
<path d="M842.29,44.24c0.05,0.44,0.11,1.13-0.11,1.76c-1.28,3.72-8.63,11.88-18.69,16.88" style="fill:none;stroke:#999;stroke-width:3"></path>

<path d="M912.7,13.25c0.79,1.19,1.12,3.07,0.4,4.84C911.5,22,909.75,26.25,907.5,29.52c-0.94,1.37,0.25,2.23,2.18,1.98c8.03-1.02,13.19-1.55,25.13-2.28" style="fill:none;stroke:#999;stroke-width:3"></path>
<path d="M914.25,17.46c3.44-0.23,18.63-2.44,21.77-2.71c2.61-0.23,3.68,1.31,3.25,2.95c-1.61,6.08-4.52,15.05-6.55,21.05" style="fill:none;stroke:#999;stroke-width:3"></path>
<path d="M888.25,41.21c1.49,0.53,4.22,0.58,5.71,0.53c15.79-0.49,52.18-4.38,67.82-3.63c2.48,0.12,3.97,0.25,5.22,0.52" style="fill:none;stroke:#999;stroke-width:3"></path>
<path d="M924.66,42.4c0.09,0.43,0.2,1.12-0.19,1.74c-2.27,3.68-15.28,11.75-33.08,16.69" style="fill:none;stroke:#999;stroke-width:3"></path>
<path d="M920.75,47.9c9.5,7.35,14.25,26.85,9.08,44.42c-2.25,7.66-9.64,0.86-10.89,0.05" style="fill:none;stroke:#999;stroke-width:3"></path>
<path d="M922.26,54.48c0.08,0.51,0.18,1.32-0.17,2.05c-2.05,4.33-13.83,13.83-29.95,19.66" style="fill:none;stroke:#999;stroke-width:3"></path>
<path d="M927.25,64.45c0.1,0.66,0.22,1.7-0.21,2.65c-2.49,5.58-16.76,17.83-36.29,25.33" style="fill:none;stroke:#999;stroke-width:3"></path>
<path d="M951.29,44.24c0.05,0.44,0.11,1.13-0.11,1.76c-1.28,3.72-8.63,11.88-18.69,16.88" style="fill:none;stroke:#999;stroke-width:3"></path>
<path d="M933.75,62.33c4.38,3.12,23.62,17.86,28.38,20.93c1.62,1.04,3,1.48,4.62,1.78" style="fill:none;stroke:#999;stroke-width:3"></path>

</svg>