<svg width="327px" height="109px" viewBox="0 0 327 109" xmlns="http://www.w3.org/2000/svg" xmlns:xlink="http://www.w3.org/1999/xlink" xml:space="preserve" version="1.1" baseProfile="full">
<line x1="1" y1="1" x2="326" y2="1" style="stroke:#ddd;stroke-width:2"></line>
<line x1="1" y1="1" x2="1" y2="108" style="stroke:#ddd;stroke-width:2"></line>
<line x1="1" y1="108" x2="326" y2="108" style="stroke:#ddd;stroke-width:2"></line>
<line x1="326" y1="1" x2="326" y2="108" style="stroke:#ddd;stroke-width:2"></line>
<line x1="109" y1="1" x2="109" y2="108" style="stroke:#ddd;stroke-width:2"></line>
<line x1="218" y1="1" x2="218" y2="108" style="stroke:#ddd;stroke-width:2"></line>
<line x1="1" y1="54" x2="326" y2="54" style="stroke:#ddd;stroke-width:2;stroke-dasharray:3 3"></line>
<line x1="55" y1="1" x2="55" y2="108" style="stroke:#ddd;stroke-width:2;stroke-dasharray:3 3"></line>
<line x1="164" y1="1" x2="164" y2="108" style="stroke:#ddd;stroke-width:2;stroke-dasharray:3 3"></line>
<line x1="273" y1="1" x2="273" y2="108" style="stroke:#ddd;stroke-width:2;stroke-dasharray:3 3"></line>
<path d="M66.25,14.5c0.1,0.67,0.37,1.83-0.21,2.71C62.25,23,51.0,35.25,30.72,42.16" style="fill:none;stroke:#999;stroke-width:3"></path>

<path d="M175.25,14.5c0.1,0.67,0.37,1.83-0.21,2.71C171.25,23,160.0,35.25,139.72,42.16" style="fill:none;stroke:#999;stroke-width:3"></path>
<path d="M183.95999999999998,36.36c0.12,0.71,0.42,1.95-0.23,2.87c-4.47,6.27-18.47,20.52-41.03,27.44" style="fill:none;stroke:#999;stroke-width:3"></path>

<path d="M284.25,14.5c0.1,0.67,0.37,1.83-0.21,2.71C280.25,23,269.0,35.25,248.72,42.16" style="fill:none;stroke:#999;stroke-width:3"></path>
<path d="M292.96,36.36c0.12,0.71,0.42,1.95-0.23,2.87c-4.47,6.27-18.47,20.52-41.03,27.44" style="fill:none;stroke:#999;stroke-width:3"></path>
<path d="M299.75,59c0.15,0.91,0.31,2.33-0.29,3.63C295.93,70.25,275.62,87,247.82,97.25" style="fill:none;stroke:#999;stroke-width:3"></path>

</svg>