<svg width="1199px" height="109px" viewBox="0 0 1199 109" xmlns="http://www.w3.org/2000/svg" xmlns:xlink="http://www.w3.org/1999/xlink" xml:space="preserve" version="1.1" baseProfile="full">
<line x1="1" y1="1" x2="1198" y2="1" style="stroke:#ddd;stroke-width:2"></line>
<line x1="1" y1="1" x2="1" y2="108" style="stroke:#ddd;stroke-width:2"></line>
<line x1="1" y1="108" x2="1198" y2="108" style="stroke:#ddd;stroke-width:2"></line>
<line x1="1198" y1="1" x2="1198" y2="108" style="stroke:#ddd;stroke-width:2"></line>
<line x1="109" y1="1" x2="109" y2="108" style="stroke:#ddd;stroke-width:2"></line>
<line x1="218" y1="1" x2="218" y2="108" style="stroke:#ddd;stroke-width:2"></line>
<line x1="327" y1="1" x2="327" y2="108" style="stroke:#ddd;stroke-width:2"></line>
<line x1="436" y1="1" x2="436" y2="108" style="stroke:#ddd;stroke-width:2"></line>
<line x1="545" y1="1" x2="545" y2="108" style="stroke:#ddd;stroke-width:2"></line>
<line x1="654" y1="1" x2="654" y2="108" style="stroke:#ddd;stroke-width:2"></line>
<line x1="763" y1="1" x2="763" y2="108" style="stroke:#ddd;stroke-width:2"></line>
<line x1="872" y1="1" x2="872" y2="108" style="stroke:#ddd;stroke-width:2"></line>
<line x1="981" y1="1" x2="981" y2="108" style="stroke:#ddd;stroke-width:2"></line>
<line x1="1090" y1="1" x2="1090" y2="108" style="stroke:#ddd;stroke-width:2"></line>
<line x1="1" y1="54" x2="1198" y2="54" style="stroke:#ddd;stroke-width:2;stroke-dasharray:3 3"></line>
<line x1="55" y1="1" x2="55" y2="108" style="stroke:#ddd;stroke-width:2;stroke-dasharray:3 3"></line>
<line x1="164" y1="1" x2="164" y2="108" style="stroke:#ddd;stroke-width:2;stroke-dasharray:3 3"></line>
<line x1="273" y1="1" x2="273" y2="108" style="stroke:#ddd;stroke-width:2;stroke-dasharray:3 3"></line>
<line x1="382" y1="1" x2="382" y2="108" style="stroke:#ddd;stroke-width:2;stroke-dasharray:3 3"></line>
<line x1="491" y1="1" x2="491" y2="108" style="stroke:#ddd;stroke-width:2;stroke-dasharray:3 3"></line>
<line x1="600" y1="1" x2="600" y2="108" style="stroke:#ddd;stroke-width:2;stroke-dasharray:3 3"></line>
<line x1="709" y1="1" x2="709" y2="108" style="stroke:#ddd;stroke-width:2;stroke-dasharray:3 3"></line>
<line x1="818" y1="1" x2="818" y2="108" style="stroke:#ddd;stroke-width:2;stroke-dasharray:3 3"></line>
<line x1="927" y1="1" x2="927" y2="108" style="stroke:#ddd;stroke-width:2;stroke-dasharray:3 3"></line>
<line x1="1036" y1="1" x2="1036" y2="108" style="stroke:#ddd;stroke-width:2;stroke-dasharray:3 3"></line>
<line x1="1145" y1="1" x2="1145" y2="108" style="stroke:#ddd;stroke-width:2;stroke-dasharray:3 3"></line>
<path d="M46.33,13.43c0,1.1-0.64,1.72-1.46,2.31c-3.81,2.74-14.09,7.17-27.51,10.04" style="fill:none;stroke:#999;stroke-width:3"></path>

<path d="M155.32999999999998,13.43c0,1.1-0.64,1.72-1.46,2.31c-3.81,2.74-14.09,7.17-27.51,10.04" style="fill:none;stroke:#999;stroke-width:3"></path>
<path d="M125.5,32.75c2.4,2.04,6.2,8.38,6.8,11.56" style="fill:none;stroke:#999;stroke-width:3"></path>

<path d="M264.33,13.43c0,1.1-0.64,1.72-1.46,2.31c-3.81,2.74-14.09,7.17-27.51,10.04" style="fill:none;stroke:#999;stroke-width:3"></path>
<path d="M234.5,32.75c2.4,2.04,6.2,8.38,6.8,11.56" style="fill:none;stroke:#999;stroke-width:3"></path>
<path d="M249.38,27.38c2.23,1.81,5.75,7.43,6.31,10.24" style="fill:none;stroke:#999;stroke-width:3"></path>

<path d="M373.33,13.43c0,1.1-0.64,1.72-1.46,2.31c-3.81,2.74-14.09,7.17-27.51,10.04" style="fill:none;stroke:#999;stroke-width:3"></path>
<path d="M343.5,32.75c2.4,2.04,6.2,8.38,6.8,11.56" style="fill:none;stroke:#999;stroke-width:3"></path>
<path d="M358.38,27.38c2.23,1.81,5.75,7.43,6.31,10.24" style="fill:none;stroke:#999;stroke-width:3"></path>
<path d="M382.74,24.23c0.11,0.82-0.02,1.61-0.37,2.35c-1.15,3.18-3.76,8.24-6.99,12.05" style="fill:none;stroke:#999;stroke-width:3"></path>

<path d="M482.33,13.43c0,1.1-0.64,1.72-1.46,2.31c-3.81,2.74-14.09,7.17-27.51,10.04" style="fill:none;stroke:#999;stroke-width:3"></path>
<path d="M452.5,32.75c2.4,2.04,6.2,8.38,6.8,11.56" style="fill:none;stroke:#999;stroke-width:3"></path>
<path d="M467.38,27.38c2.23,1.81,5.75,7.43,6.31,10.24" style="fill:none;stroke:#999;stroke-width:3"></path>
<path d="M491.74,24.23c0.11,0.82-0.02,1.61-0.37,2.35c-1.15,3.18-3.76,8.24-6.99,12.05" style="fill:none;stroke:#999;stroke-width:3"></path>
<path d="M447.38,56.48c2.62,0.27,4.28,0.32,6.5,0.08c6.61-0.7,21.75-2.83,32.98-3.57c2.06-0.14,4.63-0.42,6.68,0.06" style="fill:none;stroke:#999;stroke-width:3"></path>

<path d="M591.3299999999999,13.43c0,1.1-0.64,1.72-1.46,2.31c-3.81,2.74-14.09,7.17-27.51,10.04" style="fill:none;stroke:#999;stroke-width:3"></path>
<path d="M561.5,32.75c2.4,2.04,6.2,8.38,6.8,11.56" style="fill:none;stroke:#999;stroke-width:3"></path>
<path d="M576.38,27.38c2.23,1.81,5.75,7.43,6.31,10.24" style="fill:none;stroke:#999;stroke-width:3"></path>
<path d="M600.74,24.23c0.11,0.82-0.02,1.61-0.37,2.35c-1.15,3.18-3.76,8.24-6.99,12.05" style="fill:none;stroke:#999;stroke-width:3"></path>
<path d="M556.38,56.48c2.62,0.27,4.28,0.32,6.5,0.08c6.61-0.7,21.75-2.83,32.98-3.57c2.06-0.14,4.63-0.42,6.68,0.06" style="fill:none;stroke:#999;stroke-width:3"></path>
<path d="M582.74,43.86c0.7,0.7,1.18,2.27,1.18,3.61c0,2.86,0.09,28.02,0.03,41.28c-0.02,3.88-0.04,6.67-0.07,7.5" style="fill:none;stroke:#999;stroke-width:3"></path>

<path d="M700.3299999999999,13.43c0,1.1-0.64,1.72-1.46,2.31c-3.81,2.74-14.09,7.17-27.51,10.04" style="fill:none;stroke:#999;stroke-width:3"></path>
<path d="M670.5,32.75c2.4,2.04,6.2,8.38,6.8,11.56" style="fill:none;stroke:#999;stroke-width:3"></path>
<path d="M685.38,27.38c2.23,1.81,5.75,7.43,6.31,10.24" style="fill:none;stroke:#999;stroke-width:3"></path>
<path d="M709.74,24.23c0.11,0.82-0.02,1.61-0.37,2.35c-1.15,3.18-3.76,8.24-6.99,12.05" style="fill:none;stroke:#999;stroke-width:3"></path>
<path d="M665.38,56.48c2.62,0.27,4.28,0.32,6.5,0.08c6.61-0.7,21.75-2.83,32.98-3.57c2.06-0.14,4.63-0.42,6.68,0.06" style="fill:none;stroke:#999;stroke-width:3"></path>
<path d="M691.74,43.86c0.7,0.7,1.18,2.27,1.18,3.61c0,2.86,0.09,28.02,0.03,41.28c-0.02,3.88-0.04,6.67-0.07,7.5" style="fill:none;stroke:#999;stroke-width:3"></path>
<path d="M691.46,56.45c0,1.3-0.9,3.01-1.71,4.3c-5.38,8.62-11.75,16-21.05,23.58" style="fill:none;stroke:#999;stroke-width:3"></path>

<path d="M809.3299999999999,13.43c0,1.1-0.64,1.72-1.46,2.31c-3.81,2.74-14.09,7.17-27.51,10.04" style="fill:none;stroke:#999;stroke-width:3"></path>
<path d="M779.5,32.75c2.4,2.04,6.2,8.38,6.8,11.56" style="fill:none;stroke:#999;stroke-width:3"></path>
<path d="M794.38,27.38c2.23,1.81,5.75,7.43,6.31,10.24" style="fill:none;stroke:#999;stroke-width:3"></path>
<path d="M818.74,24.23c0.11,0.82-0.02,1.61-0.37,2.35c-1.15,3.18-3.76,8.24-6.99,12.05" style="fill:none;stroke:#999;stroke-width:3"></path>
<path d="M774.38,56.48c2.62,0.27,4.28,0.32,6.5,0.08c6.61-0.7,21.75-2.83,32.98-3.57c2.06-0.14,4.63-0.42,6.68,0.06" style="fill:none;stroke:#999;stroke-width:3"></path>
<path d="M800.74,43.86c0.7,0.7,1.18,2.27,1.18,3.61c0,2.86,0.09,28.02,0.03,41.28c-0.02,3.88-0.04,6.67-0.07,7.5" style="fill:none;stroke:#999;stroke-width:3"></path>
<path d="M800.46,56.45c0,1.3-0.9,3.01-1.71,4.3c-5.38,8.62-11.75,16-21.05,23.58" style="fill:none;stroke:#999;stroke-width:3"></path>
<path d="M804.88,60.12c4.15,2.39,9.58,6.52,12.09,10.5" style="fill:none;stroke:#999;stroke-width:3"></path>

<path d="M918.3299999999999,13.43c0,1.1-0.64,1.72-1.46,2.31c-3.81,2.74-14.09,7.17-27.51,10.04" style="fill:none;stroke:#999;stroke-width:3"></path>
<path d="M888.5,32.75c2.4,2.04,6.2,8.38,6.8,11.56" style="fill:none;stroke:#999;stroke-width:3"></path>
<path d="M903.38,27.38c2.23,1.81,5.75,7.43,6.31,10.24" style="fill:none;stroke:#999;stroke-width:3"></path>
<path d="M927.74,24.23c0.11,0.82-0.02,1.61-0.37,2.35c-1.15,3.18-3.76,8.24-6.99,12.05" style="fill:none;stroke:#999;stroke-width:3"></path>
<path d="M883.38,56.48c2.62,0.27,4.28,0.32,6.5,0.08c6.61-0.7,21.75-2.83,32.98-3.57c2.06-0.14,4.63-0.42,6.68,0.06" style="fill:none;stroke:#999;stroke-width:3"></path>
<path d="M909.74,43.86c0.7,0.7,1.18,2.27,1.18,3.61c0,2.86,0.09,28.02,0.03,41.28c-0.02,3.88-0.04,6.67-0.07,7.5" style="fill:none;stroke:#999;stroke-width:3"></path>
<path d="M909.46,56.45c0,1.3-0.9,3.01-1.71,4.3c-5.38,8.62-11.75,16-21.05,23.58" style="fill:none;stroke:#999;stroke-width:3"></path>
<path d="M913.88,60.12c4.15,2.39,9.58,6.52,12.09,10.5" style="fill:none;stroke:#999;stroke-width:3"></path>
<path d="M958.2,17.75c0.17,0.92-0.24,1.7-0.83,2.35c-3.16,3.6-11.14,10.64-25.45,14.56" style="fill:none;stroke:#999;stroke-width:3"></path>

<path d="M1027.33,13.43c0,1.1-0.64,1.72-1.46,2.31c-3.81,2.74-14.09,7.17-27.51,10.04" style="fill:none;stroke:#999;stroke-width:3"></path>
<path d="M997.5,32.75c2.4,2.04,6.2,8.38,6.8,11.56" style="fill:none;stroke:#999;stroke-width:3"></path>
<path d="M1012.38,27.38c2.23,1.81,5.75,7.43,6.31,10.24" style="fill:none;stroke:#999;stroke-width:3"></path>
<path d="M1036.74,24.23c0.11,0.82-0.02,1.61-0.37,2.35c-1.15,3.18-3.76,8.24-6.99,12.05" style="fill:none;stroke:#999;stroke-width:3"></path>
<path d="M992.38,56.48c2.62,0.27,4.28,0.32,6.5,0.08c6.61-0.7,21.75-2.83,32.98-3.57c2.06-0.14,4.63-0.42,6.68,0.06" style="fill:none;stroke:#999;stroke-width:3"></path>
<path d="M1018.74,43.86c0.7,0.7,1.18,2.27,1.18,3.61c0,2.86,0.09,28.02,0.03,41.28c-0.02,3.88-0.04,6.67-0.07,7.5" style="fill:none;stroke:#999;stroke-width:3"></path>
<path d="M1018.46,56.45c0,1.3-0.9,3.01-1.71,4.3c-5.38,8.62-11.75,16-21.05,23.58" style="fill:none;stroke:#999;stroke-width:3"></path>
<path d="M1022.88,60.12c4.15,2.39,9.58,6.52,12.09,10.5" style="fill:none;stroke:#999;stroke-width:3"></path>
<path d="M1067.2,17.75c0.17,0.92-0.24,1.7-0.83,2.35c-3.16,3.6-11.14,10.64-25.45,14.56" style="fill:none;stroke:#999;stroke-width:3"></path>
<path d="M1069.07,40.86c0.16,1.04-0.31,1.9-0.87,2.72c-3.18,4.6-9.82,11.54-23.7,17.34" style="fill:none;stroke:#999;stroke-width:3"></path>

<path d="M1136.33,13.43c0,1.1-0.64,1.72-1.46,2.31c-3.81,2.74-14.09,7.17-27.51,10.04" style="fill:none;stroke:#999;stroke-width:3"></path>
<path d="M1106.5,32.75c2.4,2.04,6.2,8.38,6.8,11.56" style="fill:none;stroke:#999;stroke-width:3"></path>
<path d="M1121.38,27.38c2.23,1.81,5.75,7.43,6.31,10.24" style="fill:none;stroke:#999;stroke-width:3"></path>
<path d="M1145.74,24.23c0.11,0.82-0.02,1.61-0.37,2.35c-1.15,3.18-3.76,8.24-6.99,12.05" style="fill:none;stroke:#999;stroke-width:3"></path>
<path d="M1101.38,56.48c2.62,0.27,4.28,0.32,6.5,0.08c6.61-0.7,21.75-2.83,32.98-3.57c2.06-0.14,4.63-0.42,6.68,0.06" style="fill:none;stroke:#999;stroke-width:3"></path>
<path d="M1127.74,43.86c0.7,0.7,1.18,2.27,1.18,3.61c0,2.86,0.09,28.02,0.03,41.28c-0.02,3.88-0.04,6.67-0.07,7.5" style="fill:none;stroke:#999;stroke-width:3"></path>
<path d="M1127.46,56.45c0,1.3-0.9,3.01-1.71,4.3c-5.38,8.62-11.75,16-21.05,23.58" style="fill:none;stroke:#999;stroke-width:3"></path>
<path d="M1131.88,60.12c4.15,2.39,9.58,6.52,12.09,10.5" style="fill:none;stroke:#999;stroke-width:3"></path>
<path d="M1176.2,17.75c0.17,0.92-0.24,1.7-0.83,2.35c-3.16,3.6-11.14,10.64-25.45,14.56" style="fill:none;stroke:#999;stroke-width:3"></path>
<path d="M1178.07,40.86c0.16,1.04-0.31,1.9-0.87,2.72c-3.18,4.6-9.82,11.54-23.7,17.34" style="fill:none;stroke:#999;stroke-width:3"></path>
<path d="M1183.29,63.25c0.11,0.72-0.07,1.7-0.71,2.62C1176.75,74.12,1166.0,85.75,1146.07,92.5" style="fill:none;stroke:#999;stroke-width:3"></path>

</svg>