<svg width="1199px" height="109px" viewBox="0 0 1199 109" xmlns="http://www.w3.org/2000/svg" xmlns:xlink="http://www.w3.org/1999/xlink" xml:space="preserve" version="1.1" baseProfile="full">
<line x1="1" y1="1" x2="1198" y2="1" style="stroke:#ddd;stroke-width:2"></line>
<line x1="1" y1="1" x2="1" y2="108" style="stroke:#ddd;stroke-width:2"></line>
<line x1="1" y1="108" x2="1198" y2="108" style="stroke:#ddd;stroke-width:2"></line>
<line x1="1198" y1="1" x2="1198" y2="108" style="stroke:#ddd;stroke-width:2"></line>
<line x1="109" y1="1" x2="109" y2="108" style="stroke:#ddd;stroke-width:2"></line>
<line x1="218" y1="1" x2="218" y2="108" style="stroke:#ddd;stroke-width:2"></line>
<line x1="327" y1="1" x2="327" y2="108" style="stroke:#ddd;stroke-width:2"></line>
<line x1="436" y1="1" x2="436" y2="108" style="stroke:#ddd;stroke-width:2"></line>
<line x1="545" y1="1" x2="545" y2="108" style="stroke:#ddd;stroke-width:2"></line>
<line x1="654" y1="1" x2="654" y2="108" style="stroke:#ddd;stroke-width:2"></line>
<line x1="763" y1="1" x2="763" y2="108" style="stroke:#ddd;stroke-width:2"></line>
<line x1="872" y1="1" x2="872" y2="108" style="stroke:#ddd;stroke-width:2"></line>
<line x1="981" y1="1" x2="981" y2="108" style="stroke:#ddd;stroke-width:2"></line>
<line x1="1090" y1="1" x2="1090" y2="108" style="stroke:#ddd;stroke-width:2"></line>
<line x1="1" y1="54" x2="1198" y2="54" style="stroke:#ddd;stroke-width:2;stroke-dasharray:3 3"></line>
<line x1="55" y1="1" x2="55" y2="108" style="stroke:#ddd;stroke-width:2;stroke-dasharray:3 3"></line>
<line x1="164" y1="1" x2="164" y2="108" style="stroke:#ddd;stroke-width:2;stroke-dasharray:3 3"></line>
<line x1="273" y1="1" x2="273" y2="108" style="stroke:#ddd;stroke-width:2;stroke-dasharray:3 3"></line>
<line x1="382" y1="1" x2="382" y2="108" style="stroke:#ddd;stroke-width:2;stroke-dasharray:3 3"></line>
<line x1="491" y1="1" x2="491" y2="108" style="stroke:#ddd;stroke-width:2;stroke-dasharray:3 3"></line>
<line x1="600" y1="1" x2="600" y2="108" style="stroke:#ddd;stroke-width:2;stroke-dasharray:3 3"></line>
<line x1="709" y1="1" x2="709" y2="108" style="stroke:#ddd;stroke-width:2;stroke-dasharray:3 3"></line>
<line x1="818" y1="1" x2="818" y2="108" style="stroke:#ddd;stroke-width:2;stroke-dasharray:3 3"></line>
<line x1="927" y1="1" x2="927" y2="108" style="stroke:#ddd;stroke-width:2;stroke-dasharray:3 3"></line>
<line x1="1036" y1="1" x2="1036" y2="108" style="stroke:#ddd;stroke-width:2;stroke-dasharray:3 3"></line>
<line x1="1145" y1="1" x2="1145" y2="108" style="stroke:#ddd;stroke-width:2;stroke-dasharray:3 3"></line>
<path d="M34.25,12.62c0.05,0.48-0.22,1.32-0.6,1.91c-2.67,4.11-10.17,12.75-18.53,18.22" style="fill:none;stroke:#999;stroke-width:3"></path>

<path d="M143.25,12.62c0.05,0.48-0.22,1.32-0.6,1.91c-2.67,4.11-10.17,12.75-18.53,18.22" style="fill:none;stroke:#999;stroke-width:3"></path>
<path d="M146.09,33c0.16,1,0.08,1.85-0.39,2.78c-3.32,6.54-11.29,18.91-23.45,29.97" style="fill:none;stroke:#999;stroke-width:3"></path>

<path d="M252.25,12.62c0.05,0.48-0.22,1.32-0.6,1.91c-2.67,4.11-10.17,12.75-18.53,18.22" style="fill:none;stroke:#999;stroke-width:3"></path>
<path d="M255.09,33c0.16,1,0.08,1.85-0.39,2.78c-3.32,6.54-11.29,18.91-23.45,29.97" style="fill:none;stroke:#999;stroke-width:3"></path>
<path d="M245.97,54c0.76,0.76,1.4,2.12,1.4,3.16c0,0.42-0.05,24.38-0.06,35.84c0,2.65-0.01,4.63-0.01,5.5" style="fill:none;stroke:#999;stroke-width:3"></path>

<path d="M361.25,12.62c0.05,0.48-0.22,1.32-0.6,1.91c-2.67,4.11-10.17,12.75-18.53,18.22" style="fill:none;stroke:#999;stroke-width:3"></path>
<path d="M364.09000000000003,33c0.16,1,0.08,1.85-0.39,2.78c-3.32,6.54-11.29,18.91-23.45,29.97" style="fill:none;stroke:#999;stroke-width:3"></path>
<path d="M354.97,54c0.76,0.76,1.4,2.12,1.4,3.16c0,0.42-0.05,24.38-0.06,35.84c0,2.65-0.01,4.63-0.01,5.5" style="fill:none;stroke:#999;stroke-width:3"></path>
<path d="M379.17,12.66c1.02,1.02,1.33,2.09,1.5,3.35c0.09,0.64,1.51,14.41,2.24,21.72c0.26,2.57,0.43,4.35,0.43,4.46" style="fill:none;stroke:#999;stroke-width:3"></path>

<path d="M470.25,12.62c0.05,0.48-0.22,1.32-0.6,1.91c-2.67,4.11-10.17,12.75-18.53,18.22" style="fill:none;stroke:#999;stroke-width:3"></path>
<path d="M473.09000000000003,33c0.16,1,0.08,1.85-0.39,2.78c-3.32,6.54-11.29,18.91-23.45,29.97" style="fill:none;stroke:#999;stroke-width:3"></path>
<path d="M463.97,54c0.76,0.76,1.4,2.12,1.4,3.16c0,0.42-0.05,24.38-0.06,35.84c0,2.65-0.01,4.63-0.01,5.5" style="fill:none;stroke:#999;stroke-width:3"></path>
<path d="M488.17,12.66c1.02,1.02,1.33,2.09,1.5,3.35c0.09,0.64,1.51,14.41,2.24,21.72c0.26,2.57,0.43,4.35,0.43,4.46" style="fill:none;stroke:#999;stroke-width:3"></path>
<path d="M490.26,14.02c3.87-0.35,20.03-1.67,26.49-2.14c3.32-0.24,5.56-0.19,5.25,3.76c-0.45,5.73-1.27,11.67-2.21,18.74c-0.23,1.72-0.46,3.5-0.7,5.36" style="fill:none;stroke:#999;stroke-width:3"></path>

<path d="M579.25,12.62c0.05,0.48-0.22,1.32-0.6,1.91c-2.67,4.11-10.17,12.75-18.53,18.22" style="fill:none;stroke:#999;stroke-width:3"></path>
<path d="M582.09,33c0.16,1,0.08,1.85-0.39,2.78c-3.32,6.54-11.29,18.91-23.45,29.97" style="fill:none;stroke:#999;stroke-width:3"></path>
<path d="M572.97,54c0.76,0.76,1.4,2.12,1.4,3.16c0,0.42-0.05,24.38-0.06,35.84c0,2.65-0.01,4.63-0.01,5.5" style="fill:none;stroke:#999;stroke-width:3"></path>
<path d="M597.1700000000001,12.66c1.02,1.02,1.33,2.09,1.5,3.35c0.09,0.64,1.51,14.41,2.24,21.72c0.26,2.57,0.43,4.35,0.43,4.46" style="fill:none;stroke:#999;stroke-width:3"></path>
<path d="M599.26,14.02c3.87-0.35,20.03-1.67,26.49-2.14c3.32-0.24,5.56-0.19,5.25,3.76c-0.45,5.73-1.27,11.67-2.21,18.74c-0.23,1.72-0.46,3.5-0.7,5.36" style="fill:none;stroke:#999;stroke-width:3"></path>
<path d="M601.01,26.17c7.24-0.67,23.66-2.09,27.99-2.09" style="fill:none;stroke:#999;stroke-width:3"></path>

<path d="M688.25,12.62c0.05,0.48-0.22,1.32-0.6,1.91c-2.67,4.11-10.17,12.75-18.53,18.22" style="fill:none;stroke:#999;stroke-width:3"></path>
<path d="M691.09,33c0.16,1,0.08,1.85-0.39,2.78c-3.32,6.54-11.29,18.91-23.45,29.97" style="fill:none;stroke:#999;stroke-width:3"></path>
<path d="M681.97,54c0.76,0.76,1.4,2.12,1.4,3.16c0,0.42-0.05,24.38-0.06,35.84c0,2.65-0.01,4.63-0.01,5.5" style="fill:none;stroke:#999;stroke-width:3"></path>
<path d="M706.1700000000001,12.66c1.02,1.02,1.33,2.09,1.5,3.35c0.09,0.64,1.51,14.41,2.24,21.72c0.26,2.57,0.43,4.35,0.43,4.46" style="fill:none;stroke:#999;stroke-width:3"></path>
<path d="M708.26,14.02c3.87-0.35,20.03-1.67,26.49-2.14c3.32-0.24,5.56-0.19,5.25,3.76c-0.45,5.73-1.27,11.67-2.21,18.74c-0.23,1.72-0.46,3.5-0.7,5.36" style="fill:none;stroke:#999;stroke-width:3"></path>
<path d="M710.01,26.17c7.24-0.67,23.66-2.09,27.99-2.09" style="fill:none;stroke:#999;stroke-width:3"></path>
<path d="M711.51,39.3c7.99-0.55,16.74-1.43,24.41-1.62" style="fill:none;stroke:#999;stroke-width:3"></path>

<path d="M797.25,12.62c0.05,0.48-0.22,1.32-0.6,1.91c-2.67,4.11-10.17,12.75-18.53,18.22" style="fill:none;stroke:#999;stroke-width:3"></path>
<path d="M800.09,33c0.16,1,0.08,1.85-0.39,2.78c-3.32,6.54-11.29,18.91-23.45,29.97" style="fill:none;stroke:#999;stroke-width:3"></path>
<path d="M790.97,54c0.76,0.76,1.4,2.12,1.4,3.16c0,0.42-0.05,24.38-0.06,35.84c0,2.65-0.01,4.63-0.01,5.5" style="fill:none;stroke:#999;stroke-width:3"></path>
<path d="M815.1700000000001,12.66c1.02,1.02,1.33,2.09,1.5,3.35c0.09,0.64,1.51,14.41,2.24,21.72c0.26,2.57,0.43,4.35,0.43,4.46" style="fill:none;stroke:#999;stroke-width:3"></path>
<path d="M817.26,14.02c3.87-0.35,20.03-1.67,26.49-2.14c3.32-0.24,5.56-0.19,5.25,3.76c-0.45,5.73-1.27,11.67-2.21,18.74c-0.23,1.72-0.46,3.5-0.7,5.36" style="fill:none;stroke:#999;stroke-width:3"></path>
<path d="M819.01,26.17c7.24-0.67,23.66-2.09,27.99-2.09" style="fill:none;stroke:#999;stroke-width:3"></path>
<path d="M820.51,39.3c7.99-0.55,16.74-1.43,24.41-1.62" style="fill:none;stroke:#999;stroke-width:3"></path>
<path d="M803.75,53c2.08,0.5,5.92,0.47,7.99,0.25c15.38-1.62,28.38-3.12,42.84-4.24c3.46-0.27,5.56-0.01,7.3,0.24" style="fill:none;stroke:#999;stroke-width:3"></path>

<path d="M906.25,12.62c0.05,0.48-0.22,1.32-0.6,1.91c-2.67,4.11-10.17,12.75-18.53,18.22" style="fill:none;stroke:#999;stroke-width:3"></path>
<path d="M909.09,33c0.16,1,0.08,1.85-0.39,2.78c-3.32,6.54-11.29,18.91-23.45,29.97" style="fill:none;stroke:#999;stroke-width:3"></path>
<path d="M899.97,54c0.76,0.76,1.4,2.12,1.4,3.16c0,0.42-0.05,24.38-0.06,35.84c0,2.65-0.01,4.63-0.01,5.5" style="fill:none;stroke:#999;stroke-width:3"></path>
<path d="M924.1700000000001,12.66c1.02,1.02,1.33,2.09,1.5,3.35c0.09,0.64,1.51,14.41,2.24,21.72c0.26,2.57,0.43,4.35,0.43,4.46" style="fill:none;stroke:#999;stroke-width:3"></path>
<path d="M926.26,14.02c3.87-0.35,20.03-1.67,26.49-2.14c3.32-0.24,5.56-0.19,5.25,3.76c-0.45,5.73-1.27,11.67-2.21,18.74c-0.23,1.72-0.46,3.5-0.7,5.36" style="fill:none;stroke:#999;stroke-width:3"></path>
<path d="M928.01,26.17c7.24-0.67,23.66-2.09,27.99-2.09" style="fill:none;stroke:#999;stroke-width:3"></path>
<path d="M929.51,39.3c7.99-0.55,16.74-1.43,24.41-1.62" style="fill:none;stroke:#999;stroke-width:3"></path>
<path d="M912.75,53c2.08,0.5,5.92,0.47,7.99,0.25c15.38-1.62,28.38-3.12,42.84-4.24c3.46-0.27,5.56-0.01,7.3,0.24" style="fill:none;stroke:#999;stroke-width:3"></path>
<path d="M917.25,67.67c2.31,0.45,4.88,0.47,6.85,0.3c13.75-1.22,27.64-3.22,38.96-3.68c3.24-0.13,5.19-0.12,6.82,0.28" style="fill:none;stroke:#999;stroke-width:3"></path>

<path d="M1015.25,12.62c0.05,0.48-0.22,1.32-0.6,1.91c-2.67,4.11-10.17,12.75-18.53,18.22" style="fill:none;stroke:#999;stroke-width:3"></path>
<path d="M1018.09,33c0.16,1,0.08,1.85-0.39,2.78c-3.32,6.54-11.29,18.91-23.45,29.97" style="fill:none;stroke:#999;stroke-width:3"></path>
<path d="M1008.97,54c0.76,0.76,1.4,2.12,1.4,3.16c0,0.42-0.05,24.38-0.06,35.84c0,2.65-0.01,4.63-0.01,5.5" style="fill:none;stroke:#999;stroke-width:3"></path>
<path d="M1033.17,12.66c1.02,1.02,1.33,2.09,1.5,3.35c0.09,0.64,1.51,14.41,2.24,21.72c0.26,2.57,0.43,4.35,0.43,4.46" style="fill:none;stroke:#999;stroke-width:3"></path>
<path d="M1035.26,14.02c3.87-0.35,20.03-1.67,26.49-2.14c3.32-0.24,5.56-0.19,5.25,3.76c-0.45,5.73-1.27,11.67-2.21,18.74c-0.23,1.72-0.46,3.5-0.7,5.36" style="fill:none;stroke:#999;stroke-width:3"></path>
<path d="M1037.01,26.17c7.24-0.67,23.66-2.09,27.99-2.09" style="fill:none;stroke:#999;stroke-width:3"></path>
<path d="M1038.51,39.3c7.99-0.55,16.74-1.43,24.41-1.62" style="fill:none;stroke:#999;stroke-width:3"></path>
<path d="M1021.75,53c2.08,0.5,5.92,0.47,7.99,0.25c15.38-1.62,28.38-3.12,42.84-4.24c3.46-0.27,5.56-0.01,7.3,0.24" style="fill:none;stroke:#999;stroke-width:3"></path>
<path d="M1026.25,67.67c2.31,0.45,4.88,0.47,6.85,0.3c13.75-1.22,27.64-3.22,38.96-3.68c3.24-0.13,5.19-0.12,6.82,0.28" style="fill:none;stroke:#999;stroke-width:3"></path>
<path d="M1062.39,55.08c1.26,1.26,1.76,2.79,1.76,4.77c0,14.56,0.08,27.66-0.01,32.62c-0.14,8.28-5.01,2.78-7.71,0" style="fill:none;stroke:#999;stroke-width:3"></path>

<path d="M1124.25,12.62c0.05,0.48-0.22,1.32-0.6,1.91c-2.67,4.11-10.17,12.75-18.53,18.22" style="fill:none;stroke:#999;stroke-width:3"></path>
<path d="M1127.0900000000001,33c0.16,1,0.08,1.85-0.39,2.78c-3.32,6.54-11.29,18.91-23.45,29.97" style="fill:none;stroke:#999;stroke-width:3"></path>
<path d="M1117.97,54c0.76,0.76,1.4,2.12,1.4,3.16c0,0.42-0.05,24.38-0.06,35.84c0,2.65-0.01,4.63-0.01,5.5" style="fill:none;stroke:#999;stroke-width:3"></path>
<path d="M1142.17,12.66c1.02,1.02,1.33,2.09,1.5,3.35c0.09,0.64,1.51,14.41,2.24,21.72c0.26,2.57,0.43,4.35,0.43,4.46" style="fill:none;stroke:#999;stroke-width:3"></path>
<path d="M1144.26,14.02c3.87-0.35,20.03-1.67,26.49-2.14c3.32-0.24,5.56-0.19,5.25,3.76c-0.45,5.73-1.27,11.67-2.21,18.74c-0.23,1.72-0.46,3.5-0.7,5.36" style="fill:none;stroke:#999;stroke-width:3"></path>
<path d="M1146.01,26.17c7.24-0.67,23.66-2.09,27.99-2.09" style="fill:none;stroke:#999;stroke-width:3"></path>
<path d="M1147.51,39.3c7.99-0.55,16.74-1.43,24.41-1.62" style="fill:none;stroke:#999;stroke-width:3"></path>
<path d="M1130.75,53c2.08,0.5,5.92,0.47,7.99,0.25c15.38-1.62,28.38-3.12,42.84-4.24c3.46-0.27,5.56-0.01,7.3,0.24" style="fill:none;stroke:#999;stroke-width:3"></path>
<path d="M1135.25,67.67c2.31,0.45,4.88,0.47,6.85,0.3c13.75-1.22,27.64-3.22,38.96-3.68c3.24-0.13,5.19-0.12,6.82,0.28" style="fill:none;stroke:#999;stroke-width:3"></path>
<path d="M1171.39,55.08c1.26,1.26,1.76,2.79,1.76,4.77c0,14.56,0.08,27.66-0.01,32.62c-0.14,8.28-5.01,2.78-7.71,0" style="fill:none;stroke:#999;stroke-width:3"></path>
<path d="M1147.83,75.87c2.65,1.59,6.84,6.53,7.5,9" style="fill:none;stroke:#999;stroke-width:3"></path>

</svg>