<svg width="763px" height="109px" viewBox="0 0 763 109" xmlns="http://www.w3.org/2000/svg" xmlns:xlink="http://www.w3.org/1999/xlink" xml:space="preserve" version="1.1" baseProfile="full">
<line x1="1" y1="1" x2="762" y2="1" style="stroke:#ddd;stroke-width:2"></line>
<line x1="1" y1="1" x2="1" y2="108" style="stroke:#ddd;stroke-width:2"></line>
<line x1="1" y1="108" x2="762" y2="108" style="stroke:#ddd;stroke-width:2"></line>
<line x1="762" y1="1" x2="762" y2="108" style="stroke:#ddd;stroke-width:2"></line>
<line x1="109" y1="1" x2="109" y2="108" style="stroke:#ddd;stroke-width:2"></line>
<line x1="218" y1="1" x2="218" y2="108" style="stroke:#ddd;stroke-width:2"></line>
<line x1="327" y1="1" x2="327" y2="108" style="stroke:#ddd;stroke-width:2"></line>
<line x1="436" y1="1" x2="436" y2="108" style="stroke:#ddd;stroke-width:2"></line>
<line x1="545" y1="1" x2="545" y2="108" style="stroke:#ddd;stroke-width:2"></line>
<line x1="654" y1="1" x2="654" y2="108" style="stroke:#ddd;stroke-width:2"></line>
<line x1="1" y1="54" x2="762" y2="54" style="stroke:#ddd;stroke-width:2;stroke-dasharray:3 3"></line>
<line x1="55" y1="1" x2="55" y2="108" style="stroke:#ddd;stroke-width:2;stroke-dasharray:3 3"></line>
<line x1="164" y1="1" x2="164" y2="108" style="stroke:#ddd;stroke-width:2;stroke-dasharray:3 3"></line>
<line x1="273" y1="1" x2="273" y2="108" style="stroke:#ddd;stroke-width:2;stroke-dasharray:3 3"></line>
<line x1="382" y1="1" x2="382" y2="108" style="stroke:#ddd;stroke-width:2;stroke-dasharray:3 3"></line>
<line x1="491" y1="1" x2="491" y2="108" style="stroke:#ddd;stroke-width:2;stroke-dasharray:3 3"></line>
<line x1="600" y1="1" x2="600" y2="108" style="stroke:#ddd;stroke-width:2;stroke-dasharray:3 3"></line>
<line x1="709" y1="1" x2="709" y2="108" style="stroke:#ddd;stroke-width:2;stroke-dasharray:3 3"></line>
<path d="M54.31,13.88c0.9,0.9,1.51,2.62,1.51,3.9c0,0.79,0.08,6.65-0.07,11.46" style="fill:none;stroke:#999;stroke-width:3"></path>

<path d="M163.31,13.88c0.9,0.9,1.51,2.62,1.51,3.9c0,0.79,0.08,6.65-0.07,11.46" style="fill:none;stroke:#999;stroke-width:3"></path>
<path d="M131.63,31.72c2.8,0.72,5.93,0.29,8.77,0.03c17.31-1.57,36.37-3.58,50.98-4.49c2.88-0.18,5.54-0.37,8.38,0.07" style="fill:none;stroke:#999;stroke-width:3"></path>

<path d="M272.31,13.88c0.9,0.9,1.51,2.62,1.51,3.9c0,0.79,0.08,6.65-0.07,11.46" style="fill:none;stroke:#999;stroke-width:3"></path>
<path d="M240.63,31.72c2.8,0.72,5.93,0.29,8.77,0.03c17.31-1.57,36.37-3.58,50.98-4.49c2.88-0.18,5.54-0.37,8.38,0.07" style="fill:none;stroke:#999;stroke-width:3"></path>
<path d="M243.74,32.5c1.13,1.13,1.26,2.89,1.16,4.92c-0.65,12.33-3.02,40.21-15.34,53.8" style="fill:none;stroke:#999;stroke-width:3"></path>

<path d="M381.31,13.88c0.9,0.9,1.51,2.62,1.51,3.9c0,0.79,0.08,6.65-0.07,11.46" style="fill:none;stroke:#999;stroke-width:3"></path>
<path d="M349.63,31.72c2.8,0.72,5.93,0.29,8.77,0.03c17.31-1.57,36.37-3.58,50.98-4.49c2.88-0.18,5.54-0.37,8.38,0.07" style="fill:none;stroke:#999;stroke-width:3"></path>
<path d="M352.74,32.5c1.13,1.13,1.26,2.89,1.16,4.92c-0.65,12.33-3.02,40.21-15.34,53.8" style="fill:none;stroke:#999;stroke-width:3"></path>
<path d="M361.06,71.29c0.42,2.64-4.2,14.31-7.56,18.71" style="fill:none;stroke:#999;stroke-width:3"></path>

<path d="M490.31,13.88c0.9,0.9,1.51,2.62,1.51,3.9c0,0.79,0.08,6.65-0.07,11.46" style="fill:none;stroke:#999;stroke-width:3"></path>
<path d="M458.63,31.72c2.8,0.72,5.93,0.29,8.77,0.03c17.31-1.57,36.37-3.58,50.98-4.49c2.88-0.18,5.54-0.37,8.38,0.07" style="fill:none;stroke:#999;stroke-width:3"></path>
<path d="M461.74,32.5c1.13,1.13,1.26,2.89,1.16,4.92c-0.65,12.33-3.02,40.21-15.34,53.8" style="fill:none;stroke:#999;stroke-width:3"></path>
<path d="M470.06,71.29c0.42,2.64-4.2,14.31-7.56,18.71" style="fill:none;stroke:#999;stroke-width:3"></path>
<path d="M478.43,54.4C486.5,75.5,497.75,92.75,521.6,92.29C528.0,92.17,526.0,88,523.06,83.7" style="fill:none;stroke:#999;stroke-width:3"></path>

<path d="M599.31,13.88c0.9,0.9,1.51,2.62,1.51,3.9c0,0.79,0.08,6.65-0.07,11.46" style="fill:none;stroke:#999;stroke-width:3"></path>
<path d="M567.63,31.72c2.8,0.72,5.93,0.29,8.77,0.03c17.31-1.57,36.37-3.58,50.98-4.49c2.88-0.18,5.54-0.37,8.38,0.07" style="fill:none;stroke:#999;stroke-width:3"></path>
<path d="M570.74,32.5c1.13,1.13,1.26,2.89,1.16,4.92c-0.65,12.33-3.02,40.21-15.34,53.8" style="fill:none;stroke:#999;stroke-width:3"></path>
<path d="M579.06,71.29c0.42,2.64-4.2,14.31-7.56,18.71" style="fill:none;stroke:#999;stroke-width:3"></path>
<path d="M587.4300000000001,54.4C595.5,75.5,606.75,92.75,630.6,92.29C637.0,92.17,635.0,88,632.06,83.7" style="fill:none;stroke:#999;stroke-width:3"></path>
<path d="M604.13,52.38c2.37,5.62,6.31,10.68,7.44,5.26" style="fill:none;stroke:#999;stroke-width:3"></path>

<path d="M708.31,13.88c0.9,0.9,1.51,2.62,1.51,3.9c0,0.79,0.08,6.65-0.07,11.46" style="fill:none;stroke:#999;stroke-width:3"></path>
<path d="M676.63,31.72c2.8,0.72,5.93,0.29,8.77,0.03c17.31-1.57,36.37-3.58,50.98-4.49c2.88-0.18,5.54-0.37,8.38,0.07" style="fill:none;stroke:#999;stroke-width:3"></path>
<path d="M679.74,32.5c1.13,1.13,1.26,2.89,1.16,4.92c-0.65,12.33-3.02,40.21-15.34,53.8" style="fill:none;stroke:#999;stroke-width:3"></path>
<path d="M688.06,71.29c0.42,2.64-4.2,14.31-7.56,18.71" style="fill:none;stroke:#999;stroke-width:3"></path>
<path d="M696.4300000000001,54.4C704.5,75.5,715.75,92.75,739.6,92.29C746.0,92.17,744.0,88,741.06,83.7" style="fill:none;stroke:#999;stroke-width:3"></path>
<path d="M713.13,52.38c2.37,5.62,6.31,10.68,7.44,5.26" style="fill:none;stroke:#999;stroke-width:3"></path>
<path d="M739.88,52c3.88,3.88,7.5,8.88,9.88,15.43" style="fill:none;stroke:#999;stroke-width:3"></path>

</svg>