<svg width="872px" height="109px" viewBox="0 0 872 109" xmlns="http://www.w3.org/2000/svg" xmlns:xlink="http://www.w3.org/1999/xlink" xml:space="preserve" version="1.1" baseProfile="full">
<line x1="1" y1="1" x2="871" y2="1" style="stroke:#ddd;stroke-width:2"></line>
<line x1="1" y1="1" x2="1" y2="108" style="stroke:#ddd;stroke-width:2"></line>
<line x1="1" y1="108" x2="871" y2="108" style="stroke:#ddd;stroke-width:2"></line>
<line x1="871" y1="1" x2="871" y2="108" style="stroke:#ddd;stroke-width:2"></line>
<line x1="109" y1="1" x2="109" y2="108" style="stroke:#ddd;stroke-width:2"></line>
<line x1="218" y1="1" x2="218" y2="108" style="stroke:#ddd;stroke-width:2"></line>
<line x1="327" y1="1" x2="327" y2="108" style="stroke:#ddd;stroke-width:2"></line>
<line x1="436" y1="1" x2="436" y2="108" style="stroke:#ddd;stroke-width:2"></line>
<line x1="545" y1="1" x2="545" y2="108" style="stroke:#ddd;stroke-width:2"></line>
<line x1="654" y1="1" x2="654" y2="108" style="stroke:#ddd;stroke-width:2"></line>
<line x1="763" y1="1" x2="763" y2="108" style="stroke:#ddd;stroke-width:2"></line>
<line x1="1" y1="54" x2="871" y2="54" style="stroke:#ddd;stroke-width:2;stroke-dasharray:3 3"></line>
<line x1="55" y1="1" x2="55" y2="108" style="stroke:#ddd;stroke-width:2;stroke-dasharray:3 3"></line>
<line x1="164" y1="1" x2="164" y2="108" style="stroke:#ddd;stroke-width:2;stroke-dasharray:3 3"></line>
<line x1="273" y1="1" x2="273" y2="108" style="stroke:#ddd;stroke-width:2;stroke-dasharray:3 3"></line>
<line x1="382" y1="1" x2="382" y2="108" style="stroke:#ddd;stroke-width:2;stroke-dasharray:3 3"></line>
<line x1="491" y1="1" x2="491" y2="108" style="stroke:#ddd;stroke-width:2;stroke-dasharray:3 3"></line>
<line x1="600" y1="1" x2="600" y2="108" style="stroke:#ddd;stroke-width:2;stroke-dasharray:3 3"></line>
<line x1="709" y1="1" x2="709" y2="108" style="stroke:#ddd;stroke-width:2;stroke-dasharray:3 3"></line>
<line x1="818" y1="1" x2="818" y2="108" style="stroke:#ddd;stroke-width:2;stroke-dasharray:3 3"></line>
<path d="M19.22,35.5c0,6.34-4.11,15.69-5.19,17.5" style="fill:none;stroke:#999;stroke-width:3"></path>

<path d="M128.22,35.5c0,6.34-4.11,15.69-5.19,17.5" style="fill:none;stroke:#999;stroke-width:3"></path>
<path d="M138.77,30.33c3.28,2.41,8.47,9.89,9.29,13.63" style="fill:none;stroke:#999;stroke-width:3"></path>

<path d="M237.22,35.5c0,6.34-4.11,15.69-5.19,17.5" style="fill:none;stroke:#999;stroke-width:3"></path>
<path d="M247.77,30.33c3.28,2.41,8.47,9.89,9.29,13.63" style="fill:none;stroke:#999;stroke-width:3"></path>
<path d="M243.87,13.25c1.09,0.5,1.74,2.25,1.96,3.25c0.22,1,0,75.25-0.22,81.5" style="fill:none;stroke:#999;stroke-width:3"></path>

<path d="M346.22,35.5c0,6.34-4.11,15.69-5.19,17.5" style="fill:none;stroke:#999;stroke-width:3"></path>
<path d="M356.77,30.33c3.28,2.41,8.47,9.89,9.29,13.63" style="fill:none;stroke:#999;stroke-width:3"></path>
<path d="M352.87,13.25c1.09,0.5,1.74,2.25,1.96,3.25c0.22,1,0,75.25-0.22,81.5" style="fill:none;stroke:#999;stroke-width:3"></path>
<path d="M372.05,38.53c0.71,0.11,2.6,0.4,4.47,0.34c10.77-0.36,30.62-3.21,41.69-3.21c1.89,0,2.36-0.11,3.53,0" style="fill:none;stroke:#999;stroke-width:3"></path>

<path d="M455.22,35.5c0,6.34-4.11,15.69-5.19,17.5" style="fill:none;stroke:#999;stroke-width:3"></path>
<path d="M465.77,30.33c3.28,2.41,8.47,9.89,9.29,13.63" style="fill:none;stroke:#999;stroke-width:3"></path>
<path d="M461.87,13.25c1.09,0.5,1.74,2.25,1.96,3.25c0.22,1,0,75.25-0.22,81.5" style="fill:none;stroke:#999;stroke-width:3"></path>
<path d="M481.05,38.53c0.71,0.11,2.6,0.4,4.47,0.34c10.77-0.36,30.62-3.21,41.69-3.21c1.89,0,2.36-0.11,3.53,0" style="fill:none;stroke:#999;stroke-width:3"></path>
<path d="M502.15,13c1.43,0.66,2.58,2.93,2.58,4.28c0,22.97-0.29,38.47-0.29,48.33" style="fill:none;stroke:#999;stroke-width:3"></path>

<path d="M564.22,35.5c0,6.34-4.11,15.69-5.19,17.5" style="fill:none;stroke:#999;stroke-width:3"></path>
<path d="M574.77,30.33c3.28,2.41,8.47,9.89,9.29,13.63" style="fill:none;stroke:#999;stroke-width:3"></path>
<path d="M570.87,13.25c1.09,0.5,1.74,2.25,1.96,3.25c0.22,1,0,75.25-0.22,81.5" style="fill:none;stroke:#999;stroke-width:3"></path>
<path d="M590.05,38.53c0.71,0.11,2.6,0.4,4.47,0.34c10.77-0.36,30.62-3.21,41.69-3.21c1.89,0,2.36-0.11,3.53,0" style="fill:none;stroke:#999;stroke-width:3"></path>
<path d="M611.15,13c1.43,0.66,2.58,2.93,2.58,4.28c0,22.97-0.29,38.47-0.29,48.33" style="fill:none;stroke:#999;stroke-width:3"></path>
<path d="M595.54,66.39c0.3,0.8,0.65,1.36,0.75,1.97c0.75,4.46,2.41,17.94,3.46,26.39" style="fill:none;stroke:#999;stroke-width:3"></path>

<path d="M673.22,35.5c0,6.34-4.11,15.69-5.19,17.5" style="fill:none;stroke:#999;stroke-width:3"></path>
<path d="M683.77,30.33c3.28,2.41,8.47,9.89,9.29,13.63" style="fill:none;stroke:#999;stroke-width:3"></path>
<path d="M679.87,13.25c1.09,0.5,1.74,2.25,1.96,3.25c0.22,1,0,75.25-0.22,81.5" style="fill:none;stroke:#999;stroke-width:3"></path>
<path d="M699.05,38.53c0.71,0.11,2.6,0.4,4.47,0.34c10.77-0.36,30.62-3.21,41.69-3.21c1.89,0,2.36-0.11,3.53,0" style="fill:none;stroke:#999;stroke-width:3"></path>
<path d="M720.15,13c1.43,0.66,2.58,2.93,2.58,4.28c0,22.97-0.29,38.47-0.29,48.33" style="fill:none;stroke:#999;stroke-width:3"></path>
<path d="M704.54,66.39c0.3,0.8,0.65,1.36,0.75,1.97c0.75,4.46,2.41,17.94,3.46,26.39" style="fill:none;stroke:#999;stroke-width:3"></path>
<path d="M706.06,67.69c8.39-0.89,28.24-3.17,33.96-3.31c2.37-0.06,3.64,1.26,3.43,2.62c-0.78,5.13-3.3,15.87-4.58,22.68" style="fill:none;stroke:#999;stroke-width:3"></path>

<path d="M782.22,35.5c0,6.34-4.11,15.69-5.19,17.5" style="fill:none;stroke:#999;stroke-width:3"></path>
<path d="M792.77,30.33c3.28,2.41,8.47,9.89,9.29,13.63" style="fill:none;stroke:#999;stroke-width:3"></path>
<path d="M788.87,13.25c1.09,0.5,1.74,2.25,1.96,3.25c0.22,1,0,75.25-0.22,81.5" style="fill:none;stroke:#999;stroke-width:3"></path>
<path d="M808.05,38.53c0.71,0.11,2.6,0.4,4.47,0.34c10.77-0.36,30.62-3.21,41.69-3.21c1.89,0,2.36-0.11,3.53,0" style="fill:none;stroke:#999;stroke-width:3"></path>
<path d="M829.15,13c1.43,0.66,2.58,2.93,2.58,4.28c0,22.97-0.29,38.47-0.29,48.33" style="fill:none;stroke:#999;stroke-width:3"></path>
<path d="M813.54,66.39c0.3,0.8,0.65,1.36,0.75,1.97c0.75,4.46,2.41,17.94,3.46,26.39" style="fill:none;stroke:#999;stroke-width:3"></path>
<path d="M815.06,67.69c8.39-0.89,28.24-3.17,33.96-3.31c2.37-0.06,3.64,1.26,3.43,2.62c-0.78,5.13-3.3,15.87-4.58,22.68" style="fill:none;stroke:#999;stroke-width:3"></path>
<path d="M817.7,92.97c6.94-0.38,24.39-1.65,32.72-2.13" style="fill:none;stroke:#999;stroke-width:3"></path>

</svg>