<svg width="872px" height="109px" viewBox="0 0 872 109" xmlns="http://www.w3.org/2000/svg" xmlns:xlink="http://www.w3.org/1999/xlink" xml:space="preserve" version="1.1" baseProfile="full">
<line x1="1" y1="1" x2="871" y2="1" style="stroke:#ddd;stroke-width:2"></line>
<line x1="1" y1="1" x2="1" y2="108" style="stroke:#ddd;stroke-width:2"></line>
<line x1="1" y1="108" x2="871" y2="108" style="stroke:#ddd;stroke-width:2"></line>
<line x1="871" y1="1" x2="871" y2="108" style="stroke:#ddd;stroke-width:2"></line>
<line x1="109" y1="1" x2="109" y2="108" style="stroke:#ddd;stroke-width:2"></line>
<line x1="218" y1="1" x2="218" y2="108" style="stroke:#ddd;stroke-width:2"></line>
<line x1="327" y1="1" x2="327" y2="108" style="stroke:#ddd;stroke-width:2"></line>
<line x1="436" y1="1" x2="436" y2="108" style="stroke:#ddd;stroke-width:2"></line>
<line x1="545" y1="1" x2="545" y2="108" style="stroke:#ddd;stroke-width:2"></line>
<line x1="654" y1="1" x2="654" y2="108" style="stroke:#ddd;stroke-width:2"></line>
<line x1="763" y1="1" x2="763" y2="108" style="stroke:#ddd;stroke-width:2"></line>
<line x1="1" y1="54" x2="871" y2="54" style="stroke:#ddd;stroke-width:2;stroke-dasharray:3 3"></line>
<line x1="55" y1="1" x2="55" y2="108" style="stroke:#ddd;stroke-width:2;stroke-dasharray:3 3"></line>
<line x1="164" y1="1" x2="164" y2="108" style="stroke:#ddd;stroke-width:2;stroke-dasharray:3 3"></line>
<line x1="273" y1="1" x2="273" y2="108" style="stroke:#ddd;stroke-width:2;stroke-dasharray:3 3"></line>
<line x1="382" y1="1" x2="382" y2="108" style="stroke:#ddd;stroke-width:2;stroke-dasharray:3 3"></line>
<line x1="491" y1="1" x2="491" y2="108" style="stroke:#ddd;stroke-width:2;stroke-dasharray:3 3"></line>
<line x1="600" y1="1" x2="600" y2="108" style="stroke:#ddd;stroke-width:2;stroke-dasharray:3 3"></line>
<line x1="709" y1="1" x2="709" y2="108" style="stroke:#ddd;stroke-width:2;stroke-dasharray:3 3"></line>
<line x1="818" y1="1" x2="818" y2="108" style="stroke:#ddd;stroke-width:2;stroke-dasharray:3 3"></line>
<path d="M15.12,36.5c0,6.34-3.27,15.69-4.12,17.5" style="fill:none;stroke:#999;stroke-width:3"></path>

<path d="M124.12,36.5c0,6.34-3.27,15.69-4.12,17.5" style="fill:none;stroke:#999;stroke-width:3"></path>
<path d="M138.75,32.5c2.49,1.85,6.44,7.59,7.06,10.47" style="fill:none;stroke:#999;stroke-width:3"></path>

<path d="M233.12,36.5c0,6.34-3.27,15.69-4.12,17.5" style="fill:none;stroke:#999;stroke-width:3"></path>
<path d="M247.75,32.5c2.49,1.85,6.44,7.59,7.06,10.47" style="fill:none;stroke:#999;stroke-width:3"></path>
<path d="M241.12,16c0.94,0.94,1.21,2.25,1.21,3.75c0,2.5,0.02,49.3,0.03,68.88c0,3.88,0,6.7,0,7.88" style="fill:none;stroke:#999;stroke-width:3"></path>

<path d="M342.12,36.5c0,6.34-3.27,15.69-4.12,17.5" style="fill:none;stroke:#999;stroke-width:3"></path>
<path d="M356.75,32.5c2.49,1.85,6.44,7.59,7.06,10.47" style="fill:none;stroke:#999;stroke-width:3"></path>
<path d="M350.12,16c0.94,0.94,1.21,2.25,1.21,3.75c0,2.5,0.02,49.3,0.03,68.88c0,3.88,0,6.7,0,7.88" style="fill:none;stroke:#999;stroke-width:3"></path>
<path d="M388.82,13c0.08,1.01-0.08,2.68-0.66,4.07C383.75,27.62,374.38,42.75,362.0,54.85" style="fill:none;stroke:#999;stroke-width:3"></path>

<path d="M451.12,36.5c0,6.34-3.27,15.69-4.12,17.5" style="fill:none;stroke:#999;stroke-width:3"></path>
<path d="M465.75,32.5c2.49,1.85,6.44,7.59,7.06,10.47" style="fill:none;stroke:#999;stroke-width:3"></path>
<path d="M459.12,16c0.94,0.94,1.21,2.25,1.21,3.75c0,2.5,0.02,49.3,0.03,68.88c0,3.88,0,6.7,0,7.88" style="fill:none;stroke:#999;stroke-width:3"></path>
<path d="M497.82,13c0.08,1.01-0.08,2.68-0.66,4.07C492.75,27.62,483.38,42.75,471.0,54.85" style="fill:none;stroke:#999;stroke-width:3"></path>
<path d="M498.14,17.54c5.11,5.46,17.12,19.01,24.8,26.64c2.3,2.28,4.81,4.19,7.81,5.94" style="fill:none;stroke:#999;stroke-width:3"></path>

<path d="M560.12,36.5c0,6.34-3.27,15.69-4.12,17.5" style="fill:none;stroke:#999;stroke-width:3"></path>
<path d="M574.75,32.5c2.49,1.85,6.44,7.59,7.06,10.47" style="fill:none;stroke:#999;stroke-width:3"></path>
<path d="M568.12,16c0.94,0.94,1.21,2.25,1.21,3.75c0,2.5,0.02,49.3,0.03,68.88c0,3.88,0,6.7,0,7.88" style="fill:none;stroke:#999;stroke-width:3"></path>
<path d="M606.8199999999999,13c0.08,1.01-0.08,2.68-0.66,4.07C601.75,27.62,592.38,42.75,580.0,54.85" style="fill:none;stroke:#999;stroke-width:3"></path>
<path d="M607.14,17.54c5.11,5.46,17.12,19.01,24.8,26.64c2.3,2.28,4.81,4.19,7.81,5.94" style="fill:none;stroke:#999;stroke-width:3"></path>
<path d="M601.66,40.58c4.2,2.18,10.85,8.98,11.9,12.38" style="fill:none;stroke:#999;stroke-width:3"></path>

<path d="M669.12,36.5c0,6.34-3.27,15.69-4.12,17.5" style="fill:none;stroke:#999;stroke-width:3"></path>
<path d="M683.75,32.5c2.49,1.85,6.44,7.59,7.06,10.47" style="fill:none;stroke:#999;stroke-width:3"></path>
<path d="M677.12,16c0.94,0.94,1.21,2.25,1.21,3.75c0,2.5,0.02,49.3,0.03,68.88c0,3.88,0,6.7,0,7.88" style="fill:none;stroke:#999;stroke-width:3"></path>
<path d="M715.8199999999999,13c0.08,1.01-0.08,2.68-0.66,4.07C710.75,27.62,701.38,42.75,689.0,54.85" style="fill:none;stroke:#999;stroke-width:3"></path>
<path d="M716.14,17.54c5.11,5.46,17.12,19.01,24.8,26.64c2.3,2.28,4.81,4.19,7.81,5.94" style="fill:none;stroke:#999;stroke-width:3"></path>
<path d="M710.66,40.58c4.2,2.18,10.85,8.98,11.9,12.38" style="fill:none;stroke:#999;stroke-width:3"></path>
<path d="M694.89,61.87c2.24,1.55,5.11,1.12,7.61,0.77c6.71-0.94,25.48-3.49,32.01-4.4c4.28-0.59,5.76,1.05,2.2,4.86c-6.34,6.78-14.09,15.03-18.29,19.73" style="fill:none;stroke:#999;stroke-width:3"></path>

<path d="M778.12,36.5c0,6.34-3.27,15.69-4.12,17.5" style="fill:none;stroke:#999;stroke-width:3"></path>
<path d="M792.75,32.5c2.49,1.85,6.44,7.59,7.06,10.47" style="fill:none;stroke:#999;stroke-width:3"></path>
<path d="M786.12,16c0.94,0.94,1.21,2.25,1.21,3.75c0,2.5,0.02,49.3,0.03,68.88c0,3.88,0,6.7,0,7.88" style="fill:none;stroke:#999;stroke-width:3"></path>
<path d="M824.8199999999999,13c0.08,1.01-0.08,2.68-0.66,4.07C819.75,27.62,810.38,42.75,798.0,54.85" style="fill:none;stroke:#999;stroke-width:3"></path>
<path d="M825.14,17.54c5.11,5.46,17.12,19.01,24.8,26.64c2.3,2.28,4.81,4.19,7.81,5.94" style="fill:none;stroke:#999;stroke-width:3"></path>
<path d="M819.66,40.58c4.2,2.18,10.85,8.98,11.9,12.38" style="fill:none;stroke:#999;stroke-width:3"></path>
<path d="M803.89,61.87c2.24,1.55,5.11,1.12,7.61,0.77c6.71-0.94,25.48-3.49,32.01-4.4c4.28-0.59,5.76,1.05,2.2,4.86c-6.34,6.78-14.09,15.03-18.29,19.73" style="fill:none;stroke:#999;stroke-width:3"></path>
<path d="M813.63,75.15c5.21,2.69,18.68,13.3,21.13,20.35" style="fill:none;stroke:#999;stroke-width:3"></path>

</svg>