<svg width="872px" height="109px" viewBox="0 0 872 109" xmlns="http://www.w3.org/2000/svg" xmlns:xlink="http://www.w3.org/1999/xlink" xml:space="preserve" version="1.1" baseProfile="full">
<line x1="1" y1="1" x2="871" y2="1" style="stroke:#ddd;stroke-width:2"></line>
<line x1="1" y1="1" x2="1" y2="108" style="stroke:#ddd;stroke-width:2"></line>
<line x1="1" y1="108" x2="871" y2="108" style="stroke:#ddd;stroke-width:2"></line>
<line x1="871" y1="1" x2="871" y2="108" style="stroke:#ddd;stroke-width:2"></line>
<line x1="109" y1="1" x2="109" y2="108" style="stroke:#ddd;stroke-width:2"></line>
<line x1="218" y1="1" x2="218" y2="108" style="stroke:#ddd;stroke-width:2"></line>
<line x1="327" y1="1" x2="327" y2="108" style="stroke:#ddd;stroke-width:2"></line>
<line x1="436" y1="1" x2="436" y2="108" style="stroke:#ddd;stroke-width:2"></line>
<line x1="545" y1="1" x2="545" y2="108" style="stroke:#ddd;stroke-width:2"></line>
<line x1="654" y1="1" x2="654" y2="108" style="stroke:#ddd;stroke-width:2"></line>
<line x1="763" y1="1" x2="763" y2="108" style="stroke:#ddd;stroke-width:2"></line>
<line x1="1" y1="54" x2="871" y2="54" style="stroke:#ddd;stroke-width:2;stroke-dasharray:3 3"></line>
<line x1="55" y1="1" x2="55" y2="108" style="stroke:#ddd;stroke-width:2;stroke-dasharray:3 3"></line>
<line x1="164" y1="1" x2="164" y2="108" style="stroke:#ddd;stroke-width:2;stroke-dasharray:3 3"></line>
<line x1="273" y1="1" x2="273" y2="108" style="stroke:#ddd;stroke-width:2;stroke-dasharray:3 3"></line>
<line x1="382" y1="1" x2="382" y2="108" style="stroke:#ddd;stroke-width:2;stroke-dasharray:3 3"></line>
<line x1="491" y1="1" x2="491" y2="108" style="stroke:#ddd;stroke-width:2;stroke-dasharray:3 3"></line>
<line x1="600" y1="1" x2="600" y2="108" style="stroke:#ddd;stroke-width:2;stroke-dasharray:3 3"></line>
<line x1="709" y1="1" x2="709" y2="108" style="stroke:#ddd;stroke-width:2;stroke-dasharray:3 3"></line>
<line x1="818" y1="1" x2="818" y2="108" style="stroke:#ddd;stroke-width:2;stroke-dasharray:3 3"></line>
<path d="M16.0,38.75c0,6.43-3.55,15.41-4.48,17.25" style="fill:none;stroke:#999;stroke-width:3"></path>

<path d="M125.0,38.75c0,6.43-3.55,15.41-4.48,17.25" style="fill:none;stroke:#999;stroke-width:3"></path>
<path d="M139.52,30.83c3.72,2.19,9.61,8.98,10.54,12.38" style="fill:none;stroke:#999;stroke-width:3"></path>

<path d="M234.0,38.75c0,6.43-3.55,15.41-4.48,17.25" style="fill:none;stroke:#999;stroke-width:3"></path>
<path d="M248.52,30.83c3.72,2.19,9.61,8.98,10.54,12.38" style="fill:none;stroke:#999;stroke-width:3"></path>
<path d="M243.62,14.75c0.94,0.94,1.71,2.75,1.71,4c0,0.85,0.05,65.88,0.05,69.62c0,5.04-0.01,5.5-0.01,7.38" style="fill:none;stroke:#999;stroke-width:3"></path>

<path d="M343.0,38.75c0,6.43-3.55,15.41-4.48,17.25" style="fill:none;stroke:#999;stroke-width:3"></path>
<path d="M357.52,30.83c3.72,2.19,9.61,8.98,10.54,12.38" style="fill:none;stroke:#999;stroke-width:3"></path>
<path d="M352.62,14.75c0.94,0.94,1.71,2.75,1.71,4c0,0.85,0.05,65.88,0.05,69.62c0,5.04-0.01,5.5-0.01,7.38" style="fill:none;stroke:#999;stroke-width:3"></path>
<path d="M381.01,28.14c0.04,0.7,0.22,1.85-0.08,2.83C378.75,38.12,374.5,49.12,367.75,58" style="fill:none;stroke:#999;stroke-width:3"></path>

<path d="M452.0,38.75c0,6.43-3.55,15.41-4.48,17.25" style="fill:none;stroke:#999;stroke-width:3"></path>
<path d="M466.52,30.83c3.72,2.19,9.61,8.98,10.54,12.38" style="fill:none;stroke:#999;stroke-width:3"></path>
<path d="M461.62,14.75c0.94,0.94,1.71,2.75,1.71,4c0,0.85,0.05,65.88,0.05,69.62c0,5.04-0.01,5.5-0.01,7.38" style="fill:none;stroke:#999;stroke-width:3"></path>
<path d="M490.01,28.14c0.04,0.7,0.22,1.85-0.08,2.83C487.75,38.12,483.5,49.12,476.75,58" style="fill:none;stroke:#999;stroke-width:3"></path>
<path d="M489.63,42.17c1.37,0.21,2.66,0.21,3.6,0.13c6-0.49,21.82-2.31,29.4-3.13c1.84-0.2,3.65-0.42,5.5-0.28" style="fill:none;stroke:#999;stroke-width:3"></path>

<path d="M561.0,38.75c0,6.43-3.55,15.41-4.48,17.25" style="fill:none;stroke:#999;stroke-width:3"></path>
<path d="M575.52,30.83c3.72,2.19,9.61,8.98,10.54,12.38" style="fill:none;stroke:#999;stroke-width:3"></path>
<path d="M570.62,14.75c0.94,0.94,1.71,2.75,1.71,4c0,0.85,0.05,65.88,0.05,69.62c0,5.04-0.01,5.5-0.01,7.38" style="fill:none;stroke:#999;stroke-width:3"></path>
<path d="M599.01,28.14c0.04,0.7,0.22,1.85-0.08,2.83C596.75,38.12,592.5,49.12,585.75,58" style="fill:none;stroke:#999;stroke-width:3"></path>
<path d="M598.63,42.17c1.37,0.21,2.66,0.21,3.6,0.13c6-0.49,21.82-2.31,29.4-3.13c1.84-0.2,3.65-0.42,5.5-0.28" style="fill:none;stroke:#999;stroke-width:3"></path>
<path d="M612.56,13.63c1.22,1.22,2.26,3.37,2.26,5.48c0,1.06,0,60.26,0,70.27" style="fill:none;stroke:#999;stroke-width:3"></path>

<path d="M670.0,38.75c0,6.43-3.55,15.41-4.48,17.25" style="fill:none;stroke:#999;stroke-width:3"></path>
<path d="M684.52,30.83c3.72,2.19,9.61,8.98,10.54,12.38" style="fill:none;stroke:#999;stroke-width:3"></path>
<path d="M679.62,14.75c0.94,0.94,1.71,2.75,1.71,4c0,0.85,0.05,65.88,0.05,69.62c0,5.04-0.01,5.5-0.01,7.38" style="fill:none;stroke:#999;stroke-width:3"></path>
<path d="M708.01,28.14c0.04,0.7,0.22,1.85-0.08,2.83C705.75,38.12,701.5,49.12,694.75,58" style="fill:none;stroke:#999;stroke-width:3"></path>
<path d="M707.63,42.17c1.37,0.21,2.66,0.21,3.6,0.13c6-0.49,21.82-2.31,29.4-3.13c1.84-0.2,3.65-0.42,5.5-0.28" style="fill:none;stroke:#999;stroke-width:3"></path>
<path d="M721.56,13.63c1.22,1.22,2.26,3.37,2.26,5.48c0,1.06,0,60.26,0,70.27" style="fill:none;stroke:#999;stroke-width:3"></path>
<path d="M704.88,63.53c2,0.22,3.83,0.3,5.87,0.1c7.62-0.75,20.74-1.54,27.35-2.05c1.99-0.15,4.02-0.2,5.77,0.29" style="fill:none;stroke:#999;stroke-width:3"></path>

<path d="M779.0,38.75c0,6.43-3.55,15.41-4.48,17.25" style="fill:none;stroke:#999;stroke-width:3"></path>
<path d="M793.52,30.83c3.72,2.19,9.61,8.98,10.54,12.38" style="fill:none;stroke:#999;stroke-width:3"></path>
<path d="M788.62,14.75c0.94,0.94,1.71,2.75,1.71,4c0,0.85,0.05,65.88,0.05,69.62c0,5.04-0.01,5.5-0.01,7.38" style="fill:none;stroke:#999;stroke-width:3"></path>
<path d="M817.01,28.14c0.04,0.7,0.22,1.85-0.08,2.83C814.75,38.12,810.5,49.12,803.75,58" style="fill:none;stroke:#999;stroke-width:3"></path>
<path d="M816.63,42.17c1.37,0.21,2.66,0.21,3.6,0.13c6-0.49,21.82-2.31,29.4-3.13c1.84-0.2,3.65-0.42,5.5-0.28" style="fill:none;stroke:#999;stroke-width:3"></path>
<path d="M830.56,13.63c1.22,1.22,2.26,3.37,2.26,5.48c0,1.06,0,60.26,0,70.27" style="fill:none;stroke:#999;stroke-width:3"></path>
<path d="M813.88,63.53c2,0.22,3.83,0.3,5.87,0.1c7.62-0.75,20.74-1.54,27.35-2.05c1.99-0.15,4.02-0.2,5.77,0.29" style="fill:none;stroke:#999;stroke-width:3"></path>
<path d="M801.88,90.72c2.93,0.51,5.06,0.6,8.01,0.41c11.74-0.76,35.24-1.76,45.08-1.81c2.54-0.02,5.29,0.18,7.29,0.63" style="fill:none;stroke:#999;stroke-width:3"></path>

</svg>