<svg width="1090px" height="109px" viewBox="0 0 1090 109" xmlns="http://www.w3.org/2000/svg" xmlns:xlink="http://www.w3.org/1999/xlink" xml:space="preserve" version="1.1" baseProfile="full">
<line x1="1" y1="1" x2="1089" y2="1" style="stroke:#ddd;stroke-width:2"></line>
<line x1="1" y1="1" x2="1" y2="108" style="stroke:#ddd;stroke-width:2"></line>
<line x1="1" y1="108" x2="1089" y2="108" style="stroke:#ddd;stroke-width:2"></line>
<line x1="1089" y1="1" x2="1089" y2="108" style="stroke:#ddd;stroke-width:2"></line>
<line x1="109" y1="1" x2="109" y2="108" style="stroke:#ddd;stroke-width:2"></line>
<line x1="218" y1="1" x2="218" y2="108" style="stroke:#ddd;stroke-width:2"></line>
<line x1="327" y1="1" x2="327" y2="108" style="stroke:#ddd;stroke-width:2"></line>
<line x1="436" y1="1" x2="436" y2="108" style="stroke:#ddd;stroke-width:2"></line>
<line x1="545" y1="1" x2="545" y2="108" style="stroke:#ddd;stroke-width:2"></line>
<line x1="654" y1="1" x2="654" y2="108" style="stroke:#ddd;stroke-width:2"></line>
<line x1="763" y1="1" x2="763" y2="108" style="stroke:#ddd;stroke-width:2"></line>
<line x1="872" y1="1" x2="872" y2="108" style="stroke:#ddd;stroke-width:2"></line>
<line x1="981" y1="1" x2="981" y2="108" style="stroke:#ddd;stroke-width:2"></line>
<line x1="1" y1="54" x2="1089" y2="54" style="stroke:#ddd;stroke-width:2;stroke-dasharray:3 3"></line>
<line x1="55" y1="1" x2="55" y2="108" style="stroke:#ddd;stroke-width:2;stroke-dasharray:3 3"></line>
<line x1="164" y1="1" x2="164" y2="108" style="stroke:#ddd;stroke-width:2;stroke-dasharray:3 3"></line>
<line x1="273" y1="1" x2="273" y2="108" style="stroke:#ddd;stroke-width:2;stroke-dasharray:3 3"></line>
<line x1="382" y1="1" x2="382" y2="108" style="stroke:#ddd;stroke-width:2;stroke-dasharray:3 3"></line>
<line x1="491" y1="1" x2="491" y2="108" style="stroke:#ddd;stroke-width:2;stroke-dasharray:3 3"></line>
<line x1="600" y1="1" x2="600" y2="108" style="stroke:#ddd;stroke-width:2;stroke-dasharray:3 3"></line>
<line x1="709" y1="1" x2="709" y2="108" style="stroke:#ddd;stroke-width:2;stroke-dasharray:3 3"></line>
<line x1="818" y1="1" x2="818" y2="108" style="stroke:#ddd;stroke-width:2;stroke-dasharray:3 3"></line>
<line x1="927" y1="1" x2="927" y2="108" style="stroke:#ddd;stroke-width:2;stroke-dasharray:3 3"></line>
<line x1="1036" y1="1" x2="1036" y2="108" style="stroke:#ddd;stroke-width:2;stroke-dasharray:3 3"></line>
<path d="M52.28,12.06c1.27,1.27,1.34,2.69,1.34,4.62c0,1.44-0.12,3.9-0.12,6.19" style="fill:none;stroke:#999;stroke-width:3"></path>

<path d="M161.28,12.06c1.27,1.27,1.34,2.69,1.34,4.62c0,1.44-0.12,3.9-0.12,6.19" style="fill:none;stroke:#999;stroke-width:3"></path>
<path d="M128.55,25.56c2.95,0.69,5.65,0.67,8.7,0.41c11.44-0.97,36.68-3.01,50-3.51c2.94-0.11,6.19-0.33,9,0.73" style="fill:none;stroke:#999;stroke-width:3"></path>

<path d="M270.28,12.06c1.27,1.27,1.34,2.69,1.34,4.62c0,1.44-0.12,3.9-0.12,6.19" style="fill:none;stroke:#999;stroke-width:3"></path>
<path d="M237.55,25.56c2.95,0.69,5.65,0.67,8.7,0.41c11.44-0.97,36.68-3.01,50-3.51c2.94-0.11,6.19-0.33,9,0.73" style="fill:none;stroke:#999;stroke-width:3"></path>
<path d="M264.35,27.45c0.78,0.93,0.9,1.92,0.68,3.06c-2.15,11-5.53,23.12-16.84,31.18" style="fill:none;stroke:#999;stroke-width:3"></path>

<path d="M379.28,12.06c1.27,1.27,1.34,2.69,1.34,4.62c0,1.44-0.12,3.9-0.12,6.19" style="fill:none;stroke:#999;stroke-width:3"></path>
<path d="M346.55,25.56c2.95,0.69,5.65,0.67,8.7,0.41c11.44-0.97,36.68-3.01,50-3.51c2.94-0.11,6.19-0.33,9,0.73" style="fill:none;stroke:#999;stroke-width:3"></path>
<path d="M373.35,27.45c0.78,0.93,0.9,1.92,0.68,3.06c-2.15,11-5.53,23.12-16.84,31.18" style="fill:none;stroke:#999;stroke-width:3"></path>
<path d="M388.48,25.88c0.82,0.82,0.92,1.83,0.92,3.86c0,11.81,0.08,22.46,0.08,25.77c0,8.23-4.82,1-5.83,0.17" style="fill:none;stroke:#999;stroke-width:3"></path>

<path d="M488.28,12.06c1.27,1.27,1.34,2.69,1.34,4.62c0,1.44-0.12,3.9-0.12,6.19" style="fill:none;stroke:#999;stroke-width:3"></path>
<path d="M455.55,25.56c2.95,0.69,5.65,0.67,8.7,0.41c11.44-0.97,36.68-3.01,50-3.51c2.94-0.11,6.19-0.33,9,0.73" style="fill:none;stroke:#999;stroke-width:3"></path>
<path d="M482.35,27.45c0.78,0.93,0.9,1.92,0.68,3.06c-2.15,11-5.53,23.12-16.84,31.18" style="fill:none;stroke:#999;stroke-width:3"></path>
<path d="M497.48,25.88c0.82,0.82,0.92,1.83,0.92,3.86c0,11.81,0.08,22.46,0.08,25.77c0,8.23-4.82,1-5.83,0.17" style="fill:none;stroke:#999;stroke-width:3"></path>
<path d="M467.76,37.12c0.12,1.08-0.26,2.02-0.87,2.93c-2.78,4.12-7.11,9.23-14.08,14.09" style="fill:none;stroke:#999;stroke-width:3"></path>

<path d="M597.28,12.06c1.27,1.27,1.34,2.69,1.34,4.62c0,1.44-0.12,3.9-0.12,6.19" style="fill:none;stroke:#999;stroke-width:3"></path>
<path d="M564.55,25.56c2.95,0.69,5.65,0.67,8.7,0.41c11.44-0.97,36.68-3.01,50-3.51c2.94-0.11,6.19-0.33,9,0.73" style="fill:none;stroke:#999;stroke-width:3"></path>
<path d="M591.35,27.45c0.78,0.93,0.9,1.92,0.68,3.06c-2.15,11-5.53,23.12-16.84,31.18" style="fill:none;stroke:#999;stroke-width:3"></path>
<path d="M606.48,25.88c0.82,0.82,0.92,1.83,0.92,3.86c0,11.81,0.08,22.46,0.08,25.77c0,8.23-4.82,1-5.83,0.17" style="fill:none;stroke:#999;stroke-width:3"></path>
<path d="M576.76,37.12c0.12,1.08-0.26,2.02-0.87,2.93c-2.78,4.12-7.11,9.23-14.08,14.09" style="fill:none;stroke:#999;stroke-width:3"></path>
<path d="M617.91,36.61c5.47,2.32,14.14,9.53,15.5,13.14" style="fill:none;stroke:#999;stroke-width:3"></path>

<path d="M706.28,12.06c1.27,1.27,1.34,2.69,1.34,4.62c0,1.44-0.12,3.9-0.12,6.19" style="fill:none;stroke:#999;stroke-width:3"></path>
<path d="M673.55,25.56c2.95,0.69,5.65,0.67,8.7,0.41c11.44-0.97,36.68-3.01,50-3.51c2.94-0.11,6.19-0.33,9,0.73" style="fill:none;stroke:#999;stroke-width:3"></path>
<path d="M700.35,27.45c0.78,0.93,0.9,1.92,0.68,3.06c-2.15,11-5.53,23.12-16.84,31.18" style="fill:none;stroke:#999;stroke-width:3"></path>
<path d="M715.48,25.88c0.82,0.82,0.92,1.83,0.92,3.86c0,11.81,0.08,22.46,0.08,25.77c0,8.23-4.82,1-5.83,0.17" style="fill:none;stroke:#999;stroke-width:3"></path>
<path d="M685.76,37.12c0.12,1.08-0.26,2.02-0.87,2.93c-2.78,4.12-7.11,9.23-14.08,14.09" style="fill:none;stroke:#999;stroke-width:3"></path>
<path d="M726.91,36.61c5.47,2.32,14.14,9.53,15.5,13.14" style="fill:none;stroke:#999;stroke-width:3"></path>
<path d="M678.15,75.15c0.28,2.46-2.81,13.31-5.07,17.4" style="fill:none;stroke:#999;stroke-width:3"></path>

<path d="M815.28,12.06c1.27,1.27,1.34,2.69,1.34,4.62c0,1.44-0.12,3.9-0.12,6.19" style="fill:none;stroke:#999;stroke-width:3"></path>
<path d="M782.55,25.56c2.95,0.69,5.65,0.67,8.7,0.41c11.44-0.97,36.68-3.01,50-3.51c2.94-0.11,6.19-0.33,9,0.73" style="fill:none;stroke:#999;stroke-width:3"></path>
<path d="M809.35,27.45c0.78,0.93,0.9,1.92,0.68,3.06c-2.15,11-5.53,23.12-16.84,31.18" style="fill:none;stroke:#999;stroke-width:3"></path>
<path d="M824.48,25.88c0.82,0.82,0.92,1.83,0.92,3.86c0,11.81,0.08,22.46,0.08,25.77c0,8.23-4.82,1-5.83,0.17" style="fill:none;stroke:#999;stroke-width:3"></path>
<path d="M794.76,37.12c0.12,1.08-0.26,2.02-0.87,2.93c-2.78,4.12-7.11,9.23-14.08,14.09" style="fill:none;stroke:#999;stroke-width:3"></path>
<path d="M835.91,36.61c5.47,2.32,14.14,9.53,15.5,13.14" style="fill:none;stroke:#999;stroke-width:3"></path>
<path d="M787.15,75.15c0.28,2.46-2.81,13.31-5.07,17.4" style="fill:none;stroke:#999;stroke-width:3"></path>
<path d="M798.83,70.66C806.0,85.75,816.75,95,841.03,95.18c11.47,0.09,12.22-3.41,2.65-9.22" style="fill:none;stroke:#999;stroke-width:3"></path>

<path d="M924.28,12.06c1.27,1.27,1.34,2.69,1.34,4.62c0,1.44-0.12,3.9-0.12,6.19" style="fill:none;stroke:#999;stroke-width:3"></path>
<path d="M891.55,25.56c2.95,0.69,5.65,0.67,8.7,0.41c11.44-0.97,36.68-3.01,50-3.51c2.94-0.11,6.19-0.33,9,0.73" style="fill:none;stroke:#999;stroke-width:3"></path>
<path d="M918.35,27.45c0.78,0.93,0.9,1.92,0.68,3.06c-2.15,11-5.53,23.12-16.84,31.18" style="fill:none;stroke:#999;stroke-width:3"></path>
<path d="M933.48,25.88c0.82,0.82,0.92,1.83,0.92,3.86c0,11.81,0.08,22.46,0.08,25.77c0,8.23-4.82,1-5.83,0.17" style="fill:none;stroke:#999;stroke-width:3"></path>
<path d="M903.76,37.12c0.12,1.08-0.26,2.02-0.87,2.93c-2.78,4.12-7.11,9.23-14.08,14.09" style="fill:none;stroke:#999;stroke-width:3"></path>
<path d="M944.91,36.61c5.47,2.32,14.14,9.53,15.5,13.14" style="fill:none;stroke:#999;stroke-width:3"></path>
<path d="M896.15,75.15c0.28,2.46-2.81,13.31-5.07,17.4" style="fill:none;stroke:#999;stroke-width:3"></path>
<path d="M907.83,70.66C915.0,85.75,925.75,95,950.03,95.18c11.47,0.09,12.22-3.41,2.65-9.22" style="fill:none;stroke:#999;stroke-width:3"></path>
<path d="M927.41,68.75c2.02,4.7,4.72,9.91,6.88,2.71" style="fill:none;stroke:#999;stroke-width:3"></path>

<path d="M1033.28,12.06c1.27,1.27,1.34,2.69,1.34,4.62c0,1.44-0.12,3.9-0.12,6.19" style="fill:none;stroke:#999;stroke-width:3"></path>
<path d="M1000.55,25.56c2.95,0.69,5.65,0.67,8.7,0.41c11.44-0.97,36.68-3.01,50-3.51c2.94-0.11,6.19-0.33,9,0.73" style="fill:none;stroke:#999;stroke-width:3"></path>
<path d="M1027.35,27.45c0.78,0.93,0.9,1.92,0.68,3.06c-2.15,11-5.53,23.12-16.84,31.18" style="fill:none;stroke:#999;stroke-width:3"></path>
<path d="M1042.48,25.88c0.82,0.82,0.92,1.83,0.92,3.86c0,11.81,0.08,22.46,0.08,25.77c0,8.23-4.82,1-5.83,0.17" style="fill:none;stroke:#999;stroke-width:3"></path>
<path d="M1012.76,37.12c0.12,1.08-0.26,2.02-0.87,2.93c-2.78,4.12-7.11,9.23-14.08,14.09" style="fill:none;stroke:#999;stroke-width:3"></path>
<path d="M1053.9099999999999,36.61c5.47,2.32,14.14,9.53,15.5,13.14" style="fill:none;stroke:#999;stroke-width:3"></path>
<path d="M1005.15,75.15c0.28,2.46-2.81,13.31-5.07,17.4" style="fill:none;stroke:#999;stroke-width:3"></path>
<path d="M1016.83,70.66C1024.0,85.75,1034.75,95,1059.03,95.18c11.47,0.09,12.22-3.41,2.65-9.22" style="fill:none;stroke:#999;stroke-width:3"></path>
<path d="M1036.4099999999999,68.75c2.02,4.7,4.72,9.91,6.88,2.71" style="fill:none;stroke:#999;stroke-width:3"></path>
<path d="M1060.63,64.73c4.72,2.21,8.49,5.64,11.85,10.78" style="fill:none;stroke:#999;stroke-width:3"></path>

</svg>