<svg width="981px" height="109px" viewBox="0 0 981 109" xmlns="http://www.w3.org/2000/svg" xmlns:xlink="http://www.w3.org/1999/xlink" xml:space="preserve" version="1.1" baseProfile="full">
<line x1="1" y1="1" x2="980" y2="1" style="stroke:#ddd;stroke-width:2"></line>
<line x1="1" y1="1" x2="1" y2="108" style="stroke:#ddd;stroke-width:2"></line>
<line x1="1" y1="108" x2="980" y2="108" style="stroke:#ddd;stroke-width:2"></line>
<line x1="980" y1="1" x2="980" y2="108" style="stroke:#ddd;stroke-width:2"></line>
<line x1="109" y1="1" x2="109" y2="108" style="stroke:#ddd;stroke-width:2"></line>
<line x1="218" y1="1" x2="218" y2="108" style="stroke:#ddd;stroke-width:2"></line>
<line x1="327" y1="1" x2="327" y2="108" style="stroke:#ddd;stroke-width:2"></line>
<line x1="436" y1="1" x2="436" y2="108" style="stroke:#ddd;stroke-width:2"></line>
<line x1="545" y1="1" x2="545" y2="108" style="stroke:#ddd;stroke-width:2"></line>
<line x1="654" y1="1" x2="654" y2="108" style="stroke:#ddd;stroke-width:2"></line>
<line x1="763" y1="1" x2="763" y2="108" style="stroke:#ddd;stroke-width:2"></line>
<line x1="872" y1="1" x2="872" y2="108" style="stroke:#ddd;stroke-width:2"></line>
<line x1="1" y1="54" x2="980" y2="54" style="stroke:#ddd;stroke-width:2;stroke-dasharray:3 3"></line>
<line x1="55" y1="1" x2="55" y2="108" style="stroke:#ddd;stroke-width:2;stroke-dasharray:3 3"></line>
<line x1="164" y1="1" x2="164" y2="108" style="stroke:#ddd;stroke-width:2;stroke-dasharray:3 3"></line>
<line x1="273" y1="1" x2="273" y2="108" style="stroke:#ddd;stroke-width:2;stroke-dasharray:3 3"></line>
<line x1="382" y1="1" x2="382" y2="108" style="stroke:#ddd;stroke-width:2;stroke-dasharray:3 3"></line>
<line x1="491" y1="1" x2="491" y2="108" style="stroke:#ddd;stroke-width:2;stroke-dasharray:3 3"></line>
<line x1="600" y1="1" x2="600" y2="108" style="stroke:#ddd;stroke-width:2;stroke-dasharray:3 3"></line>
<line x1="709" y1="1" x2="709" y2="108" style="stroke:#ddd;stroke-width:2;stroke-dasharray:3 3"></line>
<line x1="818" y1="1" x2="818" y2="108" style="stroke:#ddd;stroke-width:2;stroke-dasharray:3 3"></line>
<line x1="927" y1="1" x2="927" y2="108" style="stroke:#ddd;stroke-width:2;stroke-dasharray:3 3"></line>
<path d="M16.38,39.75c0,6.61-2.68,16.36-3.38,18.25" style="fill:none;stroke:#999;stroke-width:3"></path>

<path d="M125.38,39.75c0,6.61-2.68,16.36-3.38,18.25" style="fill:none;stroke:#999;stroke-width:3"></path>
<path d="M140.0,32.62c3.99,2.13,10.31,8.77,11.31,12.09" style="fill:none;stroke:#999;stroke-width:3"></path>

<path d="M234.38,39.75c0,6.61-2.68,16.36-3.38,18.25" style="fill:none;stroke:#999;stroke-width:3"></path>
<path d="M249.0,32.62c3.99,2.13,10.31,8.77,11.31,12.09" style="fill:none;stroke:#999;stroke-width:3"></path>
<path d="M244.12,14.5c0.94,0.94,1.21,2.38,1.21,3.75c0,0.69,0.04,49.01,0.04,68.88c0,4.98,0,8.18-0.01,8.38" style="fill:none;stroke:#999;stroke-width:3"></path>

<path d="M343.38,39.75c0,6.61-2.68,16.36-3.38,18.25" style="fill:none;stroke:#999;stroke-width:3"></path>
<path d="M358.0,32.62c3.99,2.13,10.31,8.77,11.31,12.09" style="fill:none;stroke:#999;stroke-width:3"></path>
<path d="M353.12,14.5c0.94,0.94,1.21,2.38,1.21,3.75c0,0.69,0.04,49.01,0.04,68.88c0,4.98,0,8.18-0.01,8.38" style="fill:none;stroke:#999;stroke-width:3"></path>
<path d="M373.8,24.07c2.2,0.3,4.71,0.25,6.71-0.02c7.74-1.05,23.79-3.26,32.13-3.84c2.31-0.16,4.79-0.15,7.04,0.52" style="fill:none;stroke:#999;stroke-width:3"></path>

<path d="M452.38,39.75c0,6.61-2.68,16.36-3.38,18.25" style="fill:none;stroke:#999;stroke-width:3"></path>
<path d="M467.0,32.62c3.99,2.13,10.31,8.77,11.31,12.09" style="fill:none;stroke:#999;stroke-width:3"></path>
<path d="M462.12,14.5c0.94,0.94,1.21,2.38,1.21,3.75c0,0.69,0.04,49.01,0.04,68.88c0,4.98,0,8.18-0.01,8.38" style="fill:none;stroke:#999;stroke-width:3"></path>
<path d="M482.8,24.07c2.2,0.3,4.71,0.25,6.71-0.02c7.74-1.05,23.79-3.26,32.13-3.84c2.31-0.16,4.79-0.15,7.04,0.52" style="fill:none;stroke:#999;stroke-width:3"></path>
<path d="M489.07,38.09c0.92,0.92,1.23,2.13,1.23,3.39s0.08,17.77,0.02,27.26c-0.01,1.35-0.01,2.69,0,4.04" style="fill:none;stroke:#999;stroke-width:3"></path>

<path d="M561.38,39.75c0,6.61-2.68,16.36-3.38,18.25" style="fill:none;stroke:#999;stroke-width:3"></path>
<path d="M576.0,32.62c3.99,2.13,10.31,8.77,11.31,12.09" style="fill:none;stroke:#999;stroke-width:3"></path>
<path d="M571.12,14.5c0.94,0.94,1.21,2.38,1.21,3.75c0,0.69,0.04,49.01,0.04,68.88c0,4.98,0,8.18-0.01,8.38" style="fill:none;stroke:#999;stroke-width:3"></path>
<path d="M591.8,24.07c2.2,0.3,4.71,0.25,6.71-0.02c7.74-1.05,23.79-3.26,32.13-3.84c2.31-0.16,4.79-0.15,7.04,0.52" style="fill:none;stroke:#999;stroke-width:3"></path>
<path d="M598.0699999999999,38.09c0.92,0.92,1.23,2.13,1.23,3.39s0.08,17.77,0.02,27.26c-0.01,1.35-0.01,2.69,0,4.04" style="fill:none;stroke:#999;stroke-width:3"></path>
<path d="M599.76,39.92c5.98-0.75,23.04-3.44,25.14-3.74s3.53,0.87,3.53,3.1s-0.13,17.74-0.11,25.98c0,1.77,0.02,3.45,0.04,5" style="fill:none;stroke:#999;stroke-width:3"></path>

<path d="M670.38,39.75c0,6.61-2.68,16.36-3.38,18.25" style="fill:none;stroke:#999;stroke-width:3"></path>
<path d="M685.0,32.62c3.99,2.13,10.31,8.77,11.31,12.09" style="fill:none;stroke:#999;stroke-width:3"></path>
<path d="M680.12,14.5c0.94,0.94,1.21,2.38,1.21,3.75c0,0.69,0.04,49.01,0.04,68.88c0,4.98,0,8.18-0.01,8.38" style="fill:none;stroke:#999;stroke-width:3"></path>
<path d="M700.8,24.07c2.2,0.3,4.71,0.25,6.71-0.02c7.74-1.05,23.79-3.26,32.13-3.84c2.31-0.16,4.79-0.15,7.04,0.52" style="fill:none;stroke:#999;stroke-width:3"></path>
<path d="M707.0699999999999,38.09c0.92,0.92,1.23,2.13,1.23,3.39s0.08,17.77,0.02,27.26c-0.01,1.35-0.01,2.69,0,4.04" style="fill:none;stroke:#999;stroke-width:3"></path>
<path d="M708.76,39.92c5.98-0.75,23.04-3.44,25.14-3.74s3.53,0.87,3.53,3.1s-0.13,17.74-0.11,25.98c0,1.77,0.02,3.45,0.04,5" style="fill:none;stroke:#999;stroke-width:3"></path>
<path d="M709.54,54.29c8.34-1.29,21.1-2.77,26.74-3.25" style="fill:none;stroke:#999;stroke-width:3"></path>

<path d="M779.38,39.75c0,6.61-2.68,16.36-3.38,18.25" style="fill:none;stroke:#999;stroke-width:3"></path>
<path d="M794.0,32.62c3.99,2.13,10.31,8.77,11.31,12.09" style="fill:none;stroke:#999;stroke-width:3"></path>
<path d="M789.12,14.5c0.94,0.94,1.21,2.38,1.21,3.75c0,0.69,0.04,49.01,0.04,68.88c0,4.98,0,8.18-0.01,8.38" style="fill:none;stroke:#999;stroke-width:3"></path>
<path d="M809.8,24.07c2.2,0.3,4.71,0.25,6.71-0.02c7.74-1.05,23.79-3.26,32.13-3.84c2.31-0.16,4.79-0.15,7.04,0.52" style="fill:none;stroke:#999;stroke-width:3"></path>
<path d="M816.0699999999999,38.09c0.92,0.92,1.23,2.13,1.23,3.39s0.08,17.77,0.02,27.26c-0.01,1.35-0.01,2.69,0,4.04" style="fill:none;stroke:#999;stroke-width:3"></path>
<path d="M817.76,39.92c5.98-0.75,23.04-3.44,25.14-3.74s3.53,0.87,3.53,3.1s-0.13,17.74-0.11,25.98c0,1.77,0.02,3.45,0.04,5" style="fill:none;stroke:#999;stroke-width:3"></path>
<path d="M818.54,54.29c8.34-1.29,21.1-2.77,26.74-3.25" style="fill:none;stroke:#999;stroke-width:3"></path>
<path d="M818.35,69.74c7.9-0.74,17.9-2.15,26.8-2.71" style="fill:none;stroke:#999;stroke-width:3"></path>

<path d="M888.38,39.75c0,6.61-2.68,16.36-3.38,18.25" style="fill:none;stroke:#999;stroke-width:3"></path>
<path d="M903.0,32.62c3.99,2.13,10.31,8.77,11.31,12.09" style="fill:none;stroke:#999;stroke-width:3"></path>
<path d="M898.12,14.5c0.94,0.94,1.21,2.38,1.21,3.75c0,0.69,0.04,49.01,0.04,68.88c0,4.98,0,8.18-0.01,8.38" style="fill:none;stroke:#999;stroke-width:3"></path>
<path d="M918.8,24.07c2.2,0.3,4.71,0.25,6.71-0.02c7.74-1.05,23.79-3.26,32.13-3.84c2.31-0.16,4.79-0.15,7.04,0.52" style="fill:none;stroke:#999;stroke-width:3"></path>
<path d="M925.0699999999999,38.09c0.92,0.92,1.23,2.13,1.23,3.39s0.08,17.77,0.02,27.26c-0.01,1.35-0.01,2.69,0,4.04" style="fill:none;stroke:#999;stroke-width:3"></path>
<path d="M926.76,39.92c5.98-0.75,23.04-3.44,25.14-3.74s3.53,0.87,3.53,3.1s-0.13,17.74-0.11,25.98c0,1.77,0.02,3.45,0.04,5" style="fill:none;stroke:#999;stroke-width:3"></path>
<path d="M927.54,54.29c8.34-1.29,21.1-2.77,26.74-3.25" style="fill:none;stroke:#999;stroke-width:3"></path>
<path d="M927.35,69.74c7.9-0.74,17.9-2.15,26.8-2.71" style="fill:none;stroke:#999;stroke-width:3"></path>
<path d="M914.78,87.16c2.11,0.86,5.51,0.82,7.74,0.57c10.86-1.23,28.3-2.98,39.11-3.24c2.37-0.06,4.77-0.16,7.09,0.41" style="fill:none;stroke:#999;stroke-width:3"></path>

</svg>