<svg width="981px" height="109px" viewBox="0 0 981 109" xmlns="http://www.w3.org/2000/svg" xmlns:xlink="http://www.w3.org/1999/xlink" xml:space="preserve" version="1.1" baseProfile="full">
<line x1="1" y1="1" x2="980" y2="1" style="stroke:#ddd;stroke-width:2"></line>
<line x1="1" y1="1" x2="1" y2="108" style="stroke:#ddd;stroke-width:2"></line>
<line x1="1" y1="108" x2="980" y2="108" style="stroke:#ddd;stroke-width:2"></line>
<line x1="980" y1="1" x2="980" y2="108" style="stroke:#ddd;stroke-width:2"></line>
<line x1="109" y1="1" x2="109" y2="108" style="stroke:#ddd;stroke-width:2"></line>
<line x1="218" y1="1" x2="218" y2="108" style="stroke:#ddd;stroke-width:2"></line>
<line x1="327" y1="1" x2="327" y2="108" style="stroke:#ddd;stroke-width:2"></line>
<line x1="436" y1="1" x2="436" y2="108" style="stroke:#ddd;stroke-width:2"></line>
<line x1="545" y1="1" x2="545" y2="108" style="stroke:#ddd;stroke-width:2"></line>
<line x1="654" y1="1" x2="654" y2="108" style="stroke:#ddd;stroke-width:2"></line>
<line x1="763" y1="1" x2="763" y2="108" style="stroke:#ddd;stroke-width:2"></line>
<line x1="872" y1="1" x2="872" y2="108" style="stroke:#ddd;stroke-width:2"></line>
<line x1="1" y1="54" x2="980" y2="54" style="stroke:#ddd;stroke-width:2;stroke-dasharray:3 3"></line>
<line x1="55" y1="1" x2="55" y2="108" style="stroke:#ddd;stroke-width:2;stroke-dasharray:3 3"></line>
<line x1="164" y1="1" x2="164" y2="108" style="stroke:#ddd;stroke-width:2;stroke-dasharray:3 3"></line>
<line x1="273" y1="1" x2="273" y2="108" style="stroke:#ddd;stroke-width:2;stroke-dasharray:3 3"></line>
<line x1="382" y1="1" x2="382" y2="108" style="stroke:#ddd;stroke-width:2;stroke-dasharray:3 3"></line>
<line x1="491" y1="1" x2="491" y2="108" style="stroke:#ddd;stroke-width:2;stroke-dasharray:3 3"></line>
<line x1="600" y1="1" x2="600" y2="108" style="stroke:#ddd;stroke-width:2;stroke-dasharray:3 3"></line>
<line x1="709" y1="1" x2="709" y2="108" style="stroke:#ddd;stroke-width:2;stroke-dasharray:3 3"></line>
<line x1="818" y1="1" x2="818" y2="108" style="stroke:#ddd;stroke-width:2;stroke-dasharray:3 3"></line>
<line x1="927" y1="1" x2="927" y2="108" style="stroke:#ddd;stroke-width:2;stroke-dasharray:3 3"></line>
<path d="M17.72,33.75c0,6.61-3.72,16.36-4.69,18.25" style="fill:none;stroke:#999;stroke-width:3"></path>

<path d="M126.72,33.75c0,6.61-3.72,16.36-4.69,18.25" style="fill:none;stroke:#999;stroke-width:3"></path>
<path d="M138.27,30.83c2.93,2.32,7.56,9.53,8.29,13.13" style="fill:none;stroke:#999;stroke-width:3"></path>

<path d="M235.72,33.75c0,6.61-3.72,16.36-4.69,18.25" style="fill:none;stroke:#999;stroke-width:3"></path>
<path d="M247.27,30.83c2.93,2.32,7.56,9.53,8.29,13.13" style="fill:none;stroke:#999;stroke-width:3"></path>
<path d="M243.36,13.75c1.1,0.51,1.76,2.28,1.98,3.29c0.22,1.01,0,72.13-0.22,78.46" style="fill:none;stroke:#999;stroke-width:3"></path>

<path d="M344.72,33.75c0,6.61-3.72,16.36-4.69,18.25" style="fill:none;stroke:#999;stroke-width:3"></path>
<path d="M356.27,30.83c2.93,2.32,7.56,9.53,8.29,13.13" style="fill:none;stroke:#999;stroke-width:3"></path>
<path d="M352.36,13.75c1.1,0.51,1.76,2.28,1.98,3.29c0.22,1.01,0,72.13-0.22,78.46" style="fill:none;stroke:#999;stroke-width:3"></path>
<path d="M369.86,30c1.13,0.28,3.21,0.36,4.34,0.28c9.27-0.59,31.29-3.46,42.88-4.03c1.88-0.09,3.02,0.14,3.96,0.28" style="fill:none;stroke:#999;stroke-width:3"></path>

<path d="M453.72,33.75c0,6.61-3.72,16.36-4.69,18.25" style="fill:none;stroke:#999;stroke-width:3"></path>
<path d="M465.27,30.83c2.93,2.32,7.56,9.53,8.29,13.13" style="fill:none;stroke:#999;stroke-width:3"></path>
<path d="M461.36,13.75c1.1,0.51,1.76,2.28,1.98,3.29c0.22,1.01,0,72.13-0.22,78.46" style="fill:none;stroke:#999;stroke-width:3"></path>
<path d="M478.86,30c1.13,0.28,3.21,0.36,4.34,0.28c9.27-0.59,31.29-3.46,42.88-4.03c1.88-0.09,3.02,0.14,3.96,0.28" style="fill:none;stroke:#999;stroke-width:3"></path>
<path d="M498.7,14.18c0.07,1.26,0.18,3.27-0.15,5.08C496.09000000000003,32.67,488.51,54.1,472.39,67.9" style="fill:none;stroke:#999;stroke-width:3"></path>

<path d="M562.72,33.75c0,6.61-3.72,16.36-4.69,18.25" style="fill:none;stroke:#999;stroke-width:3"></path>
<path d="M574.27,30.83c2.93,2.32,7.56,9.53,8.29,13.13" style="fill:none;stroke:#999;stroke-width:3"></path>
<path d="M570.36,13.75c1.1,0.51,1.76,2.28,1.98,3.29c0.22,1.01,0,72.13-0.22,78.46" style="fill:none;stroke:#999;stroke-width:3"></path>
<path d="M587.86,30c1.13,0.28,3.21,0.36,4.34,0.28c9.27-0.59,31.29-3.46,42.88-4.03c1.88-0.09,3.02,0.14,3.96,0.28" style="fill:none;stroke:#999;stroke-width:3"></path>
<path d="M607.7,14.18c0.07,1.26,0.18,3.27-0.15,5.08C605.09,32.67,597.51,54.1,581.39,67.9" style="fill:none;stroke:#999;stroke-width:3"></path>
<path d="M591.91,51.75c0.55,0.34,0.88,1.51,0.99,2.18s0,33.87-0.11,38.07" style="fill:none;stroke:#999;stroke-width:3"></path>

<path d="M671.72,33.75c0,6.61-3.72,16.36-4.69,18.25" style="fill:none;stroke:#999;stroke-width:3"></path>
<path d="M683.27,30.83c2.93,2.32,7.56,9.53,8.29,13.13" style="fill:none;stroke:#999;stroke-width:3"></path>
<path d="M679.36,13.75c1.1,0.51,1.76,2.28,1.98,3.29c0.22,1.01,0,72.13-0.22,78.46" style="fill:none;stroke:#999;stroke-width:3"></path>
<path d="M696.86,30c1.13,0.28,3.21,0.36,4.34,0.28c9.27-0.59,31.29-3.46,42.88-4.03c1.88-0.09,3.02,0.14,3.96,0.28" style="fill:none;stroke:#999;stroke-width:3"></path>
<path d="M716.7,14.18c0.07,1.26,0.18,3.27-0.15,5.08C714.09,32.67,706.51,54.1,690.39,67.9" style="fill:none;stroke:#999;stroke-width:3"></path>
<path d="M700.91,51.75c0.55,0.34,0.88,1.51,0.99,2.18s0,33.87-0.11,38.07" style="fill:none;stroke:#999;stroke-width:3"></path>
<path d="M711.13,59.06c0.96,0.27,2.73,0.37,3.69,0.27c7.43-0.83,16.93-2.58,26.02-3.56c1.59-0.17,2.57,0.13,3.37,0.26" style="fill:none;stroke:#999;stroke-width:3"></path>

<path d="M780.72,33.75c0,6.61-3.72,16.36-4.69,18.25" style="fill:none;stroke:#999;stroke-width:3"></path>
<path d="M792.27,30.83c2.93,2.32,7.56,9.53,8.29,13.13" style="fill:none;stroke:#999;stroke-width:3"></path>
<path d="M788.36,13.75c1.1,0.51,1.76,2.28,1.98,3.29c0.22,1.01,0,72.13-0.22,78.46" style="fill:none;stroke:#999;stroke-width:3"></path>
<path d="M805.86,30c1.13,0.28,3.21,0.36,4.34,0.28c9.27-0.59,31.29-3.46,42.88-4.03c1.88-0.09,3.02,0.14,3.96,0.28" style="fill:none;stroke:#999;stroke-width:3"></path>
<path d="M825.7,14.18c0.07,1.26,0.18,3.27-0.15,5.08C823.09,32.67,815.51,54.1,799.39,67.9" style="fill:none;stroke:#999;stroke-width:3"></path>
<path d="M809.91,51.75c0.55,0.34,0.88,1.51,0.99,2.18s0,33.87-0.11,38.07" style="fill:none;stroke:#999;stroke-width:3"></path>
<path d="M820.13,59.06c0.96,0.27,2.73,0.37,3.69,0.27c7.43-0.83,16.93-2.58,26.02-3.56c1.59-0.17,2.57,0.13,3.37,0.26" style="fill:none;stroke:#999;stroke-width:3"></path>
<path d="M833.96,39.87c0.15,0.47,2.24,2.45,2.24,5.45c0,19.77,0.19,15.78,0.19,41.64" style="fill:none;stroke:#999;stroke-width:3"></path>

<path d="M889.72,33.75c0,6.61-3.72,16.36-4.69,18.25" style="fill:none;stroke:#999;stroke-width:3"></path>
<path d="M901.27,30.83c2.93,2.32,7.56,9.53,8.29,13.13" style="fill:none;stroke:#999;stroke-width:3"></path>
<path d="M897.36,13.75c1.1,0.51,1.76,2.28,1.98,3.29c0.22,1.01,0,72.13-0.22,78.46" style="fill:none;stroke:#999;stroke-width:3"></path>
<path d="M914.86,30c1.13,0.28,3.21,0.36,4.34,0.28c9.27-0.59,31.29-3.46,42.88-4.03c1.88-0.09,3.02,0.14,3.96,0.28" style="fill:none;stroke:#999;stroke-width:3"></path>
<path d="M934.7,14.18c0.07,1.26,0.18,3.27-0.15,5.08C932.09,32.67,924.51,54.1,908.39,67.9" style="fill:none;stroke:#999;stroke-width:3"></path>
<path d="M918.91,51.75c0.55,0.34,0.88,1.51,0.99,2.18s0,33.87-0.11,38.07" style="fill:none;stroke:#999;stroke-width:3"></path>
<path d="M929.13,59.06c0.96,0.27,2.73,0.37,3.69,0.27c7.43-0.83,16.93-2.58,26.02-3.56c1.59-0.17,2.57,0.13,3.37,0.26" style="fill:none;stroke:#999;stroke-width:3"></path>
<path d="M942.96,39.87c0.15,0.47,2.24,2.45,2.24,5.45c0,19.77,0.19,15.78,0.19,41.64" style="fill:none;stroke:#999;stroke-width:3"></path>
<path d="M926.96,88.51c1.03,0.31,2.91,0.38,3.94,0.31c12.72-0.86,22.14-2.56,33.52-2.96c1.71-0.06,2.74,0.15,3.6,0.3" style="fill:none;stroke:#999;stroke-width:3"></path>

</svg>