<svg width="981px" height="109px" viewBox="0 0 981 109" xmlns="http://www.w3.org/2000/svg" xmlns:xlink="http://www.w3.org/1999/xlink" xml:space="preserve" version="1.1" baseProfile="full">
<line x1="1" y1="1" x2="980" y2="1" style="stroke:#ddd;stroke-width:2"></line>
<line x1="1" y1="1" x2="1" y2="108" style="stroke:#ddd;stroke-width:2"></line>
<line x1="1" y1="108" x2="980" y2="108" style="stroke:#ddd;stroke-width:2"></line>
<line x1="980" y1="1" x2="980" y2="108" style="stroke:#ddd;stroke-width:2"></line>
<line x1="109" y1="1" x2="109" y2="108" style="stroke:#ddd;stroke-width:2"></line>
<line x1="218" y1="1" x2="218" y2="108" style="stroke:#ddd;stroke-width:2"></line>
<line x1="327" y1="1" x2="327" y2="108" style="stroke:#ddd;stroke-width:2"></line>
<line x1="436" y1="1" x2="436" y2="108" style="stroke:#ddd;stroke-width:2"></line>
<line x1="545" y1="1" x2="545" y2="108" style="stroke:#ddd;stroke-width:2"></line>
<line x1="654" y1="1" x2="654" y2="108" style="stroke:#ddd;stroke-width:2"></line>
<line x1="763" y1="1" x2="763" y2="108" style="stroke:#ddd;stroke-width:2"></line>
<line x1="872" y1="1" x2="872" y2="108" style="stroke:#ddd;stroke-width:2"></line>
<line x1="1" y1="54" x2="980" y2="54" style="stroke:#ddd;stroke-width:2;stroke-dasharray:3 3"></line>
<line x1="55" y1="1" x2="55" y2="108" style="stroke:#ddd;stroke-width:2;stroke-dasharray:3 3"></line>
<line x1="164" y1="1" x2="164" y2="108" style="stroke:#ddd;stroke-width:2;stroke-dasharray:3 3"></line>
<line x1="273" y1="1" x2="273" y2="108" style="stroke:#ddd;stroke-width:2;stroke-dasharray:3 3"></line>
<line x1="382" y1="1" x2="382" y2="108" style="stroke:#ddd;stroke-width:2;stroke-dasharray:3 3"></line>
<line x1="491" y1="1" x2="491" y2="108" style="stroke:#ddd;stroke-width:2;stroke-dasharray:3 3"></line>
<line x1="600" y1="1" x2="600" y2="108" style="stroke:#ddd;stroke-width:2;stroke-dasharray:3 3"></line>
<line x1="709" y1="1" x2="709" y2="108" style="stroke:#ddd;stroke-width:2;stroke-dasharray:3 3"></line>
<line x1="818" y1="1" x2="818" y2="108" style="stroke:#ddd;stroke-width:2;stroke-dasharray:3 3"></line>
<line x1="927" y1="1" x2="927" y2="108" style="stroke:#ddd;stroke-width:2;stroke-dasharray:3 3"></line>
<path d="M16.25,40.25c0,6.61-2.97,16.36-3.75,18.25" style="fill:none;stroke:#999;stroke-width:3"></path>

<path d="M125.25,40.25c0,6.61-2.97,16.36-3.75,18.25" style="fill:none;stroke:#999;stroke-width:3"></path>
<path d="M138.02,34.58c2.66,1.74,6.88,7.17,7.54,9.88" style="fill:none;stroke:#999;stroke-width:3"></path>

<path d="M234.25,40.25c0,6.61-2.97,16.36-3.75,18.25" style="fill:none;stroke:#999;stroke-width:3"></path>
<path d="M247.02,34.58c2.66,1.74,6.88,7.17,7.54,9.88" style="fill:none;stroke:#999;stroke-width:3"></path>
<path d="M241.87,15.25c1.09,0.5,1.74,2.25,1.96,3.25c0.22,1,0,70.75-0.22,77" style="fill:none;stroke:#999;stroke-width:3"></path>

<path d="M343.25,40.25c0,6.61-2.97,16.36-3.75,18.25" style="fill:none;stroke:#999;stroke-width:3"></path>
<path d="M356.02,34.58c2.66,1.74,6.88,7.17,7.54,9.88" style="fill:none;stroke:#999;stroke-width:3"></path>
<path d="M350.87,15.25c1.09,0.5,1.74,2.25,1.96,3.25c0.22,1,0,70.75-0.22,77" style="fill:none;stroke:#999;stroke-width:3"></path>
<path d="M363.06,23.41c1.58,0.53,4.38,0.62,5.96,0.53c13.79-0.75,27.87-2.57,43.93-3.5c2.62-0.15,4.21,0.26,5.52,0.52" style="fill:none;stroke:#999;stroke-width:3"></path>

<path d="M452.25,40.25c0,6.61-2.97,16.36-3.75,18.25" style="fill:none;stroke:#999;stroke-width:3"></path>
<path d="M465.02,34.58c2.66,1.74,6.88,7.17,7.54,9.88" style="fill:none;stroke:#999;stroke-width:3"></path>
<path d="M459.87,15.25c1.09,0.5,1.74,2.25,1.96,3.25c0.22,1,0,70.75-0.22,77" style="fill:none;stroke:#999;stroke-width:3"></path>
<path d="M472.06,23.41c1.58,0.53,4.38,0.62,5.96,0.53c13.79-0.75,27.87-2.57,43.93-3.5c2.62-0.15,4.21,0.26,5.52,0.52" style="fill:none;stroke:#999;stroke-width:3"></path>
<path d="M482.98,13c0.47,1.5,0.57,3.44,0.44,6.07C482.44,37.58,482.0,66.75,470.06,86.97" style="fill:none;stroke:#999;stroke-width:3"></path>

<path d="M561.25,40.25c0,6.61-2.97,16.36-3.75,18.25" style="fill:none;stroke:#999;stroke-width:3"></path>
<path d="M574.02,34.58c2.66,1.74,6.88,7.17,7.54,9.88" style="fill:none;stroke:#999;stroke-width:3"></path>
<path d="M568.87,15.25c1.09,0.5,1.74,2.25,1.96,3.25c0.22,1,0,70.75-0.22,77" style="fill:none;stroke:#999;stroke-width:3"></path>
<path d="M581.06,23.41c1.58,0.53,4.38,0.62,5.96,0.53c13.79-0.75,27.87-2.57,43.93-3.5c2.62-0.15,4.21,0.26,5.52,0.52" style="fill:none;stroke:#999;stroke-width:3"></path>
<path d="M591.98,13c0.47,1.5,0.57,3.44,0.44,6.07C591.44,37.58,591.0,66.75,579.06,86.97" style="fill:none;stroke:#999;stroke-width:3"></path>
<path d="M598.9,51.12c1.66,2.53,4.08,9.69,4.54,12.22" style="fill:none;stroke:#999;stroke-width:3"></path>

<path d="M670.25,40.25c0,6.61-2.97,16.36-3.75,18.25" style="fill:none;stroke:#999;stroke-width:3"></path>
<path d="M683.02,34.58c2.66,1.74,6.88,7.17,7.54,9.88" style="fill:none;stroke:#999;stroke-width:3"></path>
<path d="M677.87,15.25c1.09,0.5,1.74,2.25,1.96,3.25c0.22,1,0,70.75-0.22,77" style="fill:none;stroke:#999;stroke-width:3"></path>
<path d="M690.06,23.41c1.58,0.53,4.38,0.62,5.96,0.53c13.79-0.75,27.87-2.57,43.93-3.5c2.62-0.15,4.21,0.26,5.52,0.52" style="fill:none;stroke:#999;stroke-width:3"></path>
<path d="M700.98,13c0.47,1.5,0.57,3.44,0.44,6.07C700.44,37.58,700.0,66.75,688.06,86.97" style="fill:none;stroke:#999;stroke-width:3"></path>
<path d="M707.9,51.12c1.66,2.53,4.08,9.69,4.54,12.22" style="fill:none;stroke:#999;stroke-width:3"></path>
<path d="M741.7,47.29c0.72,0.61,0.52,1.91-0.13,2.85c-0.66,0.94-6.84,7.82-10.11,10.02" style="fill:none;stroke:#999;stroke-width:3"></path>

<path d="M779.25,40.25c0,6.61-2.97,16.36-3.75,18.25" style="fill:none;stroke:#999;stroke-width:3"></path>
<path d="M792.02,34.58c2.66,1.74,6.88,7.17,7.54,9.88" style="fill:none;stroke:#999;stroke-width:3"></path>
<path d="M786.87,15.25c1.09,0.5,1.74,2.25,1.96,3.25c0.22,1,0,70.75-0.22,77" style="fill:none;stroke:#999;stroke-width:3"></path>
<path d="M799.06,23.41c1.58,0.53,4.38,0.62,5.96,0.53c13.79-0.75,27.87-2.57,43.93-3.5c2.62-0.15,4.21,0.26,5.52,0.52" style="fill:none;stroke:#999;stroke-width:3"></path>
<path d="M809.98,13c0.47,1.5,0.57,3.44,0.44,6.07C809.44,37.58,809.0,66.75,797.06,86.97" style="fill:none;stroke:#999;stroke-width:3"></path>
<path d="M816.9,51.12c1.66,2.53,4.08,9.69,4.54,12.22" style="fill:none;stroke:#999;stroke-width:3"></path>
<path d="M850.7,47.29c0.72,0.61,0.52,1.91-0.13,2.85c-0.66,0.94-6.84,7.82-10.11,10.02" style="fill:none;stroke:#999;stroke-width:3"></path>
<path d="M831.51,34.25C832.5,34.83,833.0,38.1,833.0,39.07C833.0,69.25,825.0,83,808.68,92.5" style="fill:none;stroke:#999;stroke-width:3"></path>

<path d="M888.25,40.25c0,6.61-2.97,16.36-3.75,18.25" style="fill:none;stroke:#999;stroke-width:3"></path>
<path d="M901.02,34.58c2.66,1.74,6.88,7.17,7.54,9.88" style="fill:none;stroke:#999;stroke-width:3"></path>
<path d="M895.87,15.25c1.09,0.5,1.74,2.25,1.96,3.25c0.22,1,0,70.75-0.22,77" style="fill:none;stroke:#999;stroke-width:3"></path>
<path d="M908.06,23.41c1.58,0.53,4.38,0.62,5.96,0.53c13.79-0.75,27.87-2.57,43.93-3.5c2.62-0.15,4.21,0.26,5.52,0.52" style="fill:none;stroke:#999;stroke-width:3"></path>
<path d="M918.98,13c0.47,1.5,0.57,3.44,0.44,6.07C918.44,37.58,918.0,66.75,906.06,86.97" style="fill:none;stroke:#999;stroke-width:3"></path>
<path d="M925.9,51.12c1.66,2.53,4.08,9.69,4.54,12.22" style="fill:none;stroke:#999;stroke-width:3"></path>
<path d="M959.7,47.29c0.72,0.61,0.52,1.91-0.13,2.85c-0.66,0.94-6.84,7.82-10.11,10.02" style="fill:none;stroke:#999;stroke-width:3"></path>
<path d="M940.51,34.25C941.5,34.83,942.0,38.1,942.0,39.07C942.0,69.25,934.0,83,917.68,92.5" style="fill:none;stroke:#999;stroke-width:3"></path>
<path d="M940.65,59.87c8.45,12.19,18.69,24.59,24.26,29.67c1.75,1.6,2.16,1.42,3.59,1.83" style="fill:none;stroke:#999;stroke-width:3"></path>

</svg>