<svg width="1090px" height="109px" viewBox="0 0 1090 109" xmlns="http://www.w3.org/2000/svg" xmlns:xlink="http://www.w3.org/1999/xlink" xml:space="preserve" version="1.1" baseProfile="full">
<line x1="1" y1="1" x2="1089" y2="1" style="stroke:#ddd;stroke-width:2"></line>
<line x1="1" y1="1" x2="1" y2="108" style="stroke:#ddd;stroke-width:2"></line>
<line x1="1" y1="108" x2="1089" y2="108" style="stroke:#ddd;stroke-width:2"></line>
<line x1="1089" y1="1" x2="1089" y2="108" style="stroke:#ddd;stroke-width:2"></line>
<line x1="109" y1="1" x2="109" y2="108" style="stroke:#ddd;stroke-width:2"></line>
<line x1="218" y1="1" x2="218" y2="108" style="stroke:#ddd;stroke-width:2"></line>
<line x1="327" y1="1" x2="327" y2="108" style="stroke:#ddd;stroke-width:2"></line>
<line x1="436" y1="1" x2="436" y2="108" style="stroke:#ddd;stroke-width:2"></line>
<line x1="545" y1="1" x2="545" y2="108" style="stroke:#ddd;stroke-width:2"></line>
<line x1="654" y1="1" x2="654" y2="108" style="stroke:#ddd;stroke-width:2"></line>
<line x1="763" y1="1" x2="763" y2="108" style="stroke:#ddd;stroke-width:2"></line>
<line x1="872" y1="1" x2="872" y2="108" style="stroke:#ddd;stroke-width:2"></line>
<line x1="981" y1="1" x2="981" y2="108" style="stroke:#ddd;stroke-width:2"></line>
<line x1="1" y1="54" x2="1089" y2="54" style="stroke:#ddd;stroke-width:2;stroke-dasharray:3 3"></line>
<line x1="55" y1="1" x2="55" y2="108" style="stroke:#ddd;stroke-width:2;stroke-dasharray:3 3"></line>
<line x1="164" y1="1" x2="164" y2="108" style="stroke:#ddd;stroke-width:2;stroke-dasharray:3 3"></line>
<line x1="273" y1="1" x2="273" y2="108" style="stroke:#ddd;stroke-width:2;stroke-dasharray:3 3"></line>
<line x1="382" y1="1" x2="382" y2="108" style="stroke:#ddd;stroke-width:2;stroke-dasharray:3 3"></line>
<line x1="491" y1="1" x2="491" y2="108" style="stroke:#ddd;stroke-width:2;stroke-dasharray:3 3"></line>
<line x1="600" y1="1" x2="600" y2="108" style="stroke:#ddd;stroke-width:2;stroke-dasharray:3 3"></line>
<line x1="709" y1="1" x2="709" y2="108" style="stroke:#ddd;stroke-width:2;stroke-dasharray:3 3"></line>
<line x1="818" y1="1" x2="818" y2="108" style="stroke:#ddd;stroke-width:2;stroke-dasharray:3 3"></line>
<line x1="927" y1="1" x2="927" y2="108" style="stroke:#ddd;stroke-width:2;stroke-dasharray:3 3"></line>
<line x1="1036" y1="1" x2="1036" y2="108" style="stroke:#ddd;stroke-width:2;stroke-dasharray:3 3"></line>
<path d="M16.72,37.5c0.03,4.31-2.47,14.14-4.69,17.5" style="fill:none;stroke:#999;stroke-width:3"></path>

<path d="M125.72,37.5c0.03,4.31-2.47,14.14-4.69,17.5" style="fill:none;stroke:#999;stroke-width:3"></path>
<path d="M141.02,31.58c2.31,1.66,5.96,6.81,6.54,9.38" style="fill:none;stroke:#999;stroke-width:3"></path>

<path d="M234.72,37.5c0.03,4.31-2.47,14.14-4.69,17.5" style="fill:none;stroke:#999;stroke-width:3"></path>
<path d="M250.02,31.58c2.31,1.66,5.96,6.81,6.54,9.38" style="fill:none;stroke:#999;stroke-width:3"></path>
<path d="M241.87,13.75c1.09,0.5,1.74,2.25,1.96,3.25c0.22,1,0,73.75-0.22,80" style="fill:none;stroke:#999;stroke-width:3"></path>

<path d="M343.72,37.5c0.03,4.31-2.47,14.14-4.69,17.5" style="fill:none;stroke:#999;stroke-width:3"></path>
<path d="M359.02,31.58c2.31,1.66,5.96,6.81,6.54,9.38" style="fill:none;stroke:#999;stroke-width:3"></path>
<path d="M350.87,13.75c1.09,0.5,1.74,2.25,1.96,3.25c0.22,1,0,73.75-0.22,80" style="fill:none;stroke:#999;stroke-width:3"></path>
<path d="M373.54,19.1c0.39,0.34,0.79,0.62,0.95,1.04c1.35,3.36,2.96,12.61,3.88,18.64" style="fill:none;stroke:#999;stroke-width:3"></path>

<path d="M452.72,37.5c0.03,4.31-2.47,14.14-4.69,17.5" style="fill:none;stroke:#999;stroke-width:3"></path>
<path d="M468.02,31.58c2.31,1.66,5.96,6.81,6.54,9.38" style="fill:none;stroke:#999;stroke-width:3"></path>
<path d="M459.87,13.75c1.09,0.5,1.74,2.25,1.96,3.25c0.22,1,0,73.75-0.22,80" style="fill:none;stroke:#999;stroke-width:3"></path>
<path d="M482.54,19.1c0.39,0.34,0.79,0.62,0.95,1.04c1.35,3.36,2.96,12.61,3.88,18.64" style="fill:none;stroke:#999;stroke-width:3"></path>
<path d="M484.96,20.88c8.85-1.42,25.41-3.21,29.96-3.65c1.66-0.16,2.66,1.46,2.42,2.4c-0.98,3.92-2.13,8.64-3.6,14.06" style="fill:none;stroke:#999;stroke-width:3"></path>

<path d="M561.72,37.5c0.03,4.31-2.47,14.14-4.69,17.5" style="fill:none;stroke:#999;stroke-width:3"></path>
<path d="M577.02,31.58c2.31,1.66,5.96,6.81,6.54,9.38" style="fill:none;stroke:#999;stroke-width:3"></path>
<path d="M568.87,13.75c1.09,0.5,1.74,2.25,1.96,3.25c0.22,1,0,73.75-0.22,80" style="fill:none;stroke:#999;stroke-width:3"></path>
<path d="M591.54,19.1c0.39,0.34,0.79,0.62,0.95,1.04c1.35,3.36,2.96,12.61,3.88,18.64" style="fill:none;stroke:#999;stroke-width:3"></path>
<path d="M593.96,20.88c8.85-1.42,25.41-3.21,29.96-3.65c1.66-0.16,2.66,1.46,2.42,2.4c-0.98,3.92-2.13,8.64-3.6,14.06" style="fill:none;stroke:#999;stroke-width:3"></path>
<path d="M596.55,37.31c5.34-0.5,20.98-2.36,28.3-3.13" style="fill:none;stroke:#999;stroke-width:3"></path>

<path d="M670.72,37.5c0.03,4.31-2.47,14.14-4.69,17.5" style="fill:none;stroke:#999;stroke-width:3"></path>
<path d="M686.02,31.58c2.31,1.66,5.96,6.81,6.54,9.38" style="fill:none;stroke:#999;stroke-width:3"></path>
<path d="M677.87,13.75c1.09,0.5,1.74,2.25,1.96,3.25c0.22,1,0,73.75-0.22,80" style="fill:none;stroke:#999;stroke-width:3"></path>
<path d="M700.54,19.1c0.39,0.34,0.79,0.62,0.95,1.04c1.35,3.36,2.96,12.61,3.88,18.64" style="fill:none;stroke:#999;stroke-width:3"></path>
<path d="M702.96,20.88c8.85-1.42,25.41-3.21,29.96-3.65c1.66-0.16,2.66,1.46,2.42,2.4c-0.98,3.92-2.13,8.64-3.6,14.06" style="fill:none;stroke:#999;stroke-width:3"></path>
<path d="M705.55,37.31c5.34-0.5,20.98-2.36,28.3-3.13" style="fill:none;stroke:#999;stroke-width:3"></path>
<path d="M698.24,50.58c13.39-2.09,32.76-3.46,41.02-4.21c3.02-0.27,3.72,2.49,3.54,4.17c-0.68,6.37-1.66,13.75-3.02,18.43" style="fill:none;stroke:#999;stroke-width:3"></path>

<path d="M779.72,37.5c0.03,4.31-2.47,14.14-4.69,17.5" style="fill:none;stroke:#999;stroke-width:3"></path>
<path d="M795.02,31.58c2.31,1.66,5.96,6.81,6.54,9.38" style="fill:none;stroke:#999;stroke-width:3"></path>
<path d="M786.87,13.75c1.09,0.5,1.74,2.25,1.96,3.25c0.22,1,0,73.75-0.22,80" style="fill:none;stroke:#999;stroke-width:3"></path>
<path d="M809.54,19.1c0.39,0.34,0.79,0.62,0.95,1.04c1.35,3.36,2.96,12.61,3.88,18.64" style="fill:none;stroke:#999;stroke-width:3"></path>
<path d="M811.96,20.88c8.85-1.42,25.41-3.21,29.96-3.65c1.66-0.16,2.66,1.46,2.42,2.4c-0.98,3.92-2.13,8.64-3.6,14.06" style="fill:none;stroke:#999;stroke-width:3"></path>
<path d="M814.55,37.31c5.34-0.5,20.98-2.36,28.3-3.13" style="fill:none;stroke:#999;stroke-width:3"></path>
<path d="M807.24,50.58c13.39-2.09,32.76-3.46,41.02-4.21c3.02-0.27,3.72,2.49,3.54,4.17c-0.68,6.37-1.66,13.75-3.02,18.43" style="fill:none;stroke:#999;stroke-width:3"></path>
<path d="M826.51,50.05c0.65,0.42,1.3,3.12,1.3,3.98c0,5.29-0.21,10.3-0.21,13.5" style="fill:none;stroke:#999;stroke-width:3"></path>

<path d="M888.72,37.5c0.03,4.31-2.47,14.14-4.69,17.5" style="fill:none;stroke:#999;stroke-width:3"></path>
<path d="M904.02,31.58c2.31,1.66,5.96,6.81,6.54,9.38" style="fill:none;stroke:#999;stroke-width:3"></path>
<path d="M895.87,13.75c1.09,0.5,1.74,2.25,1.96,3.25c0.22,1,0,73.75-0.22,80" style="fill:none;stroke:#999;stroke-width:3"></path>
<path d="M918.54,19.1c0.39,0.34,0.79,0.62,0.95,1.04c1.35,3.36,2.96,12.61,3.88,18.64" style="fill:none;stroke:#999;stroke-width:3"></path>
<path d="M920.96,20.88c8.85-1.42,25.41-3.21,29.96-3.65c1.66-0.16,2.66,1.46,2.42,2.4c-0.98,3.92-2.13,8.64-3.6,14.06" style="fill:none;stroke:#999;stroke-width:3"></path>
<path d="M923.55,37.31c5.34-0.5,20.98-2.36,28.3-3.13" style="fill:none;stroke:#999;stroke-width:3"></path>
<path d="M916.24,50.58c13.39-2.09,32.76-3.46,41.02-4.21c3.02-0.27,3.72,2.49,3.54,4.17c-0.68,6.37-1.66,13.75-3.02,18.43" style="fill:none;stroke:#999;stroke-width:3"></path>
<path d="M935.51,50.05c0.65,0.42,1.3,3.12,1.3,3.98c0,5.29-0.21,10.3-0.21,13.5" style="fill:none;stroke:#999;stroke-width:3"></path>
<path d="M917.34,69.63c4.5-0.47,34.86-2.34,40.01-2.81" style="fill:none;stroke:#999;stroke-width:3"></path>

<path d="M997.72,37.5c0.03,4.31-2.47,14.14-4.69,17.5" style="fill:none;stroke:#999;stroke-width:3"></path>
<path d="M1013.02,31.58c2.31,1.66,5.96,6.81,6.54,9.38" style="fill:none;stroke:#999;stroke-width:3"></path>
<path d="M1004.87,13.75c1.09,0.5,1.74,2.25,1.96,3.25c0.22,1,0,73.75-0.22,80" style="fill:none;stroke:#999;stroke-width:3"></path>
<path d="M1027.54,19.1c0.39,0.34,0.79,0.62,0.95,1.04c1.35,3.36,2.96,12.61,3.88,18.64" style="fill:none;stroke:#999;stroke-width:3"></path>
<path d="M1029.96,20.88c8.85-1.42,25.41-3.21,29.96-3.65c1.66-0.16,2.66,1.46,2.42,2.4c-0.98,3.92-2.13,8.64-3.6,14.06" style="fill:none;stroke:#999;stroke-width:3"></path>
<path d="M1032.55,37.31c5.34-0.5,20.98-2.36,28.3-3.13" style="fill:none;stroke:#999;stroke-width:3"></path>
<path d="M1025.24,50.58c13.39-2.09,32.76-3.46,41.02-4.21c3.02-0.27,3.72,2.49,3.54,4.17c-0.68,6.37-1.66,13.75-3.02,18.43" style="fill:none;stroke:#999;stroke-width:3"></path>
<path d="M1044.51,50.05c0.65,0.42,1.3,3.12,1.3,3.98c0,5.29-0.21,10.3-0.21,13.5" style="fill:none;stroke:#999;stroke-width:3"></path>
<path d="M1026.3400000000001,69.63c4.5-0.47,34.86-2.34,40.01-2.81" style="fill:none;stroke:#999;stroke-width:3"></path>
<path d="M1023.88,47.99c0.71,1.26,1.28,2.75,1.32,4.7c0.19,8.7-0.36,16.08-0.36,21.96c0,20.11,2.16,20.85,27,20.85c29.66,0,23.72-8.81,23.96-12.53" style="fill:none;stroke:#999;stroke-width:3"></path>

</svg>