<svg width="1090px" height="109px" viewBox="0 0 1090 109" xmlns="http://www.w3.org/2000/svg" xmlns:xlink="http://www.w3.org/1999/xlink" xml:space="preserve" version="1.1" baseProfile="full">
<line x1="1" y1="1" x2="1089" y2="1" style="stroke:#ddd;stroke-width:2"></line>
<line x1="1" y1="1" x2="1" y2="108" style="stroke:#ddd;stroke-width:2"></line>
<line x1="1" y1="108" x2="1089" y2="108" style="stroke:#ddd;stroke-width:2"></line>
<line x1="1089" y1="1" x2="1089" y2="108" style="stroke:#ddd;stroke-width:2"></line>
<line x1="109" y1="1" x2="109" y2="108" style="stroke:#ddd;stroke-width:2"></line>
<line x1="218" y1="1" x2="218" y2="108" style="stroke:#ddd;stroke-width:2"></line>
<line x1="327" y1="1" x2="327" y2="108" style="stroke:#ddd;stroke-width:2"></line>
<line x1="436" y1="1" x2="436" y2="108" style="stroke:#ddd;stroke-width:2"></line>
<line x1="545" y1="1" x2="545" y2="108" style="stroke:#ddd;stroke-width:2"></line>
<line x1="654" y1="1" x2="654" y2="108" style="stroke:#ddd;stroke-width:2"></line>
<line x1="763" y1="1" x2="763" y2="108" style="stroke:#ddd;stroke-width:2"></line>
<line x1="872" y1="1" x2="872" y2="108" style="stroke:#ddd;stroke-width:2"></line>
<line x1="981" y1="1" x2="981" y2="108" style="stroke:#ddd;stroke-width:2"></line>
<line x1="1" y1="54" x2="1089" y2="54" style="stroke:#ddd;stroke-width:2;stroke-dasharray:3 3"></line>
<line x1="55" y1="1" x2="55" y2="108" style="stroke:#ddd;stroke-width:2;stroke-dasharray:3 3"></line>
<line x1="164" y1="1" x2="164" y2="108" style="stroke:#ddd;stroke-width:2;stroke-dasharray:3 3"></line>
<line x1="273" y1="1" x2="273" y2="108" style="stroke:#ddd;stroke-width:2;stroke-dasharray:3 3"></line>
<line x1="382" y1="1" x2="382" y2="108" style="stroke:#ddd;stroke-width:2;stroke-dasharray:3 3"></line>
<line x1="491" y1="1" x2="491" y2="108" style="stroke:#ddd;stroke-width:2;stroke-dasharray:3 3"></line>
<line x1="600" y1="1" x2="600" y2="108" style="stroke:#ddd;stroke-width:2;stroke-dasharray:3 3"></line>
<line x1="709" y1="1" x2="709" y2="108" style="stroke:#ddd;stroke-width:2;stroke-dasharray:3 3"></line>
<line x1="818" y1="1" x2="818" y2="108" style="stroke:#ddd;stroke-width:2;stroke-dasharray:3 3"></line>
<line x1="927" y1="1" x2="927" y2="108" style="stroke:#ddd;stroke-width:2;stroke-dasharray:3 3"></line>
<line x1="1036" y1="1" x2="1036" y2="108" style="stroke:#ddd;stroke-width:2;stroke-dasharray:3 3"></line>
<path d="M16.22,41c0.02,4.31-1.68,14.14-3.19,17.5" style="fill:none;stroke:#999;stroke-width:3"></path>

<path d="M125.22,41c0.02,4.31-1.68,14.14-3.19,17.5" style="fill:none;stroke:#999;stroke-width:3"></path>
<path d="M137.77,31.33c2.57,1.88,6.65,7.71,7.29,10.63" style="fill:none;stroke:#999;stroke-width:3"></path>

<path d="M234.22,41c0.02,4.31-1.68,14.14-3.19,17.5" style="fill:none;stroke:#999;stroke-width:3"></path>
<path d="M246.77,31.33c2.57,1.88,6.65,7.71,7.29,10.63" style="fill:none;stroke:#999;stroke-width:3"></path>
<path d="M241.87,12.75c1.09,0.5,1.74,2.25,1.96,3.25c0.22,1,0,74.75-0.22,81" style="fill:none;stroke:#999;stroke-width:3"></path>

<path d="M343.22,41c0.02,4.31-1.68,14.14-3.19,17.5" style="fill:none;stroke:#999;stroke-width:3"></path>
<path d="M355.77,31.33c2.57,1.88,6.65,7.71,7.29,10.63" style="fill:none;stroke:#999;stroke-width:3"></path>
<path d="M350.87,12.75c1.09,0.5,1.74,2.25,1.96,3.25c0.22,1,0,74.75-0.22,81" style="fill:none;stroke:#999;stroke-width:3"></path>
<path d="M386.75,10.65c0.04,0.48,0.09,1.23-0.09,1.91c-1.07,4.03-7.16,16.69-16.06,24.28" style="fill:none;stroke:#999;stroke-width:3"></path>

<path d="M452.22,41c0.02,4.31-1.68,14.14-3.19,17.5" style="fill:none;stroke:#999;stroke-width:3"></path>
<path d="M464.77,31.33c2.57,1.88,6.65,7.71,7.29,10.63" style="fill:none;stroke:#999;stroke-width:3"></path>
<path d="M459.87,12.75c1.09,0.5,1.74,2.25,1.96,3.25c0.22,1,0,74.75-0.22,81" style="fill:none;stroke:#999;stroke-width:3"></path>
<path d="M495.75,10.65c0.04,0.48,0.09,1.23-0.09,1.91c-1.07,4.03-7.16,16.69-16.06,24.28" style="fill:none;stroke:#999;stroke-width:3"></path>
<path d="M493.15999999999997,19.73c5.59-0.48,18.62-2.78,20.67-3.05c1.76-0.23,2.3,2.45,1.57,3.59c-3.09,4.77-5.43,9.83-10.31,17.47" style="fill:none;stroke:#999;stroke-width:3"></path>

<path d="M561.22,41c0.02,4.31-1.68,14.14-3.19,17.5" style="fill:none;stroke:#999;stroke-width:3"></path>
<path d="M573.77,31.33c2.57,1.88,6.65,7.71,7.29,10.63" style="fill:none;stroke:#999;stroke-width:3"></path>
<path d="M568.87,12.75c1.09,0.5,1.74,2.25,1.96,3.25c0.22,1,0,74.75-0.22,81" style="fill:none;stroke:#999;stroke-width:3"></path>
<path d="M604.75,10.65c0.04,0.48,0.09,1.23-0.09,1.91c-1.07,4.03-7.16,16.69-16.06,24.28" style="fill:none;stroke:#999;stroke-width:3"></path>
<path d="M602.16,19.73c5.59-0.48,18.62-2.78,20.67-3.05c1.76-0.23,2.3,2.45,1.57,3.59c-3.09,4.77-5.43,9.83-10.31,17.47" style="fill:none;stroke:#999;stroke-width:3"></path>
<path d="M593.23,40.08c0.39,0.51,0.79,0.93,0.96,1.56c1.35,5.02,2.29,11.11,3.22,20.13" style="fill:none;stroke:#999;stroke-width:3"></path>

<path d="M670.22,41c0.02,4.31-1.68,14.14-3.19,17.5" style="fill:none;stroke:#999;stroke-width:3"></path>
<path d="M682.77,31.33c2.57,1.88,6.65,7.71,7.29,10.63" style="fill:none;stroke:#999;stroke-width:3"></path>
<path d="M677.87,12.75c1.09,0.5,1.74,2.25,1.96,3.25c0.22,1,0,74.75-0.22,81" style="fill:none;stroke:#999;stroke-width:3"></path>
<path d="M713.75,10.65c0.04,0.48,0.09,1.23-0.09,1.91c-1.07,4.03-7.16,16.69-16.06,24.28" style="fill:none;stroke:#999;stroke-width:3"></path>
<path d="M711.16,19.73c5.59-0.48,18.62-2.78,20.67-3.05c1.76-0.23,2.3,2.45,1.57,3.59c-3.09,4.77-5.43,9.83-10.31,17.47" style="fill:none;stroke:#999;stroke-width:3"></path>
<path d="M702.23,40.08c0.39,0.51,0.79,0.93,0.96,1.56c1.35,5.02,2.29,11.11,3.22,20.13" style="fill:none;stroke:#999;stroke-width:3"></path>
<path d="M703.17,41.3c9.83-1.05,35.61-2.95,40.54-3.66c1.81-0.26,3.39,1.62,3.13,3.15c-1.07,6.32-2.09,11.46-3.85,17.65" style="fill:none;stroke:#999;stroke-width:3"></path>

<path d="M779.22,41c0.02,4.31-1.68,14.14-3.19,17.5" style="fill:none;stroke:#999;stroke-width:3"></path>
<path d="M791.77,31.33c2.57,1.88,6.65,7.71,7.29,10.63" style="fill:none;stroke:#999;stroke-width:3"></path>
<path d="M786.87,12.75c1.09,0.5,1.74,2.25,1.96,3.25c0.22,1,0,74.75-0.22,81" style="fill:none;stroke:#999;stroke-width:3"></path>
<path d="M822.75,10.65c0.04,0.48,0.09,1.23-0.09,1.91c-1.07,4.03-7.16,16.69-16.06,24.28" style="fill:none;stroke:#999;stroke-width:3"></path>
<path d="M820.16,19.73c5.59-0.48,18.62-2.78,20.67-3.05c1.76-0.23,2.3,2.45,1.57,3.59c-3.09,4.77-5.43,9.83-10.31,17.47" style="fill:none;stroke:#999;stroke-width:3"></path>
<path d="M811.23,40.08c0.39,0.51,0.79,0.93,0.96,1.56c1.35,5.02,2.29,11.11,3.22,20.13" style="fill:none;stroke:#999;stroke-width:3"></path>
<path d="M812.17,41.3c9.83-1.05,35.61-2.95,40.54-3.66c1.81-0.26,3.39,1.62,3.13,3.15c-1.07,6.32-2.09,11.46-3.85,17.65" style="fill:none;stroke:#999;stroke-width:3"></path>
<path d="M816.18,59.61c3.87-0.54,30.68-2.07,34.94-2.34" style="fill:none;stroke:#999;stroke-width:3"></path>

<path d="M888.22,41c0.02,4.31-1.68,14.14-3.19,17.5" style="fill:none;stroke:#999;stroke-width:3"></path>
<path d="M900.77,31.33c2.57,1.88,6.65,7.71,7.29,10.63" style="fill:none;stroke:#999;stroke-width:3"></path>
<path d="M895.87,12.75c1.09,0.5,1.74,2.25,1.96,3.25c0.22,1,0,74.75-0.22,81" style="fill:none;stroke:#999;stroke-width:3"></path>
<path d="M931.75,10.65c0.04,0.48,0.09,1.23-0.09,1.91c-1.07,4.03-7.16,16.69-16.06,24.28" style="fill:none;stroke:#999;stroke-width:3"></path>
<path d="M929.16,19.73c5.59-0.48,18.62-2.78,20.67-3.05c1.76-0.23,2.3,2.45,1.57,3.59c-3.09,4.77-5.43,9.83-10.31,17.47" style="fill:none;stroke:#999;stroke-width:3"></path>
<path d="M920.23,40.08c0.39,0.51,0.79,0.93,0.96,1.56c1.35,5.02,2.29,11.11,3.22,20.13" style="fill:none;stroke:#999;stroke-width:3"></path>
<path d="M921.17,41.3c9.83-1.05,35.61-2.95,40.54-3.66c1.81-0.26,3.39,1.62,3.13,3.15c-1.07,6.32-2.09,11.46-3.85,17.65" style="fill:none;stroke:#999;stroke-width:3"></path>
<path d="M925.18,59.61c3.87-0.54,30.68-2.07,34.94-2.34" style="fill:none;stroke:#999;stroke-width:3"></path>
<path d="M940.77,42.66c0.48,1.09,0.66,2.76,0.32,4.59C938.5,61,928.75,87.75,910.92,97.42" style="fill:none;stroke:#999;stroke-width:3"></path>

<path d="M997.22,41c0.02,4.31-1.68,14.14-3.19,17.5" style="fill:none;stroke:#999;stroke-width:3"></path>
<path d="M1009.77,31.33c2.57,1.88,6.65,7.71,7.29,10.63" style="fill:none;stroke:#999;stroke-width:3"></path>
<path d="M1004.87,12.75c1.09,0.5,1.74,2.25,1.96,3.25c0.22,1,0,74.75-0.22,81" style="fill:none;stroke:#999;stroke-width:3"></path>
<path d="M1040.75,10.65c0.04,0.48,0.09,1.23-0.09,1.91c-1.07,4.03-7.16,16.69-16.06,24.28" style="fill:none;stroke:#999;stroke-width:3"></path>
<path d="M1038.1599999999999,19.73c5.59-0.48,18.62-2.78,20.67-3.05c1.76-0.23,2.3,2.45,1.57,3.59c-3.09,4.77-5.43,9.83-10.31,17.47" style="fill:none;stroke:#999;stroke-width:3"></path>
<path d="M1029.23,40.08c0.39,0.51,0.79,0.93,0.96,1.56c1.35,5.02,2.29,11.11,3.22,20.13" style="fill:none;stroke:#999;stroke-width:3"></path>
<path d="M1030.17,41.3c9.83-1.05,35.61-2.95,40.54-3.66c1.81-0.26,3.39,1.62,3.13,3.15c-1.07,6.32-2.09,11.46-3.85,17.65" style="fill:none;stroke:#999;stroke-width:3"></path>
<path d="M1034.1799999999998,59.61c3.87-0.54,30.68-2.07,34.94-2.34" style="fill:none;stroke:#999;stroke-width:3"></path>
<path d="M1049.77,42.66c0.48,1.09,0.66,2.76,0.32,4.59C1047.5,61,1037.75,87.75,1019.92,97.42" style="fill:none;stroke:#999;stroke-width:3"></path>
<path d="M1052.33,64.15c0.92,0.6,1.35,2.32,1.38,3.96c0.13,7.33-0.34,12.66-0.34,17.64c0,11.64,5.67,10.77,11.25,10.77c5.89,0,9.76-1.5,10.59-2.35c1.75-1.79,1.27-2.69,1.43-5.82" style="fill:none;stroke:#999;stroke-width:3"></path>

</svg>