<svg width="1199px" height="109px" viewBox="0 0 1199 109" xmlns="http://www.w3.org/2000/svg" xmlns:xlink="http://www.w3.org/1999/xlink" xml:space="preserve" version="1.1" baseProfile="full">
<line x1="1" y1="1" x2="1198" y2="1" style="stroke:#ddd;stroke-width:2"></line>
<line x1="1" y1="1" x2="1" y2="108" style="stroke:#ddd;stroke-width:2"></line>
<line x1="1" y1="108" x2="1198" y2="108" style="stroke:#ddd;stroke-width:2"></line>
<line x1="1198" y1="1" x2="1198" y2="108" style="stroke:#ddd;stroke-width:2"></line>
<line x1="109" y1="1" x2="109" y2="108" style="stroke:#ddd;stroke-width:2"></line>
<line x1="218" y1="1" x2="218" y2="108" style="stroke:#ddd;stroke-width:2"></line>
<line x1="327" y1="1" x2="327" y2="108" style="stroke:#ddd;stroke-width:2"></line>
<line x1="436" y1="1" x2="436" y2="108" style="stroke:#ddd;stroke-width:2"></line>
<line x1="545" y1="1" x2="545" y2="108" style="stroke:#ddd;stroke-width:2"></line>
<line x1="654" y1="1" x2="654" y2="108" style="stroke:#ddd;stroke-width:2"></line>
<line x1="763" y1="1" x2="763" y2="108" style="stroke:#ddd;stroke-width:2"></line>
<line x1="872" y1="1" x2="872" y2="108" style="stroke:#ddd;stroke-width:2"></line>
<line x1="981" y1="1" x2="981" y2="108" style="stroke:#ddd;stroke-width:2"></line>
<line x1="1090" y1="1" x2="1090" y2="108" style="stroke:#ddd;stroke-width:2"></line>
<line x1="1" y1="54" x2="1198" y2="54" style="stroke:#ddd;stroke-width:2;stroke-dasharray:3 3"></line>
<line x1="55" y1="1" x2="55" y2="108" style="stroke:#ddd;stroke-width:2;stroke-dasharray:3 3"></line>
<line x1="164" y1="1" x2="164" y2="108" style="stroke:#ddd;stroke-width:2;stroke-dasharray:3 3"></line>
<line x1="273" y1="1" x2="273" y2="108" style="stroke:#ddd;stroke-width:2;stroke-dasharray:3 3"></line>
<line x1="382" y1="1" x2="382" y2="108" style="stroke:#ddd;stroke-width:2;stroke-dasharray:3 3"></line>
<line x1="491" y1="1" x2="491" y2="108" style="stroke:#ddd;stroke-width:2;stroke-dasharray:3 3"></line>
<line x1="600" y1="1" x2="600" y2="108" style="stroke:#ddd;stroke-width:2;stroke-dasharray:3 3"></line>
<line x1="709" y1="1" x2="709" y2="108" style="stroke:#ddd;stroke-width:2;stroke-dasharray:3 3"></line>
<line x1="818" y1="1" x2="818" y2="108" style="stroke:#ddd;stroke-width:2;stroke-dasharray:3 3"></line>
<line x1="927" y1="1" x2="927" y2="108" style="stroke:#ddd;stroke-width:2;stroke-dasharray:3 3"></line>
<line x1="1036" y1="1" x2="1036" y2="108" style="stroke:#ddd;stroke-width:2;stroke-dasharray:3 3"></line>
<line x1="1145" y1="1" x2="1145" y2="108" style="stroke:#ddd;stroke-width:2;stroke-dasharray:3 3"></line>
<path d="M16.73,38c-0.61,7-2.98,14.5-4.72,17.25" style="fill:none;stroke:#999;stroke-width:3"></path>

<path d="M125.73,38c-0.61,7-2.98,14.5-4.72,17.25" style="fill:none;stroke:#999;stroke-width:3"></path>
<path d="M141.02,31.58c2.49,1.79,6.42,7.35,7.04,10.13" style="fill:none;stroke:#999;stroke-width:3"></path>

<path d="M234.73000000000002,38c-0.61,7-2.98,14.5-4.72,17.25" style="fill:none;stroke:#999;stroke-width:3"></path>
<path d="M250.02,31.58c2.49,1.79,6.42,7.35,7.04,10.13" style="fill:none;stroke:#999;stroke-width:3"></path>
<path d="M242.62,14.25c1.13,1.13,1.21,2.38,1.21,3.75c0,0.86,0.02,47.66,0.03,69.12c0,4.18,0,7.39,0,9.12" style="fill:none;stroke:#999;stroke-width:3"></path>

<path d="M343.73,38c-0.61,7-2.98,14.5-4.72,17.25" style="fill:none;stroke:#999;stroke-width:3"></path>
<path d="M359.02,31.58c2.49,1.79,6.42,7.35,7.04,10.13" style="fill:none;stroke:#999;stroke-width:3"></path>
<path d="M351.62,14.25c1.13,1.13,1.21,2.38,1.21,3.75c0,0.86,0.02,47.66,0.03,69.12c0,4.18,0,7.39,0,9.12" style="fill:none;stroke:#999;stroke-width:3"></path>
<path d="M392.05,8.75c1.23,1.23,1.43,2.38,1.43,4.15c0,1.35-0.11,4.1-0.11,5.97" style="fill:none;stroke:#999;stroke-width:3"></path>

<path d="M452.73,38c-0.61,7-2.98,14.5-4.72,17.25" style="fill:none;stroke:#999;stroke-width:3"></path>
<path d="M468.02,31.58c2.49,1.79,6.42,7.35,7.04,10.13" style="fill:none;stroke:#999;stroke-width:3"></path>
<path d="M460.62,14.25c1.13,1.13,1.21,2.38,1.21,3.75c0,0.86,0.02,47.66,0.03,69.12c0,4.18,0,7.39,0,9.12" style="fill:none;stroke:#999;stroke-width:3"></path>
<path d="M501.05,8.75c1.23,1.23,1.43,2.38,1.43,4.15c0,1.35-0.11,4.1-0.11,5.97" style="fill:none;stroke:#999;stroke-width:3"></path>
<path d="M479.13,21.33c3,0.54,5.73,0.37,8.87,0.03c8.94-0.97,22.68-2.52,33.64-3.2c2.49-0.15,5.5-0.26,7.87,0.62" style="fill:none;stroke:#999;stroke-width:3"></path>

<path d="M561.73,38c-0.61,7-2.98,14.5-4.72,17.25" style="fill:none;stroke:#999;stroke-width:3"></path>
<path d="M577.02,31.58c2.49,1.79,6.42,7.35,7.04,10.13" style="fill:none;stroke:#999;stroke-width:3"></path>
<path d="M569.62,14.25c1.13,1.13,1.21,2.38,1.21,3.75c0,0.86,0.02,47.66,0.03,69.12c0,4.18,0,7.39,0,9.12" style="fill:none;stroke:#999;stroke-width:3"></path>
<path d="M610.05,8.75c1.23,1.23,1.43,2.38,1.43,4.15c0,1.35-0.11,4.1-0.11,5.97" style="fill:none;stroke:#999;stroke-width:3"></path>
<path d="M588.13,21.33c3,0.54,5.73,0.37,8.87,0.03c8.94-0.97,22.68-2.52,33.64-3.2c2.49-0.15,5.5-0.26,7.87,0.62" style="fill:none;stroke:#999;stroke-width:3"></path>
<path d="M595.98,29.65c0.73,0.46,1.16,1.13,1.29,2c0.69,3.08,1.26,5.93,1.78,8.71c0.21,1.14,0.42,2.28,0.62,3.41" style="fill:none;stroke:#999;stroke-width:3"></path>

<path d="M670.73,38c-0.61,7-2.98,14.5-4.72,17.25" style="fill:none;stroke:#999;stroke-width:3"></path>
<path d="M686.02,31.58c2.49,1.79,6.42,7.35,7.04,10.13" style="fill:none;stroke:#999;stroke-width:3"></path>
<path d="M678.62,14.25c1.13,1.13,1.21,2.38,1.21,3.75c0,0.86,0.02,47.66,0.03,69.12c0,4.18,0,7.39,0,9.12" style="fill:none;stroke:#999;stroke-width:3"></path>
<path d="M719.05,8.75c1.23,1.23,1.43,2.38,1.43,4.15c0,1.35-0.11,4.1-0.11,5.97" style="fill:none;stroke:#999;stroke-width:3"></path>
<path d="M697.13,21.33c3,0.54,5.73,0.37,8.87,0.03c8.94-0.97,22.68-2.52,33.64-3.2c2.49-0.15,5.5-0.26,7.87,0.62" style="fill:none;stroke:#999;stroke-width:3"></path>
<path d="M704.98,29.65c0.73,0.46,1.16,1.13,1.29,2c0.69,3.08,1.26,5.93,1.78,8.71c0.21,1.14,0.42,2.28,0.62,3.41" style="fill:none;stroke:#999;stroke-width:3"></path>
<path d="M706.58,30.77c7.15-0.91,19.49-2.19,25.42-2.75c2.91-0.27,5.04-0.07,4.09,3.38c-0.63,2.29-1.34,4.1-2.71,7.83" style="fill:none;stroke:#999;stroke-width:3"></path>

<path d="M779.73,38c-0.61,7-2.98,14.5-4.72,17.25" style="fill:none;stroke:#999;stroke-width:3"></path>
<path d="M795.02,31.58c2.49,1.79,6.42,7.35,7.04,10.13" style="fill:none;stroke:#999;stroke-width:3"></path>
<path d="M787.62,14.25c1.13,1.13,1.21,2.38,1.21,3.75c0,0.86,0.02,47.66,0.03,69.12c0,4.18,0,7.39,0,9.12" style="fill:none;stroke:#999;stroke-width:3"></path>
<path d="M828.05,8.75c1.23,1.23,1.43,2.38,1.43,4.15c0,1.35-0.11,4.1-0.11,5.97" style="fill:none;stroke:#999;stroke-width:3"></path>
<path d="M806.13,21.33c3,0.54,5.73,0.37,8.87,0.03c8.94-0.97,22.68-2.52,33.64-3.2c2.49-0.15,5.5-0.26,7.87,0.62" style="fill:none;stroke:#999;stroke-width:3"></path>
<path d="M813.98,29.65c0.73,0.46,1.16,1.13,1.29,2c0.69,3.08,1.26,5.93,1.78,8.71c0.21,1.14,0.42,2.28,0.62,3.41" style="fill:none;stroke:#999;stroke-width:3"></path>
<path d="M815.58,30.77c7.15-0.91,19.49-2.19,25.42-2.75c2.91-0.27,5.04-0.07,4.09,3.38c-0.63,2.29-1.34,4.1-2.71,7.83" style="fill:none;stroke:#999;stroke-width:3"></path>
<path d="M818.51,42.11c3.84-0.33,14.02-1.21,21.12-1.76c1.84-0.14,3.48-0.27,4.74-0.35" style="fill:none;stroke:#999;stroke-width:3"></path>

<path d="M888.73,38c-0.61,7-2.98,14.5-4.72,17.25" style="fill:none;stroke:#999;stroke-width:3"></path>
<path d="M904.02,31.58c2.49,1.79,6.42,7.35,7.04,10.13" style="fill:none;stroke:#999;stroke-width:3"></path>
<path d="M896.62,14.25c1.13,1.13,1.21,2.38,1.21,3.75c0,0.86,0.02,47.66,0.03,69.12c0,4.18,0,7.39,0,9.12" style="fill:none;stroke:#999;stroke-width:3"></path>
<path d="M937.05,8.75c1.23,1.23,1.43,2.38,1.43,4.15c0,1.35-0.11,4.1-0.11,5.97" style="fill:none;stroke:#999;stroke-width:3"></path>
<path d="M915.13,21.33c3,0.54,5.73,0.37,8.87,0.03c8.94-0.97,22.68-2.52,33.64-3.2c2.49-0.15,5.5-0.26,7.87,0.62" style="fill:none;stroke:#999;stroke-width:3"></path>
<path d="M922.98,29.65c0.73,0.46,1.16,1.13,1.29,2c0.69,3.08,1.26,5.93,1.78,8.71c0.21,1.14,0.42,2.28,0.62,3.41" style="fill:none;stroke:#999;stroke-width:3"></path>
<path d="M924.58,30.77c7.15-0.91,19.49-2.19,25.42-2.75c2.91-0.27,5.04-0.07,4.09,3.38c-0.63,2.29-1.34,4.1-2.71,7.83" style="fill:none;stroke:#999;stroke-width:3"></path>
<path d="M927.51,42.11c3.84-0.33,14.02-1.21,21.12-1.76c1.84-0.14,3.48-0.27,4.74-0.35" style="fill:none;stroke:#999;stroke-width:3"></path>
<path d="M920.36,51.18c2.42,0.76,4.75,1.03,7.26,0.69c5.69-0.78,18.71-2.27,23.26-2.71c2.67-0.26,3.97,1.22,1.16,3.15c-5.17,3.57-9.05,5.95-16.17,10.45" style="fill:none;stroke:#999;stroke-width:3"></path>

<path d="M997.73,38c-0.61,7-2.98,14.5-4.72,17.25" style="fill:none;stroke:#999;stroke-width:3"></path>
<path d="M1013.02,31.58c2.49,1.79,6.42,7.35,7.04,10.13" style="fill:none;stroke:#999;stroke-width:3"></path>
<path d="M1005.62,14.25c1.13,1.13,1.21,2.38,1.21,3.75c0,0.86,0.02,47.66,0.03,69.12c0,4.18,0,7.39,0,9.12" style="fill:none;stroke:#999;stroke-width:3"></path>
<path d="M1046.05,8.75c1.23,1.23,1.43,2.38,1.43,4.15c0,1.35-0.11,4.1-0.11,5.97" style="fill:none;stroke:#999;stroke-width:3"></path>
<path d="M1024.13,21.33c3,0.54,5.73,0.37,8.87,0.03c8.94-0.97,22.68-2.52,33.64-3.2c2.49-0.15,5.5-0.26,7.87,0.62" style="fill:none;stroke:#999;stroke-width:3"></path>
<path d="M1031.98,29.65c0.73,0.46,1.16,1.13,1.29,2c0.69,3.08,1.26,5.93,1.78,8.71c0.21,1.14,0.42,2.28,0.62,3.41" style="fill:none;stroke:#999;stroke-width:3"></path>
<path d="M1033.58,30.77c7.15-0.91,19.49-2.19,25.42-2.75c2.91-0.27,5.04-0.07,4.09,3.38c-0.63,2.29-1.34,4.1-2.71,7.83" style="fill:none;stroke:#999;stroke-width:3"></path>
<path d="M1036.51,42.11c3.84-0.33,14.02-1.21,21.12-1.76c1.84-0.14,3.48-0.27,4.74-0.35" style="fill:none;stroke:#999;stroke-width:3"></path>
<path d="M1029.3600000000001,51.18c2.42,0.76,4.75,1.03,7.26,0.69c5.69-0.78,18.71-2.27,23.26-2.71c2.67-0.26,3.97,1.22,1.16,3.15c-5.17,3.57-9.05,5.95-16.17,10.45" style="fill:none;stroke:#999;stroke-width:3"></path>
<path d="M1043.88,62.62C1051.5,66.12,1055.12,82,1051.0,95.22c-2.3,7.37-5.92,1.52-7.32,0.01" style="fill:none;stroke:#999;stroke-width:3"></path>

<path d="M1106.73,38c-0.61,7-2.98,14.5-4.72,17.25" style="fill:none;stroke:#999;stroke-width:3"></path>
<path d="M1122.02,31.58c2.49,1.79,6.42,7.35,7.04,10.13" style="fill:none;stroke:#999;stroke-width:3"></path>
<path d="M1114.62,14.25c1.13,1.13,1.21,2.38,1.21,3.75c0,0.86,0.02,47.66,0.03,69.12c0,4.18,0,7.39,0,9.12" style="fill:none;stroke:#999;stroke-width:3"></path>
<path d="M1155.05,8.75c1.23,1.23,1.43,2.38,1.43,4.15c0,1.35-0.11,4.1-0.11,5.97" style="fill:none;stroke:#999;stroke-width:3"></path>
<path d="M1133.13,21.33c3,0.54,5.73,0.37,8.87,0.03c8.94-0.97,22.68-2.52,33.64-3.2c2.49-0.15,5.5-0.26,7.87,0.62" style="fill:none;stroke:#999;stroke-width:3"></path>
<path d="M1140.98,29.65c0.73,0.46,1.16,1.13,1.29,2c0.69,3.08,1.26,5.93,1.78,8.71c0.21,1.14,0.42,2.28,0.62,3.41" style="fill:none;stroke:#999;stroke-width:3"></path>
<path d="M1142.58,30.77c7.15-0.91,19.49-2.19,25.42-2.75c2.91-0.27,5.04-0.07,4.09,3.38c-0.63,2.29-1.34,4.1-2.71,7.83" style="fill:none;stroke:#999;stroke-width:3"></path>
<path d="M1145.51,42.11c3.84-0.33,14.02-1.21,21.12-1.76c1.84-0.14,3.48-0.27,4.74-0.35" style="fill:none;stroke:#999;stroke-width:3"></path>
<path d="M1138.3600000000001,51.18c2.42,0.76,4.75,1.03,7.26,0.69c5.69-0.78,18.71-2.27,23.26-2.71c2.67-0.26,3.97,1.22,1.16,3.15c-5.17,3.57-9.05,5.95-16.17,10.45" style="fill:none;stroke:#999;stroke-width:3"></path>
<path d="M1152.88,62.62C1160.5,66.12,1164.12,82,1160.0,95.22c-2.3,7.37-5.92,1.52-7.32,0.01" style="fill:none;stroke:#999;stroke-width:3"></path>
<path d="M1128.89,71.8c3.24,0.95,6.62,0.6,9.49,0.26c10.66-1.26,30.8-3.34,41-3.91c2.8-0.16,5.97-0.28,8.62,0.86" style="fill:none;stroke:#999;stroke-width:3"></path>

</svg>