<svg width="1199px" height="109px" viewBox="0 0 1199 109" xmlns="http://www.w3.org/2000/svg" xmlns:xlink="http://www.w3.org/1999/xlink" xml:space="preserve" version="1.1" baseProfile="full">
<line x1="1" y1="1" x2="1198" y2="1" style="stroke:#ddd;stroke-width:2"></line>
<line x1="1" y1="1" x2="1" y2="108" style="stroke:#ddd;stroke-width:2"></line>
<line x1="1" y1="108" x2="1198" y2="108" style="stroke:#ddd;stroke-width:2"></line>
<line x1="1198" y1="1" x2="1198" y2="108" style="stroke:#ddd;stroke-width:2"></line>
<line x1="109" y1="1" x2="109" y2="108" style="stroke:#ddd;stroke-width:2"></line>
<line x1="218" y1="1" x2="218" y2="108" style="stroke:#ddd;stroke-width:2"></line>
<line x1="327" y1="1" x2="327" y2="108" style="stroke:#ddd;stroke-width:2"></line>
<line x1="436" y1="1" x2="436" y2="108" style="stroke:#ddd;stroke-width:2"></line>
<line x1="545" y1="1" x2="545" y2="108" style="stroke:#ddd;stroke-width:2"></line>
<line x1="654" y1="1" x2="654" y2="108" style="stroke:#ddd;stroke-width:2"></line>
<line x1="763" y1="1" x2="763" y2="108" style="stroke:#ddd;stroke-width:2"></line>
<line x1="872" y1="1" x2="872" y2="108" style="stroke:#ddd;stroke-width:2"></line>
<line x1="981" y1="1" x2="981" y2="108" style="stroke:#ddd;stroke-width:2"></line>
<line x1="1090" y1="1" x2="1090" y2="108" style="stroke:#ddd;stroke-width:2"></line>
<line x1="1" y1="54" x2="1198" y2="54" style="stroke:#ddd;stroke-width:2;stroke-dasharray:3 3"></line>
<line x1="55" y1="1" x2="55" y2="108" style="stroke:#ddd;stroke-width:2;stroke-dasharray:3 3"></line>
<line x1="164" y1="1" x2="164" y2="108" style="stroke:#ddd;stroke-width:2;stroke-dasharray:3 3"></line>
<line x1="273" y1="1" x2="273" y2="108" style="stroke:#ddd;stroke-width:2;stroke-dasharray:3 3"></line>
<line x1="382" y1="1" x2="382" y2="108" style="stroke:#ddd;stroke-width:2;stroke-dasharray:3 3"></line>
<line x1="491" y1="1" x2="491" y2="108" style="stroke:#ddd;stroke-width:2;stroke-dasharray:3 3"></line>
<line x1="600" y1="1" x2="600" y2="108" style="stroke:#ddd;stroke-width:2;stroke-dasharray:3 3"></line>
<line x1="709" y1="1" x2="709" y2="108" style="stroke:#ddd;stroke-width:2;stroke-dasharray:3 3"></line>
<line x1="818" y1="1" x2="818" y2="108" style="stroke:#ddd;stroke-width:2;stroke-dasharray:3 3"></line>
<line x1="927" y1="1" x2="927" y2="108" style="stroke:#ddd;stroke-width:2;stroke-dasharray:3 3"></line>
<line x1="1036" y1="1" x2="1036" y2="108" style="stroke:#ddd;stroke-width:2;stroke-dasharray:3 3"></line>
<line x1="1145" y1="1" x2="1145" y2="108" style="stroke:#ddd;stroke-width:2;stroke-dasharray:3 3"></line>
<path d="M16.47,36c0.03,4.31-2.07,14.14-3.94,17.5" style="fill:none;stroke:#999;stroke-width:3"></path>

<path d="M125.47,36c0.03,4.31-2.07,14.14-3.94,17.5" style="fill:none;stroke:#999;stroke-width:3"></path>
<path d="M140.02,33.33c1.96,2.32,5.05,9.53,5.54,13.13" style="fill:none;stroke:#999;stroke-width:3"></path>

<path d="M234.47,36c0.03,4.31-2.07,14.14-3.94,17.5" style="fill:none;stroke:#999;stroke-width:3"></path>
<path d="M249.02,33.33c1.96,2.32,5.05,9.53,5.54,13.13" style="fill:none;stroke:#999;stroke-width:3"></path>
<path d="M240.37,13.75c1.09,0.5,1.74,2.25,1.96,3.25c0.22,1,0,73.75-0.22,80" style="fill:none;stroke:#999;stroke-width:3"></path>

<path d="M343.47,36c0.03,4.31-2.07,14.14-3.94,17.5" style="fill:none;stroke:#999;stroke-width:3"></path>
<path d="M358.02,33.33c1.96,2.32,5.05,9.53,5.54,13.13" style="fill:none;stroke:#999;stroke-width:3"></path>
<path d="M349.37,13.75c1.09,0.5,1.74,2.25,1.96,3.25c0.22,1,0,73.75-0.22,80" style="fill:none;stroke:#999;stroke-width:3"></path>
<path d="M369.24,17.53c0.71,1.26,1.19,3.29,0.95,5.57c-0.24,2.28,0.24,69.35,0.24,73.15" style="fill:none;stroke:#999;stroke-width:3"></path>

<path d="M452.47,36c0.03,4.31-2.07,14.14-3.94,17.5" style="fill:none;stroke:#999;stroke-width:3"></path>
<path d="M467.02,33.33c1.96,2.32,5.05,9.53,5.54,13.13" style="fill:none;stroke:#999;stroke-width:3"></path>
<path d="M458.37,13.75c1.09,0.5,1.74,2.25,1.96,3.25c0.22,1,0,73.75-0.22,80" style="fill:none;stroke:#999;stroke-width:3"></path>
<path d="M478.24,17.53c0.71,1.26,1.19,3.29,0.95,5.57c-0.24,2.28,0.24,69.35,0.24,73.15" style="fill:none;stroke:#999;stroke-width:3"></path>
<path d="M479.23,19.56c6.89-1.01,43.61-5.06,44.99-5.06c1.99,0,3.26,0.76,3.26,3.04c0,4.81-0.18,64.4-0.18,70.23c0,15.74-6.62,4.51-8.48,2.1" style="fill:none;stroke:#999;stroke-width:3"></path>

<path d="M561.47,36c0.03,4.31-2.07,14.14-3.94,17.5" style="fill:none;stroke:#999;stroke-width:3"></path>
<path d="M576.02,33.33c1.96,2.32,5.05,9.53,5.54,13.13" style="fill:none;stroke:#999;stroke-width:3"></path>
<path d="M567.37,13.75c1.09,0.5,1.74,2.25,1.96,3.25c0.22,1,0,73.75-0.22,80" style="fill:none;stroke:#999;stroke-width:3"></path>
<path d="M587.24,17.53c0.71,1.26,1.19,3.29,0.95,5.57c-0.24,2.28,0.24,69.35,0.24,73.15" style="fill:none;stroke:#999;stroke-width:3"></path>
<path d="M588.23,19.56c6.89-1.01,43.61-5.06,44.99-5.06c1.99,0,3.26,0.76,3.26,3.04c0,4.81-0.18,64.4-0.18,70.23c0,15.74-6.62,4.51-8.48,2.1" style="fill:none;stroke:#999;stroke-width:3"></path>
<path d="M600.19,24.67c2.04,1.66,5.26,6.85,5.77,9.44" style="fill:none;stroke:#999;stroke-width:3"></path>

<path d="M670.47,36c0.03,4.31-2.07,14.14-3.94,17.5" style="fill:none;stroke:#999;stroke-width:3"></path>
<path d="M685.02,33.33c1.96,2.32,5.05,9.53,5.54,13.13" style="fill:none;stroke:#999;stroke-width:3"></path>
<path d="M676.37,13.75c1.09,0.5,1.74,2.25,1.96,3.25c0.22,1,0,73.75-0.22,80" style="fill:none;stroke:#999;stroke-width:3"></path>
<path d="M696.24,17.53c0.71,1.26,1.19,3.29,0.95,5.57c-0.24,2.28,0.24,69.35,0.24,73.15" style="fill:none;stroke:#999;stroke-width:3"></path>
<path d="M697.23,19.56c6.89-1.01,43.61-5.06,44.99-5.06c1.99,0,3.26,0.76,3.26,3.04c0,4.81-0.18,64.4-0.18,70.23c0,15.74-6.62,4.51-8.48,2.1" style="fill:none;stroke:#999;stroke-width:3"></path>
<path d="M709.19,24.67c2.04,1.66,5.26,6.85,5.77,9.44" style="fill:none;stroke:#999;stroke-width:3"></path>
<path d="M732.8199999999999,20.97c0.02,0.35,0.13,0.93-0.04,1.42c-1.28,3.61-3.21,9.54-6.96,13.55" style="fill:none;stroke:#999;stroke-width:3"></path>

<path d="M779.47,36c0.03,4.31-2.07,14.14-3.94,17.5" style="fill:none;stroke:#999;stroke-width:3"></path>
<path d="M794.02,33.33c1.96,2.32,5.05,9.53,5.54,13.13" style="fill:none;stroke:#999;stroke-width:3"></path>
<path d="M785.37,13.75c1.09,0.5,1.74,2.25,1.96,3.25c0.22,1,0,73.75-0.22,80" style="fill:none;stroke:#999;stroke-width:3"></path>
<path d="M805.24,17.53c0.71,1.26,1.19,3.29,0.95,5.57c-0.24,2.28,0.24,69.35,0.24,73.15" style="fill:none;stroke:#999;stroke-width:3"></path>
<path d="M806.23,19.56c6.89-1.01,43.61-5.06,44.99-5.06c1.99,0,3.26,0.76,3.26,3.04c0,4.81-0.18,64.4-0.18,70.23c0,15.74-6.62,4.51-8.48,2.1" style="fill:none;stroke:#999;stroke-width:3"></path>
<path d="M818.19,24.67c2.04,1.66,5.26,6.85,5.77,9.44" style="fill:none;stroke:#999;stroke-width:3"></path>
<path d="M841.8199999999999,20.97c0.02,0.35,0.13,0.93-0.04,1.42c-1.28,3.61-3.21,9.54-6.96,13.55" style="fill:none;stroke:#999;stroke-width:3"></path>
<path d="M812.82,40.19c1.55,0.26,3.28,0.36,4.32,0.26c8.14-0.83,19.22-3.16,27.85-3.85c1.47-0.12,2.71,0.34,3.62,0.3" style="fill:none;stroke:#999;stroke-width:3"></path>

<path d="M888.47,36c0.03,4.31-2.07,14.14-3.94,17.5" style="fill:none;stroke:#999;stroke-width:3"></path>
<path d="M903.02,33.33c1.96,2.32,5.05,9.53,5.54,13.13" style="fill:none;stroke:#999;stroke-width:3"></path>
<path d="M894.37,13.75c1.09,0.5,1.74,2.25,1.96,3.25c0.22,1,0,73.75-0.22,80" style="fill:none;stroke:#999;stroke-width:3"></path>
<path d="M914.24,17.53c0.71,1.26,1.19,3.29,0.95,5.57c-0.24,2.28,0.24,69.35,0.24,73.15" style="fill:none;stroke:#999;stroke-width:3"></path>
<path d="M915.23,19.56c6.89-1.01,43.61-5.06,44.99-5.06c1.99,0,3.26,0.76,3.26,3.04c0,4.81-0.18,64.4-0.18,70.23c0,15.74-6.62,4.51-8.48,2.1" style="fill:none;stroke:#999;stroke-width:3"></path>
<path d="M927.19,24.67c2.04,1.66,5.26,6.85,5.77,9.44" style="fill:none;stroke:#999;stroke-width:3"></path>
<path d="M950.8199999999999,20.97c0.02,0.35,0.13,0.93-0.04,1.42c-1.28,3.61-3.21,9.54-6.96,13.55" style="fill:none;stroke:#999;stroke-width:3"></path>
<path d="M921.82,40.19c1.55,0.26,3.28,0.36,4.32,0.26c8.14-0.83,19.22-3.16,27.85-3.85c1.47-0.12,2.71,0.34,3.62,0.3" style="fill:none;stroke:#999;stroke-width:3"></path>
<path d="M937.33,41.55c0.59,0.42,1.49,2.3,1.49,3.13c0,3.05-0.12,6.95-0.01,9.53" style="fill:none;stroke:#999;stroke-width:3"></path>

<path d="M997.47,36c0.03,4.31-2.07,14.14-3.94,17.5" style="fill:none;stroke:#999;stroke-width:3"></path>
<path d="M1012.02,33.33c1.96,2.32,5.05,9.53,5.54,13.13" style="fill:none;stroke:#999;stroke-width:3"></path>
<path d="M1003.37,13.75c1.09,0.5,1.74,2.25,1.96,3.25c0.22,1,0,73.75-0.22,80" style="fill:none;stroke:#999;stroke-width:3"></path>
<path d="M1023.24,17.53c0.71,1.26,1.19,3.29,0.95,5.57c-0.24,2.28,0.24,69.35,0.24,73.15" style="fill:none;stroke:#999;stroke-width:3"></path>
<path d="M1024.23,19.56c6.89-1.01,43.61-5.06,44.99-5.06c1.99,0,3.26,0.76,3.26,3.04c0,4.81-0.18,64.4-0.18,70.23c0,15.74-6.62,4.51-8.48,2.1" style="fill:none;stroke:#999;stroke-width:3"></path>
<path d="M1036.19,24.67c2.04,1.66,5.26,6.85,5.77,9.44" style="fill:none;stroke:#999;stroke-width:3"></path>
<path d="M1059.82,20.97c0.02,0.35,0.13,0.93-0.04,1.42c-1.28,3.61-3.21,9.54-6.96,13.55" style="fill:none;stroke:#999;stroke-width:3"></path>
<path d="M1030.8200000000002,40.19c1.55,0.26,3.28,0.36,4.32,0.26c8.14-0.83,19.22-3.16,27.85-3.85c1.47-0.12,2.71,0.34,3.62,0.3" style="fill:none;stroke:#999;stroke-width:3"></path>
<path d="M1046.33,41.55c0.59,0.42,1.49,2.3,1.49,3.13c0,3.05-0.12,6.95-0.01,9.53" style="fill:none;stroke:#999;stroke-width:3"></path>
<path d="M1030.25,56.02c0.81,0.1,2.63,0.61,3.42,0.54C1040.25,56,1055.0,53,1063.61,52.02c1.32-0.15,2,0.05,2.99,0.69" style="fill:none;stroke:#999;stroke-width:3"></path>

<path d="M1106.47,36c0.03,4.31-2.07,14.14-3.94,17.5" style="fill:none;stroke:#999;stroke-width:3"></path>
<path d="M1121.02,33.33c1.96,2.32,5.05,9.53,5.54,13.13" style="fill:none;stroke:#999;stroke-width:3"></path>
<path d="M1112.37,13.75c1.09,0.5,1.74,2.25,1.96,3.25c0.22,1,0,73.75-0.22,80" style="fill:none;stroke:#999;stroke-width:3"></path>
<path d="M1132.24,17.53c0.71,1.26,1.19,3.29,0.95,5.57c-0.24,2.28,0.24,69.35,0.24,73.15" style="fill:none;stroke:#999;stroke-width:3"></path>
<path d="M1133.23,19.56c6.89-1.01,43.61-5.06,44.99-5.06c1.99,0,3.26,0.76,3.26,3.04c0,4.81-0.18,64.4-0.18,70.23c0,15.74-6.62,4.51-8.48,2.1" style="fill:none;stroke:#999;stroke-width:3"></path>
<path d="M1145.19,24.67c2.04,1.66,5.26,6.85,5.77,9.44" style="fill:none;stroke:#999;stroke-width:3"></path>
<path d="M1168.82,20.97c0.02,0.35,0.13,0.93-0.04,1.42c-1.28,3.61-3.21,9.54-6.96,13.55" style="fill:none;stroke:#999;stroke-width:3"></path>
<path d="M1139.8200000000002,40.19c1.55,0.26,3.28,0.36,4.32,0.26c8.14-0.83,19.22-3.16,27.85-3.85c1.47-0.12,2.71,0.34,3.62,0.3" style="fill:none;stroke:#999;stroke-width:3"></path>
<path d="M1155.33,41.55c0.59,0.42,1.49,2.3,1.49,3.13c0,3.05-0.12,6.95-0.01,9.53" style="fill:none;stroke:#999;stroke-width:3"></path>
<path d="M1139.25,56.02c0.81,0.1,2.63,0.61,3.42,0.54C1149.25,56,1164.0,53,1172.61,52.02c1.32-0.15,2,0.05,2.99,0.69" style="fill:none;stroke:#999;stroke-width:3"></path>
<path d="M1145.9,58.3c0.44,0.49,0.66,1.9,0.66,2.58c0,6.07,0,6.44,0,8.74c0,2.55,0.28,5.41,5.19,5.78c5.32,0.4,14.19-0.08,15.39-0.13c2.09-0.09,3.86-0.36,4.93-0.67" style="fill:none;stroke:#999;stroke-width:3"></path>

</svg>