<svg width="1308px" height="109px" viewBox="0 0 1308 109" xmlns="http://www.w3.org/2000/svg" xmlns:xlink="http://www.w3.org/1999/xlink" xml:space="preserve" version="1.1" baseProfile="full">
<line x1="1" y1="1" x2="1307" y2="1" style="stroke:#ddd;stroke-width:2"></line>
<line x1="1" y1="1" x2="1" y2="108" style="stroke:#ddd;stroke-width:2"></line>
<line x1="1" y1="108" x2="1307" y2="108" style="stroke:#ddd;stroke-width:2"></line>
<line x1="1307" y1="1" x2="1307" y2="108" style="stroke:#ddd;stroke-width:2"></line>
<line x1="109" y1="1" x2="109" y2="108" style="stroke:#ddd;stroke-width:2"></line>
<line x1="218" y1="1" x2="218" y2="108" style="stroke:#ddd;stroke-width:2"></line>
<line x1="327" y1="1" x2="327" y2="108" style="stroke:#ddd;stroke-width:2"></line>
<line x1="436" y1="1" x2="436" y2="108" style="stroke:#ddd;stroke-width:2"></line>
<line x1="545" y1="1" x2="545" y2="108" style="stroke:#ddd;stroke-width:2"></line>
<line x1="654" y1="1" x2="654" y2="108" style="stroke:#ddd;stroke-width:2"></line>
<line x1="763" y1="1" x2="763" y2="108" style="stroke:#ddd;stroke-width:2"></line>
<line x1="872" y1="1" x2="872" y2="108" style="stroke:#ddd;stroke-width:2"></line>
<line x1="981" y1="1" x2="981" y2="108" style="stroke:#ddd;stroke-width:2"></line>
<line x1="1090" y1="1" x2="1090" y2="108" style="stroke:#ddd;stroke-width:2"></line>
<line x1="1199" y1="1" x2="1199" y2="108" style="stroke:#ddd;stroke-width:2"></line>
<line x1="1" y1="54" x2="1307" y2="54" style="stroke:#ddd;stroke-width:2;stroke-dasharray:3 3"></line>
<line x1="55" y1="1" x2="55" y2="108" style="stroke:#ddd;stroke-width:2;stroke-dasharray:3 3"></line>
<line x1="164" y1="1" x2="164" y2="108" style="stroke:#ddd;stroke-width:2;stroke-dasharray:3 3"></line>
<line x1="273" y1="1" x2="273" y2="108" style="stroke:#ddd;stroke-width:2;stroke-dasharray:3 3"></line>
<line x1="382" y1="1" x2="382" y2="108" style="stroke:#ddd;stroke-width:2;stroke-dasharray:3 3"></line>
<line x1="491" y1="1" x2="491" y2="108" style="stroke:#ddd;stroke-width:2;stroke-dasharray:3 3"></line>
<line x1="600" y1="1" x2="600" y2="108" style="stroke:#ddd;stroke-width:2;stroke-dasharray:3 3"></line>
<line x1="709" y1="1" x2="709" y2="108" style="stroke:#ddd;stroke-width:2;stroke-dasharray:3 3"></line>
<line x1="818" y1="1" x2="818" y2="108" style="stroke:#ddd;stroke-width:2;stroke-dasharray:3 3"></line>
<line x1="927" y1="1" x2="927" y2="108" style="stroke:#ddd;stroke-width:2;stroke-dasharray:3 3"></line>
<line x1="1036" y1="1" x2="1036" y2="108" style="stroke:#ddd;stroke-width:2;stroke-dasharray:3 3"></line>
<line x1="1145" y1="1" x2="1145" y2="108" style="stroke:#ddd;stroke-width:2;stroke-dasharray:3 3"></line>
<line x1="1254" y1="1" x2="1254" y2="108" style="stroke:#ddd;stroke-width:2;stroke-dasharray:3 3"></line>
<path d="M19.22,34.5c0.03,4.31-2.21,14.14-4.19,17.5" style="fill:none;stroke:#999;stroke-width:3"></path>

<path d="M128.22,34.5c0.03,4.31-2.21,14.14-4.19,17.5" style="fill:none;stroke:#999;stroke-width:3"></path>
<path d="M144.27,31.58c1.52,2.54,3.91,10.43,4.29,14.38" style="fill:none;stroke:#999;stroke-width:3"></path>

<path d="M237.22,34.5c0.03,4.31-2.21,14.14-4.19,17.5" style="fill:none;stroke:#999;stroke-width:3"></path>
<path d="M253.27,31.58c1.52,2.54,3.91,10.43,4.29,14.38" style="fill:none;stroke:#999;stroke-width:3"></path>
<path d="M243.37,14.25c1.09,0.5,1.74,2.25,1.96,3.25c0.22,1,0,72.25-0.22,78.5" style="fill:none;stroke:#999;stroke-width:3"></path>

<path d="M346.22,34.5c0.03,4.31-2.21,14.14-4.19,17.5" style="fill:none;stroke:#999;stroke-width:3"></path>
<path d="M362.27,31.58c1.52,2.54,3.91,10.43,4.29,14.38" style="fill:none;stroke:#999;stroke-width:3"></path>
<path d="M352.37,14.25c1.09,0.5,1.74,2.25,1.96,3.25c0.22,1,0,72.25-0.22,78.5" style="fill:none;stroke:#999;stroke-width:3"></path>
<path d="M381.13,15.04c0.12,1.05,0.01,1.82-0.29,2.68c-2.02,5.76-3.64,9.86-8.73,15.95c-0.83,0.99-0.38,0.84,0,1.12c5.5,4.01,6.82,7.56,9.71,15.22" style="fill:none;stroke:#999;stroke-width:3"></path>

<path d="M455.22,34.5c0.03,4.31-2.21,14.14-4.19,17.5" style="fill:none;stroke:#999;stroke-width:3"></path>
<path d="M471.27,31.58c1.52,2.54,3.91,10.43,4.29,14.38" style="fill:none;stroke:#999;stroke-width:3"></path>
<path d="M461.37,14.25c1.09,0.5,1.74,2.25,1.96,3.25c0.22,1,0,72.25-0.22,78.5" style="fill:none;stroke:#999;stroke-width:3"></path>
<path d="M490.13,15.04c0.12,1.05,0.01,1.82-0.29,2.68c-2.02,5.76-3.64,9.86-8.73,15.95c-0.83,0.99-0.38,0.84,0,1.12c5.5,4.01,6.82,7.56,9.71,15.22" style="fill:none;stroke:#999;stroke-width:3"></path>
<path d="M506.6,13.87c0.4,1.13-0.02,2.7-0.36,3.45c-1.74,3.93-3.99,7.68-8.91,13.5c-0.48,0.56-0.23,0.78,0.21,1.1c5.21,3.83,8.21,8.08,10.6,14.74" style="fill:none;stroke:#999;stroke-width:3"></path>

<path d="M564.22,34.5c0.03,4.31-2.21,14.14-4.19,17.5" style="fill:none;stroke:#999;stroke-width:3"></path>
<path d="M580.27,31.58c1.52,2.54,3.91,10.43,4.29,14.38" style="fill:none;stroke:#999;stroke-width:3"></path>
<path d="M570.37,14.25c1.09,0.5,1.74,2.25,1.96,3.25c0.22,1,0,72.25-0.22,78.5" style="fill:none;stroke:#999;stroke-width:3"></path>
<path d="M599.13,15.04c0.12,1.05,0.01,1.82-0.29,2.68c-2.02,5.76-3.64,9.86-8.73,15.95c-0.83,0.99-0.38,0.84,0,1.12c5.5,4.01,6.82,7.56,9.71,15.22" style="fill:none;stroke:#999;stroke-width:3"></path>
<path d="M615.6,13.87c0.4,1.13-0.02,2.7-0.36,3.45c-1.74,3.93-3.99,7.68-8.91,13.5c-0.48,0.56-0.23,0.78,0.21,1.1c5.21,3.83,8.21,8.08,10.6,14.74" style="fill:none;stroke:#999;stroke-width:3"></path>
<path d="M632.42,12.71c0.33,0.79,0.29,1.67,0.15,2.45c-0.82,4.34-3.32,8.84-8.7,15.5c-0.46,0.57-0.2,0.74,0.21,1.1C630.0,37,632.0,41.25,634.1800000000001,47.16" style="fill:none;stroke:#999;stroke-width:3"></path>

<path d="M673.22,34.5c0.03,4.31-2.21,14.14-4.19,17.5" style="fill:none;stroke:#999;stroke-width:3"></path>
<path d="M689.27,31.58c1.52,2.54,3.91,10.43,4.29,14.38" style="fill:none;stroke:#999;stroke-width:3"></path>
<path d="M679.37,14.25c1.09,0.5,1.74,2.25,1.96,3.25c0.22,1,0,72.25-0.22,78.5" style="fill:none;stroke:#999;stroke-width:3"></path>
<path d="M708.13,15.04c0.12,1.05,0.01,1.82-0.29,2.68c-2.02,5.76-3.64,9.86-8.73,15.95c-0.83,0.99-0.38,0.84,0,1.12c5.5,4.01,6.82,7.56,9.71,15.22" style="fill:none;stroke:#999;stroke-width:3"></path>
<path d="M724.6,13.87c0.4,1.13-0.02,2.7-0.36,3.45c-1.74,3.93-3.99,7.68-8.91,13.5c-0.48,0.56-0.23,0.78,0.21,1.1c5.21,3.83,8.21,8.08,10.6,14.74" style="fill:none;stroke:#999;stroke-width:3"></path>
<path d="M741.42,12.71c0.33,0.79,0.29,1.67,0.15,2.45c-0.82,4.34-3.32,8.84-8.7,15.5c-0.46,0.57-0.2,0.74,0.21,1.1C739.0,37,741.0,41.25,743.1800000000001,47.16" style="fill:none;stroke:#999;stroke-width:3"></path>
<path d="M717.78,47.14c0.02,0.37,0.05,0.95-0.04,1.47c-0.53,3.11-3.55,9.93-7.68,14.1" style="fill:none;stroke:#999;stroke-width:3"></path>

<path d="M782.22,34.5c0.03,4.31-2.21,14.14-4.19,17.5" style="fill:none;stroke:#999;stroke-width:3"></path>
<path d="M798.27,31.58c1.52,2.54,3.91,10.43,4.29,14.38" style="fill:none;stroke:#999;stroke-width:3"></path>
<path d="M788.37,14.25c1.09,0.5,1.74,2.25,1.96,3.25c0.22,1,0,72.25-0.22,78.5" style="fill:none;stroke:#999;stroke-width:3"></path>
<path d="M817.13,15.04c0.12,1.05,0.01,1.82-0.29,2.68c-2.02,5.76-3.64,9.86-8.73,15.95c-0.83,0.99-0.38,0.84,0,1.12c5.5,4.01,6.82,7.56,9.71,15.22" style="fill:none;stroke:#999;stroke-width:3"></path>
<path d="M833.6,13.87c0.4,1.13-0.02,2.7-0.36,3.45c-1.74,3.93-3.99,7.68-8.91,13.5c-0.48,0.56-0.23,0.78,0.21,1.1c5.21,3.83,8.21,8.08,10.6,14.74" style="fill:none;stroke:#999;stroke-width:3"></path>
<path d="M850.42,12.71c0.33,0.79,0.29,1.67,0.15,2.45c-0.82,4.34-3.32,8.84-8.7,15.5c-0.46,0.57-0.2,0.74,0.21,1.1C848.0,37,850.0,41.25,852.1800000000001,47.16" style="fill:none;stroke:#999;stroke-width:3"></path>
<path d="M826.78,47.14c0.02,0.37,0.05,0.95-0.04,1.47c-0.53,3.11-3.55,9.93-7.68,14.1" style="fill:none;stroke:#999;stroke-width:3"></path>
<path d="M810.49,61.6c0.3,0.58,0.8,1.98,0.97,2.71c1.34,6.01,3.1,21.69,3.93,32.89" style="fill:none;stroke:#999;stroke-width:3"></path>

<path d="M891.22,34.5c0.03,4.31-2.21,14.14-4.19,17.5" style="fill:none;stroke:#999;stroke-width:3"></path>
<path d="M907.27,31.58c1.52,2.54,3.91,10.43,4.29,14.38" style="fill:none;stroke:#999;stroke-width:3"></path>
<path d="M897.37,14.25c1.09,0.5,1.74,2.25,1.96,3.25c0.22,1,0,72.25-0.22,78.5" style="fill:none;stroke:#999;stroke-width:3"></path>
<path d="M926.13,15.04c0.12,1.05,0.01,1.82-0.29,2.68c-2.02,5.76-3.64,9.86-8.73,15.95c-0.83,0.99-0.38,0.84,0,1.12c5.5,4.01,6.82,7.56,9.71,15.22" style="fill:none;stroke:#999;stroke-width:3"></path>
<path d="M942.6,13.87c0.4,1.13-0.02,2.7-0.36,3.45c-1.74,3.93-3.99,7.68-8.91,13.5c-0.48,0.56-0.23,0.78,0.21,1.1c5.21,3.83,8.21,8.08,10.6,14.74" style="fill:none;stroke:#999;stroke-width:3"></path>
<path d="M959.42,12.71c0.33,0.79,0.29,1.67,0.15,2.45c-0.82,4.34-3.32,8.84-8.7,15.5c-0.46,0.57-0.2,0.74,0.21,1.1C957.0,37,959.0,41.25,961.1800000000001,47.16" style="fill:none;stroke:#999;stroke-width:3"></path>
<path d="M935.78,47.14c0.02,0.37,0.05,0.95-0.04,1.47c-0.53,3.11-3.55,9.93-7.68,14.1" style="fill:none;stroke:#999;stroke-width:3"></path>
<path d="M919.49,61.6c0.3,0.58,0.8,1.98,0.97,2.71c1.34,6.01,3.1,21.69,3.93,32.89" style="fill:none;stroke:#999;stroke-width:3"></path>
<path d="M920.38,63.91c10.39-1.51,30.2-4.08,37.96-5.35c2.85-0.47,4.31,1.18,4.16,2.84c-0.54,6.06-2.86,23.06-4.16,33.18" style="fill:none;stroke:#999;stroke-width:3"></path>

<path d="M1000.22,34.5c0.03,4.31-2.21,14.14-4.19,17.5" style="fill:none;stroke:#999;stroke-width:3"></path>
<path d="M1016.27,31.58c1.52,2.54,3.91,10.43,4.29,14.38" style="fill:none;stroke:#999;stroke-width:3"></path>
<path d="M1006.37,14.25c1.09,0.5,1.74,2.25,1.96,3.25c0.22,1,0,72.25-0.22,78.5" style="fill:none;stroke:#999;stroke-width:3"></path>
<path d="M1035.13,15.04c0.12,1.05,0.01,1.82-0.29,2.68c-2.02,5.76-3.64,9.86-8.73,15.95c-0.83,0.99-0.38,0.84,0,1.12c5.5,4.01,6.82,7.56,9.71,15.22" style="fill:none;stroke:#999;stroke-width:3"></path>
<path d="M1051.6,13.87c0.4,1.13-0.02,2.7-0.36,3.45c-1.74,3.93-3.99,7.68-8.91,13.5c-0.48,0.56-0.23,0.78,0.21,1.1c5.21,3.83,8.21,8.08,10.6,14.74" style="fill:none;stroke:#999;stroke-width:3"></path>
<path d="M1068.42,12.71c0.33,0.79,0.29,1.67,0.15,2.45c-0.82,4.34-3.32,8.84-8.7,15.5c-0.46,0.57-0.2,0.74,0.21,1.1C1066.0,37,1068.0,41.25,1070.18,47.16" style="fill:none;stroke:#999;stroke-width:3"></path>
<path d="M1044.78,47.14c0.02,0.37,0.05,0.95-0.04,1.47c-0.53,3.11-3.55,9.93-7.68,14.1" style="fill:none;stroke:#999;stroke-width:3"></path>
<path d="M1028.49,61.6c0.3,0.58,0.8,1.98,0.97,2.71c1.34,6.01,3.1,21.69,3.93,32.89" style="fill:none;stroke:#999;stroke-width:3"></path>
<path d="M1029.38,63.91c10.39-1.51,30.2-4.08,37.96-5.35c2.85-0.47,4.31,1.18,4.16,2.84c-0.54,6.06-2.86,23.06-4.16,33.18" style="fill:none;stroke:#999;stroke-width:3"></path>
<path d="M1058.75,65.39c0.05,0.57,0.11,1.46-0.11,2.28c-1.31,4.8-8.81,15.34-19.09,21.8" style="fill:none;stroke:#999;stroke-width:3"></path>

<path d="M1109.22,34.5c0.03,4.31-2.21,14.14-4.19,17.5" style="fill:none;stroke:#999;stroke-width:3"></path>
<path d="M1125.27,31.58c1.52,2.54,3.91,10.43,4.29,14.38" style="fill:none;stroke:#999;stroke-width:3"></path>
<path d="M1115.37,14.25c1.09,0.5,1.74,2.25,1.96,3.25c0.22,1,0,72.25-0.22,78.5" style="fill:none;stroke:#999;stroke-width:3"></path>
<path d="M1144.13,15.04c0.12,1.05,0.01,1.82-0.29,2.68c-2.02,5.76-3.64,9.86-8.73,15.95c-0.83,0.99-0.38,0.84,0,1.12c5.5,4.01,6.82,7.56,9.71,15.22" style="fill:none;stroke:#999;stroke-width:3"></path>
<path d="M1160.6,13.87c0.4,1.13-0.02,2.7-0.36,3.45c-1.74,3.93-3.99,7.68-8.91,13.5c-0.48,0.56-0.23,0.78,0.21,1.1c5.21,3.83,8.21,8.08,10.6,14.74" style="fill:none;stroke:#999;stroke-width:3"></path>
<path d="M1177.42,12.71c0.33,0.79,0.29,1.67,0.15,2.45c-0.82,4.34-3.32,8.84-8.7,15.5c-0.46,0.57-0.2,0.74,0.21,1.1C1175.0,37,1177.0,41.25,1179.18,47.16" style="fill:none;stroke:#999;stroke-width:3"></path>
<path d="M1153.78,47.14c0.02,0.37,0.05,0.95-0.04,1.47c-0.53,3.11-3.55,9.93-7.68,14.1" style="fill:none;stroke:#999;stroke-width:3"></path>
<path d="M1137.49,61.6c0.3,0.58,0.8,1.98,0.97,2.71c1.34,6.01,3.1,21.69,3.93,32.89" style="fill:none;stroke:#999;stroke-width:3"></path>
<path d="M1138.38,63.91c10.39-1.51,30.2-4.08,37.96-5.35c2.85-0.47,4.31,1.18,4.16,2.84c-0.54,6.06-2.86,23.06-4.16,33.18" style="fill:none;stroke:#999;stroke-width:3"></path>
<path d="M1167.75,65.39c0.05,0.57,0.11,1.46-0.11,2.28c-1.31,4.8-8.81,15.34-19.09,21.8" style="fill:none;stroke:#999;stroke-width:3"></path>
<path d="M1148.52,71.83c6.9,2.63,17.82,10.8,19.54,14.88" style="fill:none;stroke:#999;stroke-width:3"></path>

<path d="M1218.22,34.5c0.03,4.31-2.21,14.14-4.19,17.5" style="fill:none;stroke:#999;stroke-width:3"></path>
<path d="M1234.27,31.58c1.52,2.54,3.91,10.43,4.29,14.38" style="fill:none;stroke:#999;stroke-width:3"></path>
<path d="M1224.37,14.25c1.09,0.5,1.74,2.25,1.96,3.25c0.22,1,0,72.25-0.22,78.5" style="fill:none;stroke:#999;stroke-width:3"></path>
<path d="M1253.13,15.04c0.12,1.05,0.01,1.82-0.29,2.68c-2.02,5.76-3.64,9.86-8.73,15.95c-0.83,0.99-0.38,0.84,0,1.12c5.5,4.01,6.82,7.56,9.71,15.22" style="fill:none;stroke:#999;stroke-width:3"></path>
<path d="M1269.6,13.87c0.4,1.13-0.02,2.7-0.36,3.45c-1.74,3.93-3.99,7.68-8.91,13.5c-0.48,0.56-0.23,0.78,0.21,1.1c5.21,3.83,8.21,8.08,10.6,14.74" style="fill:none;stroke:#999;stroke-width:3"></path>
<path d="M1286.42,12.71c0.33,0.79,0.29,1.67,0.15,2.45c-0.82,4.34-3.32,8.84-8.7,15.5c-0.46,0.57-0.2,0.74,0.21,1.1C1284.0,37,1286.0,41.25,1288.18,47.16" style="fill:none;stroke:#999;stroke-width:3"></path>
<path d="M1262.78,47.14c0.02,0.37,0.05,0.95-0.04,1.47c-0.53,3.11-3.55,9.93-7.68,14.1" style="fill:none;stroke:#999;stroke-width:3"></path>
<path d="M1246.49,61.6c0.3,0.58,0.8,1.98,0.97,2.71c1.34,6.01,3.1,21.69,3.93,32.89" style="fill:none;stroke:#999;stroke-width:3"></path>
<path d="M1247.38,63.91c10.39-1.51,30.2-4.08,37.96-5.35c2.85-0.47,4.31,1.18,4.16,2.84c-0.54,6.06-2.86,23.06-4.16,33.18" style="fill:none;stroke:#999;stroke-width:3"></path>
<path d="M1276.75,65.39c0.05,0.57,0.11,1.46-0.11,2.28c-1.31,4.8-8.81,15.34-19.09,21.8" style="fill:none;stroke:#999;stroke-width:3"></path>
<path d="M1257.52,71.83c6.9,2.63,17.82,10.8,19.54,14.88" style="fill:none;stroke:#999;stroke-width:3"></path>
<path d="M1251.43,95.57c7.48-0.64,22.07-2.07,33.91-2.39" style="fill:none;stroke:#999;stroke-width:3"></path>

</svg>