<svg width="1308px" height="109px" viewBox="0 0 1308 109" xmlns="http://www.w3.org/2000/svg" xmlns:xlink="http://www.w3.org/1999/xlink" xml:space="preserve" version="1.1" baseProfile="full">
<line x1="1" y1="1" x2="1307" y2="1" style="stroke:#ddd;stroke-width:2"></line>
<line x1="1" y1="1" x2="1" y2="108" style="stroke:#ddd;stroke-width:2"></line>
<line x1="1" y1="108" x2="1307" y2="108" style="stroke:#ddd;stroke-width:2"></line>
<line x1="1307" y1="1" x2="1307" y2="108" style="stroke:#ddd;stroke-width:2"></line>
<line x1="109" y1="1" x2="109" y2="108" style="stroke:#ddd;stroke-width:2"></line>
<line x1="218" y1="1" x2="218" y2="108" style="stroke:#ddd;stroke-width:2"></line>
<line x1="327" y1="1" x2="327" y2="108" style="stroke:#ddd;stroke-width:2"></line>
<line x1="436" y1="1" x2="436" y2="108" style="stroke:#ddd;stroke-width:2"></line>
<line x1="545" y1="1" x2="545" y2="108" style="stroke:#ddd;stroke-width:2"></line>
<line x1="654" y1="1" x2="654" y2="108" style="stroke:#ddd;stroke-width:2"></line>
<line x1="763" y1="1" x2="763" y2="108" style="stroke:#ddd;stroke-width:2"></line>
<line x1="872" y1="1" x2="872" y2="108" style="stroke:#ddd;stroke-width:2"></line>
<line x1="981" y1="1" x2="981" y2="108" style="stroke:#ddd;stroke-width:2"></line>
<line x1="1090" y1="1" x2="1090" y2="108" style="stroke:#ddd;stroke-width:2"></line>
<line x1="1199" y1="1" x2="1199" y2="108" style="stroke:#ddd;stroke-width:2"></line>
<line x1="1" y1="54" x2="1307" y2="54" style="stroke:#ddd;stroke-width:2;stroke-dasharray:3 3"></line>
<line x1="55" y1="1" x2="55" y2="108" style="stroke:#ddd;stroke-width:2;stroke-dasharray:3 3"></line>
<line x1="164" y1="1" x2="164" y2="108" style="stroke:#ddd;stroke-width:2;stroke-dasharray:3 3"></line>
<line x1="273" y1="1" x2="273" y2="108" style="stroke:#ddd;stroke-width:2;stroke-dasharray:3 3"></line>
<line x1="382" y1="1" x2="382" y2="108" style="stroke:#ddd;stroke-width:2;stroke-dasharray:3 3"></line>
<line x1="491" y1="1" x2="491" y2="108" style="stroke:#ddd;stroke-width:2;stroke-dasharray:3 3"></line>
<line x1="600" y1="1" x2="600" y2="108" style="stroke:#ddd;stroke-width:2;stroke-dasharray:3 3"></line>
<line x1="709" y1="1" x2="709" y2="108" style="stroke:#ddd;stroke-width:2;stroke-dasharray:3 3"></line>
<line x1="818" y1="1" x2="818" y2="108" style="stroke:#ddd;stroke-width:2;stroke-dasharray:3 3"></line>
<line x1="927" y1="1" x2="927" y2="108" style="stroke:#ddd;stroke-width:2;stroke-dasharray:3 3"></line>
<line x1="1036" y1="1" x2="1036" y2="108" style="stroke:#ddd;stroke-width:2;stroke-dasharray:3 3"></line>
<line x1="1145" y1="1" x2="1145" y2="108" style="stroke:#ddd;stroke-width:2;stroke-dasharray:3 3"></line>
<line x1="1254" y1="1" x2="1254" y2="108" style="stroke:#ddd;stroke-width:2;stroke-dasharray:3 3"></line>
<path d="M19.15,22.08c4.78,0.57,9.52,0.25,14.23-0.48c13.36-1.63,30.87-3.02,43.24-3.71c4.52-0.29,9.04-0.24,13.57,0.16" style="fill:none;stroke:#999;stroke-width:3"></path>

<path d="M128.15,22.08c4.78,0.57,9.52,0.25,14.23-0.48c13.36-1.63,30.87-3.02,43.24-3.71c4.52-0.29,9.04-0.24,13.57,0.16" style="fill:none;stroke:#999;stroke-width:3"></path>
<path d="M148.87,10.48c0.83,0.83,1.44,1.56,1.48,2.31C150.75,20.88,151.0,26,151.2,29.62" style="fill:none;stroke:#999;stroke-width:3"></path>

<path d="M237.15,22.08c4.78,0.57,9.52,0.25,14.23-0.48c13.36-1.63,30.87-3.02,43.24-3.71c4.52-0.29,9.04-0.24,13.57,0.16" style="fill:none;stroke:#999;stroke-width:3"></path>
<path d="M257.87,10.48c0.83,0.83,1.44,1.56,1.48,2.31C259.75,20.88,260.0,26,260.2,29.62" style="fill:none;stroke:#999;stroke-width:3"></path>
<path d="M284.26,9.77c0.74,0.86,0.86,1.75,0.76,2.81c-0.58,6.22-1.09,8.83-1.72,14.68" style="fill:none;stroke:#999;stroke-width:3"></path>

<path d="M346.15,22.08c4.78,0.57,9.52,0.25,14.23-0.48c13.36-1.63,30.87-3.02,43.24-3.71c4.52-0.29,9.04-0.24,13.57,0.16" style="fill:none;stroke:#999;stroke-width:3"></path>
<path d="M366.87,10.48c0.83,0.83,1.44,1.56,1.48,2.31C368.75,20.88,369.0,26,369.2,29.62" style="fill:none;stroke:#999;stroke-width:3"></path>
<path d="M393.26,9.77c0.74,0.86,0.86,1.75,0.76,2.81c-0.58,6.22-1.09,8.83-1.72,14.68" style="fill:none;stroke:#999;stroke-width:3"></path>
<path d="M378.42,26.65c0,1.23-0.32,2.16-0.85,3.35c-4.52,10.11-14.35,23.98-33.57,33.04" style="fill:none;stroke:#999;stroke-width:3"></path>

<path d="M455.15,22.08c4.78,0.57,9.52,0.25,14.23-0.48c13.36-1.63,30.87-3.02,43.24-3.71c4.52-0.29,9.04-0.24,13.57,0.16" style="fill:none;stroke:#999;stroke-width:3"></path>
<path d="M475.87,10.48c0.83,0.83,1.44,1.56,1.48,2.31C477.75,20.88,478.0,26,478.2,29.62" style="fill:none;stroke:#999;stroke-width:3"></path>
<path d="M502.26,9.77c0.74,0.86,0.86,1.75,0.76,2.81c-0.58,6.22-1.09,8.83-1.72,14.68" style="fill:none;stroke:#999;stroke-width:3"></path>
<path d="M487.42,26.65c0,1.23-0.32,2.16-0.85,3.35c-4.52,10.11-14.35,23.98-33.57,33.04" style="fill:none;stroke:#999;stroke-width:3"></path>
<path d="M454.25,39.7c4.16,0.79,8.26,0.31,12.51-0.22c16.99-2.11,33.26-4.05,44.75-4.72c3.95-0.52,7.86-0.35,11.74,0.51" style="fill:none;stroke:#999;stroke-width:3"></path>

<path d="M564.15,22.08c4.78,0.57,9.52,0.25,14.23-0.48c13.36-1.63,30.87-3.02,43.24-3.71c4.52-0.29,9.04-0.24,13.57,0.16" style="fill:none;stroke:#999;stroke-width:3"></path>
<path d="M584.87,10.48c0.83,0.83,1.44,1.56,1.48,2.31C586.75,20.88,587.0,26,587.2,29.62" style="fill:none;stroke:#999;stroke-width:3"></path>
<path d="M611.26,9.77c0.74,0.86,0.86,1.75,0.76,2.81c-0.58,6.22-1.09,8.83-1.72,14.68" style="fill:none;stroke:#999;stroke-width:3"></path>
<path d="M596.4200000000001,26.65c0,1.23-0.32,2.16-0.85,3.35c-4.52,10.11-14.35,23.98-33.57,33.04" style="fill:none;stroke:#999;stroke-width:3"></path>
<path d="M563.25,39.7c4.16,0.79,8.26,0.31,12.51-0.22c16.99-2.11,33.26-4.05,44.75-4.72c3.95-0.52,7.86-0.35,11.74,0.51" style="fill:none;stroke:#999;stroke-width:3"></path>
<path d="M586.0,49.12c0.75,0.75,1.18,1.62,1.24,2.21c0.63,5.91,1.26,9.91,1.67,13.16" style="fill:none;stroke:#999;stroke-width:3"></path>

<path d="M673.15,22.08c4.78,0.57,9.52,0.25,14.23-0.48c13.36-1.63,30.87-3.02,43.24-3.71c4.52-0.29,9.04-0.24,13.57,0.16" style="fill:none;stroke:#999;stroke-width:3"></path>
<path d="M693.87,10.48c0.83,0.83,1.44,1.56,1.48,2.31C695.75,20.88,696.0,26,696.2,29.62" style="fill:none;stroke:#999;stroke-width:3"></path>
<path d="M720.26,9.77c0.74,0.86,0.86,1.75,0.76,2.81c-0.58,6.22-1.09,8.83-1.72,14.68" style="fill:none;stroke:#999;stroke-width:3"></path>
<path d="M705.4200000000001,26.65c0,1.23-0.32,2.16-0.85,3.35c-4.52,10.11-14.35,23.98-33.57,33.04" style="fill:none;stroke:#999;stroke-width:3"></path>
<path d="M672.25,39.7c4.16,0.79,8.26,0.31,12.51-0.22c16.99-2.11,33.26-4.05,44.75-4.72c3.95-0.52,7.86-0.35,11.74,0.51" style="fill:none;stroke:#999;stroke-width:3"></path>
<path d="M695.0,49.12c0.75,0.75,1.18,1.62,1.24,2.21c0.63,5.91,1.26,9.91,1.67,13.16" style="fill:none;stroke:#999;stroke-width:3"></path>
<path d="M697.24,50.15c10.6-1.89,19.96-3.1,28.53-4.17c2.7-0.34,5.15,0.94,4.3,3.96c-1.09,3.89-1.57,5.19-2.62,8.63" style="fill:none;stroke:#999;stroke-width:3"></path>

<path d="M782.15,22.08c4.78,0.57,9.52,0.25,14.23-0.48c13.36-1.63,30.87-3.02,43.24-3.71c4.52-0.29,9.04-0.24,13.57,0.16" style="fill:none;stroke:#999;stroke-width:3"></path>
<path d="M802.87,10.48c0.83,0.83,1.44,1.56,1.48,2.31C804.75,20.88,805.0,26,805.2,29.62" style="fill:none;stroke:#999;stroke-width:3"></path>
<path d="M829.26,9.77c0.74,0.86,0.86,1.75,0.76,2.81c-0.58,6.22-1.09,8.83-1.72,14.68" style="fill:none;stroke:#999;stroke-width:3"></path>
<path d="M814.4200000000001,26.65c0,1.23-0.32,2.16-0.85,3.35c-4.52,10.11-14.35,23.98-33.57,33.04" style="fill:none;stroke:#999;stroke-width:3"></path>
<path d="M781.25,39.7c4.16,0.79,8.26,0.31,12.51-0.22c16.99-2.11,33.26-4.05,44.75-4.72c3.95-0.52,7.86-0.35,11.74,0.51" style="fill:none;stroke:#999;stroke-width:3"></path>
<path d="M804.0,49.12c0.75,0.75,1.18,1.62,1.24,2.21c0.63,5.91,1.26,9.91,1.67,13.16" style="fill:none;stroke:#999;stroke-width:3"></path>
<path d="M806.24,50.15c10.6-1.89,19.96-3.1,28.53-4.17c2.7-0.34,5.15,0.94,4.3,3.96c-1.09,3.89-1.57,5.19-2.62,8.63" style="fill:none;stroke:#999;stroke-width:3"></path>
<path d="M807.88,62.55c5.99-0.42,16.68-1.57,24.75-2.38c2.38-0.24,4.53-0.45,6.26-0.6" style="fill:none;stroke:#999;stroke-width:3"></path>

<path d="M891.15,22.08c4.78,0.57,9.52,0.25,14.23-0.48c13.36-1.63,30.87-3.02,43.24-3.71c4.52-0.29,9.04-0.24,13.57,0.16" style="fill:none;stroke:#999;stroke-width:3"></path>
<path d="M911.87,10.48c0.83,0.83,1.44,1.56,1.48,2.31C913.75,20.88,914.0,26,914.2,29.62" style="fill:none;stroke:#999;stroke-width:3"></path>
<path d="M938.26,9.77c0.74,0.86,0.86,1.75,0.76,2.81c-0.58,6.22-1.09,8.83-1.72,14.68" style="fill:none;stroke:#999;stroke-width:3"></path>
<path d="M923.4200000000001,26.65c0,1.23-0.32,2.16-0.85,3.35c-4.52,10.11-14.35,23.98-33.57,33.04" style="fill:none;stroke:#999;stroke-width:3"></path>
<path d="M890.25,39.7c4.16,0.79,8.26,0.31,12.51-0.22c16.99-2.11,33.26-4.05,44.75-4.72c3.95-0.52,7.86-0.35,11.74,0.51" style="fill:none;stroke:#999;stroke-width:3"></path>
<path d="M913.0,49.12c0.75,0.75,1.18,1.62,1.24,2.21c0.63,5.91,1.26,9.91,1.67,13.16" style="fill:none;stroke:#999;stroke-width:3"></path>
<path d="M915.24,50.15c10.6-1.89,19.96-3.1,28.53-4.17c2.7-0.34,5.15,0.94,4.3,3.96c-1.09,3.89-1.57,5.19-2.62,8.63" style="fill:none;stroke:#999;stroke-width:3"></path>
<path d="M916.88,62.55c5.99-0.42,16.68-1.57,24.75-2.38c2.38-0.24,4.53-0.45,6.26-0.6" style="fill:none;stroke:#999;stroke-width:3"></path>
<path d="M894.4,78.07c0.29,2.21-3.2,11.98-5.57,15.67" style="fill:none;stroke:#999;stroke-width:3"></path>

<path d="M1000.15,22.08c4.78,0.57,9.52,0.25,14.23-0.48c13.36-1.63,30.87-3.02,43.24-3.71c4.52-0.29,9.04-0.24,13.57,0.16" style="fill:none;stroke:#999;stroke-width:3"></path>
<path d="M1020.87,10.48c0.83,0.83,1.44,1.56,1.48,2.31C1022.75,20.88,1023.0,26,1023.2,29.62" style="fill:none;stroke:#999;stroke-width:3"></path>
<path d="M1047.26,9.77c0.74,0.86,0.86,1.75,0.76,2.81c-0.58,6.22-1.09,8.83-1.72,14.68" style="fill:none;stroke:#999;stroke-width:3"></path>
<path d="M1032.42,26.65c0,1.23-0.32,2.16-0.85,3.35c-4.52,10.11-14.35,23.98-33.57,33.04" style="fill:none;stroke:#999;stroke-width:3"></path>
<path d="M999.25,39.7c4.16,0.79,8.26,0.31,12.51-0.22c16.99-2.11,33.26-4.05,44.75-4.72c3.95-0.52,7.86-0.35,11.74,0.51" style="fill:none;stroke:#999;stroke-width:3"></path>
<path d="M1022.0,49.12c0.75,0.75,1.18,1.62,1.24,2.21c0.63,5.91,1.26,9.91,1.67,13.16" style="fill:none;stroke:#999;stroke-width:3"></path>
<path d="M1024.24,50.15c10.6-1.89,19.96-3.1,28.53-4.17c2.7-0.34,5.15,0.94,4.3,3.96c-1.09,3.89-1.57,5.19-2.62,8.63" style="fill:none;stroke:#999;stroke-width:3"></path>
<path d="M1025.88,62.55c5.99-0.42,16.68-1.57,24.75-2.38c2.38-0.24,4.53-0.45,6.26-0.6" style="fill:none;stroke:#999;stroke-width:3"></path>
<path d="M1003.4,78.07c0.29,2.21-3.2,11.98-5.57,15.67" style="fill:none;stroke:#999;stroke-width:3"></path>
<path d="M1014.58,72.25c7.02,13.26,17.17,25,45.17,24.93c13.05-0.03,13.91-3.29,3.02-9.32" style="fill:none;stroke:#999;stroke-width:3"></path>

<path d="M1109.15,22.08c4.78,0.57,9.52,0.25,14.23-0.48c13.36-1.63,30.87-3.02,43.24-3.71c4.52-0.29,9.04-0.24,13.57,0.16" style="fill:none;stroke:#999;stroke-width:3"></path>
<path d="M1129.87,10.48c0.83,0.83,1.44,1.56,1.48,2.31C1131.75,20.88,1132.0,26,1132.2,29.62" style="fill:none;stroke:#999;stroke-width:3"></path>
<path d="M1156.26,9.77c0.74,0.86,0.86,1.75,0.76,2.81c-0.58,6.22-1.09,8.83-1.72,14.68" style="fill:none;stroke:#999;stroke-width:3"></path>
<path d="M1141.42,26.65c0,1.23-0.32,2.16-0.85,3.35c-4.52,10.11-14.35,23.98-33.57,33.04" style="fill:none;stroke:#999;stroke-width:3"></path>
<path d="M1108.25,39.7c4.16,0.79,8.26,0.31,12.51-0.22c16.99-2.11,33.26-4.05,44.75-4.72c3.95-0.52,7.86-0.35,11.74,0.51" style="fill:none;stroke:#999;stroke-width:3"></path>
<path d="M1131.0,49.12c0.75,0.75,1.18,1.62,1.24,2.21c0.63,5.91,1.26,9.91,1.67,13.16" style="fill:none;stroke:#999;stroke-width:3"></path>
<path d="M1133.24,50.15c10.6-1.89,19.96-3.1,28.53-4.17c2.7-0.34,5.15,0.94,4.3,3.96c-1.09,3.89-1.57,5.19-2.62,8.63" style="fill:none;stroke:#999;stroke-width:3"></path>
<path d="M1134.88,62.55c5.99-0.42,16.68-1.57,24.75-2.38c2.38-0.24,4.53-0.45,6.26-0.6" style="fill:none;stroke:#999;stroke-width:3"></path>
<path d="M1112.4,78.07c0.29,2.21-3.2,11.98-5.57,15.67" style="fill:none;stroke:#999;stroke-width:3"></path>
<path d="M1123.58,72.25c7.02,13.26,17.17,25,45.17,24.93c13.05-0.03,13.91-3.29,3.02-9.32" style="fill:none;stroke:#999;stroke-width:3"></path>
<path d="M1144.41,70.75c1.88,4.85,4.62,9.7,6.63,2.28" style="fill:none;stroke:#999;stroke-width:3"></path>

<path d="M1218.15,22.08c4.78,0.57,9.52,0.25,14.23-0.48c13.36-1.63,30.87-3.02,43.24-3.71c4.52-0.29,9.04-0.24,13.57,0.16" style="fill:none;stroke:#999;stroke-width:3"></path>
<path d="M1238.87,10.48c0.83,0.83,1.44,1.56,1.48,2.31C1240.75,20.88,1241.0,26,1241.2,29.62" style="fill:none;stroke:#999;stroke-width:3"></path>
<path d="M1265.26,9.77c0.74,0.86,0.86,1.75,0.76,2.81c-0.58,6.22-1.09,8.83-1.72,14.68" style="fill:none;stroke:#999;stroke-width:3"></path>
<path d="M1250.42,26.65c0,1.23-0.32,2.16-0.85,3.35c-4.52,10.11-14.35,23.98-33.57,33.04" style="fill:none;stroke:#999;stroke-width:3"></path>
<path d="M1217.25,39.7c4.16,0.79,8.26,0.31,12.51-0.22c16.99-2.11,33.26-4.05,44.75-4.72c3.95-0.52,7.86-0.35,11.74,0.51" style="fill:none;stroke:#999;stroke-width:3"></path>
<path d="M1240.0,49.12c0.75,0.75,1.18,1.62,1.24,2.21c0.63,5.91,1.26,9.91,1.67,13.16" style="fill:none;stroke:#999;stroke-width:3"></path>
<path d="M1242.24,50.15c10.6-1.89,19.96-3.1,28.53-4.17c2.7-0.34,5.15,0.94,4.3,3.96c-1.09,3.89-1.57,5.19-2.62,8.63" style="fill:none;stroke:#999;stroke-width:3"></path>
<path d="M1243.88,62.55c5.99-0.42,16.68-1.57,24.75-2.38c2.38-0.24,4.53-0.45,6.26-0.6" style="fill:none;stroke:#999;stroke-width:3"></path>
<path d="M1221.4,78.07c0.29,2.21-3.2,11.98-5.57,15.67" style="fill:none;stroke:#999;stroke-width:3"></path>
<path d="M1232.58,72.25c7.02,13.26,17.17,25,45.17,24.93c13.05-0.03,13.91-3.29,3.02-9.32" style="fill:none;stroke:#999;stroke-width:3"></path>
<path d="M1253.41,70.75c1.88,4.85,4.62,9.7,6.63,2.28" style="fill:none;stroke:#999;stroke-width:3"></path>
<path d="M1275.88,68.23C1281.68,70.7,1286.0,74,1290.49,80.34" style="fill:none;stroke:#999;stroke-width:3"></path>

</svg>