<svg width="1526px" height="109px" viewBox="0 0 1526 109" xmlns="http://www.w3.org/2000/svg" xmlns:xlink="http://www.w3.org/1999/xlink" xml:space="preserve" version="1.1" baseProfile="full">
<line x1="1" y1="1" x2="1525" y2="1" style="stroke:#ddd;stroke-width:2"></line>
<line x1="1" y1="1" x2="1" y2="108" style="stroke:#ddd;stroke-width:2"></line>
<line x1="1" y1="108" x2="1525" y2="108" style="stroke:#ddd;stroke-width:2"></line>
<line x1="1525" y1="1" x2="1525" y2="108" style="stroke:#ddd;stroke-width:2"></line>
<line x1="109" y1="1" x2="109" y2="108" style="stroke:#ddd;stroke-width:2"></line>
<line x1="218" y1="1" x2="218" y2="108" style="stroke:#ddd;stroke-width:2"></line>
<line x1="327" y1="1" x2="327" y2="108" style="stroke:#ddd;stroke-width:2"></line>
<line x1="436" y1="1" x2="436" y2="108" style="stroke:#ddd;stroke-width:2"></line>
<line x1="545" y1="1" x2="545" y2="108" style="stroke:#ddd;stroke-width:2"></line>
<line x1="654" y1="1" x2="654" y2="108" style="stroke:#ddd;stroke-width:2"></line>
<line x1="763" y1="1" x2="763" y2="108" style="stroke:#ddd;stroke-width:2"></line>
<line x1="872" y1="1" x2="872" y2="108" style="stroke:#ddd;stroke-width:2"></line>
<line x1="981" y1="1" x2="981" y2="108" style="stroke:#ddd;stroke-width:2"></line>
<line x1="1090" y1="1" x2="1090" y2="108" style="stroke:#ddd;stroke-width:2"></line>
<line x1="1199" y1="1" x2="1199" y2="108" style="stroke:#ddd;stroke-width:2"></line>
<line x1="1308" y1="1" x2="1308" y2="108" style="stroke:#ddd;stroke-width:2"></line>
<line x1="1417" y1="1" x2="1417" y2="108" style="stroke:#ddd;stroke-width:2"></line>
<line x1="1" y1="54" x2="1525" y2="54" style="stroke:#ddd;stroke-width:2;stroke-dasharray:3 3"></line>
<line x1="55" y1="1" x2="55" y2="108" style="stroke:#ddd;stroke-width:2;stroke-dasharray:3 3"></line>
<line x1="164" y1="1" x2="164" y2="108" style="stroke:#ddd;stroke-width:2;stroke-dasharray:3 3"></line>
<line x1="273" y1="1" x2="273" y2="108" style="stroke:#ddd;stroke-width:2;stroke-dasharray:3 3"></line>
<line x1="382" y1="1" x2="382" y2="108" style="stroke:#ddd;stroke-width:2;stroke-dasharray:3 3"></line>
<line x1="491" y1="1" x2="491" y2="108" style="stroke:#ddd;stroke-width:2;stroke-dasharray:3 3"></line>
<line x1="600" y1="1" x2="600" y2="108" style="stroke:#ddd;stroke-width:2;stroke-dasharray:3 3"></line>
<line x1="709" y1="1" x2="709" y2="108" style="stroke:#ddd;stroke-width:2;stroke-dasharray:3 3"></line>
<line x1="818" y1="1" x2="818" y2="108" style="stroke:#ddd;stroke-width:2;stroke-dasharray:3 3"></line>
<line x1="927" y1="1" x2="927" y2="108" style="stroke:#ddd;stroke-width:2;stroke-dasharray:3 3"></line>
<line x1="1036" y1="1" x2="1036" y2="108" style="stroke:#ddd;stroke-width:2;stroke-dasharray:3 3"></line>
<line x1="1145" y1="1" x2="1145" y2="108" style="stroke:#ddd;stroke-width:2;stroke-dasharray:3 3"></line>
<line x1="1254" y1="1" x2="1254" y2="108" style="stroke:#ddd;stroke-width:2;stroke-dasharray:3 3"></line>
<line x1="1363" y1="1" x2="1363" y2="108" style="stroke:#ddd;stroke-width:2;stroke-dasharray:3 3"></line>
<line x1="1472" y1="1" x2="1472" y2="108" style="stroke:#ddd;stroke-width:2;stroke-dasharray:3 3"></line>
<path d="M17.22,36c0.03,4.31-2.21,14.14-4.19,17.5" style="fill:none;stroke:#999;stroke-width:3"></path>

<path d="M126.22,36c0.03,4.31-2.21,14.14-4.19,17.5" style="fill:none;stroke:#999;stroke-width:3"></path>
<path d="M136.27,30.58c2.75,1.83,7.1,7.53,7.79,10.38" style="fill:none;stroke:#999;stroke-width:3"></path>

<path d="M235.22,36c0.03,4.31-2.21,14.14-4.19,17.5" style="fill:none;stroke:#999;stroke-width:3"></path>
<path d="M245.27,30.58c2.75,1.83,7.1,7.53,7.79,10.38" style="fill:none;stroke:#999;stroke-width:3"></path>
<path d="M240.37,14.75c1.09,0.5,1.74,2.25,1.96,3.25c0.22,1,0,73.75-0.22,80" style="fill:none;stroke:#999;stroke-width:3"></path>

<path d="M344.22,36c0.03,4.31-2.21,14.14-4.19,17.5" style="fill:none;stroke:#999;stroke-width:3"></path>
<path d="M354.27,30.58c2.75,1.83,7.1,7.53,7.79,10.38" style="fill:none;stroke:#999;stroke-width:3"></path>
<path d="M349.37,14.75c1.09,0.5,1.74,2.25,1.96,3.25c0.22,1,0,73.75-0.22,80" style="fill:none;stroke:#999;stroke-width:3"></path>
<path d="M386.69,13.75c0.1,1.06-0.13,1.93-0.41,2.33c-3.96,5.6-6.48,9.56-11.11,13.89c-1.53,1.43-1.97,2.83,0.35,2.33c7.57-1.63,21.72-4.29,31.38-6.15" style="fill:none;stroke:#999;stroke-width:3"></path>

<path d="M453.22,36c0.03,4.31-2.21,14.14-4.19,17.5" style="fill:none;stroke:#999;stroke-width:3"></path>
<path d="M463.27,30.58c2.75,1.83,7.1,7.53,7.79,10.38" style="fill:none;stroke:#999;stroke-width:3"></path>
<path d="M458.37,14.75c1.09,0.5,1.74,2.25,1.96,3.25c0.22,1,0,73.75-0.22,80" style="fill:none;stroke:#999;stroke-width:3"></path>
<path d="M495.69,13.75c0.1,1.06-0.13,1.93-0.41,2.33c-3.96,5.6-6.48,9.56-11.11,13.89c-1.53,1.43-1.97,2.83,0.35,2.33c7.57-1.63,21.72-4.29,31.38-6.15" style="fill:none;stroke:#999;stroke-width:3"></path>
<path d="M507.6,20.32c4.47,1.98,11.54,8.15,12.65,11.23" style="fill:none;stroke:#999;stroke-width:3"></path>

<path d="M562.22,36c0.03,4.31-2.21,14.14-4.19,17.5" style="fill:none;stroke:#999;stroke-width:3"></path>
<path d="M572.27,30.58c2.75,1.83,7.1,7.53,7.79,10.38" style="fill:none;stroke:#999;stroke-width:3"></path>
<path d="M567.37,14.75c1.09,0.5,1.74,2.25,1.96,3.25c0.22,1,0,73.75-0.22,80" style="fill:none;stroke:#999;stroke-width:3"></path>
<path d="M604.69,13.75c0.1,1.06-0.13,1.93-0.41,2.33c-3.96,5.6-6.48,9.56-11.11,13.89c-1.53,1.43-1.97,2.83,0.35,2.33c7.57-1.63,21.72-4.29,31.38-6.15" style="fill:none;stroke:#999;stroke-width:3"></path>
<path d="M616.6,20.32c4.47,1.98,11.54,8.15,12.65,11.23" style="fill:none;stroke:#999;stroke-width:3"></path>
<path d="M593.15,36.03c0.21,0.25,0.33,1.06,0.21,1.39c-1.55,4.09-6.78,9.56-9.67,12.43c-0.91,0.91-0.47,1.89,0.81,1.39c4.39-1.72,9.85-3.06,14.99-4.84" style="fill:none;stroke:#999;stroke-width:3"></path>

<path d="M671.22,36c0.03,4.31-2.21,14.14-4.19,17.5" style="fill:none;stroke:#999;stroke-width:3"></path>
<path d="M681.27,30.58c2.75,1.83,7.1,7.53,7.79,10.38" style="fill:none;stroke:#999;stroke-width:3"></path>
<path d="M676.37,14.75c1.09,0.5,1.74,2.25,1.96,3.25c0.22,1,0,73.75-0.22,80" style="fill:none;stroke:#999;stroke-width:3"></path>
<path d="M713.69,13.75c0.1,1.06-0.13,1.93-0.41,2.33c-3.96,5.6-6.48,9.56-11.11,13.89c-1.53,1.43-1.97,2.83,0.35,2.33c7.57-1.63,21.72-4.29,31.38-6.15" style="fill:none;stroke:#999;stroke-width:3"></path>
<path d="M725.6,20.32c4.47,1.98,11.54,8.15,12.65,11.23" style="fill:none;stroke:#999;stroke-width:3"></path>
<path d="M702.15,36.03c0.21,0.25,0.33,1.06,0.21,1.39c-1.55,4.09-6.78,9.56-9.67,12.43c-0.91,0.91-0.47,1.89,0.81,1.39c4.39-1.72,9.85-3.06,14.99-4.84" style="fill:none;stroke:#999;stroke-width:3"></path>
<path d="M704.97,42.97c1.98,1.26,5.12,5.17,5.61,7.13" style="fill:none;stroke:#999;stroke-width:3"></path>

<path d="M780.22,36c0.03,4.31-2.21,14.14-4.19,17.5" style="fill:none;stroke:#999;stroke-width:3"></path>
<path d="M790.27,30.58c2.75,1.83,7.1,7.53,7.79,10.38" style="fill:none;stroke:#999;stroke-width:3"></path>
<path d="M785.37,14.75c1.09,0.5,1.74,2.25,1.96,3.25c0.22,1,0,73.75-0.22,80" style="fill:none;stroke:#999;stroke-width:3"></path>
<path d="M822.69,13.75c0.1,1.06-0.13,1.93-0.41,2.33c-3.96,5.6-6.48,9.56-11.11,13.89c-1.53,1.43-1.97,2.83,0.35,2.33c7.57-1.63,21.72-4.29,31.38-6.15" style="fill:none;stroke:#999;stroke-width:3"></path>
<path d="M834.6,20.32c4.47,1.98,11.54,8.15,12.65,11.23" style="fill:none;stroke:#999;stroke-width:3"></path>
<path d="M811.15,36.03c0.21,0.25,0.33,1.06,0.21,1.39c-1.55,4.09-6.78,9.56-9.67,12.43c-0.91,0.91-0.47,1.89,0.81,1.39c4.39-1.72,9.85-3.06,14.99-4.84" style="fill:none;stroke:#999;stroke-width:3"></path>
<path d="M813.97,42.97c1.98,1.26,5.12,5.17,5.61,7.13" style="fill:none;stroke:#999;stroke-width:3"></path>
<path d="M841.96,33.94c0.21,0.25-0.05,1.06-0.18,1.39c-1.55,4.09-4.95,8.15-7.84,11.01c-0.92,0.91-0.5,2.25,0.81,1.87c4.2-1.25,10.49-3.14,15.44-4.44" style="fill:none;stroke:#999;stroke-width:3"></path>

<path d="M889.22,36c0.03,4.31-2.21,14.14-4.19,17.5" style="fill:none;stroke:#999;stroke-width:3"></path>
<path d="M899.27,30.58c2.75,1.83,7.1,7.53,7.79,10.38" style="fill:none;stroke:#999;stroke-width:3"></path>
<path d="M894.37,14.75c1.09,0.5,1.74,2.25,1.96,3.25c0.22,1,0,73.75-0.22,80" style="fill:none;stroke:#999;stroke-width:3"></path>
<path d="M931.69,13.75c0.1,1.06-0.13,1.93-0.41,2.33c-3.96,5.6-6.48,9.56-11.11,13.89c-1.53,1.43-1.97,2.83,0.35,2.33c7.57-1.63,21.72-4.29,31.38-6.15" style="fill:none;stroke:#999;stroke-width:3"></path>
<path d="M943.6,20.32c4.47,1.98,11.54,8.15,12.65,11.23" style="fill:none;stroke:#999;stroke-width:3"></path>
<path d="M920.15,36.03c0.21,0.25,0.33,1.06,0.21,1.39c-1.55,4.09-6.78,9.56-9.67,12.43c-0.91,0.91-0.47,1.89,0.81,1.39c4.39-1.72,9.85-3.06,14.99-4.84" style="fill:none;stroke:#999;stroke-width:3"></path>
<path d="M922.97,42.97c1.98,1.26,5.12,5.17,5.61,7.13" style="fill:none;stroke:#999;stroke-width:3"></path>
<path d="M950.96,33.94c0.21,0.25-0.05,1.06-0.18,1.39c-1.55,4.09-4.95,8.15-7.84,11.01c-0.92,0.91-0.5,2.25,0.81,1.87c4.2-1.25,10.49-3.14,15.44-4.44" style="fill:none;stroke:#999;stroke-width:3"></path>
<path d="M956.25,40.06c2.64,1.73,6.81,7.12,7.47,9.81" style="fill:none;stroke:#999;stroke-width:3"></path>

<path d="M998.22,36c0.03,4.31-2.21,14.14-4.19,17.5" style="fill:none;stroke:#999;stroke-width:3"></path>
<path d="M1008.27,30.58c2.75,1.83,7.1,7.53,7.79,10.38" style="fill:none;stroke:#999;stroke-width:3"></path>
<path d="M1003.37,14.75c1.09,0.5,1.74,2.25,1.96,3.25c0.22,1,0,73.75-0.22,80" style="fill:none;stroke:#999;stroke-width:3"></path>
<path d="M1040.69,13.75c0.1,1.06-0.13,1.93-0.41,2.33c-3.96,5.6-6.48,9.56-11.11,13.89c-1.53,1.43-1.97,2.83,0.35,2.33c7.57-1.63,21.72-4.29,31.38-6.15" style="fill:none;stroke:#999;stroke-width:3"></path>
<path d="M1052.6,20.32c4.47,1.98,11.54,8.15,12.65,11.23" style="fill:none;stroke:#999;stroke-width:3"></path>
<path d="M1029.15,36.03c0.21,0.25,0.33,1.06,0.21,1.39c-1.55,4.09-6.78,9.56-9.67,12.43c-0.91,0.91-0.47,1.89,0.81,1.39c4.39-1.72,9.85-3.06,14.99-4.84" style="fill:none;stroke:#999;stroke-width:3"></path>
<path d="M1031.97,42.97c1.98,1.26,5.12,5.17,5.61,7.13" style="fill:none;stroke:#999;stroke-width:3"></path>
<path d="M1059.96,33.94c0.21,0.25-0.05,1.06-0.18,1.39c-1.55,4.09-4.95,8.15-7.84,11.01c-0.92,0.91-0.5,2.25,0.81,1.87c4.2-1.25,10.49-3.14,15.44-4.44" style="fill:none;stroke:#999;stroke-width:3"></path>
<path d="M1065.25,40.06c2.64,1.73,6.81,7.12,7.47,9.81" style="fill:none;stroke:#999;stroke-width:3"></path>
<path d="M1044.17,46.5c0.08,0.59,0.28,1.57-0.16,2.36C1040.75,54.75,1030.0,65,1015.5,71.44" style="fill:none;stroke:#999;stroke-width:3"></path>

<path d="M1107.22,36c0.03,4.31-2.21,14.14-4.19,17.5" style="fill:none;stroke:#999;stroke-width:3"></path>
<path d="M1117.27,30.58c2.75,1.83,7.1,7.53,7.79,10.38" style="fill:none;stroke:#999;stroke-width:3"></path>
<path d="M1112.37,14.75c1.09,0.5,1.74,2.25,1.96,3.25c0.22,1,0,73.75-0.22,80" style="fill:none;stroke:#999;stroke-width:3"></path>
<path d="M1149.69,13.75c0.1,1.06-0.13,1.93-0.41,2.33c-3.96,5.6-6.48,9.56-11.11,13.89c-1.53,1.43-1.97,2.83,0.35,2.33c7.57-1.63,21.72-4.29,31.38-6.15" style="fill:none;stroke:#999;stroke-width:3"></path>
<path d="M1161.6,20.32c4.47,1.98,11.54,8.15,12.65,11.23" style="fill:none;stroke:#999;stroke-width:3"></path>
<path d="M1138.15,36.03c0.21,0.25,0.33,1.06,0.21,1.39c-1.55,4.09-6.78,9.56-9.67,12.43c-0.91,0.91-0.47,1.89,0.81,1.39c4.39-1.72,9.85-3.06,14.99-4.84" style="fill:none;stroke:#999;stroke-width:3"></path>
<path d="M1140.97,42.97c1.98,1.26,5.12,5.17,5.61,7.13" style="fill:none;stroke:#999;stroke-width:3"></path>
<path d="M1168.96,33.94c0.21,0.25-0.05,1.06-0.18,1.39c-1.55,4.09-4.95,8.15-7.84,11.01c-0.92,0.91-0.5,2.25,0.81,1.87c4.2-1.25,10.49-3.14,15.44-4.44" style="fill:none;stroke:#999;stroke-width:3"></path>
<path d="M1174.25,40.06c2.64,1.73,6.81,7.12,7.47,9.81" style="fill:none;stroke:#999;stroke-width:3"></path>
<path d="M1153.17,46.5c0.08,0.59,0.28,1.57-0.16,2.36C1149.75,54.75,1139.0,65,1124.5,71.44" style="fill:none;stroke:#999;stroke-width:3"></path>
<path d="M1152.47,50.12c4.19,3.61,22.25,15.39,26.88,18.04c1.57,0.9,3.58,1.28,5.15,1.53" style="fill:none;stroke:#999;stroke-width:3"></path>

<path d="M1216.22,36c0.03,4.31-2.21,14.14-4.19,17.5" style="fill:none;stroke:#999;stroke-width:3"></path>
<path d="M1226.27,30.58c2.75,1.83,7.1,7.53,7.79,10.38" style="fill:none;stroke:#999;stroke-width:3"></path>
<path d="M1221.37,14.75c1.09,0.5,1.74,2.25,1.96,3.25c0.22,1,0,73.75-0.22,80" style="fill:none;stroke:#999;stroke-width:3"></path>
<path d="M1258.69,13.75c0.1,1.06-0.13,1.93-0.41,2.33c-3.96,5.6-6.48,9.56-11.11,13.89c-1.53,1.43-1.97,2.83,0.35,2.33c7.57-1.63,21.72-4.29,31.38-6.15" style="fill:none;stroke:#999;stroke-width:3"></path>
<path d="M1270.6,20.32c4.47,1.98,11.54,8.15,12.65,11.23" style="fill:none;stroke:#999;stroke-width:3"></path>
<path d="M1247.15,36.03c0.21,0.25,0.33,1.06,0.21,1.39c-1.55,4.09-6.78,9.56-9.67,12.43c-0.91,0.91-0.47,1.89,0.81,1.39c4.39-1.72,9.85-3.06,14.99-4.84" style="fill:none;stroke:#999;stroke-width:3"></path>
<path d="M1249.97,42.97c1.98,1.26,5.12,5.17,5.61,7.13" style="fill:none;stroke:#999;stroke-width:3"></path>
<path d="M1277.96,33.94c0.21,0.25-0.05,1.06-0.18,1.39c-1.55,4.09-4.95,8.15-7.84,11.01c-0.92,0.91-0.5,2.25,0.81,1.87c4.2-1.25,10.49-3.14,15.44-4.44" style="fill:none;stroke:#999;stroke-width:3"></path>
<path d="M1283.25,40.06c2.64,1.73,6.81,7.12,7.47,9.81" style="fill:none;stroke:#999;stroke-width:3"></path>
<path d="M1262.17,46.5c0.08,0.59,0.28,1.57-0.16,2.36C1258.75,54.75,1248.0,65,1233.5,71.44" style="fill:none;stroke:#999;stroke-width:3"></path>
<path d="M1261.47,50.12c4.19,3.61,22.25,15.39,26.88,18.04c1.57,0.9,3.58,1.28,5.15,1.53" style="fill:none;stroke:#999;stroke-width:3"></path>
<path d="M1266.16,60.89c0.07,0.38,0.25,1.02-0.14,1.51c-2.55,3.23-11.77,9.52-23.77,13.92" style="fill:none;stroke:#999;stroke-width:3"></path>

<path d="M1325.22,36c0.03,4.31-2.21,14.14-4.19,17.5" style="fill:none;stroke:#999;stroke-width:3"></path>
<path d="M1335.27,30.58c2.75,1.83,7.1,7.53,7.79,10.38" style="fill:none;stroke:#999;stroke-width:3"></path>
<path d="M1330.37,14.75c1.09,0.5,1.74,2.25,1.96,3.25c0.22,1,0,73.75-0.22,80" style="fill:none;stroke:#999;stroke-width:3"></path>
<path d="M1367.69,13.75c0.1,1.06-0.13,1.93-0.41,2.33c-3.96,5.6-6.48,9.56-11.11,13.89c-1.53,1.43-1.97,2.83,0.35,2.33c7.57-1.63,21.72-4.29,31.38-6.15" style="fill:none;stroke:#999;stroke-width:3"></path>
<path d="M1379.6,20.32c4.47,1.98,11.54,8.15,12.65,11.23" style="fill:none;stroke:#999;stroke-width:3"></path>
<path d="M1356.15,36.03c0.21,0.25,0.33,1.06,0.21,1.39c-1.55,4.09-6.78,9.56-9.67,12.43c-0.91,0.91-0.47,1.89,0.81,1.39c4.39-1.72,9.85-3.06,14.99-4.84" style="fill:none;stroke:#999;stroke-width:3"></path>
<path d="M1358.97,42.97c1.98,1.26,5.12,5.17,5.61,7.13" style="fill:none;stroke:#999;stroke-width:3"></path>
<path d="M1386.96,33.94c0.21,0.25-0.05,1.06-0.18,1.39c-1.55,4.09-4.95,8.15-7.84,11.01c-0.92,0.91-0.5,2.25,0.81,1.87c4.2-1.25,10.49-3.14,15.44-4.44" style="fill:none;stroke:#999;stroke-width:3"></path>
<path d="M1392.25,40.06c2.64,1.73,6.81,7.12,7.47,9.81" style="fill:none;stroke:#999;stroke-width:3"></path>
<path d="M1371.17,46.5c0.08,0.59,0.28,1.57-0.16,2.36C1367.75,54.75,1357.0,65,1342.5,71.44" style="fill:none;stroke:#999;stroke-width:3"></path>
<path d="M1370.47,50.12c4.19,3.61,22.25,15.39,26.88,18.04c1.57,0.9,3.58,1.28,5.15,1.53" style="fill:none;stroke:#999;stroke-width:3"></path>
<path d="M1375.16,60.89c0.07,0.38,0.25,1.02-0.14,1.51c-2.55,3.23-11.77,9.52-23.77,13.92" style="fill:none;stroke:#999;stroke-width:3"></path>
<path d="M1381.27,70.61c0.08,0.39,0.29,1.06-0.16,1.56c-3.1,3.41-12.79,11.16-28.41,14.93" style="fill:none;stroke:#999;stroke-width:3"></path>

<path d="M1434.22,36c0.03,4.31-2.21,14.14-4.19,17.5" style="fill:none;stroke:#999;stroke-width:3"></path>
<path d="M1444.27,30.58c2.75,1.83,7.1,7.53,7.79,10.38" style="fill:none;stroke:#999;stroke-width:3"></path>
<path d="M1439.37,14.75c1.09,0.5,1.74,2.25,1.96,3.25c0.22,1,0,73.75-0.22,80" style="fill:none;stroke:#999;stroke-width:3"></path>
<path d="M1476.69,13.75c0.1,1.06-0.13,1.93-0.41,2.33c-3.96,5.6-6.48,9.56-11.11,13.89c-1.53,1.43-1.97,2.83,0.35,2.33c7.57-1.63,21.72-4.29,31.38-6.15" style="fill:none;stroke:#999;stroke-width:3"></path>
<path d="M1488.6,20.32c4.47,1.98,11.54,8.15,12.65,11.23" style="fill:none;stroke:#999;stroke-width:3"></path>
<path d="M1465.15,36.03c0.21,0.25,0.33,1.06,0.21,1.39c-1.55,4.09-6.78,9.56-9.67,12.43c-0.91,0.91-0.47,1.89,0.81,1.39c4.39-1.72,9.85-3.06,14.99-4.84" style="fill:none;stroke:#999;stroke-width:3"></path>
<path d="M1467.97,42.97c1.98,1.26,5.12,5.17,5.61,7.13" style="fill:none;stroke:#999;stroke-width:3"></path>
<path d="M1495.96,33.94c0.21,0.25-0.05,1.06-0.18,1.39c-1.55,4.09-4.95,8.15-7.84,11.01c-0.92,0.91-0.5,2.25,0.81,1.87c4.2-1.25,10.49-3.14,15.44-4.44" style="fill:none;stroke:#999;stroke-width:3"></path>
<path d="M1501.25,40.06c2.64,1.73,6.81,7.12,7.47,9.81" style="fill:none;stroke:#999;stroke-width:3"></path>
<path d="M1480.17,46.5c0.08,0.59,0.28,1.57-0.16,2.36C1476.75,54.75,1466.0,65,1451.5,71.44" style="fill:none;stroke:#999;stroke-width:3"></path>
<path d="M1479.47,50.12c4.19,3.61,22.25,15.39,26.88,18.04c1.57,0.9,3.58,1.28,5.15,1.53" style="fill:none;stroke:#999;stroke-width:3"></path>
<path d="M1484.16,60.89c0.07,0.38,0.25,1.02-0.14,1.51c-2.55,3.23-11.77,9.52-23.77,13.92" style="fill:none;stroke:#999;stroke-width:3"></path>
<path d="M1490.27,70.61c0.08,0.39,0.29,1.06-0.16,1.56c-3.1,3.41-12.79,11.16-28.41,14.93" style="fill:none;stroke:#999;stroke-width:3"></path>
<path d="M1497.37,79.96c0.11,0.46,0.22,1.17-0.21,1.83c-2.55,3.85-17.22,12.29-37.3,17.46" style="fill:none;stroke:#999;stroke-width:3"></path>

</svg>