<svg width="654px" height="109px" viewBox="0 0 654 109" xmlns="http://www.w3.org/2000/svg" xmlns:xlink="http://www.w3.org/1999/xlink" xml:space="preserve" version="1.1" baseProfile="full">
<line x1="1" y1="1" x2="653" y2="1" style="stroke:#ddd;stroke-width:2"></line>
<line x1="1" y1="1" x2="1" y2="108" style="stroke:#ddd;stroke-width:2"></line>
<line x1="1" y1="108" x2="653" y2="108" style="stroke:#ddd;stroke-width:2"></line>
<line x1="653" y1="1" x2="653" y2="108" style="stroke:#ddd;stroke-width:2"></line>
<line x1="109" y1="1" x2="109" y2="108" style="stroke:#ddd;stroke-width:2"></line>
<line x1="218" y1="1" x2="218" y2="108" style="stroke:#ddd;stroke-width:2"></line>
<line x1="327" y1="1" x2="327" y2="108" style="stroke:#ddd;stroke-width:2"></line>
<line x1="436" y1="1" x2="436" y2="108" style="stroke:#ddd;stroke-width:2"></line>
<line x1="545" y1="1" x2="545" y2="108" style="stroke:#ddd;stroke-width:2"></line>
<line x1="1" y1="54" x2="653" y2="54" style="stroke:#ddd;stroke-width:2;stroke-dasharray:3 3"></line>
<line x1="55" y1="1" x2="55" y2="108" style="stroke:#ddd;stroke-width:2;stroke-dasharray:3 3"></line>
<line x1="164" y1="1" x2="164" y2="108" style="stroke:#ddd;stroke-width:2;stroke-dasharray:3 3"></line>
<line x1="273" y1="1" x2="273" y2="108" style="stroke:#ddd;stroke-width:2;stroke-dasharray:3 3"></line>
<line x1="382" y1="1" x2="382" y2="108" style="stroke:#ddd;stroke-width:2;stroke-dasharray:3 3"></line>
<line x1="491" y1="1" x2="491" y2="108" style="stroke:#ddd;stroke-width:2;stroke-dasharray:3 3"></line>
<line x1="600" y1="1" x2="600" y2="108" style="stroke:#ddd;stroke-width:2;stroke-dasharray:3 3"></line>
<path d="M25.76,35.64c0.99,0.99,1.2,2.85,1.15,4.86c-0.41,18.75-5.41,45.75-16.1,54.47" style="fill:none;stroke:#999;stroke-width:3"></path>

<path d="M134.76,35.64c0.99,0.99,1.2,2.85,1.15,4.86c-0.41,18.75-5.41,45.75-16.1,54.47" style="fill:none;stroke:#999;stroke-width:3"></path>
<path d="M131.75,33.7c2.66,0.58,5.32,0.7,7.99,0.37c9.35-0.78,34.33-3.32,49.51-3.97c2.6-0.21,5.18-0.06,7.75,0.44" style="fill:none;stroke:#999;stroke-width:3"></path>

<path d="M243.76,35.64c0.99,0.99,1.2,2.85,1.15,4.86c-0.41,18.75-5.41,45.75-16.1,54.47" style="fill:none;stroke:#999;stroke-width:3"></path>
<path d="M240.75,33.7c2.66,0.58,5.32,0.7,7.99,0.37c9.35-0.78,34.33-3.32,49.51-3.97c2.6-0.21,5.18-0.06,7.75,0.44" style="fill:none;stroke:#999;stroke-width:3"></path>
<path d="M255.75,54.75c2.75,1.5,7.75,8,10.25,14" style="fill:none;stroke:#999;stroke-width:3"></path>

<path d="M352.76,35.64c0.99,0.99,1.2,2.85,1.15,4.86c-0.41,18.75-5.41,45.75-16.1,54.47" style="fill:none;stroke:#999;stroke-width:3"></path>
<path d="M349.75,33.7c2.66,0.58,5.32,0.7,7.99,0.37c9.35-0.78,34.33-3.32,49.51-3.97c2.6-0.21,5.18-0.06,7.75,0.44" style="fill:none;stroke:#999;stroke-width:3"></path>
<path d="M364.75,54.75c2.75,1.5,7.75,8,10.25,14" style="fill:none;stroke:#999;stroke-width:3"></path>
<path d="M380.75,11c1.72,1.84,2.29,3.34,2.54,7.29C385.38,51.25,396.5,80.75,416.75,93c6.69,4.05,5.71,2.71,4.85-5.42" style="fill:none;stroke:#999;stroke-width:3"></path>

<path d="M461.76,35.64c0.99,0.99,1.2,2.85,1.15,4.86c-0.41,18.75-5.41,45.75-16.1,54.47" style="fill:none;stroke:#999;stroke-width:3"></path>
<path d="M458.75,33.7c2.66,0.58,5.32,0.7,7.99,0.37c9.35-0.78,34.33-3.32,49.51-3.97c2.6-0.21,5.18-0.06,7.75,0.44" style="fill:none;stroke:#999;stroke-width:3"></path>
<path d="M473.75,54.75c2.75,1.5,7.75,8,10.25,14" style="fill:none;stroke:#999;stroke-width:3"></path>
<path d="M489.75,11c1.72,1.84,2.29,3.34,2.54,7.29C494.38,51.25,505.5,80.75,525.75,93c6.69,4.05,5.71,2.71,4.85-5.42" style="fill:none;stroke:#999;stroke-width:3"></path>
<path d="M518.21,42.14c0.29,1.23,0.12,2.94-0.46,4.5c-3.62,9.73-15.5,31.23-35.19,44.58" style="fill:none;stroke:#999;stroke-width:3"></path>

<path d="M570.76,35.64c0.99,0.99,1.2,2.85,1.15,4.86c-0.41,18.75-5.41,45.75-16.1,54.47" style="fill:none;stroke:#999;stroke-width:3"></path>
<path d="M567.75,33.7c2.66,0.58,5.32,0.7,7.99,0.37c9.35-0.78,34.33-3.32,49.51-3.97c2.6-0.21,5.18-0.06,7.75,0.44" style="fill:none;stroke:#999;stroke-width:3"></path>
<path d="M582.75,54.75c2.75,1.5,7.75,8,10.25,14" style="fill:none;stroke:#999;stroke-width:3"></path>
<path d="M598.75,11c1.72,1.84,2.29,3.34,2.54,7.29C603.38,51.25,614.5,80.75,634.75,93c6.69,4.05,5.71,2.71,4.85-5.42" style="fill:none;stroke:#999;stroke-width:3"></path>
<path d="M627.21,42.14c0.29,1.23,0.12,2.94-0.46,4.5c-3.62,9.73-15.5,31.23-35.19,44.58" style="fill:none;stroke:#999;stroke-width:3"></path>
<path d="M618.25,11.5c3.1,2,8.05,6.57,9.5,10" style="fill:none;stroke:#999;stroke-width:3"></path>

</svg>