<svg width="654px" height="109px" viewBox="0 0 654 109" xmlns="http://www.w3.org/2000/svg" xmlns:xlink="http://www.w3.org/1999/xlink" xml:space="preserve" version="1.1" baseProfile="full">
<line x1="1" y1="1" x2="653" y2="1" style="stroke:#ddd;stroke-width:2"></line>
<line x1="1" y1="1" x2="1" y2="108" style="stroke:#ddd;stroke-width:2"></line>
<line x1="1" y1="108" x2="653" y2="108" style="stroke:#ddd;stroke-width:2"></line>
<line x1="653" y1="1" x2="653" y2="108" style="stroke:#ddd;stroke-width:2"></line>
<line x1="109" y1="1" x2="109" y2="108" style="stroke:#ddd;stroke-width:2"></line>
<line x1="218" y1="1" x2="218" y2="108" style="stroke:#ddd;stroke-width:2"></line>
<line x1="327" y1="1" x2="327" y2="108" style="stroke:#ddd;stroke-width:2"></line>
<line x1="436" y1="1" x2="436" y2="108" style="stroke:#ddd;stroke-width:2"></line>
<line x1="545" y1="1" x2="545" y2="108" style="stroke:#ddd;stroke-width:2"></line>
<line x1="1" y1="54" x2="653" y2="54" style="stroke:#ddd;stroke-width:2;stroke-dasharray:3 3"></line>
<line x1="55" y1="1" x2="55" y2="108" style="stroke:#ddd;stroke-width:2;stroke-dasharray:3 3"></line>
<line x1="164" y1="1" x2="164" y2="108" style="stroke:#ddd;stroke-width:2;stroke-dasharray:3 3"></line>
<line x1="273" y1="1" x2="273" y2="108" style="stroke:#ddd;stroke-width:2;stroke-dasharray:3 3"></line>
<line x1="382" y1="1" x2="382" y2="108" style="stroke:#ddd;stroke-width:2;stroke-dasharray:3 3"></line>
<line x1="491" y1="1" x2="491" y2="108" style="stroke:#ddd;stroke-width:2;stroke-dasharray:3 3"></line>
<line x1="600" y1="1" x2="600" y2="108" style="stroke:#ddd;stroke-width:2;stroke-dasharray:3 3"></line>
<path d="M16.25,35.95c4.41,0.75,8.79,0.51,13.24-0.06c18.89-2.39,33.3-4.27,47.03-5.58c5.37-0.52,9.98-0.64,15.23,0.48" style="fill:none;stroke:#999;stroke-width:3"></path>

<path d="M125.25,35.95c4.41,0.75,8.79,0.51,13.24-0.06c18.89-2.39,33.3-4.27,47.03-5.58c5.37-0.52,9.98-0.64,15.23,0.48" style="fill:none;stroke:#999;stroke-width:3"></path>
<path d="M128.5,64.83c0.88,0.67,2.68,1,3.77,0.64c9.73-3.22,20.17-6.63,27.48-9.1" style="fill:none;stroke:#999;stroke-width:3"></path>

<path d="M234.25,35.95c4.41,0.75,8.79,0.51,13.24-0.06c18.89-2.39,33.3-4.27,47.03-5.58c5.37-0.52,9.98-0.64,15.23,0.48" style="fill:none;stroke:#999;stroke-width:3"></path>
<path d="M237.5,64.83c0.88,0.67,2.68,1,3.77,0.64c9.73-3.22,20.17-6.63,27.48-9.1" style="fill:none;stroke:#999;stroke-width:3"></path>
<path d="M255.45,42c1.09,1.09,1.18,2.57,1.18,4.37c0,16.44,0.62,36.13-17.82,48.35" style="fill:none;stroke:#999;stroke-width:3"></path>

<path d="M343.25,35.95c4.41,0.75,8.79,0.51,13.24-0.06c18.89-2.39,33.3-4.27,47.03-5.58c5.37-0.52,9.98-0.64,15.23,0.48" style="fill:none;stroke:#999;stroke-width:3"></path>
<path d="M346.5,64.83c0.88,0.67,2.68,1,3.77,0.64c9.73-3.22,20.17-6.63,27.48-9.1" style="fill:none;stroke:#999;stroke-width:3"></path>
<path d="M364.45,42c1.09,1.09,1.18,2.57,1.18,4.37c0,16.44,0.62,36.13-17.82,48.35" style="fill:none;stroke:#999;stroke-width:3"></path>
<path d="M380.0,11c1.38,1.5,1.82,2.99,2.06,5.9c2.81,34.35,13.4,64.03,33.97,76.06c6.6,3.86,5.42,0.77,4.58-7.17" style="fill:none;stroke:#999;stroke-width:3"></path>

<path d="M452.25,35.95c4.41,0.75,8.79,0.51,13.24-0.06c18.89-2.39,33.3-4.27,47.03-5.58c5.37-0.52,9.98-0.64,15.23,0.48" style="fill:none;stroke:#999;stroke-width:3"></path>
<path d="M455.5,64.83c0.88,0.67,2.68,1,3.77,0.64c9.73-3.22,20.17-6.63,27.48-9.1" style="fill:none;stroke:#999;stroke-width:3"></path>
<path d="M473.45,42c1.09,1.09,1.18,2.57,1.18,4.37c0,16.44,0.62,36.13-17.82,48.35" style="fill:none;stroke:#999;stroke-width:3"></path>
<path d="M489.0,11c1.38,1.5,1.82,2.99,2.06,5.9c2.81,34.35,13.4,64.03,33.97,76.06c6.6,3.86,5.42,0.77,4.58-7.17" style="fill:none;stroke:#999;stroke-width:3"></path>
<path d="M516.47,42.64c0.09,1.15-0.12,3.03-0.68,4.64c-4.54,12.97-14.54,31.35-31.98,45.19" style="fill:none;stroke:#999;stroke-width:3"></path>

<path d="M561.25,35.95c4.41,0.75,8.79,0.51,13.24-0.06c18.89-2.39,33.3-4.27,47.03-5.58c5.37-0.52,9.98-0.64,15.23,0.48" style="fill:none;stroke:#999;stroke-width:3"></path>
<path d="M564.5,64.83c0.88,0.67,2.68,1,3.77,0.64c9.73-3.22,20.17-6.63,27.48-9.1" style="fill:none;stroke:#999;stroke-width:3"></path>
<path d="M582.45,42c1.09,1.09,1.18,2.57,1.18,4.37c0,16.44,0.62,36.13-17.82,48.35" style="fill:none;stroke:#999;stroke-width:3"></path>
<path d="M598.0,11c1.38,1.5,1.82,2.99,2.06,5.9c2.81,34.35,13.4,64.03,33.97,76.06c6.6,3.86,5.42,0.77,4.58-7.17" style="fill:none;stroke:#999;stroke-width:3"></path>
<path d="M625.47,42.64c0.09,1.15-0.12,3.03-0.68,4.64c-4.54,12.97-14.54,31.35-31.98,45.19" style="fill:none;stroke:#999;stroke-width:3"></path>
<path d="M617.25,11c3.18,2,8.52,6.82,10,10.25" style="fill:none;stroke:#999;stroke-width:3"></path>

</svg>