<svg width="654px" height="109px" viewBox="0 0 654 109" xmlns="http://www.w3.org/2000/svg" xmlns:xlink="http://www.w3.org/1999/xlink" xml:space="preserve" version="1.1" baseProfile="full">
<line x1="1" y1="1" x2="653" y2="1" style="stroke:#ddd;stroke-width:2"></line>
<line x1="1" y1="1" x2="1" y2="108" style="stroke:#ddd;stroke-width:2"></line>
<line x1="1" y1="108" x2="653" y2="108" style="stroke:#ddd;stroke-width:2"></line>
<line x1="653" y1="1" x2="653" y2="108" style="stroke:#ddd;stroke-width:2"></line>
<line x1="109" y1="1" x2="109" y2="108" style="stroke:#ddd;stroke-width:2"></line>
<line x1="218" y1="1" x2="218" y2="108" style="stroke:#ddd;stroke-width:2"></line>
<line x1="327" y1="1" x2="327" y2="108" style="stroke:#ddd;stroke-width:2"></line>
<line x1="436" y1="1" x2="436" y2="108" style="stroke:#ddd;stroke-width:2"></line>
<line x1="545" y1="1" x2="545" y2="108" style="stroke:#ddd;stroke-width:2"></line>
<line x1="1" y1="54" x2="653" y2="54" style="stroke:#ddd;stroke-width:2;stroke-dasharray:3 3"></line>
<line x1="55" y1="1" x2="55" y2="108" style="stroke:#ddd;stroke-width:2;stroke-dasharray:3 3"></line>
<line x1="164" y1="1" x2="164" y2="108" style="stroke:#ddd;stroke-width:2;stroke-dasharray:3 3"></line>
<line x1="273" y1="1" x2="273" y2="108" style="stroke:#ddd;stroke-width:2;stroke-dasharray:3 3"></line>
<line x1="382" y1="1" x2="382" y2="108" style="stroke:#ddd;stroke-width:2;stroke-dasharray:3 3"></line>
<line x1="491" y1="1" x2="491" y2="108" style="stroke:#ddd;stroke-width:2;stroke-dasharray:3 3"></line>
<line x1="600" y1="1" x2="600" y2="108" style="stroke:#ddd;stroke-width:2;stroke-dasharray:3 3"></line>
<path d="M25.9,31.5c0.99,0.99,1.24,2.38,1.24,3.74c0,18.01-2.39,42.26-15.08,56.97" style="fill:none;stroke:#999;stroke-width:3"></path>

<path d="M134.9,31.5c0.99,0.99,1.24,2.38,1.24,3.74c0,18.01-2.39,42.26-15.08,56.97" style="fill:none;stroke:#999;stroke-width:3"></path>
<path d="M136.5,33.7c2.12,0.68,5.54,0.04,8.37-0.26c9.61-1.04,30.55-3.41,42.77-4.41c3.06-0.25,5.85-0.38,8.86,0.26" style="fill:none;stroke:#999;stroke-width:3"></path>

<path d="M243.9,31.5c0.99,0.99,1.24,2.38,1.24,3.74c0,18.01-2.39,42.26-15.08,56.97" style="fill:none;stroke:#999;stroke-width:3"></path>
<path d="M245.5,33.7c2.12,0.68,5.54,0.04,8.37-0.26c9.61-1.04,30.55-3.41,42.77-4.41c3.06-0.25,5.85-0.38,8.86,0.26" style="fill:none;stroke:#999;stroke-width:3"></path>
<path d="M245.5,56.26c6.88-1.01,16.84-3.16,18.88-3.27c2.37-0.12,3.59,1.18,3.23,3.67c-0.35,2.48-2.34,19.81-7.55,26.56c-1.56,2.03-4.39,0.14-5.79-1.34" style="fill:none;stroke:#999;stroke-width:3"></path>

<path d="M352.9,31.5c0.99,0.99,1.24,2.38,1.24,3.74c0,18.01-2.39,42.26-15.08,56.97" style="fill:none;stroke:#999;stroke-width:3"></path>
<path d="M354.5,33.7c2.12,0.68,5.54,0.04,8.37-0.26c9.61-1.04,30.55-3.41,42.77-4.41c3.06-0.25,5.85-0.38,8.86,0.26" style="fill:none;stroke:#999;stroke-width:3"></path>
<path d="M354.5,56.26c6.88-1.01,16.84-3.16,18.88-3.27c2.37-0.12,3.59,1.18,3.23,3.67c-0.35,2.48-2.34,19.81-7.55,26.56c-1.56,2.03-4.39,0.14-5.79-1.34" style="fill:none;stroke:#999;stroke-width:3"></path>
<path d="M383.0,10.5c2.35,2.61,2.42,4.92,2.84,8.38C389.62,50.38,395.0,73,418.45,92.7c5.73,4.81,5.5,0.78,4.69-7.24" style="fill:none;stroke:#999;stroke-width:3"></path>

<path d="M461.9,31.5c0.99,0.99,1.24,2.38,1.24,3.74c0,18.01-2.39,42.26-15.08,56.97" style="fill:none;stroke:#999;stroke-width:3"></path>
<path d="M463.5,33.7c2.12,0.68,5.54,0.04,8.37-0.26c9.61-1.04,30.55-3.41,42.77-4.41c3.06-0.25,5.85-0.38,8.86,0.26" style="fill:none;stroke:#999;stroke-width:3"></path>
<path d="M463.5,56.26c6.88-1.01,16.84-3.16,18.88-3.27c2.37-0.12,3.59,1.18,3.23,3.67c-0.35,2.48-2.34,19.81-7.55,26.56c-1.56,2.03-4.39,0.14-5.79-1.34" style="fill:none;stroke:#999;stroke-width:3"></path>
<path d="M492.0,10.5c2.35,2.61,2.42,4.92,2.84,8.38C498.62,50.38,504.0,73,527.45,92.7c5.73,4.81,5.5,0.78,4.69-7.24" style="fill:none;stroke:#999;stroke-width:3"></path>
<path d="M518.98,45.14c0.27,1.36,0.21,2.71-0.16,4.2C516.5,58.62,507.0,77.5,491.06,89.47" style="fill:none;stroke:#999;stroke-width:3"></path>

<path d="M570.9,31.5c0.99,0.99,1.24,2.38,1.24,3.74c0,18.01-2.39,42.26-15.08,56.97" style="fill:none;stroke:#999;stroke-width:3"></path>
<path d="M572.5,33.7c2.12,0.68,5.54,0.04,8.37-0.26c9.61-1.04,30.55-3.41,42.77-4.41c3.06-0.25,5.85-0.38,8.86,0.26" style="fill:none;stroke:#999;stroke-width:3"></path>
<path d="M572.5,56.26c6.88-1.01,16.84-3.16,18.88-3.27c2.37-0.12,3.59,1.18,3.23,3.67c-0.35,2.48-2.34,19.81-7.55,26.56c-1.56,2.03-4.39,0.14-5.79-1.34" style="fill:none;stroke:#999;stroke-width:3"></path>
<path d="M601.0,10.5c2.35,2.61,2.42,4.92,2.84,8.38C607.62,50.38,613.0,73,636.45,92.7c5.73,4.81,5.5,0.78,4.69-7.24" style="fill:none;stroke:#999;stroke-width:3"></path>
<path d="M627.98,45.14c0.27,1.36,0.21,2.71-0.16,4.2C625.5,58.62,616.0,77.5,600.06,89.47" style="fill:none;stroke:#999;stroke-width:3"></path>
<path d="M620.25,11.75c2.94,1.6,7.63,5.26,9,8" style="fill:none;stroke:#999;stroke-width:3"></path>

</svg>