<svg width="872px" height="109px" viewBox="0 0 872 109" xmlns="http://www.w3.org/2000/svg" xmlns:xlink="http://www.w3.org/1999/xlink" xml:space="preserve" version="1.1" baseProfile="full">
<line x1="1" y1="1" x2="871" y2="1" style="stroke:#ddd;stroke-width:2"></line>
<line x1="1" y1="1" x2="1" y2="108" style="stroke:#ddd;stroke-width:2"></line>
<line x1="1" y1="108" x2="871" y2="108" style="stroke:#ddd;stroke-width:2"></line>
<line x1="871" y1="1" x2="871" y2="108" style="stroke:#ddd;stroke-width:2"></line>
<line x1="109" y1="1" x2="109" y2="108" style="stroke:#ddd;stroke-width:2"></line>
<line x1="218" y1="1" x2="218" y2="108" style="stroke:#ddd;stroke-width:2"></line>
<line x1="327" y1="1" x2="327" y2="108" style="stroke:#ddd;stroke-width:2"></line>
<line x1="436" y1="1" x2="436" y2="108" style="stroke:#ddd;stroke-width:2"></line>
<line x1="545" y1="1" x2="545" y2="108" style="stroke:#ddd;stroke-width:2"></line>
<line x1="654" y1="1" x2="654" y2="108" style="stroke:#ddd;stroke-width:2"></line>
<line x1="763" y1="1" x2="763" y2="108" style="stroke:#ddd;stroke-width:2"></line>
<line x1="1" y1="54" x2="871" y2="54" style="stroke:#ddd;stroke-width:2;stroke-dasharray:3 3"></line>
<line x1="55" y1="1" x2="55" y2="108" style="stroke:#ddd;stroke-width:2;stroke-dasharray:3 3"></line>
<line x1="164" y1="1" x2="164" y2="108" style="stroke:#ddd;stroke-width:2;stroke-dasharray:3 3"></line>
<line x1="273" y1="1" x2="273" y2="108" style="stroke:#ddd;stroke-width:2;stroke-dasharray:3 3"></line>
<line x1="382" y1="1" x2="382" y2="108" style="stroke:#ddd;stroke-width:2;stroke-dasharray:3 3"></line>
<line x1="491" y1="1" x2="491" y2="108" style="stroke:#ddd;stroke-width:2;stroke-dasharray:3 3"></line>
<line x1="600" y1="1" x2="600" y2="108" style="stroke:#ddd;stroke-width:2;stroke-dasharray:3 3"></line>
<line x1="709" y1="1" x2="709" y2="108" style="stroke:#ddd;stroke-width:2;stroke-dasharray:3 3"></line>
<line x1="818" y1="1" x2="818" y2="108" style="stroke:#ddd;stroke-width:2;stroke-dasharray:3 3"></line>
<path d="M18.25,37.2c2.65,0.95,5.45,0.61,8.15,0.18c12.27-1.95,38.52-6.85,52.59-8.13c2.92-0.27,5.64-0.32,8.51,0.29" style="fill:none;stroke:#999;stroke-width:3"></path>

<path d="M127.25,37.2c2.65,0.95,5.45,0.61,8.15,0.18c12.27-1.95,38.52-6.85,52.59-8.13c2.92-0.27,5.64-0.32,8.51,0.29" style="fill:none;stroke:#999;stroke-width:3"></path>
<path d="M132.39,50.15c0.97,1.01,1.02,1.8,1.26,3.09c0.71,3.79,1.58,9.79,2.28,14.74c0.21,1.45,0.4,2.82,0.57,4.01" style="fill:none;stroke:#999;stroke-width:3"></path>

<path d="M236.25,37.2c2.65,0.95,5.45,0.61,8.15,0.18c12.27-1.95,38.52-6.85,52.59-8.13c2.92-0.27,5.64-0.32,8.51,0.29" style="fill:none;stroke:#999;stroke-width:3"></path>
<path d="M241.39,50.15c0.97,1.01,1.02,1.8,1.26,3.09c0.71,3.79,1.58,9.79,2.28,14.74c0.21,1.45,0.4,2.82,0.57,4.01" style="fill:none;stroke:#999;stroke-width:3"></path>
<path d="M243.81,52.37c6.65-1.31,12.68-2.52,18.2-3.4c2.97-0.48,4.8-0.07,4.1,3.43c-0.77,3.84-1.79,7.56-3.19,13.82" style="fill:none;stroke:#999;stroke-width:3"></path>

<path d="M345.25,37.2c2.65,0.95,5.45,0.61,8.15,0.18c12.27-1.95,38.52-6.85,52.59-8.13c2.92-0.27,5.64-0.32,8.51,0.29" style="fill:none;stroke:#999;stroke-width:3"></path>
<path d="M350.39,50.15c0.97,1.01,1.02,1.8,1.26,3.09c0.71,3.79,1.58,9.79,2.28,14.74c0.21,1.45,0.4,2.82,0.57,4.01" style="fill:none;stroke:#999;stroke-width:3"></path>
<path d="M352.81,52.37c6.65-1.31,12.68-2.52,18.2-3.4c2.97-0.48,4.8-0.07,4.1,3.43c-0.77,3.84-1.79,7.56-3.19,13.82" style="fill:none;stroke:#999;stroke-width:3"></path>
<path d="M355.72,69.8c5.28-0.8,8.92-1.34,14.5-2.1c1.16-0.16,2.31-0.31,3.44-0.46" style="fill:none;stroke:#999;stroke-width:3"></path>

<path d="M454.25,37.2c2.65,0.95,5.45,0.61,8.15,0.18c12.27-1.95,38.52-6.85,52.59-8.13c2.92-0.27,5.64-0.32,8.51,0.29" style="fill:none;stroke:#999;stroke-width:3"></path>
<path d="M459.39,50.15c0.97,1.01,1.02,1.8,1.26,3.09c0.71,3.79,1.58,9.79,2.28,14.74c0.21,1.45,0.4,2.82,0.57,4.01" style="fill:none;stroke:#999;stroke-width:3"></path>
<path d="M461.81,52.37c6.65-1.31,12.68-2.52,18.2-3.4c2.97-0.48,4.8-0.07,4.1,3.43c-0.77,3.84-1.79,7.56-3.19,13.82" style="fill:none;stroke:#999;stroke-width:3"></path>
<path d="M464.72,69.8c5.28-0.8,8.92-1.34,14.5-2.1c1.16-0.16,2.31-0.31,3.44-0.46" style="fill:none;stroke:#999;stroke-width:3"></path>
<path d="M452.25,88.75c0.94,0.94,2.56,1.13,5.14,0.16c8.36-3.16,19.98-7.66,27.11-10.41" style="fill:none;stroke:#999;stroke-width:3"></path>

<path d="M563.25,37.2c2.65,0.95,5.45,0.61,8.15,0.18c12.27-1.95,38.52-6.85,52.59-8.13c2.92-0.27,5.64-0.32,8.51,0.29" style="fill:none;stroke:#999;stroke-width:3"></path>
<path d="M568.39,50.15c0.97,1.01,1.02,1.8,1.26,3.09c0.71,3.79,1.58,9.79,2.28,14.74c0.21,1.45,0.4,2.82,0.57,4.01" style="fill:none;stroke:#999;stroke-width:3"></path>
<path d="M570.81,52.37c6.65-1.31,12.68-2.52,18.2-3.4c2.97-0.48,4.8-0.07,4.1,3.43c-0.77,3.84-1.79,7.56-3.19,13.82" style="fill:none;stroke:#999;stroke-width:3"></path>
<path d="M573.72,69.8c5.28-0.8,8.92-1.34,14.5-2.1c1.16-0.16,2.31-0.31,3.44-0.46" style="fill:none;stroke:#999;stroke-width:3"></path>
<path d="M561.25,88.75c0.94,0.94,2.56,1.13,5.14,0.16c8.36-3.16,19.98-7.66,27.11-10.41" style="fill:none;stroke:#999;stroke-width:3"></path>
<path d="M597.0,13.25c1.12,1.12,1.99,2.7,2.29,6.41c2.58,31.59,12.58,58.47,34.86,71.62c6.63,3.92,5.3,1.24,4.45-6.39" style="fill:none;stroke:#999;stroke-width:3"></path>

<path d="M672.25,37.2c2.65,0.95,5.45,0.61,8.15,0.18c12.27-1.95,38.52-6.85,52.59-8.13c2.92-0.27,5.64-0.32,8.51,0.29" style="fill:none;stroke:#999;stroke-width:3"></path>
<path d="M677.39,50.15c0.97,1.01,1.02,1.8,1.26,3.09c0.71,3.79,1.58,9.79,2.28,14.74c0.21,1.45,0.4,2.82,0.57,4.01" style="fill:none;stroke:#999;stroke-width:3"></path>
<path d="M679.81,52.37c6.65-1.31,12.68-2.52,18.2-3.4c2.97-0.48,4.8-0.07,4.1,3.43c-0.77,3.84-1.79,7.56-3.19,13.82" style="fill:none;stroke:#999;stroke-width:3"></path>
<path d="M682.72,69.8c5.28-0.8,8.92-1.34,14.5-2.1c1.16-0.16,2.31-0.31,3.44-0.46" style="fill:none;stroke:#999;stroke-width:3"></path>
<path d="M670.25,88.75c0.94,0.94,2.56,1.13,5.14,0.16c8.36-3.16,19.98-7.66,27.11-10.41" style="fill:none;stroke:#999;stroke-width:3"></path>
<path d="M706.0,13.25c1.12,1.12,1.99,2.7,2.29,6.41c2.58,31.59,12.58,58.47,34.86,71.62c6.63,3.92,5.3,1.24,4.45-6.39" style="fill:none;stroke:#999;stroke-width:3"></path>
<path d="M735.23,42.89c0.08,1.11-0.15,2.67-0.66,4.22c-3.7,11.26-11.07,31.38-27.76,45.1" style="fill:none;stroke:#999;stroke-width:3"></path>

<path d="M781.25,37.2c2.65,0.95,5.45,0.61,8.15,0.18c12.27-1.95,38.52-6.85,52.59-8.13c2.92-0.27,5.64-0.32,8.51,0.29" style="fill:none;stroke:#999;stroke-width:3"></path>
<path d="M786.39,50.15c0.97,1.01,1.02,1.8,1.26,3.09c0.71,3.79,1.58,9.79,2.28,14.74c0.21,1.45,0.4,2.82,0.57,4.01" style="fill:none;stroke:#999;stroke-width:3"></path>
<path d="M788.81,52.37c6.65-1.31,12.68-2.52,18.2-3.4c2.97-0.48,4.8-0.07,4.1,3.43c-0.77,3.84-1.79,7.56-3.19,13.82" style="fill:none;stroke:#999;stroke-width:3"></path>
<path d="M791.72,69.8c5.28-0.8,8.92-1.34,14.5-2.1c1.16-0.16,2.31-0.31,3.44-0.46" style="fill:none;stroke:#999;stroke-width:3"></path>
<path d="M779.25,88.75c0.94,0.94,2.56,1.13,5.14,0.16c8.36-3.16,19.98-7.66,27.11-10.41" style="fill:none;stroke:#999;stroke-width:3"></path>
<path d="M815.0,13.25c1.12,1.12,1.99,2.7,2.29,6.41c2.58,31.59,12.58,58.47,34.86,71.62c6.63,3.92,5.3,1.24,4.45-6.39" style="fill:none;stroke:#999;stroke-width:3"></path>
<path d="M844.23,42.89c0.08,1.11-0.15,2.67-0.66,4.22c-3.7,11.26-11.07,31.38-27.76,45.1" style="fill:none;stroke:#999;stroke-width:3"></path>
<path d="M831.75,13.75c2.69,1.5,6.75,4.68,8,7.25" style="fill:none;stroke:#999;stroke-width:3"></path>

</svg>