<svg width="872px" height="109px" viewBox="0 0 872 109" xmlns="http://www.w3.org/2000/svg" xmlns:xlink="http://www.w3.org/1999/xlink" xml:space="preserve" version="1.1" baseProfile="full">
<line x1="1" y1="1" x2="871" y2="1" style="stroke:#ddd;stroke-width:2"></line>
<line x1="1" y1="1" x2="1" y2="108" style="stroke:#ddd;stroke-width:2"></line>
<line x1="1" y1="108" x2="871" y2="108" style="stroke:#ddd;stroke-width:2"></line>
<line x1="871" y1="1" x2="871" y2="108" style="stroke:#ddd;stroke-width:2"></line>
<line x1="109" y1="1" x2="109" y2="108" style="stroke:#ddd;stroke-width:2"></line>
<line x1="218" y1="1" x2="218" y2="108" style="stroke:#ddd;stroke-width:2"></line>
<line x1="327" y1="1" x2="327" y2="108" style="stroke:#ddd;stroke-width:2"></line>
<line x1="436" y1="1" x2="436" y2="108" style="stroke:#ddd;stroke-width:2"></line>
<line x1="545" y1="1" x2="545" y2="108" style="stroke:#ddd;stroke-width:2"></line>
<line x1="654" y1="1" x2="654" y2="108" style="stroke:#ddd;stroke-width:2"></line>
<line x1="763" y1="1" x2="763" y2="108" style="stroke:#ddd;stroke-width:2"></line>
<line x1="1" y1="54" x2="871" y2="54" style="stroke:#ddd;stroke-width:2;stroke-dasharray:3 3"></line>
<line x1="55" y1="1" x2="55" y2="108" style="stroke:#ddd;stroke-width:2;stroke-dasharray:3 3"></line>
<line x1="164" y1="1" x2="164" y2="108" style="stroke:#ddd;stroke-width:2;stroke-dasharray:3 3"></line>
<line x1="273" y1="1" x2="273" y2="108" style="stroke:#ddd;stroke-width:2;stroke-dasharray:3 3"></line>
<line x1="382" y1="1" x2="382" y2="108" style="stroke:#ddd;stroke-width:2;stroke-dasharray:3 3"></line>
<line x1="491" y1="1" x2="491" y2="108" style="stroke:#ddd;stroke-width:2;stroke-dasharray:3 3"></line>
<line x1="600" y1="1" x2="600" y2="108" style="stroke:#ddd;stroke-width:2;stroke-dasharray:3 3"></line>
<line x1="709" y1="1" x2="709" y2="108" style="stroke:#ddd;stroke-width:2;stroke-dasharray:3 3"></line>
<line x1="818" y1="1" x2="818" y2="108" style="stroke:#ddd;stroke-width:2;stroke-dasharray:3 3"></line>
<path d="M19.88,15.76c3.12,0.98,6.71,0.72,9.89,0.51c11.67-0.77,34.29-2.55,48.22-3.49c3.35-0.23,6.81-0.72,10.14-0.09" style="fill:none;stroke:#999;stroke-width:3"></path>

<path d="M128.88,15.76c3.12,0.98,6.71,0.72,9.89,0.51c11.67-0.77,34.29-2.55,48.22-3.49c3.35-0.23,6.81-0.72,10.14-0.09" style="fill:none;stroke:#999;stroke-width:3"></path>
<path d="M138.1,27.88c2.31,0.75,4.52,0.91,6.89,0.57c11.88-1.7,30.63-3.45,40.26-4.27c2.54-0.22,4.74,1.44,3.99,4.07c-0.87,3.04-2.25,7.25-3,9.75" style="fill:none;stroke:#999;stroke-width:3"></path>

<path d="M237.88,15.76c3.12,0.98,6.71,0.72,9.89,0.51c11.67-0.77,34.29-2.55,48.22-3.49c3.35-0.23,6.81-0.72,10.14-0.09" style="fill:none;stroke:#999;stroke-width:3"></path>
<path d="M247.1,27.88c2.31,0.75,4.52,0.91,6.89,0.57c11.88-1.7,30.63-3.45,40.26-4.27c2.54-0.22,4.74,1.44,3.99,4.07c-0.87,3.04-2.25,7.25-3,9.75" style="fill:none;stroke:#999;stroke-width:3"></path>
<path d="M250.0,42.5c1.25,0,29.38-2.75,41.01-3.97c2.6-0.27,4.91-0.28,6.74-0.28" style="fill:none;stroke:#999;stroke-width:3"></path>

<path d="M346.88,15.76c3.12,0.98,6.71,0.72,9.89,0.51c11.67-0.77,34.29-2.55,48.22-3.49c3.35-0.23,6.81-0.72,10.14-0.09" style="fill:none;stroke:#999;stroke-width:3"></path>
<path d="M356.1,27.88c2.31,0.75,4.52,0.91,6.89,0.57c11.88-1.7,30.63-3.45,40.26-4.27c2.54-0.22,4.74,1.44,3.99,4.07c-0.87,3.04-2.25,7.25-3,9.75" style="fill:none;stroke:#999;stroke-width:3"></path>
<path d="M359.0,42.5c1.25,0,29.38-2.75,41.01-3.97c2.6-0.27,4.91-0.28,6.74-0.28" style="fill:none;stroke:#999;stroke-width:3"></path>
<path d="M357.94,29.18c1.06,1.06,1.12,2.5,0.9,4.45C356.12,56.62,351.25,75,340.0,86.75" style="fill:none;stroke:#999;stroke-width:3"></path>

<path d="M455.88,15.76c3.12,0.98,6.71,0.72,9.89,0.51c11.67-0.77,34.29-2.55,48.22-3.49c3.35-0.23,6.81-0.72,10.14-0.09" style="fill:none;stroke:#999;stroke-width:3"></path>
<path d="M465.1,27.88c2.31,0.75,4.52,0.91,6.89,0.57c11.88-1.7,30.63-3.45,40.26-4.27c2.54-0.22,4.74,1.44,3.99,4.07c-0.87,3.04-2.25,7.25-3,9.75" style="fill:none;stroke:#999;stroke-width:3"></path>
<path d="M468.0,42.5c1.25,0,29.38-2.75,41.01-3.97c2.6-0.27,4.91-0.28,6.74-0.28" style="fill:none;stroke:#999;stroke-width:3"></path>
<path d="M466.94,29.18c1.06,1.06,1.12,2.5,0.9,4.45C465.12,56.62,460.25,75,449.0,86.75" style="fill:none;stroke:#999;stroke-width:3"></path>
<path d="M494.83,46.75c0.9,0.9,1.2,2.12,1.2,3.57c0,1.68-0.03,3.49-0.03,6.05" style="fill:none;stroke:#999;stroke-width:3"></path>

<path d="M564.88,15.76c3.12,0.98,6.71,0.72,9.89,0.51c11.67-0.77,34.29-2.55,48.22-3.49c3.35-0.23,6.81-0.72,10.14-0.09" style="fill:none;stroke:#999;stroke-width:3"></path>
<path d="M574.1,27.88c2.31,0.75,4.52,0.91,6.89,0.57c11.88-1.7,30.63-3.45,40.26-4.27c2.54-0.22,4.74,1.44,3.99,4.07c-0.87,3.04-2.25,7.25-3,9.75" style="fill:none;stroke:#999;stroke-width:3"></path>
<path d="M577.0,42.5c1.25,0,29.38-2.75,41.01-3.97c2.6-0.27,4.91-0.28,6.74-0.28" style="fill:none;stroke:#999;stroke-width:3"></path>
<path d="M575.94,29.18c1.06,1.06,1.12,2.5,0.9,4.45C574.12,56.62,569.25,75,558.0,86.75" style="fill:none;stroke:#999;stroke-width:3"></path>
<path d="M603.8299999999999,46.75c0.9,0.9,1.2,2.12,1.2,3.57c0,1.68-0.03,3.49-0.03,6.05" style="fill:none;stroke:#999;stroke-width:3"></path>
<path d="M579.71,59.31c2.42,0.56,5.16,0.6,7.78,0.19c9.64-1.5,25.76-2.88,37.13-3.59c2.49-0.16,5.57-0.18,7.92,0.65" style="fill:none;stroke:#999;stroke-width:3"></path>

<path d="M673.88,15.76c3.12,0.98,6.71,0.72,9.89,0.51c11.67-0.77,34.29-2.55,48.22-3.49c3.35-0.23,6.81-0.72,10.14-0.09" style="fill:none;stroke:#999;stroke-width:3"></path>
<path d="M683.1,27.88c2.31,0.75,4.52,0.91,6.89,0.57c11.88-1.7,30.63-3.45,40.26-4.27c2.54-0.22,4.74,1.44,3.99,4.07c-0.87,3.04-2.25,7.25-3,9.75" style="fill:none;stroke:#999;stroke-width:3"></path>
<path d="M686.0,42.5c1.25,0,29.38-2.75,41.01-3.97c2.6-0.27,4.91-0.28,6.74-0.28" style="fill:none;stroke:#999;stroke-width:3"></path>
<path d="M684.94,29.18c1.06,1.06,1.12,2.5,0.9,4.45C683.12,56.62,678.25,75,667.0,86.75" style="fill:none;stroke:#999;stroke-width:3"></path>
<path d="M712.8299999999999,46.75c0.9,0.9,1.2,2.12,1.2,3.57c0,1.68-0.03,3.49-0.03,6.05" style="fill:none;stroke:#999;stroke-width:3"></path>
<path d="M688.71,59.31c2.42,0.56,5.16,0.6,7.78,0.19c9.64-1.5,25.76-2.88,37.13-3.59c2.49-0.16,5.57-0.18,7.92,0.65" style="fill:none;stroke:#999;stroke-width:3"></path>
<path d="M709.19,66.5c4.81,2,11.44,3.37,18.18,4.59c2.62,0.47,3.1,2.33,2.47,4.56c-1.51,5.32-8.58,17.37-11.53,20.37c-3.06,3.1-5.06,1.98-7.03-0.59" style="fill:none;stroke:#999;stroke-width:3"></path>

<path d="M782.88,15.76c3.12,0.98,6.71,0.72,9.89,0.51c11.67-0.77,34.29-2.55,48.22-3.49c3.35-0.23,6.81-0.72,10.14-0.09" style="fill:none;stroke:#999;stroke-width:3"></path>
<path d="M792.1,27.88c2.31,0.75,4.52,0.91,6.89,0.57c11.88-1.7,30.63-3.45,40.26-4.27c2.54-0.22,4.74,1.44,3.99,4.07c-0.87,3.04-2.25,7.25-3,9.75" style="fill:none;stroke:#999;stroke-width:3"></path>
<path d="M795.0,42.5c1.25,0,29.38-2.75,41.01-3.97c2.6-0.27,4.91-0.28,6.74-0.28" style="fill:none;stroke:#999;stroke-width:3"></path>
<path d="M793.94,29.18c1.06,1.06,1.12,2.5,0.9,4.45C792.12,56.62,787.25,75,776.0,86.75" style="fill:none;stroke:#999;stroke-width:3"></path>
<path d="M821.8299999999999,46.75c0.9,0.9,1.2,2.12,1.2,3.57c0,1.68-0.03,3.49-0.03,6.05" style="fill:none;stroke:#999;stroke-width:3"></path>
<path d="M797.71,59.31c2.42,0.56,5.16,0.6,7.78,0.19c9.64-1.5,25.76-2.88,37.13-3.59c2.49-0.16,5.57-0.18,7.92,0.65" style="fill:none;stroke:#999;stroke-width:3"></path>
<path d="M818.19,66.5c4.81,2,11.44,3.37,18.18,4.59c2.62,0.47,3.1,2.33,2.47,4.56c-1.51,5.32-8.58,17.37-11.53,20.37c-3.06,3.1-5.06,1.98-7.03-0.59" style="fill:none;stroke:#999;stroke-width:3"></path>
<path d="M818.44,61.21c0.31,1.17,0.05,1.92-0.39,2.93c-3.08,7.01-11.42,19.73-25.55,27.79" style="fill:none;stroke:#999;stroke-width:3"></path>

</svg>