<svg width="654px" height="109px" viewBox="0 0 654 109" xmlns="http://www.w3.org/2000/svg" xmlns:xlink="http://www.w3.org/1999/xlink" xml:space="preserve" version="1.1" baseProfile="full">
<line x1="1" y1="1" x2="653" y2="1" style="stroke:#ddd;stroke-width:2"></line>
<line x1="1" y1="1" x2="1" y2="108" style="stroke:#ddd;stroke-width:2"></line>
<line x1="1" y1="108" x2="653" y2="108" style="stroke:#ddd;stroke-width:2"></line>
<line x1="653" y1="1" x2="653" y2="108" style="stroke:#ddd;stroke-width:2"></line>
<line x1="109" y1="1" x2="109" y2="108" style="stroke:#ddd;stroke-width:2"></line>
<line x1="218" y1="1" x2="218" y2="108" style="stroke:#ddd;stroke-width:2"></line>
<line x1="327" y1="1" x2="327" y2="108" style="stroke:#ddd;stroke-width:2"></line>
<line x1="436" y1="1" x2="436" y2="108" style="stroke:#ddd;stroke-width:2"></line>
<line x1="545" y1="1" x2="545" y2="108" style="stroke:#ddd;stroke-width:2"></line>
<line x1="1" y1="54" x2="653" y2="54" style="stroke:#ddd;stroke-width:2;stroke-dasharray:3 3"></line>
<line x1="55" y1="1" x2="55" y2="108" style="stroke:#ddd;stroke-width:2;stroke-dasharray:3 3"></line>
<line x1="164" y1="1" x2="164" y2="108" style="stroke:#ddd;stroke-width:2;stroke-dasharray:3 3"></line>
<line x1="273" y1="1" x2="273" y2="108" style="stroke:#ddd;stroke-width:2;stroke-dasharray:3 3"></line>
<line x1="382" y1="1" x2="382" y2="108" style="stroke:#ddd;stroke-width:2;stroke-dasharray:3 3"></line>
<line x1="491" y1="1" x2="491" y2="108" style="stroke:#ddd;stroke-width:2;stroke-dasharray:3 3"></line>
<line x1="600" y1="1" x2="600" y2="108" style="stroke:#ddd;stroke-width:2;stroke-dasharray:3 3"></line>
<path d="M13.5,35.02c1.5,0.73,3.01,1.13,5.68,0.83c7.57-0.84,16.03-1.78,26.98-3.31" style="fill:none;stroke:#999;stroke-width:3"></path>

<path d="M122.5,35.02c1.5,0.73,3.01,1.13,5.68,0.83c7.57-0.84,16.03-1.78,26.98-3.31" style="fill:none;stroke:#999;stroke-width:3"></path>
<path d="M140.63,11c0.52,0.98,1.79,2.66,1.88,5.89c0.43,15.55,0.26,67.23,0.26,72.52c0,15.22-6.76,3.77-8.29,2.14" style="fill:none;stroke:#999;stroke-width:3"></path>

<path d="M231.5,35.02c1.5,0.73,3.01,1.13,5.68,0.83c7.57-0.84,16.03-1.78,26.98-3.31" style="fill:none;stroke:#999;stroke-width:3"></path>
<path d="M249.63,11c0.52,0.98,1.79,2.66,1.88,5.89c0.43,15.55,0.26,67.23,0.26,72.52c0,15.22-6.76,3.77-8.29,2.14" style="fill:none;stroke:#999;stroke-width:3"></path>
<path d="M230.0,65.72c1.5,1.03,3.75,2.03,6.25,0.53c2.04-1.23,18.46-9.44,27.5-14.58" style="fill:none;stroke:#999;stroke-width:3"></path>

<path d="M340.5,35.02c1.5,0.73,3.01,1.13,5.68,0.83c7.57-0.84,16.03-1.78,26.98-3.31" style="fill:none;stroke:#999;stroke-width:3"></path>
<path d="M358.63,11c0.52,0.98,1.79,2.66,1.88,5.89c0.43,15.55,0.26,67.23,0.26,72.52c0,15.22-6.76,3.77-8.29,2.14" style="fill:none;stroke:#999;stroke-width:3"></path>
<path d="M339.0,65.72c1.5,1.03,3.75,2.03,6.25,0.53c2.04-1.23,18.46-9.44,27.5-14.58" style="fill:none;stroke:#999;stroke-width:3"></path>
<path d="M377.5,26.97c0.95,0.52,4.03,0.53,5,0.53c6.25,0,28-2.75,35.5-3.29c1.46-0.11,2.79,0.1,4,0.54" style="fill:none;stroke:#999;stroke-width:3"></path>

<path d="M449.5,35.02c1.5,0.73,3.01,1.13,5.68,0.83c7.57-0.84,16.03-1.78,26.98-3.31" style="fill:none;stroke:#999;stroke-width:3"></path>
<path d="M467.63,11c0.52,0.98,1.79,2.66,1.88,5.89c0.43,15.55,0.26,67.23,0.26,72.52c0,15.22-6.76,3.77-8.29,2.14" style="fill:none;stroke:#999;stroke-width:3"></path>
<path d="M448.0,65.72c1.5,1.03,3.75,2.03,6.25,0.53c2.04-1.23,18.46-9.44,27.5-14.58" style="fill:none;stroke:#999;stroke-width:3"></path>
<path d="M486.5,26.97c0.95,0.52,4.03,0.53,5,0.53c6.25,0,28-2.75,35.5-3.29c1.46-0.11,2.79,0.1,4,0.54" style="fill:none;stroke:#999;stroke-width:3"></path>
<path d="M506.08,28.75c0.85,2.83,0.85,4.53,0.85,6.8c0,15.86-0.02,23.51-0.02,50.7" style="fill:none;stroke:#999;stroke-width:3"></path>

<path d="M558.5,35.02c1.5,0.73,3.01,1.13,5.68,0.83c7.57-0.84,16.03-1.78,26.98-3.31" style="fill:none;stroke:#999;stroke-width:3"></path>
<path d="M576.63,11c0.52,0.98,1.79,2.66,1.88,5.89c0.43,15.55,0.26,67.23,0.26,72.52c0,15.22-6.76,3.77-8.29,2.14" style="fill:none;stroke:#999;stroke-width:3"></path>
<path d="M557.0,65.72c1.5,1.03,3.75,2.03,6.25,0.53c2.04-1.23,18.46-9.44,27.5-14.58" style="fill:none;stroke:#999;stroke-width:3"></path>
<path d="M595.5,26.97c0.95,0.52,4.03,0.53,5,0.53c6.25,0,28-2.75,35.5-3.29c1.46-0.11,2.79,0.1,4,0.54" style="fill:none;stroke:#999;stroke-width:3"></path>
<path d="M615.0799999999999,28.75c0.85,2.83,0.85,4.53,0.85,6.8c0,15.86-0.02,23.51-0.02,50.7" style="fill:none;stroke:#999;stroke-width:3"></path>
<path d="M588.25,87.59c0.92,0.38,4.2,0.77,5.75,0.6c16.75-1.84,29-2.74,44.25-3.3c2.5-0.09,5.5,0.63,6.75,1.22" style="fill:none;stroke:#999;stroke-width:3"></path>

</svg>