<svg width="654px" height="109px" viewBox="0 0 654 109" xmlns="http://www.w3.org/2000/svg" xmlns:xlink="http://www.w3.org/1999/xlink" xml:space="preserve" version="1.1" baseProfile="full">
<line x1="1" y1="1" x2="653" y2="1" style="stroke:#ddd;stroke-width:2"></line>
<line x1="1" y1="1" x2="1" y2="108" style="stroke:#ddd;stroke-width:2"></line>
<line x1="1" y1="108" x2="653" y2="108" style="stroke:#ddd;stroke-width:2"></line>
<line x1="653" y1="1" x2="653" y2="108" style="stroke:#ddd;stroke-width:2"></line>
<line x1="109" y1="1" x2="109" y2="108" style="stroke:#ddd;stroke-width:2"></line>
<line x1="218" y1="1" x2="218" y2="108" style="stroke:#ddd;stroke-width:2"></line>
<line x1="327" y1="1" x2="327" y2="108" style="stroke:#ddd;stroke-width:2"></line>
<line x1="436" y1="1" x2="436" y2="108" style="stroke:#ddd;stroke-width:2"></line>
<line x1="545" y1="1" x2="545" y2="108" style="stroke:#ddd;stroke-width:2"></line>
<line x1="1" y1="54" x2="653" y2="54" style="stroke:#ddd;stroke-width:2;stroke-dasharray:3 3"></line>
<line x1="55" y1="1" x2="55" y2="108" style="stroke:#ddd;stroke-width:2;stroke-dasharray:3 3"></line>
<line x1="164" y1="1" x2="164" y2="108" style="stroke:#ddd;stroke-width:2;stroke-dasharray:3 3"></line>
<line x1="273" y1="1" x2="273" y2="108" style="stroke:#ddd;stroke-width:2;stroke-dasharray:3 3"></line>
<line x1="382" y1="1" x2="382" y2="108" style="stroke:#ddd;stroke-width:2;stroke-dasharray:3 3"></line>
<line x1="491" y1="1" x2="491" y2="108" style="stroke:#ddd;stroke-width:2;stroke-dasharray:3 3"></line>
<line x1="600" y1="1" x2="600" y2="108" style="stroke:#ddd;stroke-width:2;stroke-dasharray:3 3"></line>
<path d="M12.0,35.7c2.47,0.3,1.51,0.66,4.15,0.3c6.53-0.89,18.39-2.97,29.26-4.35" style="fill:none;stroke:#999;stroke-width:3"></path>

<path d="M121.0,35.7c2.47,0.3,1.51,0.66,4.15,0.3c6.53-0.89,18.39-2.97,29.26-4.35" style="fill:none;stroke:#999;stroke-width:3"></path>
<path d="M138.17000000000002,12c0.51,0.96,1.75,2.6,1.84,5.77c0.42,15.23,0.26,65.86,0.26,71.05c0,14.91-6.62,3.7-8.13,2.09" style="fill:none;stroke:#999;stroke-width:3"></path>

<path d="M230.0,35.7c2.47,0.3,1.51,0.66,4.15,0.3c6.53-0.89,18.39-2.97,29.26-4.35" style="fill:none;stroke:#999;stroke-width:3"></path>
<path d="M247.17000000000002,12c0.51,0.96,1.75,2.6,1.84,5.77c0.42,15.23,0.26,65.86,0.26,71.05c0,14.91-6.62,3.7-8.13,2.09" style="fill:none;stroke:#999;stroke-width:3"></path>
<path d="M228.75,64.52c2.68,1.6,2.9,1.37,5.58,0c1.58-0.81,17.72-9.72,24.42-13.6" style="fill:none;stroke:#999;stroke-width:3"></path>

<path d="M339.0,35.7c2.47,0.3,1.51,0.66,4.15,0.3c6.53-0.89,18.39-2.97,29.26-4.35" style="fill:none;stroke:#999;stroke-width:3"></path>
<path d="M356.17,12c0.51,0.96,1.75,2.6,1.84,5.77c0.42,15.23,0.26,65.86,0.26,71.05c0,14.91-6.62,3.7-8.13,2.09" style="fill:none;stroke:#999;stroke-width:3"></path>
<path d="M337.75,64.52c2.68,1.6,2.9,1.37,5.58,0c1.58-0.81,17.72-9.72,24.42-13.6" style="fill:none;stroke:#999;stroke-width:3"></path>
<path d="M376.67,21.62c0.8,0.43,3.56,0.46,4.36,0.38c5.54-0.5,23.34-2.66,32.79-3.5c1.33-0.12,4.13,0.37,4.79,0.58" style="fill:none;stroke:#999;stroke-width:3"></path>

<path d="M448.0,35.7c2.47,0.3,1.51,0.66,4.15,0.3c6.53-0.89,18.39-2.97,29.26-4.35" style="fill:none;stroke:#999;stroke-width:3"></path>
<path d="M465.17,12c0.51,0.96,1.75,2.6,1.84,5.77c0.42,15.23,0.26,65.86,0.26,71.05c0,14.91-6.62,3.7-8.13,2.09" style="fill:none;stroke:#999;stroke-width:3"></path>
<path d="M446.75,64.52c2.68,1.6,2.9,1.37,5.58,0c1.58-0.81,17.72-9.72,24.42-13.6" style="fill:none;stroke:#999;stroke-width:3"></path>
<path d="M485.67,21.62c0.8,0.43,3.56,0.46,4.36,0.38c5.54-0.5,23.34-2.66,32.79-3.5c1.33-0.12,4.13,0.37,4.79,0.58" style="fill:none;stroke:#999;stroke-width:3"></path>
<path d="M483.38,52.78c1.29,0.46,3.67,0.59,4.96,0.46C500.5,52,513.99,50.25,528.1,49.83c2.16-0.06,3.45,0.22,4.53,0.45" style="fill:none;stroke:#999;stroke-width:3"></path>

<path d="M557.0,35.7c2.47,0.3,1.51,0.66,4.15,0.3c6.53-0.89,18.39-2.97,29.26-4.35" style="fill:none;stroke:#999;stroke-width:3"></path>
<path d="M574.1700000000001,12c0.51,0.96,1.75,2.6,1.84,5.77c0.42,15.23,0.26,65.86,0.26,71.05c0,14.91-6.62,3.7-8.13,2.09" style="fill:none;stroke:#999;stroke-width:3"></path>
<path d="M555.75,64.52c2.68,1.6,2.9,1.37,5.58,0c1.58-0.81,17.72-9.72,24.42-13.6" style="fill:none;stroke:#999;stroke-width:3"></path>
<path d="M594.6700000000001,21.62c0.8,0.43,3.56,0.46,4.36,0.38c5.54-0.5,23.34-2.66,32.79-3.5c1.33-0.12,4.13,0.37,4.79,0.58" style="fill:none;stroke:#999;stroke-width:3"></path>
<path d="M592.38,52.78c1.29,0.46,3.67,0.59,4.96,0.46C609.5,52,622.99,50.25,637.1,49.83c2.16-0.06,3.45,0.22,4.53,0.45" style="fill:none;stroke:#999;stroke-width:3"></path>
<path d="M613.81,23.13c0.54,0.51,2.29,2.12,2.29,4.83c0,5.29-0.07,61.56-0.18,67.92" style="fill:none;stroke:#999;stroke-width:3"></path>

</svg>