<svg width="763px" height="109px" viewBox="0 0 763 109" xmlns="http://www.w3.org/2000/svg" xmlns:xlink="http://www.w3.org/1999/xlink" xml:space="preserve" version="1.1" baseProfile="full">
<line x1="1" y1="1" x2="762" y2="1" style="stroke:#ddd;stroke-width:2"></line>
<line x1="1" y1="1" x2="1" y2="108" style="stroke:#ddd;stroke-width:2"></line>
<line x1="1" y1="108" x2="762" y2="108" style="stroke:#ddd;stroke-width:2"></line>
<line x1="762" y1="1" x2="762" y2="108" style="stroke:#ddd;stroke-width:2"></line>
<line x1="109" y1="1" x2="109" y2="108" style="stroke:#ddd;stroke-width:2"></line>
<line x1="218" y1="1" x2="218" y2="108" style="stroke:#ddd;stroke-width:2"></line>
<line x1="327" y1="1" x2="327" y2="108" style="stroke:#ddd;stroke-width:2"></line>
<line x1="436" y1="1" x2="436" y2="108" style="stroke:#ddd;stroke-width:2"></line>
<line x1="545" y1="1" x2="545" y2="108" style="stroke:#ddd;stroke-width:2"></line>
<line x1="654" y1="1" x2="654" y2="108" style="stroke:#ddd;stroke-width:2"></line>
<line x1="1" y1="54" x2="762" y2="54" style="stroke:#ddd;stroke-width:2;stroke-dasharray:3 3"></line>
<line x1="55" y1="1" x2="55" y2="108" style="stroke:#ddd;stroke-width:2;stroke-dasharray:3 3"></line>
<line x1="164" y1="1" x2="164" y2="108" style="stroke:#ddd;stroke-width:2;stroke-dasharray:3 3"></line>
<line x1="273" y1="1" x2="273" y2="108" style="stroke:#ddd;stroke-width:2;stroke-dasharray:3 3"></line>
<line x1="382" y1="1" x2="382" y2="108" style="stroke:#ddd;stroke-width:2;stroke-dasharray:3 3"></line>
<line x1="491" y1="1" x2="491" y2="108" style="stroke:#ddd;stroke-width:2;stroke-dasharray:3 3"></line>
<line x1="600" y1="1" x2="600" y2="108" style="stroke:#ddd;stroke-width:2;stroke-dasharray:3 3"></line>
<line x1="709" y1="1" x2="709" y2="108" style="stroke:#ddd;stroke-width:2;stroke-dasharray:3 3"></line>
<path d="M11.0,37.42c2.08,0.25,1.27,0.55,3.5,0.25c5.5-0.75,15.5-2,24.67-3.17" style="fill:none;stroke:#999;stroke-width:3"></path>

<path d="M120.0,37.42c2.08,0.25,1.27,0.55,3.5,0.25c5.5-0.75,15.5-2,24.67-3.17" style="fill:none;stroke:#999;stroke-width:3"></path>
<path d="M135.27,14c0.48,0.92,1.67,2.49,1.76,5.52c0.4,14.55,0.24,60.94,0.24,65.9c0,14.25-6.32,3.53-7.77,2" style="fill:none;stroke:#999;stroke-width:3"></path>

<path d="M229.0,37.42c2.08,0.25,1.27,0.55,3.5,0.25c5.5-0.75,15.5-2,24.67-3.17" style="fill:none;stroke:#999;stroke-width:3"></path>
<path d="M244.27,14c0.48,0.92,1.67,2.49,1.76,5.52c0.4,14.55,0.24,60.94,0.24,65.9c0,14.25-6.32,3.53-7.77,2" style="fill:none;stroke:#999;stroke-width:3"></path>
<path d="M229.0,66.64c2.62,2.26,4.31,1.22,6.94-0.71c1.55-1.14,11-8.79,17.56-14.27" style="fill:none;stroke:#999;stroke-width:3"></path>

<path d="M338.0,37.42c2.08,0.25,1.27,0.55,3.5,0.25c5.5-0.75,15.5-2,24.67-3.17" style="fill:none;stroke:#999;stroke-width:3"></path>
<path d="M353.27,14c0.48,0.92,1.67,2.49,1.76,5.52c0.4,14.55,0.24,60.94,0.24,65.9c0,14.25-6.32,3.53-7.77,2" style="fill:none;stroke:#999;stroke-width:3"></path>
<path d="M338.0,66.64c2.62,2.26,4.31,1.22,6.94-0.71c1.55-1.14,11-8.79,17.56-14.27" style="fill:none;stroke:#999;stroke-width:3"></path>
<path d="M384.77,25.02c0.28,0.85-0.06,1.81-0.39,2.87C381.67,36.63,376.0,46.25,368.35,53.5" style="fill:none;stroke:#999;stroke-width:3"></path>

<path d="M447.0,37.42c2.08,0.25,1.27,0.55,3.5,0.25c5.5-0.75,15.5-2,24.67-3.17" style="fill:none;stroke:#999;stroke-width:3"></path>
<path d="M462.27,14c0.48,0.92,1.67,2.49,1.76,5.52c0.4,14.55,0.24,60.94,0.24,65.9c0,14.25-6.32,3.53-7.77,2" style="fill:none;stroke:#999;stroke-width:3"></path>
<path d="M447.0,66.64c2.62,2.26,4.31,1.22,6.94-0.71c1.55-1.14,11-8.79,17.56-14.27" style="fill:none;stroke:#999;stroke-width:3"></path>
<path d="M493.77,25.02c0.28,0.85-0.06,1.81-0.39,2.87C490.67,36.63,485.0,46.25,477.35,53.5" style="fill:none;stroke:#999;stroke-width:3"></path>
<path d="M502.09000000000003,18.5c7.92,3.16,17.52,22.68,24.12,27.74c2.55,1.96,3.47,3.01,5.94,3.64" style="fill:none;stroke:#999;stroke-width:3"></path>

<path d="M556.0,37.42c2.08,0.25,1.27,0.55,3.5,0.25c5.5-0.75,15.5-2,24.67-3.17" style="fill:none;stroke:#999;stroke-width:3"></path>
<path d="M571.27,14c0.48,0.92,1.67,2.49,1.76,5.52c0.4,14.55,0.24,60.94,0.24,65.9c0,14.25-6.32,3.53-7.77,2" style="fill:none;stroke:#999;stroke-width:3"></path>
<path d="M556.0,66.64c2.62,2.26,4.31,1.22,6.94-0.71c1.55-1.14,11-8.79,17.56-14.27" style="fill:none;stroke:#999;stroke-width:3"></path>
<path d="M602.77,25.02c0.28,0.85-0.06,1.81-0.39,2.87C599.6700000000001,36.63,594.0,46.25,586.35,53.5" style="fill:none;stroke:#999;stroke-width:3"></path>
<path d="M611.09,18.5c7.92,3.16,17.52,22.68,24.12,27.74c2.55,1.96,3.47,3.01,5.94,3.64" style="fill:none;stroke:#999;stroke-width:3"></path>
<path d="M593.73,55.57c1.16,0.51,2.61,0.45,3.62,0.28c8.24-1.43,22.91-3.84,27.48-4.37c2.97-0.34,4.29,1.03,4.13,3.44c-0.44,6.35-5.63,28.1-9.37,35.5c-3.34,6.59-6.09,0.84-7.43-1.01" style="fill:none;stroke:#999;stroke-width:3"></path>

<path d="M665.0,37.42c2.08,0.25,1.27,0.55,3.5,0.25c5.5-0.75,15.5-2,24.67-3.17" style="fill:none;stroke:#999;stroke-width:3"></path>
<path d="M680.27,14c0.48,0.92,1.67,2.49,1.76,5.52c0.4,14.55,0.24,60.94,0.24,65.9c0,14.25-6.32,3.53-7.77,2" style="fill:none;stroke:#999;stroke-width:3"></path>
<path d="M665.0,66.64c2.62,2.26,4.31,1.22,6.94-0.71c1.55-1.14,11-8.79,17.56-14.27" style="fill:none;stroke:#999;stroke-width:3"></path>
<path d="M711.77,25.02c0.28,0.85-0.06,1.81-0.39,2.87C708.6700000000001,36.63,703.0,46.25,695.35,53.5" style="fill:none;stroke:#999;stroke-width:3"></path>
<path d="M720.09,18.5c7.92,3.16,17.52,22.68,24.12,27.74c2.55,1.96,3.47,3.01,5.94,3.64" style="fill:none;stroke:#999;stroke-width:3"></path>
<path d="M702.73,55.57c1.16,0.51,2.61,0.45,3.62,0.28c8.24-1.43,22.91-3.84,27.48-4.37c2.97-0.34,4.29,1.03,4.13,3.44c-0.44,6.35-5.63,28.1-9.37,35.5c-3.34,6.59-6.09,0.84-7.43-1.01" style="fill:none;stroke:#999;stroke-width:3"></path>
<path d="M716.53,56.75c0.06,0.79,0.22,2.08-0.13,3.18c-3.92,12.22-9.37,22.41-22.2,32.32" style="fill:none;stroke:#999;stroke-width:3"></path>

</svg>