<svg width="763px" height="109px" viewBox="0 0 763 109" xmlns="http://www.w3.org/2000/svg" xmlns:xlink="http://www.w3.org/1999/xlink" xml:space="preserve" version="1.1" baseProfile="full">
<line x1="1" y1="1" x2="762" y2="1" style="stroke:#ddd;stroke-width:2"></line>
<line x1="1" y1="1" x2="1" y2="108" style="stroke:#ddd;stroke-width:2"></line>
<line x1="1" y1="108" x2="762" y2="108" style="stroke:#ddd;stroke-width:2"></line>
<line x1="762" y1="1" x2="762" y2="108" style="stroke:#ddd;stroke-width:2"></line>
<line x1="109" y1="1" x2="109" y2="108" style="stroke:#ddd;stroke-width:2"></line>
<line x1="218" y1="1" x2="218" y2="108" style="stroke:#ddd;stroke-width:2"></line>
<line x1="327" y1="1" x2="327" y2="108" style="stroke:#ddd;stroke-width:2"></line>
<line x1="436" y1="1" x2="436" y2="108" style="stroke:#ddd;stroke-width:2"></line>
<line x1="545" y1="1" x2="545" y2="108" style="stroke:#ddd;stroke-width:2"></line>
<line x1="654" y1="1" x2="654" y2="108" style="stroke:#ddd;stroke-width:2"></line>
<line x1="1" y1="54" x2="762" y2="54" style="stroke:#ddd;stroke-width:2;stroke-dasharray:3 3"></line>
<line x1="55" y1="1" x2="55" y2="108" style="stroke:#ddd;stroke-width:2;stroke-dasharray:3 3"></line>
<line x1="164" y1="1" x2="164" y2="108" style="stroke:#ddd;stroke-width:2;stroke-dasharray:3 3"></line>
<line x1="273" y1="1" x2="273" y2="108" style="stroke:#ddd;stroke-width:2;stroke-dasharray:3 3"></line>
<line x1="382" y1="1" x2="382" y2="108" style="stroke:#ddd;stroke-width:2;stroke-dasharray:3 3"></line>
<line x1="491" y1="1" x2="491" y2="108" style="stroke:#ddd;stroke-width:2;stroke-dasharray:3 3"></line>
<line x1="600" y1="1" x2="600" y2="108" style="stroke:#ddd;stroke-width:2;stroke-dasharray:3 3"></line>
<line x1="709" y1="1" x2="709" y2="108" style="stroke:#ddd;stroke-width:2;stroke-dasharray:3 3"></line>
<path d="M11.0,36.92c2.08,0.25,1.27,0.55,3.5,0.25c5.5-0.75,15.5-2,24.67-3.17" style="fill:none;stroke:#999;stroke-width:3"></path>

<path d="M120.0,36.92c2.08,0.25,1.27,0.55,3.5,0.25c5.5-0.75,15.5-2,24.67-3.17" style="fill:none;stroke:#999;stroke-width:3"></path>
<path d="M135.77,13.5c0.48,0.92,1.76,2.49,1.76,5.52c0,16.48,0.24,64.94,0.24,69.9c0,14.25-6.32,3.53-7.77,2" style="fill:none;stroke:#999;stroke-width:3"></path>

<path d="M229.0,36.92c2.08,0.25,1.27,0.55,3.5,0.25c5.5-0.75,15.5-2,24.67-3.17" style="fill:none;stroke:#999;stroke-width:3"></path>
<path d="M244.77,13.5c0.48,0.92,1.76,2.49,1.76,5.52c0,16.48,0.24,64.94,0.24,69.9c0,14.25-6.32,3.53-7.77,2" style="fill:none;stroke:#999;stroke-width:3"></path>
<path d="M230.0,65.64c2.38,1.39,2.92,0.75,5.3-0.44c1.4-0.7,19.99-10.91,25.95-14.28" style="fill:none;stroke:#999;stroke-width:3"></path>

<path d="M338.0,36.92c2.08,0.25,1.27,0.55,3.5,0.25c5.5-0.75,15.5-2,24.67-3.17" style="fill:none;stroke:#999;stroke-width:3"></path>
<path d="M353.77,13.5c0.48,0.92,1.76,2.49,1.76,5.52c0,16.48,0.24,64.94,0.24,69.9c0,14.25-6.32,3.53-7.77,2" style="fill:none;stroke:#999;stroke-width:3"></path>
<path d="M339.0,65.64c2.38,1.39,2.92,0.75,5.3-0.44c1.4-0.7,19.99-10.91,25.95-14.28" style="fill:none;stroke:#999;stroke-width:3"></path>
<path d="M393.15,12.69c1.04,0.34,2.53,2,2.5,2.98C395.57,18.75,395.57,28.2,395.57,31" style="fill:none;stroke:#999;stroke-width:3"></path>

<path d="M447.0,36.92c2.08,0.25,1.27,0.55,3.5,0.25c5.5-0.75,15.5-2,24.67-3.17" style="fill:none;stroke:#999;stroke-width:3"></path>
<path d="M462.77,13.5c0.48,0.92,1.76,2.49,1.76,5.52c0,16.48,0.24,64.94,0.24,69.9c0,14.25-6.32,3.53-7.77,2" style="fill:none;stroke:#999;stroke-width:3"></path>
<path d="M448.0,65.64c2.38,1.39,2.92,0.75,5.3-0.44c1.4-0.7,19.99-10.91,25.95-14.28" style="fill:none;stroke:#999;stroke-width:3"></path>
<path d="M502.15,12.69c1.04,0.34,2.53,2,2.5,2.98C504.57,18.75,504.57,28.2,504.57,31" style="fill:none;stroke:#999;stroke-width:3"></path>
<path d="M483.0,33.28c1.38,0.4,3.62,0.67,4.44,0.59c10.76-0.99,26.99-4.94,40.41-4.94c0.99,0,3.16,0.59,4.15,0.99" style="fill:none;stroke:#999;stroke-width:3"></path>

<path d="M556.0,36.92c2.08,0.25,1.27,0.55,3.5,0.25c5.5-0.75,15.5-2,24.67-3.17" style="fill:none;stroke:#999;stroke-width:3"></path>
<path d="M571.77,13.5c0.48,0.92,1.76,2.49,1.76,5.52c0,16.48,0.24,64.94,0.24,69.9c0,14.25-6.32,3.53-7.77,2" style="fill:none;stroke:#999;stroke-width:3"></path>
<path d="M557.0,65.64c2.38,1.39,2.92,0.75,5.3-0.44c1.4-0.7,19.99-10.91,25.95-14.28" style="fill:none;stroke:#999;stroke-width:3"></path>
<path d="M611.15,12.69c1.04,0.34,2.53,2,2.5,2.98C613.5699999999999,18.75,613.5699999999999,28.2,613.5699999999999,31" style="fill:none;stroke:#999;stroke-width:3"></path>
<path d="M592.0,33.28c1.38,0.4,3.62,0.67,4.44,0.59c10.76-0.99,26.99-4.94,40.41-4.94c0.99,0,3.16,0.59,4.15,0.99" style="fill:none;stroke:#999;stroke-width:3"></path>
<path d="M612.5,35.08c0.88,1.01,1,2.64,1,4.53c0,9.93-0.28,45.95-0.28,58.45" style="fill:none;stroke:#999;stroke-width:3"></path>

<path d="M665.0,36.92c2.08,0.25,1.27,0.55,3.5,0.25c5.5-0.75,15.5-2,24.67-3.17" style="fill:none;stroke:#999;stroke-width:3"></path>
<path d="M680.77,13.5c0.48,0.92,1.76,2.49,1.76,5.52c0,16.48,0.24,64.94,0.24,69.9c0,14.25-6.32,3.53-7.77,2" style="fill:none;stroke:#999;stroke-width:3"></path>
<path d="M666.0,65.64c2.38,1.39,2.92,0.75,5.3-0.44c1.4-0.7,19.99-10.91,25.95-14.28" style="fill:none;stroke:#999;stroke-width:3"></path>
<path d="M720.15,12.69c1.04,0.34,2.53,2,2.5,2.98C722.5699999999999,18.75,722.5699999999999,28.2,722.5699999999999,31" style="fill:none;stroke:#999;stroke-width:3"></path>
<path d="M701.0,33.28c1.38,0.4,3.62,0.67,4.44,0.59c10.76-0.99,26.99-4.94,40.41-4.94c0.99,0,3.16,0.59,4.15,0.99" style="fill:none;stroke:#999;stroke-width:3"></path>
<path d="M721.5,35.08c0.88,1.01,1,2.64,1,4.53c0,9.93-0.28,45.95-0.28,58.45" style="fill:none;stroke:#999;stroke-width:3"></path>
<path d="M725.28,50.02c4.3,2.19,17.83,11.36,19.71,15.16" style="fill:none;stroke:#999;stroke-width:3"></path>

</svg>