<svg width="763px" height="109px" viewBox="0 0 763 109" xmlns="http://www.w3.org/2000/svg" xmlns:xlink="http://www.w3.org/1999/xlink" xml:space="preserve" version="1.1" baseProfile="full">
<line x1="1" y1="1" x2="762" y2="1" style="stroke:#ddd;stroke-width:2"></line>
<line x1="1" y1="1" x2="1" y2="108" style="stroke:#ddd;stroke-width:2"></line>
<line x1="1" y1="108" x2="762" y2="108" style="stroke:#ddd;stroke-width:2"></line>
<line x1="762" y1="1" x2="762" y2="108" style="stroke:#ddd;stroke-width:2"></line>
<line x1="109" y1="1" x2="109" y2="108" style="stroke:#ddd;stroke-width:2"></line>
<line x1="218" y1="1" x2="218" y2="108" style="stroke:#ddd;stroke-width:2"></line>
<line x1="327" y1="1" x2="327" y2="108" style="stroke:#ddd;stroke-width:2"></line>
<line x1="436" y1="1" x2="436" y2="108" style="stroke:#ddd;stroke-width:2"></line>
<line x1="545" y1="1" x2="545" y2="108" style="stroke:#ddd;stroke-width:2"></line>
<line x1="654" y1="1" x2="654" y2="108" style="stroke:#ddd;stroke-width:2"></line>
<line x1="1" y1="54" x2="762" y2="54" style="stroke:#ddd;stroke-width:2;stroke-dasharray:3 3"></line>
<line x1="55" y1="1" x2="55" y2="108" style="stroke:#ddd;stroke-width:2;stroke-dasharray:3 3"></line>
<line x1="164" y1="1" x2="164" y2="108" style="stroke:#ddd;stroke-width:2;stroke-dasharray:3 3"></line>
<line x1="273" y1="1" x2="273" y2="108" style="stroke:#ddd;stroke-width:2;stroke-dasharray:3 3"></line>
<line x1="382" y1="1" x2="382" y2="108" style="stroke:#ddd;stroke-width:2;stroke-dasharray:3 3"></line>
<line x1="491" y1="1" x2="491" y2="108" style="stroke:#ddd;stroke-width:2;stroke-dasharray:3 3"></line>
<line x1="600" y1="1" x2="600" y2="108" style="stroke:#ddd;stroke-width:2;stroke-dasharray:3 3"></line>
<line x1="709" y1="1" x2="709" y2="108" style="stroke:#ddd;stroke-width:2;stroke-dasharray:3 3"></line>
<path d="M12.0,35.86c2.34,0.28,1.43,0.62,3.94,0.28c6.18-0.84,17.43-2.81,27.73-4.12" style="fill:none;stroke:#999;stroke-width:3"></path>

<path d="M121.0,35.86c2.34,0.28,1.43,0.62,3.94,0.28c6.18-0.84,17.43-2.81,27.73-4.12" style="fill:none;stroke:#999;stroke-width:3"></path>
<path d="M137.77,12c0.48,0.92,1.67,2.49,1.76,5.52c0.4,14.55,0.24,62.94,0.24,67.9c0,14.25-6.32,3.53-7.77,2" style="fill:none;stroke:#999;stroke-width:3"></path>

<path d="M230.0,35.86c2.34,0.28,1.43,0.62,3.94,0.28c6.18-0.84,17.43-2.81,27.73-4.12" style="fill:none;stroke:#999;stroke-width:3"></path>
<path d="M246.77,12c0.48,0.92,1.67,2.49,1.76,5.52c0.4,14.55,0.24,62.94,0.24,67.9c0,14.25-6.32,3.53-7.77,2" style="fill:none;stroke:#999;stroke-width:3"></path>
<path d="M231.0,63.74c2.04,1.22,3.34,1.16,5.38,0.12c1.2-0.61,19.53-11.23,24.62-14.19" style="fill:none;stroke:#999;stroke-width:3"></path>

<path d="M339.0,35.86c2.34,0.28,1.43,0.62,3.94,0.28c6.18-0.84,17.43-2.81,27.73-4.12" style="fill:none;stroke:#999;stroke-width:3"></path>
<path d="M355.77,12c0.48,0.92,1.67,2.49,1.76,5.52c0.4,14.55,0.24,62.94,0.24,67.9c0,14.25-6.32,3.53-7.77,2" style="fill:none;stroke:#999;stroke-width:3"></path>
<path d="M340.0,63.74c2.04,1.22,3.34,1.16,5.38,0.12c1.2-0.61,19.53-11.23,24.62-14.19" style="fill:none;stroke:#999;stroke-width:3"></path>
<path d="M375.51,17.59c1.74,0.91,3.59,0.68,4.83,0.42c2.46-0.52,27.5-4.24,30.1-4.76c2.6-0.52,3.49,2.21,1.94,3.92c-2.66,2.94-14.29,13.29-15.93,15.39" style="fill:none;stroke:#999;stroke-width:3"></path>

<path d="M448.0,35.86c2.34,0.28,1.43,0.62,3.94,0.28c6.18-0.84,17.43-2.81,27.73-4.12" style="fill:none;stroke:#999;stroke-width:3"></path>
<path d="M464.77,12c0.48,0.92,1.67,2.49,1.76,5.52c0.4,14.55,0.24,62.94,0.24,67.9c0,14.25-6.32,3.53-7.77,2" style="fill:none;stroke:#999;stroke-width:3"></path>
<path d="M449.0,63.74c2.04,1.22,3.34,1.16,5.38,0.12c1.2-0.61,19.53-11.23,24.62-14.19" style="fill:none;stroke:#999;stroke-width:3"></path>
<path d="M484.51,17.59c1.74,0.91,3.59,0.68,4.83,0.42c2.46-0.52,27.5-4.24,30.1-4.76c2.6-0.52,3.49,2.21,1.94,3.92c-2.66,2.94-14.29,13.29-15.93,15.39" style="fill:none;stroke:#999;stroke-width:3"></path>
<path d="M494.5,28c3.76,1.37,13.48,6.66,15.25,10.25" style="fill:none;stroke:#999;stroke-width:3"></path>

<path d="M557.0,35.86c2.34,0.28,1.43,0.62,3.94,0.28c6.18-0.84,17.43-2.81,27.73-4.12" style="fill:none;stroke:#999;stroke-width:3"></path>
<path d="M573.77,12c0.48,0.92,1.67,2.49,1.76,5.52c0.4,14.55,0.24,62.94,0.24,67.9c0,14.25-6.32,3.53-7.77,2" style="fill:none;stroke:#999;stroke-width:3"></path>
<path d="M558.0,63.74c2.04,1.22,3.34,1.16,5.38,0.12c1.2-0.61,19.53-11.23,24.62-14.19" style="fill:none;stroke:#999;stroke-width:3"></path>
<path d="M593.51,17.59c1.74,0.91,3.59,0.68,4.83,0.42c2.46-0.52,27.5-4.24,30.1-4.76c2.6-0.52,3.49,2.21,1.94,3.92c-2.66,2.94-14.29,13.29-15.93,15.39" style="fill:none;stroke:#999;stroke-width:3"></path>
<path d="M603.5,28c3.76,1.37,13.48,6.66,15.25,10.25" style="fill:none;stroke:#999;stroke-width:3"></path>
<path d="M591.67,43.88c0.83,0.62,2.43,1.3,5.83,0.62c3.41-0.68,27.83-5.45,30.5-6.25c11.75-3.5,10,3.25-1.25,11.5" style="fill:none;stroke:#999;stroke-width:3"></path>

<path d="M666.0,35.86c2.34,0.28,1.43,0.62,3.94,0.28c6.18-0.84,17.43-2.81,27.73-4.12" style="fill:none;stroke:#999;stroke-width:3"></path>
<path d="M682.77,12c0.48,0.92,1.67,2.49,1.76,5.52c0.4,14.55,0.24,62.94,0.24,67.9c0,14.25-6.32,3.53-7.77,2" style="fill:none;stroke:#999;stroke-width:3"></path>
<path d="M667.0,63.74c2.04,1.22,3.34,1.16,5.38,0.12c1.2-0.61,19.53-11.23,24.62-14.19" style="fill:none;stroke:#999;stroke-width:3"></path>
<path d="M702.51,17.59c1.74,0.91,3.59,0.68,4.83,0.42c2.46-0.52,27.5-4.24,30.1-4.76c2.6-0.52,3.49,2.21,1.94,3.92c-2.66,2.94-14.29,13.29-15.93,15.39" style="fill:none;stroke:#999;stroke-width:3"></path>
<path d="M712.5,28c3.76,1.37,13.48,6.66,15.25,10.25" style="fill:none;stroke:#999;stroke-width:3"></path>
<path d="M700.67,43.88c0.83,0.62,2.43,1.3,5.83,0.62c3.41-0.68,27.83-5.45,30.5-6.25c11.75-3.5,10,3.25-1.25,11.5" style="fill:none;stroke:#999;stroke-width:3"></path>
<path d="M722.26,46.75c1.62,1.02,2.82,2.38,2.82,4.41c0,2.04,0.21,35.86,0.19,39.59c-0.03,8.25-4.28,5-8.5,0.98" style="fill:none;stroke:#999;stroke-width:3"></path>

</svg>