<svg width="872px" height="109px" viewBox="0 0 872 109" xmlns="http://www.w3.org/2000/svg" xmlns:xlink="http://www.w3.org/1999/xlink" xml:space="preserve" version="1.1" baseProfile="full">
<line x1="1" y1="1" x2="871" y2="1" style="stroke:#ddd;stroke-width:2"></line>
<line x1="1" y1="1" x2="1" y2="108" style="stroke:#ddd;stroke-width:2"></line>
<line x1="1" y1="108" x2="871" y2="108" style="stroke:#ddd;stroke-width:2"></line>
<line x1="871" y1="1" x2="871" y2="108" style="stroke:#ddd;stroke-width:2"></line>
<line x1="109" y1="1" x2="109" y2="108" style="stroke:#ddd;stroke-width:2"></line>
<line x1="218" y1="1" x2="218" y2="108" style="stroke:#ddd;stroke-width:2"></line>
<line x1="327" y1="1" x2="327" y2="108" style="stroke:#ddd;stroke-width:2"></line>
<line x1="436" y1="1" x2="436" y2="108" style="stroke:#ddd;stroke-width:2"></line>
<line x1="545" y1="1" x2="545" y2="108" style="stroke:#ddd;stroke-width:2"></line>
<line x1="654" y1="1" x2="654" y2="108" style="stroke:#ddd;stroke-width:2"></line>
<line x1="763" y1="1" x2="763" y2="108" style="stroke:#ddd;stroke-width:2"></line>
<line x1="1" y1="54" x2="871" y2="54" style="stroke:#ddd;stroke-width:2;stroke-dasharray:3 3"></line>
<line x1="55" y1="1" x2="55" y2="108" style="stroke:#ddd;stroke-width:2;stroke-dasharray:3 3"></line>
<line x1="164" y1="1" x2="164" y2="108" style="stroke:#ddd;stroke-width:2;stroke-dasharray:3 3"></line>
<line x1="273" y1="1" x2="273" y2="108" style="stroke:#ddd;stroke-width:2;stroke-dasharray:3 3"></line>
<line x1="382" y1="1" x2="382" y2="108" style="stroke:#ddd;stroke-width:2;stroke-dasharray:3 3"></line>
<line x1="491" y1="1" x2="491" y2="108" style="stroke:#ddd;stroke-width:2;stroke-dasharray:3 3"></line>
<line x1="600" y1="1" x2="600" y2="108" style="stroke:#ddd;stroke-width:2;stroke-dasharray:3 3"></line>
<line x1="709" y1="1" x2="709" y2="108" style="stroke:#ddd;stroke-width:2;stroke-dasharray:3 3"></line>
<line x1="818" y1="1" x2="818" y2="108" style="stroke:#ddd;stroke-width:2;stroke-dasharray:3 3"></line>
<path d="M16.0,39.67c1.95,0.23,3.78,0.46,5.77,0.2c5.39-0.71,14.21-2.52,21.46-3.51c0.9-0.12,2.02-0.1,2.68-0.1" style="fill:none;stroke:#999;stroke-width:3"></path>

<path d="M125.0,39.67c1.95,0.23,3.78,0.46,5.77,0.2c5.39-0.71,14.21-2.52,21.46-3.51c0.9-0.12,2.02-0.1,2.68-0.1" style="fill:none;stroke:#999;stroke-width:3"></path>
<path d="M142.02,15.75c1.12,1.12,1.51,2.88,1.51,4.77c0,15.23,0.24,53.46,0.24,64.9c0,14.25-6.32,3.53-7.77,2" style="fill:none;stroke:#999;stroke-width:3"></path>

<path d="M234.0,39.67c1.95,0.23,3.78,0.46,5.77,0.2c5.39-0.71,14.21-2.52,21.46-3.51c0.9-0.12,2.02-0.1,2.68-0.1" style="fill:none;stroke:#999;stroke-width:3"></path>
<path d="M251.02,15.75c1.12,1.12,1.51,2.88,1.51,4.77c0,15.23,0.24,53.46,0.24,64.9c0,14.25-6.32,3.53-7.77,2" style="fill:none;stroke:#999;stroke-width:3"></path>
<path d="M234.0,67.27c1.12,0.73,2.47,0.7,4.08-0.34c6.29-4.05,15.54-10.3,24.04-16.43" style="fill:none;stroke:#999;stroke-width:3"></path>

<path d="M343.0,39.67c1.95,0.23,3.78,0.46,5.77,0.2c5.39-0.71,14.21-2.52,21.46-3.51c0.9-0.12,2.02-0.1,2.68-0.1" style="fill:none;stroke:#999;stroke-width:3"></path>
<path d="M360.02,15.75c1.12,1.12,1.51,2.88,1.51,4.77c0,15.23,0.24,53.46,0.24,64.9c0,14.25-6.32,3.53-7.77,2" style="fill:none;stroke:#999;stroke-width:3"></path>
<path d="M343.0,67.27c1.12,0.73,2.47,0.7,4.08-0.34c6.29-4.05,15.54-10.3,24.04-16.43" style="fill:none;stroke:#999;stroke-width:3"></path>
<path d="M378.54,21.59c0.94,0.94,1.34,2.27,1.34,3.47c0,0.7,0.03,39.99,0,61.57c0,2.54-0.01,4.82-0.01,6.75" style="fill:none;stroke:#999;stroke-width:3"></path>

<path d="M452.0,39.67c1.95,0.23,3.78,0.46,5.77,0.2c5.39-0.71,14.21-2.52,21.46-3.51c0.9-0.12,2.02-0.1,2.68-0.1" style="fill:none;stroke:#999;stroke-width:3"></path>
<path d="M469.02,15.75c1.12,1.12,1.51,2.88,1.51,4.77c0,15.23,0.24,53.46,0.24,64.9c0,14.25-6.32,3.53-7.77,2" style="fill:none;stroke:#999;stroke-width:3"></path>
<path d="M452.0,67.27c1.12,0.73,2.47,0.7,4.08-0.34c6.29-4.05,15.54-10.3,24.04-16.43" style="fill:none;stroke:#999;stroke-width:3"></path>
<path d="M487.54,21.59c0.94,0.94,1.34,2.27,1.34,3.47c0,0.7,0.03,39.99,0,61.57c0,2.54-0.01,4.82-0.01,6.75" style="fill:none;stroke:#999;stroke-width:3"></path>
<path d="M489.35,23.11c6.73-0.68,25.4-2.36,33.31-3.61c2.34-0.37,3.79-0.22,4.98,0.03" style="fill:none;stroke:#999;stroke-width:3"></path>

<path d="M561.0,39.67c1.95,0.23,3.78,0.46,5.77,0.2c5.39-0.71,14.21-2.52,21.46-3.51c0.9-0.12,2.02-0.1,2.68-0.1" style="fill:none;stroke:#999;stroke-width:3"></path>
<path d="M578.02,15.75c1.12,1.12,1.51,2.88,1.51,4.77c0,15.23,0.24,53.46,0.24,64.9c0,14.25-6.32,3.53-7.77,2" style="fill:none;stroke:#999;stroke-width:3"></path>
<path d="M561.0,67.27c1.12,0.73,2.47,0.7,4.08-0.34c6.29-4.05,15.54-10.3,24.04-16.43" style="fill:none;stroke:#999;stroke-width:3"></path>
<path d="M596.54,21.59c0.94,0.94,1.34,2.27,1.34,3.47c0,0.7,0.03,39.99,0,61.57c0,2.54-0.01,4.82-0.01,6.75" style="fill:none;stroke:#999;stroke-width:3"></path>
<path d="M598.35,23.11c6.73-0.68,25.4-2.36,33.31-3.61c2.34-0.37,3.79-0.22,4.98,0.03" style="fill:none;stroke:#999;stroke-width:3"></path>
<path d="M599.0,45.04c10.37-1.17,21.5-2.67,29.5-3.32c2.74-0.22,4.24,1.28,3.66,4.13c-0.93,4.5-3.07,11.6-4.23,16.96" style="fill:none;stroke:#999;stroke-width:3"></path>

<path d="M670.0,39.67c1.95,0.23,3.78,0.46,5.77,0.2c5.39-0.71,14.21-2.52,21.46-3.51c0.9-0.12,2.02-0.1,2.68-0.1" style="fill:none;stroke:#999;stroke-width:3"></path>
<path d="M687.02,15.75c1.12,1.12,1.51,2.88,1.51,4.77c0,15.23,0.24,53.46,0.24,64.9c0,14.25-6.32,3.53-7.77,2" style="fill:none;stroke:#999;stroke-width:3"></path>
<path d="M670.0,67.27c1.12,0.73,2.47,0.7,4.08-0.34c6.29-4.05,15.54-10.3,24.04-16.43" style="fill:none;stroke:#999;stroke-width:3"></path>
<path d="M705.54,21.59c0.94,0.94,1.34,2.27,1.34,3.47c0,0.7,0.03,39.99,0,61.57c0,2.54-0.01,4.82-0.01,6.75" style="fill:none;stroke:#999;stroke-width:3"></path>
<path d="M707.35,23.11c6.73-0.68,25.4-2.36,33.31-3.61c2.34-0.37,3.79-0.22,4.98,0.03" style="fill:none;stroke:#999;stroke-width:3"></path>
<path d="M708.0,45.04c10.37-1.17,21.5-2.67,29.5-3.32c2.74-0.22,4.24,1.28,3.66,4.13c-0.93,4.5-3.07,11.6-4.23,16.96" style="fill:none;stroke:#999;stroke-width:3"></path>
<path d="M708.07,66.96c5.11-0.48,18.07-1.85,26.39-2.71c2.29-0.24,4.23-0.42,5.56-0.5" style="fill:none;stroke:#999;stroke-width:3"></path>

<path d="M779.0,39.67c1.95,0.23,3.78,0.46,5.77,0.2c5.39-0.71,14.21-2.52,21.46-3.51c0.9-0.12,2.02-0.1,2.68-0.1" style="fill:none;stroke:#999;stroke-width:3"></path>
<path d="M796.02,15.75c1.12,1.12,1.51,2.88,1.51,4.77c0,15.23,0.24,53.46,0.24,64.9c0,14.25-6.32,3.53-7.77,2" style="fill:none;stroke:#999;stroke-width:3"></path>
<path d="M779.0,67.27c1.12,0.73,2.47,0.7,4.08-0.34c6.29-4.05,15.54-10.3,24.04-16.43" style="fill:none;stroke:#999;stroke-width:3"></path>
<path d="M814.54,21.59c0.94,0.94,1.34,2.27,1.34,3.47c0,0.7,0.03,39.99,0,61.57c0,2.54-0.01,4.82-0.01,6.75" style="fill:none;stroke:#999;stroke-width:3"></path>
<path d="M816.35,23.11c6.73-0.68,25.4-2.36,33.31-3.61c2.34-0.37,3.79-0.22,4.98,0.03" style="fill:none;stroke:#999;stroke-width:3"></path>
<path d="M817.0,45.04c10.37-1.17,21.5-2.67,29.5-3.32c2.74-0.22,4.24,1.28,3.66,4.13c-0.93,4.5-3.07,11.6-4.23,16.96" style="fill:none;stroke:#999;stroke-width:3"></path>
<path d="M817.07,66.96c5.11-0.48,18.07-1.85,26.39-2.71c2.29-0.24,4.23-0.42,5.56-0.5" style="fill:none;stroke:#999;stroke-width:3"></path>
<path d="M817.1,91.36c6.73-0.68,21.11-1.98,36.75-2.65c2.37-0.1,3.79-0.22,4.98,0.03" style="fill:none;stroke:#999;stroke-width:3"></path>

</svg>