<svg width="872px" height="109px" viewBox="0 0 872 109" xmlns="http://www.w3.org/2000/svg" xmlns:xlink="http://www.w3.org/1999/xlink" xml:space="preserve" version="1.1" baseProfile="full">
<line x1="1" y1="1" x2="871" y2="1" style="stroke:#ddd;stroke-width:2"></line>
<line x1="1" y1="1" x2="1" y2="108" style="stroke:#ddd;stroke-width:2"></line>
<line x1="1" y1="108" x2="871" y2="108" style="stroke:#ddd;stroke-width:2"></line>
<line x1="871" y1="1" x2="871" y2="108" style="stroke:#ddd;stroke-width:2"></line>
<line x1="109" y1="1" x2="109" y2="108" style="stroke:#ddd;stroke-width:2"></line>
<line x1="218" y1="1" x2="218" y2="108" style="stroke:#ddd;stroke-width:2"></line>
<line x1="327" y1="1" x2="327" y2="108" style="stroke:#ddd;stroke-width:2"></line>
<line x1="436" y1="1" x2="436" y2="108" style="stroke:#ddd;stroke-width:2"></line>
<line x1="545" y1="1" x2="545" y2="108" style="stroke:#ddd;stroke-width:2"></line>
<line x1="654" y1="1" x2="654" y2="108" style="stroke:#ddd;stroke-width:2"></line>
<line x1="763" y1="1" x2="763" y2="108" style="stroke:#ddd;stroke-width:2"></line>
<line x1="1" y1="54" x2="871" y2="54" style="stroke:#ddd;stroke-width:2;stroke-dasharray:3 3"></line>
<line x1="55" y1="1" x2="55" y2="108" style="stroke:#ddd;stroke-width:2;stroke-dasharray:3 3"></line>
<line x1="164" y1="1" x2="164" y2="108" style="stroke:#ddd;stroke-width:2;stroke-dasharray:3 3"></line>
<line x1="273" y1="1" x2="273" y2="108" style="stroke:#ddd;stroke-width:2;stroke-dasharray:3 3"></line>
<line x1="382" y1="1" x2="382" y2="108" style="stroke:#ddd;stroke-width:2;stroke-dasharray:3 3"></line>
<line x1="491" y1="1" x2="491" y2="108" style="stroke:#ddd;stroke-width:2;stroke-dasharray:3 3"></line>
<line x1="600" y1="1" x2="600" y2="108" style="stroke:#ddd;stroke-width:2;stroke-dasharray:3 3"></line>
<line x1="709" y1="1" x2="709" y2="108" style="stroke:#ddd;stroke-width:2;stroke-dasharray:3 3"></line>
<line x1="818" y1="1" x2="818" y2="108" style="stroke:#ddd;stroke-width:2;stroke-dasharray:3 3"></line>
<path d="M13.0,37.92c2.08,0.25,1.27,0.55,3.5,0.25c5.5-0.75,14-2,23.17-3.17" style="fill:none;stroke:#999;stroke-width:3"></path>

<path d="M122.0,37.92c2.08,0.25,1.27,0.55,3.5,0.25c5.5-0.75,14-2,23.17-3.17" style="fill:none;stroke:#999;stroke-width:3"></path>
<path d="M136.77,14.5c0.48,0.92,1.67,2.49,1.76,5.52c0.4,14.55,0.24,61.94,0.24,66.9c0,16.08-6.32,4.53-7.77,3" style="fill:none;stroke:#999;stroke-width:3"></path>

<path d="M231.0,37.92c2.08,0.25,1.27,0.55,3.5,0.25c5.5-0.75,14-2,23.17-3.17" style="fill:none;stroke:#999;stroke-width:3"></path>
<path d="M245.77,14.5c0.48,0.92,1.67,2.49,1.76,5.52c0.4,14.55,0.24,61.94,0.24,66.9c0,16.08-6.32,4.53-7.77,3" style="fill:none;stroke:#999;stroke-width:3"></path>
<path d="M231.0,65.8c2.27,1.43,2.95,1.85,4.89,1.06c0.74-0.3,16.53-9.39,24.36-14.2" style="fill:none;stroke:#999;stroke-width:3"></path>

<path d="M340.0,37.92c2.08,0.25,1.27,0.55,3.5,0.25c5.5-0.75,14-2,23.17-3.17" style="fill:none;stroke:#999;stroke-width:3"></path>
<path d="M354.77,14.5c0.48,0.92,1.67,2.49,1.76,5.52c0.4,14.55,0.24,61.94,0.24,66.9c0,16.08-6.32,4.53-7.77,3" style="fill:none;stroke:#999;stroke-width:3"></path>
<path d="M340.0,65.8c2.27,1.43,2.95,1.85,4.89,1.06c0.74-0.3,16.53-9.39,24.36-14.2" style="fill:none;stroke:#999;stroke-width:3"></path>
<path d="M373.75,36.89c0.94,0.38,2.66,0.46,3.6,0.38c6.15-0.52,32.32-3.83,38.11-3.38c1.56,0.12,2.5,0.18,3.29,0.37" style="fill:none;stroke:#999;stroke-width:3"></path>

<path d="M449.0,37.92c2.08,0.25,1.27,0.55,3.5,0.25c5.5-0.75,14-2,23.17-3.17" style="fill:none;stroke:#999;stroke-width:3"></path>
<path d="M463.77,14.5c0.48,0.92,1.67,2.49,1.76,5.52c0.4,14.55,0.24,61.94,0.24,66.9c0,16.08-6.32,4.53-7.77,3" style="fill:none;stroke:#999;stroke-width:3"></path>
<path d="M449.0,65.8c2.27,1.43,2.95,1.85,4.89,1.06c0.74-0.3,16.53-9.39,24.36-14.2" style="fill:none;stroke:#999;stroke-width:3"></path>
<path d="M482.75,36.89c0.94,0.38,2.66,0.46,3.6,0.38c6.15-0.52,32.32-3.83,38.11-3.38c1.56,0.12,2.5,0.18,3.29,0.37" style="fill:none;stroke:#999;stroke-width:3"></path>
<path d="M497.21,13.25c0.79,1.25,1.63,1.78,1.53,4.07C497.75,38.5,493.75,68,473.44,90.22" style="fill:none;stroke:#999;stroke-width:3"></path>

<path d="M558.0,37.92c2.08,0.25,1.27,0.55,3.5,0.25c5.5-0.75,14-2,23.17-3.17" style="fill:none;stroke:#999;stroke-width:3"></path>
<path d="M572.77,14.5c0.48,0.92,1.67,2.49,1.76,5.52c0.4,14.55,0.24,61.94,0.24,66.9c0,16.08-6.32,4.53-7.77,3" style="fill:none;stroke:#999;stroke-width:3"></path>
<path d="M558.0,65.8c2.27,1.43,2.95,1.85,4.89,1.06c0.74-0.3,16.53-9.39,24.36-14.2" style="fill:none;stroke:#999;stroke-width:3"></path>
<path d="M591.75,36.89c0.94,0.38,2.66,0.46,3.6,0.38c6.15-0.52,32.32-3.83,38.11-3.38c1.56,0.12,2.5,0.18,3.29,0.37" style="fill:none;stroke:#999;stroke-width:3"></path>
<path d="M606.21,13.25c0.79,1.25,1.63,1.78,1.53,4.07C606.75,38.5,602.75,68,582.44,90.22" style="fill:none;stroke:#999;stroke-width:3"></path>
<path d="M626.76,44c0.09,1.23,0.13,3.49-0.18,4.95C623.0,66,611.5,84.5,593.5,96.79" style="fill:none;stroke:#999;stroke-width:3"></path>

<path d="M667.0,37.92c2.08,0.25,1.27,0.55,3.5,0.25c5.5-0.75,14-2,23.17-3.17" style="fill:none;stroke:#999;stroke-width:3"></path>
<path d="M681.77,14.5c0.48,0.92,1.67,2.49,1.76,5.52c0.4,14.55,0.24,61.94,0.24,66.9c0,16.08-6.32,4.53-7.77,3" style="fill:none;stroke:#999;stroke-width:3"></path>
<path d="M667.0,65.8c2.27,1.43,2.95,1.85,4.89,1.06c0.74-0.3,16.53-9.39,24.36-14.2" style="fill:none;stroke:#999;stroke-width:3"></path>
<path d="M700.75,36.89c0.94,0.38,2.66,0.46,3.6,0.38c6.15-0.52,32.32-3.83,38.11-3.38c1.56,0.12,2.5,0.18,3.29,0.37" style="fill:none;stroke:#999;stroke-width:3"></path>
<path d="M715.21,13.25c0.79,1.25,1.63,1.78,1.53,4.07C715.75,38.5,711.75,68,691.44,90.22" style="fill:none;stroke:#999;stroke-width:3"></path>
<path d="M735.76,44c0.09,1.23,0.13,3.49-0.18,4.95C732.0,66,720.5,84.5,702.5,96.79" style="fill:none;stroke:#999;stroke-width:3"></path>
<path d="M712.0,51.25c4.5,8.5,20.75,33.25,31.02,40.33c2.04,1.41,3.08,2.64,4.73,3.17" style="fill:none;stroke:#999;stroke-width:3"></path>

<path d="M776.0,37.92c2.08,0.25,1.27,0.55,3.5,0.25c5.5-0.75,14-2,23.17-3.17" style="fill:none;stroke:#999;stroke-width:3"></path>
<path d="M790.77,14.5c0.48,0.92,1.67,2.49,1.76,5.52c0.4,14.55,0.24,61.94,0.24,66.9c0,16.08-6.32,4.53-7.77,3" style="fill:none;stroke:#999;stroke-width:3"></path>
<path d="M776.0,65.8c2.27,1.43,2.95,1.85,4.89,1.06c0.74-0.3,16.53-9.39,24.36-14.2" style="fill:none;stroke:#999;stroke-width:3"></path>
<path d="M809.75,36.89c0.94,0.38,2.66,0.46,3.6,0.38c6.15-0.52,32.32-3.83,38.11-3.38c1.56,0.12,2.5,0.18,3.29,0.37" style="fill:none;stroke:#999;stroke-width:3"></path>
<path d="M824.21,13.25c0.79,1.25,1.63,1.78,1.53,4.07C824.75,38.5,820.75,68,800.44,90.22" style="fill:none;stroke:#999;stroke-width:3"></path>
<path d="M844.76,44c0.09,1.23,0.13,3.49-0.18,4.95C841.0,66,829.5,84.5,811.5,96.79" style="fill:none;stroke:#999;stroke-width:3"></path>
<path d="M821.0,51.25c4.5,8.5,20.75,33.25,31.02,40.33c2.04,1.41,3.08,2.64,4.73,3.17" style="fill:none;stroke:#999;stroke-width:3"></path>
<path d="M839.52,15.08c3.1,1.7,8.02,6.99,8.79,9.63" style="fill:none;stroke:#999;stroke-width:3"></path>

</svg>