<svg width="1199px" height="109px" viewBox="0 0 1199 109" xmlns="http://www.w3.org/2000/svg" xmlns:xlink="http://www.w3.org/1999/xlink" xml:space="preserve" version="1.1" baseProfile="full">
<line x1="1" y1="1" x2="1198" y2="1" style="stroke:#ddd;stroke-width:2"></line>
<line x1="1" y1="1" x2="1" y2="108" style="stroke:#ddd;stroke-width:2"></line>
<line x1="1" y1="108" x2="1198" y2="108" style="stroke:#ddd;stroke-width:2"></line>
<line x1="1198" y1="1" x2="1198" y2="108" style="stroke:#ddd;stroke-width:2"></line>
<line x1="109" y1="1" x2="109" y2="108" style="stroke:#ddd;stroke-width:2"></line>
<line x1="218" y1="1" x2="218" y2="108" style="stroke:#ddd;stroke-width:2"></line>
<line x1="327" y1="1" x2="327" y2="108" style="stroke:#ddd;stroke-width:2"></line>
<line x1="436" y1="1" x2="436" y2="108" style="stroke:#ddd;stroke-width:2"></line>
<line x1="545" y1="1" x2="545" y2="108" style="stroke:#ddd;stroke-width:2"></line>
<line x1="654" y1="1" x2="654" y2="108" style="stroke:#ddd;stroke-width:2"></line>
<line x1="763" y1="1" x2="763" y2="108" style="stroke:#ddd;stroke-width:2"></line>
<line x1="872" y1="1" x2="872" y2="108" style="stroke:#ddd;stroke-width:2"></line>
<line x1="981" y1="1" x2="981" y2="108" style="stroke:#ddd;stroke-width:2"></line>
<line x1="1090" y1="1" x2="1090" y2="108" style="stroke:#ddd;stroke-width:2"></line>
<line x1="1" y1="54" x2="1198" y2="54" style="stroke:#ddd;stroke-width:2;stroke-dasharray:3 3"></line>
<line x1="55" y1="1" x2="55" y2="108" style="stroke:#ddd;stroke-width:2;stroke-dasharray:3 3"></line>
<line x1="164" y1="1" x2="164" y2="108" style="stroke:#ddd;stroke-width:2;stroke-dasharray:3 3"></line>
<line x1="273" y1="1" x2="273" y2="108" style="stroke:#ddd;stroke-width:2;stroke-dasharray:3 3"></line>
<line x1="382" y1="1" x2="382" y2="108" style="stroke:#ddd;stroke-width:2;stroke-dasharray:3 3"></line>
<line x1="491" y1="1" x2="491" y2="108" style="stroke:#ddd;stroke-width:2;stroke-dasharray:3 3"></line>
<line x1="600" y1="1" x2="600" y2="108" style="stroke:#ddd;stroke-width:2;stroke-dasharray:3 3"></line>
<line x1="709" y1="1" x2="709" y2="108" style="stroke:#ddd;stroke-width:2;stroke-dasharray:3 3"></line>
<line x1="818" y1="1" x2="818" y2="108" style="stroke:#ddd;stroke-width:2;stroke-dasharray:3 3"></line>
<line x1="927" y1="1" x2="927" y2="108" style="stroke:#ddd;stroke-width:2;stroke-dasharray:3 3"></line>
<line x1="1036" y1="1" x2="1036" y2="108" style="stroke:#ddd;stroke-width:2;stroke-dasharray:3 3"></line>
<line x1="1145" y1="1" x2="1145" y2="108" style="stroke:#ddd;stroke-width:2;stroke-dasharray:3 3"></line>
<path d="M12.0,35.92c2.08,0.25,1.27,0.55,3.5,0.25c5.5-0.75,12.5-2,21.67-3.17" style="fill:none;stroke:#999;stroke-width:3"></path>

<path d="M121.0,35.92c2.08,0.25,1.27,0.55,3.5,0.25c5.5-0.75,12.5-2,21.67-3.17" style="fill:none;stroke:#999;stroke-width:3"></path>
<path d="M134.27,13c0.48,0.92,1.76,2.49,1.76,5.52c0,15.23,0.24,56.46,0.24,67.9c0,14.25-6.32,3.53-7.77,2" style="fill:none;stroke:#999;stroke-width:3"></path>

<path d="M230.0,35.92c2.08,0.25,1.27,0.55,3.5,0.25c5.5-0.75,12.5-2,21.67-3.17" style="fill:none;stroke:#999;stroke-width:3"></path>
<path d="M243.27,13c0.48,0.92,1.76,2.49,1.76,5.52c0,15.23,0.24,56.46,0.24,67.9c0,14.25-6.32,3.53-7.77,2" style="fill:none;stroke:#999;stroke-width:3"></path>
<path d="M229.5,63.13c0.79,0.94,2.05,1.49,3.8,0.62c1.03-0.51,16.64-8.88,21.01-11.33" style="fill:none;stroke:#999;stroke-width:3"></path>

<path d="M339.0,35.92c2.08,0.25,1.27,0.55,3.5,0.25c5.5-0.75,12.5-2,21.67-3.17" style="fill:none;stroke:#999;stroke-width:3"></path>
<path d="M352.27,13c0.48,0.92,1.76,2.49,1.76,5.52c0,15.23,0.24,56.46,0.24,67.9c0,14.25-6.32,3.53-7.77,2" style="fill:none;stroke:#999;stroke-width:3"></path>
<path d="M338.5,63.13c0.79,0.94,2.05,1.49,3.8,0.62c1.03-0.51,16.64-8.88,21.01-11.33" style="fill:none;stroke:#999;stroke-width:3"></path>
<path d="M368.39,17.89c0.55,0.43,1.83,1.86,1.83,4.08c0,0.87-0.07,66.99-0.18,72.36" style="fill:none;stroke:#999;stroke-width:3"></path>

<path d="M448.0,35.92c2.08,0.25,1.27,0.55,3.5,0.25c5.5-0.75,12.5-2,21.67-3.17" style="fill:none;stroke:#999;stroke-width:3"></path>
<path d="M461.27,13c0.48,0.92,1.76,2.49,1.76,5.52c0,15.23,0.24,56.46,0.24,67.9c0,14.25-6.32,3.53-7.77,2" style="fill:none;stroke:#999;stroke-width:3"></path>
<path d="M447.5,63.13c0.79,0.94,2.05,1.49,3.8,0.62c1.03-0.51,16.64-8.88,21.01-11.33" style="fill:none;stroke:#999;stroke-width:3"></path>
<path d="M477.39,17.89c0.55,0.43,1.83,1.86,1.83,4.08c0,0.87-0.07,66.99-0.18,72.36" style="fill:none;stroke:#999;stroke-width:3"></path>
<path d="M479.37,19.87c1.83-0.11,14.48-2.88,16.15-3.01c1.39-0.11,2.11,1,2.18,1.88c0.1,1.35-0.66,26.02-0.66,26.68" style="fill:none;stroke:#999;stroke-width:3"></path>

<path d="M557.0,35.92c2.08,0.25,1.27,0.55,3.5,0.25c5.5-0.75,12.5-2,21.67-3.17" style="fill:none;stroke:#999;stroke-width:3"></path>
<path d="M570.27,13c0.48,0.92,1.76,2.49,1.76,5.52c0,15.23,0.24,56.46,0.24,67.9c0,14.25-6.32,3.53-7.77,2" style="fill:none;stroke:#999;stroke-width:3"></path>
<path d="M556.5,63.13c0.79,0.94,2.05,1.49,3.8,0.62c1.03-0.51,16.64-8.88,21.01-11.33" style="fill:none;stroke:#999;stroke-width:3"></path>
<path d="M586.39,17.89c0.55,0.43,1.83,1.86,1.83,4.08c0,0.87-0.07,66.99-0.18,72.36" style="fill:none;stroke:#999;stroke-width:3"></path>
<path d="M588.37,19.87c1.83-0.11,14.48-2.88,16.15-3.01c1.39-0.11,2.11,1,2.18,1.88c0.1,1.35-0.66,26.02-0.66,26.68" style="fill:none;stroke:#999;stroke-width:3"></path>
<path d="M588.69,31.74c4.5-0.65,12.49-1.83,16.82-2.53" style="fill:none;stroke:#999;stroke-width:3"></path>

<path d="M666.0,35.92c2.08,0.25,1.27,0.55,3.5,0.25c5.5-0.75,12.5-2,21.67-3.17" style="fill:none;stroke:#999;stroke-width:3"></path>
<path d="M679.27,13c0.48,0.92,1.76,2.49,1.76,5.52c0,15.23,0.24,56.46,0.24,67.9c0,14.25-6.32,3.53-7.77,2" style="fill:none;stroke:#999;stroke-width:3"></path>
<path d="M665.5,63.13c0.79,0.94,2.05,1.49,3.8,0.62c1.03-0.51,16.64-8.88,21.01-11.33" style="fill:none;stroke:#999;stroke-width:3"></path>
<path d="M695.39,17.89c0.55,0.43,1.83,1.86,1.83,4.08c0,0.87-0.07,66.99-0.18,72.36" style="fill:none;stroke:#999;stroke-width:3"></path>
<path d="M697.37,19.87c1.83-0.11,14.48-2.88,16.15-3.01c1.39-0.11,2.11,1,2.18,1.88c0.1,1.35-0.66,26.02-0.66,26.68" style="fill:none;stroke:#999;stroke-width:3"></path>
<path d="M697.69,31.74c4.5-0.65,12.49-1.83,16.82-2.53" style="fill:none;stroke:#999;stroke-width:3"></path>
<path d="M697.87,44.57c5.88-0.82,11.81-1.23,17.2-1.81" style="fill:none;stroke:#999;stroke-width:3"></path>

<path d="M775.0,35.92c2.08,0.25,1.27,0.55,3.5,0.25c5.5-0.75,12.5-2,21.67-3.17" style="fill:none;stroke:#999;stroke-width:3"></path>
<path d="M788.27,13c0.48,0.92,1.76,2.49,1.76,5.52c0,15.23,0.24,56.46,0.24,67.9c0,14.25-6.32,3.53-7.77,2" style="fill:none;stroke:#999;stroke-width:3"></path>
<path d="M774.5,63.13c0.79,0.94,2.05,1.49,3.8,0.62c1.03-0.51,16.64-8.88,21.01-11.33" style="fill:none;stroke:#999;stroke-width:3"></path>
<path d="M804.39,17.89c0.55,0.43,1.83,1.86,1.83,4.08c0,0.87-0.07,66.99-0.18,72.36" style="fill:none;stroke:#999;stroke-width:3"></path>
<path d="M806.37,19.87c1.83-0.11,14.48-2.88,16.15-3.01c1.39-0.11,2.11,1,2.18,1.88c0.1,1.35-0.66,26.02-0.66,26.68" style="fill:none;stroke:#999;stroke-width:3"></path>
<path d="M806.69,31.74c4.5-0.65,12.49-1.83,16.82-2.53" style="fill:none;stroke:#999;stroke-width:3"></path>
<path d="M806.87,44.57c5.88-0.82,11.81-1.23,17.2-1.81" style="fill:none;stroke:#999;stroke-width:3"></path>
<path d="M835.53,15.67c0.31,0.59,1.1,1.84,1.13,2.63c0.09,1.95-0.11,25.32,0,26.11" style="fill:none;stroke:#999;stroke-width:3"></path>

<path d="M884.0,35.92c2.08,0.25,1.27,0.55,3.5,0.25c5.5-0.75,12.5-2,21.67-3.17" style="fill:none;stroke:#999;stroke-width:3"></path>
<path d="M897.27,13c0.48,0.92,1.76,2.49,1.76,5.52c0,15.23,0.24,56.46,0.24,67.9c0,14.25-6.32,3.53-7.77,2" style="fill:none;stroke:#999;stroke-width:3"></path>
<path d="M883.5,63.13c0.79,0.94,2.05,1.49,3.8,0.62c1.03-0.51,16.64-8.88,21.01-11.33" style="fill:none;stroke:#999;stroke-width:3"></path>
<path d="M913.39,17.89c0.55,0.43,1.83,1.86,1.83,4.08c0,0.87-0.07,66.99-0.18,72.36" style="fill:none;stroke:#999;stroke-width:3"></path>
<path d="M915.37,19.87c1.83-0.11,14.48-2.88,16.15-3.01c1.39-0.11,2.11,1,2.18,1.88c0.1,1.35-0.66,26.02-0.66,26.68" style="fill:none;stroke:#999;stroke-width:3"></path>
<path d="M915.69,31.74c4.5-0.65,12.49-1.83,16.82-2.53" style="fill:none;stroke:#999;stroke-width:3"></path>
<path d="M915.87,44.57c5.88-0.82,11.81-1.23,17.2-1.81" style="fill:none;stroke:#999;stroke-width:3"></path>
<path d="M944.53,15.67c0.31,0.59,1.1,1.84,1.13,2.63c0.09,1.95-0.11,25.32,0,26.11" style="fill:none;stroke:#999;stroke-width:3"></path>
<path d="M945.6800000000001,17.23c1.78-0.1,16.83-2.62,18.45-2.74c1.35-0.1,2.13,1.07,2.12,1.66c-0.35,18.04-0.36,58.1-0.35,71.18c0,10.7-3.64,5.51-6.57,1.91" style="fill:none;stroke:#999;stroke-width:3"></path>

<path d="M993.0,35.92c2.08,0.25,1.27,0.55,3.5,0.25c5.5-0.75,12.5-2,21.67-3.17" style="fill:none;stroke:#999;stroke-width:3"></path>
<path d="M1006.27,13c0.48,0.92,1.76,2.49,1.76,5.52c0,15.23,0.24,56.46,0.24,67.9c0,14.25-6.32,3.53-7.77,2" style="fill:none;stroke:#999;stroke-width:3"></path>
<path d="M992.5,63.13c0.79,0.94,2.05,1.49,3.8,0.62c1.03-0.51,16.64-8.88,21.01-11.33" style="fill:none;stroke:#999;stroke-width:3"></path>
<path d="M1022.39,17.89c0.55,0.43,1.83,1.86,1.83,4.08c0,0.87-0.07,66.99-0.18,72.36" style="fill:none;stroke:#999;stroke-width:3"></path>
<path d="M1024.37,19.87c1.83-0.11,14.48-2.88,16.15-3.01c1.39-0.11,2.11,1,2.18,1.88c0.1,1.35-0.66,26.02-0.66,26.68" style="fill:none;stroke:#999;stroke-width:3"></path>
<path d="M1024.69,31.74c4.5-0.65,12.49-1.83,16.82-2.53" style="fill:none;stroke:#999;stroke-width:3"></path>
<path d="M1024.87,44.57c5.88-0.82,11.81-1.23,17.2-1.81" style="fill:none;stroke:#999;stroke-width:3"></path>
<path d="M1053.53,15.67c0.31,0.59,1.1,1.84,1.13,2.63c0.09,1.95-0.11,25.32,0,26.11" style="fill:none;stroke:#999;stroke-width:3"></path>
<path d="M1054.68,17.23c1.78-0.1,16.83-2.62,18.45-2.74c1.35-0.1,2.13,1.07,2.12,1.66c-0.35,18.04-0.36,58.1-0.35,71.18c0,10.7-3.64,5.51-6.57,1.91" style="fill:none;stroke:#999;stroke-width:3"></path>
<path d="M1055.0,28.59c2.41,0,16.38-1.85,19.11-1.85" style="fill:none;stroke:#999;stroke-width:3"></path>

<path d="M1102.0,35.92c2.08,0.25,1.27,0.55,3.5,0.25c5.5-0.75,12.5-2,21.67-3.17" style="fill:none;stroke:#999;stroke-width:3"></path>
<path d="M1115.27,13c0.48,0.92,1.76,2.49,1.76,5.52c0,15.23,0.24,56.46,0.24,67.9c0,14.25-6.32,3.53-7.77,2" style="fill:none;stroke:#999;stroke-width:3"></path>
<path d="M1101.5,63.13c0.79,0.94,2.05,1.49,3.8,0.62c1.03-0.51,16.64-8.88,21.01-11.33" style="fill:none;stroke:#999;stroke-width:3"></path>
<path d="M1131.3899999999999,17.89c0.55,0.43,1.83,1.86,1.83,4.08c0,0.87-0.07,66.99-0.18,72.36" style="fill:none;stroke:#999;stroke-width:3"></path>
<path d="M1133.37,19.87c1.83-0.11,14.48-2.88,16.15-3.01c1.39-0.11,2.11,1,2.18,1.88c0.1,1.35-0.66,26.02-0.66,26.68" style="fill:none;stroke:#999;stroke-width:3"></path>
<path d="M1133.69,31.74c4.5-0.65,12.49-1.83,16.82-2.53" style="fill:none;stroke:#999;stroke-width:3"></path>
<path d="M1133.87,44.57c5.88-0.82,11.81-1.23,17.2-1.81" style="fill:none;stroke:#999;stroke-width:3"></path>
<path d="M1162.53,15.67c0.31,0.59,1.1,1.84,1.13,2.63c0.09,1.95-0.11,25.32,0,26.11" style="fill:none;stroke:#999;stroke-width:3"></path>
<path d="M1163.68,17.23c1.78-0.1,16.83-2.62,18.45-2.74c1.35-0.1,2.13,1.07,2.12,1.66c-0.35,18.04-0.36,58.1-0.35,71.18c0,10.7-3.64,5.51-6.57,1.91" style="fill:none;stroke:#999;stroke-width:3"></path>
<path d="M1164.0,28.59c2.41,0,16.38-1.85,19.11-1.85" style="fill:none;stroke:#999;stroke-width:3"></path>
<path d="M1164.18,41.83c3.56,0,15.1-1.65,19.71-1.65" style="fill:none;stroke:#999;stroke-width:3"></path>

</svg>