<svg width="1199px" height="109px" viewBox="0 0 1199 109" xmlns="http://www.w3.org/2000/svg" xmlns:xlink="http://www.w3.org/1999/xlink" xml:space="preserve" version="1.1" baseProfile="full">
<line x1="1" y1="1" x2="1198" y2="1" style="stroke:#ddd;stroke-width:2"></line>
<line x1="1" y1="1" x2="1" y2="108" style="stroke:#ddd;stroke-width:2"></line>
<line x1="1" y1="108" x2="1198" y2="108" style="stroke:#ddd;stroke-width:2"></line>
<line x1="1198" y1="1" x2="1198" y2="108" style="stroke:#ddd;stroke-width:2"></line>
<line x1="109" y1="1" x2="109" y2="108" style="stroke:#ddd;stroke-width:2"></line>
<line x1="218" y1="1" x2="218" y2="108" style="stroke:#ddd;stroke-width:2"></line>
<line x1="327" y1="1" x2="327" y2="108" style="stroke:#ddd;stroke-width:2"></line>
<line x1="436" y1="1" x2="436" y2="108" style="stroke:#ddd;stroke-width:2"></line>
<line x1="545" y1="1" x2="545" y2="108" style="stroke:#ddd;stroke-width:2"></line>
<line x1="654" y1="1" x2="654" y2="108" style="stroke:#ddd;stroke-width:2"></line>
<line x1="763" y1="1" x2="763" y2="108" style="stroke:#ddd;stroke-width:2"></line>
<line x1="872" y1="1" x2="872" y2="108" style="stroke:#ddd;stroke-width:2"></line>
<line x1="981" y1="1" x2="981" y2="108" style="stroke:#ddd;stroke-width:2"></line>
<line x1="1090" y1="1" x2="1090" y2="108" style="stroke:#ddd;stroke-width:2"></line>
<line x1="1" y1="54" x2="1198" y2="54" style="stroke:#ddd;stroke-width:2;stroke-dasharray:3 3"></line>
<line x1="55" y1="1" x2="55" y2="108" style="stroke:#ddd;stroke-width:2;stroke-dasharray:3 3"></line>
<line x1="164" y1="1" x2="164" y2="108" style="stroke:#ddd;stroke-width:2;stroke-dasharray:3 3"></line>
<line x1="273" y1="1" x2="273" y2="108" style="stroke:#ddd;stroke-width:2;stroke-dasharray:3 3"></line>
<line x1="382" y1="1" x2="382" y2="108" style="stroke:#ddd;stroke-width:2;stroke-dasharray:3 3"></line>
<line x1="491" y1="1" x2="491" y2="108" style="stroke:#ddd;stroke-width:2;stroke-dasharray:3 3"></line>
<line x1="600" y1="1" x2="600" y2="108" style="stroke:#ddd;stroke-width:2;stroke-dasharray:3 3"></line>
<line x1="709" y1="1" x2="709" y2="108" style="stroke:#ddd;stroke-width:2;stroke-dasharray:3 3"></line>
<line x1="818" y1="1" x2="818" y2="108" style="stroke:#ddd;stroke-width:2;stroke-dasharray:3 3"></line>
<line x1="927" y1="1" x2="927" y2="108" style="stroke:#ddd;stroke-width:2;stroke-dasharray:3 3"></line>
<line x1="1036" y1="1" x2="1036" y2="108" style="stroke:#ddd;stroke-width:2;stroke-dasharray:3 3"></line>
<line x1="1145" y1="1" x2="1145" y2="108" style="stroke:#ddd;stroke-width:2;stroke-dasharray:3 3"></line>
<path d="M12.75,37.92c1.38,0.33,3.01,0.43,5.25,0.25c6.88-0.54,11.62-1.54,19.27-2.74c1.04-0.16,2.35-0.3,3.64-0.17" style="fill:none;stroke:#999;stroke-width:3"></path>

<path d="M121.75,37.92c1.38,0.33,3.01,0.43,5.25,0.25c6.88-0.54,11.62-1.54,19.27-2.74c1.04-0.16,2.35-0.3,3.64-0.17" style="fill:none;stroke:#999;stroke-width:3"></path>
<path d="M137.77,14.75c0.87,0.87,1.76,2.88,1.76,4.52c0,15.23,0.24,55.71,0.24,67.15c0,14.25-6.32,3.53-7.77,2" style="fill:none;stroke:#999;stroke-width:3"></path>

<path d="M230.75,37.92c1.38,0.33,3.01,0.43,5.25,0.25c6.88-0.54,11.62-1.54,19.27-2.74c1.04-0.16,2.35-0.3,3.64-0.17" style="fill:none;stroke:#999;stroke-width:3"></path>
<path d="M246.77,14.75c0.87,0.87,1.76,2.88,1.76,4.52c0,15.23,0.24,55.71,0.24,67.15c0,14.25-6.32,3.53-7.77,2" style="fill:none;stroke:#999;stroke-width:3"></path>
<path d="M229.0,63.68c1.25,1.78,3.83,1.61,6.5-0.18c5-3.36,7.5-5.5,18.75-13.58" style="fill:none;stroke:#999;stroke-width:3"></path>

<path d="M339.75,37.92c1.38,0.33,3.01,0.43,5.25,0.25c6.88-0.54,11.62-1.54,19.27-2.74c1.04-0.16,2.35-0.3,3.64-0.17" style="fill:none;stroke:#999;stroke-width:3"></path>
<path d="M355.77,14.75c0.87,0.87,1.76,2.88,1.76,4.52c0,15.23,0.24,55.71,0.24,67.15c0,14.25-6.32,3.53-7.77,2" style="fill:none;stroke:#999;stroke-width:3"></path>
<path d="M338.0,63.68c1.25,1.78,3.83,1.61,6.5-0.18c5-3.36,7.5-5.5,18.75-13.58" style="fill:none;stroke:#999;stroke-width:3"></path>
<path d="M400.99,14.64c-0.12,0.86-0.61,1.78-1.34,2.39c-3.19,2.68-11.44,7-21.19,9.66" style="fill:none;stroke:#999;stroke-width:3"></path>

<path d="M448.75,37.92c1.38,0.33,3.01,0.43,5.25,0.25c6.88-0.54,11.62-1.54,19.27-2.74c1.04-0.16,2.35-0.3,3.64-0.17" style="fill:none;stroke:#999;stroke-width:3"></path>
<path d="M464.77,14.75c0.87,0.87,1.76,2.88,1.76,4.52c0,15.23,0.24,55.71,0.24,67.15c0,14.25-6.32,3.53-7.77,2" style="fill:none;stroke:#999;stroke-width:3"></path>
<path d="M447.0,63.68c1.25,1.78,3.83,1.61,6.5-0.18c5-3.36,7.5-5.5,18.75-13.58" style="fill:none;stroke:#999;stroke-width:3"></path>
<path d="M509.99,14.64c-0.12,0.86-0.61,1.78-1.34,2.39c-3.19,2.68-11.44,7-21.19,9.66" style="fill:none;stroke:#999;stroke-width:3"></path>
<path d="M484.92,31.52c1.59,1.42,4.58,5.85,4.97,8.06" style="fill:none;stroke:#999;stroke-width:3"></path>

<path d="M557.75,37.92c1.38,0.33,3.01,0.43,5.25,0.25c6.88-0.54,11.62-1.54,19.27-2.74c1.04-0.16,2.35-0.3,3.64-0.17" style="fill:none;stroke:#999;stroke-width:3"></path>
<path d="M573.77,14.75c0.87,0.87,1.76,2.88,1.76,4.52c0,15.23,0.24,55.71,0.24,67.15c0,14.25-6.32,3.53-7.77,2" style="fill:none;stroke:#999;stroke-width:3"></path>
<path d="M556.0,63.68c1.25,1.78,3.83,1.61,6.5-0.18c5-3.36,7.5-5.5,18.75-13.58" style="fill:none;stroke:#999;stroke-width:3"></path>
<path d="M618.99,14.64c-0.12,0.86-0.61,1.78-1.34,2.39c-3.19,2.68-11.44,7-21.19,9.66" style="fill:none;stroke:#999;stroke-width:3"></path>
<path d="M593.9200000000001,31.52c1.59,1.42,4.58,5.85,4.97,8.06" style="fill:none;stroke:#999;stroke-width:3"></path>
<path d="M608.12,27.75c1.58,1.37,4.57,6.58,4.97,8.71" style="fill:none;stroke:#999;stroke-width:3"></path>

<path d="M666.75,37.92c1.38,0.33,3.01,0.43,5.25,0.25c6.88-0.54,11.62-1.54,19.27-2.74c1.04-0.16,2.35-0.3,3.64-0.17" style="fill:none;stroke:#999;stroke-width:3"></path>
<path d="M682.77,14.75c0.87,0.87,1.76,2.88,1.76,4.52c0,15.23,0.24,55.71,0.24,67.15c0,14.25-6.32,3.53-7.77,2" style="fill:none;stroke:#999;stroke-width:3"></path>
<path d="M665.0,63.68c1.25,1.78,3.83,1.61,6.5-0.18c5-3.36,7.5-5.5,18.75-13.58" style="fill:none;stroke:#999;stroke-width:3"></path>
<path d="M727.99,14.64c-0.12,0.86-0.61,1.78-1.34,2.39c-3.19,2.68-11.44,7-21.19,9.66" style="fill:none;stroke:#999;stroke-width:3"></path>
<path d="M702.9200000000001,31.52c1.59,1.42,4.58,5.85,4.97,8.06" style="fill:none;stroke:#999;stroke-width:3"></path>
<path d="M717.12,27.75c1.58,1.37,4.57,6.58,4.97,8.71" style="fill:none;stroke:#999;stroke-width:3"></path>
<path d="M740.37,23.14c0,0.98-0.3,2-0.55,2.48C738.12,28.88,735.5,32,729.7,37.5" style="fill:none;stroke:#999;stroke-width:3"></path>

<path d="M775.75,37.92c1.38,0.33,3.01,0.43,5.25,0.25c6.88-0.54,11.62-1.54,19.27-2.74c1.04-0.16,2.35-0.3,3.64-0.17" style="fill:none;stroke:#999;stroke-width:3"></path>
<path d="M791.77,14.75c0.87,0.87,1.76,2.88,1.76,4.52c0,15.23,0.24,55.71,0.24,67.15c0,14.25-6.32,3.53-7.77,2" style="fill:none;stroke:#999;stroke-width:3"></path>
<path d="M774.0,63.68c1.25,1.78,3.83,1.61,6.5-0.18c5-3.36,7.5-5.5,18.75-13.58" style="fill:none;stroke:#999;stroke-width:3"></path>
<path d="M836.99,14.64c-0.12,0.86-0.61,1.78-1.34,2.39c-3.19,2.68-11.44,7-21.19,9.66" style="fill:none;stroke:#999;stroke-width:3"></path>
<path d="M811.9200000000001,31.52c1.59,1.42,4.58,5.85,4.97,8.06" style="fill:none;stroke:#999;stroke-width:3"></path>
<path d="M826.12,27.75c1.58,1.37,4.57,6.58,4.97,8.71" style="fill:none;stroke:#999;stroke-width:3"></path>
<path d="M849.37,23.14c0,0.98-0.3,2-0.55,2.48C847.12,28.88,844.5,32,838.7,37.5" style="fill:none;stroke:#999;stroke-width:3"></path>
<path d="M810.0,45c-0.12,3.75-2.39,12.27-3.48,14.57" style="fill:none;stroke:#999;stroke-width:3"></path>

<path d="M884.75,37.92c1.38,0.33,3.01,0.43,5.25,0.25c6.88-0.54,11.62-1.54,19.27-2.74c1.04-0.16,2.35-0.3,3.64-0.17" style="fill:none;stroke:#999;stroke-width:3"></path>
<path d="M900.77,14.75c0.87,0.87,1.76,2.88,1.76,4.52c0,15.23,0.24,55.71,0.24,67.15c0,14.25-6.32,3.53-7.77,2" style="fill:none;stroke:#999;stroke-width:3"></path>
<path d="M883.0,63.68c1.25,1.78,3.83,1.61,6.5-0.18c5-3.36,7.5-5.5,18.75-13.58" style="fill:none;stroke:#999;stroke-width:3"></path>
<path d="M945.99,14.64c-0.12,0.86-0.61,1.78-1.34,2.39c-3.19,2.68-11.44,7-21.19,9.66" style="fill:none;stroke:#999;stroke-width:3"></path>
<path d="M920.9200000000001,31.52c1.59,1.42,4.58,5.85,4.97,8.06" style="fill:none;stroke:#999;stroke-width:3"></path>
<path d="M935.12,27.75c1.58,1.37,4.57,6.58,4.97,8.71" style="fill:none;stroke:#999;stroke-width:3"></path>
<path d="M958.37,23.14c0,0.98-0.3,2-0.55,2.48C956.12,28.88,953.5,32,947.7,37.5" style="fill:none;stroke:#999;stroke-width:3"></path>
<path d="M919.0,45c-0.12,3.75-2.39,12.27-3.48,14.57" style="fill:none;stroke:#999;stroke-width:3"></path>
<path d="M920.22,46.72c15.28-2.72,24.66-3.84,39.6-5.29c7.58-0.73,1.81,5.45-0.97,8.07" style="fill:none;stroke:#999;stroke-width:3"></path>

<path d="M993.75,37.92c1.38,0.33,3.01,0.43,5.25,0.25c6.88-0.54,11.62-1.54,19.27-2.74c1.04-0.16,2.35-0.3,3.64-0.17" style="fill:none;stroke:#999;stroke-width:3"></path>
<path d="M1009.77,14.75c0.87,0.87,1.76,2.88,1.76,4.52c0,15.23,0.24,55.71,0.24,67.15c0,14.25-6.32,3.53-7.77,2" style="fill:none;stroke:#999;stroke-width:3"></path>
<path d="M992.0,63.68c1.25,1.78,3.83,1.61,6.5-0.18c5-3.36,7.5-5.5,18.75-13.58" style="fill:none;stroke:#999;stroke-width:3"></path>
<path d="M1054.99,14.64c-0.12,0.86-0.61,1.78-1.34,2.39c-3.19,2.68-11.44,7-21.19,9.66" style="fill:none;stroke:#999;stroke-width:3"></path>
<path d="M1029.92,31.52c1.59,1.42,4.58,5.85,4.97,8.06" style="fill:none;stroke:#999;stroke-width:3"></path>
<path d="M1044.12,27.75c1.58,1.37,4.57,6.58,4.97,8.71" style="fill:none;stroke:#999;stroke-width:3"></path>
<path d="M1067.37,23.14c0,0.98-0.3,2-0.55,2.48C1065.12,28.88,1062.5,32,1056.7,37.5" style="fill:none;stroke:#999;stroke-width:3"></path>
<path d="M1028.0,45c-0.12,3.75-2.39,12.27-3.48,14.57" style="fill:none;stroke:#999;stroke-width:3"></path>
<path d="M1029.22,46.72c15.28-2.72,24.66-3.84,39.6-5.29c7.58-0.73,1.81,5.45-0.97,8.07" style="fill:none;stroke:#999;stroke-width:3"></path>
<path d="M1034.5,59.57c1.32,0.26,2.52,0.36,5.11-0.24c3.63-0.83,16.42-3.83,18.23-4.2c2.53-0.51,3.53,0.99,2.47,2.85c-9.38,16.47-20.06,26.76-36.21,35.32" style="fill:none;stroke:#999;stroke-width:3"></path>

<path d="M1102.75,37.92c1.38,0.33,3.01,0.43,5.25,0.25c6.88-0.54,11.62-1.54,19.27-2.74c1.04-0.16,2.35-0.3,3.64-0.17" style="fill:none;stroke:#999;stroke-width:3"></path>
<path d="M1118.77,14.75c0.87,0.87,1.76,2.88,1.76,4.52c0,15.23,0.24,55.71,0.24,67.15c0,14.25-6.32,3.53-7.77,2" style="fill:none;stroke:#999;stroke-width:3"></path>
<path d="M1101.0,63.68c1.25,1.78,3.83,1.61,6.5-0.18c5-3.36,7.5-5.5,18.75-13.58" style="fill:none;stroke:#999;stroke-width:3"></path>
<path d="M1163.99,14.64c-0.12,0.86-0.61,1.78-1.34,2.39c-3.19,2.68-11.44,7-21.19,9.66" style="fill:none;stroke:#999;stroke-width:3"></path>
<path d="M1138.92,31.52c1.59,1.42,4.58,5.85,4.97,8.06" style="fill:none;stroke:#999;stroke-width:3"></path>
<path d="M1153.12,27.75c1.58,1.37,4.57,6.58,4.97,8.71" style="fill:none;stroke:#999;stroke-width:3"></path>
<path d="M1176.37,23.14c0,0.98-0.3,2-0.55,2.48C1174.12,28.88,1171.5,32,1165.7,37.5" style="fill:none;stroke:#999;stroke-width:3"></path>
<path d="M1137.0,45c-0.12,3.75-2.39,12.27-3.48,14.57" style="fill:none;stroke:#999;stroke-width:3"></path>
<path d="M1138.22,46.72c15.28-2.72,24.66-3.84,39.6-5.29c7.58-0.73,1.81,5.45-0.97,8.07" style="fill:none;stroke:#999;stroke-width:3"></path>
<path d="M1143.5,59.57c1.32,0.26,2.52,0.36,5.11-0.24c3.63-0.83,16.42-3.83,18.23-4.2c2.53-0.51,3.53,0.99,2.47,2.85c-9.38,16.47-20.06,26.76-36.21,35.32" style="fill:none;stroke:#999;stroke-width:3"></path>
<path d="M1141.77,65.93c5.86,0.19,21.05,16.13,33.65,24.49c2.37,1.57,4.83,3.13,7.43,4.27" style="fill:none;stroke:#999;stroke-width:3"></path>

</svg>