<svg width="1308px" height="109px" viewBox="0 0 1308 109" xmlns="http://www.w3.org/2000/svg" xmlns:xlink="http://www.w3.org/1999/xlink" xml:space="preserve" version="1.1" baseProfile="full">
<line x1="1" y1="1" x2="1307" y2="1" style="stroke:#ddd;stroke-width:2"></line>
<line x1="1" y1="1" x2="1" y2="108" style="stroke:#ddd;stroke-width:2"></line>
<line x1="1" y1="108" x2="1307" y2="108" style="stroke:#ddd;stroke-width:2"></line>
<line x1="1307" y1="1" x2="1307" y2="108" style="stroke:#ddd;stroke-width:2"></line>
<line x1="109" y1="1" x2="109" y2="108" style="stroke:#ddd;stroke-width:2"></line>
<line x1="218" y1="1" x2="218" y2="108" style="stroke:#ddd;stroke-width:2"></line>
<line x1="327" y1="1" x2="327" y2="108" style="stroke:#ddd;stroke-width:2"></line>
<line x1="436" y1="1" x2="436" y2="108" style="stroke:#ddd;stroke-width:2"></line>
<line x1="545" y1="1" x2="545" y2="108" style="stroke:#ddd;stroke-width:2"></line>
<line x1="654" y1="1" x2="654" y2="108" style="stroke:#ddd;stroke-width:2"></line>
<line x1="763" y1="1" x2="763" y2="108" style="stroke:#ddd;stroke-width:2"></line>
<line x1="872" y1="1" x2="872" y2="108" style="stroke:#ddd;stroke-width:2"></line>
<line x1="981" y1="1" x2="981" y2="108" style="stroke:#ddd;stroke-width:2"></line>
<line x1="1090" y1="1" x2="1090" y2="108" style="stroke:#ddd;stroke-width:2"></line>
<line x1="1199" y1="1" x2="1199" y2="108" style="stroke:#ddd;stroke-width:2"></line>
<line x1="1" y1="54" x2="1307" y2="54" style="stroke:#ddd;stroke-width:2;stroke-dasharray:3 3"></line>
<line x1="55" y1="1" x2="55" y2="108" style="stroke:#ddd;stroke-width:2;stroke-dasharray:3 3"></line>
<line x1="164" y1="1" x2="164" y2="108" style="stroke:#ddd;stroke-width:2;stroke-dasharray:3 3"></line>
<line x1="273" y1="1" x2="273" y2="108" style="stroke:#ddd;stroke-width:2;stroke-dasharray:3 3"></line>
<line x1="382" y1="1" x2="382" y2="108" style="stroke:#ddd;stroke-width:2;stroke-dasharray:3 3"></line>
<line x1="491" y1="1" x2="491" y2="108" style="stroke:#ddd;stroke-width:2;stroke-dasharray:3 3"></line>
<line x1="600" y1="1" x2="600" y2="108" style="stroke:#ddd;stroke-width:2;stroke-dasharray:3 3"></line>
<line x1="709" y1="1" x2="709" y2="108" style="stroke:#ddd;stroke-width:2;stroke-dasharray:3 3"></line>
<line x1="818" y1="1" x2="818" y2="108" style="stroke:#ddd;stroke-width:2;stroke-dasharray:3 3"></line>
<line x1="927" y1="1" x2="927" y2="108" style="stroke:#ddd;stroke-width:2;stroke-dasharray:3 3"></line>
<line x1="1036" y1="1" x2="1036" y2="108" style="stroke:#ddd;stroke-width:2;stroke-dasharray:3 3"></line>
<line x1="1145" y1="1" x2="1145" y2="108" style="stroke:#ddd;stroke-width:2;stroke-dasharray:3 3"></line>
<line x1="1254" y1="1" x2="1254" y2="108" style="stroke:#ddd;stroke-width:2;stroke-dasharray:3 3"></line>
<path d="M12.25,37.26c2.1,0.2,1.28,0.45,3.53,0.2c5.55-0.61,15.64-2.03,24.88-2.98" style="fill:none;stroke:#999;stroke-width:3"></path>

<path d="M121.25,37.26c2.1,0.2,1.28,0.45,3.53,0.2c5.55-0.61,15.64-2.03,24.88-2.98" style="fill:none;stroke:#999;stroke-width:3"></path>
<path d="M136.27,14.5c0.48,0.92,1.76,2.49,1.76,5.52c0,15.23,0.24,52.96,0.24,64.4c0,14.25-6.32,3.53-7.77,2" style="fill:none;stroke:#999;stroke-width:3"></path>

<path d="M230.25,37.26c2.1,0.2,1.28,0.45,3.53,0.2c5.55-0.61,15.64-2.03,24.88-2.98" style="fill:none;stroke:#999;stroke-width:3"></path>
<path d="M245.27,14.5c0.48,0.92,1.76,2.49,1.76,5.52c0,15.23,0.24,52.96,0.24,64.4c0,14.25-6.32,3.53-7.77,2" style="fill:none;stroke:#999;stroke-width:3"></path>
<path d="M229.5,65.31c1.03,1.22,2.67,1.94,4.95,0.81c1.34-0.67,16.55-11.87,23.3-17.06" style="fill:none;stroke:#999;stroke-width:3"></path>

<path d="M339.25,37.26c2.1,0.2,1.28,0.45,3.53,0.2c5.55-0.61,15.64-2.03,24.88-2.98" style="fill:none;stroke:#999;stroke-width:3"></path>
<path d="M354.27,14.5c0.48,0.92,1.76,2.49,1.76,5.52c0,15.23,0.24,52.96,0.24,64.4c0,14.25-6.32,3.53-7.77,2" style="fill:none;stroke:#999;stroke-width:3"></path>
<path d="M338.5,65.31c1.03,1.22,2.67,1.94,4.95,0.81c1.34-0.67,16.55-11.87,23.3-17.06" style="fill:none;stroke:#999;stroke-width:3"></path>
<path d="M377.49,15.73c1.05,0.4,2.11,0.49,3.12,0.31c2-0.36,26.27-4.08,28.39-4.45c2.12-0.36,2.84,1.53,1.58,2.71c-2.17,2.04-15.36,10.23-16.7,11.68" style="fill:none;stroke:#999;stroke-width:3"></path>

<path d="M448.25,37.26c2.1,0.2,1.28,0.45,3.53,0.2c5.55-0.61,15.64-2.03,24.88-2.98" style="fill:none;stroke:#999;stroke-width:3"></path>
<path d="M463.27,14.5c0.48,0.92,1.76,2.49,1.76,5.52c0,15.23,0.24,52.96,0.24,64.4c0,14.25-6.32,3.53-7.77,2" style="fill:none;stroke:#999;stroke-width:3"></path>
<path d="M447.5,65.31c1.03,1.22,2.67,1.94,4.95,0.81c1.34-0.67,16.55-11.87,23.3-17.06" style="fill:none;stroke:#999;stroke-width:3"></path>
<path d="M486.49,15.73c1.05,0.4,2.11,0.49,3.12,0.31c2-0.36,26.27-4.08,28.39-4.45c2.12-0.36,2.84,1.53,1.58,2.71c-2.17,2.04-15.36,10.23-16.7,11.68" style="fill:none;stroke:#999;stroke-width:3"></path>
<path d="M495.17,22.26c2.23,0.87,7.5,4.21,8.55,6.48" style="fill:none;stroke:#999;stroke-width:3"></path>

<path d="M557.25,37.26c2.1,0.2,1.28,0.45,3.53,0.2c5.55-0.61,15.64-2.03,24.88-2.98" style="fill:none;stroke:#999;stroke-width:3"></path>
<path d="M572.27,14.5c0.48,0.92,1.76,2.49,1.76,5.52c0,15.23,0.24,52.96,0.24,64.4c0,14.25-6.32,3.53-7.77,2" style="fill:none;stroke:#999;stroke-width:3"></path>
<path d="M556.5,65.31c1.03,1.22,2.67,1.94,4.95,0.81c1.34-0.67,16.55-11.87,23.3-17.06" style="fill:none;stroke:#999;stroke-width:3"></path>
<path d="M595.49,15.73c1.05,0.4,2.11,0.49,3.12,0.31c2-0.36,26.27-4.08,28.39-4.45c2.12-0.36,2.84,1.53,1.58,2.71c-2.17,2.04-15.36,10.23-16.7,11.68" style="fill:none;stroke:#999;stroke-width:3"></path>
<path d="M604.1700000000001,22.26c2.23,0.87,7.5,4.21,8.55,6.48" style="fill:none;stroke:#999;stroke-width:3"></path>
<path d="M592.73,33.71c0.59,0.23,2.36,0.41,4.23,0.11c13.03-2.07,26.21-4.09,34.93-4.36c6.61-0.21,2.36,4.79-1.97,8.45" style="fill:none;stroke:#999;stroke-width:3"></path>

<path d="M666.25,37.26c2.1,0.2,1.28,0.45,3.53,0.2c5.55-0.61,15.64-2.03,24.88-2.98" style="fill:none;stroke:#999;stroke-width:3"></path>
<path d="M681.27,14.5c0.48,0.92,1.76,2.49,1.76,5.52c0,15.23,0.24,52.96,0.24,64.4c0,14.25-6.32,3.53-7.77,2" style="fill:none;stroke:#999;stroke-width:3"></path>
<path d="M665.5,65.31c1.03,1.22,2.67,1.94,4.95,0.81c1.34-0.67,16.55-11.87,23.3-17.06" style="fill:none;stroke:#999;stroke-width:3"></path>
<path d="M704.49,15.73c1.05,0.4,2.11,0.49,3.12,0.31c2-0.36,26.27-4.08,28.39-4.45c2.12-0.36,2.84,1.53,1.58,2.71c-2.17,2.04-15.36,10.23-16.7,11.68" style="fill:none;stroke:#999;stroke-width:3"></path>
<path d="M713.1700000000001,22.26c2.23,0.87,7.5,4.21,8.55,6.48" style="fill:none;stroke:#999;stroke-width:3"></path>
<path d="M701.73,33.71c0.59,0.23,2.36,0.41,4.23,0.11c13.03-2.07,26.21-4.09,34.93-4.36c6.61-0.21,2.36,4.79-1.97,8.45" style="fill:none;stroke:#999;stroke-width:3"></path>
<path d="M723.02,33.15c0,8.71-0.03,13.87-0.03,19.3c0,6.55-4.52,1.72-6.29-0.33" style="fill:none;stroke:#999;stroke-width:3"></path>

<path d="M775.25,37.26c2.1,0.2,1.28,0.45,3.53,0.2c5.55-0.61,15.64-2.03,24.88-2.98" style="fill:none;stroke:#999;stroke-width:3"></path>
<path d="M790.27,14.5c0.48,0.92,1.76,2.49,1.76,5.52c0,15.23,0.24,52.96,0.24,64.4c0,14.25-6.32,3.53-7.77,2" style="fill:none;stroke:#999;stroke-width:3"></path>
<path d="M774.5,65.31c1.03,1.22,2.67,1.94,4.95,0.81c1.34-0.67,16.55-11.87,23.3-17.06" style="fill:none;stroke:#999;stroke-width:3"></path>
<path d="M813.49,15.73c1.05,0.4,2.11,0.49,3.12,0.31c2-0.36,26.27-4.08,28.39-4.45c2.12-0.36,2.84,1.53,1.58,2.71c-2.17,2.04-15.36,10.23-16.7,11.68" style="fill:none;stroke:#999;stroke-width:3"></path>
<path d="M822.1700000000001,22.26c2.23,0.87,7.5,4.21,8.55,6.48" style="fill:none;stroke:#999;stroke-width:3"></path>
<path d="M810.73,33.71c0.59,0.23,2.36,0.41,4.23,0.11c13.03-2.07,26.21-4.09,34.93-4.36c6.61-0.21,2.36,4.79-1.97,8.45" style="fill:none;stroke:#999;stroke-width:3"></path>
<path d="M832.02,33.15c0,8.71-0.03,13.87-0.03,19.3c0,6.55-4.52,1.72-6.29-0.33" style="fill:none;stroke:#999;stroke-width:3"></path>
<path d="M827.24,31.73c0.06,0.54,0.2,1.44-0.12,2.19c-2.5,5.81-7.97,13.92-20.49,20.93" style="fill:none;stroke:#999;stroke-width:3"></path>

<path d="M884.25,37.26c2.1,0.2,1.28,0.45,3.53,0.2c5.55-0.61,15.64-2.03,24.88-2.98" style="fill:none;stroke:#999;stroke-width:3"></path>
<path d="M899.27,14.5c0.48,0.92,1.76,2.49,1.76,5.52c0,15.23,0.24,52.96,0.24,64.4c0,14.25-6.32,3.53-7.77,2" style="fill:none;stroke:#999;stroke-width:3"></path>
<path d="M883.5,65.31c1.03,1.22,2.67,1.94,4.95,0.81c1.34-0.67,16.55-11.87,23.3-17.06" style="fill:none;stroke:#999;stroke-width:3"></path>
<path d="M922.49,15.73c1.05,0.4,2.11,0.49,3.12,0.31c2-0.36,26.27-4.08,28.39-4.45c2.12-0.36,2.84,1.53,1.58,2.71c-2.17,2.04-15.36,10.23-16.7,11.68" style="fill:none;stroke:#999;stroke-width:3"></path>
<path d="M931.1700000000001,22.26c2.23,0.87,7.5,4.21,8.55,6.48" style="fill:none;stroke:#999;stroke-width:3"></path>
<path d="M919.73,33.71c0.59,0.23,2.36,0.41,4.23,0.11c13.03-2.07,26.21-4.09,34.93-4.36c6.61-0.21,2.36,4.79-1.97,8.45" style="fill:none;stroke:#999;stroke-width:3"></path>
<path d="M941.02,33.15c0,8.71-0.03,13.87-0.03,19.3c0,6.55-4.52,1.72-6.29-0.33" style="fill:none;stroke:#999;stroke-width:3"></path>
<path d="M936.24,31.73c0.06,0.54,0.2,1.44-0.12,2.19c-2.5,5.81-7.97,13.92-20.49,20.93" style="fill:none;stroke:#999;stroke-width:3"></path>
<path d="M913.53,69.04c1.37,0.56,2.92,0.74,4.49,0.56c8.01-0.92,31.54-3.12,43.65-4.21c1.56-0.14,2.54,0.1,4.1,0.49" style="fill:none;stroke:#999;stroke-width:3"></path>

<path d="M993.25,37.26c2.1,0.2,1.28,0.45,3.53,0.2c5.55-0.61,15.64-2.03,24.88-2.98" style="fill:none;stroke:#999;stroke-width:3"></path>
<path d="M1008.27,14.5c0.48,0.92,1.76,2.49,1.76,5.52c0,15.23,0.24,52.96,0.24,64.4c0,14.25-6.32,3.53-7.77,2" style="fill:none;stroke:#999;stroke-width:3"></path>
<path d="M992.5,65.31c1.03,1.22,2.67,1.94,4.95,0.81c1.34-0.67,16.55-11.87,23.3-17.06" style="fill:none;stroke:#999;stroke-width:3"></path>
<path d="M1031.49,15.73c1.05,0.4,2.11,0.49,3.12,0.31c2-0.36,26.27-4.08,28.39-4.45c2.12-0.36,2.84,1.53,1.58,2.71c-2.17,2.04-15.36,10.23-16.7,11.68" style="fill:none;stroke:#999;stroke-width:3"></path>
<path d="M1040.17,22.26c2.23,0.87,7.5,4.21,8.55,6.48" style="fill:none;stroke:#999;stroke-width:3"></path>
<path d="M1028.73,33.71c0.59,0.23,2.36,0.41,4.23,0.11c13.03-2.07,26.21-4.09,34.93-4.36c6.61-0.21,2.36,4.79-1.97,8.45" style="fill:none;stroke:#999;stroke-width:3"></path>
<path d="M1050.02,33.15c0,8.71-0.03,13.87-0.03,19.3c0,6.55-4.52,1.72-6.29-0.33" style="fill:none;stroke:#999;stroke-width:3"></path>
<path d="M1045.24,31.73c0.06,0.54,0.2,1.44-0.12,2.19c-2.5,5.81-7.97,13.92-20.49,20.93" style="fill:none;stroke:#999;stroke-width:3"></path>
<path d="M1022.53,69.04c1.37,0.56,2.92,0.74,4.49,0.56c8.01-0.92,31.54-3.12,43.65-4.21c1.56-0.14,2.54,0.1,4.1,0.49" style="fill:none;stroke:#999;stroke-width:3"></path>
<path d="M1046.92,59.33c0.7,0.99,1.23,2.19,1.23,3.2c0,10.35,0,30.3-0.18,36.46" style="fill:none;stroke:#999;stroke-width:3"></path>

<path d="M1102.25,37.26c2.1,0.2,1.28,0.45,3.53,0.2c5.55-0.61,15.64-2.03,24.88-2.98" style="fill:none;stroke:#999;stroke-width:3"></path>
<path d="M1117.27,14.5c0.48,0.92,1.76,2.49,1.76,5.52c0,15.23,0.24,52.96,0.24,64.4c0,14.25-6.32,3.53-7.77,2" style="fill:none;stroke:#999;stroke-width:3"></path>
<path d="M1101.5,65.31c1.03,1.22,2.67,1.94,4.95,0.81c1.34-0.67,16.55-11.87,23.3-17.06" style="fill:none;stroke:#999;stroke-width:3"></path>
<path d="M1140.49,15.73c1.05,0.4,2.11,0.49,3.12,0.31c2-0.36,26.27-4.08,28.39-4.45c2.12-0.36,2.84,1.53,1.58,2.71c-2.17,2.04-15.36,10.23-16.7,11.68" style="fill:none;stroke:#999;stroke-width:3"></path>
<path d="M1149.17,22.26c2.23,0.87,7.5,4.21,8.55,6.48" style="fill:none;stroke:#999;stroke-width:3"></path>
<path d="M1137.73,33.71c0.59,0.23,2.36,0.41,4.23,0.11c13.03-2.07,26.21-4.09,34.93-4.36c6.61-0.21,2.36,4.79-1.97,8.45" style="fill:none;stroke:#999;stroke-width:3"></path>
<path d="M1159.02,33.15c0,8.71-0.03,13.87-0.03,19.3c0,6.55-4.52,1.72-6.29-0.33" style="fill:none;stroke:#999;stroke-width:3"></path>
<path d="M1154.24,31.73c0.06,0.54,0.2,1.44-0.12,2.19c-2.5,5.81-7.97,13.92-20.49,20.93" style="fill:none;stroke:#999;stroke-width:3"></path>
<path d="M1131.53,69.04c1.37,0.56,2.92,0.74,4.49,0.56c8.01-0.92,31.54-3.12,43.65-4.21c1.56-0.14,2.54,0.1,4.1,0.49" style="fill:none;stroke:#999;stroke-width:3"></path>
<path d="M1155.92,59.33c0.7,0.99,1.23,2.19,1.23,3.2c0,10.35,0,30.3-0.18,36.46" style="fill:none;stroke:#999;stroke-width:3"></path>
<path d="M1155.92,67.19C1151.87,76.5,1139.51,88.6,1128.5,92.56" style="fill:none;stroke:#999;stroke-width:3"></path>

<path d="M1211.25,37.26c2.1,0.2,1.28,0.45,3.53,0.2c5.55-0.61,15.64-2.03,24.88-2.98" style="fill:none;stroke:#999;stroke-width:3"></path>
<path d="M1226.27,14.5c0.48,0.92,1.76,2.49,1.76,5.52c0,15.23,0.24,52.96,0.24,64.4c0,14.25-6.32,3.53-7.77,2" style="fill:none;stroke:#999;stroke-width:3"></path>
<path d="M1210.5,65.31c1.03,1.22,2.67,1.94,4.95,0.81c1.34-0.67,16.55-11.87,23.3-17.06" style="fill:none;stroke:#999;stroke-width:3"></path>
<path d="M1249.49,15.73c1.05,0.4,2.11,0.49,3.12,0.31c2-0.36,26.27-4.08,28.39-4.45c2.12-0.36,2.84,1.53,1.58,2.71c-2.17,2.04-15.36,10.23-16.7,11.68" style="fill:none;stroke:#999;stroke-width:3"></path>
<path d="M1258.17,22.26c2.23,0.87,7.5,4.21,8.55,6.48" style="fill:none;stroke:#999;stroke-width:3"></path>
<path d="M1246.73,33.71c0.59,0.23,2.36,0.41,4.23,0.11c13.03-2.07,26.21-4.09,34.93-4.36c6.61-0.21,2.36,4.79-1.97,8.45" style="fill:none;stroke:#999;stroke-width:3"></path>
<path d="M1268.02,33.15c0,8.71-0.03,13.87-0.03,19.3c0,6.55-4.52,1.72-6.29-0.33" style="fill:none;stroke:#999;stroke-width:3"></path>
<path d="M1263.24,31.73c0.06,0.54,0.2,1.44-0.12,2.19c-2.5,5.81-7.97,13.92-20.49,20.93" style="fill:none;stroke:#999;stroke-width:3"></path>
<path d="M1240.53,69.04c1.37,0.56,2.92,0.74,4.49,0.56c8.01-0.92,31.54-3.12,43.65-4.21c1.56-0.14,2.54,0.1,4.1,0.49" style="fill:none;stroke:#999;stroke-width:3"></path>
<path d="M1264.92,59.33c0.7,0.99,1.23,2.19,1.23,3.2c0,10.35,0,30.3-0.18,36.46" style="fill:none;stroke:#999;stroke-width:3"></path>
<path d="M1264.92,67.19C1260.87,76.5,1248.51,88.6,1237.5,92.56" style="fill:none;stroke:#999;stroke-width:3"></path>
<path d="M1266.85,67.95c3.53,3.09,20.11,18.61,23.94,21.65c1.3,1.03,2.41,1.47,3.71,1.77" style="fill:none;stroke:#999;stroke-width:3"></path>

</svg>