<svg width="1199px" height="109px" viewBox="0 0 1199 109" xmlns="http://www.w3.org/2000/svg" xmlns:xlink="http://www.w3.org/1999/xlink" xml:space="preserve" version="1.1" baseProfile="full">
<line x1="1" y1="1" x2="1198" y2="1" style="stroke:#ddd;stroke-width:2"></line>
<line x1="1" y1="1" x2="1" y2="108" style="stroke:#ddd;stroke-width:2"></line>
<line x1="1" y1="108" x2="1198" y2="108" style="stroke:#ddd;stroke-width:2"></line>
<line x1="1198" y1="1" x2="1198" y2="108" style="stroke:#ddd;stroke-width:2"></line>
<line x1="109" y1="1" x2="109" y2="108" style="stroke:#ddd;stroke-width:2"></line>
<line x1="218" y1="1" x2="218" y2="108" style="stroke:#ddd;stroke-width:2"></line>
<line x1="327" y1="1" x2="327" y2="108" style="stroke:#ddd;stroke-width:2"></line>
<line x1="436" y1="1" x2="436" y2="108" style="stroke:#ddd;stroke-width:2"></line>
<line x1="545" y1="1" x2="545" y2="108" style="stroke:#ddd;stroke-width:2"></line>
<line x1="654" y1="1" x2="654" y2="108" style="stroke:#ddd;stroke-width:2"></line>
<line x1="763" y1="1" x2="763" y2="108" style="stroke:#ddd;stroke-width:2"></line>
<line x1="872" y1="1" x2="872" y2="108" style="stroke:#ddd;stroke-width:2"></line>
<line x1="981" y1="1" x2="981" y2="108" style="stroke:#ddd;stroke-width:2"></line>
<line x1="1090" y1="1" x2="1090" y2="108" style="stroke:#ddd;stroke-width:2"></line>
<line x1="1" y1="54" x2="1198" y2="54" style="stroke:#ddd;stroke-width:2;stroke-dasharray:3 3"></line>
<line x1="55" y1="1" x2="55" y2="108" style="stroke:#ddd;stroke-width:2;stroke-dasharray:3 3"></line>
<line x1="164" y1="1" x2="164" y2="108" style="stroke:#ddd;stroke-width:2;stroke-dasharray:3 3"></line>
<line x1="273" y1="1" x2="273" y2="108" style="stroke:#ddd;stroke-width:2;stroke-dasharray:3 3"></line>
<line x1="382" y1="1" x2="382" y2="108" style="stroke:#ddd;stroke-width:2;stroke-dasharray:3 3"></line>
<line x1="491" y1="1" x2="491" y2="108" style="stroke:#ddd;stroke-width:2;stroke-dasharray:3 3"></line>
<line x1="600" y1="1" x2="600" y2="108" style="stroke:#ddd;stroke-width:2;stroke-dasharray:3 3"></line>
<line x1="709" y1="1" x2="709" y2="108" style="stroke:#ddd;stroke-width:2;stroke-dasharray:3 3"></line>
<line x1="818" y1="1" x2="818" y2="108" style="stroke:#ddd;stroke-width:2;stroke-dasharray:3 3"></line>
<line x1="927" y1="1" x2="927" y2="108" style="stroke:#ddd;stroke-width:2;stroke-dasharray:3 3"></line>
<line x1="1036" y1="1" x2="1036" y2="108" style="stroke:#ddd;stroke-width:2;stroke-dasharray:3 3"></line>
<line x1="1145" y1="1" x2="1145" y2="108" style="stroke:#ddd;stroke-width:2;stroke-dasharray:3 3"></line>
<path d="M16.25,35.42c2.09,0.25,4.02,0.19,6.15-0.14c4.79-0.74,11.97-1.9,19.63-3.33c1.13-0.21,2.47-0.2,3.64-0.2" style="fill:none;stroke:#999;stroke-width:3"></path>

<path d="M125.25,35.42c2.09,0.25,4.02,0.19,6.15-0.14c4.79-0.74,11.97-1.9,19.63-3.33c1.13-0.21,2.47-0.2,3.64-0.2" style="fill:none;stroke:#999;stroke-width:3"></path>
<path d="M141.02,15.25c0.99,0.99,1.51,2.25,1.51,4.52c0,15.23-0.01,53.71-0.01,65.15c0,14.25-6.32,3.53-7.77,2" style="fill:none;stroke:#999;stroke-width:3"></path>

<path d="M234.25,35.42c2.09,0.25,4.02,0.19,6.15-0.14c4.79-0.74,11.97-1.9,19.63-3.33c1.13-0.21,2.47-0.2,3.64-0.2" style="fill:none;stroke:#999;stroke-width:3"></path>
<path d="M250.02,15.25c0.99,0.99,1.51,2.25,1.51,4.52c0,15.23-0.01,53.71-0.01,65.15c0,14.25-6.32,3.53-7.77,2" style="fill:none;stroke:#999;stroke-width:3"></path>
<path d="M232.5,66.43c1.16,1.16,2.38,0.95,4.5-0.43c6-3.88,10.38-6.5,22-13.83" style="fill:none;stroke:#999;stroke-width:3"></path>

<path d="M343.25,35.42c2.09,0.25,4.02,0.19,6.15-0.14c4.79-0.74,11.97-1.9,19.63-3.33c1.13-0.21,2.47-0.2,3.64-0.2" style="fill:none;stroke:#999;stroke-width:3"></path>
<path d="M359.02,15.25c0.99,0.99,1.51,2.25,1.51,4.52c0,15.23-0.01,53.71-0.01,65.15c0,14.25-6.32,3.53-7.77,2" style="fill:none;stroke:#999;stroke-width:3"></path>
<path d="M341.5,66.43c1.16,1.16,2.38,0.95,4.5-0.43c6-3.88,10.38-6.5,22-13.83" style="fill:none;stroke:#999;stroke-width:3"></path>
<path d="M371.32,38.64c2.68,0.61,5.28,0.52,7.82,0.17c11.64-1.58,25.67-3.66,37.72-4.48c2.34-0.16,4.8-0.17,7.13,0.32" style="fill:none;stroke:#999;stroke-width:3"></path>

<path d="M452.25,35.42c2.09,0.25,4.02,0.19,6.15-0.14c4.79-0.74,11.97-1.9,19.63-3.33c1.13-0.21,2.47-0.2,3.64-0.2" style="fill:none;stroke:#999;stroke-width:3"></path>
<path d="M468.02,15.25c0.99,0.99,1.51,2.25,1.51,4.52c0,15.23-0.01,53.71-0.01,65.15c0,14.25-6.32,3.53-7.77,2" style="fill:none;stroke:#999;stroke-width:3"></path>
<path d="M450.5,66.43c1.16,1.16,2.38,0.95,4.5-0.43c6-3.88,10.38-6.5,22-13.83" style="fill:none;stroke:#999;stroke-width:3"></path>
<path d="M480.32,38.64c2.68,0.61,5.28,0.52,7.82,0.17c11.64-1.58,25.67-3.66,37.72-4.48c2.34-0.16,4.8-0.17,7.13,0.32" style="fill:none;stroke:#999;stroke-width:3"></path>
<path d="M492.87,20.35c0.95,0.95,1.36,2.12,1.47,3.25c1.03,10.49,2.15,21.28,2.45,25.09" style="fill:none;stroke:#999;stroke-width:3"></path>

<path d="M561.25,35.42c2.09,0.25,4.02,0.19,6.15-0.14c4.79-0.74,11.97-1.9,19.63-3.33c1.13-0.21,2.47-0.2,3.64-0.2" style="fill:none;stroke:#999;stroke-width:3"></path>
<path d="M577.02,15.25c0.99,0.99,1.51,2.25,1.51,4.52c0,15.23-0.01,53.71-0.01,65.15c0,14.25-6.32,3.53-7.77,2" style="fill:none;stroke:#999;stroke-width:3"></path>
<path d="M559.5,66.43c1.16,1.16,2.38,0.95,4.5-0.43c6-3.88,10.38-6.5,22-13.83" style="fill:none;stroke:#999;stroke-width:3"></path>
<path d="M589.3199999999999,38.64c2.68,0.61,5.28,0.52,7.82,0.17c11.64-1.58,25.67-3.66,37.72-4.48c2.34-0.16,4.8-0.17,7.13,0.32" style="fill:none;stroke:#999;stroke-width:3"></path>
<path d="M601.87,20.35c0.95,0.95,1.36,2.12,1.47,3.25c1.03,10.49,2.15,21.28,2.45,25.09" style="fill:none;stroke:#999;stroke-width:3"></path>
<path d="M628.36,17.5c0.64,1,0.64,2.12,0.4,3.75c-1.55,10.74-2.26,15.5-4.17,26.7" style="fill:none;stroke:#999;stroke-width:3"></path>

<path d="M670.25,35.42c2.09,0.25,4.02,0.19,6.15-0.14c4.79-0.74,11.97-1.9,19.63-3.33c1.13-0.21,2.47-0.2,3.64-0.2" style="fill:none;stroke:#999;stroke-width:3"></path>
<path d="M686.02,15.25c0.99,0.99,1.51,2.25,1.51,4.52c0,15.23-0.01,53.71-0.01,65.15c0,14.25-6.32,3.53-7.77,2" style="fill:none;stroke:#999;stroke-width:3"></path>
<path d="M668.5,66.43c1.16,1.16,2.38,0.95,4.5-0.43c6-3.88,10.38-6.5,22-13.83" style="fill:none;stroke:#999;stroke-width:3"></path>
<path d="M698.3199999999999,38.64c2.68,0.61,5.28,0.52,7.82,0.17c11.64-1.58,25.67-3.66,37.72-4.48c2.34-0.16,4.8-0.17,7.13,0.32" style="fill:none;stroke:#999;stroke-width:3"></path>
<path d="M710.87,20.35c0.95,0.95,1.36,2.12,1.47,3.25c1.03,10.49,2.15,21.28,2.45,25.09" style="fill:none;stroke:#999;stroke-width:3"></path>
<path d="M737.36,17.5c0.64,1,0.64,2.12,0.4,3.75c-1.55,10.74-2.26,15.5-4.17,26.7" style="fill:none;stroke:#999;stroke-width:3"></path>
<path d="M704.0,55.01c0.74,0.74,1.25,1.75,1.44,3.29c1.05,8.32,2.02,17.92,2.74,28.69c0.14,2.03,0.26,4,0.38,5.83" style="fill:none;stroke:#999;stroke-width:3"></path>

<path d="M779.25,35.42c2.09,0.25,4.02,0.19,6.15-0.14c4.79-0.74,11.97-1.9,19.63-3.33c1.13-0.21,2.47-0.2,3.64-0.2" style="fill:none;stroke:#999;stroke-width:3"></path>
<path d="M795.02,15.25c0.99,0.99,1.51,2.25,1.51,4.52c0,15.23-0.01,53.71-0.01,65.15c0,14.25-6.32,3.53-7.77,2" style="fill:none;stroke:#999;stroke-width:3"></path>
<path d="M777.5,66.43c1.16,1.16,2.38,0.95,4.5-0.43c6-3.88,10.38-6.5,22-13.83" style="fill:none;stroke:#999;stroke-width:3"></path>
<path d="M807.3199999999999,38.64c2.68,0.61,5.28,0.52,7.82,0.17c11.64-1.58,25.67-3.66,37.72-4.48c2.34-0.16,4.8-0.17,7.13,0.32" style="fill:none;stroke:#999;stroke-width:3"></path>
<path d="M819.87,20.35c0.95,0.95,1.36,2.12,1.47,3.25c1.03,10.49,2.15,21.28,2.45,25.09" style="fill:none;stroke:#999;stroke-width:3"></path>
<path d="M846.36,17.5c0.64,1,0.64,2.12,0.4,3.75c-1.55,10.74-2.26,15.5-4.17,26.7" style="fill:none;stroke:#999;stroke-width:3"></path>
<path d="M813.0,55.01c0.74,0.74,1.25,1.75,1.44,3.29c1.05,8.32,2.02,17.92,2.74,28.69c0.14,2.03,0.26,4,0.38,5.83" style="fill:none;stroke:#999;stroke-width:3"></path>
<path d="M815.6,57.69c11.32-1.58,27.1-3.04,35.29-3.85c3.41-0.34,5.86,0.33,5.5,4.18c-0.52,5.64-1.65,16.8-3.08,26.28c-0.31,2.05-0.63,4.02-0.97,5.84" style="fill:none;stroke:#999;stroke-width:3"></path>

<path d="M888.25,35.42c2.09,0.25,4.02,0.19,6.15-0.14c4.79-0.74,11.97-1.9,19.63-3.33c1.13-0.21,2.47-0.2,3.64-0.2" style="fill:none;stroke:#999;stroke-width:3"></path>
<path d="M904.02,15.25c0.99,0.99,1.51,2.25,1.51,4.52c0,15.23-0.01,53.71-0.01,65.15c0,14.25-6.32,3.53-7.77,2" style="fill:none;stroke:#999;stroke-width:3"></path>
<path d="M886.5,66.43c1.16,1.16,2.38,0.95,4.5-0.43c6-3.88,10.38-6.5,22-13.83" style="fill:none;stroke:#999;stroke-width:3"></path>
<path d="M916.3199999999999,38.64c2.68,0.61,5.28,0.52,7.82,0.17c11.64-1.58,25.67-3.66,37.72-4.48c2.34-0.16,4.8-0.17,7.13,0.32" style="fill:none;stroke:#999;stroke-width:3"></path>
<path d="M928.87,20.35c0.95,0.95,1.36,2.12,1.47,3.25c1.03,10.49,2.15,21.28,2.45,25.09" style="fill:none;stroke:#999;stroke-width:3"></path>
<path d="M955.36,17.5c0.64,1,0.64,2.12,0.4,3.75c-1.55,10.74-2.26,15.5-4.17,26.7" style="fill:none;stroke:#999;stroke-width:3"></path>
<path d="M922.0,55.01c0.74,0.74,1.25,1.75,1.44,3.29c1.05,8.32,2.02,17.92,2.74,28.69c0.14,2.03,0.26,4,0.38,5.83" style="fill:none;stroke:#999;stroke-width:3"></path>
<path d="M924.6,57.69c11.32-1.58,27.1-3.04,35.29-3.85c3.41-0.34,5.86,0.33,5.5,4.18c-0.52,5.64-1.65,16.8-3.08,26.28c-0.31,2.05-0.63,4.02-0.97,5.84" style="fill:none;stroke:#999;stroke-width:3"></path>
<path d="M942.41,57.78c0.84,0.84,1,1.79,1,2.82c0,7.9,0.01,21.04-0.03,27.03" style="fill:none;stroke:#999;stroke-width:3"></path>

<path d="M997.25,35.42c2.09,0.25,4.02,0.19,6.15-0.14c4.79-0.74,11.97-1.9,19.63-3.33c1.13-0.21,2.47-0.2,3.64-0.2" style="fill:none;stroke:#999;stroke-width:3"></path>
<path d="M1013.02,15.25c0.99,0.99,1.51,2.25,1.51,4.52c0,15.23-0.01,53.71-0.01,65.15c0,14.25-6.32,3.53-7.77,2" style="fill:none;stroke:#999;stroke-width:3"></path>
<path d="M995.5,66.43c1.16,1.16,2.38,0.95,4.5-0.43c6-3.88,10.38-6.5,22-13.83" style="fill:none;stroke:#999;stroke-width:3"></path>
<path d="M1025.32,38.64c2.68,0.61,5.28,0.52,7.82,0.17c11.64-1.58,25.67-3.66,37.72-4.48c2.34-0.16,4.8-0.17,7.13,0.32" style="fill:none;stroke:#999;stroke-width:3"></path>
<path d="M1037.87,20.35c0.95,0.95,1.36,2.12,1.47,3.25c1.03,10.49,2.15,21.28,2.45,25.09" style="fill:none;stroke:#999;stroke-width:3"></path>
<path d="M1064.3600000000001,17.5c0.64,1,0.64,2.12,0.4,3.75c-1.55,10.74-2.26,15.5-4.17,26.7" style="fill:none;stroke:#999;stroke-width:3"></path>
<path d="M1031.0,55.01c0.74,0.74,1.25,1.75,1.44,3.29c1.05,8.32,2.02,17.92,2.74,28.69c0.14,2.03,0.26,4,0.38,5.83" style="fill:none;stroke:#999;stroke-width:3"></path>
<path d="M1033.6,57.69c11.32-1.58,27.1-3.04,35.29-3.85c3.41-0.34,5.86,0.33,5.5,4.18c-0.52,5.64-1.65,16.8-3.08,26.28c-0.31,2.05-0.63,4.02-0.97,5.84" style="fill:none;stroke:#999;stroke-width:3"></path>
<path d="M1051.4099999999999,57.78c0.84,0.84,1,1.79,1,2.82c0,7.9,0.01,21.04-0.03,27.03" style="fill:none;stroke:#999;stroke-width:3"></path>
<path d="M1035.12,73.13c11.63-1.5,28.25-3.25,37.05-3.8" style="fill:none;stroke:#999;stroke-width:3"></path>

<path d="M1106.25,35.42c2.09,0.25,4.02,0.19,6.15-0.14c4.79-0.74,11.97-1.9,19.63-3.33c1.13-0.21,2.47-0.2,3.64-0.2" style="fill:none;stroke:#999;stroke-width:3"></path>
<path d="M1122.02,15.25c0.99,0.99,1.51,2.25,1.51,4.52c0,15.23-0.01,53.71-0.01,65.15c0,14.25-6.32,3.53-7.77,2" style="fill:none;stroke:#999;stroke-width:3"></path>
<path d="M1104.5,66.43c1.16,1.16,2.38,0.95,4.5-0.43c6-3.88,10.38-6.5,22-13.83" style="fill:none;stroke:#999;stroke-width:3"></path>
<path d="M1134.32,38.64c2.68,0.61,5.28,0.52,7.82,0.17c11.64-1.58,25.67-3.66,37.72-4.48c2.34-0.16,4.8-0.17,7.13,0.32" style="fill:none;stroke:#999;stroke-width:3"></path>
<path d="M1146.87,20.35c0.95,0.95,1.36,2.12,1.47,3.25c1.03,10.49,2.15,21.28,2.45,25.09" style="fill:none;stroke:#999;stroke-width:3"></path>
<path d="M1173.3600000000001,17.5c0.64,1,0.64,2.12,0.4,3.75c-1.55,10.74-2.26,15.5-4.17,26.7" style="fill:none;stroke:#999;stroke-width:3"></path>
<path d="M1140.0,55.01c0.74,0.74,1.25,1.75,1.44,3.29c1.05,8.32,2.02,17.92,2.74,28.69c0.14,2.03,0.26,4,0.38,5.83" style="fill:none;stroke:#999;stroke-width:3"></path>
<path d="M1142.6,57.69c11.32-1.58,27.1-3.04,35.29-3.85c3.41-0.34,5.86,0.33,5.5,4.18c-0.52,5.64-1.65,16.8-3.08,26.28c-0.31,2.05-0.63,4.02-0.97,5.84" style="fill:none;stroke:#999;stroke-width:3"></path>
<path d="M1160.4099999999999,57.78c0.84,0.84,1,1.79,1,2.82c0,7.9,0.01,21.04-0.03,27.03" style="fill:none;stroke:#999;stroke-width:3"></path>
<path d="M1144.12,73.13c11.63-1.5,28.25-3.25,37.05-3.8" style="fill:none;stroke:#999;stroke-width:3"></path>
<path d="M1145.59,90.26c8.16-0.75,22.95-2.24,32.97-2.6" style="fill:none;stroke:#999;stroke-width:3"></path>

</svg>