<svg width="1635px" height="109px" viewBox="0 0 1635 109" xmlns="http://www.w3.org/2000/svg" xmlns:xlink="http://www.w3.org/1999/xlink" xml:space="preserve" version="1.1" baseProfile="full">
<line x1="1" y1="1" x2="1634" y2="1" style="stroke:#ddd;stroke-width:2"></line>
<line x1="1" y1="1" x2="1" y2="108" style="stroke:#ddd;stroke-width:2"></line>
<line x1="1" y1="108" x2="1634" y2="108" style="stroke:#ddd;stroke-width:2"></line>
<line x1="1634" y1="1" x2="1634" y2="108" style="stroke:#ddd;stroke-width:2"></line>
<line x1="109" y1="1" x2="109" y2="108" style="stroke:#ddd;stroke-width:2"></line>
<line x1="218" y1="1" x2="218" y2="108" style="stroke:#ddd;stroke-width:2"></line>
<line x1="327" y1="1" x2="327" y2="108" style="stroke:#ddd;stroke-width:2"></line>
<line x1="436" y1="1" x2="436" y2="108" style="stroke:#ddd;stroke-width:2"></line>
<line x1="545" y1="1" x2="545" y2="108" style="stroke:#ddd;stroke-width:2"></line>
<line x1="654" y1="1" x2="654" y2="108" style="stroke:#ddd;stroke-width:2"></line>
<line x1="763" y1="1" x2="763" y2="108" style="stroke:#ddd;stroke-width:2"></line>
<line x1="872" y1="1" x2="872" y2="108" style="stroke:#ddd;stroke-width:2"></line>
<line x1="981" y1="1" x2="981" y2="108" style="stroke:#ddd;stroke-width:2"></line>
<line x1="1090" y1="1" x2="1090" y2="108" style="stroke:#ddd;stroke-width:2"></line>
<line x1="1199" y1="1" x2="1199" y2="108" style="stroke:#ddd;stroke-width:2"></line>
<line x1="1308" y1="1" x2="1308" y2="108" style="stroke:#ddd;stroke-width:2"></line>
<line x1="1417" y1="1" x2="1417" y2="108" style="stroke:#ddd;stroke-width:2"></line>
<line x1="1526" y1="1" x2="1526" y2="108" style="stroke:#ddd;stroke-width:2"></line>
<line x1="1" y1="54" x2="1634" y2="54" style="stroke:#ddd;stroke-width:2;stroke-dasharray:3 3"></line>
<line x1="55" y1="1" x2="55" y2="108" style="stroke:#ddd;stroke-width:2;stroke-dasharray:3 3"></line>
<line x1="164" y1="1" x2="164" y2="108" style="stroke:#ddd;stroke-width:2;stroke-dasharray:3 3"></line>
<line x1="273" y1="1" x2="273" y2="108" style="stroke:#ddd;stroke-width:2;stroke-dasharray:3 3"></line>
<line x1="382" y1="1" x2="382" y2="108" style="stroke:#ddd;stroke-width:2;stroke-dasharray:3 3"></line>
<line x1="491" y1="1" x2="491" y2="108" style="stroke:#ddd;stroke-width:2;stroke-dasharray:3 3"></line>
<line x1="600" y1="1" x2="600" y2="108" style="stroke:#ddd;stroke-width:2;stroke-dasharray:3 3"></line>
<line x1="709" y1="1" x2="709" y2="108" style="stroke:#ddd;stroke-width:2;stroke-dasharray:3 3"></line>
<line x1="818" y1="1" x2="818" y2="108" style="stroke:#ddd;stroke-width:2;stroke-dasharray:3 3"></line>
<line x1="927" y1="1" x2="927" y2="108" style="stroke:#ddd;stroke-width:2;stroke-dasharray:3 3"></line>
<line x1="1036" y1="1" x2="1036" y2="108" style="stroke:#ddd;stroke-width:2;stroke-dasharray:3 3"></line>
<line x1="1145" y1="1" x2="1145" y2="108" style="stroke:#ddd;stroke-width:2;stroke-dasharray:3 3"></line>
<line x1="1254" y1="1" x2="1254" y2="108" style="stroke:#ddd;stroke-width:2;stroke-dasharray:3 3"></line>
<line x1="1363" y1="1" x2="1363" y2="108" style="stroke:#ddd;stroke-width:2;stroke-dasharray:3 3"></line>
<line x1="1472" y1="1" x2="1472" y2="108" style="stroke:#ddd;stroke-width:2;stroke-dasharray:3 3"></line>
<line x1="1581" y1="1" x2="1581" y2="108" style="stroke:#ddd;stroke-width:2;stroke-dasharray:3 3"></line>
<path d="M15.0,37c2.15,0.26,3.82,0.21,6.02-0.09c4.39-0.59,9.43-1.49,15.62-2.35c1.14-0.16,2.31-0.32,3.53-0.47" style="fill:none;stroke:#999;stroke-width:3"></path>

<path d="M124.0,37c2.15,0.26,3.82,0.21,6.02-0.09c4.39-0.59,9.43-1.49,15.62-2.35c1.14-0.16,2.31-0.32,3.53-0.47" style="fill:none;stroke:#999;stroke-width:3"></path>
<path d="M138.77,13.83c1.2,1.2,1.51,3.04,1.51,5.52c0,14.56-0.01,62.44-0.01,67.4c0,14.25-6.32,3.53-7.77,2" style="fill:none;stroke:#999;stroke-width:3"></path>

<path d="M233.0,37c2.15,0.26,3.82,0.21,6.02-0.09c4.39-0.59,9.43-1.49,15.62-2.35c1.14-0.16,2.31-0.32,3.53-0.47" style="fill:none;stroke:#999;stroke-width:3"></path>
<path d="M247.77,13.83c1.2,1.2,1.51,3.04,1.51,5.52c0,14.56-0.01,62.44-0.01,67.4c0,14.25-6.32,3.53-7.77,2" style="fill:none;stroke:#999;stroke-width:3"></path>
<path d="M231.0,66.27c1.62,1.23,3.82,0.9,5.59-0.35c7.66-5.42,11.66-8.17,19.66-14.17" style="fill:none;stroke:#999;stroke-width:3"></path>

<path d="M342.0,37c2.15,0.26,3.82,0.21,6.02-0.09c4.39-0.59,9.43-1.49,15.62-2.35c1.14-0.16,2.31-0.32,3.53-0.47" style="fill:none;stroke:#999;stroke-width:3"></path>
<path d="M356.77,13.83c1.2,1.2,1.51,3.04,1.51,5.52c0,14.56-0.01,62.44-0.01,67.4c0,14.25-6.32,3.53-7.77,2" style="fill:none;stroke:#999;stroke-width:3"></path>
<path d="M340.0,66.27c1.62,1.23,3.82,0.9,5.59-0.35c7.66-5.42,11.66-8.17,19.66-14.17" style="fill:none;stroke:#999;stroke-width:3"></path>
<path d="M371.26,19.03c1.35,0.73,3.07,0.25,4.5,0.06c3.15-0.42,9.06-1.45,11.76-1.8c2.17-0.28,3.17,0.01,2.63,2.49c-0.37,1.71-1.33,5.33-1.83,7.74" style="fill:none;stroke:#999;stroke-width:3"></path>

<path d="M451.0,37c2.15,0.26,3.82,0.21,6.02-0.09c4.39-0.59,9.43-1.49,15.62-2.35c1.14-0.16,2.31-0.32,3.53-0.47" style="fill:none;stroke:#999;stroke-width:3"></path>
<path d="M465.77,13.83c1.2,1.2,1.51,3.04,1.51,5.52c0,14.56-0.01,62.44-0.01,67.4c0,14.25-6.32,3.53-7.77,2" style="fill:none;stroke:#999;stroke-width:3"></path>
<path d="M449.0,66.27c1.62,1.23,3.82,0.9,5.59-0.35c7.66-5.42,11.66-8.17,19.66-14.17" style="fill:none;stroke:#999;stroke-width:3"></path>
<path d="M480.26,19.03c1.35,0.73,3.07,0.25,4.5,0.06c3.15-0.42,9.06-1.45,11.76-1.8c2.17-0.28,3.17,0.01,2.63,2.49c-0.37,1.71-1.33,5.33-1.83,7.74" style="fill:none;stroke:#999;stroke-width:3"></path>
<path d="M483.33,29.89c1.36-0.12,6.36-0.87,11.31-1.4c1.52-0.16,2.97-0.3,4.19-0.4" style="fill:none;stroke:#999;stroke-width:3"></path>

<path d="M560.0,37c2.15,0.26,3.82,0.21,6.02-0.09c4.39-0.59,9.43-1.49,15.62-2.35c1.14-0.16,2.31-0.32,3.53-0.47" style="fill:none;stroke:#999;stroke-width:3"></path>
<path d="M574.77,13.83c1.2,1.2,1.51,3.04,1.51,5.52c0,14.56-0.01,62.44-0.01,67.4c0,14.25-6.32,3.53-7.77,2" style="fill:none;stroke:#999;stroke-width:3"></path>
<path d="M558.0,66.27c1.62,1.23,3.82,0.9,5.59-0.35c7.66-5.42,11.66-8.17,19.66-14.17" style="fill:none;stroke:#999;stroke-width:3"></path>
<path d="M589.26,19.03c1.35,0.73,3.07,0.25,4.5,0.06c3.15-0.42,9.06-1.45,11.76-1.8c2.17-0.28,3.17,0.01,2.63,2.49c-0.37,1.71-1.33,5.33-1.83,7.74" style="fill:none;stroke:#999;stroke-width:3"></path>
<path d="M592.3299999999999,29.89c1.36-0.12,6.36-0.87,11.31-1.4c1.52-0.16,2.97-0.3,4.19-0.4" style="fill:none;stroke:#999;stroke-width:3"></path>
<path d="M590.31,19.91c0.76,0.76,0.88,1.34,0.88,2.73c0,1.99-0.06,11.31-0.06,12.73c0,5,0.88,6.11,9.31,6.11c8.82,0,9.86-0.73,9.86-3.87" style="fill:none;stroke:#999;stroke-width:3"></path>

<path d="M669.0,37c2.15,0.26,3.82,0.21,6.02-0.09c4.39-0.59,9.43-1.49,15.62-2.35c1.14-0.16,2.31-0.32,3.53-0.47" style="fill:none;stroke:#999;stroke-width:3"></path>
<path d="M683.77,13.83c1.2,1.2,1.51,3.04,1.51,5.52c0,14.56-0.01,62.44-0.01,67.4c0,14.25-6.32,3.53-7.77,2" style="fill:none;stroke:#999;stroke-width:3"></path>
<path d="M667.0,66.27c1.62,1.23,3.82,0.9,5.59-0.35c7.66-5.42,11.66-8.17,19.66-14.17" style="fill:none;stroke:#999;stroke-width:3"></path>
<path d="M698.26,19.03c1.35,0.73,3.07,0.25,4.5,0.06c3.15-0.42,9.06-1.45,11.76-1.8c2.17-0.28,3.17,0.01,2.63,2.49c-0.37,1.71-1.33,5.33-1.83,7.74" style="fill:none;stroke:#999;stroke-width:3"></path>
<path d="M701.3299999999999,29.89c1.36-0.12,6.36-0.87,11.31-1.4c1.52-0.16,2.97-0.3,4.19-0.4" style="fill:none;stroke:#999;stroke-width:3"></path>
<path d="M699.31,19.91c0.76,0.76,0.88,1.34,0.88,2.73c0,1.99-0.06,11.31-0.06,12.73c0,5,0.88,6.11,9.31,6.11c8.82,0,9.86-0.73,9.86-3.87" style="fill:none;stroke:#999;stroke-width:3"></path>
<path d="M725.34,16.47c1.39,0.75,3.19,0.23,4.66,0.05c3.15-0.39,9.01-1.46,11.89-1.87c2.77-0.39,3.4,0.27,2.82,2.99c-0.46,2.17-1.49,6.23-1.97,8.51" style="fill:none;stroke:#999;stroke-width:3"></path>

<path d="M778.0,37c2.15,0.26,3.82,0.21,6.02-0.09c4.39-0.59,9.43-1.49,15.62-2.35c1.14-0.16,2.31-0.32,3.53-0.47" style="fill:none;stroke:#999;stroke-width:3"></path>
<path d="M792.77,13.83c1.2,1.2,1.51,3.04,1.51,5.52c0,14.56-0.01,62.44-0.01,67.4c0,14.25-6.32,3.53-7.77,2" style="fill:none;stroke:#999;stroke-width:3"></path>
<path d="M776.0,66.27c1.62,1.23,3.82,0.9,5.59-0.35c7.66-5.42,11.66-8.17,19.66-14.17" style="fill:none;stroke:#999;stroke-width:3"></path>
<path d="M807.26,19.03c1.35,0.73,3.07,0.25,4.5,0.06c3.15-0.42,9.06-1.45,11.76-1.8c2.17-0.28,3.17,0.01,2.63,2.49c-0.37,1.71-1.33,5.33-1.83,7.74" style="fill:none;stroke:#999;stroke-width:3"></path>
<path d="M810.3299999999999,29.89c1.36-0.12,6.36-0.87,11.31-1.4c1.52-0.16,2.97-0.3,4.19-0.4" style="fill:none;stroke:#999;stroke-width:3"></path>
<path d="M808.31,19.91c0.76,0.76,0.88,1.34,0.88,2.73c0,1.99-0.06,11.31-0.06,12.73c0,5,0.88,6.11,9.31,6.11c8.82,0,9.86-0.73,9.86-3.87" style="fill:none;stroke:#999;stroke-width:3"></path>
<path d="M834.34,16.47c1.39,0.75,3.19,0.23,4.66,0.05c3.15-0.39,9.01-1.46,11.89-1.87c2.77-0.39,3.4,0.27,2.82,2.99c-0.46,2.17-1.49,6.23-1.97,8.51" style="fill:none;stroke:#999;stroke-width:3"></path>
<path d="M837.75,28.52c1.29-0.09,6.04-0.72,10.64-1.21c1.75-0.19,3.45-0.35,4.86-0.47" style="fill:none;stroke:#999;stroke-width:3"></path>

<path d="M887.0,37c2.15,0.26,3.82,0.21,6.02-0.09c4.39-0.59,9.43-1.49,15.62-2.35c1.14-0.16,2.31-0.32,3.53-0.47" style="fill:none;stroke:#999;stroke-width:3"></path>
<path d="M901.77,13.83c1.2,1.2,1.51,3.04,1.51,5.52c0,14.56-0.01,62.44-0.01,67.4c0,14.25-6.32,3.53-7.77,2" style="fill:none;stroke:#999;stroke-width:3"></path>
<path d="M885.0,66.27c1.62,1.23,3.82,0.9,5.59-0.35c7.66-5.42,11.66-8.17,19.66-14.17" style="fill:none;stroke:#999;stroke-width:3"></path>
<path d="M916.26,19.03c1.35,0.73,3.07,0.25,4.5,0.06c3.15-0.42,9.06-1.45,11.76-1.8c2.17-0.28,3.17,0.01,2.63,2.49c-0.37,1.71-1.33,5.33-1.83,7.74" style="fill:none;stroke:#999;stroke-width:3"></path>
<path d="M919.3299999999999,29.89c1.36-0.12,6.36-0.87,11.31-1.4c1.52-0.16,2.97-0.3,4.19-0.4" style="fill:none;stroke:#999;stroke-width:3"></path>
<path d="M917.31,19.91c0.76,0.76,0.88,1.34,0.88,2.73c0,1.99-0.06,11.31-0.06,12.73c0,5,0.88,6.11,9.31,6.11c8.82,0,9.86-0.73,9.86-3.87" style="fill:none;stroke:#999;stroke-width:3"></path>
<path d="M943.34,16.47c1.39,0.75,3.19,0.23,4.66,0.05c3.15-0.39,9.01-1.46,11.89-1.87c2.77-0.39,3.4,0.27,2.82,2.99c-0.46,2.17-1.49,6.23-1.97,8.51" style="fill:none;stroke:#999;stroke-width:3"></path>
<path d="M946.75,28.52c1.29-0.09,6.04-0.72,10.64-1.21c1.75-0.19,3.45-0.35,4.86-0.47" style="fill:none;stroke:#999;stroke-width:3"></path>
<path d="M944.59,17.23c0.71,0.71,0.91,1.64,0.91,3.27c0,2.54,0.06,13.02,0.06,14.75c0,4.25,1.32,5.5,9.99,5.5c8.45,0,9.5-1,9.5-3.94" style="fill:none;stroke:#999;stroke-width:3"></path>

<path d="M996.0,37c2.15,0.26,3.82,0.21,6.02-0.09c4.39-0.59,9.43-1.49,15.62-2.35c1.14-0.16,2.31-0.32,3.53-0.47" style="fill:none;stroke:#999;stroke-width:3"></path>
<path d="M1010.77,13.83c1.2,1.2,1.51,3.04,1.51,5.52c0,14.56-0.01,62.44-0.01,67.4c0,14.25-6.32,3.53-7.77,2" style="fill:none;stroke:#999;stroke-width:3"></path>
<path d="M994.0,66.27c1.62,1.23,3.82,0.9,5.59-0.35c7.66-5.42,11.66-8.17,19.66-14.17" style="fill:none;stroke:#999;stroke-width:3"></path>
<path d="M1025.26,19.03c1.35,0.73,3.07,0.25,4.5,0.06c3.15-0.42,9.06-1.45,11.76-1.8c2.17-0.28,3.17,0.01,2.63,2.49c-0.37,1.71-1.33,5.33-1.83,7.74" style="fill:none;stroke:#999;stroke-width:3"></path>
<path d="M1028.33,29.89c1.36-0.12,6.36-0.87,11.31-1.4c1.52-0.16,2.97-0.3,4.19-0.4" style="fill:none;stroke:#999;stroke-width:3"></path>
<path d="M1026.31,19.91c0.76,0.76,0.88,1.34,0.88,2.73c0,1.99-0.06,11.31-0.06,12.73c0,5,0.88,6.11,9.31,6.11c8.82,0,9.86-0.73,9.86-3.87" style="fill:none;stroke:#999;stroke-width:3"></path>
<path d="M1052.3400000000001,16.47c1.39,0.75,3.19,0.23,4.66,0.05c3.15-0.39,9.01-1.46,11.89-1.87c2.77-0.39,3.4,0.27,2.82,2.99c-0.46,2.17-1.49,6.23-1.97,8.51" style="fill:none;stroke:#999;stroke-width:3"></path>
<path d="M1055.75,28.52c1.29-0.09,6.04-0.72,10.64-1.21c1.75-0.19,3.45-0.35,4.86-0.47" style="fill:none;stroke:#999;stroke-width:3"></path>
<path d="M1053.5900000000001,17.23c0.71,0.71,0.91,1.64,0.91,3.27c0,2.54,0.06,13.02,0.06,14.75c0,4.25,1.32,5.5,9.99,5.5c8.45,0,9.5-1,9.5-3.94" style="fill:none;stroke:#999;stroke-width:3"></path>
<path d="M1027.23,58.59c2.36,0.55,4.92,0.38,7.28,0.07c9-1.16,21.87-2.16,31.25-2.72c2.21-0.13,4.45,0.04,6.65,0.35" style="fill:none;stroke:#999;stroke-width:3"></path>

<path d="M1105.0,37c2.15,0.26,3.82,0.21,6.02-0.09c4.39-0.59,9.43-1.49,15.62-2.35c1.14-0.16,2.31-0.32,3.53-0.47" style="fill:none;stroke:#999;stroke-width:3"></path>
<path d="M1119.77,13.83c1.2,1.2,1.51,3.04,1.51,5.52c0,14.56-0.01,62.44-0.01,67.4c0,14.25-6.32,3.53-7.77,2" style="fill:none;stroke:#999;stroke-width:3"></path>
<path d="M1103.0,66.27c1.62,1.23,3.82,0.9,5.59-0.35c7.66-5.42,11.66-8.17,19.66-14.17" style="fill:none;stroke:#999;stroke-width:3"></path>
<path d="M1134.26,19.03c1.35,0.73,3.07,0.25,4.5,0.06c3.15-0.42,9.06-1.45,11.76-1.8c2.17-0.28,3.17,0.01,2.63,2.49c-0.37,1.71-1.33,5.33-1.83,7.74" style="fill:none;stroke:#999;stroke-width:3"></path>
<path d="M1137.33,29.89c1.36-0.12,6.36-0.87,11.31-1.4c1.52-0.16,2.97-0.3,4.19-0.4" style="fill:none;stroke:#999;stroke-width:3"></path>
<path d="M1135.31,19.91c0.76,0.76,0.88,1.34,0.88,2.73c0,1.99-0.06,11.31-0.06,12.73c0,5,0.88,6.11,9.31,6.11c8.82,0,9.86-0.73,9.86-3.87" style="fill:none;stroke:#999;stroke-width:3"></path>
<path d="M1161.3400000000001,16.47c1.39,0.75,3.19,0.23,4.66,0.05c3.15-0.39,9.01-1.46,11.89-1.87c2.77-0.39,3.4,0.27,2.82,2.99c-0.46,2.17-1.49,6.23-1.97,8.51" style="fill:none;stroke:#999;stroke-width:3"></path>
<path d="M1164.75,28.52c1.29-0.09,6.04-0.72,10.64-1.21c1.75-0.19,3.45-0.35,4.86-0.47" style="fill:none;stroke:#999;stroke-width:3"></path>
<path d="M1162.5900000000001,17.23c0.71,0.71,0.91,1.64,0.91,3.27c0,2.54,0.06,13.02,0.06,14.75c0,4.25,1.32,5.5,9.99,5.5c8.45,0,9.5-1,9.5-3.94" style="fill:none;stroke:#999;stroke-width:3"></path>
<path d="M1136.23,58.59c2.36,0.55,4.92,0.38,7.28,0.07c9-1.16,21.87-2.16,31.25-2.72c2.21-0.13,4.45,0.04,6.65,0.35" style="fill:none;stroke:#999;stroke-width:3"></path>
<path d="M1146.53,48.12c1.05,1.05,1.34,2.13,1.45,3.71c0.37,5.24,0.62,14.06,0.93,20.04" style="fill:none;stroke:#999;stroke-width:3"></path>

<path d="M1214.0,37c2.15,0.26,3.82,0.21,6.02-0.09c4.39-0.59,9.43-1.49,15.62-2.35c1.14-0.16,2.31-0.32,3.53-0.47" style="fill:none;stroke:#999;stroke-width:3"></path>
<path d="M1228.77,13.83c1.2,1.2,1.51,3.04,1.51,5.52c0,14.56-0.01,62.44-0.01,67.4c0,14.25-6.32,3.53-7.77,2" style="fill:none;stroke:#999;stroke-width:3"></path>
<path d="M1212.0,66.27c1.62,1.23,3.82,0.9,5.59-0.35c7.66-5.42,11.66-8.17,19.66-14.17" style="fill:none;stroke:#999;stroke-width:3"></path>
<path d="M1243.26,19.03c1.35,0.73,3.07,0.25,4.5,0.06c3.15-0.42,9.06-1.45,11.76-1.8c2.17-0.28,3.17,0.01,2.63,2.49c-0.37,1.71-1.33,5.33-1.83,7.74" style="fill:none;stroke:#999;stroke-width:3"></path>
<path d="M1246.33,29.89c1.36-0.12,6.36-0.87,11.31-1.4c1.52-0.16,2.97-0.3,4.19-0.4" style="fill:none;stroke:#999;stroke-width:3"></path>
<path d="M1244.31,19.91c0.76,0.76,0.88,1.34,0.88,2.73c0,1.99-0.06,11.31-0.06,12.73c0,5,0.88,6.11,9.31,6.11c8.82,0,9.86-0.73,9.86-3.87" style="fill:none;stroke:#999;stroke-width:3"></path>
<path d="M1270.3400000000001,16.47c1.39,0.75,3.19,0.23,4.66,0.05c3.15-0.39,9.01-1.46,11.89-1.87c2.77-0.39,3.4,0.27,2.82,2.99c-0.46,2.17-1.49,6.23-1.97,8.51" style="fill:none;stroke:#999;stroke-width:3"></path>
<path d="M1273.75,28.52c1.29-0.09,6.04-0.72,10.64-1.21c1.75-0.19,3.45-0.35,4.86-0.47" style="fill:none;stroke:#999;stroke-width:3"></path>
<path d="M1271.5900000000001,17.23c0.71,0.71,0.91,1.64,0.91,3.27c0,2.54,0.06,13.02,0.06,14.75c0,4.25,1.32,5.5,9.99,5.5c8.45,0,9.5-1,9.5-3.94" style="fill:none;stroke:#999;stroke-width:3"></path>
<path d="M1245.23,58.59c2.36,0.55,4.92,0.38,7.28,0.07c9-1.16,21.87-2.16,31.25-2.72c2.21-0.13,4.45,0.04,6.65,0.35" style="fill:none;stroke:#999;stroke-width:3"></path>
<path d="M1255.53,48.12c1.05,1.05,1.34,2.13,1.45,3.71c0.37,5.24,0.62,14.06,0.93,20.04" style="fill:none;stroke:#999;stroke-width:3"></path>
<path d="M1275.93,46.31c0.95,0.95,1.16,2.19,1.02,3.74c-0.82,9.2-1.25,14.82-1.83,20.15" style="fill:none;stroke:#999;stroke-width:3"></path>

<path d="M1323.0,37c2.15,0.26,3.82,0.21,6.02-0.09c4.39-0.59,9.43-1.49,15.62-2.35c1.14-0.16,2.31-0.32,3.53-0.47" style="fill:none;stroke:#999;stroke-width:3"></path>
<path d="M1337.77,13.83c1.2,1.2,1.51,3.04,1.51,5.52c0,14.56-0.01,62.44-0.01,67.4c0,14.25-6.32,3.53-7.77,2" style="fill:none;stroke:#999;stroke-width:3"></path>
<path d="M1321.0,66.27c1.62,1.23,3.82,0.9,5.59-0.35c7.66-5.42,11.66-8.17,19.66-14.17" style="fill:none;stroke:#999;stroke-width:3"></path>
<path d="M1352.26,19.03c1.35,0.73,3.07,0.25,4.5,0.06c3.15-0.42,9.06-1.45,11.76-1.8c2.17-0.28,3.17,0.01,2.63,2.49c-0.37,1.71-1.33,5.33-1.83,7.74" style="fill:none;stroke:#999;stroke-width:3"></path>
<path d="M1355.33,29.89c1.36-0.12,6.36-0.87,11.31-1.4c1.52-0.16,2.97-0.3,4.19-0.4" style="fill:none;stroke:#999;stroke-width:3"></path>
<path d="M1353.31,19.91c0.76,0.76,0.88,1.34,0.88,2.73c0,1.99-0.06,11.31-0.06,12.73c0,5,0.88,6.11,9.31,6.11c8.82,0,9.86-0.73,9.86-3.87" style="fill:none;stroke:#999;stroke-width:3"></path>
<path d="M1379.3400000000001,16.47c1.39,0.75,3.19,0.23,4.66,0.05c3.15-0.39,9.01-1.46,11.89-1.87c2.77-0.39,3.4,0.27,2.82,2.99c-0.46,2.17-1.49,6.23-1.97,8.51" style="fill:none;stroke:#999;stroke-width:3"></path>
<path d="M1382.75,28.52c1.29-0.09,6.04-0.72,10.64-1.21c1.75-0.19,3.45-0.35,4.86-0.47" style="fill:none;stroke:#999;stroke-width:3"></path>
<path d="M1380.5900000000001,17.23c0.71,0.71,0.91,1.64,0.91,3.27c0,2.54,0.06,13.02,0.06,14.75c0,4.25,1.32,5.5,9.99,5.5c8.45,0,9.5-1,9.5-3.94" style="fill:none;stroke:#999;stroke-width:3"></path>
<path d="M1354.23,58.59c2.36,0.55,4.92,0.38,7.28,0.07c9-1.16,21.87-2.16,31.25-2.72c2.21-0.13,4.45,0.04,6.65,0.35" style="fill:none;stroke:#999;stroke-width:3"></path>
<path d="M1364.53,48.12c1.05,1.05,1.34,2.13,1.45,3.71c0.37,5.24,0.62,14.06,0.93,20.04" style="fill:none;stroke:#999;stroke-width:3"></path>
<path d="M1384.93,46.31c0.95,0.95,1.16,2.19,1.02,3.74c-0.82,9.2-1.25,14.82-1.83,20.15" style="fill:none;stroke:#999;stroke-width:3"></path>
<path d="M1349.75,73.51c3.15,0.83,6.2,0.47,9.39,0.19c9.11-0.8,24.97-2.33,36.49-2.94c3.33-0.18,6.33,0.05,9.62,0.58" style="fill:none;stroke:#999;stroke-width:3"></path>

<path d="M1432.0,37c2.15,0.26,3.82,0.21,6.02-0.09c4.39-0.59,9.43-1.49,15.62-2.35c1.14-0.16,2.31-0.32,3.53-0.47" style="fill:none;stroke:#999;stroke-width:3"></path>
<path d="M1446.77,13.83c1.2,1.2,1.51,3.04,1.51,5.52c0,14.56-0.01,62.44-0.01,67.4c0,14.25-6.32,3.53-7.77,2" style="fill:none;stroke:#999;stroke-width:3"></path>
<path d="M1430.0,66.27c1.62,1.23,3.82,0.9,5.59-0.35c7.66-5.42,11.66-8.17,19.66-14.17" style="fill:none;stroke:#999;stroke-width:3"></path>
<path d="M1461.26,19.03c1.35,0.73,3.07,0.25,4.5,0.06c3.15-0.42,9.06-1.45,11.76-1.8c2.17-0.28,3.17,0.01,2.63,2.49c-0.37,1.71-1.33,5.33-1.83,7.74" style="fill:none;stroke:#999;stroke-width:3"></path>
<path d="M1464.33,29.89c1.36-0.12,6.36-0.87,11.31-1.4c1.52-0.16,2.97-0.3,4.19-0.4" style="fill:none;stroke:#999;stroke-width:3"></path>
<path d="M1462.31,19.91c0.76,0.76,0.88,1.34,0.88,2.73c0,1.99-0.06,11.31-0.06,12.73c0,5,0.88,6.11,9.31,6.11c8.82,0,9.86-0.73,9.86-3.87" style="fill:none;stroke:#999;stroke-width:3"></path>
<path d="M1488.3400000000001,16.47c1.39,0.75,3.19,0.23,4.66,0.05c3.15-0.39,9.01-1.46,11.89-1.87c2.77-0.39,3.4,0.27,2.82,2.99c-0.46,2.17-1.49,6.23-1.97,8.51" style="fill:none;stroke:#999;stroke-width:3"></path>
<path d="M1491.75,28.52c1.29-0.09,6.04-0.72,10.64-1.21c1.75-0.19,3.45-0.35,4.86-0.47" style="fill:none;stroke:#999;stroke-width:3"></path>
<path d="M1489.5900000000001,17.23c0.71,0.71,0.91,1.64,0.91,3.27c0,2.54,0.06,13.02,0.06,14.75c0,4.25,1.32,5.5,9.99,5.5c8.45,0,9.5-1,9.5-3.94" style="fill:none;stroke:#999;stroke-width:3"></path>
<path d="M1463.23,58.59c2.36,0.55,4.92,0.38,7.28,0.07c9-1.16,21.87-2.16,31.25-2.72c2.21-0.13,4.45,0.04,6.65,0.35" style="fill:none;stroke:#999;stroke-width:3"></path>
<path d="M1473.53,48.12c1.05,1.05,1.34,2.13,1.45,3.71c0.37,5.24,0.62,14.06,0.93,20.04" style="fill:none;stroke:#999;stroke-width:3"></path>
<path d="M1493.93,46.31c0.95,0.95,1.16,2.19,1.02,3.74c-0.82,9.2-1.25,14.82-1.83,20.15" style="fill:none;stroke:#999;stroke-width:3"></path>
<path d="M1458.75,73.51c3.15,0.83,6.2,0.47,9.39,0.19c9.11-0.8,24.97-2.33,36.49-2.94c3.33-0.18,6.33,0.05,9.62,0.58" style="fill:none;stroke:#999;stroke-width:3"></path>
<path d="M1476.02,80.06c0.14,1.16-0.21,2.15-1.02,3.03c-3.25,3.53-8.12,7.28-15.22,12.17" style="fill:none;stroke:#999;stroke-width:3"></path>

<path d="M1541.0,37c2.15,0.26,3.82,0.21,6.02-0.09c4.39-0.59,9.43-1.49,15.62-2.35c1.14-0.16,2.31-0.32,3.53-0.47" style="fill:none;stroke:#999;stroke-width:3"></path>
<path d="M1555.77,13.83c1.2,1.2,1.51,3.04,1.51,5.52c0,14.56-0.01,62.44-0.01,67.4c0,14.25-6.32,3.53-7.77,2" style="fill:none;stroke:#999;stroke-width:3"></path>
<path d="M1539.0,66.27c1.62,1.23,3.82,0.9,5.59-0.35c7.66-5.42,11.66-8.17,19.66-14.17" style="fill:none;stroke:#999;stroke-width:3"></path>
<path d="M1570.26,19.03c1.35,0.73,3.07,0.25,4.5,0.06c3.15-0.42,9.06-1.45,11.76-1.8c2.17-0.28,3.17,0.01,2.63,2.49c-0.37,1.71-1.33,5.33-1.83,7.74" style="fill:none;stroke:#999;stroke-width:3"></path>
<path d="M1573.33,29.89c1.36-0.12,6.36-0.87,11.31-1.4c1.52-0.16,2.97-0.3,4.19-0.4" style="fill:none;stroke:#999;stroke-width:3"></path>
<path d="M1571.31,19.91c0.76,0.76,0.88,1.34,0.88,2.73c0,1.99-0.06,11.31-0.06,12.73c0,5,0.88,6.11,9.31,6.11c8.82,0,9.86-0.73,9.86-3.87" style="fill:none;stroke:#999;stroke-width:3"></path>
<path d="M1597.3400000000001,16.47c1.39,0.75,3.19,0.23,4.66,0.05c3.15-0.39,9.01-1.46,11.89-1.87c2.77-0.39,3.4,0.27,2.82,2.99c-0.46,2.17-1.49,6.23-1.97,8.51" style="fill:none;stroke:#999;stroke-width:3"></path>
<path d="M1600.75,28.52c1.29-0.09,6.04-0.72,10.64-1.21c1.75-0.19,3.45-0.35,4.86-0.47" style="fill:none;stroke:#999;stroke-width:3"></path>
<path d="M1598.5900000000001,17.23c0.71,0.71,0.91,1.64,0.91,3.27c0,2.54,0.06,13.02,0.06,14.75c0,4.25,1.32,5.5,9.99,5.5c8.45,0,9.5-1,9.5-3.94" style="fill:none;stroke:#999;stroke-width:3"></path>
<path d="M1572.23,58.59c2.36,0.55,4.92,0.38,7.28,0.07c9-1.16,21.87-2.16,31.25-2.72c2.21-0.13,4.45,0.04,6.65,0.35" style="fill:none;stroke:#999;stroke-width:3"></path>
<path d="M1582.53,48.12c1.05,1.05,1.34,2.13,1.45,3.71c0.37,5.24,0.62,14.06,0.93,20.04" style="fill:none;stroke:#999;stroke-width:3"></path>
<path d="M1602.93,46.31c0.95,0.95,1.16,2.19,1.02,3.74c-0.82,9.2-1.25,14.82-1.83,20.15" style="fill:none;stroke:#999;stroke-width:3"></path>
<path d="M1567.75,73.51c3.15,0.83,6.2,0.47,9.39,0.19c9.11-0.8,24.97-2.33,36.49-2.94c3.33-0.18,6.33,0.05,9.62,0.58" style="fill:none;stroke:#999;stroke-width:3"></path>
<path d="M1585.02,80.06c0.14,1.16-0.21,2.15-1.02,3.03c-3.25,3.53-8.12,7.28-15.22,12.17" style="fill:none;stroke:#999;stroke-width:3"></path>
<path d="M1602.92,79.29c5.41,2.69,13.98,11.09,15.33,15.28" style="fill:none;stroke:#999;stroke-width:3"></path>

</svg>