<svg width="981px" height="109px" viewBox="0 0 981 109" xmlns="http://www.w3.org/2000/svg" xmlns:xlink="http://www.w3.org/1999/xlink" xml:space="preserve" version="1.1" baseProfile="full">
<line x1="1" y1="1" x2="980" y2="1" style="stroke:#ddd;stroke-width:2"></line>
<line x1="1" y1="1" x2="1" y2="108" style="stroke:#ddd;stroke-width:2"></line>
<line x1="1" y1="108" x2="980" y2="108" style="stroke:#ddd;stroke-width:2"></line>
<line x1="980" y1="1" x2="980" y2="108" style="stroke:#ddd;stroke-width:2"></line>
<line x1="109" y1="1" x2="109" y2="108" style="stroke:#ddd;stroke-width:2"></line>
<line x1="218" y1="1" x2="218" y2="108" style="stroke:#ddd;stroke-width:2"></line>
<line x1="327" y1="1" x2="327" y2="108" style="stroke:#ddd;stroke-width:2"></line>
<line x1="436" y1="1" x2="436" y2="108" style="stroke:#ddd;stroke-width:2"></line>
<line x1="545" y1="1" x2="545" y2="108" style="stroke:#ddd;stroke-width:2"></line>
<line x1="654" y1="1" x2="654" y2="108" style="stroke:#ddd;stroke-width:2"></line>
<line x1="763" y1="1" x2="763" y2="108" style="stroke:#ddd;stroke-width:2"></line>
<line x1="872" y1="1" x2="872" y2="108" style="stroke:#ddd;stroke-width:2"></line>
<line x1="1" y1="54" x2="980" y2="54" style="stroke:#ddd;stroke-width:2;stroke-dasharray:3 3"></line>
<line x1="55" y1="1" x2="55" y2="108" style="stroke:#ddd;stroke-width:2;stroke-dasharray:3 3"></line>
<line x1="164" y1="1" x2="164" y2="108" style="stroke:#ddd;stroke-width:2;stroke-dasharray:3 3"></line>
<line x1="273" y1="1" x2="273" y2="108" style="stroke:#ddd;stroke-width:2;stroke-dasharray:3 3"></line>
<line x1="382" y1="1" x2="382" y2="108" style="stroke:#ddd;stroke-width:2;stroke-dasharray:3 3"></line>
<line x1="491" y1="1" x2="491" y2="108" style="stroke:#ddd;stroke-width:2;stroke-dasharray:3 3"></line>
<line x1="600" y1="1" x2="600" y2="108" style="stroke:#ddd;stroke-width:2;stroke-dasharray:3 3"></line>
<line x1="709" y1="1" x2="709" y2="108" style="stroke:#ddd;stroke-width:2;stroke-dasharray:3 3"></line>
<line x1="818" y1="1" x2="818" y2="108" style="stroke:#ddd;stroke-width:2;stroke-dasharray:3 3"></line>
<line x1="927" y1="1" x2="927" y2="108" style="stroke:#ddd;stroke-width:2;stroke-dasharray:3 3"></line>
<path d="M16.63,25.09c1.39,0.51,3.3,0.28,4.75,0.22c6.5-0.26,16-2.03,22.52-3.02c1.55-0.23,2.71-0.36,4.23-0.03" style="fill:none;stroke:#999;stroke-width:3"></path>

<path d="M125.63,25.09c1.39,0.51,3.3,0.28,4.75,0.22c6.5-0.26,16-2.03,22.52-3.02c1.55-0.23,2.71-0.36,4.23-0.03" style="fill:none;stroke:#999;stroke-width:3"></path>
<path d="M140.46,27.37c1.09,1.09,1.76,2.88,1.76,4.79c0,14.62-0.01,41.37-0.01,46.34" style="fill:none;stroke:#999;stroke-width:3"></path>

<path d="M234.63,25.09c1.39,0.51,3.3,0.28,4.75,0.22c6.5-0.26,16-2.03,22.52-3.02c1.55-0.23,2.71-0.36,4.23-0.03" style="fill:none;stroke:#999;stroke-width:3"></path>
<path d="M249.46,27.37c1.09,1.09,1.76,2.88,1.76,4.79c0,14.62-0.01,41.37-0.01,46.34" style="fill:none;stroke:#999;stroke-width:3"></path>
<path d="M252.28,48.98c2.47-0.48,6.97-1.23,11.35-1.84c0.71-0.1,1.65,0.08,2,0.16" style="fill:none;stroke:#999;stroke-width:3"></path>

<path d="M343.63,25.09c1.39,0.51,3.3,0.28,4.75,0.22c6.5-0.26,16-2.03,22.52-3.02c1.55-0.23,2.71-0.36,4.23-0.03" style="fill:none;stroke:#999;stroke-width:3"></path>
<path d="M358.46000000000004,27.37c1.09,1.09,1.76,2.88,1.76,4.79c0,14.62-0.01,41.37-0.01,46.34" style="fill:none;stroke:#999;stroke-width:3"></path>
<path d="M361.28,48.98c2.47-0.48,6.97-1.23,11.35-1.84c0.71-0.1,1.65,0.08,2,0.16" style="fill:none;stroke:#999;stroke-width:3"></path>
<path d="M343.04,52.62c0.99,0.99,1.56,2.66,1.72,4.62c0.82,9.83,1.29,16.55,2.24,26.26" style="fill:none;stroke:#999;stroke-width:3"></path>

<path d="M452.63,25.09c1.39,0.51,3.3,0.28,4.75,0.22c6.5-0.26,16-2.03,22.52-3.02c1.55-0.23,2.71-0.36,4.23-0.03" style="fill:none;stroke:#999;stroke-width:3"></path>
<path d="M467.46000000000004,27.37c1.09,1.09,1.76,2.88,1.76,4.79c0,14.62-0.01,41.37-0.01,46.34" style="fill:none;stroke:#999;stroke-width:3"></path>
<path d="M470.28,48.98c2.47-0.48,6.97-1.23,11.35-1.84c0.71-0.1,1.65,0.08,2,0.16" style="fill:none;stroke:#999;stroke-width:3"></path>
<path d="M452.04,52.62c0.99,0.99,1.56,2.66,1.72,4.62c0.82,9.83,1.29,16.55,2.24,26.26" style="fill:none;stroke:#999;stroke-width:3"></path>
<path d="M447.46,86.32c0.96,0.86,2.67,0.7,3.57,0.33c7.79-3.25,15.42-5.9,32.22-12.71" style="fill:none;stroke:#999;stroke-width:3"></path>

<path d="M561.63,25.09c1.39,0.51,3.3,0.28,4.75,0.22c6.5-0.26,16-2.03,22.52-3.02c1.55-0.23,2.71-0.36,4.23-0.03" style="fill:none;stroke:#999;stroke-width:3"></path>
<path d="M576.46,27.37c1.09,1.09,1.76,2.88,1.76,4.79c0,14.62-0.01,41.37-0.01,46.34" style="fill:none;stroke:#999;stroke-width:3"></path>
<path d="M579.28,48.98c2.47-0.48,6.97-1.23,11.35-1.84c0.71-0.1,1.65,0.08,2,0.16" style="fill:none;stroke:#999;stroke-width:3"></path>
<path d="M561.04,52.62c0.99,0.99,1.56,2.66,1.72,4.62c0.82,9.83,1.29,16.55,2.24,26.26" style="fill:none;stroke:#999;stroke-width:3"></path>
<path d="M556.46,86.32c0.96,0.86,2.67,0.7,3.57,0.33c7.79-3.25,15.42-5.9,32.22-12.71" style="fill:none;stroke:#999;stroke-width:3"></path>
<path d="M609.62,16c0.03,0.75,0.22,1.99-0.07,3.03c-1.83,6.65-5.71,20.02-12.05,29.22" style="fill:none;stroke:#999;stroke-width:3"></path>

<path d="M670.63,25.09c1.39,0.51,3.3,0.28,4.75,0.22c6.5-0.26,16-2.03,22.52-3.02c1.55-0.23,2.71-0.36,4.23-0.03" style="fill:none;stroke:#999;stroke-width:3"></path>
<path d="M685.46,27.37c1.09,1.09,1.76,2.88,1.76,4.79c0,14.62-0.01,41.37-0.01,46.34" style="fill:none;stroke:#999;stroke-width:3"></path>
<path d="M688.28,48.98c2.47-0.48,6.97-1.23,11.35-1.84c0.71-0.1,1.65,0.08,2,0.16" style="fill:none;stroke:#999;stroke-width:3"></path>
<path d="M670.04,52.62c0.99,0.99,1.56,2.66,1.72,4.62c0.82,9.83,1.29,16.55,2.24,26.26" style="fill:none;stroke:#999;stroke-width:3"></path>
<path d="M665.46,86.32c0.96,0.86,2.67,0.7,3.57,0.33c7.79-3.25,15.42-5.9,32.22-12.71" style="fill:none;stroke:#999;stroke-width:3"></path>
<path d="M718.62,16c0.03,0.75,0.22,1.99-0.07,3.03c-1.83,6.65-5.71,20.02-12.05,29.22" style="fill:none;stroke:#999;stroke-width:3"></path>
<path d="M715.84,38.03c1.48-0.06,2.97-0.04,4.43-0.28c6.86-1.12,14.61-2.5,22.5-4c1.45-0.28,3.58-0.3,5.03,0.11" style="fill:none;stroke:#999;stroke-width:3"></path>

<path d="M779.63,25.09c1.39,0.51,3.3,0.28,4.75,0.22c6.5-0.26,16-2.03,22.52-3.02c1.55-0.23,2.71-0.36,4.23-0.03" style="fill:none;stroke:#999;stroke-width:3"></path>
<path d="M794.46,27.37c1.09,1.09,1.76,2.88,1.76,4.79c0,14.62-0.01,41.37-0.01,46.34" style="fill:none;stroke:#999;stroke-width:3"></path>
<path d="M797.28,48.98c2.47-0.48,6.97-1.23,11.35-1.84c0.71-0.1,1.65,0.08,2,0.16" style="fill:none;stroke:#999;stroke-width:3"></path>
<path d="M779.04,52.62c0.99,0.99,1.56,2.66,1.72,4.62c0.82,9.83,1.29,16.55,2.24,26.26" style="fill:none;stroke:#999;stroke-width:3"></path>
<path d="M774.46,86.32c0.96,0.86,2.67,0.7,3.57,0.33c7.79-3.25,15.42-5.9,32.22-12.71" style="fill:none;stroke:#999;stroke-width:3"></path>
<path d="M827.62,16c0.03,0.75,0.22,1.99-0.07,3.03c-1.83,6.65-5.71,20.02-12.05,29.22" style="fill:none;stroke:#999;stroke-width:3"></path>
<path d="M824.84,38.03c1.48-0.06,2.97-0.04,4.43-0.28c6.86-1.12,14.61-2.5,22.5-4c1.45-0.28,3.58-0.3,5.03,0.11" style="fill:none;stroke:#999;stroke-width:3"></path>
<path d="M841.6,41.25c0.53,1.28,0.57,2.69,0.01,5.03C836.5699999999999,67.53,826.25,84.5,808.51,93.4" style="fill:none;stroke:#999;stroke-width:3"></path>

<path d="M888.63,25.09c1.39,0.51,3.3,0.28,4.75,0.22c6.5-0.26,16-2.03,22.52-3.02c1.55-0.23,2.71-0.36,4.23-0.03" style="fill:none;stroke:#999;stroke-width:3"></path>
<path d="M903.46,27.37c1.09,1.09,1.76,2.88,1.76,4.79c0,14.62-0.01,41.37-0.01,46.34" style="fill:none;stroke:#999;stroke-width:3"></path>
<path d="M906.28,48.98c2.47-0.48,6.97-1.23,11.35-1.84c0.71-0.1,1.65,0.08,2,0.16" style="fill:none;stroke:#999;stroke-width:3"></path>
<path d="M888.04,52.62c0.99,0.99,1.56,2.66,1.72,4.62c0.82,9.83,1.29,16.55,2.24,26.26" style="fill:none;stroke:#999;stroke-width:3"></path>
<path d="M883.46,86.32c0.96,0.86,2.67,0.7,3.57,0.33c7.79-3.25,15.42-5.9,32.22-12.71" style="fill:none;stroke:#999;stroke-width:3"></path>
<path d="M936.62,16c0.03,0.75,0.22,1.99-0.07,3.03c-1.83,6.65-5.71,20.02-12.05,29.22" style="fill:none;stroke:#999;stroke-width:3"></path>
<path d="M933.84,38.03c1.48-0.06,2.97-0.04,4.43-0.28c6.86-1.12,14.61-2.5,22.5-4c1.45-0.28,3.58-0.3,5.03,0.11" style="fill:none;stroke:#999;stroke-width:3"></path>
<path d="M950.6,41.25c0.53,1.28,0.57,2.69,0.01,5.03C945.5699999999999,67.53,935.25,84.5,917.51,93.4" style="fill:none;stroke:#999;stroke-width:3"></path>
<path d="M926.19,53.43c6.74,6.44,22.26,25.82,33.21,35.07c1.86,1.57,3.34,2.76,5.84,4.3" style="fill:none;stroke:#999;stroke-width:3"></path>

</svg>