<svg width="981px" height="109px" viewBox="0 0 981 109" xmlns="http://www.w3.org/2000/svg" xmlns:xlink="http://www.w3.org/1999/xlink" xml:space="preserve" version="1.1" baseProfile="full">
<line x1="1" y1="1" x2="980" y2="1" style="stroke:#ddd;stroke-width:2"></line>
<line x1="1" y1="1" x2="1" y2="108" style="stroke:#ddd;stroke-width:2"></line>
<line x1="1" y1="108" x2="980" y2="108" style="stroke:#ddd;stroke-width:2"></line>
<line x1="980" y1="1" x2="980" y2="108" style="stroke:#ddd;stroke-width:2"></line>
<line x1="109" y1="1" x2="109" y2="108" style="stroke:#ddd;stroke-width:2"></line>
<line x1="218" y1="1" x2="218" y2="108" style="stroke:#ddd;stroke-width:2"></line>
<line x1="327" y1="1" x2="327" y2="108" style="stroke:#ddd;stroke-width:2"></line>
<line x1="436" y1="1" x2="436" y2="108" style="stroke:#ddd;stroke-width:2"></line>
<line x1="545" y1="1" x2="545" y2="108" style="stroke:#ddd;stroke-width:2"></line>
<line x1="654" y1="1" x2="654" y2="108" style="stroke:#ddd;stroke-width:2"></line>
<line x1="763" y1="1" x2="763" y2="108" style="stroke:#ddd;stroke-width:2"></line>
<line x1="872" y1="1" x2="872" y2="108" style="stroke:#ddd;stroke-width:2"></line>
<line x1="1" y1="54" x2="980" y2="54" style="stroke:#ddd;stroke-width:2;stroke-dasharray:3 3"></line>
<line x1="55" y1="1" x2="55" y2="108" style="stroke:#ddd;stroke-width:2;stroke-dasharray:3 3"></line>
<line x1="164" y1="1" x2="164" y2="108" style="stroke:#ddd;stroke-width:2;stroke-dasharray:3 3"></line>
<line x1="273" y1="1" x2="273" y2="108" style="stroke:#ddd;stroke-width:2;stroke-dasharray:3 3"></line>
<line x1="382" y1="1" x2="382" y2="108" style="stroke:#ddd;stroke-width:2;stroke-dasharray:3 3"></line>
<line x1="491" y1="1" x2="491" y2="108" style="stroke:#ddd;stroke-width:2;stroke-dasharray:3 3"></line>
<line x1="600" y1="1" x2="600" y2="108" style="stroke:#ddd;stroke-width:2;stroke-dasharray:3 3"></line>
<line x1="709" y1="1" x2="709" y2="108" style="stroke:#ddd;stroke-width:2;stroke-dasharray:3 3"></line>
<line x1="818" y1="1" x2="818" y2="108" style="stroke:#ddd;stroke-width:2;stroke-dasharray:3 3"></line>
<line x1="927" y1="1" x2="927" y2="108" style="stroke:#ddd;stroke-width:2;stroke-dasharray:3 3"></line>
<path d="M14.02,31.44c0.96,0.96,1.36,2.31,1.36,3.72c0,0.85,0.03,26.76,0.04,37.59c0,2.78,0.01,4.56,0.01,4.68" style="fill:none;stroke:#999;stroke-width:3"></path>

<path d="M123.02,31.44c0.96,0.96,1.36,2.31,1.36,3.72c0,0.85,0.03,26.76,0.04,37.59c0,2.78,0.01,4.56,0.01,4.68" style="fill:none;stroke:#999;stroke-width:3"></path>
<path d="M125.38,32.82c1.34-0.1,11.98-2.09,17.26-2.89c2.86-0.43,4.52,1.07,4.52,3.58c0,5.86,0.02,24.4,0.02,35.99c0,1.98,0,3.77,0,5.25" style="fill:none;stroke:#999;stroke-width:3"></path>

<path d="M232.01999999999998,31.44c0.96,0.96,1.36,2.31,1.36,3.72c0,0.85,0.03,26.76,0.04,37.59c0,2.78,0.01,4.56,0.01,4.68" style="fill:none;stroke:#999;stroke-width:3"></path>
<path d="M234.38,32.82c1.34-0.1,11.98-2.09,17.26-2.89c2.86-0.43,4.52,1.07,4.52,3.58c0,5.86,0.02,24.4,0.02,35.99c0,1.98,0,3.77,0,5.25" style="fill:none;stroke:#999;stroke-width:3"></path>
<path d="M234.43,52.48c6.57-1.1,16.32-2.23,20.94-2.56" style="fill:none;stroke:#999;stroke-width:3"></path>

<path d="M341.02,31.44c0.96,0.96,1.36,2.31,1.36,3.72c0,0.85,0.03,26.76,0.04,37.59c0,2.78,0.01,4.56,0.01,4.68" style="fill:none;stroke:#999;stroke-width:3"></path>
<path d="M343.38,32.82c1.34-0.1,11.98-2.09,17.26-2.89c2.86-0.43,4.52,1.07,4.52,3.58c0,5.86,0.02,24.4,0.02,35.99c0,1.98,0,3.77,0,5.25" style="fill:none;stroke:#999;stroke-width:3"></path>
<path d="M343.43,52.48c6.57-1.1,16.32-2.23,20.94-2.56" style="fill:none;stroke:#999;stroke-width:3"></path>
<path d="M343.07,73.56c6.18-0.94,14.05-2.06,21.29-2.54" style="fill:none;stroke:#999;stroke-width:3"></path>

<path d="M450.02,31.44c0.96,0.96,1.36,2.31,1.36,3.72c0,0.85,0.03,26.76,0.04,37.59c0,2.78,0.01,4.56,0.01,4.68" style="fill:none;stroke:#999;stroke-width:3"></path>
<path d="M452.38,32.82c1.34-0.1,11.98-2.09,17.26-2.89c2.86-0.43,4.52,1.07,4.52,3.58c0,5.86,0.02,24.4,0.02,35.99c0,1.98,0,3.77,0,5.25" style="fill:none;stroke:#999;stroke-width:3"></path>
<path d="M452.43,52.48c6.57-1.1,16.32-2.23,20.94-2.56" style="fill:none;stroke:#999;stroke-width:3"></path>
<path d="M452.07,73.56c6.18-0.94,14.05-2.06,21.29-2.54" style="fill:none;stroke:#999;stroke-width:3"></path>
<path d="M496.5,12.75c0.25,1.12,0.25,2.16-0.09,3.31C494.0,24.25,488.34000000000003,38.62,479.81,48" style="fill:none;stroke:#999;stroke-width:3"></path>

<path d="M559.02,31.44c0.96,0.96,1.36,2.31,1.36,3.72c0,0.85,0.03,26.76,0.04,37.59c0,2.78,0.01,4.56,0.01,4.68" style="fill:none;stroke:#999;stroke-width:3"></path>
<path d="M561.38,32.82c1.34-0.1,11.98-2.09,17.26-2.89c2.86-0.43,4.52,1.07,4.52,3.58c0,5.86,0.02,24.4,0.02,35.99c0,1.98,0,3.77,0,5.25" style="fill:none;stroke:#999;stroke-width:3"></path>
<path d="M561.4300000000001,52.48c6.57-1.1,16.32-2.23,20.94-2.56" style="fill:none;stroke:#999;stroke-width:3"></path>
<path d="M561.0699999999999,73.56c6.18-0.94,14.05-2.06,21.29-2.54" style="fill:none;stroke:#999;stroke-width:3"></path>
<path d="M605.5,12.75c0.25,1.12,0.25,2.16-0.09,3.31C603.0,24.25,597.34,38.62,588.81,48" style="fill:none;stroke:#999;stroke-width:3"></path>
<path d="M600.36,33.67c1.39,0.2,2.64,0.18,3.48,0.12c10-0.69,22.52-3.61,30.91-4.76c1.92-0.26,4.02-0.7,5.96-0.4" style="fill:none;stroke:#999;stroke-width:3"></path>

<path d="M668.02,31.44c0.96,0.96,1.36,2.31,1.36,3.72c0,0.85,0.03,26.76,0.04,37.59c0,2.78,0.01,4.56,0.01,4.68" style="fill:none;stroke:#999;stroke-width:3"></path>
<path d="M670.38,32.82c1.34-0.1,11.98-2.09,17.26-2.89c2.86-0.43,4.52,1.07,4.52,3.58c0,5.86,0.02,24.4,0.02,35.99c0,1.98,0,3.77,0,5.25" style="fill:none;stroke:#999;stroke-width:3"></path>
<path d="M670.4300000000001,52.48c6.57-1.1,16.32-2.23,20.94-2.56" style="fill:none;stroke:#999;stroke-width:3"></path>
<path d="M670.0699999999999,73.56c6.18-0.94,14.05-2.06,21.29-2.54" style="fill:none;stroke:#999;stroke-width:3"></path>
<path d="M714.5,12.75c0.25,1.12,0.25,2.16-0.09,3.31C712.0,24.25,706.34,38.62,697.81,48" style="fill:none;stroke:#999;stroke-width:3"></path>
<path d="M709.36,33.67c1.39,0.2,2.64,0.18,3.48,0.12c10-0.69,22.52-3.61,30.91-4.76c1.92-0.26,4.02-0.7,5.96-0.4" style="fill:none;stroke:#999;stroke-width:3"></path>
<path d="M720.91,34.71c1,1,1.28,2.29,1.28,3.38c0,0.82-0.12,38.29-0.16,54.16c-0.01,2.96-0.01,5.17-0.01,6.25" style="fill:none;stroke:#999;stroke-width:3"></path>

<path d="M777.02,31.44c0.96,0.96,1.36,2.31,1.36,3.72c0,0.85,0.03,26.76,0.04,37.59c0,2.78,0.01,4.56,0.01,4.68" style="fill:none;stroke:#999;stroke-width:3"></path>
<path d="M779.38,32.82c1.34-0.1,11.98-2.09,17.26-2.89c2.86-0.43,4.52,1.07,4.52,3.58c0,5.86,0.02,24.4,0.02,35.99c0,1.98,0,3.77,0,5.25" style="fill:none;stroke:#999;stroke-width:3"></path>
<path d="M779.4300000000001,52.48c6.57-1.1,16.32-2.23,20.94-2.56" style="fill:none;stroke:#999;stroke-width:3"></path>
<path d="M779.0699999999999,73.56c6.18-0.94,14.05-2.06,21.29-2.54" style="fill:none;stroke:#999;stroke-width:3"></path>
<path d="M823.5,12.75c0.25,1.12,0.25,2.16-0.09,3.31C821.0,24.25,815.34,38.62,806.81,48" style="fill:none;stroke:#999;stroke-width:3"></path>
<path d="M818.36,33.67c1.39,0.2,2.64,0.18,3.48,0.12c10-0.69,22.52-3.61,30.91-4.76c1.92-0.26,4.02-0.7,5.96-0.4" style="fill:none;stroke:#999;stroke-width:3"></path>
<path d="M829.91,34.71c1,1,1.28,2.29,1.28,3.38c0,0.82-0.12,38.29-0.16,54.16c-0.01,2.96-0.01,5.17-0.01,6.25" style="fill:none;stroke:#999;stroke-width:3"></path>
<path d="M833.5699999999999,51.69c5.18-0.94,11.68-1.94,17.53-2.88c1.38-0.22,2.89-0.43,4.37-0.07" style="fill:none;stroke:#999;stroke-width:3"></path>

<path d="M886.02,31.44c0.96,0.96,1.36,2.31,1.36,3.72c0,0.85,0.03,26.76,0.04,37.59c0,2.78,0.01,4.56,0.01,4.68" style="fill:none;stroke:#999;stroke-width:3"></path>
<path d="M888.38,32.82c1.34-0.1,11.98-2.09,17.26-2.89c2.86-0.43,4.52,1.07,4.52,3.58c0,5.86,0.02,24.4,0.02,35.99c0,1.98,0,3.77,0,5.25" style="fill:none;stroke:#999;stroke-width:3"></path>
<path d="M888.4300000000001,52.48c6.57-1.1,16.32-2.23,20.94-2.56" style="fill:none;stroke:#999;stroke-width:3"></path>
<path d="M888.0699999999999,73.56c6.18-0.94,14.05-2.06,21.29-2.54" style="fill:none;stroke:#999;stroke-width:3"></path>
<path d="M932.5,12.75c0.25,1.12,0.25,2.16-0.09,3.31C930.0,24.25,924.34,38.62,915.81,48" style="fill:none;stroke:#999;stroke-width:3"></path>
<path d="M927.36,33.67c1.39,0.2,2.64,0.18,3.48,0.12c10-0.69,22.52-3.61,30.91-4.76c1.92-0.26,4.02-0.7,5.96-0.4" style="fill:none;stroke:#999;stroke-width:3"></path>
<path d="M938.91,34.71c1,1,1.28,2.29,1.28,3.38c0,0.82-0.12,38.29-0.16,54.16c-0.01,2.96-0.01,5.17-0.01,6.25" style="fill:none;stroke:#999;stroke-width:3"></path>
<path d="M942.5699999999999,51.69c5.18-0.94,11.68-1.94,17.53-2.88c1.38-0.22,2.89-0.43,4.37-0.07" style="fill:none;stroke:#999;stroke-width:3"></path>
<path d="M941.99,69.44c3.76-0.44,12.76-1.69,21.36-2.63c0.77-0.08,2.75-0.16,3.13-0.07" style="fill:none;stroke:#999;stroke-width:3"></path>

</svg>