<svg width="981px" height="109px" viewBox="0 0 981 109" xmlns="http://www.w3.org/2000/svg" xmlns:xlink="http://www.w3.org/1999/xlink" xml:space="preserve" version="1.1" baseProfile="full">
<line x1="1" y1="1" x2="980" y2="1" style="stroke:#ddd;stroke-width:2"></line>
<line x1="1" y1="1" x2="1" y2="108" style="stroke:#ddd;stroke-width:2"></line>
<line x1="1" y1="108" x2="980" y2="108" style="stroke:#ddd;stroke-width:2"></line>
<line x1="980" y1="1" x2="980" y2="108" style="stroke:#ddd;stroke-width:2"></line>
<line x1="109" y1="1" x2="109" y2="108" style="stroke:#ddd;stroke-width:2"></line>
<line x1="218" y1="1" x2="218" y2="108" style="stroke:#ddd;stroke-width:2"></line>
<line x1="327" y1="1" x2="327" y2="108" style="stroke:#ddd;stroke-width:2"></line>
<line x1="436" y1="1" x2="436" y2="108" style="stroke:#ddd;stroke-width:2"></line>
<line x1="545" y1="1" x2="545" y2="108" style="stroke:#ddd;stroke-width:2"></line>
<line x1="654" y1="1" x2="654" y2="108" style="stroke:#ddd;stroke-width:2"></line>
<line x1="763" y1="1" x2="763" y2="108" style="stroke:#ddd;stroke-width:2"></line>
<line x1="872" y1="1" x2="872" y2="108" style="stroke:#ddd;stroke-width:2"></line>
<line x1="1" y1="54" x2="980" y2="54" style="stroke:#ddd;stroke-width:2;stroke-dasharray:3 3"></line>
<line x1="55" y1="1" x2="55" y2="108" style="stroke:#ddd;stroke-width:2;stroke-dasharray:3 3"></line>
<line x1="164" y1="1" x2="164" y2="108" style="stroke:#ddd;stroke-width:2;stroke-dasharray:3 3"></line>
<line x1="273" y1="1" x2="273" y2="108" style="stroke:#ddd;stroke-width:2;stroke-dasharray:3 3"></line>
<line x1="382" y1="1" x2="382" y2="108" style="stroke:#ddd;stroke-width:2;stroke-dasharray:3 3"></line>
<line x1="491" y1="1" x2="491" y2="108" style="stroke:#ddd;stroke-width:2;stroke-dasharray:3 3"></line>
<line x1="600" y1="1" x2="600" y2="108" style="stroke:#ddd;stroke-width:2;stroke-dasharray:3 3"></line>
<line x1="709" y1="1" x2="709" y2="108" style="stroke:#ddd;stroke-width:2;stroke-dasharray:3 3"></line>
<line x1="818" y1="1" x2="818" y2="108" style="stroke:#ddd;stroke-width:2;stroke-dasharray:3 3"></line>
<line x1="927" y1="1" x2="927" y2="108" style="stroke:#ddd;stroke-width:2;stroke-dasharray:3 3"></line>
<path d="M29.88,12.88c1.06,1.06,1.5,2.36,1.69,3.51c0.9,5.74,1.63,11.14,2.41,16.64c0.25,1.8,0.51,3.6,0.78,5.44" style="fill:none;stroke:#999;stroke-width:3"></path>

<path d="M138.88,12.88c1.06,1.06,1.5,2.36,1.69,3.51c0.9,5.74,1.63,11.14,2.41,16.64c0.25,1.8,0.51,3.6,0.78,5.44" style="fill:none;stroke:#999;stroke-width:3"></path>
<path d="M141.22,14.75c12.19-1.06,29.26-2.46,39.65-3.11c3.62-0.23,5.78,0.2,5.12,4.11c-0.6,3.56-1.72,9.83-2.79,15.02c-0.32,1.56-0.63,3.02-0.93,4.28" style="fill:none;stroke:#999;stroke-width:3"></path>

<path d="M247.88,12.88c1.06,1.06,1.5,2.36,1.69,3.51c0.9,5.74,1.63,11.14,2.41,16.64c0.25,1.8,0.51,3.6,0.78,5.44" style="fill:none;stroke:#999;stroke-width:3"></path>
<path d="M250.22,14.75c12.19-1.06,29.26-2.46,39.65-3.11c3.62-0.23,5.78,0.2,5.12,4.11c-0.6,3.56-1.72,9.83-2.79,15.02c-0.32,1.56-0.63,3.02-0.93,4.28" style="fill:none;stroke:#999;stroke-width:3"></path>
<path d="M251.86,24.43C258.38,24,286.0,22.5,292.75,22.07" style="fill:none;stroke:#999;stroke-width:3"></path>

<path d="M356.88,12.88c1.06,1.06,1.5,2.36,1.69,3.51c0.9,5.74,1.63,11.14,2.41,16.64c0.25,1.8,0.51,3.6,0.78,5.44" style="fill:none;stroke:#999;stroke-width:3"></path>
<path d="M359.22,14.75c12.19-1.06,29.26-2.46,39.65-3.11c3.62-0.23,5.78,0.2,5.12,4.11c-0.6,3.56-1.72,9.83-2.79,15.02c-0.32,1.56-0.63,3.02-0.93,4.28" style="fill:none;stroke:#999;stroke-width:3"></path>
<path d="M360.86,24.43C367.38,24,395.0,22.5,401.75,22.07" style="fill:none;stroke:#999;stroke-width:3"></path>
<path d="M362.58,35.01c11.54-0.88,25.78-1.74,37.18-2.38" style="fill:none;stroke:#999;stroke-width:3"></path>

<path d="M465.88,12.88c1.06,1.06,1.5,2.36,1.69,3.51c0.9,5.74,1.63,11.14,2.41,16.64c0.25,1.8,0.51,3.6,0.78,5.44" style="fill:none;stroke:#999;stroke-width:3"></path>
<path d="M468.22,14.75c12.19-1.06,29.26-2.46,39.65-3.11c3.62-0.23,5.78,0.2,5.12,4.11c-0.6,3.56-1.72,9.83-2.79,15.02c-0.32,1.56-0.63,3.02-0.93,4.28" style="fill:none;stroke:#999;stroke-width:3"></path>
<path d="M469.86,24.43C476.38,24,504.0,22.5,510.75,22.07" style="fill:none;stroke:#999;stroke-width:3"></path>
<path d="M471.58,35.01c11.54-0.88,25.78-1.74,37.18-2.38" style="fill:none;stroke:#999;stroke-width:3"></path>
<path d="M478.71,41.5c-0.21,1.12-0.88,1.89-1.63,2.48c-3.63,2.85-7.33,5.39-14.96,7.89" style="fill:none;stroke:#999;stroke-width:3"></path>

<path d="M574.88,12.88c1.06,1.06,1.5,2.36,1.69,3.51c0.9,5.74,1.63,11.14,2.41,16.64c0.25,1.8,0.51,3.6,0.78,5.44" style="fill:none;stroke:#999;stroke-width:3"></path>
<path d="M577.22,14.75c12.19-1.06,29.26-2.46,39.65-3.11c3.62-0.23,5.78,0.2,5.12,4.11c-0.6,3.56-1.72,9.83-2.79,15.02c-0.32,1.56-0.63,3.02-0.93,4.28" style="fill:none;stroke:#999;stroke-width:3"></path>
<path d="M578.86,24.43C585.38,24,613.0,22.5,619.75,22.07" style="fill:none;stroke:#999;stroke-width:3"></path>
<path d="M580.5799999999999,35.01c11.54-0.88,25.78-1.74,37.18-2.38" style="fill:none;stroke:#999;stroke-width:3"></path>
<path d="M587.71,41.5c-0.21,1.12-0.88,1.89-1.63,2.48c-3.63,2.85-7.33,5.39-14.96,7.89" style="fill:none;stroke:#999;stroke-width:3"></path>
<path d="M566.37,49.47c0.89,0.89,1.22,2.15,1.22,3.54c0,4.48-0.09,18.77-0.09,23.73c0,1.43,0.57,3.02,2.5,1.88c3.38-2,12.12-7,20.02-11.11" style="fill:none;stroke:#999;stroke-width:3"></path>

<path d="M683.88,12.88c1.06,1.06,1.5,2.36,1.69,3.51c0.9,5.74,1.63,11.14,2.41,16.64c0.25,1.8,0.51,3.6,0.78,5.44" style="fill:none;stroke:#999;stroke-width:3"></path>
<path d="M686.22,14.75c12.19-1.06,29.26-2.46,39.65-3.11c3.62-0.23,5.78,0.2,5.12,4.11c-0.6,3.56-1.72,9.83-2.79,15.02c-0.32,1.56-0.63,3.02-0.93,4.28" style="fill:none;stroke:#999;stroke-width:3"></path>
<path d="M687.86,24.43C694.38,24,722.0,22.5,728.75,22.07" style="fill:none;stroke:#999;stroke-width:3"></path>
<path d="M689.5799999999999,35.01c11.54-0.88,25.78-1.74,37.18-2.38" style="fill:none;stroke:#999;stroke-width:3"></path>
<path d="M696.71,41.5c-0.21,1.12-0.88,1.89-1.63,2.48c-3.63,2.85-7.33,5.39-14.96,7.89" style="fill:none;stroke:#999;stroke-width:3"></path>
<path d="M675.37,49.47c0.89,0.89,1.22,2.15,1.22,3.54c0,4.48-0.09,18.77-0.09,23.73c0,1.43,0.57,3.02,2.5,1.88c3.38-2,12.12-7,20.02-11.11" style="fill:none;stroke:#999;stroke-width:3"></path>
<path d="M699.19,53.72c1.17,1.17,1.67,3.03,1.67,4.52C700.86,69.88,701.0,88,682.97,97.9" style="fill:none;stroke:#999;stroke-width:3"></path>

<path d="M792.88,12.88c1.06,1.06,1.5,2.36,1.69,3.51c0.9,5.74,1.63,11.14,2.41,16.64c0.25,1.8,0.51,3.6,0.78,5.44" style="fill:none;stroke:#999;stroke-width:3"></path>
<path d="M795.22,14.75c12.19-1.06,29.26-2.46,39.65-3.11c3.62-0.23,5.78,0.2,5.12,4.11c-0.6,3.56-1.72,9.83-2.79,15.02c-0.32,1.56-0.63,3.02-0.93,4.28" style="fill:none;stroke:#999;stroke-width:3"></path>
<path d="M796.86,24.43C803.38,24,831.0,22.5,837.75,22.07" style="fill:none;stroke:#999;stroke-width:3"></path>
<path d="M798.5799999999999,35.01c11.54-0.88,25.78-1.74,37.18-2.38" style="fill:none;stroke:#999;stroke-width:3"></path>
<path d="M805.71,41.5c-0.21,1.12-0.88,1.89-1.63,2.48c-3.63,2.85-7.33,5.39-14.96,7.89" style="fill:none;stroke:#999;stroke-width:3"></path>
<path d="M784.37,49.47c0.89,0.89,1.22,2.15,1.22,3.54c0,4.48-0.09,18.77-0.09,23.73c0,1.43,0.57,3.02,2.5,1.88c3.38-2,12.12-7,20.02-11.11" style="fill:none;stroke:#999;stroke-width:3"></path>
<path d="M808.19,53.72c1.17,1.17,1.67,3.03,1.67,4.52C809.86,69.88,810.0,88,791.97,97.9" style="fill:none;stroke:#999;stroke-width:3"></path>
<path d="M823.25,45.33c1.88,0.8,3.64,0.85,6.11,0.46c4.92-0.79,15.6-2.73,17.01-2.88c1.78-0.18,4.45-0.37,4.63,3.49c0.08,1.85-1.5,22.82-3.35,31.26c-2.14,9.78-5.4,2.08-6.55,0.41" style="fill:none;stroke:#999;stroke-width:3"></path>

<path d="M901.88,12.88c1.06,1.06,1.5,2.36,1.69,3.51c0.9,5.74,1.63,11.14,2.41,16.64c0.25,1.8,0.51,3.6,0.78,5.44" style="fill:none;stroke:#999;stroke-width:3"></path>
<path d="M904.22,14.75c12.19-1.06,29.26-2.46,39.65-3.11c3.62-0.23,5.78,0.2,5.12,4.11c-0.6,3.56-1.72,9.83-2.79,15.02c-0.32,1.56-0.63,3.02-0.93,4.28" style="fill:none;stroke:#999;stroke-width:3"></path>
<path d="M905.86,24.43C912.38,24,940.0,22.5,946.75,22.07" style="fill:none;stroke:#999;stroke-width:3"></path>
<path d="M907.5799999999999,35.01c11.54-0.88,25.78-1.74,37.18-2.38" style="fill:none;stroke:#999;stroke-width:3"></path>
<path d="M914.71,41.5c-0.21,1.12-0.88,1.89-1.63,2.48c-3.63,2.85-7.33,5.39-14.96,7.89" style="fill:none;stroke:#999;stroke-width:3"></path>
<path d="M893.37,49.47c0.89,0.89,1.22,2.15,1.22,3.54c0,4.48-0.09,18.77-0.09,23.73c0,1.43,0.57,3.02,2.5,1.88c3.38-2,12.12-7,20.02-11.11" style="fill:none;stroke:#999;stroke-width:3"></path>
<path d="M917.19,53.72c1.17,1.17,1.67,3.03,1.67,4.52C918.86,69.88,919.0,88,900.97,97.9" style="fill:none;stroke:#999;stroke-width:3"></path>
<path d="M932.25,45.33c1.88,0.8,3.64,0.85,6.11,0.46c4.92-0.79,15.6-2.73,17.01-2.88c1.78-0.18,4.45-0.37,4.63,3.49c0.08,1.85-1.5,22.82-3.35,31.26c-2.14,9.78-5.4,2.08-6.55,0.41" style="fill:none;stroke:#999;stroke-width:3"></path>
<path d="M934.47,46.61c0.9,0.9,1,2.22,1,4.02c-0.01,8.99-0.06,30.26-0.08,42c0,2.9-0.01,5.22-0.01,6.62" style="fill:none;stroke:#999;stroke-width:3"></path>

</svg>