<svg width="1090px" height="109px" viewBox="0 0 1090 109" xmlns="http://www.w3.org/2000/svg" xmlns:xlink="http://www.w3.org/1999/xlink" xml:space="preserve" version="1.1" baseProfile="full">
<line x1="1" y1="1" x2="1089" y2="1" style="stroke:#ddd;stroke-width:2"></line>
<line x1="1" y1="1" x2="1" y2="108" style="stroke:#ddd;stroke-width:2"></line>
<line x1="1" y1="108" x2="1089" y2="108" style="stroke:#ddd;stroke-width:2"></line>
<line x1="1089" y1="1" x2="1089" y2="108" style="stroke:#ddd;stroke-width:2"></line>
<line x1="109" y1="1" x2="109" y2="108" style="stroke:#ddd;stroke-width:2"></line>
<line x1="218" y1="1" x2="218" y2="108" style="stroke:#ddd;stroke-width:2"></line>
<line x1="327" y1="1" x2="327" y2="108" style="stroke:#ddd;stroke-width:2"></line>
<line x1="436" y1="1" x2="436" y2="108" style="stroke:#ddd;stroke-width:2"></line>
<line x1="545" y1="1" x2="545" y2="108" style="stroke:#ddd;stroke-width:2"></line>
<line x1="654" y1="1" x2="654" y2="108" style="stroke:#ddd;stroke-width:2"></line>
<line x1="763" y1="1" x2="763" y2="108" style="stroke:#ddd;stroke-width:2"></line>
<line x1="872" y1="1" x2="872" y2="108" style="stroke:#ddd;stroke-width:2"></line>
<line x1="981" y1="1" x2="981" y2="108" style="stroke:#ddd;stroke-width:2"></line>
<line x1="1" y1="54" x2="1089" y2="54" style="stroke:#ddd;stroke-width:2;stroke-dasharray:3 3"></line>
<line x1="55" y1="1" x2="55" y2="108" style="stroke:#ddd;stroke-width:2;stroke-dasharray:3 3"></line>
<line x1="164" y1="1" x2="164" y2="108" style="stroke:#ddd;stroke-width:2;stroke-dasharray:3 3"></line>
<line x1="273" y1="1" x2="273" y2="108" style="stroke:#ddd;stroke-width:2;stroke-dasharray:3 3"></line>
<line x1="382" y1="1" x2="382" y2="108" style="stroke:#ddd;stroke-width:2;stroke-dasharray:3 3"></line>
<line x1="491" y1="1" x2="491" y2="108" style="stroke:#ddd;stroke-width:2;stroke-dasharray:3 3"></line>
<line x1="600" y1="1" x2="600" y2="108" style="stroke:#ddd;stroke-width:2;stroke-dasharray:3 3"></line>
<line x1="709" y1="1" x2="709" y2="108" style="stroke:#ddd;stroke-width:2;stroke-dasharray:3 3"></line>
<line x1="818" y1="1" x2="818" y2="108" style="stroke:#ddd;stroke-width:2;stroke-dasharray:3 3"></line>
<line x1="927" y1="1" x2="927" y2="108" style="stroke:#ddd;stroke-width:2;stroke-dasharray:3 3"></line>
<line x1="1036" y1="1" x2="1036" y2="108" style="stroke:#ddd;stroke-width:2;stroke-dasharray:3 3"></line>
<path d="M27.16,18.58c3.14,0.81,6.29,0.46,9.47,0.14c10.87-1.1,24.62-1.97,36.74-2.43c3.06-0.11,5.99,0.06,8.99,0.53" style="fill:none;stroke:#999;stroke-width:3"></path>

<path d="M136.16,18.58c3.14,0.81,6.29,0.46,9.47,0.14c10.87-1.1,24.62-1.97,36.74-2.43c3.06-0.11,5.99,0.06,8.99,0.53" style="fill:none;stroke:#999;stroke-width:3"></path>
<path d="M153.65,20.24c0.99,0.99,1.1,2.14,1.21,4.13c0.27,5.06,0.44,20.78,0.35,24.03" style="fill:none;stroke:#999;stroke-width:3"></path>

<path d="M245.16,18.58c3.14,0.81,6.29,0.46,9.47,0.14c10.87-1.1,24.62-1.97,36.74-2.43c3.06-0.11,5.99,0.06,8.99,0.53" style="fill:none;stroke:#999;stroke-width:3"></path>
<path d="M262.65,20.24c0.99,0.99,1.1,2.14,1.21,4.13c0.27,5.06,0.44,20.78,0.35,24.03" style="fill:none;stroke:#999;stroke-width:3"></path>
<path d="M280.06,18.55c0.57,1.2,0.82,2.07,0.67,3.59c-0.44,4.59-1.5,21.85-1.63,25.87" style="fill:none;stroke:#999;stroke-width:3"></path>

<path d="M354.15999999999997,18.58c3.14,0.81,6.29,0.46,9.47,0.14c10.87-1.1,24.62-1.97,36.74-2.43c3.06-0.11,5.99,0.06,8.99,0.53" style="fill:none;stroke:#999;stroke-width:3"></path>
<path d="M371.65,20.24c0.99,0.99,1.1,2.14,1.21,4.13c0.27,5.06,0.44,20.78,0.35,24.03" style="fill:none;stroke:#999;stroke-width:3"></path>
<path d="M389.06,18.55c0.57,1.2,0.82,2.07,0.67,3.59c-0.44,4.59-1.5,21.85-1.63,25.87" style="fill:none;stroke:#999;stroke-width:3"></path>
<path d="M351.18,29.89c3.36,2.05,8.67,8.44,9.51,11.64" style="fill:none;stroke:#999;stroke-width:3"></path>

<path d="M463.15999999999997,18.58c3.14,0.81,6.29,0.46,9.47,0.14c10.87-1.1,24.62-1.97,36.74-2.43c3.06-0.11,5.99,0.06,8.99,0.53" style="fill:none;stroke:#999;stroke-width:3"></path>
<path d="M480.65,20.24c0.99,0.99,1.1,2.14,1.21,4.13c0.27,5.06,0.44,20.78,0.35,24.03" style="fill:none;stroke:#999;stroke-width:3"></path>
<path d="M498.06,18.55c0.57,1.2,0.82,2.07,0.67,3.59c-0.44,4.59-1.5,21.85-1.63,25.87" style="fill:none;stroke:#999;stroke-width:3"></path>
<path d="M460.18,29.89c3.36,2.05,8.67,8.44,9.51,11.64" style="fill:none;stroke:#999;stroke-width:3"></path>
<path d="M516.88,25.34c0.13,1.17-0.33,2.29-0.86,3.29c-1.89,3.63-4.5,7.62-9.33,13.4" style="fill:none;stroke:#999;stroke-width:3"></path>

<path d="M572.16,18.58c3.14,0.81,6.29,0.46,9.47,0.14c10.87-1.1,24.62-1.97,36.74-2.43c3.06-0.11,5.99,0.06,8.99,0.53" style="fill:none;stroke:#999;stroke-width:3"></path>
<path d="M589.65,20.24c0.99,0.99,1.1,2.14,1.21,4.13c0.27,5.06,0.44,20.78,0.35,24.03" style="fill:none;stroke:#999;stroke-width:3"></path>
<path d="M607.06,18.55c0.57,1.2,0.82,2.07,0.67,3.59c-0.44,4.59-1.5,21.85-1.63,25.87" style="fill:none;stroke:#999;stroke-width:3"></path>
<path d="M569.1800000000001,29.89c3.36,2.05,8.67,8.44,9.51,11.64" style="fill:none;stroke:#999;stroke-width:3"></path>
<path d="M625.88,25.34c0.13,1.17-0.33,2.29-0.86,3.29c-1.89,3.63-4.5,7.62-9.33,13.4" style="fill:none;stroke:#999;stroke-width:3"></path>
<path d="M559.75,50.21c3.8,0.81,7.65,0.7,11.5,0.44c19.11-1.31,38.22-2.17,57.38-2.61c3.8-0.09,7.37-0.04,11.12,0.45" style="fill:none;stroke:#999;stroke-width:3"></path>

<path d="M681.16,18.58c3.14,0.81,6.29,0.46,9.47,0.14c10.87-1.1,24.62-1.97,36.74-2.43c3.06-0.11,5.99,0.06,8.99,0.53" style="fill:none;stroke:#999;stroke-width:3"></path>
<path d="M698.65,20.24c0.99,0.99,1.1,2.14,1.21,4.13c0.27,5.06,0.44,20.78,0.35,24.03" style="fill:none;stroke:#999;stroke-width:3"></path>
<path d="M716.06,18.55c0.57,1.2,0.82,2.07,0.67,3.59c-0.44,4.59-1.5,21.85-1.63,25.87" style="fill:none;stroke:#999;stroke-width:3"></path>
<path d="M678.1800000000001,29.89c3.36,2.05,8.67,8.44,9.51,11.64" style="fill:none;stroke:#999;stroke-width:3"></path>
<path d="M734.88,25.34c0.13,1.17-0.33,2.29-0.86,3.29c-1.89,3.63-4.5,7.62-9.33,13.4" style="fill:none;stroke:#999;stroke-width:3"></path>
<path d="M668.75,50.21c3.8,0.81,7.65,0.7,11.5,0.44c19.11-1.31,38.22-2.17,57.38-2.61c3.8-0.09,7.37-0.04,11.12,0.45" style="fill:none;stroke:#999;stroke-width:3"></path>
<path d="M688.77,61.26c0.81,1.36,0.95,2.33,1.06,3.87c0.35,5.07,1.34,17.46,1.98,25.51c0.17,2.19,0.32,4.06,0.42,5.37" style="fill:none;stroke:#999;stroke-width:3"></path>

<path d="M790.16,18.58c3.14,0.81,6.29,0.46,9.47,0.14c10.87-1.1,24.62-1.97,36.74-2.43c3.06-0.11,5.99,0.06,8.99,0.53" style="fill:none;stroke:#999;stroke-width:3"></path>
<path d="M807.65,20.24c0.99,0.99,1.1,2.14,1.21,4.13c0.27,5.06,0.44,20.78,0.35,24.03" style="fill:none;stroke:#999;stroke-width:3"></path>
<path d="M825.06,18.55c0.57,1.2,0.82,2.07,0.67,3.59c-0.44,4.59-1.5,21.85-1.63,25.87" style="fill:none;stroke:#999;stroke-width:3"></path>
<path d="M787.1800000000001,29.89c3.36,2.05,8.67,8.44,9.51,11.64" style="fill:none;stroke:#999;stroke-width:3"></path>
<path d="M843.88,25.34c0.13,1.17-0.33,2.29-0.86,3.29c-1.89,3.63-4.5,7.62-9.33,13.4" style="fill:none;stroke:#999;stroke-width:3"></path>
<path d="M777.75,50.21c3.8,0.81,7.65,0.7,11.5,0.44c19.11-1.31,38.22-2.17,57.38-2.61c3.8-0.09,7.37-0.04,11.12,0.45" style="fill:none;stroke:#999;stroke-width:3"></path>
<path d="M797.77,61.26c0.81,1.36,0.95,2.33,1.06,3.87c0.35,5.07,1.34,17.46,1.98,25.51c0.17,2.19,0.32,4.06,0.42,5.37" style="fill:none;stroke:#999;stroke-width:3"></path>
<path d="M799.77,62.89c2.38-0.12,25.08-2.55,32.1-3.23c3.54-0.35,5.28,0.45,4.83,4.09c-0.6,4.91-1.99,17.43-2.78,24.87c-0.35,3.29-0.59,5.6-0.59,5.81" style="fill:none;stroke:#999;stroke-width:3"></path>

<path d="M899.16,18.58c3.14,0.81,6.29,0.46,9.47,0.14c10.87-1.1,24.62-1.97,36.74-2.43c3.06-0.11,5.99,0.06,8.99,0.53" style="fill:none;stroke:#999;stroke-width:3"></path>
<path d="M916.65,20.24c0.99,0.99,1.1,2.14,1.21,4.13c0.27,5.06,0.44,20.78,0.35,24.03" style="fill:none;stroke:#999;stroke-width:3"></path>
<path d="M934.06,18.55c0.57,1.2,0.82,2.07,0.67,3.59c-0.44,4.59-1.5,21.85-1.63,25.87" style="fill:none;stroke:#999;stroke-width:3"></path>
<path d="M896.1800000000001,29.89c3.36,2.05,8.67,8.44,9.51,11.64" style="fill:none;stroke:#999;stroke-width:3"></path>
<path d="M952.88,25.34c0.13,1.17-0.33,2.29-0.86,3.29c-1.89,3.63-4.5,7.62-9.33,13.4" style="fill:none;stroke:#999;stroke-width:3"></path>
<path d="M886.75,50.21c3.8,0.81,7.65,0.7,11.5,0.44c19.11-1.31,38.22-2.17,57.38-2.61c3.8-0.09,7.37-0.04,11.12,0.45" style="fill:none;stroke:#999;stroke-width:3"></path>
<path d="M906.77,61.26c0.81,1.36,0.95,2.33,1.06,3.87c0.35,5.07,1.34,17.46,1.98,25.51c0.17,2.19,0.32,4.06,0.42,5.37" style="fill:none;stroke:#999;stroke-width:3"></path>
<path d="M908.77,62.89c2.38-0.12,25.08-2.55,32.1-3.23c3.54-0.35,5.28,0.45,4.83,4.09c-0.6,4.91-1.99,17.43-2.78,24.87c-0.35,3.29-0.59,5.6-0.59,5.81" style="fill:none;stroke:#999;stroke-width:3"></path>
<path d="M909.75,76.84c6.13-0.34,29.34-1.87,33.48-1.87" style="fill:none;stroke:#999;stroke-width:3"></path>

<path d="M1008.16,18.58c3.14,0.81,6.29,0.46,9.47,0.14c10.87-1.1,24.62-1.97,36.74-2.43c3.06-0.11,5.99,0.06,8.99,0.53" style="fill:none;stroke:#999;stroke-width:3"></path>
<path d="M1025.65,20.24c0.99,0.99,1.1,2.14,1.21,4.13c0.27,5.06,0.44,20.78,0.35,24.03" style="fill:none;stroke:#999;stroke-width:3"></path>
<path d="M1043.06,18.55c0.57,1.2,0.82,2.07,0.67,3.59c-0.44,4.59-1.5,21.85-1.63,25.87" style="fill:none;stroke:#999;stroke-width:3"></path>
<path d="M1005.1800000000001,29.89c3.36,2.05,8.67,8.44,9.51,11.64" style="fill:none;stroke:#999;stroke-width:3"></path>
<path d="M1061.88,25.34c0.13,1.17-0.33,2.29-0.86,3.29c-1.89,3.63-4.5,7.62-9.33,13.4" style="fill:none;stroke:#999;stroke-width:3"></path>
<path d="M995.75,50.21c3.8,0.81,7.65,0.7,11.5,0.44c19.11-1.31,38.22-2.17,57.38-2.61c3.8-0.09,7.37-0.04,11.12,0.45" style="fill:none;stroke:#999;stroke-width:3"></path>
<path d="M1015.77,61.26c0.81,1.36,0.95,2.33,1.06,3.87c0.35,5.07,1.34,17.46,1.98,25.51c0.17,2.19,0.32,4.06,0.42,5.37" style="fill:none;stroke:#999;stroke-width:3"></path>
<path d="M1017.77,62.89c2.38-0.12,25.08-2.55,32.1-3.23c3.54-0.35,5.28,0.45,4.83,4.09c-0.6,4.91-1.99,17.43-2.78,24.87c-0.35,3.29-0.59,5.6-0.59,5.81" style="fill:none;stroke:#999;stroke-width:3"></path>
<path d="M1018.75,76.84c6.13-0.34,29.34-1.87,33.48-1.87" style="fill:none;stroke:#999;stroke-width:3"></path>
<path d="M1019.83,92.5C1028.0,92,1041.19,91.4,1050.46,90.9" style="fill:none;stroke:#999;stroke-width:3"></path>

</svg>