<svg width="654px" height="109px" viewBox="0 0 654 109" xmlns="http://www.w3.org/2000/svg" xmlns:xlink="http://www.w3.org/1999/xlink" xml:space="preserve" version="1.1" baseProfile="full">
<line x1="1" y1="1" x2="653" y2="1" style="stroke:#ddd;stroke-width:2"></line>
<line x1="1" y1="1" x2="1" y2="108" style="stroke:#ddd;stroke-width:2"></line>
<line x1="1" y1="108" x2="653" y2="108" style="stroke:#ddd;stroke-width:2"></line>
<line x1="653" y1="1" x2="653" y2="108" style="stroke:#ddd;stroke-width:2"></line>
<line x1="109" y1="1" x2="109" y2="108" style="stroke:#ddd;stroke-width:2"></line>
<line x1="218" y1="1" x2="218" y2="108" style="stroke:#ddd;stroke-width:2"></line>
<line x1="327" y1="1" x2="327" y2="108" style="stroke:#ddd;stroke-width:2"></line>
<line x1="436" y1="1" x2="436" y2="108" style="stroke:#ddd;stroke-width:2"></line>
<line x1="545" y1="1" x2="545" y2="108" style="stroke:#ddd;stroke-width:2"></line>
<line x1="1" y1="54" x2="653" y2="54" style="stroke:#ddd;stroke-width:2;stroke-dasharray:3 3"></line>
<line x1="55" y1="1" x2="55" y2="108" style="stroke:#ddd;stroke-width:2;stroke-dasharray:3 3"></line>
<line x1="164" y1="1" x2="164" y2="108" style="stroke:#ddd;stroke-width:2;stroke-dasharray:3 3"></line>
<line x1="273" y1="1" x2="273" y2="108" style="stroke:#ddd;stroke-width:2;stroke-dasharray:3 3"></line>
<line x1="382" y1="1" x2="382" y2="108" style="stroke:#ddd;stroke-width:2;stroke-dasharray:3 3"></line>
<line x1="491" y1="1" x2="491" y2="108" style="stroke:#ddd;stroke-width:2;stroke-dasharray:3 3"></line>
<line x1="600" y1="1" x2="600" y2="108" style="stroke:#ddd;stroke-width:2;stroke-dasharray:3 3"></line>
<path d="M17.27,40.03c1.16,1.16,1.63,2.27,1.8,3.82c0.35,3.16,2.4,28.1,3.46,41.43c0.06,0.73,0.46,5.87,0.54,6.96" style="fill:none;stroke:#999;stroke-width:3"></path>

<path d="M126.27,40.03c1.16,1.16,1.63,2.27,1.8,3.82c0.35,3.16,2.4,28.1,3.46,41.43c0.06,0.73,0.46,5.87,0.54,6.96" style="fill:none;stroke:#999;stroke-width:3"></path>
<path d="M128.94,42.98c22.12-2.87,47.03-5.31,63.95-6.64c3.6-0.28,7.63,1.09,7.17,5.31c-0.8,7.23-3,26.09-4.99,39.38c-0.12,0.81-1.01,6.35-1.31,7.98" style="fill:none;stroke:#999;stroke-width:3"></path>

<path d="M235.26999999999998,40.03c1.16,1.16,1.63,2.27,1.8,3.82c0.35,3.16,2.4,28.1,3.46,41.43c0.06,0.73,0.46,5.87,0.54,6.96" style="fill:none;stroke:#999;stroke-width:3"></path>
<path d="M237.94,42.98c22.12-2.87,47.03-5.31,63.95-6.64c3.6-0.28,7.63,1.09,7.17,5.31c-0.8,7.23-3,26.09-4.99,39.38c-0.12,0.81-1.01,6.35-1.31,7.98" style="fill:none;stroke:#999;stroke-width:3"></path>
<path d="M257.87,21c0.94,0.94,1.42,2.5,1.46,4C260.0,48.62,260.5,73.12,260.75,86.5" style="fill:none;stroke:#999;stroke-width:3"></path>

<path d="M344.27,40.03c1.16,1.16,1.63,2.27,1.8,3.82c0.35,3.16,2.4,28.1,3.46,41.43c0.06,0.73,0.46,5.87,0.54,6.96" style="fill:none;stroke:#999;stroke-width:3"></path>
<path d="M346.94,42.98c22.12-2.87,47.03-5.31,63.95-6.64c3.6-0.28,7.63,1.09,7.17,5.31c-0.8,7.23-3,26.09-4.99,39.38c-0.12,0.81-1.01,6.35-1.31,7.98" style="fill:none;stroke:#999;stroke-width:3"></path>
<path d="M366.87,21c0.94,0.94,1.42,2.5,1.46,4C369.0,48.62,369.5,73.12,369.75,86.5" style="fill:none;stroke:#999;stroke-width:3"></path>
<path d="M393.87,16.5c1.38,1.38,1.59,2.5,1.46,4.25c-2.33,30.38-2.83,42.88-4.58,64" style="fill:none;stroke:#999;stroke-width:3"></path>

<path d="M453.27,40.03c1.16,1.16,1.63,2.27,1.8,3.82c0.35,3.16,2.4,28.1,3.46,41.43c0.06,0.73,0.46,5.87,0.54,6.96" style="fill:none;stroke:#999;stroke-width:3"></path>
<path d="M455.94,42.98c22.12-2.87,47.03-5.31,63.95-6.64c3.6-0.28,7.63,1.09,7.17,5.31c-0.8,7.23-3,26.09-4.99,39.38c-0.12,0.81-1.01,6.35-1.31,7.98" style="fill:none;stroke:#999;stroke-width:3"></path>
<path d="M475.87,21c0.94,0.94,1.42,2.5,1.46,4C478.0,48.62,478.5,73.12,478.75,86.5" style="fill:none;stroke:#999;stroke-width:3"></path>
<path d="M502.87,16.5c1.38,1.38,1.59,2.5,1.46,4.25c-2.33,30.38-2.83,42.88-4.58,64" style="fill:none;stroke:#999;stroke-width:3"></path>
<path d="M457.96,64.76C476.38,62.5,499.5,60.12,524.0,58.75" style="fill:none;stroke:#999;stroke-width:3"></path>

<path d="M562.27,40.03c1.16,1.16,1.63,2.27,1.8,3.82c0.35,3.16,2.4,28.1,3.46,41.43c0.06,0.73,0.46,5.87,0.54,6.96" style="fill:none;stroke:#999;stroke-width:3"></path>
<path d="M564.94,42.98c22.12-2.87,47.03-5.31,63.95-6.64c3.6-0.28,7.63,1.09,7.17,5.31c-0.8,7.23-3,26.09-4.99,39.38c-0.12,0.81-1.01,6.35-1.31,7.98" style="fill:none;stroke:#999;stroke-width:3"></path>
<path d="M584.87,21c0.94,0.94,1.42,2.5,1.46,4C587.0,48.62,587.5,73.12,587.75,86.5" style="fill:none;stroke:#999;stroke-width:3"></path>
<path d="M611.87,16.5c1.38,1.38,1.59,2.5,1.46,4.25c-2.33,30.38-2.83,42.88-4.58,64" style="fill:none;stroke:#999;stroke-width:3"></path>
<path d="M566.96,64.76C585.38,62.5,608.5,60.12,633.0,58.75" style="fill:none;stroke:#999;stroke-width:3"></path>
<path d="M569.02,88.8c8.14-0.76,45.85-3.55,60.23-4.05" style="fill:none;stroke:#999;stroke-width:3"></path>

</svg>