<svg width="1199px" height="109px" viewBox="0 0 1199 109" xmlns="http://www.w3.org/2000/svg" xmlns:xlink="http://www.w3.org/1999/xlink" xml:space="preserve" version="1.1" baseProfile="full">
<line x1="1" y1="1" x2="1198" y2="1" style="stroke:#ddd;stroke-width:2"></line>
<line x1="1" y1="1" x2="1" y2="108" style="stroke:#ddd;stroke-width:2"></line>
<line x1="1" y1="108" x2="1198" y2="108" style="stroke:#ddd;stroke-width:2"></line>
<line x1="1198" y1="1" x2="1198" y2="108" style="stroke:#ddd;stroke-width:2"></line>
<line x1="109" y1="1" x2="109" y2="108" style="stroke:#ddd;stroke-width:2"></line>
<line x1="218" y1="1" x2="218" y2="108" style="stroke:#ddd;stroke-width:2"></line>
<line x1="327" y1="1" x2="327" y2="108" style="stroke:#ddd;stroke-width:2"></line>
<line x1="436" y1="1" x2="436" y2="108" style="stroke:#ddd;stroke-width:2"></line>
<line x1="545" y1="1" x2="545" y2="108" style="stroke:#ddd;stroke-width:2"></line>
<line x1="654" y1="1" x2="654" y2="108" style="stroke:#ddd;stroke-width:2"></line>
<line x1="763" y1="1" x2="763" y2="108" style="stroke:#ddd;stroke-width:2"></line>
<line x1="872" y1="1" x2="872" y2="108" style="stroke:#ddd;stroke-width:2"></line>
<line x1="981" y1="1" x2="981" y2="108" style="stroke:#ddd;stroke-width:2"></line>
<line x1="1090" y1="1" x2="1090" y2="108" style="stroke:#ddd;stroke-width:2"></line>
<line x1="1" y1="54" x2="1198" y2="54" style="stroke:#ddd;stroke-width:2;stroke-dasharray:3 3"></line>
<line x1="55" y1="1" x2="55" y2="108" style="stroke:#ddd;stroke-width:2;stroke-dasharray:3 3"></line>
<line x1="164" y1="1" x2="164" y2="108" style="stroke:#ddd;stroke-width:2;stroke-dasharray:3 3"></line>
<line x1="273" y1="1" x2="273" y2="108" style="stroke:#ddd;stroke-width:2;stroke-dasharray:3 3"></line>
<line x1="382" y1="1" x2="382" y2="108" style="stroke:#ddd;stroke-width:2;stroke-dasharray:3 3"></line>
<line x1="491" y1="1" x2="491" y2="108" style="stroke:#ddd;stroke-width:2;stroke-dasharray:3 3"></line>
<line x1="600" y1="1" x2="600" y2="108" style="stroke:#ddd;stroke-width:2;stroke-dasharray:3 3"></line>
<line x1="709" y1="1" x2="709" y2="108" style="stroke:#ddd;stroke-width:2;stroke-dasharray:3 3"></line>
<line x1="818" y1="1" x2="818" y2="108" style="stroke:#ddd;stroke-width:2;stroke-dasharray:3 3"></line>
<line x1="927" y1="1" x2="927" y2="108" style="stroke:#ddd;stroke-width:2;stroke-dasharray:3 3"></line>
<line x1="1036" y1="1" x2="1036" y2="108" style="stroke:#ddd;stroke-width:2;stroke-dasharray:3 3"></line>
<line x1="1145" y1="1" x2="1145" y2="108" style="stroke:#ddd;stroke-width:2;stroke-dasharray:3 3"></line>
<path d="M32.49,12.65c0.29,0.37,0.3,0.62,0.46,1.08c1.32,3.8,4.06,12.89,4.87,19.98" style="fill:none;stroke:#999;stroke-width:3"></path>

<path d="M141.49,12.65c0.29,0.37,0.3,0.62,0.46,1.08c1.32,3.8,4.06,12.89,4.87,19.98" style="fill:none;stroke:#999;stroke-width:3"></path>
<path d="M142.85,13.16c10.2-0.96,30.2-2.08,37.81-2.88c2.8-0.3,4.23,0.75,4.09,1.79c-0.53,3.83-2.83,13.76-4.11,20.16" style="fill:none;stroke:#999;stroke-width:3"></path>

<path d="M250.49,12.65c0.29,0.37,0.3,0.62,0.46,1.08c1.32,3.8,4.06,12.89,4.87,19.98" style="fill:none;stroke:#999;stroke-width:3"></path>
<path d="M251.85,13.16c10.2-0.96,30.2-2.08,37.81-2.88c2.8-0.3,4.23,0.75,4.09,1.79c-0.53,3.83-2.83,13.76-4.11,20.16" style="fill:none;stroke:#999;stroke-width:3"></path>
<path d="M254.76,22.98c3.32-0.37,34.53-2.61,37.27-2.77" style="fill:none;stroke:#999;stroke-width:3"></path>

<path d="M359.49,12.65c0.29,0.37,0.3,0.62,0.46,1.08c1.32,3.8,4.06,12.89,4.87,19.98" style="fill:none;stroke:#999;stroke-width:3"></path>
<path d="M360.85,13.16c10.2-0.96,30.2-2.08,37.81-2.88c2.8-0.3,4.23,0.75,4.09,1.79c-0.53,3.83-2.83,13.76-4.11,20.16" style="fill:none;stroke:#999;stroke-width:3"></path>
<path d="M363.76,22.98c3.32-0.37,34.53-2.61,37.27-2.77" style="fill:none;stroke:#999;stroke-width:3"></path>
<path d="M365.35,32.67c7.35-0.41,23.16-1.61,33.3-2.27" style="fill:none;stroke:#999;stroke-width:3"></path>

<path d="M468.49,12.65c0.29,0.37,0.3,0.62,0.46,1.08c1.32,3.8,4.06,12.89,4.87,19.98" style="fill:none;stroke:#999;stroke-width:3"></path>
<path d="M469.85,13.16c10.2-0.96,30.2-2.08,37.81-2.88c2.8-0.3,4.23,0.75,4.09,1.79c-0.53,3.83-2.83,13.76-4.11,20.16" style="fill:none;stroke:#999;stroke-width:3"></path>
<path d="M472.76,22.98c3.32-0.37,34.53-2.61,37.27-2.77" style="fill:none;stroke:#999;stroke-width:3"></path>
<path d="M474.35,32.67c7.35-0.41,23.16-1.61,33.3-2.27" style="fill:none;stroke:#999;stroke-width:3"></path>
<path d="M456.62,40.94c0.36,0.28,0.73,0.51,0.89,0.87c1.26,2.78,3.26,9.95,4.12,14.94" style="fill:none;stroke:#999;stroke-width:3"></path>

<path d="M577.49,12.65c0.29,0.37,0.3,0.62,0.46,1.08c1.32,3.8,4.06,12.89,4.87,19.98" style="fill:none;stroke:#999;stroke-width:3"></path>
<path d="M578.85,13.16c10.2-0.96,30.2-2.08,37.81-2.88c2.8-0.3,4.23,0.75,4.09,1.79c-0.53,3.83-2.83,13.76-4.11,20.16" style="fill:none;stroke:#999;stroke-width:3"></path>
<path d="M581.76,22.98c3.32-0.37,34.53-2.61,37.27-2.77" style="fill:none;stroke:#999;stroke-width:3"></path>
<path d="M583.35,32.67c7.35-0.41,23.16-1.61,33.3-2.27" style="fill:none;stroke:#999;stroke-width:3"></path>
<path d="M565.62,40.94c0.36,0.28,0.73,0.51,0.89,0.87c1.26,2.78,3.26,9.95,4.12,14.94" style="fill:none;stroke:#999;stroke-width:3"></path>
<path d="M567.38,42.33c7.98-1.09,60.84-3.98,65.09-4.34c1.55-0.13,3.65,0.94,3.24,2.5c-0.87,3.26-3,8.86-5.31,13.51" style="fill:none;stroke:#999;stroke-width:3"></path>

<path d="M686.49,12.65c0.29,0.37,0.3,0.62,0.46,1.08c1.32,3.8,4.06,12.89,4.87,19.98" style="fill:none;stroke:#999;stroke-width:3"></path>
<path d="M687.85,13.16c10.2-0.96,30.2-2.08,37.81-2.88c2.8-0.3,4.23,0.75,4.09,1.79c-0.53,3.83-2.83,13.76-4.11,20.16" style="fill:none;stroke:#999;stroke-width:3"></path>
<path d="M690.76,22.98c3.32-0.37,34.53-2.61,37.27-2.77" style="fill:none;stroke:#999;stroke-width:3"></path>
<path d="M692.35,32.67c7.35-0.41,23.16-1.61,33.3-2.27" style="fill:none;stroke:#999;stroke-width:3"></path>
<path d="M674.62,40.94c0.36,0.28,0.73,0.51,0.89,0.87c1.26,2.78,3.26,9.95,4.12,14.94" style="fill:none;stroke:#999;stroke-width:3"></path>
<path d="M676.38,42.33c7.98-1.09,60.84-3.98,65.09-4.34c1.55-0.13,3.65,0.94,3.24,2.5c-0.87,3.26-3,8.86-5.31,13.51" style="fill:none;stroke:#999;stroke-width:3"></path>
<path d="M698.06,40.78c0.24,1.85,0.95,10.88,1.19,12.96" style="fill:none;stroke:#999;stroke-width:3"></path>

<path d="M795.49,12.65c0.29,0.37,0.3,0.62,0.46,1.08c1.32,3.8,4.06,12.89,4.87,19.98" style="fill:none;stroke:#999;stroke-width:3"></path>
<path d="M796.85,13.16c10.2-0.96,30.2-2.08,37.81-2.88c2.8-0.3,4.23,0.75,4.09,1.79c-0.53,3.83-2.83,13.76-4.11,20.16" style="fill:none;stroke:#999;stroke-width:3"></path>
<path d="M799.76,22.98c3.32-0.37,34.53-2.61,37.27-2.77" style="fill:none;stroke:#999;stroke-width:3"></path>
<path d="M801.35,32.67c7.35-0.41,23.16-1.61,33.3-2.27" style="fill:none;stroke:#999;stroke-width:3"></path>
<path d="M783.62,40.94c0.36,0.28,0.73,0.51,0.89,0.87c1.26,2.78,3.26,9.95,4.12,14.94" style="fill:none;stroke:#999;stroke-width:3"></path>
<path d="M785.38,42.33c7.98-1.09,60.84-3.98,65.09-4.34c1.55-0.13,3.65,0.94,3.24,2.5c-0.87,3.26-3,8.86-5.31,13.51" style="fill:none;stroke:#999;stroke-width:3"></path>
<path d="M807.06,40.78c0.24,1.85,0.95,10.88,1.19,12.96" style="fill:none;stroke:#999;stroke-width:3"></path>
<path d="M829.48,39.62c-0.24,3.01-0.98,9.38-1.45,12.73" style="fill:none;stroke:#999;stroke-width:3"></path>

<path d="M904.49,12.65c0.29,0.37,0.3,0.62,0.46,1.08c1.32,3.8,4.06,12.89,4.87,19.98" style="fill:none;stroke:#999;stroke-width:3"></path>
<path d="M905.85,13.16c10.2-0.96,30.2-2.08,37.81-2.88c2.8-0.3,4.23,0.75,4.09,1.79c-0.53,3.83-2.83,13.76-4.11,20.16" style="fill:none;stroke:#999;stroke-width:3"></path>
<path d="M908.76,22.98c3.32-0.37,34.53-2.61,37.27-2.77" style="fill:none;stroke:#999;stroke-width:3"></path>
<path d="M910.35,32.67c7.35-0.41,23.16-1.61,33.3-2.27" style="fill:none;stroke:#999;stroke-width:3"></path>
<path d="M892.62,40.94c0.36,0.28,0.73,0.51,0.89,0.87c1.26,2.78,3.26,9.95,4.12,14.94" style="fill:none;stroke:#999;stroke-width:3"></path>
<path d="M894.38,42.33c7.98-1.09,60.84-3.98,65.09-4.34c1.55-0.13,3.65,0.94,3.24,2.5c-0.87,3.26-3,8.86-5.31,13.51" style="fill:none;stroke:#999;stroke-width:3"></path>
<path d="M916.06,40.78c0.24,1.85,0.95,10.88,1.19,12.96" style="fill:none;stroke:#999;stroke-width:3"></path>
<path d="M938.48,39.62c-0.24,3.01-0.98,9.38-1.45,12.73" style="fill:none;stroke:#999;stroke-width:3"></path>
<path d="M898.78,55.24c4.98-0.41,52.34-2.98,59.19-3.61" style="fill:none;stroke:#999;stroke-width:3"></path>

<path d="M1013.49,12.65c0.29,0.37,0.3,0.62,0.46,1.08c1.32,3.8,4.06,12.89,4.87,19.98" style="fill:none;stroke:#999;stroke-width:3"></path>
<path d="M1014.85,13.16c10.2-0.96,30.2-2.08,37.81-2.88c2.8-0.3,4.23,0.75,4.09,1.79c-0.53,3.83-2.83,13.76-4.11,20.16" style="fill:none;stroke:#999;stroke-width:3"></path>
<path d="M1017.76,22.98c3.32-0.37,34.53-2.61,37.27-2.77" style="fill:none;stroke:#999;stroke-width:3"></path>
<path d="M1019.35,32.67c7.35-0.41,23.16-1.61,33.3-2.27" style="fill:none;stroke:#999;stroke-width:3"></path>
<path d="M1001.62,40.94c0.36,0.28,0.73,0.51,0.89,0.87c1.26,2.78,3.26,9.95,4.12,14.94" style="fill:none;stroke:#999;stroke-width:3"></path>
<path d="M1003.38,42.33c7.98-1.09,60.84-3.98,65.09-4.34c1.55-0.13,3.65,0.94,3.24,2.5c-0.87,3.26-3,8.86-5.31,13.51" style="fill:none;stroke:#999;stroke-width:3"></path>
<path d="M1025.06,40.78c0.24,1.85,0.95,10.88,1.19,12.96" style="fill:none;stroke:#999;stroke-width:3"></path>
<path d="M1047.48,39.62c-0.24,3.01-0.98,9.38-1.45,12.73" style="fill:none;stroke:#999;stroke-width:3"></path>
<path d="M1007.78,55.24c4.98-0.41,52.34-2.98,59.19-3.61" style="fill:none;stroke:#999;stroke-width:3"></path>
<path d="M1011.76,65.01c1.84,0.3,2.07,0.76,5.75,0.3c3.68-0.46,31.13-3.4,33.66-3.86c2.53-0.46,4.33,1.79,2.45,3.84C1038.42,81.89,1021.0,92.75,998.52,99" style="fill:none;stroke:#999;stroke-width:3"></path>

<path d="M1122.49,12.65c0.29,0.37,0.3,0.62,0.46,1.08c1.32,3.8,4.06,12.89,4.87,19.98" style="fill:none;stroke:#999;stroke-width:3"></path>
<path d="M1123.85,13.16c10.2-0.96,30.2-2.08,37.81-2.88c2.8-0.3,4.23,0.75,4.09,1.79c-0.53,3.83-2.83,13.76-4.11,20.16" style="fill:none;stroke:#999;stroke-width:3"></path>
<path d="M1126.76,22.98c3.32-0.37,34.53-2.61,37.27-2.77" style="fill:none;stroke:#999;stroke-width:3"></path>
<path d="M1128.35,32.67c7.35-0.41,23.16-1.61,33.3-2.27" style="fill:none;stroke:#999;stroke-width:3"></path>
<path d="M1110.62,40.94c0.36,0.28,0.73,0.51,0.89,0.87c1.26,2.78,3.26,9.95,4.12,14.94" style="fill:none;stroke:#999;stroke-width:3"></path>
<path d="M1112.38,42.33c7.98-1.09,60.84-3.98,65.09-4.34c1.55-0.13,3.65,0.94,3.24,2.5c-0.87,3.26-3,8.86-5.31,13.51" style="fill:none;stroke:#999;stroke-width:3"></path>
<path d="M1134.06,40.78c0.24,1.85,0.95,10.88,1.19,12.96" style="fill:none;stroke:#999;stroke-width:3"></path>
<path d="M1156.48,39.62c-0.24,3.01-0.98,9.38-1.45,12.73" style="fill:none;stroke:#999;stroke-width:3"></path>
<path d="M1116.78,55.24c4.98-0.41,52.34-2.98,59.19-3.61" style="fill:none;stroke:#999;stroke-width:3"></path>
<path d="M1120.76,65.01c1.84,0.3,2.07,0.76,5.75,0.3c3.68-0.46,31.13-3.4,33.66-3.86c2.53-0.46,4.33,1.79,2.45,3.84C1147.42,81.89,1130.0,92.75,1107.52,99" style="fill:none;stroke:#999;stroke-width:3"></path>
<path d="M1127.35,71.41c4.85,0.66,28.52,18.3,45.4,25.53c2.63,1.12,4.54,1.88,6.99,2.25" style="fill:none;stroke:#999;stroke-width:3"></path>

</svg>