<svg width="1308px" height="109px" viewBox="0 0 1308 109" xmlns="http://www.w3.org/2000/svg" xmlns:xlink="http://www.w3.org/1999/xlink" xml:space="preserve" version="1.1" baseProfile="full">
<line x1="1" y1="1" x2="1307" y2="1" style="stroke:#ddd;stroke-width:2"></line>
<line x1="1" y1="1" x2="1" y2="108" style="stroke:#ddd;stroke-width:2"></line>
<line x1="1" y1="108" x2="1307" y2="108" style="stroke:#ddd;stroke-width:2"></line>
<line x1="1307" y1="1" x2="1307" y2="108" style="stroke:#ddd;stroke-width:2"></line>
<line x1="109" y1="1" x2="109" y2="108" style="stroke:#ddd;stroke-width:2"></line>
<line x1="218" y1="1" x2="218" y2="108" style="stroke:#ddd;stroke-width:2"></line>
<line x1="327" y1="1" x2="327" y2="108" style="stroke:#ddd;stroke-width:2"></line>
<line x1="436" y1="1" x2="436" y2="108" style="stroke:#ddd;stroke-width:2"></line>
<line x1="545" y1="1" x2="545" y2="108" style="stroke:#ddd;stroke-width:2"></line>
<line x1="654" y1="1" x2="654" y2="108" style="stroke:#ddd;stroke-width:2"></line>
<line x1="763" y1="1" x2="763" y2="108" style="stroke:#ddd;stroke-width:2"></line>
<line x1="872" y1="1" x2="872" y2="108" style="stroke:#ddd;stroke-width:2"></line>
<line x1="981" y1="1" x2="981" y2="108" style="stroke:#ddd;stroke-width:2"></line>
<line x1="1090" y1="1" x2="1090" y2="108" style="stroke:#ddd;stroke-width:2"></line>
<line x1="1199" y1="1" x2="1199" y2="108" style="stroke:#ddd;stroke-width:2"></line>
<line x1="1" y1="54" x2="1307" y2="54" style="stroke:#ddd;stroke-width:2;stroke-dasharray:3 3"></line>
<line x1="55" y1="1" x2="55" y2="108" style="stroke:#ddd;stroke-width:2;stroke-dasharray:3 3"></line>
<line x1="164" y1="1" x2="164" y2="108" style="stroke:#ddd;stroke-width:2;stroke-dasharray:3 3"></line>
<line x1="273" y1="1" x2="273" y2="108" style="stroke:#ddd;stroke-width:2;stroke-dasharray:3 3"></line>
<line x1="382" y1="1" x2="382" y2="108" style="stroke:#ddd;stroke-width:2;stroke-dasharray:3 3"></line>
<line x1="491" y1="1" x2="491" y2="108" style="stroke:#ddd;stroke-width:2;stroke-dasharray:3 3"></line>
<line x1="600" y1="1" x2="600" y2="108" style="stroke:#ddd;stroke-width:2;stroke-dasharray:3 3"></line>
<line x1="709" y1="1" x2="709" y2="108" style="stroke:#ddd;stroke-width:2;stroke-dasharray:3 3"></line>
<line x1="818" y1="1" x2="818" y2="108" style="stroke:#ddd;stroke-width:2;stroke-dasharray:3 3"></line>
<line x1="927" y1="1" x2="927" y2="108" style="stroke:#ddd;stroke-width:2;stroke-dasharray:3 3"></line>
<line x1="1036" y1="1" x2="1036" y2="108" style="stroke:#ddd;stroke-width:2;stroke-dasharray:3 3"></line>
<line x1="1145" y1="1" x2="1145" y2="108" style="stroke:#ddd;stroke-width:2;stroke-dasharray:3 3"></line>
<line x1="1254" y1="1" x2="1254" y2="108" style="stroke:#ddd;stroke-width:2;stroke-dasharray:3 3"></line>
<path d="M41.48,12.24c0,1.01-0.42,2.33-1.05,3.09C36.25,20.38,28.0,28.38,17.75,34.25" style="fill:none;stroke:#999;stroke-width:3"></path>

<path d="M150.48,12.24c0,1.01-0.42,2.33-1.05,3.09C145.25,20.38,137.0,28.38,126.75,34.25" style="fill:none;stroke:#999;stroke-width:3"></path>
<path d="M167.5,9c5,0.25,18.38,10.83,25.96,15.44c3.37,2.05,6.2,4.28,10.29,4.77" style="fill:none;stroke:#999;stroke-width:3"></path>

<path d="M259.48,12.24c0,1.01-0.42,2.33-1.05,3.09C254.25,20.38,246.0,28.38,235.75,34.25" style="fill:none;stroke:#999;stroke-width:3"></path>
<path d="M276.5,9c5,0.25,18.38,10.83,25.96,15.44c3.37,2.05,6.2,4.28,10.29,4.77" style="fill:none;stroke:#999;stroke-width:3"></path>
<path d="M243.4,33.92c0.71,0.71,1.26,1.64,1.35,2.17c0.87,4.9,2.05,10.77,3.29,17.16c0.35,1.8,0.7,3.64,1.05,5.51" style="fill:none;stroke:#999;stroke-width:3"></path>

<path d="M368.48,12.24c0,1.01-0.42,2.33-1.05,3.09C363.25,20.38,355.0,28.38,344.75,34.25" style="fill:none;stroke:#999;stroke-width:3"></path>
<path d="M385.5,9c5,0.25,18.38,10.83,25.96,15.44c3.37,2.05,6.2,4.28,10.29,4.77" style="fill:none;stroke:#999;stroke-width:3"></path>
<path d="M352.4,33.92c0.71,0.71,1.26,1.64,1.35,2.17c0.87,4.9,2.05,10.77,3.29,17.16c0.35,1.8,0.7,3.64,1.05,5.51" style="fill:none;stroke:#999;stroke-width:3"></path>
<path d="M354.23,35.24c14.48-1.65,37.32-3.91,50.14-4.65c3.65-0.21,5.68,1.1,4.92,4.82c-0.63,3.13-1.68,7.56-2.96,12.58c-0.49,1.91-1.01,3.9-1.55,5.94" style="fill:none;stroke:#999;stroke-width:3"></path>

<path d="M477.48,12.24c0,1.01-0.42,2.33-1.05,3.09C472.25,20.38,464.0,28.38,453.75,34.25" style="fill:none;stroke:#999;stroke-width:3"></path>
<path d="M494.5,9c5,0.25,18.38,10.83,25.96,15.44c3.37,2.05,6.2,4.28,10.29,4.77" style="fill:none;stroke:#999;stroke-width:3"></path>
<path d="M461.4,33.92c0.71,0.71,1.26,1.64,1.35,2.17c0.87,4.9,2.05,10.77,3.29,17.16c0.35,1.8,0.7,3.64,1.05,5.51" style="fill:none;stroke:#999;stroke-width:3"></path>
<path d="M463.23,35.24c14.48-1.65,37.32-3.91,50.14-4.65c3.65-0.21,5.68,1.1,4.92,4.82c-0.63,3.13-1.68,7.56-2.96,12.58c-0.49,1.91-1.01,3.9-1.55,5.94" style="fill:none;stroke:#999;stroke-width:3"></path>
<path d="M488.95,33.44c0.87,0.87,1,2.05,1,3.19c0,4.35-0.01,9.8-0.01,16.23" style="fill:none;stroke:#999;stroke-width:3"></path>

<path d="M586.48,12.24c0,1.01-0.42,2.33-1.05,3.09C581.25,20.38,573.0,28.38,562.75,34.25" style="fill:none;stroke:#999;stroke-width:3"></path>
<path d="M603.5,9c5,0.25,18.38,10.83,25.96,15.44c3.37,2.05,6.2,4.28,10.29,4.77" style="fill:none;stroke:#999;stroke-width:3"></path>
<path d="M570.4,33.92c0.71,0.71,1.26,1.64,1.35,2.17c0.87,4.9,2.05,10.77,3.29,17.16c0.35,1.8,0.7,3.64,1.05,5.51" style="fill:none;stroke:#999;stroke-width:3"></path>
<path d="M572.23,35.24c14.48-1.65,37.32-3.91,50.14-4.65c3.65-0.21,5.68,1.1,4.92,4.82c-0.63,3.13-1.68,7.56-2.96,12.58c-0.49,1.91-1.01,3.9-1.55,5.94" style="fill:none;stroke:#999;stroke-width:3"></path>
<path d="M597.95,33.44c0.87,0.87,1,2.05,1,3.19c0,4.35-0.01,9.8-0.01,16.23" style="fill:none;stroke:#999;stroke-width:3"></path>
<path d="M581.33,40.32c2.75,1.57,6.87,6.45,7.55,8.89" style="fill:none;stroke:#999;stroke-width:3"></path>

<path d="M695.48,12.24c0,1.01-0.42,2.33-1.05,3.09C690.25,20.38,682.0,28.38,671.75,34.25" style="fill:none;stroke:#999;stroke-width:3"></path>
<path d="M712.5,9c5,0.25,18.38,10.83,25.96,15.44c3.37,2.05,6.2,4.28,10.29,4.77" style="fill:none;stroke:#999;stroke-width:3"></path>
<path d="M679.4,33.92c0.71,0.71,1.26,1.64,1.35,2.17c0.87,4.9,2.05,10.77,3.29,17.16c0.35,1.8,0.7,3.64,1.05,5.51" style="fill:none;stroke:#999;stroke-width:3"></path>
<path d="M681.23,35.24c14.48-1.65,37.32-3.91,50.14-4.65c3.65-0.21,5.68,1.1,4.92,4.82c-0.63,3.13-1.68,7.56-2.96,12.58c-0.49,1.91-1.01,3.9-1.55,5.94" style="fill:none;stroke:#999;stroke-width:3"></path>
<path d="M706.95,33.44c0.87,0.87,1,2.05,1,3.19c0,4.35-0.01,9.8-0.01,16.23" style="fill:none;stroke:#999;stroke-width:3"></path>
<path d="M690.33,40.32c2.75,1.57,6.87,6.45,7.55,8.89" style="fill:none;stroke:#999;stroke-width:3"></path>
<path d="M724.58,36.86c0,0.89-0.25,1.73-0.72,2.34c-1.65,2.77-4.61,6.81-8.67,9.91" style="fill:none;stroke:#999;stroke-width:3"></path>

<path d="M804.48,12.24c0,1.01-0.42,2.33-1.05,3.09C799.25,20.38,791.0,28.38,780.75,34.25" style="fill:none;stroke:#999;stroke-width:3"></path>
<path d="M821.5,9c5,0.25,18.38,10.83,25.96,15.44c3.37,2.05,6.2,4.28,10.29,4.77" style="fill:none;stroke:#999;stroke-width:3"></path>
<path d="M788.4,33.92c0.71,0.71,1.26,1.64,1.35,2.17c0.87,4.9,2.05,10.77,3.29,17.16c0.35,1.8,0.7,3.64,1.05,5.51" style="fill:none;stroke:#999;stroke-width:3"></path>
<path d="M790.23,35.24c14.48-1.65,37.32-3.91,50.14-4.65c3.65-0.21,5.68,1.1,4.92,4.82c-0.63,3.13-1.68,7.56-2.96,12.58c-0.49,1.91-1.01,3.9-1.55,5.94" style="fill:none;stroke:#999;stroke-width:3"></path>
<path d="M815.95,33.44c0.87,0.87,1,2.05,1,3.19c0,4.35-0.01,9.8-0.01,16.23" style="fill:none;stroke:#999;stroke-width:3"></path>
<path d="M799.33,40.32c2.75,1.57,6.87,6.45,7.55,8.89" style="fill:none;stroke:#999;stroke-width:3"></path>
<path d="M833.58,36.86c0,0.89-0.25,1.73-0.72,2.34c-1.65,2.77-4.61,6.81-8.67,9.91" style="fill:none;stroke:#999;stroke-width:3"></path>
<path d="M794.81,55.9c14.06-1.65,31.71-3.35,45.34-3.95" style="fill:none;stroke:#999;stroke-width:3"></path>

<path d="M913.48,12.24c0,1.01-0.42,2.33-1.05,3.09C908.25,20.38,900.0,28.38,889.75,34.25" style="fill:none;stroke:#999;stroke-width:3"></path>
<path d="M930.5,9c5,0.25,18.38,10.83,25.96,15.44c3.37,2.05,6.2,4.28,10.29,4.77" style="fill:none;stroke:#999;stroke-width:3"></path>
<path d="M897.4,33.92c0.71,0.71,1.26,1.64,1.35,2.17c0.87,4.9,2.05,10.77,3.29,17.16c0.35,1.8,0.7,3.64,1.05,5.51" style="fill:none;stroke:#999;stroke-width:3"></path>
<path d="M899.23,35.24c14.48-1.65,37.32-3.91,50.14-4.65c3.65-0.21,5.68,1.1,4.92,4.82c-0.63,3.13-1.68,7.56-2.96,12.58c-0.49,1.91-1.01,3.9-1.55,5.94" style="fill:none;stroke:#999;stroke-width:3"></path>
<path d="M924.95,33.44c0.87,0.87,1,2.05,1,3.19c0,4.35-0.01,9.8-0.01,16.23" style="fill:none;stroke:#999;stroke-width:3"></path>
<path d="M908.33,40.32c2.75,1.57,6.87,6.45,7.55,8.89" style="fill:none;stroke:#999;stroke-width:3"></path>
<path d="M942.58,36.86c0,0.89-0.25,1.73-0.72,2.34c-1.65,2.77-4.61,6.81-8.67,9.91" style="fill:none;stroke:#999;stroke-width:3"></path>
<path d="M903.81,55.9c14.06-1.65,31.71-3.35,45.34-3.95" style="fill:none;stroke:#999;stroke-width:3"></path>
<path d="M906.5,65.52c0.8,0.8,1.14,2.06,1.24,3c0.8,6.96,1.76,15.85,2.62,24.48c0.22,2.19,0.43,4.37,0.63,6.5" style="fill:none;stroke:#999;stroke-width:3"></path>

<path d="M1022.48,12.24c0,1.01-0.42,2.33-1.05,3.09C1017.25,20.38,1009.0,28.38,998.75,34.25" style="fill:none;stroke:#999;stroke-width:3"></path>
<path d="M1039.5,9c5,0.25,18.38,10.83,25.96,15.44c3.37,2.05,6.2,4.28,10.29,4.77" style="fill:none;stroke:#999;stroke-width:3"></path>
<path d="M1006.4,33.92c0.71,0.71,1.26,1.64,1.35,2.17c0.87,4.9,2.05,10.77,3.29,17.16c0.35,1.8,0.7,3.64,1.05,5.51" style="fill:none;stroke:#999;stroke-width:3"></path>
<path d="M1008.23,35.24c14.48-1.65,37.32-3.91,50.14-4.65c3.65-0.21,5.68,1.1,4.92,4.82c-0.63,3.13-1.68,7.56-2.96,12.58c-0.49,1.91-1.01,3.9-1.55,5.94" style="fill:none;stroke:#999;stroke-width:3"></path>
<path d="M1033.95,33.44c0.87,0.87,1,2.05,1,3.19c0,4.35-0.01,9.8-0.01,16.23" style="fill:none;stroke:#999;stroke-width:3"></path>
<path d="M1017.33,40.32c2.75,1.57,6.87,6.45,7.55,8.89" style="fill:none;stroke:#999;stroke-width:3"></path>
<path d="M1051.58,36.86c0,0.89-0.25,1.73-0.72,2.34c-1.65,2.77-4.61,6.81-8.67,9.91" style="fill:none;stroke:#999;stroke-width:3"></path>
<path d="M1012.81,55.9c14.06-1.65,31.71-3.35,45.34-3.95" style="fill:none;stroke:#999;stroke-width:3"></path>
<path d="M1015.5,65.52c0.8,0.8,1.14,2.06,1.24,3c0.8,6.96,1.76,15.85,2.62,24.48c0.22,2.19,0.43,4.37,0.63,6.5" style="fill:none;stroke:#999;stroke-width:3"></path>
<path d="M1017.19,67.14c3.93-0.26,26.22-2.28,32.95-2.79c3.78-0.29,5.09,0.78,4.75,4.52c-0.4,4.29-1.24,13.86-2.12,22.5c-0.26,2.52-0.51,4.96-0.77,7.17" style="fill:none;stroke:#999;stroke-width:3"></path>

<path d="M1131.48,12.24c0,1.01-0.42,2.33-1.05,3.09C1126.25,20.38,1118.0,28.38,1107.75,34.25" style="fill:none;stroke:#999;stroke-width:3"></path>
<path d="M1148.5,9c5,0.25,18.38,10.83,25.96,15.44c3.37,2.05,6.2,4.28,10.29,4.77" style="fill:none;stroke:#999;stroke-width:3"></path>
<path d="M1115.4,33.92c0.71,0.71,1.26,1.64,1.35,2.17c0.87,4.9,2.05,10.77,3.29,17.16c0.35,1.8,0.7,3.64,1.05,5.51" style="fill:none;stroke:#999;stroke-width:3"></path>
<path d="M1117.23,35.24c14.48-1.65,37.32-3.91,50.14-4.65c3.65-0.21,5.68,1.1,4.92,4.82c-0.63,3.13-1.68,7.56-2.96,12.58c-0.49,1.91-1.01,3.9-1.55,5.94" style="fill:none;stroke:#999;stroke-width:3"></path>
<path d="M1142.95,33.44c0.87,0.87,1,2.05,1,3.19c0,4.35-0.01,9.8-0.01,16.23" style="fill:none;stroke:#999;stroke-width:3"></path>
<path d="M1126.33,40.32c2.75,1.57,6.87,6.45,7.55,8.89" style="fill:none;stroke:#999;stroke-width:3"></path>
<path d="M1160.58,36.86c0,0.89-0.25,1.73-0.72,2.34c-1.65,2.77-4.61,6.81-8.67,9.91" style="fill:none;stroke:#999;stroke-width:3"></path>
<path d="M1121.81,55.9c14.06-1.65,31.71-3.35,45.34-3.95" style="fill:none;stroke:#999;stroke-width:3"></path>
<path d="M1124.5,65.52c0.8,0.8,1.14,2.06,1.24,3c0.8,6.96,1.76,15.85,2.62,24.48c0.22,2.19,0.43,4.37,0.63,6.5" style="fill:none;stroke:#999;stroke-width:3"></path>
<path d="M1126.19,67.14c3.93-0.26,26.22-2.28,32.95-2.79c3.78-0.29,5.09,0.78,4.75,4.52c-0.4,4.29-1.24,13.86-2.12,22.5c-0.26,2.52-0.51,4.96-0.77,7.17" style="fill:none;stroke:#999;stroke-width:3"></path>
<path d="M1127.9,81.02c7.85-0.52,26.73-1.89,34.67-2.17" style="fill:none;stroke:#999;stroke-width:3"></path>

<path d="M1240.48,12.24c0,1.01-0.42,2.33-1.05,3.09C1235.25,20.38,1227.0,28.38,1216.75,34.25" style="fill:none;stroke:#999;stroke-width:3"></path>
<path d="M1257.5,9c5,0.25,18.38,10.83,25.96,15.44c3.37,2.05,6.2,4.28,10.29,4.77" style="fill:none;stroke:#999;stroke-width:3"></path>
<path d="M1224.4,33.92c0.71,0.71,1.26,1.64,1.35,2.17c0.87,4.9,2.05,10.77,3.29,17.16c0.35,1.8,0.7,3.64,1.05,5.51" style="fill:none;stroke:#999;stroke-width:3"></path>
<path d="M1226.23,35.24c14.48-1.65,37.32-3.91,50.14-4.65c3.65-0.21,5.68,1.1,4.92,4.82c-0.63,3.13-1.68,7.56-2.96,12.58c-0.49,1.91-1.01,3.9-1.55,5.94" style="fill:none;stroke:#999;stroke-width:3"></path>
<path d="M1251.95,33.44c0.87,0.87,1,2.05,1,3.19c0,4.35-0.01,9.8-0.01,16.23" style="fill:none;stroke:#999;stroke-width:3"></path>
<path d="M1235.33,40.32c2.75,1.57,6.87,6.45,7.55,8.89" style="fill:none;stroke:#999;stroke-width:3"></path>
<path d="M1269.58,36.86c0,0.89-0.25,1.73-0.72,2.34c-1.65,2.77-4.61,6.81-8.67,9.91" style="fill:none;stroke:#999;stroke-width:3"></path>
<path d="M1230.81,55.9c14.06-1.65,31.71-3.35,45.34-3.95" style="fill:none;stroke:#999;stroke-width:3"></path>
<path d="M1233.5,65.52c0.8,0.8,1.14,2.06,1.24,3c0.8,6.96,1.76,15.85,2.62,24.48c0.22,2.19,0.43,4.37,0.63,6.5" style="fill:none;stroke:#999;stroke-width:3"></path>
<path d="M1235.19,67.14c3.93-0.26,26.22-2.28,32.95-2.79c3.78-0.29,5.09,0.78,4.75,4.52c-0.4,4.29-1.24,13.86-2.12,22.5c-0.26,2.52-0.51,4.96-0.77,7.17" style="fill:none;stroke:#999;stroke-width:3"></path>
<path d="M1236.9,81.02c7.85-0.52,26.73-1.89,34.67-2.17" style="fill:none;stroke:#999;stroke-width:3"></path>
<path d="M1238.45,96.96c11.93-0.83,21.44-1.6,31.04-1.69" style="fill:none;stroke:#999;stroke-width:3"></path>

</svg>