<svg width="1308px" height="109px" viewBox="0 0 1308 109" xmlns="http://www.w3.org/2000/svg" xmlns:xlink="http://www.w3.org/1999/xlink" xml:space="preserve" version="1.1" baseProfile="full">
<line x1="1" y1="1" x2="1307" y2="1" style="stroke:#ddd;stroke-width:2"></line>
<line x1="1" y1="1" x2="1" y2="108" style="stroke:#ddd;stroke-width:2"></line>
<line x1="1" y1="108" x2="1307" y2="108" style="stroke:#ddd;stroke-width:2"></line>
<line x1="1307" y1="1" x2="1307" y2="108" style="stroke:#ddd;stroke-width:2"></line>
<line x1="109" y1="1" x2="109" y2="108" style="stroke:#ddd;stroke-width:2"></line>
<line x1="218" y1="1" x2="218" y2="108" style="stroke:#ddd;stroke-width:2"></line>
<line x1="327" y1="1" x2="327" y2="108" style="stroke:#ddd;stroke-width:2"></line>
<line x1="436" y1="1" x2="436" y2="108" style="stroke:#ddd;stroke-width:2"></line>
<line x1="545" y1="1" x2="545" y2="108" style="stroke:#ddd;stroke-width:2"></line>
<line x1="654" y1="1" x2="654" y2="108" style="stroke:#ddd;stroke-width:2"></line>
<line x1="763" y1="1" x2="763" y2="108" style="stroke:#ddd;stroke-width:2"></line>
<line x1="872" y1="1" x2="872" y2="108" style="stroke:#ddd;stroke-width:2"></line>
<line x1="981" y1="1" x2="981" y2="108" style="stroke:#ddd;stroke-width:2"></line>
<line x1="1090" y1="1" x2="1090" y2="108" style="stroke:#ddd;stroke-width:2"></line>
<line x1="1199" y1="1" x2="1199" y2="108" style="stroke:#ddd;stroke-width:2"></line>
<line x1="1" y1="54" x2="1307" y2="54" style="stroke:#ddd;stroke-width:2;stroke-dasharray:3 3"></line>
<line x1="55" y1="1" x2="55" y2="108" style="stroke:#ddd;stroke-width:2;stroke-dasharray:3 3"></line>
<line x1="164" y1="1" x2="164" y2="108" style="stroke:#ddd;stroke-width:2;stroke-dasharray:3 3"></line>
<line x1="273" y1="1" x2="273" y2="108" style="stroke:#ddd;stroke-width:2;stroke-dasharray:3 3"></line>
<line x1="382" y1="1" x2="382" y2="108" style="stroke:#ddd;stroke-width:2;stroke-dasharray:3 3"></line>
<line x1="491" y1="1" x2="491" y2="108" style="stroke:#ddd;stroke-width:2;stroke-dasharray:3 3"></line>
<line x1="600" y1="1" x2="600" y2="108" style="stroke:#ddd;stroke-width:2;stroke-dasharray:3 3"></line>
<line x1="709" y1="1" x2="709" y2="108" style="stroke:#ddd;stroke-width:2;stroke-dasharray:3 3"></line>
<line x1="818" y1="1" x2="818" y2="108" style="stroke:#ddd;stroke-width:2;stroke-dasharray:3 3"></line>
<line x1="927" y1="1" x2="927" y2="108" style="stroke:#ddd;stroke-width:2;stroke-dasharray:3 3"></line>
<line x1="1036" y1="1" x2="1036" y2="108" style="stroke:#ddd;stroke-width:2;stroke-dasharray:3 3"></line>
<line x1="1145" y1="1" x2="1145" y2="108" style="stroke:#ddd;stroke-width:2;stroke-dasharray:3 3"></line>
<line x1="1254" y1="1" x2="1254" y2="108" style="stroke:#ddd;stroke-width:2;stroke-dasharray:3 3"></line>
<path d="M16.88,27.13c1.87,0.37,4.34,0.34,5.62,0.12c7.35-1.23,18.38-2.86,24.74-3.37c1.6-0.13,4.33-0.68,5.89-0.07" style="fill:none;stroke:#999;stroke-width:3"></path>

<path d="M125.88,27.13c1.87,0.37,4.34,0.34,5.62,0.12c7.35-1.23,18.38-2.86,24.74-3.37c1.6-0.13,4.33-0.68,5.89-0.07" style="fill:none;stroke:#999;stroke-width:3"></path>
<path d="M142.9,11.75c1.1,1,1.76,2.5,1.76,3.7c0,0.68,0.2,16.33,0.12,20.55" style="fill:none;stroke:#999;stroke-width:3"></path>

<path d="M234.88,27.13c1.87,0.37,4.34,0.34,5.62,0.12c7.35-1.23,18.38-2.86,24.74-3.37c1.6-0.13,4.33-0.68,5.89-0.07" style="fill:none;stroke:#999;stroke-width:3"></path>
<path d="M251.9,11.75c1.1,1,1.76,2.5,1.76,3.7c0,0.68,0.2,16.33,0.12,20.55" style="fill:none;stroke:#999;stroke-width:3"></path>
<path d="M235.77,38.44c1.23,0.81,2.01,2.14,2.2,3.32c0.72,4.38,3.12,18.94,3.12,19.29c0,0.4,0.13,1.4,0.26,2.2" style="fill:none;stroke:#999;stroke-width:3"></path>

<path d="M343.88,27.13c1.87,0.37,4.34,0.34,5.62,0.12c7.35-1.23,18.38-2.86,24.74-3.37c1.6-0.13,4.33-0.68,5.89-0.07" style="fill:none;stroke:#999;stroke-width:3"></path>
<path d="M360.9,11.75c1.1,1,1.76,2.5,1.76,3.7c0,0.68,0.2,16.33,0.12,20.55" style="fill:none;stroke:#999;stroke-width:3"></path>
<path d="M344.77,38.44c1.23,0.81,2.01,2.14,2.2,3.32c0.72,4.38,3.12,18.94,3.12,19.29c0,0.4,0.13,1.4,0.26,2.2" style="fill:none;stroke:#999;stroke-width:3"></path>
<path d="M347.76,39.32c8.12-1.32,23.99-3.44,29.06-3.83c2.06-0.16,3.43,1.26,3.15,3.7C379.45,43.78,378.0,52.5,377.0,57.5c-0.18,0.89-0.49,2.6-0.49,3.2" style="fill:none;stroke:#999;stroke-width:3"></path>

<path d="M452.88,27.13c1.87,0.37,4.34,0.34,5.62,0.12c7.35-1.23,18.38-2.86,24.74-3.37c1.6-0.13,4.33-0.68,5.89-0.07" style="fill:none;stroke:#999;stroke-width:3"></path>
<path d="M469.9,11.75c1.1,1,1.76,2.5,1.76,3.7c0,0.68,0.2,16.33,0.12,20.55" style="fill:none;stroke:#999;stroke-width:3"></path>
<path d="M453.77,38.44c1.23,0.81,2.01,2.14,2.2,3.32c0.72,4.38,3.12,18.94,3.12,19.29c0,0.4,0.13,1.4,0.26,2.2" style="fill:none;stroke:#999;stroke-width:3"></path>
<path d="M456.76,39.32c8.12-1.32,23.99-3.44,29.06-3.83c2.06-0.16,3.43,1.26,3.15,3.7C488.45,43.78,487.0,52.5,486.0,57.5c-0.18,0.89-0.49,2.6-0.49,3.2" style="fill:none;stroke:#999;stroke-width:3"></path>
<path d="M458.87,50.38c6.5-0.88,23-3.25,27.66-3.65" style="fill:none;stroke:#999;stroke-width:3"></path>

<path d="M561.88,27.13c1.87,0.37,4.34,0.34,5.62,0.12c7.35-1.23,18.38-2.86,24.74-3.37c1.6-0.13,4.33-0.68,5.89-0.07" style="fill:none;stroke:#999;stroke-width:3"></path>
<path d="M578.9,11.75c1.1,1,1.76,2.5,1.76,3.7c0,0.68,0.2,16.33,0.12,20.55" style="fill:none;stroke:#999;stroke-width:3"></path>
<path d="M562.77,38.44c1.23,0.81,2.01,2.14,2.2,3.32c0.72,4.38,3.12,18.94,3.12,19.29c0,0.4,0.13,1.4,0.26,2.2" style="fill:none;stroke:#999;stroke-width:3"></path>
<path d="M565.76,39.32c8.12-1.32,23.99-3.44,29.06-3.83c2.06-0.16,3.43,1.26,3.15,3.7C597.45,43.78,596.0,52.5,595.0,57.5c-0.18,0.89-0.49,2.6-0.49,3.2" style="fill:none;stroke:#999;stroke-width:3"></path>
<path d="M567.87,50.38c6.5-0.88,23-3.25,27.66-3.65" style="fill:none;stroke:#999;stroke-width:3"></path>
<path d="M569.51,61c6.86-0.75,16.99-2.25,24.07-2.95" style="fill:none;stroke:#999;stroke-width:3"></path>

<path d="M670.88,27.13c1.87,0.37,4.34,0.34,5.62,0.12c7.35-1.23,18.38-2.86,24.74-3.37c1.6-0.13,4.33-0.68,5.89-0.07" style="fill:none;stroke:#999;stroke-width:3"></path>
<path d="M687.9,11.75c1.1,1,1.76,2.5,1.76,3.7c0,0.68,0.2,16.33,0.12,20.55" style="fill:none;stroke:#999;stroke-width:3"></path>
<path d="M671.77,38.44c1.23,0.81,2.01,2.14,2.2,3.32c0.72,4.38,3.12,18.94,3.12,19.29c0,0.4,0.13,1.4,0.26,2.2" style="fill:none;stroke:#999;stroke-width:3"></path>
<path d="M674.76,39.32c8.12-1.32,23.99-3.44,29.06-3.83c2.06-0.16,3.43,1.26,3.15,3.7C706.45,43.78,705.0,52.5,704.0,57.5c-0.18,0.89-0.49,2.6-0.49,3.2" style="fill:none;stroke:#999;stroke-width:3"></path>
<path d="M676.87,50.38c6.5-0.88,23-3.25,27.66-3.65" style="fill:none;stroke:#999;stroke-width:3"></path>
<path d="M678.51,61c6.86-0.75,16.99-2.25,24.07-2.95" style="fill:none;stroke:#999;stroke-width:3"></path>
<path d="M664.13,75.13c2.12,0.75,5.25,0.78,6.99,0.5C685.0,73.38,696.55,71.25,706.62,70.5c1.8-0.13,4.61-0.19,5.51,0.06" style="fill:none;stroke:#999;stroke-width:3"></path>

<path d="M779.88,27.13c1.87,0.37,4.34,0.34,5.62,0.12c7.35-1.23,18.38-2.86,24.74-3.37c1.6-0.13,4.33-0.68,5.89-0.07" style="fill:none;stroke:#999;stroke-width:3"></path>
<path d="M796.9,11.75c1.1,1,1.76,2.5,1.76,3.7c0,0.68,0.2,16.33,0.12,20.55" style="fill:none;stroke:#999;stroke-width:3"></path>
<path d="M780.77,38.44c1.23,0.81,2.01,2.14,2.2,3.32c0.72,4.38,3.12,18.94,3.12,19.29c0,0.4,0.13,1.4,0.26,2.2" style="fill:none;stroke:#999;stroke-width:3"></path>
<path d="M783.76,39.32c8.12-1.32,23.99-3.44,29.06-3.83c2.06-0.16,3.43,1.26,3.15,3.7C815.45,43.78,814.0,52.5,813.0,57.5c-0.18,0.89-0.49,2.6-0.49,3.2" style="fill:none;stroke:#999;stroke-width:3"></path>
<path d="M785.87,50.38c6.5-0.88,23-3.25,27.66-3.65" style="fill:none;stroke:#999;stroke-width:3"></path>
<path d="M787.51,61c6.86-0.75,16.99-2.25,24.07-2.95" style="fill:none;stroke:#999;stroke-width:3"></path>
<path d="M773.13,75.13c2.12,0.75,5.25,0.78,6.99,0.5C794.0,73.38,805.55,71.25,815.62,70.5c1.8-0.13,4.61-0.19,5.51,0.06" style="fill:none;stroke:#999;stroke-width:3"></path>
<path d="M797.65,62c1.11,1.11,1.51,2.5,1.51,3.95c0,5.55-0.01,16.22-0.08,24.8c-0.02,2.07-0.03,3.68-0.05,4.5" style="fill:none;stroke:#999;stroke-width:3"></path>

<path d="M888.88,27.13c1.87,0.37,4.34,0.34,5.62,0.12c7.35-1.23,18.38-2.86,24.74-3.37c1.6-0.13,4.33-0.68,5.89-0.07" style="fill:none;stroke:#999;stroke-width:3"></path>
<path d="M905.9,11.75c1.1,1,1.76,2.5,1.76,3.7c0,0.68,0.2,16.33,0.12,20.55" style="fill:none;stroke:#999;stroke-width:3"></path>
<path d="M889.77,38.44c1.23,0.81,2.01,2.14,2.2,3.32c0.72,4.38,3.12,18.94,3.12,19.29c0,0.4,0.13,1.4,0.26,2.2" style="fill:none;stroke:#999;stroke-width:3"></path>
<path d="M892.76,39.32c8.12-1.32,23.99-3.44,29.06-3.83c2.06-0.16,3.43,1.26,3.15,3.7C924.45,43.78,923.0,52.5,922.0,57.5c-0.18,0.89-0.49,2.6-0.49,3.2" style="fill:none;stroke:#999;stroke-width:3"></path>
<path d="M894.87,50.38c6.5-0.88,23-3.25,27.66-3.65" style="fill:none;stroke:#999;stroke-width:3"></path>
<path d="M896.51,61c6.86-0.75,16.99-2.25,24.07-2.95" style="fill:none;stroke:#999;stroke-width:3"></path>
<path d="M882.13,75.13c2.12,0.75,5.25,0.78,6.99,0.5C903.0,73.38,914.55,71.25,924.62,70.5c1.8-0.13,4.61-0.19,5.51,0.06" style="fill:none;stroke:#999;stroke-width:3"></path>
<path d="M906.65,62c1.11,1.11,1.51,2.5,1.51,3.95c0,5.55-0.01,16.22-0.08,24.8c-0.02,2.07-0.03,3.68-0.05,4.5" style="fill:none;stroke:#999;stroke-width:3"></path>
<path d="M937.6,20.73c0.9,0.9,1.68,2.25,1.73,3.28C941.0,59.5,936.75,81.5,926.75,93" style="fill:none;stroke:#999;stroke-width:3"></path>

<path d="M997.88,27.13c1.87,0.37,4.34,0.34,5.62,0.12c7.35-1.23,18.38-2.86,24.74-3.37c1.6-0.13,4.33-0.68,5.89-0.07" style="fill:none;stroke:#999;stroke-width:3"></path>
<path d="M1014.9,11.75c1.1,1,1.76,2.5,1.76,3.7c0,0.68,0.2,16.33,0.12,20.55" style="fill:none;stroke:#999;stroke-width:3"></path>
<path d="M998.77,38.44c1.23,0.81,2.01,2.14,2.2,3.32c0.72,4.38,3.12,18.94,3.12,19.29c0,0.4,0.13,1.4,0.26,2.2" style="fill:none;stroke:#999;stroke-width:3"></path>
<path d="M1001.76,39.32c8.12-1.32,23.99-3.44,29.06-3.83c2.06-0.16,3.43,1.26,3.15,3.7C1033.45,43.78,1032.0,52.5,1031.0,57.5c-0.18,0.89-0.49,2.6-0.49,3.2" style="fill:none;stroke:#999;stroke-width:3"></path>
<path d="M1003.87,50.38c6.5-0.88,23-3.25,27.66-3.65" style="fill:none;stroke:#999;stroke-width:3"></path>
<path d="M1005.51,61c6.86-0.75,16.99-2.25,24.07-2.95" style="fill:none;stroke:#999;stroke-width:3"></path>
<path d="M991.13,75.13c2.12,0.75,5.25,0.78,6.99,0.5C1012.0,73.38,1023.55,71.25,1033.62,70.5c1.8-0.13,4.61-0.19,5.51,0.06" style="fill:none;stroke:#999;stroke-width:3"></path>
<path d="M1015.65,62c1.11,1.11,1.51,2.5,1.51,3.95c0,5.55-0.01,16.22-0.08,24.8c-0.02,2.07-0.03,3.68-0.05,4.5" style="fill:none;stroke:#999;stroke-width:3"></path>
<path d="M1046.6,20.73c0.9,0.9,1.68,2.25,1.73,3.28C1050.0,59.5,1045.75,81.5,1035.75,93" style="fill:none;stroke:#999;stroke-width:3"></path>
<path d="M1048.86,21.83c5.79-1.02,19.48-3.54,20.83-3.83c2.32-0.5,4.58,0.62,4.58,3.29c0,2.46-0.11,49.96-0.11,70.41c0,10.8-6.41,1.8-8.44-0.23" style="fill:none;stroke:#999;stroke-width:3"></path>

<path d="M1106.88,27.13c1.87,0.37,4.34,0.34,5.62,0.12c7.35-1.23,18.38-2.86,24.74-3.37c1.6-0.13,4.33-0.68,5.89-0.07" style="fill:none;stroke:#999;stroke-width:3"></path>
<path d="M1123.9,11.75c1.1,1,1.76,2.5,1.76,3.7c0,0.68,0.2,16.33,0.12,20.55" style="fill:none;stroke:#999;stroke-width:3"></path>
<path d="M1107.77,38.44c1.23,0.81,2.01,2.14,2.2,3.32c0.72,4.38,3.12,18.94,3.12,19.29c0,0.4,0.13,1.4,0.26,2.2" style="fill:none;stroke:#999;stroke-width:3"></path>
<path d="M1110.76,39.32c8.12-1.32,23.99-3.44,29.06-3.83c2.06-0.16,3.43,1.26,3.15,3.7C1142.45,43.78,1141.0,52.5,1140.0,57.5c-0.18,0.89-0.49,2.6-0.49,3.2" style="fill:none;stroke:#999;stroke-width:3"></path>
<path d="M1112.87,50.38c6.5-0.88,23-3.25,27.66-3.65" style="fill:none;stroke:#999;stroke-width:3"></path>
<path d="M1114.51,61c6.86-0.75,16.99-2.25,24.07-2.95" style="fill:none;stroke:#999;stroke-width:3"></path>
<path d="M1100.13,75.13c2.12,0.75,5.25,0.78,6.99,0.5C1121.0,73.38,1132.55,71.25,1142.62,70.5c1.8-0.13,4.61-0.19,5.51,0.06" style="fill:none;stroke:#999;stroke-width:3"></path>
<path d="M1124.65,62c1.11,1.11,1.51,2.5,1.51,3.95c0,5.55-0.01,16.22-0.08,24.8c-0.02,2.07-0.03,3.68-0.05,4.5" style="fill:none;stroke:#999;stroke-width:3"></path>
<path d="M1155.6,20.73c0.9,0.9,1.68,2.25,1.73,3.28C1159.0,59.5,1154.75,81.5,1144.75,93" style="fill:none;stroke:#999;stroke-width:3"></path>
<path d="M1157.86,21.83c5.79-1.02,19.48-3.54,20.83-3.83c2.32-0.5,4.58,0.62,4.58,3.29c0,2.46-0.11,49.96-0.11,70.41c0,10.8-6.41,1.8-8.44-0.23" style="fill:none;stroke:#999;stroke-width:3"></path>
<path d="M1159.05,40.67c6.45-0.92,15.95-1.92,22.79-2.73" style="fill:none;stroke:#999;stroke-width:3"></path>

<path d="M1215.88,27.13c1.87,0.37,4.34,0.34,5.62,0.12c7.35-1.23,18.38-2.86,24.74-3.37c1.6-0.13,4.33-0.68,5.89-0.07" style="fill:none;stroke:#999;stroke-width:3"></path>
<path d="M1232.9,11.75c1.1,1,1.76,2.5,1.76,3.7c0,0.68,0.2,16.33,0.12,20.55" style="fill:none;stroke:#999;stroke-width:3"></path>
<path d="M1216.77,38.44c1.23,0.81,2.01,2.14,2.2,3.32c0.72,4.38,3.12,18.94,3.12,19.29c0,0.4,0.13,1.4,0.26,2.2" style="fill:none;stroke:#999;stroke-width:3"></path>
<path d="M1219.76,39.32c8.12-1.32,23.99-3.44,29.06-3.83c2.06-0.16,3.43,1.26,3.15,3.7C1251.45,43.78,1250.0,52.5,1249.0,57.5c-0.18,0.89-0.49,2.6-0.49,3.2" style="fill:none;stroke:#999;stroke-width:3"></path>
<path d="M1221.87,50.38c6.5-0.88,23-3.25,27.66-3.65" style="fill:none;stroke:#999;stroke-width:3"></path>
<path d="M1223.51,61c6.86-0.75,16.99-2.25,24.07-2.95" style="fill:none;stroke:#999;stroke-width:3"></path>
<path d="M1209.13,75.13c2.12,0.75,5.25,0.78,6.99,0.5C1230.0,73.38,1241.55,71.25,1251.62,70.5c1.8-0.13,4.61-0.19,5.51,0.06" style="fill:none;stroke:#999;stroke-width:3"></path>
<path d="M1233.65,62c1.11,1.11,1.51,2.5,1.51,3.95c0,5.55-0.01,16.22-0.08,24.8c-0.02,2.07-0.03,3.68-0.05,4.5" style="fill:none;stroke:#999;stroke-width:3"></path>
<path d="M1264.6,20.73c0.9,0.9,1.68,2.25,1.73,3.28C1268.0,59.5,1263.75,81.5,1253.75,93" style="fill:none;stroke:#999;stroke-width:3"></path>
<path d="M1266.86,21.83c5.79-1.02,19.48-3.54,20.83-3.83c2.32-0.5,4.58,0.62,4.58,3.29c0,2.46-0.11,49.96-0.11,70.41c0,10.8-6.41,1.8-8.44-0.23" style="fill:none;stroke:#999;stroke-width:3"></path>
<path d="M1268.05,40.67c6.45-0.92,15.95-1.92,22.79-2.73" style="fill:none;stroke:#999;stroke-width:3"></path>
<path d="M1266.66,60.85c6.53-0.76,16.72-1.72,24.27-2.23" style="fill:none;stroke:#999;stroke-width:3"></path>

</svg>