<svg width="654px" height="109px" viewBox="0 0 654 109" xmlns="http://www.w3.org/2000/svg" xmlns:xlink="http://www.w3.org/1999/xlink" xml:space="preserve" version="1.1" baseProfile="full">
<line x1="1" y1="1" x2="653" y2="1" style="stroke:#ddd;stroke-width:2"></line>
<line x1="1" y1="1" x2="1" y2="108" style="stroke:#ddd;stroke-width:2"></line>
<line x1="1" y1="108" x2="653" y2="108" style="stroke:#ddd;stroke-width:2"></line>
<line x1="653" y1="1" x2="653" y2="108" style="stroke:#ddd;stroke-width:2"></line>
<line x1="109" y1="1" x2="109" y2="108" style="stroke:#ddd;stroke-width:2"></line>
<line x1="218" y1="1" x2="218" y2="108" style="stroke:#ddd;stroke-width:2"></line>
<line x1="327" y1="1" x2="327" y2="108" style="stroke:#ddd;stroke-width:2"></line>
<line x1="436" y1="1" x2="436" y2="108" style="stroke:#ddd;stroke-width:2"></line>
<line x1="545" y1="1" x2="545" y2="108" style="stroke:#ddd;stroke-width:2"></line>
<line x1="1" y1="54" x2="653" y2="54" style="stroke:#ddd;stroke-width:2;stroke-dasharray:3 3"></line>
<line x1="55" y1="1" x2="55" y2="108" style="stroke:#ddd;stroke-width:2;stroke-dasharray:3 3"></line>
<line x1="164" y1="1" x2="164" y2="108" style="stroke:#ddd;stroke-width:2;stroke-dasharray:3 3"></line>
<line x1="273" y1="1" x2="273" y2="108" style="stroke:#ddd;stroke-width:2;stroke-dasharray:3 3"></line>
<line x1="382" y1="1" x2="382" y2="108" style="stroke:#ddd;stroke-width:2;stroke-dasharray:3 3"></line>
<line x1="491" y1="1" x2="491" y2="108" style="stroke:#ddd;stroke-width:2;stroke-dasharray:3 3"></line>
<line x1="600" y1="1" x2="600" y2="108" style="stroke:#ddd;stroke-width:2;stroke-dasharray:3 3"></line>
<path d="M13.78,36.5c0.37,0.23,2.55,0.38,3.53,0.29c4.21-0.38,17.78-2.07,24.54-3.2c0.98-0.16,2.3-0.23,2.91,0" style="fill:none;stroke:#999;stroke-width:3"></path>

<path d="M122.78,36.5c0.37,0.23,2.55,0.38,3.53,0.29c4.21-0.38,17.78-2.07,24.54-3.2c0.98-0.16,2.3-0.23,2.91,0" style="fill:none;stroke:#999;stroke-width:3"></path>
<path d="M137.86,14.5c0.91,0.47,2.54,2.25,2.54,4.42c0,0.95-0.12,68.75-0.3,74.58" style="fill:none;stroke:#999;stroke-width:3"></path>

<path d="M231.78,36.5c0.37,0.23,2.55,0.38,3.53,0.29c4.21-0.38,17.78-2.07,24.54-3.2c0.98-0.16,2.3-0.23,2.91,0" style="fill:none;stroke:#999;stroke-width:3"></path>
<path d="M246.86,14.5c0.91,0.47,2.54,2.25,2.54,4.42c0,0.95-0.12,68.75-0.3,74.58" style="fill:none;stroke:#999;stroke-width:3"></path>
<path d="M248.94,39.28c-5.98,15.91-9.31,22.63-18.58,36.56" style="fill:none;stroke:#999;stroke-width:3"></path>

<path d="M340.78,36.5c0.37,0.23,2.55,0.38,3.53,0.29c4.21-0.38,17.78-2.07,24.54-3.2c0.98-0.16,2.3-0.23,2.91,0" style="fill:none;stroke:#999;stroke-width:3"></path>
<path d="M355.86,14.5c0.91,0.47,2.54,2.25,2.54,4.42c0,0.95-0.12,68.75-0.3,74.58" style="fill:none;stroke:#999;stroke-width:3"></path>
<path d="M357.94,39.28c-5.98,15.91-9.31,22.63-18.58,36.56" style="fill:none;stroke:#999;stroke-width:3"></path>
<path d="M361.47,45.9c2.37,1.59,7.78,8.1,9.28,11.85" style="fill:none;stroke:#999;stroke-width:3"></path>

<path d="M449.78,36.5c0.37,0.23,2.55,0.38,3.53,0.29c4.21-0.38,17.78-2.07,24.54-3.2c0.98-0.16,2.3-0.23,2.91,0" style="fill:none;stroke:#999;stroke-width:3"></path>
<path d="M464.86,14.5c0.91,0.47,2.54,2.25,2.54,4.42c0,0.95-0.12,68.75-0.3,74.58" style="fill:none;stroke:#999;stroke-width:3"></path>
<path d="M466.94,39.28c-5.98,15.91-9.31,22.63-18.58,36.56" style="fill:none;stroke:#999;stroke-width:3"></path>
<path d="M470.47,45.9c2.37,1.59,7.78,8.1,9.28,11.85" style="fill:none;stroke:#999;stroke-width:3"></path>
<path d="M484.90999999999997,41.53c1.1,0.69,2.46,0.51,3.44,0.37c9.19-1.35,31.14-3.91,35.53-4.16c4.37-0.25,4.63,2.06,4.47,5.26c-0.41,8.46-7.16,41.28-12.33,47.23c-5,5.75-6.38,0.31-7.52-0.69" style="fill:none;stroke:#999;stroke-width:3"></path>

<path d="M558.78,36.5c0.37,0.23,2.55,0.38,3.53,0.29c4.21-0.38,17.78-2.07,24.54-3.2c0.98-0.16,2.3-0.23,2.91,0" style="fill:none;stroke:#999;stroke-width:3"></path>
<path d="M573.86,14.5c0.91,0.47,2.54,2.25,2.54,4.42c0,0.95-0.12,68.75-0.3,74.58" style="fill:none;stroke:#999;stroke-width:3"></path>
<path d="M575.94,39.28c-5.98,15.91-9.31,22.63-18.58,36.56" style="fill:none;stroke:#999;stroke-width:3"></path>
<path d="M579.47,45.9c2.37,1.59,7.78,8.1,9.28,11.85" style="fill:none;stroke:#999;stroke-width:3"></path>
<path d="M593.91,41.53c1.1,0.69,2.46,0.51,3.44,0.37c9.19-1.35,31.14-3.91,35.53-4.16c4.37-0.25,4.63,2.06,4.47,5.26c-0.41,8.46-7.16,41.28-12.33,47.23c-5,5.75-6.38,0.31-7.52-0.69" style="fill:none;stroke:#999;stroke-width:3"></path>
<path d="M614.4300000000001,14.18c0.82,1.82,0.93,3.11,0.86,5.69C614.75,38,607.25,74.75,589.89,91.65" style="fill:none;stroke:#999;stroke-width:3"></path>

</svg>