<svg width="654px" height="109px" viewBox="0 0 654 109" xmlns="http://www.w3.org/2000/svg" xmlns:xlink="http://www.w3.org/1999/xlink" xml:space="preserve" version="1.1" baseProfile="full">
<line x1="1" y1="1" x2="653" y2="1" style="stroke:#ddd;stroke-width:2"></line>
<line x1="1" y1="1" x2="1" y2="108" style="stroke:#ddd;stroke-width:2"></line>
<line x1="1" y1="108" x2="653" y2="108" style="stroke:#ddd;stroke-width:2"></line>
<line x1="653" y1="1" x2="653" y2="108" style="stroke:#ddd;stroke-width:2"></line>
<line x1="109" y1="1" x2="109" y2="108" style="stroke:#ddd;stroke-width:2"></line>
<line x1="218" y1="1" x2="218" y2="108" style="stroke:#ddd;stroke-width:2"></line>
<line x1="327" y1="1" x2="327" y2="108" style="stroke:#ddd;stroke-width:2"></line>
<line x1="436" y1="1" x2="436" y2="108" style="stroke:#ddd;stroke-width:2"></line>
<line x1="545" y1="1" x2="545" y2="108" style="stroke:#ddd;stroke-width:2"></line>
<line x1="1" y1="54" x2="653" y2="54" style="stroke:#ddd;stroke-width:2;stroke-dasharray:3 3"></line>
<line x1="55" y1="1" x2="55" y2="108" style="stroke:#ddd;stroke-width:2;stroke-dasharray:3 3"></line>
<line x1="164" y1="1" x2="164" y2="108" style="stroke:#ddd;stroke-width:2;stroke-dasharray:3 3"></line>
<line x1="273" y1="1" x2="273" y2="108" style="stroke:#ddd;stroke-width:2;stroke-dasharray:3 3"></line>
<line x1="382" y1="1" x2="382" y2="108" style="stroke:#ddd;stroke-width:2;stroke-dasharray:3 3"></line>
<line x1="491" y1="1" x2="491" y2="108" style="stroke:#ddd;stroke-width:2;stroke-dasharray:3 3"></line>
<line x1="600" y1="1" x2="600" y2="108" style="stroke:#ddd;stroke-width:2;stroke-dasharray:3 3"></line>
<path d="M11.28,38.52c0.36,0.29,2.5,0.49,3.47,0.37c4.13-0.48,20.03-1.43,26.66-2.87c0.96-0.21,2.25-0.29,2.86,0" style="fill:none;stroke:#999;stroke-width:3"></path>

<path d="M120.28,38.52c0.36,0.29,2.5,0.49,3.47,0.37c4.13-0.48,20.03-1.43,26.66-2.87c0.96-0.21,2.25-0.29,2.86,0" style="fill:none;stroke:#999;stroke-width:3"></path>
<path d="M136.86,15.5c0.91,0.47,1.86,3.49,2.04,4.42c0.18,0.93-0.12,70.75-0.3,76.58" style="fill:none;stroke:#999;stroke-width:3"></path>

<path d="M229.28,38.52c0.36,0.29,2.5,0.49,3.47,0.37c4.13-0.48,20.03-1.43,26.66-2.87c0.96-0.21,2.25-0.29,2.86,0" style="fill:none;stroke:#999;stroke-width:3"></path>
<path d="M245.86,15.5c0.91,0.47,1.86,3.49,2.04,4.42c0.18,0.93-0.12,70.75-0.3,76.58" style="fill:none;stroke:#999;stroke-width:3"></path>
<path d="M247.94,39.28c-5.82,16.02-9.06,22.79-18.08,36.81" style="fill:none;stroke:#999;stroke-width:3"></path>

<path d="M338.28,38.52c0.36,0.29,2.5,0.49,3.47,0.37c4.13-0.48,20.03-1.43,26.66-2.87c0.96-0.21,2.25-0.29,2.86,0" style="fill:none;stroke:#999;stroke-width:3"></path>
<path d="M354.86,15.5c0.91,0.47,1.86,3.49,2.04,4.42c0.18,0.93-0.12,70.75-0.3,76.58" style="fill:none;stroke:#999;stroke-width:3"></path>
<path d="M356.94,39.28c-5.82,16.02-9.06,22.79-18.08,36.81" style="fill:none;stroke:#999;stroke-width:3"></path>
<path d="M359.97,46.65c2.74,2.03,8.85,6.45,11.16,10.39" style="fill:none;stroke:#999;stroke-width:3"></path>

<path d="M447.28,38.52c0.36,0.29,2.5,0.49,3.47,0.37c4.13-0.48,20.03-1.43,26.66-2.87c0.96-0.21,2.25-0.29,2.86,0" style="fill:none;stroke:#999;stroke-width:3"></path>
<path d="M463.86,15.5c0.91,0.47,1.86,3.49,2.04,4.42c0.18,0.93-0.12,70.75-0.3,76.58" style="fill:none;stroke:#999;stroke-width:3"></path>
<path d="M465.94,39.28c-5.82,16.02-9.06,22.79-18.08,36.81" style="fill:none;stroke:#999;stroke-width:3"></path>
<path d="M468.97,46.65c2.74,2.03,8.85,6.45,11.16,10.39" style="fill:none;stroke:#999;stroke-width:3"></path>
<path d="M501.63,41.5C496.94,59.51,486.75,84,475.0,95.17" style="fill:none;stroke:#999;stroke-width:3"></path>

<path d="M556.28,38.52c0.36,0.29,2.5,0.49,3.47,0.37c4.13-0.48,20.03-1.43,26.66-2.87c0.96-0.21,2.25-0.29,2.86,0" style="fill:none;stroke:#999;stroke-width:3"></path>
<path d="M572.86,15.5c0.91,0.47,1.86,3.49,2.04,4.42c0.18,0.93-0.12,70.75-0.3,76.58" style="fill:none;stroke:#999;stroke-width:3"></path>
<path d="M574.94,39.28c-5.82,16.02-9.06,22.79-18.08,36.81" style="fill:none;stroke:#999;stroke-width:3"></path>
<path d="M577.97,46.65c2.74,2.03,8.85,6.45,11.16,10.39" style="fill:none;stroke:#999;stroke-width:3"></path>
<path d="M610.63,41.5C605.94,59.51,595.75,84,584.0,95.17" style="fill:none;stroke:#999;stroke-width:3"></path>
<path d="M601.36,16.75c1.31,0,3.25,1.94,3.62,3.64C613.5,60,621.25,73.25,635.22,89.89c1.37,1.63,3.63,3.3,4.78,3.86" style="fill:none;stroke:#999;stroke-width:3"></path>

</svg>