<svg width="763px" height="109px" viewBox="0 0 763 109" xmlns="http://www.w3.org/2000/svg" xmlns:xlink="http://www.w3.org/1999/xlink" xml:space="preserve" version="1.1" baseProfile="full">
<line x1="1" y1="1" x2="762" y2="1" style="stroke:#ddd;stroke-width:2"></line>
<line x1="1" y1="1" x2="1" y2="108" style="stroke:#ddd;stroke-width:2"></line>
<line x1="1" y1="108" x2="762" y2="108" style="stroke:#ddd;stroke-width:2"></line>
<line x1="762" y1="1" x2="762" y2="108" style="stroke:#ddd;stroke-width:2"></line>
<line x1="109" y1="1" x2="109" y2="108" style="stroke:#ddd;stroke-width:2"></line>
<line x1="218" y1="1" x2="218" y2="108" style="stroke:#ddd;stroke-width:2"></line>
<line x1="327" y1="1" x2="327" y2="108" style="stroke:#ddd;stroke-width:2"></line>
<line x1="436" y1="1" x2="436" y2="108" style="stroke:#ddd;stroke-width:2"></line>
<line x1="545" y1="1" x2="545" y2="108" style="stroke:#ddd;stroke-width:2"></line>
<line x1="654" y1="1" x2="654" y2="108" style="stroke:#ddd;stroke-width:2"></line>
<line x1="1" y1="54" x2="762" y2="54" style="stroke:#ddd;stroke-width:2;stroke-dasharray:3 3"></line>
<line x1="55" y1="1" x2="55" y2="108" style="stroke:#ddd;stroke-width:2;stroke-dasharray:3 3"></line>
<line x1="164" y1="1" x2="164" y2="108" style="stroke:#ddd;stroke-width:2;stroke-dasharray:3 3"></line>
<line x1="273" y1="1" x2="273" y2="108" style="stroke:#ddd;stroke-width:2;stroke-dasharray:3 3"></line>
<line x1="382" y1="1" x2="382" y2="108" style="stroke:#ddd;stroke-width:2;stroke-dasharray:3 3"></line>
<line x1="491" y1="1" x2="491" y2="108" style="stroke:#ddd;stroke-width:2;stroke-dasharray:3 3"></line>
<line x1="600" y1="1" x2="600" y2="108" style="stroke:#ddd;stroke-width:2;stroke-dasharray:3 3"></line>
<line x1="709" y1="1" x2="709" y2="108" style="stroke:#ddd;stroke-width:2;stroke-dasharray:3 3"></line>
<path d="M12.78,39.23c1.97,0.4,3.24,0.35,4.68,0.23c6.92-0.58,18.93-1.85,28.85-2.73c1.44-0.13,1.8-0.18,2.71,0" style="fill:none;stroke:#999;stroke-width:3"></path>

<path d="M121.78,39.23c1.97,0.4,3.24,0.35,4.68,0.23c6.92-0.58,18.93-1.85,28.85-2.73c1.44-0.13,1.8-0.18,2.71,0" style="fill:none;stroke:#999;stroke-width:3"></path>
<path d="M143.11,13.5c1.13,1.13,2.29,3,2.29,5.34c0,0.83-0.08,48.97-0.22,67.91c-0.03,3.54-0.05,6.55-0.08,7.5" style="fill:none;stroke:#999;stroke-width:3"></path>

<path d="M230.78,39.23c1.97,0.4,3.24,0.35,4.68,0.23c6.92-0.58,18.93-1.85,28.85-2.73c1.44-0.13,1.8-0.18,2.71,0" style="fill:none;stroke:#999;stroke-width:3"></path>
<path d="M252.11,13.5c1.13,1.13,2.29,3,2.29,5.34c0,0.83-0.08,48.97-0.22,67.91c-0.03,3.54-0.05,6.55-0.08,7.5" style="fill:none;stroke:#999;stroke-width:3"></path>
<path d="M253.44,39.32c0,0.93-0.26,1.58-0.6,2.35C248.38,51.75,241.0,63.5,233.11,72.76" style="fill:none;stroke:#999;stroke-width:3"></path>

<path d="M339.78,39.23c1.97,0.4,3.24,0.35,4.68,0.23c6.92-0.58,18.93-1.85,28.85-2.73c1.44-0.13,1.8-0.18,2.71,0" style="fill:none;stroke:#999;stroke-width:3"></path>
<path d="M361.11,13.5c1.13,1.13,2.29,3,2.29,5.34c0,0.83-0.08,48.97-0.22,67.91c-0.03,3.54-0.05,6.55-0.08,7.5" style="fill:none;stroke:#999;stroke-width:3"></path>
<path d="M362.44,39.32c0,0.93-0.26,1.58-0.6,2.35C357.38,51.75,350.0,63.5,342.11,72.76" style="fill:none;stroke:#999;stroke-width:3"></path>
<path d="M367.72,48.97c2.53,1.53,6.78,7.28,8.66,11.26" style="fill:none;stroke:#999;stroke-width:3"></path>

<path d="M448.78,39.23c1.97,0.4,3.24,0.35,4.68,0.23c6.92-0.58,18.93-1.85,28.85-2.73c1.44-0.13,1.8-0.18,2.71,0" style="fill:none;stroke:#999;stroke-width:3"></path>
<path d="M470.11,13.5c1.13,1.13,2.29,3,2.29,5.34c0,0.83-0.08,48.97-0.22,67.91c-0.03,3.54-0.05,6.55-0.08,7.5" style="fill:none;stroke:#999;stroke-width:3"></path>
<path d="M471.44,39.32c0,0.93-0.26,1.58-0.6,2.35C466.38,51.75,459.0,63.5,451.11,72.76" style="fill:none;stroke:#999;stroke-width:3"></path>
<path d="M476.72,48.97c2.53,1.53,6.78,7.28,8.66,11.26" style="fill:none;stroke:#999;stroke-width:3"></path>
<path d="M488.62,41.52c2.29,0.48,4.16,0.6,6.01,0.4c13.35-1.44,23.8-3.3,34.15-3.71c1.83-0.07,4.26-0.22,5.84,0.14" style="fill:none;stroke:#999;stroke-width:3"></path>

<path d="M557.78,39.23c1.97,0.4,3.24,0.35,4.68,0.23c6.92-0.58,18.93-1.85,28.85-2.73c1.44-0.13,1.8-0.18,2.71,0" style="fill:none;stroke:#999;stroke-width:3"></path>
<path d="M579.11,13.5c1.13,1.13,2.29,3,2.29,5.34c0,0.83-0.08,48.97-0.22,67.91c-0.03,3.54-0.05,6.55-0.08,7.5" style="fill:none;stroke:#999;stroke-width:3"></path>
<path d="M580.44,39.32c0,0.93-0.26,1.58-0.6,2.35C575.38,51.75,568.0,63.5,560.11,72.76" style="fill:none;stroke:#999;stroke-width:3"></path>
<path d="M585.72,48.97c2.53,1.53,6.78,7.28,8.66,11.26" style="fill:none;stroke:#999;stroke-width:3"></path>
<path d="M597.62,41.52c2.29,0.48,4.16,0.6,6.01,0.4c13.35-1.44,23.8-3.3,34.15-3.71c1.83-0.07,4.26-0.22,5.84,0.14" style="fill:none;stroke:#999;stroke-width:3"></path>
<path d="M624.89,13.25c1.49,1.49,2.26,3.12,2.26,5.52c0,14.56,0.32,65.91,0.24,70.87c-0.14,8.74-5.18,4.78-9.71,0.25" style="fill:none;stroke:#999;stroke-width:3"></path>

<path d="M666.78,39.23c1.97,0.4,3.24,0.35,4.68,0.23c6.92-0.58,18.93-1.85,28.85-2.73c1.44-0.13,1.8-0.18,2.71,0" style="fill:none;stroke:#999;stroke-width:3"></path>
<path d="M688.11,13.5c1.13,1.13,2.29,3,2.29,5.34c0,0.83-0.08,48.97-0.22,67.91c-0.03,3.54-0.05,6.55-0.08,7.5" style="fill:none;stroke:#999;stroke-width:3"></path>
<path d="M689.44,39.32c0,0.93-0.26,1.58-0.6,2.35C684.38,51.75,677.0,63.5,669.11,72.76" style="fill:none;stroke:#999;stroke-width:3"></path>
<path d="M694.72,48.97c2.53,1.53,6.78,7.28,8.66,11.26" style="fill:none;stroke:#999;stroke-width:3"></path>
<path d="M706.62,41.52c2.29,0.48,4.16,0.6,6.01,0.4c13.35-1.44,23.8-3.3,34.15-3.71c1.83-0.07,4.26-0.22,5.84,0.14" style="fill:none;stroke:#999;stroke-width:3"></path>
<path d="M733.89,13.25c1.49,1.49,2.26,3.12,2.26,5.52c0,14.56,0.32,65.91,0.24,70.87c-0.14,8.74-5.18,4.78-9.71,0.25" style="fill:none;stroke:#999;stroke-width:3"></path>
<path d="M713.58,56.78c2.74,2.07,7.07,8.52,7.75,11.75" style="fill:none;stroke:#999;stroke-width:3"></path>

</svg>