<svg width="763px" height="109px" viewBox="0 0 763 109" xmlns="http://www.w3.org/2000/svg" xmlns:xlink="http://www.w3.org/1999/xlink" xml:space="preserve" version="1.1" baseProfile="full">
<line x1="1" y1="1" x2="762" y2="1" style="stroke:#ddd;stroke-width:2"></line>
<line x1="1" y1="1" x2="1" y2="108" style="stroke:#ddd;stroke-width:2"></line>
<line x1="1" y1="108" x2="762" y2="108" style="stroke:#ddd;stroke-width:2"></line>
<line x1="762" y1="1" x2="762" y2="108" style="stroke:#ddd;stroke-width:2"></line>
<line x1="109" y1="1" x2="109" y2="108" style="stroke:#ddd;stroke-width:2"></line>
<line x1="218" y1="1" x2="218" y2="108" style="stroke:#ddd;stroke-width:2"></line>
<line x1="327" y1="1" x2="327" y2="108" style="stroke:#ddd;stroke-width:2"></line>
<line x1="436" y1="1" x2="436" y2="108" style="stroke:#ddd;stroke-width:2"></line>
<line x1="545" y1="1" x2="545" y2="108" style="stroke:#ddd;stroke-width:2"></line>
<line x1="654" y1="1" x2="654" y2="108" style="stroke:#ddd;stroke-width:2"></line>
<line x1="1" y1="54" x2="762" y2="54" style="stroke:#ddd;stroke-width:2;stroke-dasharray:3 3"></line>
<line x1="55" y1="1" x2="55" y2="108" style="stroke:#ddd;stroke-width:2;stroke-dasharray:3 3"></line>
<line x1="164" y1="1" x2="164" y2="108" style="stroke:#ddd;stroke-width:2;stroke-dasharray:3 3"></line>
<line x1="273" y1="1" x2="273" y2="108" style="stroke:#ddd;stroke-width:2;stroke-dasharray:3 3"></line>
<line x1="382" y1="1" x2="382" y2="108" style="stroke:#ddd;stroke-width:2;stroke-dasharray:3 3"></line>
<line x1="491" y1="1" x2="491" y2="108" style="stroke:#ddd;stroke-width:2;stroke-dasharray:3 3"></line>
<line x1="600" y1="1" x2="600" y2="108" style="stroke:#ddd;stroke-width:2;stroke-dasharray:3 3"></line>
<line x1="709" y1="1" x2="709" y2="108" style="stroke:#ddd;stroke-width:2;stroke-dasharray:3 3"></line>
<path d="M12.78,37.72c0.36,0.24,2.47,0.41,3.42,0.31c4.08-0.41,17.69-1.71,24.24-2.91c0.95-0.17,2.22-0.24,2.82,0" style="fill:none;stroke:#999;stroke-width:3"></path>

<path d="M121.78,37.72c0.36,0.24,2.47,0.41,3.42,0.31c4.08-0.41,17.69-1.71,24.24-2.91c0.95-0.17,2.22-0.24,2.82,0" style="fill:none;stroke:#999;stroke-width:3"></path>
<path d="M136.63,15.5c0.9,0.47,2.37,2,2.49,4.42c0.05,0.95-0.12,68.75-0.3,74.58" style="fill:none;stroke:#999;stroke-width:3"></path>

<path d="M230.78,37.72c0.36,0.24,2.47,0.41,3.42,0.31c4.08-0.41,17.69-1.71,24.24-2.91c0.95-0.17,2.22-0.24,2.82,0" style="fill:none;stroke:#999;stroke-width:3"></path>
<path d="M245.63,15.5c0.9,0.47,2.37,2,2.49,4.42c0.05,0.95-0.12,68.75-0.3,74.58" style="fill:none;stroke:#999;stroke-width:3"></path>
<path d="M247.67000000000002,39.28C242.25,56.25,238.0,64,228.35,76.59" style="fill:none;stroke:#999;stroke-width:3"></path>

<path d="M339.78,37.72c0.36,0.24,2.47,0.41,3.42,0.31c4.08-0.41,17.69-1.71,24.24-2.91c0.95-0.17,2.22-0.24,2.82,0" style="fill:none;stroke:#999;stroke-width:3"></path>
<path d="M354.63,15.5c0.9,0.47,2.37,2,2.49,4.42c0.05,0.95-0.12,68.75-0.3,74.58" style="fill:none;stroke:#999;stroke-width:3"></path>
<path d="M356.67,39.28C351.25,56.25,347.0,64,337.35,76.59" style="fill:none;stroke:#999;stroke-width:3"></path>
<path d="M359.15999999999997,47.4c3.12,1.43,8.34,5.85,10.89,9.35" style="fill:none;stroke:#999;stroke-width:3"></path>

<path d="M448.78,37.72c0.36,0.24,2.47,0.41,3.42,0.31c4.08-0.41,17.69-1.71,24.24-2.91c0.95-0.17,2.22-0.24,2.82,0" style="fill:none;stroke:#999;stroke-width:3"></path>
<path d="M463.63,15.5c0.9,0.47,2.37,2,2.49,4.42c0.05,0.95-0.12,68.75-0.3,74.58" style="fill:none;stroke:#999;stroke-width:3"></path>
<path d="M465.67,39.28C460.25,56.25,456.0,64,446.35,76.59" style="fill:none;stroke:#999;stroke-width:3"></path>
<path d="M468.15999999999997,47.4c3.12,1.43,8.34,5.85,10.89,9.35" style="fill:none;stroke:#999;stroke-width:3"></path>
<path d="M482.25,29.33c1.02,0.59,4.34,0.6,5.38,0.6c6.72,0,28.5-2.53,36.57-3.14c1.57-0.12,3,0.12,4.31,0.61" style="fill:none;stroke:#999;stroke-width:3"></path>

<path d="M557.78,37.72c0.36,0.24,2.47,0.41,3.42,0.31c4.08-0.41,17.69-1.71,24.24-2.91c0.95-0.17,2.22-0.24,2.82,0" style="fill:none;stroke:#999;stroke-width:3"></path>
<path d="M572.63,15.5c0.9,0.47,2.37,2,2.49,4.42c0.05,0.95-0.12,68.75-0.3,74.58" style="fill:none;stroke:#999;stroke-width:3"></path>
<path d="M574.6700000000001,39.28C569.25,56.25,565.0,64,555.35,76.59" style="fill:none;stroke:#999;stroke-width:3"></path>
<path d="M577.16,47.4c3.12,1.43,8.34,5.85,10.89,9.35" style="fill:none;stroke:#999;stroke-width:3"></path>
<path d="M591.25,29.33c1.02,0.59,4.34,0.6,5.38,0.6c6.72,0,28.5-2.53,36.57-3.14c1.57-0.12,3,0.12,4.31,0.61" style="fill:none;stroke:#999;stroke-width:3"></path>
<path d="M611.79,30.75c1.43,1.78,1.43,2.85,1.43,4.28c0,9.98-0.04,35.86-0.04,52.97" style="fill:none;stroke:#999;stroke-width:3"></path>

<path d="M666.78,37.72c0.36,0.24,2.47,0.41,3.42,0.31c4.08-0.41,17.69-1.71,24.24-2.91c0.95-0.17,2.22-0.24,2.82,0" style="fill:none;stroke:#999;stroke-width:3"></path>
<path d="M681.63,15.5c0.9,0.47,2.37,2,2.49,4.42c0.05,0.95-0.12,68.75-0.3,74.58" style="fill:none;stroke:#999;stroke-width:3"></path>
<path d="M683.6700000000001,39.28C678.25,56.25,674.0,64,664.35,76.59" style="fill:none;stroke:#999;stroke-width:3"></path>
<path d="M686.16,47.4c3.12,1.43,8.34,5.85,10.89,9.35" style="fill:none;stroke:#999;stroke-width:3"></path>
<path d="M700.25,29.33c1.02,0.59,4.34,0.6,5.38,0.6c6.72,0,28.5-2.53,36.57-3.14c1.57-0.12,3,0.12,4.31,0.61" style="fill:none;stroke:#999;stroke-width:3"></path>
<path d="M720.79,30.75c1.43,1.78,1.43,2.85,1.43,4.28c0,9.98-0.04,35.86-0.04,52.97" style="fill:none;stroke:#999;stroke-width:3"></path>
<path d="M694.75,90.05c0.92,0.32,4.2,0.65,5.75,0.51C717.25,89,731.0,87.25,746.25,86.77c2.5-0.08,5.5,0.53,6.75,1.03" style="fill:none;stroke:#999;stroke-width:3"></path>

</svg>