<svg width="763px" height="109px" viewBox="0 0 763 109" xmlns="http://www.w3.org/2000/svg" xmlns:xlink="http://www.w3.org/1999/xlink" xml:space="preserve" version="1.1" baseProfile="full">
<line x1="1" y1="1" x2="762" y2="1" style="stroke:#ddd;stroke-width:2"></line>
<line x1="1" y1="1" x2="1" y2="108" style="stroke:#ddd;stroke-width:2"></line>
<line x1="1" y1="108" x2="762" y2="108" style="stroke:#ddd;stroke-width:2"></line>
<line x1="762" y1="1" x2="762" y2="108" style="stroke:#ddd;stroke-width:2"></line>
<line x1="109" y1="1" x2="109" y2="108" style="stroke:#ddd;stroke-width:2"></line>
<line x1="218" y1="1" x2="218" y2="108" style="stroke:#ddd;stroke-width:2"></line>
<line x1="327" y1="1" x2="327" y2="108" style="stroke:#ddd;stroke-width:2"></line>
<line x1="436" y1="1" x2="436" y2="108" style="stroke:#ddd;stroke-width:2"></line>
<line x1="545" y1="1" x2="545" y2="108" style="stroke:#ddd;stroke-width:2"></line>
<line x1="654" y1="1" x2="654" y2="108" style="stroke:#ddd;stroke-width:2"></line>
<line x1="1" y1="54" x2="762" y2="54" style="stroke:#ddd;stroke-width:2;stroke-dasharray:3 3"></line>
<line x1="55" y1="1" x2="55" y2="108" style="stroke:#ddd;stroke-width:2;stroke-dasharray:3 3"></line>
<line x1="164" y1="1" x2="164" y2="108" style="stroke:#ddd;stroke-width:2;stroke-dasharray:3 3"></line>
<line x1="273" y1="1" x2="273" y2="108" style="stroke:#ddd;stroke-width:2;stroke-dasharray:3 3"></line>
<line x1="382" y1="1" x2="382" y2="108" style="stroke:#ddd;stroke-width:2;stroke-dasharray:3 3"></line>
<line x1="491" y1="1" x2="491" y2="108" style="stroke:#ddd;stroke-width:2;stroke-dasharray:3 3"></line>
<line x1="600" y1="1" x2="600" y2="108" style="stroke:#ddd;stroke-width:2;stroke-dasharray:3 3"></line>
<line x1="709" y1="1" x2="709" y2="108" style="stroke:#ddd;stroke-width:2;stroke-dasharray:3 3"></line>
<path d="M12.78,39.72c0.35,0.24,2.39,0.41,3.31,0.31c3.94-0.41,18.12-2.21,24.45-3.41c0.92-0.17,2.15-0.24,2.73,0" style="fill:none;stroke:#999;stroke-width:3"></path>

<path d="M121.78,39.72c0.35,0.24,2.39,0.41,3.31,0.31c3.94-0.41,18.12-2.21,24.45-3.41c0.92-0.17,2.15-0.24,2.73,0" style="fill:none;stroke:#999;stroke-width:3"></path>
<path d="M136.36,17.5c0.91,0.47,2.54,2.5,2.54,4.42c0,0.95-0.12,67.25-0.3,73.08" style="fill:none;stroke:#999;stroke-width:3"></path>

<path d="M230.78,39.72c0.35,0.24,2.39,0.41,3.31,0.31c3.94-0.41,18.12-2.21,24.45-3.41c0.92-0.17,2.15-0.24,2.73,0" style="fill:none;stroke:#999;stroke-width:3"></path>
<path d="M245.36,17.5c0.91,0.47,2.54,2.5,2.54,4.42c0,0.95-0.12,67.25-0.3,73.08" style="fill:none;stroke:#999;stroke-width:3"></path>
<path d="M247.44,43.28c-5.34,14.93-8.31,21.24-16.58,34.31" style="fill:none;stroke:#999;stroke-width:3"></path>

<path d="M339.78,39.72c0.35,0.24,2.39,0.41,3.31,0.31c3.94-0.41,18.12-2.21,24.45-3.41c0.92-0.17,2.15-0.24,2.73,0" style="fill:none;stroke:#999;stroke-width:3"></path>
<path d="M354.36,17.5c0.91,0.47,2.54,2.5,2.54,4.42c0,0.95-0.12,67.25-0.3,73.08" style="fill:none;stroke:#999;stroke-width:3"></path>
<path d="M356.44,43.28c-5.34,14.93-8.31,21.24-16.58,34.31" style="fill:none;stroke:#999;stroke-width:3"></path>
<path d="M360.22,47.9c2.73,1.55,7.22,6.59,9.53,9.6" style="fill:none;stroke:#999;stroke-width:3"></path>

<path d="M448.78,39.72c0.35,0.24,2.39,0.41,3.31,0.31c3.94-0.41,18.12-2.21,24.45-3.41c0.92-0.17,2.15-0.24,2.73,0" style="fill:none;stroke:#999;stroke-width:3"></path>
<path d="M463.36,17.5c0.91,0.47,2.54,2.5,2.54,4.42c0,0.95-0.12,67.25-0.3,73.08" style="fill:none;stroke:#999;stroke-width:3"></path>
<path d="M465.44,43.28c-5.34,14.93-8.31,21.24-16.58,34.31" style="fill:none;stroke:#999;stroke-width:3"></path>
<path d="M469.22,47.9c2.73,1.55,7.22,6.59,9.53,9.6" style="fill:none;stroke:#999;stroke-width:3"></path>
<path d="M504.24,19.5c0.76,0.47,2.51,2.5,2.51,4.49c0,10.76,0.25,55.26,0.25,63.18" style="fill:none;stroke:#999;stroke-width:3"></path>

<path d="M557.78,39.72c0.35,0.24,2.39,0.41,3.31,0.31c3.94-0.41,18.12-2.21,24.45-3.41c0.92-0.17,2.15-0.24,2.73,0" style="fill:none;stroke:#999;stroke-width:3"></path>
<path d="M572.36,17.5c0.91,0.47,2.54,2.5,2.54,4.42c0,0.95-0.12,67.25-0.3,73.08" style="fill:none;stroke:#999;stroke-width:3"></path>
<path d="M574.44,43.28c-5.34,14.93-8.31,21.24-16.58,34.31" style="fill:none;stroke:#999;stroke-width:3"></path>
<path d="M578.22,47.9c2.73,1.55,7.22,6.59,9.53,9.6" style="fill:none;stroke:#999;stroke-width:3"></path>
<path d="M613.24,19.5c0.76,0.47,2.51,2.5,2.51,4.49c0,10.76,0.25,55.26,0.25,63.18" style="fill:none;stroke:#999;stroke-width:3"></path>
<path d="M595.99,51.21c0.76,0.47,1.63,2.98,1.51,3.94c-0.5,4.23-2,21.6-3.5,31.88c-0.31,2.15,0.63,3.41,2.5,2.97c9.5-2.24,33-4.14,42.5-4.4" style="fill:none;stroke:#999;stroke-width:3"></path>

<path d="M666.78,39.72c0.35,0.24,2.39,0.41,3.31,0.31c3.94-0.41,18.12-2.21,24.45-3.41c0.92-0.17,2.15-0.24,2.73,0" style="fill:none;stroke:#999;stroke-width:3"></path>
<path d="M681.36,17.5c0.91,0.47,2.54,2.5,2.54,4.42c0,0.95-0.12,67.25-0.3,73.08" style="fill:none;stroke:#999;stroke-width:3"></path>
<path d="M683.44,43.28c-5.34,14.93-8.31,21.24-16.58,34.31" style="fill:none;stroke:#999;stroke-width:3"></path>
<path d="M687.22,47.9c2.73,1.55,7.22,6.59,9.53,9.6" style="fill:none;stroke:#999;stroke-width:3"></path>
<path d="M722.24,19.5c0.76,0.47,2.51,2.5,2.51,4.49c0,10.76,0.25,55.26,0.25,63.18" style="fill:none;stroke:#999;stroke-width:3"></path>
<path d="M704.99,51.21c0.76,0.47,1.63,2.98,1.51,3.94c-0.5,4.23-2,21.6-3.5,31.88c-0.31,2.15,0.63,3.41,2.5,2.97c9.5-2.24,33-4.14,42.5-4.4" style="fill:none;stroke:#999;stroke-width:3"></path>
<path d="M746.74,48.63c0.76,0.48,1.51,3.53,1.51,4.49c0,7.38-0.25,21.12-0.25,34.84" style="fill:none;stroke:#999;stroke-width:3"></path>

</svg>