<svg width="763px" height="109px" viewBox="0 0 763 109" xmlns="http://www.w3.org/2000/svg" xmlns:xlink="http://www.w3.org/1999/xlink" xml:space="preserve" version="1.1" baseProfile="full">
<line x1="1" y1="1" x2="762" y2="1" style="stroke:#ddd;stroke-width:2"></line>
<line x1="1" y1="1" x2="1" y2="108" style="stroke:#ddd;stroke-width:2"></line>
<line x1="1" y1="108" x2="762" y2="108" style="stroke:#ddd;stroke-width:2"></line>
<line x1="762" y1="1" x2="762" y2="108" style="stroke:#ddd;stroke-width:2"></line>
<line x1="109" y1="1" x2="109" y2="108" style="stroke:#ddd;stroke-width:2"></line>
<line x1="218" y1="1" x2="218" y2="108" style="stroke:#ddd;stroke-width:2"></line>
<line x1="327" y1="1" x2="327" y2="108" style="stroke:#ddd;stroke-width:2"></line>
<line x1="436" y1="1" x2="436" y2="108" style="stroke:#ddd;stroke-width:2"></line>
<line x1="545" y1="1" x2="545" y2="108" style="stroke:#ddd;stroke-width:2"></line>
<line x1="654" y1="1" x2="654" y2="108" style="stroke:#ddd;stroke-width:2"></line>
<line x1="1" y1="54" x2="762" y2="54" style="stroke:#ddd;stroke-width:2;stroke-dasharray:3 3"></line>
<line x1="55" y1="1" x2="55" y2="108" style="stroke:#ddd;stroke-width:2;stroke-dasharray:3 3"></line>
<line x1="164" y1="1" x2="164" y2="108" style="stroke:#ddd;stroke-width:2;stroke-dasharray:3 3"></line>
<line x1="273" y1="1" x2="273" y2="108" style="stroke:#ddd;stroke-width:2;stroke-dasharray:3 3"></line>
<line x1="382" y1="1" x2="382" y2="108" style="stroke:#ddd;stroke-width:2;stroke-dasharray:3 3"></line>
<line x1="491" y1="1" x2="491" y2="108" style="stroke:#ddd;stroke-width:2;stroke-dasharray:3 3"></line>
<line x1="600" y1="1" x2="600" y2="108" style="stroke:#ddd;stroke-width:2;stroke-dasharray:3 3"></line>
<line x1="709" y1="1" x2="709" y2="108" style="stroke:#ddd;stroke-width:2;stroke-dasharray:3 3"></line>
<path d="M13.5,38.46c0.56,0.16,2.24,0.63,3.71,0.5c5.2-0.47,18.69-2.75,24.26-3.06c1.48-0.08,2.6,0.03,3.53,0.19" style="fill:none;stroke:#999;stroke-width:3"></path>

<path d="M122.5,38.46c0.56,0.16,2.24,0.63,3.71,0.5c5.2-0.47,18.69-2.75,24.26-3.06c1.48-0.08,2.6,0.03,3.53,0.19" style="fill:none;stroke:#999;stroke-width:3"></path>
<path d="M138.5,14.5c1.25,0.5,2,2.25,2.25,3.25s0,72.25-0.25,78.5" style="fill:none;stroke:#999;stroke-width:3"></path>

<path d="M231.5,38.46c0.56,0.16,2.24,0.63,3.71,0.5c5.2-0.47,18.69-2.75,24.26-3.06c1.48-0.08,2.6,0.03,3.53,0.19" style="fill:none;stroke:#999;stroke-width:3"></path>
<path d="M247.5,14.5c1.25,0.5,2,2.25,2.25,3.25s0,72.25-0.25,78.5" style="fill:none;stroke:#999;stroke-width:3"></path>
<path d="M249.75,38.5C246.37,50.37,236.29,70.28,229.25,77" style="fill:none;stroke:#999;stroke-width:3"></path>

<path d="M340.5,38.46c0.56,0.16,2.24,0.63,3.71,0.5c5.2-0.47,18.69-2.75,24.26-3.06c1.48-0.08,2.6,0.03,3.53,0.19" style="fill:none;stroke:#999;stroke-width:3"></path>
<path d="M356.5,14.5c1.25,0.5,2,2.25,2.25,3.25s0,72.25-0.25,78.5" style="fill:none;stroke:#999;stroke-width:3"></path>
<path d="M358.75,38.5C355.37,50.37,345.28999999999996,70.28,338.25,77" style="fill:none;stroke:#999;stroke-width:3"></path>
<path d="M361.25,45.75c3.31,2.1,6.86,6.32,8.75,10" style="fill:none;stroke:#999;stroke-width:3"></path>

<path d="M449.5,38.46c0.56,0.16,2.24,0.63,3.71,0.5c5.2-0.47,18.69-2.75,24.26-3.06c1.48-0.08,2.6,0.03,3.53,0.19" style="fill:none;stroke:#999;stroke-width:3"></path>
<path d="M465.5,14.5c1.25,0.5,2,2.25,2.25,3.25s0,72.25-0.25,78.5" style="fill:none;stroke:#999;stroke-width:3"></path>
<path d="M467.75,38.5C464.37,50.37,454.28999999999996,70.28,447.25,77" style="fill:none;stroke:#999;stroke-width:3"></path>
<path d="M470.25,45.75c3.31,2.1,6.86,6.32,8.75,10" style="fill:none;stroke:#999;stroke-width:3"></path>
<path d="M483.06,24.53c1.1,0.5,3.13,0.58,4.23,0.5c11.49-0.83,25.52-3.77,40.47-3.74c1.84,0,2.94,0.24,3.86,0.49" style="fill:none;stroke:#999;stroke-width:3"></path>

<path d="M558.5,38.46c0.56,0.16,2.24,0.63,3.71,0.5c5.2-0.47,18.69-2.75,24.26-3.06c1.48-0.08,2.6,0.03,3.53,0.19" style="fill:none;stroke:#999;stroke-width:3"></path>
<path d="M574.5,14.5c1.25,0.5,2,2.25,2.25,3.25s0,72.25-0.25,78.5" style="fill:none;stroke:#999;stroke-width:3"></path>
<path d="M576.75,38.5C573.37,50.37,563.29,70.28,556.25,77" style="fill:none;stroke:#999;stroke-width:3"></path>
<path d="M579.25,45.75c3.31,2.1,6.86,6.32,8.75,10" style="fill:none;stroke:#999;stroke-width:3"></path>
<path d="M592.06,24.53c1.1,0.5,3.13,0.58,4.23,0.5c11.49-0.83,25.52-3.77,40.47-3.74c1.84,0,2.94,0.24,3.86,0.49" style="fill:none;stroke:#999;stroke-width:3"></path>
<path d="M613.3199999999999,36.74c4.91,2.99,14.93,6.51,20.55,7.48c3.34,0.58,3.23,2.14,2.62,4.4c-4.18,15.45-7.99,30.14-14.86,40.84c-5.58,8.69-7.63,0.23-8.99-0.51" style="fill:none;stroke:#999;stroke-width:3"></path>

<path d="M667.5,38.46c0.56,0.16,2.24,0.63,3.71,0.5c5.2-0.47,18.69-2.75,24.26-3.06c1.48-0.08,2.6,0.03,3.53,0.19" style="fill:none;stroke:#999;stroke-width:3"></path>
<path d="M683.5,14.5c1.25,0.5,2,2.25,2.25,3.25s0,72.25-0.25,78.5" style="fill:none;stroke:#999;stroke-width:3"></path>
<path d="M685.75,38.5C682.37,50.37,672.29,70.28,665.25,77" style="fill:none;stroke:#999;stroke-width:3"></path>
<path d="M688.25,45.75c3.31,2.1,6.86,6.32,8.75,10" style="fill:none;stroke:#999;stroke-width:3"></path>
<path d="M701.06,24.53c1.1,0.5,3.13,0.58,4.23,0.5c11.49-0.83,25.52-3.77,40.47-3.74c1.84,0,2.94,0.24,3.86,0.49" style="fill:none;stroke:#999;stroke-width:3"></path>
<path d="M722.3199999999999,36.74c4.91,2.99,14.93,6.51,20.55,7.48c3.34,0.58,3.23,2.14,2.62,4.4c-4.18,15.45-7.99,30.14-14.86,40.84c-5.58,8.69-7.63,0.23-8.99-0.51" style="fill:none;stroke:#999;stroke-width:3"></path>
<path d="M723.1800000000001,26.24c0.08,1.46,0.26,3.77-0.16,5.85C720.25,45.75,710.75,74,695.1,88.03" style="fill:none;stroke:#999;stroke-width:3"></path>

</svg>