<svg width="763px" height="109px" viewBox="0 0 763 109" xmlns="http://www.w3.org/2000/svg" xmlns:xlink="http://www.w3.org/1999/xlink" xml:space="preserve" version="1.1" baseProfile="full">
<line x1="1" y1="1" x2="762" y2="1" style="stroke:#ddd;stroke-width:2"></line>
<line x1="1" y1="1" x2="1" y2="108" style="stroke:#ddd;stroke-width:2"></line>
<line x1="1" y1="108" x2="762" y2="108" style="stroke:#ddd;stroke-width:2"></line>
<line x1="762" y1="1" x2="762" y2="108" style="stroke:#ddd;stroke-width:2"></line>
<line x1="109" y1="1" x2="109" y2="108" style="stroke:#ddd;stroke-width:2"></line>
<line x1="218" y1="1" x2="218" y2="108" style="stroke:#ddd;stroke-width:2"></line>
<line x1="327" y1="1" x2="327" y2="108" style="stroke:#ddd;stroke-width:2"></line>
<line x1="436" y1="1" x2="436" y2="108" style="stroke:#ddd;stroke-width:2"></line>
<line x1="545" y1="1" x2="545" y2="108" style="stroke:#ddd;stroke-width:2"></line>
<line x1="654" y1="1" x2="654" y2="108" style="stroke:#ddd;stroke-width:2"></line>
<line x1="1" y1="54" x2="762" y2="54" style="stroke:#ddd;stroke-width:2;stroke-dasharray:3 3"></line>
<line x1="55" y1="1" x2="55" y2="108" style="stroke:#ddd;stroke-width:2;stroke-dasharray:3 3"></line>
<line x1="164" y1="1" x2="164" y2="108" style="stroke:#ddd;stroke-width:2;stroke-dasharray:3 3"></line>
<line x1="273" y1="1" x2="273" y2="108" style="stroke:#ddd;stroke-width:2;stroke-dasharray:3 3"></line>
<line x1="382" y1="1" x2="382" y2="108" style="stroke:#ddd;stroke-width:2;stroke-dasharray:3 3"></line>
<line x1="491" y1="1" x2="491" y2="108" style="stroke:#ddd;stroke-width:2;stroke-dasharray:3 3"></line>
<line x1="600" y1="1" x2="600" y2="108" style="stroke:#ddd;stroke-width:2;stroke-dasharray:3 3"></line>
<line x1="709" y1="1" x2="709" y2="108" style="stroke:#ddd;stroke-width:2;stroke-dasharray:3 3"></line>
<path d="M25.54,28.33c1.61,0.39,4.58,0.53,6.19,0.39c16.32-1.46,27.01-3.46,43.69-3.67c2.69-0.03,4.31,0.18,5.65,0.38" style="fill:none;stroke:#999;stroke-width:3"></path>

<path d="M134.54,28.33c1.61,0.39,4.58,0.53,6.19,0.39c16.32-1.46,27.01-3.46,43.69-3.67c2.69-0.03,4.31,0.18,5.65,0.38" style="fill:none;stroke:#999;stroke-width:3"></path>
<path d="M139.12,37.62c2.85,2.07,7.16,7.91,7.88,11.12" style="fill:none;stroke:#999;stroke-width:3"></path>

<path d="M243.54,28.33c1.61,0.39,4.58,0.53,6.19,0.39c16.32-1.46,27.01-3.46,43.69-3.67c2.69-0.03,4.31,0.18,5.65,0.38" style="fill:none;stroke:#999;stroke-width:3"></path>
<path d="M248.12,37.62c2.85,2.07,7.16,7.91,7.88,11.12" style="fill:none;stroke:#999;stroke-width:3"></path>
<path d="M292.52,33c0.08,0.98-0.11,1.9-0.58,2.77c-1.33,3.04-4.7,7.77-9.06,10.86" style="fill:none;stroke:#999;stroke-width:3"></path>

<path d="M352.53999999999996,28.33c1.61,0.39,4.58,0.53,6.19,0.39c16.32-1.46,27.01-3.46,43.69-3.67c2.69-0.03,4.31,0.18,5.65,0.38" style="fill:none;stroke:#999;stroke-width:3"></path>
<path d="M357.12,37.62c2.85,2.07,7.16,7.91,7.88,11.12" style="fill:none;stroke:#999;stroke-width:3"></path>
<path d="M401.52,33c0.08,0.98-0.11,1.9-0.58,2.77c-1.33,3.04-4.7,7.77-9.06,10.86" style="fill:none;stroke:#999;stroke-width:3"></path>
<path d="M343.62,57c2.28,0.5,4.9,0.74,8.42,0.5c14.81-1,39.08-3.5,58.03-4.25c3.54-0.14,6.33,0.25,8.55,0.5" style="fill:none;stroke:#999;stroke-width:3"></path>

<path d="M461.53999999999996,28.33c1.61,0.39,4.58,0.53,6.19,0.39c16.32-1.46,27.01-3.46,43.69-3.67c2.69-0.03,4.31,0.18,5.65,0.38" style="fill:none;stroke:#999;stroke-width:3"></path>
<path d="M466.12,37.62c2.85,2.07,7.16,7.91,7.88,11.12" style="fill:none;stroke:#999;stroke-width:3"></path>
<path d="M510.52,33c0.08,0.98-0.11,1.9-0.58,2.77c-1.33,3.04-4.7,7.77-9.06,10.86" style="fill:none;stroke:#999;stroke-width:3"></path>
<path d="M452.62,57c2.28,0.5,4.9,0.74,8.42,0.5c14.81-1,39.08-3.5,58.03-4.25c3.54-0.14,6.33,0.25,8.55,0.5" style="fill:none;stroke:#999;stroke-width:3"></path>
<path d="M487.67,10.75c1.33,1,2.18,2.75,2.18,4.5c0,0.9,0.06,58.96-0.17,78c-0.03,2.77-0.07,4.71-0.1,5.5" style="fill:none;stroke:#999;stroke-width:3"></path>

<path d="M570.54,28.33c1.61,0.39,4.58,0.53,6.19,0.39c16.32-1.46,27.01-3.46,43.69-3.67c2.69-0.03,4.31,0.18,5.65,0.38" style="fill:none;stroke:#999;stroke-width:3"></path>
<path d="M575.12,37.62c2.85,2.07,7.16,7.91,7.88,11.12" style="fill:none;stroke:#999;stroke-width:3"></path>
<path d="M619.52,33c0.08,0.98-0.11,1.9-0.58,2.77c-1.33,3.04-4.7,7.77-9.06,10.86" style="fill:none;stroke:#999;stroke-width:3"></path>
<path d="M561.62,57c2.28,0.5,4.9,0.74,8.42,0.5c14.81-1,39.08-3.5,58.03-4.25c3.54-0.14,6.33,0.25,8.55,0.5" style="fill:none;stroke:#999;stroke-width:3"></path>
<path d="M596.6700000000001,10.75c1.33,1,2.18,2.75,2.18,4.5c0,0.9,0.06,58.96-0.17,78c-0.03,2.77-0.07,4.71-0.1,5.5" style="fill:none;stroke:#999;stroke-width:3"></path>
<path d="M594.75,56.5c0,1.5-0.44,2.48-0.82,3.11C587.37,70.49,574.0,83.75,560.75,90.5" style="fill:none;stroke:#999;stroke-width:3"></path>

<path d="M679.54,28.33c1.61,0.39,4.58,0.53,6.19,0.39c16.32-1.46,27.01-3.46,43.69-3.67c2.69-0.03,4.31,0.18,5.65,0.38" style="fill:none;stroke:#999;stroke-width:3"></path>
<path d="M684.12,37.62c2.85,2.07,7.16,7.91,7.88,11.12" style="fill:none;stroke:#999;stroke-width:3"></path>
<path d="M728.52,33c0.08,0.98-0.11,1.9-0.58,2.77c-1.33,3.04-4.7,7.77-9.06,10.86" style="fill:none;stroke:#999;stroke-width:3"></path>
<path d="M670.62,57c2.28,0.5,4.9,0.74,8.42,0.5c14.81-1,39.08-3.5,58.03-4.25c3.54-0.14,6.33,0.25,8.55,0.5" style="fill:none;stroke:#999;stroke-width:3"></path>
<path d="M705.6700000000001,10.75c1.33,1,2.18,2.75,2.18,4.5c0,0.9,0.06,58.96-0.17,78c-0.03,2.77-0.07,4.71-0.1,5.5" style="fill:none;stroke:#999;stroke-width:3"></path>
<path d="M703.75,56.5c0,1.5-0.44,2.48-0.82,3.11C696.37,70.49,683.0,83.75,669.75,90.5" style="fill:none;stroke:#999;stroke-width:3"></path>
<path d="M709.0,56.25c4.38,3.88,19.75,19,29.73,26.28c2.82,2.06,6.52,4.5,10.02,5.22" style="fill:none;stroke:#999;stroke-width:3"></path>

</svg>