<svg width="872px" height="109px" viewBox="0 0 872 109" xmlns="http://www.w3.org/2000/svg" xmlns:xlink="http://www.w3.org/1999/xlink" xml:space="preserve" version="1.1" baseProfile="full">
<line x1="1" y1="1" x2="871" y2="1" style="stroke:#ddd;stroke-width:2"></line>
<line x1="1" y1="1" x2="1" y2="108" style="stroke:#ddd;stroke-width:2"></line>
<line x1="1" y1="108" x2="871" y2="108" style="stroke:#ddd;stroke-width:2"></line>
<line x1="871" y1="1" x2="871" y2="108" style="stroke:#ddd;stroke-width:2"></line>
<line x1="109" y1="1" x2="109" y2="108" style="stroke:#ddd;stroke-width:2"></line>
<line x1="218" y1="1" x2="218" y2="108" style="stroke:#ddd;stroke-width:2"></line>
<line x1="327" y1="1" x2="327" y2="108" style="stroke:#ddd;stroke-width:2"></line>
<line x1="436" y1="1" x2="436" y2="108" style="stroke:#ddd;stroke-width:2"></line>
<line x1="545" y1="1" x2="545" y2="108" style="stroke:#ddd;stroke-width:2"></line>
<line x1="654" y1="1" x2="654" y2="108" style="stroke:#ddd;stroke-width:2"></line>
<line x1="763" y1="1" x2="763" y2="108" style="stroke:#ddd;stroke-width:2"></line>
<line x1="1" y1="54" x2="871" y2="54" style="stroke:#ddd;stroke-width:2;stroke-dasharray:3 3"></line>
<line x1="55" y1="1" x2="55" y2="108" style="stroke:#ddd;stroke-width:2;stroke-dasharray:3 3"></line>
<line x1="164" y1="1" x2="164" y2="108" style="stroke:#ddd;stroke-width:2;stroke-dasharray:3 3"></line>
<line x1="273" y1="1" x2="273" y2="108" style="stroke:#ddd;stroke-width:2;stroke-dasharray:3 3"></line>
<line x1="382" y1="1" x2="382" y2="108" style="stroke:#ddd;stroke-width:2;stroke-dasharray:3 3"></line>
<line x1="491" y1="1" x2="491" y2="108" style="stroke:#ddd;stroke-width:2;stroke-dasharray:3 3"></line>
<line x1="600" y1="1" x2="600" y2="108" style="stroke:#ddd;stroke-width:2;stroke-dasharray:3 3"></line>
<line x1="709" y1="1" x2="709" y2="108" style="stroke:#ddd;stroke-width:2;stroke-dasharray:3 3"></line>
<line x1="818" y1="1" x2="818" y2="108" style="stroke:#ddd;stroke-width:2;stroke-dasharray:3 3"></line>
<path d="M12.78,37.87c0.36,0.18,2.51,0.31,3.48,0.24c4.14-0.31,17.99-1.68,24.65-2.6c0.96-0.13,2.26-0.18,2.87,0" style="fill:none;stroke:#999;stroke-width:3"></path>

<path d="M121.78,37.87c0.36,0.18,2.51,0.31,3.48,0.24c4.14-0.31,17.99-1.68,24.65-2.6c0.96-0.13,2.26-0.18,2.87,0" style="fill:none;stroke:#999;stroke-width:3"></path>
<path d="M136.86,14c0.91,0.47,2.54,2.25,2.54,4.92c0,0.95-0.12,70.75-0.3,76.58" style="fill:none;stroke:#999;stroke-width:3"></path>

<path d="M230.78,37.87c0.36,0.18,2.51,0.31,3.48,0.24c4.14-0.31,17.99-1.68,24.65-2.6c0.96-0.13,2.26-0.18,2.87,0" style="fill:none;stroke:#999;stroke-width:3"></path>
<path d="M245.86,14c0.91,0.47,2.54,2.25,2.54,4.92c0,0.95-0.12,70.75-0.3,76.58" style="fill:none;stroke:#999;stroke-width:3"></path>
<path d="M248.44,39.28c-6.23,16.56-9.69,23.56-19.33,38.06" style="fill:none;stroke:#999;stroke-width:3"></path>

<path d="M339.78,37.87c0.36,0.18,2.51,0.31,3.48,0.24c4.14-0.31,17.99-1.68,24.65-2.6c0.96-0.13,2.26-0.18,2.87,0" style="fill:none;stroke:#999;stroke-width:3"></path>
<path d="M354.86,14c0.91,0.47,2.54,2.25,2.54,4.92c0,0.95-0.12,70.75-0.3,76.58" style="fill:none;stroke:#999;stroke-width:3"></path>
<path d="M357.44,39.28c-6.23,16.56-9.69,23.56-19.33,38.06" style="fill:none;stroke:#999;stroke-width:3"></path>
<path d="M360.47,45.9c2.12,1.59,6.49,6.76,8.28,9.85" style="fill:none;stroke:#999;stroke-width:3"></path>

<path d="M448.78,37.87c0.36,0.18,2.51,0.31,3.48,0.24c4.14-0.31,17.99-1.68,24.65-2.6c0.96-0.13,2.26-0.18,2.87,0" style="fill:none;stroke:#999;stroke-width:3"></path>
<path d="M463.86,14c0.91,0.47,2.54,2.25,2.54,4.92c0,0.95-0.12,70.75-0.3,76.58" style="fill:none;stroke:#999;stroke-width:3"></path>
<path d="M466.44,39.28c-6.23,16.56-9.69,23.56-19.33,38.06" style="fill:none;stroke:#999;stroke-width:3"></path>
<path d="M469.47,45.9c2.12,1.59,6.49,6.76,8.28,9.85" style="fill:none;stroke:#999;stroke-width:3"></path>
<path d="M482.11,23.63c0.88,0.52,3.75,0.58,4.65,0.55c10.64-0.4,28.62-2.22,38.62-2.76c1.36-0.07,2.6,0.1,3.73,0.54" style="fill:none;stroke:#999;stroke-width:3"></path>

<path d="M557.78,37.87c0.36,0.18,2.51,0.31,3.48,0.24c4.14-0.31,17.99-1.68,24.65-2.6c0.96-0.13,2.26-0.18,2.87,0" style="fill:none;stroke:#999;stroke-width:3"></path>
<path d="M572.86,14c0.91,0.47,2.54,2.25,2.54,4.92c0,0.95-0.12,70.75-0.3,76.58" style="fill:none;stroke:#999;stroke-width:3"></path>
<path d="M575.44,39.28c-6.23,16.56-9.69,23.56-19.33,38.06" style="fill:none;stroke:#999;stroke-width:3"></path>
<path d="M578.47,45.9c2.12,1.59,6.49,6.76,8.28,9.85" style="fill:none;stroke:#999;stroke-width:3"></path>
<path d="M591.11,23.63c0.88,0.52,3.75,0.58,4.65,0.55c10.64-0.4,28.62-2.22,38.62-2.76c1.36-0.07,2.6,0.1,3.73,0.54" style="fill:none;stroke:#999;stroke-width:3"></path>
<path d="M612.61,26.36c1.74,2.33,1.74,3.73,1.74,5.6c0,13.06-0.02,36.71-0.02,57.64" style="fill:none;stroke:#999;stroke-width:3"></path>

<path d="M666.78,37.87c0.36,0.18,2.51,0.31,3.48,0.24c4.14-0.31,17.99-1.68,24.65-2.6c0.96-0.13,2.26-0.18,2.87,0" style="fill:none;stroke:#999;stroke-width:3"></path>
<path d="M681.86,14c0.91,0.47,2.54,2.25,2.54,4.92c0,0.95-0.12,70.75-0.3,76.58" style="fill:none;stroke:#999;stroke-width:3"></path>
<path d="M684.44,39.28c-6.23,16.56-9.69,23.56-19.33,38.06" style="fill:none;stroke:#999;stroke-width:3"></path>
<path d="M687.47,45.9c2.12,1.59,6.49,6.76,8.28,9.85" style="fill:none;stroke:#999;stroke-width:3"></path>
<path d="M700.11,23.63c0.88,0.52,3.75,0.58,4.65,0.55c10.64-0.4,28.62-2.22,38.62-2.76c1.36-0.07,2.6,0.1,3.73,0.54" style="fill:none;stroke:#999;stroke-width:3"></path>
<path d="M721.61,26.36c1.74,2.33,1.74,3.73,1.74,5.6c0,13.06-0.02,36.71-0.02,57.64" style="fill:none;stroke:#999;stroke-width:3"></path>
<path d="M703.14,55.87c0.79,0.52,3.41,0.76,4.23,0.73c8.63-0.35,22.47-1.23,32.41-2.15c0.99-0.09,3.17-0.21,4.65,0.24" style="fill:none;stroke:#999;stroke-width:3"></path>

<path d="M775.78,37.87c0.36,0.18,2.51,0.31,3.48,0.24c4.14-0.31,17.99-1.68,24.65-2.6c0.96-0.13,2.26-0.18,2.87,0" style="fill:none;stroke:#999;stroke-width:3"></path>
<path d="M790.86,14c0.91,0.47,2.54,2.25,2.54,4.92c0,0.95-0.12,70.75-0.3,76.58" style="fill:none;stroke:#999;stroke-width:3"></path>
<path d="M793.44,39.28c-6.23,16.56-9.69,23.56-19.33,38.06" style="fill:none;stroke:#999;stroke-width:3"></path>
<path d="M796.47,45.9c2.12,1.59,6.49,6.76,8.28,9.85" style="fill:none;stroke:#999;stroke-width:3"></path>
<path d="M809.11,23.63c0.88,0.52,3.75,0.58,4.65,0.55c10.64-0.4,28.62-2.22,38.62-2.76c1.36-0.07,2.6,0.1,3.73,0.54" style="fill:none;stroke:#999;stroke-width:3"></path>
<path d="M830.61,26.36c1.74,2.33,1.74,3.73,1.74,5.6c0,13.06-0.02,36.71-0.02,57.64" style="fill:none;stroke:#999;stroke-width:3"></path>
<path d="M812.14,55.87c0.79,0.52,3.41,0.76,4.23,0.73c8.63-0.35,22.47-1.23,32.41-2.15c0.99-0.09,3.17-0.21,4.65,0.24" style="fill:none;stroke:#999;stroke-width:3"></path>
<path d="M802.59,90.89c1.47,0.36,4.06,0.72,6.38,0.5c14.93-1.4,30.07-2.65,47.72-2.37c1.84,0.03,4.04,0.4,4.96,0.78" style="fill:none;stroke:#999;stroke-width:3"></path>

</svg>