<svg width="981px" height="109px" viewBox="0 0 981 109" xmlns="http://www.w3.org/2000/svg" xmlns:xlink="http://www.w3.org/1999/xlink" xml:space="preserve" version="1.1" baseProfile="full">
<line x1="1" y1="1" x2="980" y2="1" style="stroke:#ddd;stroke-width:2"></line>
<line x1="1" y1="1" x2="1" y2="108" style="stroke:#ddd;stroke-width:2"></line>
<line x1="1" y1="108" x2="980" y2="108" style="stroke:#ddd;stroke-width:2"></line>
<line x1="980" y1="1" x2="980" y2="108" style="stroke:#ddd;stroke-width:2"></line>
<line x1="109" y1="1" x2="109" y2="108" style="stroke:#ddd;stroke-width:2"></line>
<line x1="218" y1="1" x2="218" y2="108" style="stroke:#ddd;stroke-width:2"></line>
<line x1="327" y1="1" x2="327" y2="108" style="stroke:#ddd;stroke-width:2"></line>
<line x1="436" y1="1" x2="436" y2="108" style="stroke:#ddd;stroke-width:2"></line>
<line x1="545" y1="1" x2="545" y2="108" style="stroke:#ddd;stroke-width:2"></line>
<line x1="654" y1="1" x2="654" y2="108" style="stroke:#ddd;stroke-width:2"></line>
<line x1="763" y1="1" x2="763" y2="108" style="stroke:#ddd;stroke-width:2"></line>
<line x1="872" y1="1" x2="872" y2="108" style="stroke:#ddd;stroke-width:2"></line>
<line x1="1" y1="54" x2="980" y2="54" style="stroke:#ddd;stroke-width:2;stroke-dasharray:3 3"></line>
<line x1="55" y1="1" x2="55" y2="108" style="stroke:#ddd;stroke-width:2;stroke-dasharray:3 3"></line>
<line x1="164" y1="1" x2="164" y2="108" style="stroke:#ddd;stroke-width:2;stroke-dasharray:3 3"></line>
<line x1="273" y1="1" x2="273" y2="108" style="stroke:#ddd;stroke-width:2;stroke-dasharray:3 3"></line>
<line x1="382" y1="1" x2="382" y2="108" style="stroke:#ddd;stroke-width:2;stroke-dasharray:3 3"></line>
<line x1="491" y1="1" x2="491" y2="108" style="stroke:#ddd;stroke-width:2;stroke-dasharray:3 3"></line>
<line x1="600" y1="1" x2="600" y2="108" style="stroke:#ddd;stroke-width:2;stroke-dasharray:3 3"></line>
<line x1="709" y1="1" x2="709" y2="108" style="stroke:#ddd;stroke-width:2;stroke-dasharray:3 3"></line>
<line x1="818" y1="1" x2="818" y2="108" style="stroke:#ddd;stroke-width:2;stroke-dasharray:3 3"></line>
<line x1="927" y1="1" x2="927" y2="108" style="stroke:#ddd;stroke-width:2;stroke-dasharray:3 3"></line>
<path d="M11.28,37.22c0.35,0.24,2.39,0.41,3.31,0.31c3.94-0.41,16.12-1.71,22.45-2.91c0.92-0.17,2.15-0.24,2.73,0" style="fill:none;stroke:#999;stroke-width:3"></path>

<path d="M120.28,37.22c0.35,0.24,2.39,0.41,3.31,0.31c3.94-0.41,16.12-1.71,22.45-2.91c0.92-0.17,2.15-0.24,2.73,0" style="fill:none;stroke:#999;stroke-width:3"></path>
<path d="M134.36,15c0.91,0.47,2.04,2.5,2.04,4.92c0,0.95-0.12,69.75-0.3,75.58" style="fill:none;stroke:#999;stroke-width:3"></path>

<path d="M229.28,37.22c0.35,0.24,2.39,0.41,3.31,0.31c3.94-0.41,16.12-1.71,22.45-2.91c0.92-0.17,2.15-0.24,2.73,0" style="fill:none;stroke:#999;stroke-width:3"></path>
<path d="M243.36,15c0.91,0.47,2.04,2.5,2.04,4.92c0,0.95-0.12,69.75-0.3,75.58" style="fill:none;stroke:#999;stroke-width:3"></path>
<path d="M245.44,39.28c-5.34,15.04-8.31,21.4-16.58,34.56" style="fill:none;stroke:#999;stroke-width:3"></path>

<path d="M338.28,37.22c0.35,0.24,2.39,0.41,3.31,0.31c3.94-0.41,16.12-1.71,22.45-2.91c0.92-0.17,2.15-0.24,2.73,0" style="fill:none;stroke:#999;stroke-width:3"></path>
<path d="M352.36,15c0.91,0.47,2.04,2.5,2.04,4.92c0,0.95-0.12,69.75-0.3,75.58" style="fill:none;stroke:#999;stroke-width:3"></path>
<path d="M354.44,39.28c-5.34,15.04-8.31,21.4-16.58,34.56" style="fill:none;stroke:#999;stroke-width:3"></path>
<path d="M356.47,46.9c2.37,1.59,6.28,5.76,8.28,8.85" style="fill:none;stroke:#999;stroke-width:3"></path>

<path d="M447.28,37.22c0.35,0.24,2.39,0.41,3.31,0.31c3.94-0.41,16.12-1.71,22.45-2.91c0.92-0.17,2.15-0.24,2.73,0" style="fill:none;stroke:#999;stroke-width:3"></path>
<path d="M461.36,15c0.91,0.47,2.04,2.5,2.04,4.92c0,0.95-0.12,69.75-0.3,75.58" style="fill:none;stroke:#999;stroke-width:3"></path>
<path d="M463.44,39.28c-5.34,15.04-8.31,21.4-16.58,34.56" style="fill:none;stroke:#999;stroke-width:3"></path>
<path d="M465.47,46.9c2.37,1.59,6.28,5.76,8.28,8.85" style="fill:none;stroke:#999;stroke-width:3"></path>
<path d="M492.62,14c0.04,0.77,0.22,2.05-0.08,3.1c-2,6.83-7.45,19.66-14.93,29.63" style="fill:none;stroke:#999;stroke-width:3"></path>

<path d="M556.28,37.22c0.35,0.24,2.39,0.41,3.31,0.31c3.94-0.41,16.12-1.71,22.45-2.91c0.92-0.17,2.15-0.24,2.73,0" style="fill:none;stroke:#999;stroke-width:3"></path>
<path d="M570.36,15c0.91,0.47,2.04,2.5,2.04,4.92c0,0.95-0.12,69.75-0.3,75.58" style="fill:none;stroke:#999;stroke-width:3"></path>
<path d="M572.44,39.28c-5.34,15.04-8.31,21.4-16.58,34.56" style="fill:none;stroke:#999;stroke-width:3"></path>
<path d="M574.47,46.9c2.37,1.59,6.28,5.76,8.28,8.85" style="fill:none;stroke:#999;stroke-width:3"></path>
<path d="M601.62,14c0.04,0.77,0.22,2.05-0.08,3.1c-2,6.83-7.45,19.66-14.93,29.63" style="fill:none;stroke:#999;stroke-width:3"></path>
<path d="M599.99,29.28c0.94,0.7,2.7,0.71,4.26,0.47c7.75-1.24,22.56-2.88,26.31-3.29c1.78-0.19,4,1.29,3.71,3.89c-1.02,9.16-3.77,24.41-10.35,38.42c-2.08,4.42-5.3,0.75-7.52-2.17" style="fill:none;stroke:#999;stroke-width:3"></path>

<path d="M665.28,37.22c0.35,0.24,2.39,0.41,3.31,0.31c3.94-0.41,16.12-1.71,22.45-2.91c0.92-0.17,2.15-0.24,2.73,0" style="fill:none;stroke:#999;stroke-width:3"></path>
<path d="M679.36,15c0.91,0.47,2.04,2.5,2.04,4.92c0,0.95-0.12,69.75-0.3,75.58" style="fill:none;stroke:#999;stroke-width:3"></path>
<path d="M681.44,39.28c-5.34,15.04-8.31,21.4-16.58,34.56" style="fill:none;stroke:#999;stroke-width:3"></path>
<path d="M683.47,46.9c2.37,1.59,6.28,5.76,8.28,8.85" style="fill:none;stroke:#999;stroke-width:3"></path>
<path d="M710.62,14c0.04,0.77,0.22,2.05-0.08,3.1c-2,6.83-7.45,19.66-14.93,29.63" style="fill:none;stroke:#999;stroke-width:3"></path>
<path d="M708.99,29.28c0.94,0.7,2.7,0.71,4.26,0.47c7.75-1.24,22.56-2.88,26.31-3.29c1.78-0.19,4,1.29,3.71,3.89c-1.02,9.16-3.77,24.41-10.35,38.42c-2.08,4.42-5.3,0.75-7.52-2.17" style="fill:none;stroke:#999;stroke-width:3"></path>
<path d="M701.53,42.74c1.28,0.94,2.37,0.94,4.25,0.63c3.81-0.63,15.64-1.77,16.8-1.89c1.54-0.16,2.75,1.03,2.2,3.47c-0.16,0.73-1.78,6.55-3.62,13.03" style="fill:none;stroke:#999;stroke-width:3"></path>

<path d="M774.28,37.22c0.35,0.24,2.39,0.41,3.31,0.31c3.94-0.41,16.12-1.71,22.45-2.91c0.92-0.17,2.15-0.24,2.73,0" style="fill:none;stroke:#999;stroke-width:3"></path>
<path d="M788.36,15c0.91,0.47,2.04,2.5,2.04,4.92c0,0.95-0.12,69.75-0.3,75.58" style="fill:none;stroke:#999;stroke-width:3"></path>
<path d="M790.44,39.28c-5.34,15.04-8.31,21.4-16.58,34.56" style="fill:none;stroke:#999;stroke-width:3"></path>
<path d="M792.47,46.9c2.37,1.59,6.28,5.76,8.28,8.85" style="fill:none;stroke:#999;stroke-width:3"></path>
<path d="M819.62,14c0.04,0.77,0.22,2.05-0.08,3.1c-2,6.83-7.45,19.66-14.93,29.63" style="fill:none;stroke:#999;stroke-width:3"></path>
<path d="M817.99,29.28c0.94,0.7,2.7,0.71,4.26,0.47c7.75-1.24,22.56-2.88,26.31-3.29c1.78-0.19,4,1.29,3.71,3.89c-1.02,9.16-3.77,24.41-10.35,38.42c-2.08,4.42-5.3,0.75-7.52-2.17" style="fill:none;stroke:#999;stroke-width:3"></path>
<path d="M810.53,42.74c1.28,0.94,2.37,0.94,4.25,0.63c3.81-0.63,15.64-1.77,16.8-1.89c1.54-0.16,2.75,1.03,2.2,3.47c-0.16,0.73-1.78,6.55-3.62,13.03" style="fill:none;stroke:#999;stroke-width:3"></path>
<path d="M813.74,60.35c4.12-0.45,14.07-1.79,19.93-2.18" style="fill:none;stroke:#999;stroke-width:3"></path>

<path d="M883.28,37.22c0.35,0.24,2.39,0.41,3.31,0.31c3.94-0.41,16.12-1.71,22.45-2.91c0.92-0.17,2.15-0.24,2.73,0" style="fill:none;stroke:#999;stroke-width:3"></path>
<path d="M897.36,15c0.91,0.47,2.04,2.5,2.04,4.92c0,0.95-0.12,69.75-0.3,75.58" style="fill:none;stroke:#999;stroke-width:3"></path>
<path d="M899.44,39.28c-5.34,15.04-8.31,21.4-16.58,34.56" style="fill:none;stroke:#999;stroke-width:3"></path>
<path d="M901.47,46.9c2.37,1.59,6.28,5.76,8.28,8.85" style="fill:none;stroke:#999;stroke-width:3"></path>
<path d="M928.62,14c0.04,0.77,0.22,2.05-0.08,3.1c-2,6.83-7.45,19.66-14.93,29.63" style="fill:none;stroke:#999;stroke-width:3"></path>
<path d="M926.99,29.28c0.94,0.7,2.7,0.71,4.26,0.47c7.75-1.24,22.56-2.88,26.31-3.29c1.78-0.19,4,1.29,3.71,3.89c-1.02,9.16-3.77,24.41-10.35,38.42c-2.08,4.42-5.3,0.75-7.52-2.17" style="fill:none;stroke:#999;stroke-width:3"></path>
<path d="M919.53,42.74c1.28,0.94,2.37,0.94,4.25,0.63c3.81-0.63,15.64-1.77,16.8-1.89c1.54-0.16,2.75,1.03,2.2,3.47c-0.16,0.73-1.78,6.55-3.62,13.03" style="fill:none;stroke:#999;stroke-width:3"></path>
<path d="M922.74,60.35c4.12-0.45,14.07-1.79,19.93-2.18" style="fill:none;stroke:#999;stroke-width:3"></path>
<path d="M922.53,44.11c-0.03,5.43,0.64,33.75,0.64,38.49c0,10.3,2.39,11.58,23.07,11.58c17.28,0,20.4-3.07,20.4-12.89" style="fill:none;stroke:#999;stroke-width:3"></path>

</svg>