<svg width="981px" height="109px" viewBox="0 0 981 109" xmlns="http://www.w3.org/2000/svg" xmlns:xlink="http://www.w3.org/1999/xlink" xml:space="preserve" version="1.1" baseProfile="full">
<line x1="1" y1="1" x2="980" y2="1" style="stroke:#ddd;stroke-width:2"></line>
<line x1="1" y1="1" x2="1" y2="108" style="stroke:#ddd;stroke-width:2"></line>
<line x1="1" y1="108" x2="980" y2="108" style="stroke:#ddd;stroke-width:2"></line>
<line x1="980" y1="1" x2="980" y2="108" style="stroke:#ddd;stroke-width:2"></line>
<line x1="109" y1="1" x2="109" y2="108" style="stroke:#ddd;stroke-width:2"></line>
<line x1="218" y1="1" x2="218" y2="108" style="stroke:#ddd;stroke-width:2"></line>
<line x1="327" y1="1" x2="327" y2="108" style="stroke:#ddd;stroke-width:2"></line>
<line x1="436" y1="1" x2="436" y2="108" style="stroke:#ddd;stroke-width:2"></line>
<line x1="545" y1="1" x2="545" y2="108" style="stroke:#ddd;stroke-width:2"></line>
<line x1="654" y1="1" x2="654" y2="108" style="stroke:#ddd;stroke-width:2"></line>
<line x1="763" y1="1" x2="763" y2="108" style="stroke:#ddd;stroke-width:2"></line>
<line x1="872" y1="1" x2="872" y2="108" style="stroke:#ddd;stroke-width:2"></line>
<line x1="1" y1="54" x2="980" y2="54" style="stroke:#ddd;stroke-width:2;stroke-dasharray:3 3"></line>
<line x1="55" y1="1" x2="55" y2="108" style="stroke:#ddd;stroke-width:2;stroke-dasharray:3 3"></line>
<line x1="164" y1="1" x2="164" y2="108" style="stroke:#ddd;stroke-width:2;stroke-dasharray:3 3"></line>
<line x1="273" y1="1" x2="273" y2="108" style="stroke:#ddd;stroke-width:2;stroke-dasharray:3 3"></line>
<line x1="382" y1="1" x2="382" y2="108" style="stroke:#ddd;stroke-width:2;stroke-dasharray:3 3"></line>
<line x1="491" y1="1" x2="491" y2="108" style="stroke:#ddd;stroke-width:2;stroke-dasharray:3 3"></line>
<line x1="600" y1="1" x2="600" y2="108" style="stroke:#ddd;stroke-width:2;stroke-dasharray:3 3"></line>
<line x1="709" y1="1" x2="709" y2="108" style="stroke:#ddd;stroke-width:2;stroke-dasharray:3 3"></line>
<line x1="818" y1="1" x2="818" y2="108" style="stroke:#ddd;stroke-width:2;stroke-dasharray:3 3"></line>
<line x1="927" y1="1" x2="927" y2="108" style="stroke:#ddd;stroke-width:2;stroke-dasharray:3 3"></line>
<path d="M13.28,38.72c0.35,0.24,2.39,0.41,3.31,0.31c3.94-0.41,16.12-2.21,22.45-3.41c0.92-0.17,2.15-0.24,2.73,0" style="fill:none;stroke:#999;stroke-width:3"></path>

<path d="M122.28,38.72c0.35,0.24,2.39,0.41,3.31,0.31c3.94-0.41,16.12-2.21,22.45-3.41c0.92-0.17,2.15-0.24,2.73,0" style="fill:none;stroke:#999;stroke-width:3"></path>
<path d="M137.36,14.5c0.91,0.47,2.04,2.25,2.04,4.42c0,0.95-0.12,70.75-0.3,76.58" style="fill:none;stroke:#999;stroke-width:3"></path>

<path d="M231.28,38.72c0.35,0.24,2.39,0.41,3.31,0.31c3.94-0.41,16.12-2.21,22.45-3.41c0.92-0.17,2.15-0.24,2.73,0" style="fill:none;stroke:#999;stroke-width:3"></path>
<path d="M246.36,14.5c0.91,0.47,2.04,2.25,2.04,4.42c0,0.95-0.12,70.75-0.3,76.58" style="fill:none;stroke:#999;stroke-width:3"></path>
<path d="M247.94,39.78C242.75,54.75,237.25,67,228.86,77.59" style="fill:none;stroke:#999;stroke-width:3"></path>

<path d="M340.28,38.72c0.35,0.24,2.39,0.41,3.31,0.31c3.94-0.41,16.12-2.21,22.45-3.41c0.92-0.17,2.15-0.24,2.73,0" style="fill:none;stroke:#999;stroke-width:3"></path>
<path d="M355.36,14.5c0.91,0.47,2.04,2.25,2.04,4.42c0,0.95-0.12,70.75-0.3,76.58" style="fill:none;stroke:#999;stroke-width:3"></path>
<path d="M356.94,39.78C351.75,54.75,346.25,67,337.86,77.59" style="fill:none;stroke:#999;stroke-width:3"></path>
<path d="M359.47,46.9c2.37,1.59,6.28,7.76,8.28,10.85" style="fill:none;stroke:#999;stroke-width:3"></path>

<path d="M449.28,38.72c0.35,0.24,2.39,0.41,3.31,0.31c3.94-0.41,16.12-2.21,22.45-3.41c0.92-0.17,2.15-0.24,2.73,0" style="fill:none;stroke:#999;stroke-width:3"></path>
<path d="M464.36,14.5c0.91,0.47,2.04,2.25,2.04,4.42c0,0.95-0.12,70.75-0.3,76.58" style="fill:none;stroke:#999;stroke-width:3"></path>
<path d="M465.94,39.78C460.75,54.75,455.25,67,446.86,77.59" style="fill:none;stroke:#999;stroke-width:3"></path>
<path d="M468.47,46.9c2.37,1.59,6.28,7.76,8.28,10.85" style="fill:none;stroke:#999;stroke-width:3"></path>
<path d="M502.83,14.25c1.56,1.17,2.34,1.17,2.34,3.9c0,2.73,0,9.2,0,16.6" style="fill:none;stroke:#999;stroke-width:3"></path>

<path d="M558.28,38.72c0.35,0.24,2.39,0.41,3.31,0.31c3.94-0.41,16.12-2.21,22.45-3.41c0.92-0.17,2.15-0.24,2.73,0" style="fill:none;stroke:#999;stroke-width:3"></path>
<path d="M573.36,14.5c0.91,0.47,2.04,2.25,2.04,4.42c0,0.95-0.12,70.75-0.3,76.58" style="fill:none;stroke:#999;stroke-width:3"></path>
<path d="M574.94,39.78C569.75,54.75,564.25,67,555.86,77.59" style="fill:none;stroke:#999;stroke-width:3"></path>
<path d="M577.47,46.9c2.37,1.59,6.28,7.76,8.28,10.85" style="fill:none;stroke:#999;stroke-width:3"></path>
<path d="M611.8299999999999,14.25c1.56,1.17,2.34,1.17,2.34,3.9c0,2.73,0,9.2,0,16.6" style="fill:none;stroke:#999;stroke-width:3"></path>
<path d="M593.59,35.17c1.66,0.33,2.95,0.72,4.3,0.69c7.66-0.16,23.86-1.86,36.53-2.6c2.26-0.13,3.62,0.09,4.75,0.19" style="fill:none;stroke:#999;stroke-width:3"></path>

<path d="M667.28,38.72c0.35,0.24,2.39,0.41,3.31,0.31c3.94-0.41,16.12-2.21,22.45-3.41c0.92-0.17,2.15-0.24,2.73,0" style="fill:none;stroke:#999;stroke-width:3"></path>
<path d="M682.36,14.5c0.91,0.47,2.04,2.25,2.04,4.42c0,0.95-0.12,70.75-0.3,76.58" style="fill:none;stroke:#999;stroke-width:3"></path>
<path d="M683.94,39.78C678.75,54.75,673.25,67,664.86,77.59" style="fill:none;stroke:#999;stroke-width:3"></path>
<path d="M686.47,46.9c2.37,1.59,6.28,7.76,8.28,10.85" style="fill:none;stroke:#999;stroke-width:3"></path>
<path d="M720.8299999999999,14.25c1.56,1.17,2.34,1.17,2.34,3.9c0,2.73,0,9.2,0,16.6" style="fill:none;stroke:#999;stroke-width:3"></path>
<path d="M702.59,35.17c1.66,0.33,2.95,0.72,4.3,0.69c7.66-0.16,23.86-1.86,36.53-2.6c2.26-0.13,3.62,0.09,4.75,0.19" style="fill:none;stroke:#999;stroke-width:3"></path>
<path d="M709.42,44.02c3.23,12.19,4.93,28.01,6.17,42.89" style="fill:none;stroke:#999;stroke-width:3"></path>

<path d="M776.28,38.72c0.35,0.24,2.39,0.41,3.31,0.31c3.94-0.41,16.12-2.21,22.45-3.41c0.92-0.17,2.15-0.24,2.73,0" style="fill:none;stroke:#999;stroke-width:3"></path>
<path d="M791.36,14.5c0.91,0.47,2.04,2.25,2.04,4.42c0,0.95-0.12,70.75-0.3,76.58" style="fill:none;stroke:#999;stroke-width:3"></path>
<path d="M792.94,39.78C787.75,54.75,782.25,67,773.86,77.59" style="fill:none;stroke:#999;stroke-width:3"></path>
<path d="M795.47,46.9c2.37,1.59,6.28,7.76,8.28,10.85" style="fill:none;stroke:#999;stroke-width:3"></path>
<path d="M829.8299999999999,14.25c1.56,1.17,2.34,1.17,2.34,3.9c0,2.73,0,9.2,0,16.6" style="fill:none;stroke:#999;stroke-width:3"></path>
<path d="M811.59,35.17c1.66,0.33,2.95,0.72,4.3,0.69c7.66-0.16,23.86-1.86,36.53-2.6c2.26-0.13,3.62,0.09,4.75,0.19" style="fill:none;stroke:#999;stroke-width:3"></path>
<path d="M818.42,44.02c3.23,12.19,4.93,28.01,6.17,42.89" style="fill:none;stroke:#999;stroke-width:3"></path>
<path d="M847.1,39.54c0.72,1.52,0.81,2.3,0.72,3.56c-0.58,8.63-5.94,36.06-7.39,42.67" style="fill:none;stroke:#999;stroke-width:3"></path>

<path d="M885.28,38.72c0.35,0.24,2.39,0.41,3.31,0.31c3.94-0.41,16.12-2.21,22.45-3.41c0.92-0.17,2.15-0.24,2.73,0" style="fill:none;stroke:#999;stroke-width:3"></path>
<path d="M900.36,14.5c0.91,0.47,2.04,2.25,2.04,4.42c0,0.95-0.12,70.75-0.3,76.58" style="fill:none;stroke:#999;stroke-width:3"></path>
<path d="M901.94,39.78C896.75,54.75,891.25,67,882.86,77.59" style="fill:none;stroke:#999;stroke-width:3"></path>
<path d="M904.47,46.9c2.37,1.59,6.28,7.76,8.28,10.85" style="fill:none;stroke:#999;stroke-width:3"></path>
<path d="M938.8299999999999,14.25c1.56,1.17,2.34,1.17,2.34,3.9c0,2.73,0,9.2,0,16.6" style="fill:none;stroke:#999;stroke-width:3"></path>
<path d="M920.59,35.17c1.66,0.33,2.95,0.72,4.3,0.69c7.66-0.16,23.86-1.86,36.53-2.6c2.26-0.13,3.62,0.09,4.75,0.19" style="fill:none;stroke:#999;stroke-width:3"></path>
<path d="M927.42,44.02c3.23,12.19,4.93,28.01,6.17,42.89" style="fill:none;stroke:#999;stroke-width:3"></path>
<path d="M956.1,39.54c0.72,1.52,0.81,2.3,0.72,3.56c-0.58,8.63-5.94,36.06-7.39,42.67" style="fill:none;stroke:#999;stroke-width:3"></path>
<path d="M913.5,90.34c1.19,0.36,2.58,0.4,3.76,0.36c12.74-0.44,30.99-2.7,47.59-2.64c1.98,0.01,3.17,0.17,4.16,0.35" style="fill:none;stroke:#999;stroke-width:3"></path>

</svg>