<svg width="981px" height="109px" viewBox="0 0 981 109" xmlns="http://www.w3.org/2000/svg" xmlns:xlink="http://www.w3.org/1999/xlink" xml:space="preserve" version="1.1" baseProfile="full">
<line x1="1" y1="1" x2="980" y2="1" style="stroke:#ddd;stroke-width:2"></line>
<line x1="1" y1="1" x2="1" y2="108" style="stroke:#ddd;stroke-width:2"></line>
<line x1="1" y1="108" x2="980" y2="108" style="stroke:#ddd;stroke-width:2"></line>
<line x1="980" y1="1" x2="980" y2="108" style="stroke:#ddd;stroke-width:2"></line>
<line x1="109" y1="1" x2="109" y2="108" style="stroke:#ddd;stroke-width:2"></line>
<line x1="218" y1="1" x2="218" y2="108" style="stroke:#ddd;stroke-width:2"></line>
<line x1="327" y1="1" x2="327" y2="108" style="stroke:#ddd;stroke-width:2"></line>
<line x1="436" y1="1" x2="436" y2="108" style="stroke:#ddd;stroke-width:2"></line>
<line x1="545" y1="1" x2="545" y2="108" style="stroke:#ddd;stroke-width:2"></line>
<line x1="654" y1="1" x2="654" y2="108" style="stroke:#ddd;stroke-width:2"></line>
<line x1="763" y1="1" x2="763" y2="108" style="stroke:#ddd;stroke-width:2"></line>
<line x1="872" y1="1" x2="872" y2="108" style="stroke:#ddd;stroke-width:2"></line>
<line x1="1" y1="54" x2="980" y2="54" style="stroke:#ddd;stroke-width:2;stroke-dasharray:3 3"></line>
<line x1="55" y1="1" x2="55" y2="108" style="stroke:#ddd;stroke-width:2;stroke-dasharray:3 3"></line>
<line x1="164" y1="1" x2="164" y2="108" style="stroke:#ddd;stroke-width:2;stroke-dasharray:3 3"></line>
<line x1="273" y1="1" x2="273" y2="108" style="stroke:#ddd;stroke-width:2;stroke-dasharray:3 3"></line>
<line x1="382" y1="1" x2="382" y2="108" style="stroke:#ddd;stroke-width:2;stroke-dasharray:3 3"></line>
<line x1="491" y1="1" x2="491" y2="108" style="stroke:#ddd;stroke-width:2;stroke-dasharray:3 3"></line>
<line x1="600" y1="1" x2="600" y2="108" style="stroke:#ddd;stroke-width:2;stroke-dasharray:3 3"></line>
<line x1="709" y1="1" x2="709" y2="108" style="stroke:#ddd;stroke-width:2;stroke-dasharray:3 3"></line>
<line x1="818" y1="1" x2="818" y2="108" style="stroke:#ddd;stroke-width:2;stroke-dasharray:3 3"></line>
<line x1="927" y1="1" x2="927" y2="108" style="stroke:#ddd;stroke-width:2;stroke-dasharray:3 3"></line>
<path d="M13.28,36.72c0.35,0.24,2.39,0.41,3.31,0.31c3.94-0.41,17.12-2.21,23.45-3.41c0.92-0.17,2.15-0.24,2.73,0" style="fill:none;stroke:#999;stroke-width:3"></path>

<path d="M122.28,36.72c0.35,0.24,2.39,0.41,3.31,0.31c3.94-0.41,17.12-2.21,23.45-3.41c0.92-0.17,2.15-0.24,2.73,0" style="fill:none;stroke:#999;stroke-width:3"></path>
<path d="M136.36,14.5c0.91,0.47,2.04,2,2.04,4.42c0,0.95-0.12,69.75-0.3,75.58" style="fill:none;stroke:#999;stroke-width:3"></path>

<path d="M231.28,36.72c0.35,0.24,2.39,0.41,3.31,0.31c3.94-0.41,17.12-2.21,23.45-3.41c0.92-0.17,2.15-0.24,2.73,0" style="fill:none;stroke:#999;stroke-width:3"></path>
<path d="M245.36,14.5c0.91,0.47,2.04,2,2.04,4.42c0,0.95-0.12,69.75-0.3,75.58" style="fill:none;stroke:#999;stroke-width:3"></path>
<path d="M246.94,40.28c-5.1,15.04-7.94,20.4-15.83,33.56" style="fill:none;stroke:#999;stroke-width:3"></path>

<path d="M340.28,36.72c0.35,0.24,2.39,0.41,3.31,0.31c3.94-0.41,17.12-2.21,23.45-3.41c0.92-0.17,2.15-0.24,2.73,0" style="fill:none;stroke:#999;stroke-width:3"></path>
<path d="M354.36,14.5c0.91,0.47,2.04,2,2.04,4.42c0,0.95-0.12,69.75-0.3,75.58" style="fill:none;stroke:#999;stroke-width:3"></path>
<path d="M355.94,40.28c-5.1,15.04-7.94,20.4-15.83,33.56" style="fill:none;stroke:#999;stroke-width:3"></path>
<path d="M358.47,42.9c2.16,1.23,5.71,5.22,7.53,7.6" style="fill:none;stroke:#999;stroke-width:3"></path>

<path d="M449.28,36.72c0.35,0.24,2.39,0.41,3.31,0.31c3.94-0.41,17.12-2.21,23.45-3.41c0.92-0.17,2.15-0.24,2.73,0" style="fill:none;stroke:#999;stroke-width:3"></path>
<path d="M463.36,14.5c0.91,0.47,2.04,2,2.04,4.42c0,0.95-0.12,69.75-0.3,75.58" style="fill:none;stroke:#999;stroke-width:3"></path>
<path d="M464.94,40.28c-5.1,15.04-7.94,20.4-15.83,33.56" style="fill:none;stroke:#999;stroke-width:3"></path>
<path d="M467.47,42.9c2.16,1.23,5.71,5.22,7.53,7.6" style="fill:none;stroke:#999;stroke-width:3"></path>
<path d="M494.48,16.61c0.19,1.95-0.05,4.5-0.66,6.17c-3.88,10.64-9.19,24.05-18.09,37" style="fill:none;stroke:#999;stroke-width:3"></path>

<path d="M558.28,36.72c0.35,0.24,2.39,0.41,3.31,0.31c3.94-0.41,17.12-2.21,23.45-3.41c0.92-0.17,2.15-0.24,2.73,0" style="fill:none;stroke:#999;stroke-width:3"></path>
<path d="M572.36,14.5c0.91,0.47,2.04,2,2.04,4.42c0,0.95-0.12,69.75-0.3,75.58" style="fill:none;stroke:#999;stroke-width:3"></path>
<path d="M573.94,40.28c-5.1,15.04-7.94,20.4-15.83,33.56" style="fill:none;stroke:#999;stroke-width:3"></path>
<path d="M576.47,42.9c2.16,1.23,5.71,5.22,7.53,7.6" style="fill:none;stroke:#999;stroke-width:3"></path>
<path d="M603.48,16.61c0.19,1.95-0.05,4.5-0.66,6.17c-3.88,10.64-9.19,24.05-18.09,37" style="fill:none;stroke:#999;stroke-width:3"></path>
<path d="M595.64,44.03c0.34,0.92,0.88,2.83,0.92,4.11c0.39,11.53-0.75,39.6-0.4,46.21" style="fill:none;stroke:#999;stroke-width:3"></path>

<path d="M667.28,36.72c0.35,0.24,2.39,0.41,3.31,0.31c3.94-0.41,17.12-2.21,23.45-3.41c0.92-0.17,2.15-0.24,2.73,0" style="fill:none;stroke:#999;stroke-width:3"></path>
<path d="M681.36,14.5c0.91,0.47,2.04,2,2.04,4.42c0,0.95-0.12,69.75-0.3,75.58" style="fill:none;stroke:#999;stroke-width:3"></path>
<path d="M682.94,40.28c-5.1,15.04-7.94,20.4-15.83,33.56" style="fill:none;stroke:#999;stroke-width:3"></path>
<path d="M685.47,42.9c2.16,1.23,5.71,5.22,7.53,7.6" style="fill:none;stroke:#999;stroke-width:3"></path>
<path d="M712.48,16.61c0.19,1.95-0.05,4.5-0.66,6.17c-3.88,10.64-9.19,24.05-18.09,37" style="fill:none;stroke:#999;stroke-width:3"></path>
<path d="M704.64,44.03c0.34,0.92,0.88,2.83,0.92,4.11c0.39,11.53-0.75,39.6-0.4,46.21" style="fill:none;stroke:#999;stroke-width:3"></path>
<path d="M714.75,40.09c1.05,0.7,3.47,0.84,4.54,0.76c7.95-0.6,18.36-2.68,28.41-3.52c1.75-0.15,2.81-0.1,3.69,0.24" style="fill:none;stroke:#999;stroke-width:3"></path>

<path d="M776.28,36.72c0.35,0.24,2.39,0.41,3.31,0.31c3.94-0.41,17.12-2.21,23.45-3.41c0.92-0.17,2.15-0.24,2.73,0" style="fill:none;stroke:#999;stroke-width:3"></path>
<path d="M790.36,14.5c0.91,0.47,2.04,2,2.04,4.42c0,0.95-0.12,69.75-0.3,75.58" style="fill:none;stroke:#999;stroke-width:3"></path>
<path d="M791.94,40.28c-5.1,15.04-7.94,20.4-15.83,33.56" style="fill:none;stroke:#999;stroke-width:3"></path>
<path d="M794.47,42.9c2.16,1.23,5.71,5.22,7.53,7.6" style="fill:none;stroke:#999;stroke-width:3"></path>
<path d="M821.48,16.61c0.19,1.95-0.05,4.5-0.66,6.17c-3.88,10.64-9.19,24.05-18.09,37" style="fill:none;stroke:#999;stroke-width:3"></path>
<path d="M813.64,44.03c0.34,0.92,0.88,2.83,0.92,4.11c0.39,11.53-0.75,39.6-0.4,46.21" style="fill:none;stroke:#999;stroke-width:3"></path>
<path d="M823.75,40.09c1.05,0.7,3.47,0.84,4.54,0.76c7.95-0.6,18.36-2.68,28.41-3.52c1.75-0.15,2.81-0.1,3.69,0.24" style="fill:none;stroke:#999;stroke-width:3"></path>
<path d="M845.6,13.93c0.08,0.63,1.11,1.57,1.19,5.54c0.38,19.08-0.24,62.97-0.24,69.47c0,12.17-6.17,2.34-8.25,0.33" style="fill:none;stroke:#999;stroke-width:3"></path>

<path d="M885.28,36.72c0.35,0.24,2.39,0.41,3.31,0.31c3.94-0.41,17.12-2.21,23.45-3.41c0.92-0.17,2.15-0.24,2.73,0" style="fill:none;stroke:#999;stroke-width:3"></path>
<path d="M899.36,14.5c0.91,0.47,2.04,2,2.04,4.42c0,0.95-0.12,69.75-0.3,75.58" style="fill:none;stroke:#999;stroke-width:3"></path>
<path d="M900.94,40.28c-5.1,15.04-7.94,20.4-15.83,33.56" style="fill:none;stroke:#999;stroke-width:3"></path>
<path d="M903.47,42.9c2.16,1.23,5.71,5.22,7.53,7.6" style="fill:none;stroke:#999;stroke-width:3"></path>
<path d="M930.48,16.61c0.19,1.95-0.05,4.5-0.66,6.17c-3.88,10.64-9.19,24.05-18.09,37" style="fill:none;stroke:#999;stroke-width:3"></path>
<path d="M922.64,44.03c0.34,0.92,0.88,2.83,0.92,4.11c0.39,11.53-0.75,39.6-0.4,46.21" style="fill:none;stroke:#999;stroke-width:3"></path>
<path d="M932.75,40.09c1.05,0.7,3.47,0.84,4.54,0.76c7.95-0.6,18.36-2.68,28.41-3.52c1.75-0.15,2.81-0.1,3.69,0.24" style="fill:none;stroke:#999;stroke-width:3"></path>
<path d="M954.6,13.93c0.08,0.63,1.11,1.57,1.19,5.54c0.38,19.08-0.24,62.97-0.24,69.47c0,12.17-6.17,2.34-8.25,0.33" style="fill:none;stroke:#999;stroke-width:3"></path>
<path d="M937.52,55.02c3.02,1.81,7.81,7.44,8.57,10.25" style="fill:none;stroke:#999;stroke-width:3"></path>

</svg>