<svg width="981px" height="109px" viewBox="0 0 981 109" xmlns="http://www.w3.org/2000/svg" xmlns:xlink="http://www.w3.org/1999/xlink" xml:space="preserve" version="1.1" baseProfile="full">
<line x1="1" y1="1" x2="980" y2="1" style="stroke:#ddd;stroke-width:2"></line>
<line x1="1" y1="1" x2="1" y2="108" style="stroke:#ddd;stroke-width:2"></line>
<line x1="1" y1="108" x2="980" y2="108" style="stroke:#ddd;stroke-width:2"></line>
<line x1="980" y1="1" x2="980" y2="108" style="stroke:#ddd;stroke-width:2"></line>
<line x1="109" y1="1" x2="109" y2="108" style="stroke:#ddd;stroke-width:2"></line>
<line x1="218" y1="1" x2="218" y2="108" style="stroke:#ddd;stroke-width:2"></line>
<line x1="327" y1="1" x2="327" y2="108" style="stroke:#ddd;stroke-width:2"></line>
<line x1="436" y1="1" x2="436" y2="108" style="stroke:#ddd;stroke-width:2"></line>
<line x1="545" y1="1" x2="545" y2="108" style="stroke:#ddd;stroke-width:2"></line>
<line x1="654" y1="1" x2="654" y2="108" style="stroke:#ddd;stroke-width:2"></line>
<line x1="763" y1="1" x2="763" y2="108" style="stroke:#ddd;stroke-width:2"></line>
<line x1="872" y1="1" x2="872" y2="108" style="stroke:#ddd;stroke-width:2"></line>
<line x1="1" y1="54" x2="980" y2="54" style="stroke:#ddd;stroke-width:2;stroke-dasharray:3 3"></line>
<line x1="55" y1="1" x2="55" y2="108" style="stroke:#ddd;stroke-width:2;stroke-dasharray:3 3"></line>
<line x1="164" y1="1" x2="164" y2="108" style="stroke:#ddd;stroke-width:2;stroke-dasharray:3 3"></line>
<line x1="273" y1="1" x2="273" y2="108" style="stroke:#ddd;stroke-width:2;stroke-dasharray:3 3"></line>
<line x1="382" y1="1" x2="382" y2="108" style="stroke:#ddd;stroke-width:2;stroke-dasharray:3 3"></line>
<line x1="491" y1="1" x2="491" y2="108" style="stroke:#ddd;stroke-width:2;stroke-dasharray:3 3"></line>
<line x1="600" y1="1" x2="600" y2="108" style="stroke:#ddd;stroke-width:2;stroke-dasharray:3 3"></line>
<line x1="709" y1="1" x2="709" y2="108" style="stroke:#ddd;stroke-width:2;stroke-dasharray:3 3"></line>
<line x1="818" y1="1" x2="818" y2="108" style="stroke:#ddd;stroke-width:2;stroke-dasharray:3 3"></line>
<line x1="927" y1="1" x2="927" y2="108" style="stroke:#ddd;stroke-width:2;stroke-dasharray:3 3"></line>
<path d="M12.28,38.25c0.39,0.23,2.68,0.38,3.71,0.29c4.43-0.38,19.22-2.07,26.33-3.2c1.03-0.16,1.29-0.23,1.94,0" style="fill:none;stroke:#999;stroke-width:3"></path>

<path d="M121.28,38.25c0.39,0.23,2.68,0.38,3.71,0.29c4.43-0.38,19.22-2.07,26.33-3.2c1.03-0.16,1.29-0.23,1.94,0" style="fill:none;stroke:#999;stroke-width:3"></path>
<path d="M138.36,13.5c0.91,0.47,2.54,2,2.54,4.92c0,0.95-0.12,70.25-0.3,76.08" style="fill:none;stroke:#999;stroke-width:3"></path>

<path d="M230.28,38.25c0.39,0.23,2.68,0.38,3.71,0.29c4.43-0.38,19.22-2.07,26.33-3.2c1.03-0.16,1.29-0.23,1.94,0" style="fill:none;stroke:#999;stroke-width:3"></path>
<path d="M247.36,13.5c0.91,0.47,2.54,2,2.54,4.92c0,0.95-0.12,70.25-0.3,76.08" style="fill:none;stroke:#999;stroke-width:3"></path>
<path d="M249.44,39.78c-6.15,15.26-9.57,21.7-19.08,35.06" style="fill:none;stroke:#999;stroke-width:3"></path>

<path d="M339.28,38.25c0.39,0.23,2.68,0.38,3.71,0.29c4.43-0.38,19.22-2.07,26.33-3.2c1.03-0.16,1.29-0.23,1.94,0" style="fill:none;stroke:#999;stroke-width:3"></path>
<path d="M356.36,13.5c0.91,0.47,2.54,2,2.54,4.92c0,0.95-0.12,70.25-0.3,76.08" style="fill:none;stroke:#999;stroke-width:3"></path>
<path d="M358.44,39.78c-6.15,15.26-9.57,21.7-19.08,35.06" style="fill:none;stroke:#999;stroke-width:3"></path>
<path d="M361.47,48.65c2.68,1.55,6.4,6.88,8.66,9.89" style="fill:none;stroke:#999;stroke-width:3"></path>

<path d="M448.28,38.25c0.39,0.23,2.68,0.38,3.71,0.29c4.43-0.38,19.22-2.07,26.33-3.2c1.03-0.16,1.29-0.23,1.94,0" style="fill:none;stroke:#999;stroke-width:3"></path>
<path d="M465.36,13.5c0.91,0.47,2.54,2,2.54,4.92c0,0.95-0.12,70.25-0.3,76.08" style="fill:none;stroke:#999;stroke-width:3"></path>
<path d="M467.44,39.78c-6.15,15.26-9.57,21.7-19.08,35.06" style="fill:none;stroke:#999;stroke-width:3"></path>
<path d="M470.47,48.65c2.68,1.55,6.4,6.88,8.66,9.89" style="fill:none;stroke:#999;stroke-width:3"></path>
<path d="M481.93,29.2c0.92,0.35,2.97,0.45,3.89,0.35c11.53-1.24,28.52-4.31,42.34-4.51c1.54-0.02,2.46,0.17,3.22,0.35" style="fill:none;stroke:#999;stroke-width:3"></path>

<path d="M557.28,38.25c0.39,0.23,2.68,0.38,3.71,0.29c4.43-0.38,19.22-2.07,26.33-3.2c1.03-0.16,1.29-0.23,1.94,0" style="fill:none;stroke:#999;stroke-width:3"></path>
<path d="M574.36,13.5c0.91,0.47,2.54,2,2.54,4.92c0,0.95-0.12,70.25-0.3,76.08" style="fill:none;stroke:#999;stroke-width:3"></path>
<path d="M576.44,39.78c-6.15,15.26-9.57,21.7-19.08,35.06" style="fill:none;stroke:#999;stroke-width:3"></path>
<path d="M579.47,48.65c2.68,1.55,6.4,6.88,8.66,9.89" style="fill:none;stroke:#999;stroke-width:3"></path>
<path d="M590.9300000000001,29.2c0.92,0.35,2.97,0.45,3.89,0.35c11.53-1.24,28.52-4.31,42.34-4.51c1.54-0.02,2.46,0.17,3.22,0.35" style="fill:none;stroke:#999;stroke-width:3"></path>
<path d="M607.99,31.43c0.06,1.06,0.13,2.74-0.12,4.26c-1.48,8.99-9.98,28.73-21.62,40.81" style="fill:none;stroke:#999;stroke-width:3"></path>

<path d="M666.28,38.25c0.39,0.23,2.68,0.38,3.71,0.29c4.43-0.38,19.22-2.07,26.33-3.2c1.03-0.16,1.29-0.23,1.94,0" style="fill:none;stroke:#999;stroke-width:3"></path>
<path d="M683.36,13.5c0.91,0.47,2.54,2,2.54,4.92c0,0.95-0.12,70.25-0.3,76.08" style="fill:none;stroke:#999;stroke-width:3"></path>
<path d="M685.44,39.78c-6.15,15.26-9.57,21.7-19.08,35.06" style="fill:none;stroke:#999;stroke-width:3"></path>
<path d="M688.47,48.65c2.68,1.55,6.4,6.88,8.66,9.89" style="fill:none;stroke:#999;stroke-width:3"></path>
<path d="M699.9300000000001,29.2c0.92,0.35,2.97,0.45,3.89,0.35c11.53-1.24,28.52-4.31,42.34-4.51c1.54-0.02,2.46,0.17,3.22,0.35" style="fill:none;stroke:#999;stroke-width:3"></path>
<path d="M716.99,31.43c0.06,1.06,0.13,2.74-0.12,4.26c-1.48,8.99-9.98,28.73-21.62,40.81" style="fill:none;stroke:#999;stroke-width:3"></path>
<path d="M709.63,61.99c0.62,0.76,1.03,1.63,1.12,2.47c0.62,6.12,1.86,16.7,2.73,28.29" style="fill:none;stroke:#999;stroke-width:3"></path>

<path d="M775.28,38.25c0.39,0.23,2.68,0.38,3.71,0.29c4.43-0.38,19.22-2.07,26.33-3.2c1.03-0.16,1.29-0.23,1.94,0" style="fill:none;stroke:#999;stroke-width:3"></path>
<path d="M792.36,13.5c0.91,0.47,2.54,2,2.54,4.92c0,0.95-0.12,70.25-0.3,76.08" style="fill:none;stroke:#999;stroke-width:3"></path>
<path d="M794.44,39.78c-6.15,15.26-9.57,21.7-19.08,35.06" style="fill:none;stroke:#999;stroke-width:3"></path>
<path d="M797.47,48.65c2.68,1.55,6.4,6.88,8.66,9.89" style="fill:none;stroke:#999;stroke-width:3"></path>
<path d="M808.9300000000001,29.2c0.92,0.35,2.97,0.45,3.89,0.35c11.53-1.24,28.52-4.31,42.34-4.51c1.54-0.02,2.46,0.17,3.22,0.35" style="fill:none;stroke:#999;stroke-width:3"></path>
<path d="M825.99,31.43c0.06,1.06,0.13,2.74-0.12,4.26c-1.48,8.99-9.98,28.73-21.62,40.81" style="fill:none;stroke:#999;stroke-width:3"></path>
<path d="M818.63,61.99c0.62,0.76,1.03,1.63,1.12,2.47c0.62,6.12,1.86,16.7,2.73,28.29" style="fill:none;stroke:#999;stroke-width:3"></path>
<path d="M819.88,63.03c6.92-1.23,27.79-3.85,32.52-4.04c1.95-0.08,3.18,1.83,2.84,3.6c-1.2,6.1-3.54,14.73-4.54,25.16" style="fill:none;stroke:#999;stroke-width:3"></path>

<path d="M884.28,38.25c0.39,0.23,2.68,0.38,3.71,0.29c4.43-0.38,19.22-2.07,26.33-3.2c1.03-0.16,1.29-0.23,1.94,0" style="fill:none;stroke:#999;stroke-width:3"></path>
<path d="M901.36,13.5c0.91,0.47,2.54,2,2.54,4.92c0,0.95-0.12,70.25-0.3,76.08" style="fill:none;stroke:#999;stroke-width:3"></path>
<path d="M903.44,39.78c-6.15,15.26-9.57,21.7-19.08,35.06" style="fill:none;stroke:#999;stroke-width:3"></path>
<path d="M906.47,48.65c2.68,1.55,6.4,6.88,8.66,9.89" style="fill:none;stroke:#999;stroke-width:3"></path>
<path d="M917.9300000000001,29.2c0.92,0.35,2.97,0.45,3.89,0.35c11.53-1.24,28.52-4.31,42.34-4.51c1.54-0.02,2.46,0.17,3.22,0.35" style="fill:none;stroke:#999;stroke-width:3"></path>
<path d="M934.99,31.43c0.06,1.06,0.13,2.74-0.12,4.26c-1.48,8.99-9.98,28.73-21.62,40.81" style="fill:none;stroke:#999;stroke-width:3"></path>
<path d="M927.63,61.99c0.62,0.76,1.03,1.63,1.12,2.47c0.62,6.12,1.86,16.7,2.73,28.29" style="fill:none;stroke:#999;stroke-width:3"></path>
<path d="M928.88,63.03c6.92-1.23,27.79-3.85,32.52-4.04c1.95-0.08,3.18,1.83,2.84,3.6c-1.2,6.1-3.54,14.73-4.54,25.16" style="fill:none;stroke:#999;stroke-width:3"></path>
<path d="M931.34,90.62c5.54-0.62,23.21-2.19,30.28-2.37" style="fill:none;stroke:#999;stroke-width:3"></path>

</svg>