<svg width="981px" height="109px" viewBox="0 0 981 109" xmlns="http://www.w3.org/2000/svg" xmlns:xlink="http://www.w3.org/1999/xlink" xml:space="preserve" version="1.1" baseProfile="full">
<line x1="1" y1="1" x2="980" y2="1" style="stroke:#ddd;stroke-width:2"></line>
<line x1="1" y1="1" x2="1" y2="108" style="stroke:#ddd;stroke-width:2"></line>
<line x1="1" y1="108" x2="980" y2="108" style="stroke:#ddd;stroke-width:2"></line>
<line x1="980" y1="1" x2="980" y2="108" style="stroke:#ddd;stroke-width:2"></line>
<line x1="109" y1="1" x2="109" y2="108" style="stroke:#ddd;stroke-width:2"></line>
<line x1="218" y1="1" x2="218" y2="108" style="stroke:#ddd;stroke-width:2"></line>
<line x1="327" y1="1" x2="327" y2="108" style="stroke:#ddd;stroke-width:2"></line>
<line x1="436" y1="1" x2="436" y2="108" style="stroke:#ddd;stroke-width:2"></line>
<line x1="545" y1="1" x2="545" y2="108" style="stroke:#ddd;stroke-width:2"></line>
<line x1="654" y1="1" x2="654" y2="108" style="stroke:#ddd;stroke-width:2"></line>
<line x1="763" y1="1" x2="763" y2="108" style="stroke:#ddd;stroke-width:2"></line>
<line x1="872" y1="1" x2="872" y2="108" style="stroke:#ddd;stroke-width:2"></line>
<line x1="1" y1="54" x2="980" y2="54" style="stroke:#ddd;stroke-width:2;stroke-dasharray:3 3"></line>
<line x1="55" y1="1" x2="55" y2="108" style="stroke:#ddd;stroke-width:2;stroke-dasharray:3 3"></line>
<line x1="164" y1="1" x2="164" y2="108" style="stroke:#ddd;stroke-width:2;stroke-dasharray:3 3"></line>
<line x1="273" y1="1" x2="273" y2="108" style="stroke:#ddd;stroke-width:2;stroke-dasharray:3 3"></line>
<line x1="382" y1="1" x2="382" y2="108" style="stroke:#ddd;stroke-width:2;stroke-dasharray:3 3"></line>
<line x1="491" y1="1" x2="491" y2="108" style="stroke:#ddd;stroke-width:2;stroke-dasharray:3 3"></line>
<line x1="600" y1="1" x2="600" y2="108" style="stroke:#ddd;stroke-width:2;stroke-dasharray:3 3"></line>
<line x1="709" y1="1" x2="709" y2="108" style="stroke:#ddd;stroke-width:2;stroke-dasharray:3 3"></line>
<line x1="818" y1="1" x2="818" y2="108" style="stroke:#ddd;stroke-width:2;stroke-dasharray:3 3"></line>
<line x1="927" y1="1" x2="927" y2="108" style="stroke:#ddd;stroke-width:2;stroke-dasharray:3 3"></line>
<path d="M15.28,37.72c0.35,0.24,2.39,0.41,3.31,0.31c3.94-0.41,18.12-2.21,24.45-3.41c0.92-0.17,2.15-0.24,2.73,0" style="fill:none;stroke:#999;stroke-width:3"></path>

<path d="M124.28,37.72c0.35,0.24,2.39,0.41,3.31,0.31c3.94-0.41,18.12-2.21,24.45-3.41c0.92-0.17,2.15-0.24,2.73,0" style="fill:none;stroke:#999;stroke-width:3"></path>
<path d="M138.86,15c0.91,0.47,2.54,2,2.54,3.92c0,0.95-0.12,70.75-0.3,76.58" style="fill:none;stroke:#999;stroke-width:3"></path>

<path d="M233.28,37.72c0.35,0.24,2.39,0.41,3.31,0.31c3.94-0.41,18.12-2.21,24.45-3.41c0.92-0.17,2.15-0.24,2.73,0" style="fill:none;stroke:#999;stroke-width:3"></path>
<path d="M247.86,15c0.91,0.47,2.54,2,2.54,3.92c0,0.95-0.12,70.75-0.3,76.58" style="fill:none;stroke:#999;stroke-width:3"></path>
<path d="M249.94,40.28c-5.1,15.04-8.94,21.4-16.83,34.56" style="fill:none;stroke:#999;stroke-width:3"></path>

<path d="M342.28,37.72c0.35,0.24,2.39,0.41,3.31,0.31c3.94-0.41,18.12-2.21,24.45-3.41c0.92-0.17,2.15-0.24,2.73,0" style="fill:none;stroke:#999;stroke-width:3"></path>
<path d="M356.86,15c0.91,0.47,2.54,2,2.54,3.92c0,0.95-0.12,70.75-0.3,76.58" style="fill:none;stroke:#999;stroke-width:3"></path>
<path d="M358.94,40.28c-5.1,15.04-8.94,21.4-16.83,34.56" style="fill:none;stroke:#999;stroke-width:3"></path>
<path d="M361.47,45.9c2.37,1.59,8.28,8.76,10.28,11.85" style="fill:none;stroke:#999;stroke-width:3"></path>

<path d="M451.28,37.72c0.35,0.24,2.39,0.41,3.31,0.31c3.94-0.41,18.12-2.21,24.45-3.41c0.92-0.17,2.15-0.24,2.73,0" style="fill:none;stroke:#999;stroke-width:3"></path>
<path d="M465.86,15c0.91,0.47,2.54,2,2.54,3.92c0,0.95-0.12,70.75-0.3,76.58" style="fill:none;stroke:#999;stroke-width:3"></path>
<path d="M467.94,40.28c-5.1,15.04-8.94,21.4-16.83,34.56" style="fill:none;stroke:#999;stroke-width:3"></path>
<path d="M470.47,45.9c2.37,1.59,8.28,8.76,10.28,11.85" style="fill:none;stroke:#999;stroke-width:3"></path>
<path d="M520.11,13.5c0.07,0.4,0.31,1.19-0.15,1.62C513.66,21.05,505.6,25.54,492.3,30.64" style="fill:none;stroke:#999;stroke-width:3"></path>

<path d="M560.28,37.72c0.35,0.24,2.39,0.41,3.31,0.31c3.94-0.41,18.12-2.21,24.45-3.41c0.92-0.17,2.15-0.24,2.73,0" style="fill:none;stroke:#999;stroke-width:3"></path>
<path d="M574.86,15c0.91,0.47,2.54,2,2.54,3.92c0,0.95-0.12,70.75-0.3,76.58" style="fill:none;stroke:#999;stroke-width:3"></path>
<path d="M576.94,40.28c-5.1,15.04-8.94,21.4-16.83,34.56" style="fill:none;stroke:#999;stroke-width:3"></path>
<path d="M579.47,45.9c2.37,1.59,8.28,8.76,10.28,11.85" style="fill:none;stroke:#999;stroke-width:3"></path>
<path d="M629.11,13.5c0.07,0.4,0.31,1.19-0.15,1.62C622.66,21.05,614.6,25.54,601.3,30.64" style="fill:none;stroke:#999;stroke-width:3"></path>
<path d="M598.05,29.79c1.43,1.99,1.44,3.89,1.4,6.06c-0.12,6.54-0.22,8.25-0.22,16.04c0,14.25-3.04,31.87-13.47,41.9" style="fill:none;stroke:#999;stroke-width:3"></path>

<path d="M669.28,37.72c0.35,0.24,2.39,0.41,3.31,0.31c3.94-0.41,18.12-2.21,24.45-3.41c0.92-0.17,2.15-0.24,2.73,0" style="fill:none;stroke:#999;stroke-width:3"></path>
<path d="M683.86,15c0.91,0.47,2.54,2,2.54,3.92c0,0.95-0.12,70.75-0.3,76.58" style="fill:none;stroke:#999;stroke-width:3"></path>
<path d="M685.94,40.28c-5.1,15.04-8.94,21.4-16.83,34.56" style="fill:none;stroke:#999;stroke-width:3"></path>
<path d="M688.47,45.9c2.37,1.59,8.28,8.76,10.28,11.85" style="fill:none;stroke:#999;stroke-width:3"></path>
<path d="M738.11,13.5c0.07,0.4,0.31,1.19-0.15,1.62C731.66,21.05,723.6,25.54,710.3,30.64" style="fill:none;stroke:#999;stroke-width:3"></path>
<path d="M707.05,29.79c1.43,1.99,1.44,3.89,1.4,6.06c-0.12,6.54-0.22,8.25-0.22,16.04c0,14.25-3.04,31.87-13.47,41.9" style="fill:none;stroke:#999;stroke-width:3"></path>
<path d="M709.78,45.5c2.01,0,3.36-0.11,4.62-0.25c6.95-0.8,21.99-2.61,29.89-3.01c1.27-0.06,3.47-0.13,4.26,0" style="fill:none;stroke:#999;stroke-width:3"></path>

<path d="M778.28,37.72c0.35,0.24,2.39,0.41,3.31,0.31c3.94-0.41,18.12-2.21,24.45-3.41c0.92-0.17,2.15-0.24,2.73,0" style="fill:none;stroke:#999;stroke-width:3"></path>
<path d="M792.86,15c0.91,0.47,2.54,2,2.54,3.92c0,0.95-0.12,70.75-0.3,76.58" style="fill:none;stroke:#999;stroke-width:3"></path>
<path d="M794.94,40.28c-5.1,15.04-8.94,21.4-16.83,34.56" style="fill:none;stroke:#999;stroke-width:3"></path>
<path d="M797.47,45.9c2.37,1.59,8.28,8.76,10.28,11.85" style="fill:none;stroke:#999;stroke-width:3"></path>
<path d="M847.11,13.5c0.07,0.4,0.31,1.19-0.15,1.62C840.66,21.05,832.6,25.54,819.3,30.64" style="fill:none;stroke:#999;stroke-width:3"></path>
<path d="M816.05,29.79c1.43,1.99,1.44,3.89,1.4,6.06c-0.12,6.54-0.22,8.25-0.22,16.04c0,14.25-3.04,31.87-13.47,41.9" style="fill:none;stroke:#999;stroke-width:3"></path>
<path d="M818.78,45.5c2.01,0,3.36-0.11,4.62-0.25c6.95-0.8,21.99-2.61,29.89-3.01c1.27-0.06,3.47-0.13,4.26,0" style="fill:none;stroke:#999;stroke-width:3"></path>
<path d="M837.06,47.1c0.94,0.57,1.5,2.59,1.69,3.74c0.19,1.15,0,39.73-0.19,46.91" style="fill:none;stroke:#999;stroke-width:3"></path>

<path d="M887.28,37.72c0.35,0.24,2.39,0.41,3.31,0.31c3.94-0.41,18.12-2.21,24.45-3.41c0.92-0.17,2.15-0.24,2.73,0" style="fill:none;stroke:#999;stroke-width:3"></path>
<path d="M901.86,15c0.91,0.47,2.54,2,2.54,3.92c0,0.95-0.12,70.75-0.3,76.58" style="fill:none;stroke:#999;stroke-width:3"></path>
<path d="M903.94,40.28c-5.1,15.04-8.94,21.4-16.83,34.56" style="fill:none;stroke:#999;stroke-width:3"></path>
<path d="M906.47,45.9c2.37,1.59,8.28,8.76,10.28,11.85" style="fill:none;stroke:#999;stroke-width:3"></path>
<path d="M956.11,13.5c0.07,0.4,0.31,1.19-0.15,1.62C949.66,21.05,941.6,25.54,928.3,30.64" style="fill:none;stroke:#999;stroke-width:3"></path>
<path d="M925.05,29.79c1.43,1.99,1.44,3.89,1.4,6.06c-0.12,6.54-0.22,8.25-0.22,16.04c0,14.25-3.04,31.87-13.47,41.9" style="fill:none;stroke:#999;stroke-width:3"></path>
<path d="M927.78,45.5c2.01,0,3.36-0.11,4.62-0.25c6.95-0.8,21.99-2.61,29.89-3.01c1.27-0.06,3.47-0.13,4.26,0" style="fill:none;stroke:#999;stroke-width:3"></path>
<path d="M946.06,47.1c0.94,0.57,1.5,2.59,1.69,3.74c0.19,1.15,0,39.73-0.19,46.91" style="fill:none;stroke:#999;stroke-width:3"></path>
<path d="M934.66,58.98c9.38,2.51,24.23,10.31,26.58,14.22" style="fill:none;stroke:#999;stroke-width:3"></path>

</svg>