<svg width="981px" height="109px" viewBox="0 0 981 109" xmlns="http://www.w3.org/2000/svg" xmlns:xlink="http://www.w3.org/1999/xlink" xml:space="preserve" version="1.1" baseProfile="full">
<line x1="1" y1="1" x2="980" y2="1" style="stroke:#ddd;stroke-width:2"></line>
<line x1="1" y1="1" x2="1" y2="108" style="stroke:#ddd;stroke-width:2"></line>
<line x1="1" y1="108" x2="980" y2="108" style="stroke:#ddd;stroke-width:2"></line>
<line x1="980" y1="1" x2="980" y2="108" style="stroke:#ddd;stroke-width:2"></line>
<line x1="109" y1="1" x2="109" y2="108" style="stroke:#ddd;stroke-width:2"></line>
<line x1="218" y1="1" x2="218" y2="108" style="stroke:#ddd;stroke-width:2"></line>
<line x1="327" y1="1" x2="327" y2="108" style="stroke:#ddd;stroke-width:2"></line>
<line x1="436" y1="1" x2="436" y2="108" style="stroke:#ddd;stroke-width:2"></line>
<line x1="545" y1="1" x2="545" y2="108" style="stroke:#ddd;stroke-width:2"></line>
<line x1="654" y1="1" x2="654" y2="108" style="stroke:#ddd;stroke-width:2"></line>
<line x1="763" y1="1" x2="763" y2="108" style="stroke:#ddd;stroke-width:2"></line>
<line x1="872" y1="1" x2="872" y2="108" style="stroke:#ddd;stroke-width:2"></line>
<line x1="1" y1="54" x2="980" y2="54" style="stroke:#ddd;stroke-width:2;stroke-dasharray:3 3"></line>
<line x1="55" y1="1" x2="55" y2="108" style="stroke:#ddd;stroke-width:2;stroke-dasharray:3 3"></line>
<line x1="164" y1="1" x2="164" y2="108" style="stroke:#ddd;stroke-width:2;stroke-dasharray:3 3"></line>
<line x1="273" y1="1" x2="273" y2="108" style="stroke:#ddd;stroke-width:2;stroke-dasharray:3 3"></line>
<line x1="382" y1="1" x2="382" y2="108" style="stroke:#ddd;stroke-width:2;stroke-dasharray:3 3"></line>
<line x1="491" y1="1" x2="491" y2="108" style="stroke:#ddd;stroke-width:2;stroke-dasharray:3 3"></line>
<line x1="600" y1="1" x2="600" y2="108" style="stroke:#ddd;stroke-width:2;stroke-dasharray:3 3"></line>
<line x1="709" y1="1" x2="709" y2="108" style="stroke:#ddd;stroke-width:2;stroke-dasharray:3 3"></line>
<line x1="818" y1="1" x2="818" y2="108" style="stroke:#ddd;stroke-width:2;stroke-dasharray:3 3"></line>
<line x1="927" y1="1" x2="927" y2="108" style="stroke:#ddd;stroke-width:2;stroke-dasharray:3 3"></line>
<path d="M12.28,36.72c0.37,0.24,2.55,0.41,3.52,0.31c4.2-0.41,19.3-1.71,26.06-2.91c0.98-0.17,2.29-0.24,2.91,0" style="fill:none;stroke:#999;stroke-width:3"></path>

<path d="M121.28,36.72c0.37,0.24,2.55,0.41,3.52,0.31c4.2-0.41,19.3-1.71,26.06-2.91c0.98-0.17,2.29-0.24,2.91,0" style="fill:none;stroke:#999;stroke-width:3"></path>
<path d="M138.36,14c0.91,0.47,2.04,2.25,2.04,4.42c0,0.95-0.12,70.25-0.3,76.08" style="fill:none;stroke:#999;stroke-width:3"></path>

<path d="M230.28,36.72c0.37,0.24,2.55,0.41,3.52,0.31c4.2-0.41,19.3-1.71,26.06-2.91c0.98-0.17,2.29-0.24,2.91,0" style="fill:none;stroke:#999;stroke-width:3"></path>
<path d="M247.36,14c0.91,0.47,2.04,2.25,2.04,4.42c0,0.95-0.12,70.25-0.3,76.08" style="fill:none;stroke:#999;stroke-width:3"></path>
<path d="M248.94,38.78c-5.9,16.78-9.19,23.87-18.33,38.56" style="fill:none;stroke:#999;stroke-width:3"></path>

<path d="M339.28,36.72c0.37,0.24,2.55,0.41,3.52,0.31c4.2-0.41,19.3-1.71,26.06-2.91c0.98-0.17,2.29-0.24,2.91,0" style="fill:none;stroke:#999;stroke-width:3"></path>
<path d="M356.36,14c0.91,0.47,2.04,2.25,2.04,4.42c0,0.95-0.12,70.25-0.3,76.08" style="fill:none;stroke:#999;stroke-width:3"></path>
<path d="M357.94,38.78c-5.9,16.78-9.19,23.87-18.33,38.56" style="fill:none;stroke:#999;stroke-width:3"></path>
<path d="M361.47,48.9c2.37,1.59,7.28,6.76,9.28,9.85" style="fill:none;stroke:#999;stroke-width:3"></path>

<path d="M448.28,36.72c0.37,0.24,2.55,0.41,3.52,0.31c4.2-0.41,19.3-1.71,26.06-2.91c0.98-0.17,2.29-0.24,2.91,0" style="fill:none;stroke:#999;stroke-width:3"></path>
<path d="M465.36,14c0.91,0.47,2.04,2.25,2.04,4.42c0,0.95-0.12,70.25-0.3,76.08" style="fill:none;stroke:#999;stroke-width:3"></path>
<path d="M466.94,38.78c-5.9,16.78-9.19,23.87-18.33,38.56" style="fill:none;stroke:#999;stroke-width:3"></path>
<path d="M470.47,48.9c2.37,1.59,7.28,6.76,9.28,9.85" style="fill:none;stroke:#999;stroke-width:3"></path>
<path d="M498.25,13.5c0.05,0.83,0.24,2.16-0.1,3.31C496.0,24.25,490.25,37.75,481.06,48.5" style="fill:none;stroke:#999;stroke-width:3"></path>

<path d="M557.28,36.72c0.37,0.24,2.55,0.41,3.52,0.31c4.2-0.41,19.3-1.71,26.06-2.91c0.98-0.17,2.29-0.24,2.91,0" style="fill:none;stroke:#999;stroke-width:3"></path>
<path d="M574.36,14c0.91,0.47,2.04,2.25,2.04,4.42c0,0.95-0.12,70.25-0.3,76.08" style="fill:none;stroke:#999;stroke-width:3"></path>
<path d="M575.94,38.78c-5.9,16.78-9.19,23.87-18.33,38.56" style="fill:none;stroke:#999;stroke-width:3"></path>
<path d="M579.47,48.9c2.37,1.59,7.28,6.76,9.28,9.85" style="fill:none;stroke:#999;stroke-width:3"></path>
<path d="M607.25,13.5c0.05,0.83,0.24,2.16-0.1,3.31C605.0,24.25,599.25,37.75,590.06,48.5" style="fill:none;stroke:#999;stroke-width:3"></path>
<path d="M602.36,31.81c0.92,0.24,2.61,0.28,3.54,0.24c12.18-0.5,20.71-3.1,29.67-3.61c1.7-0.1,2.81,0.03,4.14,0.27" style="fill:none;stroke:#999;stroke-width:3"></path>

<path d="M666.28,36.72c0.37,0.24,2.55,0.41,3.52,0.31c4.2-0.41,19.3-1.71,26.06-2.91c0.98-0.17,2.29-0.24,2.91,0" style="fill:none;stroke:#999;stroke-width:3"></path>
<path d="M683.36,14c0.91,0.47,2.04,2.25,2.04,4.42c0,0.95-0.12,70.25-0.3,76.08" style="fill:none;stroke:#999;stroke-width:3"></path>
<path d="M684.94,38.78c-5.9,16.78-9.19,23.87-18.33,38.56" style="fill:none;stroke:#999;stroke-width:3"></path>
<path d="M688.47,48.9c2.37,1.59,7.28,6.76,9.28,9.85" style="fill:none;stroke:#999;stroke-width:3"></path>
<path d="M716.25,13.5c0.05,0.83,0.24,2.16-0.1,3.31C714.0,24.25,708.25,37.75,699.06,48.5" style="fill:none;stroke:#999;stroke-width:3"></path>
<path d="M711.36,31.81c0.92,0.24,2.61,0.28,3.54,0.24c12.18-0.5,20.71-3.1,29.67-3.61c1.7-0.1,2.81,0.03,4.14,0.27" style="fill:none;stroke:#999;stroke-width:3"></path>
<path d="M719.16,34.46c0.85,0.48,1.36,2.17,1.53,3.13c0.17,0.96,0,52.14-0.17,58.16" style="fill:none;stroke:#999;stroke-width:3"></path>

<path d="M775.28,36.72c0.37,0.24,2.55,0.41,3.52,0.31c4.2-0.41,19.3-1.71,26.06-2.91c0.98-0.17,2.29-0.24,2.91,0" style="fill:none;stroke:#999;stroke-width:3"></path>
<path d="M792.36,14c0.91,0.47,2.04,2.25,2.04,4.42c0,0.95-0.12,70.25-0.3,76.08" style="fill:none;stroke:#999;stroke-width:3"></path>
<path d="M793.94,38.78c-5.9,16.78-9.19,23.87-18.33,38.56" style="fill:none;stroke:#999;stroke-width:3"></path>
<path d="M797.47,48.9c2.37,1.59,7.28,6.76,9.28,9.85" style="fill:none;stroke:#999;stroke-width:3"></path>
<path d="M825.25,13.5c0.05,0.83,0.24,2.16-0.1,3.31C823.0,24.25,817.25,37.75,808.06,48.5" style="fill:none;stroke:#999;stroke-width:3"></path>
<path d="M820.36,31.81c0.92,0.24,2.61,0.28,3.54,0.24c12.18-0.5,20.71-3.1,29.67-3.61c1.7-0.1,2.81,0.03,4.14,0.27" style="fill:none;stroke:#999;stroke-width:3"></path>
<path d="M828.16,34.46c0.85,0.48,1.36,2.17,1.53,3.13c0.17,0.96,0,52.14-0.17,58.16" style="fill:none;stroke:#999;stroke-width:3"></path>
<path d="M830.5699999999999,51.84c6.35-0.65,13.09-1.33,20.27-1.98c1.69-0.15,2.32-0.21,4.13,0.12" style="fill:none;stroke:#999;stroke-width:3"></path>

<path d="M884.28,36.72c0.37,0.24,2.55,0.41,3.52,0.31c4.2-0.41,19.3-1.71,26.06-2.91c0.98-0.17,2.29-0.24,2.91,0" style="fill:none;stroke:#999;stroke-width:3"></path>
<path d="M901.36,14c0.91,0.47,2.04,2.25,2.04,4.42c0,0.95-0.12,70.25-0.3,76.08" style="fill:none;stroke:#999;stroke-width:3"></path>
<path d="M902.94,38.78c-5.9,16.78-9.19,23.87-18.33,38.56" style="fill:none;stroke:#999;stroke-width:3"></path>
<path d="M906.47,48.9c2.37,1.59,7.28,6.76,9.28,9.85" style="fill:none;stroke:#999;stroke-width:3"></path>
<path d="M934.25,13.5c0.05,0.83,0.24,2.16-0.1,3.31C932.0,24.25,926.25,37.75,917.06,48.5" style="fill:none;stroke:#999;stroke-width:3"></path>
<path d="M929.36,31.81c0.92,0.24,2.61,0.28,3.54,0.24c12.18-0.5,20.71-3.1,29.67-3.61c1.7-0.1,2.81,0.03,4.14,0.27" style="fill:none;stroke:#999;stroke-width:3"></path>
<path d="M937.16,34.46c0.85,0.48,1.36,2.17,1.53,3.13c0.17,0.96,0,52.14-0.17,58.16" style="fill:none;stroke:#999;stroke-width:3"></path>
<path d="M939.5699999999999,51.84c6.35-0.65,13.09-1.33,20.27-1.98c1.69-0.15,2.32-0.21,4.13,0.12" style="fill:none;stroke:#999;stroke-width:3"></path>
<path d="M938.99,68.09c4.66-0.36,12.21-1.17,22.87-1.94c0.96-0.07,3.4,0.07,3.88,0.14" style="fill:none;stroke:#999;stroke-width:3"></path>

</svg>