<svg width="981px" height="109px" viewBox="0 0 981 109" xmlns="http://www.w3.org/2000/svg" xmlns:xlink="http://www.w3.org/1999/xlink" xml:space="preserve" version="1.1" baseProfile="full">
<line x1="1" y1="1" x2="980" y2="1" style="stroke:#ddd;stroke-width:2"></line>
<line x1="1" y1="1" x2="1" y2="108" style="stroke:#ddd;stroke-width:2"></line>
<line x1="1" y1="108" x2="980" y2="108" style="stroke:#ddd;stroke-width:2"></line>
<line x1="980" y1="1" x2="980" y2="108" style="stroke:#ddd;stroke-width:2"></line>
<line x1="109" y1="1" x2="109" y2="108" style="stroke:#ddd;stroke-width:2"></line>
<line x1="218" y1="1" x2="218" y2="108" style="stroke:#ddd;stroke-width:2"></line>
<line x1="327" y1="1" x2="327" y2="108" style="stroke:#ddd;stroke-width:2"></line>
<line x1="436" y1="1" x2="436" y2="108" style="stroke:#ddd;stroke-width:2"></line>
<line x1="545" y1="1" x2="545" y2="108" style="stroke:#ddd;stroke-width:2"></line>
<line x1="654" y1="1" x2="654" y2="108" style="stroke:#ddd;stroke-width:2"></line>
<line x1="763" y1="1" x2="763" y2="108" style="stroke:#ddd;stroke-width:2"></line>
<line x1="872" y1="1" x2="872" y2="108" style="stroke:#ddd;stroke-width:2"></line>
<line x1="1" y1="54" x2="980" y2="54" style="stroke:#ddd;stroke-width:2;stroke-dasharray:3 3"></line>
<line x1="55" y1="1" x2="55" y2="108" style="stroke:#ddd;stroke-width:2;stroke-dasharray:3 3"></line>
<line x1="164" y1="1" x2="164" y2="108" style="stroke:#ddd;stroke-width:2;stroke-dasharray:3 3"></line>
<line x1="273" y1="1" x2="273" y2="108" style="stroke:#ddd;stroke-width:2;stroke-dasharray:3 3"></line>
<line x1="382" y1="1" x2="382" y2="108" style="stroke:#ddd;stroke-width:2;stroke-dasharray:3 3"></line>
<line x1="491" y1="1" x2="491" y2="108" style="stroke:#ddd;stroke-width:2;stroke-dasharray:3 3"></line>
<line x1="600" y1="1" x2="600" y2="108" style="stroke:#ddd;stroke-width:2;stroke-dasharray:3 3"></line>
<line x1="709" y1="1" x2="709" y2="108" style="stroke:#ddd;stroke-width:2;stroke-dasharray:3 3"></line>
<line x1="818" y1="1" x2="818" y2="108" style="stroke:#ddd;stroke-width:2;stroke-dasharray:3 3"></line>
<line x1="927" y1="1" x2="927" y2="108" style="stroke:#ddd;stroke-width:2;stroke-dasharray:3 3"></line>
<path d="M13.28,38.72c0.35,0.24,2.39,0.41,3.31,0.31c3.94-0.41,19.12-1.71,25.45-2.91c0.92-0.17,2.15-0.24,2.73,0" style="fill:none;stroke:#999;stroke-width:3"></path>

<path d="M122.28,38.72c0.35,0.24,2.39,0.41,3.31,0.31c3.94-0.41,19.12-1.71,25.45-2.91c0.92-0.17,2.15-0.24,2.73,0" style="fill:none;stroke:#999;stroke-width:3"></path>
<path d="M138.36,14c0.89,1.25,2.04,2,2.04,4.92c0,0.95-0.12,70.75-0.3,76.58" style="fill:none;stroke:#999;stroke-width:3"></path>

<path d="M231.28,38.72c0.35,0.24,2.39,0.41,3.31,0.31c3.94-0.41,19.12-1.71,25.45-2.91c0.92-0.17,2.15-0.24,2.73,0" style="fill:none;stroke:#999;stroke-width:3"></path>
<path d="M247.36,14c0.89,1.25,2.04,2,2.04,4.92c0,0.95-0.12,70.75-0.3,76.58" style="fill:none;stroke:#999;stroke-width:3"></path>
<path d="M249.19,40.53C243.41,57.2,239.06,64.25,230.11,78.84" style="fill:none;stroke:#999;stroke-width:3"></path>

<path d="M340.28,38.72c0.35,0.24,2.39,0.41,3.31,0.31c3.94-0.41,19.12-1.71,25.45-2.91c0.92-0.17,2.15-0.24,2.73,0" style="fill:none;stroke:#999;stroke-width:3"></path>
<path d="M356.36,14c0.89,1.25,2.04,2,2.04,4.92c0,0.95-0.12,70.75-0.3,76.58" style="fill:none;stroke:#999;stroke-width:3"></path>
<path d="M358.19,40.53C352.40999999999997,57.2,348.06,64.25,339.11,78.84" style="fill:none;stroke:#999;stroke-width:3"></path>
<path d="M360.72,47.65c2.44,1.8,6.47,7.62,8.53,11.1" style="fill:none;stroke:#999;stroke-width:3"></path>

<path d="M449.28,38.72c0.35,0.24,2.39,0.41,3.31,0.31c3.94-0.41,19.12-1.71,25.45-2.91c0.92-0.17,2.15-0.24,2.73,0" style="fill:none;stroke:#999;stroke-width:3"></path>
<path d="M465.36,14c0.89,1.25,2.04,2,2.04,4.92c0,0.95-0.12,70.75-0.3,76.58" style="fill:none;stroke:#999;stroke-width:3"></path>
<path d="M467.19,40.53C461.40999999999997,57.2,457.06,64.25,448.11,78.84" style="fill:none;stroke:#999;stroke-width:3"></path>
<path d="M469.72,47.65c2.44,1.8,6.47,7.62,8.53,11.1" style="fill:none;stroke:#999;stroke-width:3"></path>
<path d="M489.96,20.59c0.59,1.03,0.98,2.05,1.18,3.06c0.2,1.01,0.43,65.08,0.36,67.31" style="fill:none;stroke:#999;stroke-width:3"></path>

<path d="M558.28,38.72c0.35,0.24,2.39,0.41,3.31,0.31c3.94-0.41,19.12-1.71,25.45-2.91c0.92-0.17,2.15-0.24,2.73,0" style="fill:none;stroke:#999;stroke-width:3"></path>
<path d="M574.36,14c0.89,1.25,2.04,2,2.04,4.92c0,0.95-0.12,70.75-0.3,76.58" style="fill:none;stroke:#999;stroke-width:3"></path>
<path d="M576.19,40.53C570.41,57.2,566.06,64.25,557.11,78.84" style="fill:none;stroke:#999;stroke-width:3"></path>
<path d="M578.72,47.65c2.44,1.8,6.47,7.62,8.53,11.1" style="fill:none;stroke:#999;stroke-width:3"></path>
<path d="M598.96,20.59c0.59,1.03,0.98,2.05,1.18,3.06c0.2,1.01,0.43,65.08,0.36,67.31" style="fill:none;stroke:#999;stroke-width:3"></path>
<path d="M601.3,21.73c2.27-0.1,22.62-2.98,24.31-3.16c3.03-0.31,4.18,3.51,3.81,4.98c-0.36,1.41-0.18,44.21-0.29,64.39" style="fill:none;stroke:#999;stroke-width:3"></path>

<path d="M667.28,38.72c0.35,0.24,2.39,0.41,3.31,0.31c3.94-0.41,19.12-1.71,25.45-2.91c0.92-0.17,2.15-0.24,2.73,0" style="fill:none;stroke:#999;stroke-width:3"></path>
<path d="M683.36,14c0.89,1.25,2.04,2,2.04,4.92c0,0.95-0.12,70.75-0.3,76.58" style="fill:none;stroke:#999;stroke-width:3"></path>
<path d="M685.19,40.53C679.41,57.2,675.06,64.25,666.11,78.84" style="fill:none;stroke:#999;stroke-width:3"></path>
<path d="M687.72,47.65c2.44,1.8,6.47,7.62,8.53,11.1" style="fill:none;stroke:#999;stroke-width:3"></path>
<path d="M707.96,20.59c0.59,1.03,0.98,2.05,1.18,3.06c0.2,1.01,0.43,65.08,0.36,67.31" style="fill:none;stroke:#999;stroke-width:3"></path>
<path d="M710.3,21.73c2.27-0.1,22.62-2.98,24.31-3.16c3.03-0.31,4.18,3.51,3.81,4.98c-0.36,1.41-0.18,44.21-0.29,64.39" style="fill:none;stroke:#999;stroke-width:3"></path>
<path d="M710.38,43.9c7.76-1,19.95-1.94,26.77-2.25" style="fill:none;stroke:#999;stroke-width:3"></path>

<path d="M776.28,38.72c0.35,0.24,2.39,0.41,3.31,0.31c3.94-0.41,19.12-1.71,25.45-2.91c0.92-0.17,2.15-0.24,2.73,0" style="fill:none;stroke:#999;stroke-width:3"></path>
<path d="M792.36,14c0.89,1.25,2.04,2,2.04,4.92c0,0.95-0.12,70.75-0.3,76.58" style="fill:none;stroke:#999;stroke-width:3"></path>
<path d="M794.19,40.53C788.41,57.2,784.06,64.25,775.11,78.84" style="fill:none;stroke:#999;stroke-width:3"></path>
<path d="M796.72,47.65c2.44,1.8,6.47,7.62,8.53,11.1" style="fill:none;stroke:#999;stroke-width:3"></path>
<path d="M816.96,20.59c0.59,1.03,0.98,2.05,1.18,3.06c0.2,1.01,0.43,65.08,0.36,67.31" style="fill:none;stroke:#999;stroke-width:3"></path>
<path d="M819.3,21.73c2.27-0.1,22.62-2.98,24.31-3.16c3.03-0.31,4.18,3.51,3.81,4.98c-0.36,1.41-0.18,44.21-0.29,64.39" style="fill:none;stroke:#999;stroke-width:3"></path>
<path d="M819.38,43.9c7.76-1,19.95-1.94,26.77-2.25" style="fill:none;stroke:#999;stroke-width:3"></path>
<path d="M819.84,65.36c6.06-0.36,18.82-1.76,25.83-1.81" style="fill:none;stroke:#999;stroke-width:3"></path>

<path d="M885.28,38.72c0.35,0.24,2.39,0.41,3.31,0.31c3.94-0.41,19.12-1.71,25.45-2.91c0.92-0.17,2.15-0.24,2.73,0" style="fill:none;stroke:#999;stroke-width:3"></path>
<path d="M901.36,14c0.89,1.25,2.04,2,2.04,4.92c0,0.95-0.12,70.75-0.3,76.58" style="fill:none;stroke:#999;stroke-width:3"></path>
<path d="M903.19,40.53C897.41,57.2,893.06,64.25,884.11,78.84" style="fill:none;stroke:#999;stroke-width:3"></path>
<path d="M905.72,47.65c2.44,1.8,6.47,7.62,8.53,11.1" style="fill:none;stroke:#999;stroke-width:3"></path>
<path d="M925.96,20.59c0.59,1.03,0.98,2.05,1.18,3.06c0.2,1.01,0.43,65.08,0.36,67.31" style="fill:none;stroke:#999;stroke-width:3"></path>
<path d="M928.3,21.73c2.27-0.1,22.62-2.98,24.31-3.16c3.03-0.31,4.18,3.51,3.81,4.98c-0.36,1.41-0.18,44.21-0.29,64.39" style="fill:none;stroke:#999;stroke-width:3"></path>
<path d="M928.38,43.9c7.76-1,19.95-1.94,26.77-2.25" style="fill:none;stroke:#999;stroke-width:3"></path>
<path d="M928.84,65.36c6.06-0.36,18.82-1.76,25.83-1.81" style="fill:none;stroke:#999;stroke-width:3"></path>
<path d="M914.54,92.57c1.17,0.43,3.32,0.5,4.49,0.43c12.2-0.73,34.72-3.41,47-3.41c1.95,0,3.13,0.21,4.1,0.42" style="fill:none;stroke:#999;stroke-width:3"></path>

</svg>