<svg width="981px" height="109px" viewBox="0 0 981 109" xmlns="http://www.w3.org/2000/svg" xmlns:xlink="http://www.w3.org/1999/xlink" xml:space="preserve" version="1.1" baseProfile="full">
<line x1="1" y1="1" x2="980" y2="1" style="stroke:#ddd;stroke-width:2"></line>
<line x1="1" y1="1" x2="1" y2="108" style="stroke:#ddd;stroke-width:2"></line>
<line x1="1" y1="108" x2="980" y2="108" style="stroke:#ddd;stroke-width:2"></line>
<line x1="980" y1="1" x2="980" y2="108" style="stroke:#ddd;stroke-width:2"></line>
<line x1="109" y1="1" x2="109" y2="108" style="stroke:#ddd;stroke-width:2"></line>
<line x1="218" y1="1" x2="218" y2="108" style="stroke:#ddd;stroke-width:2"></line>
<line x1="327" y1="1" x2="327" y2="108" style="stroke:#ddd;stroke-width:2"></line>
<line x1="436" y1="1" x2="436" y2="108" style="stroke:#ddd;stroke-width:2"></line>
<line x1="545" y1="1" x2="545" y2="108" style="stroke:#ddd;stroke-width:2"></line>
<line x1="654" y1="1" x2="654" y2="108" style="stroke:#ddd;stroke-width:2"></line>
<line x1="763" y1="1" x2="763" y2="108" style="stroke:#ddd;stroke-width:2"></line>
<line x1="872" y1="1" x2="872" y2="108" style="stroke:#ddd;stroke-width:2"></line>
<line x1="1" y1="54" x2="980" y2="54" style="stroke:#ddd;stroke-width:2;stroke-dasharray:3 3"></line>
<line x1="55" y1="1" x2="55" y2="108" style="stroke:#ddd;stroke-width:2;stroke-dasharray:3 3"></line>
<line x1="164" y1="1" x2="164" y2="108" style="stroke:#ddd;stroke-width:2;stroke-dasharray:3 3"></line>
<line x1="273" y1="1" x2="273" y2="108" style="stroke:#ddd;stroke-width:2;stroke-dasharray:3 3"></line>
<line x1="382" y1="1" x2="382" y2="108" style="stroke:#ddd;stroke-width:2;stroke-dasharray:3 3"></line>
<line x1="491" y1="1" x2="491" y2="108" style="stroke:#ddd;stroke-width:2;stroke-dasharray:3 3"></line>
<line x1="600" y1="1" x2="600" y2="108" style="stroke:#ddd;stroke-width:2;stroke-dasharray:3 3"></line>
<line x1="709" y1="1" x2="709" y2="108" style="stroke:#ddd;stroke-width:2;stroke-dasharray:3 3"></line>
<line x1="818" y1="1" x2="818" y2="108" style="stroke:#ddd;stroke-width:2;stroke-dasharray:3 3"></line>
<line x1="927" y1="1" x2="927" y2="108" style="stroke:#ddd;stroke-width:2;stroke-dasharray:3 3"></line>
<path d="M13.28,37.83c0.37,0.16,2.55,0.28,3.53,0.21c4.21-0.27,18.28-2.16,25.04-2.97c0.98-0.12,2.3-0.16,2.91,0" style="fill:none;stroke:#999;stroke-width:3"></path>

<path d="M122.28,37.83c0.37,0.16,2.55,0.28,3.53,0.21c4.21-0.27,18.28-2.16,25.04-2.97c0.98-0.12,2.3-0.16,2.91,0" style="fill:none;stroke:#999;stroke-width:3"></path>
<path d="M138.86,14.5c0.91,0.47,2.54,2.25,2.54,4.92c0,0.95-0.12,70.25-0.3,76.08" style="fill:none;stroke:#999;stroke-width:3"></path>

<path d="M231.28,37.83c0.37,0.16,2.55,0.28,3.53,0.21c4.21-0.27,18.28-2.16,25.04-2.97c0.98-0.12,2.3-0.16,2.91,0" style="fill:none;stroke:#999;stroke-width:3"></path>
<path d="M247.86,14.5c0.91,0.47,2.54,2.25,2.54,4.92c0,0.95-0.12,70.25-0.3,76.08" style="fill:none;stroke:#999;stroke-width:3"></path>
<path d="M249.94,39.28C243.55,55.85,240.0,62.85,230.11,77.34" style="fill:none;stroke:#999;stroke-width:3"></path>

<path d="M340.28,37.83c0.37,0.16,2.55,0.28,3.53,0.21c4.21-0.27,18.28-2.16,25.04-2.97c0.98-0.12,2.3-0.16,2.91,0" style="fill:none;stroke:#999;stroke-width:3"></path>
<path d="M356.86,14.5c0.91,0.47,2.54,2.25,2.54,4.92c0,0.95-0.12,70.25-0.3,76.08" style="fill:none;stroke:#999;stroke-width:3"></path>
<path d="M358.94,39.28C352.55,55.85,349.0,62.85,339.11,77.34" style="fill:none;stroke:#999;stroke-width:3"></path>
<path d="M361.47,45.9c2.66,1.95,7.03,7.07,9.28,10.85" style="fill:none;stroke:#999;stroke-width:3"></path>

<path d="M449.28,37.83c0.37,0.16,2.55,0.28,3.53,0.21c4.21-0.27,18.28-2.16,25.04-2.97c0.98-0.12,2.3-0.16,2.91,0" style="fill:none;stroke:#999;stroke-width:3"></path>
<path d="M465.86,14.5c0.91,0.47,2.54,2.25,2.54,4.92c0,0.95-0.12,70.25-0.3,76.08" style="fill:none;stroke:#999;stroke-width:3"></path>
<path d="M467.94,39.28C461.55,55.85,458.0,62.85,448.11,77.34" style="fill:none;stroke:#999;stroke-width:3"></path>
<path d="M470.47,45.9c2.66,1.95,7.03,7.07,9.28,10.85" style="fill:none;stroke:#999;stroke-width:3"></path>
<path d="M503.96,13.88c0.53,0.48,1.66,3.56,1.76,4.52c0.11,0.95,0.23,65.15,0.12,71.1" style="fill:none;stroke:#999;stroke-width:3"></path>

<path d="M558.28,37.83c0.37,0.16,2.55,0.28,3.53,0.21c4.21-0.27,18.28-2.16,25.04-2.97c0.98-0.12,2.3-0.16,2.91,0" style="fill:none;stroke:#999;stroke-width:3"></path>
<path d="M574.86,14.5c0.91,0.47,2.54,2.25,2.54,4.92c0,0.95-0.12,70.25-0.3,76.08" style="fill:none;stroke:#999;stroke-width:3"></path>
<path d="M576.94,39.28C570.55,55.85,567.0,62.85,557.11,77.34" style="fill:none;stroke:#999;stroke-width:3"></path>
<path d="M579.47,45.9c2.66,1.95,7.03,7.07,9.28,10.85" style="fill:none;stroke:#999;stroke-width:3"></path>
<path d="M612.96,13.88c0.53,0.48,1.66,3.56,1.76,4.52c0.11,0.95,0.23,65.15,0.12,71.1" style="fill:none;stroke:#999;stroke-width:3"></path>
<path d="M597.82,28.56c0.46,0.33,0.99,2.82,0.92,3.49c-0.3,2.99-1.39,10.01-2.63,16.1c-0.3,1.5,0.31,1.98,1.41,1.69c9.72-2.58,26.97-3.58,36.38-3.89" style="fill:none;stroke:#999;stroke-width:3"></path>

<path d="M667.28,37.83c0.37,0.16,2.55,0.28,3.53,0.21c4.21-0.27,18.28-2.16,25.04-2.97c0.98-0.12,2.3-0.16,2.91,0" style="fill:none;stroke:#999;stroke-width:3"></path>
<path d="M683.86,14.5c0.91,0.47,2.54,2.25,2.54,4.92c0,0.95-0.12,70.25-0.3,76.08" style="fill:none;stroke:#999;stroke-width:3"></path>
<path d="M685.94,39.28C679.55,55.85,676.0,62.85,666.11,77.34" style="fill:none;stroke:#999;stroke-width:3"></path>
<path d="M688.47,45.9c2.66,1.95,7.03,7.07,9.28,10.85" style="fill:none;stroke:#999;stroke-width:3"></path>
<path d="M721.96,13.88c0.53,0.48,1.66,3.56,1.76,4.52c0.11,0.95,0.23,65.15,0.12,71.1" style="fill:none;stroke:#999;stroke-width:3"></path>
<path d="M706.82,28.56c0.46,0.33,0.99,2.82,0.92,3.49c-0.3,2.99-1.39,10.01-2.63,16.1c-0.3,1.5,0.31,1.98,1.41,1.69c9.72-2.58,26.97-3.58,36.38-3.89" style="fill:none;stroke:#999;stroke-width:3"></path>
<path d="M742.6,25.79c0.4,1.21,1.2,2.21,1.16,3.17c-0.26,5.53-0.01,9.53-0.52,19.91" style="fill:none;stroke:#999;stroke-width:3"></path>

<path d="M776.28,37.83c0.37,0.16,2.55,0.28,3.53,0.21c4.21-0.27,18.28-2.16,25.04-2.97c0.98-0.12,2.3-0.16,2.91,0" style="fill:none;stroke:#999;stroke-width:3"></path>
<path d="M792.86,14.5c0.91,0.47,2.54,2.25,2.54,4.92c0,0.95-0.12,70.25-0.3,76.08" style="fill:none;stroke:#999;stroke-width:3"></path>
<path d="M794.94,39.28C788.55,55.85,785.0,62.85,775.11,77.34" style="fill:none;stroke:#999;stroke-width:3"></path>
<path d="M797.47,45.9c2.66,1.95,7.03,7.07,9.28,10.85" style="fill:none;stroke:#999;stroke-width:3"></path>
<path d="M830.96,13.88c0.53,0.48,1.66,3.56,1.76,4.52c0.11,0.95,0.23,65.15,0.12,71.1" style="fill:none;stroke:#999;stroke-width:3"></path>
<path d="M815.82,28.56c0.46,0.33,0.99,2.82,0.92,3.49c-0.3,2.99-1.39,10.01-2.63,16.1c-0.3,1.5,0.31,1.98,1.41,1.69c9.72-2.58,26.97-3.58,36.38-3.89" style="fill:none;stroke:#999;stroke-width:3"></path>
<path d="M851.6,25.79c0.4,1.21,1.2,2.21,1.16,3.17c-0.26,5.53-0.01,9.53-0.52,19.91" style="fill:none;stroke:#999;stroke-width:3"></path>
<path d="M814.7,65.11c0.46,0.33,0.99,2.82,0.92,3.49c-0.3,2.99-2.39,16.51-3.63,22.6c-0.3,1.5,0.8,2,1.91,1.75C827.0,90,844.25,88.75,854.58,88.39" style="fill:none;stroke:#999;stroke-width:3"></path>

<path d="M885.28,37.83c0.37,0.16,2.55,0.28,3.53,0.21c4.21-0.27,18.28-2.16,25.04-2.97c0.98-0.12,2.3-0.16,2.91,0" style="fill:none;stroke:#999;stroke-width:3"></path>
<path d="M901.86,14.5c0.91,0.47,2.54,2.25,2.54,4.92c0,0.95-0.12,70.25-0.3,76.08" style="fill:none;stroke:#999;stroke-width:3"></path>
<path d="M903.94,39.28C897.55,55.85,894.0,62.85,884.11,77.34" style="fill:none;stroke:#999;stroke-width:3"></path>
<path d="M906.47,45.9c2.66,1.95,7.03,7.07,9.28,10.85" style="fill:none;stroke:#999;stroke-width:3"></path>
<path d="M939.96,13.88c0.53,0.48,1.66,3.56,1.76,4.52c0.11,0.95,0.23,65.15,0.12,71.1" style="fill:none;stroke:#999;stroke-width:3"></path>
<path d="M924.82,28.56c0.46,0.33,0.99,2.82,0.92,3.49c-0.3,2.99-1.39,10.01-2.63,16.1c-0.3,1.5,0.31,1.98,1.41,1.69c9.72-2.58,26.97-3.58,36.38-3.89" style="fill:none;stroke:#999;stroke-width:3"></path>
<path d="M960.6,25.79c0.4,1.21,1.2,2.21,1.16,3.17c-0.26,5.53-0.01,9.53-0.52,19.91" style="fill:none;stroke:#999;stroke-width:3"></path>
<path d="M923.7,65.11c0.46,0.33,0.99,2.82,0.92,3.49c-0.3,2.99-2.39,16.51-3.63,22.6c-0.3,1.5,0.8,2,1.91,1.75C936.0,90,953.25,88.75,963.58,88.39" style="fill:none;stroke:#999;stroke-width:3"></path>
<path d="M963.05,62.12c0.53,0.48,1.41,2.21,1.36,3.17C964.0,73.25,964.0,84.5,963.38,93.22" style="fill:none;stroke:#999;stroke-width:3"></path>

</svg>