<svg width="981px" height="109px" viewBox="0 0 981 109" xmlns="http://www.w3.org/2000/svg" xmlns:xlink="http://www.w3.org/1999/xlink" xml:space="preserve" version="1.1" baseProfile="full">
<line x1="1" y1="1" x2="980" y2="1" style="stroke:#ddd;stroke-width:2"></line>
<line x1="1" y1="1" x2="1" y2="108" style="stroke:#ddd;stroke-width:2"></line>
<line x1="1" y1="108" x2="980" y2="108" style="stroke:#ddd;stroke-width:2"></line>
<line x1="980" y1="1" x2="980" y2="108" style="stroke:#ddd;stroke-width:2"></line>
<line x1="109" y1="1" x2="109" y2="108" style="stroke:#ddd;stroke-width:2"></line>
<line x1="218" y1="1" x2="218" y2="108" style="stroke:#ddd;stroke-width:2"></line>
<line x1="327" y1="1" x2="327" y2="108" style="stroke:#ddd;stroke-width:2"></line>
<line x1="436" y1="1" x2="436" y2="108" style="stroke:#ddd;stroke-width:2"></line>
<line x1="545" y1="1" x2="545" y2="108" style="stroke:#ddd;stroke-width:2"></line>
<line x1="654" y1="1" x2="654" y2="108" style="stroke:#ddd;stroke-width:2"></line>
<line x1="763" y1="1" x2="763" y2="108" style="stroke:#ddd;stroke-width:2"></line>
<line x1="872" y1="1" x2="872" y2="108" style="stroke:#ddd;stroke-width:2"></line>
<line x1="1" y1="54" x2="980" y2="54" style="stroke:#ddd;stroke-width:2;stroke-dasharray:3 3"></line>
<line x1="55" y1="1" x2="55" y2="108" style="stroke:#ddd;stroke-width:2;stroke-dasharray:3 3"></line>
<line x1="164" y1="1" x2="164" y2="108" style="stroke:#ddd;stroke-width:2;stroke-dasharray:3 3"></line>
<line x1="273" y1="1" x2="273" y2="108" style="stroke:#ddd;stroke-width:2;stroke-dasharray:3 3"></line>
<line x1="382" y1="1" x2="382" y2="108" style="stroke:#ddd;stroke-width:2;stroke-dasharray:3 3"></line>
<line x1="491" y1="1" x2="491" y2="108" style="stroke:#ddd;stroke-width:2;stroke-dasharray:3 3"></line>
<line x1="600" y1="1" x2="600" y2="108" style="stroke:#ddd;stroke-width:2;stroke-dasharray:3 3"></line>
<line x1="709" y1="1" x2="709" y2="108" style="stroke:#ddd;stroke-width:2;stroke-dasharray:3 3"></line>
<line x1="818" y1="1" x2="818" y2="108" style="stroke:#ddd;stroke-width:2;stroke-dasharray:3 3"></line>
<line x1="927" y1="1" x2="927" y2="108" style="stroke:#ddd;stroke-width:2;stroke-dasharray:3 3"></line>
<path d="M13.65,39.67c1.1,0.33,2.59,0.54,3.58,0.49c5.39-0.29,16.96-1.67,23.82-2.58c0.99-0.13,2.33-0.18,2.96,0" style="fill:none;stroke:#999;stroke-width:3"></path>

<path d="M122.65,39.67c1.1,0.33,2.59,0.54,3.58,0.49c5.39-0.29,16.96-1.67,23.82-2.58c0.99-0.13,2.33-0.18,2.96,0" style="fill:none;stroke:#999;stroke-width:3"></path>
<path d="M139.36,15.25c1.13,1.13,2.04,3,2.04,4.67c0,0.81-0.04,48.97-0.05,68.45c0,3.35,0,5.86,0,7.12" style="fill:none;stroke:#999;stroke-width:3"></path>

<path d="M231.65,39.67c1.1,0.33,2.59,0.54,3.58,0.49c5.39-0.29,16.96-1.67,23.82-2.58c0.99-0.13,2.33-0.18,2.96,0" style="fill:none;stroke:#999;stroke-width:3"></path>
<path d="M248.36,15.25c1.13,1.13,2.04,3,2.04,4.67c0,0.81-0.04,48.97-0.05,68.45c0,3.35,0,5.86,0,7.12" style="fill:none;stroke:#999;stroke-width:3"></path>
<path d="M249.44,40.28c0,0.97-0.38,3-0.69,3.72c-5.5,12.83-9,18.92-17.89,30.84" style="fill:none;stroke:#999;stroke-width:3"></path>

<path d="M340.65,39.67c1.1,0.33,2.59,0.54,3.58,0.49c5.39-0.29,16.96-1.67,23.82-2.58c0.99-0.13,2.33-0.18,2.96,0" style="fill:none;stroke:#999;stroke-width:3"></path>
<path d="M357.36,15.25c1.13,1.13,2.04,3,2.04,4.67c0,0.81-0.04,48.97-0.05,68.45c0,3.35,0,5.86,0,7.12" style="fill:none;stroke:#999;stroke-width:3"></path>
<path d="M358.44,40.28c0,0.97-0.38,3-0.69,3.72c-5.5,12.83-9,18.92-17.89,30.84" style="fill:none;stroke:#999;stroke-width:3"></path>
<path d="M362.62,50.25c2.16,1.43,7.55,6.97,9.38,9.75" style="fill:none;stroke:#999;stroke-width:3"></path>

<path d="M449.65,39.67c1.1,0.33,2.59,0.54,3.58,0.49c5.39-0.29,16.96-1.67,23.82-2.58c0.99-0.13,2.33-0.18,2.96,0" style="fill:none;stroke:#999;stroke-width:3"></path>
<path d="M466.36,15.25c1.13,1.13,2.04,3,2.04,4.67c0,0.81-0.04,48.97-0.05,68.45c0,3.35,0,5.86,0,7.12" style="fill:none;stroke:#999;stroke-width:3"></path>
<path d="M467.44,40.28c0,0.97-0.38,3-0.69,3.72c-5.5,12.83-9,18.92-17.89,30.84" style="fill:none;stroke:#999;stroke-width:3"></path>
<path d="M471.62,50.25c2.16,1.43,7.55,6.97,9.38,9.75" style="fill:none;stroke:#999;stroke-width:3"></path>
<path d="M498.62,13.62c4.2,2.11,10.38,8.05,11.43,11.34" style="fill:none;stroke:#999;stroke-width:3"></path>

<path d="M558.65,39.67c1.1,0.33,2.59,0.54,3.58,0.49c5.39-0.29,16.96-1.67,23.82-2.58c0.99-0.13,2.33-0.18,2.96,0" style="fill:none;stroke:#999;stroke-width:3"></path>
<path d="M575.36,15.25c1.13,1.13,2.04,3,2.04,4.67c0,0.81-0.04,48.97-0.05,68.45c0,3.35,0,5.86,0,7.12" style="fill:none;stroke:#999;stroke-width:3"></path>
<path d="M576.44,40.28c0,0.97-0.38,3-0.69,3.72c-5.5,12.83-9,18.92-17.89,30.84" style="fill:none;stroke:#999;stroke-width:3"></path>
<path d="M580.62,50.25c2.16,1.43,7.55,6.97,9.38,9.75" style="fill:none;stroke:#999;stroke-width:3"></path>
<path d="M607.62,13.62c4.2,2.11,10.38,8.05,11.43,11.34" style="fill:none;stroke:#999;stroke-width:3"></path>
<path d="M595.25,38.86c1.84,0.27,4.96,0.13,6.14,0.03c10.24-0.89,23.86-3.26,31.19-3.43c1.8-0.04,3.43,0.1,4.92,0.5" style="fill:none;stroke:#999;stroke-width:3"></path>

<path d="M667.65,39.67c1.1,0.33,2.59,0.54,3.58,0.49c5.39-0.29,16.96-1.67,23.82-2.58c0.99-0.13,2.33-0.18,2.96,0" style="fill:none;stroke:#999;stroke-width:3"></path>
<path d="M684.36,15.25c1.13,1.13,2.04,3,2.04,4.67c0,0.81-0.04,48.97-0.05,68.45c0,3.35,0,5.86,0,7.12" style="fill:none;stroke:#999;stroke-width:3"></path>
<path d="M685.44,40.28c0,0.97-0.38,3-0.69,3.72c-5.5,12.83-9,18.92-17.89,30.84" style="fill:none;stroke:#999;stroke-width:3"></path>
<path d="M689.62,50.25c2.16,1.43,7.55,6.97,9.38,9.75" style="fill:none;stroke:#999;stroke-width:3"></path>
<path d="M716.62,13.62c4.2,2.11,10.38,8.05,11.43,11.34" style="fill:none;stroke:#999;stroke-width:3"></path>
<path d="M704.25,38.86c1.84,0.27,4.96,0.13,6.14,0.03c10.24-0.89,23.86-3.26,31.19-3.43c1.8-0.04,3.43,0.1,4.92,0.5" style="fill:none;stroke:#999;stroke-width:3"></path>
<path d="M723.5,40.58c1.5,1.17,2,2.55,2,4.25c0,6.41,0,35.67,0,43.17" style="fill:none;stroke:#999;stroke-width:3"></path>

<path d="M776.65,39.67c1.1,0.33,2.59,0.54,3.58,0.49c5.39-0.29,16.96-1.67,23.82-2.58c0.99-0.13,2.33-0.18,2.96,0" style="fill:none;stroke:#999;stroke-width:3"></path>
<path d="M793.36,15.25c1.13,1.13,2.04,3,2.04,4.67c0,0.81-0.04,48.97-0.05,68.45c0,3.35,0,5.86,0,7.12" style="fill:none;stroke:#999;stroke-width:3"></path>
<path d="M794.44,40.28c0,0.97-0.38,3-0.69,3.72c-5.5,12.83-9,18.92-17.89,30.84" style="fill:none;stroke:#999;stroke-width:3"></path>
<path d="M798.62,50.25c2.16,1.43,7.55,6.97,9.38,9.75" style="fill:none;stroke:#999;stroke-width:3"></path>
<path d="M825.62,13.62c4.2,2.11,10.38,8.05,11.43,11.34" style="fill:none;stroke:#999;stroke-width:3"></path>
<path d="M813.25,38.86c1.84,0.27,4.96,0.13,6.14,0.03c10.24-0.89,23.86-3.26,31.19-3.43c1.8-0.04,3.43,0.1,4.92,0.5" style="fill:none;stroke:#999;stroke-width:3"></path>
<path d="M832.5,40.58c1.5,1.17,2,2.55,2,4.25c0,6.41,0,35.67,0,43.17" style="fill:none;stroke:#999;stroke-width:3"></path>
<path d="M815.75,63.07c0.94,0.52,4.04,0.34,5,0.23c11.5-1.3,14.08-1.82,27-2.68c1.17-0.08,3.75-0.21,5.5,0.25" style="fill:none;stroke:#999;stroke-width:3"></path>

<path d="M885.65,39.67c1.1,0.33,2.59,0.54,3.58,0.49c5.39-0.29,16.96-1.67,23.82-2.58c0.99-0.13,2.33-0.18,2.96,0" style="fill:none;stroke:#999;stroke-width:3"></path>
<path d="M902.36,15.25c1.13,1.13,2.04,3,2.04,4.67c0,0.81-0.04,48.97-0.05,68.45c0,3.35,0,5.86,0,7.12" style="fill:none;stroke:#999;stroke-width:3"></path>
<path d="M903.44,40.28c0,0.97-0.38,3-0.69,3.72c-5.5,12.83-9,18.92-17.89,30.84" style="fill:none;stroke:#999;stroke-width:3"></path>
<path d="M907.62,50.25c2.16,1.43,7.55,6.97,9.38,9.75" style="fill:none;stroke:#999;stroke-width:3"></path>
<path d="M934.62,13.62c4.2,2.11,10.38,8.05,11.43,11.34" style="fill:none;stroke:#999;stroke-width:3"></path>
<path d="M922.25,38.86c1.84,0.27,4.96,0.13,6.14,0.03c10.24-0.89,23.86-3.26,31.19-3.43c1.8-0.04,3.43,0.1,4.92,0.5" style="fill:none;stroke:#999;stroke-width:3"></path>
<path d="M941.5,40.58c1.5,1.17,2,2.55,2,4.25c0,6.41,0,35.67,0,43.17" style="fill:none;stroke:#999;stroke-width:3"></path>
<path d="M924.75,63.07c0.94,0.52,4.04,0.34,5,0.23c11.5-1.3,14.08-1.82,27-2.68c1.17-0.08,3.75-0.21,5.5,0.25" style="fill:none;stroke:#999;stroke-width:3"></path>
<path d="M916.5,89.76c1.75,0.37,3.87,0.43,6.25,0.25c12.12-0.89,31-2.01,42.75-2.3c2.5-0.06,5.5,0.24,6.75,0.69" style="fill:none;stroke:#999;stroke-width:3"></path>

</svg>