<svg width="981px" height="109px" viewBox="0 0 981 109" xmlns="http://www.w3.org/2000/svg" xmlns:xlink="http://www.w3.org/1999/xlink" xml:space="preserve" version="1.1" baseProfile="full">
<line x1="1" y1="1" x2="980" y2="1" style="stroke:#ddd;stroke-width:2"></line>
<line x1="1" y1="1" x2="1" y2="108" style="stroke:#ddd;stroke-width:2"></line>
<line x1="1" y1="108" x2="980" y2="108" style="stroke:#ddd;stroke-width:2"></line>
<line x1="980" y1="1" x2="980" y2="108" style="stroke:#ddd;stroke-width:2"></line>
<line x1="109" y1="1" x2="109" y2="108" style="stroke:#ddd;stroke-width:2"></line>
<line x1="218" y1="1" x2="218" y2="108" style="stroke:#ddd;stroke-width:2"></line>
<line x1="327" y1="1" x2="327" y2="108" style="stroke:#ddd;stroke-width:2"></line>
<line x1="436" y1="1" x2="436" y2="108" style="stroke:#ddd;stroke-width:2"></line>
<line x1="545" y1="1" x2="545" y2="108" style="stroke:#ddd;stroke-width:2"></line>
<line x1="654" y1="1" x2="654" y2="108" style="stroke:#ddd;stroke-width:2"></line>
<line x1="763" y1="1" x2="763" y2="108" style="stroke:#ddd;stroke-width:2"></line>
<line x1="872" y1="1" x2="872" y2="108" style="stroke:#ddd;stroke-width:2"></line>
<line x1="1" y1="54" x2="980" y2="54" style="stroke:#ddd;stroke-width:2;stroke-dasharray:3 3"></line>
<line x1="55" y1="1" x2="55" y2="108" style="stroke:#ddd;stroke-width:2;stroke-dasharray:3 3"></line>
<line x1="164" y1="1" x2="164" y2="108" style="stroke:#ddd;stroke-width:2;stroke-dasharray:3 3"></line>
<line x1="273" y1="1" x2="273" y2="108" style="stroke:#ddd;stroke-width:2;stroke-dasharray:3 3"></line>
<line x1="382" y1="1" x2="382" y2="108" style="stroke:#ddd;stroke-width:2;stroke-dasharray:3 3"></line>
<line x1="491" y1="1" x2="491" y2="108" style="stroke:#ddd;stroke-width:2;stroke-dasharray:3 3"></line>
<line x1="600" y1="1" x2="600" y2="108" style="stroke:#ddd;stroke-width:2;stroke-dasharray:3 3"></line>
<line x1="709" y1="1" x2="709" y2="108" style="stroke:#ddd;stroke-width:2;stroke-dasharray:3 3"></line>
<line x1="818" y1="1" x2="818" y2="108" style="stroke:#ddd;stroke-width:2;stroke-dasharray:3 3"></line>
<line x1="927" y1="1" x2="927" y2="108" style="stroke:#ddd;stroke-width:2;stroke-dasharray:3 3"></line>
<path d="M11.78,41.47c1.86,0.28,3.73,0.39,5.61,0.31c4.2-0.47,11.49-1.4,17.03-2.54c1.28-0.26,2.55-0.48,3.85-0.38" style="fill:none;stroke:#999;stroke-width:3"></path>

<path d="M120.78,41.47c1.86,0.28,3.73,0.39,5.61,0.31c4.2-0.47,11.49-1.4,17.03-2.54c1.28-0.26,2.55-0.48,3.85-0.38" style="fill:none;stroke:#999;stroke-width:3"></path>
<path d="M135.61,15.75c1.07,1.07,1.29,2.75,1.29,4.17c0,7.41-0.03,43.71-0.05,63.08c0,5.67-0.01,9.89-0.01,11.5" style="fill:none;stroke:#999;stroke-width:3"></path>

<path d="M229.78,41.47c1.86,0.28,3.73,0.39,5.61,0.31c4.2-0.47,11.49-1.4,17.03-2.54c1.28-0.26,2.55-0.48,3.85-0.38" style="fill:none;stroke:#999;stroke-width:3"></path>
<path d="M244.61,15.75c1.07,1.07,1.29,2.75,1.29,4.17c0,7.41-0.03,43.71-0.05,63.08c0,5.67-0.01,9.89-0.01,11.5" style="fill:none;stroke:#999;stroke-width:3"></path>
<path d="M245.44,42.28c0,1.84-0.64,4.94-1.29,6.6c-4.5,11.52-8.13,17.37-15.79,28.96" style="fill:none;stroke:#999;stroke-width:3"></path>

<path d="M338.78,41.47c1.86,0.28,3.73,0.39,5.61,0.31c4.2-0.47,11.49-1.4,17.03-2.54c1.28-0.26,2.55-0.48,3.85-0.38" style="fill:none;stroke:#999;stroke-width:3"></path>
<path d="M353.61,15.75c1.07,1.07,1.29,2.75,1.29,4.17c0,7.41-0.03,43.71-0.05,63.08c0,5.67-0.01,9.89-0.01,11.5" style="fill:none;stroke:#999;stroke-width:3"></path>
<path d="M354.44,42.28c0,1.84-0.64,4.94-1.29,6.6c-4.5,11.52-8.13,17.37-15.79,28.96" style="fill:none;stroke:#999;stroke-width:3"></path>
<path d="M358.47,52.15c2.65,1.85,5.03,5.23,6.66,9.14" style="fill:none;stroke:#999;stroke-width:3"></path>

<path d="M447.78,41.47c1.86,0.28,3.73,0.39,5.61,0.31c4.2-0.47,11.49-1.4,17.03-2.54c1.28-0.26,2.55-0.48,3.85-0.38" style="fill:none;stroke:#999;stroke-width:3"></path>
<path d="M462.61,15.75c1.07,1.07,1.29,2.75,1.29,4.17c0,7.41-0.03,43.71-0.05,63.08c0,5.67-0.01,9.89-0.01,11.5" style="fill:none;stroke:#999;stroke-width:3"></path>
<path d="M463.44,42.28c0,1.84-0.64,4.94-1.29,6.6c-4.5,11.52-8.13,17.37-15.79,28.96" style="fill:none;stroke:#999;stroke-width:3"></path>
<path d="M467.47,52.15c2.65,1.85,5.03,5.23,6.66,9.14" style="fill:none;stroke:#999;stroke-width:3"></path>
<path d="M483.06,19.34c0.92,0.92,1.09,2.03,1.09,3.67c0,1.66-0.01,41.77-0.02,60.6c0,5.23,0,8.86,0,9.63" style="fill:none;stroke:#999;stroke-width:3"></path>

<path d="M556.78,41.47c1.86,0.28,3.73,0.39,5.61,0.31c4.2-0.47,11.49-1.4,17.03-2.54c1.28-0.26,2.55-0.48,3.85-0.38" style="fill:none;stroke:#999;stroke-width:3"></path>
<path d="M571.61,15.75c1.07,1.07,1.29,2.75,1.29,4.17c0,7.41-0.03,43.71-0.05,63.08c0,5.67-0.01,9.89-0.01,11.5" style="fill:none;stroke:#999;stroke-width:3"></path>
<path d="M572.44,42.28c0,1.84-0.64,4.94-1.29,6.6c-4.5,11.52-8.13,17.37-15.79,28.96" style="fill:none;stroke:#999;stroke-width:3"></path>
<path d="M576.47,52.15c2.65,1.85,5.03,5.23,6.66,9.14" style="fill:none;stroke:#999;stroke-width:3"></path>
<path d="M592.06,19.34c0.92,0.92,1.09,2.03,1.09,3.67c0,1.66-0.01,41.77-0.02,60.6c0,5.23,0,8.86,0,9.63" style="fill:none;stroke:#999;stroke-width:3"></path>
<path d="M593.88,21.38c6.27-0.74,26.92-2.79,33.88-3.59c3.01-0.35,6.02-0.4,6.02,3.46c0.01,8.9,0.09,60.69,0.06,65.87c-0.08,10.88-2.58,5.13-6.54,2.41" style="fill:none;stroke:#999;stroke-width:3"></path>

<path d="M665.78,41.47c1.86,0.28,3.73,0.39,5.61,0.31c4.2-0.47,11.49-1.4,17.03-2.54c1.28-0.26,2.55-0.48,3.85-0.38" style="fill:none;stroke:#999;stroke-width:3"></path>
<path d="M680.61,15.75c1.07,1.07,1.29,2.75,1.29,4.17c0,7.41-0.03,43.71-0.05,63.08c0,5.67-0.01,9.89-0.01,11.5" style="fill:none;stroke:#999;stroke-width:3"></path>
<path d="M681.44,42.28c0,1.84-0.64,4.94-1.29,6.6c-4.5,11.52-8.13,17.37-15.79,28.96" style="fill:none;stroke:#999;stroke-width:3"></path>
<path d="M685.47,52.15c2.65,1.85,5.03,5.23,6.66,9.14" style="fill:none;stroke:#999;stroke-width:3"></path>
<path d="M701.06,19.34c0.92,0.92,1.09,2.03,1.09,3.67c0,1.66-0.01,41.77-0.02,60.6c0,5.23,0,8.86,0,9.63" style="fill:none;stroke:#999;stroke-width:3"></path>
<path d="M702.88,21.38c6.27-0.74,26.92-2.79,33.88-3.59c3.01-0.35,6.02-0.4,6.02,3.46c0.01,8.9,0.09,60.69,0.06,65.87c-0.08,10.88-2.58,5.13-6.54,2.41" style="fill:none;stroke:#999;stroke-width:3"></path>
<path d="M713.31,22.89c0.9,0.9,1.24,1.99,1.24,3.19c0,0.79-0.04,34.71-0.05,52.55c0,4.72-0.01,8.32-0.01,9.87" style="fill:none;stroke:#999;stroke-width:3"></path>

<path d="M774.78,41.47c1.86,0.28,3.73,0.39,5.61,0.31c4.2-0.47,11.49-1.4,17.03-2.54c1.28-0.26,2.55-0.48,3.85-0.38" style="fill:none;stroke:#999;stroke-width:3"></path>
<path d="M789.61,15.75c1.07,1.07,1.29,2.75,1.29,4.17c0,7.41-0.03,43.71-0.05,63.08c0,5.67-0.01,9.89-0.01,11.5" style="fill:none;stroke:#999;stroke-width:3"></path>
<path d="M790.44,42.28c0,1.84-0.64,4.94-1.29,6.6c-4.5,11.52-8.13,17.37-15.79,28.96" style="fill:none;stroke:#999;stroke-width:3"></path>
<path d="M794.47,52.15c2.65,1.85,5.03,5.23,6.66,9.14" style="fill:none;stroke:#999;stroke-width:3"></path>
<path d="M810.06,19.34c0.92,0.92,1.09,2.03,1.09,3.67c0,1.66-0.01,41.77-0.02,60.6c0,5.23,0,8.86,0,9.63" style="fill:none;stroke:#999;stroke-width:3"></path>
<path d="M811.88,21.38c6.27-0.74,26.92-2.79,33.88-3.59c3.01-0.35,6.02-0.4,6.02,3.46c0.01,8.9,0.09,60.69,0.06,65.87c-0.08,10.88-2.58,5.13-6.54,2.41" style="fill:none;stroke:#999;stroke-width:3"></path>
<path d="M822.31,22.89c0.9,0.9,1.24,1.99,1.24,3.19c0,0.79-0.04,34.71-0.05,52.55c0,4.72-0.01,8.32-0.01,9.87" style="fill:none;stroke:#999;stroke-width:3"></path>
<path d="M835.5,20.92c0.91,0.91,0.99,1.96,0.99,3.19c0,0.79-0.08,35.21-0.11,53.77c-0.01,4.71-0.01,8.39-0.01,10.25" style="fill:none;stroke:#999;stroke-width:3"></path>

<path d="M883.78,41.47c1.86,0.28,3.73,0.39,5.61,0.31c4.2-0.47,11.49-1.4,17.03-2.54c1.28-0.26,2.55-0.48,3.85-0.38" style="fill:none;stroke:#999;stroke-width:3"></path>
<path d="M898.61,15.75c1.07,1.07,1.29,2.75,1.29,4.17c0,7.41-0.03,43.71-0.05,63.08c0,5.67-0.01,9.89-0.01,11.5" style="fill:none;stroke:#999;stroke-width:3"></path>
<path d="M899.44,42.28c0,1.84-0.64,4.94-1.29,6.6c-4.5,11.52-8.13,17.37-15.79,28.96" style="fill:none;stroke:#999;stroke-width:3"></path>
<path d="M903.47,52.15c2.65,1.85,5.03,5.23,6.66,9.14" style="fill:none;stroke:#999;stroke-width:3"></path>
<path d="M919.06,19.34c0.92,0.92,1.09,2.03,1.09,3.67c0,1.66-0.01,41.77-0.02,60.6c0,5.23,0,8.86,0,9.63" style="fill:none;stroke:#999;stroke-width:3"></path>
<path d="M920.88,21.38c6.27-0.74,26.92-2.79,33.88-3.59c3.01-0.35,6.02-0.4,6.02,3.46c0.01,8.9,0.09,60.69,0.06,65.87c-0.08,10.88-2.58,5.13-6.54,2.41" style="fill:none;stroke:#999;stroke-width:3"></path>
<path d="M931.31,22.89c0.9,0.9,1.24,1.99,1.24,3.19c0,0.79-0.04,34.71-0.05,52.55c0,4.72-0.01,8.32-0.01,9.87" style="fill:none;stroke:#999;stroke-width:3"></path>
<path d="M944.5,20.92c0.91,0.91,0.99,1.96,0.99,3.19c0,0.79-0.08,35.21-0.11,53.77c-0.01,4.71-0.01,8.39-0.01,10.25" style="fill:none;stroke:#999;stroke-width:3"></path>
<path d="M910.5,51.47c4.52,0.5,9.01,0.43,13.5-0.04c11.12-1.18,23.19-2.24,33.75-3.05c4.24-0.42,8.49-0.42,12.75,0.01" style="fill:none;stroke:#999;stroke-width:3"></path>

</svg>