<svg width="1090px" height="109px" viewBox="0 0 1090 109" xmlns="http://www.w3.org/2000/svg" xmlns:xlink="http://www.w3.org/1999/xlink" xml:space="preserve" version="1.1" baseProfile="full">
<line x1="1" y1="1" x2="1089" y2="1" style="stroke:#ddd;stroke-width:2"></line>
<line x1="1" y1="1" x2="1" y2="108" style="stroke:#ddd;stroke-width:2"></line>
<line x1="1" y1="108" x2="1089" y2="108" style="stroke:#ddd;stroke-width:2"></line>
<line x1="1089" y1="1" x2="1089" y2="108" style="stroke:#ddd;stroke-width:2"></line>
<line x1="109" y1="1" x2="109" y2="108" style="stroke:#ddd;stroke-width:2"></line>
<line x1="218" y1="1" x2="218" y2="108" style="stroke:#ddd;stroke-width:2"></line>
<line x1="327" y1="1" x2="327" y2="108" style="stroke:#ddd;stroke-width:2"></line>
<line x1="436" y1="1" x2="436" y2="108" style="stroke:#ddd;stroke-width:2"></line>
<line x1="545" y1="1" x2="545" y2="108" style="stroke:#ddd;stroke-width:2"></line>
<line x1="654" y1="1" x2="654" y2="108" style="stroke:#ddd;stroke-width:2"></line>
<line x1="763" y1="1" x2="763" y2="108" style="stroke:#ddd;stroke-width:2"></line>
<line x1="872" y1="1" x2="872" y2="108" style="stroke:#ddd;stroke-width:2"></line>
<line x1="981" y1="1" x2="981" y2="108" style="stroke:#ddd;stroke-width:2"></line>
<line x1="1" y1="54" x2="1089" y2="54" style="stroke:#ddd;stroke-width:2;stroke-dasharray:3 3"></line>
<line x1="55" y1="1" x2="55" y2="108" style="stroke:#ddd;stroke-width:2;stroke-dasharray:3 3"></line>
<line x1="164" y1="1" x2="164" y2="108" style="stroke:#ddd;stroke-width:2;stroke-dasharray:3 3"></line>
<line x1="273" y1="1" x2="273" y2="108" style="stroke:#ddd;stroke-width:2;stroke-dasharray:3 3"></line>
<line x1="382" y1="1" x2="382" y2="108" style="stroke:#ddd;stroke-width:2;stroke-dasharray:3 3"></line>
<line x1="491" y1="1" x2="491" y2="108" style="stroke:#ddd;stroke-width:2;stroke-dasharray:3 3"></line>
<line x1="600" y1="1" x2="600" y2="108" style="stroke:#ddd;stroke-width:2;stroke-dasharray:3 3"></line>
<line x1="709" y1="1" x2="709" y2="108" style="stroke:#ddd;stroke-width:2;stroke-dasharray:3 3"></line>
<line x1="818" y1="1" x2="818" y2="108" style="stroke:#ddd;stroke-width:2;stroke-dasharray:3 3"></line>
<line x1="927" y1="1" x2="927" y2="108" style="stroke:#ddd;stroke-width:2;stroke-dasharray:3 3"></line>
<line x1="1036" y1="1" x2="1036" y2="108" style="stroke:#ddd;stroke-width:2;stroke-dasharray:3 3"></line>
<path d="M11.53,40.68c1.1,0.32,2.6,0.45,4.53,0.32c5.4-0.35,16.57-3,23.14-4.04c1.25-0.2,2.3-0.18,3.07,0" style="fill:none;stroke:#999;stroke-width:3"></path>

<path d="M120.53,40.68c1.1,0.32,2.6,0.45,4.53,0.32c5.4-0.35,16.57-3,23.14-4.04c1.25-0.2,2.3-0.18,3.07,0" style="fill:none;stroke:#999;stroke-width:3"></path>
<path d="M137.99,17.25c1.07,1.07,1.76,3.25,1.76,5.25c0,0.77-0.03,48.09-0.18,65.25c-0.03,3.03-0.05,5.16-0.07,6" style="fill:none;stroke:#999;stroke-width:3"></path>

<path d="M229.53,40.68c1.1,0.32,2.6,0.45,4.53,0.32c5.4-0.35,16.57-3,23.14-4.04c1.25-0.2,2.3-0.18,3.07,0" style="fill:none;stroke:#999;stroke-width:3"></path>
<path d="M246.99,17.25c1.07,1.07,1.76,3.25,1.76,5.25c0,0.77-0.03,48.09-0.18,65.25c-0.03,3.03-0.05,5.16-0.07,6" style="fill:none;stroke:#999;stroke-width:3"></path>
<path d="M248.25,40.75c0,1.25-0.49,2.66-0.96,3.77C243.28,53.91,238.88,62.25,233.0,70" style="fill:none;stroke:#999;stroke-width:3"></path>

<path d="M338.53,40.68c1.1,0.32,2.6,0.45,4.53,0.32c5.4-0.35,16.57-3,23.14-4.04c1.25-0.2,2.3-0.18,3.07,0" style="fill:none;stroke:#999;stroke-width:3"></path>
<path d="M355.99,17.25c1.07,1.07,1.76,3.25,1.76,5.25c0,0.77-0.03,48.09-0.18,65.25c-0.03,3.03-0.05,5.16-0.07,6" style="fill:none;stroke:#999;stroke-width:3"></path>
<path d="M357.25,40.75c0,1.25-0.49,2.66-0.96,3.77C352.28,53.91,347.88,62.25,342.0,70" style="fill:none;stroke:#999;stroke-width:3"></path>
<path d="M360.75,51.25c2.75,1.5,6,5.25,7.25,7.75" style="fill:none;stroke:#999;stroke-width:3"></path>

<path d="M447.53,40.68c1.1,0.32,2.6,0.45,4.53,0.32c5.4-0.35,16.57-3,23.14-4.04c1.25-0.2,2.3-0.18,3.07,0" style="fill:none;stroke:#999;stroke-width:3"></path>
<path d="M464.99,17.25c1.07,1.07,1.76,3.25,1.76,5.25c0,0.77-0.03,48.09-0.18,65.25c-0.03,3.03-0.05,5.16-0.07,6" style="fill:none;stroke:#999;stroke-width:3"></path>
<path d="M466.25,40.75c0,1.25-0.49,2.66-0.96,3.77C461.28,53.91,456.88,62.25,451.0,70" style="fill:none;stroke:#999;stroke-width:3"></path>
<path d="M469.75,51.25c2.75,1.5,6,5.25,7.25,7.75" style="fill:none;stroke:#999;stroke-width:3"></path>
<path d="M502.39,15.5c0.99,0.99,1.38,1.88,1.38,3.62c0,4.25-0.02,7.62-0.08,10.41" style="fill:none;stroke:#999;stroke-width:3"></path>

<path d="M556.53,40.68c1.1,0.32,2.6,0.45,4.53,0.32c5.4-0.35,16.57-3,23.14-4.04c1.25-0.2,2.3-0.18,3.07,0" style="fill:none;stroke:#999;stroke-width:3"></path>
<path d="M573.99,17.25c1.07,1.07,1.76,3.25,1.76,5.25c0,0.77-0.03,48.09-0.18,65.25c-0.03,3.03-0.05,5.16-0.07,6" style="fill:none;stroke:#999;stroke-width:3"></path>
<path d="M575.25,40.75c0,1.25-0.49,2.66-0.96,3.77C570.28,53.91,565.88,62.25,560.0,70" style="fill:none;stroke:#999;stroke-width:3"></path>
<path d="M578.75,51.25c2.75,1.5,6,5.25,7.25,7.75" style="fill:none;stroke:#999;stroke-width:3"></path>
<path d="M611.39,15.5c0.99,0.99,1.38,1.88,1.38,3.62c0,4.25-0.02,7.62-0.08,10.41" style="fill:none;stroke:#999;stroke-width:3"></path>
<path d="M593.12,31.71c2.3,0.29,3.9,0.44,6.09,0.2c10.28-1.16,20.32-2.66,32.45-3.53c2.35-0.17,4.03-0.01,5.33,0.32" style="fill:none;stroke:#999;stroke-width:3"></path>

<path d="M665.53,40.68c1.1,0.32,2.6,0.45,4.53,0.32c5.4-0.35,16.57-3,23.14-4.04c1.25-0.2,2.3-0.18,3.07,0" style="fill:none;stroke:#999;stroke-width:3"></path>
<path d="M682.99,17.25c1.07,1.07,1.76,3.25,1.76,5.25c0,0.77-0.03,48.09-0.18,65.25c-0.03,3.03-0.05,5.16-0.07,6" style="fill:none;stroke:#999;stroke-width:3"></path>
<path d="M684.25,40.75c0,1.25-0.49,2.66-0.96,3.77C679.28,53.91,674.88,62.25,669.0,70" style="fill:none;stroke:#999;stroke-width:3"></path>
<path d="M687.75,51.25c2.75,1.5,6,5.25,7.25,7.75" style="fill:none;stroke:#999;stroke-width:3"></path>
<path d="M720.39,15.5c0.99,0.99,1.38,1.88,1.38,3.62c0,4.25-0.02,7.62-0.08,10.41" style="fill:none;stroke:#999;stroke-width:3"></path>
<path d="M702.12,31.71c2.3,0.29,3.9,0.44,6.09,0.2c10.28-1.16,20.32-2.66,32.45-3.53c2.35-0.17,4.03-0.01,5.33,0.32" style="fill:none;stroke:#999;stroke-width:3"></path>
<path d="M713.24,38.93c0.2,0.53,0.06,2.27-0.4,3.14C711.0,45.5,707.75,49.5,704.0,52.5" style="fill:none;stroke:#999;stroke-width:3"></path>

<path d="M774.53,40.68c1.1,0.32,2.6,0.45,4.53,0.32c5.4-0.35,16.57-3,23.14-4.04c1.25-0.2,2.3-0.18,3.07,0" style="fill:none;stroke:#999;stroke-width:3"></path>
<path d="M791.99,17.25c1.07,1.07,1.76,3.25,1.76,5.25c0,0.77-0.03,48.09-0.18,65.25c-0.03,3.03-0.05,5.16-0.07,6" style="fill:none;stroke:#999;stroke-width:3"></path>
<path d="M793.25,40.75c0,1.25-0.49,2.66-0.96,3.77C788.28,53.91,783.88,62.25,778.0,70" style="fill:none;stroke:#999;stroke-width:3"></path>
<path d="M796.75,51.25c2.75,1.5,6,5.25,7.25,7.75" style="fill:none;stroke:#999;stroke-width:3"></path>
<path d="M829.39,15.5c0.99,0.99,1.38,1.88,1.38,3.62c0,4.25-0.02,7.62-0.08,10.41" style="fill:none;stroke:#999;stroke-width:3"></path>
<path d="M811.12,31.71c2.3,0.29,3.9,0.44,6.09,0.2c10.28-1.16,20.32-2.66,32.45-3.53c2.35-0.17,4.03-0.01,5.33,0.32" style="fill:none;stroke:#999;stroke-width:3"></path>
<path d="M822.24,38.93c0.2,0.53,0.06,2.27-0.4,3.14C820.0,45.5,816.75,49.5,813.0,52.5" style="fill:none;stroke:#999;stroke-width:3"></path>
<path d="M842.27,38.5c4.34,3.07,8.73,8.68,10.9,12.41" style="fill:none;stroke:#999;stroke-width:3"></path>

<path d="M883.53,40.68c1.1,0.32,2.6,0.45,4.53,0.32c5.4-0.35,16.57-3,23.14-4.04c1.25-0.2,2.3-0.18,3.07,0" style="fill:none;stroke:#999;stroke-width:3"></path>
<path d="M900.99,17.25c1.07,1.07,1.76,3.25,1.76,5.25c0,0.77-0.03,48.09-0.18,65.25c-0.03,3.03-0.05,5.16-0.07,6" style="fill:none;stroke:#999;stroke-width:3"></path>
<path d="M902.25,40.75c0,1.25-0.49,2.66-0.96,3.77C897.28,53.91,892.88,62.25,887.0,70" style="fill:none;stroke:#999;stroke-width:3"></path>
<path d="M905.75,51.25c2.75,1.5,6,5.25,7.25,7.75" style="fill:none;stroke:#999;stroke-width:3"></path>
<path d="M938.39,15.5c0.99,0.99,1.38,1.88,1.38,3.62c0,4.25-0.02,7.62-0.08,10.41" style="fill:none;stroke:#999;stroke-width:3"></path>
<path d="M920.12,31.71c2.3,0.29,3.9,0.44,6.09,0.2c10.28-1.16,20.32-2.66,32.45-3.53c2.35-0.17,4.03-0.01,5.33,0.32" style="fill:none;stroke:#999;stroke-width:3"></path>
<path d="M931.24,38.93c0.2,0.53,0.06,2.27-0.4,3.14C929.0,45.5,925.75,49.5,922.0,52.5" style="fill:none;stroke:#999;stroke-width:3"></path>
<path d="M951.27,38.5c4.34,3.07,8.73,8.68,10.9,12.41" style="fill:none;stroke:#999;stroke-width:3"></path>
<path d="M951.15,49.18c0.35,1.32,0.17,2.62-0.54,4.18C944.25,67.25,930.75,83.25,916.0,91.25" style="fill:none;stroke:#999;stroke-width:3"></path>

<path d="M992.53,40.68c1.1,0.32,2.6,0.45,4.53,0.32c5.4-0.35,16.57-3,23.14-4.04c1.25-0.2,2.3-0.18,3.07,0" style="fill:none;stroke:#999;stroke-width:3"></path>
<path d="M1009.99,17.25c1.07,1.07,1.76,3.25,1.76,5.25c0,0.77-0.03,48.09-0.18,65.25c-0.03,3.03-0.05,5.16-0.07,6" style="fill:none;stroke:#999;stroke-width:3"></path>
<path d="M1011.25,40.75c0,1.25-0.49,2.66-0.96,3.77C1006.28,53.91,1001.88,62.25,996.0,70" style="fill:none;stroke:#999;stroke-width:3"></path>
<path d="M1014.75,51.25c2.75,1.5,6,5.25,7.25,7.75" style="fill:none;stroke:#999;stroke-width:3"></path>
<path d="M1047.3899999999999,15.5c0.99,0.99,1.38,1.88,1.38,3.62c0,4.25-0.02,7.62-0.08,10.41" style="fill:none;stroke:#999;stroke-width:3"></path>
<path d="M1029.12,31.71c2.3,0.29,3.9,0.44,6.09,0.2c10.28-1.16,20.32-2.66,32.45-3.53c2.35-0.17,4.03-0.01,5.33,0.32" style="fill:none;stroke:#999;stroke-width:3"></path>
<path d="M1040.24,38.93c0.2,0.53,0.06,2.27-0.4,3.14C1038.0,45.5,1034.75,49.5,1031.0,52.5" style="fill:none;stroke:#999;stroke-width:3"></path>
<path d="M1060.27,38.5c4.34,3.07,8.73,8.68,10.9,12.41" style="fill:none;stroke:#999;stroke-width:3"></path>
<path d="M1060.15,49.18c0.35,1.32,0.17,2.62-0.54,4.18C1053.25,67.25,1039.75,83.25,1025.0,91.25" style="fill:none;stroke:#999;stroke-width:3"></path>
<path d="M1036.95,55.88c6.3,3.37,21.64,22.12,31.45,30.33c2.64,2.21,5.07,4.15,8.6,4.44" style="fill:none;stroke:#999;stroke-width:3"></path>

</svg>