<svg width="1090px" height="109px" viewBox="0 0 1090 109" xmlns="http://www.w3.org/2000/svg" xmlns:xlink="http://www.w3.org/1999/xlink" xml:space="preserve" version="1.1" baseProfile="full">
<line x1="1" y1="1" x2="1089" y2="1" style="stroke:#ddd;stroke-width:2"></line>
<line x1="1" y1="1" x2="1" y2="108" style="stroke:#ddd;stroke-width:2"></line>
<line x1="1" y1="108" x2="1089" y2="108" style="stroke:#ddd;stroke-width:2"></line>
<line x1="1089" y1="1" x2="1089" y2="108" style="stroke:#ddd;stroke-width:2"></line>
<line x1="109" y1="1" x2="109" y2="108" style="stroke:#ddd;stroke-width:2"></line>
<line x1="218" y1="1" x2="218" y2="108" style="stroke:#ddd;stroke-width:2"></line>
<line x1="327" y1="1" x2="327" y2="108" style="stroke:#ddd;stroke-width:2"></line>
<line x1="436" y1="1" x2="436" y2="108" style="stroke:#ddd;stroke-width:2"></line>
<line x1="545" y1="1" x2="545" y2="108" style="stroke:#ddd;stroke-width:2"></line>
<line x1="654" y1="1" x2="654" y2="108" style="stroke:#ddd;stroke-width:2"></line>
<line x1="763" y1="1" x2="763" y2="108" style="stroke:#ddd;stroke-width:2"></line>
<line x1="872" y1="1" x2="872" y2="108" style="stroke:#ddd;stroke-width:2"></line>
<line x1="981" y1="1" x2="981" y2="108" style="stroke:#ddd;stroke-width:2"></line>
<line x1="1" y1="54" x2="1089" y2="54" style="stroke:#ddd;stroke-width:2;stroke-dasharray:3 3"></line>
<line x1="55" y1="1" x2="55" y2="108" style="stroke:#ddd;stroke-width:2;stroke-dasharray:3 3"></line>
<line x1="164" y1="1" x2="164" y2="108" style="stroke:#ddd;stroke-width:2;stroke-dasharray:3 3"></line>
<line x1="273" y1="1" x2="273" y2="108" style="stroke:#ddd;stroke-width:2;stroke-dasharray:3 3"></line>
<line x1="382" y1="1" x2="382" y2="108" style="stroke:#ddd;stroke-width:2;stroke-dasharray:3 3"></line>
<line x1="491" y1="1" x2="491" y2="108" style="stroke:#ddd;stroke-width:2;stroke-dasharray:3 3"></line>
<line x1="600" y1="1" x2="600" y2="108" style="stroke:#ddd;stroke-width:2;stroke-dasharray:3 3"></line>
<line x1="709" y1="1" x2="709" y2="108" style="stroke:#ddd;stroke-width:2;stroke-dasharray:3 3"></line>
<line x1="818" y1="1" x2="818" y2="108" style="stroke:#ddd;stroke-width:2;stroke-dasharray:3 3"></line>
<line x1="927" y1="1" x2="927" y2="108" style="stroke:#ddd;stroke-width:2;stroke-dasharray:3 3"></line>
<line x1="1036" y1="1" x2="1036" y2="108" style="stroke:#ddd;stroke-width:2;stroke-dasharray:3 3"></line>
<path d="M11.67,37.22c0.35,0.24,2.39,0.41,3.31,0.31c3.94-0.41,15.62-1.71,21.95-2.91c0.92-0.17,2.15-0.24,2.73,0" style="fill:none;stroke:#999;stroke-width:3"></path>

<path d="M120.67,37.22c0.35,0.24,2.39,0.41,3.31,0.31c3.94-0.41,15.62-1.71,21.95-2.91c0.92-0.17,2.15-0.24,2.73,0" style="fill:none;stroke:#999;stroke-width:3"></path>
<path d="M135.75,15c0.91,0.47,2.04,1.75,2.04,3.92c0,0.95-0.12,70.75-0.3,76.58" style="fill:none;stroke:#999;stroke-width:3"></path>

<path d="M229.67000000000002,37.22c0.35,0.24,2.39,0.41,3.31,0.31c3.94-0.41,15.62-1.71,21.95-2.91c0.92-0.17,2.15-0.24,2.73,0" style="fill:none;stroke:#999;stroke-width:3"></path>
<path d="M244.75,15c0.91,0.47,2.04,1.75,2.04,3.92c0,0.95-0.12,70.75-0.3,76.58" style="fill:none;stroke:#999;stroke-width:3"></path>
<path d="M246.32999999999998,38.28c-5.1,15.04-7.94,21.4-15.83,34.56" style="fill:none;stroke:#999;stroke-width:3"></path>

<path d="M338.67,37.22c0.35,0.24,2.39,0.41,3.31,0.31c3.94-0.41,15.62-1.71,21.95-2.91c0.92-0.17,2.15-0.24,2.73,0" style="fill:none;stroke:#999;stroke-width:3"></path>
<path d="M353.75,15c0.91,0.47,2.04,1.75,2.04,3.92c0,0.95-0.12,70.75-0.3,76.58" style="fill:none;stroke:#999;stroke-width:3"></path>
<path d="M355.33,38.28c-5.1,15.04-7.94,21.4-15.83,34.56" style="fill:none;stroke:#999;stroke-width:3"></path>
<path d="M358.36,48.4c3.14,2.35,5.89,5.1,7.78,9.35" style="fill:none;stroke:#999;stroke-width:3"></path>

<path d="M447.67,37.22c0.35,0.24,2.39,0.41,3.31,0.31c3.94-0.41,15.62-1.71,21.95-2.91c0.92-0.17,2.15-0.24,2.73,0" style="fill:none;stroke:#999;stroke-width:3"></path>
<path d="M462.75,15c0.91,0.47,2.04,1.75,2.04,3.92c0,0.95-0.12,70.75-0.3,76.58" style="fill:none;stroke:#999;stroke-width:3"></path>
<path d="M464.33,38.28c-5.1,15.04-7.94,21.4-15.83,34.56" style="fill:none;stroke:#999;stroke-width:3"></path>
<path d="M467.36,48.4c3.14,2.35,5.89,5.1,7.78,9.35" style="fill:none;stroke:#999;stroke-width:3"></path>
<path d="M483.5,29.45c0.77,0.33,2.19,0.45,2.96,0.33c9.79-1.53,14.79-1.53,23.21-2.75c1.28-0.19,2.06,0.16,2.71,0.32" style="fill:none;stroke:#999;stroke-width:3"></path>

<path d="M556.6700000000001,37.22c0.35,0.24,2.39,0.41,3.31,0.31c3.94-0.41,15.62-1.71,21.95-2.91c0.92-0.17,2.15-0.24,2.73,0" style="fill:none;stroke:#999;stroke-width:3"></path>
<path d="M571.75,15c0.91,0.47,2.04,1.75,2.04,3.92c0,0.95-0.12,70.75-0.3,76.58" style="fill:none;stroke:#999;stroke-width:3"></path>
<path d="M573.3299999999999,38.28c-5.1,15.04-7.94,21.4-15.83,34.56" style="fill:none;stroke:#999;stroke-width:3"></path>
<path d="M576.36,48.4c3.14,2.35,5.89,5.1,7.78,9.35" style="fill:none;stroke:#999;stroke-width:3"></path>
<path d="M592.5,29.45c0.77,0.33,2.19,0.45,2.96,0.33c9.79-1.53,14.79-1.53,23.21-2.75c1.28-0.19,2.06,0.16,2.71,0.32" style="fill:none;stroke:#999;stroke-width:3"></path>
<path d="M605.42,13.37c0.12,0.29,1.65,1.53,1.77,3.39c0.57,8.93,0.31,22.2,0.31,25.25" style="fill:none;stroke:#999;stroke-width:3"></path>

<path d="M665.6700000000001,37.22c0.35,0.24,2.39,0.41,3.31,0.31c3.94-0.41,15.62-1.71,21.95-2.91c0.92-0.17,2.15-0.24,2.73,0" style="fill:none;stroke:#999;stroke-width:3"></path>
<path d="M680.75,15c0.91,0.47,2.04,1.75,2.04,3.92c0,0.95-0.12,70.75-0.3,76.58" style="fill:none;stroke:#999;stroke-width:3"></path>
<path d="M682.3299999999999,38.28c-5.1,15.04-7.94,21.4-15.83,34.56" style="fill:none;stroke:#999;stroke-width:3"></path>
<path d="M685.36,48.4c3.14,2.35,5.89,5.1,7.78,9.35" style="fill:none;stroke:#999;stroke-width:3"></path>
<path d="M701.5,29.45c0.77,0.33,2.19,0.45,2.96,0.33c9.79-1.53,14.79-1.53,23.21-2.75c1.28-0.19,2.06,0.16,2.71,0.32" style="fill:none;stroke:#999;stroke-width:3"></path>
<path d="M714.42,13.37c0.12,0.29,1.65,1.53,1.77,3.39c0.57,8.93,0.31,22.2,0.31,25.25" style="fill:none;stroke:#999;stroke-width:3"></path>
<path d="M693.25,45.78c1.5,0.72,4.32,0.82,5.33,0.69C712.5,44.75,728.0,42.5,744.38,41.79c1.67-0.07,3.67,0.33,4.5,0.68" style="fill:none;stroke:#999;stroke-width:3"></path>

<path d="M774.6700000000001,37.22c0.35,0.24,2.39,0.41,3.31,0.31c3.94-0.41,15.62-1.71,21.95-2.91c0.92-0.17,2.15-0.24,2.73,0" style="fill:none;stroke:#999;stroke-width:3"></path>
<path d="M789.75,15c0.91,0.47,2.04,1.75,2.04,3.92c0,0.95-0.12,70.75-0.3,76.58" style="fill:none;stroke:#999;stroke-width:3"></path>
<path d="M791.3299999999999,38.28c-5.1,15.04-7.94,21.4-15.83,34.56" style="fill:none;stroke:#999;stroke-width:3"></path>
<path d="M794.36,48.4c3.14,2.35,5.89,5.1,7.78,9.35" style="fill:none;stroke:#999;stroke-width:3"></path>
<path d="M810.5,29.45c0.77,0.33,2.19,0.45,2.96,0.33c9.79-1.53,14.79-1.53,23.21-2.75c1.28-0.19,2.06,0.16,2.71,0.32" style="fill:none;stroke:#999;stroke-width:3"></path>
<path d="M823.42,13.37c0.12,0.29,1.65,1.53,1.77,3.39c0.57,8.93,0.31,22.2,0.31,25.25" style="fill:none;stroke:#999;stroke-width:3"></path>
<path d="M802.25,45.78c1.5,0.72,4.32,0.82,5.33,0.69C821.5,44.75,837.0,42.5,853.38,41.79c1.67-0.07,3.67,0.33,4.5,0.68" style="fill:none;stroke:#999;stroke-width:3"></path>
<path d="M848.13,18.48c0.13,1.27,0.32,3.1-0.62,4.6C835.34,42.34,824.82,54.65,802.06,71.97" style="fill:none;stroke:#999;stroke-width:3"></path>

<path d="M883.6700000000001,37.22c0.35,0.24,2.39,0.41,3.31,0.31c3.94-0.41,15.62-1.71,21.95-2.91c0.92-0.17,2.15-0.24,2.73,0" style="fill:none;stroke:#999;stroke-width:3"></path>
<path d="M898.75,15c0.91,0.47,2.04,1.75,2.04,3.92c0,0.95-0.12,70.75-0.3,76.58" style="fill:none;stroke:#999;stroke-width:3"></path>
<path d="M900.3299999999999,38.28c-5.1,15.04-7.94,21.4-15.83,34.56" style="fill:none;stroke:#999;stroke-width:3"></path>
<path d="M903.36,48.4c3.14,2.35,5.89,5.1,7.78,9.35" style="fill:none;stroke:#999;stroke-width:3"></path>
<path d="M919.5,29.45c0.77,0.33,2.19,0.45,2.96,0.33c9.79-1.53,14.79-1.53,23.21-2.75c1.28-0.19,2.06,0.16,2.71,0.32" style="fill:none;stroke:#999;stroke-width:3"></path>
<path d="M932.42,13.37c0.12,0.29,1.65,1.53,1.77,3.39c0.57,8.93,0.31,22.2,0.31,25.25" style="fill:none;stroke:#999;stroke-width:3"></path>
<path d="M911.25,45.78c1.5,0.72,4.32,0.82,5.33,0.69C930.5,44.75,946.0,42.5,962.38,41.79c1.67-0.07,3.67,0.33,4.5,0.68" style="fill:none;stroke:#999;stroke-width:3"></path>
<path d="M957.13,18.48c0.13,1.27,0.32,3.1-0.62,4.6C944.34,42.34,933.82,54.65,911.06,71.97" style="fill:none;stroke:#999;stroke-width:3"></path>
<path d="M952.51,49.5c0.05,0.23,0.14,0.62-0.11,0.92c-2.82,3.4-10.03,7.17-20.15,9.33" style="fill:none;stroke:#999;stroke-width:3"></path>

<path d="M992.6700000000001,37.22c0.35,0.24,2.39,0.41,3.31,0.31c3.94-0.41,15.62-1.71,21.95-2.91c0.92-0.17,2.15-0.24,2.73,0" style="fill:none;stroke:#999;stroke-width:3"></path>
<path d="M1007.75,15c0.91,0.47,2.04,1.75,2.04,3.92c0,0.95-0.12,70.75-0.3,76.58" style="fill:none;stroke:#999;stroke-width:3"></path>
<path d="M1009.3299999999999,38.28c-5.1,15.04-7.94,21.4-15.83,34.56" style="fill:none;stroke:#999;stroke-width:3"></path>
<path d="M1012.36,48.4c3.14,2.35,5.89,5.1,7.78,9.35" style="fill:none;stroke:#999;stroke-width:3"></path>
<path d="M1028.5,29.45c0.77,0.33,2.19,0.45,2.96,0.33c9.79-1.53,14.79-1.53,23.21-2.75c1.28-0.19,2.06,0.16,2.71,0.32" style="fill:none;stroke:#999;stroke-width:3"></path>
<path d="M1041.42,13.37c0.12,0.29,1.65,1.53,1.77,3.39c0.57,8.93,0.31,22.2,0.31,25.25" style="fill:none;stroke:#999;stroke-width:3"></path>
<path d="M1020.25,45.78c1.5,0.72,4.32,0.82,5.33,0.69C1039.5,44.75,1055.0,42.5,1071.38,41.79c1.67-0.07,3.67,0.33,4.5,0.68" style="fill:none;stroke:#999;stroke-width:3"></path>
<path d="M1066.13,18.48c0.13,1.27,0.32,3.1-0.62,4.6C1053.3400000000001,42.34,1042.8200000000002,54.65,1020.06,71.97" style="fill:none;stroke:#999;stroke-width:3"></path>
<path d="M1061.51,49.5c0.05,0.23,0.14,0.62-0.11,0.92c-2.82,3.4-10.03,7.17-20.15,9.33" style="fill:none;stroke:#999;stroke-width:3"></path>
<path d="M1038.0,52c1,1,2,3.5,2.02,4.58c0.09,4.42-0.27,6.67-0.76,9.95c-0.57,3.85,0.62,4.06,3.14,3.25c7.1-2.27,15.24-3.56,19.51-4.24c3.34-0.53,4.28,1.95,3.43,4.6C1062.5,79,1060.0,86,1055.02,93.52c-2.83,4.28-6.31-1.12-7.54-2.57" style="fill:none;stroke:#999;stroke-width:3"></path>

</svg>