<svg width="1090px" height="109px" viewBox="0 0 1090 109" xmlns="http://www.w3.org/2000/svg" xmlns:xlink="http://www.w3.org/1999/xlink" xml:space="preserve" version="1.1" baseProfile="full">
<line x1="1" y1="1" x2="1089" y2="1" style="stroke:#ddd;stroke-width:2"></line>
<line x1="1" y1="1" x2="1" y2="108" style="stroke:#ddd;stroke-width:2"></line>
<line x1="1" y1="108" x2="1089" y2="108" style="stroke:#ddd;stroke-width:2"></line>
<line x1="1089" y1="1" x2="1089" y2="108" style="stroke:#ddd;stroke-width:2"></line>
<line x1="109" y1="1" x2="109" y2="108" style="stroke:#ddd;stroke-width:2"></line>
<line x1="218" y1="1" x2="218" y2="108" style="stroke:#ddd;stroke-width:2"></line>
<line x1="327" y1="1" x2="327" y2="108" style="stroke:#ddd;stroke-width:2"></line>
<line x1="436" y1="1" x2="436" y2="108" style="stroke:#ddd;stroke-width:2"></line>
<line x1="545" y1="1" x2="545" y2="108" style="stroke:#ddd;stroke-width:2"></line>
<line x1="654" y1="1" x2="654" y2="108" style="stroke:#ddd;stroke-width:2"></line>
<line x1="763" y1="1" x2="763" y2="108" style="stroke:#ddd;stroke-width:2"></line>
<line x1="872" y1="1" x2="872" y2="108" style="stroke:#ddd;stroke-width:2"></line>
<line x1="981" y1="1" x2="981" y2="108" style="stroke:#ddd;stroke-width:2"></line>
<line x1="1" y1="54" x2="1089" y2="54" style="stroke:#ddd;stroke-width:2;stroke-dasharray:3 3"></line>
<line x1="55" y1="1" x2="55" y2="108" style="stroke:#ddd;stroke-width:2;stroke-dasharray:3 3"></line>
<line x1="164" y1="1" x2="164" y2="108" style="stroke:#ddd;stroke-width:2;stroke-dasharray:3 3"></line>
<line x1="273" y1="1" x2="273" y2="108" style="stroke:#ddd;stroke-width:2;stroke-dasharray:3 3"></line>
<line x1="382" y1="1" x2="382" y2="108" style="stroke:#ddd;stroke-width:2;stroke-dasharray:3 3"></line>
<line x1="491" y1="1" x2="491" y2="108" style="stroke:#ddd;stroke-width:2;stroke-dasharray:3 3"></line>
<line x1="600" y1="1" x2="600" y2="108" style="stroke:#ddd;stroke-width:2;stroke-dasharray:3 3"></line>
<line x1="709" y1="1" x2="709" y2="108" style="stroke:#ddd;stroke-width:2;stroke-dasharray:3 3"></line>
<line x1="818" y1="1" x2="818" y2="108" style="stroke:#ddd;stroke-width:2;stroke-dasharray:3 3"></line>
<line x1="927" y1="1" x2="927" y2="108" style="stroke:#ddd;stroke-width:2;stroke-dasharray:3 3"></line>
<line x1="1036" y1="1" x2="1036" y2="108" style="stroke:#ddd;stroke-width:2;stroke-dasharray:3 3"></line>
<path d="M13.78,38.22c1.72,0.53,4.39,0.45,5.71,0.32c5.47-0.56,16.68-2.15,22.05-3.17c0.92-0.17,2.15-0.24,2.73,0" style="fill:none;stroke:#999;stroke-width:3"></path>

<path d="M122.78,38.22c1.72,0.53,4.39,0.45,5.71,0.32c5.47-0.56,16.68-2.15,22.05-3.17c0.92-0.17,2.15-0.24,2.73,0" style="fill:none;stroke:#999;stroke-width:3"></path>
<path d="M140.36,14.25c1.44,1.44,2.04,2.62,2.04,4.67c0,3.08-0.01,49.69-0.04,69.2c-0.01,4.7-0.01,7.69-0.02,7.88" style="fill:none;stroke:#999;stroke-width:3"></path>

<path d="M231.78,38.22c1.72,0.53,4.39,0.45,5.71,0.32c5.47-0.56,16.68-2.15,22.05-3.17c0.92-0.17,2.15-0.24,2.73,0" style="fill:none;stroke:#999;stroke-width:3"></path>
<path d="M249.36,14.25c1.44,1.44,2.04,2.62,2.04,4.67c0,3.08-0.01,49.69-0.04,69.2c-0.01,4.7-0.01,7.69-0.02,7.88" style="fill:none;stroke:#999;stroke-width:3"></path>
<path d="M250.44,38.28c0,1.34-0.7,3.95-1.16,4.98C243.73,55.84,240.0,62.1,230.86,74.09" style="fill:none;stroke:#999;stroke-width:3"></path>

<path d="M340.78,38.22c1.72,0.53,4.39,0.45,5.71,0.32c5.47-0.56,16.68-2.15,22.05-3.17c0.92-0.17,2.15-0.24,2.73,0" style="fill:none;stroke:#999;stroke-width:3"></path>
<path d="M358.36,14.25c1.44,1.44,2.04,2.62,2.04,4.67c0,3.08-0.01,49.69-0.04,69.2c-0.01,4.7-0.01,7.69-0.02,7.88" style="fill:none;stroke:#999;stroke-width:3"></path>
<path d="M359.44,38.28c0,1.34-0.7,3.95-1.16,4.98C352.73,55.84,349.0,62.1,339.86,74.09" style="fill:none;stroke:#999;stroke-width:3"></path>
<path d="M363.25,48.38c2.24,1.45,6.86,7.06,8.75,9.88" style="fill:none;stroke:#999;stroke-width:3"></path>

<path d="M449.78,38.22c1.72,0.53,4.39,0.45,5.71,0.32c5.47-0.56,16.68-2.15,22.05-3.17c0.92-0.17,2.15-0.24,2.73,0" style="fill:none;stroke:#999;stroke-width:3"></path>
<path d="M467.36,14.25c1.44,1.44,2.04,2.62,2.04,4.67c0,3.08-0.01,49.69-0.04,69.2c-0.01,4.7-0.01,7.69-0.02,7.88" style="fill:none;stroke:#999;stroke-width:3"></path>
<path d="M468.44,38.28c0,1.34-0.7,3.95-1.16,4.98C461.73,55.84,458.0,62.1,448.86,74.09" style="fill:none;stroke:#999;stroke-width:3"></path>
<path d="M472.25,48.38c2.24,1.45,6.86,7.06,8.75,9.88" style="fill:none;stroke:#999;stroke-width:3"></path>
<path d="M504.76,12.24c1,1,1.6,2.13,1.6,3.98c0,4.28-0.11,8.03-0.11,11.9" style="fill:none;stroke:#999;stroke-width:3"></path>

<path d="M558.78,38.22c1.72,0.53,4.39,0.45,5.71,0.32c5.47-0.56,16.68-2.15,22.05-3.17c0.92-0.17,2.15-0.24,2.73,0" style="fill:none;stroke:#999;stroke-width:3"></path>
<path d="M576.36,14.25c1.44,1.44,2.04,2.62,2.04,4.67c0,3.08-0.01,49.69-0.04,69.2c-0.01,4.7-0.01,7.69-0.02,7.88" style="fill:none;stroke:#999;stroke-width:3"></path>
<path d="M577.44,38.28c0,1.34-0.7,3.95-1.16,4.98C570.73,55.84,567.0,62.1,557.86,74.09" style="fill:none;stroke:#999;stroke-width:3"></path>
<path d="M581.25,48.38c2.24,1.45,6.86,7.06,8.75,9.88" style="fill:none;stroke:#999;stroke-width:3"></path>
<path d="M613.76,12.24c1,1,1.6,2.13,1.6,3.98c0,4.28-0.11,8.03-0.11,11.9" style="fill:none;stroke:#999;stroke-width:3"></path>
<path d="M592.5,30.81c2.44,0.18,4.78,0.25,7.24,0c8.81-0.87,26.5-2.54,36.26-3.17c2-0.13,4.07-0.43,6,0.29" style="fill:none;stroke:#999;stroke-width:3"></path>

<path d="M667.78,38.22c1.72,0.53,4.39,0.45,5.71,0.32c5.47-0.56,16.68-2.15,22.05-3.17c0.92-0.17,2.15-0.24,2.73,0" style="fill:none;stroke:#999;stroke-width:3"></path>
<path d="M685.36,14.25c1.44,1.44,2.04,2.62,2.04,4.67c0,3.08-0.01,49.69-0.04,69.2c-0.01,4.7-0.01,7.69-0.02,7.88" style="fill:none;stroke:#999;stroke-width:3"></path>
<path d="M686.44,38.28c0,1.34-0.7,3.95-1.16,4.98C679.73,55.84,676.0,62.1,666.86,74.09" style="fill:none;stroke:#999;stroke-width:3"></path>
<path d="M690.25,48.38c2.24,1.45,6.86,7.06,8.75,9.88" style="fill:none;stroke:#999;stroke-width:3"></path>
<path d="M722.76,12.24c1,1,1.6,2.13,1.6,3.98c0,4.28-0.11,8.03-0.11,11.9" style="fill:none;stroke:#999;stroke-width:3"></path>
<path d="M701.5,30.81c2.44,0.18,4.78,0.25,7.24,0c8.81-0.87,26.5-2.54,36.26-3.17c2-0.13,4.07-0.43,6,0.29" style="fill:none;stroke:#999;stroke-width:3"></path>
<path d="M721.98,32.37c0.48,1.23,0.23,2.61-0.74,3.97c-3.48,4.91-5.23,6.91-11.3,13.44c-1.23,1.33-0.85,2.52,0.5,3.07c4.83,1.93,6.6,3.02,10.93,5.27" style="fill:none;stroke:#999;stroke-width:3"></path>

<path d="M776.78,38.22c1.72,0.53,4.39,0.45,5.71,0.32c5.47-0.56,16.68-2.15,22.05-3.17c0.92-0.17,2.15-0.24,2.73,0" style="fill:none;stroke:#999;stroke-width:3"></path>
<path d="M794.36,14.25c1.44,1.44,2.04,2.62,2.04,4.67c0,3.08-0.01,49.69-0.04,69.2c-0.01,4.7-0.01,7.69-0.02,7.88" style="fill:none;stroke:#999;stroke-width:3"></path>
<path d="M795.44,38.28c0,1.34-0.7,3.95-1.16,4.98C788.73,55.84,785.0,62.1,775.86,74.09" style="fill:none;stroke:#999;stroke-width:3"></path>
<path d="M799.25,48.38c2.24,1.45,6.86,7.06,8.75,9.88" style="fill:none;stroke:#999;stroke-width:3"></path>
<path d="M831.76,12.24c1,1,1.6,2.13,1.6,3.98c0,4.28-0.11,8.03-0.11,11.9" style="fill:none;stroke:#999;stroke-width:3"></path>
<path d="M810.5,30.81c2.44,0.18,4.78,0.25,7.24,0c8.81-0.87,26.5-2.54,36.26-3.17c2-0.13,4.07-0.43,6,0.29" style="fill:none;stroke:#999;stroke-width:3"></path>
<path d="M830.98,32.37c0.48,1.23,0.23,2.61-0.74,3.97c-3.48,4.91-5.23,6.91-11.3,13.44c-1.23,1.33-0.85,2.52,0.5,3.07c4.83,1.93,6.6,3.02,10.93,5.27" style="fill:none;stroke:#999;stroke-width:3"></path>
<path d="M845.52,40.5c0.09,0.81-0.04,1.94-0.68,2.76C836.38,54.25,827.31,64.04,811.0,74.25" style="fill:none;stroke:#999;stroke-width:3"></path>

<path d="M885.78,38.22c1.72,0.53,4.39,0.45,5.71,0.32c5.47-0.56,16.68-2.15,22.05-3.17c0.92-0.17,2.15-0.24,2.73,0" style="fill:none;stroke:#999;stroke-width:3"></path>
<path d="M903.36,14.25c1.44,1.44,2.04,2.62,2.04,4.67c0,3.08-0.01,49.69-0.04,69.2c-0.01,4.7-0.01,7.69-0.02,7.88" style="fill:none;stroke:#999;stroke-width:3"></path>
<path d="M904.44,38.28c0,1.34-0.7,3.95-1.16,4.98C897.73,55.84,894.0,62.1,884.86,74.09" style="fill:none;stroke:#999;stroke-width:3"></path>
<path d="M908.25,48.38c2.24,1.45,6.86,7.06,8.75,9.88" style="fill:none;stroke:#999;stroke-width:3"></path>
<path d="M940.76,12.24c1,1,1.6,2.13,1.6,3.98c0,4.28-0.11,8.03-0.11,11.9" style="fill:none;stroke:#999;stroke-width:3"></path>
<path d="M919.5,30.81c2.44,0.18,4.78,0.25,7.24,0c8.81-0.87,26.5-2.54,36.26-3.17c2-0.13,4.07-0.43,6,0.29" style="fill:none;stroke:#999;stroke-width:3"></path>
<path d="M939.98,32.37c0.48,1.23,0.23,2.61-0.74,3.97c-3.48,4.91-5.23,6.91-11.3,13.44c-1.23,1.33-0.85,2.52,0.5,3.07c4.83,1.93,6.6,3.02,10.93,5.27" style="fill:none;stroke:#999;stroke-width:3"></path>
<path d="M954.52,40.5c0.09,0.81-0.04,1.94-0.68,2.76C945.38,54.25,936.31,64.04,920.0,74.25" style="fill:none;stroke:#999;stroke-width:3"></path>
<path d="M959.24,59.5c0.1,0.88-0.46,2.14-1.21,3.02C949.75,72.38,936.5,84.75,917.5,96" style="fill:none;stroke:#999;stroke-width:3"></path>

<path d="M994.78,38.22c1.72,0.53,4.39,0.45,5.71,0.32c5.47-0.56,16.68-2.15,22.05-3.17c0.92-0.17,2.15-0.24,2.73,0" style="fill:none;stroke:#999;stroke-width:3"></path>
<path d="M1012.36,14.25c1.44,1.44,2.04,2.62,2.04,4.67c0,3.08-0.01,49.69-0.04,69.2c-0.01,4.7-0.01,7.69-0.02,7.88" style="fill:none;stroke:#999;stroke-width:3"></path>
<path d="M1013.44,38.28c0,1.34-0.7,3.95-1.16,4.98C1006.73,55.84,1003.0,62.1,993.86,74.09" style="fill:none;stroke:#999;stroke-width:3"></path>
<path d="M1017.25,48.38c2.24,1.45,6.86,7.06,8.75,9.88" style="fill:none;stroke:#999;stroke-width:3"></path>
<path d="M1049.76,12.24c1,1,1.6,2.13,1.6,3.98c0,4.28-0.11,8.03-0.11,11.9" style="fill:none;stroke:#999;stroke-width:3"></path>
<path d="M1028.5,30.81c2.44,0.18,4.78,0.25,7.24,0c8.81-0.87,26.5-2.54,36.26-3.17c2-0.13,4.07-0.43,6,0.29" style="fill:none;stroke:#999;stroke-width:3"></path>
<path d="M1048.98,32.37c0.48,1.23,0.23,2.61-0.74,3.97c-3.48,4.91-5.23,6.91-11.3,13.44c-1.23,1.33-0.85,2.52,0.5,3.07c4.83,1.93,6.6,3.02,10.93,5.27" style="fill:none;stroke:#999;stroke-width:3"></path>
<path d="M1063.52,40.5c0.09,0.81-0.04,1.94-0.68,2.76C1054.38,54.25,1045.31,64.04,1029.0,74.25" style="fill:none;stroke:#999;stroke-width:3"></path>
<path d="M1068.24,59.5c0.1,0.88-0.46,2.14-1.21,3.02C1058.75,72.38,1045.5,84.75,1026.5,96" style="fill:none;stroke:#999;stroke-width:3"></path>
<path d="M1058.25,77.12c6.53,3.33,16.87,13.69,18.5,18.88" style="fill:none;stroke:#999;stroke-width:3"></path>

</svg>