<svg width="1090px" height="109px" viewBox="0 0 1090 109" xmlns="http://www.w3.org/2000/svg" xmlns:xlink="http://www.w3.org/1999/xlink" xml:space="preserve" version="1.1" baseProfile="full">
<line x1="1" y1="1" x2="1089" y2="1" style="stroke:#ddd;stroke-width:2"></line>
<line x1="1" y1="1" x2="1" y2="108" style="stroke:#ddd;stroke-width:2"></line>
<line x1="1" y1="108" x2="1089" y2="108" style="stroke:#ddd;stroke-width:2"></line>
<line x1="1089" y1="1" x2="1089" y2="108" style="stroke:#ddd;stroke-width:2"></line>
<line x1="109" y1="1" x2="109" y2="108" style="stroke:#ddd;stroke-width:2"></line>
<line x1="218" y1="1" x2="218" y2="108" style="stroke:#ddd;stroke-width:2"></line>
<line x1="327" y1="1" x2="327" y2="108" style="stroke:#ddd;stroke-width:2"></line>
<line x1="436" y1="1" x2="436" y2="108" style="stroke:#ddd;stroke-width:2"></line>
<line x1="545" y1="1" x2="545" y2="108" style="stroke:#ddd;stroke-width:2"></line>
<line x1="654" y1="1" x2="654" y2="108" style="stroke:#ddd;stroke-width:2"></line>
<line x1="763" y1="1" x2="763" y2="108" style="stroke:#ddd;stroke-width:2"></line>
<line x1="872" y1="1" x2="872" y2="108" style="stroke:#ddd;stroke-width:2"></line>
<line x1="981" y1="1" x2="981" y2="108" style="stroke:#ddd;stroke-width:2"></line>
<line x1="1" y1="54" x2="1089" y2="54" style="stroke:#ddd;stroke-width:2;stroke-dasharray:3 3"></line>
<line x1="55" y1="1" x2="55" y2="108" style="stroke:#ddd;stroke-width:2;stroke-dasharray:3 3"></line>
<line x1="164" y1="1" x2="164" y2="108" style="stroke:#ddd;stroke-width:2;stroke-dasharray:3 3"></line>
<line x1="273" y1="1" x2="273" y2="108" style="stroke:#ddd;stroke-width:2;stroke-dasharray:3 3"></line>
<line x1="382" y1="1" x2="382" y2="108" style="stroke:#ddd;stroke-width:2;stroke-dasharray:3 3"></line>
<line x1="491" y1="1" x2="491" y2="108" style="stroke:#ddd;stroke-width:2;stroke-dasharray:3 3"></line>
<line x1="600" y1="1" x2="600" y2="108" style="stroke:#ddd;stroke-width:2;stroke-dasharray:3 3"></line>
<line x1="709" y1="1" x2="709" y2="108" style="stroke:#ddd;stroke-width:2;stroke-dasharray:3 3"></line>
<line x1="818" y1="1" x2="818" y2="108" style="stroke:#ddd;stroke-width:2;stroke-dasharray:3 3"></line>
<line x1="927" y1="1" x2="927" y2="108" style="stroke:#ddd;stroke-width:2;stroke-dasharray:3 3"></line>
<line x1="1036" y1="1" x2="1036" y2="108" style="stroke:#ddd;stroke-width:2;stroke-dasharray:3 3"></line>
<path d="M54.53,9.95c1.07,1.07,1.61,2.17,1.61,3.36c0,2.44-0.07,3.58-0.07,5.79" style="fill:none;stroke:#999;stroke-width:3"></path>

<path d="M163.53,9.95c1.07,1.07,1.61,2.17,1.61,3.36c0,2.44-0.07,3.58-0.07,5.79" style="fill:none;stroke:#999;stroke-width:3"></path>
<path d="M134.38,21.75c0,3.05-2.26,11.63-3.29,13.75" style="fill:none;stroke:#999;stroke-width:3"></path>

<path d="M272.53,9.95c1.07,1.07,1.61,2.17,1.61,3.36c0,2.44-0.07,3.58-0.07,5.79" style="fill:none;stroke:#999;stroke-width:3"></path>
<path d="M243.38,21.75c0,3.05-2.26,11.63-3.29,13.75" style="fill:none;stroke:#999;stroke-width:3"></path>
<path d="M244.47,23.54c13.97-1.85,50.2-5.16,56.57-5.46c9.53-0.44,3.21,4.66-1.51,7.48" style="fill:none;stroke:#999;stroke-width:3"></path>

<path d="M381.53,9.95c1.07,1.07,1.61,2.17,1.61,3.36c0,2.44-0.07,3.58-0.07,5.79" style="fill:none;stroke:#999;stroke-width:3"></path>
<path d="M352.38,21.75c0,3.05-2.26,11.63-3.29,13.75" style="fill:none;stroke:#999;stroke-width:3"></path>
<path d="M353.47,23.54c13.97-1.85,50.2-5.16,56.57-5.46c9.53-0.44,3.21,4.66-1.51,7.48" style="fill:none;stroke:#999;stroke-width:3"></path>
<path d="M377.4,27.69c0.35,0.68,0.28,1.97-0.24,2.98c-2.04,3.95-5.04,9.57-11.61,16.36c-1.36,1.4-0.74,2.41,0.26,2.35c8.41-0.53,21.28,1.68,31.22,5.29c4.32,1.57,8.09,3.4,10.7,5.39" style="fill:none;stroke:#999;stroke-width:3"></path>

<path d="M490.53,9.95c1.07,1.07,1.61,2.17,1.61,3.36c0,2.44-0.07,3.58-0.07,5.79" style="fill:none;stroke:#999;stroke-width:3"></path>
<path d="M461.38,21.75c0,3.05-2.26,11.63-3.29,13.75" style="fill:none;stroke:#999;stroke-width:3"></path>
<path d="M462.47,23.54c13.97-1.85,50.2-5.16,56.57-5.46c9.53-0.44,3.21,4.66-1.51,7.48" style="fill:none;stroke:#999;stroke-width:3"></path>
<path d="M486.4,27.69c0.35,0.68,0.28,1.97-0.24,2.98c-2.04,3.95-5.04,9.57-11.61,16.36c-1.36,1.4-0.74,2.41,0.26,2.35c8.41-0.53,21.28,1.68,31.22,5.29c4.32,1.57,8.09,3.4,10.7,5.39" style="fill:none;stroke:#999;stroke-width:3"></path>
<path d="M504.25,31.88c0.21,0.94,0.2,2.35-0.23,3.36c-3.52,8.18-13.38,21.51-38.94,26.96" style="fill:none;stroke:#999;stroke-width:3"></path>

<path d="M599.53,9.95c1.07,1.07,1.61,2.17,1.61,3.36c0,2.44-0.07,3.58-0.07,5.79" style="fill:none;stroke:#999;stroke-width:3"></path>
<path d="M570.38,21.75c0,3.05-2.26,11.63-3.29,13.75" style="fill:none;stroke:#999;stroke-width:3"></path>
<path d="M571.47,23.54c13.97-1.85,50.2-5.16,56.57-5.46c9.53-0.44,3.21,4.66-1.51,7.48" style="fill:none;stroke:#999;stroke-width:3"></path>
<path d="M595.4,27.69c0.35,0.68,0.28,1.97-0.24,2.98c-2.04,3.95-5.04,9.57-11.61,16.36c-1.36,1.4-0.74,2.41,0.26,2.35c8.41-0.53,21.28,1.68,31.22,5.29c4.32,1.57,8.09,3.4,10.7,5.39" style="fill:none;stroke:#999;stroke-width:3"></path>
<path d="M613.25,31.88c0.21,0.94,0.2,2.35-0.23,3.36c-3.52,8.18-13.38,21.51-38.94,26.96" style="fill:none;stroke:#999;stroke-width:3"></path>
<path d="M558.0,41.5c3.38,0.38,6.82,0.33,10.38-0.05c15.87-1.7,45.49-3.95,62.13-4.97c2.97-0.18,6.35-0.06,9.24,0.52" style="fill:none;stroke:#999;stroke-width:3"></path>

<path d="M708.53,9.95c1.07,1.07,1.61,2.17,1.61,3.36c0,2.44-0.07,3.58-0.07,5.79" style="fill:none;stroke:#999;stroke-width:3"></path>
<path d="M679.38,21.75c0,3.05-2.26,11.63-3.29,13.75" style="fill:none;stroke:#999;stroke-width:3"></path>
<path d="M680.47,23.54c13.97-1.85,50.2-5.16,56.57-5.46c9.53-0.44,3.21,4.66-1.51,7.48" style="fill:none;stroke:#999;stroke-width:3"></path>
<path d="M704.4,27.69c0.35,0.68,0.28,1.97-0.24,2.98c-2.04,3.95-5.04,9.57-11.61,16.36c-1.36,1.4-0.74,2.41,0.26,2.35c8.41-0.53,21.28,1.68,31.22,5.29c4.32,1.57,8.09,3.4,10.7,5.39" style="fill:none;stroke:#999;stroke-width:3"></path>
<path d="M722.25,31.88c0.21,0.94,0.2,2.35-0.23,3.36c-3.52,8.18-13.38,21.51-38.94,26.96" style="fill:none;stroke:#999;stroke-width:3"></path>
<path d="M667.0,41.5c3.38,0.38,6.82,0.33,10.38-0.05c15.87-1.7,45.49-3.95,62.13-4.97c2.97-0.18,6.35-0.06,9.24,0.52" style="fill:none;stroke:#999;stroke-width:3"></path>
<path d="M677.64,71.15c3.16,0.5,6.45,0.18,9.59-0.12c8.85-0.87,28.57-2.56,44.26-3.28c3.25-0.15,6.77-0.28,9.99,0.41" style="fill:none;stroke:#999;stroke-width:3"></path>

<path d="M817.53,9.95c1.07,1.07,1.61,2.17,1.61,3.36c0,2.44-0.07,3.58-0.07,5.79" style="fill:none;stroke:#999;stroke-width:3"></path>
<path d="M788.38,21.75c0,3.05-2.26,11.63-3.29,13.75" style="fill:none;stroke:#999;stroke-width:3"></path>
<path d="M789.47,23.54c13.97-1.85,50.2-5.16,56.57-5.46c9.53-0.44,3.21,4.66-1.51,7.48" style="fill:none;stroke:#999;stroke-width:3"></path>
<path d="M813.4,27.69c0.35,0.68,0.28,1.97-0.24,2.98c-2.04,3.95-5.04,9.57-11.61,16.36c-1.36,1.4-0.74,2.41,0.26,2.35c8.41-0.53,21.28,1.68,31.22,5.29c4.32,1.57,8.09,3.4,10.7,5.39" style="fill:none;stroke:#999;stroke-width:3"></path>
<path d="M831.25,31.88c0.21,0.94,0.2,2.35-0.23,3.36c-3.52,8.18-13.38,21.51-38.94,26.96" style="fill:none;stroke:#999;stroke-width:3"></path>
<path d="M776.0,41.5c3.38,0.38,6.82,0.33,10.38-0.05c15.87-1.7,45.49-3.95,62.13-4.97c2.97-0.18,6.35-0.06,9.24,0.52" style="fill:none;stroke:#999;stroke-width:3"></path>
<path d="M786.64,71.15c3.16,0.5,6.45,0.18,9.59-0.12c8.85-0.87,28.57-2.56,44.26-3.28c3.25-0.15,6.77-0.28,9.99,0.41" style="fill:none;stroke:#999;stroke-width:3"></path>
<path d="M816.09,60.75c0.89,0.89,1.35,2.49,1.35,3.5c0,2.12-0.1,18.5-0.14,28.38c-0.01,2.33-0.01,4.29-0.01,5.62" style="fill:none;stroke:#999;stroke-width:3"></path>

<path d="M926.53,9.95c1.07,1.07,1.61,2.17,1.61,3.36c0,2.44-0.07,3.58-0.07,5.79" style="fill:none;stroke:#999;stroke-width:3"></path>
<path d="M897.38,21.75c0,3.05-2.26,11.63-3.29,13.75" style="fill:none;stroke:#999;stroke-width:3"></path>
<path d="M898.47,23.54c13.97-1.85,50.2-5.16,56.57-5.46c9.53-0.44,3.21,4.66-1.51,7.48" style="fill:none;stroke:#999;stroke-width:3"></path>
<path d="M922.4,27.69c0.35,0.68,0.28,1.97-0.24,2.98c-2.04,3.95-5.04,9.57-11.61,16.36c-1.36,1.4-0.74,2.41,0.26,2.35c8.41-0.53,21.28,1.68,31.22,5.29c4.32,1.57,8.09,3.4,10.7,5.39" style="fill:none;stroke:#999;stroke-width:3"></path>
<path d="M940.25,31.88c0.21,0.94,0.2,2.35-0.23,3.36c-3.52,8.18-13.38,21.51-38.94,26.96" style="fill:none;stroke:#999;stroke-width:3"></path>
<path d="M885.0,41.5c3.38,0.38,6.82,0.33,10.38-0.05c15.87-1.7,45.49-3.95,62.13-4.97c2.97-0.18,6.35-0.06,9.24,0.52" style="fill:none;stroke:#999;stroke-width:3"></path>
<path d="M895.64,71.15c3.16,0.5,6.45,0.18,9.59-0.12c8.85-0.87,28.57-2.56,44.26-3.28c3.25-0.15,6.77-0.28,9.99,0.41" style="fill:none;stroke:#999;stroke-width:3"></path>
<path d="M925.09,60.75c0.89,0.89,1.35,2.49,1.35,3.5c0,2.12-0.1,18.5-0.14,28.38c-0.01,2.33-0.01,4.29-0.01,5.62" style="fill:none;stroke:#999;stroke-width:3"></path>
<path d="M924.25,70.25c0,0.62-0.4,1.84-1.19,2.89c-7.44,9.93-19.96,19.99-34.31,23.61" style="fill:none;stroke:#999;stroke-width:3"></path>

<path d="M1035.53,9.95c1.07,1.07,1.61,2.17,1.61,3.36c0,2.44-0.07,3.58-0.07,5.79" style="fill:none;stroke:#999;stroke-width:3"></path>
<path d="M1006.38,21.75c0,3.05-2.26,11.63-3.29,13.75" style="fill:none;stroke:#999;stroke-width:3"></path>
<path d="M1007.47,23.54c13.97-1.85,50.2-5.16,56.57-5.46c9.53-0.44,3.21,4.66-1.51,7.48" style="fill:none;stroke:#999;stroke-width:3"></path>
<path d="M1031.4,27.69c0.35,0.68,0.28,1.97-0.24,2.98c-2.04,3.95-5.04,9.57-11.61,16.36c-1.36,1.4-0.74,2.41,0.26,2.35c8.41-0.53,21.28,1.68,31.22,5.29c4.32,1.57,8.09,3.4,10.7,5.39" style="fill:none;stroke:#999;stroke-width:3"></path>
<path d="M1049.25,31.88c0.21,0.94,0.2,2.35-0.23,3.36c-3.52,8.18-13.38,21.51-38.94,26.96" style="fill:none;stroke:#999;stroke-width:3"></path>
<path d="M994.0,41.5c3.38,0.38,6.82,0.33,10.38-0.05c15.87-1.7,45.49-3.95,62.13-4.97c2.97-0.18,6.35-0.06,9.24,0.52" style="fill:none;stroke:#999;stroke-width:3"></path>
<path d="M1004.64,71.15c3.16,0.5,6.45,0.18,9.59-0.12c8.85-0.87,28.57-2.56,44.26-3.28c3.25-0.15,6.77-0.28,9.99,0.41" style="fill:none;stroke:#999;stroke-width:3"></path>
<path d="M1034.0900000000001,60.75c0.89,0.89,1.35,2.49,1.35,3.5c0,2.12-0.1,18.5-0.14,28.38c-0.01,2.33-0.01,4.29-0.01,5.62" style="fill:none;stroke:#999;stroke-width:3"></path>
<path d="M1033.25,70.25c0,0.62-0.4,1.84-1.19,2.89c-7.44,9.93-19.96,19.99-34.31,23.61" style="fill:none;stroke:#999;stroke-width:3"></path>
<path d="M1035.75,70.75c4.36,2.71,21.13,13.94,29.7,19.33c2.96,1.86,5.05,3.05,8.55,4.17" style="fill:none;stroke:#999;stroke-width:3"></path>

</svg>