<svg width="1199px" height="109px" viewBox="0 0 1199 109" xmlns="http://www.w3.org/2000/svg" xmlns:xlink="http://www.w3.org/1999/xlink" xml:space="preserve" version="1.1" baseProfile="full">
<line x1="1" y1="1" x2="1198" y2="1" style="stroke:#ddd;stroke-width:2"></line>
<line x1="1" y1="1" x2="1" y2="108" style="stroke:#ddd;stroke-width:2"></line>
<line x1="1" y1="108" x2="1198" y2="108" style="stroke:#ddd;stroke-width:2"></line>
<line x1="1198" y1="1" x2="1198" y2="108" style="stroke:#ddd;stroke-width:2"></line>
<line x1="109" y1="1" x2="109" y2="108" style="stroke:#ddd;stroke-width:2"></line>
<line x1="218" y1="1" x2="218" y2="108" style="stroke:#ddd;stroke-width:2"></line>
<line x1="327" y1="1" x2="327" y2="108" style="stroke:#ddd;stroke-width:2"></line>
<line x1="436" y1="1" x2="436" y2="108" style="stroke:#ddd;stroke-width:2"></line>
<line x1="545" y1="1" x2="545" y2="108" style="stroke:#ddd;stroke-width:2"></line>
<line x1="654" y1="1" x2="654" y2="108" style="stroke:#ddd;stroke-width:2"></line>
<line x1="763" y1="1" x2="763" y2="108" style="stroke:#ddd;stroke-width:2"></line>
<line x1="872" y1="1" x2="872" y2="108" style="stroke:#ddd;stroke-width:2"></line>
<line x1="981" y1="1" x2="981" y2="108" style="stroke:#ddd;stroke-width:2"></line>
<line x1="1090" y1="1" x2="1090" y2="108" style="stroke:#ddd;stroke-width:2"></line>
<line x1="1" y1="54" x2="1198" y2="54" style="stroke:#ddd;stroke-width:2;stroke-dasharray:3 3"></line>
<line x1="55" y1="1" x2="55" y2="108" style="stroke:#ddd;stroke-width:2;stroke-dasharray:3 3"></line>
<line x1="164" y1="1" x2="164" y2="108" style="stroke:#ddd;stroke-width:2;stroke-dasharray:3 3"></line>
<line x1="273" y1="1" x2="273" y2="108" style="stroke:#ddd;stroke-width:2;stroke-dasharray:3 3"></line>
<line x1="382" y1="1" x2="382" y2="108" style="stroke:#ddd;stroke-width:2;stroke-dasharray:3 3"></line>
<line x1="491" y1="1" x2="491" y2="108" style="stroke:#ddd;stroke-width:2;stroke-dasharray:3 3"></line>
<line x1="600" y1="1" x2="600" y2="108" style="stroke:#ddd;stroke-width:2;stroke-dasharray:3 3"></line>
<line x1="709" y1="1" x2="709" y2="108" style="stroke:#ddd;stroke-width:2;stroke-dasharray:3 3"></line>
<line x1="818" y1="1" x2="818" y2="108" style="stroke:#ddd;stroke-width:2;stroke-dasharray:3 3"></line>
<line x1="927" y1="1" x2="927" y2="108" style="stroke:#ddd;stroke-width:2;stroke-dasharray:3 3"></line>
<line x1="1036" y1="1" x2="1036" y2="108" style="stroke:#ddd;stroke-width:2;stroke-dasharray:3 3"></line>
<line x1="1145" y1="1" x2="1145" y2="108" style="stroke:#ddd;stroke-width:2;stroke-dasharray:3 3"></line>
<path d="M20.66,24.1c0.7,0.17,2.82,0.15,4.69,0c6.56-0.52,15.33-1.88,22.36-2.22c1.87-0.09,2.28-0.02,3.45,0.16" style="fill:none;stroke:#999;stroke-width:3"></path>

<path d="M129.66,24.1c0.7,0.17,2.82,0.15,4.69,0c6.56-0.52,15.33-1.88,22.36-2.22c1.87-0.09,2.28-0.02,3.45,0.16" style="fill:none;stroke:#999;stroke-width:3"></path>
<path d="M146.07,11.88c0.68,0.62,1.61,2.01,1.61,2.74c0,8.14,0,31.64-0.23,35.95" style="fill:none;stroke:#999;stroke-width:3"></path>

<path d="M238.66,24.1c0.7,0.17,2.82,0.15,4.69,0c6.56-0.52,15.33-1.88,22.36-2.22c1.87-0.09,2.28-0.02,3.45,0.16" style="fill:none;stroke:#999;stroke-width:3"></path>
<path d="M255.07,11.88c0.68,0.62,1.61,2.01,1.61,2.74c0,8.14,0,31.64-0.23,35.95" style="fill:none;stroke:#999;stroke-width:3"></path>
<path d="M256.24,23.47c-3.43,6.81-13.63,18.24-20.75,22.09" style="fill:none;stroke:#999;stroke-width:3"></path>

<path d="M347.65999999999997,24.1c0.7,0.17,2.82,0.15,4.69,0c6.56-0.52,15.33-1.88,22.36-2.22c1.87-0.09,2.28-0.02,3.45,0.16" style="fill:none;stroke:#999;stroke-width:3"></path>
<path d="M364.07,11.88c0.68,0.62,1.61,2.01,1.61,2.74c0,8.14,0,31.64-0.23,35.95" style="fill:none;stroke:#999;stroke-width:3"></path>
<path d="M365.24,23.47c-3.43,6.81-13.63,18.24-20.75,22.09" style="fill:none;stroke:#999;stroke-width:3"></path>
<path d="M369.36,30.79c2.76,1.37,6.2,3.93,8.61,6.09" style="fill:none;stroke:#999;stroke-width:3"></path>

<path d="M456.65999999999997,24.1c0.7,0.17,2.82,0.15,4.69,0c6.56-0.52,15.33-1.88,22.36-2.22c1.87-0.09,2.28-0.02,3.45,0.16" style="fill:none;stroke:#999;stroke-width:3"></path>
<path d="M473.07,11.88c0.68,0.62,1.61,2.01,1.61,2.74c0,8.14,0,31.64-0.23,35.95" style="fill:none;stroke:#999;stroke-width:3"></path>
<path d="M474.24,23.47c-3.43,6.81-13.63,18.24-20.75,22.09" style="fill:none;stroke:#999;stroke-width:3"></path>
<path d="M478.36,30.79c2.76,1.37,6.2,3.93,8.61,6.09" style="fill:none;stroke:#999;stroke-width:3"></path>
<path d="M493.02,20.85c0.57,0.17,1.33,0.45,2.85,0.52c4.18,0.17,15.73-2.21,26.19-3.07c1.52-0.12,2.84-0.17,3.79,0" style="fill:none;stroke:#999;stroke-width:3"></path>

<path d="M565.66,24.1c0.7,0.17,2.82,0.15,4.69,0c6.56-0.52,15.33-1.88,22.36-2.22c1.87-0.09,2.28-0.02,3.45,0.16" style="fill:none;stroke:#999;stroke-width:3"></path>
<path d="M582.0699999999999,11.88c0.68,0.62,1.61,2.01,1.61,2.74c0,8.14,0,31.64-0.23,35.95" style="fill:none;stroke:#999;stroke-width:3"></path>
<path d="M583.24,23.47c-3.43,6.81-13.63,18.24-20.75,22.09" style="fill:none;stroke:#999;stroke-width:3"></path>
<path d="M587.36,30.79c2.76,1.37,6.2,3.93,8.61,6.09" style="fill:none;stroke:#999;stroke-width:3"></path>
<path d="M602.02,20.85c0.57,0.17,1.33,0.45,2.85,0.52c4.18,0.17,15.73-2.21,26.19-3.07c1.52-0.12,2.84-0.17,3.79,0" style="fill:none;stroke:#999;stroke-width:3"></path>
<path d="M616.06,10c1.17,0.34,2.11,2.51,2.11,3.24c0,5.51,0,31.71-0.23,36.01" style="fill:none;stroke:#999;stroke-width:3"></path>

<path d="M674.66,24.1c0.7,0.17,2.82,0.15,4.69,0c6.56-0.52,15.33-1.88,22.36-2.22c1.87-0.09,2.28-0.02,3.45,0.16" style="fill:none;stroke:#999;stroke-width:3"></path>
<path d="M691.0699999999999,11.88c0.68,0.62,1.61,2.01,1.61,2.74c0,8.14,0,31.64-0.23,35.95" style="fill:none;stroke:#999;stroke-width:3"></path>
<path d="M692.24,23.47c-3.43,6.81-13.63,18.24-20.75,22.09" style="fill:none;stroke:#999;stroke-width:3"></path>
<path d="M696.36,30.79c2.76,1.37,6.2,3.93,8.61,6.09" style="fill:none;stroke:#999;stroke-width:3"></path>
<path d="M711.02,20.85c0.57,0.17,1.33,0.45,2.85,0.52c4.18,0.17,15.73-2.21,26.19-3.07c1.52-0.12,2.84-0.17,3.79,0" style="fill:none;stroke:#999;stroke-width:3"></path>
<path d="M725.06,10c1.17,0.34,2.11,2.51,2.11,3.24c0,5.51,0,31.71-0.23,36.01" style="fill:none;stroke:#999;stroke-width:3"></path>
<path d="M725.99,21.9C723.1,29.13,714.1,39.19,707.4,42.89" style="fill:none;stroke:#999;stroke-width:3"></path>

<path d="M783.66,24.1c0.7,0.17,2.82,0.15,4.69,0c6.56-0.52,15.33-1.88,22.36-2.22c1.87-0.09,2.28-0.02,3.45,0.16" style="fill:none;stroke:#999;stroke-width:3"></path>
<path d="M800.0699999999999,11.88c0.68,0.62,1.61,2.01,1.61,2.74c0,8.14,0,31.64-0.23,35.95" style="fill:none;stroke:#999;stroke-width:3"></path>
<path d="M801.24,23.47c-3.43,6.81-13.63,18.24-20.75,22.09" style="fill:none;stroke:#999;stroke-width:3"></path>
<path d="M805.36,30.79c2.76,1.37,6.2,3.93,8.61,6.09" style="fill:none;stroke:#999;stroke-width:3"></path>
<path d="M820.02,20.85c0.57,0.17,1.33,0.45,2.85,0.52c4.18,0.17,15.73-2.21,26.19-3.07c1.52-0.12,2.84-0.17,3.79,0" style="fill:none;stroke:#999;stroke-width:3"></path>
<path d="M834.06,10c1.17,0.34,2.11,2.51,2.11,3.24c0,5.51,0,31.71-0.23,36.01" style="fill:none;stroke:#999;stroke-width:3"></path>
<path d="M834.99,21.9C832.1,29.13,823.1,39.19,816.4,42.89" style="fill:none;stroke:#999;stroke-width:3"></path>
<path d="M835.87,21.7c5.33,7.23,13.86,16.5,18.19,19.36c1.23,0.81,1.92,1.37,2.96,1.65" style="fill:none;stroke:#999;stroke-width:3"></path>

<path d="M892.66,24.1c0.7,0.17,2.82,0.15,4.69,0c6.56-0.52,15.33-1.88,22.36-2.22c1.87-0.09,2.28-0.02,3.45,0.16" style="fill:none;stroke:#999;stroke-width:3"></path>
<path d="M909.0699999999999,11.88c0.68,0.62,1.61,2.01,1.61,2.74c0,8.14,0,31.64-0.23,35.95" style="fill:none;stroke:#999;stroke-width:3"></path>
<path d="M910.24,23.47c-3.43,6.81-13.63,18.24-20.75,22.09" style="fill:none;stroke:#999;stroke-width:3"></path>
<path d="M914.36,30.79c2.76,1.37,6.2,3.93,8.61,6.09" style="fill:none;stroke:#999;stroke-width:3"></path>
<path d="M929.02,20.85c0.57,0.17,1.33,0.45,2.85,0.52c4.18,0.17,15.73-2.21,26.19-3.07c1.52-0.12,2.84-0.17,3.79,0" style="fill:none;stroke:#999;stroke-width:3"></path>
<path d="M943.06,10c1.17,0.34,2.11,2.51,2.11,3.24c0,5.51,0,31.71-0.23,36.01" style="fill:none;stroke:#999;stroke-width:3"></path>
<path d="M943.99,21.9C941.1,29.13,932.1,39.19,925.4,42.89" style="fill:none;stroke:#999;stroke-width:3"></path>
<path d="M944.87,21.7c5.33,7.23,13.86,16.5,18.19,19.36c1.23,0.81,1.92,1.37,2.96,1.65" style="fill:none;stroke:#999;stroke-width:3"></path>
<path d="M926.12,49.39c0.27,0.41,0.5,1.65,0.01,2.41c-3.53,5.51-11.7,14.99-25.16,21.36" style="fill:none;stroke:#999;stroke-width:3"></path>

<path d="M1001.66,24.1c0.7,0.17,2.82,0.15,4.69,0c6.56-0.52,15.33-1.88,22.36-2.22c1.87-0.09,2.28-0.02,3.45,0.16" style="fill:none;stroke:#999;stroke-width:3"></path>
<path d="M1018.0699999999999,11.88c0.68,0.62,1.61,2.01,1.61,2.74c0,8.14,0,31.64-0.23,35.95" style="fill:none;stroke:#999;stroke-width:3"></path>
<path d="M1019.24,23.47c-3.43,6.81-13.63,18.24-20.75,22.09" style="fill:none;stroke:#999;stroke-width:3"></path>
<path d="M1023.36,30.79c2.76,1.37,6.2,3.93,8.61,6.09" style="fill:none;stroke:#999;stroke-width:3"></path>
<path d="M1038.02,20.85c0.57,0.17,1.33,0.45,2.85,0.52c4.18,0.17,15.73-2.21,26.19-3.07c1.52-0.12,2.84-0.17,3.79,0" style="fill:none;stroke:#999;stroke-width:3"></path>
<path d="M1052.06,10c1.17,0.34,2.11,2.51,2.11,3.24c0,5.51,0,31.71-0.23,36.01" style="fill:none;stroke:#999;stroke-width:3"></path>
<path d="M1052.99,21.9C1050.1,29.13,1041.1,39.19,1034.4,42.89" style="fill:none;stroke:#999;stroke-width:3"></path>
<path d="M1053.87,21.7c5.33,7.23,13.86,16.5,18.19,19.36c1.23,0.81,1.92,1.37,2.96,1.65" style="fill:none;stroke:#999;stroke-width:3"></path>
<path d="M1035.12,49.39c0.27,0.41,0.5,1.65,0.01,2.41c-3.53,5.51-11.7,14.99-25.16,21.36" style="fill:none;stroke:#999;stroke-width:3"></path>
<path d="M1032.33,58.29c1.56,0.3,3.07,0.29,4.25,0.2c3.89-0.33,12.11-2.33,17.29-3.59c3.72-0.91,4.56,1.34,3.42,3.21C1048.18,73.04,1028.33,92.63,1000.75,101" style="fill:none;stroke:#999;stroke-width:3"></path>

<path d="M1110.6599999999999,24.1c0.7,0.17,2.82,0.15,4.69,0c6.56-0.52,15.33-1.88,22.36-2.22c1.87-0.09,2.28-0.02,3.45,0.16" style="fill:none;stroke:#999;stroke-width:3"></path>
<path d="M1127.07,11.88c0.68,0.62,1.61,2.01,1.61,2.74c0,8.14,0,31.64-0.23,35.95" style="fill:none;stroke:#999;stroke-width:3"></path>
<path d="M1128.24,23.47c-3.43,6.81-13.63,18.24-20.75,22.09" style="fill:none;stroke:#999;stroke-width:3"></path>
<path d="M1132.3600000000001,30.79c2.76,1.37,6.2,3.93,8.61,6.09" style="fill:none;stroke:#999;stroke-width:3"></path>
<path d="M1147.02,20.85c0.57,0.17,1.33,0.45,2.85,0.52c4.18,0.17,15.73-2.21,26.19-3.07c1.52-0.12,2.84-0.17,3.79,0" style="fill:none;stroke:#999;stroke-width:3"></path>
<path d="M1161.06,10c1.17,0.34,2.11,2.51,2.11,3.24c0,5.51,0,31.71-0.23,36.01" style="fill:none;stroke:#999;stroke-width:3"></path>
<path d="M1161.99,21.9C1159.1,29.13,1150.1,39.19,1143.4,42.89" style="fill:none;stroke:#999;stroke-width:3"></path>
<path d="M1162.87,21.7c5.33,7.23,13.86,16.5,18.19,19.36c1.23,0.81,1.92,1.37,2.96,1.65" style="fill:none;stroke:#999;stroke-width:3"></path>
<path d="M1144.12,49.39c0.27,0.41,0.5,1.65,0.01,2.41c-3.53,5.51-11.7,14.99-25.16,21.36" style="fill:none;stroke:#999;stroke-width:3"></path>
<path d="M1141.33,58.29c1.56,0.3,3.07,0.29,4.25,0.2c3.89-0.33,12.11-2.33,17.29-3.59c3.72-0.91,4.56,1.34,3.42,3.21C1157.18,73.04,1137.33,92.63,1109.75,101" style="fill:none;stroke:#999;stroke-width:3"></path>
<path d="M1130.84,69.05c4.12,1.94,10.63,7.98,11.66,11" style="fill:none;stroke:#999;stroke-width:3"></path>

</svg>