<svg width="1199px" height="109px" viewBox="0 0 1199 109" xmlns="http://www.w3.org/2000/svg" xmlns:xlink="http://www.w3.org/1999/xlink" xml:space="preserve" version="1.1" baseProfile="full">
<line x1="1" y1="1" x2="1198" y2="1" style="stroke:#ddd;stroke-width:2"></line>
<line x1="1" y1="1" x2="1" y2="108" style="stroke:#ddd;stroke-width:2"></line>
<line x1="1" y1="108" x2="1198" y2="108" style="stroke:#ddd;stroke-width:2"></line>
<line x1="1198" y1="1" x2="1198" y2="108" style="stroke:#ddd;stroke-width:2"></line>
<line x1="109" y1="1" x2="109" y2="108" style="stroke:#ddd;stroke-width:2"></line>
<line x1="218" y1="1" x2="218" y2="108" style="stroke:#ddd;stroke-width:2"></line>
<line x1="327" y1="1" x2="327" y2="108" style="stroke:#ddd;stroke-width:2"></line>
<line x1="436" y1="1" x2="436" y2="108" style="stroke:#ddd;stroke-width:2"></line>
<line x1="545" y1="1" x2="545" y2="108" style="stroke:#ddd;stroke-width:2"></line>
<line x1="654" y1="1" x2="654" y2="108" style="stroke:#ddd;stroke-width:2"></line>
<line x1="763" y1="1" x2="763" y2="108" style="stroke:#ddd;stroke-width:2"></line>
<line x1="872" y1="1" x2="872" y2="108" style="stroke:#ddd;stroke-width:2"></line>
<line x1="981" y1="1" x2="981" y2="108" style="stroke:#ddd;stroke-width:2"></line>
<line x1="1090" y1="1" x2="1090" y2="108" style="stroke:#ddd;stroke-width:2"></line>
<line x1="1" y1="54" x2="1198" y2="54" style="stroke:#ddd;stroke-width:2;stroke-dasharray:3 3"></line>
<line x1="55" y1="1" x2="55" y2="108" style="stroke:#ddd;stroke-width:2;stroke-dasharray:3 3"></line>
<line x1="164" y1="1" x2="164" y2="108" style="stroke:#ddd;stroke-width:2;stroke-dasharray:3 3"></line>
<line x1="273" y1="1" x2="273" y2="108" style="stroke:#ddd;stroke-width:2;stroke-dasharray:3 3"></line>
<line x1="382" y1="1" x2="382" y2="108" style="stroke:#ddd;stroke-width:2;stroke-dasharray:3 3"></line>
<line x1="491" y1="1" x2="491" y2="108" style="stroke:#ddd;stroke-width:2;stroke-dasharray:3 3"></line>
<line x1="600" y1="1" x2="600" y2="108" style="stroke:#ddd;stroke-width:2;stroke-dasharray:3 3"></line>
<line x1="709" y1="1" x2="709" y2="108" style="stroke:#ddd;stroke-width:2;stroke-dasharray:3 3"></line>
<line x1="818" y1="1" x2="818" y2="108" style="stroke:#ddd;stroke-width:2;stroke-dasharray:3 3"></line>
<line x1="927" y1="1" x2="927" y2="108" style="stroke:#ddd;stroke-width:2;stroke-dasharray:3 3"></line>
<line x1="1036" y1="1" x2="1036" y2="108" style="stroke:#ddd;stroke-width:2;stroke-dasharray:3 3"></line>
<line x1="1145" y1="1" x2="1145" y2="108" style="stroke:#ddd;stroke-width:2;stroke-dasharray:3 3"></line>
<path d="M11.78,37.95c0.36,0.16,2.52,0.27,3.49,0.21c4.16-0.27,17-2.15,23.68-2.96c0.97-0.12,1.21-0.16,1.82,0" style="fill:none;stroke:#999;stroke-width:3"></path>

<path d="M120.78,37.95c0.36,0.16,2.52,0.27,3.49,0.21c4.16-0.27,17-2.15,23.68-2.96c0.97-0.12,1.21-0.16,1.82,0" style="fill:none;stroke:#999;stroke-width:3"></path>
<path d="M136.36,14c0.91,0.47,2.04,1.75,2.04,4.42c0,0.95-0.12,72.75-0.3,78.58" style="fill:none;stroke:#999;stroke-width:3"></path>

<path d="M229.78,37.95c0.36,0.16,2.52,0.27,3.49,0.21c4.16-0.27,17-2.15,23.68-2.96c0.97-0.12,1.21-0.16,1.82,0" style="fill:none;stroke:#999;stroke-width:3"></path>
<path d="M245.36,14c0.91,0.47,2.04,1.75,2.04,4.42c0,0.95-0.12,72.75-0.3,78.58" style="fill:none;stroke:#999;stroke-width:3"></path>
<path d="M246.94,39.28c-5.18,14.49-8.06,20.62-16.08,33.31" style="fill:none;stroke:#999;stroke-width:3"></path>

<path d="M338.78,37.95c0.36,0.16,2.52,0.27,3.49,0.21c4.16-0.27,17-2.15,23.68-2.96c0.97-0.12,1.21-0.16,1.82,0" style="fill:none;stroke:#999;stroke-width:3"></path>
<path d="M354.36,14c0.91,0.47,2.04,1.75,2.04,4.42c0,0.95-0.12,72.75-0.3,78.58" style="fill:none;stroke:#999;stroke-width:3"></path>
<path d="M355.94,39.28c-5.18,14.49-8.06,20.62-16.08,33.31" style="fill:none;stroke:#999;stroke-width:3"></path>
<path d="M359.47,47.4c2.6,1.52,6.21,6.7,8.41,9.64" style="fill:none;stroke:#999;stroke-width:3"></path>

<path d="M447.78,37.95c0.36,0.16,2.52,0.27,3.49,0.21c4.16-0.27,17-2.15,23.68-2.96c0.97-0.12,1.21-0.16,1.82,0" style="fill:none;stroke:#999;stroke-width:3"></path>
<path d="M463.36,14c0.91,0.47,2.04,1.75,2.04,4.42c0,0.95-0.12,72.75-0.3,78.58" style="fill:none;stroke:#999;stroke-width:3"></path>
<path d="M464.94,39.28c-5.18,14.49-8.06,20.62-16.08,33.31" style="fill:none;stroke:#999;stroke-width:3"></path>
<path d="M468.47,47.4c2.6,1.52,6.21,6.7,8.41,9.64" style="fill:none;stroke:#999;stroke-width:3"></path>
<path d="M517.5699999999999,14c-0.57,1-1.14,2.07-1.65,2.44c-7.18,5.11-12.73,7.74-27.08,12.77" style="fill:none;stroke:#999;stroke-width:3"></path>

<path d="M556.78,37.95c0.36,0.16,2.52,0.27,3.49,0.21c4.16-0.27,17-2.15,23.68-2.96c0.97-0.12,1.21-0.16,1.82,0" style="fill:none;stroke:#999;stroke-width:3"></path>
<path d="M572.36,14c0.91,0.47,2.04,1.75,2.04,4.42c0,0.95-0.12,72.75-0.3,78.58" style="fill:none;stroke:#999;stroke-width:3"></path>
<path d="M573.94,39.28c-5.18,14.49-8.06,20.62-16.08,33.31" style="fill:none;stroke:#999;stroke-width:3"></path>
<path d="M577.47,47.4c2.6,1.52,6.21,6.7,8.41,9.64" style="fill:none;stroke:#999;stroke-width:3"></path>
<path d="M626.5699999999999,14c-0.57,1-1.14,2.07-1.65,2.44c-7.18,5.11-12.73,7.74-27.08,12.77" style="fill:none;stroke:#999;stroke-width:3"></path>
<path d="M594.92,27.75c0.99,1.74,1.75,3.4,1.86,5.28c0.43,6.98,0.72,26.46,1.27,34.95" style="fill:none;stroke:#999;stroke-width:3"></path>

<path d="M665.78,37.95c0.36,0.16,2.52,0.27,3.49,0.21c4.16-0.27,17-2.15,23.68-2.96c0.97-0.12,1.21-0.16,1.82,0" style="fill:none;stroke:#999;stroke-width:3"></path>
<path d="M681.36,14c0.91,0.47,2.04,1.75,2.04,4.42c0,0.95-0.12,72.75-0.3,78.58" style="fill:none;stroke:#999;stroke-width:3"></path>
<path d="M682.94,39.28c-5.18,14.49-8.06,20.62-16.08,33.31" style="fill:none;stroke:#999;stroke-width:3"></path>
<path d="M686.47,47.4c2.6,1.52,6.21,6.7,8.41,9.64" style="fill:none;stroke:#999;stroke-width:3"></path>
<path d="M735.5699999999999,14c-0.57,1-1.14,2.07-1.65,2.44c-7.18,5.11-12.73,7.74-27.08,12.77" style="fill:none;stroke:#999;stroke-width:3"></path>
<path d="M703.92,27.75c0.99,1.74,1.75,3.4,1.86,5.28c0.43,6.98,0.72,26.46,1.27,34.95" style="fill:none;stroke:#999;stroke-width:3"></path>
<path d="M706.38,42.63c8.8-1.18,24.88-2.83,35.57-4.32c1.6-0.22,4.39-0.19,5.4,0" style="fill:none;stroke:#999;stroke-width:3"></path>

<path d="M774.78,37.95c0.36,0.16,2.52,0.27,3.49,0.21c4.16-0.27,17-2.15,23.68-2.96c0.97-0.12,1.21-0.16,1.82,0" style="fill:none;stroke:#999;stroke-width:3"></path>
<path d="M790.36,14c0.91,0.47,2.04,1.75,2.04,4.42c0,0.95-0.12,72.75-0.3,78.58" style="fill:none;stroke:#999;stroke-width:3"></path>
<path d="M791.94,39.28c-5.18,14.49-8.06,20.62-16.08,33.31" style="fill:none;stroke:#999;stroke-width:3"></path>
<path d="M795.47,47.4c2.6,1.52,6.21,6.7,8.41,9.64" style="fill:none;stroke:#999;stroke-width:3"></path>
<path d="M844.5699999999999,14c-0.57,1-1.14,2.07-1.65,2.44c-7.18,5.11-12.73,7.74-27.08,12.77" style="fill:none;stroke:#999;stroke-width:3"></path>
<path d="M812.92,27.75c0.99,1.74,1.75,3.4,1.86,5.28c0.43,6.98,0.72,26.46,1.27,34.95" style="fill:none;stroke:#999;stroke-width:3"></path>
<path d="M815.38,42.63c8.8-1.18,24.88-2.83,35.57-4.32c1.6-0.22,4.39-0.19,5.4,0" style="fill:none;stroke:#999;stroke-width:3"></path>
<path d="M842.41,42.31c0.26,1.18,0.56,2.44,0.39,3.8c-0.48,3.95-1.33,9.96-2.7,19.88" style="fill:none;stroke:#999;stroke-width:3"></path>

<path d="M883.78,37.95c0.36,0.16,2.52,0.27,3.49,0.21c4.16-0.27,17-2.15,23.68-2.96c0.97-0.12,1.21-0.16,1.82,0" style="fill:none;stroke:#999;stroke-width:3"></path>
<path d="M899.36,14c0.91,0.47,2.04,1.75,2.04,4.42c0,0.95-0.12,72.75-0.3,78.58" style="fill:none;stroke:#999;stroke-width:3"></path>
<path d="M900.94,39.28c-5.18,14.49-8.06,20.62-16.08,33.31" style="fill:none;stroke:#999;stroke-width:3"></path>
<path d="M904.47,47.4c2.6,1.52,6.21,6.7,8.41,9.64" style="fill:none;stroke:#999;stroke-width:3"></path>
<path d="M953.5699999999999,14c-0.57,1-1.14,2.07-1.65,2.44c-7.18,5.11-12.73,7.74-27.08,12.77" style="fill:none;stroke:#999;stroke-width:3"></path>
<path d="M921.92,27.75c0.99,1.74,1.75,3.4,1.86,5.28c0.43,6.98,0.72,26.46,1.27,34.95" style="fill:none;stroke:#999;stroke-width:3"></path>
<path d="M924.38,42.63c8.8-1.18,24.88-2.83,35.57-4.32c1.6-0.22,4.39-0.19,5.4,0" style="fill:none;stroke:#999;stroke-width:3"></path>
<path d="M951.41,42.31c0.26,1.18,0.56,2.44,0.39,3.8c-0.48,3.95-1.33,9.96-2.7,19.88" style="fill:none;stroke:#999;stroke-width:3"></path>
<path d="M910.31,68.46c1.5,0.29,4.27,0.36,5.76,0.29c11.3-0.51,34.36-3.2,50.37-3.73c2.5-0.08,4.01,0.14,5.26,0.29" style="fill:none;stroke:#999;stroke-width:3"></path>

<path d="M992.78,37.95c0.36,0.16,2.52,0.27,3.49,0.21c4.16-0.27,17-2.15,23.68-2.96c0.97-0.12,1.21-0.16,1.82,0" style="fill:none;stroke:#999;stroke-width:3"></path>
<path d="M1008.36,14c0.91,0.47,2.04,1.75,2.04,4.42c0,0.95-0.12,72.75-0.3,78.58" style="fill:none;stroke:#999;stroke-width:3"></path>
<path d="M1009.94,39.28c-5.18,14.49-8.06,20.62-16.08,33.31" style="fill:none;stroke:#999;stroke-width:3"></path>
<path d="M1013.47,47.4c2.6,1.52,6.21,6.7,8.41,9.64" style="fill:none;stroke:#999;stroke-width:3"></path>
<path d="M1062.57,14c-0.57,1-1.14,2.07-1.65,2.44c-7.18,5.11-12.73,7.74-27.08,12.77" style="fill:none;stroke:#999;stroke-width:3"></path>
<path d="M1030.92,27.75c0.99,1.74,1.75,3.4,1.86,5.28c0.43,6.98,0.72,26.46,1.27,34.95" style="fill:none;stroke:#999;stroke-width:3"></path>
<path d="M1033.38,42.63c8.8-1.18,24.88-2.83,35.57-4.32c1.6-0.22,4.39-0.19,5.4,0" style="fill:none;stroke:#999;stroke-width:3"></path>
<path d="M1060.4099999999999,42.31c0.26,1.18,0.56,2.44,0.39,3.8c-0.48,3.95-1.33,9.96-2.7,19.88" style="fill:none;stroke:#999;stroke-width:3"></path>
<path d="M1019.31,68.46c1.5,0.29,4.27,0.36,5.76,0.29c11.3-0.51,34.36-3.2,50.37-3.73c2.5-0.08,4.01,0.14,5.26,0.29" style="fill:none;stroke:#999;stroke-width:3"></path>
<path d="M1038.45,75.34c0.05,0.5,0.18,1.46-0.09,2.03c-3.46,7.13-8.56,13.67-17.57,19.42" style="fill:none;stroke:#999;stroke-width:3"></path>

<path d="M1101.78,37.95c0.36,0.16,2.52,0.27,3.49,0.21c4.16-0.27,17-2.15,23.68-2.96c0.97-0.12,1.21-0.16,1.82,0" style="fill:none;stroke:#999;stroke-width:3"></path>
<path d="M1117.3600000000001,14c0.91,0.47,2.04,1.75,2.04,4.42c0,0.95-0.12,72.75-0.3,78.58" style="fill:none;stroke:#999;stroke-width:3"></path>
<path d="M1118.94,39.28c-5.18,14.49-8.06,20.62-16.08,33.31" style="fill:none;stroke:#999;stroke-width:3"></path>
<path d="M1122.47,47.4c2.6,1.52,6.21,6.7,8.41,9.64" style="fill:none;stroke:#999;stroke-width:3"></path>
<path d="M1171.57,14c-0.57,1-1.14,2.07-1.65,2.44c-7.18,5.11-12.73,7.74-27.08,12.77" style="fill:none;stroke:#999;stroke-width:3"></path>
<path d="M1139.92,27.75c0.99,1.74,1.75,3.4,1.86,5.28c0.43,6.98,0.72,26.46,1.27,34.95" style="fill:none;stroke:#999;stroke-width:3"></path>
<path d="M1142.38,42.63c8.8-1.18,24.88-2.83,35.57-4.32c1.6-0.22,4.39-0.19,5.4,0" style="fill:none;stroke:#999;stroke-width:3"></path>
<path d="M1169.4099999999999,42.31c0.26,1.18,0.56,2.44,0.39,3.8c-0.48,3.95-1.33,9.96-2.7,19.88" style="fill:none;stroke:#999;stroke-width:3"></path>
<path d="M1128.31,68.46c1.5,0.29,4.27,0.36,5.76,0.29c11.3-0.51,34.36-3.2,50.37-3.73c2.5-0.08,4.01,0.14,5.26,0.29" style="fill:none;stroke:#999;stroke-width:3"></path>
<path d="M1147.45,75.34c0.05,0.5,0.18,1.46-0.09,2.03c-3.46,7.13-8.56,13.67-17.57,19.42" style="fill:none;stroke:#999;stroke-width:3"></path>
<path d="M1164.44,73.68c6.34,3.51,16.37,14.42,17.96,19.88" style="fill:none;stroke:#999;stroke-width:3"></path>

</svg>