<svg width="1308px" height="109px" viewBox="0 0 1308 109" xmlns="http://www.w3.org/2000/svg" xmlns:xlink="http://www.w3.org/1999/xlink" xml:space="preserve" version="1.1" baseProfile="full">
<line x1="1" y1="1" x2="1307" y2="1" style="stroke:#ddd;stroke-width:2"></line>
<line x1="1" y1="1" x2="1" y2="108" style="stroke:#ddd;stroke-width:2"></line>
<line x1="1" y1="108" x2="1307" y2="108" style="stroke:#ddd;stroke-width:2"></line>
<line x1="1307" y1="1" x2="1307" y2="108" style="stroke:#ddd;stroke-width:2"></line>
<line x1="109" y1="1" x2="109" y2="108" style="stroke:#ddd;stroke-width:2"></line>
<line x1="218" y1="1" x2="218" y2="108" style="stroke:#ddd;stroke-width:2"></line>
<line x1="327" y1="1" x2="327" y2="108" style="stroke:#ddd;stroke-width:2"></line>
<line x1="436" y1="1" x2="436" y2="108" style="stroke:#ddd;stroke-width:2"></line>
<line x1="545" y1="1" x2="545" y2="108" style="stroke:#ddd;stroke-width:2"></line>
<line x1="654" y1="1" x2="654" y2="108" style="stroke:#ddd;stroke-width:2"></line>
<line x1="763" y1="1" x2="763" y2="108" style="stroke:#ddd;stroke-width:2"></line>
<line x1="872" y1="1" x2="872" y2="108" style="stroke:#ddd;stroke-width:2"></line>
<line x1="981" y1="1" x2="981" y2="108" style="stroke:#ddd;stroke-width:2"></line>
<line x1="1090" y1="1" x2="1090" y2="108" style="stroke:#ddd;stroke-width:2"></line>
<line x1="1199" y1="1" x2="1199" y2="108" style="stroke:#ddd;stroke-width:2"></line>
<line x1="1" y1="54" x2="1307" y2="54" style="stroke:#ddd;stroke-width:2;stroke-dasharray:3 3"></line>
<line x1="55" y1="1" x2="55" y2="108" style="stroke:#ddd;stroke-width:2;stroke-dasharray:3 3"></line>
<line x1="164" y1="1" x2="164" y2="108" style="stroke:#ddd;stroke-width:2;stroke-dasharray:3 3"></line>
<line x1="273" y1="1" x2="273" y2="108" style="stroke:#ddd;stroke-width:2;stroke-dasharray:3 3"></line>
<line x1="382" y1="1" x2="382" y2="108" style="stroke:#ddd;stroke-width:2;stroke-dasharray:3 3"></line>
<line x1="491" y1="1" x2="491" y2="108" style="stroke:#ddd;stroke-width:2;stroke-dasharray:3 3"></line>
<line x1="600" y1="1" x2="600" y2="108" style="stroke:#ddd;stroke-width:2;stroke-dasharray:3 3"></line>
<line x1="709" y1="1" x2="709" y2="108" style="stroke:#ddd;stroke-width:2;stroke-dasharray:3 3"></line>
<line x1="818" y1="1" x2="818" y2="108" style="stroke:#ddd;stroke-width:2;stroke-dasharray:3 3"></line>
<line x1="927" y1="1" x2="927" y2="108" style="stroke:#ddd;stroke-width:2;stroke-dasharray:3 3"></line>
<line x1="1036" y1="1" x2="1036" y2="108" style="stroke:#ddd;stroke-width:2;stroke-dasharray:3 3"></line>
<line x1="1145" y1="1" x2="1145" y2="108" style="stroke:#ddd;stroke-width:2;stroke-dasharray:3 3"></line>
<line x1="1254" y1="1" x2="1254" y2="108" style="stroke:#ddd;stroke-width:2;stroke-dasharray:3 3"></line>
<path d="M12.28,37.72c0.35,0.24,2.39,0.41,3.31,0.31c3.94-0.41,15.12-2.21,21.45-3.41c0.92-0.17,2.15-0.24,2.73,0" style="fill:none;stroke:#999;stroke-width:3"></path>

<path d="M121.28,37.72c0.35,0.24,2.39,0.41,3.31,0.31c3.94-0.41,15.12-2.21,21.45-3.41c0.92-0.17,2.15-0.24,2.73,0" style="fill:none;stroke:#999;stroke-width:3"></path>
<path d="M134.36,14.5c0.91,0.47,2.86,3.49,3.04,4.42c0.18,0.93-0.12,70.75-0.3,76.58" style="fill:none;stroke:#999;stroke-width:3"></path>

<path d="M230.28,37.72c0.35,0.24,2.39,0.41,3.31,0.31c3.94-0.41,15.12-2.21,21.45-3.41c0.92-0.17,2.15-0.24,2.73,0" style="fill:none;stroke:#999;stroke-width:3"></path>
<path d="M243.36,14.5c0.91,0.47,2.86,3.49,3.04,4.42c0.18,0.93-0.12,70.75-0.3,76.58" style="fill:none;stroke:#999;stroke-width:3"></path>
<path d="M245.94,41.28c-5.1,15.04-7.94,21.4-15.83,34.56" style="fill:none;stroke:#999;stroke-width:3"></path>

<path d="M339.28,37.72c0.35,0.24,2.39,0.41,3.31,0.31c3.94-0.41,15.12-2.21,21.45-3.41c0.92-0.17,2.15-0.24,2.73,0" style="fill:none;stroke:#999;stroke-width:3"></path>
<path d="M352.36,14.5c0.91,0.47,2.86,3.49,3.04,4.42c0.18,0.93-0.12,70.75-0.3,76.58" style="fill:none;stroke:#999;stroke-width:3"></path>
<path d="M354.94,41.28c-5.1,15.04-7.94,21.4-15.83,34.56" style="fill:none;stroke:#999;stroke-width:3"></path>
<path d="M357.47,46.9c2.37,1.59,7.28,8.76,9.28,11.85" style="fill:none;stroke:#999;stroke-width:3"></path>

<path d="M448.28,37.72c0.35,0.24,2.39,0.41,3.31,0.31c3.94-0.41,15.12-2.21,21.45-3.41c0.92-0.17,2.15-0.24,2.73,0" style="fill:none;stroke:#999;stroke-width:3"></path>
<path d="M461.36,14.5c0.91,0.47,2.86,3.49,3.04,4.42c0.18,0.93-0.12,70.75-0.3,76.58" style="fill:none;stroke:#999;stroke-width:3"></path>
<path d="M463.94,41.28c-5.1,15.04-7.94,21.4-15.83,34.56" style="fill:none;stroke:#999;stroke-width:3"></path>
<path d="M466.47,46.9c2.37,1.59,7.28,8.76,9.28,11.85" style="fill:none;stroke:#999;stroke-width:3"></path>
<path d="M481.5,19.02c0.52,1.36,1.28,2.37,1.29,4.17c0.1,13.52,0.1,45.49-0.22,71.3" style="fill:none;stroke:#999;stroke-width:3"></path>

<path d="M557.28,37.72c0.35,0.24,2.39,0.41,3.31,0.31c3.94-0.41,15.12-2.21,21.45-3.41c0.92-0.17,2.15-0.24,2.73,0" style="fill:none;stroke:#999;stroke-width:3"></path>
<path d="M570.36,14.5c0.91,0.47,2.86,3.49,3.04,4.42c0.18,0.93-0.12,70.75-0.3,76.58" style="fill:none;stroke:#999;stroke-width:3"></path>
<path d="M572.94,41.28c-5.1,15.04-7.94,21.4-15.83,34.56" style="fill:none;stroke:#999;stroke-width:3"></path>
<path d="M575.47,46.9c2.37,1.59,7.28,8.76,9.28,11.85" style="fill:none;stroke:#999;stroke-width:3"></path>
<path d="M590.5,19.02c0.52,1.36,1.28,2.37,1.29,4.17c0.1,13.52,0.1,45.49-0.22,71.3" style="fill:none;stroke:#999;stroke-width:3"></path>
<path d="M592.91,22.23c12.5-1.56,36.04-3.98,44.41-3.98c1.91,0,2.5,1.99,2.43,5.21c-0.35,15.87-0.69,47.6-0.35,68.67" style="fill:none;stroke:#999;stroke-width:3"></path>

<path d="M666.28,37.72c0.35,0.24,2.39,0.41,3.31,0.31c3.94-0.41,15.12-2.21,21.45-3.41c0.92-0.17,2.15-0.24,2.73,0" style="fill:none;stroke:#999;stroke-width:3"></path>
<path d="M679.36,14.5c0.91,0.47,2.86,3.49,3.04,4.42c0.18,0.93-0.12,70.75-0.3,76.58" style="fill:none;stroke:#999;stroke-width:3"></path>
<path d="M681.94,41.28c-5.1,15.04-7.94,21.4-15.83,34.56" style="fill:none;stroke:#999;stroke-width:3"></path>
<path d="M684.47,46.9c2.37,1.59,7.28,8.76,9.28,11.85" style="fill:none;stroke:#999;stroke-width:3"></path>
<path d="M699.5,19.02c0.52,1.36,1.28,2.37,1.29,4.17c0.1,13.52,0.1,45.49-0.22,71.3" style="fill:none;stroke:#999;stroke-width:3"></path>
<path d="M701.91,22.23c12.5-1.56,36.04-3.98,44.41-3.98c1.91,0,2.5,1.99,2.43,5.21c-0.35,15.87-0.69,47.6-0.35,68.67" style="fill:none;stroke:#999;stroke-width:3"></path>
<path d="M709.61,36.21c0.57,0.36,2.43,0.53,3.01,0.51c6.26-0.22,15.12-1.72,23.77-2.33c0.88-0.06,1.68,0.16,2.41,0.47" style="fill:none;stroke:#999;stroke-width:3"></path>

<path d="M775.28,37.72c0.35,0.24,2.39,0.41,3.31,0.31c3.94-0.41,15.12-2.21,21.45-3.41c0.92-0.17,2.15-0.24,2.73,0" style="fill:none;stroke:#999;stroke-width:3"></path>
<path d="M788.36,14.5c0.91,0.47,2.86,3.49,3.04,4.42c0.18,0.93-0.12,70.75-0.3,76.58" style="fill:none;stroke:#999;stroke-width:3"></path>
<path d="M790.94,41.28c-5.1,15.04-7.94,21.4-15.83,34.56" style="fill:none;stroke:#999;stroke-width:3"></path>
<path d="M793.47,46.9c2.37,1.59,7.28,8.76,9.28,11.85" style="fill:none;stroke:#999;stroke-width:3"></path>
<path d="M808.5,19.02c0.52,1.36,1.28,2.37,1.29,4.17c0.1,13.52,0.1,45.49-0.22,71.3" style="fill:none;stroke:#999;stroke-width:3"></path>
<path d="M810.91,22.23c12.5-1.56,36.04-3.98,44.41-3.98c1.91,0,2.5,1.99,2.43,5.21c-0.35,15.87-0.69,47.6-0.35,68.67" style="fill:none;stroke:#999;stroke-width:3"></path>
<path d="M818.61,36.21c0.57,0.36,2.43,0.53,3.01,0.51c6.26-0.22,15.12-1.72,23.77-2.33c0.88-0.06,1.68,0.16,2.41,0.47" style="fill:none;stroke:#999;stroke-width:3"></path>
<path d="M833.59,37.09c0.81,0.75,0.81,2.37,0.81,2.95c0,4.04,0.41,28.33,0.21,32.36" style="fill:none;stroke:#999;stroke-width:3"></path>

<path d="M884.28,37.72c0.35,0.24,2.39,0.41,3.31,0.31c3.94-0.41,15.12-2.21,21.45-3.41c0.92-0.17,2.15-0.24,2.73,0" style="fill:none;stroke:#999;stroke-width:3"></path>
<path d="M897.36,14.5c0.91,0.47,2.86,3.49,3.04,4.42c0.18,0.93-0.12,70.75-0.3,76.58" style="fill:none;stroke:#999;stroke-width:3"></path>
<path d="M899.94,41.28c-5.1,15.04-7.94,21.4-15.83,34.56" style="fill:none;stroke:#999;stroke-width:3"></path>
<path d="M902.47,46.9c2.37,1.59,7.28,8.76,9.28,11.85" style="fill:none;stroke:#999;stroke-width:3"></path>
<path d="M917.5,19.02c0.52,1.36,1.28,2.37,1.29,4.17c0.1,13.52,0.1,45.49-0.22,71.3" style="fill:none;stroke:#999;stroke-width:3"></path>
<path d="M919.91,22.23c12.5-1.56,36.04-3.98,44.41-3.98c1.91,0,2.5,1.99,2.43,5.21c-0.35,15.87-0.69,47.6-0.35,68.67" style="fill:none;stroke:#999;stroke-width:3"></path>
<path d="M927.61,36.21c0.57,0.36,2.43,0.53,3.01,0.51c6.26-0.22,15.12-1.72,23.77-2.33c0.88-0.06,1.68,0.16,2.41,0.47" style="fill:none;stroke:#999;stroke-width:3"></path>
<path d="M942.59,37.09c0.81,0.75,0.81,2.37,0.81,2.95c0,4.04,0.41,28.33,0.21,32.36" style="fill:none;stroke:#999;stroke-width:3"></path>
<path d="M931.74,54.25c0.5,0.34,2.13,0.61,2.64,0.57c2.9-0.24,11.62-1.32,16.76-2.38c0.61-0.13,1.98-0.01,2.9,0.32" style="fill:none;stroke:#999;stroke-width:3"></path>

<path d="M993.28,37.72c0.35,0.24,2.39,0.41,3.31,0.31c3.94-0.41,15.12-2.21,21.45-3.41c0.92-0.17,2.15-0.24,2.73,0" style="fill:none;stroke:#999;stroke-width:3"></path>
<path d="M1006.36,14.5c0.91,0.47,2.86,3.49,3.04,4.42c0.18,0.93-0.12,70.75-0.3,76.58" style="fill:none;stroke:#999;stroke-width:3"></path>
<path d="M1008.94,41.28c-5.1,15.04-7.94,21.4-15.83,34.56" style="fill:none;stroke:#999;stroke-width:3"></path>
<path d="M1011.47,46.9c2.37,1.59,7.28,8.76,9.28,11.85" style="fill:none;stroke:#999;stroke-width:3"></path>
<path d="M1026.5,19.02c0.52,1.36,1.28,2.37,1.29,4.17c0.1,13.52,0.1,45.49-0.22,71.3" style="fill:none;stroke:#999;stroke-width:3"></path>
<path d="M1028.9099999999999,22.23c12.5-1.56,36.04-3.98,44.41-3.98c1.91,0,2.5,1.99,2.43,5.21c-0.35,15.87-0.69,47.6-0.35,68.67" style="fill:none;stroke:#999;stroke-width:3"></path>
<path d="M1036.6100000000001,36.21c0.57,0.36,2.43,0.53,3.01,0.51c6.26-0.22,15.12-1.72,23.77-2.33c0.88-0.06,1.68,0.16,2.41,0.47" style="fill:none;stroke:#999;stroke-width:3"></path>
<path d="M1051.5900000000001,37.09c0.81,0.75,0.81,2.37,0.81,2.95c0,4.04,0.41,28.33,0.21,32.36" style="fill:none;stroke:#999;stroke-width:3"></path>
<path d="M1040.74,54.25c0.5,0.34,2.13,0.61,2.64,0.57c2.9-0.24,11.62-1.32,16.76-2.38c0.61-0.13,1.98-0.01,2.9,0.32" style="fill:none;stroke:#999;stroke-width:3"></path>
<path d="M1036.38,74.95c0.4,0.21,1.92,0.34,2.59,0.3c8.28-0.5,20.81-2.05,27.03-2.14c1.08-0.02,2.37-0.05,2.91,0.27" style="fill:none;stroke:#999;stroke-width:3"></path>

<path d="M1102.28,37.72c0.35,0.24,2.39,0.41,3.31,0.31c3.94-0.41,15.12-2.21,21.45-3.41c0.92-0.17,2.15-0.24,2.73,0" style="fill:none;stroke:#999;stroke-width:3"></path>
<path d="M1115.3600000000001,14.5c0.91,0.47,2.86,3.49,3.04,4.42c0.18,0.93-0.12,70.75-0.3,76.58" style="fill:none;stroke:#999;stroke-width:3"></path>
<path d="M1117.94,41.28c-5.1,15.04-7.94,21.4-15.83,34.56" style="fill:none;stroke:#999;stroke-width:3"></path>
<path d="M1120.47,46.9c2.37,1.59,7.28,8.76,9.28,11.85" style="fill:none;stroke:#999;stroke-width:3"></path>
<path d="M1135.5,19.02c0.52,1.36,1.28,2.37,1.29,4.17c0.1,13.52,0.1,45.49-0.22,71.3" style="fill:none;stroke:#999;stroke-width:3"></path>
<path d="M1137.9099999999999,22.23c12.5-1.56,36.04-3.98,44.41-3.98c1.91,0,2.5,1.99,2.43,5.21c-0.35,15.87-0.69,47.6-0.35,68.67" style="fill:none;stroke:#999;stroke-width:3"></path>
<path d="M1145.6100000000001,36.21c0.57,0.36,2.43,0.53,3.01,0.51c6.26-0.22,15.12-1.72,23.77-2.33c0.88-0.06,1.68,0.16,2.41,0.47" style="fill:none;stroke:#999;stroke-width:3"></path>
<path d="M1160.5900000000001,37.09c0.81,0.75,0.81,2.37,0.81,2.95c0,4.04,0.41,28.33,0.21,32.36" style="fill:none;stroke:#999;stroke-width:3"></path>
<path d="M1149.74,54.25c0.5,0.34,2.13,0.61,2.64,0.57c2.9-0.24,11.62-1.32,16.76-2.38c0.61-0.13,1.98-0.01,2.9,0.32" style="fill:none;stroke:#999;stroke-width:3"></path>
<path d="M1145.38,74.95c0.4,0.21,1.92,0.34,2.59,0.3c8.28-0.5,20.81-2.05,27.03-2.14c1.08-0.02,2.37-0.05,2.91,0.27" style="fill:none;stroke:#999;stroke-width:3"></path>
<path d="M1169.71,59.51c2.09,1.57,3.89,4.91,4.34,6.87" style="fill:none;stroke:#999;stroke-width:3"></path>

<path d="M1211.28,37.72c0.35,0.24,2.39,0.41,3.31,0.31c3.94-0.41,15.12-2.21,21.45-3.41c0.92-0.17,2.15-0.24,2.73,0" style="fill:none;stroke:#999;stroke-width:3"></path>
<path d="M1224.3600000000001,14.5c0.91,0.47,2.86,3.49,3.04,4.42c0.18,0.93-0.12,70.75-0.3,76.58" style="fill:none;stroke:#999;stroke-width:3"></path>
<path d="M1226.94,41.28c-5.1,15.04-7.94,21.4-15.83,34.56" style="fill:none;stroke:#999;stroke-width:3"></path>
<path d="M1229.47,46.9c2.37,1.59,7.28,8.76,9.28,11.85" style="fill:none;stroke:#999;stroke-width:3"></path>
<path d="M1244.5,19.02c0.52,1.36,1.28,2.37,1.29,4.17c0.1,13.52,0.1,45.49-0.22,71.3" style="fill:none;stroke:#999;stroke-width:3"></path>
<path d="M1246.9099999999999,22.23c12.5-1.56,36.04-3.98,44.41-3.98c1.91,0,2.5,1.99,2.43,5.21c-0.35,15.87-0.69,47.6-0.35,68.67" style="fill:none;stroke:#999;stroke-width:3"></path>
<path d="M1254.6100000000001,36.21c0.57,0.36,2.43,0.53,3.01,0.51c6.26-0.22,15.12-1.72,23.77-2.33c0.88-0.06,1.68,0.16,2.41,0.47" style="fill:none;stroke:#999;stroke-width:3"></path>
<path d="M1269.5900000000001,37.09c0.81,0.75,0.81,2.37,0.81,2.95c0,4.04,0.41,28.33,0.21,32.36" style="fill:none;stroke:#999;stroke-width:3"></path>
<path d="M1258.74,54.25c0.5,0.34,2.13,0.61,2.64,0.57c2.9-0.24,11.62-1.32,16.76-2.38c0.61-0.13,1.98-0.01,2.9,0.32" style="fill:none;stroke:#999;stroke-width:3"></path>
<path d="M1254.38,74.95c0.4,0.21,1.92,0.34,2.59,0.3c8.28-0.5,20.81-2.05,27.03-2.14c1.08-0.02,2.37-0.05,2.91,0.27" style="fill:none;stroke:#999;stroke-width:3"></path>
<path d="M1278.71,59.51c2.09,1.57,3.89,4.91,4.34,6.87" style="fill:none;stroke:#999;stroke-width:3"></path>
<path d="M1246.23,91.67c9.06,0,34.66-1.99,47.17-2.38" style="fill:none;stroke:#999;stroke-width:3"></path>

</svg>