<svg width="1417px" height="109px" viewBox="0 0 1417 109" xmlns="http://www.w3.org/2000/svg" xmlns:xlink="http://www.w3.org/1999/xlink" xml:space="preserve" version="1.1" baseProfile="full">
<line x1="1" y1="1" x2="1416" y2="1" style="stroke:#ddd;stroke-width:2"></line>
<line x1="1" y1="1" x2="1" y2="108" style="stroke:#ddd;stroke-width:2"></line>
<line x1="1" y1="108" x2="1416" y2="108" style="stroke:#ddd;stroke-width:2"></line>
<line x1="1416" y1="1" x2="1416" y2="108" style="stroke:#ddd;stroke-width:2"></line>
<line x1="109" y1="1" x2="109" y2="108" style="stroke:#ddd;stroke-width:2"></line>
<line x1="218" y1="1" x2="218" y2="108" style="stroke:#ddd;stroke-width:2"></line>
<line x1="327" y1="1" x2="327" y2="108" style="stroke:#ddd;stroke-width:2"></line>
<line x1="436" y1="1" x2="436" y2="108" style="stroke:#ddd;stroke-width:2"></line>
<line x1="545" y1="1" x2="545" y2="108" style="stroke:#ddd;stroke-width:2"></line>
<line x1="654" y1="1" x2="654" y2="108" style="stroke:#ddd;stroke-width:2"></line>
<line x1="763" y1="1" x2="763" y2="108" style="stroke:#ddd;stroke-width:2"></line>
<line x1="872" y1="1" x2="872" y2="108" style="stroke:#ddd;stroke-width:2"></line>
<line x1="981" y1="1" x2="981" y2="108" style="stroke:#ddd;stroke-width:2"></line>
<line x1="1090" y1="1" x2="1090" y2="108" style="stroke:#ddd;stroke-width:2"></line>
<line x1="1199" y1="1" x2="1199" y2="108" style="stroke:#ddd;stroke-width:2"></line>
<line x1="1308" y1="1" x2="1308" y2="108" style="stroke:#ddd;stroke-width:2"></line>
<line x1="1" y1="54" x2="1416" y2="54" style="stroke:#ddd;stroke-width:2;stroke-dasharray:3 3"></line>
<line x1="55" y1="1" x2="55" y2="108" style="stroke:#ddd;stroke-width:2;stroke-dasharray:3 3"></line>
<line x1="164" y1="1" x2="164" y2="108" style="stroke:#ddd;stroke-width:2;stroke-dasharray:3 3"></line>
<line x1="273" y1="1" x2="273" y2="108" style="stroke:#ddd;stroke-width:2;stroke-dasharray:3 3"></line>
<line x1="382" y1="1" x2="382" y2="108" style="stroke:#ddd;stroke-width:2;stroke-dasharray:3 3"></line>
<line x1="491" y1="1" x2="491" y2="108" style="stroke:#ddd;stroke-width:2;stroke-dasharray:3 3"></line>
<line x1="600" y1="1" x2="600" y2="108" style="stroke:#ddd;stroke-width:2;stroke-dasharray:3 3"></line>
<line x1="709" y1="1" x2="709" y2="108" style="stroke:#ddd;stroke-width:2;stroke-dasharray:3 3"></line>
<line x1="818" y1="1" x2="818" y2="108" style="stroke:#ddd;stroke-width:2;stroke-dasharray:3 3"></line>
<line x1="927" y1="1" x2="927" y2="108" style="stroke:#ddd;stroke-width:2;stroke-dasharray:3 3"></line>
<line x1="1036" y1="1" x2="1036" y2="108" style="stroke:#ddd;stroke-width:2;stroke-dasharray:3 3"></line>
<line x1="1145" y1="1" x2="1145" y2="108" style="stroke:#ddd;stroke-width:2;stroke-dasharray:3 3"></line>
<line x1="1254" y1="1" x2="1254" y2="108" style="stroke:#ddd;stroke-width:2;stroke-dasharray:3 3"></line>
<line x1="1363" y1="1" x2="1363" y2="108" style="stroke:#ddd;stroke-width:2;stroke-dasharray:3 3"></line>
<path d="M45.37,12.75c0.88,0.88,1.46,1.88,1.46,3.25c0,1.02-0.08,7.5-0.08,14" style="fill:none;stroke:#999;stroke-width:3"></path>

<path d="M154.37,12.75c0.88,0.88,1.46,1.88,1.46,3.25c0,1.02-0.08,7.5-0.08,14" style="fill:none;stroke:#999;stroke-width:3"></path>
<path d="M170.37,11c0.88,0.88,1.29,2.23,1.21,3.25c-0.2,2.62-0.45,6.12-1.08,14.75" style="fill:none;stroke:#999;stroke-width:3"></path>

<path d="M263.37,12.75c0.88,0.88,1.46,1.88,1.46,3.25c0,1.02-0.08,7.5-0.08,14" style="fill:none;stroke:#999;stroke-width:3"></path>
<path d="M279.37,11c0.88,0.88,1.29,2.23,1.21,3.25c-0.2,2.62-0.45,6.12-1.08,14.75" style="fill:none;stroke:#999;stroke-width:3"></path>
<path d="M246.27,19.46c2.4,1.81,6.19,7.44,6.79,10.26" style="fill:none;stroke:#999;stroke-width:3"></path>

<path d="M372.37,12.75c0.88,0.88,1.46,1.88,1.46,3.25c0,1.02-0.08,7.5-0.08,14" style="fill:none;stroke:#999;stroke-width:3"></path>
<path d="M388.37,11c0.88,0.88,1.29,2.23,1.21,3.25c-0.2,2.62-0.45,6.12-1.08,14.75" style="fill:none;stroke:#999;stroke-width:3"></path>
<path d="M355.27,19.46c2.4,1.81,6.19,7.44,6.79,10.26" style="fill:none;stroke:#999;stroke-width:3"></path>
<path d="M405.62,14.62c0.33,0.94,0.31,1.83-0.06,2.65c-1.03,2.69-2.21,4.87-4.51,8.69" style="fill:none;stroke:#999;stroke-width:3"></path>

<path d="M481.37,12.75c0.88,0.88,1.46,1.88,1.46,3.25c0,1.02-0.08,7.5-0.08,14" style="fill:none;stroke:#999;stroke-width:3"></path>
<path d="M497.37,11c0.88,0.88,1.29,2.23,1.21,3.25c-0.2,2.62-0.45,6.12-1.08,14.75" style="fill:none;stroke:#999;stroke-width:3"></path>
<path d="M464.27,19.46c2.4,1.81,6.19,7.44,6.79,10.26" style="fill:none;stroke:#999;stroke-width:3"></path>
<path d="M514.62,14.62c0.33,0.94,0.31,1.83-0.06,2.65c-1.03,2.69-2.21,4.87-4.51,8.69" style="fill:none;stroke:#999;stroke-width:3"></path>
<path d="M448.0,33.89c3.25,0.86,6.88,1.03,10.43,0.59c23.8-2.95,42.69-5.04,63.67-5.96c4.53-0.2,7.75,0.28,10.02,0.58" style="fill:none;stroke:#999;stroke-width:3"></path>

<path d="M590.37,12.75c0.88,0.88,1.46,1.88,1.46,3.25c0,1.02-0.08,7.5-0.08,14" style="fill:none;stroke:#999;stroke-width:3"></path>
<path d="M606.37,11c0.88,0.88,1.29,2.23,1.21,3.25c-0.2,2.62-0.45,6.12-1.08,14.75" style="fill:none;stroke:#999;stroke-width:3"></path>
<path d="M573.27,19.46c2.4,1.81,6.19,7.44,6.79,10.26" style="fill:none;stroke:#999;stroke-width:3"></path>
<path d="M623.62,14.62c0.33,0.94,0.31,1.83-0.06,2.65c-1.03,2.69-2.21,4.87-4.51,8.69" style="fill:none;stroke:#999;stroke-width:3"></path>
<path d="M557.0,33.89c3.25,0.86,6.88,1.03,10.43,0.59c23.8-2.95,42.69-5.04,63.67-5.96c4.53-0.2,7.75,0.28,10.02,0.58" style="fill:none;stroke:#999;stroke-width:3"></path>
<path d="M581.62,36.25c1.83,1.41,4.73,5.78,5.18,7.97" style="fill:none;stroke:#999;stroke-width:3"></path>

<path d="M699.37,12.75c0.88,0.88,1.46,1.88,1.46,3.25c0,1.02-0.08,7.5-0.08,14" style="fill:none;stroke:#999;stroke-width:3"></path>
<path d="M715.37,11c0.88,0.88,1.29,2.23,1.21,3.25c-0.2,2.62-0.45,6.12-1.08,14.75" style="fill:none;stroke:#999;stroke-width:3"></path>
<path d="M682.27,19.46c2.4,1.81,6.19,7.44,6.79,10.26" style="fill:none;stroke:#999;stroke-width:3"></path>
<path d="M732.62,14.62c0.33,0.94,0.31,1.83-0.06,2.65c-1.03,2.69-2.21,4.87-4.51,8.69" style="fill:none;stroke:#999;stroke-width:3"></path>
<path d="M666.0,33.89c3.25,0.86,6.88,1.03,10.43,0.59c23.8-2.95,42.69-5.04,63.67-5.96c4.53-0.2,7.75,0.28,10.02,0.58" style="fill:none;stroke:#999;stroke-width:3"></path>
<path d="M690.62,36.25c1.83,1.41,4.73,5.78,5.18,7.97" style="fill:none;stroke:#999;stroke-width:3"></path>
<path d="M720.5,33.25c0.03,0.78-0.15,1.49-0.54,2.12c-1,1.81-2.83,3.88-5.71,6.7" style="fill:none;stroke:#999;stroke-width:3"></path>

<path d="M808.37,12.75c0.88,0.88,1.46,1.88,1.46,3.25c0,1.02-0.08,7.5-0.08,14" style="fill:none;stroke:#999;stroke-width:3"></path>
<path d="M824.37,11c0.88,0.88,1.29,2.23,1.21,3.25c-0.2,2.62-0.45,6.12-1.08,14.75" style="fill:none;stroke:#999;stroke-width:3"></path>
<path d="M791.27,19.46c2.4,1.81,6.19,7.44,6.79,10.26" style="fill:none;stroke:#999;stroke-width:3"></path>
<path d="M841.62,14.62c0.33,0.94,0.31,1.83-0.06,2.65c-1.03,2.69-2.21,4.87-4.51,8.69" style="fill:none;stroke:#999;stroke-width:3"></path>
<path d="M775.0,33.89c3.25,0.86,6.88,1.03,10.43,0.59c23.8-2.95,42.69-5.04,63.67-5.96c4.53-0.2,7.75,0.28,10.02,0.58" style="fill:none;stroke:#999;stroke-width:3"></path>
<path d="M799.62,36.25c1.83,1.41,4.73,5.78,5.18,7.97" style="fill:none;stroke:#999;stroke-width:3"></path>
<path d="M829.5,33.25c0.03,0.78-0.15,1.49-0.54,2.12c-1,1.81-2.83,3.88-5.71,6.7" style="fill:none;stroke:#999;stroke-width:3"></path>
<path d="M793.25,47.64c2.44,0.32,4.87,0.32,7.29-0.01c9.65-1.1,20.76-2.44,32.11-3.6c0.48-0.05,0.97-0.1,1.45-0.15c2.44-0.24,4.18-0.07,5.4,0.12" style="fill:none;stroke:#999;stroke-width:3"></path>

<path d="M917.37,12.75c0.88,0.88,1.46,1.88,1.46,3.25c0,1.02-0.08,7.5-0.08,14" style="fill:none;stroke:#999;stroke-width:3"></path>
<path d="M933.37,11c0.88,0.88,1.29,2.23,1.21,3.25c-0.2,2.62-0.45,6.12-1.08,14.75" style="fill:none;stroke:#999;stroke-width:3"></path>
<path d="M900.27,19.46c2.4,1.81,6.19,7.44,6.79,10.26" style="fill:none;stroke:#999;stroke-width:3"></path>
<path d="M950.62,14.62c0.33,0.94,0.31,1.83-0.06,2.65c-1.03,2.69-2.21,4.87-4.51,8.69" style="fill:none;stroke:#999;stroke-width:3"></path>
<path d="M884.0,33.89c3.25,0.86,6.88,1.03,10.43,0.59c23.8-2.95,42.69-5.04,63.67-5.96c4.53-0.2,7.75,0.28,10.02,0.58" style="fill:none;stroke:#999;stroke-width:3"></path>
<path d="M908.62,36.25c1.83,1.41,4.73,5.78,5.18,7.97" style="fill:none;stroke:#999;stroke-width:3"></path>
<path d="M938.5,33.25c0.03,0.78-0.15,1.49-0.54,2.12c-1,1.81-2.83,3.88-5.71,6.7" style="fill:none;stroke:#999;stroke-width:3"></path>
<path d="M902.25,47.64c2.44,0.32,4.87,0.32,7.29-0.01c9.65-1.1,20.76-2.44,32.11-3.6c0.48-0.05,0.97-0.1,1.45-0.15c2.44-0.24,4.18-0.07,5.4,0.12" style="fill:none;stroke:#999;stroke-width:3"></path>
<path d="M903.12,58.89c2.26,0.44,4.52,0.58,6.77,0.28c12.11-1.63,19.55-2.44,30.36-3.66c2.15-0.29,4.32-0.29,6.5,0" style="fill:none;stroke:#999;stroke-width:3"></path>

<path d="M1026.37,12.75c0.88,0.88,1.46,1.88,1.46,3.25c0,1.02-0.08,7.5-0.08,14" style="fill:none;stroke:#999;stroke-width:3"></path>
<path d="M1042.37,11c0.88,0.88,1.29,2.23,1.21,3.25c-0.2,2.62-0.45,6.12-1.08,14.75" style="fill:none;stroke:#999;stroke-width:3"></path>
<path d="M1009.27,19.46c2.4,1.81,6.19,7.44,6.79,10.26" style="fill:none;stroke:#999;stroke-width:3"></path>
<path d="M1059.62,14.62c0.33,0.94,0.31,1.83-0.06,2.65c-1.03,2.69-2.21,4.87-4.51,8.69" style="fill:none;stroke:#999;stroke-width:3"></path>
<path d="M993.0,33.89c3.25,0.86,6.88,1.03,10.43,0.59c23.8-2.95,42.69-5.04,63.67-5.96c4.53-0.2,7.75,0.28,10.02,0.58" style="fill:none;stroke:#999;stroke-width:3"></path>
<path d="M1017.62,36.25c1.83,1.41,4.73,5.78,5.18,7.97" style="fill:none;stroke:#999;stroke-width:3"></path>
<path d="M1047.5,33.25c0.03,0.78-0.15,1.49-0.54,2.12c-1,1.81-2.83,3.88-5.71,6.7" style="fill:none;stroke:#999;stroke-width:3"></path>
<path d="M1011.25,47.64c2.44,0.32,4.87,0.32,7.29-0.01c9.65-1.1,20.76-2.44,32.11-3.6c0.48-0.05,0.97-0.1,1.45-0.15c2.44-0.24,4.18-0.07,5.4,0.12" style="fill:none;stroke:#999;stroke-width:3"></path>
<path d="M1012.12,58.89c2.26,0.44,4.52,0.58,6.77,0.28c12.11-1.63,19.55-2.44,30.36-3.66c2.15-0.29,4.32-0.29,6.5,0" style="fill:none;stroke:#999;stroke-width:3"></path>
<path d="M1001.25,70.48c3.11,0.53,6.21,0.62,9.29,0.29c15.82-1.59,36.9-4.27,50.26-4.93c3.74-0.18,6.46-0.11,8.33,0.19" style="fill:none;stroke:#999;stroke-width:3"></path>

<path d="M1135.37,12.75c0.88,0.88,1.46,1.88,1.46,3.25c0,1.02-0.08,7.5-0.08,14" style="fill:none;stroke:#999;stroke-width:3"></path>
<path d="M1151.37,11c0.88,0.88,1.29,2.23,1.21,3.25c-0.2,2.62-0.45,6.12-1.08,14.75" style="fill:none;stroke:#999;stroke-width:3"></path>
<path d="M1118.27,19.46c2.4,1.81,6.19,7.44,6.79,10.26" style="fill:none;stroke:#999;stroke-width:3"></path>
<path d="M1168.62,14.62c0.33,0.94,0.31,1.83-0.06,2.65c-1.03,2.69-2.21,4.87-4.51,8.69" style="fill:none;stroke:#999;stroke-width:3"></path>
<path d="M1102.0,33.89c3.25,0.86,6.88,1.03,10.43,0.59c23.8-2.95,42.69-5.04,63.67-5.96c4.53-0.2,7.75,0.28,10.02,0.58" style="fill:none;stroke:#999;stroke-width:3"></path>
<path d="M1126.62,36.25c1.83,1.41,4.73,5.78,5.18,7.97" style="fill:none;stroke:#999;stroke-width:3"></path>
<path d="M1156.5,33.25c0.03,0.78-0.15,1.49-0.54,2.12c-1,1.81-2.83,3.88-5.71,6.7" style="fill:none;stroke:#999;stroke-width:3"></path>
<path d="M1120.25,47.64c2.44,0.32,4.87,0.32,7.29-0.01c9.65-1.1,20.76-2.44,32.11-3.6c0.48-0.05,0.97-0.1,1.45-0.15c2.44-0.24,4.18-0.07,5.4,0.12" style="fill:none;stroke:#999;stroke-width:3"></path>
<path d="M1121.12,58.89c2.26,0.44,4.52,0.58,6.77,0.28c12.11-1.63,19.55-2.44,30.36-3.66c2.15-0.29,4.32-0.29,6.5,0" style="fill:none;stroke:#999;stroke-width:3"></path>
<path d="M1110.25,70.48c3.11,0.53,6.21,0.62,9.29,0.29c15.82-1.59,36.9-4.27,50.26-4.93c3.74-0.18,6.46-0.11,8.33,0.19" style="fill:none;stroke:#999;stroke-width:3"></path>
<path d="M1142.18,47.26c1.03,1.03,1.37,2.4,1.37,3.4c0,2.52-0.17,29.26-0.21,42.09c-0.01,2.24-0.01,4.06-0.01,5.25" style="fill:none;stroke:#999;stroke-width:3"></path>

<path d="M1244.37,12.75c0.88,0.88,1.46,1.88,1.46,3.25c0,1.02-0.08,7.5-0.08,14" style="fill:none;stroke:#999;stroke-width:3"></path>
<path d="M1260.37,11c0.88,0.88,1.29,2.23,1.21,3.25c-0.2,2.62-0.45,6.12-1.08,14.75" style="fill:none;stroke:#999;stroke-width:3"></path>
<path d="M1227.27,19.46c2.4,1.81,6.19,7.44,6.79,10.26" style="fill:none;stroke:#999;stroke-width:3"></path>
<path d="M1277.62,14.62c0.33,0.94,0.31,1.83-0.06,2.65c-1.03,2.69-2.21,4.87-4.51,8.69" style="fill:none;stroke:#999;stroke-width:3"></path>
<path d="M1211.0,33.89c3.25,0.86,6.88,1.03,10.43,0.59c23.8-2.95,42.69-5.04,63.67-5.96c4.53-0.2,7.75,0.28,10.02,0.58" style="fill:none;stroke:#999;stroke-width:3"></path>
<path d="M1235.62,36.25c1.83,1.41,4.73,5.78,5.18,7.97" style="fill:none;stroke:#999;stroke-width:3"></path>
<path d="M1265.5,33.25c0.03,0.78-0.15,1.49-0.54,2.12c-1,1.81-2.83,3.88-5.71,6.7" style="fill:none;stroke:#999;stroke-width:3"></path>
<path d="M1229.25,47.64c2.44,0.32,4.87,0.32,7.29-0.01c9.65-1.1,20.76-2.44,32.11-3.6c0.48-0.05,0.97-0.1,1.45-0.15c2.44-0.24,4.18-0.07,5.4,0.12" style="fill:none;stroke:#999;stroke-width:3"></path>
<path d="M1230.12,58.89c2.26,0.44,4.52,0.58,6.77,0.28c12.11-1.63,19.55-2.44,30.36-3.66c2.15-0.29,4.32-0.29,6.5,0" style="fill:none;stroke:#999;stroke-width:3"></path>
<path d="M1219.25,70.48c3.11,0.53,6.21,0.62,9.29,0.29c15.82-1.59,36.9-4.27,50.26-4.93c3.74-0.18,6.46-0.11,8.33,0.19" style="fill:none;stroke:#999;stroke-width:3"></path>
<path d="M1251.18,47.26c1.03,1.03,1.37,2.4,1.37,3.4c0,2.52-0.17,29.26-0.21,42.09c-0.01,2.24-0.01,4.06-0.01,5.25" style="fill:none;stroke:#999;stroke-width:3"></path>
<path d="M1247.05,69.46c-0.25,1.09-0.72,2.06-1.41,2.91c-6.27,8.55-17.83,18.94-29.94,23.77" style="fill:none;stroke:#999;stroke-width:3"></path>

<path d="M1353.37,12.75c0.88,0.88,1.46,1.88,1.46,3.25c0,1.02-0.08,7.5-0.08,14" style="fill:none;stroke:#999;stroke-width:3"></path>
<path d="M1369.37,11c0.88,0.88,1.29,2.23,1.21,3.25c-0.2,2.62-0.45,6.12-1.08,14.75" style="fill:none;stroke:#999;stroke-width:3"></path>
<path d="M1336.27,19.46c2.4,1.81,6.19,7.44,6.79,10.26" style="fill:none;stroke:#999;stroke-width:3"></path>
<path d="M1386.62,14.62c0.33,0.94,0.31,1.83-0.06,2.65c-1.03,2.69-2.21,4.87-4.51,8.69" style="fill:none;stroke:#999;stroke-width:3"></path>
<path d="M1320.0,33.89c3.25,0.86,6.88,1.03,10.43,0.59c23.8-2.95,42.69-5.04,63.67-5.96c4.53-0.2,7.75,0.28,10.02,0.58" style="fill:none;stroke:#999;stroke-width:3"></path>
<path d="M1344.62,36.25c1.83,1.41,4.73,5.78,5.18,7.97" style="fill:none;stroke:#999;stroke-width:3"></path>
<path d="M1374.5,33.25c0.03,0.78-0.15,1.49-0.54,2.12c-1,1.81-2.83,3.88-5.71,6.7" style="fill:none;stroke:#999;stroke-width:3"></path>
<path d="M1338.25,47.64c2.44,0.32,4.87,0.32,7.29-0.01c9.65-1.1,20.76-2.44,32.11-3.6c0.48-0.05,0.97-0.1,1.45-0.15c2.44-0.24,4.18-0.07,5.4,0.12" style="fill:none;stroke:#999;stroke-width:3"></path>
<path d="M1339.12,58.89c2.26,0.44,4.52,0.58,6.77,0.28c12.11-1.63,19.55-2.44,30.36-3.66c2.15-0.29,4.32-0.29,6.5,0" style="fill:none;stroke:#999;stroke-width:3"></path>
<path d="M1328.25,70.48c3.11,0.53,6.21,0.62,9.29,0.29c15.82-1.59,36.9-4.27,50.26-4.93c3.74-0.18,6.46-0.11,8.33,0.19" style="fill:none;stroke:#999;stroke-width:3"></path>
<path d="M1360.18,47.26c1.03,1.03,1.37,2.4,1.37,3.4c0,2.52-0.17,29.26-0.21,42.09c-0.01,2.24-0.01,4.06-0.01,5.25" style="fill:none;stroke:#999;stroke-width:3"></path>
<path d="M1356.05,69.46c-0.25,1.09-0.72,2.06-1.41,2.91c-6.27,8.55-17.83,18.94-29.94,23.77" style="fill:none;stroke:#999;stroke-width:3"></path>
<path d="M1363.48,69.07c4.65,3.8,20.08,15.71,27.51,20.95c2.35,1.65,5.14,3.1,7.98,4.08" style="fill:none;stroke:#999;stroke-width:3"></path>

</svg>