<svg width="1635px" height="109px" viewBox="0 0 1635 109" xmlns="http://www.w3.org/2000/svg" xmlns:xlink="http://www.w3.org/1999/xlink" xml:space="preserve" version="1.1" baseProfile="full">
<line x1="1" y1="1" x2="1634" y2="1" style="stroke:#ddd;stroke-width:2"></line>
<line x1="1" y1="1" x2="1" y2="108" style="stroke:#ddd;stroke-width:2"></line>
<line x1="1" y1="108" x2="1634" y2="108" style="stroke:#ddd;stroke-width:2"></line>
<line x1="1634" y1="1" x2="1634" y2="108" style="stroke:#ddd;stroke-width:2"></line>
<line x1="109" y1="1" x2="109" y2="108" style="stroke:#ddd;stroke-width:2"></line>
<line x1="218" y1="1" x2="218" y2="108" style="stroke:#ddd;stroke-width:2"></line>
<line x1="327" y1="1" x2="327" y2="108" style="stroke:#ddd;stroke-width:2"></line>
<line x1="436" y1="1" x2="436" y2="108" style="stroke:#ddd;stroke-width:2"></line>
<line x1="545" y1="1" x2="545" y2="108" style="stroke:#ddd;stroke-width:2"></line>
<line x1="654" y1="1" x2="654" y2="108" style="stroke:#ddd;stroke-width:2"></line>
<line x1="763" y1="1" x2="763" y2="108" style="stroke:#ddd;stroke-width:2"></line>
<line x1="872" y1="1" x2="872" y2="108" style="stroke:#ddd;stroke-width:2"></line>
<line x1="981" y1="1" x2="981" y2="108" style="stroke:#ddd;stroke-width:2"></line>
<line x1="1090" y1="1" x2="1090" y2="108" style="stroke:#ddd;stroke-width:2"></line>
<line x1="1199" y1="1" x2="1199" y2="108" style="stroke:#ddd;stroke-width:2"></line>
<line x1="1308" y1="1" x2="1308" y2="108" style="stroke:#ddd;stroke-width:2"></line>
<line x1="1417" y1="1" x2="1417" y2="108" style="stroke:#ddd;stroke-width:2"></line>
<line x1="1526" y1="1" x2="1526" y2="108" style="stroke:#ddd;stroke-width:2"></line>
<line x1="1" y1="54" x2="1634" y2="54" style="stroke:#ddd;stroke-width:2;stroke-dasharray:3 3"></line>
<line x1="55" y1="1" x2="55" y2="108" style="stroke:#ddd;stroke-width:2;stroke-dasharray:3 3"></line>
<line x1="164" y1="1" x2="164" y2="108" style="stroke:#ddd;stroke-width:2;stroke-dasharray:3 3"></line>
<line x1="273" y1="1" x2="273" y2="108" style="stroke:#ddd;stroke-width:2;stroke-dasharray:3 3"></line>
<line x1="382" y1="1" x2="382" y2="108" style="stroke:#ddd;stroke-width:2;stroke-dasharray:3 3"></line>
<line x1="491" y1="1" x2="491" y2="108" style="stroke:#ddd;stroke-width:2;stroke-dasharray:3 3"></line>
<line x1="600" y1="1" x2="600" y2="108" style="stroke:#ddd;stroke-width:2;stroke-dasharray:3 3"></line>
<line x1="709" y1="1" x2="709" y2="108" style="stroke:#ddd;stroke-width:2;stroke-dasharray:3 3"></line>
<line x1="818" y1="1" x2="818" y2="108" style="stroke:#ddd;stroke-width:2;stroke-dasharray:3 3"></line>
<line x1="927" y1="1" x2="927" y2="108" style="stroke:#ddd;stroke-width:2;stroke-dasharray:3 3"></line>
<line x1="1036" y1="1" x2="1036" y2="108" style="stroke:#ddd;stroke-width:2;stroke-dasharray:3 3"></line>
<line x1="1145" y1="1" x2="1145" y2="108" style="stroke:#ddd;stroke-width:2;stroke-dasharray:3 3"></line>
<line x1="1254" y1="1" x2="1254" y2="108" style="stroke:#ddd;stroke-width:2;stroke-dasharray:3 3"></line>
<line x1="1363" y1="1" x2="1363" y2="108" style="stroke:#ddd;stroke-width:2;stroke-dasharray:3 3"></line>
<line x1="1472" y1="1" x2="1472" y2="108" style="stroke:#ddd;stroke-width:2;stroke-dasharray:3 3"></line>
<line x1="1581" y1="1" x2="1581" y2="108" style="stroke:#ddd;stroke-width:2;stroke-dasharray:3 3"></line>
<path d="M10.28,34.02c0.39,0.27,2.69,0.46,3.73,0.35c4.44-0.46,16.54-0.23,23.68-1.59c1.03-0.2,2.42-0.27,3.07,0" style="fill:none;stroke:#999;stroke-width:3"></path>

<path d="M119.28,34.02c0.39,0.27,2.69,0.46,3.73,0.35c4.44-0.46,16.54-0.23,23.68-1.59c1.03-0.2,2.42-0.27,3.07,0" style="fill:none;stroke:#999;stroke-width:3"></path>
<path d="M136.36,13.5c0.91,0.47,2.54,2.25,2.54,4.42c0,0.95-0.12,71.75-0.3,77.58" style="fill:none;stroke:#999;stroke-width:3"></path>

<path d="M228.28,34.02c0.39,0.27,2.69,0.46,3.73,0.35c4.44-0.46,16.54-0.23,23.68-1.59c1.03-0.2,2.42-0.27,3.07,0" style="fill:none;stroke:#999;stroke-width:3"></path>
<path d="M245.36,13.5c0.91,0.47,2.54,2.25,2.54,4.42c0,0.95-0.12,71.75-0.3,77.58" style="fill:none;stroke:#999;stroke-width:3"></path>
<path d="M247.69,37.53c-5.9,17-9.19,24.18-18.33,39.06" style="fill:none;stroke:#999;stroke-width:3"></path>

<path d="M337.28,34.02c0.39,0.27,2.69,0.46,3.73,0.35c4.44-0.46,16.54-0.23,23.68-1.59c1.03-0.2,2.42-0.27,3.07,0" style="fill:none;stroke:#999;stroke-width:3"></path>
<path d="M354.36,13.5c0.91,0.47,2.54,2.25,2.54,4.42c0,0.95-0.12,71.75-0.3,77.58" style="fill:none;stroke:#999;stroke-width:3"></path>
<path d="M356.69,37.53c-5.9,17-9.19,24.18-18.33,39.06" style="fill:none;stroke:#999;stroke-width:3"></path>
<path d="M358.97,48.4c2.37,1.59,6.28,7.76,8.28,10.85" style="fill:none;stroke:#999;stroke-width:3"></path>

<path d="M446.28,34.02c0.39,0.27,2.69,0.46,3.73,0.35c4.44-0.46,16.54-0.23,23.68-1.59c1.03-0.2,2.42-0.27,3.07,0" style="fill:none;stroke:#999;stroke-width:3"></path>
<path d="M463.36,13.5c0.91,0.47,2.54,2.25,2.54,4.42c0,0.95-0.12,71.75-0.3,77.58" style="fill:none;stroke:#999;stroke-width:3"></path>
<path d="M465.69,37.53c-5.9,17-9.19,24.18-18.33,39.06" style="fill:none;stroke:#999;stroke-width:3"></path>
<path d="M467.97,48.4c2.37,1.59,6.28,7.76,8.28,10.85" style="fill:none;stroke:#999;stroke-width:3"></path>
<path d="M485.71,12.06c2.96,1.62,7.65,6.67,8.4,9.19" style="fill:none;stroke:#999;stroke-width:3"></path>

<path d="M555.28,34.02c0.39,0.27,2.69,0.46,3.73,0.35c4.44-0.46,16.54-0.23,23.68-1.59c1.03-0.2,2.42-0.27,3.07,0" style="fill:none;stroke:#999;stroke-width:3"></path>
<path d="M572.36,13.5c0.91,0.47,2.54,2.25,2.54,4.42c0,0.95-0.12,71.75-0.3,77.58" style="fill:none;stroke:#999;stroke-width:3"></path>
<path d="M574.69,37.53c-5.9,17-9.19,24.18-18.33,39.06" style="fill:none;stroke:#999;stroke-width:3"></path>
<path d="M576.97,48.4c2.37,1.59,6.28,7.76,8.28,10.85" style="fill:none;stroke:#999;stroke-width:3"></path>
<path d="M594.71,12.06c2.96,1.62,7.65,6.67,8.4,9.19" style="fill:none;stroke:#999;stroke-width:3"></path>
<path d="M623.12,10.39c0.03,0.28,0.05,0.71-0.04,1.11c-0.55,2.33-3.73,7.45-8.09,10.58" style="fill:none;stroke:#999;stroke-width:3"></path>

<path d="M664.28,34.02c0.39,0.27,2.69,0.46,3.73,0.35c4.44-0.46,16.54-0.23,23.68-1.59c1.03-0.2,2.42-0.27,3.07,0" style="fill:none;stroke:#999;stroke-width:3"></path>
<path d="M681.36,13.5c0.91,0.47,2.54,2.25,2.54,4.42c0,0.95-0.12,71.75-0.3,77.58" style="fill:none;stroke:#999;stroke-width:3"></path>
<path d="M683.69,37.53c-5.9,17-9.19,24.18-18.33,39.06" style="fill:none;stroke:#999;stroke-width:3"></path>
<path d="M685.97,48.4c2.37,1.59,6.28,7.76,8.28,10.85" style="fill:none;stroke:#999;stroke-width:3"></path>
<path d="M703.71,12.06c2.96,1.62,7.65,6.67,8.4,9.19" style="fill:none;stroke:#999;stroke-width:3"></path>
<path d="M732.12,10.39c0.03,0.28,0.05,0.71-0.04,1.11c-0.55,2.33-3.73,7.45-8.09,10.58" style="fill:none;stroke:#999;stroke-width:3"></path>
<path d="M701.33,27.05c0.73,0.13,2.06,0.15,2.79,0.13c7.02-0.19,28.27-2.06,35.02-2.24c1.21-0.03,1.94,0.06,2.54,0.13" style="fill:none;stroke:#999;stroke-width:3"></path>

<path d="M773.28,34.02c0.39,0.27,2.69,0.46,3.73,0.35c4.44-0.46,16.54-0.23,23.68-1.59c1.03-0.2,2.42-0.27,3.07,0" style="fill:none;stroke:#999;stroke-width:3"></path>
<path d="M790.36,13.5c0.91,0.47,2.54,2.25,2.54,4.42c0,0.95-0.12,71.75-0.3,77.58" style="fill:none;stroke:#999;stroke-width:3"></path>
<path d="M792.69,37.53c-5.9,17-9.19,24.18-18.33,39.06" style="fill:none;stroke:#999;stroke-width:3"></path>
<path d="M794.97,48.4c2.37,1.59,6.28,7.76,8.28,10.85" style="fill:none;stroke:#999;stroke-width:3"></path>
<path d="M812.71,12.06c2.96,1.62,7.65,6.67,8.4,9.19" style="fill:none;stroke:#999;stroke-width:3"></path>
<path d="M841.12,10.39c0.03,0.28,0.05,0.71-0.04,1.11c-0.55,2.33-3.73,7.45-8.09,10.58" style="fill:none;stroke:#999;stroke-width:3"></path>
<path d="M810.33,27.05c0.73,0.13,2.06,0.15,2.79,0.13c7.02-0.19,28.27-2.06,35.02-2.24c1.21-0.03,1.94,0.06,2.54,0.13" style="fill:none;stroke:#999;stroke-width:3"></path>
<path d="M828.17,28.8c0.72,0.42,1.31,1.86,1.31,2.72c0,4.88-0.15,5.15-0.15,14.37" style="fill:none;stroke:#999;stroke-width:3"></path>

<path d="M882.28,34.02c0.39,0.27,2.69,0.46,3.73,0.35c4.44-0.46,16.54-0.23,23.68-1.59c1.03-0.2,2.42-0.27,3.07,0" style="fill:none;stroke:#999;stroke-width:3"></path>
<path d="M899.36,13.5c0.91,0.47,2.54,2.25,2.54,4.42c0,0.95-0.12,71.75-0.3,77.58" style="fill:none;stroke:#999;stroke-width:3"></path>
<path d="M901.69,37.53c-5.9,17-9.19,24.18-18.33,39.06" style="fill:none;stroke:#999;stroke-width:3"></path>
<path d="M903.97,48.4c2.37,1.59,6.28,7.76,8.28,10.85" style="fill:none;stroke:#999;stroke-width:3"></path>
<path d="M921.71,12.06c2.96,1.62,7.65,6.67,8.4,9.19" style="fill:none;stroke:#999;stroke-width:3"></path>
<path d="M950.12,10.39c0.03,0.28,0.05,0.71-0.04,1.11c-0.55,2.33-3.73,7.45-8.09,10.58" style="fill:none;stroke:#999;stroke-width:3"></path>
<path d="M919.33,27.05c0.73,0.13,2.06,0.15,2.79,0.13c7.02-0.19,28.27-2.06,35.02-2.24c1.21-0.03,1.94,0.06,2.54,0.13" style="fill:none;stroke:#999;stroke-width:3"></path>
<path d="M937.17,28.8c0.72,0.42,1.31,1.86,1.31,2.72c0,4.88-0.15,5.15-0.15,14.37" style="fill:none;stroke:#999;stroke-width:3"></path>
<path d="M921.1,37.54c0.71,0.32,2,0.37,2.71,0.32c6.31-0.42,24.15-3.28,30.52-3.16c1.18,0.02,1.89,0.15,2.48,0.31" style="fill:none;stroke:#999;stroke-width:3"></path>

<path d="M991.28,34.02c0.39,0.27,2.69,0.46,3.73,0.35c4.44-0.46,16.54-0.23,23.68-1.59c1.03-0.2,2.42-0.27,3.07,0" style="fill:none;stroke:#999;stroke-width:3"></path>
<path d="M1008.36,13.5c0.91,0.47,2.54,2.25,2.54,4.42c0,0.95-0.12,71.75-0.3,77.58" style="fill:none;stroke:#999;stroke-width:3"></path>
<path d="M1010.69,37.53c-5.9,17-9.19,24.18-18.33,39.06" style="fill:none;stroke:#999;stroke-width:3"></path>
<path d="M1012.97,48.4c2.37,1.59,6.28,7.76,8.28,10.85" style="fill:none;stroke:#999;stroke-width:3"></path>
<path d="M1030.71,12.06c2.96,1.62,7.65,6.67,8.4,9.19" style="fill:none;stroke:#999;stroke-width:3"></path>
<path d="M1059.12,10.39c0.03,0.28,0.05,0.71-0.04,1.11c-0.55,2.33-3.73,7.45-8.09,10.58" style="fill:none;stroke:#999;stroke-width:3"></path>
<path d="M1028.33,27.05c0.73,0.13,2.06,0.15,2.79,0.13c7.02-0.19,28.27-2.06,35.02-2.24c1.21-0.03,1.94,0.06,2.54,0.13" style="fill:none;stroke:#999;stroke-width:3"></path>
<path d="M1046.17,28.8c0.72,0.42,1.31,1.86,1.31,2.72c0,4.88-0.15,5.15-0.15,14.37" style="fill:none;stroke:#999;stroke-width:3"></path>
<path d="M1030.1,37.54c0.71,0.32,2,0.37,2.71,0.32c6.31-0.42,24.15-3.28,30.52-3.16c1.18,0.02,1.89,0.15,2.48,0.31" style="fill:none;stroke:#999;stroke-width:3"></path>
<path d="M1023.63,47.45c1.33,0.4,3.77,0.51,5.1,0.4c8.09-0.7,27.41-2.7,41.99-3.52c2.21-0.12,3.55,0.19,4.65,0.39" style="fill:none;stroke:#999;stroke-width:3"></path>

<path d="M1100.28,34.02c0.39,0.27,2.69,0.46,3.73,0.35c4.44-0.46,16.54-0.23,23.68-1.59c1.03-0.2,2.42-0.27,3.07,0" style="fill:none;stroke:#999;stroke-width:3"></path>
<path d="M1117.3600000000001,13.5c0.91,0.47,2.54,2.25,2.54,4.42c0,0.95-0.12,71.75-0.3,77.58" style="fill:none;stroke:#999;stroke-width:3"></path>
<path d="M1119.69,37.53c-5.9,17-9.19,24.18-18.33,39.06" style="fill:none;stroke:#999;stroke-width:3"></path>
<path d="M1121.97,48.4c2.37,1.59,6.28,7.76,8.28,10.85" style="fill:none;stroke:#999;stroke-width:3"></path>
<path d="M1139.71,12.06c2.96,1.62,7.65,6.67,8.4,9.19" style="fill:none;stroke:#999;stroke-width:3"></path>
<path d="M1168.12,10.39c0.03,0.28,0.05,0.71-0.04,1.11c-0.55,2.33-3.73,7.45-8.09,10.58" style="fill:none;stroke:#999;stroke-width:3"></path>
<path d="M1137.33,27.05c0.73,0.13,2.06,0.15,2.79,0.13c7.02-0.19,28.27-2.06,35.02-2.24c1.21-0.03,1.94,0.06,2.54,0.13" style="fill:none;stroke:#999;stroke-width:3"></path>
<path d="M1155.17,28.8c0.72,0.42,1.31,1.86,1.31,2.72c0,4.88-0.15,5.15-0.15,14.37" style="fill:none;stroke:#999;stroke-width:3"></path>
<path d="M1139.1,37.54c0.71,0.32,2,0.37,2.71,0.32c6.31-0.42,24.15-3.28,30.52-3.16c1.18,0.02,1.89,0.15,2.48,0.31" style="fill:none;stroke:#999;stroke-width:3"></path>
<path d="M1132.63,47.45c1.33,0.4,3.77,0.51,5.1,0.4c8.09-0.7,27.41-2.7,41.99-3.52c2.21-0.12,3.55,0.19,4.65,0.39" style="fill:none;stroke:#999;stroke-width:3"></path>
<path d="M1149.73,50.5c4.28,1.47,7.7,3.5,8.99,5.53" style="fill:none;stroke:#999;stroke-width:3"></path>

<path d="M1209.28,34.02c0.39,0.27,2.69,0.46,3.73,0.35c4.44-0.46,16.54-0.23,23.68-1.59c1.03-0.2,2.42-0.27,3.07,0" style="fill:none;stroke:#999;stroke-width:3"></path>
<path d="M1226.3600000000001,13.5c0.91,0.47,2.54,2.25,2.54,4.42c0,0.95-0.12,71.75-0.3,77.58" style="fill:none;stroke:#999;stroke-width:3"></path>
<path d="M1228.69,37.53c-5.9,17-9.19,24.18-18.33,39.06" style="fill:none;stroke:#999;stroke-width:3"></path>
<path d="M1230.97,48.4c2.37,1.59,6.28,7.76,8.28,10.85" style="fill:none;stroke:#999;stroke-width:3"></path>
<path d="M1248.71,12.06c2.96,1.62,7.65,6.67,8.4,9.19" style="fill:none;stroke:#999;stroke-width:3"></path>
<path d="M1277.12,10.39c0.03,0.28,0.05,0.71-0.04,1.11c-0.55,2.33-3.73,7.45-8.09,10.58" style="fill:none;stroke:#999;stroke-width:3"></path>
<path d="M1246.33,27.05c0.73,0.13,2.06,0.15,2.79,0.13c7.02-0.19,28.27-2.06,35.02-2.24c1.21-0.03,1.94,0.06,2.54,0.13" style="fill:none;stroke:#999;stroke-width:3"></path>
<path d="M1264.17,28.8c0.72,0.42,1.31,1.86,1.31,2.72c0,4.88-0.15,5.15-0.15,14.37" style="fill:none;stroke:#999;stroke-width:3"></path>
<path d="M1248.1,37.54c0.71,0.32,2,0.37,2.71,0.32c6.31-0.42,24.15-3.28,30.52-3.16c1.18,0.02,1.89,0.15,2.48,0.31" style="fill:none;stroke:#999;stroke-width:3"></path>
<path d="M1241.63,47.45c1.33,0.4,3.77,0.51,5.1,0.4c8.09-0.7,27.41-2.7,41.99-3.52c2.21-0.12,3.55,0.19,4.65,0.39" style="fill:none;stroke:#999;stroke-width:3"></path>
<path d="M1258.73,50.5c4.28,1.47,7.7,3.5,8.99,5.53" style="fill:none;stroke:#999;stroke-width:3"></path>
<path d="M1251.01,62.92c0.01,0.07,1.07,0.64,2.62,0.47c2.87-0.32,7.15-1.26,9.95-1.26c1.48,0,3.29,0.58,3.14,2.44c-0.67,7.9-0.33,27.78-0.33,30.39c0,5.29-5.4-0.71-6.76-1.91" style="fill:none;stroke:#999;stroke-width:3"></path>

<path d="M1318.28,34.02c0.39,0.27,2.69,0.46,3.73,0.35c4.44-0.46,16.54-0.23,23.68-1.59c1.03-0.2,2.42-0.27,3.07,0" style="fill:none;stroke:#999;stroke-width:3"></path>
<path d="M1335.3600000000001,13.5c0.91,0.47,2.54,2.25,2.54,4.42c0,0.95-0.12,71.75-0.3,77.58" style="fill:none;stroke:#999;stroke-width:3"></path>
<path d="M1337.69,37.53c-5.9,17-9.19,24.18-18.33,39.06" style="fill:none;stroke:#999;stroke-width:3"></path>
<path d="M1339.97,48.4c2.37,1.59,6.28,7.76,8.28,10.85" style="fill:none;stroke:#999;stroke-width:3"></path>
<path d="M1357.71,12.06c2.96,1.62,7.65,6.67,8.4,9.19" style="fill:none;stroke:#999;stroke-width:3"></path>
<path d="M1386.12,10.39c0.03,0.28,0.05,0.71-0.04,1.11c-0.55,2.33-3.73,7.45-8.09,10.58" style="fill:none;stroke:#999;stroke-width:3"></path>
<path d="M1355.33,27.05c0.73,0.13,2.06,0.15,2.79,0.13c7.02-0.19,28.27-2.06,35.02-2.24c1.21-0.03,1.94,0.06,2.54,0.13" style="fill:none;stroke:#999;stroke-width:3"></path>
<path d="M1373.17,28.8c0.72,0.42,1.31,1.86,1.31,2.72c0,4.88-0.15,5.15-0.15,14.37" style="fill:none;stroke:#999;stroke-width:3"></path>
<path d="M1357.1,37.54c0.71,0.32,2,0.37,2.71,0.32c6.31-0.42,24.15-3.28,30.52-3.16c1.18,0.02,1.89,0.15,2.48,0.31" style="fill:none;stroke:#999;stroke-width:3"></path>
<path d="M1350.63,47.45c1.33,0.4,3.77,0.51,5.1,0.4c8.09-0.7,27.41-2.7,41.99-3.52c2.21-0.12,3.55,0.19,4.65,0.39" style="fill:none;stroke:#999;stroke-width:3"></path>
<path d="M1367.73,50.5c4.28,1.47,7.7,3.5,8.99,5.53" style="fill:none;stroke:#999;stroke-width:3"></path>
<path d="M1360.01,62.92c0.01,0.07,1.07,0.64,2.62,0.47c2.87-0.32,7.15-1.26,9.95-1.26c1.48,0,3.29,0.58,3.14,2.44c-0.67,7.9-0.33,27.78-0.33,30.39c0,5.29-5.4-0.71-6.76-1.91" style="fill:none;stroke:#999;stroke-width:3"></path>
<path d="M1350.64,73.68c1.07,0.13,2.31,0.52,3.37,0.26c1.06-0.26,8.78-1.14,10.55-1.66c1.77-0.52,2.3,1.42,1.66,2.56C1362.79,81,1357.5,86,1349.87,91.43" style="fill:none;stroke:#999;stroke-width:3"></path>

<path d="M1427.28,34.02c0.39,0.27,2.69,0.46,3.73,0.35c4.44-0.46,16.54-0.23,23.68-1.59c1.03-0.2,2.42-0.27,3.07,0" style="fill:none;stroke:#999;stroke-width:3"></path>
<path d="M1444.3600000000001,13.5c0.91,0.47,2.54,2.25,2.54,4.42c0,0.95-0.12,71.75-0.3,77.58" style="fill:none;stroke:#999;stroke-width:3"></path>
<path d="M1446.69,37.53c-5.9,17-9.19,24.18-18.33,39.06" style="fill:none;stroke:#999;stroke-width:3"></path>
<path d="M1448.97,48.4c2.37,1.59,6.28,7.76,8.28,10.85" style="fill:none;stroke:#999;stroke-width:3"></path>
<path d="M1466.71,12.06c2.96,1.62,7.65,6.67,8.4,9.19" style="fill:none;stroke:#999;stroke-width:3"></path>
<path d="M1495.12,10.39c0.03,0.28,0.05,0.71-0.04,1.11c-0.55,2.33-3.73,7.45-8.09,10.58" style="fill:none;stroke:#999;stroke-width:3"></path>
<path d="M1464.33,27.05c0.73,0.13,2.06,0.15,2.79,0.13c7.02-0.19,28.27-2.06,35.02-2.24c1.21-0.03,1.94,0.06,2.54,0.13" style="fill:none;stroke:#999;stroke-width:3"></path>
<path d="M1482.17,28.8c0.72,0.42,1.31,1.86,1.31,2.72c0,4.88-0.15,5.15-0.15,14.37" style="fill:none;stroke:#999;stroke-width:3"></path>
<path d="M1466.1,37.54c0.71,0.32,2,0.37,2.71,0.32c6.31-0.42,24.15-3.28,30.52-3.16c1.18,0.02,1.89,0.15,2.48,0.31" style="fill:none;stroke:#999;stroke-width:3"></path>
<path d="M1459.63,47.45c1.33,0.4,3.77,0.51,5.1,0.4c8.09-0.7,27.41-2.7,41.99-3.52c2.21-0.12,3.55,0.19,4.65,0.39" style="fill:none;stroke:#999;stroke-width:3"></path>
<path d="M1476.73,50.5c4.28,1.47,7.7,3.5,8.99,5.53" style="fill:none;stroke:#999;stroke-width:3"></path>
<path d="M1469.01,62.92c0.01,0.07,1.07,0.64,2.62,0.47c2.87-0.32,7.15-1.26,9.95-1.26c1.48,0,3.29,0.58,3.14,2.44c-0.67,7.9-0.33,27.78-0.33,30.39c0,5.29-5.4-0.71-6.76-1.91" style="fill:none;stroke:#999;stroke-width:3"></path>
<path d="M1459.64,73.68c1.07,0.13,2.31,0.52,3.37,0.26c1.06-0.26,8.78-1.14,10.55-1.66c1.77-0.52,2.3,1.42,1.66,2.56C1471.79,81,1466.5,86,1458.87,91.43" style="fill:none;stroke:#999;stroke-width:3"></path>
<path d="M1503.96,60.53c0.07,0.33,0.13,0.9-0.15,1.33c-2.62,4.07-8.46,9.47-13.2,11.59" style="fill:none;stroke:#999;stroke-width:3"></path>

<path d="M1536.28,34.02c0.39,0.27,2.69,0.46,3.73,0.35c4.44-0.46,16.54-0.23,23.68-1.59c1.03-0.2,2.42-0.27,3.07,0" style="fill:none;stroke:#999;stroke-width:3"></path>
<path d="M1553.3600000000001,13.5c0.91,0.47,2.54,2.25,2.54,4.42c0,0.95-0.12,71.75-0.3,77.58" style="fill:none;stroke:#999;stroke-width:3"></path>
<path d="M1555.69,37.53c-5.9,17-9.19,24.18-18.33,39.06" style="fill:none;stroke:#999;stroke-width:3"></path>
<path d="M1557.97,48.4c2.37,1.59,6.28,7.76,8.28,10.85" style="fill:none;stroke:#999;stroke-width:3"></path>
<path d="M1575.71,12.06c2.96,1.62,7.65,6.67,8.4,9.19" style="fill:none;stroke:#999;stroke-width:3"></path>
<path d="M1604.12,10.39c0.03,0.28,0.05,0.71-0.04,1.11c-0.55,2.33-3.73,7.45-8.09,10.58" style="fill:none;stroke:#999;stroke-width:3"></path>
<path d="M1573.33,27.05c0.73,0.13,2.06,0.15,2.79,0.13c7.02-0.19,28.27-2.06,35.02-2.24c1.21-0.03,1.94,0.06,2.54,0.13" style="fill:none;stroke:#999;stroke-width:3"></path>
<path d="M1591.17,28.8c0.72,0.42,1.31,1.86,1.31,2.72c0,4.88-0.15,5.15-0.15,14.37" style="fill:none;stroke:#999;stroke-width:3"></path>
<path d="M1575.1,37.54c0.71,0.32,2,0.37,2.71,0.32c6.31-0.42,24.15-3.28,30.52-3.16c1.18,0.02,1.89,0.15,2.48,0.31" style="fill:none;stroke:#999;stroke-width:3"></path>
<path d="M1568.63,47.45c1.33,0.4,3.77,0.51,5.1,0.4c8.09-0.7,27.41-2.7,41.99-3.52c2.21-0.12,3.55,0.19,4.65,0.39" style="fill:none;stroke:#999;stroke-width:3"></path>
<path d="M1585.73,50.5c4.28,1.47,7.7,3.5,8.99,5.53" style="fill:none;stroke:#999;stroke-width:3"></path>
<path d="M1578.01,62.92c0.01,0.07,1.07,0.64,2.62,0.47c2.87-0.32,7.15-1.26,9.95-1.26c1.48,0,3.29,0.58,3.14,2.44c-0.67,7.9-0.33,27.78-0.33,30.39c0,5.29-5.4-0.71-6.76-1.91" style="fill:none;stroke:#999;stroke-width:3"></path>
<path d="M1568.64,73.68c1.07,0.13,2.31,0.52,3.37,0.26c1.06-0.26,8.78-1.14,10.55-1.66c1.77-0.52,2.3,1.42,1.66,2.56C1580.79,81,1575.5,86,1567.87,91.43" style="fill:none;stroke:#999;stroke-width:3"></path>
<path d="M1612.96,60.53c0.07,0.33,0.13,0.9-0.15,1.33c-2.62,4.07-8.46,9.47-13.2,11.59" style="fill:none;stroke:#999;stroke-width:3"></path>
<path d="M1596.2,71.62c7.55,6.88,14.55,14.13,21.56,19.42c1.25,0.94,2.61,1.21,3.84,1.49" style="fill:none;stroke:#999;stroke-width:3"></path>

</svg>