<svg width="1199px" height="109px" viewBox="0 0 1199 109" xmlns="http://www.w3.org/2000/svg" xmlns:xlink="http://www.w3.org/1999/xlink" xml:space="preserve" version="1.1" baseProfile="full">
<line x1="1" y1="1" x2="1198" y2="1" style="stroke:#ddd;stroke-width:2"></line>
<line x1="1" y1="1" x2="1" y2="108" style="stroke:#ddd;stroke-width:2"></line>
<line x1="1" y1="108" x2="1198" y2="108" style="stroke:#ddd;stroke-width:2"></line>
<line x1="1198" y1="1" x2="1198" y2="108" style="stroke:#ddd;stroke-width:2"></line>
<line x1="109" y1="1" x2="109" y2="108" style="stroke:#ddd;stroke-width:2"></line>
<line x1="218" y1="1" x2="218" y2="108" style="stroke:#ddd;stroke-width:2"></line>
<line x1="327" y1="1" x2="327" y2="108" style="stroke:#ddd;stroke-width:2"></line>
<line x1="436" y1="1" x2="436" y2="108" style="stroke:#ddd;stroke-width:2"></line>
<line x1="545" y1="1" x2="545" y2="108" style="stroke:#ddd;stroke-width:2"></line>
<line x1="654" y1="1" x2="654" y2="108" style="stroke:#ddd;stroke-width:2"></line>
<line x1="763" y1="1" x2="763" y2="108" style="stroke:#ddd;stroke-width:2"></line>
<line x1="872" y1="1" x2="872" y2="108" style="stroke:#ddd;stroke-width:2"></line>
<line x1="981" y1="1" x2="981" y2="108" style="stroke:#ddd;stroke-width:2"></line>
<line x1="1090" y1="1" x2="1090" y2="108" style="stroke:#ddd;stroke-width:2"></line>
<line x1="1" y1="54" x2="1198" y2="54" style="stroke:#ddd;stroke-width:2;stroke-dasharray:3 3"></line>
<line x1="55" y1="1" x2="55" y2="108" style="stroke:#ddd;stroke-width:2;stroke-dasharray:3 3"></line>
<line x1="164" y1="1" x2="164" y2="108" style="stroke:#ddd;stroke-width:2;stroke-dasharray:3 3"></line>
<line x1="273" y1="1" x2="273" y2="108" style="stroke:#ddd;stroke-width:2;stroke-dasharray:3 3"></line>
<line x1="382" y1="1" x2="382" y2="108" style="stroke:#ddd;stroke-width:2;stroke-dasharray:3 3"></line>
<line x1="491" y1="1" x2="491" y2="108" style="stroke:#ddd;stroke-width:2;stroke-dasharray:3 3"></line>
<line x1="600" y1="1" x2="600" y2="108" style="stroke:#ddd;stroke-width:2;stroke-dasharray:3 3"></line>
<line x1="709" y1="1" x2="709" y2="108" style="stroke:#ddd;stroke-width:2;stroke-dasharray:3 3"></line>
<line x1="818" y1="1" x2="818" y2="108" style="stroke:#ddd;stroke-width:2;stroke-dasharray:3 3"></line>
<line x1="927" y1="1" x2="927" y2="108" style="stroke:#ddd;stroke-width:2;stroke-dasharray:3 3"></line>
<line x1="1036" y1="1" x2="1036" y2="108" style="stroke:#ddd;stroke-width:2;stroke-dasharray:3 3"></line>
<line x1="1145" y1="1" x2="1145" y2="108" style="stroke:#ddd;stroke-width:2;stroke-dasharray:3 3"></line>
<path d="M44.87,11.18c0.21,1.14-0.26,1.78-1.06,2.55c-6.79,6.53-16.5,14.26-28.29,18.71" style="fill:none;stroke:#999;stroke-width:3"></path>

<path d="M153.87,11.18c0.21,1.14-0.26,1.78-1.06,2.55c-6.79,6.53-16.5,14.26-28.29,18.71" style="fill:none;stroke:#999;stroke-width:3"></path>
<path d="M128.8,16.22c8.45,2.53,17.95,8.03,24.42,15.53" style="fill:none;stroke:#999;stroke-width:3"></path>

<path d="M262.87,11.18c0.21,1.14-0.26,1.78-1.06,2.55c-6.79,6.53-16.5,14.26-28.29,18.71" style="fill:none;stroke:#999;stroke-width:3"></path>
<path d="M237.8,16.22c8.45,2.53,17.95,8.03,24.42,15.53" style="fill:none;stroke:#999;stroke-width:3"></path>
<path d="M249.73,31.67c0.06,0.85-0.11,2.27-0.51,3.43c-3.07,8.89-8.7,21.14-20.78,32.8" style="fill:none;stroke:#999;stroke-width:3"></path>

<path d="M371.87,11.18c0.21,1.14-0.26,1.78-1.06,2.55c-6.79,6.53-16.5,14.26-28.29,18.71" style="fill:none;stroke:#999;stroke-width:3"></path>
<path d="M346.8,16.22c8.45,2.53,17.95,8.03,24.42,15.53" style="fill:none;stroke:#999;stroke-width:3"></path>
<path d="M358.73,31.67c0.06,0.85-0.11,2.27-0.51,3.43c-3.07,8.89-8.7,21.14-20.78,32.8" style="fill:none;stroke:#999;stroke-width:3"></path>
<path d="M338.36,43.66c1.16,0.47,3.28,0.54,4.45,0.47c10.11-0.63,19.75-2.01,33.08-2.44c1.93-0.06,3.1,0.23,4.06,0.46" style="fill:none;stroke:#999;stroke-width:3"></path>

<path d="M480.87,11.18c0.21,1.14-0.26,1.78-1.06,2.55c-6.79,6.53-16.5,14.26-28.29,18.71" style="fill:none;stroke:#999;stroke-width:3"></path>
<path d="M455.8,16.22c8.45,2.53,17.95,8.03,24.42,15.53" style="fill:none;stroke:#999;stroke-width:3"></path>
<path d="M467.73,31.67c0.06,0.85-0.11,2.27-0.51,3.43c-3.07,8.89-8.7,21.14-20.78,32.8" style="fill:none;stroke:#999;stroke-width:3"></path>
<path d="M447.36,43.66c1.16,0.47,3.28,0.54,4.45,0.47c10.11-0.63,19.75-2.01,33.08-2.44c1.93-0.06,3.1,0.23,4.06,0.46" style="fill:none;stroke:#999;stroke-width:3"></path>
<path d="M455.52,59.1c0.3,0.3,0.95,2.21,1.01,2.8s1.96,23.75,1.9,27.44" style="fill:none;stroke:#999;stroke-width:3"></path>

<path d="M589.87,11.18c0.21,1.14-0.26,1.78-1.06,2.55c-6.79,6.53-16.5,14.26-28.29,18.71" style="fill:none;stroke:#999;stroke-width:3"></path>
<path d="M564.8,16.22c8.45,2.53,17.95,8.03,24.42,15.53" style="fill:none;stroke:#999;stroke-width:3"></path>
<path d="M576.73,31.67c0.06,0.85-0.11,2.27-0.51,3.43c-3.07,8.89-8.7,21.14-20.78,32.8" style="fill:none;stroke:#999;stroke-width:3"></path>
<path d="M556.36,43.66c1.16,0.47,3.28,0.54,4.45,0.47c10.11-0.63,19.75-2.01,33.08-2.44c1.93-0.06,3.1,0.23,4.06,0.46" style="fill:none;stroke:#999;stroke-width:3"></path>
<path d="M564.52,59.1c0.3,0.3,0.95,2.21,1.01,2.8s1.96,23.75,1.9,27.44" style="fill:none;stroke:#999;stroke-width:3"></path>
<path d="M565.94,60.79c1.9-0.21,24.65-2.82,26.07-2.95c1.67-0.15,3.81,0.91,3.69,3.45c-0.45,9.21-0.7,12.96-2.03,19.15c-1.9,8.87-5.12,2.55-5.75,1.51" style="fill:none;stroke:#999;stroke-width:3"></path>

<path d="M698.87,11.18c0.21,1.14-0.26,1.78-1.06,2.55c-6.79,6.53-16.5,14.26-28.29,18.71" style="fill:none;stroke:#999;stroke-width:3"></path>
<path d="M673.8,16.22c8.45,2.53,17.95,8.03,24.42,15.53" style="fill:none;stroke:#999;stroke-width:3"></path>
<path d="M685.73,31.67c0.06,0.85-0.11,2.27-0.51,3.43c-3.07,8.89-8.7,21.14-20.78,32.8" style="fill:none;stroke:#999;stroke-width:3"></path>
<path d="M665.36,43.66c1.16,0.47,3.28,0.54,4.45,0.47c10.11-0.63,19.75-2.01,33.08-2.44c1.93-0.06,3.1,0.23,4.06,0.46" style="fill:none;stroke:#999;stroke-width:3"></path>
<path d="M673.52,59.1c0.3,0.3,0.95,2.21,1.01,2.8s1.96,23.75,1.9,27.44" style="fill:none;stroke:#999;stroke-width:3"></path>
<path d="M674.94,60.79c1.9-0.21,24.65-2.82,26.07-2.95c1.67-0.15,3.81,0.91,3.69,3.45c-0.45,9.21-0.7,12.96-2.03,19.15c-1.9,8.87-5.12,2.55-5.75,1.51" style="fill:none;stroke:#999;stroke-width:3"></path>
<path d="M688.56,49.5c0.3,0.35,0.95,2.6,1.01,3.29c0.06,0.69-0.04,42.38-0.1,46.71" style="fill:none;stroke:#999;stroke-width:3"></path>

<path d="M807.87,11.18c0.21,1.14-0.26,1.78-1.06,2.55c-6.79,6.53-16.5,14.26-28.29,18.71" style="fill:none;stroke:#999;stroke-width:3"></path>
<path d="M782.8,16.22c8.45,2.53,17.95,8.03,24.42,15.53" style="fill:none;stroke:#999;stroke-width:3"></path>
<path d="M794.73,31.67c0.06,0.85-0.11,2.27-0.51,3.43c-3.07,8.89-8.7,21.14-20.78,32.8" style="fill:none;stroke:#999;stroke-width:3"></path>
<path d="M774.36,43.66c1.16,0.47,3.28,0.54,4.45,0.47c10.11-0.63,19.75-2.01,33.08-2.44c1.93-0.06,3.1,0.23,4.06,0.46" style="fill:none;stroke:#999;stroke-width:3"></path>
<path d="M782.52,59.1c0.3,0.3,0.95,2.21,1.01,2.8s1.96,23.75,1.9,27.44" style="fill:none;stroke:#999;stroke-width:3"></path>
<path d="M783.94,60.79c1.9-0.21,24.65-2.82,26.07-2.95c1.67-0.15,3.81,0.91,3.69,3.45c-0.45,9.21-0.7,12.96-2.03,19.15c-1.9,8.87-5.12,2.55-5.75,1.51" style="fill:none;stroke:#999;stroke-width:3"></path>
<path d="M797.56,49.5c0.3,0.35,0.95,2.6,1.01,3.29c0.06,0.69-0.04,42.38-0.1,46.71" style="fill:none;stroke:#999;stroke-width:3"></path>
<path d="M830.25,13.5c0.03,0.86,0.07,2.22-0.07,3.45C829.3199999999999,24.24,826.0,40.25,817.64,50" style="fill:none;stroke:#999;stroke-width:3"></path>

<path d="M916.87,11.18c0.21,1.14-0.26,1.78-1.06,2.55c-6.79,6.53-16.5,14.26-28.29,18.71" style="fill:none;stroke:#999;stroke-width:3"></path>
<path d="M891.8,16.22c8.45,2.53,17.95,8.03,24.42,15.53" style="fill:none;stroke:#999;stroke-width:3"></path>
<path d="M903.73,31.67c0.06,0.85-0.11,2.27-0.51,3.43c-3.07,8.89-8.7,21.14-20.78,32.8" style="fill:none;stroke:#999;stroke-width:3"></path>
<path d="M883.36,43.66c1.16,0.47,3.28,0.54,4.45,0.47c10.11-0.63,19.75-2.01,33.08-2.44c1.93-0.06,3.1,0.23,4.06,0.46" style="fill:none;stroke:#999;stroke-width:3"></path>
<path d="M891.52,59.1c0.3,0.3,0.95,2.21,1.01,2.8s1.96,23.75,1.9,27.44" style="fill:none;stroke:#999;stroke-width:3"></path>
<path d="M892.94,60.79c1.9-0.21,24.65-2.82,26.07-2.95c1.67-0.15,3.81,0.91,3.69,3.45c-0.45,9.21-0.7,12.96-2.03,19.15c-1.9,8.87-5.12,2.55-5.75,1.51" style="fill:none;stroke:#999;stroke-width:3"></path>
<path d="M906.56,49.5c0.3,0.35,0.95,2.6,1.01,3.29c0.06,0.69-0.04,42.38-0.1,46.71" style="fill:none;stroke:#999;stroke-width:3"></path>
<path d="M939.25,13.5c0.03,0.86,0.07,2.22-0.07,3.45C938.3199999999999,24.24,935.0,40.25,926.64,50" style="fill:none;stroke:#999;stroke-width:3"></path>
<path d="M935.22,37.49c0.91,0.36,2.64,0.93,4.01,0.61c1.67-0.39,19.68-4.65,21.26-4.85c8-1-1.33,10.59-3,12.5" style="fill:none;stroke:#999;stroke-width:3"></path>

<path d="M1025.87,11.18c0.21,1.14-0.26,1.78-1.06,2.55c-6.79,6.53-16.5,14.26-28.29,18.71" style="fill:none;stroke:#999;stroke-width:3"></path>
<path d="M1000.8,16.22c8.45,2.53,17.95,8.03,24.42,15.53" style="fill:none;stroke:#999;stroke-width:3"></path>
<path d="M1012.73,31.67c0.06,0.85-0.11,2.27-0.51,3.43c-3.07,8.89-8.7,21.14-20.78,32.8" style="fill:none;stroke:#999;stroke-width:3"></path>
<path d="M992.36,43.66c1.16,0.47,3.28,0.54,4.45,0.47c10.11-0.63,19.75-2.01,33.08-2.44c1.93-0.06,3.1,0.23,4.06,0.46" style="fill:none;stroke:#999;stroke-width:3"></path>
<path d="M1000.52,59.1c0.3,0.3,0.95,2.21,1.01,2.8s1.96,23.75,1.9,27.44" style="fill:none;stroke:#999;stroke-width:3"></path>
<path d="M1001.94,60.79c1.9-0.21,24.65-2.82,26.07-2.95c1.67-0.15,3.81,0.91,3.69,3.45c-0.45,9.21-0.7,12.96-2.03,19.15c-1.9,8.87-5.12,2.55-5.75,1.51" style="fill:none;stroke:#999;stroke-width:3"></path>
<path d="M1015.56,49.5c0.3,0.35,0.95,2.6,1.01,3.29c0.06,0.69-0.04,42.38-0.1,46.71" style="fill:none;stroke:#999;stroke-width:3"></path>
<path d="M1048.25,13.5c0.03,0.86,0.07,2.22-0.07,3.45C1047.32,24.24,1044.0,40.25,1035.6399999999999,50" style="fill:none;stroke:#999;stroke-width:3"></path>
<path d="M1044.22,37.49c0.91,0.36,2.64,0.93,4.01,0.61c1.67-0.39,19.68-4.65,21.26-4.85c8-1-1.33,10.59-3,12.5" style="fill:none;stroke:#999;stroke-width:3"></path>
<path d="M1053.6,44c0.07,1.25,0.16,3.21-0.14,5.02C1050.62,66.48,1045.15,84.51,1029.5,97" style="fill:none;stroke:#999;stroke-width:3"></path>

<path d="M1134.87,11.18c0.21,1.14-0.26,1.78-1.06,2.55c-6.79,6.53-16.5,14.26-28.29,18.71" style="fill:none;stroke:#999;stroke-width:3"></path>
<path d="M1109.8,16.22c8.45,2.53,17.95,8.03,24.42,15.53" style="fill:none;stroke:#999;stroke-width:3"></path>
<path d="M1121.73,31.67c0.06,0.85-0.11,2.27-0.51,3.43c-3.07,8.89-8.7,21.14-20.78,32.8" style="fill:none;stroke:#999;stroke-width:3"></path>
<path d="M1101.3600000000001,43.66c1.16,0.47,3.28,0.54,4.45,0.47c10.11-0.63,19.75-2.01,33.08-2.44c1.93-0.06,3.1,0.23,4.06,0.46" style="fill:none;stroke:#999;stroke-width:3"></path>
<path d="M1109.52,59.1c0.3,0.3,0.95,2.21,1.01,2.8s1.96,23.75,1.9,27.44" style="fill:none;stroke:#999;stroke-width:3"></path>
<path d="M1110.94,60.79c1.9-0.21,24.65-2.82,26.07-2.95c1.67-0.15,3.81,0.91,3.69,3.45c-0.45,9.21-0.7,12.96-2.03,19.15c-1.9,8.87-5.12,2.55-5.75,1.51" style="fill:none;stroke:#999;stroke-width:3"></path>
<path d="M1124.56,49.5c0.3,0.35,0.95,2.6,1.01,3.29c0.06,0.69-0.04,42.38-0.1,46.71" style="fill:none;stroke:#999;stroke-width:3"></path>
<path d="M1157.25,13.5c0.03,0.86,0.07,2.22-0.07,3.45C1156.32,24.24,1153.0,40.25,1144.6399999999999,50" style="fill:none;stroke:#999;stroke-width:3"></path>
<path d="M1153.22,37.49c0.91,0.36,2.64,0.93,4.01,0.61c1.67-0.39,19.68-4.65,21.26-4.85c8-1-1.33,10.59-3,12.5" style="fill:none;stroke:#999;stroke-width:3"></path>
<path d="M1162.6,44c0.07,1.25,0.16,3.21-0.14,5.02C1159.62,66.48,1154.15,84.51,1138.5,97" style="fill:none;stroke:#999;stroke-width:3"></path>
<path d="M1160.92,59c3.45,8.53,15.92,28.6,21.59,35.65c1.2,1.49,2.1,2.37,3.24,2.85" style="fill:none;stroke:#999;stroke-width:3"></path>

</svg>