<svg width="1308px" height="109px" viewBox="0 0 1308 109" xmlns="http://www.w3.org/2000/svg" xmlns:xlink="http://www.w3.org/1999/xlink" xml:space="preserve" version="1.1" baseProfile="full">
<line x1="1" y1="1" x2="1307" y2="1" style="stroke:#ddd;stroke-width:2"></line>
<line x1="1" y1="1" x2="1" y2="108" style="stroke:#ddd;stroke-width:2"></line>
<line x1="1" y1="108" x2="1307" y2="108" style="stroke:#ddd;stroke-width:2"></line>
<line x1="1307" y1="1" x2="1307" y2="108" style="stroke:#ddd;stroke-width:2"></line>
<line x1="109" y1="1" x2="109" y2="108" style="stroke:#ddd;stroke-width:2"></line>
<line x1="218" y1="1" x2="218" y2="108" style="stroke:#ddd;stroke-width:2"></line>
<line x1="327" y1="1" x2="327" y2="108" style="stroke:#ddd;stroke-width:2"></line>
<line x1="436" y1="1" x2="436" y2="108" style="stroke:#ddd;stroke-width:2"></line>
<line x1="545" y1="1" x2="545" y2="108" style="stroke:#ddd;stroke-width:2"></line>
<line x1="654" y1="1" x2="654" y2="108" style="stroke:#ddd;stroke-width:2"></line>
<line x1="763" y1="1" x2="763" y2="108" style="stroke:#ddd;stroke-width:2"></line>
<line x1="872" y1="1" x2="872" y2="108" style="stroke:#ddd;stroke-width:2"></line>
<line x1="981" y1="1" x2="981" y2="108" style="stroke:#ddd;stroke-width:2"></line>
<line x1="1090" y1="1" x2="1090" y2="108" style="stroke:#ddd;stroke-width:2"></line>
<line x1="1199" y1="1" x2="1199" y2="108" style="stroke:#ddd;stroke-width:2"></line>
<line x1="1" y1="54" x2="1307" y2="54" style="stroke:#ddd;stroke-width:2;stroke-dasharray:3 3"></line>
<line x1="55" y1="1" x2="55" y2="108" style="stroke:#ddd;stroke-width:2;stroke-dasharray:3 3"></line>
<line x1="164" y1="1" x2="164" y2="108" style="stroke:#ddd;stroke-width:2;stroke-dasharray:3 3"></line>
<line x1="273" y1="1" x2="273" y2="108" style="stroke:#ddd;stroke-width:2;stroke-dasharray:3 3"></line>
<line x1="382" y1="1" x2="382" y2="108" style="stroke:#ddd;stroke-width:2;stroke-dasharray:3 3"></line>
<line x1="491" y1="1" x2="491" y2="108" style="stroke:#ddd;stroke-width:2;stroke-dasharray:3 3"></line>
<line x1="600" y1="1" x2="600" y2="108" style="stroke:#ddd;stroke-width:2;stroke-dasharray:3 3"></line>
<line x1="709" y1="1" x2="709" y2="108" style="stroke:#ddd;stroke-width:2;stroke-dasharray:3 3"></line>
<line x1="818" y1="1" x2="818" y2="108" style="stroke:#ddd;stroke-width:2;stroke-dasharray:3 3"></line>
<line x1="927" y1="1" x2="927" y2="108" style="stroke:#ddd;stroke-width:2;stroke-dasharray:3 3"></line>
<line x1="1036" y1="1" x2="1036" y2="108" style="stroke:#ddd;stroke-width:2;stroke-dasharray:3 3"></line>
<line x1="1145" y1="1" x2="1145" y2="108" style="stroke:#ddd;stroke-width:2;stroke-dasharray:3 3"></line>
<line x1="1254" y1="1" x2="1254" y2="108" style="stroke:#ddd;stroke-width:2;stroke-dasharray:3 3"></line>
<path d="M32.25,15.49c0,1.24-0.09,2.29-0.55,3.46c-2.24,5.75-11.89,19.72-20.23,26.18" style="fill:none;stroke:#999;stroke-width:3"></path>

<path d="M141.25,15.49c0,1.24-0.09,2.29-0.55,3.46c-2.24,5.75-11.89,19.72-20.23,26.18" style="fill:none;stroke:#999;stroke-width:3"></path>
<path d="M143.14,20.46c5.23,2.41,10.73,6.29,14.11,11.04" style="fill:none;stroke:#999;stroke-width:3"></path>

<path d="M250.25,15.49c0,1.24-0.09,2.29-0.55,3.46c-2.24,5.75-11.89,19.72-20.23,26.18" style="fill:none;stroke:#999;stroke-width:3"></path>
<path d="M252.14,20.46c5.23,2.41,10.73,6.29,14.11,11.04" style="fill:none;stroke:#999;stroke-width:3"></path>
<path d="M239.75,42.25c1.63,0.5,3.37,0.44,5.03,0.17c4.1-0.65,8.82-1.74,13.59-2.42c1.26-0.18,2.36-0.25,3.62-0.25" style="fill:none;stroke:#999;stroke-width:3"></path>

<path d="M359.25,15.49c0,1.24-0.09,2.29-0.55,3.46c-2.24,5.75-11.89,19.72-20.23,26.18" style="fill:none;stroke:#999;stroke-width:3"></path>
<path d="M361.14,20.46c5.23,2.41,10.73,6.29,14.11,11.04" style="fill:none;stroke:#999;stroke-width:3"></path>
<path d="M348.75,42.25c1.63,0.5,3.37,0.44,5.03,0.17c4.1-0.65,8.82-1.74,13.59-2.42c1.26-0.18,2.36-0.25,3.62-0.25" style="fill:none;stroke:#999;stroke-width:3"></path>
<path d="M342.34,56.81c2.04,0.56,4.17,0.59,5.67,0.38c5.69-0.79,14-2.33,20.28-3.12c0.74-0.09,2.38-0.38,3.49-0.1" style="fill:none;stroke:#999;stroke-width:3"></path>

<path d="M468.25,15.49c0,1.24-0.09,2.29-0.55,3.46c-2.24,5.75-11.89,19.72-20.23,26.18" style="fill:none;stroke:#999;stroke-width:3"></path>
<path d="M470.14,20.46c5.23,2.41,10.73,6.29,14.11,11.04" style="fill:none;stroke:#999;stroke-width:3"></path>
<path d="M457.75,42.25c1.63,0.5,3.37,0.44,5.03,0.17c4.1-0.65,8.82-1.74,13.59-2.42c1.26-0.18,2.36-0.25,3.62-0.25" style="fill:none;stroke:#999;stroke-width:3"></path>
<path d="M451.34,56.81c2.04,0.56,4.17,0.59,5.67,0.38c5.69-0.79,14-2.33,20.28-3.12c0.74-0.09,2.38-0.38,3.49-0.1" style="fill:none;stroke:#999;stroke-width:3"></path>
<path d="M466.7,43.94c1.24,0.78,1.24,2.52,1.24,3.14c0,4.35,0.62,33.63,0.31,37.98" style="fill:none;stroke:#999;stroke-width:3"></path>

<path d="M577.25,15.49c0,1.24-0.09,2.29-0.55,3.46c-2.24,5.75-11.89,19.72-20.23,26.18" style="fill:none;stroke:#999;stroke-width:3"></path>
<path d="M579.14,20.46c5.23,2.41,10.73,6.29,14.11,11.04" style="fill:none;stroke:#999;stroke-width:3"></path>
<path d="M566.75,42.25c1.63,0.5,3.37,0.44,5.03,0.17c4.1-0.65,8.82-1.74,13.59-2.42c1.26-0.18,2.36-0.25,3.62-0.25" style="fill:none;stroke:#999;stroke-width:3"></path>
<path d="M560.3399999999999,56.81c2.04,0.56,4.17,0.59,5.67,0.38c5.69-0.79,14-2.33,20.28-3.12c0.74-0.09,2.38-0.38,3.49-0.1" style="fill:none;stroke:#999;stroke-width:3"></path>
<path d="M575.7,43.94c1.24,0.78,1.24,2.52,1.24,3.14c0,4.35,0.62,33.63,0.31,37.98" style="fill:none;stroke:#999;stroke-width:3"></path>
<path d="M558.89,68.76c4.37,4.66,6.51,9.71,7.4,12.44" style="fill:none;stroke:#999;stroke-width:3"></path>

<path d="M686.25,15.49c0,1.24-0.09,2.29-0.55,3.46c-2.24,5.75-11.89,19.72-20.23,26.18" style="fill:none;stroke:#999;stroke-width:3"></path>
<path d="M688.14,20.46c5.23,2.41,10.73,6.29,14.11,11.04" style="fill:none;stroke:#999;stroke-width:3"></path>
<path d="M675.75,42.25c1.63,0.5,3.37,0.44,5.03,0.17c4.1-0.65,8.82-1.74,13.59-2.42c1.26-0.18,2.36-0.25,3.62-0.25" style="fill:none;stroke:#999;stroke-width:3"></path>
<path d="M669.3399999999999,56.81c2.04,0.56,4.17,0.59,5.67,0.38c5.69-0.79,14-2.33,20.28-3.12c0.74-0.09,2.38-0.38,3.49-0.1" style="fill:none;stroke:#999;stroke-width:3"></path>
<path d="M684.7,43.94c1.24,0.78,1.24,2.52,1.24,3.14c0,4.35,0.62,33.63,0.31,37.98" style="fill:none;stroke:#999;stroke-width:3"></path>
<path d="M667.89,68.76c4.37,4.66,6.51,9.71,7.4,12.44" style="fill:none;stroke:#999;stroke-width:3"></path>
<path d="M700.7,61.8c0.05,0.95-0.35,1.82-0.66,2.35c-1.29,2.23-2.54,4.11-5.87,8.38" style="fill:none;stroke:#999;stroke-width:3"></path>

<path d="M795.25,15.49c0,1.24-0.09,2.29-0.55,3.46c-2.24,5.75-11.89,19.72-20.23,26.18" style="fill:none;stroke:#999;stroke-width:3"></path>
<path d="M797.14,20.46c5.23,2.41,10.73,6.29,14.11,11.04" style="fill:none;stroke:#999;stroke-width:3"></path>
<path d="M784.75,42.25c1.63,0.5,3.37,0.44,5.03,0.17c4.1-0.65,8.82-1.74,13.59-2.42c1.26-0.18,2.36-0.25,3.62-0.25" style="fill:none;stroke:#999;stroke-width:3"></path>
<path d="M778.3399999999999,56.81c2.04,0.56,4.17,0.59,5.67,0.38c5.69-0.79,14-2.33,20.28-3.12c0.74-0.09,2.38-0.38,3.49-0.1" style="fill:none;stroke:#999;stroke-width:3"></path>
<path d="M793.7,43.94c1.24,0.78,1.24,2.52,1.24,3.14c0,4.35,0.62,33.63,0.31,37.98" style="fill:none;stroke:#999;stroke-width:3"></path>
<path d="M776.89,68.76c4.37,4.66,6.51,9.71,7.4,12.44" style="fill:none;stroke:#999;stroke-width:3"></path>
<path d="M809.7,61.8c0.05,0.95-0.35,1.82-0.66,2.35c-1.29,2.23-2.54,4.11-5.87,8.38" style="fill:none;stroke:#999;stroke-width:3"></path>
<path d="M776.75,90.5c1.38,0.88,2.38,0.88,4,0.25c1.26-0.48,13-4.5,26.25-9.5" style="fill:none;stroke:#999;stroke-width:3"></path>

<path d="M904.25,15.49c0,1.24-0.09,2.29-0.55,3.46c-2.24,5.75-11.89,19.72-20.23,26.18" style="fill:none;stroke:#999;stroke-width:3"></path>
<path d="M906.14,20.46c5.23,2.41,10.73,6.29,14.11,11.04" style="fill:none;stroke:#999;stroke-width:3"></path>
<path d="M893.75,42.25c1.63,0.5,3.37,0.44,5.03,0.17c4.1-0.65,8.82-1.74,13.59-2.42c1.26-0.18,2.36-0.25,3.62-0.25" style="fill:none;stroke:#999;stroke-width:3"></path>
<path d="M887.3399999999999,56.81c2.04,0.56,4.17,0.59,5.67,0.38c5.69-0.79,14-2.33,20.28-3.12c0.74-0.09,2.38-0.38,3.49-0.1" style="fill:none;stroke:#999;stroke-width:3"></path>
<path d="M902.7,43.94c1.24,0.78,1.24,2.52,1.24,3.14c0,4.35,0.62,33.63,0.31,37.98" style="fill:none;stroke:#999;stroke-width:3"></path>
<path d="M885.89,68.76c4.37,4.66,6.51,9.71,7.4,12.44" style="fill:none;stroke:#999;stroke-width:3"></path>
<path d="M918.7,61.8c0.05,0.95-0.35,1.82-0.66,2.35c-1.29,2.23-2.54,4.11-5.87,8.38" style="fill:none;stroke:#999;stroke-width:3"></path>
<path d="M885.75,90.5c1.38,0.88,2.38,0.88,4,0.25c1.26-0.48,13-4.5,26.25-9.5" style="fill:none;stroke:#999;stroke-width:3"></path>
<path d="M938.29,15.75c0.04,0.83-0.03,2.17-0.32,3.34C936.0,27,931.75,38.5,923.97,50" style="fill:none;stroke:#999;stroke-width:3"></path>

<path d="M1013.25,15.49c0,1.24-0.09,2.29-0.55,3.46c-2.24,5.75-11.89,19.72-20.23,26.18" style="fill:none;stroke:#999;stroke-width:3"></path>
<path d="M1015.14,20.46c5.23,2.41,10.73,6.29,14.11,11.04" style="fill:none;stroke:#999;stroke-width:3"></path>
<path d="M1002.75,42.25c1.63,0.5,3.37,0.44,5.03,0.17c4.1-0.65,8.82-1.74,13.59-2.42c1.26-0.18,2.36-0.25,3.62-0.25" style="fill:none;stroke:#999;stroke-width:3"></path>
<path d="M996.3399999999999,56.81c2.04,0.56,4.17,0.59,5.67,0.38c5.69-0.79,14-2.33,20.28-3.12c0.74-0.09,2.38-0.38,3.49-0.1" style="fill:none;stroke:#999;stroke-width:3"></path>
<path d="M1011.7,43.94c1.24,0.78,1.24,2.52,1.24,3.14c0,4.35,0.62,33.63,0.31,37.98" style="fill:none;stroke:#999;stroke-width:3"></path>
<path d="M994.89,68.76c4.37,4.66,6.51,9.71,7.4,12.44" style="fill:none;stroke:#999;stroke-width:3"></path>
<path d="M1027.7,61.8c0.05,0.95-0.35,1.82-0.66,2.35c-1.29,2.23-2.54,4.11-5.87,8.38" style="fill:none;stroke:#999;stroke-width:3"></path>
<path d="M994.75,90.5c1.38,0.88,2.38,0.88,4,0.25c1.26-0.48,13-4.5,26.25-9.5" style="fill:none;stroke:#999;stroke-width:3"></path>
<path d="M1047.29,15.75c0.04,0.83-0.03,2.17-0.32,3.34C1045.0,27,1040.75,38.5,1032.97,50" style="fill:none;stroke:#999;stroke-width:3"></path>
<path d="M1043.11,37.24c1.64,0.14,2.58,0.18,3.93-0.14c1.64-0.39,17.77-3.83,19.32-4.04c5.89-0.81,0.02,8.19-3.89,13.69" style="fill:none;stroke:#999;stroke-width:3"></path>

<path d="M1122.25,15.49c0,1.24-0.09,2.29-0.55,3.46c-2.24,5.75-11.89,19.72-20.23,26.18" style="fill:none;stroke:#999;stroke-width:3"></path>
<path d="M1124.1399999999999,20.46c5.23,2.41,10.73,6.29,14.11,11.04" style="fill:none;stroke:#999;stroke-width:3"></path>
<path d="M1111.75,42.25c1.63,0.5,3.37,0.44,5.03,0.17c4.1-0.65,8.82-1.74,13.59-2.42c1.26-0.18,2.36-0.25,3.62-0.25" style="fill:none;stroke:#999;stroke-width:3"></path>
<path d="M1105.34,56.81c2.04,0.56,4.17,0.59,5.67,0.38c5.69-0.79,14-2.33,20.28-3.12c0.74-0.09,2.38-0.38,3.49-0.1" style="fill:none;stroke:#999;stroke-width:3"></path>
<path d="M1120.7,43.94c1.24,0.78,1.24,2.52,1.24,3.14c0,4.35,0.62,33.63,0.31,37.98" style="fill:none;stroke:#999;stroke-width:3"></path>
<path d="M1103.8899999999999,68.76c4.37,4.66,6.51,9.71,7.4,12.44" style="fill:none;stroke:#999;stroke-width:3"></path>
<path d="M1136.7,61.8c0.05,0.95-0.35,1.82-0.66,2.35c-1.29,2.23-2.54,4.11-5.87,8.38" style="fill:none;stroke:#999;stroke-width:3"></path>
<path d="M1103.75,90.5c1.38,0.88,2.38,0.88,4,0.25c1.26-0.48,13-4.5,26.25-9.5" style="fill:none;stroke:#999;stroke-width:3"></path>
<path d="M1156.29,15.75c0.04,0.83-0.03,2.17-0.32,3.34C1154.0,27,1149.75,38.5,1141.97,50" style="fill:none;stroke:#999;stroke-width:3"></path>
<path d="M1152.11,37.24c1.64,0.14,2.58,0.18,3.93-0.14c1.64-0.39,17.77-3.83,19.32-4.04c5.89-0.81,0.02,8.19-3.89,13.69" style="fill:none;stroke:#999;stroke-width:3"></path>
<path d="M1157.03,47c0.47,0.75,0.63,2.89,0.37,4.52C1155.62,62.38,1151.12,82.88,1134.0,94.25" style="fill:none;stroke:#999;stroke-width:3"></path>

<path d="M1231.25,15.49c0,1.24-0.09,2.29-0.55,3.46c-2.24,5.75-11.89,19.72-20.23,26.18" style="fill:none;stroke:#999;stroke-width:3"></path>
<path d="M1233.1399999999999,20.46c5.23,2.41,10.73,6.29,14.11,11.04" style="fill:none;stroke:#999;stroke-width:3"></path>
<path d="M1220.75,42.25c1.63,0.5,3.37,0.44,5.03,0.17c4.1-0.65,8.82-1.74,13.59-2.42c1.26-0.18,2.36-0.25,3.62-0.25" style="fill:none;stroke:#999;stroke-width:3"></path>
<path d="M1214.34,56.81c2.04,0.56,4.17,0.59,5.67,0.38c5.69-0.79,14-2.33,20.28-3.12c0.74-0.09,2.38-0.38,3.49-0.1" style="fill:none;stroke:#999;stroke-width:3"></path>
<path d="M1229.7,43.94c1.24,0.78,1.24,2.52,1.24,3.14c0,4.35,0.62,33.63,0.31,37.98" style="fill:none;stroke:#999;stroke-width:3"></path>
<path d="M1212.8899999999999,68.76c4.37,4.66,6.51,9.71,7.4,12.44" style="fill:none;stroke:#999;stroke-width:3"></path>
<path d="M1245.7,61.8c0.05,0.95-0.35,1.82-0.66,2.35c-1.29,2.23-2.54,4.11-5.87,8.38" style="fill:none;stroke:#999;stroke-width:3"></path>
<path d="M1212.75,90.5c1.38,0.88,2.38,0.88,4,0.25c1.26-0.48,13-4.5,26.25-9.5" style="fill:none;stroke:#999;stroke-width:3"></path>
<path d="M1265.29,15.75c0.04,0.83-0.03,2.17-0.32,3.34C1263.0,27,1258.75,38.5,1250.97,50" style="fill:none;stroke:#999;stroke-width:3"></path>
<path d="M1261.11,37.24c1.64,0.14,2.58,0.18,3.93-0.14c1.64-0.39,17.77-3.83,19.32-4.04c5.89-0.81,0.02,8.19-3.89,13.69" style="fill:none;stroke:#999;stroke-width:3"></path>
<path d="M1266.03,47c0.47,0.75,0.63,2.89,0.37,4.52C1264.62,62.38,1260.12,82.88,1243.0,94.25" style="fill:none;stroke:#999;stroke-width:3"></path>
<path d="M1265.62,59.5c3.35,5.23,14.71,20.79,22,28.88c2,2.22,4.02,4.13,6.63,5.62" style="fill:none;stroke:#999;stroke-width:3"></path>

</svg>