<svg width="872px" height="109px" viewBox="0 0 872 109" xmlns="http://www.w3.org/2000/svg" xmlns:xlink="http://www.w3.org/1999/xlink" xml:space="preserve" version="1.1" baseProfile="full">
<line x1="1" y1="1" x2="871" y2="1" style="stroke:#ddd;stroke-width:2"></line>
<line x1="1" y1="1" x2="1" y2="108" style="stroke:#ddd;stroke-width:2"></line>
<line x1="1" y1="108" x2="871" y2="108" style="stroke:#ddd;stroke-width:2"></line>
<line x1="871" y1="1" x2="871" y2="108" style="stroke:#ddd;stroke-width:2"></line>
<line x1="109" y1="1" x2="109" y2="108" style="stroke:#ddd;stroke-width:2"></line>
<line x1="218" y1="1" x2="218" y2="108" style="stroke:#ddd;stroke-width:2"></line>
<line x1="327" y1="1" x2="327" y2="108" style="stroke:#ddd;stroke-width:2"></line>
<line x1="436" y1="1" x2="436" y2="108" style="stroke:#ddd;stroke-width:2"></line>
<line x1="545" y1="1" x2="545" y2="108" style="stroke:#ddd;stroke-width:2"></line>
<line x1="654" y1="1" x2="654" y2="108" style="stroke:#ddd;stroke-width:2"></line>
<line x1="763" y1="1" x2="763" y2="108" style="stroke:#ddd;stroke-width:2"></line>
<line x1="1" y1="54" x2="871" y2="54" style="stroke:#ddd;stroke-width:2;stroke-dasharray:3 3"></line>
<line x1="55" y1="1" x2="55" y2="108" style="stroke:#ddd;stroke-width:2;stroke-dasharray:3 3"></line>
<line x1="164" y1="1" x2="164" y2="108" style="stroke:#ddd;stroke-width:2;stroke-dasharray:3 3"></line>
<line x1="273" y1="1" x2="273" y2="108" style="stroke:#ddd;stroke-width:2;stroke-dasharray:3 3"></line>
<line x1="382" y1="1" x2="382" y2="108" style="stroke:#ddd;stroke-width:2;stroke-dasharray:3 3"></line>
<line x1="491" y1="1" x2="491" y2="108" style="stroke:#ddd;stroke-width:2;stroke-dasharray:3 3"></line>
<line x1="600" y1="1" x2="600" y2="108" style="stroke:#ddd;stroke-width:2;stroke-dasharray:3 3"></line>
<line x1="709" y1="1" x2="709" y2="108" style="stroke:#ddd;stroke-width:2;stroke-dasharray:3 3"></line>
<line x1="818" y1="1" x2="818" y2="108" style="stroke:#ddd;stroke-width:2;stroke-dasharray:3 3"></line>
<path d="M14.75,20.47c1,0.28,2.79,0.61,3.8,0.52C23.5,20.5,38.0,19.75,44.28,19.01c1.64-0.19,2.64,0.25,3.47,0.5" style="fill:none;stroke:#999;stroke-width:3"></path>

<path d="M123.75,20.47c1,0.28,2.79,0.61,3.8,0.52C132.5,20.5,147.0,19.75,153.28,19.01c1.64-0.19,2.64,0.25,3.47,0.5" style="fill:none;stroke:#999;stroke-width:3"></path>
<path d="M139.16,23.39c0.2,0.67,0.29,2.2-0.12,3.48c-2.79,8.63-8.48,23.76-18.37,34.29" style="fill:none;stroke:#999;stroke-width:3"></path>

<path d="M232.75,20.47c1,0.28,2.79,0.61,3.8,0.52C241.5,20.5,256.0,19.75,262.28,19.01c1.64-0.19,2.64,0.25,3.47,0.5" style="fill:none;stroke:#999;stroke-width:3"></path>
<path d="M248.16,23.39c0.2,0.67,0.29,2.2-0.12,3.48c-2.79,8.63-8.48,23.76-18.37,34.29" style="fill:none;stroke:#999;stroke-width:3"></path>
<path d="M247.64,38c0.26,0.05,2.39,0,3.14-0.14c2.47-0.45,3.7-0.78,7.93-1.55c2.49-0.46,2.91,2.23,2.29,4.81C257.61,55.26,243.22,87.21,228.11,94.5" style="fill:none;stroke:#999;stroke-width:3"></path>

<path d="M341.75,20.47c1,0.28,2.79,0.61,3.8,0.52C350.5,20.5,365.0,19.75,371.28,19.01c1.64-0.19,2.64,0.25,3.47,0.5" style="fill:none;stroke:#999;stroke-width:3"></path>
<path d="M357.15999999999997,23.39c0.2,0.67,0.29,2.2-0.12,3.48c-2.79,8.63-8.48,23.76-18.37,34.29" style="fill:none;stroke:#999;stroke-width:3"></path>
<path d="M356.64,38c0.26,0.05,2.39,0,3.14-0.14c2.47-0.45,3.7-0.78,7.93-1.55c2.49-0.46,2.91,2.23,2.29,4.81C366.61,55.26,352.22,87.21,337.11,94.5" style="fill:none;stroke:#999;stroke-width:3"></path>
<path d="M348.46,55.23c2.85,1.92,7.35,7.91,8.06,10.91" style="fill:none;stroke:#999;stroke-width:3"></path>

<path d="M450.75,20.47c1,0.28,2.79,0.61,3.8,0.52C459.5,20.5,474.0,19.75,480.28,19.01c1.64-0.19,2.64,0.25,3.47,0.5" style="fill:none;stroke:#999;stroke-width:3"></path>
<path d="M466.15999999999997,23.39c0.2,0.67,0.29,2.2-0.12,3.48c-2.79,8.63-8.48,23.76-18.37,34.29" style="fill:none;stroke:#999;stroke-width:3"></path>
<path d="M465.64,38c0.26,0.05,2.39,0,3.14-0.14c2.47-0.45,3.7-0.78,7.93-1.55c2.49-0.46,2.91,2.23,2.29,4.81C475.61,55.26,461.22,87.21,446.11,94.5" style="fill:none;stroke:#999;stroke-width:3"></path>
<path d="M457.46,55.23c2.85,1.92,7.35,7.91,8.06,10.91" style="fill:none;stroke:#999;stroke-width:3"></path>
<path d="M521.79,15.89c-0.04,0.86-0.65,2.08-1.18,2.45C514.0,23,505.25,27,488.72,31.26" style="fill:none;stroke:#999;stroke-width:3"></path>

<path d="M559.75,20.47c1,0.28,2.79,0.61,3.8,0.52C568.5,20.5,583.0,19.75,589.28,19.01c1.64-0.19,2.64,0.25,3.47,0.5" style="fill:none;stroke:#999;stroke-width:3"></path>
<path d="M575.16,23.39c0.2,0.67,0.29,2.2-0.12,3.48c-2.79,8.63-8.48,23.76-18.37,34.29" style="fill:none;stroke:#999;stroke-width:3"></path>
<path d="M574.64,38c0.26,0.05,2.39,0,3.14-0.14c2.47-0.45,3.7-0.78,7.93-1.55c2.49-0.46,2.91,2.23,2.29,4.81C584.61,55.26,570.22,87.21,555.11,94.5" style="fill:none;stroke:#999;stroke-width:3"></path>
<path d="M566.46,55.23c2.85,1.92,7.35,7.91,8.06,10.91" style="fill:none;stroke:#999;stroke-width:3"></path>
<path d="M630.79,15.89c-0.04,0.86-0.65,2.08-1.18,2.45C623.0,23,614.25,27,597.72,31.26" style="fill:none;stroke:#999;stroke-width:3"></path>
<path d="M590.34,53.65c0.68,0.43,3.41,0.65,4.15,0.6c10.51-0.75,33.26-2.9,44.08-3.07c0.94-0.01,2.27,0.17,4.36,0.91" style="fill:none;stroke:#999;stroke-width:3"></path>

<path d="M668.75,20.47c1,0.28,2.79,0.61,3.8,0.52C677.5,20.5,692.0,19.75,698.28,19.01c1.64-0.19,2.64,0.25,3.47,0.5" style="fill:none;stroke:#999;stroke-width:3"></path>
<path d="M684.16,23.39c0.2,0.67,0.29,2.2-0.12,3.48c-2.79,8.63-8.48,23.76-18.37,34.29" style="fill:none;stroke:#999;stroke-width:3"></path>
<path d="M683.64,38c0.26,0.05,2.39,0,3.14-0.14c2.47-0.45,3.7-0.78,7.93-1.55c2.49-0.46,2.91,2.23,2.29,4.81C693.61,55.26,679.22,87.21,664.11,94.5" style="fill:none;stroke:#999;stroke-width:3"></path>
<path d="M675.46,55.23c2.85,1.92,7.35,7.91,8.06,10.91" style="fill:none;stroke:#999;stroke-width:3"></path>
<path d="M739.79,15.89c-0.04,0.86-0.65,2.08-1.18,2.45C732.0,23,723.25,27,706.72,31.26" style="fill:none;stroke:#999;stroke-width:3"></path>
<path d="M699.34,53.65c0.68,0.43,3.41,0.65,4.15,0.6c10.51-0.75,33.26-2.9,44.08-3.07c0.94-0.01,2.27,0.17,4.36,0.91" style="fill:none;stroke:#999;stroke-width:3"></path>
<path d="M722.17,30.83c0.5,0.89,0.75,1.92,0.74,3.84c-0.24,33.29-12.11,50.85-31.65,61.08" style="fill:none;stroke:#999;stroke-width:3"></path>

<path d="M777.75,20.47c1,0.28,2.79,0.61,3.8,0.52C786.5,20.5,801.0,19.75,807.28,19.01c1.64-0.19,2.64,0.25,3.47,0.5" style="fill:none;stroke:#999;stroke-width:3"></path>
<path d="M793.16,23.39c0.2,0.67,0.29,2.2-0.12,3.48c-2.79,8.63-8.48,23.76-18.37,34.29" style="fill:none;stroke:#999;stroke-width:3"></path>
<path d="M792.64,38c0.26,0.05,2.39,0,3.14-0.14c2.47-0.45,3.7-0.78,7.93-1.55c2.49-0.46,2.91,2.23,2.29,4.81C802.61,55.26,788.22,87.21,773.11,94.5" style="fill:none;stroke:#999;stroke-width:3"></path>
<path d="M784.46,55.23c2.85,1.92,7.35,7.91,8.06,10.91" style="fill:none;stroke:#999;stroke-width:3"></path>
<path d="M848.79,15.89c-0.04,0.86-0.65,2.08-1.18,2.45C841.0,23,832.25,27,815.72,31.26" style="fill:none;stroke:#999;stroke-width:3"></path>
<path d="M808.34,53.65c0.68,0.43,3.41,0.65,4.15,0.6c10.51-0.75,33.26-2.9,44.08-3.07c0.94-0.01,2.27,0.17,4.36,0.91" style="fill:none;stroke:#999;stroke-width:3"></path>
<path d="M831.17,30.83c0.5,0.89,0.75,1.92,0.74,3.84c-0.24,33.29-12.11,50.85-31.65,61.08" style="fill:none;stroke:#999;stroke-width:3"></path>
<path d="M831.1,53.04c4.01,12.36,18.99,31.34,24.98,37.59c2.03,2.12,2.74,2.44,3.67,2.64" style="fill:none;stroke:#999;stroke-width:3"></path>

</svg>