<svg width="1090px" height="109px" viewBox="0 0 1090 109" xmlns="http://www.w3.org/2000/svg" xmlns:xlink="http://www.w3.org/1999/xlink" xml:space="preserve" version="1.1" baseProfile="full">
<line x1="1" y1="1" x2="1089" y2="1" style="stroke:#ddd;stroke-width:2"></line>
<line x1="1" y1="1" x2="1" y2="108" style="stroke:#ddd;stroke-width:2"></line>
<line x1="1" y1="108" x2="1089" y2="108" style="stroke:#ddd;stroke-width:2"></line>
<line x1="1089" y1="1" x2="1089" y2="108" style="stroke:#ddd;stroke-width:2"></line>
<line x1="109" y1="1" x2="109" y2="108" style="stroke:#ddd;stroke-width:2"></line>
<line x1="218" y1="1" x2="218" y2="108" style="stroke:#ddd;stroke-width:2"></line>
<line x1="327" y1="1" x2="327" y2="108" style="stroke:#ddd;stroke-width:2"></line>
<line x1="436" y1="1" x2="436" y2="108" style="stroke:#ddd;stroke-width:2"></line>
<line x1="545" y1="1" x2="545" y2="108" style="stroke:#ddd;stroke-width:2"></line>
<line x1="654" y1="1" x2="654" y2="108" style="stroke:#ddd;stroke-width:2"></line>
<line x1="763" y1="1" x2="763" y2="108" style="stroke:#ddd;stroke-width:2"></line>
<line x1="872" y1="1" x2="872" y2="108" style="stroke:#ddd;stroke-width:2"></line>
<line x1="981" y1="1" x2="981" y2="108" style="stroke:#ddd;stroke-width:2"></line>
<line x1="1" y1="54" x2="1089" y2="54" style="stroke:#ddd;stroke-width:2;stroke-dasharray:3 3"></line>
<line x1="55" y1="1" x2="55" y2="108" style="stroke:#ddd;stroke-width:2;stroke-dasharray:3 3"></line>
<line x1="164" y1="1" x2="164" y2="108" style="stroke:#ddd;stroke-width:2;stroke-dasharray:3 3"></line>
<line x1="273" y1="1" x2="273" y2="108" style="stroke:#ddd;stroke-width:2;stroke-dasharray:3 3"></line>
<line x1="382" y1="1" x2="382" y2="108" style="stroke:#ddd;stroke-width:2;stroke-dasharray:3 3"></line>
<line x1="491" y1="1" x2="491" y2="108" style="stroke:#ddd;stroke-width:2;stroke-dasharray:3 3"></line>
<line x1="600" y1="1" x2="600" y2="108" style="stroke:#ddd;stroke-width:2;stroke-dasharray:3 3"></line>
<line x1="709" y1="1" x2="709" y2="108" style="stroke:#ddd;stroke-width:2;stroke-dasharray:3 3"></line>
<line x1="818" y1="1" x2="818" y2="108" style="stroke:#ddd;stroke-width:2;stroke-dasharray:3 3"></line>
<line x1="927" y1="1" x2="927" y2="108" style="stroke:#ddd;stroke-width:2;stroke-dasharray:3 3"></line>
<line x1="1036" y1="1" x2="1036" y2="108" style="stroke:#ddd;stroke-width:2;stroke-dasharray:3 3"></line>
<path d="M42.81,14.25c0.06,0.3-0.24,1.41-0.61,1.71c-4.95,4.04-9.71,7.65-20.45,11.08" style="fill:none;stroke:#999;stroke-width:3"></path>

<path d="M151.81,14.25c0.06,0.3-0.24,1.41-0.61,1.71c-4.95,4.04-9.71,7.65-20.45,11.08" style="fill:none;stroke:#999;stroke-width:3"></path>
<path d="M129.1,26.25c0.9,1,0.82,1.75,0.82,4.03c0,20.78,0.33,44.97-10.11,62.94" style="fill:none;stroke:#999;stroke-width:3"></path>

<path d="M260.81,14.25c0.06,0.3-0.24,1.41-0.61,1.71c-4.95,4.04-9.71,7.65-20.45,11.08" style="fill:none;stroke:#999;stroke-width:3"></path>
<path d="M238.1,26.25c0.9,1,0.82,1.75,0.82,4.03c0,20.78,0.33,44.97-10.11,62.94" style="fill:none;stroke:#999;stroke-width:3"></path>
<path d="M239.69,31.75c1.89-0.09,22.55-2.15,24.28-2.26c1.44-0.09,2.25,1.26,2.25,2.51c0,1.09-1.94,20.2-1.94,20.73" style="fill:none;stroke:#999;stroke-width:3"></path>

<path d="M369.81,14.25c0.06,0.3-0.24,1.41-0.61,1.71c-4.95,4.04-9.71,7.65-20.45,11.08" style="fill:none;stroke:#999;stroke-width:3"></path>
<path d="M347.1,26.25c0.9,1,0.82,1.75,0.82,4.03c0,20.78,0.33,44.97-10.11,62.94" style="fill:none;stroke:#999;stroke-width:3"></path>
<path d="M348.69,31.75c1.89-0.09,22.55-2.15,24.28-2.26c1.44-0.09,2.25,1.26,2.25,2.51c0,1.09-1.94,20.2-1.94,20.73" style="fill:none;stroke:#999;stroke-width:3"></path>
<path d="M349.03,41.36c2.56,0,20.57-1.91,23.47-1.91" style="fill:none;stroke:#999;stroke-width:3"></path>

<path d="M478.81,14.25c0.06,0.3-0.24,1.41-0.61,1.71c-4.95,4.04-9.71,7.65-20.45,11.08" style="fill:none;stroke:#999;stroke-width:3"></path>
<path d="M456.1,26.25c0.9,1,0.82,1.75,0.82,4.03c0,20.78,0.33,44.97-10.11,62.94" style="fill:none;stroke:#999;stroke-width:3"></path>
<path d="M457.69,31.75c1.89-0.09,22.55-2.15,24.28-2.26c1.44-0.09,2.25,1.26,2.25,2.51c0,1.09-1.94,20.2-1.94,20.73" style="fill:none;stroke:#999;stroke-width:3"></path>
<path d="M458.03,41.36c2.56,0,20.57-1.91,23.47-1.91" style="fill:none;stroke:#999;stroke-width:3"></path>
<path d="M457.91,52.11c5.22-0.38,17.08-1.4,23.58-1.73" style="fill:none;stroke:#999;stroke-width:3"></path>

<path d="M587.81,14.25c0.06,0.3-0.24,1.41-0.61,1.71c-4.95,4.04-9.71,7.65-20.45,11.08" style="fill:none;stroke:#999;stroke-width:3"></path>
<path d="M565.1,26.25c0.9,1,0.82,1.75,0.82,4.03c0,20.78,0.33,44.97-10.11,62.94" style="fill:none;stroke:#999;stroke-width:3"></path>
<path d="M566.69,31.75c1.89-0.09,22.55-2.15,24.28-2.26c1.44-0.09,2.25,1.26,2.25,2.51c0,1.09-1.94,20.2-1.94,20.73" style="fill:none;stroke:#999;stroke-width:3"></path>
<path d="M567.03,41.36c2.56,0,20.57-1.91,23.47-1.91" style="fill:none;stroke:#999;stroke-width:3"></path>
<path d="M566.9100000000001,52.11c5.22-0.38,17.08-1.4,23.58-1.73" style="fill:none;stroke:#999;stroke-width:3"></path>
<path d="M567.75,65.9c1.75,0.6,3.36,0.31,3.89,0.21c4.86-0.86,14.34-2.49,16.73-2.89c1.55-0.26,1.98,1.17,1.9,3c-0.23,4.82-5.17,21.02-7.58,24.3c-2.24,3.06-4.44,1.48-6.14-0.89" style="fill:none;stroke:#999;stroke-width:3"></path>

<path d="M696.81,14.25c0.06,0.3-0.24,1.41-0.61,1.71c-4.95,4.04-9.71,7.65-20.45,11.08" style="fill:none;stroke:#999;stroke-width:3"></path>
<path d="M674.1,26.25c0.9,1,0.82,1.75,0.82,4.03c0,20.78,0.33,44.97-10.11,62.94" style="fill:none;stroke:#999;stroke-width:3"></path>
<path d="M675.69,31.75c1.89-0.09,22.55-2.15,24.28-2.26c1.44-0.09,2.25,1.26,2.25,2.51c0,1.09-1.94,20.2-1.94,20.73" style="fill:none;stroke:#999;stroke-width:3"></path>
<path d="M676.03,41.36c2.56,0,20.57-1.91,23.47-1.91" style="fill:none;stroke:#999;stroke-width:3"></path>
<path d="M675.9100000000001,52.11c5.22-0.38,17.08-1.4,23.58-1.73" style="fill:none;stroke:#999;stroke-width:3"></path>
<path d="M676.75,65.9c1.75,0.6,3.36,0.31,3.89,0.21c4.86-0.86,14.34-2.49,16.73-2.89c1.55-0.26,1.98,1.17,1.9,3c-0.23,4.82-5.17,21.02-7.58,24.3c-2.24,3.06-4.44,1.48-6.14-0.89" style="fill:none;stroke:#999;stroke-width:3"></path>
<path d="M715.42,16.85c0.33,0.9,0.48,1.82,0.45,2.84c-0.21,10.56-2.92,21.46-8.59,26.17" style="fill:none;stroke:#999;stroke-width:3"></path>

<path d="M805.81,14.25c0.06,0.3-0.24,1.41-0.61,1.71c-4.95,4.04-9.71,7.65-20.45,11.08" style="fill:none;stroke:#999;stroke-width:3"></path>
<path d="M783.1,26.25c0.9,1,0.82,1.75,0.82,4.03c0,20.78,0.33,44.97-10.11,62.94" style="fill:none;stroke:#999;stroke-width:3"></path>
<path d="M784.69,31.75c1.89-0.09,22.55-2.15,24.28-2.26c1.44-0.09,2.25,1.26,2.25,2.51c0,1.09-1.94,20.2-1.94,20.73" style="fill:none;stroke:#999;stroke-width:3"></path>
<path d="M785.03,41.36c2.56,0,20.57-1.91,23.47-1.91" style="fill:none;stroke:#999;stroke-width:3"></path>
<path d="M784.9100000000001,52.11c5.22-0.38,17.08-1.4,23.58-1.73" style="fill:none;stroke:#999;stroke-width:3"></path>
<path d="M785.75,65.9c1.75,0.6,3.36,0.31,3.89,0.21c4.86-0.86,14.34-2.49,16.73-2.89c1.55-0.26,1.98,1.17,1.9,3c-0.23,4.82-5.17,21.02-7.58,24.3c-2.24,3.06-4.44,1.48-6.14-0.89" style="fill:none;stroke:#999;stroke-width:3"></path>
<path d="M824.42,16.85c0.33,0.9,0.48,1.82,0.45,2.84c-0.21,10.56-2.92,21.46-8.59,26.17" style="fill:none;stroke:#999;stroke-width:3"></path>
<path d="M825.35,18.78c3.4-0.03,12.8-1.84,14.39-2.4c2.38-0.84,3.07,1.27,2.83,3.12c-0.48,3.62-1.71,10.25-1.71,13.87c0,5.01,0.69,8.64,8.53,8.64c9.36,0,9.53-1.51,9.53-9.36" style="fill:none;stroke:#999;stroke-width:3"></path>

<path d="M914.81,14.25c0.06,0.3-0.24,1.41-0.61,1.71c-4.95,4.04-9.71,7.65-20.45,11.08" style="fill:none;stroke:#999;stroke-width:3"></path>
<path d="M892.1,26.25c0.9,1,0.82,1.75,0.82,4.03c0,20.78,0.33,44.97-10.11,62.94" style="fill:none;stroke:#999;stroke-width:3"></path>
<path d="M893.69,31.75c1.89-0.09,22.55-2.15,24.28-2.26c1.44-0.09,2.25,1.26,2.25,2.51c0,1.09-1.94,20.2-1.94,20.73" style="fill:none;stroke:#999;stroke-width:3"></path>
<path d="M894.03,41.36c2.56,0,20.57-1.91,23.47-1.91" style="fill:none;stroke:#999;stroke-width:3"></path>
<path d="M893.9100000000001,52.11c5.22-0.38,17.08-1.4,23.58-1.73" style="fill:none;stroke:#999;stroke-width:3"></path>
<path d="M894.75,65.9c1.75,0.6,3.36,0.31,3.89,0.21c4.86-0.86,14.34-2.49,16.73-2.89c1.55-0.26,1.98,1.17,1.9,3c-0.23,4.82-5.17,21.02-7.58,24.3c-2.24,3.06-4.44,1.48-6.14-0.89" style="fill:none;stroke:#999;stroke-width:3"></path>
<path d="M933.42,16.85c0.33,0.9,0.48,1.82,0.45,2.84c-0.21,10.56-2.92,21.46-8.59,26.17" style="fill:none;stroke:#999;stroke-width:3"></path>
<path d="M934.35,18.78c3.4-0.03,12.8-1.84,14.39-2.4c2.38-0.84,3.07,1.27,2.83,3.12c-0.48,3.62-1.71,10.25-1.71,13.87c0,5.01,0.69,8.64,8.53,8.64c9.36,0,9.53-1.51,9.53-9.36" style="fill:none;stroke:#999;stroke-width:3"></path>
<path d="M927.75,52.69c1.53,0.37,1.72,0.92,4.79,0.37c3.06-0.55,20.07-2.02,22.17-2.57c2.1-0.55,3.81,2.14,2.87,4.06C950.22,69.54,934.5,87.25,918.5,94.17" style="fill:none;stroke:#999;stroke-width:3"></path>

<path d="M1023.81,14.25c0.06,0.3-0.24,1.41-0.61,1.71c-4.95,4.04-9.71,7.65-20.45,11.08" style="fill:none;stroke:#999;stroke-width:3"></path>
<path d="M1001.1,26.25c0.9,1,0.82,1.75,0.82,4.03c0,20.78,0.33,44.97-10.11,62.94" style="fill:none;stroke:#999;stroke-width:3"></path>
<path d="M1002.69,31.75c1.89-0.09,22.55-2.15,24.28-2.26c1.44-0.09,2.25,1.26,2.25,2.51c0,1.09-1.94,20.2-1.94,20.73" style="fill:none;stroke:#999;stroke-width:3"></path>
<path d="M1003.03,41.36c2.56,0,20.57-1.91,23.47-1.91" style="fill:none;stroke:#999;stroke-width:3"></path>
<path d="M1002.9100000000001,52.11c5.22-0.38,17.08-1.4,23.58-1.73" style="fill:none;stroke:#999;stroke-width:3"></path>
<path d="M1003.75,65.9c1.75,0.6,3.36,0.31,3.89,0.21c4.86-0.86,14.34-2.49,16.73-2.89c1.55-0.26,1.98,1.17,1.9,3c-0.23,4.82-5.17,21.02-7.58,24.3c-2.24,3.06-4.44,1.48-6.14-0.89" style="fill:none;stroke:#999;stroke-width:3"></path>
<path d="M1042.42,16.85c0.33,0.9,0.48,1.82,0.45,2.84c-0.21,10.56-2.92,21.46-8.59,26.17" style="fill:none;stroke:#999;stroke-width:3"></path>
<path d="M1043.35,18.78c3.4-0.03,12.8-1.84,14.39-2.4c2.38-0.84,3.07,1.27,2.83,3.12c-0.48,3.62-1.71,10.25-1.71,13.87c0,5.01,0.69,8.64,8.53,8.64c9.36,0,9.53-1.51,9.53-9.36" style="fill:none;stroke:#999;stroke-width:3"></path>
<path d="M1036.75,52.69c1.53,0.37,1.72,0.92,4.79,0.37c3.06-0.55,20.07-2.02,22.17-2.57c2.1-0.55,3.81,2.14,2.87,4.06C1059.22,69.54,1043.5,87.25,1027.5,94.17" style="fill:none;stroke:#999;stroke-width:3"></path>
<path d="M1036.48,59.4C1040.49,60.26,1060.06,83.14,1074.0,92.51c2.17,1.46,3.75,2.43,5.77,2.92" style="fill:none;stroke:#999;stroke-width:3"></path>

</svg>