<svg width="545px" height="109px" viewBox="0 0 545 109" xmlns="http://www.w3.org/2000/svg" xmlns:xlink="http://www.w3.org/1999/xlink" xml:space="preserve" version="1.1" baseProfile="full">
<line x1="1" y1="1" x2="544" y2="1" style="stroke:#ddd;stroke-width:2"></line>
<line x1="1" y1="1" x2="1" y2="108" style="stroke:#ddd;stroke-width:2"></line>
<line x1="1" y1="108" x2="544" y2="108" style="stroke:#ddd;stroke-width:2"></line>
<line x1="544" y1="1" x2="544" y2="108" style="stroke:#ddd;stroke-width:2"></line>
<line x1="109" y1="1" x2="109" y2="108" style="stroke:#ddd;stroke-width:2"></line>
<line x1="218" y1="1" x2="218" y2="108" style="stroke:#ddd;stroke-width:2"></line>
<line x1="327" y1="1" x2="327" y2="108" style="stroke:#ddd;stroke-width:2"></line>
<line x1="436" y1="1" x2="436" y2="108" style="stroke:#ddd;stroke-width:2"></line>
<line x1="1" y1="54" x2="544" y2="54" style="stroke:#ddd;stroke-width:2;stroke-dasharray:3 3"></line>
<line x1="55" y1="1" x2="55" y2="108" style="stroke:#ddd;stroke-width:2;stroke-dasharray:3 3"></line>
<line x1="164" y1="1" x2="164" y2="108" style="stroke:#ddd;stroke-width:2;stroke-dasharray:3 3"></line>
<line x1="273" y1="1" x2="273" y2="108" style="stroke:#ddd;stroke-width:2;stroke-dasharray:3 3"></line>
<line x1="382" y1="1" x2="382" y2="108" style="stroke:#ddd;stroke-width:2;stroke-dasharray:3 3"></line>
<line x1="491" y1="1" x2="491" y2="108" style="stroke:#ddd;stroke-width:2;stroke-dasharray:3 3"></line>
<path d="M34.82,19.37c1.14,1.02,1.72,3.42,1.41,6.09c-1.46,12.62-8.22,32.3-13.04,44.1c-1.47,3.6-0.44,5.27,3.63,5.2c11.37-0.18,27.52,2.13,40.68,7.24c4.98,1.93,9.54,4.26,13.25,7.01" style="fill:none;stroke:#999;stroke-width:3"></path>

<path d="M143.82,19.37c1.14,1.02,1.72,3.42,1.41,6.09c-1.46,12.62-8.22,32.3-13.04,44.1c-1.47,3.6-0.44,5.27,3.63,5.2c11.37-0.18,27.52,2.13,40.68,7.24c4.98,1.93,9.54,4.26,13.25,7.01" style="fill:none;stroke:#999;stroke-width:3"></path>
<path d="M146.32,22.07c4.81,0.56,13.81-1.32,39.18-6.07c4-0.75,5.92,0.77,5.5,4.25c-2.25,18.62-7,49-16.06,69.18c-3.36,7.49-9.86,1.68-11.42,0" style="fill:none;stroke:#999;stroke-width:3"></path>

<path d="M252.82,19.37c1.14,1.02,1.72,3.42,1.41,6.09c-1.46,12.62-8.22,32.3-13.04,44.1c-1.47,3.6-0.44,5.27,3.63,5.2c11.37-0.18,27.52,2.13,40.68,7.24c4.98,1.93,9.54,4.26,13.25,7.01" style="fill:none;stroke:#999;stroke-width:3"></path>
<path d="M255.32,22.07c4.81,0.56,13.81-1.32,39.18-6.07c4-0.75,5.92,0.77,5.5,4.25c-2.25,18.62-7,49-16.06,69.18c-3.36,7.49-9.86,1.68-11.42,0" style="fill:none;stroke:#999;stroke-width:3"></path>
<path d="M267.0,28.5c3.88,1.98,10.03,8.16,11,11.25" style="fill:none;stroke:#999;stroke-width:3"></path>

<path d="M361.82,19.37c1.14,1.02,1.72,3.42,1.41,6.09c-1.46,12.62-8.22,32.3-13.04,44.1c-1.47,3.6-0.44,5.27,3.63,5.2c11.37-0.18,27.52,2.13,40.68,7.24c4.98,1.93,9.54,4.26,13.25,7.01" style="fill:none;stroke:#999;stroke-width:3"></path>
<path d="M364.32,22.07c4.81,0.56,13.81-1.32,39.18-6.07c4-0.75,5.92,0.77,5.5,4.25c-2.25,18.62-7,49-16.06,69.18c-3.36,7.49-9.86,1.68-11.42,0" style="fill:none;stroke:#999;stroke-width:3"></path>
<path d="M376.0,28.5c3.88,1.98,10.03,8.16,11,11.25" style="fill:none;stroke:#999;stroke-width:3"></path>
<path d="M372.25,57.62c3.79,1.96,9.8,8.07,10.75,11.12" style="fill:none;stroke:#999;stroke-width:3"></path>

<path d="M470.82,19.37c1.14,1.02,1.72,3.42,1.41,6.09c-1.46,12.62-8.22,32.3-13.04,44.1c-1.47,3.6-0.44,5.27,3.63,5.2c11.37-0.18,27.52,2.13,40.68,7.24c4.98,1.93,9.54,4.26,13.25,7.01" style="fill:none;stroke:#999;stroke-width:3"></path>
<path d="M473.32,22.07c4.81,0.56,13.81-1.32,39.18-6.07c4-0.75,5.92,0.77,5.5,4.25c-2.25,18.62-7,49-16.06,69.18c-3.36,7.49-9.86,1.68-11.42,0" style="fill:none;stroke:#999;stroke-width:3"></path>
<path d="M485.0,28.5c3.88,1.98,10.03,8.16,11,11.25" style="fill:none;stroke:#999;stroke-width:3"></path>
<path d="M481.25,57.62c3.79,1.96,9.8,8.07,10.75,11.12" style="fill:none;stroke:#999;stroke-width:3"></path>
<path d="M445.88,51.45c2.21,0.63,6.26,0.87,8.46,0.63C482.77,49,503.12,47,526.65,46.07c3.68-0.15,5.89,0.3,7.72,0.61" style="fill:none;stroke:#999;stroke-width:3"></path>

</svg>