<svg width="545px" height="109px" viewBox="0 0 545 109" xmlns="http://www.w3.org/2000/svg" xmlns:xlink="http://www.w3.org/1999/xlink" xml:space="preserve" version="1.1" baseProfile="full">
<line x1="1" y1="1" x2="544" y2="1" style="stroke:#ddd;stroke-width:2"></line>
<line x1="1" y1="1" x2="1" y2="108" style="stroke:#ddd;stroke-width:2"></line>
<line x1="1" y1="108" x2="544" y2="108" style="stroke:#ddd;stroke-width:2"></line>
<line x1="544" y1="1" x2="544" y2="108" style="stroke:#ddd;stroke-width:2"></line>
<line x1="109" y1="1" x2="109" y2="108" style="stroke:#ddd;stroke-width:2"></line>
<line x1="218" y1="1" x2="218" y2="108" style="stroke:#ddd;stroke-width:2"></line>
<line x1="327" y1="1" x2="327" y2="108" style="stroke:#ddd;stroke-width:2"></line>
<line x1="436" y1="1" x2="436" y2="108" style="stroke:#ddd;stroke-width:2"></line>
<line x1="1" y1="54" x2="544" y2="54" style="stroke:#ddd;stroke-width:2;stroke-dasharray:3 3"></line>
<line x1="55" y1="1" x2="55" y2="108" style="stroke:#ddd;stroke-width:2;stroke-dasharray:3 3"></line>
<line x1="164" y1="1" x2="164" y2="108" style="stroke:#ddd;stroke-width:2;stroke-dasharray:3 3"></line>
<line x1="273" y1="1" x2="273" y2="108" style="stroke:#ddd;stroke-width:2;stroke-dasharray:3 3"></line>
<line x1="382" y1="1" x2="382" y2="108" style="stroke:#ddd;stroke-width:2;stroke-dasharray:3 3"></line>
<line x1="491" y1="1" x2="491" y2="108" style="stroke:#ddd;stroke-width:2;stroke-dasharray:3 3"></line>
<path d="M52.02,6.08c1.33,1.33,1.51,2.67,1.51,4.77c0,18.15-0.01,78.66-0.01,83.62c0,10.53-7.21,1.5-8.71,0.25" style="fill:none;stroke:#999;stroke-width:3"></path>

<path d="M161.02,6.08c1.33,1.33,1.51,2.67,1.51,4.77c0,18.15-0.01,78.66-0.01,83.62c0,10.53-7.21,1.5-8.71,0.25" style="fill:none;stroke:#999;stroke-width:3"></path>
<path d="M126.25,26.38c5.65,2.58,14.59,10.61,16,14.62" style="fill:none;stroke:#999;stroke-width:3"></path>

<path d="M270.02,6.08c1.33,1.33,1.51,2.67,1.51,4.77c0,18.15-0.01,78.66-0.01,83.62c0,10.53-7.21,1.5-8.71,0.25" style="fill:none;stroke:#999;stroke-width:3"></path>
<path d="M235.25,26.38c5.65,2.58,14.59,10.61,16,14.62" style="fill:none;stroke:#999;stroke-width:3"></path>
<path d="M228.5,75.35c1.75,1.15,3.5,0.85,5.41-0.6c1.13-0.85,13.44-11.42,18.21-15.51" style="fill:none;stroke:#999;stroke-width:3"></path>

<path d="M379.02,6.08c1.33,1.33,1.51,2.67,1.51,4.77c0,18.15-0.01,78.66-0.01,83.62c0,10.53-7.21,1.5-8.71,0.25" style="fill:none;stroke:#999;stroke-width:3"></path>
<path d="M344.25,26.38c5.65,2.58,14.59,10.61,16,14.62" style="fill:none;stroke:#999;stroke-width:3"></path>
<path d="M337.5,75.35c1.75,1.15,3.5,0.85,5.41-0.6c1.13-0.85,13.44-11.42,18.21-15.51" style="fill:none;stroke:#999;stroke-width:3"></path>
<path d="M414.75,23c-0.37,1.38-0.76,2.34-1.64,3.32c-3.86,4.3-10.44,9.61-20.8,15.9" style="fill:none;stroke:#999;stroke-width:3"></path>

<path d="M488.02,6.08c1.33,1.33,1.51,2.67,1.51,4.77c0,18.15-0.01,78.66-0.01,83.62c0,10.53-7.21,1.5-8.71,0.25" style="fill:none;stroke:#999;stroke-width:3"></path>
<path d="M453.25,26.38c5.65,2.58,14.59,10.61,16,14.62" style="fill:none;stroke:#999;stroke-width:3"></path>
<path d="M446.5,75.35c1.75,1.15,3.5,0.85,5.41-0.6c1.13-0.85,13.44-11.42,18.21-15.51" style="fill:none;stroke:#999;stroke-width:3"></path>
<path d="M523.75,23c-0.37,1.38-0.76,2.34-1.64,3.32c-3.86,4.3-10.44,9.61-20.8,15.9" style="fill:none;stroke:#999;stroke-width:3"></path>
<path d="M502.38,56.75C513.5,62,528.12,73.38,531.88,80.38" style="fill:none;stroke:#999;stroke-width:3"></path>

</svg>