<svg width="545px" height="109px" viewBox="0 0 545 109" xmlns="http://www.w3.org/2000/svg" xmlns:xlink="http://www.w3.org/1999/xlink" xml:space="preserve" version="1.1" baseProfile="full">
<line x1="1" y1="1" x2="544" y2="1" style="stroke:#ddd;stroke-width:2"></line>
<line x1="1" y1="1" x2="1" y2="108" style="stroke:#ddd;stroke-width:2"></line>
<line x1="1" y1="108" x2="544" y2="108" style="stroke:#ddd;stroke-width:2"></line>
<line x1="544" y1="1" x2="544" y2="108" style="stroke:#ddd;stroke-width:2"></line>
<line x1="109" y1="1" x2="109" y2="108" style="stroke:#ddd;stroke-width:2"></line>
<line x1="218" y1="1" x2="218" y2="108" style="stroke:#ddd;stroke-width:2"></line>
<line x1="327" y1="1" x2="327" y2="108" style="stroke:#ddd;stroke-width:2"></line>
<line x1="436" y1="1" x2="436" y2="108" style="stroke:#ddd;stroke-width:2"></line>
<line x1="1" y1="54" x2="544" y2="54" style="stroke:#ddd;stroke-width:2;stroke-dasharray:3 3"></line>
<line x1="55" y1="1" x2="55" y2="108" style="stroke:#ddd;stroke-width:2;stroke-dasharray:3 3"></line>
<line x1="164" y1="1" x2="164" y2="108" style="stroke:#ddd;stroke-width:2;stroke-dasharray:3 3"></line>
<line x1="273" y1="1" x2="273" y2="108" style="stroke:#ddd;stroke-width:2;stroke-dasharray:3 3"></line>
<line x1="382" y1="1" x2="382" y2="108" style="stroke:#ddd;stroke-width:2;stroke-dasharray:3 3"></line>
<line x1="491" y1="1" x2="491" y2="108" style="stroke:#ddd;stroke-width:2;stroke-dasharray:3 3"></line>
<path d="M21.13,17.25c4.45,1.47,11.5,6.05,12.62,8.34" style="fill:none;stroke:#999;stroke-width:3"></path>

<path d="M130.13,17.25c4.45,1.47,11.5,6.05,12.62,8.34" style="fill:none;stroke:#999;stroke-width:3"></path>
<path d="M126.25,41.5c3.97,1.23,10.26,5.08,11.25,7" style="fill:none;stroke:#999;stroke-width:3"></path>

<path d="M239.13,17.25c4.45,1.47,11.5,6.05,12.62,8.34" style="fill:none;stroke:#999;stroke-width:3"></path>
<path d="M235.25,41.5c3.97,1.23,10.26,5.08,11.25,7" style="fill:none;stroke:#999;stroke-width:3"></path>
<path d="M234.5,87.94c1.78,1.33,3.91,1.38,5.03-0.26C242.79,82.92,246.04,77.08,249.0,71" style="fill:none;stroke:#999;stroke-width:3"></path>

<path d="M348.13,17.25c4.45,1.47,11.5,6.05,12.62,8.34" style="fill:none;stroke:#999;stroke-width:3"></path>
<path d="M344.25,41.5c3.97,1.23,10.26,5.08,11.25,7" style="fill:none;stroke:#999;stroke-width:3"></path>
<path d="M343.5,87.94c1.78,1.33,3.91,1.38,5.03-0.26C351.78999999999996,82.92,355.03999999999996,77.08,358.0,71" style="fill:none;stroke:#999;stroke-width:3"></path>
<path d="M371.48,22.11c0.99,0.21,2.92,0.76,4.93,0.58c7.84-0.69,23.9-3.03,26.33-3.68c3.98-1.07,7.05,1.92,6.41,6.17c-1.14,7.57-2.39,18.07-6.77,30.08c-3.14,8.62-7.21,1.02-7.95,0.61" style="fill:none;stroke:#999;stroke-width:3"></path>

<path d="M457.13,17.25c4.45,1.47,11.5,6.05,12.62,8.34" style="fill:none;stroke:#999;stroke-width:3"></path>
<path d="M453.25,41.5c3.97,1.23,10.26,5.08,11.25,7" style="fill:none;stroke:#999;stroke-width:3"></path>
<path d="M452.5,87.94c1.78,1.33,3.91,1.38,5.03-0.26C460.78999999999996,82.92,464.03999999999996,77.08,467.0,71" style="fill:none;stroke:#999;stroke-width:3"></path>
<path d="M480.48,22.11c0.99,0.21,2.92,0.76,4.93,0.58c7.84-0.69,23.9-3.03,26.33-3.68c3.98-1.07,7.05,1.92,6.41,6.17c-1.14,7.57-2.39,18.07-6.77,30.08c-3.14,8.62-7.21,1.02-7.95,0.61" style="fill:none;stroke:#999;stroke-width:3"></path>
<path d="M482.07,22.41c1.18,1.09,1,2.59,1,4c0,16.34,0.34,30.29,0.28,41.61C483.25,88,485.0,89.96,507.83,89.96c21.67,0,23.06-3.46,23.06-14.55" style="fill:none;stroke:#999;stroke-width:3"></path>

</svg>