<svg width="545px" height="109px" viewBox="0 0 545 109" xmlns="http://www.w3.org/2000/svg" xmlns:xlink="http://www.w3.org/1999/xlink" xml:space="preserve" version="1.1" baseProfile="full">
<line x1="1" y1="1" x2="544" y2="1" style="stroke:#ddd;stroke-width:2"></line>
<line x1="1" y1="1" x2="1" y2="108" style="stroke:#ddd;stroke-width:2"></line>
<line x1="1" y1="108" x2="544" y2="108" style="stroke:#ddd;stroke-width:2"></line>
<line x1="544" y1="1" x2="544" y2="108" style="stroke:#ddd;stroke-width:2"></line>
<line x1="109" y1="1" x2="109" y2="108" style="stroke:#ddd;stroke-width:2"></line>
<line x1="218" y1="1" x2="218" y2="108" style="stroke:#ddd;stroke-width:2"></line>
<line x1="327" y1="1" x2="327" y2="108" style="stroke:#ddd;stroke-width:2"></line>
<line x1="436" y1="1" x2="436" y2="108" style="stroke:#ddd;stroke-width:2"></line>
<line x1="1" y1="54" x2="544" y2="54" style="stroke:#ddd;stroke-width:2;stroke-dasharray:3 3"></line>
<line x1="55" y1="1" x2="55" y2="108" style="stroke:#ddd;stroke-width:2;stroke-dasharray:3 3"></line>
<line x1="164" y1="1" x2="164" y2="108" style="stroke:#ddd;stroke-width:2;stroke-dasharray:3 3"></line>
<line x1="273" y1="1" x2="273" y2="108" style="stroke:#ddd;stroke-width:2;stroke-dasharray:3 3"></line>
<line x1="382" y1="1" x2="382" y2="108" style="stroke:#ddd;stroke-width:2;stroke-dasharray:3 3"></line>
<line x1="491" y1="1" x2="491" y2="108" style="stroke:#ddd;stroke-width:2;stroke-dasharray:3 3"></line>
<path d="M21.88,13.88c3.84,1.71,9.91,7.05,10.88,9.72" style="fill:none;stroke:#999;stroke-width:3"></path>

<path d="M130.88,13.88c3.84,1.71,9.91,7.05,10.88,9.72" style="fill:none;stroke:#999;stroke-width:3"></path>
<path d="M123.25,42c4.24,1.54,10.94,6.35,12,8.75" style="fill:none;stroke:#999;stroke-width:3"></path>

<path d="M239.88,13.88c3.84,1.71,9.91,7.05,10.88,9.72" style="fill:none;stroke:#999;stroke-width:3"></path>
<path d="M232.25,42c4.24,1.54,10.94,6.35,12,8.75" style="fill:none;stroke:#999;stroke-width:3"></path>
<path d="M236.0,88.71c1.75,0.67,3.26,0.11,4.26-1.5c2.92-4.7,6.71-13.45,9.37-19.45" style="fill:none;stroke:#999;stroke-width:3"></path>

<path d="M348.88,13.88c3.84,1.71,9.91,7.05,10.88,9.72" style="fill:none;stroke:#999;stroke-width:3"></path>
<path d="M341.25,42c4.24,1.54,10.94,6.35,12,8.75" style="fill:none;stroke:#999;stroke-width:3"></path>
<path d="M345.0,88.71c1.75,0.67,3.26,0.11,4.26-1.5c2.92-4.7,6.71-13.45,9.37-19.45" style="fill:none;stroke:#999;stroke-width:3"></path>
<path d="M366.5,20.42c3.5,0.95,7.05,0.43,10.25,0.11c11.96-1.21,23.74-2.38,37.75-3.08c3.15-0.16,6.16-0.37,9.25,0.36" style="fill:none;stroke:#999;stroke-width:3"></path>

<path d="M457.88,13.88c3.84,1.71,9.91,7.05,10.88,9.72" style="fill:none;stroke:#999;stroke-width:3"></path>
<path d="M450.25,42c4.24,1.54,10.94,6.35,12,8.75" style="fill:none;stroke:#999;stroke-width:3"></path>
<path d="M454.0,88.71c1.75,0.67,3.26,0.11,4.26-1.5c2.92-4.7,6.71-13.45,9.37-19.45" style="fill:none;stroke:#999;stroke-width:3"></path>
<path d="M475.5,20.42c3.5,0.95,7.05,0.43,10.25,0.11c11.96-1.21,23.74-2.38,37.75-3.08c3.15-0.16,6.16-0.37,9.25,0.36" style="fill:none;stroke:#999;stroke-width:3"></path>
<path d="M504.52,21.83c1.14,1.14,1.5,2.54,1.5,5.06c0,14.67,0,55.11,0,60.3c0,11.31-7.46,1.26-8.96,0" style="fill:none;stroke:#999;stroke-width:3"></path>

</svg>