<svg width="545px" height="109px" viewBox="0 0 545 109" xmlns="http://www.w3.org/2000/svg" xmlns:xlink="http://www.w3.org/1999/xlink" xml:space="preserve" version="1.1" baseProfile="full">
<line x1="1" y1="1" x2="544" y2="1" style="stroke:#ddd;stroke-width:2"></line>
<line x1="1" y1="1" x2="1" y2="108" style="stroke:#ddd;stroke-width:2"></line>
<line x1="1" y1="108" x2="544" y2="108" style="stroke:#ddd;stroke-width:2"></line>
<line x1="544" y1="1" x2="544" y2="108" style="stroke:#ddd;stroke-width:2"></line>
<line x1="109" y1="1" x2="109" y2="108" style="stroke:#ddd;stroke-width:2"></line>
<line x1="218" y1="1" x2="218" y2="108" style="stroke:#ddd;stroke-width:2"></line>
<line x1="327" y1="1" x2="327" y2="108" style="stroke:#ddd;stroke-width:2"></line>
<line x1="436" y1="1" x2="436" y2="108" style="stroke:#ddd;stroke-width:2"></line>
<line x1="1" y1="54" x2="544" y2="54" style="stroke:#ddd;stroke-width:2;stroke-dasharray:3 3"></line>
<line x1="55" y1="1" x2="55" y2="108" style="stroke:#ddd;stroke-width:2;stroke-dasharray:3 3"></line>
<line x1="164" y1="1" x2="164" y2="108" style="stroke:#ddd;stroke-width:2;stroke-dasharray:3 3"></line>
<line x1="273" y1="1" x2="273" y2="108" style="stroke:#ddd;stroke-width:2;stroke-dasharray:3 3"></line>
<line x1="382" y1="1" x2="382" y2="108" style="stroke:#ddd;stroke-width:2;stroke-dasharray:3 3"></line>
<line x1="491" y1="1" x2="491" y2="108" style="stroke:#ddd;stroke-width:2;stroke-dasharray:3 3"></line>
<path d="M21.75,17.5c4.68,1.78,12.08,7.32,13.25,10.09" style="fill:none;stroke:#999;stroke-width:3"></path>

<path d="M130.75,17.5c4.68,1.78,12.08,7.32,13.25,10.09" style="fill:none;stroke:#999;stroke-width:3"></path>
<path d="M124.5,40.62c4.5,1.61,11.62,6.62,12.75,9.12" style="fill:none;stroke:#999;stroke-width:3"></path>

<path d="M239.75,17.5c4.68,1.78,12.08,7.32,13.25,10.09" style="fill:none;stroke:#999;stroke-width:3"></path>
<path d="M233.5,40.62c4.5,1.61,11.62,6.62,12.75,9.12" style="fill:none;stroke:#999;stroke-width:3"></path>
<path d="M233.6,87.53c1.52,0.69,3.12,0.5,4.03-0.79c3.22-4.57,6.44-10.16,9.36-15.99" style="fill:none;stroke:#999;stroke-width:3"></path>

<path d="M348.75,17.5c4.68,1.78,12.08,7.32,13.25,10.09" style="fill:none;stroke:#999;stroke-width:3"></path>
<path d="M342.5,40.62c4.5,1.61,11.62,6.62,12.75,9.12" style="fill:none;stroke:#999;stroke-width:3"></path>
<path d="M342.6,87.53c1.52,0.69,3.12,0.5,4.03-0.79c3.22-4.57,6.44-10.16,9.36-15.99" style="fill:none;stroke:#999;stroke-width:3"></path>
<path d="M367.67,48.16c2.32,0.83,5.59,0.5,7.98,0.27c12.58-1.23,30.86-3.05,40.97-3.66c2.42-0.15,4.83-0.28,7.22,0.23" style="fill:none;stroke:#999;stroke-width:3"></path>

<path d="M457.75,17.5c4.68,1.78,12.08,7.32,13.25,10.09" style="fill:none;stroke:#999;stroke-width:3"></path>
<path d="M451.5,40.62c4.5,1.61,11.62,6.62,12.75,9.12" style="fill:none;stroke:#999;stroke-width:3"></path>
<path d="M451.6,87.53c1.52,0.69,3.12,0.5,4.03-0.79c3.22-4.57,6.44-10.16,9.36-15.99" style="fill:none;stroke:#999;stroke-width:3"></path>
<path d="M476.67,48.16c2.32,0.83,5.59,0.5,7.98,0.27c12.58-1.23,30.86-3.05,40.97-3.66c2.42-0.15,4.83-0.28,7.22,0.23" style="fill:none;stroke:#999;stroke-width:3"></path>
<path d="M502.68,14.13c1.22,1.22,1.64,2.99,1.64,4.45c0,0.82,0.02,50.57,0.02,69.42c0,4.28,0,6.96-0.01,7.13" style="fill:none;stroke:#999;stroke-width:3"></path>

</svg>