<svg width="763px" height="109px" viewBox="0 0 763 109" xmlns="http://www.w3.org/2000/svg" xmlns:xlink="http://www.w3.org/1999/xlink" xml:space="preserve" version="1.1" baseProfile="full">
<line x1="1" y1="1" x2="762" y2="1" style="stroke:#ddd;stroke-width:2"></line>
<line x1="1" y1="1" x2="1" y2="108" style="stroke:#ddd;stroke-width:2"></line>
<line x1="1" y1="108" x2="762" y2="108" style="stroke:#ddd;stroke-width:2"></line>
<line x1="762" y1="1" x2="762" y2="108" style="stroke:#ddd;stroke-width:2"></line>
<line x1="109" y1="1" x2="109" y2="108" style="stroke:#ddd;stroke-width:2"></line>
<line x1="218" y1="1" x2="218" y2="108" style="stroke:#ddd;stroke-width:2"></line>
<line x1="327" y1="1" x2="327" y2="108" style="stroke:#ddd;stroke-width:2"></line>
<line x1="436" y1="1" x2="436" y2="108" style="stroke:#ddd;stroke-width:2"></line>
<line x1="545" y1="1" x2="545" y2="108" style="stroke:#ddd;stroke-width:2"></line>
<line x1="654" y1="1" x2="654" y2="108" style="stroke:#ddd;stroke-width:2"></line>
<line x1="1" y1="54" x2="762" y2="54" style="stroke:#ddd;stroke-width:2;stroke-dasharray:3 3"></line>
<line x1="55" y1="1" x2="55" y2="108" style="stroke:#ddd;stroke-width:2;stroke-dasharray:3 3"></line>
<line x1="164" y1="1" x2="164" y2="108" style="stroke:#ddd;stroke-width:2;stroke-dasharray:3 3"></line>
<line x1="273" y1="1" x2="273" y2="108" style="stroke:#ddd;stroke-width:2;stroke-dasharray:3 3"></line>
<line x1="382" y1="1" x2="382" y2="108" style="stroke:#ddd;stroke-width:2;stroke-dasharray:3 3"></line>
<line x1="491" y1="1" x2="491" y2="108" style="stroke:#ddd;stroke-width:2;stroke-dasharray:3 3"></line>
<line x1="600" y1="1" x2="600" y2="108" style="stroke:#ddd;stroke-width:2;stroke-dasharray:3 3"></line>
<line x1="709" y1="1" x2="709" y2="108" style="stroke:#ddd;stroke-width:2;stroke-dasharray:3 3"></line>
<path d="M19.75,35.4c2.75,0.47,6.08,0.33,8.77,0.02C41.0,34,62.3,31.74,74.38,30.83c3.24-0.25,6.66-0.65,9.87,0.05" style="fill:none;stroke:#999;stroke-width:3"></path>

<path d="M128.75,35.4c2.75,0.47,6.08,0.33,8.77,0.02C150.0,34,171.3,31.74,183.38,30.83c3.24-0.25,6.66-0.65,9.87,0.05" style="fill:none;stroke:#999;stroke-width:3"></path>
<path d="M161.27,11.33c1.26,1.26,1.76,2.67,1.76,4.77c0,15.77-0.01,68.02-0.01,77.12c0,8.53-5.77,2.53-8.71,0.25" style="fill:none;stroke:#999;stroke-width:3"></path>

<path d="M237.75,35.4c2.75,0.47,6.08,0.33,8.77,0.02C259.0,34,280.3,31.74,292.38,30.83c3.24-0.25,6.66-0.65,9.87,0.05" style="fill:none;stroke:#999;stroke-width:3"></path>
<path d="M270.27,11.33c1.26,1.26,1.76,2.67,1.76,4.77c0,15.77-0.01,68.02-0.01,77.12c0,8.53-5.77,2.53-8.71,0.25" style="fill:none;stroke:#999;stroke-width:3"></path>
<path d="M244.27,49.08c3.99,1.48,10.3,6.08,11.29,8.38" style="fill:none;stroke:#999;stroke-width:3"></path>

<path d="M346.75,35.4c2.75,0.47,6.08,0.33,8.77,0.02C368.0,34,389.3,31.74,401.38,30.83c3.24-0.25,6.66-0.65,9.87,0.05" style="fill:none;stroke:#999;stroke-width:3"></path>
<path d="M379.27,11.33c1.26,1.26,1.76,2.67,1.76,4.77c0,15.77-0.01,68.02-0.01,77.12c0,8.53-5.77,2.53-8.71,0.25" style="fill:none;stroke:#999;stroke-width:3"></path>
<path d="M353.27,49.08c3.99,1.48,10.3,6.08,11.29,8.38" style="fill:none;stroke:#999;stroke-width:3"></path>
<path d="M345.45,83.33c1.18,0.55,2.93,0.42,4.3-0.7c1.7-1.39,14.5-13.38,22.75-21.38" style="fill:none;stroke:#999;stroke-width:3"></path>

<path d="M455.75,35.4c2.75,0.47,6.08,0.33,8.77,0.02C477.0,34,498.3,31.74,510.38,30.83c3.24-0.25,6.66-0.65,9.87,0.05" style="fill:none;stroke:#999;stroke-width:3"></path>
<path d="M488.27,11.33c1.26,1.26,1.76,2.67,1.76,4.77c0,15.77-0.01,68.02-0.01,77.12c0,8.53-5.77,2.53-8.71,0.25" style="fill:none;stroke:#999;stroke-width:3"></path>
<path d="M462.27,49.08c3.99,1.48,10.3,6.08,11.29,8.38" style="fill:none;stroke:#999;stroke-width:3"></path>
<path d="M454.45,83.33c1.18,0.55,2.93,0.42,4.3-0.7c1.7-1.39,14.5-13.38,22.75-21.38" style="fill:none;stroke:#999;stroke-width:3"></path>
<path d="M517.0,42.25c0,0.88-0.22,2.08-0.78,2.81c-3.37,4.36-9.59,9.13-15.47,12.19" style="fill:none;stroke:#999;stroke-width:3"></path>

<path d="M564.75,35.4c2.75,0.47,6.08,0.33,8.77,0.02C586.0,34,607.3,31.74,619.38,30.83c3.24-0.25,6.66-0.65,9.87,0.05" style="fill:none;stroke:#999;stroke-width:3"></path>
<path d="M597.27,11.33c1.26,1.26,1.76,2.67,1.76,4.77c0,15.77-0.01,68.02-0.01,77.12c0,8.53-5.77,2.53-8.71,0.25" style="fill:none;stroke:#999;stroke-width:3"></path>
<path d="M571.27,49.08c3.99,1.48,10.3,6.08,11.29,8.38" style="fill:none;stroke:#999;stroke-width:3"></path>
<path d="M563.45,83.33c1.18,0.55,2.93,0.42,4.3-0.7c1.7-1.39,14.5-13.38,22.75-21.38" style="fill:none;stroke:#999;stroke-width:3"></path>
<path d="M626.0,42.25c0,0.88-0.22,2.08-0.78,2.81c-3.37,4.36-9.59,9.13-15.47,12.19" style="fill:none;stroke:#999;stroke-width:3"></path>
<path d="M605.25,62.5c3.5,1,17.39,15.53,24.45,20.14c2.06,1.34,5.3,3.48,8.05,4.36" style="fill:none;stroke:#999;stroke-width:3"></path>

<path d="M673.75,35.4c2.75,0.47,6.08,0.33,8.77,0.02C695.0,34,716.3,31.74,728.38,30.83c3.24-0.25,6.66-0.65,9.87,0.05" style="fill:none;stroke:#999;stroke-width:3"></path>
<path d="M706.27,11.33c1.26,1.26,1.76,2.67,1.76,4.77c0,15.77-0.01,68.02-0.01,77.12c0,8.53-5.77,2.53-8.71,0.25" style="fill:none;stroke:#999;stroke-width:3"></path>
<path d="M680.27,49.08c3.99,1.48,10.3,6.08,11.29,8.38" style="fill:none;stroke:#999;stroke-width:3"></path>
<path d="M672.45,83.33c1.18,0.55,2.93,0.42,4.3-0.7c1.7-1.39,14.5-13.38,22.75-21.38" style="fill:none;stroke:#999;stroke-width:3"></path>
<path d="M735.0,42.25c0,0.88-0.22,2.08-0.78,2.81c-3.37,4.36-9.59,9.13-15.47,12.19" style="fill:none;stroke:#999;stroke-width:3"></path>
<path d="M714.25,62.5c3.5,1,17.39,15.53,24.45,20.14c2.06,1.34,5.3,3.48,8.05,4.36" style="fill:none;stroke:#999;stroke-width:3"></path>
<path d="M723.5,11.5c4.08,1.63,10.54,6.69,11.56,9.22" style="fill:none;stroke:#999;stroke-width:3"></path>

</svg>