<svg width="654px" height="109px" viewBox="0 0 654 109" xmlns="http://www.w3.org/2000/svg" xmlns:xlink="http://www.w3.org/1999/xlink" xml:space="preserve" version="1.1" baseProfile="full">
<line x1="1" y1="1" x2="653" y2="1" style="stroke:#ddd;stroke-width:2"></line>
<line x1="1" y1="1" x2="1" y2="108" style="stroke:#ddd;stroke-width:2"></line>
<line x1="1" y1="108" x2="653" y2="108" style="stroke:#ddd;stroke-width:2"></line>
<line x1="653" y1="1" x2="653" y2="108" style="stroke:#ddd;stroke-width:2"></line>
<line x1="109" y1="1" x2="109" y2="108" style="stroke:#ddd;stroke-width:2"></line>
<line x1="218" y1="1" x2="218" y2="108" style="stroke:#ddd;stroke-width:2"></line>
<line x1="327" y1="1" x2="327" y2="108" style="stroke:#ddd;stroke-width:2"></line>
<line x1="436" y1="1" x2="436" y2="108" style="stroke:#ddd;stroke-width:2"></line>
<line x1="545" y1="1" x2="545" y2="108" style="stroke:#ddd;stroke-width:2"></line>
<line x1="1" y1="54" x2="653" y2="54" style="stroke:#ddd;stroke-width:2;stroke-dasharray:3 3"></line>
<line x1="55" y1="1" x2="55" y2="108" style="stroke:#ddd;stroke-width:2;stroke-dasharray:3 3"></line>
<line x1="164" y1="1" x2="164" y2="108" style="stroke:#ddd;stroke-width:2;stroke-dasharray:3 3"></line>
<line x1="273" y1="1" x2="273" y2="108" style="stroke:#ddd;stroke-width:2;stroke-dasharray:3 3"></line>
<line x1="382" y1="1" x2="382" y2="108" style="stroke:#ddd;stroke-width:2;stroke-dasharray:3 3"></line>
<line x1="491" y1="1" x2="491" y2="108" style="stroke:#ddd;stroke-width:2;stroke-dasharray:3 3"></line>
<line x1="600" y1="1" x2="600" y2="108" style="stroke:#ddd;stroke-width:2;stroke-dasharray:3 3"></line>
<path d="M20.13,18.25c4.45,1.47,11.5,6.05,12.62,8.34" style="fill:none;stroke:#999;stroke-width:3"></path>

<path d="M129.13,18.25c4.45,1.47,11.5,6.05,12.62,8.34" style="fill:none;stroke:#999;stroke-width:3"></path>
<path d="M125.0,41.75c4.06,1.37,10.48,5.62,11.5,7.75" style="fill:none;stroke:#999;stroke-width:3"></path>

<path d="M238.13,18.25c4.45,1.47,11.5,6.05,12.62,8.34" style="fill:none;stroke:#999;stroke-width:3"></path>
<path d="M234.0,41.75c4.06,1.37,10.48,5.62,11.5,7.75" style="fill:none;stroke:#999;stroke-width:3"></path>
<path d="M234.75,88.68c2.25,0.82,4.21-0.1,5.27-1.76c3.09-4.84,5.67-9.25,8.48-15.42" style="fill:none;stroke:#999;stroke-width:3"></path>

<path d="M347.13,18.25c4.45,1.47,11.5,6.05,12.62,8.34" style="fill:none;stroke:#999;stroke-width:3"></path>
<path d="M343.0,41.75c4.06,1.37,10.48,5.62,11.5,7.75" style="fill:none;stroke:#999;stroke-width:3"></path>
<path d="M343.75,88.68c2.25,0.82,4.21-0.1,5.27-1.76c3.09-4.84,5.67-9.25,8.48-15.42" style="fill:none;stroke:#999;stroke-width:3"></path>
<path d="M378.87,19.89c0.54,2.02,1.3,3.61,1.3,6.13c0,23.06,0.73,54.26-16.42,69.23" style="fill:none;stroke:#999;stroke-width:3"></path>

<path d="M456.13,18.25c4.45,1.47,11.5,6.05,12.62,8.34" style="fill:none;stroke:#999;stroke-width:3"></path>
<path d="M452.0,41.75c4.06,1.37,10.48,5.62,11.5,7.75" style="fill:none;stroke:#999;stroke-width:3"></path>
<path d="M452.75,88.68c2.25,0.82,4.21-0.1,5.27-1.76c3.09-4.84,5.67-9.25,8.48-15.42" style="fill:none;stroke:#999;stroke-width:3"></path>
<path d="M487.87,19.89c0.54,2.02,1.3,3.61,1.3,6.13c0,23.06,0.73,54.26-16.42,69.23" style="fill:none;stroke:#999;stroke-width:3"></path>
<path d="M488.96,22.32c2.86-0.72,17.56-3.61,19.85-4.33c2.29-0.72,4.77,0.72,4.2,4.35c-0.57,3.62-0.85,52.84-0.91,55.49c-0.19,8.69-1.18,14.55,10.23,14.73s10.45-2.9,10.45-10.39" style="fill:none;stroke:#999;stroke-width:3"></path>

<path d="M565.13,18.25c4.45,1.47,11.5,6.05,12.62,8.34" style="fill:none;stroke:#999;stroke-width:3"></path>
<path d="M561.0,41.75c4.06,1.37,10.48,5.62,11.5,7.75" style="fill:none;stroke:#999;stroke-width:3"></path>
<path d="M561.75,88.68c2.25,0.82,4.21-0.1,5.27-1.76c3.09-4.84,5.67-9.25,8.48-15.42" style="fill:none;stroke:#999;stroke-width:3"></path>
<path d="M596.87,19.89c0.54,2.02,1.3,3.61,1.3,6.13c0,23.06,0.73,54.26-16.42,69.23" style="fill:none;stroke:#999;stroke-width:3"></path>
<path d="M597.96,22.32c2.86-0.72,17.56-3.61,19.85-4.33c2.29-0.72,4.77,0.72,4.2,4.35c-0.57,3.62-0.85,52.84-0.91,55.49c-0.19,8.69-1.18,14.55,10.23,14.73s10.45-2.9,10.45-10.39" style="fill:none;stroke:#999;stroke-width:3"></path>
<path d="M604.45,45.26c5.06,4.09,7.95,8.44,9.52,12.28" style="fill:none;stroke:#999;stroke-width:3"></path>

</svg>