<svg width="654px" height="109px" viewBox="0 0 654 109" xmlns="http://www.w3.org/2000/svg" xmlns:xlink="http://www.w3.org/1999/xlink" xml:space="preserve" version="1.1" baseProfile="full">
<line x1="1" y1="1" x2="653" y2="1" style="stroke:#ddd;stroke-width:2"></line>
<line x1="1" y1="1" x2="1" y2="108" style="stroke:#ddd;stroke-width:2"></line>
<line x1="1" y1="108" x2="653" y2="108" style="stroke:#ddd;stroke-width:2"></line>
<line x1="653" y1="1" x2="653" y2="108" style="stroke:#ddd;stroke-width:2"></line>
<line x1="109" y1="1" x2="109" y2="108" style="stroke:#ddd;stroke-width:2"></line>
<line x1="218" y1="1" x2="218" y2="108" style="stroke:#ddd;stroke-width:2"></line>
<line x1="327" y1="1" x2="327" y2="108" style="stroke:#ddd;stroke-width:2"></line>
<line x1="436" y1="1" x2="436" y2="108" style="stroke:#ddd;stroke-width:2"></line>
<line x1="545" y1="1" x2="545" y2="108" style="stroke:#ddd;stroke-width:2"></line>
<line x1="1" y1="54" x2="653" y2="54" style="stroke:#ddd;stroke-width:2;stroke-dasharray:3 3"></line>
<line x1="55" y1="1" x2="55" y2="108" style="stroke:#ddd;stroke-width:2;stroke-dasharray:3 3"></line>
<line x1="164" y1="1" x2="164" y2="108" style="stroke:#ddd;stroke-width:2;stroke-dasharray:3 3"></line>
<line x1="273" y1="1" x2="273" y2="108" style="stroke:#ddd;stroke-width:2;stroke-dasharray:3 3"></line>
<line x1="382" y1="1" x2="382" y2="108" style="stroke:#ddd;stroke-width:2;stroke-dasharray:3 3"></line>
<line x1="491" y1="1" x2="491" y2="108" style="stroke:#ddd;stroke-width:2;stroke-dasharray:3 3"></line>
<line x1="600" y1="1" x2="600" y2="108" style="stroke:#ddd;stroke-width:2;stroke-dasharray:3 3"></line>
<path d="M21.38,16.5c4.45,1.69,11.5,6.96,12.62,9.59" style="fill:none;stroke:#999;stroke-width:3"></path>

<path d="M130.38,16.5c4.45,1.69,11.5,6.96,12.62,9.59" style="fill:none;stroke:#999;stroke-width:3"></path>
<path d="M123.88,40.25c4.37,1.37,11.28,5.62,12.38,7.75" style="fill:none;stroke:#999;stroke-width:3"></path>

<path d="M239.38,16.5c4.45,1.69,11.5,6.96,12.62,9.59" style="fill:none;stroke:#999;stroke-width:3"></path>
<path d="M232.88,40.25c4.37,1.37,11.28,5.62,12.38,7.75" style="fill:none;stroke:#999;stroke-width:3"></path>
<path d="M233.62,86.61c2.12,0.77,3.37-0.17,4.48-1.75c3.23-4.6,6.46-10.23,9.39-16.1" style="fill:none;stroke:#999;stroke-width:3"></path>

<path d="M348.38,16.5c4.45,1.69,11.5,6.96,12.62,9.59" style="fill:none;stroke:#999;stroke-width:3"></path>
<path d="M341.88,40.25c4.37,1.37,11.28,5.62,12.38,7.75" style="fill:none;stroke:#999;stroke-width:3"></path>
<path d="M342.62,86.61c2.12,0.77,3.37-0.17,4.48-1.75c3.23-4.6,6.46-10.23,9.39-16.1" style="fill:none;stroke:#999;stroke-width:3"></path>
<path d="M392.24,18.39c0.26,0.71,0.01,2.13-0.49,3.49C388.5,30.75,380.0,46.25,366.31,59.47" style="fill:none;stroke:#999;stroke-width:3"></path>

<path d="M457.38,16.5c4.45,1.69,11.5,6.96,12.62,9.59" style="fill:none;stroke:#999;stroke-width:3"></path>
<path d="M450.88,40.25c4.37,1.37,11.28,5.62,12.38,7.75" style="fill:none;stroke:#999;stroke-width:3"></path>
<path d="M451.62,86.61c2.12,0.77,3.37-0.17,4.48-1.75c3.23-4.6,6.46-10.23,9.39-16.1" style="fill:none;stroke:#999;stroke-width:3"></path>
<path d="M501.24,18.39c0.26,0.71,0.01,2.13-0.49,3.49C497.5,30.75,489.0,46.25,475.31,59.47" style="fill:none;stroke:#999;stroke-width:3"></path>
<path d="M501.75,28.5c1.62,0.75,3,0.75,4.78,0.58c4.39-0.43,10.84-1.33,19.31-3.58c4.3-1.14,5.75,1.43,4.41,4.53c-8.5,19.6-27.13,49.6-61.25,64.22" style="fill:none;stroke:#999;stroke-width:3"></path>

<path d="M566.38,16.5c4.45,1.69,11.5,6.96,12.62,9.59" style="fill:none;stroke:#999;stroke-width:3"></path>
<path d="M559.88,40.25c4.37,1.37,11.28,5.62,12.38,7.75" style="fill:none;stroke:#999;stroke-width:3"></path>
<path d="M560.62,86.61c2.12,0.77,3.37-0.17,4.48-1.75c3.23-4.6,6.46-10.23,9.39-16.1" style="fill:none;stroke:#999;stroke-width:3"></path>
<path d="M610.24,18.39c0.26,0.71,0.01,2.13-0.49,3.49C606.5,30.75,598.0,46.25,584.31,59.47" style="fill:none;stroke:#999;stroke-width:3"></path>
<path d="M610.75,28.5c1.62,0.75,3,0.75,4.78,0.58c4.39-0.43,10.84-1.33,19.31-3.58c4.3-1.14,5.75,1.43,4.41,4.53c-8.5,19.6-27.13,49.6-61.25,64.22" style="fill:none;stroke:#999;stroke-width:3"></path>
<path d="M598.52,48.33c6.23,3.29,13.23,9.42,16.29,14.63" style="fill:none;stroke:#999;stroke-width:3"></path>

</svg>