<svg width="763px" height="109px" viewBox="0 0 763 109" xmlns="http://www.w3.org/2000/svg" xmlns:xlink="http://www.w3.org/1999/xlink" xml:space="preserve" version="1.1" baseProfile="full">
<line x1="1" y1="1" x2="762" y2="1" style="stroke:#ddd;stroke-width:2"></line>
<line x1="1" y1="1" x2="1" y2="108" style="stroke:#ddd;stroke-width:2"></line>
<line x1="1" y1="108" x2="762" y2="108" style="stroke:#ddd;stroke-width:2"></line>
<line x1="762" y1="1" x2="762" y2="108" style="stroke:#ddd;stroke-width:2"></line>
<line x1="109" y1="1" x2="109" y2="108" style="stroke:#ddd;stroke-width:2"></line>
<line x1="218" y1="1" x2="218" y2="108" style="stroke:#ddd;stroke-width:2"></line>
<line x1="327" y1="1" x2="327" y2="108" style="stroke:#ddd;stroke-width:2"></line>
<line x1="436" y1="1" x2="436" y2="108" style="stroke:#ddd;stroke-width:2"></line>
<line x1="545" y1="1" x2="545" y2="108" style="stroke:#ddd;stroke-width:2"></line>
<line x1="654" y1="1" x2="654" y2="108" style="stroke:#ddd;stroke-width:2"></line>
<line x1="1" y1="54" x2="762" y2="54" style="stroke:#ddd;stroke-width:2;stroke-dasharray:3 3"></line>
<line x1="55" y1="1" x2="55" y2="108" style="stroke:#ddd;stroke-width:2;stroke-dasharray:3 3"></line>
<line x1="164" y1="1" x2="164" y2="108" style="stroke:#ddd;stroke-width:2;stroke-dasharray:3 3"></line>
<line x1="273" y1="1" x2="273" y2="108" style="stroke:#ddd;stroke-width:2;stroke-dasharray:3 3"></line>
<line x1="382" y1="1" x2="382" y2="108" style="stroke:#ddd;stroke-width:2;stroke-dasharray:3 3"></line>
<line x1="491" y1="1" x2="491" y2="108" style="stroke:#ddd;stroke-width:2;stroke-dasharray:3 3"></line>
<line x1="600" y1="1" x2="600" y2="108" style="stroke:#ddd;stroke-width:2;stroke-dasharray:3 3"></line>
<line x1="709" y1="1" x2="709" y2="108" style="stroke:#ddd;stroke-width:2;stroke-dasharray:3 3"></line>
<path d="M28.12,16.96c0.95,0.3,4.04,0.4,5,0.31c4.46-0.41,37.51-2.26,45.01-2.57c1.46-0.06,2.79,0.06,4,0.31" style="fill:none;stroke:#999;stroke-width:3"></path>

<path d="M137.12,16.96c0.95,0.3,4.04,0.4,5,0.31c4.46-0.41,37.51-2.26,45.01-2.57c1.46-0.06,2.79,0.06,4,0.31" style="fill:none;stroke:#999;stroke-width:3"></path>
<path d="M161.32,18.9c1.88,1.92,1.88,3.07,1.88,4.61c0,2.99-0.06,8.74-0.06,12.95" style="fill:none;stroke:#999;stroke-width:3"></path>

<path d="M246.12,16.96c0.95,0.3,4.04,0.4,5,0.31c4.46-0.41,37.51-2.26,45.01-2.57c1.46-0.06,2.79,0.06,4,0.31" style="fill:none;stroke:#999;stroke-width:3"></path>
<path d="M270.32,18.9c1.88,1.92,1.88,3.07,1.88,4.61c0,2.99-0.06,8.74-0.06,12.95" style="fill:none;stroke:#999;stroke-width:3"></path>
<path d="M232.67,38.97c0.94,0.22,4.31,0.45,5.91,0.35c17.21-1.06,51.39-3.63,67.06-3.96c2.57-0.05,5.65,0.36,6.94,0.71" style="fill:none;stroke:#999;stroke-width:3"></path>

<path d="M355.12,16.96c0.95,0.3,4.04,0.4,5,0.31c4.46-0.41,37.51-2.26,45.01-2.57c1.46-0.06,2.79,0.06,4,0.31" style="fill:none;stroke:#999;stroke-width:3"></path>
<path d="M379.32,18.9c1.88,1.92,1.88,3.07,1.88,4.61c0,2.99-0.06,8.74-0.06,12.95" style="fill:none;stroke:#999;stroke-width:3"></path>
<path d="M341.66999999999996,38.97c0.94,0.22,4.31,0.45,5.91,0.35c17.21-1.06,51.39-3.63,67.06-3.96c2.57-0.05,5.65,0.36,6.94,0.71" style="fill:none;stroke:#999;stroke-width:3"></path>
<path d="M380.79,41.08c0.82,0.76,1.39,2.06,1.46,4.58c0.33,12.08-0.21,43.67-0.21,47.79c0,8.12-6.24,0.03-7.48-1.01" style="fill:none;stroke:#999;stroke-width:3"></path>

<path d="M464.12,16.96c0.95,0.3,4.04,0.4,5,0.31c4.46-0.41,37.51-2.26,45.01-2.57c1.46-0.06,2.79,0.06,4,0.31" style="fill:none;stroke:#999;stroke-width:3"></path>
<path d="M488.32,18.9c1.88,1.92,1.88,3.07,1.88,4.61c0,2.99-0.06,8.74-0.06,12.95" style="fill:none;stroke:#999;stroke-width:3"></path>
<path d="M450.66999999999996,38.97c0.94,0.22,4.31,0.45,5.91,0.35c17.21-1.06,51.39-3.63,67.06-3.96c2.57-0.05,5.65,0.36,6.94,0.71" style="fill:none;stroke:#999;stroke-width:3"></path>
<path d="M489.79,41.08c0.82,0.76,1.39,2.06,1.46,4.58c0.33,12.08-0.21,43.67-0.21,47.79c0,8.12-6.24,0.03-7.48-1.01" style="fill:none;stroke:#999;stroke-width:3"></path>
<path d="M454.5,56.75c1.5,0.25,3.18,0.72,4.75,0.5c5.25-0.75,12-1.75,16.84-2.25c2.68-0.28,4.61,0.79,3.75,3C475.25,69.75,465.25,82.5,449.5,90.25" style="fill:none;stroke:#999;stroke-width:3"></path>

<path d="M573.12,16.96c0.95,0.3,4.04,0.4,5,0.31c4.46-0.41,37.51-2.26,45.01-2.57c1.46-0.06,2.79,0.06,4,0.31" style="fill:none;stroke:#999;stroke-width:3"></path>
<path d="M597.3199999999999,18.9c1.88,1.92,1.88,3.07,1.88,4.61c0,2.99-0.06,8.74-0.06,12.95" style="fill:none;stroke:#999;stroke-width:3"></path>
<path d="M559.67,38.97c0.94,0.22,4.31,0.45,5.91,0.35c17.21-1.06,51.39-3.63,67.06-3.96c2.57-0.05,5.65,0.36,6.94,0.71" style="fill:none;stroke:#999;stroke-width:3"></path>
<path d="M598.79,41.08c0.82,0.76,1.39,2.06,1.46,4.58c0.33,12.08-0.21,43.67-0.21,47.79c0,8.12-6.24,0.03-7.48-1.01" style="fill:none;stroke:#999;stroke-width:3"></path>
<path d="M563.5,56.75c1.5,0.25,3.18,0.72,4.75,0.5c5.25-0.75,12-1.75,16.84-2.25c2.68-0.28,4.61,0.79,3.75,3C584.25,69.75,574.25,82.5,558.5,90.25" style="fill:none;stroke:#999;stroke-width:3"></path>
<path d="M627.72,44.5c0.09,0.41-0.19,1.59-0.55,2.12C623.79,51.66,616.61,57.87,610.5,60.5" style="fill:none;stroke:#999;stroke-width:3"></path>

<path d="M682.12,16.96c0.95,0.3,4.04,0.4,5,0.31c4.46-0.41,37.51-2.26,45.01-2.57c1.46-0.06,2.79,0.06,4,0.31" style="fill:none;stroke:#999;stroke-width:3"></path>
<path d="M706.3199999999999,18.9c1.88,1.92,1.88,3.07,1.88,4.61c0,2.99-0.06,8.74-0.06,12.95" style="fill:none;stroke:#999;stroke-width:3"></path>
<path d="M668.67,38.97c0.94,0.22,4.31,0.45,5.91,0.35c17.21-1.06,51.39-3.63,67.06-3.96c2.57-0.05,5.65,0.36,6.94,0.71" style="fill:none;stroke:#999;stroke-width:3"></path>
<path d="M707.79,41.08c0.82,0.76,1.39,2.06,1.46,4.58c0.33,12.08-0.21,43.67-0.21,47.79c0,8.12-6.24,0.03-7.48-1.01" style="fill:none;stroke:#999;stroke-width:3"></path>
<path d="M672.5,56.75c1.5,0.25,3.18,0.72,4.75,0.5c5.25-0.75,12-1.75,16.84-2.25c2.68-0.28,4.61,0.79,3.75,3C693.25,69.75,683.25,82.5,667.5,90.25" style="fill:none;stroke:#999;stroke-width:3"></path>
<path d="M736.72,44.5c0.09,0.41-0.19,1.59-0.55,2.12C732.79,51.66,725.61,57.87,719.5,60.5" style="fill:none;stroke:#999;stroke-width:3"></path>
<path d="M709.5,53c11.25,10.75,25.25,24.25,35.44,31.35c2.1,1.46,4.29,1.96,6.31,2.4" style="fill:none;stroke:#999;stroke-width:3"></path>

</svg>