<svg width="763px" height="109px" viewBox="0 0 763 109" xmlns="http://www.w3.org/2000/svg" xmlns:xlink="http://www.w3.org/1999/xlink" xml:space="preserve" version="1.1" baseProfile="full">
<line x1="1" y1="1" x2="762" y2="1" style="stroke:#ddd;stroke-width:2"></line>
<line x1="1" y1="1" x2="1" y2="108" style="stroke:#ddd;stroke-width:2"></line>
<line x1="1" y1="108" x2="762" y2="108" style="stroke:#ddd;stroke-width:2"></line>
<line x1="762" y1="1" x2="762" y2="108" style="stroke:#ddd;stroke-width:2"></line>
<line x1="109" y1="1" x2="109" y2="108" style="stroke:#ddd;stroke-width:2"></line>
<line x1="218" y1="1" x2="218" y2="108" style="stroke:#ddd;stroke-width:2"></line>
<line x1="327" y1="1" x2="327" y2="108" style="stroke:#ddd;stroke-width:2"></line>
<line x1="436" y1="1" x2="436" y2="108" style="stroke:#ddd;stroke-width:2"></line>
<line x1="545" y1="1" x2="545" y2="108" style="stroke:#ddd;stroke-width:2"></line>
<line x1="654" y1="1" x2="654" y2="108" style="stroke:#ddd;stroke-width:2"></line>
<line x1="1" y1="54" x2="762" y2="54" style="stroke:#ddd;stroke-width:2;stroke-dasharray:3 3"></line>
<line x1="55" y1="1" x2="55" y2="108" style="stroke:#ddd;stroke-width:2;stroke-dasharray:3 3"></line>
<line x1="164" y1="1" x2="164" y2="108" style="stroke:#ddd;stroke-width:2;stroke-dasharray:3 3"></line>
<line x1="273" y1="1" x2="273" y2="108" style="stroke:#ddd;stroke-width:2;stroke-dasharray:3 3"></line>
<line x1="382" y1="1" x2="382" y2="108" style="stroke:#ddd;stroke-width:2;stroke-dasharray:3 3"></line>
<line x1="491" y1="1" x2="491" y2="108" style="stroke:#ddd;stroke-width:2;stroke-dasharray:3 3"></line>
<line x1="600" y1="1" x2="600" y2="108" style="stroke:#ddd;stroke-width:2;stroke-dasharray:3 3"></line>
<line x1="709" y1="1" x2="709" y2="108" style="stroke:#ddd;stroke-width:2;stroke-dasharray:3 3"></line>
<path d="M20.13,16.5c3.92,1.6,10.13,6.6,11.12,9.09" style="fill:none;stroke:#999;stroke-width:3"></path>

<path d="M129.13,16.5c3.92,1.6,10.13,6.6,11.12,9.09" style="fill:none;stroke:#999;stroke-width:3"></path>
<path d="M122.75,42c3.97,1.68,10.26,6.89,11.25,9.5" style="fill:none;stroke:#999;stroke-width:3"></path>

<path d="M238.13,16.5c3.92,1.6,10.13,6.6,11.12,9.09" style="fill:none;stroke:#999;stroke-width:3"></path>
<path d="M231.75,42c3.97,1.68,10.26,6.89,11.25,9.5" style="fill:none;stroke:#999;stroke-width:3"></path>
<path d="M231.75,88.73c2,0.77,4.28,0.32,5.36-1.25c3.14-4.57,7.79-10.66,10.64-16.49" style="fill:none;stroke:#999;stroke-width:3"></path>

<path d="M347.13,16.5c3.92,1.6,10.13,6.6,11.12,9.09" style="fill:none;stroke:#999;stroke-width:3"></path>
<path d="M340.75,42c3.97,1.68,10.26,6.89,11.25,9.5" style="fill:none;stroke:#999;stroke-width:3"></path>
<path d="M340.75,88.73c2,0.77,4.28,0.32,5.36-1.25c3.14-4.57,7.79-10.66,10.64-16.49" style="fill:none;stroke:#999;stroke-width:3"></path>
<path d="M382.75,17.02c0.33,0.97-0.07,2.05-0.46,3.25c-3.2,9.89-9.9,20.78-18.94,28.98" style="fill:none;stroke:#999;stroke-width:3"></path>

<path d="M456.13,16.5c3.92,1.6,10.13,6.6,11.12,9.09" style="fill:none;stroke:#999;stroke-width:3"></path>
<path d="M449.75,42c3.97,1.68,10.26,6.89,11.25,9.5" style="fill:none;stroke:#999;stroke-width:3"></path>
<path d="M449.75,88.73c2,0.77,4.28,0.32,5.36-1.25c3.14-4.57,7.79-10.66,10.64-16.49" style="fill:none;stroke:#999;stroke-width:3"></path>
<path d="M491.75,17.02c0.33,0.97-0.07,2.05-0.46,3.25c-3.2,9.89-9.9,20.78-18.94,28.98" style="fill:none;stroke:#999;stroke-width:3"></path>
<path d="M503.09000000000003,12.5c3.49,0.5,18.4,25.21,25.32,30.83c2.68,2.17,3.64,3.34,6.24,4.04" style="fill:none;stroke:#999;stroke-width:3"></path>

<path d="M565.13,16.5c3.92,1.6,10.13,6.6,11.12,9.09" style="fill:none;stroke:#999;stroke-width:3"></path>
<path d="M558.75,42c3.97,1.68,10.26,6.89,11.25,9.5" style="fill:none;stroke:#999;stroke-width:3"></path>
<path d="M558.75,88.73c2,0.77,4.28,0.32,5.36-1.25c3.14-4.57,7.79-10.66,10.64-16.49" style="fill:none;stroke:#999;stroke-width:3"></path>
<path d="M600.75,17.02c0.33,0.97-0.07,2.05-0.46,3.25c-3.2,9.89-9.9,20.78-18.94,28.98" style="fill:none;stroke:#999;stroke-width:3"></path>
<path d="M612.09,12.5c3.49,0.5,18.4,25.21,25.32,30.83c2.68,2.17,3.64,3.34,6.24,4.04" style="fill:none;stroke:#999;stroke-width:3"></path>
<path d="M590.23,51.57c1.16,0.51,3.1,0.82,4.12,0.78c8.89-0.34,25.41-1.84,29.98-2.37c2.97-0.34,4.33,1.03,4.13,3.44C627.75,62,623.0,81.5,617.09,89.91c-4.25,6.04-8.09-0.16-9.43-2.01" style="fill:none;stroke:#999;stroke-width:3"></path>

<path d="M674.13,16.5c3.92,1.6,10.13,6.6,11.12,9.09" style="fill:none;stroke:#999;stroke-width:3"></path>
<path d="M667.75,42c3.97,1.68,10.26,6.89,11.25,9.5" style="fill:none;stroke:#999;stroke-width:3"></path>
<path d="M667.75,88.73c2,0.77,4.28,0.32,5.36-1.25c3.14-4.57,7.79-10.66,10.64-16.49" style="fill:none;stroke:#999;stroke-width:3"></path>
<path d="M709.75,17.02c0.33,0.97-0.07,2.05-0.46,3.25c-3.2,9.89-9.9,20.78-18.94,28.98" style="fill:none;stroke:#999;stroke-width:3"></path>
<path d="M721.09,12.5c3.49,0.5,18.4,25.21,25.32,30.83c2.68,2.17,3.64,3.34,6.24,4.04" style="fill:none;stroke:#999;stroke-width:3"></path>
<path d="M699.23,51.57c1.16,0.51,3.1,0.82,4.12,0.78c8.89-0.34,25.41-1.84,29.98-2.37c2.97-0.34,4.33,1.03,4.13,3.44C736.75,62,732.0,81.5,726.09,89.91c-4.25,6.04-8.09-0.16-9.43-2.01" style="fill:none;stroke:#999;stroke-width:3"></path>
<path d="M714.02,54.75c0.07,0.86,0.23,2.26-0.14,3.44C709.79,71.45,705.25,83,690.7,93.25" style="fill:none;stroke:#999;stroke-width:3"></path>

</svg>