<svg width="763px" height="109px" viewBox="0 0 763 109" xmlns="http://www.w3.org/2000/svg" xmlns:xlink="http://www.w3.org/1999/xlink" xml:space="preserve" version="1.1" baseProfile="full">
<line x1="1" y1="1" x2="762" y2="1" style="stroke:#ddd;stroke-width:2"></line>
<line x1="1" y1="1" x2="1" y2="108" style="stroke:#ddd;stroke-width:2"></line>
<line x1="1" y1="108" x2="762" y2="108" style="stroke:#ddd;stroke-width:2"></line>
<line x1="762" y1="1" x2="762" y2="108" style="stroke:#ddd;stroke-width:2"></line>
<line x1="109" y1="1" x2="109" y2="108" style="stroke:#ddd;stroke-width:2"></line>
<line x1="218" y1="1" x2="218" y2="108" style="stroke:#ddd;stroke-width:2"></line>
<line x1="327" y1="1" x2="327" y2="108" style="stroke:#ddd;stroke-width:2"></line>
<line x1="436" y1="1" x2="436" y2="108" style="stroke:#ddd;stroke-width:2"></line>
<line x1="545" y1="1" x2="545" y2="108" style="stroke:#ddd;stroke-width:2"></line>
<line x1="654" y1="1" x2="654" y2="108" style="stroke:#ddd;stroke-width:2"></line>
<line x1="1" y1="54" x2="762" y2="54" style="stroke:#ddd;stroke-width:2;stroke-dasharray:3 3"></line>
<line x1="55" y1="1" x2="55" y2="108" style="stroke:#ddd;stroke-width:2;stroke-dasharray:3 3"></line>
<line x1="164" y1="1" x2="164" y2="108" style="stroke:#ddd;stroke-width:2;stroke-dasharray:3 3"></line>
<line x1="273" y1="1" x2="273" y2="108" style="stroke:#ddd;stroke-width:2;stroke-dasharray:3 3"></line>
<line x1="382" y1="1" x2="382" y2="108" style="stroke:#ddd;stroke-width:2;stroke-dasharray:3 3"></line>
<line x1="491" y1="1" x2="491" y2="108" style="stroke:#ddd;stroke-width:2;stroke-dasharray:3 3"></line>
<line x1="600" y1="1" x2="600" y2="108" style="stroke:#ddd;stroke-width:2;stroke-dasharray:3 3"></line>
<line x1="709" y1="1" x2="709" y2="108" style="stroke:#ddd;stroke-width:2;stroke-dasharray:3 3"></line>
<path d="M23.13,20.25c3.31,1.3,8.54,5.33,9.37,7.34" style="fill:none;stroke:#999;stroke-width:3"></path>

<path d="M132.13,20.25c3.31,1.3,8.54,5.33,9.37,7.34" style="fill:none;stroke:#999;stroke-width:3"></path>
<path d="M123.75,40.75c3.26,1.41,8.43,5.8,9.25,8" style="fill:none;stroke:#999;stroke-width:3"></path>

<path d="M241.13,20.25c3.31,1.3,8.54,5.33,9.37,7.34" style="fill:none;stroke:#999;stroke-width:3"></path>
<path d="M232.75,40.75c3.26,1.41,8.43,5.8,9.25,8" style="fill:none;stroke:#999;stroke-width:3"></path>
<path d="M231.25,89.21c1.62,0.54,2.57-0.13,3.5-1.75c3.12-5.45,5.12-9.08,9.75-17.95" style="fill:none;stroke:#999;stroke-width:3"></path>

<path d="M350.13,20.25c3.31,1.3,8.54,5.33,9.37,7.34" style="fill:none;stroke:#999;stroke-width:3"></path>
<path d="M341.75,40.75c3.26,1.41,8.43,5.8,9.25,8" style="fill:none;stroke:#999;stroke-width:3"></path>
<path d="M340.25,89.21c1.62,0.54,2.57-0.13,3.5-1.75c3.12-5.45,5.12-9.08,9.75-17.95" style="fill:none;stroke:#999;stroke-width:3"></path>
<path d="M368.79,33.51c0,4.13-1.75,15.49-2.54,18.24" style="fill:none;stroke:#999;stroke-width:3"></path>

<path d="M459.13,20.25c3.31,1.3,8.54,5.33,9.37,7.34" style="fill:none;stroke:#999;stroke-width:3"></path>
<path d="M450.75,40.75c3.26,1.41,8.43,5.8,9.25,8" style="fill:none;stroke:#999;stroke-width:3"></path>
<path d="M449.25,89.21c1.62,0.54,2.57-0.13,3.5-1.75c3.12-5.45,5.12-9.08,9.75-17.95" style="fill:none;stroke:#999;stroke-width:3"></path>
<path d="M477.79,33.51c0,4.13-1.75,15.49-2.54,18.24" style="fill:none;stroke:#999;stroke-width:3"></path>
<path d="M478.74,36.49c12.51-2.74,29.01-5.61,40.95-6.65c12.02-1.05,3.8,7.41-0.45,10.78" style="fill:none;stroke:#999;stroke-width:3"></path>

<path d="M568.13,20.25c3.31,1.3,8.54,5.33,9.37,7.34" style="fill:none;stroke:#999;stroke-width:3"></path>
<path d="M559.75,40.75c3.26,1.41,8.43,5.8,9.25,8" style="fill:none;stroke:#999;stroke-width:3"></path>
<path d="M558.25,89.21c1.62,0.54,2.57-0.13,3.5-1.75c3.12-5.45,5.12-9.08,9.75-17.95" style="fill:none;stroke:#999;stroke-width:3"></path>
<path d="M586.79,33.51c0,4.13-1.75,15.49-2.54,18.24" style="fill:none;stroke:#999;stroke-width:3"></path>
<path d="M587.74,36.49c12.51-2.74,29.01-5.61,40.95-6.65c12.02-1.05,3.8,7.41-0.45,10.78" style="fill:none;stroke:#999;stroke-width:3"></path>
<path d="M606.72,11c1.14,1.14,1.51,2.37,1.57,4.26C609.0,38.62,607.25,76.5,575.67,92.42" style="fill:none;stroke:#999;stroke-width:3"></path>

<path d="M677.13,20.25c3.31,1.3,8.54,5.33,9.37,7.34" style="fill:none;stroke:#999;stroke-width:3"></path>
<path d="M668.75,40.75c3.26,1.41,8.43,5.8,9.25,8" style="fill:none;stroke:#999;stroke-width:3"></path>
<path d="M667.25,89.21c1.62,0.54,2.57-0.13,3.5-1.75c3.12-5.45,5.12-9.08,9.75-17.95" style="fill:none;stroke:#999;stroke-width:3"></path>
<path d="M695.79,33.51c0,4.13-1.75,15.49-2.54,18.24" style="fill:none;stroke:#999;stroke-width:3"></path>
<path d="M696.74,36.49c12.51-2.74,29.01-5.61,40.95-6.65c12.02-1.05,3.8,7.41-0.45,10.78" style="fill:none;stroke:#999;stroke-width:3"></path>
<path d="M715.72,11c1.14,1.14,1.51,2.37,1.57,4.26C718.0,38.62,716.25,76.5,684.67,92.42" style="fill:none;stroke:#999;stroke-width:3"></path>
<path d="M719.24,52.62c0.74,1.19,1.12,2.59,1.12,4.43c0,7.83-0.03,17.64-0.03,23.2c0,9.88,2.17,11.78,15.67,11.78c11.87,0,12.89-2.28,12.89-10.12" style="fill:none;stroke:#999;stroke-width:3"></path>

</svg>