<svg width="763px" height="109px" viewBox="0 0 763 109" xmlns="http://www.w3.org/2000/svg" xmlns:xlink="http://www.w3.org/1999/xlink" xml:space="preserve" version="1.1" baseProfile="full">
<line x1="1" y1="1" x2="762" y2="1" style="stroke:#ddd;stroke-width:2"></line>
<line x1="1" y1="1" x2="1" y2="108" style="stroke:#ddd;stroke-width:2"></line>
<line x1="1" y1="108" x2="762" y2="108" style="stroke:#ddd;stroke-width:2"></line>
<line x1="762" y1="1" x2="762" y2="108" style="stroke:#ddd;stroke-width:2"></line>
<line x1="109" y1="1" x2="109" y2="108" style="stroke:#ddd;stroke-width:2"></line>
<line x1="218" y1="1" x2="218" y2="108" style="stroke:#ddd;stroke-width:2"></line>
<line x1="327" y1="1" x2="327" y2="108" style="stroke:#ddd;stroke-width:2"></line>
<line x1="436" y1="1" x2="436" y2="108" style="stroke:#ddd;stroke-width:2"></line>
<line x1="545" y1="1" x2="545" y2="108" style="stroke:#ddd;stroke-width:2"></line>
<line x1="654" y1="1" x2="654" y2="108" style="stroke:#ddd;stroke-width:2"></line>
<line x1="1" y1="54" x2="762" y2="54" style="stroke:#ddd;stroke-width:2;stroke-dasharray:3 3"></line>
<line x1="55" y1="1" x2="55" y2="108" style="stroke:#ddd;stroke-width:2;stroke-dasharray:3 3"></line>
<line x1="164" y1="1" x2="164" y2="108" style="stroke:#ddd;stroke-width:2;stroke-dasharray:3 3"></line>
<line x1="273" y1="1" x2="273" y2="108" style="stroke:#ddd;stroke-width:2;stroke-dasharray:3 3"></line>
<line x1="382" y1="1" x2="382" y2="108" style="stroke:#ddd;stroke-width:2;stroke-dasharray:3 3"></line>
<line x1="491" y1="1" x2="491" y2="108" style="stroke:#ddd;stroke-width:2;stroke-dasharray:3 3"></line>
<line x1="600" y1="1" x2="600" y2="108" style="stroke:#ddd;stroke-width:2;stroke-dasharray:3 3"></line>
<line x1="709" y1="1" x2="709" y2="108" style="stroke:#ddd;stroke-width:2;stroke-dasharray:3 3"></line>
<path d="M20.63,18.25c4.45,1.47,11.5,6.05,12.62,8.34" style="fill:none;stroke:#999;stroke-width:3"></path>

<path d="M129.63,18.25c4.45,1.47,11.5,6.05,12.62,8.34" style="fill:none;stroke:#999;stroke-width:3"></path>
<path d="M123.0,41.5c4.06,1.41,10.48,5.8,11.5,8" style="fill:none;stroke:#999;stroke-width:3"></path>

<path d="M238.63,18.25c4.45,1.47,11.5,6.05,12.62,8.34" style="fill:none;stroke:#999;stroke-width:3"></path>
<path d="M232.0,41.5c4.06,1.41,10.48,5.8,11.5,8" style="fill:none;stroke:#999;stroke-width:3"></path>
<path d="M233.25,89.71c1.5,1.31,3.31,1.36,4.25-0.25C240.25,84.75,243.0,79,245.5,73" style="fill:none;stroke:#999;stroke-width:3"></path>

<path d="M347.63,18.25c4.45,1.47,11.5,6.05,12.62,8.34" style="fill:none;stroke:#999;stroke-width:3"></path>
<path d="M341.0,41.5c4.06,1.41,10.48,5.8,11.5,8" style="fill:none;stroke:#999;stroke-width:3"></path>
<path d="M342.25,89.71c1.5,1.31,3.31,1.36,4.25-0.25C349.25,84.75,352.0,79,354.5,73" style="fill:none;stroke:#999;stroke-width:3"></path>
<path d="M410.98,20.54c0.1,0.38,0.39,1.11-0.2,1.54c-7.32,5.42-18.14,10.4-37.22,14.77" style="fill:none;stroke:#999;stroke-width:3"></path>

<path d="M456.63,18.25c4.45,1.47,11.5,6.05,12.62,8.34" style="fill:none;stroke:#999;stroke-width:3"></path>
<path d="M450.0,41.5c4.06,1.41,10.48,5.8,11.5,8" style="fill:none;stroke:#999;stroke-width:3"></path>
<path d="M451.25,89.71c1.5,1.31,3.31,1.36,4.25-0.25C458.25,84.75,461.0,79,463.5,73" style="fill:none;stroke:#999;stroke-width:3"></path>
<path d="M519.98,20.54c0.1,0.38,0.39,1.11-0.2,1.54c-7.32,5.42-18.14,10.4-37.22,14.77" style="fill:none;stroke:#999;stroke-width:3"></path>
<path d="M480.47,46.92c0.51,0.34,1.32,1.28,1.33,3.42c0.01,2.48-2.79,11.17-3.54,16.3c-0.33,2.24-0.54,3.34,1.9,2.69c8.88-2.34,28.6-4.82,39.3-7.06" style="fill:none;stroke:#999;stroke-width:3"></path>

<path d="M565.63,18.25c4.45,1.47,11.5,6.05,12.62,8.34" style="fill:none;stroke:#999;stroke-width:3"></path>
<path d="M559.0,41.5c4.06,1.41,10.48,5.8,11.5,8" style="fill:none;stroke:#999;stroke-width:3"></path>
<path d="M560.25,89.71c1.5,1.31,3.31,1.36,4.25-0.25C567.25,84.75,570.0,79,572.5,73" style="fill:none;stroke:#999;stroke-width:3"></path>
<path d="M628.98,20.54c0.1,0.38,0.39,1.11-0.2,1.54c-7.32,5.42-18.14,10.4-37.22,14.77" style="fill:none;stroke:#999;stroke-width:3"></path>
<path d="M589.47,46.92c0.51,0.34,1.32,1.28,1.33,3.42c0.01,2.48-2.79,11.17-3.54,16.3c-0.33,2.24-0.54,3.34,1.9,2.69c8.88-2.34,28.6-4.82,39.3-7.06" style="fill:none;stroke:#999;stroke-width:3"></path>
<path d="M631.3199999999999,39.52c0.62,0.52,1.95,2.22,1.86,3.36c-0.42,5.27-2.11,14.7-3.52,24.26" style="fill:none;stroke:#999;stroke-width:3"></path>

<path d="M674.63,18.25c4.45,1.47,11.5,6.05,12.62,8.34" style="fill:none;stroke:#999;stroke-width:3"></path>
<path d="M668.0,41.5c4.06,1.41,10.48,5.8,11.5,8" style="fill:none;stroke:#999;stroke-width:3"></path>
<path d="M669.25,89.71c1.5,1.31,3.31,1.36,4.25-0.25C676.25,84.75,679.0,79,681.5,73" style="fill:none;stroke:#999;stroke-width:3"></path>
<path d="M737.98,20.54c0.1,0.38,0.39,1.11-0.2,1.54c-7.32,5.42-18.14,10.4-37.22,14.77" style="fill:none;stroke:#999;stroke-width:3"></path>
<path d="M698.47,46.92c0.51,0.34,1.32,1.28,1.33,3.42c0.01,2.48-2.79,11.17-3.54,16.3c-0.33,2.24-0.54,3.34,1.9,2.69c8.88-2.34,28.6-4.82,39.3-7.06" style="fill:none;stroke:#999;stroke-width:3"></path>
<path d="M740.3199999999999,39.52c0.62,0.52,1.95,2.22,1.86,3.36c-0.42,5.27-2.11,14.7-3.52,24.26" style="fill:none;stroke:#999;stroke-width:3"></path>
<path d="M716.62,13.62c0.89,1.38,1.59,3.01,1.64,5.14c0.24,9.5-0.01,49.54-0.01,62.64s3.18,13.38,14.66,13.38C744.39,94.77,749.0,93.7,749.0,84.18" style="fill:none;stroke:#999;stroke-width:3"></path>

</svg>