<svg width="763px" height="109px" viewBox="0 0 763 109" xmlns="http://www.w3.org/2000/svg" xmlns:xlink="http://www.w3.org/1999/xlink" xml:space="preserve" version="1.1" baseProfile="full">
<line x1="1" y1="1" x2="762" y2="1" style="stroke:#ddd;stroke-width:2"></line>
<line x1="1" y1="1" x2="1" y2="108" style="stroke:#ddd;stroke-width:2"></line>
<line x1="1" y1="108" x2="762" y2="108" style="stroke:#ddd;stroke-width:2"></line>
<line x1="762" y1="1" x2="762" y2="108" style="stroke:#ddd;stroke-width:2"></line>
<line x1="109" y1="1" x2="109" y2="108" style="stroke:#ddd;stroke-width:2"></line>
<line x1="218" y1="1" x2="218" y2="108" style="stroke:#ddd;stroke-width:2"></line>
<line x1="327" y1="1" x2="327" y2="108" style="stroke:#ddd;stroke-width:2"></line>
<line x1="436" y1="1" x2="436" y2="108" style="stroke:#ddd;stroke-width:2"></line>
<line x1="545" y1="1" x2="545" y2="108" style="stroke:#ddd;stroke-width:2"></line>
<line x1="654" y1="1" x2="654" y2="108" style="stroke:#ddd;stroke-width:2"></line>
<line x1="1" y1="54" x2="762" y2="54" style="stroke:#ddd;stroke-width:2;stroke-dasharray:3 3"></line>
<line x1="55" y1="1" x2="55" y2="108" style="stroke:#ddd;stroke-width:2;stroke-dasharray:3 3"></line>
<line x1="164" y1="1" x2="164" y2="108" style="stroke:#ddd;stroke-width:2;stroke-dasharray:3 3"></line>
<line x1="273" y1="1" x2="273" y2="108" style="stroke:#ddd;stroke-width:2;stroke-dasharray:3 3"></line>
<line x1="382" y1="1" x2="382" y2="108" style="stroke:#ddd;stroke-width:2;stroke-dasharray:3 3"></line>
<line x1="491" y1="1" x2="491" y2="108" style="stroke:#ddd;stroke-width:2;stroke-dasharray:3 3"></line>
<line x1="600" y1="1" x2="600" y2="108" style="stroke:#ddd;stroke-width:2;stroke-dasharray:3 3"></line>
<line x1="709" y1="1" x2="709" y2="108" style="stroke:#ddd;stroke-width:2;stroke-dasharray:3 3"></line>
<path d="M16.63,16.5c4.45,1.78,11.5,7.32,12.62,10.09" style="fill:none;stroke:#999;stroke-width:3"></path>

<path d="M125.63,16.5c4.45,1.78,11.5,7.32,12.62,10.09" style="fill:none;stroke:#999;stroke-width:3"></path>
<path d="M122.0,40.75c4.24,1.63,10.94,6.71,12,9.25" style="fill:none;stroke:#999;stroke-width:3"></path>

<path d="M234.63,16.5c4.45,1.78,11.5,7.32,12.62,10.09" style="fill:none;stroke:#999;stroke-width:3"></path>
<path d="M231.0,40.75c4.24,1.63,10.94,6.71,12,9.25" style="fill:none;stroke:#999;stroke-width:3"></path>
<path d="M229.25,88.73c1.71,1.27,3.78,1.32,4.86-0.25c3.14-4.57,9.79-17.16,12.64-22.99" style="fill:none;stroke:#999;stroke-width:3"></path>

<path d="M343.63,16.5c4.45,1.78,11.5,7.32,12.62,10.09" style="fill:none;stroke:#999;stroke-width:3"></path>
<path d="M340.0,40.75c4.24,1.63,10.94,6.71,12,9.25" style="fill:none;stroke:#999;stroke-width:3"></path>
<path d="M338.25,88.73c1.71,1.27,3.78,1.32,4.86-0.25c3.14-4.57,9.79-17.16,12.64-22.99" style="fill:none;stroke:#999;stroke-width:3"></path>
<path d="M361.75,37.61c1.75,0.57,3.74,0.75,5.75,0.57c10.25-0.93,31.5-2.68,47-3.78c2-0.14,3.25,0.1,5.25,0.5" style="fill:none;stroke:#999;stroke-width:3"></path>

<path d="M452.63,16.5c4.45,1.78,11.5,7.32,12.62,10.09" style="fill:none;stroke:#999;stroke-width:3"></path>
<path d="M449.0,40.75c4.24,1.63,10.94,6.71,12,9.25" style="fill:none;stroke:#999;stroke-width:3"></path>
<path d="M447.25,88.73c1.71,1.27,3.78,1.32,4.86-0.25c3.14-4.57,9.79-17.16,12.64-22.99" style="fill:none;stroke:#999;stroke-width:3"></path>
<path d="M470.75,37.61c1.75,0.57,3.74,0.75,5.75,0.57c10.25-0.93,31.5-2.68,47-3.78c2-0.14,3.25,0.1,5.25,0.5" style="fill:none;stroke:#999;stroke-width:3"></path>
<path d="M495.75,13.75C497.0,14.25,498.0,15.97,498.0,17c0,10.5,0,74.75-0.25,81" style="fill:none;stroke:#999;stroke-width:3"></path>

<path d="M561.63,16.5c4.45,1.78,11.5,7.32,12.62,10.09" style="fill:none;stroke:#999;stroke-width:3"></path>
<path d="M558.0,40.75c4.24,1.63,10.94,6.71,12,9.25" style="fill:none;stroke:#999;stroke-width:3"></path>
<path d="M556.25,88.73c1.71,1.27,3.78,1.32,4.86-0.25c3.14-4.57,9.79-17.16,12.64-22.99" style="fill:none;stroke:#999;stroke-width:3"></path>
<path d="M579.75,37.61c1.75,0.57,3.74,0.75,5.75,0.57c10.25-0.93,31.5-2.68,47-3.78c2-0.14,3.25,0.1,5.25,0.5" style="fill:none;stroke:#999;stroke-width:3"></path>
<path d="M604.75,13.75C606.0,14.25,607.0,15.97,607.0,17c0,10.5,0,74.75-0.25,81" style="fill:none;stroke:#999;stroke-width:3"></path>
<path d="M606.75,37.75c-5.38,14.46-19.81,36.56-31,44.75" style="fill:none;stroke:#999;stroke-width:3"></path>

<path d="M670.63,16.5c4.45,1.78,11.5,7.32,12.62,10.09" style="fill:none;stroke:#999;stroke-width:3"></path>
<path d="M667.0,40.75c4.24,1.63,10.94,6.71,12,9.25" style="fill:none;stroke:#999;stroke-width:3"></path>
<path d="M665.25,88.73c1.71,1.27,3.78,1.32,4.86-0.25c3.14-4.57,9.79-17.16,12.64-22.99" style="fill:none;stroke:#999;stroke-width:3"></path>
<path d="M688.75,37.61c1.75,0.57,3.74,0.75,5.75,0.57c10.25-0.93,31.5-2.68,47-3.78c2-0.14,3.25,0.1,5.25,0.5" style="fill:none;stroke:#999;stroke-width:3"></path>
<path d="M713.75,13.75C715.0,14.25,716.0,15.97,716.0,17c0,10.5,0,74.75-0.25,81" style="fill:none;stroke:#999;stroke-width:3"></path>
<path d="M715.75,37.75c-5.38,14.46-19.81,36.56-31,44.75" style="fill:none;stroke:#999;stroke-width:3"></path>
<path d="M716.0,37.5c4.15,9.25,22.05,34.25,29.87,41.14c1.92,1.69,3.01,2.8,4.63,3.36" style="fill:none;stroke:#999;stroke-width:3"></path>

</svg>