<svg width="763px" height="109px" viewBox="0 0 763 109" xmlns="http://www.w3.org/2000/svg" xmlns:xlink="http://www.w3.org/1999/xlink" xml:space="preserve" version="1.1" baseProfile="full">
<line x1="1" y1="1" x2="762" y2="1" style="stroke:#ddd;stroke-width:2"></line>
<line x1="1" y1="1" x2="1" y2="108" style="stroke:#ddd;stroke-width:2"></line>
<line x1="1" y1="108" x2="762" y2="108" style="stroke:#ddd;stroke-width:2"></line>
<line x1="762" y1="1" x2="762" y2="108" style="stroke:#ddd;stroke-width:2"></line>
<line x1="109" y1="1" x2="109" y2="108" style="stroke:#ddd;stroke-width:2"></line>
<line x1="218" y1="1" x2="218" y2="108" style="stroke:#ddd;stroke-width:2"></line>
<line x1="327" y1="1" x2="327" y2="108" style="stroke:#ddd;stroke-width:2"></line>
<line x1="436" y1="1" x2="436" y2="108" style="stroke:#ddd;stroke-width:2"></line>
<line x1="545" y1="1" x2="545" y2="108" style="stroke:#ddd;stroke-width:2"></line>
<line x1="654" y1="1" x2="654" y2="108" style="stroke:#ddd;stroke-width:2"></line>
<line x1="1" y1="54" x2="762" y2="54" style="stroke:#ddd;stroke-width:2;stroke-dasharray:3 3"></line>
<line x1="55" y1="1" x2="55" y2="108" style="stroke:#ddd;stroke-width:2;stroke-dasharray:3 3"></line>
<line x1="164" y1="1" x2="164" y2="108" style="stroke:#ddd;stroke-width:2;stroke-dasharray:3 3"></line>
<line x1="273" y1="1" x2="273" y2="108" style="stroke:#ddd;stroke-width:2;stroke-dasharray:3 3"></line>
<line x1="382" y1="1" x2="382" y2="108" style="stroke:#ddd;stroke-width:2;stroke-dasharray:3 3"></line>
<line x1="491" y1="1" x2="491" y2="108" style="stroke:#ddd;stroke-width:2;stroke-dasharray:3 3"></line>
<line x1="600" y1="1" x2="600" y2="108" style="stroke:#ddd;stroke-width:2;stroke-dasharray:3 3"></line>
<line x1="709" y1="1" x2="709" y2="108" style="stroke:#ddd;stroke-width:2;stroke-dasharray:3 3"></line>
<path d="M22.88,18.75c4.37,1.74,11.27,7.14,12.37,9.84" style="fill:none;stroke:#999;stroke-width:3"></path>

<path d="M131.88,18.75c4.37,1.74,11.27,7.14,12.37,9.84" style="fill:none;stroke:#999;stroke-width:3"></path>
<path d="M125.0,42.25c4.06,1.81,10.48,7.44,11.5,10.25" style="fill:none;stroke:#999;stroke-width:3"></path>

<path d="M240.88,18.75c4.37,1.74,11.27,7.14,12.37,9.84" style="fill:none;stroke:#999;stroke-width:3"></path>
<path d="M234.0,42.25c4.06,1.81,10.48,7.44,11.5,10.25" style="fill:none;stroke:#999;stroke-width:3"></path>
<path d="M232.25,88.23c1.71,1.27,3.78,1.32,4.86-0.25C240.25,83.42,243.0,78.5,248.75,69" style="fill:none;stroke:#999;stroke-width:3"></path>

<path d="M349.88,18.75c4.37,1.74,11.27,7.14,12.37,9.84" style="fill:none;stroke:#999;stroke-width:3"></path>
<path d="M343.0,42.25c4.06,1.81,10.48,7.44,11.5,10.25" style="fill:none;stroke:#999;stroke-width:3"></path>
<path d="M341.25,88.23c1.71,1.27,3.78,1.32,4.86-0.25C349.25,83.42,352.0,78.5,357.75,69" style="fill:none;stroke:#999;stroke-width:3"></path>
<path d="M389.33,15.25c1.25,0.58,2.01,2.59,2.26,3.74c0.25,1.15,0.5,64.23,0.25,71.43" style="fill:none;stroke:#999;stroke-width:3"></path>

<path d="M458.88,18.75c4.37,1.74,11.27,7.14,12.37,9.84" style="fill:none;stroke:#999;stroke-width:3"></path>
<path d="M452.0,42.25c4.06,1.81,10.48,7.44,11.5,10.25" style="fill:none;stroke:#999;stroke-width:3"></path>
<path d="M450.25,88.23c1.71,1.27,3.78,1.32,4.86-0.25C458.25,83.42,461.0,78.5,466.75,69" style="fill:none;stroke:#999;stroke-width:3"></path>
<path d="M498.33,15.25c1.25,0.58,2.01,2.59,2.26,3.74c0.25,1.15,0.5,64.23,0.25,71.43" style="fill:none;stroke:#999;stroke-width:3"></path>
<path d="M501.23,50.26c6.88-0.94,14.28-1.64,20.14-1.87c2.26-0.09,2.82-0.23,4.23,0" style="fill:none;stroke:#999;stroke-width:3"></path>

<path d="M567.88,18.75c4.37,1.74,11.27,7.14,12.37,9.84" style="fill:none;stroke:#999;stroke-width:3"></path>
<path d="M561.0,42.25c4.06,1.81,10.48,7.44,11.5,10.25" style="fill:none;stroke:#999;stroke-width:3"></path>
<path d="M559.25,88.23c1.71,1.27,3.78,1.32,4.86-0.25C567.25,83.42,570.0,78.5,575.75,69" style="fill:none;stroke:#999;stroke-width:3"></path>
<path d="M607.3299999999999,15.25c1.25,0.58,2.01,2.59,2.26,3.74c0.25,1.15,0.5,64.23,0.25,71.43" style="fill:none;stroke:#999;stroke-width:3"></path>
<path d="M610.23,50.26c6.88-0.94,14.28-1.64,20.14-1.87c2.26-0.09,2.82-0.23,4.23,0" style="fill:none;stroke:#999;stroke-width:3"></path>
<path d="M588.01,44.33c1.25,0.58,2.01,2.59,2.26,3.74c0.25,1.15,0,35.74-0.25,42.94" style="fill:none;stroke:#999;stroke-width:3"></path>

<path d="M676.88,18.75c4.37,1.74,11.27,7.14,12.37,9.84" style="fill:none;stroke:#999;stroke-width:3"></path>
<path d="M670.0,42.25c4.06,1.81,10.48,7.44,11.5,10.25" style="fill:none;stroke:#999;stroke-width:3"></path>
<path d="M668.25,88.23c1.71,1.27,3.78,1.32,4.86-0.25C676.25,83.42,679.0,78.5,684.75,69" style="fill:none;stroke:#999;stroke-width:3"></path>
<path d="M716.3299999999999,15.25c1.25,0.58,2.01,2.59,2.26,3.74c0.25,1.15,0.5,64.23,0.25,71.43" style="fill:none;stroke:#999;stroke-width:3"></path>
<path d="M719.23,50.26c6.88-0.94,14.28-1.64,20.14-1.87c2.26-0.09,2.82-0.23,4.23,0" style="fill:none;stroke:#999;stroke-width:3"></path>
<path d="M697.01,44.33c1.25,0.58,2.01,2.59,2.26,3.74c0.25,1.15,0,35.74-0.25,42.94" style="fill:none;stroke:#999;stroke-width:3"></path>
<path d="M684.22,91.96c0.66,0.15,2.44,0.44,4.21,0.46c11.32,0.08,45.08-3.02,57.21-3.02c1.77,0,4.42,0.22,6.15,0.87" style="fill:none;stroke:#999;stroke-width:3"></path>

</svg>