<svg width="763px" height="109px" viewBox="0 0 763 109" xmlns="http://www.w3.org/2000/svg" xmlns:xlink="http://www.w3.org/1999/xlink" xml:space="preserve" version="1.1" baseProfile="full">
<line x1="1" y1="1" x2="762" y2="1" style="stroke:#ddd;stroke-width:2"></line>
<line x1="1" y1="1" x2="1" y2="108" style="stroke:#ddd;stroke-width:2"></line>
<line x1="1" y1="108" x2="762" y2="108" style="stroke:#ddd;stroke-width:2"></line>
<line x1="762" y1="1" x2="762" y2="108" style="stroke:#ddd;stroke-width:2"></line>
<line x1="109" y1="1" x2="109" y2="108" style="stroke:#ddd;stroke-width:2"></line>
<line x1="218" y1="1" x2="218" y2="108" style="stroke:#ddd;stroke-width:2"></line>
<line x1="327" y1="1" x2="327" y2="108" style="stroke:#ddd;stroke-width:2"></line>
<line x1="436" y1="1" x2="436" y2="108" style="stroke:#ddd;stroke-width:2"></line>
<line x1="545" y1="1" x2="545" y2="108" style="stroke:#ddd;stroke-width:2"></line>
<line x1="654" y1="1" x2="654" y2="108" style="stroke:#ddd;stroke-width:2"></line>
<line x1="1" y1="54" x2="762" y2="54" style="stroke:#ddd;stroke-width:2;stroke-dasharray:3 3"></line>
<line x1="55" y1="1" x2="55" y2="108" style="stroke:#ddd;stroke-width:2;stroke-dasharray:3 3"></line>
<line x1="164" y1="1" x2="164" y2="108" style="stroke:#ddd;stroke-width:2;stroke-dasharray:3 3"></line>
<line x1="273" y1="1" x2="273" y2="108" style="stroke:#ddd;stroke-width:2;stroke-dasharray:3 3"></line>
<line x1="382" y1="1" x2="382" y2="108" style="stroke:#ddd;stroke-width:2;stroke-dasharray:3 3"></line>
<line x1="491" y1="1" x2="491" y2="108" style="stroke:#ddd;stroke-width:2;stroke-dasharray:3 3"></line>
<line x1="600" y1="1" x2="600" y2="108" style="stroke:#ddd;stroke-width:2;stroke-dasharray:3 3"></line>
<line x1="709" y1="1" x2="709" y2="108" style="stroke:#ddd;stroke-width:2;stroke-dasharray:3 3"></line>
<path d="M19.63,14c3.31,1.47,8.54,6.05,9.37,8.34" style="fill:none;stroke:#999;stroke-width:3"></path>

<path d="M128.63,14c3.31,1.47,8.54,6.05,9.37,8.34" style="fill:none;stroke:#999;stroke-width:3"></path>
<path d="M120.25,40.5c3.53,1.37,9.12,5.62,10,7.75" style="fill:none;stroke:#999;stroke-width:3"></path>

<path d="M237.63,14c3.31,1.47,8.54,6.05,9.37,8.34" style="fill:none;stroke:#999;stroke-width:3"></path>
<path d="M229.25,40.5c3.53,1.37,9.12,5.62,10,7.75" style="fill:none;stroke:#999;stroke-width:3"></path>
<path d="M230.0,90.29c1.75,0.84,3.23,0.3,4.18-1.23C237.88,83.12,241.12,78,245.0,71.5" style="fill:none;stroke:#999;stroke-width:3"></path>

<path d="M346.63,14c3.31,1.47,8.54,6.05,9.37,8.34" style="fill:none;stroke:#999;stroke-width:3"></path>
<path d="M338.25,40.5c3.53,1.37,9.12,5.62,10,7.75" style="fill:none;stroke:#999;stroke-width:3"></path>
<path d="M339.0,90.29c1.75,0.84,3.23,0.3,4.18-1.23C346.88,83.12,350.12,78,354.0,71.5" style="fill:none;stroke:#999;stroke-width:3"></path>
<path d="M373.39,21.57c1.5,0.77,3.43,1,5.02,0.79C386.88,21.25,396.0,20,402.8,19.31c4.86-0.49,6.87,0.28,5.87,5.42c-0.94,4.9-2.11,10.64-3.67,18.02" style="fill:none;stroke:#999;stroke-width:3"></path>

<path d="M455.63,14c3.31,1.47,8.54,6.05,9.37,8.34" style="fill:none;stroke:#999;stroke-width:3"></path>
<path d="M447.25,40.5c3.53,1.37,9.12,5.62,10,7.75" style="fill:none;stroke:#999;stroke-width:3"></path>
<path d="M448.0,90.29c1.75,0.84,3.23,0.3,4.18-1.23C455.88,83.12,459.12,78,463.0,71.5" style="fill:none;stroke:#999;stroke-width:3"></path>
<path d="M482.39,21.57c1.5,0.77,3.43,1,5.02,0.79C495.88,21.25,505.0,20,511.8,19.31c4.86-0.49,6.87,0.28,5.87,5.42c-0.94,4.9-2.11,10.64-3.67,18.02" style="fill:none;stroke:#999;stroke-width:3"></path>
<path d="M486.0,46.75c3.33-0.2,16.13-1.58,24.02-2.32c2.36-0.22,4.5-0.39,5.54-0.44" style="fill:none;stroke:#999;stroke-width:3"></path>

<path d="M564.63,14c3.31,1.47,8.54,6.05,9.37,8.34" style="fill:none;stroke:#999;stroke-width:3"></path>
<path d="M556.25,40.5c3.53,1.37,9.12,5.62,10,7.75" style="fill:none;stroke:#999;stroke-width:3"></path>
<path d="M557.0,90.29c1.75,0.84,3.23,0.3,4.18-1.23C564.88,83.12,568.12,78,572.0,71.5" style="fill:none;stroke:#999;stroke-width:3"></path>
<path d="M591.39,21.57c1.5,0.77,3.43,1,5.02,0.79C604.88,21.25,614.0,20,620.8,19.31c4.86-0.49,6.87,0.28,5.87,5.42c-0.94,4.9-2.11,10.64-3.67,18.02" style="fill:none;stroke:#999;stroke-width:3"></path>
<path d="M595.0,46.75c3.33-0.2,16.13-1.58,24.02-2.32c2.36-0.22,4.5-0.39,5.54-0.44" style="fill:none;stroke:#999;stroke-width:3"></path>
<path d="M593.59,22.87c0.9,0.9,1.25,2.32,1.25,3.63C594.82,48.19,594.42,73.93,578.25,90" style="fill:none;stroke:#999;stroke-width:3"></path>

<path d="M673.63,14c3.31,1.47,8.54,6.05,9.37,8.34" style="fill:none;stroke:#999;stroke-width:3"></path>
<path d="M665.25,40.5c3.53,1.37,9.12,5.62,10,7.75" style="fill:none;stroke:#999;stroke-width:3"></path>
<path d="M666.0,90.29c1.75,0.84,3.23,0.3,4.18-1.23C673.88,83.12,677.12,78,681.0,71.5" style="fill:none;stroke:#999;stroke-width:3"></path>
<path d="M700.39,21.57c1.5,0.77,3.43,1,5.02,0.79C713.88,21.25,723.0,20,729.8,19.31c4.86-0.49,6.87,0.28,5.87,5.42c-0.94,4.9-2.11,10.64-3.67,18.02" style="fill:none;stroke:#999;stroke-width:3"></path>
<path d="M704.0,46.75c3.33-0.2,16.13-1.58,24.02-2.32c2.36-0.22,4.5-0.39,5.54-0.44" style="fill:none;stroke:#999;stroke-width:3"></path>
<path d="M702.59,22.87c0.9,0.9,1.25,2.32,1.25,3.63C703.82,48.19,703.42,73.93,687.25,90" style="fill:none;stroke:#999;stroke-width:3"></path>
<path d="M712.25,47c6,10.25,14.88,24.62,24.77,35.47C740.25,86.02,743.0,89,747.0,92.25" style="fill:none;stroke:#999;stroke-width:3"></path>

</svg>