<svg width="872px" height="109px" viewBox="0 0 872 109" xmlns="http://www.w3.org/2000/svg" xmlns:xlink="http://www.w3.org/1999/xlink" xml:space="preserve" version="1.1" baseProfile="full">
<line x1="1" y1="1" x2="871" y2="1" style="stroke:#ddd;stroke-width:2"></line>
<line x1="1" y1="1" x2="1" y2="108" style="stroke:#ddd;stroke-width:2"></line>
<line x1="1" y1="108" x2="871" y2="108" style="stroke:#ddd;stroke-width:2"></line>
<line x1="871" y1="1" x2="871" y2="108" style="stroke:#ddd;stroke-width:2"></line>
<line x1="109" y1="1" x2="109" y2="108" style="stroke:#ddd;stroke-width:2"></line>
<line x1="218" y1="1" x2="218" y2="108" style="stroke:#ddd;stroke-width:2"></line>
<line x1="327" y1="1" x2="327" y2="108" style="stroke:#ddd;stroke-width:2"></line>
<line x1="436" y1="1" x2="436" y2="108" style="stroke:#ddd;stroke-width:2"></line>
<line x1="545" y1="1" x2="545" y2="108" style="stroke:#ddd;stroke-width:2"></line>
<line x1="654" y1="1" x2="654" y2="108" style="stroke:#ddd;stroke-width:2"></line>
<line x1="763" y1="1" x2="763" y2="108" style="stroke:#ddd;stroke-width:2"></line>
<line x1="1" y1="54" x2="871" y2="54" style="stroke:#ddd;stroke-width:2;stroke-dasharray:3 3"></line>
<line x1="55" y1="1" x2="55" y2="108" style="stroke:#ddd;stroke-width:2;stroke-dasharray:3 3"></line>
<line x1="164" y1="1" x2="164" y2="108" style="stroke:#ddd;stroke-width:2;stroke-dasharray:3 3"></line>
<line x1="273" y1="1" x2="273" y2="108" style="stroke:#ddd;stroke-width:2;stroke-dasharray:3 3"></line>
<line x1="382" y1="1" x2="382" y2="108" style="stroke:#ddd;stroke-width:2;stroke-dasharray:3 3"></line>
<line x1="491" y1="1" x2="491" y2="108" style="stroke:#ddd;stroke-width:2;stroke-dasharray:3 3"></line>
<line x1="600" y1="1" x2="600" y2="108" style="stroke:#ddd;stroke-width:2;stroke-dasharray:3 3"></line>
<line x1="709" y1="1" x2="709" y2="108" style="stroke:#ddd;stroke-width:2;stroke-dasharray:3 3"></line>
<line x1="818" y1="1" x2="818" y2="108" style="stroke:#ddd;stroke-width:2;stroke-dasharray:3 3"></line>
<path d="M21.38,15.5c3.84,1.52,9.91,6.23,10.87,8.59" style="fill:none;stroke:#999;stroke-width:3"></path>

<path d="M130.38,15.5c3.84,1.52,9.91,6.23,10.87,8.59" style="fill:none;stroke:#999;stroke-width:3"></path>
<path d="M122.5,39.5c4.06,1.41,10.48,5.8,11.5,8" style="fill:none;stroke:#999;stroke-width:3"></path>

<path d="M239.38,15.5c3.84,1.52,9.91,6.23,10.87,8.59" style="fill:none;stroke:#999;stroke-width:3"></path>
<path d="M231.5,39.5c4.06,1.41,10.48,5.8,11.5,8" style="fill:none;stroke:#999;stroke-width:3"></path>
<path d="M229.75,92.21c1.78,1.31,3.91,0.36,5.03-1.25c3.25-4.7,6.51-9.45,9.47-15.45" style="fill:none;stroke:#999;stroke-width:3"></path>

<path d="M348.38,15.5c3.84,1.52,9.91,6.23,10.87,8.59" style="fill:none;stroke:#999;stroke-width:3"></path>
<path d="M340.5,39.5c4.06,1.41,10.48,5.8,11.5,8" style="fill:none;stroke:#999;stroke-width:3"></path>
<path d="M338.75,92.21c1.78,1.31,3.91,0.36,5.03-1.25c3.25-4.7,6.51-9.45,9.47-15.45" style="fill:none;stroke:#999;stroke-width:3"></path>
<path d="M364.43,32.12c1.13,0.52,3.2,0.62,4.34,0.52c5.72-0.47,40.56-4.1,47.22-4.32c1.89-0.06,3.02,0.25,3.96,0.51" style="fill:none;stroke:#999;stroke-width:3"></path>

<path d="M457.38,15.5c3.84,1.52,9.91,6.23,10.87,8.59" style="fill:none;stroke:#999;stroke-width:3"></path>
<path d="M449.5,39.5c4.06,1.41,10.48,5.8,11.5,8" style="fill:none;stroke:#999;stroke-width:3"></path>
<path d="M447.75,92.21c1.78,1.31,3.91,0.36,5.03-1.25c3.25-4.7,6.51-9.45,9.47-15.45" style="fill:none;stroke:#999;stroke-width:3"></path>
<path d="M473.43,32.12c1.13,0.52,3.2,0.62,4.34,0.52c5.72-0.47,40.56-4.1,47.22-4.32c1.89-0.06,3.02,0.25,3.96,0.51" style="fill:none;stroke:#999;stroke-width:3"></path>
<path d="M479.92,50.77c0.66,0.31,2.44,0.53,4.19,0.31c10.64-1.34,27-3.53,36.47-4.16c1.76-0.12,2.2-0.31,3.3,0" style="fill:none;stroke:#999;stroke-width:3"></path>

<path d="M566.38,15.5c3.84,1.52,9.91,6.23,10.87,8.59" style="fill:none;stroke:#999;stroke-width:3"></path>
<path d="M558.5,39.5c4.06,1.41,10.48,5.8,11.5,8" style="fill:none;stroke:#999;stroke-width:3"></path>
<path d="M556.75,92.21c1.78,1.31,3.91,0.36,5.03-1.25c3.25-4.7,6.51-9.45,9.47-15.45" style="fill:none;stroke:#999;stroke-width:3"></path>
<path d="M582.4300000000001,32.12c1.13,0.52,3.2,0.62,4.34,0.52c5.72-0.47,40.56-4.1,47.22-4.32c1.89-0.06,3.02,0.25,3.96,0.51" style="fill:none;stroke:#999;stroke-width:3"></path>
<path d="M588.9200000000001,50.77c0.66,0.31,2.44,0.53,4.19,0.31c10.64-1.34,27-3.53,36.47-4.16c1.76-0.12,2.2-0.31,3.3,0" style="fill:none;stroke:#999;stroke-width:3"></path>
<path d="M607.3,12.5c1.2,0.48,2.15,2.12,2.15,3.11c0,7.14-0.24,74.39-0.24,82.39" style="fill:none;stroke:#999;stroke-width:3"></path>

<path d="M675.38,15.5c3.84,1.52,9.91,6.23,10.87,8.59" style="fill:none;stroke:#999;stroke-width:3"></path>
<path d="M667.5,39.5c4.06,1.41,10.48,5.8,11.5,8" style="fill:none;stroke:#999;stroke-width:3"></path>
<path d="M665.75,92.21c1.78,1.31,3.91,0.36,5.03-1.25c3.25-4.7,6.51-9.45,9.47-15.45" style="fill:none;stroke:#999;stroke-width:3"></path>
<path d="M691.4300000000001,32.12c1.13,0.52,3.2,0.62,4.34,0.52c5.72-0.47,40.56-4.1,47.22-4.32c1.89-0.06,3.02,0.25,3.96,0.51" style="fill:none;stroke:#999;stroke-width:3"></path>
<path d="M697.9200000000001,50.77c0.66,0.31,2.44,0.53,4.19,0.31c10.64-1.34,27-3.53,36.47-4.16c1.76-0.12,2.2-0.31,3.3,0" style="fill:none;stroke:#999;stroke-width:3"></path>
<path d="M716.3,12.5c1.2,0.48,2.15,2.12,2.15,3.11c0,7.14-0.24,74.39-0.24,82.39" style="fill:none;stroke:#999;stroke-width:3"></path>
<path d="M717.66,50.8c-5.41,11.87-19.47,28.68-30.72,35.4" style="fill:none;stroke:#999;stroke-width:3"></path>

<path d="M784.38,15.5c3.84,1.52,9.91,6.23,10.87,8.59" style="fill:none;stroke:#999;stroke-width:3"></path>
<path d="M776.5,39.5c4.06,1.41,10.48,5.8,11.5,8" style="fill:none;stroke:#999;stroke-width:3"></path>
<path d="M774.75,92.21c1.78,1.31,3.91,0.36,5.03-1.25c3.25-4.7,6.51-9.45,9.47-15.45" style="fill:none;stroke:#999;stroke-width:3"></path>
<path d="M800.4300000000001,32.12c1.13,0.52,3.2,0.62,4.34,0.52c5.72-0.47,40.56-4.1,47.22-4.32c1.89-0.06,3.02,0.25,3.96,0.51" style="fill:none;stroke:#999;stroke-width:3"></path>
<path d="M806.9200000000001,50.77c0.66,0.31,2.44,0.53,4.19,0.31c10.64-1.34,27-3.53,36.47-4.16c1.76-0.12,2.2-0.31,3.3,0" style="fill:none;stroke:#999;stroke-width:3"></path>
<path d="M825.3,12.5c1.2,0.48,2.15,2.12,2.15,3.11c0,7.14-0.24,74.39-0.24,82.39" style="fill:none;stroke:#999;stroke-width:3"></path>
<path d="M826.66,50.8c-5.41,11.87-19.47,28.68-30.72,35.4" style="fill:none;stroke:#999;stroke-width:3"></path>
<path d="M827.84,50.06c4.02,4.46,21.63,25.57,26,29.96c1.48,1.49,2.75,2.12,4.23,2.55" style="fill:none;stroke:#999;stroke-width:3"></path>

</svg>