<svg width="872px" height="109px" viewBox="0 0 872 109" xmlns="http://www.w3.org/2000/svg" xmlns:xlink="http://www.w3.org/1999/xlink" xml:space="preserve" version="1.1" baseProfile="full">
<line x1="1" y1="1" x2="871" y2="1" style="stroke:#ddd;stroke-width:2"></line>
<line x1="1" y1="1" x2="1" y2="108" style="stroke:#ddd;stroke-width:2"></line>
<line x1="1" y1="108" x2="871" y2="108" style="stroke:#ddd;stroke-width:2"></line>
<line x1="871" y1="1" x2="871" y2="108" style="stroke:#ddd;stroke-width:2"></line>
<line x1="109" y1="1" x2="109" y2="108" style="stroke:#ddd;stroke-width:2"></line>
<line x1="218" y1="1" x2="218" y2="108" style="stroke:#ddd;stroke-width:2"></line>
<line x1="327" y1="1" x2="327" y2="108" style="stroke:#ddd;stroke-width:2"></line>
<line x1="436" y1="1" x2="436" y2="108" style="stroke:#ddd;stroke-width:2"></line>
<line x1="545" y1="1" x2="545" y2="108" style="stroke:#ddd;stroke-width:2"></line>
<line x1="654" y1="1" x2="654" y2="108" style="stroke:#ddd;stroke-width:2"></line>
<line x1="763" y1="1" x2="763" y2="108" style="stroke:#ddd;stroke-width:2"></line>
<line x1="1" y1="54" x2="871" y2="54" style="stroke:#ddd;stroke-width:2;stroke-dasharray:3 3"></line>
<line x1="55" y1="1" x2="55" y2="108" style="stroke:#ddd;stroke-width:2;stroke-dasharray:3 3"></line>
<line x1="164" y1="1" x2="164" y2="108" style="stroke:#ddd;stroke-width:2;stroke-dasharray:3 3"></line>
<line x1="273" y1="1" x2="273" y2="108" style="stroke:#ddd;stroke-width:2;stroke-dasharray:3 3"></line>
<line x1="382" y1="1" x2="382" y2="108" style="stroke:#ddd;stroke-width:2;stroke-dasharray:3 3"></line>
<line x1="491" y1="1" x2="491" y2="108" style="stroke:#ddd;stroke-width:2;stroke-dasharray:3 3"></line>
<line x1="600" y1="1" x2="600" y2="108" style="stroke:#ddd;stroke-width:2;stroke-dasharray:3 3"></line>
<line x1="709" y1="1" x2="709" y2="108" style="stroke:#ddd;stroke-width:2;stroke-dasharray:3 3"></line>
<line x1="818" y1="1" x2="818" y2="108" style="stroke:#ddd;stroke-width:2;stroke-dasharray:3 3"></line>
<path d="M20.75,13.5c3.88,1.65,10.03,6.78,11,9.34" style="fill:none;stroke:#999;stroke-width:3"></path>

<path d="M129.75,13.5c3.88,1.65,10.03,6.78,11,9.34" style="fill:none;stroke:#999;stroke-width:3"></path>
<path d="M126.0,37.5c3.62,1.72,9.34,7.07,10.25,9.75" style="fill:none;stroke:#999;stroke-width:3"></path>

<path d="M238.75,13.5c3.88,1.65,10.03,6.78,11,9.34" style="fill:none;stroke:#999;stroke-width:3"></path>
<path d="M235.0,37.5c3.62,1.72,9.34,7.07,10.25,9.75" style="fill:none;stroke:#999;stroke-width:3"></path>
<path d="M234.25,89.98c1.77,0.65,2.84-0.14,3.9-1.59c3.99-5.47,7.98-12.16,11.6-19.14" style="fill:none;stroke:#999;stroke-width:3"></path>

<path d="M347.75,13.5c3.88,1.65,10.03,6.78,11,9.34" style="fill:none;stroke:#999;stroke-width:3"></path>
<path d="M344.0,37.5c3.62,1.72,9.34,7.07,10.25,9.75" style="fill:none;stroke:#999;stroke-width:3"></path>
<path d="M343.25,89.98c1.77,0.65,2.84-0.14,3.9-1.59c3.99-5.47,7.98-12.16,11.6-19.14" style="fill:none;stroke:#999;stroke-width:3"></path>
<path d="M372.11,22.45c2.89,1.05,6.37,0.89,8.75,0.58c10.73-1.38,25.75-4.46,30.99-4.82c3.81-0.26,5.74,1.2,5.11,4.95c-1.02,5.98-2.46,17.09-7.31,26.69c-2.94,5.81-6.29-0.17-7.14-1.09" style="fill:none;stroke:#999;stroke-width:3"></path>

<path d="M456.75,13.5c3.88,1.65,10.03,6.78,11,9.34" style="fill:none;stroke:#999;stroke-width:3"></path>
<path d="M453.0,37.5c3.62,1.72,9.34,7.07,10.25,9.75" style="fill:none;stroke:#999;stroke-width:3"></path>
<path d="M452.25,89.98c1.77,0.65,2.84-0.14,3.9-1.59c3.99-5.47,7.98-12.16,11.6-19.14" style="fill:none;stroke:#999;stroke-width:3"></path>
<path d="M481.11,22.45c2.89,1.05,6.37,0.89,8.75,0.58c10.73-1.38,25.75-4.46,30.99-4.82c3.81-0.26,5.74,1.2,5.11,4.95c-1.02,5.98-2.46,17.09-7.31,26.69c-2.94,5.81-6.29-0.17-7.14-1.09" style="fill:none;stroke:#999;stroke-width:3"></path>
<path d="M500.04,24.58c0.06,0.79,0.26,2.07-0.12,3.19C496.0,39.25,490.25,49.38,479.73,59.73" style="fill:none;stroke:#999;stroke-width:3"></path>

<path d="M565.75,13.5c3.88,1.65,10.03,6.78,11,9.34" style="fill:none;stroke:#999;stroke-width:3"></path>
<path d="M562.0,37.5c3.62,1.72,9.34,7.07,10.25,9.75" style="fill:none;stroke:#999;stroke-width:3"></path>
<path d="M561.25,89.98c1.77,0.65,2.84-0.14,3.9-1.59c3.99-5.47,7.98-12.16,11.6-19.14" style="fill:none;stroke:#999;stroke-width:3"></path>
<path d="M590.11,22.45c2.89,1.05,6.37,0.89,8.75,0.58c10.73-1.38,25.75-4.46,30.99-4.82c3.81-0.26,5.74,1.2,5.11,4.95c-1.02,5.98-2.46,17.09-7.31,26.69c-2.94,5.81-6.29-0.17-7.14-1.09" style="fill:none;stroke:#999;stroke-width:3"></path>
<path d="M609.04,24.58c0.06,0.79,0.26,2.07-0.12,3.19C605.0,39.25,599.25,49.38,588.73,59.73" style="fill:none;stroke:#999;stroke-width:3"></path>
<path d="M593.09,65.29c0.93,0.93,1.51,2.11,1.61,3.19c0.92,3.88,1.68,11.14,2.48,17.53c0.3,2.36,0.56,4.53,0.79,6.24" style="fill:none;stroke:#999;stroke-width:3"></path>

<path d="M674.75,13.5c3.88,1.65,10.03,6.78,11,9.34" style="fill:none;stroke:#999;stroke-width:3"></path>
<path d="M671.0,37.5c3.62,1.72,9.34,7.07,10.25,9.75" style="fill:none;stroke:#999;stroke-width:3"></path>
<path d="M670.25,89.98c1.77,0.65,2.84-0.14,3.9-1.59c3.99-5.47,7.98-12.16,11.6-19.14" style="fill:none;stroke:#999;stroke-width:3"></path>
<path d="M699.11,22.45c2.89,1.05,6.37,0.89,8.75,0.58c10.73-1.38,25.75-4.46,30.99-4.82c3.81-0.26,5.74,1.2,5.11,4.95c-1.02,5.98-2.46,17.09-7.31,26.69c-2.94,5.81-6.29-0.17-7.14-1.09" style="fill:none;stroke:#999;stroke-width:3"></path>
<path d="M718.04,24.58c0.06,0.79,0.26,2.07-0.12,3.19C714.0,39.25,708.25,49.38,697.73,59.73" style="fill:none;stroke:#999;stroke-width:3"></path>
<path d="M702.09,65.29c0.93,0.93,1.51,2.11,1.61,3.19c0.92,3.88,1.68,11.14,2.48,17.53c0.3,2.36,0.56,4.53,0.79,6.24" style="fill:none;stroke:#999;stroke-width:3"></path>
<path d="M704.51,67.14c8.41-1.22,24.84-3.72,32.79-4.44c4.34-0.4,7.01,0.91,5.59,5.65c-1.38,4.63-3.47,11.95-4.82,17.83" style="fill:none;stroke:#999;stroke-width:3"></path>

<path d="M783.75,13.5c3.88,1.65,10.03,6.78,11,9.34" style="fill:none;stroke:#999;stroke-width:3"></path>
<path d="M780.0,37.5c3.62,1.72,9.34,7.07,10.25,9.75" style="fill:none;stroke:#999;stroke-width:3"></path>
<path d="M779.25,89.98c1.77,0.65,2.84-0.14,3.9-1.59c3.99-5.47,7.98-12.16,11.6-19.14" style="fill:none;stroke:#999;stroke-width:3"></path>
<path d="M808.11,22.45c2.89,1.05,6.37,0.89,8.75,0.58c10.73-1.38,25.75-4.46,30.99-4.82c3.81-0.26,5.74,1.2,5.11,4.95c-1.02,5.98-2.46,17.09-7.31,26.69c-2.94,5.81-6.29-0.17-7.14-1.09" style="fill:none;stroke:#999;stroke-width:3"></path>
<path d="M827.04,24.58c0.06,0.79,0.26,2.07-0.12,3.19C823.0,39.25,817.25,49.38,806.73,59.73" style="fill:none;stroke:#999;stroke-width:3"></path>
<path d="M811.09,65.29c0.93,0.93,1.51,2.11,1.61,3.19c0.92,3.88,1.68,11.14,2.48,17.53c0.3,2.36,0.56,4.53,0.79,6.24" style="fill:none;stroke:#999;stroke-width:3"></path>
<path d="M813.51,67.14c8.41-1.22,24.84-3.72,32.79-4.44c4.34-0.4,7.01,0.91,5.59,5.65c-1.38,4.63-3.47,11.95-4.82,17.83" style="fill:none;stroke:#999;stroke-width:3"></path>
<path d="M816.9,88.79c5.73-0.27,16.66-1.05,26.35-1.54c2.02-0.1,3.95-0.19,5.72-0.26" style="fill:none;stroke:#999;stroke-width:3"></path>

</svg>