<svg width="872px" height="109px" viewBox="0 0 872 109" xmlns="http://www.w3.org/2000/svg" xmlns:xlink="http://www.w3.org/1999/xlink" xml:space="preserve" version="1.1" baseProfile="full">
<line x1="1" y1="1" x2="871" y2="1" style="stroke:#ddd;stroke-width:2"></line>
<line x1="1" y1="1" x2="1" y2="108" style="stroke:#ddd;stroke-width:2"></line>
<line x1="1" y1="108" x2="871" y2="108" style="stroke:#ddd;stroke-width:2"></line>
<line x1="871" y1="1" x2="871" y2="108" style="stroke:#ddd;stroke-width:2"></line>
<line x1="109" y1="1" x2="109" y2="108" style="stroke:#ddd;stroke-width:2"></line>
<line x1="218" y1="1" x2="218" y2="108" style="stroke:#ddd;stroke-width:2"></line>
<line x1="327" y1="1" x2="327" y2="108" style="stroke:#ddd;stroke-width:2"></line>
<line x1="436" y1="1" x2="436" y2="108" style="stroke:#ddd;stroke-width:2"></line>
<line x1="545" y1="1" x2="545" y2="108" style="stroke:#ddd;stroke-width:2"></line>
<line x1="654" y1="1" x2="654" y2="108" style="stroke:#ddd;stroke-width:2"></line>
<line x1="763" y1="1" x2="763" y2="108" style="stroke:#ddd;stroke-width:2"></line>
<line x1="1" y1="54" x2="871" y2="54" style="stroke:#ddd;stroke-width:2;stroke-dasharray:3 3"></line>
<line x1="55" y1="1" x2="55" y2="108" style="stroke:#ddd;stroke-width:2;stroke-dasharray:3 3"></line>
<line x1="164" y1="1" x2="164" y2="108" style="stroke:#ddd;stroke-width:2;stroke-dasharray:3 3"></line>
<line x1="273" y1="1" x2="273" y2="108" style="stroke:#ddd;stroke-width:2;stroke-dasharray:3 3"></line>
<line x1="382" y1="1" x2="382" y2="108" style="stroke:#ddd;stroke-width:2;stroke-dasharray:3 3"></line>
<line x1="491" y1="1" x2="491" y2="108" style="stroke:#ddd;stroke-width:2;stroke-dasharray:3 3"></line>
<line x1="600" y1="1" x2="600" y2="108" style="stroke:#ddd;stroke-width:2;stroke-dasharray:3 3"></line>
<line x1="709" y1="1" x2="709" y2="108" style="stroke:#ddd;stroke-width:2;stroke-dasharray:3 3"></line>
<line x1="818" y1="1" x2="818" y2="108" style="stroke:#ddd;stroke-width:2;stroke-dasharray:3 3"></line>
<path d="M22.88,15.62c4.45,1.58,11.5,6.5,12.62,8.97" style="fill:none;stroke:#999;stroke-width:3"></path>

<path d="M131.88,15.62c4.45,1.58,11.5,6.5,12.62,8.97" style="fill:none;stroke:#999;stroke-width:3"></path>
<path d="M126.0,39.25c4.68,1.5,12.08,6.17,13.25,8.5" style="fill:none;stroke:#999;stroke-width:3"></path>

<path d="M240.88,15.62c4.45,1.58,11.5,6.5,12.62,8.97" style="fill:none;stroke:#999;stroke-width:3"></path>
<path d="M235.0,39.25c4.68,1.5,12.08,6.17,13.25,8.5" style="fill:none;stroke:#999;stroke-width:3"></path>
<path d="M235.25,87.72c1.68,0.73,2.96,0.3,3.97-1.05c3.53-4.69,6.81-10.18,10.03-16.17" style="fill:none;stroke:#999;stroke-width:3"></path>

<path d="M349.88,15.62c4.45,1.58,11.5,6.5,12.62,8.97" style="fill:none;stroke:#999;stroke-width:3"></path>
<path d="M344.0,39.25c4.68,1.5,12.08,6.17,13.25,8.5" style="fill:none;stroke:#999;stroke-width:3"></path>
<path d="M344.25,87.72c1.68,0.73,2.96,0.3,3.97-1.05c3.53-4.69,6.81-10.18,10.03-16.17" style="fill:none;stroke:#999;stroke-width:3"></path>
<path d="M396.62,16c0.25,1-0.17,1.88-0.52,2.59C393.12,24.62,389.0,31.75,382.19,40.46" style="fill:none;stroke:#999;stroke-width:3"></path>

<path d="M458.88,15.62c4.45,1.58,11.5,6.5,12.62,8.97" style="fill:none;stroke:#999;stroke-width:3"></path>
<path d="M453.0,39.25c4.68,1.5,12.08,6.17,13.25,8.5" style="fill:none;stroke:#999;stroke-width:3"></path>
<path d="M453.25,87.72c1.68,0.73,2.96,0.3,3.97-1.05c3.53-4.69,6.81-10.18,10.03-16.17" style="fill:none;stroke:#999;stroke-width:3"></path>
<path d="M505.62,16c0.25,1-0.17,1.88-0.52,2.59C502.12,24.62,498.0,31.75,491.19,40.46" style="fill:none;stroke:#999;stroke-width:3"></path>
<path d="M482.44,42.16c1.07,1.07,1.37,2.17,1.37,3.88c0,1.46-0.09,27.72-0.05,41.46c0.01,2.3,0.01,4.28,0.01,5.75" style="fill:none;stroke:#999;stroke-width:3"></path>

<path d="M567.88,15.62c4.45,1.58,11.5,6.5,12.62,8.97" style="fill:none;stroke:#999;stroke-width:3"></path>
<path d="M562.0,39.25c4.68,1.5,12.08,6.17,13.25,8.5" style="fill:none;stroke:#999;stroke-width:3"></path>
<path d="M562.25,87.72c1.68,0.73,2.96,0.3,3.97-1.05c3.53-4.69,6.81-10.18,10.03-16.17" style="fill:none;stroke:#999;stroke-width:3"></path>
<path d="M614.62,16c0.25,1-0.17,1.88-0.52,2.59C611.12,24.62,607.0,31.75,600.19,40.46" style="fill:none;stroke:#999;stroke-width:3"></path>
<path d="M591.44,42.16c1.07,1.07,1.37,2.17,1.37,3.88c0,1.46-0.09,27.72-0.05,41.46c0.01,2.3,0.01,4.28,0.01,5.75" style="fill:none;stroke:#999;stroke-width:3"></path>
<path d="M593.47,44.43c4.52-0.61,27.92-2.99,35.22-3.72c3.14-0.31,4.94,0.3,4.93,3.91C633.62,48.58,633.8,69.3,633.73,85c-0.01,2.57-0.02,5-0.02,7.21" style="fill:none;stroke:#999;stroke-width:3"></path>

<path d="M676.88,15.62c4.45,1.58,11.5,6.5,12.62,8.97" style="fill:none;stroke:#999;stroke-width:3"></path>
<path d="M671.0,39.25c4.68,1.5,12.08,6.17,13.25,8.5" style="fill:none;stroke:#999;stroke-width:3"></path>
<path d="M671.25,87.72c1.68,0.73,2.96,0.3,3.97-1.05c3.53-4.69,6.81-10.18,10.03-16.17" style="fill:none;stroke:#999;stroke-width:3"></path>
<path d="M723.62,16c0.25,1-0.17,1.88-0.52,2.59C720.12,24.62,716.0,31.75,709.19,40.46" style="fill:none;stroke:#999;stroke-width:3"></path>
<path d="M700.44,42.16c1.07,1.07,1.37,2.17,1.37,3.88c0,1.46-0.09,27.72-0.05,41.46c0.01,2.3,0.01,4.28,0.01,5.75" style="fill:none;stroke:#999;stroke-width:3"></path>
<path d="M702.47,44.43c4.52-0.61,27.92-2.99,35.22-3.72c3.14-0.31,4.94,0.3,4.93,3.91C742.62,48.58,742.8,69.3,742.73,85c-0.01,2.57-0.02,5-0.02,7.21" style="fill:none;stroke:#999;stroke-width:3"></path>
<path d="M702.92,66.15c11.2-1.27,32.33-2.9,39.5-3.26" style="fill:none;stroke:#999;stroke-width:3"></path>

<path d="M785.88,15.62c4.45,1.58,11.5,6.5,12.62,8.97" style="fill:none;stroke:#999;stroke-width:3"></path>
<path d="M780.0,39.25c4.68,1.5,12.08,6.17,13.25,8.5" style="fill:none;stroke:#999;stroke-width:3"></path>
<path d="M780.25,87.72c1.68,0.73,2.96,0.3,3.97-1.05c3.53-4.69,6.81-10.18,10.03-16.17" style="fill:none;stroke:#999;stroke-width:3"></path>
<path d="M832.62,16c0.25,1-0.17,1.88-0.52,2.59C829.12,24.62,825.0,31.75,818.19,40.46" style="fill:none;stroke:#999;stroke-width:3"></path>
<path d="M809.44,42.16c1.07,1.07,1.37,2.17,1.37,3.88c0,1.46-0.09,27.72-0.05,41.46c0.01,2.3,0.01,4.28,0.01,5.75" style="fill:none;stroke:#999;stroke-width:3"></path>
<path d="M811.47,44.43c4.52-0.61,27.92-2.99,35.22-3.72c3.14-0.31,4.94,0.3,4.93,3.91C851.62,48.58,851.8,69.3,851.73,85c-0.01,2.57-0.02,5-0.02,7.21" style="fill:none;stroke:#999;stroke-width:3"></path>
<path d="M811.92,66.15c11.2-1.27,32.33-2.9,39.5-3.26" style="fill:none;stroke:#999;stroke-width:3"></path>
<path d="M811.94,90.47c10.68-0.97,28.24-2.33,38.54-2.64" style="fill:none;stroke:#999;stroke-width:3"></path>

</svg>