<svg width="872px" height="109px" viewBox="0 0 872 109" xmlns="http://www.w3.org/2000/svg" xmlns:xlink="http://www.w3.org/1999/xlink" xml:space="preserve" version="1.1" baseProfile="full">
<line x1="1" y1="1" x2="871" y2="1" style="stroke:#ddd;stroke-width:2"></line>
<line x1="1" y1="1" x2="1" y2="108" style="stroke:#ddd;stroke-width:2"></line>
<line x1="1" y1="108" x2="871" y2="108" style="stroke:#ddd;stroke-width:2"></line>
<line x1="871" y1="1" x2="871" y2="108" style="stroke:#ddd;stroke-width:2"></line>
<line x1="109" y1="1" x2="109" y2="108" style="stroke:#ddd;stroke-width:2"></line>
<line x1="218" y1="1" x2="218" y2="108" style="stroke:#ddd;stroke-width:2"></line>
<line x1="327" y1="1" x2="327" y2="108" style="stroke:#ddd;stroke-width:2"></line>
<line x1="436" y1="1" x2="436" y2="108" style="stroke:#ddd;stroke-width:2"></line>
<line x1="545" y1="1" x2="545" y2="108" style="stroke:#ddd;stroke-width:2"></line>
<line x1="654" y1="1" x2="654" y2="108" style="stroke:#ddd;stroke-width:2"></line>
<line x1="763" y1="1" x2="763" y2="108" style="stroke:#ddd;stroke-width:2"></line>
<line x1="1" y1="54" x2="871" y2="54" style="stroke:#ddd;stroke-width:2;stroke-dasharray:3 3"></line>
<line x1="55" y1="1" x2="55" y2="108" style="stroke:#ddd;stroke-width:2;stroke-dasharray:3 3"></line>
<line x1="164" y1="1" x2="164" y2="108" style="stroke:#ddd;stroke-width:2;stroke-dasharray:3 3"></line>
<line x1="273" y1="1" x2="273" y2="108" style="stroke:#ddd;stroke-width:2;stroke-dasharray:3 3"></line>
<line x1="382" y1="1" x2="382" y2="108" style="stroke:#ddd;stroke-width:2;stroke-dasharray:3 3"></line>
<line x1="491" y1="1" x2="491" y2="108" style="stroke:#ddd;stroke-width:2;stroke-dasharray:3 3"></line>
<line x1="600" y1="1" x2="600" y2="108" style="stroke:#ddd;stroke-width:2;stroke-dasharray:3 3"></line>
<line x1="709" y1="1" x2="709" y2="108" style="stroke:#ddd;stroke-width:2;stroke-dasharray:3 3"></line>
<line x1="818" y1="1" x2="818" y2="108" style="stroke:#ddd;stroke-width:2;stroke-dasharray:3 3"></line>
<path d="M22.0,16.88c4.5,1.45,11.62,5.96,12.75,8.22" style="fill:none;stroke:#999;stroke-width:3"></path>

<path d="M131.0,16.88c4.5,1.45,11.62,5.96,12.75,8.22" style="fill:none;stroke:#999;stroke-width:3"></path>
<path d="M125.25,37.25c4.5,1.41,11.62,5.8,12.75,8" style="fill:none;stroke:#999;stroke-width:3"></path>

<path d="M240.0,16.88c4.5,1.45,11.62,5.96,12.75,8.22" style="fill:none;stroke:#999;stroke-width:3"></path>
<path d="M234.25,37.25c4.5,1.41,11.62,5.8,12.75,8" style="fill:none;stroke:#999;stroke-width:3"></path>
<path d="M231.88,86.52c1.67,0.8,2.95,0.19,3.95-1.12c3.37-4.37,6.73-9.7,9.8-15.27" style="fill:none;stroke:#999;stroke-width:3"></path>

<path d="M349.0,16.88c4.5,1.45,11.62,5.96,12.75,8.22" style="fill:none;stroke:#999;stroke-width:3"></path>
<path d="M343.25,37.25c4.5,1.41,11.62,5.8,12.75,8" style="fill:none;stroke:#999;stroke-width:3"></path>
<path d="M340.88,86.52c1.67,0.8,2.95,0.19,3.95-1.12c3.37-4.37,6.73-9.7,9.8-15.27" style="fill:none;stroke:#999;stroke-width:3"></path>
<path d="M381.36,24.5c2.89,6.5,6.64,9.75,7.58,3.97" style="fill:none;stroke:#999;stroke-width:3"></path>

<path d="M458.0,16.88c4.5,1.45,11.62,5.96,12.75,8.22" style="fill:none;stroke:#999;stroke-width:3"></path>
<path d="M452.25,37.25c4.5,1.41,11.62,5.8,12.75,8" style="fill:none;stroke:#999;stroke-width:3"></path>
<path d="M449.88,86.52c1.67,0.8,2.95,0.19,3.95-1.12c3.37-4.37,6.73-9.7,9.8-15.27" style="fill:none;stroke:#999;stroke-width:3"></path>
<path d="M490.36,24.5c2.89,6.5,6.64,9.75,7.58,3.97" style="fill:none;stroke:#999;stroke-width:3"></path>
<path d="M513.65,22.93C514.0,24,514.3,24.76,513.91,27.19c-2.79,17.31-14.66,55.06-41.7,68.53" style="fill:none;stroke:#999;stroke-width:3"></path>

<path d="M567.0,16.88c4.5,1.45,11.62,5.96,12.75,8.22" style="fill:none;stroke:#999;stroke-width:3"></path>
<path d="M561.25,37.25c4.5,1.41,11.62,5.8,12.75,8" style="fill:none;stroke:#999;stroke-width:3"></path>
<path d="M558.88,86.52c1.67,0.8,2.95,0.19,3.95-1.12c3.37-4.37,6.73-9.7,9.8-15.27" style="fill:none;stroke:#999;stroke-width:3"></path>
<path d="M599.36,24.5c2.89,6.5,6.64,9.75,7.58,3.97" style="fill:none;stroke:#999;stroke-width:3"></path>
<path d="M622.65,22.93C623.0,24,623.3,24.76,622.91,27.19c-2.79,17.31-14.66,55.06-41.7,68.53" style="fill:none;stroke:#999;stroke-width:3"></path>
<path d="M596.37,38.97C601.25,69.5,607.62,84.12,628.5,90.25c10.25,3.01,11.25,0.75,4.46-8.63" style="fill:none;stroke:#999;stroke-width:3"></path>

<path d="M676.0,16.88c4.5,1.45,11.62,5.96,12.75,8.22" style="fill:none;stroke:#999;stroke-width:3"></path>
<path d="M670.25,37.25c4.5,1.41,11.62,5.8,12.75,8" style="fill:none;stroke:#999;stroke-width:3"></path>
<path d="M667.88,86.52c1.67,0.8,2.95,0.19,3.95-1.12c3.37-4.37,6.73-9.7,9.8-15.27" style="fill:none;stroke:#999;stroke-width:3"></path>
<path d="M708.36,24.5c2.89,6.5,6.64,9.75,7.58,3.97" style="fill:none;stroke:#999;stroke-width:3"></path>
<path d="M731.65,22.93C732.0,24,732.3,24.76,731.91,27.19c-2.79,17.31-14.66,55.06-41.7,68.53" style="fill:none;stroke:#999;stroke-width:3"></path>
<path d="M705.37,38.97C710.25,69.5,716.62,84.12,737.5,90.25c10.25,3.01,11.25,0.75,4.46-8.63" style="fill:none;stroke:#999;stroke-width:3"></path>
<path d="M699.76,57.32c0.33,2.47-3.33,13.36-5.99,17.48" style="fill:none;stroke:#999;stroke-width:3"></path>

<path d="M785.0,16.88c4.5,1.45,11.62,5.96,12.75,8.22" style="fill:none;stroke:#999;stroke-width:3"></path>
<path d="M779.25,37.25c4.5,1.41,11.62,5.8,12.75,8" style="fill:none;stroke:#999;stroke-width:3"></path>
<path d="M776.88,86.52c1.67,0.8,2.95,0.19,3.95-1.12c3.37-4.37,6.73-9.7,9.8-15.27" style="fill:none;stroke:#999;stroke-width:3"></path>
<path d="M817.36,24.5c2.89,6.5,6.64,9.75,7.58,3.97" style="fill:none;stroke:#999;stroke-width:3"></path>
<path d="M840.65,22.93C841.0,24,841.3,24.76,840.91,27.19c-2.79,17.31-14.66,55.06-41.7,68.53" style="fill:none;stroke:#999;stroke-width:3"></path>
<path d="M814.37,38.97C819.25,69.5,825.62,84.12,846.5,90.25c10.25,3.01,11.25,0.75,4.46-8.63" style="fill:none;stroke:#999;stroke-width:3"></path>
<path d="M808.76,57.32c0.33,2.47-3.33,13.36-5.99,17.48" style="fill:none;stroke:#999;stroke-width:3"></path>
<path d="M848.56,48.92c3.49,3.06,7.63,9.33,8.94,15.3" style="fill:none;stroke:#999;stroke-width:3"></path>

</svg>