<svg width="872px" height="109px" viewBox="0 0 872 109" xmlns="http://www.w3.org/2000/svg" xmlns:xlink="http://www.w3.org/1999/xlink" xml:space="preserve" version="1.1" baseProfile="full">
<line x1="1" y1="1" x2="871" y2="1" style="stroke:#ddd;stroke-width:2"></line>
<line x1="1" y1="1" x2="1" y2="108" style="stroke:#ddd;stroke-width:2"></line>
<line x1="1" y1="108" x2="871" y2="108" style="stroke:#ddd;stroke-width:2"></line>
<line x1="871" y1="1" x2="871" y2="108" style="stroke:#ddd;stroke-width:2"></line>
<line x1="109" y1="1" x2="109" y2="108" style="stroke:#ddd;stroke-width:2"></line>
<line x1="218" y1="1" x2="218" y2="108" style="stroke:#ddd;stroke-width:2"></line>
<line x1="327" y1="1" x2="327" y2="108" style="stroke:#ddd;stroke-width:2"></line>
<line x1="436" y1="1" x2="436" y2="108" style="stroke:#ddd;stroke-width:2"></line>
<line x1="545" y1="1" x2="545" y2="108" style="stroke:#ddd;stroke-width:2"></line>
<line x1="654" y1="1" x2="654" y2="108" style="stroke:#ddd;stroke-width:2"></line>
<line x1="763" y1="1" x2="763" y2="108" style="stroke:#ddd;stroke-width:2"></line>
<line x1="1" y1="54" x2="871" y2="54" style="stroke:#ddd;stroke-width:2;stroke-dasharray:3 3"></line>
<line x1="55" y1="1" x2="55" y2="108" style="stroke:#ddd;stroke-width:2;stroke-dasharray:3 3"></line>
<line x1="164" y1="1" x2="164" y2="108" style="stroke:#ddd;stroke-width:2;stroke-dasharray:3 3"></line>
<line x1="273" y1="1" x2="273" y2="108" style="stroke:#ddd;stroke-width:2;stroke-dasharray:3 3"></line>
<line x1="382" y1="1" x2="382" y2="108" style="stroke:#ddd;stroke-width:2;stroke-dasharray:3 3"></line>
<line x1="491" y1="1" x2="491" y2="108" style="stroke:#ddd;stroke-width:2;stroke-dasharray:3 3"></line>
<line x1="600" y1="1" x2="600" y2="108" style="stroke:#ddd;stroke-width:2;stroke-dasharray:3 3"></line>
<line x1="709" y1="1" x2="709" y2="108" style="stroke:#ddd;stroke-width:2;stroke-dasharray:3 3"></line>
<line x1="818" y1="1" x2="818" y2="108" style="stroke:#ddd;stroke-width:2;stroke-dasharray:3 3"></line>
<path d="M21.88,17.88c4.28,1.45,11.05,5.96,12.12,8.22" style="fill:none;stroke:#999;stroke-width:3"></path>

<path d="M130.88,17.88c4.28,1.45,11.05,5.96,12.12,8.22" style="fill:none;stroke:#999;stroke-width:3"></path>
<path d="M124.25,43.25c4.32,1.23,11.17,5.08,12.25,7" style="fill:none;stroke:#999;stroke-width:3"></path>

<path d="M239.88,17.88c4.28,1.45,11.05,5.96,12.12,8.22" style="fill:none;stroke:#999;stroke-width:3"></path>
<path d="M233.25,43.25c4.32,1.23,11.17,5.08,12.25,7" style="fill:none;stroke:#999;stroke-width:3"></path>
<path d="M234.75,87.21c1.5,1.31,3.31,1.36,4.25-0.25c2.75-4.7,5.5-10.45,8-16.45" style="fill:none;stroke:#999;stroke-width:3"></path>

<path d="M348.88,17.88c4.28,1.45,11.05,5.96,12.12,8.22" style="fill:none;stroke:#999;stroke-width:3"></path>
<path d="M342.25,43.25c4.32,1.23,11.17,5.08,12.25,7" style="fill:none;stroke:#999;stroke-width:3"></path>
<path d="M343.75,87.21c1.5,1.31,3.31,1.36,4.25-0.25c2.75-4.7,5.5-10.45,8-16.45" style="fill:none;stroke:#999;stroke-width:3"></path>
<path d="M389.5,17c1,0.75,1.75,2,1.75,3.75s0,12.25,0,17" style="fill:none;stroke:#999;stroke-width:3"></path>

<path d="M457.88,17.88c4.28,1.45,11.05,5.96,12.12,8.22" style="fill:none;stroke:#999;stroke-width:3"></path>
<path d="M451.25,43.25c4.32,1.23,11.17,5.08,12.25,7" style="fill:none;stroke:#999;stroke-width:3"></path>
<path d="M452.75,87.21c1.5,1.31,3.31,1.36,4.25-0.25c2.75-4.7,5.5-10.45,8-16.45" style="fill:none;stroke:#999;stroke-width:3"></path>
<path d="M498.5,17c1,0.75,1.75,2,1.75,3.75s0,12.25,0,17" style="fill:none;stroke:#999;stroke-width:3"></path>
<path d="M477.25,40.95c2.11,0.59,4.38,0.32,6.52,0.1c7.96-0.81,24.5-3.43,34.23-4.13c2.44-0.18,4.83-0.25,7.25,0.16" style="fill:none;stroke:#999;stroke-width:3"></path>

<path d="M566.88,17.88c4.28,1.45,11.05,5.96,12.12,8.22" style="fill:none;stroke:#999;stroke-width:3"></path>
<path d="M560.25,43.25c4.32,1.23,11.17,5.08,12.25,7" style="fill:none;stroke:#999;stroke-width:3"></path>
<path d="M561.75,87.21c1.5,1.31,3.31,1.36,4.25-0.25c2.75-4.7,5.5-10.45,8-16.45" style="fill:none;stroke:#999;stroke-width:3"></path>
<path d="M607.5,17c1,0.75,1.75,2,1.75,3.75s0,12.25,0,17" style="fill:none;stroke:#999;stroke-width:3"></path>
<path d="M586.25,40.95c2.11,0.59,4.38,0.32,6.52,0.1c7.96-0.81,24.5-3.43,34.23-4.13c2.44-0.18,4.83-0.25,7.25,0.16" style="fill:none;stroke:#999;stroke-width:3"></path>
<path d="M594.25,49.75c3.71,9.23,5.86,20.47,6.79,28.32" style="fill:none;stroke:#999;stroke-width:3"></path>

<path d="M675.88,17.88c4.28,1.45,11.05,5.96,12.12,8.22" style="fill:none;stroke:#999;stroke-width:3"></path>
<path d="M669.25,43.25c4.32,1.23,11.17,5.08,12.25,7" style="fill:none;stroke:#999;stroke-width:3"></path>
<path d="M670.75,87.21c1.5,1.31,3.31,1.36,4.25-0.25c2.75-4.7,5.5-10.45,8-16.45" style="fill:none;stroke:#999;stroke-width:3"></path>
<path d="M716.5,17c1,0.75,1.75,2,1.75,3.75s0,12.25,0,17" style="fill:none;stroke:#999;stroke-width:3"></path>
<path d="M695.25,40.95c2.11,0.59,4.38,0.32,6.52,0.1c7.96-0.81,24.5-3.43,34.23-4.13c2.44-0.18,4.83-0.25,7.25,0.16" style="fill:none;stroke:#999;stroke-width:3"></path>
<path d="M703.25,49.75c3.71,9.23,5.86,20.47,6.79,28.32" style="fill:none;stroke:#999;stroke-width:3"></path>
<path d="M732.38,43c0.8,1.31,0.79,3.03,0.55,4.09c-2.34,10.34-6.83,29.12-8.43,34.79" style="fill:none;stroke:#999;stroke-width:3"></path>

<path d="M784.88,17.88c4.28,1.45,11.05,5.96,12.12,8.22" style="fill:none;stroke:#999;stroke-width:3"></path>
<path d="M778.25,43.25c4.32,1.23,11.17,5.08,12.25,7" style="fill:none;stroke:#999;stroke-width:3"></path>
<path d="M779.75,87.21c1.5,1.31,3.31,1.36,4.25-0.25c2.75-4.7,5.5-10.45,8-16.45" style="fill:none;stroke:#999;stroke-width:3"></path>
<path d="M825.5,17c1,0.75,1.75,2,1.75,3.75s0,12.25,0,17" style="fill:none;stroke:#999;stroke-width:3"></path>
<path d="M804.25,40.95c2.11,0.59,4.38,0.32,6.52,0.1c7.96-0.81,24.5-3.43,34.23-4.13c2.44-0.18,4.83-0.25,7.25,0.16" style="fill:none;stroke:#999;stroke-width:3"></path>
<path d="M812.25,49.75c3.71,9.23,5.86,20.47,6.79,28.32" style="fill:none;stroke:#999;stroke-width:3"></path>
<path d="M841.38,43c0.8,1.31,0.79,3.03,0.55,4.09c-2.34,10.34-6.83,29.12-8.43,34.79" style="fill:none;stroke:#999;stroke-width:3"></path>
<path d="M800.5,85.8c2.86,0.77,6.2,0.47,9.12,0.17c13.36-1.36,27.41-2.62,42.63-3.37c2.88-0.14,5.64,0.01,8.5,0.47" style="fill:none;stroke:#999;stroke-width:3"></path>

</svg>