<svg width="872px" height="109px" viewBox="0 0 872 109" xmlns="http://www.w3.org/2000/svg" xmlns:xlink="http://www.w3.org/1999/xlink" xml:space="preserve" version="1.1" baseProfile="full">
<line x1="1" y1="1" x2="871" y2="1" style="stroke:#ddd;stroke-width:2"></line>
<line x1="1" y1="1" x2="1" y2="108" style="stroke:#ddd;stroke-width:2"></line>
<line x1="1" y1="108" x2="871" y2="108" style="stroke:#ddd;stroke-width:2"></line>
<line x1="871" y1="1" x2="871" y2="108" style="stroke:#ddd;stroke-width:2"></line>
<line x1="109" y1="1" x2="109" y2="108" style="stroke:#ddd;stroke-width:2"></line>
<line x1="218" y1="1" x2="218" y2="108" style="stroke:#ddd;stroke-width:2"></line>
<line x1="327" y1="1" x2="327" y2="108" style="stroke:#ddd;stroke-width:2"></line>
<line x1="436" y1="1" x2="436" y2="108" style="stroke:#ddd;stroke-width:2"></line>
<line x1="545" y1="1" x2="545" y2="108" style="stroke:#ddd;stroke-width:2"></line>
<line x1="654" y1="1" x2="654" y2="108" style="stroke:#ddd;stroke-width:2"></line>
<line x1="763" y1="1" x2="763" y2="108" style="stroke:#ddd;stroke-width:2"></line>
<line x1="1" y1="54" x2="871" y2="54" style="stroke:#ddd;stroke-width:2;stroke-dasharray:3 3"></line>
<line x1="55" y1="1" x2="55" y2="108" style="stroke:#ddd;stroke-width:2;stroke-dasharray:3 3"></line>
<line x1="164" y1="1" x2="164" y2="108" style="stroke:#ddd;stroke-width:2;stroke-dasharray:3 3"></line>
<line x1="273" y1="1" x2="273" y2="108" style="stroke:#ddd;stroke-width:2;stroke-dasharray:3 3"></line>
<line x1="382" y1="1" x2="382" y2="108" style="stroke:#ddd;stroke-width:2;stroke-dasharray:3 3"></line>
<line x1="491" y1="1" x2="491" y2="108" style="stroke:#ddd;stroke-width:2;stroke-dasharray:3 3"></line>
<line x1="600" y1="1" x2="600" y2="108" style="stroke:#ddd;stroke-width:2;stroke-dasharray:3 3"></line>
<line x1="709" y1="1" x2="709" y2="108" style="stroke:#ddd;stroke-width:2;stroke-dasharray:3 3"></line>
<line x1="818" y1="1" x2="818" y2="108" style="stroke:#ddd;stroke-width:2;stroke-dasharray:3 3"></line>
<path d="M21.26,16c3.79,1.52,9.79,6.23,10.74,8.59" style="fill:none;stroke:#999;stroke-width:3"></path>

<path d="M130.26,16c3.79,1.52,9.79,6.23,10.74,8.59" style="fill:none;stroke:#999;stroke-width:3"></path>
<path d="M121.25,40c3.71,1.54,9.57,6.35,10.5,8.75" style="fill:none;stroke:#999;stroke-width:3"></path>

<path d="M239.26,16c3.79,1.52,9.79,6.23,10.74,8.59" style="fill:none;stroke:#999;stroke-width:3"></path>
<path d="M230.25,40c3.71,1.54,9.57,6.35,10.5,8.75" style="fill:none;stroke:#999;stroke-width:3"></path>
<path d="M232.5,91.37c1.42,0.2,2.93-0.52,3.59-1.68c2.81-4.92,7.11-14.92,9.66-21.2" style="fill:none;stroke:#999;stroke-width:3"></path>

<path d="M348.26,16c3.79,1.52,9.79,6.23,10.74,8.59" style="fill:none;stroke:#999;stroke-width:3"></path>
<path d="M339.25,40c3.71,1.54,9.57,6.35,10.5,8.75" style="fill:none;stroke:#999;stroke-width:3"></path>
<path d="M341.5,91.37c1.42,0.2,2.93-0.52,3.59-1.68c2.81-4.92,7.11-14.92,9.66-21.2" style="fill:none;stroke:#999;stroke-width:3"></path>
<path d="M383.38,13.75c4.94,2.02,12.2,7.68,13.43,10.82" style="fill:none;stroke:#999;stroke-width:3"></path>

<path d="M457.26,16c3.79,1.52,9.79,6.23,10.74,8.59" style="fill:none;stroke:#999;stroke-width:3"></path>
<path d="M448.25,40c3.71,1.54,9.57,6.35,10.5,8.75" style="fill:none;stroke:#999;stroke-width:3"></path>
<path d="M450.5,91.37c1.42,0.2,2.93-0.52,3.59-1.68c2.81-4.92,7.11-14.92,9.66-21.2" style="fill:none;stroke:#999;stroke-width:3"></path>
<path d="M492.38,13.75c4.94,2.02,12.2,7.68,13.43,10.82" style="fill:none;stroke:#999;stroke-width:3"></path>
<path d="M478.0,39.52c2.5,0.36,5.2,0.17,7.37,0c9.63-0.76,23.25-2.15,33.13-2.64c2.18-0.11,4.38-0.31,6.5,0.34" style="fill:none;stroke:#999;stroke-width:3"></path>

<path d="M566.26,16c3.79,1.52,9.79,6.23,10.74,8.59" style="fill:none;stroke:#999;stroke-width:3"></path>
<path d="M557.25,40c3.71,1.54,9.57,6.35,10.5,8.75" style="fill:none;stroke:#999;stroke-width:3"></path>
<path d="M559.5,91.37c1.42,0.2,2.93-0.52,3.59-1.68c2.81-4.92,7.11-14.92,9.66-21.2" style="fill:none;stroke:#999;stroke-width:3"></path>
<path d="M601.38,13.75c4.94,2.02,12.2,7.68,13.43,10.82" style="fill:none;stroke:#999;stroke-width:3"></path>
<path d="M587.0,39.52c2.5,0.36,5.2,0.17,7.37,0c9.63-0.76,23.25-2.15,33.13-2.64c2.18-0.11,4.38-0.31,6.5,0.34" style="fill:none;stroke:#999;stroke-width:3"></path>
<path d="M609.75,41.79c1.04,1.04,1.5,2.46,1.5,3.94c0,5.95,0,31.52,0,39.91" style="fill:none;stroke:#999;stroke-width:3"></path>

<path d="M675.26,16c3.79,1.52,9.79,6.23,10.74,8.59" style="fill:none;stroke:#999;stroke-width:3"></path>
<path d="M666.25,40c3.71,1.54,9.57,6.35,10.5,8.75" style="fill:none;stroke:#999;stroke-width:3"></path>
<path d="M668.5,91.37c1.42,0.2,2.93-0.52,3.59-1.68c2.81-4.92,7.11-14.92,9.66-21.2" style="fill:none;stroke:#999;stroke-width:3"></path>
<path d="M710.38,13.75c4.94,2.02,12.2,7.68,13.43,10.82" style="fill:none;stroke:#999;stroke-width:3"></path>
<path d="M696.0,39.52c2.5,0.36,5.2,0.17,7.37,0c9.63-0.76,23.25-2.15,33.13-2.64c2.18-0.11,4.38-0.31,6.5,0.34" style="fill:none;stroke:#999;stroke-width:3"></path>
<path d="M718.75,41.79c1.04,1.04,1.5,2.46,1.5,3.94c0,5.95,0,31.52,0,39.91" style="fill:none;stroke:#999;stroke-width:3"></path>
<path d="M700.75,62.4c2.38,0.35,4.56,0.28,6.38,0.06c8.12-0.97,16.99-2.47,27.62-3.19c1.17-0.08,3.75-0.2,5.5,0.23" style="fill:none;stroke:#999;stroke-width:3"></path>

<path d="M784.26,16c3.79,1.52,9.79,6.23,10.74,8.59" style="fill:none;stroke:#999;stroke-width:3"></path>
<path d="M775.25,40c3.71,1.54,9.57,6.35,10.5,8.75" style="fill:none;stroke:#999;stroke-width:3"></path>
<path d="M777.5,91.37c1.42,0.2,2.93-0.52,3.59-1.68c2.81-4.92,7.11-14.92,9.66-21.2" style="fill:none;stroke:#999;stroke-width:3"></path>
<path d="M819.38,13.75c4.94,2.02,12.2,7.68,13.43,10.82" style="fill:none;stroke:#999;stroke-width:3"></path>
<path d="M805.0,39.52c2.5,0.36,5.2,0.17,7.37,0c9.63-0.76,23.25-2.15,33.13-2.64c2.18-0.11,4.38-0.31,6.5,0.34" style="fill:none;stroke:#999;stroke-width:3"></path>
<path d="M827.75,41.79c1.04,1.04,1.5,2.46,1.5,3.94c0,5.95,0,31.52,0,39.91" style="fill:none;stroke:#999;stroke-width:3"></path>
<path d="M809.75,62.4c2.38,0.35,4.56,0.28,6.38,0.06c8.12-0.97,16.99-2.47,27.62-3.19c1.17-0.08,3.75-0.2,5.5,0.23" style="fill:none;stroke:#999;stroke-width:3"></path>
<path d="M795.75,88.52c3,0.6,6.27,0.65,9.38,0.36c14.62-1.38,31.06-2.74,47.13-3.38c3.16-0.12,6.87,0,9.49,0.78" style="fill:none;stroke:#999;stroke-width:3"></path>

</svg>