<svg width="981px" height="109px" viewBox="0 0 981 109" xmlns="http://www.w3.org/2000/svg" xmlns:xlink="http://www.w3.org/1999/xlink" xml:space="preserve" version="1.1" baseProfile="full">
<line x1="1" y1="1" x2="980" y2="1" style="stroke:#ddd;stroke-width:2"></line>
<line x1="1" y1="1" x2="1" y2="108" style="stroke:#ddd;stroke-width:2"></line>
<line x1="1" y1="108" x2="980" y2="108" style="stroke:#ddd;stroke-width:2"></line>
<line x1="980" y1="1" x2="980" y2="108" style="stroke:#ddd;stroke-width:2"></line>
<line x1="109" y1="1" x2="109" y2="108" style="stroke:#ddd;stroke-width:2"></line>
<line x1="218" y1="1" x2="218" y2="108" style="stroke:#ddd;stroke-width:2"></line>
<line x1="327" y1="1" x2="327" y2="108" style="stroke:#ddd;stroke-width:2"></line>
<line x1="436" y1="1" x2="436" y2="108" style="stroke:#ddd;stroke-width:2"></line>
<line x1="545" y1="1" x2="545" y2="108" style="stroke:#ddd;stroke-width:2"></line>
<line x1="654" y1="1" x2="654" y2="108" style="stroke:#ddd;stroke-width:2"></line>
<line x1="763" y1="1" x2="763" y2="108" style="stroke:#ddd;stroke-width:2"></line>
<line x1="872" y1="1" x2="872" y2="108" style="stroke:#ddd;stroke-width:2"></line>
<line x1="1" y1="54" x2="980" y2="54" style="stroke:#ddd;stroke-width:2;stroke-dasharray:3 3"></line>
<line x1="55" y1="1" x2="55" y2="108" style="stroke:#ddd;stroke-width:2;stroke-dasharray:3 3"></line>
<line x1="164" y1="1" x2="164" y2="108" style="stroke:#ddd;stroke-width:2;stroke-dasharray:3 3"></line>
<line x1="273" y1="1" x2="273" y2="108" style="stroke:#ddd;stroke-width:2;stroke-dasharray:3 3"></line>
<line x1="382" y1="1" x2="382" y2="108" style="stroke:#ddd;stroke-width:2;stroke-dasharray:3 3"></line>
<line x1="491" y1="1" x2="491" y2="108" style="stroke:#ddd;stroke-width:2;stroke-dasharray:3 3"></line>
<line x1="600" y1="1" x2="600" y2="108" style="stroke:#ddd;stroke-width:2;stroke-dasharray:3 3"></line>
<line x1="709" y1="1" x2="709" y2="108" style="stroke:#ddd;stroke-width:2;stroke-dasharray:3 3"></line>
<line x1="818" y1="1" x2="818" y2="108" style="stroke:#ddd;stroke-width:2;stroke-dasharray:3 3"></line>
<line x1="927" y1="1" x2="927" y2="108" style="stroke:#ddd;stroke-width:2;stroke-dasharray:3 3"></line>
<path d="M17.13,17c4.63,1.6,11.96,6.6,13.12,9.09" style="fill:none;stroke:#999;stroke-width:3"></path>

<path d="M126.13,17c4.63,1.6,11.96,6.6,13.12,9.09" style="fill:none;stroke:#999;stroke-width:3"></path>
<path d="M121.75,43.25C126.07,44.79,132.92000000000002,49.6,134.0,52" style="fill:none;stroke:#999;stroke-width:3"></path>

<path d="M235.13,17c4.63,1.6,11.96,6.6,13.12,9.09" style="fill:none;stroke:#999;stroke-width:3"></path>
<path d="M230.75,43.25C235.07,44.79,241.92000000000002,49.6,243.0,52" style="fill:none;stroke:#999;stroke-width:3"></path>
<path d="M231.5,86.5c1.93,1.25,4.25,1.3,5.46-0.24c3.54-4.5,8.57-13.01,11.79-18.76" style="fill:none;stroke:#999;stroke-width:3"></path>

<path d="M344.13,17c4.63,1.6,11.96,6.6,13.12,9.09" style="fill:none;stroke:#999;stroke-width:3"></path>
<path d="M339.75,43.25C344.07,44.79,350.92,49.6,352.0,52" style="fill:none;stroke:#999;stroke-width:3"></path>
<path d="M340.5,86.5c1.93,1.25,4.25,1.3,5.46-0.24c3.54-4.5,8.57-13.01,11.79-18.76" style="fill:none;stroke:#999;stroke-width:3"></path>
<path d="M376.99,18.86c0.03,0.61,0.12,1.76-0.06,2.45c-2.3,8.6-5.7,16.49-11.7,23.43" style="fill:none;stroke:#999;stroke-width:3"></path>

<path d="M453.13,17c4.63,1.6,11.96,6.6,13.12,9.09" style="fill:none;stroke:#999;stroke-width:3"></path>
<path d="M448.75,43.25C453.07,44.79,459.92,49.6,461.0,52" style="fill:none;stroke:#999;stroke-width:3"></path>
<path d="M449.5,86.5c1.93,1.25,4.25,1.3,5.46-0.24c3.54-4.5,8.57-13.01,11.79-18.76" style="fill:none;stroke:#999;stroke-width:3"></path>
<path d="M485.99,18.86c0.03,0.61,0.12,1.76-0.06,2.45c-2.3,8.6-5.7,16.49-11.7,23.43" style="fill:none;stroke:#999;stroke-width:3"></path>
<path d="M484.99,33c0.81,0.27,2.88,0.3,3.69,0.27c8.4-0.31,19.73-3.2,29.94-4.1c1.34-0.12,2.15,0.13,2.82,0.27" style="fill:none;stroke:#999;stroke-width:3"></path>

<path d="M562.13,17c4.63,1.6,11.96,6.6,13.12,9.09" style="fill:none;stroke:#999;stroke-width:3"></path>
<path d="M557.75,43.25C562.0699999999999,44.79,568.9200000000001,49.6,570.0,52" style="fill:none;stroke:#999;stroke-width:3"></path>
<path d="M558.5,86.5c1.93,1.25,4.25,1.3,5.46-0.24c3.54-4.5,8.57-13.01,11.79-18.76" style="fill:none;stroke:#999;stroke-width:3"></path>
<path d="M594.99,18.86c0.03,0.61,0.12,1.76-0.06,2.45c-2.3,8.6-5.7,16.49-11.7,23.43" style="fill:none;stroke:#999;stroke-width:3"></path>
<path d="M593.99,33c0.81,0.27,2.88,0.3,3.69,0.27c8.4-0.31,19.73-3.2,29.94-4.1c1.34-0.12,2.15,0.13,2.82,0.27" style="fill:none;stroke:#999;stroke-width:3"></path>
<path d="M581.89,54.5c0.86,0.24,3.17,0.42,5.47,0.23c9.13-0.73,30.21-3.12,46.03-4.34c2.29-0.18,4.33,0.24,5.77,0.49" style="fill:none;stroke:#999;stroke-width:3"></path>

<path d="M671.13,17c4.63,1.6,11.96,6.6,13.12,9.09" style="fill:none;stroke:#999;stroke-width:3"></path>
<path d="M666.75,43.25C671.0699999999999,44.79,677.9200000000001,49.6,679.0,52" style="fill:none;stroke:#999;stroke-width:3"></path>
<path d="M667.5,86.5c1.93,1.25,4.25,1.3,5.46-0.24c3.54-4.5,8.57-13.01,11.79-18.76" style="fill:none;stroke:#999;stroke-width:3"></path>
<path d="M703.99,18.86c0.03,0.61,0.12,1.76-0.06,2.45c-2.3,8.6-5.7,16.49-11.7,23.43" style="fill:none;stroke:#999;stroke-width:3"></path>
<path d="M702.99,33c0.81,0.27,2.88,0.3,3.69,0.27c8.4-0.31,19.73-3.2,29.94-4.1c1.34-0.12,2.15,0.13,2.82,0.27" style="fill:none;stroke:#999;stroke-width:3"></path>
<path d="M690.89,54.5c0.86,0.24,3.17,0.42,5.47,0.23c9.13-0.73,30.21-3.12,46.03-4.34c2.29-0.18,4.33,0.24,5.77,0.49" style="fill:none;stroke:#999;stroke-width:3"></path>
<path d="M716.48,9.75c1.14,0.49,1.82,2.2,2.05,3.17s0,80.97-0.23,87.08" style="fill:none;stroke:#999;stroke-width:3"></path>

<path d="M780.13,17c4.63,1.6,11.96,6.6,13.12,9.09" style="fill:none;stroke:#999;stroke-width:3"></path>
<path d="M775.75,43.25C780.0699999999999,44.79,786.9200000000001,49.6,788.0,52" style="fill:none;stroke:#999;stroke-width:3"></path>
<path d="M776.5,86.5c1.93,1.25,4.25,1.3,5.46-0.24c3.54-4.5,8.57-13.01,11.79-18.76" style="fill:none;stroke:#999;stroke-width:3"></path>
<path d="M812.99,18.86c0.03,0.61,0.12,1.76-0.06,2.45c-2.3,8.6-5.7,16.49-11.7,23.43" style="fill:none;stroke:#999;stroke-width:3"></path>
<path d="M811.99,33c0.81,0.27,2.88,0.3,3.69,0.27c8.4-0.31,19.73-3.2,29.94-4.1c1.34-0.12,2.15,0.13,2.82,0.27" style="fill:none;stroke:#999;stroke-width:3"></path>
<path d="M799.89,54.5c0.86,0.24,3.17,0.42,5.47,0.23c9.13-0.73,30.21-3.12,46.03-4.34c2.29-0.18,4.33,0.24,5.77,0.49" style="fill:none;stroke:#999;stroke-width:3"></path>
<path d="M825.48,9.75c1.14,0.49,1.82,2.2,2.05,3.17s0,80.97-0.23,87.08" style="fill:none;stroke:#999;stroke-width:3"></path>
<path d="M827.25,53.04C821.9,64.06,808.07,80.77,796.95,87" style="fill:none;stroke:#999;stroke-width:3"></path>

<path d="M889.13,17c4.63,1.6,11.96,6.6,13.12,9.09" style="fill:none;stroke:#999;stroke-width:3"></path>
<path d="M884.75,43.25C889.0699999999999,44.79,895.9200000000001,49.6,897.0,52" style="fill:none;stroke:#999;stroke-width:3"></path>
<path d="M885.5,86.5c1.93,1.25,4.25,1.3,5.46-0.24c3.54-4.5,8.57-13.01,11.79-18.76" style="fill:none;stroke:#999;stroke-width:3"></path>
<path d="M921.99,18.86c0.03,0.61,0.12,1.76-0.06,2.45c-2.3,8.6-5.7,16.49-11.7,23.43" style="fill:none;stroke:#999;stroke-width:3"></path>
<path d="M920.99,33c0.81,0.27,2.88,0.3,3.69,0.27c8.4-0.31,19.73-3.2,29.94-4.1c1.34-0.12,2.15,0.13,2.82,0.27" style="fill:none;stroke:#999;stroke-width:3"></path>
<path d="M908.89,54.5c0.86,0.24,3.17,0.42,5.47,0.23c9.13-0.73,30.21-3.12,46.03-4.34c2.29-0.18,4.33,0.24,5.77,0.49" style="fill:none;stroke:#999;stroke-width:3"></path>
<path d="M934.48,9.75c1.14,0.49,1.82,2.2,2.05,3.17s0,80.97-0.23,87.08" style="fill:none;stroke:#999;stroke-width:3"></path>
<path d="M936.25,53.04C930.9,64.06,917.07,80.77,905.95,87" style="fill:none;stroke:#999;stroke-width:3"></path>
<path d="M936.85,54.31c4.16,6.21,21.72,23.94,27.91,29.13c1.55,1.3,2.79,1.96,4.29,2.35" style="fill:none;stroke:#999;stroke-width:3"></path>

</svg>