<svg width="981px" height="109px" viewBox="0 0 981 109" xmlns="http://www.w3.org/2000/svg" xmlns:xlink="http://www.w3.org/1999/xlink" xml:space="preserve" version="1.1" baseProfile="full">
<line x1="1" y1="1" x2="980" y2="1" style="stroke:#ddd;stroke-width:2"></line>
<line x1="1" y1="1" x2="1" y2="108" style="stroke:#ddd;stroke-width:2"></line>
<line x1="1" y1="108" x2="980" y2="108" style="stroke:#ddd;stroke-width:2"></line>
<line x1="980" y1="1" x2="980" y2="108" style="stroke:#ddd;stroke-width:2"></line>
<line x1="109" y1="1" x2="109" y2="108" style="stroke:#ddd;stroke-width:2"></line>
<line x1="218" y1="1" x2="218" y2="108" style="stroke:#ddd;stroke-width:2"></line>
<line x1="327" y1="1" x2="327" y2="108" style="stroke:#ddd;stroke-width:2"></line>
<line x1="436" y1="1" x2="436" y2="108" style="stroke:#ddd;stroke-width:2"></line>
<line x1="545" y1="1" x2="545" y2="108" style="stroke:#ddd;stroke-width:2"></line>
<line x1="654" y1="1" x2="654" y2="108" style="stroke:#ddd;stroke-width:2"></line>
<line x1="763" y1="1" x2="763" y2="108" style="stroke:#ddd;stroke-width:2"></line>
<line x1="872" y1="1" x2="872" y2="108" style="stroke:#ddd;stroke-width:2"></line>
<line x1="1" y1="54" x2="980" y2="54" style="stroke:#ddd;stroke-width:2;stroke-dasharray:3 3"></line>
<line x1="55" y1="1" x2="55" y2="108" style="stroke:#ddd;stroke-width:2;stroke-dasharray:3 3"></line>
<line x1="164" y1="1" x2="164" y2="108" style="stroke:#ddd;stroke-width:2;stroke-dasharray:3 3"></line>
<line x1="273" y1="1" x2="273" y2="108" style="stroke:#ddd;stroke-width:2;stroke-dasharray:3 3"></line>
<line x1="382" y1="1" x2="382" y2="108" style="stroke:#ddd;stroke-width:2;stroke-dasharray:3 3"></line>
<line x1="491" y1="1" x2="491" y2="108" style="stroke:#ddd;stroke-width:2;stroke-dasharray:3 3"></line>
<line x1="600" y1="1" x2="600" y2="108" style="stroke:#ddd;stroke-width:2;stroke-dasharray:3 3"></line>
<line x1="709" y1="1" x2="709" y2="108" style="stroke:#ddd;stroke-width:2;stroke-dasharray:3 3"></line>
<line x1="818" y1="1" x2="818" y2="108" style="stroke:#ddd;stroke-width:2;stroke-dasharray:3 3"></line>
<line x1="927" y1="1" x2="927" y2="108" style="stroke:#ddd;stroke-width:2;stroke-dasharray:3 3"></line>
<path d="M20.13,20.12c3.84,1.54,9.91,6.32,10.87,8.72" style="fill:none;stroke:#999;stroke-width:3"></path>

<path d="M129.13,20.12c3.84,1.54,9.91,6.32,10.87,8.72" style="fill:none;stroke:#999;stroke-width:3"></path>
<path d="M123.12,43c4.46,1.37,11.51,5.62,12.62,7.75" style="fill:none;stroke:#999;stroke-width:3"></path>

<path d="M238.13,20.12c3.84,1.54,9.91,6.32,10.87,8.72" style="fill:none;stroke:#999;stroke-width:3"></path>
<path d="M232.12,43c4.46,1.37,11.51,5.62,12.62,7.75" style="fill:none;stroke:#999;stroke-width:3"></path>
<path d="M232.7,89.85c1.25,0.62,2.55,0.39,3.3-0.9c2.75-4.7,5.5-10.45,8-16.45" style="fill:none;stroke:#999;stroke-width:3"></path>

<path d="M347.13,20.12c3.84,1.54,9.91,6.32,10.87,8.72" style="fill:none;stroke:#999;stroke-width:3"></path>
<path d="M341.12,43c4.46,1.37,11.51,5.62,12.62,7.75" style="fill:none;stroke:#999;stroke-width:3"></path>
<path d="M341.7,89.85c1.25,0.62,2.55,0.39,3.3-0.9c2.75-4.7,5.5-10.45,8-16.45" style="fill:none;stroke:#999;stroke-width:3"></path>
<path d="M366.49,40.86c3.64,0.64,6.12,0.22,9.14-0.2c11.31-1.58,24.21-3.28,34.61-3.85c2.92-0.16,5.38-0.13,8.26,0.55" style="fill:none;stroke:#999;stroke-width:3"></path>

<path d="M456.13,20.12c3.84,1.54,9.91,6.32,10.87,8.72" style="fill:none;stroke:#999;stroke-width:3"></path>
<path d="M450.12,43c4.46,1.37,11.51,5.62,12.62,7.75" style="fill:none;stroke:#999;stroke-width:3"></path>
<path d="M450.7,89.85c1.25,0.62,2.55,0.39,3.3-0.9c2.75-4.7,5.5-10.45,8-16.45" style="fill:none;stroke:#999;stroke-width:3"></path>
<path d="M475.49,40.86c3.64,0.64,6.12,0.22,9.14-0.2c11.31-1.58,24.21-3.28,34.61-3.85c2.92-0.16,5.38-0.13,8.26,0.55" style="fill:none;stroke:#999;stroke-width:3"></path>
<path d="M487.42,20.68c0.95,0.95,1.21,2.19,1.24,3.6c0.14,6.91,1.01,29.59,1.46,37.45" style="fill:none;stroke:#999;stroke-width:3"></path>

<path d="M565.13,20.12c3.84,1.54,9.91,6.32,10.87,8.72" style="fill:none;stroke:#999;stroke-width:3"></path>
<path d="M559.12,43c4.46,1.37,11.51,5.62,12.62,7.75" style="fill:none;stroke:#999;stroke-width:3"></path>
<path d="M559.7,89.85c1.25,0.62,2.55,0.39,3.3-0.9c2.75-4.7,5.5-10.45,8-16.45" style="fill:none;stroke:#999;stroke-width:3"></path>
<path d="M584.49,40.86c3.64,0.64,6.12,0.22,9.14-0.2c11.31-1.58,24.21-3.28,34.61-3.85c2.92-0.16,5.38-0.13,8.26,0.55" style="fill:none;stroke:#999;stroke-width:3"></path>
<path d="M596.4200000000001,20.68c0.95,0.95,1.21,2.19,1.24,3.6c0.14,6.91,1.01,29.59,1.46,37.45" style="fill:none;stroke:#999;stroke-width:3"></path>
<path d="M622.36,17.2c0.77,1.17,0.92,2.55,0.74,4.1C621.12,37.88,620.0,45,618.22,60.31" style="fill:none;stroke:#999;stroke-width:3"></path>

<path d="M674.13,20.12c3.84,1.54,9.91,6.32,10.87,8.72" style="fill:none;stroke:#999;stroke-width:3"></path>
<path d="M668.12,43c4.46,1.37,11.51,5.62,12.62,7.75" style="fill:none;stroke:#999;stroke-width:3"></path>
<path d="M668.7,89.85c1.25,0.62,2.55,0.39,3.3-0.9c2.75-4.7,5.5-10.45,8-16.45" style="fill:none;stroke:#999;stroke-width:3"></path>
<path d="M693.49,40.86c3.64,0.64,6.12,0.22,9.14-0.2c11.31-1.58,24.21-3.28,34.61-3.85c2.92-0.16,5.38-0.13,8.26,0.55" style="fill:none;stroke:#999;stroke-width:3"></path>
<path d="M705.4200000000001,20.68c0.95,0.95,1.21,2.19,1.24,3.6c0.14,6.91,1.01,29.59,1.46,37.45" style="fill:none;stroke:#999;stroke-width:3"></path>
<path d="M731.36,17.2c0.77,1.17,0.92,2.55,0.74,4.1C730.12,37.88,729.0,45,727.22,60.31" style="fill:none;stroke:#999;stroke-width:3"></path>
<path d="M691.25,63.37c3.12,0.75,5.9,0.71,8.51,0.41C711.75,62.38,728.0,61,741.88,60.88c2.64-0.02,5.06,0.08,7.62,0.68" style="fill:none;stroke:#999;stroke-width:3"></path>

<path d="M783.13,20.12c3.84,1.54,9.91,6.32,10.87,8.72" style="fill:none;stroke:#999;stroke-width:3"></path>
<path d="M777.12,43c4.46,1.37,11.51,5.62,12.62,7.75" style="fill:none;stroke:#999;stroke-width:3"></path>
<path d="M777.7,89.85c1.25,0.62,2.55,0.39,3.3-0.9c2.75-4.7,5.5-10.45,8-16.45" style="fill:none;stroke:#999;stroke-width:3"></path>
<path d="M802.49,40.86c3.64,0.64,6.12,0.22,9.14-0.2c11.31-1.58,24.21-3.28,34.61-3.85c2.92-0.16,5.38-0.13,8.26,0.55" style="fill:none;stroke:#999;stroke-width:3"></path>
<path d="M814.4200000000001,20.68c0.95,0.95,1.21,2.19,1.24,3.6c0.14,6.91,1.01,29.59,1.46,37.45" style="fill:none;stroke:#999;stroke-width:3"></path>
<path d="M840.36,17.2c0.77,1.17,0.92,2.55,0.74,4.1C839.12,37.88,838.0,45,836.22,60.31" style="fill:none;stroke:#999;stroke-width:3"></path>
<path d="M800.25,63.37c3.12,0.75,5.9,0.71,8.51,0.41C820.75,62.38,837.0,61,850.88,60.88c2.64-0.02,5.06,0.08,7.62,0.68" style="fill:none;stroke:#999;stroke-width:3"></path>
<path d="M816.44,73.59c0.11,0.97-0.46,2.03-0.98,2.88c-2.7,4.4-10.72,11.42-19.61,16.82" style="fill:none;stroke:#999;stroke-width:3"></path>

<path d="M892.13,20.12c3.84,1.54,9.91,6.32,10.87,8.72" style="fill:none;stroke:#999;stroke-width:3"></path>
<path d="M886.12,43c4.46,1.37,11.51,5.62,12.62,7.75" style="fill:none;stroke:#999;stroke-width:3"></path>
<path d="M886.7,89.85c1.25,0.62,2.55,0.39,3.3-0.9c2.75-4.7,5.5-10.45,8-16.45" style="fill:none;stroke:#999;stroke-width:3"></path>
<path d="M911.49,40.86c3.64,0.64,6.12,0.22,9.14-0.2c11.31-1.58,24.21-3.28,34.61-3.85c2.92-0.16,5.38-0.13,8.26,0.55" style="fill:none;stroke:#999;stroke-width:3"></path>
<path d="M923.4200000000001,20.68c0.95,0.95,1.21,2.19,1.24,3.6c0.14,6.91,1.01,29.59,1.46,37.45" style="fill:none;stroke:#999;stroke-width:3"></path>
<path d="M949.36,17.2c0.77,1.17,0.92,2.55,0.74,4.1C948.12,37.88,947.0,45,945.22,60.31" style="fill:none;stroke:#999;stroke-width:3"></path>
<path d="M909.25,63.37c3.12,0.75,5.9,0.71,8.51,0.41C929.75,62.38,946.0,61,959.88,60.88c2.64-0.02,5.06,0.08,7.62,0.68" style="fill:none;stroke:#999;stroke-width:3"></path>
<path d="M925.44,73.59c0.11,0.97-0.46,2.03-0.98,2.88c-2.7,4.4-10.72,11.42-19.61,16.82" style="fill:none;stroke:#999;stroke-width:3"></path>
<path d="M945.6,72.94c6.9,3.72,17.82,15.29,19.55,21.08" style="fill:none;stroke:#999;stroke-width:3"></path>

</svg>