<svg width="981px" height="109px" viewBox="0 0 981 109" xmlns="http://www.w3.org/2000/svg" xmlns:xlink="http://www.w3.org/1999/xlink" xml:space="preserve" version="1.1" baseProfile="full">
<line x1="1" y1="1" x2="980" y2="1" style="stroke:#ddd;stroke-width:2"></line>
<line x1="1" y1="1" x2="1" y2="108" style="stroke:#ddd;stroke-width:2"></line>
<line x1="1" y1="108" x2="980" y2="108" style="stroke:#ddd;stroke-width:2"></line>
<line x1="980" y1="1" x2="980" y2="108" style="stroke:#ddd;stroke-width:2"></line>
<line x1="109" y1="1" x2="109" y2="108" style="stroke:#ddd;stroke-width:2"></line>
<line x1="218" y1="1" x2="218" y2="108" style="stroke:#ddd;stroke-width:2"></line>
<line x1="327" y1="1" x2="327" y2="108" style="stroke:#ddd;stroke-width:2"></line>
<line x1="436" y1="1" x2="436" y2="108" style="stroke:#ddd;stroke-width:2"></line>
<line x1="545" y1="1" x2="545" y2="108" style="stroke:#ddd;stroke-width:2"></line>
<line x1="654" y1="1" x2="654" y2="108" style="stroke:#ddd;stroke-width:2"></line>
<line x1="763" y1="1" x2="763" y2="108" style="stroke:#ddd;stroke-width:2"></line>
<line x1="872" y1="1" x2="872" y2="108" style="stroke:#ddd;stroke-width:2"></line>
<line x1="1" y1="54" x2="980" y2="54" style="stroke:#ddd;stroke-width:2;stroke-dasharray:3 3"></line>
<line x1="55" y1="1" x2="55" y2="108" style="stroke:#ddd;stroke-width:2;stroke-dasharray:3 3"></line>
<line x1="164" y1="1" x2="164" y2="108" style="stroke:#ddd;stroke-width:2;stroke-dasharray:3 3"></line>
<line x1="273" y1="1" x2="273" y2="108" style="stroke:#ddd;stroke-width:2;stroke-dasharray:3 3"></line>
<line x1="382" y1="1" x2="382" y2="108" style="stroke:#ddd;stroke-width:2;stroke-dasharray:3 3"></line>
<line x1="491" y1="1" x2="491" y2="108" style="stroke:#ddd;stroke-width:2;stroke-dasharray:3 3"></line>
<line x1="600" y1="1" x2="600" y2="108" style="stroke:#ddd;stroke-width:2;stroke-dasharray:3 3"></line>
<line x1="709" y1="1" x2="709" y2="108" style="stroke:#ddd;stroke-width:2;stroke-dasharray:3 3"></line>
<line x1="818" y1="1" x2="818" y2="108" style="stroke:#ddd;stroke-width:2;stroke-dasharray:3 3"></line>
<line x1="927" y1="1" x2="927" y2="108" style="stroke:#ddd;stroke-width:2;stroke-dasharray:3 3"></line>
<path d="M18.63,16c4.45,1.78,11.5,7.32,12.62,10.09" style="fill:none;stroke:#999;stroke-width:3"></path>

<path d="M127.63,16c4.45,1.78,11.5,7.32,12.62,10.09" style="fill:none;stroke:#999;stroke-width:3"></path>
<path d="M122.0,42.75c4.41,1.98,11.4,8.16,12.5,11.25" style="fill:none;stroke:#999;stroke-width:3"></path>

<path d="M236.63,16c4.45,1.78,11.5,7.32,12.62,10.09" style="fill:none;stroke:#999;stroke-width:3"></path>
<path d="M231.0,42.75c4.41,1.98,11.4,8.16,12.5,11.25" style="fill:none;stroke:#999;stroke-width:3"></path>
<path d="M231.25,88.73c1.71,1.27,3.78,1.32,4.86-0.25c3.14-4.57,9.29-16.66,12.14-22.49" style="fill:none;stroke:#999;stroke-width:3"></path>

<path d="M345.63,16c4.45,1.78,11.5,7.32,12.62,10.09" style="fill:none;stroke:#999;stroke-width:3"></path>
<path d="M340.0,42.75c4.41,1.98,11.4,8.16,12.5,11.25" style="fill:none;stroke:#999;stroke-width:3"></path>
<path d="M340.25,88.73c1.71,1.27,3.78,1.32,4.86-0.25c3.14-4.57,9.29-16.66,12.14-22.49" style="fill:none;stroke:#999;stroke-width:3"></path>
<path d="M388.95,15.08c0.03,0.47,0.15,1.25-0.07,1.88c-1.53,4.44-5.9,12.59-11.96,17.94" style="fill:none;stroke:#999;stroke-width:3"></path>

<path d="M454.63,16c4.45,1.78,11.5,7.32,12.62,10.09" style="fill:none;stroke:#999;stroke-width:3"></path>
<path d="M449.0,42.75c4.41,1.98,11.4,8.16,12.5,11.25" style="fill:none;stroke:#999;stroke-width:3"></path>
<path d="M449.25,88.73c1.71,1.27,3.78,1.32,4.86-0.25c3.14-4.57,9.29-16.66,12.14-22.49" style="fill:none;stroke:#999;stroke-width:3"></path>
<path d="M497.95,15.08c0.03,0.47,0.15,1.25-0.07,1.88c-1.53,4.44-5.9,12.59-11.96,17.94" style="fill:none;stroke:#999;stroke-width:3"></path>
<path d="M475.93,35.95c0.66,0.58,1.09,1.9,1.19,2.65c0.8,5.93,1.14,41.04,1.69,51.68" style="fill:none;stroke:#999;stroke-width:3"></path>

<path d="M563.63,16c4.45,1.78,11.5,7.32,12.62,10.09" style="fill:none;stroke:#999;stroke-width:3"></path>
<path d="M558.0,42.75c4.41,1.98,11.4,8.16,12.5,11.25" style="fill:none;stroke:#999;stroke-width:3"></path>
<path d="M558.25,88.73c1.71,1.27,3.78,1.32,4.86-0.25c3.14-4.57,9.29-16.66,12.14-22.49" style="fill:none;stroke:#999;stroke-width:3"></path>
<path d="M606.95,15.08c0.03,0.47,0.15,1.25-0.07,1.88c-1.53,4.44-5.9,12.59-11.96,17.94" style="fill:none;stroke:#999;stroke-width:3"></path>
<path d="M584.9300000000001,35.95c0.66,0.58,1.09,1.9,1.19,2.65c0.8,5.93,1.14,41.04,1.69,51.68" style="fill:none;stroke:#999;stroke-width:3"></path>
<path d="M585.94,38.04c8.81-1.04,36.77-3.5,44.18-4.25c2.71-0.28,4.23,1.61,3.95,3.25c-1.32,7.7-3.57,34.7-5.1,50.86" style="fill:none;stroke:#999;stroke-width:3"></path>

<path d="M672.63,16c4.45,1.78,11.5,7.32,12.62,10.09" style="fill:none;stroke:#999;stroke-width:3"></path>
<path d="M667.0,42.75c4.41,1.98,11.4,8.16,12.5,11.25" style="fill:none;stroke:#999;stroke-width:3"></path>
<path d="M667.25,88.73c1.71,1.27,3.78,1.32,4.86-0.25c3.14-4.57,9.29-16.66,12.14-22.49" style="fill:none;stroke:#999;stroke-width:3"></path>
<path d="M715.95,15.08c0.03,0.47,0.15,1.25-0.07,1.88c-1.53,4.44-5.9,12.59-11.96,17.94" style="fill:none;stroke:#999;stroke-width:3"></path>
<path d="M693.9300000000001,35.95c0.66,0.58,1.09,1.9,1.19,2.65c0.8,5.93,1.14,41.04,1.69,51.68" style="fill:none;stroke:#999;stroke-width:3"></path>
<path d="M694.94,38.04c8.81-1.04,36.77-3.5,44.18-4.25c2.71-0.28,4.23,1.61,3.95,3.25c-1.32,7.7-3.57,34.7-5.1,50.86" style="fill:none;stroke:#999;stroke-width:3"></path>
<path d="M708.71,37.9c0.23,0.53,1.03,1.47,1.06,2.14c0.48,10.62,0.99,39.45,1,49.27" style="fill:none;stroke:#999;stroke-width:3"></path>

<path d="M781.63,16c4.45,1.78,11.5,7.32,12.62,10.09" style="fill:none;stroke:#999;stroke-width:3"></path>
<path d="M776.0,42.75c4.41,1.98,11.4,8.16,12.5,11.25" style="fill:none;stroke:#999;stroke-width:3"></path>
<path d="M776.25,88.73c1.71,1.27,3.78,1.32,4.86-0.25c3.14-4.57,9.29-16.66,12.14-22.49" style="fill:none;stroke:#999;stroke-width:3"></path>
<path d="M824.95,15.08c0.03,0.47,0.15,1.25-0.07,1.88c-1.53,4.44-5.9,12.59-11.96,17.94" style="fill:none;stroke:#999;stroke-width:3"></path>
<path d="M802.9300000000001,35.95c0.66,0.58,1.09,1.9,1.19,2.65c0.8,5.93,1.14,41.04,1.69,51.68" style="fill:none;stroke:#999;stroke-width:3"></path>
<path d="M803.94,38.04c8.81-1.04,36.77-3.5,44.18-4.25c2.71-0.28,4.23,1.61,3.95,3.25c-1.32,7.7-3.57,34.7-5.1,50.86" style="fill:none;stroke:#999;stroke-width:3"></path>
<path d="M817.71,37.9c0.23,0.53,1.03,1.47,1.06,2.14c0.48,10.62,0.99,39.45,1,49.27" style="fill:none;stroke:#999;stroke-width:3"></path>
<path d="M832.86,36.88c0.02,0.46,1.03,2.09,1.03,2.87c0.02,8.8-0.99,38.69-1.17,49.17" style="fill:none;stroke:#999;stroke-width:3"></path>

<path d="M890.63,16c4.45,1.78,11.5,7.32,12.62,10.09" style="fill:none;stroke:#999;stroke-width:3"></path>
<path d="M885.0,42.75c4.41,1.98,11.4,8.16,12.5,11.25" style="fill:none;stroke:#999;stroke-width:3"></path>
<path d="M885.25,88.73c1.71,1.27,3.78,1.32,4.86-0.25c3.14-4.57,9.29-16.66,12.14-22.49" style="fill:none;stroke:#999;stroke-width:3"></path>
<path d="M933.95,15.08c0.03,0.47,0.15,1.25-0.07,1.88c-1.53,4.44-5.9,12.59-11.96,17.94" style="fill:none;stroke:#999;stroke-width:3"></path>
<path d="M911.9300000000001,35.95c0.66,0.58,1.09,1.9,1.19,2.65c0.8,5.93,1.14,41.04,1.69,51.68" style="fill:none;stroke:#999;stroke-width:3"></path>
<path d="M912.94,38.04c8.81-1.04,36.77-3.5,44.18-4.25c2.71-0.28,4.23,1.61,3.95,3.25c-1.32,7.7-3.57,34.7-5.1,50.86" style="fill:none;stroke:#999;stroke-width:3"></path>
<path d="M926.71,37.9c0.23,0.53,1.03,1.47,1.06,2.14c0.48,10.62,0.99,39.45,1,49.27" style="fill:none;stroke:#999;stroke-width:3"></path>
<path d="M941.86,36.88c0.02,0.46,1.03,2.09,1.03,2.87c0.02,8.8-0.99,38.69-1.17,49.17" style="fill:none;stroke:#999;stroke-width:3"></path>
<path d="M901.38,90.31c1.6,0.56,4.55,0.65,6.15,0.56c16.7-0.93,27.99-2.17,58.73-2.32c2.67-0.01,4.28,0.27,5.62,0.54" style="fill:none;stroke:#999;stroke-width:3"></path>

</svg>