<svg width="981px" height="109px" viewBox="0 0 981 109" xmlns="http://www.w3.org/2000/svg" xmlns:xlink="http://www.w3.org/1999/xlink" xml:space="preserve" version="1.1" baseProfile="full">
<line x1="1" y1="1" x2="980" y2="1" style="stroke:#ddd;stroke-width:2"></line>
<line x1="1" y1="1" x2="1" y2="108" style="stroke:#ddd;stroke-width:2"></line>
<line x1="1" y1="108" x2="980" y2="108" style="stroke:#ddd;stroke-width:2"></line>
<line x1="980" y1="1" x2="980" y2="108" style="stroke:#ddd;stroke-width:2"></line>
<line x1="109" y1="1" x2="109" y2="108" style="stroke:#ddd;stroke-width:2"></line>
<line x1="218" y1="1" x2="218" y2="108" style="stroke:#ddd;stroke-width:2"></line>
<line x1="327" y1="1" x2="327" y2="108" style="stroke:#ddd;stroke-width:2"></line>
<line x1="436" y1="1" x2="436" y2="108" style="stroke:#ddd;stroke-width:2"></line>
<line x1="545" y1="1" x2="545" y2="108" style="stroke:#ddd;stroke-width:2"></line>
<line x1="654" y1="1" x2="654" y2="108" style="stroke:#ddd;stroke-width:2"></line>
<line x1="763" y1="1" x2="763" y2="108" style="stroke:#ddd;stroke-width:2"></line>
<line x1="872" y1="1" x2="872" y2="108" style="stroke:#ddd;stroke-width:2"></line>
<line x1="1" y1="54" x2="980" y2="54" style="stroke:#ddd;stroke-width:2;stroke-dasharray:3 3"></line>
<line x1="55" y1="1" x2="55" y2="108" style="stroke:#ddd;stroke-width:2;stroke-dasharray:3 3"></line>
<line x1="164" y1="1" x2="164" y2="108" style="stroke:#ddd;stroke-width:2;stroke-dasharray:3 3"></line>
<line x1="273" y1="1" x2="273" y2="108" style="stroke:#ddd;stroke-width:2;stroke-dasharray:3 3"></line>
<line x1="382" y1="1" x2="382" y2="108" style="stroke:#ddd;stroke-width:2;stroke-dasharray:3 3"></line>
<line x1="491" y1="1" x2="491" y2="108" style="stroke:#ddd;stroke-width:2;stroke-dasharray:3 3"></line>
<line x1="600" y1="1" x2="600" y2="108" style="stroke:#ddd;stroke-width:2;stroke-dasharray:3 3"></line>
<line x1="709" y1="1" x2="709" y2="108" style="stroke:#ddd;stroke-width:2;stroke-dasharray:3 3"></line>
<line x1="818" y1="1" x2="818" y2="108" style="stroke:#ddd;stroke-width:2;stroke-dasharray:3 3"></line>
<line x1="927" y1="1" x2="927" y2="108" style="stroke:#ddd;stroke-width:2;stroke-dasharray:3 3"></line>
<path d="M18.13,17c4.28,1.78,11.05,7.32,12.12,10.09" style="fill:none;stroke:#999;stroke-width:3"></path>

<path d="M127.13,17c4.28,1.78,11.05,7.32,12.12,10.09" style="fill:none;stroke:#999;stroke-width:3"></path>
<path d="M122.5,43.5c4.24,1.85,10.94,7.62,12,10.5" style="fill:none;stroke:#999;stroke-width:3"></path>

<path d="M236.13,17c4.28,1.78,11.05,7.32,12.12,10.09" style="fill:none;stroke:#999;stroke-width:3"></path>
<path d="M231.5,43.5c4.24,1.85,10.94,7.62,12,10.5" style="fill:none;stroke:#999;stroke-width:3"></path>
<path d="M231.75,88.73c1.71,1.27,3.78,1.32,4.86-0.25c3.14-4.57,8.29-13.66,11.14-19.49" style="fill:none;stroke:#999;stroke-width:3"></path>

<path d="M345.13,17c4.28,1.78,11.05,7.32,12.12,10.09" style="fill:none;stroke:#999;stroke-width:3"></path>
<path d="M340.5,43.5c4.24,1.85,10.94,7.62,12,10.5" style="fill:none;stroke:#999;stroke-width:3"></path>
<path d="M340.75,88.73c1.71,1.27,3.78,1.32,4.86-0.25c3.14-4.57,8.29-13.66,11.14-19.49" style="fill:none;stroke:#999;stroke-width:3"></path>
<path d="M376.99,18.12c0.29,1,0.83,2.63,0.68,4.07c-0.75,7.08-6.17,34.07-10.86,43.02c-0.85,1.62,0.3,2.42,0.68,2.52c9.27,2.53,15.44,9.78,19.69,20.06" style="fill:none;stroke:#999;stroke-width:3"></path>

<path d="M454.13,17c4.28,1.78,11.05,7.32,12.12,10.09" style="fill:none;stroke:#999;stroke-width:3"></path>
<path d="M449.5,43.5c4.24,1.85,10.94,7.62,12,10.5" style="fill:none;stroke:#999;stroke-width:3"></path>
<path d="M449.75,88.73c1.71,1.27,3.78,1.32,4.86-0.25c3.14-4.57,8.29-13.66,11.14-19.49" style="fill:none;stroke:#999;stroke-width:3"></path>
<path d="M485.99,18.12c0.29,1,0.83,2.63,0.68,4.07c-0.75,7.08-6.17,34.07-10.86,43.02c-0.85,1.62,0.3,2.42,0.68,2.52c9.27,2.53,15.44,9.78,19.69,20.06" style="fill:none;stroke:#999;stroke-width:3"></path>
<path d="M497.59000000000003,32.89c0.24,1.58,0.62,4.27,0.3,6.32C495.3,55.8,487.35,79.91,468.83,92.25" style="fill:none;stroke:#999;stroke-width:3"></path>

<path d="M563.13,17c4.28,1.78,11.05,7.32,12.12,10.09" style="fill:none;stroke:#999;stroke-width:3"></path>
<path d="M558.5,43.5c4.24,1.85,10.94,7.62,12,10.5" style="fill:none;stroke:#999;stroke-width:3"></path>
<path d="M558.75,88.73c1.71,1.27,3.78,1.32,4.86-0.25c3.14-4.57,8.29-13.66,11.14-19.49" style="fill:none;stroke:#999;stroke-width:3"></path>
<path d="M594.99,18.12c0.29,1,0.83,2.63,0.68,4.07c-0.75,7.08-6.17,34.07-10.86,43.02c-0.85,1.62,0.3,2.42,0.68,2.52c9.27,2.53,15.44,9.78,19.69,20.06" style="fill:none;stroke:#999;stroke-width:3"></path>
<path d="M606.59,32.89c0.24,1.58,0.62,4.27,0.3,6.32C604.3,55.8,596.35,79.91,577.8299999999999,92.25" style="fill:none;stroke:#999;stroke-width:3"></path>
<path d="M578.5,44.98c0.56,0.77,1.3,1.32,2.79,1.14c1.6-0.2,18.26-3.56,27.39-5.49" style="fill:none;stroke:#999;stroke-width:3"></path>

<path d="M672.13,17c4.28,1.78,11.05,7.32,12.12,10.09" style="fill:none;stroke:#999;stroke-width:3"></path>
<path d="M667.5,43.5c4.24,1.85,10.94,7.62,12,10.5" style="fill:none;stroke:#999;stroke-width:3"></path>
<path d="M667.75,88.73c1.71,1.27,3.78,1.32,4.86-0.25c3.14-4.57,8.29-13.66,11.14-19.49" style="fill:none;stroke:#999;stroke-width:3"></path>
<path d="M703.99,18.12c0.29,1,0.83,2.63,0.68,4.07c-0.75,7.08-6.17,34.07-10.86,43.02c-0.85,1.62,0.3,2.42,0.68,2.52c9.27,2.53,15.44,9.78,19.69,20.06" style="fill:none;stroke:#999;stroke-width:3"></path>
<path d="M715.59,32.89c0.24,1.58,0.62,4.27,0.3,6.32C713.3,55.8,705.35,79.91,686.8299999999999,92.25" style="fill:none;stroke:#999;stroke-width:3"></path>
<path d="M687.5,44.98c0.56,0.77,1.3,1.32,2.79,1.14c1.6-0.2,18.26-3.56,27.39-5.49" style="fill:none;stroke:#999;stroke-width:3"></path>
<path d="M724.77,31.27c0.36,0.75,0.72,1.38,0.87,2.32c1.23,7.47,0.15,40.42,0.37,56.11" style="fill:none;stroke:#999;stroke-width:3"></path>

<path d="M781.13,17c4.28,1.78,11.05,7.32,12.12,10.09" style="fill:none;stroke:#999;stroke-width:3"></path>
<path d="M776.5,43.5c4.24,1.85,10.94,7.62,12,10.5" style="fill:none;stroke:#999;stroke-width:3"></path>
<path d="M776.75,88.73c1.71,1.27,3.78,1.32,4.86-0.25c3.14-4.57,8.29-13.66,11.14-19.49" style="fill:none;stroke:#999;stroke-width:3"></path>
<path d="M812.99,18.12c0.29,1,0.83,2.63,0.68,4.07c-0.75,7.08-6.17,34.07-10.86,43.02c-0.85,1.62,0.3,2.42,0.68,2.52c9.27,2.53,15.44,9.78,19.69,20.06" style="fill:none;stroke:#999;stroke-width:3"></path>
<path d="M824.59,32.89c0.24,1.58,0.62,4.27,0.3,6.32C822.3,55.8,814.35,79.91,795.8299999999999,92.25" style="fill:none;stroke:#999;stroke-width:3"></path>
<path d="M796.5,44.98c0.56,0.77,1.3,1.32,2.79,1.14c1.6-0.2,18.26-3.56,27.39-5.49" style="fill:none;stroke:#999;stroke-width:3"></path>
<path d="M833.77,31.27c0.36,0.75,0.72,1.38,0.87,2.32c1.23,7.47,0.15,40.42,0.37,56.11" style="fill:none;stroke:#999;stroke-width:3"></path>
<path d="M834.72,33.48c8.11-1.2,14.28-2.23,20.29-2.98c1.55-0.19,3.28,1.62,3.06,3.73c-0.9,8.72-3.67,37-4.8,51.16" style="fill:none;stroke:#999;stroke-width:3"></path>

<path d="M890.13,17c4.28,1.78,11.05,7.32,12.12,10.09" style="fill:none;stroke:#999;stroke-width:3"></path>
<path d="M885.5,43.5c4.24,1.85,10.94,7.62,12,10.5" style="fill:none;stroke:#999;stroke-width:3"></path>
<path d="M885.75,88.73c1.71,1.27,3.78,1.32,4.86-0.25c3.14-4.57,8.29-13.66,11.14-19.49" style="fill:none;stroke:#999;stroke-width:3"></path>
<path d="M921.99,18.12c0.29,1,0.83,2.63,0.68,4.07c-0.75,7.08-6.17,34.07-10.86,43.02c-0.85,1.62,0.3,2.42,0.68,2.52c9.27,2.53,15.44,9.78,19.69,20.06" style="fill:none;stroke:#999;stroke-width:3"></path>
<path d="M933.59,32.89c0.24,1.58,0.62,4.27,0.3,6.32C931.3,55.8,923.35,79.91,904.8299999999999,92.25" style="fill:none;stroke:#999;stroke-width:3"></path>
<path d="M905.5,44.98c0.56,0.77,1.3,1.32,2.79,1.14c1.6-0.2,18.26-3.56,27.39-5.49" style="fill:none;stroke:#999;stroke-width:3"></path>
<path d="M942.77,31.27c0.36,0.75,0.72,1.38,0.87,2.32c1.23,7.47,0.15,40.42,0.37,56.11" style="fill:none;stroke:#999;stroke-width:3"></path>
<path d="M943.72,33.48c8.11-1.2,14.28-2.23,20.29-2.98c1.55-0.19,3.28,1.62,3.06,3.73c-0.9,8.72-3.67,37-4.8,51.16" style="fill:none;stroke:#999;stroke-width:3"></path>
<path d="M944.1800000000001,86.71c6.58-0.86,14.82-1.21,21.04-1.38" style="fill:none;stroke:#999;stroke-width:3"></path>

</svg>