<svg width="981px" height="109px" viewBox="0 0 981 109" xmlns="http://www.w3.org/2000/svg" xmlns:xlink="http://www.w3.org/1999/xlink" xml:space="preserve" version="1.1" baseProfile="full">
<line x1="1" y1="1" x2="980" y2="1" style="stroke:#ddd;stroke-width:2"></line>
<line x1="1" y1="1" x2="1" y2="108" style="stroke:#ddd;stroke-width:2"></line>
<line x1="1" y1="108" x2="980" y2="108" style="stroke:#ddd;stroke-width:2"></line>
<line x1="980" y1="1" x2="980" y2="108" style="stroke:#ddd;stroke-width:2"></line>
<line x1="109" y1="1" x2="109" y2="108" style="stroke:#ddd;stroke-width:2"></line>
<line x1="218" y1="1" x2="218" y2="108" style="stroke:#ddd;stroke-width:2"></line>
<line x1="327" y1="1" x2="327" y2="108" style="stroke:#ddd;stroke-width:2"></line>
<line x1="436" y1="1" x2="436" y2="108" style="stroke:#ddd;stroke-width:2"></line>
<line x1="545" y1="1" x2="545" y2="108" style="stroke:#ddd;stroke-width:2"></line>
<line x1="654" y1="1" x2="654" y2="108" style="stroke:#ddd;stroke-width:2"></line>
<line x1="763" y1="1" x2="763" y2="108" style="stroke:#ddd;stroke-width:2"></line>
<line x1="872" y1="1" x2="872" y2="108" style="stroke:#ddd;stroke-width:2"></line>
<line x1="1" y1="54" x2="980" y2="54" style="stroke:#ddd;stroke-width:2;stroke-dasharray:3 3"></line>
<line x1="55" y1="1" x2="55" y2="108" style="stroke:#ddd;stroke-width:2;stroke-dasharray:3 3"></line>
<line x1="164" y1="1" x2="164" y2="108" style="stroke:#ddd;stroke-width:2;stroke-dasharray:3 3"></line>
<line x1="273" y1="1" x2="273" y2="108" style="stroke:#ddd;stroke-width:2;stroke-dasharray:3 3"></line>
<line x1="382" y1="1" x2="382" y2="108" style="stroke:#ddd;stroke-width:2;stroke-dasharray:3 3"></line>
<line x1="491" y1="1" x2="491" y2="108" style="stroke:#ddd;stroke-width:2;stroke-dasharray:3 3"></line>
<line x1="600" y1="1" x2="600" y2="108" style="stroke:#ddd;stroke-width:2;stroke-dasharray:3 3"></line>
<line x1="709" y1="1" x2="709" y2="108" style="stroke:#ddd;stroke-width:2;stroke-dasharray:3 3"></line>
<line x1="818" y1="1" x2="818" y2="108" style="stroke:#ddd;stroke-width:2;stroke-dasharray:3 3"></line>
<line x1="927" y1="1" x2="927" y2="108" style="stroke:#ddd;stroke-width:2;stroke-dasharray:3 3"></line>
<path d="M19.63,19.25c4.19,1.38,10.82,5.69,11.87,7.84" style="fill:none;stroke:#999;stroke-width:3"></path>

<path d="M128.63,19.25c4.19,1.38,10.82,5.69,11.87,7.84" style="fill:none;stroke:#999;stroke-width:3"></path>
<path d="M122.5,44.75c4.32,1.5,11.17,6.17,12.25,8.5" style="fill:none;stroke:#999;stroke-width:3"></path>

<path d="M237.63,19.25c4.19,1.38,10.82,5.69,11.87,7.84" style="fill:none;stroke:#999;stroke-width:3"></path>
<path d="M231.5,44.75c4.32,1.5,11.17,6.17,12.25,8.5" style="fill:none;stroke:#999;stroke-width:3"></path>
<path d="M233.0,90.98c1.88,0.77,3.03,0.32,4.11-1.25c3.14-4.57,7.04-12.16,9.89-17.99" style="fill:none;stroke:#999;stroke-width:3"></path>

<path d="M346.63,19.25c4.19,1.38,10.82,5.69,11.87,7.84" style="fill:none;stroke:#999;stroke-width:3"></path>
<path d="M340.5,44.75c4.32,1.5,11.17,6.17,12.25,8.5" style="fill:none;stroke:#999;stroke-width:3"></path>
<path d="M342.0,90.98c1.88,0.77,3.03,0.32,4.11-1.25c3.14-4.57,7.04-12.16,9.89-17.99" style="fill:none;stroke:#999;stroke-width:3"></path>
<path d="M389.65999999999997,13.25c1.23,1.23,1.59,3,1.59,4.87c0,4.75,0,25.62,0,30" style="fill:none;stroke:#999;stroke-width:3"></path>

<path d="M455.63,19.25c4.19,1.38,10.82,5.69,11.87,7.84" style="fill:none;stroke:#999;stroke-width:3"></path>
<path d="M449.5,44.75c4.32,1.5,11.17,6.17,12.25,8.5" style="fill:none;stroke:#999;stroke-width:3"></path>
<path d="M451.0,90.98c1.88,0.77,3.03,0.32,4.11-1.25c3.14-4.57,7.04-12.16,9.89-17.99" style="fill:none;stroke:#999;stroke-width:3"></path>
<path d="M498.65999999999997,13.25c1.23,1.23,1.59,3,1.59,4.87c0,4.75,0,25.62,0,30" style="fill:none;stroke:#999;stroke-width:3"></path>
<path d="M477.94,27.83c3.71,2.58,9.58,10.62,10.51,14.63" style="fill:none;stroke:#999;stroke-width:3"></path>

<path d="M564.63,19.25c4.19,1.38,10.82,5.69,11.87,7.84" style="fill:none;stroke:#999;stroke-width:3"></path>
<path d="M558.5,44.75c4.32,1.5,11.17,6.17,12.25,8.5" style="fill:none;stroke:#999;stroke-width:3"></path>
<path d="M560.0,90.98c1.88,0.77,3.03,0.32,4.11-1.25c3.14-4.57,7.04-12.16,9.89-17.99" style="fill:none;stroke:#999;stroke-width:3"></path>
<path d="M607.66,13.25c1.23,1.23,1.59,3,1.59,4.87c0,4.75,0,25.62,0,30" style="fill:none;stroke:#999;stroke-width:3"></path>
<path d="M586.94,27.83c3.71,2.58,9.58,10.62,10.51,14.63" style="fill:none;stroke:#999;stroke-width:3"></path>
<path d="M630.4300000000001,22c0.1,1.15-0.05,2.25-0.45,3.33c-2.35,4.92-4.85,9.75-9.23,15.64" style="fill:none;stroke:#999;stroke-width:3"></path>

<path d="M673.63,19.25c4.19,1.38,10.82,5.69,11.87,7.84" style="fill:none;stroke:#999;stroke-width:3"></path>
<path d="M667.5,44.75c4.32,1.5,11.17,6.17,12.25,8.5" style="fill:none;stroke:#999;stroke-width:3"></path>
<path d="M669.0,90.98c1.88,0.77,3.03,0.32,4.11-1.25c3.14-4.57,7.04-12.16,9.89-17.99" style="fill:none;stroke:#999;stroke-width:3"></path>
<path d="M716.66,13.25c1.23,1.23,1.59,3,1.59,4.87c0,4.75,0,25.62,0,30" style="fill:none;stroke:#999;stroke-width:3"></path>
<path d="M695.94,27.83c3.71,2.58,9.58,10.62,10.51,14.63" style="fill:none;stroke:#999;stroke-width:3"></path>
<path d="M739.4300000000001,22c0.1,1.15-0.05,2.25-0.45,3.33c-2.35,4.92-4.85,9.75-9.23,15.64" style="fill:none;stroke:#999;stroke-width:3"></path>
<path d="M690.38,50.92c3.02,0.87,6.7,0.75,9.76,0.31c12.12-1.73,27.39-3.1,38.87-3.72c3.4-0.18,6.64-0.2,10,0.38" style="fill:none;stroke:#999;stroke-width:3"></path>

<path d="M782.63,19.25c4.19,1.38,10.82,5.69,11.87,7.84" style="fill:none;stroke:#999;stroke-width:3"></path>
<path d="M776.5,44.75c4.32,1.5,11.17,6.17,12.25,8.5" style="fill:none;stroke:#999;stroke-width:3"></path>
<path d="M778.0,90.98c1.88,0.77,3.03,0.32,4.11-1.25c3.14-4.57,7.04-12.16,9.89-17.99" style="fill:none;stroke:#999;stroke-width:3"></path>
<path d="M825.66,13.25c1.23,1.23,1.59,3,1.59,4.87c0,4.75,0,25.62,0,30" style="fill:none;stroke:#999;stroke-width:3"></path>
<path d="M804.94,27.83c3.71,2.58,9.58,10.62,10.51,14.63" style="fill:none;stroke:#999;stroke-width:3"></path>
<path d="M848.4300000000001,22c0.1,1.15-0.05,2.25-0.45,3.33c-2.35,4.92-4.85,9.75-9.23,15.64" style="fill:none;stroke:#999;stroke-width:3"></path>
<path d="M799.38,50.92c3.02,0.87,6.7,0.75,9.76,0.31c12.12-1.73,27.39-3.1,38.87-3.72c3.4-0.18,6.64-0.2,10,0.38" style="fill:none;stroke:#999;stroke-width:3"></path>
<path d="M819.35,54c0.4,1,0.39,2.34,0.15,3.62C817.47,68.5,810.71,85.5,801.01,92.25" style="fill:none;stroke:#999;stroke-width:3"></path>

<path d="M891.63,19.25c4.19,1.38,10.82,5.69,11.87,7.84" style="fill:none;stroke:#999;stroke-width:3"></path>
<path d="M885.5,44.75c4.32,1.5,11.17,6.17,12.25,8.5" style="fill:none;stroke:#999;stroke-width:3"></path>
<path d="M887.0,90.98c1.88,0.77,3.03,0.32,4.11-1.25c3.14-4.57,7.04-12.16,9.89-17.99" style="fill:none;stroke:#999;stroke-width:3"></path>
<path d="M934.66,13.25c1.23,1.23,1.59,3,1.59,4.87c0,4.75,0,25.62,0,30" style="fill:none;stroke:#999;stroke-width:3"></path>
<path d="M913.94,27.83c3.71,2.58,9.58,10.62,10.51,14.63" style="fill:none;stroke:#999;stroke-width:3"></path>
<path d="M957.4300000000001,22c0.1,1.15-0.05,2.25-0.45,3.33c-2.35,4.92-4.85,9.75-9.23,15.64" style="fill:none;stroke:#999;stroke-width:3"></path>
<path d="M908.38,50.92c3.02,0.87,6.7,0.75,9.76,0.31c12.12-1.73,27.39-3.1,38.87-3.72c3.4-0.18,6.64-0.2,10,0.38" style="fill:none;stroke:#999;stroke-width:3"></path>
<path d="M928.35,54c0.4,1,0.39,2.34,0.15,3.62C926.47,68.5,919.71,85.5,910.01,92.25" style="fill:none;stroke:#999;stroke-width:3"></path>
<path d="M941.4,53.32c1.09,1.09,1.22,2.25,1.22,4.43c0,5.27,0.05,18.79,0.05,26.5c0,7.5,1.45,9.03,12.53,9.03c10.42,0,11.43-1.78,11.43-8.12" style="fill:none;stroke:#999;stroke-width:3"></path>

</svg>