<svg width="1090px" height="109px" viewBox="0 0 1090 109" xmlns="http://www.w3.org/2000/svg" xmlns:xlink="http://www.w3.org/1999/xlink" xml:space="preserve" version="1.1" baseProfile="full">
<line x1="1" y1="1" x2="1089" y2="1" style="stroke:#ddd;stroke-width:2"></line>
<line x1="1" y1="1" x2="1" y2="108" style="stroke:#ddd;stroke-width:2"></line>
<line x1="1" y1="108" x2="1089" y2="108" style="stroke:#ddd;stroke-width:2"></line>
<line x1="1089" y1="1" x2="1089" y2="108" style="stroke:#ddd;stroke-width:2"></line>
<line x1="109" y1="1" x2="109" y2="108" style="stroke:#ddd;stroke-width:2"></line>
<line x1="218" y1="1" x2="218" y2="108" style="stroke:#ddd;stroke-width:2"></line>
<line x1="327" y1="1" x2="327" y2="108" style="stroke:#ddd;stroke-width:2"></line>
<line x1="436" y1="1" x2="436" y2="108" style="stroke:#ddd;stroke-width:2"></line>
<line x1="545" y1="1" x2="545" y2="108" style="stroke:#ddd;stroke-width:2"></line>
<line x1="654" y1="1" x2="654" y2="108" style="stroke:#ddd;stroke-width:2"></line>
<line x1="763" y1="1" x2="763" y2="108" style="stroke:#ddd;stroke-width:2"></line>
<line x1="872" y1="1" x2="872" y2="108" style="stroke:#ddd;stroke-width:2"></line>
<line x1="981" y1="1" x2="981" y2="108" style="stroke:#ddd;stroke-width:2"></line>
<line x1="1" y1="54" x2="1089" y2="54" style="stroke:#ddd;stroke-width:2;stroke-dasharray:3 3"></line>
<line x1="55" y1="1" x2="55" y2="108" style="stroke:#ddd;stroke-width:2;stroke-dasharray:3 3"></line>
<line x1="164" y1="1" x2="164" y2="108" style="stroke:#ddd;stroke-width:2;stroke-dasharray:3 3"></line>
<line x1="273" y1="1" x2="273" y2="108" style="stroke:#ddd;stroke-width:2;stroke-dasharray:3 3"></line>
<line x1="382" y1="1" x2="382" y2="108" style="stroke:#ddd;stroke-width:2;stroke-dasharray:3 3"></line>
<line x1="491" y1="1" x2="491" y2="108" style="stroke:#ddd;stroke-width:2;stroke-dasharray:3 3"></line>
<line x1="600" y1="1" x2="600" y2="108" style="stroke:#ddd;stroke-width:2;stroke-dasharray:3 3"></line>
<line x1="709" y1="1" x2="709" y2="108" style="stroke:#ddd;stroke-width:2;stroke-dasharray:3 3"></line>
<line x1="818" y1="1" x2="818" y2="108" style="stroke:#ddd;stroke-width:2;stroke-dasharray:3 3"></line>
<line x1="927" y1="1" x2="927" y2="108" style="stroke:#ddd;stroke-width:2;stroke-dasharray:3 3"></line>
<line x1="1036" y1="1" x2="1036" y2="108" style="stroke:#ddd;stroke-width:2;stroke-dasharray:3 3"></line>
<path d="M17.38,15.5c4.72,1.78,12.19,7.32,13.37,10.09" style="fill:none;stroke:#999;stroke-width:3"></path>

<path d="M126.38,15.5c4.72,1.78,12.19,7.32,13.37,10.09" style="fill:none;stroke:#999;stroke-width:3"></path>
<path d="M123.0,41.75c4.24,1.63,10.94,6.71,12,9.25" style="fill:none;stroke:#999;stroke-width:3"></path>

<path d="M235.38,15.5c4.72,1.78,12.19,7.32,13.37,10.09" style="fill:none;stroke:#999;stroke-width:3"></path>
<path d="M232.0,41.75c4.24,1.63,10.94,6.71,12,9.25" style="fill:none;stroke:#999;stroke-width:3"></path>
<path d="M231.25,89.23c1.71,1.27,3.78,1.32,4.86-0.25c3.14-4.57,9.29-16.16,12.14-21.99" style="fill:none;stroke:#999;stroke-width:3"></path>

<path d="M344.38,15.5c4.72,1.78,12.19,7.32,13.37,10.09" style="fill:none;stroke:#999;stroke-width:3"></path>
<path d="M341.0,41.75c4.24,1.63,10.94,6.71,12,9.25" style="fill:none;stroke:#999;stroke-width:3"></path>
<path d="M340.25,89.23c1.71,1.27,3.78,1.32,4.86-0.25c3.14-4.57,9.29-16.16,12.14-21.99" style="fill:none;stroke:#999;stroke-width:3"></path>
<path d="M364.75,31.15c1.29,0.44,3.65,0.49,4.94,0.44c9.06-0.34,39.58-3.02,47.54-2.52c2.14,0.14,3.44,0.21,4.52,0.43" style="fill:none;stroke:#999;stroke-width:3"></path>

<path d="M453.38,15.5c4.72,1.78,12.19,7.32,13.37,10.09" style="fill:none;stroke:#999;stroke-width:3"></path>
<path d="M450.0,41.75c4.24,1.63,10.94,6.71,12,9.25" style="fill:none;stroke:#999;stroke-width:3"></path>
<path d="M449.25,89.23c1.71,1.27,3.78,1.32,4.86-0.25c3.14-4.57,9.29-16.16,12.14-21.99" style="fill:none;stroke:#999;stroke-width:3"></path>
<path d="M473.75,31.15c1.29,0.44,3.65,0.49,4.94,0.44c9.06-0.34,39.58-3.02,47.54-2.52c2.14,0.14,3.44,0.21,4.52,0.43" style="fill:none;stroke:#999;stroke-width:3"></path>
<path d="M485.51,40.74c0,0.6,0.05,1.1-0.09,1.8c-1.31,6.52-5.21,14.63-10.95,21.83" style="fill:none;stroke:#999;stroke-width:3"></path>

<path d="M562.38,15.5c4.72,1.78,12.19,7.32,13.37,10.09" style="fill:none;stroke:#999;stroke-width:3"></path>
<path d="M559.0,41.75c4.24,1.63,10.94,6.71,12,9.25" style="fill:none;stroke:#999;stroke-width:3"></path>
<path d="M558.25,89.23c1.71,1.27,3.78,1.32,4.86-0.25c3.14-4.57,9.29-16.16,12.14-21.99" style="fill:none;stroke:#999;stroke-width:3"></path>
<path d="M582.75,31.15c1.29,0.44,3.65,0.49,4.94,0.44c9.06-0.34,39.58-3.02,47.54-2.52c2.14,0.14,3.44,0.21,4.52,0.43" style="fill:none;stroke:#999;stroke-width:3"></path>
<path d="M594.51,40.74c0,0.6,0.05,1.1-0.09,1.8c-1.31,6.52-5.21,14.63-10.95,21.83" style="fill:none;stroke:#999;stroke-width:3"></path>
<path d="M592.64,53.71c2.93,1.5,6.68,5.5,8.11,9.29" style="fill:none;stroke:#999;stroke-width:3"></path>

<path d="M671.38,15.5c4.72,1.78,12.19,7.32,13.37,10.09" style="fill:none;stroke:#999;stroke-width:3"></path>
<path d="M668.0,41.75c4.24,1.63,10.94,6.71,12,9.25" style="fill:none;stroke:#999;stroke-width:3"></path>
<path d="M667.25,89.23c1.71,1.27,3.78,1.32,4.86-0.25c3.14-4.57,9.29-16.16,12.14-21.99" style="fill:none;stroke:#999;stroke-width:3"></path>
<path d="M691.75,31.15c1.29,0.44,3.65,0.49,4.94,0.44c9.06-0.34,39.58-3.02,47.54-2.52c2.14,0.14,3.44,0.21,4.52,0.43" style="fill:none;stroke:#999;stroke-width:3"></path>
<path d="M703.51,40.74c0,0.6,0.05,1.1-0.09,1.8c-1.31,6.52-5.21,14.63-10.95,21.83" style="fill:none;stroke:#999;stroke-width:3"></path>
<path d="M701.64,53.71c2.93,1.5,6.68,5.5,8.11,9.29" style="fill:none;stroke:#999;stroke-width:3"></path>
<path d="M736.77,38.74c0,0.54,0.08,1.01-0.08,1.62c-1.38,5.28-5.3,14.69-9.97,20.02" style="fill:none;stroke:#999;stroke-width:3"></path>

<path d="M780.38,15.5c4.72,1.78,12.19,7.32,13.37,10.09" style="fill:none;stroke:#999;stroke-width:3"></path>
<path d="M777.0,41.75c4.24,1.63,10.94,6.71,12,9.25" style="fill:none;stroke:#999;stroke-width:3"></path>
<path d="M776.25,89.23c1.71,1.27,3.78,1.32,4.86-0.25c3.14-4.57,9.29-16.16,12.14-21.99" style="fill:none;stroke:#999;stroke-width:3"></path>
<path d="M800.75,31.15c1.29,0.44,3.65,0.49,4.94,0.44c9.06-0.34,39.58-3.02,47.54-2.52c2.14,0.14,3.44,0.21,4.52,0.43" style="fill:none;stroke:#999;stroke-width:3"></path>
<path d="M812.51,40.74c0,0.6,0.05,1.1-0.09,1.8c-1.31,6.52-5.21,14.63-10.95,21.83" style="fill:none;stroke:#999;stroke-width:3"></path>
<path d="M810.64,53.71c2.93,1.5,6.68,5.5,8.11,9.29" style="fill:none;stroke:#999;stroke-width:3"></path>
<path d="M845.77,38.74c0,0.54,0.08,1.01-0.08,1.62c-1.38,5.28-5.3,14.69-9.97,20.02" style="fill:none;stroke:#999;stroke-width:3"></path>
<path d="M843.89,50.71c5.01,2.86,8.86,6.44,11.86,10.79" style="fill:none;stroke:#999;stroke-width:3"></path>

<path d="M889.38,15.5c4.72,1.78,12.19,7.32,13.37,10.09" style="fill:none;stroke:#999;stroke-width:3"></path>
<path d="M886.0,41.75c4.24,1.63,10.94,6.71,12,9.25" style="fill:none;stroke:#999;stroke-width:3"></path>
<path d="M885.25,89.23c1.71,1.27,3.78,1.32,4.86-0.25c3.14-4.57,9.29-16.16,12.14-21.99" style="fill:none;stroke:#999;stroke-width:3"></path>
<path d="M909.75,31.15c1.29,0.44,3.65,0.49,4.94,0.44c9.06-0.34,39.58-3.02,47.54-2.52c2.14,0.14,3.44,0.21,4.52,0.43" style="fill:none;stroke:#999;stroke-width:3"></path>
<path d="M921.51,40.74c0,0.6,0.05,1.1-0.09,1.8c-1.31,6.52-5.21,14.63-10.95,21.83" style="fill:none;stroke:#999;stroke-width:3"></path>
<path d="M919.64,53.71c2.93,1.5,6.68,5.5,8.11,9.29" style="fill:none;stroke:#999;stroke-width:3"></path>
<path d="M954.77,38.74c0,0.54,0.08,1.01-0.08,1.62c-1.38,5.28-5.3,14.69-9.97,20.02" style="fill:none;stroke:#999;stroke-width:3"></path>
<path d="M952.89,50.71c5.01,2.86,8.86,6.44,11.86,10.79" style="fill:none;stroke:#999;stroke-width:3"></path>
<path d="M935.25,12.25c0.48,1.17,1.25,2.52,1.25,5.04c0,46.84-2.99,62.71-31.24,80.21" style="fill:none;stroke:#999;stroke-width:3"></path>

<path d="M998.38,15.5c4.72,1.78,12.19,7.32,13.37,10.09" style="fill:none;stroke:#999;stroke-width:3"></path>
<path d="M995.0,41.75c4.24,1.63,10.94,6.71,12,9.25" style="fill:none;stroke:#999;stroke-width:3"></path>
<path d="M994.25,89.23c1.71,1.27,3.78,1.32,4.86-0.25c3.14-4.57,9.29-16.16,12.14-21.99" style="fill:none;stroke:#999;stroke-width:3"></path>
<path d="M1018.75,31.15c1.29,0.44,3.65,0.49,4.94,0.44c9.06-0.34,39.58-3.02,47.54-2.52c2.14,0.14,3.44,0.21,4.52,0.43" style="fill:none;stroke:#999;stroke-width:3"></path>
<path d="M1030.51,40.74c0,0.6,0.05,1.1-0.09,1.8c-1.31,6.52-5.21,14.63-10.95,21.83" style="fill:none;stroke:#999;stroke-width:3"></path>
<path d="M1028.6399999999999,53.71c2.93,1.5,6.68,5.5,8.11,9.29" style="fill:none;stroke:#999;stroke-width:3"></path>
<path d="M1063.77,38.74c0,0.54,0.08,1.01-0.08,1.62c-1.38,5.28-5.3,14.69-9.97,20.02" style="fill:none;stroke:#999;stroke-width:3"></path>
<path d="M1061.8899999999999,50.71c5.01,2.86,8.86,6.44,11.86,10.79" style="fill:none;stroke:#999;stroke-width:3"></path>
<path d="M1044.25,12.25c0.48,1.17,1.25,2.52,1.25,5.04c0,46.84-2.99,62.71-31.24,80.21" style="fill:none;stroke:#999;stroke-width:3"></path>
<path d="M1044.5,53c6.01,12.1,19.23,33.57,27.38,40.53c2.28,1.95,2.89,2.51,3.87,2.72" style="fill:none;stroke:#999;stroke-width:3"></path>

</svg>