<svg width="1090px" height="109px" viewBox="0 0 1090 109" xmlns="http://www.w3.org/2000/svg" xmlns:xlink="http://www.w3.org/1999/xlink" xml:space="preserve" version="1.1" baseProfile="full">
<line x1="1" y1="1" x2="1089" y2="1" style="stroke:#ddd;stroke-width:2"></line>
<line x1="1" y1="1" x2="1" y2="108" style="stroke:#ddd;stroke-width:2"></line>
<line x1="1" y1="108" x2="1089" y2="108" style="stroke:#ddd;stroke-width:2"></line>
<line x1="1089" y1="1" x2="1089" y2="108" style="stroke:#ddd;stroke-width:2"></line>
<line x1="109" y1="1" x2="109" y2="108" style="stroke:#ddd;stroke-width:2"></line>
<line x1="218" y1="1" x2="218" y2="108" style="stroke:#ddd;stroke-width:2"></line>
<line x1="327" y1="1" x2="327" y2="108" style="stroke:#ddd;stroke-width:2"></line>
<line x1="436" y1="1" x2="436" y2="108" style="stroke:#ddd;stroke-width:2"></line>
<line x1="545" y1="1" x2="545" y2="108" style="stroke:#ddd;stroke-width:2"></line>
<line x1="654" y1="1" x2="654" y2="108" style="stroke:#ddd;stroke-width:2"></line>
<line x1="763" y1="1" x2="763" y2="108" style="stroke:#ddd;stroke-width:2"></line>
<line x1="872" y1="1" x2="872" y2="108" style="stroke:#ddd;stroke-width:2"></line>
<line x1="981" y1="1" x2="981" y2="108" style="stroke:#ddd;stroke-width:2"></line>
<line x1="1" y1="54" x2="1089" y2="54" style="stroke:#ddd;stroke-width:2;stroke-dasharray:3 3"></line>
<line x1="55" y1="1" x2="55" y2="108" style="stroke:#ddd;stroke-width:2;stroke-dasharray:3 3"></line>
<line x1="164" y1="1" x2="164" y2="108" style="stroke:#ddd;stroke-width:2;stroke-dasharray:3 3"></line>
<line x1="273" y1="1" x2="273" y2="108" style="stroke:#ddd;stroke-width:2;stroke-dasharray:3 3"></line>
<line x1="382" y1="1" x2="382" y2="108" style="stroke:#ddd;stroke-width:2;stroke-dasharray:3 3"></line>
<line x1="491" y1="1" x2="491" y2="108" style="stroke:#ddd;stroke-width:2;stroke-dasharray:3 3"></line>
<line x1="600" y1="1" x2="600" y2="108" style="stroke:#ddd;stroke-width:2;stroke-dasharray:3 3"></line>
<line x1="709" y1="1" x2="709" y2="108" style="stroke:#ddd;stroke-width:2;stroke-dasharray:3 3"></line>
<line x1="818" y1="1" x2="818" y2="108" style="stroke:#ddd;stroke-width:2;stroke-dasharray:3 3"></line>
<line x1="927" y1="1" x2="927" y2="108" style="stroke:#ddd;stroke-width:2;stroke-dasharray:3 3"></line>
<line x1="1036" y1="1" x2="1036" y2="108" style="stroke:#ddd;stroke-width:2;stroke-dasharray:3 3"></line>
<path d="M19.38,17.25c4.72,1.65,12.19,6.78,13.37,9.34" style="fill:none;stroke:#999;stroke-width:3"></path>

<path d="M128.38,17.25c4.72,1.65,12.19,6.78,13.37,9.34" style="fill:none;stroke:#999;stroke-width:3"></path>
<path d="M124.5,42.75c4.59,1.46,11.85,5.99,13,8.25" style="fill:none;stroke:#999;stroke-width:3"></path>

<path d="M237.38,17.25c4.72,1.65,12.19,6.78,13.37,9.34" style="fill:none;stroke:#999;stroke-width:3"></path>
<path d="M233.5,42.75c4.59,1.46,11.85,5.99,13,8.25" style="fill:none;stroke:#999;stroke-width:3"></path>
<path d="M231.75,88.73c1.71,1.27,3.78,1.32,4.86-0.25c3.14-4.57,8.79-12.66,11.64-18.49" style="fill:none;stroke:#999;stroke-width:3"></path>

<path d="M346.38,17.25c4.72,1.65,12.19,6.78,13.37,9.34" style="fill:none;stroke:#999;stroke-width:3"></path>
<path d="M342.5,42.75c4.59,1.46,11.85,5.99,13,8.25" style="fill:none;stroke:#999;stroke-width:3"></path>
<path d="M340.75,88.73c1.71,1.27,3.78,1.32,4.86-0.25c3.14-4.57,8.79-12.66,11.64-18.49" style="fill:none;stroke:#999;stroke-width:3"></path>
<path d="M371.28,16.78c0.53,0.77,1.41,2.03,1.41,3.06c0.56,5.17,4.24,30.13,4.38,31.16" style="fill:none;stroke:#999;stroke-width:3"></path>

<path d="M455.38,17.25c4.72,1.65,12.19,6.78,13.37,9.34" style="fill:none;stroke:#999;stroke-width:3"></path>
<path d="M451.5,42.75c4.59,1.46,11.85,5.99,13,8.25" style="fill:none;stroke:#999;stroke-width:3"></path>
<path d="M449.75,88.73c1.71,1.27,3.78,1.32,4.86-0.25c3.14-4.57,8.79-12.66,11.64-18.49" style="fill:none;stroke:#999;stroke-width:3"></path>
<path d="M480.28,16.78c0.53,0.77,1.41,2.03,1.41,3.06c0.56,5.17,4.24,30.13,4.38,31.16" style="fill:none;stroke:#999;stroke-width:3"></path>
<path d="M481.39,18.27c3-0.13,34.85-3.11,37.59-3.26c2.28-0.13,3.77,0.99,3.88,4.5c-0.16,4.19-2.88,22.1-3.99,29.07" style="fill:none;stroke:#999;stroke-width:3"></path>

<path d="M564.38,17.25c4.72,1.65,12.19,6.78,13.37,9.34" style="fill:none;stroke:#999;stroke-width:3"></path>
<path d="M560.5,42.75c4.59,1.46,11.85,5.99,13,8.25" style="fill:none;stroke:#999;stroke-width:3"></path>
<path d="M558.75,88.73c1.71,1.27,3.78,1.32,4.86-0.25c3.14-4.57,8.79-12.66,11.64-18.49" style="fill:none;stroke:#999;stroke-width:3"></path>
<path d="M589.28,16.78c0.53,0.77,1.41,2.03,1.41,3.06c0.56,5.17,4.24,30.13,4.38,31.16" style="fill:none;stroke:#999;stroke-width:3"></path>
<path d="M590.39,18.27c3-0.13,34.85-3.11,37.59-3.26c2.28-0.13,3.77,0.99,3.88,4.5c-0.16,4.19-2.88,22.1-3.99,29.07" style="fill:none;stroke:#999;stroke-width:3"></path>
<path d="M592.7,33.17c7.55-0.92,33.39-3.1,37.24-3.1" style="fill:none;stroke:#999;stroke-width:3"></path>

<path d="M673.38,17.25c4.72,1.65,12.19,6.78,13.37,9.34" style="fill:none;stroke:#999;stroke-width:3"></path>
<path d="M669.5,42.75c4.59,1.46,11.85,5.99,13,8.25" style="fill:none;stroke:#999;stroke-width:3"></path>
<path d="M667.75,88.73c1.71,1.27,3.78,1.32,4.86-0.25c3.14-4.57,8.79-12.66,11.64-18.49" style="fill:none;stroke:#999;stroke-width:3"></path>
<path d="M698.28,16.78c0.53,0.77,1.41,2.03,1.41,3.06c0.56,5.17,4.24,30.13,4.38,31.16" style="fill:none;stroke:#999;stroke-width:3"></path>
<path d="M699.39,18.27c3-0.13,34.85-3.11,37.59-3.26c2.28-0.13,3.77,0.99,3.88,4.5c-0.16,4.19-2.88,22.1-3.99,29.07" style="fill:none;stroke:#999;stroke-width:3"></path>
<path d="M701.7,33.17c7.55-0.92,33.39-3.1,37.24-3.1" style="fill:none;stroke:#999;stroke-width:3"></path>
<path d="M703.82,47.68c6.68-0.26,26.57-2.41,33.09-2.41" style="fill:none;stroke:#999;stroke-width:3"></path>

<path d="M782.38,17.25c4.72,1.65,12.19,6.78,13.37,9.34" style="fill:none;stroke:#999;stroke-width:3"></path>
<path d="M778.5,42.75c4.59,1.46,11.85,5.99,13,8.25" style="fill:none;stroke:#999;stroke-width:3"></path>
<path d="M776.75,88.73c1.71,1.27,3.78,1.32,4.86-0.25c3.14-4.57,8.79-12.66,11.64-18.49" style="fill:none;stroke:#999;stroke-width:3"></path>
<path d="M807.28,16.78c0.53,0.77,1.41,2.03,1.41,3.06c0.56,5.17,4.24,30.13,4.38,31.16" style="fill:none;stroke:#999;stroke-width:3"></path>
<path d="M808.39,18.27c3-0.13,34.85-3.11,37.59-3.26c2.28-0.13,3.77,0.99,3.88,4.5c-0.16,4.19-2.88,22.1-3.99,29.07" style="fill:none;stroke:#999;stroke-width:3"></path>
<path d="M810.7,33.17c7.55-0.92,33.39-3.1,37.24-3.1" style="fill:none;stroke:#999;stroke-width:3"></path>
<path d="M812.82,47.68c6.68-0.26,26.57-2.41,33.09-2.41" style="fill:none;stroke:#999;stroke-width:3"></path>
<path d="M807.0,69.84c1.44,0.56,4.09,0.67,5.54,0.56c8.97-0.65,26.97-3.15,35.23-2.81c2.41,0.1,3.85,0.27,5.05,0.55" style="fill:none;stroke:#999;stroke-width:3"></path>

<path d="M891.38,17.25c4.72,1.65,12.19,6.78,13.37,9.34" style="fill:none;stroke:#999;stroke-width:3"></path>
<path d="M887.5,42.75c4.59,1.46,11.85,5.99,13,8.25" style="fill:none;stroke:#999;stroke-width:3"></path>
<path d="M885.75,88.73c1.71,1.27,3.78,1.32,4.86-0.25c3.14-4.57,8.79-12.66,11.64-18.49" style="fill:none;stroke:#999;stroke-width:3"></path>
<path d="M916.28,16.78c0.53,0.77,1.41,2.03,1.41,3.06c0.56,5.17,4.24,30.13,4.38,31.16" style="fill:none;stroke:#999;stroke-width:3"></path>
<path d="M917.39,18.27c3-0.13,34.85-3.11,37.59-3.26c2.28-0.13,3.77,0.99,3.88,4.5c-0.16,4.19-2.88,22.1-3.99,29.07" style="fill:none;stroke:#999;stroke-width:3"></path>
<path d="M919.7,33.17c7.55-0.92,33.39-3.1,37.24-3.1" style="fill:none;stroke:#999;stroke-width:3"></path>
<path d="M921.82,47.68c6.68-0.26,26.57-2.41,33.09-2.41" style="fill:none;stroke:#999;stroke-width:3"></path>
<path d="M916.0,69.84c1.44,0.56,4.09,0.67,5.54,0.56c8.97-0.65,26.97-3.15,35.23-2.81c2.41,0.1,3.85,0.27,5.05,0.55" style="fill:none;stroke:#999;stroke-width:3"></path>
<path d="M936.92,52.5c0.11,0.25,1.54,1.33,1.54,2.95c0,10.45-0.31,21.14-0.31,34.96" style="fill:none;stroke:#999;stroke-width:3"></path>

<path d="M1000.38,17.25c4.72,1.65,12.19,6.78,13.37,9.34" style="fill:none;stroke:#999;stroke-width:3"></path>
<path d="M996.5,42.75c4.59,1.46,11.85,5.99,13,8.25" style="fill:none;stroke:#999;stroke-width:3"></path>
<path d="M994.75,88.73c1.71,1.27,3.78,1.32,4.86-0.25c3.14-4.57,8.79-12.66,11.64-18.49" style="fill:none;stroke:#999;stroke-width:3"></path>
<path d="M1025.28,16.78c0.53,0.77,1.41,2.03,1.41,3.06c0.56,5.17,4.24,30.13,4.38,31.16" style="fill:none;stroke:#999;stroke-width:3"></path>
<path d="M1026.3899999999999,18.27c3-0.13,34.85-3.11,37.59-3.26c2.28-0.13,3.77,0.99,3.88,4.5c-0.16,4.19-2.88,22.1-3.99,29.07" style="fill:none;stroke:#999;stroke-width:3"></path>
<path d="M1028.7,33.17c7.55-0.92,33.39-3.1,37.24-3.1" style="fill:none;stroke:#999;stroke-width:3"></path>
<path d="M1030.8200000000002,47.68c6.68-0.26,26.57-2.41,33.09-2.41" style="fill:none;stroke:#999;stroke-width:3"></path>
<path d="M1025.0,69.84c1.44,0.56,4.09,0.67,5.54,0.56c8.97-0.65,26.97-3.15,35.23-2.81c2.41,0.1,3.85,0.27,5.05,0.55" style="fill:none;stroke:#999;stroke-width:3"></path>
<path d="M1045.92,52.5c0.11,0.25,1.54,1.33,1.54,2.95c0,10.45-0.31,21.14-0.31,34.96" style="fill:none;stroke:#999;stroke-width:3"></path>
<path d="M1017.67,91.26c1.43,0.51,4.07,0.6,5.5,0.51C1036.0,91,1059.25,89.5,1075.8,89.39c2.39-0.02,3.83,0.24,5.02,0.5" style="fill:none;stroke:#999;stroke-width:3"></path>

</svg>