<svg width="1199px" height="109px" viewBox="0 0 1199 109" xmlns="http://www.w3.org/2000/svg" xmlns:xlink="http://www.w3.org/1999/xlink" xml:space="preserve" version="1.1" baseProfile="full">
<line x1="1" y1="1" x2="1198" y2="1" style="stroke:#ddd;stroke-width:2"></line>
<line x1="1" y1="1" x2="1" y2="108" style="stroke:#ddd;stroke-width:2"></line>
<line x1="1" y1="108" x2="1198" y2="108" style="stroke:#ddd;stroke-width:2"></line>
<line x1="1198" y1="1" x2="1198" y2="108" style="stroke:#ddd;stroke-width:2"></line>
<line x1="109" y1="1" x2="109" y2="108" style="stroke:#ddd;stroke-width:2"></line>
<line x1="218" y1="1" x2="218" y2="108" style="stroke:#ddd;stroke-width:2"></line>
<line x1="327" y1="1" x2="327" y2="108" style="stroke:#ddd;stroke-width:2"></line>
<line x1="436" y1="1" x2="436" y2="108" style="stroke:#ddd;stroke-width:2"></line>
<line x1="545" y1="1" x2="545" y2="108" style="stroke:#ddd;stroke-width:2"></line>
<line x1="654" y1="1" x2="654" y2="108" style="stroke:#ddd;stroke-width:2"></line>
<line x1="763" y1="1" x2="763" y2="108" style="stroke:#ddd;stroke-width:2"></line>
<line x1="872" y1="1" x2="872" y2="108" style="stroke:#ddd;stroke-width:2"></line>
<line x1="981" y1="1" x2="981" y2="108" style="stroke:#ddd;stroke-width:2"></line>
<line x1="1090" y1="1" x2="1090" y2="108" style="stroke:#ddd;stroke-width:2"></line>
<line x1="1" y1="54" x2="1198" y2="54" style="stroke:#ddd;stroke-width:2;stroke-dasharray:3 3"></line>
<line x1="55" y1="1" x2="55" y2="108" style="stroke:#ddd;stroke-width:2;stroke-dasharray:3 3"></line>
<line x1="164" y1="1" x2="164" y2="108" style="stroke:#ddd;stroke-width:2;stroke-dasharray:3 3"></line>
<line x1="273" y1="1" x2="273" y2="108" style="stroke:#ddd;stroke-width:2;stroke-dasharray:3 3"></line>
<line x1="382" y1="1" x2="382" y2="108" style="stroke:#ddd;stroke-width:2;stroke-dasharray:3 3"></line>
<line x1="491" y1="1" x2="491" y2="108" style="stroke:#ddd;stroke-width:2;stroke-dasharray:3 3"></line>
<line x1="600" y1="1" x2="600" y2="108" style="stroke:#ddd;stroke-width:2;stroke-dasharray:3 3"></line>
<line x1="709" y1="1" x2="709" y2="108" style="stroke:#ddd;stroke-width:2;stroke-dasharray:3 3"></line>
<line x1="818" y1="1" x2="818" y2="108" style="stroke:#ddd;stroke-width:2;stroke-dasharray:3 3"></line>
<line x1="927" y1="1" x2="927" y2="108" style="stroke:#ddd;stroke-width:2;stroke-dasharray:3 3"></line>
<line x1="1036" y1="1" x2="1036" y2="108" style="stroke:#ddd;stroke-width:2;stroke-dasharray:3 3"></line>
<line x1="1145" y1="1" x2="1145" y2="108" style="stroke:#ddd;stroke-width:2;stroke-dasharray:3 3"></line>
<path d="M16.63,15.75c4.63,1.65,11.96,6.78,13.12,9.34" style="fill:none;stroke:#999;stroke-width:3"></path>

<path d="M125.63,15.75c4.63,1.65,11.96,6.78,13.12,9.34" style="fill:none;stroke:#999;stroke-width:3"></path>
<path d="M122.0,42.5c4.41,1.76,11.4,7.26,12.5,10" style="fill:none;stroke:#999;stroke-width:3"></path>

<path d="M234.63,15.75c4.63,1.65,11.96,6.78,13.12,9.34" style="fill:none;stroke:#999;stroke-width:3"></path>
<path d="M231.0,42.5c4.41,1.76,11.4,7.26,12.5,10" style="fill:none;stroke:#999;stroke-width:3"></path>
<path d="M232.75,88.73c1.71,1.27,3.78,1.32,4.86-0.25c3.14-4.57,6.29-10.16,9.14-15.99" style="fill:none;stroke:#999;stroke-width:3"></path>

<path d="M343.63,15.75c4.63,1.65,11.96,6.78,13.12,9.34" style="fill:none;stroke:#999;stroke-width:3"></path>
<path d="M340.0,42.5c4.41,1.76,11.4,7.26,12.5,10" style="fill:none;stroke:#999;stroke-width:3"></path>
<path d="M341.75,88.73c1.71,1.27,3.78,1.32,4.86-0.25c3.14-4.57,6.29-10.16,9.14-15.99" style="fill:none;stroke:#999;stroke-width:3"></path>
<path d="M405.97,9.64c0.05,1.26-0.87,2.52-1.44,2.85c-3.09,1.83-14.56,5.98-32.98,9.21" style="fill:none;stroke:#999;stroke-width:3"></path>

<path d="M452.63,15.75c4.63,1.65,11.96,6.78,13.12,9.34" style="fill:none;stroke:#999;stroke-width:3"></path>
<path d="M449.0,42.5c4.41,1.76,11.4,7.26,12.5,10" style="fill:none;stroke:#999;stroke-width:3"></path>
<path d="M450.75,88.73c1.71,1.27,3.78,1.32,4.86-0.25c3.14-4.57,6.29-10.16,9.14-15.99" style="fill:none;stroke:#999;stroke-width:3"></path>
<path d="M514.97,9.64c0.05,1.26-0.87,2.52-1.44,2.85c-3.09,1.83-14.56,5.98-32.98,9.21" style="fill:none;stroke:#999;stroke-width:3"></path>
<path d="M481.45,26.59c0.03,0.44,0.06,1.14-0.06,1.77c-0.7,3.74-4.69,11.95-10.16,16.98" style="fill:none;stroke:#999;stroke-width:3"></path>

<path d="M561.63,15.75c4.63,1.65,11.96,6.78,13.12,9.34" style="fill:none;stroke:#999;stroke-width:3"></path>
<path d="M558.0,42.5c4.41,1.76,11.4,7.26,12.5,10" style="fill:none;stroke:#999;stroke-width:3"></path>
<path d="M559.75,88.73c1.71,1.27,3.78,1.32,4.86-0.25c3.14-4.57,6.29-10.16,9.14-15.99" style="fill:none;stroke:#999;stroke-width:3"></path>
<path d="M623.97,9.64c0.05,1.26-0.87,2.52-1.44,2.85c-3.09,1.83-14.56,5.98-32.98,9.21" style="fill:none;stroke:#999;stroke-width:3"></path>
<path d="M590.45,26.59c0.03,0.44,0.06,1.14-0.06,1.77c-0.7,3.74-4.69,11.95-10.16,16.98" style="fill:none;stroke:#999;stroke-width:3"></path>
<path d="M603.53,25.61c2.81,1.96,7.27,8.06,7.98,11.11" style="fill:none;stroke:#999;stroke-width:3"></path>

<path d="M670.63,15.75c4.63,1.65,11.96,6.78,13.12,9.34" style="fill:none;stroke:#999;stroke-width:3"></path>
<path d="M667.0,42.5c4.41,1.76,11.4,7.26,12.5,10" style="fill:none;stroke:#999;stroke-width:3"></path>
<path d="M668.75,88.73c1.71,1.27,3.78,1.32,4.86-0.25c3.14-4.57,6.29-10.16,9.14-15.99" style="fill:none;stroke:#999;stroke-width:3"></path>
<path d="M732.97,9.64c0.05,1.26-0.87,2.52-1.44,2.85c-3.09,1.83-14.56,5.98-32.98,9.21" style="fill:none;stroke:#999;stroke-width:3"></path>
<path d="M699.45,26.59c0.03,0.44,0.06,1.14-0.06,1.77c-0.7,3.74-4.69,11.95-10.16,16.98" style="fill:none;stroke:#999;stroke-width:3"></path>
<path d="M712.53,25.61c2.81,1.96,7.27,8.06,7.98,11.11" style="fill:none;stroke:#999;stroke-width:3"></path>
<path d="M731.13,21.27c5.65,2.65,14.58,10.9,16,15.03" style="fill:none;stroke:#999;stroke-width:3"></path>

<path d="M779.63,15.75c4.63,1.65,11.96,6.78,13.12,9.34" style="fill:none;stroke:#999;stroke-width:3"></path>
<path d="M776.0,42.5c4.41,1.76,11.4,7.26,12.5,10" style="fill:none;stroke:#999;stroke-width:3"></path>
<path d="M777.75,88.73c1.71,1.27,3.78,1.32,4.86-0.25c3.14-4.57,6.29-10.16,9.14-15.99" style="fill:none;stroke:#999;stroke-width:3"></path>
<path d="M841.97,9.64c0.05,1.26-0.87,2.52-1.44,2.85c-3.09,1.83-14.56,5.98-32.98,9.21" style="fill:none;stroke:#999;stroke-width:3"></path>
<path d="M808.45,26.59c0.03,0.44,0.06,1.14-0.06,1.77c-0.7,3.74-4.69,11.95-10.16,16.98" style="fill:none;stroke:#999;stroke-width:3"></path>
<path d="M821.53,25.61c2.81,1.96,7.27,8.06,7.98,11.11" style="fill:none;stroke:#999;stroke-width:3"></path>
<path d="M840.13,21.27c5.65,2.65,14.58,10.9,16,15.03" style="fill:none;stroke:#999;stroke-width:3"></path>
<path d="M807.82,43.92c1.43,0.24,2.65,0.63,4.3,0.48c10.04-0.95,23.39-1.86,32.89-2.57c2.33-0.17,3.37,1.17,3.01,3.55c-0.94,6.23-1.43,13.28-2.15,20.89" style="fill:none;stroke:#999;stroke-width:3"></path>

<path d="M888.63,15.75c4.63,1.65,11.96,6.78,13.12,9.34" style="fill:none;stroke:#999;stroke-width:3"></path>
<path d="M885.0,42.5c4.41,1.76,11.4,7.26,12.5,10" style="fill:none;stroke:#999;stroke-width:3"></path>
<path d="M886.75,88.73c1.71,1.27,3.78,1.32,4.86-0.25c3.14-4.57,6.29-10.16,9.14-15.99" style="fill:none;stroke:#999;stroke-width:3"></path>
<path d="M950.97,9.64c0.05,1.26-0.87,2.52-1.44,2.85c-3.09,1.83-14.56,5.98-32.98,9.21" style="fill:none;stroke:#999;stroke-width:3"></path>
<path d="M917.45,26.59c0.03,0.44,0.06,1.14-0.06,1.77c-0.7,3.74-4.69,11.95-10.16,16.98" style="fill:none;stroke:#999;stroke-width:3"></path>
<path d="M930.53,25.61c2.81,1.96,7.27,8.06,7.98,11.11" style="fill:none;stroke:#999;stroke-width:3"></path>
<path d="M949.13,21.27c5.65,2.65,14.58,10.9,16,15.03" style="fill:none;stroke:#999;stroke-width:3"></path>
<path d="M916.82,43.92c1.43,0.24,2.65,0.63,4.3,0.48c10.04-0.95,23.39-1.86,32.89-2.57c2.33-0.17,3.37,1.17,3.01,3.55c-0.94,6.23-1.43,13.28-2.15,20.89" style="fill:none;stroke:#999;stroke-width:3"></path>
<path d="M909.0,56.98c2.06,0.24,3.66,0.69,5.94,0.48c19.87-1.9,33.09-3.28,48.85-4c2.52-0.11,4.57,0.48,5.71,0.71" style="fill:none;stroke:#999;stroke-width:3"></path>

<path d="M997.63,15.75c4.63,1.65,11.96,6.78,13.12,9.34" style="fill:none;stroke:#999;stroke-width:3"></path>
<path d="M994.0,42.5c4.41,1.76,11.4,7.26,12.5,10" style="fill:none;stroke:#999;stroke-width:3"></path>
<path d="M995.75,88.73c1.71,1.27,3.78,1.32,4.86-0.25c3.14-4.57,6.29-10.16,9.14-15.99" style="fill:none;stroke:#999;stroke-width:3"></path>
<path d="M1059.97,9.64c0.05,1.26-0.87,2.52-1.44,2.85c-3.09,1.83-14.56,5.98-32.98,9.21" style="fill:none;stroke:#999;stroke-width:3"></path>
<path d="M1026.45,26.59c0.03,0.44,0.06,1.14-0.06,1.77c-0.7,3.74-4.69,11.95-10.16,16.98" style="fill:none;stroke:#999;stroke-width:3"></path>
<path d="M1039.53,25.61c2.81,1.96,7.27,8.06,7.98,11.11" style="fill:none;stroke:#999;stroke-width:3"></path>
<path d="M1058.13,21.27c5.65,2.65,14.58,10.9,16,15.03" style="fill:none;stroke:#999;stroke-width:3"></path>
<path d="M1025.8200000000002,43.92c1.43,0.24,2.65,0.63,4.3,0.48c10.04-0.95,23.39-1.86,32.89-2.57c2.33-0.17,3.37,1.17,3.01,3.55c-0.94,6.23-1.43,13.28-2.15,20.89" style="fill:none;stroke:#999;stroke-width:3"></path>
<path d="M1018.0,56.98c2.06,0.24,3.66,0.69,5.94,0.48c19.87-1.9,33.09-3.28,48.85-4c2.52-0.11,4.57,0.48,5.71,0.71" style="fill:none;stroke:#999;stroke-width:3"></path>
<path d="M1024.97,69.34c1.01,0.16,2.83,0.56,4.03,0.48c11.08-0.79,25.1-2.53,35.17-2.85c1.61-0.05,2.62,0,3.83,0.16" style="fill:none;stroke:#999;stroke-width:3"></path>

<path d="M1106.63,15.75c4.63,1.65,11.96,6.78,13.12,9.34" style="fill:none;stroke:#999;stroke-width:3"></path>
<path d="M1103.0,42.5c4.41,1.76,11.4,7.26,12.5,10" style="fill:none;stroke:#999;stroke-width:3"></path>
<path d="M1104.75,88.73c1.71,1.27,3.78,1.32,4.86-0.25c3.14-4.57,6.29-10.16,9.14-15.99" style="fill:none;stroke:#999;stroke-width:3"></path>
<path d="M1168.97,9.64c0.05,1.26-0.87,2.52-1.44,2.85c-3.09,1.83-14.56,5.98-32.98,9.21" style="fill:none;stroke:#999;stroke-width:3"></path>
<path d="M1135.45,26.59c0.03,0.44,0.06,1.14-0.06,1.77c-0.7,3.74-4.69,11.95-10.16,16.98" style="fill:none;stroke:#999;stroke-width:3"></path>
<path d="M1148.53,25.61c2.81,1.96,7.27,8.06,7.98,11.11" style="fill:none;stroke:#999;stroke-width:3"></path>
<path d="M1167.13,21.27c5.65,2.65,14.58,10.9,16,15.03" style="fill:none;stroke:#999;stroke-width:3"></path>
<path d="M1134.8200000000002,43.92c1.43,0.24,2.65,0.63,4.3,0.48c10.04-0.95,23.39-1.86,32.89-2.57c2.33-0.17,3.37,1.17,3.01,3.55c-0.94,6.23-1.43,13.28-2.15,20.89" style="fill:none;stroke:#999;stroke-width:3"></path>
<path d="M1127.0,56.98c2.06,0.24,3.66,0.69,5.94,0.48c19.87-1.9,33.09-3.28,48.85-4c2.52-0.11,4.57,0.48,5.71,0.71" style="fill:none;stroke:#999;stroke-width:3"></path>
<path d="M1133.97,69.34c1.01,0.16,2.83,0.56,4.03,0.48c11.08-0.79,25.1-2.53,35.17-2.85c1.61-0.05,2.62,0,3.83,0.16" style="fill:none;stroke:#999;stroke-width:3"></path>
<path d="M1154.37,45.95c0.48,0.87,1.37,2.86,1.42,5.77c0.23,13.95-0.14,36.7-0.14,41.45c0,10.05-8.96,0.19-9.59-0.71" style="fill:none;stroke:#999;stroke-width:3"></path>

</svg>