<svg width="1199px" height="109px" viewBox="0 0 1199 109" xmlns="http://www.w3.org/2000/svg" xmlns:xlink="http://www.w3.org/1999/xlink" xml:space="preserve" version="1.1" baseProfile="full">
<line x1="1" y1="1" x2="1198" y2="1" style="stroke:#ddd;stroke-width:2"></line>
<line x1="1" y1="1" x2="1" y2="108" style="stroke:#ddd;stroke-width:2"></line>
<line x1="1" y1="108" x2="1198" y2="108" style="stroke:#ddd;stroke-width:2"></line>
<line x1="1198" y1="1" x2="1198" y2="108" style="stroke:#ddd;stroke-width:2"></line>
<line x1="109" y1="1" x2="109" y2="108" style="stroke:#ddd;stroke-width:2"></line>
<line x1="218" y1="1" x2="218" y2="108" style="stroke:#ddd;stroke-width:2"></line>
<line x1="327" y1="1" x2="327" y2="108" style="stroke:#ddd;stroke-width:2"></line>
<line x1="436" y1="1" x2="436" y2="108" style="stroke:#ddd;stroke-width:2"></line>
<line x1="545" y1="1" x2="545" y2="108" style="stroke:#ddd;stroke-width:2"></line>
<line x1="654" y1="1" x2="654" y2="108" style="stroke:#ddd;stroke-width:2"></line>
<line x1="763" y1="1" x2="763" y2="108" style="stroke:#ddd;stroke-width:2"></line>
<line x1="872" y1="1" x2="872" y2="108" style="stroke:#ddd;stroke-width:2"></line>
<line x1="981" y1="1" x2="981" y2="108" style="stroke:#ddd;stroke-width:2"></line>
<line x1="1090" y1="1" x2="1090" y2="108" style="stroke:#ddd;stroke-width:2"></line>
<line x1="1" y1="54" x2="1198" y2="54" style="stroke:#ddd;stroke-width:2;stroke-dasharray:3 3"></line>
<line x1="55" y1="1" x2="55" y2="108" style="stroke:#ddd;stroke-width:2;stroke-dasharray:3 3"></line>
<line x1="164" y1="1" x2="164" y2="108" style="stroke:#ddd;stroke-width:2;stroke-dasharray:3 3"></line>
<line x1="273" y1="1" x2="273" y2="108" style="stroke:#ddd;stroke-width:2;stroke-dasharray:3 3"></line>
<line x1="382" y1="1" x2="382" y2="108" style="stroke:#ddd;stroke-width:2;stroke-dasharray:3 3"></line>
<line x1="491" y1="1" x2="491" y2="108" style="stroke:#ddd;stroke-width:2;stroke-dasharray:3 3"></line>
<line x1="600" y1="1" x2="600" y2="108" style="stroke:#ddd;stroke-width:2;stroke-dasharray:3 3"></line>
<line x1="709" y1="1" x2="709" y2="108" style="stroke:#ddd;stroke-width:2;stroke-dasharray:3 3"></line>
<line x1="818" y1="1" x2="818" y2="108" style="stroke:#ddd;stroke-width:2;stroke-dasharray:3 3"></line>
<line x1="927" y1="1" x2="927" y2="108" style="stroke:#ddd;stroke-width:2;stroke-dasharray:3 3"></line>
<line x1="1036" y1="1" x2="1036" y2="108" style="stroke:#ddd;stroke-width:2;stroke-dasharray:3 3"></line>
<line x1="1145" y1="1" x2="1145" y2="108" style="stroke:#ddd;stroke-width:2;stroke-dasharray:3 3"></line>
<path d="M17.63,15.5c4.45,1.6,11.5,6.6,12.62,9.09" style="fill:none;stroke:#999;stroke-width:3"></path>

<path d="M126.63,15.5c4.45,1.6,11.5,6.6,12.62,9.09" style="fill:none;stroke:#999;stroke-width:3"></path>
<path d="M122.5,41.75c4.24,1.81,10.94,6.94,12,9.75" style="fill:none;stroke:#999;stroke-width:3"></path>

<path d="M235.63,15.5c4.45,1.6,11.5,6.6,12.62,9.09" style="fill:none;stroke:#999;stroke-width:3"></path>
<path d="M231.5,41.75c4.24,1.81,10.94,6.94,12,9.75" style="fill:none;stroke:#999;stroke-width:3"></path>
<path d="M233.25,89.73c1.71,1.27,3.78,1.32,4.86-0.25c3.14-4.57,6.29-10.16,9.14-15.99" style="fill:none;stroke:#999;stroke-width:3"></path>

<path d="M344.63,15.5c4.45,1.6,11.5,6.6,12.62,9.09" style="fill:none;stroke:#999;stroke-width:3"></path>
<path d="M340.5,41.75c4.24,1.81,10.94,6.94,12,9.75" style="fill:none;stroke:#999;stroke-width:3"></path>
<path d="M342.25,89.73c1.71,1.27,3.78,1.32,4.86-0.25c3.14-4.57,6.29-10.16,9.14-15.99" style="fill:none;stroke:#999;stroke-width:3"></path>
<path d="M389.57,10.65c0.08,0.86,0.36,2.31-0.15,3.48C385.75,22.5,378.5,36.95,363.74,47.88" style="fill:none;stroke:#999;stroke-width:3"></path>

<path d="M453.63,15.5c4.45,1.6,11.5,6.6,12.62,9.09" style="fill:none;stroke:#999;stroke-width:3"></path>
<path d="M449.5,41.75c4.24,1.81,10.94,6.94,12,9.75" style="fill:none;stroke:#999;stroke-width:3"></path>
<path d="M451.25,89.73c1.71,1.27,3.78,1.32,4.86-0.25c3.14-4.57,6.29-10.16,9.14-15.99" style="fill:none;stroke:#999;stroke-width:3"></path>
<path d="M498.57,10.65c0.08,0.86,0.36,2.31-0.15,3.48C494.75,22.5,487.5,36.95,472.74,47.88" style="fill:none;stroke:#999;stroke-width:3"></path>
<path d="M498.37,16.88c5.49,4.42,23.09,21.38,27.73,25.05c1.57,1.24,3.59,1.78,5.17,2.13" style="fill:none;stroke:#999;stroke-width:3"></path>

<path d="M562.63,15.5c4.45,1.6,11.5,6.6,12.62,9.09" style="fill:none;stroke:#999;stroke-width:3"></path>
<path d="M558.5,41.75c4.24,1.81,10.94,6.94,12,9.75" style="fill:none;stroke:#999;stroke-width:3"></path>
<path d="M560.25,89.73c1.71,1.27,3.78,1.32,4.86-0.25c3.14-4.57,6.29-10.16,9.14-15.99" style="fill:none;stroke:#999;stroke-width:3"></path>
<path d="M607.5699999999999,10.65c0.08,0.86,0.36,2.31-0.15,3.48C603.75,22.5,596.5,36.95,581.74,47.88" style="fill:none;stroke:#999;stroke-width:3"></path>
<path d="M607.37,16.88c5.49,4.42,23.09,21.38,27.73,25.05c1.57,1.24,3.59,1.78,5.17,2.13" style="fill:none;stroke:#999;stroke-width:3"></path>
<path d="M595.16,44.35c0.99,0.31,2.81,0.4,3.8,0.31c6.32-0.54,13.9-1.47,20.99-1.77c1.65-0.07,2.64,0.15,3.47,0.3" style="fill:none;stroke:#999;stroke-width:3"></path>

<path d="M671.63,15.5c4.45,1.6,11.5,6.6,12.62,9.09" style="fill:none;stroke:#999;stroke-width:3"></path>
<path d="M667.5,41.75c4.24,1.81,10.94,6.94,12,9.75" style="fill:none;stroke:#999;stroke-width:3"></path>
<path d="M669.25,89.73c1.71,1.27,3.78,1.32,4.86-0.25c3.14-4.57,6.29-10.16,9.14-15.99" style="fill:none;stroke:#999;stroke-width:3"></path>
<path d="M716.5699999999999,10.65c0.08,0.86,0.36,2.31-0.15,3.48C712.75,22.5,705.5,36.95,690.74,47.88" style="fill:none;stroke:#999;stroke-width:3"></path>
<path d="M716.37,16.88c5.49,4.42,23.09,21.38,27.73,25.05c1.57,1.24,3.59,1.78,5.17,2.13" style="fill:none;stroke:#999;stroke-width:3"></path>
<path d="M704.16,44.35c0.99,0.31,2.81,0.4,3.8,0.31c6.32-0.54,13.9-1.47,20.99-1.77c1.65-0.07,2.64,0.15,3.47,0.3" style="fill:none;stroke:#999;stroke-width:3"></path>
<path d="M696.32,55.05c0.53,0.67,1.17,1.73,1.26,2.94c0.49,6.55-0.27,31.44,0.4,38.09" style="fill:none;stroke:#999;stroke-width:3"></path>

<path d="M780.63,15.5c4.45,1.6,11.5,6.6,12.62,9.09" style="fill:none;stroke:#999;stroke-width:3"></path>
<path d="M776.5,41.75c4.24,1.81,10.94,6.94,12,9.75" style="fill:none;stroke:#999;stroke-width:3"></path>
<path d="M778.25,89.73c1.71,1.27,3.78,1.32,4.86-0.25c3.14-4.57,6.29-10.16,9.14-15.99" style="fill:none;stroke:#999;stroke-width:3"></path>
<path d="M825.5699999999999,10.65c0.08,0.86,0.36,2.31-0.15,3.48C821.75,22.5,814.5,36.95,799.74,47.88" style="fill:none;stroke:#999;stroke-width:3"></path>
<path d="M825.37,16.88c5.49,4.42,23.09,21.38,27.73,25.05c1.57,1.24,3.59,1.78,5.17,2.13" style="fill:none;stroke:#999;stroke-width:3"></path>
<path d="M813.16,44.35c0.99,0.31,2.81,0.4,3.8,0.31c6.32-0.54,13.9-1.47,20.99-1.77c1.65-0.07,2.64,0.15,3.47,0.3" style="fill:none;stroke:#999;stroke-width:3"></path>
<path d="M805.32,55.05c0.53,0.67,1.17,1.73,1.26,2.94c0.49,6.55-0.27,31.44,0.4,38.09" style="fill:none;stroke:#999;stroke-width:3"></path>
<path d="M807.14,58.58c6.67-0.54,39.12-3.97,40.43-4.15c2.81-0.4,3.83,2.81,3.86,4.15c0.15,7.14-0.46,18.43-0.46,31.17c0,8.41-2.17,4.66-5.74,1.72" style="fill:none;stroke:#999;stroke-width:3"></path>

<path d="M889.63,15.5c4.45,1.6,11.5,6.6,12.62,9.09" style="fill:none;stroke:#999;stroke-width:3"></path>
<path d="M885.5,41.75c4.24,1.81,10.94,6.94,12,9.75" style="fill:none;stroke:#999;stroke-width:3"></path>
<path d="M887.25,89.73c1.71,1.27,3.78,1.32,4.86-0.25c3.14-4.57,6.29-10.16,9.14-15.99" style="fill:none;stroke:#999;stroke-width:3"></path>
<path d="M934.5699999999999,10.65c0.08,0.86,0.36,2.31-0.15,3.48C930.75,22.5,923.5,36.95,908.74,47.88" style="fill:none;stroke:#999;stroke-width:3"></path>
<path d="M934.37,16.88c5.49,4.42,23.09,21.38,27.73,25.05c1.57,1.24,3.59,1.78,5.17,2.13" style="fill:none;stroke:#999;stroke-width:3"></path>
<path d="M922.16,44.35c0.99,0.31,2.81,0.4,3.8,0.31c6.32-0.54,13.9-1.47,20.99-1.77c1.65-0.07,2.64,0.15,3.47,0.3" style="fill:none;stroke:#999;stroke-width:3"></path>
<path d="M914.32,55.05c0.53,0.67,1.17,1.73,1.26,2.94c0.49,6.55-0.27,31.44,0.4,38.09" style="fill:none;stroke:#999;stroke-width:3"></path>
<path d="M916.14,58.58c6.67-0.54,39.12-3.97,40.43-4.15c2.81-0.4,3.83,2.81,3.86,4.15c0.15,7.14-0.46,18.43-0.46,31.17c0,8.41-2.17,4.66-5.74,1.72" style="fill:none;stroke:#999;stroke-width:3"></path>
<path d="M916.66,74.69C922.0,74.23,953.0,71.25,960.29,71.56" style="fill:none;stroke:#999;stroke-width:3"></path>

<path d="M998.63,15.5c4.45,1.6,11.5,6.6,12.62,9.09" style="fill:none;stroke:#999;stroke-width:3"></path>
<path d="M994.5,41.75c4.24,1.81,10.94,6.94,12,9.75" style="fill:none;stroke:#999;stroke-width:3"></path>
<path d="M996.25,89.73c1.71,1.27,3.78,1.32,4.86-0.25c3.14-4.57,6.29-10.16,9.14-15.99" style="fill:none;stroke:#999;stroke-width:3"></path>
<path d="M1043.57,10.65c0.08,0.86,0.36,2.31-0.15,3.48C1039.75,22.5,1032.5,36.95,1017.74,47.88" style="fill:none;stroke:#999;stroke-width:3"></path>
<path d="M1043.37,16.88c5.49,4.42,23.09,21.38,27.73,25.05c1.57,1.24,3.59,1.78,5.17,2.13" style="fill:none;stroke:#999;stroke-width:3"></path>
<path d="M1031.1599999999999,44.35c0.99,0.31,2.81,0.4,3.8,0.31c6.32-0.54,13.9-1.47,20.99-1.77c1.65-0.07,2.64,0.15,3.47,0.3" style="fill:none;stroke:#999;stroke-width:3"></path>
<path d="M1023.32,55.05c0.53,0.67,1.17,1.73,1.26,2.94c0.49,6.55-0.27,31.44,0.4,38.09" style="fill:none;stroke:#999;stroke-width:3"></path>
<path d="M1025.1399999999999,58.58c6.67-0.54,39.12-3.97,40.43-4.15c2.81-0.4,3.83,2.81,3.86,4.15c0.15,7.14-0.46,18.43-0.46,31.17c0,8.41-2.17,4.66-5.74,1.72" style="fill:none;stroke:#999;stroke-width:3"></path>
<path d="M1025.6599999999999,74.69C1031.0,74.23,1062.0,71.25,1069.29,71.56" style="fill:none;stroke:#999;stroke-width:3"></path>
<path d="M1037.28,59.67c0.78,0.84,1.33,1.32,1.39,4.1c0.32,13.35-0.02,25.78-0.02,30.33" style="fill:none;stroke:#999;stroke-width:3"></path>

<path d="M1107.63,15.5c4.45,1.6,11.5,6.6,12.62,9.09" style="fill:none;stroke:#999;stroke-width:3"></path>
<path d="M1103.5,41.75c4.24,1.81,10.94,6.94,12,9.75" style="fill:none;stroke:#999;stroke-width:3"></path>
<path d="M1105.25,89.73c1.71,1.27,3.78,1.32,4.86-0.25c3.14-4.57,6.29-10.16,9.14-15.99" style="fill:none;stroke:#999;stroke-width:3"></path>
<path d="M1152.57,10.65c0.08,0.86,0.36,2.31-0.15,3.48C1148.75,22.5,1141.5,36.95,1126.74,47.88" style="fill:none;stroke:#999;stroke-width:3"></path>
<path d="M1152.37,16.88c5.49,4.42,23.09,21.38,27.73,25.05c1.57,1.24,3.59,1.78,5.17,2.13" style="fill:none;stroke:#999;stroke-width:3"></path>
<path d="M1140.1599999999999,44.35c0.99,0.31,2.81,0.4,3.8,0.31c6.32-0.54,13.9-1.47,20.99-1.77c1.65-0.07,2.64,0.15,3.47,0.3" style="fill:none;stroke:#999;stroke-width:3"></path>
<path d="M1132.3200000000002,55.05c0.53,0.67,1.17,1.73,1.26,2.94c0.49,6.55-0.27,31.44,0.4,38.09" style="fill:none;stroke:#999;stroke-width:3"></path>
<path d="M1134.1399999999999,58.58c6.67-0.54,39.12-3.97,40.43-4.15c2.81-0.4,3.83,2.81,3.86,4.15c0.15,7.14-0.46,18.43-0.46,31.17c0,8.41-2.17,4.66-5.74,1.72" style="fill:none;stroke:#999;stroke-width:3"></path>
<path d="M1134.6599999999999,74.69C1140.0,74.23,1171.0,71.25,1178.29,71.56" style="fill:none;stroke:#999;stroke-width:3"></path>
<path d="M1146.28,59.67c0.78,0.84,1.33,1.32,1.39,4.1c0.32,13.35-0.02,25.78-0.02,30.33" style="fill:none;stroke:#999;stroke-width:3"></path>
<path d="M1159.59,58.5c0.78,0.84,1.33,1.32,1.39,4.1c0.32,13.35-0.02,26.4-0.02,30.95" style="fill:none;stroke:#999;stroke-width:3"></path>

</svg>