<svg width="1199px" height="109px" viewBox="0 0 1199 109" xmlns="http://www.w3.org/2000/svg" xmlns:xlink="http://www.w3.org/1999/xlink" xml:space="preserve" version="1.1" baseProfile="full">
<line x1="1" y1="1" x2="1198" y2="1" style="stroke:#ddd;stroke-width:2"></line>
<line x1="1" y1="1" x2="1" y2="108" style="stroke:#ddd;stroke-width:2"></line>
<line x1="1" y1="108" x2="1198" y2="108" style="stroke:#ddd;stroke-width:2"></line>
<line x1="1198" y1="1" x2="1198" y2="108" style="stroke:#ddd;stroke-width:2"></line>
<line x1="109" y1="1" x2="109" y2="108" style="stroke:#ddd;stroke-width:2"></line>
<line x1="218" y1="1" x2="218" y2="108" style="stroke:#ddd;stroke-width:2"></line>
<line x1="327" y1="1" x2="327" y2="108" style="stroke:#ddd;stroke-width:2"></line>
<line x1="436" y1="1" x2="436" y2="108" style="stroke:#ddd;stroke-width:2"></line>
<line x1="545" y1="1" x2="545" y2="108" style="stroke:#ddd;stroke-width:2"></line>
<line x1="654" y1="1" x2="654" y2="108" style="stroke:#ddd;stroke-width:2"></line>
<line x1="763" y1="1" x2="763" y2="108" style="stroke:#ddd;stroke-width:2"></line>
<line x1="872" y1="1" x2="872" y2="108" style="stroke:#ddd;stroke-width:2"></line>
<line x1="981" y1="1" x2="981" y2="108" style="stroke:#ddd;stroke-width:2"></line>
<line x1="1090" y1="1" x2="1090" y2="108" style="stroke:#ddd;stroke-width:2"></line>
<line x1="1" y1="54" x2="1198" y2="54" style="stroke:#ddd;stroke-width:2;stroke-dasharray:3 3"></line>
<line x1="55" y1="1" x2="55" y2="108" style="stroke:#ddd;stroke-width:2;stroke-dasharray:3 3"></line>
<line x1="164" y1="1" x2="164" y2="108" style="stroke:#ddd;stroke-width:2;stroke-dasharray:3 3"></line>
<line x1="273" y1="1" x2="273" y2="108" style="stroke:#ddd;stroke-width:2;stroke-dasharray:3 3"></line>
<line x1="382" y1="1" x2="382" y2="108" style="stroke:#ddd;stroke-width:2;stroke-dasharray:3 3"></line>
<line x1="491" y1="1" x2="491" y2="108" style="stroke:#ddd;stroke-width:2;stroke-dasharray:3 3"></line>
<line x1="600" y1="1" x2="600" y2="108" style="stroke:#ddd;stroke-width:2;stroke-dasharray:3 3"></line>
<line x1="709" y1="1" x2="709" y2="108" style="stroke:#ddd;stroke-width:2;stroke-dasharray:3 3"></line>
<line x1="818" y1="1" x2="818" y2="108" style="stroke:#ddd;stroke-width:2;stroke-dasharray:3 3"></line>
<line x1="927" y1="1" x2="927" y2="108" style="stroke:#ddd;stroke-width:2;stroke-dasharray:3 3"></line>
<line x1="1036" y1="1" x2="1036" y2="108" style="stroke:#ddd;stroke-width:2;stroke-dasharray:3 3"></line>
<line x1="1145" y1="1" x2="1145" y2="108" style="stroke:#ddd;stroke-width:2;stroke-dasharray:3 3"></line>
<path d="M19.63,15.5c4.28,1.52,11.05,6.23,12.12,8.59" style="fill:none;stroke:#999;stroke-width:3"></path>

<path d="M128.63,15.5c4.28,1.52,11.05,6.23,12.12,8.59" style="fill:none;stroke:#999;stroke-width:3"></path>
<path d="M125.0,40.25c4.41,1.37,11.4,5.62,12.5,7.75" style="fill:none;stroke:#999;stroke-width:3"></path>

<path d="M237.63,15.5c4.28,1.52,11.05,6.23,12.12,8.59" style="fill:none;stroke:#999;stroke-width:3"></path>
<path d="M234.0,40.25c4.41,1.37,11.4,5.62,12.5,7.75" style="fill:none;stroke:#999;stroke-width:3"></path>
<path d="M233.25,85.73c1.71,1.27,3.78,1.32,4.86-0.25c3.14-4.57,6.29-10.16,9.14-15.99" style="fill:none;stroke:#999;stroke-width:3"></path>

<path d="M346.63,15.5c4.28,1.52,11.05,6.23,12.12,8.59" style="fill:none;stroke:#999;stroke-width:3"></path>
<path d="M343.0,40.25c4.41,1.37,11.4,5.62,12.5,7.75" style="fill:none;stroke:#999;stroke-width:3"></path>
<path d="M342.25,85.73c1.71,1.27,3.78,1.32,4.86-0.25c3.14-4.57,6.29-10.16,9.14-15.99" style="fill:none;stroke:#999;stroke-width:3"></path>
<path d="M370.15,19.5c0.41,2,1,3.57,1,6.06c0,23.69,3.6,55.19-12.35,67.4" style="fill:none;stroke:#999;stroke-width:3"></path>

<path d="M455.63,15.5c4.28,1.52,11.05,6.23,12.12,8.59" style="fill:none;stroke:#999;stroke-width:3"></path>
<path d="M452.0,40.25c4.41,1.37,11.4,5.62,12.5,7.75" style="fill:none;stroke:#999;stroke-width:3"></path>
<path d="M451.25,85.73c1.71,1.27,3.78,1.32,4.86-0.25c3.14-4.57,6.29-10.16,9.14-15.99" style="fill:none;stroke:#999;stroke-width:3"></path>
<path d="M479.15,19.5c0.41,2,1,3.57,1,6.06c0,23.69,3.6,55.19-12.35,67.4" style="fill:none;stroke:#999;stroke-width:3"></path>
<path d="M487.19,31.39c2.65,2.26,6.65,8.65,7.31,12.16" style="fill:none;stroke:#999;stroke-width:3"></path>

<path d="M564.63,15.5c4.28,1.52,11.05,6.23,12.12,8.59" style="fill:none;stroke:#999;stroke-width:3"></path>
<path d="M561.0,40.25c4.41,1.37,11.4,5.62,12.5,7.75" style="fill:none;stroke:#999;stroke-width:3"></path>
<path d="M560.25,85.73c1.71,1.27,3.78,1.32,4.86-0.25c3.14-4.57,6.29-10.16,9.14-15.99" style="fill:none;stroke:#999;stroke-width:3"></path>
<path d="M588.15,19.5c0.41,2,1,3.57,1,6.06c0,23.69,3.6,55.19-12.35,67.4" style="fill:none;stroke:#999;stroke-width:3"></path>
<path d="M596.19,31.39c2.65,2.26,6.65,8.65,7.31,12.16" style="fill:none;stroke:#999;stroke-width:3"></path>
<path d="M625.76,27.97c0.02,0.31,0.16,0.85-0.04,1.26c-1.47,3.02-5.42,8.99-9.4,12.56" style="fill:none;stroke:#999;stroke-width:3"></path>

<path d="M673.63,15.5c4.28,1.52,11.05,6.23,12.12,8.59" style="fill:none;stroke:#999;stroke-width:3"></path>
<path d="M670.0,40.25c4.41,1.37,11.4,5.62,12.5,7.75" style="fill:none;stroke:#999;stroke-width:3"></path>
<path d="M669.25,85.73c1.71,1.27,3.78,1.32,4.86-0.25c3.14-4.57,6.29-10.16,9.14-15.99" style="fill:none;stroke:#999;stroke-width:3"></path>
<path d="M697.15,19.5c0.41,2,1,3.57,1,6.06c0,23.69,3.6,55.19-12.35,67.4" style="fill:none;stroke:#999;stroke-width:3"></path>
<path d="M705.19,31.39c2.65,2.26,6.65,8.65,7.31,12.16" style="fill:none;stroke:#999;stroke-width:3"></path>
<path d="M734.76,27.97c0.02,0.31,0.16,0.85-0.04,1.26c-1.47,3.02-5.42,8.99-9.4,12.56" style="fill:none;stroke:#999;stroke-width:3"></path>
<path d="M705.1,51.53c0.67,0.33,2.47,0.56,4.27,0.38c6.43-0.65,17.52-1.54,26.62-2.05c1.8-0.1,2.24-0.33,3.37,0" style="fill:none;stroke:#999;stroke-width:3"></path>

<path d="M782.63,15.5c4.28,1.52,11.05,6.23,12.12,8.59" style="fill:none;stroke:#999;stroke-width:3"></path>
<path d="M779.0,40.25c4.41,1.37,11.4,5.62,12.5,7.75" style="fill:none;stroke:#999;stroke-width:3"></path>
<path d="M778.25,85.73c1.71,1.27,3.78,1.32,4.86-0.25c3.14-4.57,6.29-10.16,9.14-15.99" style="fill:none;stroke:#999;stroke-width:3"></path>
<path d="M806.15,19.5c0.41,2,1,3.57,1,6.06c0,23.69,3.6,55.19-12.35,67.4" style="fill:none;stroke:#999;stroke-width:3"></path>
<path d="M814.19,31.39c2.65,2.26,6.65,8.65,7.31,12.16" style="fill:none;stroke:#999;stroke-width:3"></path>
<path d="M843.76,27.97c0.02,0.31,0.16,0.85-0.04,1.26c-1.47,3.02-5.42,8.99-9.4,12.56" style="fill:none;stroke:#999;stroke-width:3"></path>
<path d="M814.1,51.53c0.67,0.33,2.47,0.56,4.27,0.38c6.43-0.65,17.52-1.54,26.62-2.05c1.8-0.1,2.24-0.33,3.37,0" style="fill:none;stroke:#999;stroke-width:3"></path>
<path d="M828.02,21.96c0.88,0.45,1.41,2.03,1.59,2.94s0,56.74-0.18,62.39" style="fill:none;stroke:#999;stroke-width:3"></path>

<path d="M891.63,15.5c4.28,1.52,11.05,6.23,12.12,8.59" style="fill:none;stroke:#999;stroke-width:3"></path>
<path d="M888.0,40.25c4.41,1.37,11.4,5.62,12.5,7.75" style="fill:none;stroke:#999;stroke-width:3"></path>
<path d="M887.25,85.73c1.71,1.27,3.78,1.32,4.86-0.25c3.14-4.57,6.29-10.16,9.14-15.99" style="fill:none;stroke:#999;stroke-width:3"></path>
<path d="M915.15,19.5c0.41,2,1,3.57,1,6.06c0,23.69,3.6,55.19-12.35,67.4" style="fill:none;stroke:#999;stroke-width:3"></path>
<path d="M923.19,31.39c2.65,2.26,6.65,8.65,7.31,12.16" style="fill:none;stroke:#999;stroke-width:3"></path>
<path d="M952.76,27.97c0.02,0.31,0.16,0.85-0.04,1.26c-1.47,3.02-5.42,8.99-9.4,12.56" style="fill:none;stroke:#999;stroke-width:3"></path>
<path d="M923.1,51.53c0.67,0.33,2.47,0.56,4.27,0.38c6.43-0.65,17.52-1.54,26.62-2.05c1.8-0.1,2.24-0.33,3.37,0" style="fill:none;stroke:#999;stroke-width:3"></path>
<path d="M937.02,21.96c0.88,0.45,1.41,2.03,1.59,2.94s0,56.74-0.18,62.39" style="fill:none;stroke:#999;stroke-width:3"></path>
<path d="M938.52,52.46C935.26,61.1,927.33,73.24,920.0,78.23" style="fill:none;stroke:#999;stroke-width:3"></path>

<path d="M1000.63,15.5c4.28,1.52,11.05,6.23,12.12,8.59" style="fill:none;stroke:#999;stroke-width:3"></path>
<path d="M997.0,40.25c4.41,1.37,11.4,5.62,12.5,7.75" style="fill:none;stroke:#999;stroke-width:3"></path>
<path d="M996.25,85.73c1.71,1.27,3.78,1.32,4.86-0.25c3.14-4.57,6.29-10.16,9.14-15.99" style="fill:none;stroke:#999;stroke-width:3"></path>
<path d="M1024.15,19.5c0.41,2,1,3.57,1,6.06c0,23.69,3.6,55.19-12.35,67.4" style="fill:none;stroke:#999;stroke-width:3"></path>
<path d="M1032.19,31.39c2.65,2.26,6.65,8.65,7.31,12.16" style="fill:none;stroke:#999;stroke-width:3"></path>
<path d="M1061.76,27.97c0.02,0.31,0.16,0.85-0.04,1.26c-1.47,3.02-5.42,8.99-9.4,12.56" style="fill:none;stroke:#999;stroke-width:3"></path>
<path d="M1032.1,51.53c0.67,0.33,2.47,0.56,4.27,0.38c6.43-0.65,17.52-1.54,26.62-2.05c1.8-0.1,2.24-0.33,3.37,0" style="fill:none;stroke:#999;stroke-width:3"></path>
<path d="M1046.02,21.96c0.88,0.45,1.41,2.03,1.59,2.94s0,56.74-0.18,62.39" style="fill:none;stroke:#999;stroke-width:3"></path>
<path d="M1047.52,52.46C1044.26,61.1,1036.33,73.24,1029.0,78.23" style="fill:none;stroke:#999;stroke-width:3"></path>
<path d="M1051.12,58.32c7.2,3.1,11.13,6.18,15.15,11.4" style="fill:none;stroke:#999;stroke-width:3"></path>

<path d="M1109.63,15.5c4.28,1.52,11.05,6.23,12.12,8.59" style="fill:none;stroke:#999;stroke-width:3"></path>
<path d="M1106.0,40.25c4.41,1.37,11.4,5.62,12.5,7.75" style="fill:none;stroke:#999;stroke-width:3"></path>
<path d="M1105.25,85.73c1.71,1.27,3.78,1.32,4.86-0.25c3.14-4.57,6.29-10.16,9.14-15.99" style="fill:none;stroke:#999;stroke-width:3"></path>
<path d="M1133.15,19.5c0.41,2,1,3.57,1,6.06c0,23.69,3.6,55.19-12.35,67.4" style="fill:none;stroke:#999;stroke-width:3"></path>
<path d="M1141.19,31.39c2.65,2.26,6.65,8.65,7.31,12.16" style="fill:none;stroke:#999;stroke-width:3"></path>
<path d="M1170.76,27.97c0.02,0.31,0.16,0.85-0.04,1.26c-1.47,3.02-5.42,8.99-9.4,12.56" style="fill:none;stroke:#999;stroke-width:3"></path>
<path d="M1141.1,51.53c0.67,0.33,2.47,0.56,4.27,0.38c6.43-0.65,17.52-1.54,26.62-2.05c1.8-0.1,2.24-0.33,3.37,0" style="fill:none;stroke:#999;stroke-width:3"></path>
<path d="M1155.02,21.96c0.88,0.45,1.41,2.03,1.59,2.94s0,56.74-0.18,62.39" style="fill:none;stroke:#999;stroke-width:3"></path>
<path d="M1156.52,52.46C1153.26,61.1,1145.33,73.24,1138.0,78.23" style="fill:none;stroke:#999;stroke-width:3"></path>
<path d="M1160.12,58.32c7.2,3.1,11.13,6.18,15.15,11.4" style="fill:none;stroke:#999;stroke-width:3"></path>
<path d="M1179.87,14.25c1.09,0.5,1.74,2.25,1.96,3.25c0.22,1,0,73.25-0.22,79.5" style="fill:none;stroke:#999;stroke-width:3"></path>

</svg>