<svg width="1199px" height="109px" viewBox="0 0 1199 109" xmlns="http://www.w3.org/2000/svg" xmlns:xlink="http://www.w3.org/1999/xlink" xml:space="preserve" version="1.1" baseProfile="full">
<line x1="1" y1="1" x2="1198" y2="1" style="stroke:#ddd;stroke-width:2"></line>
<line x1="1" y1="1" x2="1" y2="108" style="stroke:#ddd;stroke-width:2"></line>
<line x1="1" y1="108" x2="1198" y2="108" style="stroke:#ddd;stroke-width:2"></line>
<line x1="1198" y1="1" x2="1198" y2="108" style="stroke:#ddd;stroke-width:2"></line>
<line x1="109" y1="1" x2="109" y2="108" style="stroke:#ddd;stroke-width:2"></line>
<line x1="218" y1="1" x2="218" y2="108" style="stroke:#ddd;stroke-width:2"></line>
<line x1="327" y1="1" x2="327" y2="108" style="stroke:#ddd;stroke-width:2"></line>
<line x1="436" y1="1" x2="436" y2="108" style="stroke:#ddd;stroke-width:2"></line>
<line x1="545" y1="1" x2="545" y2="108" style="stroke:#ddd;stroke-width:2"></line>
<line x1="654" y1="1" x2="654" y2="108" style="stroke:#ddd;stroke-width:2"></line>
<line x1="763" y1="1" x2="763" y2="108" style="stroke:#ddd;stroke-width:2"></line>
<line x1="872" y1="1" x2="872" y2="108" style="stroke:#ddd;stroke-width:2"></line>
<line x1="981" y1="1" x2="981" y2="108" style="stroke:#ddd;stroke-width:2"></line>
<line x1="1090" y1="1" x2="1090" y2="108" style="stroke:#ddd;stroke-width:2"></line>
<line x1="1" y1="54" x2="1198" y2="54" style="stroke:#ddd;stroke-width:2;stroke-dasharray:3 3"></line>
<line x1="55" y1="1" x2="55" y2="108" style="stroke:#ddd;stroke-width:2;stroke-dasharray:3 3"></line>
<line x1="164" y1="1" x2="164" y2="108" style="stroke:#ddd;stroke-width:2;stroke-dasharray:3 3"></line>
<line x1="273" y1="1" x2="273" y2="108" style="stroke:#ddd;stroke-width:2;stroke-dasharray:3 3"></line>
<line x1="382" y1="1" x2="382" y2="108" style="stroke:#ddd;stroke-width:2;stroke-dasharray:3 3"></line>
<line x1="491" y1="1" x2="491" y2="108" style="stroke:#ddd;stroke-width:2;stroke-dasharray:3 3"></line>
<line x1="600" y1="1" x2="600" y2="108" style="stroke:#ddd;stroke-width:2;stroke-dasharray:3 3"></line>
<line x1="709" y1="1" x2="709" y2="108" style="stroke:#ddd;stroke-width:2;stroke-dasharray:3 3"></line>
<line x1="818" y1="1" x2="818" y2="108" style="stroke:#ddd;stroke-width:2;stroke-dasharray:3 3"></line>
<line x1="927" y1="1" x2="927" y2="108" style="stroke:#ddd;stroke-width:2;stroke-dasharray:3 3"></line>
<line x1="1036" y1="1" x2="1036" y2="108" style="stroke:#ddd;stroke-width:2;stroke-dasharray:3 3"></line>
<line x1="1145" y1="1" x2="1145" y2="108" style="stroke:#ddd;stroke-width:2;stroke-dasharray:3 3"></line>
<path d="M17.38,15.5c4.19,1.6,10.82,6.6,11.87,9.09" style="fill:none;stroke:#999;stroke-width:3"></path>

<path d="M126.38,15.5c4.19,1.6,10.82,6.6,11.87,9.09" style="fill:none;stroke:#999;stroke-width:3"></path>
<path d="M121.75,42c4.5,1.76,11.62,7.26,12.75,10" style="fill:none;stroke:#999;stroke-width:3"></path>

<path d="M235.38,15.5c4.19,1.6,10.82,6.6,11.87,9.09" style="fill:none;stroke:#999;stroke-width:3"></path>
<path d="M230.75,42c4.5,1.76,11.62,7.26,12.75,10" style="fill:none;stroke:#999;stroke-width:3"></path>
<path d="M232.25,88.23c1.71,1.27,3.78,1.32,4.86-0.25c3.14-4.57,6.29-10.16,9.14-15.99" style="fill:none;stroke:#999;stroke-width:3"></path>

<path d="M344.38,15.5c4.19,1.6,10.82,6.6,11.87,9.09" style="fill:none;stroke:#999;stroke-width:3"></path>
<path d="M339.75,42c4.5,1.76,11.62,7.26,12.75,10" style="fill:none;stroke:#999;stroke-width:3"></path>
<path d="M341.25,88.23c1.71,1.27,3.78,1.32,4.86-0.25c3.14-4.57,6.29-10.16,9.14-15.99" style="fill:none;stroke:#999;stroke-width:3"></path>
<path d="M364.25,24.78c1.28,0.44,2.78,0.53,4.07,0.44c11.8-0.81,37.08-4.02,50.69-4.08c2.14-0.01,3.42,0.21,4.49,0.43" style="fill:none;stroke:#999;stroke-width:3"></path>

<path d="M453.38,15.5c4.19,1.6,10.82,6.6,11.87,9.09" style="fill:none;stroke:#999;stroke-width:3"></path>
<path d="M448.75,42c4.5,1.76,11.62,7.26,12.75,10" style="fill:none;stroke:#999;stroke-width:3"></path>
<path d="M450.25,88.23c1.71,1.27,3.78,1.32,4.86-0.25c3.14-4.57,6.29-10.16,9.14-15.99" style="fill:none;stroke:#999;stroke-width:3"></path>
<path d="M473.25,24.78c1.28,0.44,2.78,0.53,4.07,0.44c11.8-0.81,37.08-4.02,50.69-4.08c2.14-0.01,3.42,0.21,4.49,0.43" style="fill:none;stroke:#999;stroke-width:3"></path>
<path d="M484.72,14.03c1.68,1.35,2.22,1.76,2.4,2.59c1.68,7.77,3.12,15.77,3.6,18.59" style="fill:none;stroke:#999;stroke-width:3"></path>

<path d="M562.38,15.5c4.19,1.6,10.82,6.6,11.87,9.09" style="fill:none;stroke:#999;stroke-width:3"></path>
<path d="M557.75,42c4.5,1.76,11.62,7.26,12.75,10" style="fill:none;stroke:#999;stroke-width:3"></path>
<path d="M559.25,88.23c1.71,1.27,3.78,1.32,4.86-0.25c3.14-4.57,6.29-10.16,9.14-15.99" style="fill:none;stroke:#999;stroke-width:3"></path>
<path d="M582.25,24.78c1.28,0.44,2.78,0.53,4.07,0.44c11.8-0.81,37.08-4.02,50.69-4.08c2.14-0.01,3.42,0.21,4.49,0.43" style="fill:none;stroke:#999;stroke-width:3"></path>
<path d="M593.72,14.03c1.68,1.35,2.22,1.76,2.4,2.59c1.68,7.77,3.12,15.77,3.6,18.59" style="fill:none;stroke:#999;stroke-width:3"></path>
<path d="M621.5,10.79c0.27,1.08,0.61,1.88,0.32,3.2c-1.74,7.76-2.53,11.65-4.42,18.95" style="fill:none;stroke:#999;stroke-width:3"></path>

<path d="M671.38,15.5c4.19,1.6,10.82,6.6,11.87,9.09" style="fill:none;stroke:#999;stroke-width:3"></path>
<path d="M666.75,42c4.5,1.76,11.62,7.26,12.75,10" style="fill:none;stroke:#999;stroke-width:3"></path>
<path d="M668.25,88.23c1.71,1.27,3.78,1.32,4.86-0.25c3.14-4.57,6.29-10.16,9.14-15.99" style="fill:none;stroke:#999;stroke-width:3"></path>
<path d="M691.25,24.78c1.28,0.44,2.78,0.53,4.07,0.44c11.8-0.81,37.08-4.02,50.69-4.08c2.14-0.01,3.42,0.21,4.49,0.43" style="fill:none;stroke:#999;stroke-width:3"></path>
<path d="M702.72,14.03c1.68,1.35,2.22,1.76,2.4,2.59c1.68,7.77,3.12,15.77,3.6,18.59" style="fill:none;stroke:#999;stroke-width:3"></path>
<path d="M730.5,10.79c0.27,1.08,0.61,1.88,0.32,3.2c-1.74,7.76-2.53,11.65-4.42,18.95" style="fill:none;stroke:#999;stroke-width:3"></path>
<path d="M688.22,43.98c1.7,0.44,4.81,0.55,6.51,0.44c10.11-0.62,39.83-4.06,53.87-4.64c2.82-0.12,4.53,0.21,5.94,0.43" style="fill:none;stroke:#999;stroke-width:3"></path>

<path d="M780.38,15.5c4.19,1.6,10.82,6.6,11.87,9.09" style="fill:none;stroke:#999;stroke-width:3"></path>
<path d="M775.75,42c4.5,1.76,11.62,7.26,12.75,10" style="fill:none;stroke:#999;stroke-width:3"></path>
<path d="M777.25,88.23c1.71,1.27,3.78,1.32,4.86-0.25c3.14-4.57,6.29-10.16,9.14-15.99" style="fill:none;stroke:#999;stroke-width:3"></path>
<path d="M800.25,24.78c1.28,0.44,2.78,0.53,4.07,0.44c11.8-0.81,37.08-4.02,50.69-4.08c2.14-0.01,3.42,0.21,4.49,0.43" style="fill:none;stroke:#999;stroke-width:3"></path>
<path d="M811.72,14.03c1.68,1.35,2.22,1.76,2.4,2.59c1.68,7.77,3.12,15.77,3.6,18.59" style="fill:none;stroke:#999;stroke-width:3"></path>
<path d="M839.5,10.79c0.27,1.08,0.61,1.88,0.32,3.2c-1.74,7.76-2.53,11.65-4.42,18.95" style="fill:none;stroke:#999;stroke-width:3"></path>
<path d="M797.22,43.98c1.7,0.44,4.81,0.55,6.51,0.44c10.11-0.62,39.83-4.06,53.87-4.64c2.82-0.12,4.53,0.21,5.94,0.43" style="fill:none;stroke:#999;stroke-width:3"></path>
<path d="M805.83,57.21c0.35,0.36,0.72,0.66,0.87,1.12c1.23,3.58,2.2,14.44,3.04,20.88" style="fill:none;stroke:#999;stroke-width:3"></path>

<path d="M889.38,15.5c4.19,1.6,10.82,6.6,11.87,9.09" style="fill:none;stroke:#999;stroke-width:3"></path>
<path d="M884.75,42c4.5,1.76,11.62,7.26,12.75,10" style="fill:none;stroke:#999;stroke-width:3"></path>
<path d="M886.25,88.23c1.71,1.27,3.78,1.32,4.86-0.25c3.14-4.57,6.29-10.16,9.14-15.99" style="fill:none;stroke:#999;stroke-width:3"></path>
<path d="M909.25,24.78c1.28,0.44,2.78,0.53,4.07,0.44c11.8-0.81,37.08-4.02,50.69-4.08c2.14-0.01,3.42,0.21,4.49,0.43" style="fill:none;stroke:#999;stroke-width:3"></path>
<path d="M920.72,14.03c1.68,1.35,2.22,1.76,2.4,2.59c1.68,7.77,3.12,15.77,3.6,18.59" style="fill:none;stroke:#999;stroke-width:3"></path>
<path d="M948.5,10.79c0.27,1.08,0.61,1.88,0.32,3.2c-1.74,7.76-2.53,11.65-4.42,18.95" style="fill:none;stroke:#999;stroke-width:3"></path>
<path d="M906.22,43.98c1.7,0.44,4.81,0.55,6.51,0.44c10.11-0.62,39.83-4.06,53.87-4.64c2.82-0.12,4.53,0.21,5.94,0.43" style="fill:none;stroke:#999;stroke-width:3"></path>
<path d="M914.83,57.21c0.35,0.36,0.72,0.66,0.87,1.12c1.23,3.58,2.2,14.44,3.04,20.88" style="fill:none;stroke:#999;stroke-width:3"></path>
<path d="M916.4,59.36c6.83-1.66,15.64-3.05,19.55-3.47c1.43-0.15,2.7,1.39,2.58,2.3C938.0,62.2,936.0,67.5,934.94,74.14" style="fill:none;stroke:#999;stroke-width:3"></path>

<path d="M998.38,15.5c4.19,1.6,10.82,6.6,11.87,9.09" style="fill:none;stroke:#999;stroke-width:3"></path>
<path d="M993.75,42c4.5,1.76,11.62,7.26,12.75,10" style="fill:none;stroke:#999;stroke-width:3"></path>
<path d="M995.25,88.23c1.71,1.27,3.78,1.32,4.86-0.25c3.14-4.57,6.29-10.16,9.14-15.99" style="fill:none;stroke:#999;stroke-width:3"></path>
<path d="M1018.25,24.78c1.28,0.44,2.78,0.53,4.07,0.44c11.8-0.81,37.08-4.02,50.69-4.08c2.14-0.01,3.42,0.21,4.49,0.43" style="fill:none;stroke:#999;stroke-width:3"></path>
<path d="M1029.72,14.03c1.68,1.35,2.22,1.76,2.4,2.59c1.68,7.77,3.12,15.77,3.6,18.59" style="fill:none;stroke:#999;stroke-width:3"></path>
<path d="M1057.5,10.79c0.27,1.08,0.61,1.88,0.32,3.2c-1.74,7.76-2.53,11.65-4.42,18.95" style="fill:none;stroke:#999;stroke-width:3"></path>
<path d="M1015.22,43.98c1.7,0.44,4.81,0.55,6.51,0.44c10.11-0.62,39.83-4.06,53.87-4.64c2.82-0.12,4.53,0.21,5.94,0.43" style="fill:none;stroke:#999;stroke-width:3"></path>
<path d="M1023.83,57.21c0.35,0.36,0.72,0.66,0.87,1.12c1.23,3.58,2.2,14.44,3.04,20.88" style="fill:none;stroke:#999;stroke-width:3"></path>
<path d="M1025.4,59.36c6.83-1.66,15.64-3.05,19.55-3.47c1.43-0.15,2.7,1.39,2.58,2.3C1047.0,62.2,1045.0,67.5,1043.94,74.14" style="fill:none;stroke:#999;stroke-width:3"></path>
<path d="M1027.64,76.05c4.59-0.47,11.92-1.22,18.23-1.94" style="fill:none;stroke:#999;stroke-width:3"></path>

<path d="M1107.38,15.5c4.19,1.6,10.82,6.6,11.87,9.09" style="fill:none;stroke:#999;stroke-width:3"></path>
<path d="M1102.75,42c4.5,1.76,11.62,7.26,12.75,10" style="fill:none;stroke:#999;stroke-width:3"></path>
<path d="M1104.25,88.23c1.71,1.27,3.78,1.32,4.86-0.25c3.14-4.57,6.29-10.16,9.14-15.99" style="fill:none;stroke:#999;stroke-width:3"></path>
<path d="M1127.25,24.78c1.28,0.44,2.78,0.53,4.07,0.44c11.8-0.81,37.08-4.02,50.69-4.08c2.14-0.01,3.42,0.21,4.49,0.43" style="fill:none;stroke:#999;stroke-width:3"></path>
<path d="M1138.72,14.03c1.68,1.35,2.22,1.76,2.4,2.59c1.68,7.77,3.12,15.77,3.6,18.59" style="fill:none;stroke:#999;stroke-width:3"></path>
<path d="M1166.5,10.79c0.27,1.08,0.61,1.88,0.32,3.2c-1.74,7.76-2.53,11.65-4.42,18.95" style="fill:none;stroke:#999;stroke-width:3"></path>
<path d="M1124.22,43.98c1.7,0.44,4.81,0.55,6.51,0.44c10.11-0.62,39.83-4.06,53.87-4.64c2.82-0.12,4.53,0.21,5.94,0.43" style="fill:none;stroke:#999;stroke-width:3"></path>
<path d="M1132.83,57.21c0.35,0.36,0.72,0.66,0.87,1.12c1.23,3.58,2.2,14.44,3.04,20.88" style="fill:none;stroke:#999;stroke-width:3"></path>
<path d="M1134.4,59.36c6.83-1.66,15.64-3.05,19.55-3.47c1.43-0.15,2.7,1.39,2.58,2.3C1156.0,62.2,1154.0,67.5,1152.94,74.14" style="fill:none;stroke:#999;stroke-width:3"></path>
<path d="M1136.64,76.05c4.59-0.47,11.92-1.22,18.23-1.94" style="fill:none;stroke:#999;stroke-width:3"></path>
<path d="M1169.66,42.01c0.07,0.39,1.82,2.46,1.89,4.93c0.32,11.86-0.2,43.83-0.2,47.87c0,7.8-8.21-1.21-9.39-2.23" style="fill:none;stroke:#999;stroke-width:3"></path>

</svg>