<svg width="1308px" height="109px" viewBox="0 0 1308 109" xmlns="http://www.w3.org/2000/svg" xmlns:xlink="http://www.w3.org/1999/xlink" xml:space="preserve" version="1.1" baseProfile="full">
<line x1="1" y1="1" x2="1307" y2="1" style="stroke:#ddd;stroke-width:2"></line>
<line x1="1" y1="1" x2="1" y2="108" style="stroke:#ddd;stroke-width:2"></line>
<line x1="1" y1="108" x2="1307" y2="108" style="stroke:#ddd;stroke-width:2"></line>
<line x1="1307" y1="1" x2="1307" y2="108" style="stroke:#ddd;stroke-width:2"></line>
<line x1="109" y1="1" x2="109" y2="108" style="stroke:#ddd;stroke-width:2"></line>
<line x1="218" y1="1" x2="218" y2="108" style="stroke:#ddd;stroke-width:2"></line>
<line x1="327" y1="1" x2="327" y2="108" style="stroke:#ddd;stroke-width:2"></line>
<line x1="436" y1="1" x2="436" y2="108" style="stroke:#ddd;stroke-width:2"></line>
<line x1="545" y1="1" x2="545" y2="108" style="stroke:#ddd;stroke-width:2"></line>
<line x1="654" y1="1" x2="654" y2="108" style="stroke:#ddd;stroke-width:2"></line>
<line x1="763" y1="1" x2="763" y2="108" style="stroke:#ddd;stroke-width:2"></line>
<line x1="872" y1="1" x2="872" y2="108" style="stroke:#ddd;stroke-width:2"></line>
<line x1="981" y1="1" x2="981" y2="108" style="stroke:#ddd;stroke-width:2"></line>
<line x1="1090" y1="1" x2="1090" y2="108" style="stroke:#ddd;stroke-width:2"></line>
<line x1="1199" y1="1" x2="1199" y2="108" style="stroke:#ddd;stroke-width:2"></line>
<line x1="1" y1="54" x2="1307" y2="54" style="stroke:#ddd;stroke-width:2;stroke-dasharray:3 3"></line>
<line x1="55" y1="1" x2="55" y2="108" style="stroke:#ddd;stroke-width:2;stroke-dasharray:3 3"></line>
<line x1="164" y1="1" x2="164" y2="108" style="stroke:#ddd;stroke-width:2;stroke-dasharray:3 3"></line>
<line x1="273" y1="1" x2="273" y2="108" style="stroke:#ddd;stroke-width:2;stroke-dasharray:3 3"></line>
<line x1="382" y1="1" x2="382" y2="108" style="stroke:#ddd;stroke-width:2;stroke-dasharray:3 3"></line>
<line x1="491" y1="1" x2="491" y2="108" style="stroke:#ddd;stroke-width:2;stroke-dasharray:3 3"></line>
<line x1="600" y1="1" x2="600" y2="108" style="stroke:#ddd;stroke-width:2;stroke-dasharray:3 3"></line>
<line x1="709" y1="1" x2="709" y2="108" style="stroke:#ddd;stroke-width:2;stroke-dasharray:3 3"></line>
<line x1="818" y1="1" x2="818" y2="108" style="stroke:#ddd;stroke-width:2;stroke-dasharray:3 3"></line>
<line x1="927" y1="1" x2="927" y2="108" style="stroke:#ddd;stroke-width:2;stroke-dasharray:3 3"></line>
<line x1="1036" y1="1" x2="1036" y2="108" style="stroke:#ddd;stroke-width:2;stroke-dasharray:3 3"></line>
<line x1="1145" y1="1" x2="1145" y2="108" style="stroke:#ddd;stroke-width:2;stroke-dasharray:3 3"></line>
<line x1="1254" y1="1" x2="1254" y2="108" style="stroke:#ddd;stroke-width:2;stroke-dasharray:3 3"></line>
<path d="M16.13,14.5c4.28,1.6,11.05,6.6,12.12,9.09" style="fill:none;stroke:#999;stroke-width:3"></path>

<path d="M125.13,14.5c4.28,1.6,11.05,6.6,12.12,9.09" style="fill:none;stroke:#999;stroke-width:3"></path>
<path d="M121.5,40.75c4.59,1.63,11.85,6.71,13,9.25" style="fill:none;stroke:#999;stroke-width:3"></path>

<path d="M234.13,14.5c4.28,1.6,11.05,6.6,12.12,9.09" style="fill:none;stroke:#999;stroke-width:3"></path>
<path d="M230.5,40.75c4.59,1.63,11.85,6.71,13,9.25" style="fill:none;stroke:#999;stroke-width:3"></path>
<path d="M230.75,89.23c1.71,1.27,3.78,1.32,4.86-0.25c3.14-4.57,8.79-13.16,11.64-18.99" style="fill:none;stroke:#999;stroke-width:3"></path>

<path d="M343.13,14.5c4.28,1.6,11.05,6.6,12.12,9.09" style="fill:none;stroke:#999;stroke-width:3"></path>
<path d="M339.5,40.75c4.59,1.63,11.85,6.71,13,9.25" style="fill:none;stroke:#999;stroke-width:3"></path>
<path d="M339.75,89.23c1.71,1.27,3.78,1.32,4.86-0.25c3.14-4.57,8.79-13.16,11.64-18.99" style="fill:none;stroke:#999;stroke-width:3"></path>
<path d="M367.75,15.09c-0.15,3.8-3.7,13.75-4.97,16.01" style="fill:none;stroke:#999;stroke-width:3"></path>

<path d="M452.13,14.5c4.28,1.6,11.05,6.6,12.12,9.09" style="fill:none;stroke:#999;stroke-width:3"></path>
<path d="M448.5,40.75c4.59,1.63,11.85,6.71,13,9.25" style="fill:none;stroke:#999;stroke-width:3"></path>
<path d="M448.75,89.23c1.71,1.27,3.78,1.32,4.86-0.25c3.14-4.57,8.79-13.16,11.64-18.99" style="fill:none;stroke:#999;stroke-width:3"></path>
<path d="M476.75,15.09c-0.15,3.8-3.7,13.75-4.97,16.01" style="fill:none;stroke:#999;stroke-width:3"></path>
<path d="M477.1,16.89c6.75-0.71,34.52-2.27,47.87-2.83c10.15-0.43,1.08,7.53-0.17,8.72" style="fill:none;stroke:#999;stroke-width:3"></path>

<path d="M561.13,14.5c4.28,1.6,11.05,6.6,12.12,9.09" style="fill:none;stroke:#999;stroke-width:3"></path>
<path d="M557.5,40.75c4.59,1.63,11.85,6.71,13,9.25" style="fill:none;stroke:#999;stroke-width:3"></path>
<path d="M557.75,89.23c1.71,1.27,3.78,1.32,4.86-0.25c3.14-4.57,8.79-13.16,11.64-18.99" style="fill:none;stroke:#999;stroke-width:3"></path>
<path d="M585.75,15.09c-0.15,3.8-3.7,13.75-4.97,16.01" style="fill:none;stroke:#999;stroke-width:3"></path>
<path d="M586.1,16.89c6.75-0.71,34.52-2.27,47.87-2.83c10.15-0.43,1.08,7.53-0.17,8.72" style="fill:none;stroke:#999;stroke-width:3"></path>
<path d="M586.54,33.45c1.21,0.26,3.42,0.32,4.63,0.26c11.67-0.58,22.91-2.36,36.54-2.69c2.01-0.05,3.22,0.13,4.23,0.26" style="fill:none;stroke:#999;stroke-width:3"></path>

<path d="M670.13,14.5c4.28,1.6,11.05,6.6,12.12,9.09" style="fill:none;stroke:#999;stroke-width:3"></path>
<path d="M666.5,40.75c4.59,1.63,11.85,6.71,13,9.25" style="fill:none;stroke:#999;stroke-width:3"></path>
<path d="M666.75,89.23c1.71,1.27,3.78,1.32,4.86-0.25c3.14-4.57,8.79-13.16,11.64-18.99" style="fill:none;stroke:#999;stroke-width:3"></path>
<path d="M694.75,15.09c-0.15,3.8-3.7,13.75-4.97,16.01" style="fill:none;stroke:#999;stroke-width:3"></path>
<path d="M695.1,16.89c6.75-0.71,34.52-2.27,47.87-2.83c10.15-0.43,1.08,7.53-0.17,8.72" style="fill:none;stroke:#999;stroke-width:3"></path>
<path d="M695.54,33.45c1.21,0.26,3.42,0.32,4.63,0.26c11.67-0.58,22.91-2.36,36.54-2.69c2.01-0.05,3.22,0.13,4.23,0.26" style="fill:none;stroke:#999;stroke-width:3"></path>
<path d="M696.65,42.46c0.65,0.53,1.48,2,1.6,2.66c0.96,5.27,1.98,14.42,3.14,22.92" style="fill:none;stroke:#999;stroke-width:3"></path>

<path d="M779.13,14.5c4.28,1.6,11.05,6.6,12.12,9.09" style="fill:none;stroke:#999;stroke-width:3"></path>
<path d="M775.5,40.75c4.59,1.63,11.85,6.71,13,9.25" style="fill:none;stroke:#999;stroke-width:3"></path>
<path d="M775.75,89.23c1.71,1.27,3.78,1.32,4.86-0.25c3.14-4.57,8.79-13.16,11.64-18.99" style="fill:none;stroke:#999;stroke-width:3"></path>
<path d="M803.75,15.09c-0.15,3.8-3.7,13.75-4.97,16.01" style="fill:none;stroke:#999;stroke-width:3"></path>
<path d="M804.1,16.89c6.75-0.71,34.52-2.27,47.87-2.83c10.15-0.43,1.08,7.53-0.17,8.72" style="fill:none;stroke:#999;stroke-width:3"></path>
<path d="M804.54,33.45c1.21,0.26,3.42,0.32,4.63,0.26c11.67-0.58,22.91-2.36,36.54-2.69c2.01-0.05,3.22,0.13,4.23,0.26" style="fill:none;stroke:#999;stroke-width:3"></path>
<path d="M805.65,42.46c0.65,0.53,1.48,2,1.6,2.66c0.96,5.27,1.98,14.42,3.14,22.92" style="fill:none;stroke:#999;stroke-width:3"></path>
<path d="M808.15,43.89c9.91-0.45,31.15-3.21,37.9-3.01c2.79,0.08,3.37,1.46,3.24,2.94c-0.42,5.07-2.54,13.19-3.8,21.57" style="fill:none;stroke:#999;stroke-width:3"></path>

<path d="M888.13,14.5c4.28,1.6,11.05,6.6,12.12,9.09" style="fill:none;stroke:#999;stroke-width:3"></path>
<path d="M884.5,40.75c4.59,1.63,11.85,6.71,13,9.25" style="fill:none;stroke:#999;stroke-width:3"></path>
<path d="M884.75,89.23c1.71,1.27,3.78,1.32,4.86-0.25c3.14-4.57,8.79-13.16,11.64-18.99" style="fill:none;stroke:#999;stroke-width:3"></path>
<path d="M912.75,15.09c-0.15,3.8-3.7,13.75-4.97,16.01" style="fill:none;stroke:#999;stroke-width:3"></path>
<path d="M913.1,16.89c6.75-0.71,34.52-2.27,47.87-2.83c10.15-0.43,1.08,7.53-0.17,8.72" style="fill:none;stroke:#999;stroke-width:3"></path>
<path d="M913.54,33.45c1.21,0.26,3.42,0.32,4.63,0.26c11.67-0.58,22.91-2.36,36.54-2.69c2.01-0.05,3.22,0.13,4.23,0.26" style="fill:none;stroke:#999;stroke-width:3"></path>
<path d="M914.65,42.46c0.65,0.53,1.48,2,1.6,2.66c0.96,5.27,1.98,14.42,3.14,22.92" style="fill:none;stroke:#999;stroke-width:3"></path>
<path d="M917.15,43.89c9.91-0.45,31.15-3.21,37.9-3.01c2.79,0.08,3.37,1.46,3.24,2.94c-0.42,5.07-2.54,13.19-3.8,21.57" style="fill:none;stroke:#999;stroke-width:3"></path>
<path d="M917.96,54.24c9.29-0.74,25.29-1.99,38.63-2.3" style="fill:none;stroke:#999;stroke-width:3"></path>

<path d="M997.13,14.5c4.28,1.6,11.05,6.6,12.12,9.09" style="fill:none;stroke:#999;stroke-width:3"></path>
<path d="M993.5,40.75c4.59,1.63,11.85,6.71,13,9.25" style="fill:none;stroke:#999;stroke-width:3"></path>
<path d="M993.75,89.23c1.71,1.27,3.78,1.32,4.86-0.25c3.14-4.57,8.79-13.16,11.64-18.99" style="fill:none;stroke:#999;stroke-width:3"></path>
<path d="M1021.75,15.09c-0.15,3.8-3.7,13.75-4.97,16.01" style="fill:none;stroke:#999;stroke-width:3"></path>
<path d="M1022.1,16.89c6.75-0.71,34.52-2.27,47.87-2.83c10.15-0.43,1.08,7.53-0.17,8.72" style="fill:none;stroke:#999;stroke-width:3"></path>
<path d="M1022.54,33.45c1.21,0.26,3.42,0.32,4.63,0.26c11.67-0.58,22.91-2.36,36.54-2.69c2.01-0.05,3.22,0.13,4.23,0.26" style="fill:none;stroke:#999;stroke-width:3"></path>
<path d="M1023.65,42.46c0.65,0.53,1.48,2,1.6,2.66c0.96,5.27,1.98,14.42,3.14,22.92" style="fill:none;stroke:#999;stroke-width:3"></path>
<path d="M1026.15,43.89c9.91-0.45,31.15-3.21,37.9-3.01c2.79,0.08,3.37,1.46,3.24,2.94c-0.42,5.07-2.54,13.19-3.8,21.57" style="fill:none;stroke:#999;stroke-width:3"></path>
<path d="M1026.96,54.24c9.29-0.74,25.29-1.99,38.63-2.3" style="fill:none;stroke:#999;stroke-width:3"></path>
<path d="M1028.44,65.03c8.68-0.54,24.31-1.53,35.11-2.15" style="fill:none;stroke:#999;stroke-width:3"></path>

<path d="M1106.13,14.5c4.28,1.6,11.05,6.6,12.12,9.09" style="fill:none;stroke:#999;stroke-width:3"></path>
<path d="M1102.5,40.75c4.59,1.63,11.85,6.71,13,9.25" style="fill:none;stroke:#999;stroke-width:3"></path>
<path d="M1102.75,89.23c1.71,1.27,3.78,1.32,4.86-0.25c3.14-4.57,8.79-13.16,11.64-18.99" style="fill:none;stroke:#999;stroke-width:3"></path>
<path d="M1130.75,15.09c-0.15,3.8-3.7,13.75-4.97,16.01" style="fill:none;stroke:#999;stroke-width:3"></path>
<path d="M1131.1,16.89c6.75-0.71,34.52-2.27,47.87-2.83c10.15-0.43,1.08,7.53-0.17,8.72" style="fill:none;stroke:#999;stroke-width:3"></path>
<path d="M1131.54,33.45c1.21,0.26,3.42,0.32,4.63,0.26c11.67-0.58,22.91-2.36,36.54-2.69c2.01-0.05,3.22,0.13,4.23,0.26" style="fill:none;stroke:#999;stroke-width:3"></path>
<path d="M1132.65,42.46c0.65,0.53,1.48,2,1.6,2.66c0.96,5.27,1.98,14.42,3.14,22.92" style="fill:none;stroke:#999;stroke-width:3"></path>
<path d="M1135.15,43.89c9.91-0.45,31.15-3.21,37.9-3.01c2.79,0.08,3.37,1.46,3.24,2.94c-0.42,5.07-2.54,13.19-3.8,21.57" style="fill:none;stroke:#999;stroke-width:3"></path>
<path d="M1135.96,54.24c9.29-0.74,25.29-1.99,38.63-2.3" style="fill:none;stroke:#999;stroke-width:3"></path>
<path d="M1137.44,65.03c8.68-0.54,24.31-1.53,35.11-2.15" style="fill:none;stroke:#999;stroke-width:3"></path>
<path d="M1124.18,76.75c1.5,0.84,4.21,0.9,5.73,0.84C1144.0,77,1162.5,75.5,1181.6,75.51c2.49,0,3.98,0.4,5.23,0.82" style="fill:none;stroke:#999;stroke-width:3"></path>

<path d="M1215.13,14.5c4.28,1.6,11.05,6.6,12.12,9.09" style="fill:none;stroke:#999;stroke-width:3"></path>
<path d="M1211.5,40.75c4.59,1.63,11.85,6.71,13,9.25" style="fill:none;stroke:#999;stroke-width:3"></path>
<path d="M1211.75,89.23c1.71,1.27,3.78,1.32,4.86-0.25c3.14-4.57,8.79-13.16,11.64-18.99" style="fill:none;stroke:#999;stroke-width:3"></path>
<path d="M1239.75,15.09c-0.15,3.8-3.7,13.75-4.97,16.01" style="fill:none;stroke:#999;stroke-width:3"></path>
<path d="M1240.1,16.89c6.75-0.71,34.52-2.27,47.87-2.83c10.15-0.43,1.08,7.53-0.17,8.72" style="fill:none;stroke:#999;stroke-width:3"></path>
<path d="M1240.54,33.45c1.21,0.26,3.42,0.32,4.63,0.26c11.67-0.58,22.91-2.36,36.54-2.69c2.01-0.05,3.22,0.13,4.23,0.26" style="fill:none;stroke:#999;stroke-width:3"></path>
<path d="M1241.65,42.46c0.65,0.53,1.48,2,1.6,2.66c0.96,5.27,1.98,14.42,3.14,22.92" style="fill:none;stroke:#999;stroke-width:3"></path>
<path d="M1244.15,43.89c9.91-0.45,31.15-3.21,37.9-3.01c2.79,0.08,3.37,1.46,3.24,2.94c-0.42,5.07-2.54,13.19-3.8,21.57" style="fill:none;stroke:#999;stroke-width:3"></path>
<path d="M1244.96,54.24c9.29-0.74,25.29-1.99,38.63-2.3" style="fill:none;stroke:#999;stroke-width:3"></path>
<path d="M1246.44,65.03c8.68-0.54,24.31-1.53,35.11-2.15" style="fill:none;stroke:#999;stroke-width:3"></path>
<path d="M1233.18,76.75c1.5,0.84,4.21,0.9,5.73,0.84C1253.0,77,1271.5,75.5,1290.6,75.51c2.49,0,3.98,0.4,5.23,0.82" style="fill:none;stroke:#999;stroke-width:3"></path>
<path d="M1262.23,19.85c0.61,0.6,1.52,1.4,1.52,3.71c0,4.94-0.08,69.56-0.2,77.07" style="fill:none;stroke:#999;stroke-width:3"></path>

</svg>