<svg width="1417px" height="109px" viewBox="0 0 1417 109" xmlns="http://www.w3.org/2000/svg" xmlns:xlink="http://www.w3.org/1999/xlink" xml:space="preserve" version="1.1" baseProfile="full">
<line x1="1" y1="1" x2="1416" y2="1" style="stroke:#ddd;stroke-width:2"></line>
<line x1="1" y1="1" x2="1" y2="108" style="stroke:#ddd;stroke-width:2"></line>
<line x1="1" y1="108" x2="1416" y2="108" style="stroke:#ddd;stroke-width:2"></line>
<line x1="1416" y1="1" x2="1416" y2="108" style="stroke:#ddd;stroke-width:2"></line>
<line x1="109" y1="1" x2="109" y2="108" style="stroke:#ddd;stroke-width:2"></line>
<line x1="218" y1="1" x2="218" y2="108" style="stroke:#ddd;stroke-width:2"></line>
<line x1="327" y1="1" x2="327" y2="108" style="stroke:#ddd;stroke-width:2"></line>
<line x1="436" y1="1" x2="436" y2="108" style="stroke:#ddd;stroke-width:2"></line>
<line x1="545" y1="1" x2="545" y2="108" style="stroke:#ddd;stroke-width:2"></line>
<line x1="654" y1="1" x2="654" y2="108" style="stroke:#ddd;stroke-width:2"></line>
<line x1="763" y1="1" x2="763" y2="108" style="stroke:#ddd;stroke-width:2"></line>
<line x1="872" y1="1" x2="872" y2="108" style="stroke:#ddd;stroke-width:2"></line>
<line x1="981" y1="1" x2="981" y2="108" style="stroke:#ddd;stroke-width:2"></line>
<line x1="1090" y1="1" x2="1090" y2="108" style="stroke:#ddd;stroke-width:2"></line>
<line x1="1199" y1="1" x2="1199" y2="108" style="stroke:#ddd;stroke-width:2"></line>
<line x1="1308" y1="1" x2="1308" y2="108" style="stroke:#ddd;stroke-width:2"></line>
<line x1="1" y1="54" x2="1416" y2="54" style="stroke:#ddd;stroke-width:2;stroke-dasharray:3 3"></line>
<line x1="55" y1="1" x2="55" y2="108" style="stroke:#ddd;stroke-width:2;stroke-dasharray:3 3"></line>
<line x1="164" y1="1" x2="164" y2="108" style="stroke:#ddd;stroke-width:2;stroke-dasharray:3 3"></line>
<line x1="273" y1="1" x2="273" y2="108" style="stroke:#ddd;stroke-width:2;stroke-dasharray:3 3"></line>
<line x1="382" y1="1" x2="382" y2="108" style="stroke:#ddd;stroke-width:2;stroke-dasharray:3 3"></line>
<line x1="491" y1="1" x2="491" y2="108" style="stroke:#ddd;stroke-width:2;stroke-dasharray:3 3"></line>
<line x1="600" y1="1" x2="600" y2="108" style="stroke:#ddd;stroke-width:2;stroke-dasharray:3 3"></line>
<line x1="709" y1="1" x2="709" y2="108" style="stroke:#ddd;stroke-width:2;stroke-dasharray:3 3"></line>
<line x1="818" y1="1" x2="818" y2="108" style="stroke:#ddd;stroke-width:2;stroke-dasharray:3 3"></line>
<line x1="927" y1="1" x2="927" y2="108" style="stroke:#ddd;stroke-width:2;stroke-dasharray:3 3"></line>
<line x1="1036" y1="1" x2="1036" y2="108" style="stroke:#ddd;stroke-width:2;stroke-dasharray:3 3"></line>
<line x1="1145" y1="1" x2="1145" y2="108" style="stroke:#ddd;stroke-width:2;stroke-dasharray:3 3"></line>
<line x1="1254" y1="1" x2="1254" y2="108" style="stroke:#ddd;stroke-width:2;stroke-dasharray:3 3"></line>
<line x1="1363" y1="1" x2="1363" y2="108" style="stroke:#ddd;stroke-width:2;stroke-dasharray:3 3"></line>
<path d="M17.13,17c4.1,1.6,10.59,6.6,11.62,9.09" style="fill:none;stroke:#999;stroke-width:3"></path>

<path d="M126.13,17c4.1,1.6,10.59,6.6,11.62,9.09" style="fill:none;stroke:#999;stroke-width:3"></path>
<path d="M122.0,42.5c4.24,1.41,10.94,5.8,12,8" style="fill:none;stroke:#999;stroke-width:3"></path>

<path d="M235.13,17c4.1,1.6,10.59,6.6,11.62,9.09" style="fill:none;stroke:#999;stroke-width:3"></path>
<path d="M231.0,42.5c4.24,1.41,10.94,5.8,12,8" style="fill:none;stroke:#999;stroke-width:3"></path>
<path d="M231.25,90.23c2.5,0.77,4.95,0.43,5.86-1.25c3.39-6.24,5.79-13.66,8.64-19.49" style="fill:none;stroke:#999;stroke-width:3"></path>

<path d="M344.13,17c4.1,1.6,10.59,6.6,11.62,9.09" style="fill:none;stroke:#999;stroke-width:3"></path>
<path d="M340.0,42.5c4.24,1.41,10.94,5.8,12,8" style="fill:none;stroke:#999;stroke-width:3"></path>
<path d="M340.25,90.23c2.5,0.77,4.95,0.43,5.86-1.25c3.39-6.24,5.79-13.66,8.64-19.49" style="fill:none;stroke:#999;stroke-width:3"></path>
<path d="M364.53,16.71c2.57,2.44,6.65,10.05,7.29,13.85" style="fill:none;stroke:#999;stroke-width:3"></path>

<path d="M453.13,17c4.1,1.6,10.59,6.6,11.62,9.09" style="fill:none;stroke:#999;stroke-width:3"></path>
<path d="M449.0,42.5c4.24,1.41,10.94,5.8,12,8" style="fill:none;stroke:#999;stroke-width:3"></path>
<path d="M449.25,90.23c2.5,0.77,4.95,0.43,5.86-1.25c3.39-6.24,5.79-13.66,8.64-19.49" style="fill:none;stroke:#999;stroke-width:3"></path>
<path d="M473.53,16.71c2.57,2.44,6.65,10.05,7.29,13.85" style="fill:none;stroke:#999;stroke-width:3"></path>
<path d="M497.15999999999997,14.14c0.02,0.44,0.05,1.13-0.05,1.76c-0.58,3.71-3.9,11.85-8.45,16.83" style="fill:none;stroke:#999;stroke-width:3"></path>

<path d="M562.13,17c4.1,1.6,10.59,6.6,11.62,9.09" style="fill:none;stroke:#999;stroke-width:3"></path>
<path d="M558.0,42.5c4.24,1.41,10.94,5.8,12,8" style="fill:none;stroke:#999;stroke-width:3"></path>
<path d="M558.25,90.23c2.5,0.77,4.95,0.43,5.86-1.25c3.39-6.24,5.79-13.66,8.64-19.49" style="fill:none;stroke:#999;stroke-width:3"></path>
<path d="M582.53,16.71c2.57,2.44,6.65,10.05,7.29,13.85" style="fill:none;stroke:#999;stroke-width:3"></path>
<path d="M606.16,14.14c0.02,0.44,0.05,1.13-0.05,1.76c-0.58,3.71-3.9,11.85-8.45,16.83" style="fill:none;stroke:#999;stroke-width:3"></path>
<path d="M575.75,36.39c1.12,0.38,3.16,0.42,4.28,0.38c9.09-0.27,22.06-4.83,28.94-4.38c1.85,0.12,2.98,0.18,3.91,0.37" style="fill:none;stroke:#999;stroke-width:3"></path>

<path d="M671.13,17c4.1,1.6,10.59,6.6,11.62,9.09" style="fill:none;stroke:#999;stroke-width:3"></path>
<path d="M667.0,42.5c4.24,1.41,10.94,5.8,12,8" style="fill:none;stroke:#999;stroke-width:3"></path>
<path d="M667.25,90.23c2.5,0.77,4.95,0.43,5.86-1.25c3.39-6.24,5.79-13.66,8.64-19.49" style="fill:none;stroke:#999;stroke-width:3"></path>
<path d="M691.53,16.71c2.57,2.44,6.65,10.05,7.29,13.85" style="fill:none;stroke:#999;stroke-width:3"></path>
<path d="M715.16,14.14c0.02,0.44,0.05,1.13-0.05,1.76c-0.58,3.71-3.9,11.85-8.45,16.83" style="fill:none;stroke:#999;stroke-width:3"></path>
<path d="M684.75,36.39c1.12,0.38,3.16,0.42,4.28,0.38c9.09-0.27,22.06-4.83,28.94-4.38c1.85,0.12,2.98,0.18,3.91,0.37" style="fill:none;stroke:#999;stroke-width:3"></path>
<path d="M691.48,47.38c0.63,0.45,1.35,2.35,1.27,3.25C692.27,56,691.06,60,690.91,65.13c-0.06,2.06,0.69,3.09,2.25,2.75c6.42-1.38,14.08-3.38,23.76-4" style="fill:none;stroke:#999;stroke-width:3"></path>

<path d="M780.13,17c4.1,1.6,10.59,6.6,11.62,9.09" style="fill:none;stroke:#999;stroke-width:3"></path>
<path d="M776.0,42.5c4.24,1.41,10.94,5.8,12,8" style="fill:none;stroke:#999;stroke-width:3"></path>
<path d="M776.25,90.23c2.5,0.77,4.95,0.43,5.86-1.25c3.39-6.24,5.79-13.66,8.64-19.49" style="fill:none;stroke:#999;stroke-width:3"></path>
<path d="M800.53,16.71c2.57,2.44,6.65,10.05,7.29,13.85" style="fill:none;stroke:#999;stroke-width:3"></path>
<path d="M824.16,14.14c0.02,0.44,0.05,1.13-0.05,1.76c-0.58,3.71-3.9,11.85-8.45,16.83" style="fill:none;stroke:#999;stroke-width:3"></path>
<path d="M793.75,36.39c1.12,0.38,3.16,0.42,4.28,0.38c9.09-0.27,22.06-4.83,28.94-4.38c1.85,0.12,2.98,0.18,3.91,0.37" style="fill:none;stroke:#999;stroke-width:3"></path>
<path d="M800.48,47.38c0.63,0.45,1.35,2.35,1.27,3.25C801.27,56,800.06,60,799.91,65.13c-0.06,2.06,0.69,3.09,2.25,2.75c6.42-1.38,14.08-3.38,23.76-4" style="fill:none;stroke:#999;stroke-width:3"></path>
<path d="M826.49,42.63c0.64,0.45,1.31,3.34,1.27,4.25c-0.27,6.37-0.98,10.12-1.54,21" style="fill:none;stroke:#999;stroke-width:3"></path>

<path d="M889.13,17c4.1,1.6,10.59,6.6,11.62,9.09" style="fill:none;stroke:#999;stroke-width:3"></path>
<path d="M885.0,42.5c4.24,1.41,10.94,5.8,12,8" style="fill:none;stroke:#999;stroke-width:3"></path>
<path d="M885.25,90.23c2.5,0.77,4.95,0.43,5.86-1.25c3.39-6.24,5.79-13.66,8.64-19.49" style="fill:none;stroke:#999;stroke-width:3"></path>
<path d="M909.53,16.71c2.57,2.44,6.65,10.05,7.29,13.85" style="fill:none;stroke:#999;stroke-width:3"></path>
<path d="M933.16,14.14c0.02,0.44,0.05,1.13-0.05,1.76c-0.58,3.71-3.9,11.85-8.45,16.83" style="fill:none;stroke:#999;stroke-width:3"></path>
<path d="M902.75,36.39c1.12,0.38,3.16,0.42,4.28,0.38c9.09-0.27,22.06-4.83,28.94-4.38c1.85,0.12,2.98,0.18,3.91,0.37" style="fill:none;stroke:#999;stroke-width:3"></path>
<path d="M909.48,47.38c0.63,0.45,1.35,2.35,1.27,3.25C910.27,56,909.06,60,908.91,65.13c-0.06,2.06,0.69,3.09,2.25,2.75c6.42-1.38,14.08-3.38,23.76-4" style="fill:none;stroke:#999;stroke-width:3"></path>
<path d="M935.49,42.63c0.64,0.45,1.31,3.34,1.27,4.25c-0.27,6.37-0.98,10.12-1.54,21" style="fill:none;stroke:#999;stroke-width:3"></path>
<path d="M922.06,37.75c0.62,1.61,1.51,2.88,1.51,4.89c0,18.38-0.57,39.11-18.64,54.33" style="fill:none;stroke:#999;stroke-width:3"></path>

<path d="M998.13,17c4.1,1.6,10.59,6.6,11.62,9.09" style="fill:none;stroke:#999;stroke-width:3"></path>
<path d="M994.0,42.5c4.24,1.41,10.94,5.8,12,8" style="fill:none;stroke:#999;stroke-width:3"></path>
<path d="M994.25,90.23c2.5,0.77,4.95,0.43,5.86-1.25c3.39-6.24,5.79-13.66,8.64-19.49" style="fill:none;stroke:#999;stroke-width:3"></path>
<path d="M1018.53,16.71c2.57,2.44,6.65,10.05,7.29,13.85" style="fill:none;stroke:#999;stroke-width:3"></path>
<path d="M1042.1599999999999,14.14c0.02,0.44,0.05,1.13-0.05,1.76c-0.58,3.71-3.9,11.85-8.45,16.83" style="fill:none;stroke:#999;stroke-width:3"></path>
<path d="M1011.75,36.39c1.12,0.38,3.16,0.42,4.28,0.38c9.09-0.27,22.06-4.83,28.94-4.38c1.85,0.12,2.98,0.18,3.91,0.37" style="fill:none;stroke:#999;stroke-width:3"></path>
<path d="M1018.48,47.38c0.63,0.45,1.35,2.35,1.27,3.25C1019.27,56,1018.06,60,1017.91,65.13c-0.06,2.06,0.69,3.09,2.25,2.75c6.42-1.38,14.08-3.38,23.76-4" style="fill:none;stroke:#999;stroke-width:3"></path>
<path d="M1044.49,42.63c0.64,0.45,1.31,3.34,1.27,4.25c-0.27,6.37-0.98,10.12-1.54,21" style="fill:none;stroke:#999;stroke-width:3"></path>
<path d="M1031.06,37.75c0.62,1.61,1.51,2.88,1.51,4.89c0,18.38-0.57,39.11-18.64,54.33" style="fill:none;stroke:#999;stroke-width:3"></path>
<path d="M1054.77,19.75c0.96,1,1.42,2,1.42,2.99c0,1.05,0.32,19.87,0.32,22.12c0,18.39-4.79,41.64-14.41,50.39" style="fill:none;stroke:#999;stroke-width:3"></path>

<path d="M1107.13,17c4.1,1.6,10.59,6.6,11.62,9.09" style="fill:none;stroke:#999;stroke-width:3"></path>
<path d="M1103.0,42.5c4.24,1.41,10.94,5.8,12,8" style="fill:none;stroke:#999;stroke-width:3"></path>
<path d="M1103.25,90.23c2.5,0.77,4.95,0.43,5.86-1.25c3.39-6.24,5.79-13.66,8.64-19.49" style="fill:none;stroke:#999;stroke-width:3"></path>
<path d="M1127.53,16.71c2.57,2.44,6.65,10.05,7.29,13.85" style="fill:none;stroke:#999;stroke-width:3"></path>
<path d="M1151.1599999999999,14.14c0.02,0.44,0.05,1.13-0.05,1.76c-0.58,3.71-3.9,11.85-8.45,16.83" style="fill:none;stroke:#999;stroke-width:3"></path>
<path d="M1120.75,36.39c1.12,0.38,3.16,0.42,4.28,0.38c9.09-0.27,22.06-4.83,28.94-4.38c1.85,0.12,2.98,0.18,3.91,0.37" style="fill:none;stroke:#999;stroke-width:3"></path>
<path d="M1127.48,47.38c0.63,0.45,1.35,2.35,1.27,3.25C1128.27,56,1127.06,60,1126.9099999999999,65.13c-0.06,2.06,0.69,3.09,2.25,2.75c6.42-1.38,14.08-3.38,23.76-4" style="fill:none;stroke:#999;stroke-width:3"></path>
<path d="M1153.49,42.63c0.64,0.45,1.31,3.34,1.27,4.25c-0.27,6.37-0.98,10.12-1.54,21" style="fill:none;stroke:#999;stroke-width:3"></path>
<path d="M1140.06,37.75c0.62,1.61,1.51,2.88,1.51,4.89c0,18.38-0.57,39.11-18.64,54.33" style="fill:none;stroke:#999;stroke-width:3"></path>
<path d="M1163.77,19.75c0.96,1,1.42,2,1.42,2.99c0,1.05,0.32,19.87,0.32,22.12c0,18.39-4.79,41.64-14.41,50.39" style="fill:none;stroke:#999;stroke-width:3"></path>
<path d="M1166.57,22c2.51-0.23,13.39-2.74,15.26-3c3.34-0.46,4.6,3,4.18,4.38c-0.4,1.33-0.63,45.47-0.63,64.16c0,13.96-5.76,5.65-7.85,3.58" style="fill:none;stroke:#999;stroke-width:3"></path>

<path d="M1216.13,17c4.1,1.6,10.59,6.6,11.62,9.09" style="fill:none;stroke:#999;stroke-width:3"></path>
<path d="M1212.0,42.5c4.24,1.41,10.94,5.8,12,8" style="fill:none;stroke:#999;stroke-width:3"></path>
<path d="M1212.25,90.23c2.5,0.77,4.95,0.43,5.86-1.25c3.39-6.24,5.79-13.66,8.64-19.49" style="fill:none;stroke:#999;stroke-width:3"></path>
<path d="M1236.53,16.71c2.57,2.44,6.65,10.05,7.29,13.85" style="fill:none;stroke:#999;stroke-width:3"></path>
<path d="M1260.1599999999999,14.14c0.02,0.44,0.05,1.13-0.05,1.76c-0.58,3.71-3.9,11.85-8.45,16.83" style="fill:none;stroke:#999;stroke-width:3"></path>
<path d="M1229.75,36.39c1.12,0.38,3.16,0.42,4.28,0.38c9.09-0.27,22.06-4.83,28.94-4.38c1.85,0.12,2.98,0.18,3.91,0.37" style="fill:none;stroke:#999;stroke-width:3"></path>
<path d="M1236.48,47.38c0.63,0.45,1.35,2.35,1.27,3.25C1237.27,56,1236.06,60,1235.9099999999999,65.13c-0.06,2.06,0.69,3.09,2.25,2.75c6.42-1.38,14.08-3.38,23.76-4" style="fill:none;stroke:#999;stroke-width:3"></path>
<path d="M1262.49,42.63c0.64,0.45,1.31,3.34,1.27,4.25c-0.27,6.37-0.98,10.12-1.54,21" style="fill:none;stroke:#999;stroke-width:3"></path>
<path d="M1249.06,37.75c0.62,1.61,1.51,2.88,1.51,4.89c0,18.38-0.57,39.11-18.64,54.33" style="fill:none;stroke:#999;stroke-width:3"></path>
<path d="M1272.77,19.75c0.96,1,1.42,2,1.42,2.99c0,1.05,0.32,19.87,0.32,22.12c0,18.39-4.79,41.64-14.41,50.39" style="fill:none;stroke:#999;stroke-width:3"></path>
<path d="M1275.57,22c2.51-0.23,13.39-2.74,15.26-3c3.34-0.46,4.6,3,4.18,4.38c-0.4,1.33-0.63,45.47-0.63,64.16c0,13.96-5.76,5.65-7.85,3.58" style="fill:none;stroke:#999;stroke-width:3"></path>
<path d="M1274.74,42.5c5.02-0.5,13.17-1.25,19.23-2" style="fill:none;stroke:#999;stroke-width:3"></path>

<path d="M1325.13,17c4.1,1.6,10.59,6.6,11.62,9.09" style="fill:none;stroke:#999;stroke-width:3"></path>
<path d="M1321.0,42.5c4.24,1.41,10.94,5.8,12,8" style="fill:none;stroke:#999;stroke-width:3"></path>
<path d="M1321.25,90.23c2.5,0.77,4.95,0.43,5.86-1.25c3.39-6.24,5.79-13.66,8.64-19.49" style="fill:none;stroke:#999;stroke-width:3"></path>
<path d="M1345.53,16.71c2.57,2.44,6.65,10.05,7.29,13.85" style="fill:none;stroke:#999;stroke-width:3"></path>
<path d="M1369.1599999999999,14.14c0.02,0.44,0.05,1.13-0.05,1.76c-0.58,3.71-3.9,11.85-8.45,16.83" style="fill:none;stroke:#999;stroke-width:3"></path>
<path d="M1338.75,36.39c1.12,0.38,3.16,0.42,4.28,0.38c9.09-0.27,22.06-4.83,28.94-4.38c1.85,0.12,2.98,0.18,3.91,0.37" style="fill:none;stroke:#999;stroke-width:3"></path>
<path d="M1345.48,47.38c0.63,0.45,1.35,2.35,1.27,3.25C1346.27,56,1345.06,60,1344.9099999999999,65.13c-0.06,2.06,0.69,3.09,2.25,2.75c6.42-1.38,14.08-3.38,23.76-4" style="fill:none;stroke:#999;stroke-width:3"></path>
<path d="M1371.49,42.63c0.64,0.45,1.31,3.34,1.27,4.25c-0.27,6.37-0.98,10.12-1.54,21" style="fill:none;stroke:#999;stroke-width:3"></path>
<path d="M1358.06,37.75c0.62,1.61,1.51,2.88,1.51,4.89c0,18.38-0.57,39.11-18.64,54.33" style="fill:none;stroke:#999;stroke-width:3"></path>
<path d="M1381.77,19.75c0.96,1,1.42,2,1.42,2.99c0,1.05,0.32,19.87,0.32,22.12c0,18.39-4.79,41.64-14.41,50.39" style="fill:none;stroke:#999;stroke-width:3"></path>
<path d="M1384.57,22c2.51-0.23,13.39-2.74,15.26-3c3.34-0.46,4.6,3,4.18,4.38c-0.4,1.33-0.63,45.47-0.63,64.16c0,13.96-5.76,5.65-7.85,3.58" style="fill:none;stroke:#999;stroke-width:3"></path>
<path d="M1383.74,42.5c5.02-0.5,13.17-1.25,19.23-2" style="fill:none;stroke:#999;stroke-width:3"></path>
<path d="M1383.95,61.75c6.69-0.75,10.87-1.5,18.6-2" style="fill:none;stroke:#999;stroke-width:3"></path>

</svg>