<svg width="1417px" height="109px" viewBox="0 0 1417 109" xmlns="http://www.w3.org/2000/svg" xmlns:xlink="http://www.w3.org/1999/xlink" xml:space="preserve" version="1.1" baseProfile="full">
<line x1="1" y1="1" x2="1416" y2="1" style="stroke:#ddd;stroke-width:2"></line>
<line x1="1" y1="1" x2="1" y2="108" style="stroke:#ddd;stroke-width:2"></line>
<line x1="1" y1="108" x2="1416" y2="108" style="stroke:#ddd;stroke-width:2"></line>
<line x1="1416" y1="1" x2="1416" y2="108" style="stroke:#ddd;stroke-width:2"></line>
<line x1="109" y1="1" x2="109" y2="108" style="stroke:#ddd;stroke-width:2"></line>
<line x1="218" y1="1" x2="218" y2="108" style="stroke:#ddd;stroke-width:2"></line>
<line x1="327" y1="1" x2="327" y2="108" style="stroke:#ddd;stroke-width:2"></line>
<line x1="436" y1="1" x2="436" y2="108" style="stroke:#ddd;stroke-width:2"></line>
<line x1="545" y1="1" x2="545" y2="108" style="stroke:#ddd;stroke-width:2"></line>
<line x1="654" y1="1" x2="654" y2="108" style="stroke:#ddd;stroke-width:2"></line>
<line x1="763" y1="1" x2="763" y2="108" style="stroke:#ddd;stroke-width:2"></line>
<line x1="872" y1="1" x2="872" y2="108" style="stroke:#ddd;stroke-width:2"></line>
<line x1="981" y1="1" x2="981" y2="108" style="stroke:#ddd;stroke-width:2"></line>
<line x1="1090" y1="1" x2="1090" y2="108" style="stroke:#ddd;stroke-width:2"></line>
<line x1="1199" y1="1" x2="1199" y2="108" style="stroke:#ddd;stroke-width:2"></line>
<line x1="1308" y1="1" x2="1308" y2="108" style="stroke:#ddd;stroke-width:2"></line>
<line x1="1" y1="54" x2="1416" y2="54" style="stroke:#ddd;stroke-width:2;stroke-dasharray:3 3"></line>
<line x1="55" y1="1" x2="55" y2="108" style="stroke:#ddd;stroke-width:2;stroke-dasharray:3 3"></line>
<line x1="164" y1="1" x2="164" y2="108" style="stroke:#ddd;stroke-width:2;stroke-dasharray:3 3"></line>
<line x1="273" y1="1" x2="273" y2="108" style="stroke:#ddd;stroke-width:2;stroke-dasharray:3 3"></line>
<line x1="382" y1="1" x2="382" y2="108" style="stroke:#ddd;stroke-width:2;stroke-dasharray:3 3"></line>
<line x1="491" y1="1" x2="491" y2="108" style="stroke:#ddd;stroke-width:2;stroke-dasharray:3 3"></line>
<line x1="600" y1="1" x2="600" y2="108" style="stroke:#ddd;stroke-width:2;stroke-dasharray:3 3"></line>
<line x1="709" y1="1" x2="709" y2="108" style="stroke:#ddd;stroke-width:2;stroke-dasharray:3 3"></line>
<line x1="818" y1="1" x2="818" y2="108" style="stroke:#ddd;stroke-width:2;stroke-dasharray:3 3"></line>
<line x1="927" y1="1" x2="927" y2="108" style="stroke:#ddd;stroke-width:2;stroke-dasharray:3 3"></line>
<line x1="1036" y1="1" x2="1036" y2="108" style="stroke:#ddd;stroke-width:2;stroke-dasharray:3 3"></line>
<line x1="1145" y1="1" x2="1145" y2="108" style="stroke:#ddd;stroke-width:2;stroke-dasharray:3 3"></line>
<line x1="1254" y1="1" x2="1254" y2="108" style="stroke:#ddd;stroke-width:2;stroke-dasharray:3 3"></line>
<line x1="1363" y1="1" x2="1363" y2="108" style="stroke:#ddd;stroke-width:2;stroke-dasharray:3 3"></line>
<path d="M21.38,14.75c4.1,1.52,10.59,6.23,11.62,8.59" style="fill:none;stroke:#999;stroke-width:3"></path>

<path d="M130.38,14.75c4.1,1.52,10.59,6.23,11.62,8.59" style="fill:none;stroke:#999;stroke-width:3"></path>
<path d="M125.12,42c4.1,1.28,10.6,5.26,11.62,7.25" style="fill:none;stroke:#999;stroke-width:3"></path>

<path d="M239.38,14.75c4.1,1.52,10.59,6.23,11.62,8.59" style="fill:none;stroke:#999;stroke-width:3"></path>
<path d="M234.12,42c4.1,1.28,10.6,5.26,11.62,7.25" style="fill:none;stroke:#999;stroke-width:3"></path>
<path d="M234.93,88.64c1.32,0.56,2.66,0.31,3.45-0.96C241.34,82.92,244.3,77.08,247.0,71" style="fill:none;stroke:#999;stroke-width:3"></path>

<path d="M348.38,14.75c4.1,1.52,10.59,6.23,11.62,8.59" style="fill:none;stroke:#999;stroke-width:3"></path>
<path d="M343.12,42c4.1,1.28,10.6,5.26,11.62,7.25" style="fill:none;stroke:#999;stroke-width:3"></path>
<path d="M343.93,88.64c1.32,0.56,2.66,0.31,3.45-0.96C350.34000000000003,82.92,353.3,77.08,356.0,71" style="fill:none;stroke:#999;stroke-width:3"></path>
<path d="M375.47,15.21c0.97,0.97,1.28,2.04,1.4,3.91c0.36,5.54,1.01,20.35,1.01,20.68" style="fill:none;stroke:#999;stroke-width:3"></path>

<path d="M457.38,14.75c4.1,1.52,10.59,6.23,11.62,8.59" style="fill:none;stroke:#999;stroke-width:3"></path>
<path d="M452.12,42c4.1,1.28,10.6,5.26,11.62,7.25" style="fill:none;stroke:#999;stroke-width:3"></path>
<path d="M452.93,88.64c1.32,0.56,2.66,0.31,3.45-0.96C459.34000000000003,82.92,462.3,77.08,465.0,71" style="fill:none;stroke:#999;stroke-width:3"></path>
<path d="M484.47,15.21c0.97,0.97,1.28,2.04,1.4,3.91c0.36,5.54,1.01,20.35,1.01,20.68" style="fill:none;stroke:#999;stroke-width:3"></path>
<path d="M486.13,16.23c4.75-0.65,21.86-3.39,27.37-4.09c3.23-0.41,4.22,0.34,4.03,3.36c-0.4,6.25-1.15,11.87-1.78,20.72" style="fill:none;stroke:#999;stroke-width:3"></path>

<path d="M566.38,14.75c4.1,1.52,10.59,6.23,11.62,8.59" style="fill:none;stroke:#999;stroke-width:3"></path>
<path d="M561.12,42c4.1,1.28,10.6,5.26,11.62,7.25" style="fill:none;stroke:#999;stroke-width:3"></path>
<path d="M561.9300000000001,88.64c1.32,0.56,2.66,0.31,3.45-0.96C568.34,82.92,571.3,77.08,574.0,71" style="fill:none;stroke:#999;stroke-width:3"></path>
<path d="M593.47,15.21c0.97,0.97,1.28,2.04,1.4,3.91c0.36,5.54,1.01,20.35,1.01,20.68" style="fill:none;stroke:#999;stroke-width:3"></path>
<path d="M595.13,16.23c4.75-0.65,21.86-3.39,27.37-4.09c3.23-0.41,4.22,0.34,4.03,3.36c-0.4,6.25-1.15,11.87-1.78,20.72" style="fill:none;stroke:#999;stroke-width:3"></path>
<path d="M607.34,23.68c0.8,0.8,1.06,1.69,1.06,2.98c0,5.34,0.1,12.72,0.1,11.32" style="fill:none;stroke:#999;stroke-width:3"></path>

<path d="M675.38,14.75c4.1,1.52,10.59,6.23,11.62,8.59" style="fill:none;stroke:#999;stroke-width:3"></path>
<path d="M670.12,42c4.1,1.28,10.6,5.26,11.62,7.25" style="fill:none;stroke:#999;stroke-width:3"></path>
<path d="M670.9300000000001,88.64c1.32,0.56,2.66,0.31,3.45-0.96C677.34,82.92,680.3,77.08,683.0,71" style="fill:none;stroke:#999;stroke-width:3"></path>
<path d="M702.47,15.21c0.97,0.97,1.28,2.04,1.4,3.91c0.36,5.54,1.01,20.35,1.01,20.68" style="fill:none;stroke:#999;stroke-width:3"></path>
<path d="M704.13,16.23c4.75-0.65,21.86-3.39,27.37-4.09c3.23-0.41,4.22,0.34,4.03,3.36c-0.4,6.25-1.15,11.87-1.78,20.72" style="fill:none;stroke:#999;stroke-width:3"></path>
<path d="M716.34,23.68c0.8,0.8,1.06,1.69,1.06,2.98c0,5.34,0.1,12.72,0.1,11.32" style="fill:none;stroke:#999;stroke-width:3"></path>
<path d="M718.3199999999999,25.45c4.56-0.7,13.89-2.06,15.96-2.3" style="fill:none;stroke:#999;stroke-width:3"></path>

<path d="M784.38,14.75c4.1,1.52,10.59,6.23,11.62,8.59" style="fill:none;stroke:#999;stroke-width:3"></path>
<path d="M779.12,42c4.1,1.28,10.6,5.26,11.62,7.25" style="fill:none;stroke:#999;stroke-width:3"></path>
<path d="M779.9300000000001,88.64c1.32,0.56,2.66,0.31,3.45-0.96C786.34,82.92,789.3,77.08,792.0,71" style="fill:none;stroke:#999;stroke-width:3"></path>
<path d="M811.47,15.21c0.97,0.97,1.28,2.04,1.4,3.91c0.36,5.54,1.01,20.35,1.01,20.68" style="fill:none;stroke:#999;stroke-width:3"></path>
<path d="M813.13,16.23c4.75-0.65,21.86-3.39,27.37-4.09c3.23-0.41,4.22,0.34,4.03,3.36c-0.4,6.25-1.15,11.87-1.78,20.72" style="fill:none;stroke:#999;stroke-width:3"></path>
<path d="M825.34,23.68c0.8,0.8,1.06,1.69,1.06,2.98c0,5.34,0.1,12.72,0.1,11.32" style="fill:none;stroke:#999;stroke-width:3"></path>
<path d="M827.3199999999999,25.45c4.56-0.7,13.89-2.06,15.96-2.3" style="fill:none;stroke:#999;stroke-width:3"></path>
<path d="M802.26,39.07c0,3.47-2.36,12.57-3.18,14.88" style="fill:none;stroke:#999;stroke-width:3"></path>

<path d="M893.38,14.75c4.1,1.52,10.59,6.23,11.62,8.59" style="fill:none;stroke:#999;stroke-width:3"></path>
<path d="M888.12,42c4.1,1.28,10.6,5.26,11.62,7.25" style="fill:none;stroke:#999;stroke-width:3"></path>
<path d="M888.9300000000001,88.64c1.32,0.56,2.66,0.31,3.45-0.96C895.34,82.92,898.3,77.08,901.0,71" style="fill:none;stroke:#999;stroke-width:3"></path>
<path d="M920.47,15.21c0.97,0.97,1.28,2.04,1.4,3.91c0.36,5.54,1.01,20.35,1.01,20.68" style="fill:none;stroke:#999;stroke-width:3"></path>
<path d="M922.13,16.23c4.75-0.65,21.86-3.39,27.37-4.09c3.23-0.41,4.22,0.34,4.03,3.36c-0.4,6.25-1.15,11.87-1.78,20.72" style="fill:none;stroke:#999;stroke-width:3"></path>
<path d="M934.34,23.68c0.8,0.8,1.06,1.69,1.06,2.98c0,5.34,0.1,12.72,0.1,11.32" style="fill:none;stroke:#999;stroke-width:3"></path>
<path d="M936.3199999999999,25.45c4.56-0.7,13.89-2.06,15.96-2.3" style="fill:none;stroke:#999;stroke-width:3"></path>
<path d="M911.26,39.07c0,3.47-2.36,12.57-3.18,14.88" style="fill:none;stroke:#999;stroke-width:3"></path>
<path d="M912.14,42.28c9.29-1.39,36.36-4.91,49.97-5.72c9.52-0.57,2.02,5.68-0.36,7.65" style="fill:none;stroke:#999;stroke-width:3"></path>

<path d="M1002.38,14.75c4.1,1.52,10.59,6.23,11.62,8.59" style="fill:none;stroke:#999;stroke-width:3"></path>
<path d="M997.12,42c4.1,1.28,10.6,5.26,11.62,7.25" style="fill:none;stroke:#999;stroke-width:3"></path>
<path d="M997.9300000000001,88.64c1.32,0.56,2.66,0.31,3.45-0.96C1004.34,82.92,1007.3,77.08,1010.0,71" style="fill:none;stroke:#999;stroke-width:3"></path>
<path d="M1029.47,15.21c0.97,0.97,1.28,2.04,1.4,3.91c0.36,5.54,1.01,20.35,1.01,20.68" style="fill:none;stroke:#999;stroke-width:3"></path>
<path d="M1031.13,16.23c4.75-0.65,21.86-3.39,27.37-4.09c3.23-0.41,4.22,0.34,4.03,3.36c-0.4,6.25-1.15,11.87-1.78,20.72" style="fill:none;stroke:#999;stroke-width:3"></path>
<path d="M1043.3400000000001,23.68c0.8,0.8,1.06,1.69,1.06,2.98c0,5.34,0.1,12.72,0.1,11.32" style="fill:none;stroke:#999;stroke-width:3"></path>
<path d="M1045.32,25.45c4.56-0.7,13.89-2.06,15.96-2.3" style="fill:none;stroke:#999;stroke-width:3"></path>
<path d="M1020.26,39.07c0,3.47-2.36,12.57-3.18,14.88" style="fill:none;stroke:#999;stroke-width:3"></path>
<path d="M1021.14,42.28c9.29-1.39,36.36-4.91,49.97-5.72c9.52-0.57,2.02,5.68-0.36,7.65" style="fill:none;stroke:#999;stroke-width:3"></path>
<path d="M1031.11,50.12c0.76,0.76,1.11,1.76,1.11,3.1c0,4.28-0.03,25.5-0.03,37.78c0,3.67-0.01,6.19-0.03,6.55" style="fill:none;stroke:#999;stroke-width:3"></path>

<path d="M1111.38,14.75c4.1,1.52,10.59,6.23,11.62,8.59" style="fill:none;stroke:#999;stroke-width:3"></path>
<path d="M1106.12,42c4.1,1.28,10.6,5.26,11.62,7.25" style="fill:none;stroke:#999;stroke-width:3"></path>
<path d="M1106.93,88.64c1.32,0.56,2.66,0.31,3.45-0.96C1113.3400000000001,82.92,1116.3,77.08,1119.0,71" style="fill:none;stroke:#999;stroke-width:3"></path>
<path d="M1138.47,15.21c0.97,0.97,1.28,2.04,1.4,3.91c0.36,5.54,1.01,20.35,1.01,20.68" style="fill:none;stroke:#999;stroke-width:3"></path>
<path d="M1140.13,16.23c4.75-0.65,21.86-3.39,27.37-4.09c3.23-0.41,4.22,0.34,4.03,3.36c-0.4,6.25-1.15,11.87-1.78,20.72" style="fill:none;stroke:#999;stroke-width:3"></path>
<path d="M1152.3400000000001,23.68c0.8,0.8,1.06,1.69,1.06,2.98c0,5.34,0.1,12.72,0.1,11.32" style="fill:none;stroke:#999;stroke-width:3"></path>
<path d="M1154.32,25.45c4.56-0.7,13.89-2.06,15.96-2.3" style="fill:none;stroke:#999;stroke-width:3"></path>
<path d="M1129.26,39.07c0,3.47-2.36,12.57-3.18,14.88" style="fill:none;stroke:#999;stroke-width:3"></path>
<path d="M1130.1399999999999,42.28c9.29-1.39,36.36-4.91,49.97-5.72c9.52-0.57,2.02,5.68-0.36,7.65" style="fill:none;stroke:#999;stroke-width:3"></path>
<path d="M1140.11,50.12c0.76,0.76,1.11,1.76,1.11,3.1c0,4.28-0.03,25.5-0.03,37.78c0,3.67-0.01,6.19-0.03,6.55" style="fill:none;stroke:#999;stroke-width:3"></path>
<path d="M1142.09,51.82c1.95-0.15,17.49-2.22,22.42-2.91c3.71-0.52,5.07,0.3,5.06,4.09c-0.01,5.45-0.05,26.67-0.05,39.83c0,9.09-4.45,3.15-6.3,1.57" style="fill:none;stroke:#999;stroke-width:3"></path>

<path d="M1220.38,14.75c4.1,1.52,10.59,6.23,11.62,8.59" style="fill:none;stroke:#999;stroke-width:3"></path>
<path d="M1215.12,42c4.1,1.28,10.6,5.26,11.62,7.25" style="fill:none;stroke:#999;stroke-width:3"></path>
<path d="M1215.93,88.64c1.32,0.56,2.66,0.31,3.45-0.96C1222.3400000000001,82.92,1225.3,77.08,1228.0,71" style="fill:none;stroke:#999;stroke-width:3"></path>
<path d="M1247.47,15.21c0.97,0.97,1.28,2.04,1.4,3.91c0.36,5.54,1.01,20.35,1.01,20.68" style="fill:none;stroke:#999;stroke-width:3"></path>
<path d="M1249.13,16.23c4.75-0.65,21.86-3.39,27.37-4.09c3.23-0.41,4.22,0.34,4.03,3.36c-0.4,6.25-1.15,11.87-1.78,20.72" style="fill:none;stroke:#999;stroke-width:3"></path>
<path d="M1261.3400000000001,23.68c0.8,0.8,1.06,1.69,1.06,2.98c0,5.34,0.1,12.72,0.1,11.32" style="fill:none;stroke:#999;stroke-width:3"></path>
<path d="M1263.32,25.45c4.56-0.7,13.89-2.06,15.96-2.3" style="fill:none;stroke:#999;stroke-width:3"></path>
<path d="M1238.26,39.07c0,3.47-2.36,12.57-3.18,14.88" style="fill:none;stroke:#999;stroke-width:3"></path>
<path d="M1239.1399999999999,42.28c9.29-1.39,36.36-4.91,49.97-5.72c9.52-0.57,2.02,5.68-0.36,7.65" style="fill:none;stroke:#999;stroke-width:3"></path>
<path d="M1249.11,50.12c0.76,0.76,1.11,1.76,1.11,3.1c0,4.28-0.03,25.5-0.03,37.78c0,3.67-0.01,6.19-0.03,6.55" style="fill:none;stroke:#999;stroke-width:3"></path>
<path d="M1251.09,51.82c1.95-0.15,17.49-2.22,22.42-2.91c3.71-0.52,5.07,0.3,5.06,4.09c-0.01,5.45-0.05,26.67-0.05,39.83c0,9.09-4.45,3.15-6.3,1.57" style="fill:none;stroke:#999;stroke-width:3"></path>
<path d="M1251.34,63.56c7.6-1.05,19.52-2.14,26.19-2.67" style="fill:none;stroke:#999;stroke-width:3"></path>

<path d="M1329.38,14.75c4.1,1.52,10.59,6.23,11.62,8.59" style="fill:none;stroke:#999;stroke-width:3"></path>
<path d="M1324.12,42c4.1,1.28,10.6,5.26,11.62,7.25" style="fill:none;stroke:#999;stroke-width:3"></path>
<path d="M1324.93,88.64c1.32,0.56,2.66,0.31,3.45-0.96C1331.3400000000001,82.92,1334.3,77.08,1337.0,71" style="fill:none;stroke:#999;stroke-width:3"></path>
<path d="M1356.47,15.21c0.97,0.97,1.28,2.04,1.4,3.91c0.36,5.54,1.01,20.35,1.01,20.68" style="fill:none;stroke:#999;stroke-width:3"></path>
<path d="M1358.13,16.23c4.75-0.65,21.86-3.39,27.37-4.09c3.23-0.41,4.22,0.34,4.03,3.36c-0.4,6.25-1.15,11.87-1.78,20.72" style="fill:none;stroke:#999;stroke-width:3"></path>
<path d="M1370.3400000000001,23.68c0.8,0.8,1.06,1.69,1.06,2.98c0,5.34,0.1,12.72,0.1,11.32" style="fill:none;stroke:#999;stroke-width:3"></path>
<path d="M1372.32,25.45c4.56-0.7,13.89-2.06,15.96-2.3" style="fill:none;stroke:#999;stroke-width:3"></path>
<path d="M1347.26,39.07c0,3.47-2.36,12.57-3.18,14.88" style="fill:none;stroke:#999;stroke-width:3"></path>
<path d="M1348.1399999999999,42.28c9.29-1.39,36.36-4.91,49.97-5.72c9.52-0.57,2.02,5.68-0.36,7.65" style="fill:none;stroke:#999;stroke-width:3"></path>
<path d="M1358.11,50.12c0.76,0.76,1.11,1.76,1.11,3.1c0,4.28-0.03,25.5-0.03,37.78c0,3.67-0.01,6.19-0.03,6.55" style="fill:none;stroke:#999;stroke-width:3"></path>
<path d="M1360.09,51.82c1.95-0.15,17.49-2.22,22.42-2.91c3.71-0.52,5.07,0.3,5.06,4.09c-0.01,5.45-0.05,26.67-0.05,39.83c0,9.09-4.45,3.15-6.3,1.57" style="fill:none;stroke:#999;stroke-width:3"></path>
<path d="M1360.34,63.56c7.6-1.05,19.52-2.14,26.19-2.67" style="fill:none;stroke:#999;stroke-width:3"></path>
<path d="M1360.38,75.92C1368.12,75,1379.55,74.05,1386.4,73.7" style="fill:none;stroke:#999;stroke-width:3"></path>

</svg>