<svg width="1635px" height="109px" viewBox="0 0 1635 109" xmlns="http://www.w3.org/2000/svg" xmlns:xlink="http://www.w3.org/1999/xlink" xml:space="preserve" version="1.1" baseProfile="full">
<line x1="1" y1="1" x2="1634" y2="1" style="stroke:#ddd;stroke-width:2"></line>
<line x1="1" y1="1" x2="1" y2="108" style="stroke:#ddd;stroke-width:2"></line>
<line x1="1" y1="108" x2="1634" y2="108" style="stroke:#ddd;stroke-width:2"></line>
<line x1="1634" y1="1" x2="1634" y2="108" style="stroke:#ddd;stroke-width:2"></line>
<line x1="109" y1="1" x2="109" y2="108" style="stroke:#ddd;stroke-width:2"></line>
<line x1="218" y1="1" x2="218" y2="108" style="stroke:#ddd;stroke-width:2"></line>
<line x1="327" y1="1" x2="327" y2="108" style="stroke:#ddd;stroke-width:2"></line>
<line x1="436" y1="1" x2="436" y2="108" style="stroke:#ddd;stroke-width:2"></line>
<line x1="545" y1="1" x2="545" y2="108" style="stroke:#ddd;stroke-width:2"></line>
<line x1="654" y1="1" x2="654" y2="108" style="stroke:#ddd;stroke-width:2"></line>
<line x1="763" y1="1" x2="763" y2="108" style="stroke:#ddd;stroke-width:2"></line>
<line x1="872" y1="1" x2="872" y2="108" style="stroke:#ddd;stroke-width:2"></line>
<line x1="981" y1="1" x2="981" y2="108" style="stroke:#ddd;stroke-width:2"></line>
<line x1="1090" y1="1" x2="1090" y2="108" style="stroke:#ddd;stroke-width:2"></line>
<line x1="1199" y1="1" x2="1199" y2="108" style="stroke:#ddd;stroke-width:2"></line>
<line x1="1308" y1="1" x2="1308" y2="108" style="stroke:#ddd;stroke-width:2"></line>
<line x1="1417" y1="1" x2="1417" y2="108" style="stroke:#ddd;stroke-width:2"></line>
<line x1="1526" y1="1" x2="1526" y2="108" style="stroke:#ddd;stroke-width:2"></line>
<line x1="1" y1="54" x2="1634" y2="54" style="stroke:#ddd;stroke-width:2;stroke-dasharray:3 3"></line>
<line x1="55" y1="1" x2="55" y2="108" style="stroke:#ddd;stroke-width:2;stroke-dasharray:3 3"></line>
<line x1="164" y1="1" x2="164" y2="108" style="stroke:#ddd;stroke-width:2;stroke-dasharray:3 3"></line>
<line x1="273" y1="1" x2="273" y2="108" style="stroke:#ddd;stroke-width:2;stroke-dasharray:3 3"></line>
<line x1="382" y1="1" x2="382" y2="108" style="stroke:#ddd;stroke-width:2;stroke-dasharray:3 3"></line>
<line x1="491" y1="1" x2="491" y2="108" style="stroke:#ddd;stroke-width:2;stroke-dasharray:3 3"></line>
<line x1="600" y1="1" x2="600" y2="108" style="stroke:#ddd;stroke-width:2;stroke-dasharray:3 3"></line>
<line x1="709" y1="1" x2="709" y2="108" style="stroke:#ddd;stroke-width:2;stroke-dasharray:3 3"></line>
<line x1="818" y1="1" x2="818" y2="108" style="stroke:#ddd;stroke-width:2;stroke-dasharray:3 3"></line>
<line x1="927" y1="1" x2="927" y2="108" style="stroke:#ddd;stroke-width:2;stroke-dasharray:3 3"></line>
<line x1="1036" y1="1" x2="1036" y2="108" style="stroke:#ddd;stroke-width:2;stroke-dasharray:3 3"></line>
<line x1="1145" y1="1" x2="1145" y2="108" style="stroke:#ddd;stroke-width:2;stroke-dasharray:3 3"></line>
<line x1="1254" y1="1" x2="1254" y2="108" style="stroke:#ddd;stroke-width:2;stroke-dasharray:3 3"></line>
<line x1="1363" y1="1" x2="1363" y2="108" style="stroke:#ddd;stroke-width:2;stroke-dasharray:3 3"></line>
<line x1="1472" y1="1" x2="1472" y2="108" style="stroke:#ddd;stroke-width:2;stroke-dasharray:3 3"></line>
<line x1="1581" y1="1" x2="1581" y2="108" style="stroke:#ddd;stroke-width:2;stroke-dasharray:3 3"></line>
<path d="M17.63,16.75c4.19,1.65,10.32,6.28,11.37,8.84" style="fill:none;stroke:#999;stroke-width:3"></path>

<path d="M126.63,16.75c4.19,1.65,10.32,6.28,11.37,8.84" style="fill:none;stroke:#999;stroke-width:3"></path>
<path d="M124.25,43.75c3.79,1.54,9.8,6.35,10.75,8.75" style="fill:none;stroke:#999;stroke-width:3"></path>

<path d="M235.63,16.75c4.19,1.65,10.32,6.28,11.37,8.84" style="fill:none;stroke:#999;stroke-width:3"></path>
<path d="M233.25,43.75c3.79,1.54,9.8,6.35,10.75,8.75" style="fill:none;stroke:#999;stroke-width:3"></path>
<path d="M234.25,92.21c1.75,0,2.81-0.64,3.75-2.25c2.75-4.7,5.5-10.45,8-16.45" style="fill:none;stroke:#999;stroke-width:3"></path>

<path d="M344.63,16.75c4.19,1.65,10.32,6.28,11.37,8.84" style="fill:none;stroke:#999;stroke-width:3"></path>
<path d="M342.25,43.75c3.79,1.54,9.8,6.35,10.75,8.75" style="fill:none;stroke:#999;stroke-width:3"></path>
<path d="M343.25,92.21c1.75,0,2.81-0.64,3.75-2.25c2.75-4.7,5.5-10.45,8-16.45" style="fill:none;stroke:#999;stroke-width:3"></path>
<path d="M363.39,19.41c0.85,0.85,1.18,1.97,1.18,3.27c0,0.69,0.03,39.34,0.04,60.07c0,6.16,0.01,10.67,0.01,12.02" style="fill:none;stroke:#999;stroke-width:3"></path>

<path d="M453.63,16.75c4.19,1.65,10.32,6.28,11.37,8.84" style="fill:none;stroke:#999;stroke-width:3"></path>
<path d="M451.25,43.75c3.79,1.54,9.8,6.35,10.75,8.75" style="fill:none;stroke:#999;stroke-width:3"></path>
<path d="M452.25,92.21c1.75,0,2.81-0.64,3.75-2.25c2.75-4.7,5.5-10.45,8-16.45" style="fill:none;stroke:#999;stroke-width:3"></path>
<path d="M472.39,19.41c0.85,0.85,1.18,1.97,1.18,3.27c0,0.69,0.03,39.34,0.04,60.07c0,6.16,0.01,10.67,0.01,12.02" style="fill:none;stroke:#999;stroke-width:3"></path>
<path d="M473.73,20.12c1.69-0.08,12.07-1.89,16.4-2.53c2.41-0.36,4.16,0.4,4.06,3.04c-0.13,3.46-0.5,11.73-0.75,17.38c-0.14,3.18-0.24,5.53-0.24,5.71" style="fill:none;stroke:#999;stroke-width:3"></path>

<path d="M562.63,16.75c4.19,1.65,10.32,6.28,11.37,8.84" style="fill:none;stroke:#999;stroke-width:3"></path>
<path d="M560.25,43.75c3.79,1.54,9.8,6.35,10.75,8.75" style="fill:none;stroke:#999;stroke-width:3"></path>
<path d="M561.25,92.21c1.75,0,2.81-0.64,3.75-2.25c2.75-4.7,5.5-10.45,8-16.45" style="fill:none;stroke:#999;stroke-width:3"></path>
<path d="M581.39,19.41c0.85,0.85,1.18,1.97,1.18,3.27c0,0.69,0.03,39.34,0.04,60.07c0,6.16,0.01,10.67,0.01,12.02" style="fill:none;stroke:#999;stroke-width:3"></path>
<path d="M582.73,20.12c1.69-0.08,12.07-1.89,16.4-2.53c2.41-0.36,4.16,0.4,4.06,3.04c-0.13,3.46-0.5,11.73-0.75,17.38c-0.14,3.18-0.24,5.53-0.24,5.71" style="fill:none;stroke:#999;stroke-width:3"></path>
<path d="M583.84,31.78c5.91-1.03,13.09-2.09,17.84-2.72" style="fill:none;stroke:#999;stroke-width:3"></path>

<path d="M671.63,16.75c4.19,1.65,10.32,6.28,11.37,8.84" style="fill:none;stroke:#999;stroke-width:3"></path>
<path d="M669.25,43.75c3.79,1.54,9.8,6.35,10.75,8.75" style="fill:none;stroke:#999;stroke-width:3"></path>
<path d="M670.25,92.21c1.75,0,2.81-0.64,3.75-2.25c2.75-4.7,5.5-10.45,8-16.45" style="fill:none;stroke:#999;stroke-width:3"></path>
<path d="M690.39,19.41c0.85,0.85,1.18,1.97,1.18,3.27c0,0.69,0.03,39.34,0.04,60.07c0,6.16,0.01,10.67,0.01,12.02" style="fill:none;stroke:#999;stroke-width:3"></path>
<path d="M691.73,20.12c1.69-0.08,12.07-1.89,16.4-2.53c2.41-0.36,4.16,0.4,4.06,3.04c-0.13,3.46-0.5,11.73-0.75,17.38c-0.14,3.18-0.24,5.53-0.24,5.71" style="fill:none;stroke:#999;stroke-width:3"></path>
<path d="M692.84,31.78c5.91-1.03,13.09-2.09,17.84-2.72" style="fill:none;stroke:#999;stroke-width:3"></path>
<path d="M692.48,43.99c6.67-1.14,12.01-2.25,17.91-2.77" style="fill:none;stroke:#999;stroke-width:3"></path>

<path d="M780.63,16.75c4.19,1.65,10.32,6.28,11.37,8.84" style="fill:none;stroke:#999;stroke-width:3"></path>
<path d="M778.25,43.75c3.79,1.54,9.8,6.35,10.75,8.75" style="fill:none;stroke:#999;stroke-width:3"></path>
<path d="M779.25,92.21c1.75,0,2.81-0.64,3.75-2.25c2.75-4.7,5.5-10.45,8-16.45" style="fill:none;stroke:#999;stroke-width:3"></path>
<path d="M799.39,19.41c0.85,0.85,1.18,1.97,1.18,3.27c0,0.69,0.03,39.34,0.04,60.07c0,6.16,0.01,10.67,0.01,12.02" style="fill:none;stroke:#999;stroke-width:3"></path>
<path d="M800.73,20.12c1.69-0.08,12.07-1.89,16.4-2.53c2.41-0.36,4.16,0.4,4.06,3.04c-0.13,3.46-0.5,11.73-0.75,17.38c-0.14,3.18-0.24,5.53-0.24,5.71" style="fill:none;stroke:#999;stroke-width:3"></path>
<path d="M801.84,31.78c5.91-1.03,13.09-2.09,17.84-2.72" style="fill:none;stroke:#999;stroke-width:3"></path>
<path d="M801.48,43.99c6.67-1.14,12.01-2.25,17.91-2.77" style="fill:none;stroke:#999;stroke-width:3"></path>
<path d="M833.1800000000001,16.8c0.34,0.53,0.69,1.65,0.69,2.36c0,0.7-0.12,23,0,23.7" style="fill:none;stroke:#999;stroke-width:3"></path>

<path d="M889.63,16.75c4.19,1.65,10.32,6.28,11.37,8.84" style="fill:none;stroke:#999;stroke-width:3"></path>
<path d="M887.25,43.75c3.79,1.54,9.8,6.35,10.75,8.75" style="fill:none;stroke:#999;stroke-width:3"></path>
<path d="M888.25,92.21c1.75,0,2.81-0.64,3.75-2.25c2.75-4.7,5.5-10.45,8-16.45" style="fill:none;stroke:#999;stroke-width:3"></path>
<path d="M908.39,19.41c0.85,0.85,1.18,1.97,1.18,3.27c0,0.69,0.03,39.34,0.04,60.07c0,6.16,0.01,10.67,0.01,12.02" style="fill:none;stroke:#999;stroke-width:3"></path>
<path d="M909.73,20.12c1.69-0.08,12.07-1.89,16.4-2.53c2.41-0.36,4.16,0.4,4.06,3.04c-0.13,3.46-0.5,11.73-0.75,17.38c-0.14,3.18-0.24,5.53-0.24,5.71" style="fill:none;stroke:#999;stroke-width:3"></path>
<path d="M910.84,31.78c5.91-1.03,13.09-2.09,17.84-2.72" style="fill:none;stroke:#999;stroke-width:3"></path>
<path d="M910.48,43.99c6.67-1.14,12.01-2.25,17.91-2.77" style="fill:none;stroke:#999;stroke-width:3"></path>
<path d="M942.1800000000001,16.8c0.34,0.53,0.69,1.65,0.69,2.36c0,0.7-0.12,23,0,23.7" style="fill:none;stroke:#999;stroke-width:3"></path>
<path d="M943.94,17.98c3.81-0.84,13.69-2.8,17.44-3.33c2.45-0.35,3.59,1.19,3.59,3.35c0,9-0.1,61.64-0.1,72.98c0,10.01-5.93,1.29-7.06,0.22" style="fill:none;stroke:#999;stroke-width:3"></path>

<path d="M998.63,16.75c4.19,1.65,10.32,6.28,11.37,8.84" style="fill:none;stroke:#999;stroke-width:3"></path>
<path d="M996.25,43.75c3.79,1.54,9.8,6.35,10.75,8.75" style="fill:none;stroke:#999;stroke-width:3"></path>
<path d="M997.25,92.21c1.75,0,2.81-0.64,3.75-2.25c2.75-4.7,5.5-10.45,8-16.45" style="fill:none;stroke:#999;stroke-width:3"></path>
<path d="M1017.39,19.41c0.85,0.85,1.18,1.97,1.18,3.27c0,0.69,0.03,39.34,0.04,60.07c0,6.16,0.01,10.67,0.01,12.02" style="fill:none;stroke:#999;stroke-width:3"></path>
<path d="M1018.73,20.12c1.69-0.08,12.07-1.89,16.4-2.53c2.41-0.36,4.16,0.4,4.06,3.04c-0.13,3.46-0.5,11.73-0.75,17.38c-0.14,3.18-0.24,5.53-0.24,5.71" style="fill:none;stroke:#999;stroke-width:3"></path>
<path d="M1019.84,31.78c5.91-1.03,13.09-2.09,17.84-2.72" style="fill:none;stroke:#999;stroke-width:3"></path>
<path d="M1019.48,43.99c6.67-1.14,12.01-2.25,17.91-2.77" style="fill:none;stroke:#999;stroke-width:3"></path>
<path d="M1051.18,16.8c0.34,0.53,0.69,1.65,0.69,2.36c0,0.7-0.12,23,0,23.7" style="fill:none;stroke:#999;stroke-width:3"></path>
<path d="M1052.94,17.98c3.81-0.84,13.69-2.8,17.44-3.33c2.45-0.35,3.59,1.19,3.59,3.35c0,9-0.1,61.64-0.1,72.98c0,10.01-5.93,1.29-7.06,0.22" style="fill:none;stroke:#999;stroke-width:3"></path>
<path d="M1052.78,28.95c4.97-0.7,14.22-1.82,19.72-2.41" style="fill:none;stroke:#999;stroke-width:3"></path>

<path d="M1107.63,16.75c4.19,1.65,10.32,6.28,11.37,8.84" style="fill:none;stroke:#999;stroke-width:3"></path>
<path d="M1105.25,43.75c3.79,1.54,9.8,6.35,10.75,8.75" style="fill:none;stroke:#999;stroke-width:3"></path>
<path d="M1106.25,92.21c1.75,0,2.81-0.64,3.75-2.25c2.75-4.7,5.5-10.45,8-16.45" style="fill:none;stroke:#999;stroke-width:3"></path>
<path d="M1126.3899999999999,19.41c0.85,0.85,1.18,1.97,1.18,3.27c0,0.69,0.03,39.34,0.04,60.07c0,6.16,0.01,10.67,0.01,12.02" style="fill:none;stroke:#999;stroke-width:3"></path>
<path d="M1127.73,20.12c1.69-0.08,12.07-1.89,16.4-2.53c2.41-0.36,4.16,0.4,4.06,3.04c-0.13,3.46-0.5,11.73-0.75,17.38c-0.14,3.18-0.24,5.53-0.24,5.71" style="fill:none;stroke:#999;stroke-width:3"></path>
<path d="M1128.8400000000001,31.78c5.91-1.03,13.09-2.09,17.84-2.72" style="fill:none;stroke:#999;stroke-width:3"></path>
<path d="M1128.48,43.99c6.67-1.14,12.01-2.25,17.91-2.77" style="fill:none;stroke:#999;stroke-width:3"></path>
<path d="M1160.18,16.8c0.34,0.53,0.69,1.65,0.69,2.36c0,0.7-0.12,23,0,23.7" style="fill:none;stroke:#999;stroke-width:3"></path>
<path d="M1161.94,17.98c3.81-0.84,13.69-2.8,17.44-3.33c2.45-0.35,3.59,1.19,3.59,3.35c0,9-0.1,61.64-0.1,72.98c0,10.01-5.93,1.29-7.06,0.22" style="fill:none;stroke:#999;stroke-width:3"></path>
<path d="M1161.78,28.95c4.97-0.7,14.22-1.82,19.72-2.41" style="fill:none;stroke:#999;stroke-width:3"></path>
<path d="M1161.69,41.19c5.91-0.89,13.69-2.06,20.08-2.48" style="fill:none;stroke:#999;stroke-width:3"></path>

<path d="M1216.63,16.75c4.19,1.65,10.32,6.28,11.37,8.84" style="fill:none;stroke:#999;stroke-width:3"></path>
<path d="M1214.25,43.75c3.79,1.54,9.8,6.35,10.75,8.75" style="fill:none;stroke:#999;stroke-width:3"></path>
<path d="M1215.25,92.21c1.75,0,2.81-0.64,3.75-2.25c2.75-4.7,5.5-10.45,8-16.45" style="fill:none;stroke:#999;stroke-width:3"></path>
<path d="M1235.3899999999999,19.41c0.85,0.85,1.18,1.97,1.18,3.27c0,0.69,0.03,39.34,0.04,60.07c0,6.16,0.01,10.67,0.01,12.02" style="fill:none;stroke:#999;stroke-width:3"></path>
<path d="M1236.73,20.12c1.69-0.08,12.07-1.89,16.4-2.53c2.41-0.36,4.16,0.4,4.06,3.04c-0.13,3.46-0.5,11.73-0.75,17.38c-0.14,3.18-0.24,5.53-0.24,5.71" style="fill:none;stroke:#999;stroke-width:3"></path>
<path d="M1237.8400000000001,31.78c5.91-1.03,13.09-2.09,17.84-2.72" style="fill:none;stroke:#999;stroke-width:3"></path>
<path d="M1237.48,43.99c6.67-1.14,12.01-2.25,17.91-2.77" style="fill:none;stroke:#999;stroke-width:3"></path>
<path d="M1269.18,16.8c0.34,0.53,0.69,1.65,0.69,2.36c0,0.7-0.12,23,0,23.7" style="fill:none;stroke:#999;stroke-width:3"></path>
<path d="M1270.94,17.98c3.81-0.84,13.69-2.8,17.44-3.33c2.45-0.35,3.59,1.19,3.59,3.35c0,9-0.1,61.64-0.1,72.98c0,10.01-5.93,1.29-7.06,0.22" style="fill:none;stroke:#999;stroke-width:3"></path>
<path d="M1270.78,28.95c4.97-0.7,14.22-1.82,19.72-2.41" style="fill:none;stroke:#999;stroke-width:3"></path>
<path d="M1270.69,41.19c5.91-0.89,13.69-2.06,20.08-2.48" style="fill:none;stroke:#999;stroke-width:3"></path>
<path d="M1252.3,53.37c0.6,0.6,0.9,1.61,0.9,2.61c0,2.69,0,17.56,0,25.52c0,2.46,0,4.26,0,4.84" style="fill:none;stroke:#999;stroke-width:3"></path>

<path d="M1325.63,16.75c4.19,1.65,10.32,6.28,11.37,8.84" style="fill:none;stroke:#999;stroke-width:3"></path>
<path d="M1323.25,43.75c3.79,1.54,9.8,6.35,10.75,8.75" style="fill:none;stroke:#999;stroke-width:3"></path>
<path d="M1324.25,92.21c1.75,0,2.81-0.64,3.75-2.25c2.75-4.7,5.5-10.45,8-16.45" style="fill:none;stroke:#999;stroke-width:3"></path>
<path d="M1344.3899999999999,19.41c0.85,0.85,1.18,1.97,1.18,3.27c0,0.69,0.03,39.34,0.04,60.07c0,6.16,0.01,10.67,0.01,12.02" style="fill:none;stroke:#999;stroke-width:3"></path>
<path d="M1345.73,20.12c1.69-0.08,12.07-1.89,16.4-2.53c2.41-0.36,4.16,0.4,4.06,3.04c-0.13,3.46-0.5,11.73-0.75,17.38c-0.14,3.18-0.24,5.53-0.24,5.71" style="fill:none;stroke:#999;stroke-width:3"></path>
<path d="M1346.8400000000001,31.78c5.91-1.03,13.09-2.09,17.84-2.72" style="fill:none;stroke:#999;stroke-width:3"></path>
<path d="M1346.48,43.99c6.67-1.14,12.01-2.25,17.91-2.77" style="fill:none;stroke:#999;stroke-width:3"></path>
<path d="M1378.18,16.8c0.34,0.53,0.69,1.65,0.69,2.36c0,0.7-0.12,23,0,23.7" style="fill:none;stroke:#999;stroke-width:3"></path>
<path d="M1379.94,17.98c3.81-0.84,13.69-2.8,17.44-3.33c2.45-0.35,3.59,1.19,3.59,3.35c0,9-0.1,61.64-0.1,72.98c0,10.01-5.93,1.29-7.06,0.22" style="fill:none;stroke:#999;stroke-width:3"></path>
<path d="M1379.78,28.95c4.97-0.7,14.22-1.82,19.72-2.41" style="fill:none;stroke:#999;stroke-width:3"></path>
<path d="M1379.69,41.19c5.91-0.89,13.69-2.06,20.08-2.48" style="fill:none;stroke:#999;stroke-width:3"></path>
<path d="M1361.3,53.37c0.6,0.6,0.9,1.61,0.9,2.61c0,2.69,0,17.56,0,25.52c0,2.46,0,4.26,0,4.84" style="fill:none;stroke:#999;stroke-width:3"></path>
<path d="M1362.74,54.72c1.61-0.11,12.95-1.61,16.76-2.12c1.96-0.27,3.26,1.09,3.19,3.03c-0.19,5.39-0.12,28.78-0.12,29.47" style="fill:none;stroke:#999;stroke-width:3"></path>

<path d="M1434.63,16.75c4.19,1.65,10.32,6.28,11.37,8.84" style="fill:none;stroke:#999;stroke-width:3"></path>
<path d="M1432.25,43.75c3.79,1.54,9.8,6.35,10.75,8.75" style="fill:none;stroke:#999;stroke-width:3"></path>
<path d="M1433.25,92.21c1.75,0,2.81-0.64,3.75-2.25c2.75-4.7,5.5-10.45,8-16.45" style="fill:none;stroke:#999;stroke-width:3"></path>
<path d="M1453.3899999999999,19.41c0.85,0.85,1.18,1.97,1.18,3.27c0,0.69,0.03,39.34,0.04,60.07c0,6.16,0.01,10.67,0.01,12.02" style="fill:none;stroke:#999;stroke-width:3"></path>
<path d="M1454.73,20.12c1.69-0.08,12.07-1.89,16.4-2.53c2.41-0.36,4.16,0.4,4.06,3.04c-0.13,3.46-0.5,11.73-0.75,17.38c-0.14,3.18-0.24,5.53-0.24,5.71" style="fill:none;stroke:#999;stroke-width:3"></path>
<path d="M1455.8400000000001,31.78c5.91-1.03,13.09-2.09,17.84-2.72" style="fill:none;stroke:#999;stroke-width:3"></path>
<path d="M1455.48,43.99c6.67-1.14,12.01-2.25,17.91-2.77" style="fill:none;stroke:#999;stroke-width:3"></path>
<path d="M1487.18,16.8c0.34,0.53,0.69,1.65,0.69,2.36c0,0.7-0.12,23,0,23.7" style="fill:none;stroke:#999;stroke-width:3"></path>
<path d="M1488.94,17.98c3.81-0.84,13.69-2.8,17.44-3.33c2.45-0.35,3.59,1.19,3.59,3.35c0,9-0.1,61.64-0.1,72.98c0,10.01-5.93,1.29-7.06,0.22" style="fill:none;stroke:#999;stroke-width:3"></path>
<path d="M1488.78,28.95c4.97-0.7,14.22-1.82,19.72-2.41" style="fill:none;stroke:#999;stroke-width:3"></path>
<path d="M1488.69,41.19c5.91-0.89,13.69-2.06,20.08-2.48" style="fill:none;stroke:#999;stroke-width:3"></path>
<path d="M1470.3,53.37c0.6,0.6,0.9,1.61,0.9,2.61c0,2.69,0,17.56,0,25.52c0,2.46,0,4.26,0,4.84" style="fill:none;stroke:#999;stroke-width:3"></path>
<path d="M1471.74,54.72c1.61-0.11,12.95-1.61,16.76-2.12c1.96-0.27,3.26,1.09,3.19,3.03c-0.19,5.39-0.12,28.78-0.12,29.47" style="fill:none;stroke:#999;stroke-width:3"></path>
<path d="M1472.31,68.53c4.94-0.78,12.69-1.9,18.26-2.21" style="fill:none;stroke:#999;stroke-width:3"></path>

<path d="M1543.63,16.75c4.19,1.65,10.32,6.28,11.37,8.84" style="fill:none;stroke:#999;stroke-width:3"></path>
<path d="M1541.25,43.75c3.79,1.54,9.8,6.35,10.75,8.75" style="fill:none;stroke:#999;stroke-width:3"></path>
<path d="M1542.25,92.21c1.75,0,2.81-0.64,3.75-2.25c2.75-4.7,5.5-10.45,8-16.45" style="fill:none;stroke:#999;stroke-width:3"></path>
<path d="M1562.3899999999999,19.41c0.85,0.85,1.18,1.97,1.18,3.27c0,0.69,0.03,39.34,0.04,60.07c0,6.16,0.01,10.67,0.01,12.02" style="fill:none;stroke:#999;stroke-width:3"></path>
<path d="M1563.73,20.12c1.69-0.08,12.07-1.89,16.4-2.53c2.41-0.36,4.16,0.4,4.06,3.04c-0.13,3.46-0.5,11.73-0.75,17.38c-0.14,3.18-0.24,5.53-0.24,5.71" style="fill:none;stroke:#999;stroke-width:3"></path>
<path d="M1564.8400000000001,31.78c5.91-1.03,13.09-2.09,17.84-2.72" style="fill:none;stroke:#999;stroke-width:3"></path>
<path d="M1564.48,43.99c6.67-1.14,12.01-2.25,17.91-2.77" style="fill:none;stroke:#999;stroke-width:3"></path>
<path d="M1596.18,16.8c0.34,0.53,0.69,1.65,0.69,2.36c0,0.7-0.12,23,0,23.7" style="fill:none;stroke:#999;stroke-width:3"></path>
<path d="M1597.94,17.98c3.81-0.84,13.69-2.8,17.44-3.33c2.45-0.35,3.59,1.19,3.59,3.35c0,9-0.1,61.64-0.1,72.98c0,10.01-5.93,1.29-7.06,0.22" style="fill:none;stroke:#999;stroke-width:3"></path>
<path d="M1597.78,28.95c4.97-0.7,14.22-1.82,19.72-2.41" style="fill:none;stroke:#999;stroke-width:3"></path>
<path d="M1597.69,41.19c5.91-0.89,13.69-2.06,20.08-2.48" style="fill:none;stroke:#999;stroke-width:3"></path>
<path d="M1579.3,53.37c0.6,0.6,0.9,1.61,0.9,2.61c0,2.69,0,17.56,0,25.52c0,2.46,0,4.26,0,4.84" style="fill:none;stroke:#999;stroke-width:3"></path>
<path d="M1580.74,54.72c1.61-0.11,12.95-1.61,16.76-2.12c1.96-0.27,3.26,1.09,3.19,3.03c-0.19,5.39-0.12,28.78-0.12,29.47" style="fill:none;stroke:#999;stroke-width:3"></path>
<path d="M1581.31,68.53c4.94-0.78,12.69-1.9,18.26-2.21" style="fill:none;stroke:#999;stroke-width:3"></path>
<path d="M1581.49,84.26c5.26-0.63,12.89-1.51,17.87-1.96" style="fill:none;stroke:#999;stroke-width:3"></path>

</svg>