<svg width="1853px" height="109px" viewBox="0 0 1853 109" xmlns="http://www.w3.org/2000/svg" xmlns:xlink="http://www.w3.org/1999/xlink" xml:space="preserve" version="1.1" baseProfile="full">
<line x1="1" y1="1" x2="1852" y2="1" style="stroke:#ddd;stroke-width:2"></line>
<line x1="1" y1="1" x2="1" y2="108" style="stroke:#ddd;stroke-width:2"></line>
<line x1="1" y1="108" x2="1852" y2="108" style="stroke:#ddd;stroke-width:2"></line>
<line x1="1852" y1="1" x2="1852" y2="108" style="stroke:#ddd;stroke-width:2"></line>
<line x1="109" y1="1" x2="109" y2="108" style="stroke:#ddd;stroke-width:2"></line>
<line x1="218" y1="1" x2="218" y2="108" style="stroke:#ddd;stroke-width:2"></line>
<line x1="327" y1="1" x2="327" y2="108" style="stroke:#ddd;stroke-width:2"></line>
<line x1="436" y1="1" x2="436" y2="108" style="stroke:#ddd;stroke-width:2"></line>
<line x1="545" y1="1" x2="545" y2="108" style="stroke:#ddd;stroke-width:2"></line>
<line x1="654" y1="1" x2="654" y2="108" style="stroke:#ddd;stroke-width:2"></line>
<line x1="763" y1="1" x2="763" y2="108" style="stroke:#ddd;stroke-width:2"></line>
<line x1="872" y1="1" x2="872" y2="108" style="stroke:#ddd;stroke-width:2"></line>
<line x1="981" y1="1" x2="981" y2="108" style="stroke:#ddd;stroke-width:2"></line>
<line x1="1090" y1="1" x2="1090" y2="108" style="stroke:#ddd;stroke-width:2"></line>
<line x1="1199" y1="1" x2="1199" y2="108" style="stroke:#ddd;stroke-width:2"></line>
<line x1="1308" y1="1" x2="1308" y2="108" style="stroke:#ddd;stroke-width:2"></line>
<line x1="1417" y1="1" x2="1417" y2="108" style="stroke:#ddd;stroke-width:2"></line>
<line x1="1526" y1="1" x2="1526" y2="108" style="stroke:#ddd;stroke-width:2"></line>
<line x1="1635" y1="1" x2="1635" y2="108" style="stroke:#ddd;stroke-width:2"></line>
<line x1="1744" y1="1" x2="1744" y2="108" style="stroke:#ddd;stroke-width:2"></line>
<line x1="1" y1="54" x2="1852" y2="54" style="stroke:#ddd;stroke-width:2;stroke-dasharray:3 3"></line>
<line x1="55" y1="1" x2="55" y2="108" style="stroke:#ddd;stroke-width:2;stroke-dasharray:3 3"></line>
<line x1="164" y1="1" x2="164" y2="108" style="stroke:#ddd;stroke-width:2;stroke-dasharray:3 3"></line>
<line x1="273" y1="1" x2="273" y2="108" style="stroke:#ddd;stroke-width:2;stroke-dasharray:3 3"></line>
<line x1="382" y1="1" x2="382" y2="108" style="stroke:#ddd;stroke-width:2;stroke-dasharray:3 3"></line>
<line x1="491" y1="1" x2="491" y2="108" style="stroke:#ddd;stroke-width:2;stroke-dasharray:3 3"></line>
<line x1="600" y1="1" x2="600" y2="108" style="stroke:#ddd;stroke-width:2;stroke-dasharray:3 3"></line>
<line x1="709" y1="1" x2="709" y2="108" style="stroke:#ddd;stroke-width:2;stroke-dasharray:3 3"></line>
<line x1="818" y1="1" x2="818" y2="108" style="stroke:#ddd;stroke-width:2;stroke-dasharray:3 3"></line>
<line x1="927" y1="1" x2="927" y2="108" style="stroke:#ddd;stroke-width:2;stroke-dasharray:3 3"></line>
<line x1="1036" y1="1" x2="1036" y2="108" style="stroke:#ddd;stroke-width:2;stroke-dasharray:3 3"></line>
<line x1="1145" y1="1" x2="1145" y2="108" style="stroke:#ddd;stroke-width:2;stroke-dasharray:3 3"></line>
<line x1="1254" y1="1" x2="1254" y2="108" style="stroke:#ddd;stroke-width:2;stroke-dasharray:3 3"></line>
<line x1="1363" y1="1" x2="1363" y2="108" style="stroke:#ddd;stroke-width:2;stroke-dasharray:3 3"></line>
<line x1="1472" y1="1" x2="1472" y2="108" style="stroke:#ddd;stroke-width:2;stroke-dasharray:3 3"></line>
<line x1="1581" y1="1" x2="1581" y2="108" style="stroke:#ddd;stroke-width:2;stroke-dasharray:3 3"></line>
<line x1="1690" y1="1" x2="1690" y2="108" style="stroke:#ddd;stroke-width:2;stroke-dasharray:3 3"></line>
<line x1="1799" y1="1" x2="1799" y2="108" style="stroke:#ddd;stroke-width:2;stroke-dasharray:3 3"></line>
<path d="M18.13,16.5c4.45,1.78,11.5,7.32,12.62,10.09" style="fill:none;stroke:#999;stroke-width:3"></path>

<path d="M127.13,16.5c4.45,1.78,11.5,7.32,12.62,10.09" style="fill:none;stroke:#999;stroke-width:3"></path>
<path d="M123.0,43c4.94,1.68,12.76,6.89,14,9.5" style="fill:none;stroke:#999;stroke-width:3"></path>

<path d="M236.13,16.5c4.45,1.78,11.5,7.32,12.62,10.09" style="fill:none;stroke:#999;stroke-width:3"></path>
<path d="M232.0,43c4.94,1.68,12.76,6.89,14,9.5" style="fill:none;stroke:#999;stroke-width:3"></path>
<path d="M235.25,89.23c1.71,1.27,3.78,1.32,4.86-0.25c3.14-4.57,6.29-10.16,9.14-15.99" style="fill:none;stroke:#999;stroke-width:3"></path>

<path d="M345.13,16.5c4.45,1.78,11.5,7.32,12.62,10.09" style="fill:none;stroke:#999;stroke-width:3"></path>
<path d="M341.0,43c4.94,1.68,12.76,6.89,14,9.5" style="fill:none;stroke:#999;stroke-width:3"></path>
<path d="M344.25,89.23c1.71,1.27,3.78,1.32,4.86-0.25c3.14-4.57,6.29-10.16,9.14-15.99" style="fill:none;stroke:#999;stroke-width:3"></path>
<path d="M389.8,10.75c0.89,0.5,1.59,2.23,1.59,3.25c0,5.25,0.23,9.75,0.23,12.5" style="fill:none;stroke:#999;stroke-width:3"></path>

<path d="M454.13,16.5c4.45,1.78,11.5,7.32,12.62,10.09" style="fill:none;stroke:#999;stroke-width:3"></path>
<path d="M450.0,43c4.94,1.68,12.76,6.89,14,9.5" style="fill:none;stroke:#999;stroke-width:3"></path>
<path d="M453.25,89.23c1.71,1.27,3.78,1.32,4.86-0.25c3.14-4.57,6.29-10.16,9.14-15.99" style="fill:none;stroke:#999;stroke-width:3"></path>
<path d="M498.8,10.75c0.89,0.5,1.59,2.23,1.59,3.25c0,5.25,0.23,9.75,0.23,12.5" style="fill:none;stroke:#999;stroke-width:3"></path>
<path d="M500.85,18.5C507.65999999999997,18,512.8,16.25,518.89,16c1.42-0.06,1.77-0.25,2.66,0" style="fill:none;stroke:#999;stroke-width:3"></path>

<path d="M563.13,16.5c4.45,1.78,11.5,7.32,12.62,10.09" style="fill:none;stroke:#999;stroke-width:3"></path>
<path d="M559.0,43c4.94,1.68,12.76,6.89,14,9.5" style="fill:none;stroke:#999;stroke-width:3"></path>
<path d="M562.25,89.23c1.71,1.27,3.78,1.32,4.86-0.25c3.14-4.57,6.29-10.16,9.14-15.99" style="fill:none;stroke:#999;stroke-width:3"></path>
<path d="M607.8,10.75c0.89,0.5,1.59,2.23,1.59,3.25c0,5.25,0.23,9.75,0.23,12.5" style="fill:none;stroke:#999;stroke-width:3"></path>
<path d="M609.85,18.5C616.66,18,621.8,16.25,627.89,16c1.42-0.06,1.77-0.25,2.66,0" style="fill:none;stroke:#999;stroke-width:3"></path>
<path d="M586.93,25.94c-0.13,4.05-3.3,14.65-4.43,17.06" style="fill:none;stroke:#999;stroke-width:3"></path>

<path d="M672.13,16.5c4.45,1.78,11.5,7.32,12.62,10.09" style="fill:none;stroke:#999;stroke-width:3"></path>
<path d="M668.0,43c4.94,1.68,12.76,6.89,14,9.5" style="fill:none;stroke:#999;stroke-width:3"></path>
<path d="M671.25,89.23c1.71,1.27,3.78,1.32,4.86-0.25c3.14-4.57,6.29-10.16,9.14-15.99" style="fill:none;stroke:#999;stroke-width:3"></path>
<path d="M716.8,10.75c0.89,0.5,1.59,2.23,1.59,3.25c0,5.25,0.23,9.75,0.23,12.5" style="fill:none;stroke:#999;stroke-width:3"></path>
<path d="M718.85,18.5C725.66,18,730.8,16.25,736.89,16c1.42-0.06,1.77-0.25,2.66,0" style="fill:none;stroke:#999;stroke-width:3"></path>
<path d="M695.93,25.94c-0.13,4.05-3.3,14.65-4.43,17.06" style="fill:none;stroke:#999;stroke-width:3"></path>
<path d="M695.73,29.4c2.85,0,33.43-3.71,47.76-3.71c9.75,0,3.08,5.69-0.56,9.4" style="fill:none;stroke:#999;stroke-width:3"></path>

<path d="M781.13,16.5c4.45,1.78,11.5,7.32,12.62,10.09" style="fill:none;stroke:#999;stroke-width:3"></path>
<path d="M777.0,43c4.94,1.68,12.76,6.89,14,9.5" style="fill:none;stroke:#999;stroke-width:3"></path>
<path d="M780.25,89.23c1.71,1.27,3.78,1.32,4.86-0.25c3.14-4.57,6.29-10.16,9.14-15.99" style="fill:none;stroke:#999;stroke-width:3"></path>
<path d="M825.8,10.75c0.89,0.5,1.59,2.23,1.59,3.25c0,5.25,0.23,9.75,0.23,12.5" style="fill:none;stroke:#999;stroke-width:3"></path>
<path d="M827.85,18.5C834.66,18,839.8,16.25,845.89,16c1.42-0.06,1.77-0.25,2.66,0" style="fill:none;stroke:#999;stroke-width:3"></path>
<path d="M804.93,25.94c-0.13,4.05-3.3,14.65-4.43,17.06" style="fill:none;stroke:#999;stroke-width:3"></path>
<path d="M804.73,29.4c2.85,0,33.43-3.71,47.76-3.71c9.75,0,3.08,5.69-0.56,9.4" style="fill:none;stroke:#999;stroke-width:3"></path>
<path d="M813.52,35.55c0.7,0.24,1.98,0.21,2.68,0.24C820.64,36,835.25,34,839.81,33.37c1.15-0.16,1.87,0.11,2.45,0.23" style="fill:none;stroke:#999;stroke-width:3"></path>

<path d="M890.13,16.5c4.45,1.78,11.5,7.32,12.62,10.09" style="fill:none;stroke:#999;stroke-width:3"></path>
<path d="M886.0,43c4.94,1.68,12.76,6.89,14,9.5" style="fill:none;stroke:#999;stroke-width:3"></path>
<path d="M889.25,89.23c1.71,1.27,3.78,1.32,4.86-0.25c3.14-4.57,6.29-10.16,9.14-15.99" style="fill:none;stroke:#999;stroke-width:3"></path>
<path d="M934.8,10.75c0.89,0.5,1.59,2.23,1.59,3.25c0,5.25,0.23,9.75,0.23,12.5" style="fill:none;stroke:#999;stroke-width:3"></path>
<path d="M936.85,18.5C943.66,18,948.8,16.25,954.89,16c1.42-0.06,1.77-0.25,2.66,0" style="fill:none;stroke:#999;stroke-width:3"></path>
<path d="M913.93,25.94c-0.13,4.05-3.3,14.65-4.43,17.06" style="fill:none;stroke:#999;stroke-width:3"></path>
<path d="M913.73,29.4c2.85,0,33.43-3.71,47.76-3.71c9.75,0,3.08,5.69-0.56,9.4" style="fill:none;stroke:#999;stroke-width:3"></path>
<path d="M922.52,35.55c0.7,0.24,1.98,0.21,2.68,0.24C929.64,36,944.25,34,948.81,33.37c1.15-0.16,1.87,0.11,2.45,0.23" style="fill:none;stroke:#999;stroke-width:3"></path>
<path d="M925.82,42.14c0.03,0.33,0.07,0.86-0.07,1.33c-0.84,2.81-5.65,8.97-12.23,12.74" style="fill:none;stroke:#999;stroke-width:3"></path>

<path d="M999.13,16.5c4.45,1.78,11.5,7.32,12.62,10.09" style="fill:none;stroke:#999;stroke-width:3"></path>
<path d="M995.0,43c4.94,1.68,12.76,6.89,14,9.5" style="fill:none;stroke:#999;stroke-width:3"></path>
<path d="M998.25,89.23c1.71,1.27,3.78,1.32,4.86-0.25c3.14-4.57,6.29-10.16,9.14-15.99" style="fill:none;stroke:#999;stroke-width:3"></path>
<path d="M1043.8,10.75c0.89,0.5,1.59,2.23,1.59,3.25c0,5.25,0.23,9.75,0.23,12.5" style="fill:none;stroke:#999;stroke-width:3"></path>
<path d="M1045.85,18.5C1052.6599999999999,18,1057.8,16.25,1063.8899999999999,16c1.42-0.06,1.77-0.25,2.66,0" style="fill:none;stroke:#999;stroke-width:3"></path>
<path d="M1022.93,25.94c-0.13,4.05-3.3,14.65-4.43,17.06" style="fill:none;stroke:#999;stroke-width:3"></path>
<path d="M1022.73,29.4c2.85,0,33.43-3.71,47.76-3.71c9.75,0,3.08,5.69-0.56,9.4" style="fill:none;stroke:#999;stroke-width:3"></path>
<path d="M1031.52,35.55c0.7,0.24,1.98,0.21,2.68,0.24C1038.6399999999999,36,1053.25,34,1057.81,33.37c1.15-0.16,1.87,0.11,2.45,0.23" style="fill:none;stroke:#999;stroke-width:3"></path>
<path d="M1034.8200000000002,42.14c0.03,0.33,0.07,0.86-0.07,1.33c-0.84,2.81-5.65,8.97-12.23,12.74" style="fill:none;stroke:#999;stroke-width:3"></path>
<path d="M1054.92,40.83c4.69,1.57,12.12,6.45,13.29,8.88" style="fill:none;stroke:#999;stroke-width:3"></path>

<path d="M1108.13,16.5c4.45,1.78,11.5,7.32,12.62,10.09" style="fill:none;stroke:#999;stroke-width:3"></path>
<path d="M1104.0,43c4.94,1.68,12.76,6.89,14,9.5" style="fill:none;stroke:#999;stroke-width:3"></path>
<path d="M1107.25,89.23c1.71,1.27,3.78,1.32,4.86-0.25c3.14-4.57,6.29-10.16,9.14-15.99" style="fill:none;stroke:#999;stroke-width:3"></path>
<path d="M1152.8,10.75c0.89,0.5,1.59,2.23,1.59,3.25c0,5.25,0.23,9.75,0.23,12.5" style="fill:none;stroke:#999;stroke-width:3"></path>
<path d="M1154.85,18.5C1161.6599999999999,18,1166.8,16.25,1172.8899999999999,16c1.42-0.06,1.77-0.25,2.66,0" style="fill:none;stroke:#999;stroke-width:3"></path>
<path d="M1131.9299999999998,25.94c-0.13,4.05-3.3,14.65-4.43,17.06" style="fill:none;stroke:#999;stroke-width:3"></path>
<path d="M1131.73,29.4c2.85,0,33.43-3.71,47.76-3.71c9.75,0,3.08,5.69-0.56,9.4" style="fill:none;stroke:#999;stroke-width:3"></path>
<path d="M1140.52,35.55c0.7,0.24,1.98,0.21,2.68,0.24C1147.6399999999999,36,1162.25,34,1166.81,33.37c1.15-0.16,1.87,0.11,2.45,0.23" style="fill:none;stroke:#999;stroke-width:3"></path>
<path d="M1143.8200000000002,42.14c0.03,0.33,0.07,0.86-0.07,1.33c-0.84,2.81-5.65,8.97-12.23,12.74" style="fill:none;stroke:#999;stroke-width:3"></path>
<path d="M1163.92,40.83c4.69,1.57,12.12,6.45,13.29,8.88" style="fill:none;stroke:#999;stroke-width:3"></path>
<path d="M1155.93,42.25c0.08,0.75,0.39,2.03-0.16,3C1151.5,52.75,1143.25,64,1127.2,74" style="fill:none;stroke:#999;stroke-width:3"></path>

<path d="M1217.13,16.5c4.45,1.78,11.5,7.32,12.62,10.09" style="fill:none;stroke:#999;stroke-width:3"></path>
<path d="M1213.0,43c4.94,1.68,12.76,6.89,14,9.5" style="fill:none;stroke:#999;stroke-width:3"></path>
<path d="M1216.25,89.23c1.71,1.27,3.78,1.32,4.86-0.25c3.14-4.57,6.29-10.16,9.14-15.99" style="fill:none;stroke:#999;stroke-width:3"></path>
<path d="M1261.8,10.75c0.89,0.5,1.59,2.23,1.59,3.25c0,5.25,0.23,9.75,0.23,12.5" style="fill:none;stroke:#999;stroke-width:3"></path>
<path d="M1263.85,18.5C1270.6599999999999,18,1275.8,16.25,1281.8899999999999,16c1.42-0.06,1.77-0.25,2.66,0" style="fill:none;stroke:#999;stroke-width:3"></path>
<path d="M1240.9299999999998,25.94c-0.13,4.05-3.3,14.65-4.43,17.06" style="fill:none;stroke:#999;stroke-width:3"></path>
<path d="M1240.73,29.4c2.85,0,33.43-3.71,47.76-3.71c9.75,0,3.08,5.69-0.56,9.4" style="fill:none;stroke:#999;stroke-width:3"></path>
<path d="M1249.52,35.55c0.7,0.24,1.98,0.21,2.68,0.24C1256.6399999999999,36,1271.25,34,1275.81,33.37c1.15-0.16,1.87,0.11,2.45,0.23" style="fill:none;stroke:#999;stroke-width:3"></path>
<path d="M1252.8200000000002,42.14c0.03,0.33,0.07,0.86-0.07,1.33c-0.84,2.81-5.65,8.97-12.23,12.74" style="fill:none;stroke:#999;stroke-width:3"></path>
<path d="M1272.92,40.83c4.69,1.57,12.12,6.45,13.29,8.88" style="fill:none;stroke:#999;stroke-width:3"></path>
<path d="M1264.93,42.25c0.08,0.75,0.39,2.03-0.16,3C1260.5,52.75,1252.25,64,1236.2,74" style="fill:none;stroke:#999;stroke-width:3"></path>
<path d="M1265.35,46.96c3.95,3.72,20.95,15.87,25.3,18.6c1.48,0.93,3.37,1.32,4.85,1.58" style="fill:none;stroke:#999;stroke-width:3"></path>

<path d="M1326.13,16.5c4.45,1.78,11.5,7.32,12.62,10.09" style="fill:none;stroke:#999;stroke-width:3"></path>
<path d="M1322.0,43c4.94,1.68,12.76,6.89,14,9.5" style="fill:none;stroke:#999;stroke-width:3"></path>
<path d="M1325.25,89.23c1.71,1.27,3.78,1.32,4.86-0.25c3.14-4.57,6.29-10.16,9.14-15.99" style="fill:none;stroke:#999;stroke-width:3"></path>
<path d="M1370.8,10.75c0.89,0.5,1.59,2.23,1.59,3.25c0,5.25,0.23,9.75,0.23,12.5" style="fill:none;stroke:#999;stroke-width:3"></path>
<path d="M1372.85,18.5C1379.6599999999999,18,1384.8,16.25,1390.8899999999999,16c1.42-0.06,1.77-0.25,2.66,0" style="fill:none;stroke:#999;stroke-width:3"></path>
<path d="M1349.9299999999998,25.94c-0.13,4.05-3.3,14.65-4.43,17.06" style="fill:none;stroke:#999;stroke-width:3"></path>
<path d="M1349.73,29.4c2.85,0,33.43-3.71,47.76-3.71c9.75,0,3.08,5.69-0.56,9.4" style="fill:none;stroke:#999;stroke-width:3"></path>
<path d="M1358.52,35.55c0.7,0.24,1.98,0.21,2.68,0.24C1365.6399999999999,36,1380.25,34,1384.81,33.37c1.15-0.16,1.87,0.11,2.45,0.23" style="fill:none;stroke:#999;stroke-width:3"></path>
<path d="M1361.8200000000002,42.14c0.03,0.33,0.07,0.86-0.07,1.33c-0.84,2.81-5.65,8.97-12.23,12.74" style="fill:none;stroke:#999;stroke-width:3"></path>
<path d="M1381.92,40.83c4.69,1.57,12.12,6.45,13.29,8.88" style="fill:none;stroke:#999;stroke-width:3"></path>
<path d="M1373.93,42.25c0.08,0.75,0.39,2.03-0.16,3C1369.5,52.75,1361.25,64,1345.2,74" style="fill:none;stroke:#999;stroke-width:3"></path>
<path d="M1374.35,46.96c3.95,3.72,20.95,15.87,25.3,18.6c1.48,0.93,3.37,1.32,4.85,1.58" style="fill:none;stroke:#999;stroke-width:3"></path>
<path d="M1360.34,65.35c0.42,0.8,1.05,2.39,1.05,3.45c0,1.06-0.28,28.52-0.28,29.05" style="fill:none;stroke:#999;stroke-width:3"></path>

<path d="M1435.13,16.5c4.45,1.78,11.5,7.32,12.62,10.09" style="fill:none;stroke:#999;stroke-width:3"></path>
<path d="M1431.0,43c4.94,1.68,12.76,6.89,14,9.5" style="fill:none;stroke:#999;stroke-width:3"></path>
<path d="M1434.25,89.23c1.71,1.27,3.78,1.32,4.86-0.25c3.14-4.57,6.29-10.16,9.14-15.99" style="fill:none;stroke:#999;stroke-width:3"></path>
<path d="M1479.8,10.75c0.89,0.5,1.59,2.23,1.59,3.25c0,5.25,0.23,9.75,0.23,12.5" style="fill:none;stroke:#999;stroke-width:3"></path>
<path d="M1481.85,18.5C1488.6599999999999,18,1493.8,16.25,1499.8899999999999,16c1.42-0.06,1.77-0.25,2.66,0" style="fill:none;stroke:#999;stroke-width:3"></path>
<path d="M1458.9299999999998,25.94c-0.13,4.05-3.3,14.65-4.43,17.06" style="fill:none;stroke:#999;stroke-width:3"></path>
<path d="M1458.73,29.4c2.85,0,33.43-3.71,47.76-3.71c9.75,0,3.08,5.69-0.56,9.4" style="fill:none;stroke:#999;stroke-width:3"></path>
<path d="M1467.52,35.55c0.7,0.24,1.98,0.21,2.68,0.24C1474.6399999999999,36,1489.25,34,1493.81,33.37c1.15-0.16,1.87,0.11,2.45,0.23" style="fill:none;stroke:#999;stroke-width:3"></path>
<path d="M1470.8200000000002,42.14c0.03,0.33,0.07,0.86-0.07,1.33c-0.84,2.81-5.65,8.97-12.23,12.74" style="fill:none;stroke:#999;stroke-width:3"></path>
<path d="M1490.92,40.83c4.69,1.57,12.12,6.45,13.29,8.88" style="fill:none;stroke:#999;stroke-width:3"></path>
<path d="M1482.93,42.25c0.08,0.75,0.39,2.03-0.16,3C1478.5,52.75,1470.25,64,1454.2,74" style="fill:none;stroke:#999;stroke-width:3"></path>
<path d="M1483.35,46.96c3.95,3.72,20.95,15.87,25.3,18.6c1.48,0.93,3.37,1.32,4.85,1.58" style="fill:none;stroke:#999;stroke-width:3"></path>
<path d="M1469.34,65.35c0.42,0.8,1.05,2.39,1.05,3.45c0,1.06-0.28,28.52-0.28,29.05" style="fill:none;stroke:#999;stroke-width:3"></path>
<path d="M1470.26,66.8c2.41-0.13,21.22-1.9,23.42-2.06c1.83-0.13,3.12,0.64,3.12,2.98c0,1.27,0.07,28.05-0.08,28.84" style="fill:none;stroke:#999;stroke-width:3"></path>

<path d="M1544.13,16.5c4.45,1.78,11.5,7.32,12.62,10.09" style="fill:none;stroke:#999;stroke-width:3"></path>
<path d="M1540.0,43c4.94,1.68,12.76,6.89,14,9.5" style="fill:none;stroke:#999;stroke-width:3"></path>
<path d="M1543.25,89.23c1.71,1.27,3.78,1.32,4.86-0.25c3.14-4.57,6.29-10.16,9.14-15.99" style="fill:none;stroke:#999;stroke-width:3"></path>
<path d="M1588.8,10.75c0.89,0.5,1.59,2.23,1.59,3.25c0,5.25,0.23,9.75,0.23,12.5" style="fill:none;stroke:#999;stroke-width:3"></path>
<path d="M1590.85,18.5C1597.6599999999999,18,1602.8,16.25,1608.8899999999999,16c1.42-0.06,1.77-0.25,2.66,0" style="fill:none;stroke:#999;stroke-width:3"></path>
<path d="M1567.9299999999998,25.94c-0.13,4.05-3.3,14.65-4.43,17.06" style="fill:none;stroke:#999;stroke-width:3"></path>
<path d="M1567.73,29.4c2.85,0,33.43-3.71,47.76-3.71c9.75,0,3.08,5.69-0.56,9.4" style="fill:none;stroke:#999;stroke-width:3"></path>
<path d="M1576.52,35.55c0.7,0.24,1.98,0.21,2.68,0.24C1583.6399999999999,36,1598.25,34,1602.81,33.37c1.15-0.16,1.87,0.11,2.45,0.23" style="fill:none;stroke:#999;stroke-width:3"></path>
<path d="M1579.8200000000002,42.14c0.03,0.33,0.07,0.86-0.07,1.33c-0.84,2.81-5.65,8.97-12.23,12.74" style="fill:none;stroke:#999;stroke-width:3"></path>
<path d="M1599.92,40.83c4.69,1.57,12.12,6.45,13.29,8.88" style="fill:none;stroke:#999;stroke-width:3"></path>
<path d="M1591.93,42.25c0.08,0.75,0.39,2.03-0.16,3C1587.5,52.75,1579.25,64,1563.2,74" style="fill:none;stroke:#999;stroke-width:3"></path>
<path d="M1592.35,46.96c3.95,3.72,20.95,15.87,25.3,18.6c1.48,0.93,3.37,1.32,4.85,1.58" style="fill:none;stroke:#999;stroke-width:3"></path>
<path d="M1578.34,65.35c0.42,0.8,1.05,2.39,1.05,3.45c0,1.06-0.28,28.52-0.28,29.05" style="fill:none;stroke:#999;stroke-width:3"></path>
<path d="M1579.26,66.8c2.41-0.13,21.22-1.9,23.42-2.06c1.83-0.13,3.12,0.64,3.12,2.98c0,1.27,0.07,28.05-0.08,28.84" style="fill:none;stroke:#999;stroke-width:3"></path>
<path d="M1580.06,76.42c5.82-0.52,20.42-1.69,24.28-1.69" style="fill:none;stroke:#999;stroke-width:3"></path>

<path d="M1653.13,16.5c4.45,1.78,11.5,7.32,12.62,10.09" style="fill:none;stroke:#999;stroke-width:3"></path>
<path d="M1649.0,43c4.94,1.68,12.76,6.89,14,9.5" style="fill:none;stroke:#999;stroke-width:3"></path>
<path d="M1652.25,89.23c1.71,1.27,3.78,1.32,4.86-0.25c3.14-4.57,6.29-10.16,9.14-15.99" style="fill:none;stroke:#999;stroke-width:3"></path>
<path d="M1697.8,10.75c0.89,0.5,1.59,2.23,1.59,3.25c0,5.25,0.23,9.75,0.23,12.5" style="fill:none;stroke:#999;stroke-width:3"></path>
<path d="M1699.85,18.5C1706.6599999999999,18,1711.8,16.25,1717.8899999999999,16c1.42-0.06,1.77-0.25,2.66,0" style="fill:none;stroke:#999;stroke-width:3"></path>
<path d="M1676.9299999999998,25.94c-0.13,4.05-3.3,14.65-4.43,17.06" style="fill:none;stroke:#999;stroke-width:3"></path>
<path d="M1676.73,29.4c2.85,0,33.43-3.71,47.76-3.71c9.75,0,3.08,5.69-0.56,9.4" style="fill:none;stroke:#999;stroke-width:3"></path>
<path d="M1685.52,35.55c0.7,0.24,1.98,0.21,2.68,0.24C1692.6399999999999,36,1707.25,34,1711.81,33.37c1.15-0.16,1.87,0.11,2.45,0.23" style="fill:none;stroke:#999;stroke-width:3"></path>
<path d="M1688.8200000000002,42.14c0.03,0.33,0.07,0.86-0.07,1.33c-0.84,2.81-5.65,8.97-12.23,12.74" style="fill:none;stroke:#999;stroke-width:3"></path>
<path d="M1708.92,40.83c4.69,1.57,12.12,6.45,13.29,8.88" style="fill:none;stroke:#999;stroke-width:3"></path>
<path d="M1700.93,42.25c0.08,0.75,0.39,2.03-0.16,3C1696.5,52.75,1688.25,64,1672.2,74" style="fill:none;stroke:#999;stroke-width:3"></path>
<path d="M1701.35,46.96c3.95,3.72,20.95,15.87,25.3,18.6c1.48,0.93,3.37,1.32,4.85,1.58" style="fill:none;stroke:#999;stroke-width:3"></path>
<path d="M1687.34,65.35c0.42,0.8,1.05,2.39,1.05,3.45c0,1.06-0.28,28.52-0.28,29.05" style="fill:none;stroke:#999;stroke-width:3"></path>
<path d="M1688.26,66.8c2.41-0.13,21.22-1.9,23.42-2.06c1.83-0.13,3.12,0.64,3.12,2.98c0,1.27,0.07,28.05-0.08,28.84" style="fill:none;stroke:#999;stroke-width:3"></path>
<path d="M1689.06,76.42c5.82-0.52,20.42-1.69,24.28-1.69" style="fill:none;stroke:#999;stroke-width:3"></path>
<path d="M1688.87,85.63c6.97-0.33,18.97-1.87,25.73-2.09" style="fill:none;stroke:#999;stroke-width:3"></path>

<path d="M1762.13,16.5c4.45,1.78,11.5,7.32,12.62,10.09" style="fill:none;stroke:#999;stroke-width:3"></path>
<path d="M1758.0,43c4.94,1.68,12.76,6.89,14,9.5" style="fill:none;stroke:#999;stroke-width:3"></path>
<path d="M1761.25,89.23c1.71,1.27,3.78,1.32,4.86-0.25c3.14-4.57,6.29-10.16,9.14-15.99" style="fill:none;stroke:#999;stroke-width:3"></path>
<path d="M1806.8,10.75c0.89,0.5,1.59,2.23,1.59,3.25c0,5.25,0.23,9.75,0.23,12.5" style="fill:none;stroke:#999;stroke-width:3"></path>
<path d="M1808.85,18.5C1815.6599999999999,18,1820.8,16.25,1826.8899999999999,16c1.42-0.06,1.77-0.25,2.66,0" style="fill:none;stroke:#999;stroke-width:3"></path>
<path d="M1785.9299999999998,25.94c-0.13,4.05-3.3,14.65-4.43,17.06" style="fill:none;stroke:#999;stroke-width:3"></path>
<path d="M1785.73,29.4c2.85,0,33.43-3.71,47.76-3.71c9.75,0,3.08,5.69-0.56,9.4" style="fill:none;stroke:#999;stroke-width:3"></path>
<path d="M1794.52,35.55c0.7,0.24,1.98,0.21,2.68,0.24C1801.6399999999999,36,1816.25,34,1820.81,33.37c1.15-0.16,1.87,0.11,2.45,0.23" style="fill:none;stroke:#999;stroke-width:3"></path>
<path d="M1797.8200000000002,42.14c0.03,0.33,0.07,0.86-0.07,1.33c-0.84,2.81-5.65,8.97-12.23,12.74" style="fill:none;stroke:#999;stroke-width:3"></path>
<path d="M1817.92,40.83c4.69,1.57,12.12,6.45,13.29,8.88" style="fill:none;stroke:#999;stroke-width:3"></path>
<path d="M1809.93,42.25c0.08,0.75,0.39,2.03-0.16,3C1805.5,52.75,1797.25,64,1781.2,74" style="fill:none;stroke:#999;stroke-width:3"></path>
<path d="M1810.35,46.96c3.95,3.72,20.95,15.87,25.3,18.6c1.48,0.93,3.37,1.32,4.85,1.58" style="fill:none;stroke:#999;stroke-width:3"></path>
<path d="M1796.34,65.35c0.42,0.8,1.05,2.39,1.05,3.45c0,1.06-0.28,28.52-0.28,29.05" style="fill:none;stroke:#999;stroke-width:3"></path>
<path d="M1797.26,66.8c2.41-0.13,21.22-1.9,23.42-2.06c1.83-0.13,3.12,0.64,3.12,2.98c0,1.27,0.07,28.05-0.08,28.84" style="fill:none;stroke:#999;stroke-width:3"></path>
<path d="M1798.06,76.42c5.82-0.52,20.42-1.69,24.28-1.69" style="fill:none;stroke:#999;stroke-width:3"></path>
<path d="M1797.87,85.63c6.97-0.33,18.97-1.87,25.73-2.09" style="fill:none;stroke:#999;stroke-width:3"></path>
<path d="M1797.47,94.65c5.63-0.32,19.8-1.69,26-1.69" style="fill:none;stroke:#999;stroke-width:3"></path>

</svg>