<svg width="436px" height="109px" viewBox="0 0 436 109" xmlns="http://www.w3.org/2000/svg" xmlns:xlink="http://www.w3.org/1999/xlink" xml:space="preserve" version="1.1" baseProfile="full">
<line x1="1" y1="1" x2="435" y2="1" style="stroke:#ddd;stroke-width:2"></line>
<line x1="1" y1="1" x2="1" y2="108" style="stroke:#ddd;stroke-width:2"></line>
<line x1="1" y1="108" x2="435" y2="108" style="stroke:#ddd;stroke-width:2"></line>
<line x1="435" y1="1" x2="435" y2="108" style="stroke:#ddd;stroke-width:2"></line>
<line x1="109" y1="1" x2="109" y2="108" style="stroke:#ddd;stroke-width:2"></line>
<line x1="218" y1="1" x2="218" y2="108" style="stroke:#ddd;stroke-width:2"></line>
<line x1="327" y1="1" x2="327" y2="108" style="stroke:#ddd;stroke-width:2"></line>
<line x1="1" y1="54" x2="435" y2="54" style="stroke:#ddd;stroke-width:2;stroke-dasharray:3 3"></line>
<line x1="55" y1="1" x2="55" y2="108" style="stroke:#ddd;stroke-width:2;stroke-dasharray:3 3"></line>
<line x1="164" y1="1" x2="164" y2="108" style="stroke:#ddd;stroke-width:2;stroke-dasharray:3 3"></line>
<line x1="273" y1="1" x2="273" y2="108" style="stroke:#ddd;stroke-width:2;stroke-dasharray:3 3"></line>
<line x1="382" y1="1" x2="382" y2="108" style="stroke:#ddd;stroke-width:2;stroke-dasharray:3 3"></line>
<path d="M20.64,43.97c-0.51,10.16-6.01,19.28-8.39,21.66" style="fill:none;stroke:#999;stroke-width:3"></path>

<path d="M129.64,43.97c-0.51,10.16-6.01,19.28-8.39,21.66" style="fill:none;stroke:#999;stroke-width:3"></path>
<path d="M146.12,41.62c4.32,3.86,8.41,14.46,9.49,20.46" style="fill:none;stroke:#999;stroke-width:3"></path>

<path d="M238.64,43.97c-0.51,10.16-6.01,19.28-8.39,21.66" style="fill:none;stroke:#999;stroke-width:3"></path>
<path d="M255.12,41.62c4.32,3.86,8.41,14.46,9.49,20.46" style="fill:none;stroke:#999;stroke-width:3"></path>
<path d="M278.42,39.96c3.34,3.66,8.63,15.07,9.47,20.77" style="fill:none;stroke:#999;stroke-width:3"></path>

<path d="M347.64,43.97c-0.51,10.16-6.01,19.28-8.39,21.66" style="fill:none;stroke:#999;stroke-width:3"></path>
<path d="M364.12,41.62c4.32,3.86,8.41,14.46,9.49,20.46" style="fill:none;stroke:#999;stroke-width:3"></path>
<path d="M387.42,39.96c3.34,3.66,8.63,15.07,9.47,20.77" style="fill:none;stroke:#999;stroke-width:3"></path>
<path d="M409.38,40.12c5.01,3.81,12.93,15.67,14.18,21.61" style="fill:none;stroke:#999;stroke-width:3"></path>

</svg>