<svg width="654px" height="109px" viewBox="0 0 654 109" xmlns="http://www.w3.org/2000/svg" xmlns:xlink="http://www.w3.org/1999/xlink" xml:space="preserve" version="1.1" baseProfile="full">
<line x1="1" y1="1" x2="653" y2="1" style="stroke:#ddd;stroke-width:2"></line>
<line x1="1" y1="1" x2="1" y2="108" style="stroke:#ddd;stroke-width:2"></line>
<line x1="1" y1="108" x2="653" y2="108" style="stroke:#ddd;stroke-width:2"></line>
<line x1="653" y1="1" x2="653" y2="108" style="stroke:#ddd;stroke-width:2"></line>
<line x1="109" y1="1" x2="109" y2="108" style="stroke:#ddd;stroke-width:2"></line>
<line x1="218" y1="1" x2="218" y2="108" style="stroke:#ddd;stroke-width:2"></line>
<line x1="327" y1="1" x2="327" y2="108" style="stroke:#ddd;stroke-width:2"></line>
<line x1="436" y1="1" x2="436" y2="108" style="stroke:#ddd;stroke-width:2"></line>
<line x1="545" y1="1" x2="545" y2="108" style="stroke:#ddd;stroke-width:2"></line>
<line x1="1" y1="54" x2="653" y2="54" style="stroke:#ddd;stroke-width:2;stroke-dasharray:3 3"></line>
<line x1="55" y1="1" x2="55" y2="108" style="stroke:#ddd;stroke-width:2;stroke-dasharray:3 3"></line>
<line x1="164" y1="1" x2="164" y2="108" style="stroke:#ddd;stroke-width:2;stroke-dasharray:3 3"></line>
<line x1="273" y1="1" x2="273" y2="108" style="stroke:#ddd;stroke-width:2;stroke-dasharray:3 3"></line>
<line x1="382" y1="1" x2="382" y2="108" style="stroke:#ddd;stroke-width:2;stroke-dasharray:3 3"></line>
<line x1="491" y1="1" x2="491" y2="108" style="stroke:#ddd;stroke-width:2;stroke-dasharray:3 3"></line>
<line x1="600" y1="1" x2="600" y2="108" style="stroke:#ddd;stroke-width:2;stroke-dasharray:3 3"></line>
<path d="M11.62,39.25c1.6,3.23,3.94,12.39,4.38,15.62" style="fill:none;stroke:#999;stroke-width:3"></path>

<path d="M120.62,39.25c1.6,3.23,3.94,12.39,4.38,15.62" style="fill:none;stroke:#999;stroke-width:3"></path>
<path d="M155.13,28.75c0.17,1.05-0.08,1.99-0.82,3.02c-0.74,1.03-8.87,9.08-12.56,11.48" style="fill:none;stroke:#999;stroke-width:3"></path>

<path d="M229.62,39.25c1.6,3.23,3.94,12.39,4.38,15.62" style="fill:none;stroke:#999;stroke-width:3"></path>
<path d="M264.13,28.75c0.17,1.05-0.08,1.99-0.82,3.02c-0.74,1.03-8.87,9.08-12.56,11.48" style="fill:none;stroke:#999;stroke-width:3"></path>
<path d="M246.75,16.25c0.76,0.75,1.02,2,1.03,3.25C248.0,67.12,245.0,77,229.0,93" style="fill:none;stroke:#999;stroke-width:3"></path>

<path d="M338.62,39.25c1.6,3.23,3.94,12.39,4.38,15.62" style="fill:none;stroke:#999;stroke-width:3"></path>
<path d="M373.13,28.75c0.17,1.05-0.08,1.99-0.82,3.02c-0.74,1.03-8.87,9.08-12.56,11.48" style="fill:none;stroke:#999;stroke-width:3"></path>
<path d="M355.75,16.25c0.76,0.75,1.02,2,1.03,3.25C357.0,67.12,354.0,77,338.0,93" style="fill:none;stroke:#999;stroke-width:3"></path>
<path d="M357.62,63.75c5.2,2.73,11.76,11.38,13.12,15.25" style="fill:none;stroke:#999;stroke-width:3"></path>

<path d="M447.62,39.25c1.6,3.23,3.94,12.39,4.38,15.62" style="fill:none;stroke:#999;stroke-width:3"></path>
<path d="M482.13,28.75c0.17,1.05-0.08,1.99-0.82,3.02c-0.74,1.03-8.87,9.08-12.56,11.48" style="fill:none;stroke:#999;stroke-width:3"></path>
<path d="M464.75,16.25c0.76,0.75,1.02,2,1.03,3.25C466.0,67.12,463.0,77,447.0,93" style="fill:none;stroke:#999;stroke-width:3"></path>
<path d="M466.62,63.75c5.2,2.73,11.76,11.38,13.12,15.25" style="fill:none;stroke:#999;stroke-width:3"></path>
<path d="M488.5,26.42c1.82,0.56,5.15,0.53,6.96,0.31c9.17-1.11,23.42-3.11,31.56-3.48c3.02-0.13,4.84,0.27,6.35,0.55" style="fill:none;stroke:#999;stroke-width:3"></path>

<path d="M556.62,39.25c1.6,3.23,3.94,12.39,4.38,15.62" style="fill:none;stroke:#999;stroke-width:3"></path>
<path d="M591.13,28.75c0.17,1.05-0.08,1.99-0.82,3.02c-0.74,1.03-8.87,9.08-12.56,11.48" style="fill:none;stroke:#999;stroke-width:3"></path>
<path d="M573.75,16.25c0.76,0.75,1.02,2,1.03,3.25C575.0,67.12,572.0,77,556.0,93" style="fill:none;stroke:#999;stroke-width:3"></path>
<path d="M575.62,63.75c5.2,2.73,11.76,11.38,13.12,15.25" style="fill:none;stroke:#999;stroke-width:3"></path>
<path d="M597.5,26.42c1.82,0.56,5.15,0.53,6.96,0.31c9.17-1.11,23.42-3.11,31.56-3.48c3.02-0.13,4.84,0.27,6.35,0.55" style="fill:none;stroke:#999;stroke-width:3"></path>
<path d="M623.02,27.58c1.14,1.14,1.75,2.79,1.75,5.06c0,15.86,0,51.23,0,56.8c0,8.97-6.05,2.58-9.71-0.5" style="fill:none;stroke:#999;stroke-width:3"></path>

</svg>