<svg width="872px" height="109px" viewBox="0 0 872 109" xmlns="http://www.w3.org/2000/svg" xmlns:xlink="http://www.w3.org/1999/xlink" xml:space="preserve" version="1.1" baseProfile="full">
<line x1="1" y1="1" x2="871" y2="1" style="stroke:#ddd;stroke-width:2"></line>
<line x1="1" y1="1" x2="1" y2="108" style="stroke:#ddd;stroke-width:2"></line>
<line x1="1" y1="108" x2="871" y2="108" style="stroke:#ddd;stroke-width:2"></line>
<line x1="871" y1="1" x2="871" y2="108" style="stroke:#ddd;stroke-width:2"></line>
<line x1="109" y1="1" x2="109" y2="108" style="stroke:#ddd;stroke-width:2"></line>
<line x1="218" y1="1" x2="218" y2="108" style="stroke:#ddd;stroke-width:2"></line>
<line x1="327" y1="1" x2="327" y2="108" style="stroke:#ddd;stroke-width:2"></line>
<line x1="436" y1="1" x2="436" y2="108" style="stroke:#ddd;stroke-width:2"></line>
<line x1="545" y1="1" x2="545" y2="108" style="stroke:#ddd;stroke-width:2"></line>
<line x1="654" y1="1" x2="654" y2="108" style="stroke:#ddd;stroke-width:2"></line>
<line x1="763" y1="1" x2="763" y2="108" style="stroke:#ddd;stroke-width:2"></line>
<line x1="1" y1="54" x2="871" y2="54" style="stroke:#ddd;stroke-width:2;stroke-dasharray:3 3"></line>
<line x1="55" y1="1" x2="55" y2="108" style="stroke:#ddd;stroke-width:2;stroke-dasharray:3 3"></line>
<line x1="164" y1="1" x2="164" y2="108" style="stroke:#ddd;stroke-width:2;stroke-dasharray:3 3"></line>
<line x1="273" y1="1" x2="273" y2="108" style="stroke:#ddd;stroke-width:2;stroke-dasharray:3 3"></line>
<line x1="382" y1="1" x2="382" y2="108" style="stroke:#ddd;stroke-width:2;stroke-dasharray:3 3"></line>
<line x1="491" y1="1" x2="491" y2="108" style="stroke:#ddd;stroke-width:2;stroke-dasharray:3 3"></line>
<line x1="600" y1="1" x2="600" y2="108" style="stroke:#ddd;stroke-width:2;stroke-dasharray:3 3"></line>
<line x1="709" y1="1" x2="709" y2="108" style="stroke:#ddd;stroke-width:2;stroke-dasharray:3 3"></line>
<line x1="818" y1="1" x2="818" y2="108" style="stroke:#ddd;stroke-width:2;stroke-dasharray:3 3"></line>
<path d="M13.32,39.78c0.93,5.34,1.93,11.47,1.81,16.78" style="fill:none;stroke:#999;stroke-width:3"></path>

<path d="M122.32,39.78c0.93,5.34,1.93,11.47,1.81,16.78" style="fill:none;stroke:#999;stroke-width:3"></path>
<path d="M152.93,32.71c0.06,0.68-0.35,1.67-0.94,2.34c-0.59,0.68-6.06,5.12-9,6.7" style="fill:none;stroke:#999;stroke-width:3"></path>

<path d="M231.32,39.78c0.93,5.34,1.93,11.47,1.81,16.78" style="fill:none;stroke:#999;stroke-width:3"></path>
<path d="M261.93,32.71c0.06,0.68-0.35,1.67-0.94,2.34c-0.59,0.68-6.06,5.12-9,6.7" style="fill:none;stroke:#999;stroke-width:3"></path>
<path d="M245.51,19.75c0.61,1.25,0.75,2.86,0.75,4.01c0,41.37-0.39,52.24-14.76,64.74" style="fill:none;stroke:#999;stroke-width:3"></path>

<path d="M340.32,39.78c0.93,5.34,1.93,11.47,1.81,16.78" style="fill:none;stroke:#999;stroke-width:3"></path>
<path d="M370.93,32.71c0.06,0.68-0.35,1.67-0.94,2.34c-0.59,0.68-6.06,5.12-9,6.7" style="fill:none;stroke:#999;stroke-width:3"></path>
<path d="M354.51,19.75c0.61,1.25,0.75,2.86,0.75,4.01c0,41.37-0.39,52.24-14.76,64.74" style="fill:none;stroke:#999;stroke-width:3"></path>
<path d="M358.25,63.25c4.76,2.31,10.78,9.61,12.04,12.88" style="fill:none;stroke:#999;stroke-width:3"></path>

<path d="M449.32,39.78c0.93,5.34,1.93,11.47,1.81,16.78" style="fill:none;stroke:#999;stroke-width:3"></path>
<path d="M479.93,32.71c0.06,0.68-0.35,1.67-0.94,2.34c-0.59,0.68-6.06,5.12-9,6.7" style="fill:none;stroke:#999;stroke-width:3"></path>
<path d="M463.51,19.75c0.61,1.25,0.75,2.86,0.75,4.01c0,41.37-0.39,52.24-14.76,64.74" style="fill:none;stroke:#999;stroke-width:3"></path>
<path d="M467.25,63.25c4.76,2.31,10.78,9.61,12.04,12.88" style="fill:none;stroke:#999;stroke-width:3"></path>
<path d="M498.38,17.75c0.05,0.76,0,1.73-0.35,2.78c-2.28,6.97-9.15,19.97-17.21,28.52" style="fill:none;stroke:#999;stroke-width:3"></path>

<path d="M558.3199999999999,39.78c0.93,5.34,1.93,11.47,1.81,16.78" style="fill:none;stroke:#999;stroke-width:3"></path>
<path d="M588.9300000000001,32.71c0.06,0.68-0.35,1.67-0.94,2.34c-0.59,0.68-6.06,5.12-9,6.7" style="fill:none;stroke:#999;stroke-width:3"></path>
<path d="M572.51,19.75c0.61,1.25,0.75,2.86,0.75,4.01c0,41.37-0.39,52.24-14.76,64.74" style="fill:none;stroke:#999;stroke-width:3"></path>
<path d="M576.25,63.25c4.76,2.31,10.78,9.61,12.04,12.88" style="fill:none;stroke:#999;stroke-width:3"></path>
<path d="M607.38,17.75c0.05,0.76,0,1.73-0.35,2.78c-2.28,6.97-9.15,19.97-17.21,28.52" style="fill:none;stroke:#999;stroke-width:3"></path>
<path d="M604.0,34.23c0.74,0.36,2.52,0.38,3.65,0.11c6.6-1.59,12.1-3.59,17.41-4.99c4.32-1.13,1.94,3.89-3.36,10.04" style="fill:none;stroke:#999;stroke-width:3"></path>

<path d="M667.3199999999999,39.78c0.93,5.34,1.93,11.47,1.81,16.78" style="fill:none;stroke:#999;stroke-width:3"></path>
<path d="M697.9300000000001,32.71c0.06,0.68-0.35,1.67-0.94,2.34c-0.59,0.68-6.06,5.12-9,6.7" style="fill:none;stroke:#999;stroke-width:3"></path>
<path d="M681.51,19.75c0.61,1.25,0.75,2.86,0.75,4.01c0,41.37-0.39,52.24-14.76,64.74" style="fill:none;stroke:#999;stroke-width:3"></path>
<path d="M685.25,63.25c4.76,2.31,10.78,9.61,12.04,12.88" style="fill:none;stroke:#999;stroke-width:3"></path>
<path d="M716.38,17.75c0.05,0.76,0,1.73-0.35,2.78c-2.28,6.97-9.15,19.97-17.21,28.52" style="fill:none;stroke:#999;stroke-width:3"></path>
<path d="M713.0,34.23c0.74,0.36,2.52,0.38,3.65,0.11c6.6-1.59,12.1-3.59,17.41-4.99c4.32-1.13,1.94,3.89-3.36,10.04" style="fill:none;stroke:#999;stroke-width:3"></path>
<path d="M716.58,46.32c0.67,1.18,1,3.11,0.85,4.74C716.25,64,712.38,84.88,691.25,94.01" style="fill:none;stroke:#999;stroke-width:3"></path>

<path d="M776.3199999999999,39.78c0.93,5.34,1.93,11.47,1.81,16.78" style="fill:none;stroke:#999;stroke-width:3"></path>
<path d="M806.9300000000001,32.71c0.06,0.68-0.35,1.67-0.94,2.34c-0.59,0.68-6.06,5.12-9,6.7" style="fill:none;stroke:#999;stroke-width:3"></path>
<path d="M790.51,19.75c0.61,1.25,0.75,2.86,0.75,4.01c0,41.37-0.39,52.24-14.76,64.74" style="fill:none;stroke:#999;stroke-width:3"></path>
<path d="M794.25,63.25c4.76,2.31,10.78,9.61,12.04,12.88" style="fill:none;stroke:#999;stroke-width:3"></path>
<path d="M825.38,17.75c0.05,0.76,0,1.73-0.35,2.78c-2.28,6.97-9.15,19.97-17.21,28.52" style="fill:none;stroke:#999;stroke-width:3"></path>
<path d="M822.0,34.23c0.74,0.36,2.52,0.38,3.65,0.11c6.6-1.59,12.1-3.59,17.41-4.99c4.32-1.13,1.94,3.89-3.36,10.04" style="fill:none;stroke:#999;stroke-width:3"></path>
<path d="M825.58,46.32c0.67,1.18,1,3.11,0.85,4.74C825.25,64,821.38,84.88,800.25,94.01" style="fill:none;stroke:#999;stroke-width:3"></path>
<path d="M825.53,60.44c6.84,7.69,15.34,16.94,24.13,25.66c2.25,2.24,5.02,4.16,7.84,5.65" style="fill:none;stroke:#999;stroke-width:3"></path>

</svg>