<svg width="981px" height="109px" viewBox="0 0 981 109" xmlns="http://www.w3.org/2000/svg" xmlns:xlink="http://www.w3.org/1999/xlink" xml:space="preserve" version="1.1" baseProfile="full">
<line x1="1" y1="1" x2="980" y2="1" style="stroke:#ddd;stroke-width:2"></line>
<line x1="1" y1="1" x2="1" y2="108" style="stroke:#ddd;stroke-width:2"></line>
<line x1="1" y1="108" x2="980" y2="108" style="stroke:#ddd;stroke-width:2"></line>
<line x1="980" y1="1" x2="980" y2="108" style="stroke:#ddd;stroke-width:2"></line>
<line x1="109" y1="1" x2="109" y2="108" style="stroke:#ddd;stroke-width:2"></line>
<line x1="218" y1="1" x2="218" y2="108" style="stroke:#ddd;stroke-width:2"></line>
<line x1="327" y1="1" x2="327" y2="108" style="stroke:#ddd;stroke-width:2"></line>
<line x1="436" y1="1" x2="436" y2="108" style="stroke:#ddd;stroke-width:2"></line>
<line x1="545" y1="1" x2="545" y2="108" style="stroke:#ddd;stroke-width:2"></line>
<line x1="654" y1="1" x2="654" y2="108" style="stroke:#ddd;stroke-width:2"></line>
<line x1="763" y1="1" x2="763" y2="108" style="stroke:#ddd;stroke-width:2"></line>
<line x1="872" y1="1" x2="872" y2="108" style="stroke:#ddd;stroke-width:2"></line>
<line x1="1" y1="54" x2="980" y2="54" style="stroke:#ddd;stroke-width:2;stroke-dasharray:3 3"></line>
<line x1="55" y1="1" x2="55" y2="108" style="stroke:#ddd;stroke-width:2;stroke-dasharray:3 3"></line>
<line x1="164" y1="1" x2="164" y2="108" style="stroke:#ddd;stroke-width:2;stroke-dasharray:3 3"></line>
<line x1="273" y1="1" x2="273" y2="108" style="stroke:#ddd;stroke-width:2;stroke-dasharray:3 3"></line>
<line x1="382" y1="1" x2="382" y2="108" style="stroke:#ddd;stroke-width:2;stroke-dasharray:3 3"></line>
<line x1="491" y1="1" x2="491" y2="108" style="stroke:#ddd;stroke-width:2;stroke-dasharray:3 3"></line>
<line x1="600" y1="1" x2="600" y2="108" style="stroke:#ddd;stroke-width:2;stroke-dasharray:3 3"></line>
<line x1="709" y1="1" x2="709" y2="108" style="stroke:#ddd;stroke-width:2;stroke-dasharray:3 3"></line>
<line x1="818" y1="1" x2="818" y2="108" style="stroke:#ddd;stroke-width:2;stroke-dasharray:3 3"></line>
<line x1="927" y1="1" x2="927" y2="108" style="stroke:#ddd;stroke-width:2;stroke-dasharray:3 3"></line>
<path d="M11.99,32c2.78,3.47,6.83,13.28,7.59,16.75" style="fill:none;stroke:#999;stroke-width:3"></path>

<path d="M120.99,32c2.78,3.47,6.83,13.28,7.59,16.75" style="fill:none;stroke:#999;stroke-width:3"></path>
<path d="M151.54,26.75c0.75,0.83,0.58,2.42-0.09,3.7c-0.67,1.28-7.1,10.81-10.48,13.8" style="fill:none;stroke:#999;stroke-width:3"></path>

<path d="M229.99,32c2.78,3.47,6.83,13.28,7.59,16.75" style="fill:none;stroke:#999;stroke-width:3"></path>
<path d="M260.53999999999996,26.75c0.75,0.83,0.58,2.42-0.09,3.7c-0.67,1.28-7.1,10.81-10.48,13.8" style="fill:none;stroke:#999;stroke-width:3"></path>
<path d="M244.87,13.25c0.71,0.78,1.41,1.83,1.41,3.14C246.48,70.2,245.25,80,231.25,94.5" style="fill:none;stroke:#999;stroke-width:3"></path>

<path d="M338.99,32c2.78,3.47,6.83,13.28,7.59,16.75" style="fill:none;stroke:#999;stroke-width:3"></path>
<path d="M369.53999999999996,26.75c0.75,0.83,0.58,2.42-0.09,3.7c-0.67,1.28-7.1,10.81-10.48,13.8" style="fill:none;stroke:#999;stroke-width:3"></path>
<path d="M353.87,13.25c0.71,0.78,1.41,1.83,1.41,3.14C355.48,70.2,354.25,80,340.25,94.5" style="fill:none;stroke:#999;stroke-width:3"></path>
<path d="M356.5,71.25c4.65,3.04,10.53,12.69,11.75,17" style="fill:none;stroke:#999;stroke-width:3"></path>

<path d="M447.99,32c2.78,3.47,6.83,13.28,7.59,16.75" style="fill:none;stroke:#999;stroke-width:3"></path>
<path d="M478.53999999999996,26.75c0.75,0.83,0.58,2.42-0.09,3.7c-0.67,1.28-7.1,10.81-10.48,13.8" style="fill:none;stroke:#999;stroke-width:3"></path>
<path d="M462.87,13.25c0.71,0.78,1.41,1.83,1.41,3.14C464.48,70.2,463.25,80,449.25,94.5" style="fill:none;stroke:#999;stroke-width:3"></path>
<path d="M465.5,71.25c4.65,3.04,10.53,12.69,11.75,17" style="fill:none;stroke:#999;stroke-width:3"></path>
<path d="M482.15,19.92c1.46,0.68,4.11,0.79,5.6,0.68c8.77-0.68,24.57-3,38.46-2.98c2.43,0,3.89,0.32,5.11,0.66" style="fill:none;stroke:#999;stroke-width:3"></path>

<path d="M556.99,32c2.78,3.47,6.83,13.28,7.59,16.75" style="fill:none;stroke:#999;stroke-width:3"></path>
<path d="M587.54,26.75c0.75,0.83,0.58,2.42-0.09,3.7c-0.67,1.28-7.1,10.81-10.48,13.8" style="fill:none;stroke:#999;stroke-width:3"></path>
<path d="M571.87,13.25c0.71,0.78,1.41,1.83,1.41,3.14C573.48,70.2,572.25,80,558.25,94.5" style="fill:none;stroke:#999;stroke-width:3"></path>
<path d="M574.5,71.25c4.65,3.04,10.53,12.69,11.75,17" style="fill:none;stroke:#999;stroke-width:3"></path>
<path d="M591.15,19.92c1.46,0.68,4.11,0.79,5.6,0.68c8.77-0.68,24.57-3,38.46-2.98c2.43,0,3.89,0.32,5.11,0.66" style="fill:none;stroke:#999;stroke-width:3"></path>
<path d="M592.01,38.11c0.99,1.14,1.28,2.34,1.32,4.14c0.23,11-0.21,41.33-0.02,52.57" style="fill:none;stroke:#999;stroke-width:3"></path>

<path d="M665.99,32c2.78,3.47,6.83,13.28,7.59,16.75" style="fill:none;stroke:#999;stroke-width:3"></path>
<path d="M696.54,26.75c0.75,0.83,0.58,2.42-0.09,3.7c-0.67,1.28-7.1,10.81-10.48,13.8" style="fill:none;stroke:#999;stroke-width:3"></path>
<path d="M680.87,13.25c0.71,0.78,1.41,1.83,1.41,3.14C682.48,70.2,681.25,80,667.25,94.5" style="fill:none;stroke:#999;stroke-width:3"></path>
<path d="M683.5,71.25c4.65,3.04,10.53,12.69,11.75,17" style="fill:none;stroke:#999;stroke-width:3"></path>
<path d="M700.15,19.92c1.46,0.68,4.11,0.79,5.6,0.68c8.77-0.68,24.57-3,38.46-2.98c2.43,0,3.89,0.32,5.11,0.66" style="fill:none;stroke:#999;stroke-width:3"></path>
<path d="M701.01,38.11c0.99,1.14,1.28,2.34,1.32,4.14c0.23,11-0.21,41.33-0.02,52.57" style="fill:none;stroke:#999;stroke-width:3"></path>
<path d="M702.37,39.51c5.9-0.61,40.75-3.85,41.88-3.96c2.64-0.26,4,1.19,4.07,4.11c0.21,8.92,0.2,38.84,0.2,47.98c0,8.86-4.02,5.36-8.08,1.03" style="fill:none;stroke:#999;stroke-width:3"></path>

<path d="M774.99,32c2.78,3.47,6.83,13.28,7.59,16.75" style="fill:none;stroke:#999;stroke-width:3"></path>
<path d="M805.54,26.75c0.75,0.83,0.58,2.42-0.09,3.7c-0.67,1.28-7.1,10.81-10.48,13.8" style="fill:none;stroke:#999;stroke-width:3"></path>
<path d="M789.87,13.25c0.71,0.78,1.41,1.83,1.41,3.14C791.48,70.2,790.25,80,776.25,94.5" style="fill:none;stroke:#999;stroke-width:3"></path>
<path d="M792.5,71.25c4.65,3.04,10.53,12.69,11.75,17" style="fill:none;stroke:#999;stroke-width:3"></path>
<path d="M809.15,19.92c1.46,0.68,4.11,0.79,5.6,0.68c8.77-0.68,24.57-3,38.46-2.98c2.43,0,3.89,0.32,5.11,0.66" style="fill:none;stroke:#999;stroke-width:3"></path>
<path d="M810.01,38.11c0.99,1.14,1.28,2.34,1.32,4.14c0.23,11-0.21,41.33-0.02,52.57" style="fill:none;stroke:#999;stroke-width:3"></path>
<path d="M811.37,39.51c5.9-0.61,40.75-3.85,41.88-3.96c2.64-0.26,4,1.19,4.07,4.11c0.21,8.92,0.2,38.84,0.2,47.98c0,8.86-4.02,5.36-8.08,1.03" style="fill:none;stroke:#999;stroke-width:3"></path>
<path d="M831.0699999999999,23.19c0.47,0.65,1.04,1.66,1.03,3.45C832.0,46,829.75,60.25,816.13,71.19" style="fill:none;stroke:#999;stroke-width:3"></path>

<path d="M883.99,32c2.78,3.47,6.83,13.28,7.59,16.75" style="fill:none;stroke:#999;stroke-width:3"></path>
<path d="M914.54,26.75c0.75,0.83,0.58,2.42-0.09,3.7c-0.67,1.28-7.1,10.81-10.48,13.8" style="fill:none;stroke:#999;stroke-width:3"></path>
<path d="M898.87,13.25c0.71,0.78,1.41,1.83,1.41,3.14C900.48,70.2,899.25,80,885.25,94.5" style="fill:none;stroke:#999;stroke-width:3"></path>
<path d="M901.5,71.25c4.65,3.04,10.53,12.69,11.75,17" style="fill:none;stroke:#999;stroke-width:3"></path>
<path d="M918.15,19.92c1.46,0.68,4.11,0.79,5.6,0.68c8.77-0.68,24.57-3,38.46-2.98c2.43,0,3.89,0.32,5.11,0.66" style="fill:none;stroke:#999;stroke-width:3"></path>
<path d="M919.01,38.11c0.99,1.14,1.28,2.34,1.32,4.14c0.23,11-0.21,41.33-0.02,52.57" style="fill:none;stroke:#999;stroke-width:3"></path>
<path d="M920.37,39.51c5.9-0.61,40.75-3.85,41.88-3.96c2.64-0.26,4,1.19,4.07,4.11c0.21,8.92,0.2,38.84,0.2,47.98c0,8.86-4.02,5.36-8.08,1.03" style="fill:none;stroke:#999;stroke-width:3"></path>
<path d="M940.0699999999999,23.19c0.47,0.65,1.04,1.66,1.03,3.45C941.0,46,938.75,60.25,925.13,71.19" style="fill:none;stroke:#999;stroke-width:3"></path>
<path d="M941.25,40.75C943.75,48.75,952.0,62,957.42,67.1c1.13,1.07,2.18,1.79,3.08,2.15" style="fill:none;stroke:#999;stroke-width:3"></path>

</svg>