<svg width="1090px" height="109px" viewBox="0 0 1090 109" xmlns="http://www.w3.org/2000/svg" xmlns:xlink="http://www.w3.org/1999/xlink" xml:space="preserve" version="1.1" baseProfile="full">
<line x1="1" y1="1" x2="1089" y2="1" style="stroke:#ddd;stroke-width:2"></line>
<line x1="1" y1="1" x2="1" y2="108" style="stroke:#ddd;stroke-width:2"></line>
<line x1="1" y1="108" x2="1089" y2="108" style="stroke:#ddd;stroke-width:2"></line>
<line x1="1089" y1="1" x2="1089" y2="108" style="stroke:#ddd;stroke-width:2"></line>
<line x1="109" y1="1" x2="109" y2="108" style="stroke:#ddd;stroke-width:2"></line>
<line x1="218" y1="1" x2="218" y2="108" style="stroke:#ddd;stroke-width:2"></line>
<line x1="327" y1="1" x2="327" y2="108" style="stroke:#ddd;stroke-width:2"></line>
<line x1="436" y1="1" x2="436" y2="108" style="stroke:#ddd;stroke-width:2"></line>
<line x1="545" y1="1" x2="545" y2="108" style="stroke:#ddd;stroke-width:2"></line>
<line x1="654" y1="1" x2="654" y2="108" style="stroke:#ddd;stroke-width:2"></line>
<line x1="763" y1="1" x2="763" y2="108" style="stroke:#ddd;stroke-width:2"></line>
<line x1="872" y1="1" x2="872" y2="108" style="stroke:#ddd;stroke-width:2"></line>
<line x1="981" y1="1" x2="981" y2="108" style="stroke:#ddd;stroke-width:2"></line>
<line x1="1" y1="54" x2="1089" y2="54" style="stroke:#ddd;stroke-width:2;stroke-dasharray:3 3"></line>
<line x1="55" y1="1" x2="55" y2="108" style="stroke:#ddd;stroke-width:2;stroke-dasharray:3 3"></line>
<line x1="164" y1="1" x2="164" y2="108" style="stroke:#ddd;stroke-width:2;stroke-dasharray:3 3"></line>
<line x1="273" y1="1" x2="273" y2="108" style="stroke:#ddd;stroke-width:2;stroke-dasharray:3 3"></line>
<line x1="382" y1="1" x2="382" y2="108" style="stroke:#ddd;stroke-width:2;stroke-dasharray:3 3"></line>
<line x1="491" y1="1" x2="491" y2="108" style="stroke:#ddd;stroke-width:2;stroke-dasharray:3 3"></line>
<line x1="600" y1="1" x2="600" y2="108" style="stroke:#ddd;stroke-width:2;stroke-dasharray:3 3"></line>
<line x1="709" y1="1" x2="709" y2="108" style="stroke:#ddd;stroke-width:2;stroke-dasharray:3 3"></line>
<line x1="818" y1="1" x2="818" y2="108" style="stroke:#ddd;stroke-width:2;stroke-dasharray:3 3"></line>
<line x1="927" y1="1" x2="927" y2="108" style="stroke:#ddd;stroke-width:2;stroke-dasharray:3 3"></line>
<line x1="1036" y1="1" x2="1036" y2="108" style="stroke:#ddd;stroke-width:2;stroke-dasharray:3 3"></line>
<path d="M49.23,10.68c0.03,1.02-0.07,2.03-0.46,2.95c-1.51,3.5-3.51,7.12-6.76,11.12" style="fill:none;stroke:#999;stroke-width:3"></path>

<path d="M158.23,10.68c0.03,1.02-0.07,2.03-0.46,2.95c-1.51,3.5-3.51,7.12-6.76,11.12" style="fill:none;stroke:#999;stroke-width:3"></path>
<path d="M142.38,27.07c0.78,0.78,1.07,2.18,1.07,3.3c0,5.08,0.03,19.07-0.08,30.63c-0.03,3.55-0.08,6.75-0.15,9.2" style="fill:none;stroke:#999;stroke-width:3"></path>

<path d="M267.23,10.68c0.03,1.02-0.07,2.03-0.46,2.95c-1.51,3.5-3.51,7.12-6.76,11.12" style="fill:none;stroke:#999;stroke-width:3"></path>
<path d="M251.38,27.07c0.78,0.78,1.07,2.18,1.07,3.3c0,5.08,0.03,19.07-0.08,30.63c-0.03,3.55-0.08,6.75-0.15,9.2" style="fill:none;stroke:#999;stroke-width:3"></path>
<path d="M253.02,28.72c5.23-0.72,32.59-4.48,34.67-4.48c2.77,0,4.85,1.82,4.09,4.54c-0.53,1.9-1.98,6.51-3.5,11.35c-0.51,1.63-1.03,3.29-1.52,4.87" style="fill:none;stroke:#999;stroke-width:3"></path>

<path d="M376.23,10.68c0.03,1.02-0.07,2.03-0.46,2.95c-1.51,3.5-3.51,7.12-6.76,11.12" style="fill:none;stroke:#999;stroke-width:3"></path>
<path d="M360.38,27.07c0.78,0.78,1.07,2.18,1.07,3.3c0,5.08,0.03,19.07-0.08,30.63c-0.03,3.55-0.08,6.75-0.15,9.2" style="fill:none;stroke:#999;stroke-width:3"></path>
<path d="M362.02,28.72c5.23-0.72,32.59-4.48,34.67-4.48c2.77,0,4.85,1.82,4.09,4.54c-0.53,1.9-1.98,6.51-3.5,11.35c-0.51,1.63-1.03,3.29-1.52,4.87" style="fill:none;stroke:#999;stroke-width:3"></path>
<path d="M362.24,45.78c5.31-0.38,26.87-2.88,33.48-3.2" style="fill:none;stroke:#999;stroke-width:3"></path>

<path d="M485.23,10.68c0.03,1.02-0.07,2.03-0.46,2.95c-1.51,3.5-3.51,7.12-6.76,11.12" style="fill:none;stroke:#999;stroke-width:3"></path>
<path d="M469.38,27.07c0.78,0.78,1.07,2.18,1.07,3.3c0,5.08,0.03,19.07-0.08,30.63c-0.03,3.55-0.08,6.75-0.15,9.2" style="fill:none;stroke:#999;stroke-width:3"></path>
<path d="M471.02,28.72c5.23-0.72,32.59-4.48,34.67-4.48c2.77,0,4.85,1.82,4.09,4.54c-0.53,1.9-1.98,6.51-3.5,11.35c-0.51,1.63-1.03,3.29-1.52,4.87" style="fill:none;stroke:#999;stroke-width:3"></path>
<path d="M471.24,45.78c5.31-0.38,26.87-2.88,33.48-3.2" style="fill:none;stroke:#999;stroke-width:3"></path>
<path d="M471.53,58.05c9.25-1.07,27.99-2.77,36.98-3.78c3.18-0.43,6.39-0.55,9.61-0.37" style="fill:none;stroke:#999;stroke-width:3"></path>

<path d="M594.23,10.68c0.03,1.02-0.07,2.03-0.46,2.95c-1.51,3.5-3.51,7.12-6.76,11.12" style="fill:none;stroke:#999;stroke-width:3"></path>
<path d="M578.38,27.07c0.78,0.78,1.07,2.18,1.07,3.3c0,5.08,0.03,19.07-0.08,30.63c-0.03,3.55-0.08,6.75-0.15,9.2" style="fill:none;stroke:#999;stroke-width:3"></path>
<path d="M580.02,28.72c5.23-0.72,32.59-4.48,34.67-4.48c2.77,0,4.85,1.82,4.09,4.54c-0.53,1.9-1.98,6.51-3.5,11.35c-0.51,1.63-1.03,3.29-1.52,4.87" style="fill:none;stroke:#999;stroke-width:3"></path>
<path d="M580.24,45.78c5.31-0.38,26.87-2.88,33.48-3.2" style="fill:none;stroke:#999;stroke-width:3"></path>
<path d="M580.53,58.05c9.25-1.07,27.99-2.77,36.98-3.78c3.18-0.43,6.39-0.55,9.61-0.37" style="fill:none;stroke:#999;stroke-width:3"></path>
<path d="M579.48,70.4c17.27-2.53,37.15-4.56,49.02-5.4c5.25-0.38,6.81,2.33,6,5.75c-2.25,9.5-4.32,17.96-8,24c-3.5,5.75-5.25,3.75-9,0.75" style="fill:none;stroke:#999;stroke-width:3"></path>

<path d="M703.23,10.68c0.03,1.02-0.07,2.03-0.46,2.95c-1.51,3.5-3.51,7.12-6.76,11.12" style="fill:none;stroke:#999;stroke-width:3"></path>
<path d="M687.38,27.07c0.78,0.78,1.07,2.18,1.07,3.3c0,5.08,0.03,19.07-0.08,30.63c-0.03,3.55-0.08,6.75-0.15,9.2" style="fill:none;stroke:#999;stroke-width:3"></path>
<path d="M689.02,28.72c5.23-0.72,32.59-4.48,34.67-4.48c2.77,0,4.85,1.82,4.09,4.54c-0.53,1.9-1.98,6.51-3.5,11.35c-0.51,1.63-1.03,3.29-1.52,4.87" style="fill:none;stroke:#999;stroke-width:3"></path>
<path d="M689.24,45.78c5.31-0.38,26.87-2.88,33.48-3.2" style="fill:none;stroke:#999;stroke-width:3"></path>
<path d="M689.53,58.05c9.25-1.07,27.99-2.77,36.98-3.78c3.18-0.43,6.39-0.55,9.61-0.37" style="fill:none;stroke:#999;stroke-width:3"></path>
<path d="M688.48,70.4c17.27-2.53,37.15-4.56,49.02-5.4c5.25-0.38,6.81,2.33,6,5.75c-2.25,9.5-4.32,17.96-8,24c-3.5,5.75-5.25,3.75-9,0.75" style="fill:none;stroke:#999;stroke-width:3"></path>
<path d="M670.39,80c0.41,5.38-0.29,11.89-1.5,15.25" style="fill:none;stroke:#999;stroke-width:3"></path>

<path d="M812.23,10.68c0.03,1.02-0.07,2.03-0.46,2.95c-1.51,3.5-3.51,7.12-6.76,11.12" style="fill:none;stroke:#999;stroke-width:3"></path>
<path d="M796.38,27.07c0.78,0.78,1.07,2.18,1.07,3.3c0,5.08,0.03,19.07-0.08,30.63c-0.03,3.55-0.08,6.75-0.15,9.2" style="fill:none;stroke:#999;stroke-width:3"></path>
<path d="M798.02,28.72c5.23-0.72,32.59-4.48,34.67-4.48c2.77,0,4.85,1.82,4.09,4.54c-0.53,1.9-1.98,6.51-3.5,11.35c-0.51,1.63-1.03,3.29-1.52,4.87" style="fill:none;stroke:#999;stroke-width:3"></path>
<path d="M798.24,45.78c5.31-0.38,26.87-2.88,33.48-3.2" style="fill:none;stroke:#999;stroke-width:3"></path>
<path d="M798.53,58.05c9.25-1.07,27.99-2.77,36.98-3.78c3.18-0.43,6.39-0.55,9.61-0.37" style="fill:none;stroke:#999;stroke-width:3"></path>
<path d="M797.48,70.4c17.27-2.53,37.15-4.56,49.02-5.4c5.25-0.38,6.81,2.33,6,5.75c-2.25,9.5-4.32,17.96-8,24c-3.5,5.75-5.25,3.75-9,0.75" style="fill:none;stroke:#999;stroke-width:3"></path>
<path d="M779.39,80c0.41,5.38-0.29,11.89-1.5,15.25" style="fill:none;stroke:#999;stroke-width:3"></path>
<path d="M795.0,79.75c2.69,2.18,5.24,8.16,5.91,11.55" style="fill:none;stroke:#999;stroke-width:3"></path>

<path d="M921.23,10.68c0.03,1.02-0.07,2.03-0.46,2.95c-1.51,3.5-3.51,7.12-6.76,11.12" style="fill:none;stroke:#999;stroke-width:3"></path>
<path d="M905.38,27.07c0.78,0.78,1.07,2.18,1.07,3.3c0,5.08,0.03,19.07-0.08,30.63c-0.03,3.55-0.08,6.75-0.15,9.2" style="fill:none;stroke:#999;stroke-width:3"></path>
<path d="M907.02,28.72c5.23-0.72,32.59-4.48,34.67-4.48c2.77,0,4.85,1.82,4.09,4.54c-0.53,1.9-1.98,6.51-3.5,11.35c-0.51,1.63-1.03,3.29-1.52,4.87" style="fill:none;stroke:#999;stroke-width:3"></path>
<path d="M907.24,45.78c5.31-0.38,26.87-2.88,33.48-3.2" style="fill:none;stroke:#999;stroke-width:3"></path>
<path d="M907.53,58.05c9.25-1.07,27.99-2.77,36.98-3.78c3.18-0.43,6.39-0.55,9.61-0.37" style="fill:none;stroke:#999;stroke-width:3"></path>
<path d="M906.48,70.4c17.27-2.53,37.15-4.56,49.02-5.4c5.25-0.38,6.81,2.33,6,5.75c-2.25,9.5-4.32,17.96-8,24c-3.5,5.75-5.25,3.75-9,0.75" style="fill:none;stroke:#999;stroke-width:3"></path>
<path d="M888.39,80c0.41,5.38-0.29,11.89-1.5,15.25" style="fill:none;stroke:#999;stroke-width:3"></path>
<path d="M904.0,79.75c2.69,2.18,5.24,8.16,5.91,11.55" style="fill:none;stroke:#999;stroke-width:3"></path>
<path d="M919.5,77.25c2.21,1.85,5.7,7.62,6.25,10.5" style="fill:none;stroke:#999;stroke-width:3"></path>

<path d="M1030.23,10.68c0.03,1.02-0.07,2.03-0.46,2.95c-1.51,3.5-3.51,7.12-6.76,11.12" style="fill:none;stroke:#999;stroke-width:3"></path>
<path d="M1014.38,27.07c0.78,0.78,1.07,2.18,1.07,3.3c0,5.08,0.03,19.07-0.08,30.63c-0.03,3.55-0.08,6.75-0.15,9.2" style="fill:none;stroke:#999;stroke-width:3"></path>
<path d="M1016.02,28.72c5.23-0.72,32.59-4.48,34.67-4.48c2.77,0,4.85,1.82,4.09,4.54c-0.53,1.9-1.98,6.51-3.5,11.35c-0.51,1.63-1.03,3.29-1.52,4.87" style="fill:none;stroke:#999;stroke-width:3"></path>
<path d="M1016.24,45.78c5.31-0.38,26.87-2.88,33.48-3.2" style="fill:none;stroke:#999;stroke-width:3"></path>
<path d="M1016.53,58.05c9.25-1.07,27.99-2.77,36.98-3.78c3.18-0.43,6.39-0.55,9.61-0.37" style="fill:none;stroke:#999;stroke-width:3"></path>
<path d="M1015.48,70.4c17.27-2.53,37.15-4.56,49.02-5.4c5.25-0.38,6.81,2.33,6,5.75c-2.25,9.5-4.32,17.96-8,24c-3.5,5.75-5.25,3.75-9,0.75" style="fill:none;stroke:#999;stroke-width:3"></path>
<path d="M997.39,80c0.41,5.38-0.29,11.89-1.5,15.25" style="fill:none;stroke:#999;stroke-width:3"></path>
<path d="M1013.0,79.75c2.69,2.18,5.24,8.16,5.91,11.55" style="fill:none;stroke:#999;stroke-width:3"></path>
<path d="M1028.5,77.25c2.21,1.85,5.7,7.62,6.25,10.5" style="fill:none;stroke:#999;stroke-width:3"></path>
<path d="M1042.25,75.75c2.29,1.72,5.93,7.07,6.5,9.75" style="fill:none;stroke:#999;stroke-width:3"></path>

</svg>