<svg width="436px" height="109px" viewBox="0 0 436 109" xmlns="http://www.w3.org/2000/svg" xmlns:xlink="http://www.w3.org/1999/xlink" xml:space="preserve" version="1.1" baseProfile="full">
<line x1="1" y1="1" x2="435" y2="1" style="stroke:#ddd;stroke-width:2"></line>
<line x1="1" y1="1" x2="1" y2="108" style="stroke:#ddd;stroke-width:2"></line>
<line x1="1" y1="108" x2="435" y2="108" style="stroke:#ddd;stroke-width:2"></line>
<line x1="435" y1="1" x2="435" y2="108" style="stroke:#ddd;stroke-width:2"></line>
<line x1="109" y1="1" x2="109" y2="108" style="stroke:#ddd;stroke-width:2"></line>
<line x1="218" y1="1" x2="218" y2="108" style="stroke:#ddd;stroke-width:2"></line>
<line x1="327" y1="1" x2="327" y2="108" style="stroke:#ddd;stroke-width:2"></line>
<line x1="1" y1="54" x2="435" y2="54" style="stroke:#ddd;stroke-width:2;stroke-dasharray:3 3"></line>
<line x1="55" y1="1" x2="55" y2="108" style="stroke:#ddd;stroke-width:2;stroke-dasharray:3 3"></line>
<line x1="164" y1="1" x2="164" y2="108" style="stroke:#ddd;stroke-width:2;stroke-dasharray:3 3"></line>
<line x1="273" y1="1" x2="273" y2="108" style="stroke:#ddd;stroke-width:2;stroke-dasharray:3 3"></line>
<line x1="382" y1="1" x2="382" y2="108" style="stroke:#ddd;stroke-width:2;stroke-dasharray:3 3"></line>
<path d="M38.49,18.25c0.39,1.38,0.07,2.89-0.59,4.16C32.0,33.91,26.32,39.13,18.75,45.62" style="fill:none;stroke:#999;stroke-width:3"></path>

<path d="M147.49,18.25c0.39,1.38,0.07,2.89-0.59,4.16C141.0,33.91,135.32,39.13,127.75,45.62" style="fill:none;stroke:#999;stroke-width:3"></path>
<path d="M178.38,19.5c7.25,4,14.29,9.68,18.88,15.5" style="fill:none;stroke:#999;stroke-width:3"></path>

<path d="M256.49,18.25c0.39,1.38,0.07,2.89-0.59,4.16C250.0,33.91,244.32,39.13,236.75,45.62" style="fill:none;stroke:#999;stroke-width:3"></path>
<path d="M287.38,19.5c7.25,4,14.29,9.68,18.88,15.5" style="fill:none;stroke:#999;stroke-width:3"></path>
<path d="M285.7,39.68c0.55,1.57,0.31,3.8-0.42,5.92C278.63,64.87,266.0,80.25,241.0,90.25" style="fill:none;stroke:#999;stroke-width:3"></path>

<path d="M365.49,18.25c0.39,1.38,0.07,2.89-0.59,4.16C359.0,33.91,353.32,39.13,345.75,45.62" style="fill:none;stroke:#999;stroke-width:3"></path>
<path d="M396.38,19.5c7.25,4,14.29,9.68,18.88,15.5" style="fill:none;stroke:#999;stroke-width:3"></path>
<path d="M394.7,39.68c0.55,1.57,0.31,3.8-0.42,5.92C387.63,64.87,375.0,80.25,350.0,90.25" style="fill:none;stroke:#999;stroke-width:3"></path>
<path d="M361.25,47c4.83,0,29,25.38,45.99,37.02c3.54,2.43,7.39,4.55,11.51,5.77" style="fill:none;stroke:#999;stroke-width:3"></path>

</svg>