<svg width="436px" height="109px" viewBox="0 0 436 109" xmlns="http://www.w3.org/2000/svg" xmlns:xlink="http://www.w3.org/1999/xlink" xml:space="preserve" version="1.1" baseProfile="full">
<line x1="1" y1="1" x2="435" y2="1" style="stroke:#ddd;stroke-width:2"></line>
<line x1="1" y1="1" x2="1" y2="108" style="stroke:#ddd;stroke-width:2"></line>
<line x1="1" y1="108" x2="435" y2="108" style="stroke:#ddd;stroke-width:2"></line>
<line x1="435" y1="1" x2="435" y2="108" style="stroke:#ddd;stroke-width:2"></line>
<line x1="109" y1="1" x2="109" y2="108" style="stroke:#ddd;stroke-width:2"></line>
<line x1="218" y1="1" x2="218" y2="108" style="stroke:#ddd;stroke-width:2"></line>
<line x1="327" y1="1" x2="327" y2="108" style="stroke:#ddd;stroke-width:2"></line>
<line x1="1" y1="54" x2="435" y2="54" style="stroke:#ddd;stroke-width:2;stroke-dasharray:3 3"></line>
<line x1="55" y1="1" x2="55" y2="108" style="stroke:#ddd;stroke-width:2;stroke-dasharray:3 3"></line>
<line x1="164" y1="1" x2="164" y2="108" style="stroke:#ddd;stroke-width:2;stroke-dasharray:3 3"></line>
<line x1="273" y1="1" x2="273" y2="108" style="stroke:#ddd;stroke-width:2;stroke-dasharray:3 3"></line>
<line x1="382" y1="1" x2="382" y2="108" style="stroke:#ddd;stroke-width:2;stroke-dasharray:3 3"></line>
<path d="M73.16,9.14c0.15,0.8,0.31,2.06-0.3,3.2c-3.62,6.75-24.39,21.56-52.81,30.62" style="fill:none;stroke:#999;stroke-width:3"></path>

<path d="M182.16,9.14c0.15,0.8,0.31,2.06-0.3,3.2c-3.62,6.75-24.39,21.56-52.81,30.62" style="fill:none;stroke:#999;stroke-width:3"></path>
<path d="M141.27,17.58C158.75,20,182.0,32.25,188.81,40.72" style="fill:none;stroke:#999;stroke-width:3"></path>

<path d="M291.15999999999997,9.14c0.15,0.8,0.31,2.06-0.3,3.2c-3.62,6.75-24.39,21.56-52.81,30.62" style="fill:none;stroke:#999;stroke-width:3"></path>
<path d="M250.27,17.58C267.75,20,291.0,32.25,297.81,40.72" style="fill:none;stroke:#999;stroke-width:3"></path>
<path d="M285.54,42.43c0.8,1.4,0.51,3.84-0.1,5.46C276.75,71,258.79,89.12,235.5,99" style="fill:none;stroke:#999;stroke-width:3"></path>

<path d="M400.15999999999997,9.14c0.15,0.8,0.31,2.06-0.3,3.2c-3.62,6.75-24.39,21.56-52.81,30.62" style="fill:none;stroke:#999;stroke-width:3"></path>
<path d="M359.27,17.58C376.75,20,400.0,32.25,406.81,40.72" style="fill:none;stroke:#999;stroke-width:3"></path>
<path d="M394.54,42.43c0.8,1.4,0.51,3.84-0.1,5.46C385.75,71,367.79,89.12,344.5,99" style="fill:none;stroke:#999;stroke-width:3"></path>
<path d="M360.75,47c1.25,0.5,2.75,1.7,3.15,2.32c9.96,15.32,30,35.58,46.25,45.47c2.99,1.82,4.73,2.26,7.1,2.47" style="fill:none;stroke:#999;stroke-width:3"></path>

</svg>