<svg width="1199px" height="109px" viewBox="0 0 1199 109" xmlns="http://www.w3.org/2000/svg" xmlns:xlink="http://www.w3.org/1999/xlink" xml:space="preserve" version="1.1" baseProfile="full">
<line x1="1" y1="1" x2="1198" y2="1" style="stroke:#ddd;stroke-width:2"></line>
<line x1="1" y1="1" x2="1" y2="108" style="stroke:#ddd;stroke-width:2"></line>
<line x1="1" y1="108" x2="1198" y2="108" style="stroke:#ddd;stroke-width:2"></line>
<line x1="1198" y1="1" x2="1198" y2="108" style="stroke:#ddd;stroke-width:2"></line>
<line x1="109" y1="1" x2="109" y2="108" style="stroke:#ddd;stroke-width:2"></line>
<line x1="218" y1="1" x2="218" y2="108" style="stroke:#ddd;stroke-width:2"></line>
<line x1="327" y1="1" x2="327" y2="108" style="stroke:#ddd;stroke-width:2"></line>
<line x1="436" y1="1" x2="436" y2="108" style="stroke:#ddd;stroke-width:2"></line>
<line x1="545" y1="1" x2="545" y2="108" style="stroke:#ddd;stroke-width:2"></line>
<line x1="654" y1="1" x2="654" y2="108" style="stroke:#ddd;stroke-width:2"></line>
<line x1="763" y1="1" x2="763" y2="108" style="stroke:#ddd;stroke-width:2"></line>
<line x1="872" y1="1" x2="872" y2="108" style="stroke:#ddd;stroke-width:2"></line>
<line x1="981" y1="1" x2="981" y2="108" style="stroke:#ddd;stroke-width:2"></line>
<line x1="1090" y1="1" x2="1090" y2="108" style="stroke:#ddd;stroke-width:2"></line>
<line x1="1" y1="54" x2="1198" y2="54" style="stroke:#ddd;stroke-width:2;stroke-dasharray:3 3"></line>
<line x1="55" y1="1" x2="55" y2="108" style="stroke:#ddd;stroke-width:2;stroke-dasharray:3 3"></line>
<line x1="164" y1="1" x2="164" y2="108" style="stroke:#ddd;stroke-width:2;stroke-dasharray:3 3"></line>
<line x1="273" y1="1" x2="273" y2="108" style="stroke:#ddd;stroke-width:2;stroke-dasharray:3 3"></line>
<line x1="382" y1="1" x2="382" y2="108" style="stroke:#ddd;stroke-width:2;stroke-dasharray:3 3"></line>
<line x1="491" y1="1" x2="491" y2="108" style="stroke:#ddd;stroke-width:2;stroke-dasharray:3 3"></line>
<line x1="600" y1="1" x2="600" y2="108" style="stroke:#ddd;stroke-width:2;stroke-dasharray:3 3"></line>
<line x1="709" y1="1" x2="709" y2="108" style="stroke:#ddd;stroke-width:2;stroke-dasharray:3 3"></line>
<line x1="818" y1="1" x2="818" y2="108" style="stroke:#ddd;stroke-width:2;stroke-dasharray:3 3"></line>
<line x1="927" y1="1" x2="927" y2="108" style="stroke:#ddd;stroke-width:2;stroke-dasharray:3 3"></line>
<line x1="1036" y1="1" x2="1036" y2="108" style="stroke:#ddd;stroke-width:2;stroke-dasharray:3 3"></line>
<line x1="1145" y1="1" x2="1145" y2="108" style="stroke:#ddd;stroke-width:2;stroke-dasharray:3 3"></line>
<path d="M21.0,28.95c2.79,0.99,6.51,0.73,9.4,0.42c12.27-1.32,32.22-4.23,48.47-4.77c2.99-0.1,5.93-0.18,8.88,0.45" style="fill:none;stroke:#999;stroke-width:3"></path>

<path d="M130.0,28.95c2.79,0.99,6.51,0.73,9.4,0.42c12.27-1.32,32.22-4.23,48.47-4.77c2.99-0.1,5.93-0.18,8.88,0.45" style="fill:none;stroke:#999;stroke-width:3"></path>
<path d="M148.97,35.16c0.14,1.09-0.11,1.92-0.68,2.87c-2.26,3.76-9.2,9.6-18.74,15.42" style="fill:none;stroke:#999;stroke-width:3"></path>

<path d="M239.0,28.95c2.79,0.99,6.51,0.73,9.4,0.42c12.27-1.32,32.22-4.23,48.47-4.77c2.99-0.1,5.93-0.18,8.88,0.45" style="fill:none;stroke:#999;stroke-width:3"></path>
<path d="M257.97,35.16c0.14,1.09-0.11,1.92-0.68,2.87c-2.26,3.76-9.2,9.6-18.74,15.42" style="fill:none;stroke:#999;stroke-width:3"></path>
<path d="M246.31,40.04c4.23,0.99,9.85,5.98,11.5,9.43" style="fill:none;stroke:#999;stroke-width:3"></path>

<path d="M348.0,28.95c2.79,0.99,6.51,0.73,9.4,0.42c12.27-1.32,32.22-4.23,48.47-4.77c2.99-0.1,5.93-0.18,8.88,0.45" style="fill:none;stroke:#999;stroke-width:3"></path>
<path d="M366.97,35.16c0.14,1.09-0.11,1.92-0.68,2.87c-2.26,3.76-9.2,9.6-18.74,15.42" style="fill:none;stroke:#999;stroke-width:3"></path>
<path d="M355.31,40.04c4.23,0.99,9.85,5.98,11.5,9.43" style="fill:none;stroke:#999;stroke-width:3"></path>
<path d="M364.48,54.91c0.13,1.03-0.11,1.97-0.7,2.81c-2.03,2.9-7.16,7.53-15.97,13.48" style="fill:none;stroke:#999;stroke-width:3"></path>

<path d="M457.0,28.95c2.79,0.99,6.51,0.73,9.4,0.42c12.27-1.32,32.22-4.23,48.47-4.77c2.99-0.1,5.93-0.18,8.88,0.45" style="fill:none;stroke:#999;stroke-width:3"></path>
<path d="M475.97,35.16c0.14,1.09-0.11,1.92-0.68,2.87c-2.26,3.76-9.2,9.6-18.74,15.42" style="fill:none;stroke:#999;stroke-width:3"></path>
<path d="M464.31,40.04c4.23,0.99,9.85,5.98,11.5,9.43" style="fill:none;stroke:#999;stroke-width:3"></path>
<path d="M473.48,54.91c0.13,1.03-0.11,1.97-0.7,2.81c-2.03,2.9-7.16,7.53-15.97,13.48" style="fill:none;stroke:#999;stroke-width:3"></path>
<path d="M460.35,58.66C465.0,60.5,472.0,65.75,474.44,69.18" style="fill:none;stroke:#999;stroke-width:3"></path>

<path d="M566.0,28.95c2.79,0.99,6.51,0.73,9.4,0.42c12.27-1.32,32.22-4.23,48.47-4.77c2.99-0.1,5.93-0.18,8.88,0.45" style="fill:none;stroke:#999;stroke-width:3"></path>
<path d="M584.97,35.16c0.14,1.09-0.11,1.92-0.68,2.87c-2.26,3.76-9.2,9.6-18.74,15.42" style="fill:none;stroke:#999;stroke-width:3"></path>
<path d="M573.31,40.04c4.23,0.99,9.85,5.98,11.5,9.43" style="fill:none;stroke:#999;stroke-width:3"></path>
<path d="M582.48,54.91c0.13,1.03-0.11,1.97-0.7,2.81c-2.03,2.9-7.16,7.53-15.97,13.48" style="fill:none;stroke:#999;stroke-width:3"></path>
<path d="M569.35,58.66C574.0,60.5,581.0,65.75,583.44,69.18" style="fill:none;stroke:#999;stroke-width:3"></path>
<path d="M620.98,32.66c0.13,0.99-0.28,1.91-0.73,2.78c-2.38,3.69-7.39,10.1-15.44,15.77" style="fill:none;stroke:#999;stroke-width:3"></path>

<path d="M675.0,28.95c2.79,0.99,6.51,0.73,9.4,0.42c12.27-1.32,32.22-4.23,48.47-4.77c2.99-0.1,5.93-0.18,8.88,0.45" style="fill:none;stroke:#999;stroke-width:3"></path>
<path d="M693.97,35.16c0.14,1.09-0.11,1.92-0.68,2.87c-2.26,3.76-9.2,9.6-18.74,15.42" style="fill:none;stroke:#999;stroke-width:3"></path>
<path d="M682.31,40.04c4.23,0.99,9.85,5.98,11.5,9.43" style="fill:none;stroke:#999;stroke-width:3"></path>
<path d="M691.48,54.91c0.13,1.03-0.11,1.97-0.7,2.81c-2.03,2.9-7.16,7.53-15.97,13.48" style="fill:none;stroke:#999;stroke-width:3"></path>
<path d="M678.35,58.66C683.0,60.5,690.0,65.75,692.44,69.18" style="fill:none;stroke:#999;stroke-width:3"></path>
<path d="M729.98,32.66c0.13,0.99-0.28,1.91-0.73,2.78c-2.38,3.69-7.39,10.1-15.44,15.77" style="fill:none;stroke:#999;stroke-width:3"></path>
<path d="M718.1,37.11c5.4,2.39,10.9,6.14,14.09,10.06" style="fill:none;stroke:#999;stroke-width:3"></path>

<path d="M784.0,28.95c2.79,0.99,6.51,0.73,9.4,0.42c12.27-1.32,32.22-4.23,48.47-4.77c2.99-0.1,5.93-0.18,8.88,0.45" style="fill:none;stroke:#999;stroke-width:3"></path>
<path d="M802.97,35.16c0.14,1.09-0.11,1.92-0.68,2.87c-2.26,3.76-9.2,9.6-18.74,15.42" style="fill:none;stroke:#999;stroke-width:3"></path>
<path d="M791.31,40.04c4.23,0.99,9.85,5.98,11.5,9.43" style="fill:none;stroke:#999;stroke-width:3"></path>
<path d="M800.48,54.91c0.13,1.03-0.11,1.97-0.7,2.81c-2.03,2.9-7.16,7.53-15.97,13.48" style="fill:none;stroke:#999;stroke-width:3"></path>
<path d="M787.35,58.66C792.0,60.5,799.0,65.75,801.44,69.18" style="fill:none;stroke:#999;stroke-width:3"></path>
<path d="M838.98,32.66c0.13,0.99-0.28,1.91-0.73,2.78c-2.38,3.69-7.39,10.1-15.44,15.77" style="fill:none;stroke:#999;stroke-width:3"></path>
<path d="M827.1,37.11c5.4,2.39,10.9,6.14,14.09,10.06" style="fill:none;stroke:#999;stroke-width:3"></path>
<path d="M840.24,52.66c0.1,0.82-0.29,1.59-0.71,2.29c-1.79,3.05-5.69,7.22-12.48,12" style="fill:none;stroke:#999;stroke-width:3"></path>

<path d="M893.0,28.95c2.79,0.99,6.51,0.73,9.4,0.42c12.27-1.32,32.22-4.23,48.47-4.77c2.99-0.1,5.93-0.18,8.88,0.45" style="fill:none;stroke:#999;stroke-width:3"></path>
<path d="M911.97,35.16c0.14,1.09-0.11,1.92-0.68,2.87c-2.26,3.76-9.2,9.6-18.74,15.42" style="fill:none;stroke:#999;stroke-width:3"></path>
<path d="M900.31,40.04c4.23,0.99,9.85,5.98,11.5,9.43" style="fill:none;stroke:#999;stroke-width:3"></path>
<path d="M909.48,54.91c0.13,1.03-0.11,1.97-0.7,2.81c-2.03,2.9-7.16,7.53-15.97,13.48" style="fill:none;stroke:#999;stroke-width:3"></path>
<path d="M896.35,58.66C901.0,60.5,908.0,65.75,910.44,69.18" style="fill:none;stroke:#999;stroke-width:3"></path>
<path d="M947.98,32.66c0.13,0.99-0.28,1.91-0.73,2.78c-2.38,3.69-7.39,10.1-15.44,15.77" style="fill:none;stroke:#999;stroke-width:3"></path>
<path d="M936.1,37.11c5.4,2.39,10.9,6.14,14.09,10.06" style="fill:none;stroke:#999;stroke-width:3"></path>
<path d="M949.24,52.66c0.1,0.82-0.29,1.59-0.71,2.29c-1.79,3.05-5.69,7.22-12.48,12" style="fill:none;stroke:#999;stroke-width:3"></path>
<path d="M936.31,56.79c4.94,2.46,11.69,7.21,15,11.93" style="fill:none;stroke:#999;stroke-width:3"></path>

<path d="M1002.0,28.95c2.79,0.99,6.51,0.73,9.4,0.42c12.27-1.32,32.22-4.23,48.47-4.77c2.99-0.1,5.93-0.18,8.88,0.45" style="fill:none;stroke:#999;stroke-width:3"></path>
<path d="M1020.97,35.16c0.14,1.09-0.11,1.92-0.68,2.87c-2.26,3.76-9.2,9.6-18.74,15.42" style="fill:none;stroke:#999;stroke-width:3"></path>
<path d="M1009.31,40.04c4.23,0.99,9.85,5.98,11.5,9.43" style="fill:none;stroke:#999;stroke-width:3"></path>
<path d="M1018.48,54.91c0.13,1.03-0.11,1.97-0.7,2.81c-2.03,2.9-7.16,7.53-15.97,13.48" style="fill:none;stroke:#999;stroke-width:3"></path>
<path d="M1005.35,58.66C1010.0,60.5,1017.0,65.75,1019.44,69.18" style="fill:none;stroke:#999;stroke-width:3"></path>
<path d="M1056.98,32.66c0.13,0.99-0.28,1.91-0.73,2.78c-2.38,3.69-7.39,10.1-15.44,15.77" style="fill:none;stroke:#999;stroke-width:3"></path>
<path d="M1045.1,37.11c5.4,2.39,10.9,6.14,14.09,10.06" style="fill:none;stroke:#999;stroke-width:3"></path>
<path d="M1058.24,52.66c0.1,0.82-0.29,1.59-0.71,2.29c-1.79,3.05-5.69,7.22-12.48,12" style="fill:none;stroke:#999;stroke-width:3"></path>
<path d="M1045.31,56.79c4.94,2.46,11.69,7.21,15,11.93" style="fill:none;stroke:#999;stroke-width:3"></path>
<path d="M1032.66,12c1.09,1.5,1.38,2.87,1.38,5.74c0,34.2,4.59,59.88-35.48,79.48" style="fill:none;stroke:#999;stroke-width:3"></path>

<path d="M1111.0,28.95c2.79,0.99,6.51,0.73,9.4,0.42c12.27-1.32,32.22-4.23,48.47-4.77c2.99-0.1,5.93-0.18,8.88,0.45" style="fill:none;stroke:#999;stroke-width:3"></path>
<path d="M1129.97,35.16c0.14,1.09-0.11,1.92-0.68,2.87c-2.26,3.76-9.2,9.6-18.74,15.42" style="fill:none;stroke:#999;stroke-width:3"></path>
<path d="M1118.31,40.04c4.23,0.99,9.85,5.98,11.5,9.43" style="fill:none;stroke:#999;stroke-width:3"></path>
<path d="M1127.48,54.91c0.13,1.03-0.11,1.97-0.7,2.81c-2.03,2.9-7.16,7.53-15.97,13.48" style="fill:none;stroke:#999;stroke-width:3"></path>
<path d="M1114.35,58.66C1119.0,60.5,1126.0,65.75,1128.44,69.18" style="fill:none;stroke:#999;stroke-width:3"></path>
<path d="M1165.98,32.66c0.13,0.99-0.28,1.91-0.73,2.78c-2.38,3.69-7.39,10.1-15.44,15.77" style="fill:none;stroke:#999;stroke-width:3"></path>
<path d="M1154.1,37.11c5.4,2.39,10.9,6.14,14.09,10.06" style="fill:none;stroke:#999;stroke-width:3"></path>
<path d="M1167.24,52.66c0.1,0.82-0.29,1.59-0.71,2.29c-1.79,3.05-5.69,7.22-12.48,12" style="fill:none;stroke:#999;stroke-width:3"></path>
<path d="M1154.31,56.79c4.94,2.46,11.69,7.21,15,11.93" style="fill:none;stroke:#999;stroke-width:3"></path>
<path d="M1141.66,12c1.09,1.5,1.38,2.87,1.38,5.74c0,34.2,4.59,59.88-35.48,79.48" style="fill:none;stroke:#999;stroke-width:3"></path>
<path d="M1141.25,65C1149.12,70.88,1161.0,81.75,1171.88,90c3.31,2.51,5.87,3.75,9.62,5.5" style="fill:none;stroke:#999;stroke-width:3"></path>

</svg>