<svg width="872px" height="109px" viewBox="0 0 872 109" xmlns="http://www.w3.org/2000/svg" xmlns:xlink="http://www.w3.org/1999/xlink" xml:space="preserve" version="1.1" baseProfile="full">
<line x1="1" y1="1" x2="871" y2="1" style="stroke:#ddd;stroke-width:2"></line>
<line x1="1" y1="1" x2="1" y2="108" style="stroke:#ddd;stroke-width:2"></line>
<line x1="1" y1="108" x2="871" y2="108" style="stroke:#ddd;stroke-width:2"></line>
<line x1="871" y1="1" x2="871" y2="108" style="stroke:#ddd;stroke-width:2"></line>
<line x1="109" y1="1" x2="109" y2="108" style="stroke:#ddd;stroke-width:2"></line>
<line x1="218" y1="1" x2="218" y2="108" style="stroke:#ddd;stroke-width:2"></line>
<line x1="327" y1="1" x2="327" y2="108" style="stroke:#ddd;stroke-width:2"></line>
<line x1="436" y1="1" x2="436" y2="108" style="stroke:#ddd;stroke-width:2"></line>
<line x1="545" y1="1" x2="545" y2="108" style="stroke:#ddd;stroke-width:2"></line>
<line x1="654" y1="1" x2="654" y2="108" style="stroke:#ddd;stroke-width:2"></line>
<line x1="763" y1="1" x2="763" y2="108" style="stroke:#ddd;stroke-width:2"></line>
<line x1="1" y1="54" x2="871" y2="54" style="stroke:#ddd;stroke-width:2;stroke-dasharray:3 3"></line>
<line x1="55" y1="1" x2="55" y2="108" style="stroke:#ddd;stroke-width:2;stroke-dasharray:3 3"></line>
<line x1="164" y1="1" x2="164" y2="108" style="stroke:#ddd;stroke-width:2;stroke-dasharray:3 3"></line>
<line x1="273" y1="1" x2="273" y2="108" style="stroke:#ddd;stroke-width:2;stroke-dasharray:3 3"></line>
<line x1="382" y1="1" x2="382" y2="108" style="stroke:#ddd;stroke-width:2;stroke-dasharray:3 3"></line>
<line x1="491" y1="1" x2="491" y2="108" style="stroke:#ddd;stroke-width:2;stroke-dasharray:3 3"></line>
<line x1="600" y1="1" x2="600" y2="108" style="stroke:#ddd;stroke-width:2;stroke-dasharray:3 3"></line>
<line x1="709" y1="1" x2="709" y2="108" style="stroke:#ddd;stroke-width:2;stroke-dasharray:3 3"></line>
<line x1="818" y1="1" x2="818" y2="108" style="stroke:#ddd;stroke-width:2;stroke-dasharray:3 3"></line>
<path d="M22.02,25.89c0.03,0.65,0.18,1.7-0.06,2.61c-1.71,6.5-5.58,16-11.65,24.21" style="fill:none;stroke:#999;stroke-width:3"></path>

<path d="M131.02,25.89c0.03,0.65,0.18,1.7-0.06,2.61c-1.71,6.5-5.58,16-11.65,24.21" style="fill:none;stroke:#999;stroke-width:3"></path>
<path d="M130.75,39.75c1,0.12,2.08,0.19,3.14,0.09c6.68-0.63,13.72-3.23,17.61-4.09c1.22-0.27,2.75-0.5,4-0.25" style="fill:none;stroke:#999;stroke-width:3"></path>

<path d="M240.02,25.89c0.03,0.65,0.18,1.7-0.06,2.61c-1.71,6.5-5.58,16-11.65,24.21" style="fill:none;stroke:#999;stroke-width:3"></path>
<path d="M239.75,39.75c1,0.12,2.08,0.19,3.14,0.09c6.68-0.63,13.72-3.23,17.61-4.09c1.22-0.27,2.75-0.5,4-0.25" style="fill:none;stroke:#999;stroke-width:3"></path>
<path d="M251.62,12.5c0.94,0.94,1.71,2.88,1.71,4.25c0,0.86,0.02,53.29,0.03,74.12c0,3.95,0,6.76,0,7.88" style="fill:none;stroke:#999;stroke-width:3"></path>

<path d="M349.02,25.89c0.03,0.65,0.18,1.7-0.06,2.61c-1.71,6.5-5.58,16-11.65,24.21" style="fill:none;stroke:#999;stroke-width:3"></path>
<path d="M348.75,39.75c1,0.12,2.08,0.19,3.14,0.09c6.68-0.63,13.72-3.23,17.61-4.09c1.22-0.27,2.75-0.5,4-0.25" style="fill:none;stroke:#999;stroke-width:3"></path>
<path d="M360.62,12.5c0.94,0.94,1.71,2.88,1.71,4.25c0,0.86,0.02,53.29,0.03,74.12c0,3.95,0,6.76,0,7.88" style="fill:none;stroke:#999;stroke-width:3"></path>
<path d="M341.12,71.61c1.17,0.54,2.29,0.55,3.55-0.3c1.11-0.75,19.76-13.59,24.45-17.19" style="fill:none;stroke:#999;stroke-width:3"></path>

<path d="M458.02,25.89c0.03,0.65,0.18,1.7-0.06,2.61c-1.71,6.5-5.58,16-11.65,24.21" style="fill:none;stroke:#999;stroke-width:3"></path>
<path d="M457.75,39.75c1,0.12,2.08,0.19,3.14,0.09c6.68-0.63,13.72-3.23,17.61-4.09c1.22-0.27,2.75-0.5,4-0.25" style="fill:none;stroke:#999;stroke-width:3"></path>
<path d="M469.62,12.5c0.94,0.94,1.71,2.88,1.71,4.25c0,0.86,0.02,53.29,0.03,74.12c0,3.95,0,6.76,0,7.88" style="fill:none;stroke:#999;stroke-width:3"></path>
<path d="M450.12,71.61c1.17,0.54,2.29,0.55,3.55-0.3c1.11-0.75,19.76-13.59,24.45-17.19" style="fill:none;stroke:#999;stroke-width:3"></path>
<path d="M500.65999999999997,13.39c0.47,0.99,0.3,2.56-0.09,3.89C498.1,25.83,493.88,39.38,485.5,53" style="fill:none;stroke:#999;stroke-width:3"></path>

<path d="M567.02,25.89c0.03,0.65,0.18,1.7-0.06,2.61c-1.71,6.5-5.58,16-11.65,24.21" style="fill:none;stroke:#999;stroke-width:3"></path>
<path d="M566.75,39.75c1,0.12,2.08,0.19,3.14,0.09c6.68-0.63,13.72-3.23,17.61-4.09c1.22-0.27,2.75-0.5,4-0.25" style="fill:none;stroke:#999;stroke-width:3"></path>
<path d="M578.62,12.5c0.94,0.94,1.71,2.88,1.71,4.25c0,0.86,0.02,53.29,0.03,74.12c0,3.95,0,6.76,0,7.88" style="fill:none;stroke:#999;stroke-width:3"></path>
<path d="M559.12,71.61c1.17,0.54,2.29,0.55,3.55-0.3c1.11-0.75,19.76-13.59,24.45-17.19" style="fill:none;stroke:#999;stroke-width:3"></path>
<path d="M609.66,13.39c0.47,0.99,0.3,2.56-0.09,3.89C607.1,25.83,602.88,39.38,594.5,53" style="fill:none;stroke:#999;stroke-width:3"></path>
<path d="M604.15,40.17c0.97,0.08,1.92,0,2.6-0.04c6.23-0.46,18.4-4.16,26.15-5.88c1.43-0.32,3.47-0.62,5.35-0.25" style="fill:none;stroke:#999;stroke-width:3"></path>

<path d="M676.02,25.89c0.03,0.65,0.18,1.7-0.06,2.61c-1.71,6.5-5.58,16-11.65,24.21" style="fill:none;stroke:#999;stroke-width:3"></path>
<path d="M675.75,39.75c1,0.12,2.08,0.19,3.14,0.09c6.68-0.63,13.72-3.23,17.61-4.09c1.22-0.27,2.75-0.5,4-0.25" style="fill:none;stroke:#999;stroke-width:3"></path>
<path d="M687.62,12.5c0.94,0.94,1.71,2.88,1.71,4.25c0,0.86,0.02,53.29,0.03,74.12c0,3.95,0,6.76,0,7.88" style="fill:none;stroke:#999;stroke-width:3"></path>
<path d="M668.12,71.61c1.17,0.54,2.29,0.55,3.55-0.3c1.11-0.75,19.76-13.59,24.45-17.19" style="fill:none;stroke:#999;stroke-width:3"></path>
<path d="M718.66,13.39c0.47,0.99,0.3,2.56-0.09,3.89C716.1,25.83,711.88,39.38,703.5,53" style="fill:none;stroke:#999;stroke-width:3"></path>
<path d="M713.15,40.17c0.97,0.08,1.92,0,2.6-0.04c6.23-0.46,18.4-4.16,26.15-5.88c1.43-0.32,3.47-0.62,5.35-0.25" style="fill:none;stroke:#999;stroke-width:3"></path>
<path d="M734.0,46c0.55,1.22,0.6,2.59,0.02,4.82C728.8,71.1,718.5,87.5,699.76,96.25" style="fill:none;stroke:#999;stroke-width:3"></path>

<path d="M785.02,25.89c0.03,0.65,0.18,1.7-0.06,2.61c-1.71,6.5-5.58,16-11.65,24.21" style="fill:none;stroke:#999;stroke-width:3"></path>
<path d="M784.75,39.75c1,0.12,2.08,0.19,3.14,0.09c6.68-0.63,13.72-3.23,17.61-4.09c1.22-0.27,2.75-0.5,4-0.25" style="fill:none;stroke:#999;stroke-width:3"></path>
<path d="M796.62,12.5c0.94,0.94,1.71,2.88,1.71,4.25c0,0.86,0.02,53.29,0.03,74.12c0,3.95,0,6.76,0,7.88" style="fill:none;stroke:#999;stroke-width:3"></path>
<path d="M777.12,71.61c1.17,0.54,2.29,0.55,3.55-0.3c1.11-0.75,19.76-13.59,24.45-17.19" style="fill:none;stroke:#999;stroke-width:3"></path>
<path d="M827.66,13.39c0.47,0.99,0.3,2.56-0.09,3.89C825.1,25.83,820.88,39.38,812.5,53" style="fill:none;stroke:#999;stroke-width:3"></path>
<path d="M822.15,40.17c0.97,0.08,1.92,0,2.6-0.04c6.23-0.46,18.4-4.16,26.15-5.88c1.43-0.32,3.47-0.62,5.35-0.25" style="fill:none;stroke:#999;stroke-width:3"></path>
<path d="M843.0,46c0.55,1.22,0.6,2.59,0.02,4.82C837.8,71.1,827.5,87.5,808.76,96.25" style="fill:none;stroke:#999;stroke-width:3"></path>
<path d="M818.25,57.26c4.73,1.02,21.35,23.11,32.25,32.49c2.22,1.91,4.74,3.94,7.5,5" style="fill:none;stroke:#999;stroke-width:3"></path>

</svg>