<svg width="981px" height="109px" viewBox="0 0 981 109" xmlns="http://www.w3.org/2000/svg" xmlns:xlink="http://www.w3.org/1999/xlink" xml:space="preserve" version="1.1" baseProfile="full">
<line x1="1" y1="1" x2="980" y2="1" style="stroke:#ddd;stroke-width:2"></line>
<line x1="1" y1="1" x2="1" y2="108" style="stroke:#ddd;stroke-width:2"></line>
<line x1="1" y1="108" x2="980" y2="108" style="stroke:#ddd;stroke-width:2"></line>
<line x1="980" y1="1" x2="980" y2="108" style="stroke:#ddd;stroke-width:2"></line>
<line x1="109" y1="1" x2="109" y2="108" style="stroke:#ddd;stroke-width:2"></line>
<line x1="218" y1="1" x2="218" y2="108" style="stroke:#ddd;stroke-width:2"></line>
<line x1="327" y1="1" x2="327" y2="108" style="stroke:#ddd;stroke-width:2"></line>
<line x1="436" y1="1" x2="436" y2="108" style="stroke:#ddd;stroke-width:2"></line>
<line x1="545" y1="1" x2="545" y2="108" style="stroke:#ddd;stroke-width:2"></line>
<line x1="654" y1="1" x2="654" y2="108" style="stroke:#ddd;stroke-width:2"></line>
<line x1="763" y1="1" x2="763" y2="108" style="stroke:#ddd;stroke-width:2"></line>
<line x1="872" y1="1" x2="872" y2="108" style="stroke:#ddd;stroke-width:2"></line>
<line x1="1" y1="54" x2="980" y2="54" style="stroke:#ddd;stroke-width:2;stroke-dasharray:3 3"></line>
<line x1="55" y1="1" x2="55" y2="108" style="stroke:#ddd;stroke-width:2;stroke-dasharray:3 3"></line>
<line x1="164" y1="1" x2="164" y2="108" style="stroke:#ddd;stroke-width:2;stroke-dasharray:3 3"></line>
<line x1="273" y1="1" x2="273" y2="108" style="stroke:#ddd;stroke-width:2;stroke-dasharray:3 3"></line>
<line x1="382" y1="1" x2="382" y2="108" style="stroke:#ddd;stroke-width:2;stroke-dasharray:3 3"></line>
<line x1="491" y1="1" x2="491" y2="108" style="stroke:#ddd;stroke-width:2;stroke-dasharray:3 3"></line>
<line x1="600" y1="1" x2="600" y2="108" style="stroke:#ddd;stroke-width:2;stroke-dasharray:3 3"></line>
<line x1="709" y1="1" x2="709" y2="108" style="stroke:#ddd;stroke-width:2;stroke-dasharray:3 3"></line>
<line x1="818" y1="1" x2="818" y2="108" style="stroke:#ddd;stroke-width:2;stroke-dasharray:3 3"></line>
<line x1="927" y1="1" x2="927" y2="108" style="stroke:#ddd;stroke-width:2;stroke-dasharray:3 3"></line>
<path d="M22.02,27.89c0.03,0.6,0.22,1.58-0.06,2.4c-2.21,6.33-5.09,13.21-11.15,20.18" style="fill:none;stroke:#999;stroke-width:3"></path>

<path d="M131.02,27.89c0.03,0.6,0.22,1.58-0.06,2.4c-2.21,6.33-5.09,13.21-11.15,20.18" style="fill:none;stroke:#999;stroke-width:3"></path>
<path d="M131.75,38.5c1.25,0,2.52,0.02,3.78-0.19c7.72-1.31,12.22-2.23,15.97-3.06c1.22-0.27,2.75-0.5,4-0.25" style="fill:none;stroke:#999;stroke-width:3"></path>

<path d="M240.02,27.89c0.03,0.6,0.22,1.58-0.06,2.4c-2.21,6.33-5.09,13.21-11.15,20.18" style="fill:none;stroke:#999;stroke-width:3"></path>
<path d="M240.75,38.5c1.25,0,2.52,0.02,3.78-0.19c7.72-1.31,12.22-2.23,15.97-3.06c1.22-0.27,2.75-0.5,4-0.25" style="fill:none;stroke:#999;stroke-width:3"></path>
<path d="M251.62,12c1.25,1.25,1.46,2.5,1.46,4c0,0.67,0.04,51.85,0.04,73.75c0,5.79,0,9.53-0.01,9.75" style="fill:none;stroke:#999;stroke-width:3"></path>

<path d="M349.02,27.89c0.03,0.6,0.22,1.58-0.06,2.4c-2.21,6.33-5.09,13.21-11.15,20.18" style="fill:none;stroke:#999;stroke-width:3"></path>
<path d="M349.75,38.5c1.25,0,2.52,0.02,3.78-0.19c7.72-1.31,12.22-2.23,15.97-3.06c1.22-0.27,2.75-0.5,4-0.25" style="fill:none;stroke:#999;stroke-width:3"></path>
<path d="M360.62,12c1.25,1.25,1.46,2.5,1.46,4c0,0.67,0.04,51.85,0.04,73.75c0,5.79,0,9.53-0.01,9.75" style="fill:none;stroke:#999;stroke-width:3"></path>
<path d="M339.97,71.1c1.53,0.9,2.66,0.46,4.19-0.82c1.02-0.85,18.75-15.95,23.09-20.03" style="fill:none;stroke:#999;stroke-width:3"></path>

<path d="M458.02,27.89c0.03,0.6,0.22,1.58-0.06,2.4c-2.21,6.33-5.09,13.21-11.15,20.18" style="fill:none;stroke:#999;stroke-width:3"></path>
<path d="M458.75,38.5c1.25,0,2.52,0.02,3.78-0.19c7.72-1.31,12.22-2.23,15.97-3.06c1.22-0.27,2.75-0.5,4-0.25" style="fill:none;stroke:#999;stroke-width:3"></path>
<path d="M469.62,12c1.25,1.25,1.46,2.5,1.46,4c0,0.67,0.04,51.85,0.04,73.75c0,5.79,0,9.53-0.01,9.75" style="fill:none;stroke:#999;stroke-width:3"></path>
<path d="M448.97,71.1c1.53,0.9,2.66,0.46,4.19-0.82c1.02-0.85,18.75-15.95,23.09-20.03" style="fill:none;stroke:#999;stroke-width:3"></path>
<path d="M493.64,23.09c0.23,0.91,0.2,1.79-0.06,2.75c-2.34,8.78-4.09,15.78-10,25.31" style="fill:none;stroke:#999;stroke-width:3"></path>

<path d="M567.02,27.89c0.03,0.6,0.22,1.58-0.06,2.4c-2.21,6.33-5.09,13.21-11.15,20.18" style="fill:none;stroke:#999;stroke-width:3"></path>
<path d="M567.75,38.5c1.25,0,2.52,0.02,3.78-0.19c7.72-1.31,12.22-2.23,15.97-3.06c1.22-0.27,2.75-0.5,4-0.25" style="fill:none;stroke:#999;stroke-width:3"></path>
<path d="M578.62,12c1.25,1.25,1.46,2.5,1.46,4c0,0.67,0.04,51.85,0.04,73.75c0,5.79,0,9.53-0.01,9.75" style="fill:none;stroke:#999;stroke-width:3"></path>
<path d="M557.97,71.1c1.53,0.9,2.66,0.46,4.19-0.82c1.02-0.85,18.75-15.95,23.09-20.03" style="fill:none;stroke:#999;stroke-width:3"></path>
<path d="M602.64,23.09c0.23,0.91,0.2,1.79-0.06,2.75c-2.34,8.78-4.09,15.78-10,25.31" style="fill:none;stroke:#999;stroke-width:3"></path>
<path d="M602.8,38.75c1.94,0.21,3.67,0.1,5.59-0.12c5.54-0.65,17.06-2.22,23.64-3.05c2.11-0.26,4.39-0.34,6.52-0.1" style="fill:none;stroke:#999;stroke-width:3"></path>

<path d="M676.02,27.89c0.03,0.6,0.22,1.58-0.06,2.4c-2.21,6.33-5.09,13.21-11.15,20.18" style="fill:none;stroke:#999;stroke-width:3"></path>
<path d="M676.75,38.5c1.25,0,2.52,0.02,3.78-0.19c7.72-1.31,12.22-2.23,15.97-3.06c1.22-0.27,2.75-0.5,4-0.25" style="fill:none;stroke:#999;stroke-width:3"></path>
<path d="M687.62,12c1.25,1.25,1.46,2.5,1.46,4c0,0.67,0.04,51.85,0.04,73.75c0,5.79,0,9.53-0.01,9.75" style="fill:none;stroke:#999;stroke-width:3"></path>
<path d="M666.97,71.1c1.53,0.9,2.66,0.46,4.19-0.82c1.02-0.85,18.75-15.95,23.09-20.03" style="fill:none;stroke:#999;stroke-width:3"></path>
<path d="M711.64,23.09c0.23,0.91,0.2,1.79-0.06,2.75c-2.34,8.78-4.09,15.78-10,25.31" style="fill:none;stroke:#999;stroke-width:3"></path>
<path d="M711.8,38.75c1.94,0.21,3.67,0.1,5.59-0.12c5.54-0.65,17.06-2.22,23.64-3.05c2.11-0.26,4.39-0.34,6.52-0.1" style="fill:none;stroke:#999;stroke-width:3"></path>
<path d="M724.24,11.63c1.63,1.63,1.9,3.24,1.9,5.49c0,6-0.01,65.48-0.01,72.75" style="fill:none;stroke:#999;stroke-width:3"></path>

<path d="M785.02,27.89c0.03,0.6,0.22,1.58-0.06,2.4c-2.21,6.33-5.09,13.21-11.15,20.18" style="fill:none;stroke:#999;stroke-width:3"></path>
<path d="M785.75,38.5c1.25,0,2.52,0.02,3.78-0.19c7.72-1.31,12.22-2.23,15.97-3.06c1.22-0.27,2.75-0.5,4-0.25" style="fill:none;stroke:#999;stroke-width:3"></path>
<path d="M796.62,12c1.25,1.25,1.46,2.5,1.46,4c0,0.67,0.04,51.85,0.04,73.75c0,5.79,0,9.53-0.01,9.75" style="fill:none;stroke:#999;stroke-width:3"></path>
<path d="M775.97,71.1c1.53,0.9,2.66,0.46,4.19-0.82c1.02-0.85,18.75-15.95,23.09-20.03" style="fill:none;stroke:#999;stroke-width:3"></path>
<path d="M820.64,23.09c0.23,0.91,0.2,1.79-0.06,2.75c-2.34,8.78-4.09,15.78-10,25.31" style="fill:none;stroke:#999;stroke-width:3"></path>
<path d="M820.8,38.75c1.94,0.21,3.67,0.1,5.59-0.12c5.54-0.65,17.06-2.22,23.64-3.05c2.11-0.26,4.39-0.34,6.52-0.1" style="fill:none;stroke:#999;stroke-width:3"></path>
<path d="M833.24,11.63c1.63,1.63,1.9,3.24,1.9,5.49c0,6-0.01,65.48-0.01,72.75" style="fill:none;stroke:#999;stroke-width:3"></path>
<path d="M815.8,63.83c2.08,0.54,4.32,0.51,5.95,0.22c8.12-1.42,20.23-2.34,27.28-3c2.21-0.21,4.16-0.11,6.35,0.07" style="fill:none;stroke:#999;stroke-width:3"></path>

<path d="M894.02,27.89c0.03,0.6,0.22,1.58-0.06,2.4c-2.21,6.33-5.09,13.21-11.15,20.18" style="fill:none;stroke:#999;stroke-width:3"></path>
<path d="M894.75,38.5c1.25,0,2.52,0.02,3.78-0.19c7.72-1.31,12.22-2.23,15.97-3.06c1.22-0.27,2.75-0.5,4-0.25" style="fill:none;stroke:#999;stroke-width:3"></path>
<path d="M905.62,12c1.25,1.25,1.46,2.5,1.46,4c0,0.67,0.04,51.85,0.04,73.75c0,5.79,0,9.53-0.01,9.75" style="fill:none;stroke:#999;stroke-width:3"></path>
<path d="M884.97,71.1c1.53,0.9,2.66,0.46,4.19-0.82c1.02-0.85,18.75-15.95,23.09-20.03" style="fill:none;stroke:#999;stroke-width:3"></path>
<path d="M929.64,23.09c0.23,0.91,0.2,1.79-0.06,2.75c-2.34,8.78-4.09,15.78-10,25.31" style="fill:none;stroke:#999;stroke-width:3"></path>
<path d="M929.8,38.75c1.94,0.21,3.67,0.1,5.59-0.12c5.54-0.65,17.06-2.22,23.64-3.05c2.11-0.26,4.39-0.34,6.52-0.1" style="fill:none;stroke:#999;stroke-width:3"></path>
<path d="M942.24,11.63c1.63,1.63,1.9,3.24,1.9,5.49c0,6-0.01,65.48-0.01,72.75" style="fill:none;stroke:#999;stroke-width:3"></path>
<path d="M924.8,63.83c2.08,0.54,4.32,0.51,5.95,0.22c8.12-1.42,20.23-2.34,27.28-3c2.21-0.21,4.16-0.11,6.35,0.07" style="fill:none;stroke:#999;stroke-width:3"></path>
<path d="M916.5,91.74c2.41,0.74,4.79,0.86,7.26,0.64c11.12-1,30.65-1.94,39.74-2.45c3.12-0.17,6.12,0.2,9.11,1.1" style="fill:none;stroke:#999;stroke-width:3"></path>

</svg>