<svg width="763px" height="109px" viewBox="0 0 763 109" xmlns="http://www.w3.org/2000/svg" xmlns:xlink="http://www.w3.org/1999/xlink" xml:space="preserve" version="1.1" baseProfile="full">
<line x1="1" y1="1" x2="762" y2="1" style="stroke:#ddd;stroke-width:2"></line>
<line x1="1" y1="1" x2="1" y2="108" style="stroke:#ddd;stroke-width:2"></line>
<line x1="1" y1="108" x2="762" y2="108" style="stroke:#ddd;stroke-width:2"></line>
<line x1="762" y1="1" x2="762" y2="108" style="stroke:#ddd;stroke-width:2"></line>
<line x1="109" y1="1" x2="109" y2="108" style="stroke:#ddd;stroke-width:2"></line>
<line x1="218" y1="1" x2="218" y2="108" style="stroke:#ddd;stroke-width:2"></line>
<line x1="327" y1="1" x2="327" y2="108" style="stroke:#ddd;stroke-width:2"></line>
<line x1="436" y1="1" x2="436" y2="108" style="stroke:#ddd;stroke-width:2"></line>
<line x1="545" y1="1" x2="545" y2="108" style="stroke:#ddd;stroke-width:2"></line>
<line x1="654" y1="1" x2="654" y2="108" style="stroke:#ddd;stroke-width:2"></line>
<line x1="1" y1="54" x2="762" y2="54" style="stroke:#ddd;stroke-width:2;stroke-dasharray:3 3"></line>
<line x1="55" y1="1" x2="55" y2="108" style="stroke:#ddd;stroke-width:2;stroke-dasharray:3 3"></line>
<line x1="164" y1="1" x2="164" y2="108" style="stroke:#ddd;stroke-width:2;stroke-dasharray:3 3"></line>
<line x1="273" y1="1" x2="273" y2="108" style="stroke:#ddd;stroke-width:2;stroke-dasharray:3 3"></line>
<line x1="382" y1="1" x2="382" y2="108" style="stroke:#ddd;stroke-width:2;stroke-dasharray:3 3"></line>
<line x1="491" y1="1" x2="491" y2="108" style="stroke:#ddd;stroke-width:2;stroke-dasharray:3 3"></line>
<line x1="600" y1="1" x2="600" y2="108" style="stroke:#ddd;stroke-width:2;stroke-dasharray:3 3"></line>
<line x1="709" y1="1" x2="709" y2="108" style="stroke:#ddd;stroke-width:2;stroke-dasharray:3 3"></line>
<path d="M39.29,15c0.07,0.59-0.17,2.22-0.65,2.85C32.53,25.91,26.83,31.12,12.0,39.84" style="fill:none;stroke:#999;stroke-width:3"></path>

<path d="M148.29,15c0.07,0.59-0.17,2.22-0.65,2.85C141.53,25.91,135.82999999999998,31.12,121.0,39.84" style="fill:none;stroke:#999;stroke-width:3"></path>
<path d="M125.0,16.18c31,23.32,21,90.57,6.5,74.22" style="fill:none;stroke:#999;stroke-width:3"></path>

<path d="M257.28999999999996,15c0.07,0.59-0.17,2.22-0.65,2.85C250.53,25.91,244.82999999999998,31.12,230.0,39.84" style="fill:none;stroke:#999;stroke-width:3"></path>
<path d="M234.0,16.18c31,23.32,21,90.57,6.5,74.22" style="fill:none;stroke:#999;stroke-width:3"></path>
<path d="M248.32999999999998,43.07c0.05,0.68,0.22,2.01-0.1,2.75c-4.1,9.43-8.27,16.09-18.23,26.29" style="fill:none;stroke:#999;stroke-width:3"></path>

<path d="M366.28999999999996,15c0.07,0.59-0.17,2.22-0.65,2.85C359.53,25.91,353.83,31.12,339.0,39.84" style="fill:none;stroke:#999;stroke-width:3"></path>
<path d="M343.0,16.18c31,23.32,21,90.57,6.5,74.22" style="fill:none;stroke:#999;stroke-width:3"></path>
<path d="M357.33,43.07c0.05,0.68,0.22,2.01-0.1,2.75c-4.1,9.43-8.27,16.09-18.23,26.29" style="fill:none;stroke:#999;stroke-width:3"></path>
<path d="M370.05,37.53C374.0,42,378.5,52,378.99,57.16" style="fill:none;stroke:#999;stroke-width:3"></path>

<path d="M475.28999999999996,15c0.07,0.59-0.17,2.22-0.65,2.85C468.53,25.91,462.83,31.12,448.0,39.84" style="fill:none;stroke:#999;stroke-width:3"></path>
<path d="M452.0,16.18c31,23.32,21,90.57,6.5,74.22" style="fill:none;stroke:#999;stroke-width:3"></path>
<path d="M466.33,43.07c0.05,0.68,0.22,2.01-0.1,2.75c-4.1,9.43-8.27,16.09-18.23,26.29" style="fill:none;stroke:#999;stroke-width:3"></path>
<path d="M479.05,37.53C483.0,42,487.5,52,487.99,57.16" style="fill:none;stroke:#999;stroke-width:3"></path>
<path d="M523.87,30.76c0.38,1.74,0.01,3.9-1,5.48c-1.01,1.58-11.11,13.5-16.16,17.19" style="fill:none;stroke:#999;stroke-width:3"></path>

<path d="M584.29,15c0.07,0.59-0.17,2.22-0.65,2.85C577.53,25.91,571.8299999999999,31.12,557.0,39.84" style="fill:none;stroke:#999;stroke-width:3"></path>
<path d="M561.0,16.18c31,23.32,21,90.57,6.5,74.22" style="fill:none;stroke:#999;stroke-width:3"></path>
<path d="M575.3299999999999,43.07c0.05,0.68,0.22,2.01-0.1,2.75c-4.1,9.43-8.27,16.09-18.23,26.29" style="fill:none;stroke:#999;stroke-width:3"></path>
<path d="M588.05,37.53C592.0,42,596.5,52,596.99,57.16" style="fill:none;stroke:#999;stroke-width:3"></path>
<path d="M632.87,30.76c0.38,1.74,0.01,3.9-1,5.48c-1.01,1.58-11.11,13.5-16.16,17.19" style="fill:none;stroke:#999;stroke-width:3"></path>
<path d="M609.69,13.25c0.98,0.81,1.18,2.96,1.18,4.31C610.67,71.17,600.48,83.3,585.0,96.5" style="fill:none;stroke:#999;stroke-width:3"></path>

<path d="M693.29,15c0.07,0.59-0.17,2.22-0.65,2.85C686.53,25.91,680.8299999999999,31.12,666.0,39.84" style="fill:none;stroke:#999;stroke-width:3"></path>
<path d="M670.0,16.18c31,23.32,21,90.57,6.5,74.22" style="fill:none;stroke:#999;stroke-width:3"></path>
<path d="M684.3299999999999,43.07c0.05,0.68,0.22,2.01-0.1,2.75c-4.1,9.43-8.27,16.09-18.23,26.29" style="fill:none;stroke:#999;stroke-width:3"></path>
<path d="M697.05,37.53C701.0,42,705.5,52,705.99,57.16" style="fill:none;stroke:#999;stroke-width:3"></path>
<path d="M741.87,30.76c0.38,1.74,0.01,3.9-1,5.48c-1.01,1.58-11.11,13.5-16.16,17.19" style="fill:none;stroke:#999;stroke-width:3"></path>
<path d="M718.69,13.25c0.98,0.81,1.18,2.96,1.18,4.31C719.67,71.17,709.48,83.3,694.0,96.5" style="fill:none;stroke:#999;stroke-width:3"></path>
<path d="M718.88,51.78c10.04,17.21,22.22,34.7,28.84,41.87c2.08,2.26,2.56,2.01,4.27,2.58" style="fill:none;stroke:#999;stroke-width:3"></path>

</svg>