<svg width="1090px" height="109px" viewBox="0 0 1090 109" xmlns="http://www.w3.org/2000/svg" xmlns:xlink="http://www.w3.org/1999/xlink" xml:space="preserve" version="1.1" baseProfile="full">
<line x1="1" y1="1" x2="1089" y2="1" style="stroke:#ddd;stroke-width:2"></line>
<line x1="1" y1="1" x2="1" y2="108" style="stroke:#ddd;stroke-width:2"></line>
<line x1="1" y1="108" x2="1089" y2="108" style="stroke:#ddd;stroke-width:2"></line>
<line x1="1089" y1="1" x2="1089" y2="108" style="stroke:#ddd;stroke-width:2"></line>
<line x1="109" y1="1" x2="109" y2="108" style="stroke:#ddd;stroke-width:2"></line>
<line x1="218" y1="1" x2="218" y2="108" style="stroke:#ddd;stroke-width:2"></line>
<line x1="327" y1="1" x2="327" y2="108" style="stroke:#ddd;stroke-width:2"></line>
<line x1="436" y1="1" x2="436" y2="108" style="stroke:#ddd;stroke-width:2"></line>
<line x1="545" y1="1" x2="545" y2="108" style="stroke:#ddd;stroke-width:2"></line>
<line x1="654" y1="1" x2="654" y2="108" style="stroke:#ddd;stroke-width:2"></line>
<line x1="763" y1="1" x2="763" y2="108" style="stroke:#ddd;stroke-width:2"></line>
<line x1="872" y1="1" x2="872" y2="108" style="stroke:#ddd;stroke-width:2"></line>
<line x1="981" y1="1" x2="981" y2="108" style="stroke:#ddd;stroke-width:2"></line>
<line x1="1" y1="54" x2="1089" y2="54" style="stroke:#ddd;stroke-width:2;stroke-dasharray:3 3"></line>
<line x1="55" y1="1" x2="55" y2="108" style="stroke:#ddd;stroke-width:2;stroke-dasharray:3 3"></line>
<line x1="164" y1="1" x2="164" y2="108" style="stroke:#ddd;stroke-width:2;stroke-dasharray:3 3"></line>
<line x1="273" y1="1" x2="273" y2="108" style="stroke:#ddd;stroke-width:2;stroke-dasharray:3 3"></line>
<line x1="382" y1="1" x2="382" y2="108" style="stroke:#ddd;stroke-width:2;stroke-dasharray:3 3"></line>
<line x1="491" y1="1" x2="491" y2="108" style="stroke:#ddd;stroke-width:2;stroke-dasharray:3 3"></line>
<line x1="600" y1="1" x2="600" y2="108" style="stroke:#ddd;stroke-width:2;stroke-dasharray:3 3"></line>
<line x1="709" y1="1" x2="709" y2="108" style="stroke:#ddd;stroke-width:2;stroke-dasharray:3 3"></line>
<line x1="818" y1="1" x2="818" y2="108" style="stroke:#ddd;stroke-width:2;stroke-dasharray:3 3"></line>
<line x1="927" y1="1" x2="927" y2="108" style="stroke:#ddd;stroke-width:2;stroke-dasharray:3 3"></line>
<line x1="1036" y1="1" x2="1036" y2="108" style="stroke:#ddd;stroke-width:2;stroke-dasharray:3 3"></line>
<path d="M36.31,15c0.06,0.63,0.27,1.85-0.12,2.53C31.2,26.23,26.13,32.39,14.0,41.79" style="fill:none;stroke:#999;stroke-width:3"></path>

<path d="M145.31,15c0.06,0.63,0.27,1.85-0.12,2.53C140.2,26.23,135.13,32.39,123.0,41.79" style="fill:none;stroke:#999;stroke-width:3"></path>
<path d="M127.0,21c28.75,24,15.75,81.5,5,69.5" style="fill:none;stroke:#999;stroke-width:3"></path>

<path d="M254.31,15c0.06,0.63,0.27,1.85-0.12,2.53C249.2,26.23,244.13,32.39,232.0,41.79" style="fill:none;stroke:#999;stroke-width:3"></path>
<path d="M236.0,21c28.75,24,15.75,81.5,5,69.5" style="fill:none;stroke:#999;stroke-width:3"></path>
<path d="M247.82999999999998,43c0.05,0.66,0.22,1.94-0.1,2.65c-4.1,9.1-8.27,15.54-18.23,25.39" style="fill:none;stroke:#999;stroke-width:3"></path>

<path d="M363.31,15c0.06,0.63,0.27,1.85-0.12,2.53C358.2,26.23,353.13,32.39,341.0,41.79" style="fill:none;stroke:#999;stroke-width:3"></path>
<path d="M345.0,21c28.75,24,15.75,81.5,5,69.5" style="fill:none;stroke:#999;stroke-width:3"></path>
<path d="M356.83,43c0.05,0.66,0.22,1.94-0.1,2.65c-4.1,9.1-8.27,15.54-18.23,25.39" style="fill:none;stroke:#999;stroke-width:3"></path>
<path d="M388.25,12.75c1.17,0.59,1.87,1.47,2.1,2.64c0.23,1.17,0.23,6.86,0.23,9.8" style="fill:none;stroke:#999;stroke-width:3"></path>

<path d="M472.31,15c0.06,0.63,0.27,1.85-0.12,2.53C467.2,26.23,462.13,32.39,450.0,41.79" style="fill:none;stroke:#999;stroke-width:3"></path>
<path d="M454.0,21c28.75,24,15.75,81.5,5,69.5" style="fill:none;stroke:#999;stroke-width:3"></path>
<path d="M465.83,43c0.05,0.66,0.22,1.94-0.1,2.65c-4.1,9.1-8.27,15.54-18.23,25.39" style="fill:none;stroke:#999;stroke-width:3"></path>
<path d="M497.25,12.75c1.17,0.59,1.87,1.47,2.1,2.64c0.23,1.17,0.23,6.86,0.23,9.8" style="fill:none;stroke:#999;stroke-width:3"></path>
<path d="M485.32,27.81c2.3-0.11,27.14-3.69,29.23-3.82c1.74-0.11,2.75,1.25,2.73,1.93c-0.12,4.83-3.04,19.83-4.01,24.63" style="fill:none;stroke:#999;stroke-width:3"></path>

<path d="M581.31,15c0.06,0.63,0.27,1.85-0.12,2.53C576.2,26.23,571.13,32.39,559.0,41.79" style="fill:none;stroke:#999;stroke-width:3"></path>
<path d="M563.0,21c28.75,24,15.75,81.5,5,69.5" style="fill:none;stroke:#999;stroke-width:3"></path>
<path d="M574.8299999999999,43c0.05,0.66,0.22,1.94-0.1,2.65c-4.1,9.1-8.27,15.54-18.23,25.39" style="fill:none;stroke:#999;stroke-width:3"></path>
<path d="M606.25,12.75c1.17,0.59,1.87,1.47,2.1,2.64c0.23,1.17,0.23,6.86,0.23,9.8" style="fill:none;stroke:#999;stroke-width:3"></path>
<path d="M594.3199999999999,27.81c2.3-0.11,27.14-3.69,29.23-3.82c1.74-0.11,2.75,1.25,2.73,1.93c-0.12,4.83-3.04,19.83-4.01,24.63" style="fill:none;stroke:#999;stroke-width:3"></path>
<path d="M594.98,40.44c5.77-0.54,23.04-2.67,28.59-3.1" style="fill:none;stroke:#999;stroke-width:3"></path>

<path d="M690.31,15c0.06,0.63,0.27,1.85-0.12,2.53C685.2,26.23,680.13,32.39,668.0,41.79" style="fill:none;stroke:#999;stroke-width:3"></path>
<path d="M672.0,21c28.75,24,15.75,81.5,5,69.5" style="fill:none;stroke:#999;stroke-width:3"></path>
<path d="M683.8299999999999,43c0.05,0.66,0.22,1.94-0.1,2.65c-4.1,9.1-8.27,15.54-18.23,25.39" style="fill:none;stroke:#999;stroke-width:3"></path>
<path d="M715.25,12.75c1.17,0.59,1.87,1.47,2.1,2.64c0.23,1.17,0.23,6.86,0.23,9.8" style="fill:none;stroke:#999;stroke-width:3"></path>
<path d="M703.3199999999999,27.81c2.3-0.11,27.14-3.69,29.23-3.82c1.74-0.11,2.75,1.25,2.73,1.93c-0.12,4.83-3.04,19.83-4.01,24.63" style="fill:none;stroke:#999;stroke-width:3"></path>
<path d="M703.98,40.44c5.77-0.54,23.04-2.67,28.59-3.1" style="fill:none;stroke:#999;stroke-width:3"></path>
<path d="M703.59,53.42c7.91-0.87,21.29-2.12,29.88-2.95" style="fill:none;stroke:#999;stroke-width:3"></path>

<path d="M799.31,15c0.06,0.63,0.27,1.85-0.12,2.53C794.2,26.23,789.13,32.39,777.0,41.79" style="fill:none;stroke:#999;stroke-width:3"></path>
<path d="M781.0,21c28.75,24,15.75,81.5,5,69.5" style="fill:none;stroke:#999;stroke-width:3"></path>
<path d="M792.8299999999999,43c0.05,0.66,0.22,1.94-0.1,2.65c-4.1,9.1-8.27,15.54-18.23,25.39" style="fill:none;stroke:#999;stroke-width:3"></path>
<path d="M824.25,12.75c1.17,0.59,1.87,1.47,2.1,2.64c0.23,1.17,0.23,6.86,0.23,9.8" style="fill:none;stroke:#999;stroke-width:3"></path>
<path d="M812.3199999999999,27.81c2.3-0.11,27.14-3.69,29.23-3.82c1.74-0.11,2.75,1.25,2.73,1.93c-0.12,4.83-3.04,19.83-4.01,24.63" style="fill:none;stroke:#999;stroke-width:3"></path>
<path d="M812.98,40.44c5.77-0.54,23.04-2.67,28.59-3.1" style="fill:none;stroke:#999;stroke-width:3"></path>
<path d="M812.59,53.42c7.91-0.87,21.29-2.12,29.88-2.95" style="fill:none;stroke:#999;stroke-width:3"></path>
<path d="M810.01,25.73c1.31,0.53,2.09,2.39,2.35,3.45c0.26,1.06,0.26,57.87,0.26,60.52c0,3.05-0.18,5.34,2.99,3.23C820.75,89.5,821.75,89,830.0,84" style="fill:none;stroke:#999;stroke-width:3"></path>

<path d="M908.31,15c0.06,0.63,0.27,1.85-0.12,2.53C903.2,26.23,898.13,32.39,886.0,41.79" style="fill:none;stroke:#999;stroke-width:3"></path>
<path d="M890.0,21c28.75,24,15.75,81.5,5,69.5" style="fill:none;stroke:#999;stroke-width:3"></path>
<path d="M901.8299999999999,43c0.05,0.66,0.22,1.94-0.1,2.65c-4.1,9.1-8.27,15.54-18.23,25.39" style="fill:none;stroke:#999;stroke-width:3"></path>
<path d="M933.25,12.75c1.17,0.59,1.87,1.47,2.1,2.64c0.23,1.17,0.23,6.86,0.23,9.8" style="fill:none;stroke:#999;stroke-width:3"></path>
<path d="M921.3199999999999,27.81c2.3-0.11,27.14-3.69,29.23-3.82c1.74-0.11,2.75,1.25,2.73,1.93c-0.12,4.83-3.04,19.83-4.01,24.63" style="fill:none;stroke:#999;stroke-width:3"></path>
<path d="M921.98,40.44c5.77-0.54,23.04-2.67,28.59-3.1" style="fill:none;stroke:#999;stroke-width:3"></path>
<path d="M921.59,53.42c7.91-0.87,21.29-2.12,29.88-2.95" style="fill:none;stroke:#999;stroke-width:3"></path>
<path d="M919.01,25.73c1.31,0.53,2.09,2.39,2.35,3.45c0.26,1.06,0.26,57.87,0.26,60.52c0,3.05-0.18,5.34,2.99,3.23C929.75,89.5,930.75,89,939.0,84" style="fill:none;stroke:#999;stroke-width:3"></path>
<path d="M958.17,52.05c0.33,1.43,0.53,2-0.57,3.15c-2.14,2.23-8.59,7.4-11.52,9.41" style="fill:none;stroke:#999;stroke-width:3"></path>

<path d="M1017.31,15c0.06,0.63,0.27,1.85-0.12,2.53C1012.2,26.23,1007.13,32.39,995.0,41.79" style="fill:none;stroke:#999;stroke-width:3"></path>
<path d="M999.0,21c28.75,24,15.75,81.5,5,69.5" style="fill:none;stroke:#999;stroke-width:3"></path>
<path d="M1010.8299999999999,43c0.05,0.66,0.22,1.94-0.1,2.65c-4.1,9.1-8.27,15.54-18.23,25.39" style="fill:none;stroke:#999;stroke-width:3"></path>
<path d="M1042.25,12.75c1.17,0.59,1.87,1.47,2.1,2.64c0.23,1.17,0.23,6.86,0.23,9.8" style="fill:none;stroke:#999;stroke-width:3"></path>
<path d="M1030.32,27.81c2.3-0.11,27.14-3.69,29.23-3.82c1.74-0.11,2.75,1.25,2.73,1.93c-0.12,4.83-3.04,19.83-4.01,24.63" style="fill:none;stroke:#999;stroke-width:3"></path>
<path d="M1030.98,40.44c5.77-0.54,23.04-2.67,28.59-3.1" style="fill:none;stroke:#999;stroke-width:3"></path>
<path d="M1030.5900000000001,53.42c7.91-0.87,21.29-2.12,29.88-2.95" style="fill:none;stroke:#999;stroke-width:3"></path>
<path d="M1028.01,25.73c1.31,0.53,2.09,2.39,2.35,3.45c0.26,1.06,0.26,57.87,0.26,60.52c0,3.05-0.18,5.34,2.99,3.23C1038.75,89.5,1039.75,89,1048.0,84" style="fill:none;stroke:#999;stroke-width:3"></path>
<path d="M1067.17,52.05c0.33,1.43,0.53,2-0.57,3.15c-2.14,2.23-8.59,7.4-11.52,9.41" style="fill:none;stroke:#999;stroke-width:3"></path>
<path d="M1038.88,54.23c5.78,3.93,21.02,22.28,29.8,28.97c4.68,3.57,7.06,4.51,9.63,5.19" style="fill:none;stroke:#999;stroke-width:3"></path>

</svg>