<svg width="545px" height="109px" viewBox="0 0 545 109" xmlns="http://www.w3.org/2000/svg" xmlns:xlink="http://www.w3.org/1999/xlink" xml:space="preserve" version="1.1" baseProfile="full">
<line x1="1" y1="1" x2="544" y2="1" style="stroke:#ddd;stroke-width:2"></line>
<line x1="1" y1="1" x2="1" y2="108" style="stroke:#ddd;stroke-width:2"></line>
<line x1="1" y1="108" x2="544" y2="108" style="stroke:#ddd;stroke-width:2"></line>
<line x1="544" y1="1" x2="544" y2="108" style="stroke:#ddd;stroke-width:2"></line>
<line x1="109" y1="1" x2="109" y2="108" style="stroke:#ddd;stroke-width:2"></line>
<line x1="218" y1="1" x2="218" y2="108" style="stroke:#ddd;stroke-width:2"></line>
<line x1="327" y1="1" x2="327" y2="108" style="stroke:#ddd;stroke-width:2"></line>
<line x1="436" y1="1" x2="436" y2="108" style="stroke:#ddd;stroke-width:2"></line>
<line x1="1" y1="54" x2="544" y2="54" style="stroke:#ddd;stroke-width:2;stroke-dasharray:3 3"></line>
<line x1="55" y1="1" x2="55" y2="108" style="stroke:#ddd;stroke-width:2;stroke-dasharray:3 3"></line>
<line x1="164" y1="1" x2="164" y2="108" style="stroke:#ddd;stroke-width:2;stroke-dasharray:3 3"></line>
<line x1="273" y1="1" x2="273" y2="108" style="stroke:#ddd;stroke-width:2;stroke-dasharray:3 3"></line>
<line x1="382" y1="1" x2="382" y2="108" style="stroke:#ddd;stroke-width:2;stroke-dasharray:3 3"></line>
<line x1="491" y1="1" x2="491" y2="108" style="stroke:#ddd;stroke-width:2;stroke-dasharray:3 3"></line>
<path d="M28.5,23.09c2.95,0.98,5.91,0.53,8.9,0.08c10.77-1.63,21.21-3.33,34.11-4.7c2.78-0.3,5.28-0.62,7.99,0.27" style="fill:none;stroke:#999;stroke-width:3"></path>

<path d="M137.5,23.09c2.95,0.98,5.91,0.53,8.9,0.08c10.77-1.63,21.21-3.33,34.11-4.7c2.78-0.3,5.28-0.62,7.99,0.27" style="fill:none;stroke:#999;stroke-width:3"></path>
<path d="M161.0,24.6c1,1.21,2,2.4,2,4.41c0,5.38,0.25,50.24,0.25,57.94" style="fill:none;stroke:#999;stroke-width:3"></path>

<path d="M246.5,23.09c2.95,0.98,5.91,0.53,8.9,0.08c10.77-1.63,21.21-3.33,34.11-4.7c2.78-0.3,5.28-0.62,7.99,0.27" style="fill:none;stroke:#999;stroke-width:3"></path>
<path d="M270.0,24.6c1,1.21,2,2.4,2,4.41c0,5.38,0.25,50.24,0.25,57.94" style="fill:none;stroke:#999;stroke-width:3"></path>
<path d="M246.25,56.12c2.87,0.9,5.86,0.52,8.78,0.16c9.8-1.18,23.9-3.6,33.1-4.57c2.62-0.28,5.52-0.7,8.11,0.01" style="fill:none;stroke:#999;stroke-width:3"></path>

<path d="M355.5,23.09c2.95,0.98,5.91,0.53,8.9,0.08c10.77-1.63,21.21-3.33,34.11-4.7c2.78-0.3,5.28-0.62,7.99,0.27" style="fill:none;stroke:#999;stroke-width:3"></path>
<path d="M379.0,24.6c1,1.21,2,2.4,2,4.41c0,5.38,0.25,50.24,0.25,57.94" style="fill:none;stroke:#999;stroke-width:3"></path>
<path d="M355.25,56.12c2.87,0.9,5.86,0.52,8.78,0.16c9.8-1.18,23.9-3.6,33.1-4.57c2.62-0.28,5.52-0.7,8.11,0.01" style="fill:none;stroke:#999;stroke-width:3"></path>
<path d="M343.0,90.01c3.95,1.17,7.96,0.72,11.99,0.37c21.05-1.84,37.97-4.1,56.63-4.43c3.9-0.07,8.1-0.22,11.88,0.96" style="fill:none;stroke:#999;stroke-width:3"></path>

<path d="M464.5,23.09c2.95,0.98,5.91,0.53,8.9,0.08c10.77-1.63,21.21-3.33,34.11-4.7c2.78-0.3,5.28-0.62,7.99,0.27" style="fill:none;stroke:#999;stroke-width:3"></path>
<path d="M488.0,24.6c1,1.21,2,2.4,2,4.41c0,5.38,0.25,50.24,0.25,57.94" style="fill:none;stroke:#999;stroke-width:3"></path>
<path d="M464.25,56.12c2.87,0.9,5.86,0.52,8.78,0.16c9.8-1.18,23.9-3.6,33.1-4.57c2.62-0.28,5.52-0.7,8.11,0.01" style="fill:none;stroke:#999;stroke-width:3"></path>
<path d="M452.0,90.01c3.95,1.17,7.96,0.72,11.99,0.37c21.05-1.84,37.97-4.1,56.63-4.43c3.9-0.07,8.1-0.22,11.88,0.96" style="fill:none;stroke:#999;stroke-width:3"></path>
<path d="M508.0,64c5.43,2.74,10.09,8.57,11.25,12" style="fill:none;stroke:#999;stroke-width:3"></path>

</svg>