<svg width="981px" height="109px" viewBox="0 0 981 109" xmlns="http://www.w3.org/2000/svg" xmlns:xlink="http://www.w3.org/1999/xlink" xml:space="preserve" version="1.1" baseProfile="full">
<line x1="1" y1="1" x2="980" y2="1" style="stroke:#ddd;stroke-width:2"></line>
<line x1="1" y1="1" x2="1" y2="108" style="stroke:#ddd;stroke-width:2"></line>
<line x1="1" y1="108" x2="980" y2="108" style="stroke:#ddd;stroke-width:2"></line>
<line x1="980" y1="1" x2="980" y2="108" style="stroke:#ddd;stroke-width:2"></line>
<line x1="109" y1="1" x2="109" y2="108" style="stroke:#ddd;stroke-width:2"></line>
<line x1="218" y1="1" x2="218" y2="108" style="stroke:#ddd;stroke-width:2"></line>
<line x1="327" y1="1" x2="327" y2="108" style="stroke:#ddd;stroke-width:2"></line>
<line x1="436" y1="1" x2="436" y2="108" style="stroke:#ddd;stroke-width:2"></line>
<line x1="545" y1="1" x2="545" y2="108" style="stroke:#ddd;stroke-width:2"></line>
<line x1="654" y1="1" x2="654" y2="108" style="stroke:#ddd;stroke-width:2"></line>
<line x1="763" y1="1" x2="763" y2="108" style="stroke:#ddd;stroke-width:2"></line>
<line x1="872" y1="1" x2="872" y2="108" style="stroke:#ddd;stroke-width:2"></line>
<line x1="1" y1="54" x2="980" y2="54" style="stroke:#ddd;stroke-width:2;stroke-dasharray:3 3"></line>
<line x1="55" y1="1" x2="55" y2="108" style="stroke:#ddd;stroke-width:2;stroke-dasharray:3 3"></line>
<line x1="164" y1="1" x2="164" y2="108" style="stroke:#ddd;stroke-width:2;stroke-dasharray:3 3"></line>
<line x1="273" y1="1" x2="273" y2="108" style="stroke:#ddd;stroke-width:2;stroke-dasharray:3 3"></line>
<line x1="382" y1="1" x2="382" y2="108" style="stroke:#ddd;stroke-width:2;stroke-dasharray:3 3"></line>
<line x1="491" y1="1" x2="491" y2="108" style="stroke:#ddd;stroke-width:2;stroke-dasharray:3 3"></line>
<line x1="600" y1="1" x2="600" y2="108" style="stroke:#ddd;stroke-width:2;stroke-dasharray:3 3"></line>
<line x1="709" y1="1" x2="709" y2="108" style="stroke:#ddd;stroke-width:2;stroke-dasharray:3 3"></line>
<line x1="818" y1="1" x2="818" y2="108" style="stroke:#ddd;stroke-width:2;stroke-dasharray:3 3"></line>
<line x1="927" y1="1" x2="927" y2="108" style="stroke:#ddd;stroke-width:2;stroke-dasharray:3 3"></line>
<path d="M11.75,26.25c0.69,0.37,4.46,0.45,5.16,0.34c3.27-0.5,16.55-2.09,24.4-2.64c1.07-0.07,3.05-0.26,3.94,0.04" style="fill:none;stroke:#999;stroke-width:3"></path>

<path d="M120.75,26.25c0.69,0.37,4.46,0.45,5.16,0.34c3.27-0.5,16.55-2.09,24.4-2.64c1.07-0.07,3.05-0.26,3.94,0.04" style="fill:none;stroke:#999;stroke-width:3"></path>
<path d="M136.57,28.52c0.87,0.88,1.48,2.78,1.48,3.48c0,5.95,0.52,44.62,0.35,48.57" style="fill:none;stroke:#999;stroke-width:3"></path>

<path d="M229.75,26.25c0.69,0.37,4.46,0.45,5.16,0.34c3.27-0.5,16.55-2.09,24.4-2.64c1.07-0.07,3.05-0.26,3.94,0.04" style="fill:none;stroke:#999;stroke-width:3"></path>
<path d="M245.57,28.52c0.87,0.88,1.48,2.78,1.48,3.48c0,5.95,0.52,44.62,0.35,48.57" style="fill:none;stroke:#999;stroke-width:3"></path>
<path d="M231.0,53.19c0.58,0.22,4.64,0.25,5.23,0.2c3.39-0.28,15.89-1.94,20.58-2.25c0.72-0.05,3.35-0.09,4.43,0.1" style="fill:none;stroke:#999;stroke-width:3"></path>

<path d="M338.75,26.25c0.69,0.37,4.46,0.45,5.16,0.34c3.27-0.5,16.55-2.09,24.4-2.64c1.07-0.07,3.05-0.26,3.94,0.04" style="fill:none;stroke:#999;stroke-width:3"></path>
<path d="M354.57,28.52c0.87,0.88,1.48,2.78,1.48,3.48c0,5.95,0.52,44.62,0.35,48.57" style="fill:none;stroke:#999;stroke-width:3"></path>
<path d="M340.0,53.19c0.58,0.22,4.64,0.25,5.23,0.2c3.39-0.28,15.89-1.94,20.58-2.25c0.72-0.05,3.35-0.09,4.43,0.1" style="fill:none;stroke:#999;stroke-width:3"></path>
<path d="M339.25,87.75c1.25,0.75,2.65,0.97,4.5,0C349.0,85,360.5,78.5,368.5,73.75" style="fill:none;stroke:#999;stroke-width:3"></path>

<path d="M447.75,26.25c0.69,0.37,4.46,0.45,5.16,0.34c3.27-0.5,16.55-2.09,24.4-2.64c1.07-0.07,3.05-0.26,3.94,0.04" style="fill:none;stroke:#999;stroke-width:3"></path>
<path d="M463.57,28.52c0.87,0.88,1.48,2.78,1.48,3.48c0,5.95,0.52,44.62,0.35,48.57" style="fill:none;stroke:#999;stroke-width:3"></path>
<path d="M449.0,53.19c0.58,0.22,4.64,0.25,5.23,0.2c3.39-0.28,15.89-1.94,20.58-2.25c0.72-0.05,3.35-0.09,4.43,0.1" style="fill:none;stroke:#999;stroke-width:3"></path>
<path d="M448.25,87.75c1.25,0.75,2.65,0.97,4.5,0C458.0,85,469.5,78.5,477.5,73.75" style="fill:none;stroke:#999;stroke-width:3"></path>
<path d="M506.9,13c0.51,0.84,0.69,1.9,0.46,2.59c-1.67,5.08-6.85,14.6-12.42,20.38" style="fill:none;stroke:#999;stroke-width:3"></path>

<path d="M556.75,26.25c0.69,0.37,4.46,0.45,5.16,0.34c3.27-0.5,16.55-2.09,24.4-2.64c1.07-0.07,3.05-0.26,3.94,0.04" style="fill:none;stroke:#999;stroke-width:3"></path>
<path d="M572.5699999999999,28.52c0.87,0.88,1.48,2.78,1.48,3.48c0,5.95,0.52,44.62,0.35,48.57" style="fill:none;stroke:#999;stroke-width:3"></path>
<path d="M558.0,53.19c0.58,0.22,4.64,0.25,5.23,0.2c3.39-0.28,15.89-1.94,20.58-2.25c0.72-0.05,3.35-0.09,4.43,0.1" style="fill:none;stroke:#999;stroke-width:3"></path>
<path d="M557.25,87.75c1.25,0.75,2.65,0.97,4.5,0C567.0,85,578.5,78.5,586.5,73.75" style="fill:none;stroke:#999;stroke-width:3"></path>
<path d="M615.9,13c0.51,0.84,0.69,1.9,0.46,2.59c-1.67,5.08-6.85,14.6-12.42,20.38" style="fill:none;stroke:#999;stroke-width:3"></path>
<path d="M596.3,36.76c0.65,1.14,1.3,3.03,1.3,4.55c0,1.51,0.8,47.6,0.8,56.69" style="fill:none;stroke:#999;stroke-width:3"></path>

<path d="M665.75,26.25c0.69,0.37,4.46,0.45,5.16,0.34c3.27-0.5,16.55-2.09,24.4-2.64c1.07-0.07,3.05-0.26,3.94,0.04" style="fill:none;stroke:#999;stroke-width:3"></path>
<path d="M681.5699999999999,28.52c0.87,0.88,1.48,2.78,1.48,3.48c0,5.95,0.52,44.62,0.35,48.57" style="fill:none;stroke:#999;stroke-width:3"></path>
<path d="M667.0,53.19c0.58,0.22,4.64,0.25,5.23,0.2c3.39-0.28,15.89-1.94,20.58-2.25c0.72-0.05,3.35-0.09,4.43,0.1" style="fill:none;stroke:#999;stroke-width:3"></path>
<path d="M666.25,87.75c1.25,0.75,2.65,0.97,4.5,0C676.0,85,687.5,78.5,695.5,73.75" style="fill:none;stroke:#999;stroke-width:3"></path>
<path d="M724.9,13c0.51,0.84,0.69,1.9,0.46,2.59c-1.67,5.08-6.85,14.6-12.42,20.38" style="fill:none;stroke:#999;stroke-width:3"></path>
<path d="M705.3,36.76c0.65,1.14,1.3,3.03,1.3,4.55c0,1.51,0.8,47.6,0.8,56.69" style="fill:none;stroke:#999;stroke-width:3"></path>
<path d="M706.99,39c3.67-0.19,32.39-3.07,35.72-3.39c2.12-0.21,3.48,1.24,3.48,3.63c-0.01,4.08,0.37,45.12-0.32,57.62" style="fill:none;stroke:#999;stroke-width:3"></path>

<path d="M774.75,26.25c0.69,0.37,4.46,0.45,5.16,0.34c3.27-0.5,16.55-2.09,24.4-2.64c1.07-0.07,3.05-0.26,3.94,0.04" style="fill:none;stroke:#999;stroke-width:3"></path>
<path d="M790.5699999999999,28.52c0.87,0.88,1.48,2.78,1.48,3.48c0,5.95,0.52,44.62,0.35,48.57" style="fill:none;stroke:#999;stroke-width:3"></path>
<path d="M776.0,53.19c0.58,0.22,4.64,0.25,5.23,0.2c3.39-0.28,15.89-1.94,20.58-2.25c0.72-0.05,3.35-0.09,4.43,0.1" style="fill:none;stroke:#999;stroke-width:3"></path>
<path d="M775.25,87.75c1.25,0.75,2.65,0.97,4.5,0C785.0,85,796.5,78.5,804.5,73.75" style="fill:none;stroke:#999;stroke-width:3"></path>
<path d="M833.9,13c0.51,0.84,0.69,1.9,0.46,2.59c-1.67,5.08-6.85,14.6-12.42,20.38" style="fill:none;stroke:#999;stroke-width:3"></path>
<path d="M814.3,36.76c0.65,1.14,1.3,3.03,1.3,4.55c0,1.51,0.8,47.6,0.8,56.69" style="fill:none;stroke:#999;stroke-width:3"></path>
<path d="M815.99,39c3.67-0.19,32.39-3.07,35.72-3.39c2.12-0.21,3.48,1.24,3.48,3.63c-0.01,4.08,0.37,45.12-0.32,57.62" style="fill:none;stroke:#999;stroke-width:3"></path>
<path d="M816.49,64.97c7.68-0.57,32.69-3.11,38.29-3.11" style="fill:none;stroke:#999;stroke-width:3"></path>

<path d="M883.75,26.25c0.69,0.37,4.46,0.45,5.16,0.34c3.27-0.5,16.55-2.09,24.4-2.64c1.07-0.07,3.05-0.26,3.94,0.04" style="fill:none;stroke:#999;stroke-width:3"></path>
<path d="M899.5699999999999,28.52c0.87,0.88,1.48,2.78,1.48,3.48c0,5.95,0.52,44.62,0.35,48.57" style="fill:none;stroke:#999;stroke-width:3"></path>
<path d="M885.0,53.19c0.58,0.22,4.64,0.25,5.23,0.2c3.39-0.28,15.89-1.94,20.58-2.25c0.72-0.05,3.35-0.09,4.43,0.1" style="fill:none;stroke:#999;stroke-width:3"></path>
<path d="M884.25,87.75c1.25,0.75,2.65,0.97,4.5,0C894.0,85,905.5,78.5,913.5,73.75" style="fill:none;stroke:#999;stroke-width:3"></path>
<path d="M942.9,13c0.51,0.84,0.69,1.9,0.46,2.59c-1.67,5.08-6.85,14.6-12.42,20.38" style="fill:none;stroke:#999;stroke-width:3"></path>
<path d="M923.3,36.76c0.65,1.14,1.3,3.03,1.3,4.55c0,1.51,0.8,47.6,0.8,56.69" style="fill:none;stroke:#999;stroke-width:3"></path>
<path d="M924.99,39c3.67-0.19,32.39-3.07,35.72-3.39c2.12-0.21,3.48,1.24,3.48,3.63c-0.01,4.08,0.37,45.12-0.32,57.62" style="fill:none;stroke:#999;stroke-width:3"></path>
<path d="M925.49,64.97c7.68-0.57,32.69-3.11,38.29-3.11" style="fill:none;stroke:#999;stroke-width:3"></path>
<path d="M926.27,92.53c9.19-0.61,27.08-2.06,36.89-2.34" style="fill:none;stroke:#999;stroke-width:3"></path>

</svg>