<svg width="981px" height="109px" viewBox="0 0 981 109" xmlns="http://www.w3.org/2000/svg" xmlns:xlink="http://www.w3.org/1999/xlink" xml:space="preserve" version="1.1" baseProfile="full">
<line x1="1" y1="1" x2="980" y2="1" style="stroke:#ddd;stroke-width:2"></line>
<line x1="1" y1="1" x2="1" y2="108" style="stroke:#ddd;stroke-width:2"></line>
<line x1="1" y1="108" x2="980" y2="108" style="stroke:#ddd;stroke-width:2"></line>
<line x1="980" y1="1" x2="980" y2="108" style="stroke:#ddd;stroke-width:2"></line>
<line x1="109" y1="1" x2="109" y2="108" style="stroke:#ddd;stroke-width:2"></line>
<line x1="218" y1="1" x2="218" y2="108" style="stroke:#ddd;stroke-width:2"></line>
<line x1="327" y1="1" x2="327" y2="108" style="stroke:#ddd;stroke-width:2"></line>
<line x1="436" y1="1" x2="436" y2="108" style="stroke:#ddd;stroke-width:2"></line>
<line x1="545" y1="1" x2="545" y2="108" style="stroke:#ddd;stroke-width:2"></line>
<line x1="654" y1="1" x2="654" y2="108" style="stroke:#ddd;stroke-width:2"></line>
<line x1="763" y1="1" x2="763" y2="108" style="stroke:#ddd;stroke-width:2"></line>
<line x1="872" y1="1" x2="872" y2="108" style="stroke:#ddd;stroke-width:2"></line>
<line x1="1" y1="54" x2="980" y2="54" style="stroke:#ddd;stroke-width:2;stroke-dasharray:3 3"></line>
<line x1="55" y1="1" x2="55" y2="108" style="stroke:#ddd;stroke-width:2;stroke-dasharray:3 3"></line>
<line x1="164" y1="1" x2="164" y2="108" style="stroke:#ddd;stroke-width:2;stroke-dasharray:3 3"></line>
<line x1="273" y1="1" x2="273" y2="108" style="stroke:#ddd;stroke-width:2;stroke-dasharray:3 3"></line>
<line x1="382" y1="1" x2="382" y2="108" style="stroke:#ddd;stroke-width:2;stroke-dasharray:3 3"></line>
<line x1="491" y1="1" x2="491" y2="108" style="stroke:#ddd;stroke-width:2;stroke-dasharray:3 3"></line>
<line x1="600" y1="1" x2="600" y2="108" style="stroke:#ddd;stroke-width:2;stroke-dasharray:3 3"></line>
<line x1="709" y1="1" x2="709" y2="108" style="stroke:#ddd;stroke-width:2;stroke-dasharray:3 3"></line>
<line x1="818" y1="1" x2="818" y2="108" style="stroke:#ddd;stroke-width:2;stroke-dasharray:3 3"></line>
<line x1="927" y1="1" x2="927" y2="108" style="stroke:#ddd;stroke-width:2;stroke-dasharray:3 3"></line>
<path d="M11.0,28.42c1.5,0.45,3.77,0.39,5.13,0.28c4.36-0.34,14.28-1.67,20.25-2.24c1.22-0.12,2.99-0.34,4.12-0.04" style="fill:none;stroke:#999;stroke-width:3"></path>

<path d="M120.0,28.42c1.5,0.45,3.77,0.39,5.13,0.28c4.36-0.34,14.28-1.67,20.25-2.24c1.22-0.12,2.99-0.34,4.12-0.04" style="fill:none;stroke:#999;stroke-width:3"></path>
<path d="M134.32,30.44c1,1,1.23,2.06,1.23,3.48c0,5.95-0.05,36.21-0.05,41.45" style="fill:none;stroke:#999;stroke-width:3"></path>

<path d="M229.0,28.42c1.5,0.45,3.77,0.39,5.13,0.28c4.36-0.34,14.28-1.67,20.25-2.24c1.22-0.12,2.99-0.34,4.12-0.04" style="fill:none;stroke:#999;stroke-width:3"></path>
<path d="M243.32,30.44c1,1,1.23,2.06,1.23,3.48c0,5.95-0.05,36.21-0.05,41.45" style="fill:none;stroke:#999;stroke-width:3"></path>
<path d="M230.25,52.42c1.38,0.58,3.2,0.53,4.26,0.37c4.49-0.67,13.74-2.62,18.23-3.19c0.69-0.09,1.75-0.35,3-0.06" style="fill:none;stroke:#999;stroke-width:3"></path>

<path d="M338.0,28.42c1.5,0.45,3.77,0.39,5.13,0.28c4.36-0.34,14.28-1.67,20.25-2.24c1.22-0.12,2.99-0.34,4.12-0.04" style="fill:none;stroke:#999;stroke-width:3"></path>
<path d="M352.32,30.44c1,1,1.23,2.06,1.23,3.48c0,5.95-0.05,36.21-0.05,41.45" style="fill:none;stroke:#999;stroke-width:3"></path>
<path d="M339.25,52.42c1.38,0.58,3.2,0.53,4.26,0.37c4.49-0.67,13.74-2.62,18.23-3.19c0.69-0.09,1.75-0.35,3-0.06" style="fill:none;stroke:#999;stroke-width:3"></path>
<path d="M339.25,81.02c1.12,1.1,1.86,1.21,3.5,0.4c8-3.92,12.62-6.17,21-10.25" style="fill:none;stroke:#999;stroke-width:3"></path>

<path d="M447.0,28.42c1.5,0.45,3.77,0.39,5.13,0.28c4.36-0.34,14.28-1.67,20.25-2.24c1.22-0.12,2.99-0.34,4.12-0.04" style="fill:none;stroke:#999;stroke-width:3"></path>
<path d="M461.32,30.44c1,1,1.23,2.06,1.23,3.48c0,5.95-0.05,36.21-0.05,41.45" style="fill:none;stroke:#999;stroke-width:3"></path>
<path d="M448.25,52.42c1.38,0.58,3.2,0.53,4.26,0.37c4.49-0.67,13.74-2.62,18.23-3.19c0.69-0.09,1.75-0.35,3-0.06" style="fill:none;stroke:#999;stroke-width:3"></path>
<path d="M448.25,81.02c1.12,1.1,1.86,1.21,3.5,0.4c8-3.92,12.62-6.17,21-10.25" style="fill:none;stroke:#999;stroke-width:3"></path>
<path d="M497.03,14.25c0.05,0.73,0.05,1.96-0.36,2.96C493.4,25.08,488.0,34.88,477.05,45.5" style="fill:none;stroke:#999;stroke-width:3"></path>

<path d="M556.0,28.42c1.5,0.45,3.77,0.39,5.13,0.28c4.36-0.34,14.28-1.67,20.25-2.24c1.22-0.12,2.99-0.34,4.12-0.04" style="fill:none;stroke:#999;stroke-width:3"></path>
<path d="M570.3199999999999,30.44c1,1,1.23,2.06,1.23,3.48c0,5.95-0.05,36.21-0.05,41.45" style="fill:none;stroke:#999;stroke-width:3"></path>
<path d="M557.25,52.42c1.38,0.58,3.2,0.53,4.26,0.37c4.49-0.67,13.74-2.62,18.23-3.19c0.69-0.09,1.75-0.35,3-0.06" style="fill:none;stroke:#999;stroke-width:3"></path>
<path d="M557.25,81.02c1.12,1.1,1.86,1.21,3.5,0.4c8-3.92,12.62-6.17,21-10.25" style="fill:none;stroke:#999;stroke-width:3"></path>
<path d="M606.03,14.25c0.05,0.73,0.05,1.96-0.36,2.96C602.4,25.08,597.0,34.88,586.05,45.5" style="fill:none;stroke:#999;stroke-width:3"></path>
<path d="M606.59,17.92c3.63,3.96,17.64,15.41,24.93,21.09c2.57,2,5.05,3.67,7.97,5.09" style="fill:none;stroke:#999;stroke-width:3"></path>

<path d="M665.0,28.42c1.5,0.45,3.77,0.39,5.13,0.28c4.36-0.34,14.28-1.67,20.25-2.24c1.22-0.12,2.99-0.34,4.12-0.04" style="fill:none;stroke:#999;stroke-width:3"></path>
<path d="M679.3199999999999,30.44c1,1,1.23,2.06,1.23,3.48c0,5.95-0.05,36.21-0.05,41.45" style="fill:none;stroke:#999;stroke-width:3"></path>
<path d="M666.25,52.42c1.38,0.58,3.2,0.53,4.26,0.37c4.49-0.67,13.74-2.62,18.23-3.19c0.69-0.09,1.75-0.35,3-0.06" style="fill:none;stroke:#999;stroke-width:3"></path>
<path d="M666.25,81.02c1.12,1.1,1.86,1.21,3.5,0.4c8-3.92,12.62-6.17,21-10.25" style="fill:none;stroke:#999;stroke-width:3"></path>
<path d="M715.03,14.25c0.05,0.73,0.05,1.96-0.36,2.96C711.4,25.08,706.0,34.88,695.05,45.5" style="fill:none;stroke:#999;stroke-width:3"></path>
<path d="M715.59,17.92c3.63,3.96,17.64,15.41,24.93,21.09c2.57,2,5.05,3.67,7.97,5.09" style="fill:none;stroke:#999;stroke-width:3"></path>
<path d="M721.89,38.9c0.06,0.45-0.21,1.77-0.62,2.3C718.0,45.5,711.12,51.62,701.72,57.03" style="fill:none;stroke:#999;stroke-width:3"></path>

<path d="M774.0,28.42c1.5,0.45,3.77,0.39,5.13,0.28c4.36-0.34,14.28-1.67,20.25-2.24c1.22-0.12,2.99-0.34,4.12-0.04" style="fill:none;stroke:#999;stroke-width:3"></path>
<path d="M788.3199999999999,30.44c1,1,1.23,2.06,1.23,3.48c0,5.95-0.05,36.21-0.05,41.45" style="fill:none;stroke:#999;stroke-width:3"></path>
<path d="M775.25,52.42c1.38,0.58,3.2,0.53,4.26,0.37c4.49-0.67,13.74-2.62,18.23-3.19c0.69-0.09,1.75-0.35,3-0.06" style="fill:none;stroke:#999;stroke-width:3"></path>
<path d="M775.25,81.02c1.12,1.1,1.86,1.21,3.5,0.4c8-3.92,12.62-6.17,21-10.25" style="fill:none;stroke:#999;stroke-width:3"></path>
<path d="M824.03,14.25c0.05,0.73,0.05,1.96-0.36,2.96C820.4,25.08,815.0,34.88,804.05,45.5" style="fill:none;stroke:#999;stroke-width:3"></path>
<path d="M824.59,17.92c3.63,3.96,17.64,15.41,24.93,21.09c2.57,2,5.05,3.67,7.97,5.09" style="fill:none;stroke:#999;stroke-width:3"></path>
<path d="M830.89,38.9c0.06,0.45-0.21,1.77-0.62,2.3C827.0,45.5,820.12,51.62,810.72,57.03" style="fill:none;stroke:#999;stroke-width:3"></path>
<path d="M836.59,55.99c0.08,0.51-0.16,1.43-0.65,2.04c-4.47,5.5-10.81,11.1-26.01,18.78" style="fill:none;stroke:#999;stroke-width:3"></path>

<path d="M883.0,28.42c1.5,0.45,3.77,0.39,5.13,0.28c4.36-0.34,14.28-1.67,20.25-2.24c1.22-0.12,2.99-0.34,4.12-0.04" style="fill:none;stroke:#999;stroke-width:3"></path>
<path d="M897.3199999999999,30.44c1,1,1.23,2.06,1.23,3.48c0,5.95-0.05,36.21-0.05,41.45" style="fill:none;stroke:#999;stroke-width:3"></path>
<path d="M884.25,52.42c1.38,0.58,3.2,0.53,4.26,0.37c4.49-0.67,13.74-2.62,18.23-3.19c0.69-0.09,1.75-0.35,3-0.06" style="fill:none;stroke:#999;stroke-width:3"></path>
<path d="M884.25,81.02c1.12,1.1,1.86,1.21,3.5,0.4c8-3.92,12.62-6.17,21-10.25" style="fill:none;stroke:#999;stroke-width:3"></path>
<path d="M933.03,14.25c0.05,0.73,0.05,1.96-0.36,2.96C929.4,25.08,924.0,34.88,913.05,45.5" style="fill:none;stroke:#999;stroke-width:3"></path>
<path d="M933.59,17.92c3.63,3.96,17.64,15.41,24.93,21.09c2.57,2,5.05,3.67,7.97,5.09" style="fill:none;stroke:#999;stroke-width:3"></path>
<path d="M939.89,38.9c0.06,0.45-0.21,1.77-0.62,2.3C936.0,45.5,929.12,51.62,919.72,57.03" style="fill:none;stroke:#999;stroke-width:3"></path>
<path d="M945.59,55.99c0.08,0.51-0.16,1.43-0.65,2.04c-4.47,5.5-10.81,11.1-26.01,18.78" style="fill:none;stroke:#999;stroke-width:3"></path>
<path d="M954.6800000000001,70.96c0.12,0.62-0.04,1.72-0.73,2.46C948.23,79.62,935.38,91,913.47,96.97" style="fill:none;stroke:#999;stroke-width:3"></path>

</svg>