<svg width="1090px" height="109px" viewBox="0 0 1090 109" xmlns="http://www.w3.org/2000/svg" xmlns:xlink="http://www.w3.org/1999/xlink" xml:space="preserve" version="1.1" baseProfile="full">
<line x1="1" y1="1" x2="1089" y2="1" style="stroke:#ddd;stroke-width:2"></line>
<line x1="1" y1="1" x2="1" y2="108" style="stroke:#ddd;stroke-width:2"></line>
<line x1="1" y1="108" x2="1089" y2="108" style="stroke:#ddd;stroke-width:2"></line>
<line x1="1089" y1="1" x2="1089" y2="108" style="stroke:#ddd;stroke-width:2"></line>
<line x1="109" y1="1" x2="109" y2="108" style="stroke:#ddd;stroke-width:2"></line>
<line x1="218" y1="1" x2="218" y2="108" style="stroke:#ddd;stroke-width:2"></line>
<line x1="327" y1="1" x2="327" y2="108" style="stroke:#ddd;stroke-width:2"></line>
<line x1="436" y1="1" x2="436" y2="108" style="stroke:#ddd;stroke-width:2"></line>
<line x1="545" y1="1" x2="545" y2="108" style="stroke:#ddd;stroke-width:2"></line>
<line x1="654" y1="1" x2="654" y2="108" style="stroke:#ddd;stroke-width:2"></line>
<line x1="763" y1="1" x2="763" y2="108" style="stroke:#ddd;stroke-width:2"></line>
<line x1="872" y1="1" x2="872" y2="108" style="stroke:#ddd;stroke-width:2"></line>
<line x1="981" y1="1" x2="981" y2="108" style="stroke:#ddd;stroke-width:2"></line>
<line x1="1" y1="54" x2="1089" y2="54" style="stroke:#ddd;stroke-width:2;stroke-dasharray:3 3"></line>
<line x1="55" y1="1" x2="55" y2="108" style="stroke:#ddd;stroke-width:2;stroke-dasharray:3 3"></line>
<line x1="164" y1="1" x2="164" y2="108" style="stroke:#ddd;stroke-width:2;stroke-dasharray:3 3"></line>
<line x1="273" y1="1" x2="273" y2="108" style="stroke:#ddd;stroke-width:2;stroke-dasharray:3 3"></line>
<line x1="382" y1="1" x2="382" y2="108" style="stroke:#ddd;stroke-width:2;stroke-dasharray:3 3"></line>
<line x1="491" y1="1" x2="491" y2="108" style="stroke:#ddd;stroke-width:2;stroke-dasharray:3 3"></line>
<line x1="600" y1="1" x2="600" y2="108" style="stroke:#ddd;stroke-width:2;stroke-dasharray:3 3"></line>
<line x1="709" y1="1" x2="709" y2="108" style="stroke:#ddd;stroke-width:2;stroke-dasharray:3 3"></line>
<line x1="818" y1="1" x2="818" y2="108" style="stroke:#ddd;stroke-width:2;stroke-dasharray:3 3"></line>
<line x1="927" y1="1" x2="927" y2="108" style="stroke:#ddd;stroke-width:2;stroke-dasharray:3 3"></line>
<line x1="1036" y1="1" x2="1036" y2="108" style="stroke:#ddd;stroke-width:2;stroke-dasharray:3 3"></line>
<path d="M13.25,27c1.75,0.38,3.97,0.5,5.5,0.37c3.72-0.32,11.23-1.57,16.63-2.19c1.78-0.27,3.57-0.58,5.37-0.43" style="fill:none;stroke:#999;stroke-width:3"></path>

<path d="M122.25,27c1.75,0.38,3.97,0.5,5.5,0.37c3.72-0.32,11.23-1.57,16.63-2.19c1.78-0.27,3.57-0.58,5.37-0.43" style="fill:none;stroke:#999;stroke-width:3"></path>
<path d="M136.07,29.27c1.08,1.08,1.23,2.11,1.23,3.73c0,5.95-0.05,36.05-0.05,41.62" style="fill:none;stroke:#999;stroke-width:3"></path>

<path d="M231.25,27c1.75,0.38,3.97,0.5,5.5,0.37c3.72-0.32,11.23-1.57,16.63-2.19c1.78-0.27,3.57-0.58,5.37-0.43" style="fill:none;stroke:#999;stroke-width:3"></path>
<path d="M245.07,29.27c1.08,1.08,1.23,2.11,1.23,3.73c0,5.95-0.05,36.05-0.05,41.62" style="fill:none;stroke:#999;stroke-width:3"></path>
<path d="M232.75,52.25c1.88,0.5,3.83,0.3,5.99-0.05c4.26-0.7,9.63-1.7,14.4-2.69c1.52-0.32,3.05-0.44,4.6-0.39" style="fill:none;stroke:#999;stroke-width:3"></path>

<path d="M340.25,27c1.75,0.38,3.97,0.5,5.5,0.37c3.72-0.32,11.23-1.57,16.63-2.19c1.78-0.27,3.57-0.58,5.37-0.43" style="fill:none;stroke:#999;stroke-width:3"></path>
<path d="M354.07,29.27c1.08,1.08,1.23,2.11,1.23,3.73c0,5.95-0.05,36.05-0.05,41.62" style="fill:none;stroke:#999;stroke-width:3"></path>
<path d="M341.75,52.25c1.88,0.5,3.83,0.3,5.99-0.05c4.26-0.7,9.63-1.7,14.4-2.69c1.52-0.32,3.05-0.44,4.6-0.39" style="fill:none;stroke:#999;stroke-width:3"></path>
<path d="M339.0,81.68c1.12,0.94,2.29,1.27,4.14,0.31c7.73-4,13.61-7.5,22.86-12.75" style="fill:none;stroke:#999;stroke-width:3"></path>

<path d="M449.25,27c1.75,0.38,3.97,0.5,5.5,0.37c3.72-0.32,11.23-1.57,16.63-2.19c1.78-0.27,3.57-0.58,5.37-0.43" style="fill:none;stroke:#999;stroke-width:3"></path>
<path d="M463.07,29.27c1.08,1.08,1.23,2.11,1.23,3.73c0,5.95-0.05,36.05-0.05,41.62" style="fill:none;stroke:#999;stroke-width:3"></path>
<path d="M450.75,52.25c1.88,0.5,3.83,0.3,5.99-0.05c4.26-0.7,9.63-1.7,14.4-2.69c1.52-0.32,3.05-0.44,4.6-0.39" style="fill:none;stroke:#999;stroke-width:3"></path>
<path d="M448.0,81.68c1.12,0.94,2.29,1.27,4.14,0.31c7.73-4,13.61-7.5,22.86-12.75" style="fill:none;stroke:#999;stroke-width:3"></path>
<path d="M484.55,33.24c2.39,0.58,4.76,0.19,7.2-0.07c7.75-0.8,16.57-2.01,25.87-2.56c2.5-0.37,4.75-0.24,7.42,0.03" style="fill:none;stroke:#999;stroke-width:3"></path>

<path d="M558.25,27c1.75,0.38,3.97,0.5,5.5,0.37c3.72-0.32,11.23-1.57,16.63-2.19c1.78-0.27,3.57-0.58,5.37-0.43" style="fill:none;stroke:#999;stroke-width:3"></path>
<path d="M572.0699999999999,29.27c1.08,1.08,1.23,2.11,1.23,3.73c0,5.95-0.05,36.05-0.05,41.62" style="fill:none;stroke:#999;stroke-width:3"></path>
<path d="M559.75,52.25c1.88,0.5,3.83,0.3,5.99-0.05c4.26-0.7,9.63-1.7,14.4-2.69c1.52-0.32,3.05-0.44,4.6-0.39" style="fill:none;stroke:#999;stroke-width:3"></path>
<path d="M557.0,81.68c1.12,0.94,2.29,1.27,4.14,0.31c7.73-4,13.61-7.5,22.86-12.75" style="fill:none;stroke:#999;stroke-width:3"></path>
<path d="M593.55,33.24c2.39,0.58,4.76,0.19,7.2-0.07c7.75-0.8,16.57-2.01,25.87-2.56c2.5-0.37,4.75-0.24,7.42,0.03" style="fill:none;stroke:#999;stroke-width:3"></path>
<path d="M611.7,13.12c0.97,0.97,1.16,2.38,1.16,3.91c0,12.97-0.1,15.96-0.1,33.11" style="fill:none;stroke:#999;stroke-width:3"></path>

<path d="M667.25,27c1.75,0.38,3.97,0.5,5.5,0.37c3.72-0.32,11.23-1.57,16.63-2.19c1.78-0.27,3.57-0.58,5.37-0.43" style="fill:none;stroke:#999;stroke-width:3"></path>
<path d="M681.0699999999999,29.27c1.08,1.08,1.23,2.11,1.23,3.73c0,5.95-0.05,36.05-0.05,41.62" style="fill:none;stroke:#999;stroke-width:3"></path>
<path d="M668.75,52.25c1.88,0.5,3.83,0.3,5.99-0.05c4.26-0.7,9.63-1.7,14.4-2.69c1.52-0.32,3.05-0.44,4.6-0.39" style="fill:none;stroke:#999;stroke-width:3"></path>
<path d="M666.0,81.68c1.12,0.94,2.29,1.27,4.14,0.31c7.73-4,13.61-7.5,22.86-12.75" style="fill:none;stroke:#999;stroke-width:3"></path>
<path d="M702.55,33.24c2.39,0.58,4.76,0.19,7.2-0.07c7.75-0.8,16.57-2.01,25.87-2.56c2.5-0.37,4.75-0.24,7.42,0.03" style="fill:none;stroke:#999;stroke-width:3"></path>
<path d="M720.7,13.12c0.97,0.97,1.16,2.38,1.16,3.91c0,12.97-0.1,15.96-0.1,33.11" style="fill:none;stroke:#999;stroke-width:3"></path>
<path d="M700.2,52.15c2.65,0.34,5.3,0.35,7.95,0.05c8.55-0.63,23.1-1.94,31.85-2.44c2.43-0.26,4.84-0.14,7.25,0.37" style="fill:none;stroke:#999;stroke-width:3"></path>

<path d="M776.25,27c1.75,0.38,3.97,0.5,5.5,0.37c3.72-0.32,11.23-1.57,16.63-2.19c1.78-0.27,3.57-0.58,5.37-0.43" style="fill:none;stroke:#999;stroke-width:3"></path>
<path d="M790.0699999999999,29.27c1.08,1.08,1.23,2.11,1.23,3.73c0,5.95-0.05,36.05-0.05,41.62" style="fill:none;stroke:#999;stroke-width:3"></path>
<path d="M777.75,52.25c1.88,0.5,3.83,0.3,5.99-0.05c4.26-0.7,9.63-1.7,14.4-2.69c1.52-0.32,3.05-0.44,4.6-0.39" style="fill:none;stroke:#999;stroke-width:3"></path>
<path d="M775.0,81.68c1.12,0.94,2.29,1.27,4.14,0.31c7.73-4,13.61-7.5,22.86-12.75" style="fill:none;stroke:#999;stroke-width:3"></path>
<path d="M811.55,33.24c2.39,0.58,4.76,0.19,7.2-0.07c7.75-0.8,16.57-2.01,25.87-2.56c2.5-0.37,4.75-0.24,7.42,0.03" style="fill:none;stroke:#999;stroke-width:3"></path>
<path d="M829.7,13.12c0.97,0.97,1.16,2.38,1.16,3.91c0,12.97-0.1,15.96-0.1,33.11" style="fill:none;stroke:#999;stroke-width:3"></path>
<path d="M809.2,52.15c2.65,0.34,5.3,0.35,7.95,0.05c8.55-0.63,23.1-1.94,31.85-2.44c2.43-0.26,4.84-0.14,7.25,0.37" style="fill:none;stroke:#999;stroke-width:3"></path>
<path d="M810.82,72.46c2.56,0.48,5.12,0.51,7.69,0.08c11.12-0.92,19.29-2.01,27.99-2.47c2.18-0.24,4.34-0.16,6.5,0.25" style="fill:none;stroke:#999;stroke-width:3"></path>

<path d="M885.25,27c1.75,0.38,3.97,0.5,5.5,0.37c3.72-0.32,11.23-1.57,16.63-2.19c1.78-0.27,3.57-0.58,5.37-0.43" style="fill:none;stroke:#999;stroke-width:3"></path>
<path d="M899.0699999999999,29.27c1.08,1.08,1.23,2.11,1.23,3.73c0,5.95-0.05,36.05-0.05,41.62" style="fill:none;stroke:#999;stroke-width:3"></path>
<path d="M886.75,52.25c1.88,0.5,3.83,0.3,5.99-0.05c4.26-0.7,9.63-1.7,14.4-2.69c1.52-0.32,3.05-0.44,4.6-0.39" style="fill:none;stroke:#999;stroke-width:3"></path>
<path d="M884.0,81.68c1.12,0.94,2.29,1.27,4.14,0.31c7.73-4,13.61-7.5,22.86-12.75" style="fill:none;stroke:#999;stroke-width:3"></path>
<path d="M920.55,33.24c2.39,0.58,4.76,0.19,7.2-0.07c7.75-0.8,16.57-2.01,25.87-2.56c2.5-0.37,4.75-0.24,7.42,0.03" style="fill:none;stroke:#999;stroke-width:3"></path>
<path d="M938.7,13.12c0.97,0.97,1.16,2.38,1.16,3.91c0,12.97-0.1,15.96-0.1,33.11" style="fill:none;stroke:#999;stroke-width:3"></path>
<path d="M918.2,52.15c2.65,0.34,5.3,0.35,7.95,0.05c8.55-0.63,23.1-1.94,31.85-2.44c2.43-0.26,4.84-0.14,7.25,0.37" style="fill:none;stroke:#999;stroke-width:3"></path>
<path d="M919.82,72.46c2.56,0.48,5.12,0.51,7.69,0.08c11.12-0.92,19.29-2.01,27.99-2.47c2.18-0.24,4.34-0.16,6.5,0.25" style="fill:none;stroke:#999;stroke-width:3"></path>
<path d="M939.1,56.07c0.85,0.85,1.43,1.95,1.43,3.72c0,11.39-0.04,15.9-0.04,30.96" style="fill:none;stroke:#999;stroke-width:3"></path>

<path d="M994.25,27c1.75,0.38,3.97,0.5,5.5,0.37c3.72-0.32,11.23-1.57,16.63-2.19c1.78-0.27,3.57-0.58,5.37-0.43" style="fill:none;stroke:#999;stroke-width:3"></path>
<path d="M1008.0699999999999,29.27c1.08,1.08,1.23,2.11,1.23,3.73c0,5.95-0.05,36.05-0.05,41.62" style="fill:none;stroke:#999;stroke-width:3"></path>
<path d="M995.75,52.25c1.88,0.5,3.83,0.3,5.99-0.05c4.26-0.7,9.63-1.7,14.4-2.69c1.52-0.32,3.05-0.44,4.6-0.39" style="fill:none;stroke:#999;stroke-width:3"></path>
<path d="M993.0,81.68c1.12,0.94,2.29,1.27,4.14,0.31c7.73-4,13.61-7.5,22.86-12.75" style="fill:none;stroke:#999;stroke-width:3"></path>
<path d="M1029.55,33.24c2.39,0.58,4.76,0.19,7.2-0.07c7.75-0.8,16.57-2.01,25.87-2.56c2.5-0.37,4.75-0.24,7.42,0.03" style="fill:none;stroke:#999;stroke-width:3"></path>
<path d="M1047.7,13.12c0.97,0.97,1.16,2.38,1.16,3.91c0,12.97-0.1,15.96-0.1,33.11" style="fill:none;stroke:#999;stroke-width:3"></path>
<path d="M1027.2,52.15c2.65,0.34,5.3,0.35,7.95,0.05c8.55-0.63,23.1-1.94,31.85-2.44c2.43-0.26,4.84-0.14,7.25,0.37" style="fill:none;stroke:#999;stroke-width:3"></path>
<path d="M1028.8200000000002,72.46c2.56,0.48,5.12,0.51,7.69,0.08c11.12-0.92,19.29-2.01,27.99-2.47c2.18-0.24,4.34-0.16,6.5,0.25" style="fill:none;stroke:#999;stroke-width:3"></path>
<path d="M1048.1,56.07c0.85,0.85,1.43,1.95,1.43,3.72c0,11.39-0.04,15.9-0.04,30.96" style="fill:none;stroke:#999;stroke-width:3"></path>
<path d="M1022.55,92.76c3.21,0.58,6.44,0.62,9.7,0.36C1046.12,92,1055.0,91.38,1068.5,90.94c3.29-0.1,6.51,0.02,9.71,0.79" style="fill:none;stroke:#999;stroke-width:3"></path>

</svg>