<svg width="981px" height="109px" viewBox="0 0 981 109" xmlns="http://www.w3.org/2000/svg" xmlns:xlink="http://www.w3.org/1999/xlink" xml:space="preserve" version="1.1" baseProfile="full">
<line x1="1" y1="1" x2="980" y2="1" style="stroke:#ddd;stroke-width:2"></line>
<line x1="1" y1="1" x2="1" y2="108" style="stroke:#ddd;stroke-width:2"></line>
<line x1="1" y1="108" x2="980" y2="108" style="stroke:#ddd;stroke-width:2"></line>
<line x1="980" y1="1" x2="980" y2="108" style="stroke:#ddd;stroke-width:2"></line>
<line x1="109" y1="1" x2="109" y2="108" style="stroke:#ddd;stroke-width:2"></line>
<line x1="218" y1="1" x2="218" y2="108" style="stroke:#ddd;stroke-width:2"></line>
<line x1="327" y1="1" x2="327" y2="108" style="stroke:#ddd;stroke-width:2"></line>
<line x1="436" y1="1" x2="436" y2="108" style="stroke:#ddd;stroke-width:2"></line>
<line x1="545" y1="1" x2="545" y2="108" style="stroke:#ddd;stroke-width:2"></line>
<line x1="654" y1="1" x2="654" y2="108" style="stroke:#ddd;stroke-width:2"></line>
<line x1="763" y1="1" x2="763" y2="108" style="stroke:#ddd;stroke-width:2"></line>
<line x1="872" y1="1" x2="872" y2="108" style="stroke:#ddd;stroke-width:2"></line>
<line x1="1" y1="54" x2="980" y2="54" style="stroke:#ddd;stroke-width:2;stroke-dasharray:3 3"></line>
<line x1="55" y1="1" x2="55" y2="108" style="stroke:#ddd;stroke-width:2;stroke-dasharray:3 3"></line>
<line x1="164" y1="1" x2="164" y2="108" style="stroke:#ddd;stroke-width:2;stroke-dasharray:3 3"></line>
<line x1="273" y1="1" x2="273" y2="108" style="stroke:#ddd;stroke-width:2;stroke-dasharray:3 3"></line>
<line x1="382" y1="1" x2="382" y2="108" style="stroke:#ddd;stroke-width:2;stroke-dasharray:3 3"></line>
<line x1="491" y1="1" x2="491" y2="108" style="stroke:#ddd;stroke-width:2;stroke-dasharray:3 3"></line>
<line x1="600" y1="1" x2="600" y2="108" style="stroke:#ddd;stroke-width:2;stroke-dasharray:3 3"></line>
<line x1="709" y1="1" x2="709" y2="108" style="stroke:#ddd;stroke-width:2;stroke-dasharray:3 3"></line>
<line x1="818" y1="1" x2="818" y2="108" style="stroke:#ddd;stroke-width:2;stroke-dasharray:3 3"></line>
<line x1="927" y1="1" x2="927" y2="108" style="stroke:#ddd;stroke-width:2;stroke-dasharray:3 3"></line>
<path d="M43.37,12.71c0.5,0.75-0.03,1.62-0.7,2.52c-4.89,6.53-13.16,14.16-28.91,22.53" style="fill:none;stroke:#999;stroke-width:3"></path>

<path d="M152.37,12.71c0.5,0.75-0.03,1.62-0.7,2.52c-4.89,6.53-13.16,14.16-28.91,22.53" style="fill:none;stroke:#999;stroke-width:3"></path>
<path d="M169.31,8.89c4.7,1.7,20.34,19.4,28.82,23.63c3.27,1.63,4.45,2.51,7.63,3.04" style="fill:none;stroke:#999;stroke-width:3"></path>

<path d="M261.37,12.71c0.5,0.75-0.03,1.62-0.7,2.52c-4.89,6.53-13.16,14.16-28.91,22.53" style="fill:none;stroke:#999;stroke-width:3"></path>
<path d="M278.31,8.89c4.7,1.7,20.34,19.4,28.82,23.63c3.27,1.63,4.45,2.51,7.63,3.04" style="fill:none;stroke:#999;stroke-width:3"></path>
<path d="M271.54,21.16c0.49,0.41,0.39,1.37-0.01,1.86c-5.43,6.61-10.25,12.28-17.98,18.87c-1.88,1.6-1.2,3.2,1.81,2.59c8.41-1.69,25.93-6.24,35.04-7.22" style="fill:none;stroke:#999;stroke-width:3"></path>

<path d="M370.37,12.71c0.5,0.75-0.03,1.62-0.7,2.52c-4.89,6.53-13.16,14.16-28.91,22.53" style="fill:none;stroke:#999;stroke-width:3"></path>
<path d="M387.31,8.89c4.7,1.7,20.34,19.4,28.82,23.63c3.27,1.63,4.45,2.51,7.63,3.04" style="fill:none;stroke:#999;stroke-width:3"></path>
<path d="M380.54,21.16c0.49,0.41,0.39,1.37-0.01,1.86c-5.43,6.61-10.25,12.28-17.98,18.87c-1.88,1.6-1.2,3.2,1.81,2.59c8.41-1.69,25.93-6.24,35.04-7.22" style="fill:none;stroke:#999;stroke-width:3"></path>
<path d="M390.83,29.66c4.99,2.42,12.88,9.96,14.13,13.73" style="fill:none;stroke:#999;stroke-width:3"></path>

<path d="M479.37,12.71c0.5,0.75-0.03,1.62-0.7,2.52c-4.89,6.53-13.16,14.16-28.91,22.53" style="fill:none;stroke:#999;stroke-width:3"></path>
<path d="M496.31,8.89c4.7,1.7,20.34,19.4,28.82,23.63c3.27,1.63,4.45,2.51,7.63,3.04" style="fill:none;stroke:#999;stroke-width:3"></path>
<path d="M489.54,21.16c0.49,0.41,0.39,1.37-0.01,1.86c-5.43,6.61-10.25,12.28-17.98,18.87c-1.88,1.6-1.2,3.2,1.81,2.59c8.41-1.69,25.93-6.24,35.04-7.22" style="fill:none;stroke:#999;stroke-width:3"></path>
<path d="M499.83,29.66c4.99,2.42,12.88,9.96,14.13,13.73" style="fill:none;stroke:#999;stroke-width:3"></path>
<path d="M454.8,54.75c1.93,0.61,5.47,0.75,7.39,0.61c15.38-1.11,45.55-3.93,57.59-4.2c3.21-0.07,5.14,0.29,6.75,0.6" style="fill:none;stroke:#999;stroke-width:3"></path>

<path d="M588.37,12.71c0.5,0.75-0.03,1.62-0.7,2.52c-4.89,6.53-13.16,14.16-28.91,22.53" style="fill:none;stroke:#999;stroke-width:3"></path>
<path d="M605.31,8.89c4.7,1.7,20.34,19.4,28.82,23.63c3.27,1.63,4.45,2.51,7.63,3.04" style="fill:none;stroke:#999;stroke-width:3"></path>
<path d="M598.54,21.16c0.49,0.41,0.39,1.37-0.01,1.86c-5.43,6.61-10.25,12.28-17.98,18.87c-1.88,1.6-1.2,3.2,1.81,2.59c8.41-1.69,25.93-6.24,35.04-7.22" style="fill:none;stroke:#999;stroke-width:3"></path>
<path d="M608.8299999999999,29.66c4.99,2.42,12.88,9.96,14.13,13.73" style="fill:none;stroke:#999;stroke-width:3"></path>
<path d="M563.8,54.75c1.93,0.61,5.47,0.75,7.39,0.61c15.38-1.11,45.55-3.93,57.59-4.2c3.21-0.07,5.14,0.29,6.75,0.6" style="fill:none;stroke:#999;stroke-width:3"></path>
<path d="M585.17,57.89 c 0.08,1 -0.22,3.05 -0.45,3.59 -2.47,5.66 -11.063542,28.477292 -13.333542,33.067292" style="fill:none;stroke:#999;stroke-width:3"></path>

<path d="M697.37,12.71c0.5,0.75-0.03,1.62-0.7,2.52c-4.89,6.53-13.16,14.16-28.91,22.53" style="fill:none;stroke:#999;stroke-width:3"></path>
<path d="M714.31,8.89c4.7,1.7,20.34,19.4,28.82,23.63c3.27,1.63,4.45,2.51,7.63,3.04" style="fill:none;stroke:#999;stroke-width:3"></path>
<path d="M707.54,21.16c0.49,0.41,0.39,1.37-0.01,1.86c-5.43,6.61-10.25,12.28-17.98,18.87c-1.88,1.6-1.2,3.2,1.81,2.59c8.41-1.69,25.93-6.24,35.04-7.22" style="fill:none;stroke:#999;stroke-width:3"></path>
<path d="M717.8299999999999,29.66c4.99,2.42,12.88,9.96,14.13,13.73" style="fill:none;stroke:#999;stroke-width:3"></path>
<path d="M672.8,54.75c1.93,0.61,5.47,0.75,7.39,0.61c15.38-1.11,45.55-3.93,57.59-4.2c3.21-0.07,5.14,0.29,6.75,0.6" style="fill:none;stroke:#999;stroke-width:3"></path>
<path d="M694.17,57.89 c 0.08,1 -0.22,3.05 -0.45,3.59 -2.47,5.66 -11.063542,28.477292 -13.333542,33.067292" style="fill:none;stroke:#999;stroke-width:3"></path>
<path d="M673.926902,96.140909 c 1.035944,0.308484 2.43278,0.131632 3.283787,-0.03605 C685.364157,94.498354,707.5,90.14,715.5,88.89" style="fill:none;stroke:#999;stroke-width:3"></path>

<path d="M806.37,12.71c0.5,0.75-0.03,1.62-0.7,2.52c-4.89,6.53-13.16,14.16-28.91,22.53" style="fill:none;stroke:#999;stroke-width:3"></path>
<path d="M823.31,8.89c4.7,1.7,20.34,19.4,28.82,23.63c3.27,1.63,4.45,2.51,7.63,3.04" style="fill:none;stroke:#999;stroke-width:3"></path>
<path d="M816.54,21.16c0.49,0.41,0.39,1.37-0.01,1.86c-5.43,6.61-10.25,12.28-17.98,18.87c-1.88,1.6-1.2,3.2,1.81,2.59c8.41-1.69,25.93-6.24,35.04-7.22" style="fill:none;stroke:#999;stroke-width:3"></path>
<path d="M826.8299999999999,29.66c4.99,2.42,12.88,9.96,14.13,13.73" style="fill:none;stroke:#999;stroke-width:3"></path>
<path d="M781.8,54.75c1.93,0.61,5.47,0.75,7.39,0.61c15.38-1.11,45.55-3.93,57.59-4.2c3.21-0.07,5.14,0.29,6.75,0.6" style="fill:none;stroke:#999;stroke-width:3"></path>
<path d="M803.17,57.89 c 0.08,1 -0.22,3.05 -0.45,3.59 -2.47,5.66 -11.063542,28.477292 -13.333542,33.067292" style="fill:none;stroke:#999;stroke-width:3"></path>
<path d="M782.926902,96.140909 c 1.035944,0.308484 2.43278,0.131632 3.283787,-0.03605 C794.364157,94.498354,816.5,90.14,824.5,88.89" style="fill:none;stroke:#999;stroke-width:3"></path>
<path d="M803.24,65.68c0.87,0.21,2.28,0.12,3.14,0c7.62-1.04,21.09-3.28,26.77-3.29c1.35,0,2.85,1.5,2.66,3.03c-0.57,4.49-2.81,12.97-3.56,18.47c-1.42,10.4,1.75,12.5,12.5,12.5c11,0,13.25-0.75,13.25-9.5" style="fill:none;stroke:#999;stroke-width:3"></path>

<path d="M915.37,12.71c0.5,0.75-0.03,1.62-0.7,2.52c-4.89,6.53-13.16,14.16-28.91,22.53" style="fill:none;stroke:#999;stroke-width:3"></path>
<path d="M932.31,8.89c4.7,1.7,20.34,19.4,28.82,23.63c3.27,1.63,4.45,2.51,7.63,3.04" style="fill:none;stroke:#999;stroke-width:3"></path>
<path d="M925.54,21.16c0.49,0.41,0.39,1.37-0.01,1.86c-5.43,6.61-10.25,12.28-17.98,18.87c-1.88,1.6-1.2,3.2,1.81,2.59c8.41-1.69,25.93-6.24,35.04-7.22" style="fill:none;stroke:#999;stroke-width:3"></path>
<path d="M935.8299999999999,29.66c4.99,2.42,12.88,9.96,14.13,13.73" style="fill:none;stroke:#999;stroke-width:3"></path>
<path d="M890.8,54.75c1.93,0.61,5.47,0.75,7.39,0.61c15.38-1.11,45.55-3.93,57.59-4.2c3.21-0.07,5.14,0.29,6.75,0.6" style="fill:none;stroke:#999;stroke-width:3"></path>
<path d="M912.17,57.89 c 0.08,1 -0.22,3.05 -0.45,3.59 -2.47,5.66 -11.063542,28.477292 -13.333542,33.067292" style="fill:none;stroke:#999;stroke-width:3"></path>
<path d="M891.926902,96.140909 c 1.035944,0.308484 2.43278,0.131632 3.283787,-0.03605 C903.364157,94.498354,925.5,90.14,933.5,88.89" style="fill:none;stroke:#999;stroke-width:3"></path>
<path d="M912.24,65.68c0.87,0.21,2.28,0.12,3.14,0c7.62-1.04,21.09-3.28,26.77-3.29c1.35,0,2.85,1.5,2.66,3.03c-0.57,4.49-2.81,12.97-3.56,18.47c-1.42,10.4,1.75,12.5,12.5,12.5c11,0,13.25-0.75,13.25-9.5" style="fill:none;stroke:#999;stroke-width:3"></path>
<path d="M917.1,71.98c3.51,1.7,9.06,6.99,9.94,9.63" style="fill:none;stroke:#999;stroke-width:3"></path>

</svg>