<svg width="1199px" height="109px" viewBox="0 0 1199 109" xmlns="http://www.w3.org/2000/svg" xmlns:xlink="http://www.w3.org/1999/xlink" xml:space="preserve" version="1.1" baseProfile="full">
<line x1="1" y1="1" x2="1198" y2="1" style="stroke:#ddd;stroke-width:2"></line>
<line x1="1" y1="1" x2="1" y2="108" style="stroke:#ddd;stroke-width:2"></line>
<line x1="1" y1="108" x2="1198" y2="108" style="stroke:#ddd;stroke-width:2"></line>
<line x1="1198" y1="1" x2="1198" y2="108" style="stroke:#ddd;stroke-width:2"></line>
<line x1="109" y1="1" x2="109" y2="108" style="stroke:#ddd;stroke-width:2"></line>
<line x1="218" y1="1" x2="218" y2="108" style="stroke:#ddd;stroke-width:2"></line>
<line x1="327" y1="1" x2="327" y2="108" style="stroke:#ddd;stroke-width:2"></line>
<line x1="436" y1="1" x2="436" y2="108" style="stroke:#ddd;stroke-width:2"></line>
<line x1="545" y1="1" x2="545" y2="108" style="stroke:#ddd;stroke-width:2"></line>
<line x1="654" y1="1" x2="654" y2="108" style="stroke:#ddd;stroke-width:2"></line>
<line x1="763" y1="1" x2="763" y2="108" style="stroke:#ddd;stroke-width:2"></line>
<line x1="872" y1="1" x2="872" y2="108" style="stroke:#ddd;stroke-width:2"></line>
<line x1="981" y1="1" x2="981" y2="108" style="stroke:#ddd;stroke-width:2"></line>
<line x1="1090" y1="1" x2="1090" y2="108" style="stroke:#ddd;stroke-width:2"></line>
<line x1="1" y1="54" x2="1198" y2="54" style="stroke:#ddd;stroke-width:2;stroke-dasharray:3 3"></line>
<line x1="55" y1="1" x2="55" y2="108" style="stroke:#ddd;stroke-width:2;stroke-dasharray:3 3"></line>
<line x1="164" y1="1" x2="164" y2="108" style="stroke:#ddd;stroke-width:2;stroke-dasharray:3 3"></line>
<line x1="273" y1="1" x2="273" y2="108" style="stroke:#ddd;stroke-width:2;stroke-dasharray:3 3"></line>
<line x1="382" y1="1" x2="382" y2="108" style="stroke:#ddd;stroke-width:2;stroke-dasharray:3 3"></line>
<line x1="491" y1="1" x2="491" y2="108" style="stroke:#ddd;stroke-width:2;stroke-dasharray:3 3"></line>
<line x1="600" y1="1" x2="600" y2="108" style="stroke:#ddd;stroke-width:2;stroke-dasharray:3 3"></line>
<line x1="709" y1="1" x2="709" y2="108" style="stroke:#ddd;stroke-width:2;stroke-dasharray:3 3"></line>
<line x1="818" y1="1" x2="818" y2="108" style="stroke:#ddd;stroke-width:2;stroke-dasharray:3 3"></line>
<line x1="927" y1="1" x2="927" y2="108" style="stroke:#ddd;stroke-width:2;stroke-dasharray:3 3"></line>
<line x1="1036" y1="1" x2="1036" y2="108" style="stroke:#ddd;stroke-width:2;stroke-dasharray:3 3"></line>
<line x1="1145" y1="1" x2="1145" y2="108" style="stroke:#ddd;stroke-width:2;stroke-dasharray:3 3"></line>
<path d="M22.25,19.54c0.62,0.07,1.83,0.4,2.92,0.33c5.09-0.35,10.83-2.12,15.52-2.25c0.96-0.02,1.83,0.13,2.31,0.26" style="fill:none;stroke:#999;stroke-width:3"></path>

<path d="M131.25,19.54c0.62,0.07,1.83,0.4,2.92,0.33c5.09-0.35,10.83-2.12,15.52-2.25c0.96-0.02,1.83,0.13,2.31,0.26" style="fill:none;stroke:#999;stroke-width:3"></path>
<path d="M127.5,42.17c0.73,0.58,2.18,0.9,4.36,0.13c6.06-2.14,13.58-5.65,19.64-7.79" style="fill:none;stroke:#999;stroke-width:3"></path>

<path d="M240.25,19.54c0.62,0.07,1.83,0.4,2.92,0.33c5.09-0.35,10.83-2.12,15.52-2.25c0.96-0.02,1.83,0.13,2.31,0.26" style="fill:none;stroke:#999;stroke-width:3"></path>
<path d="M236.5,42.17c0.73,0.58,2.18,0.9,4.36,0.13c6.06-2.14,13.58-5.65,19.64-7.79" style="fill:none;stroke:#999;stroke-width:3"></path>
<path d="M275.23,10.75c0.04,0.43,0.07,1.11-0.07,1.73c-0.85,3.65-5.76,11.67-12.48,16.58" style="fill:none;stroke:#999;stroke-width:3"></path>

<path d="M349.25,19.54c0.62,0.07,1.83,0.4,2.92,0.33c5.09-0.35,10.83-2.12,15.52-2.25c0.96-0.02,1.83,0.13,2.31,0.26" style="fill:none;stroke:#999;stroke-width:3"></path>
<path d="M345.5,42.17c0.73,0.58,2.18,0.9,4.36,0.13c6.06-2.14,13.58-5.65,19.64-7.79" style="fill:none;stroke:#999;stroke-width:3"></path>
<path d="M384.23,10.75c0.04,0.43,0.07,1.11-0.07,1.73c-0.85,3.65-5.76,11.67-12.48,16.58" style="fill:none;stroke:#999;stroke-width:3"></path>
<path d="M380.31,20.41c0.81,0.23,2.33,0.58,3.55,0.38c1.48-0.24,27.4-2.43,28.81-2.44c4.86-0.04-0.01,6.1-3.01,9.07" style="fill:none;stroke:#999;stroke-width:3"></path>

<path d="M458.25,19.54c0.62,0.07,1.83,0.4,2.92,0.33c5.09-0.35,10.83-2.12,15.52-2.25c0.96-0.02,1.83,0.13,2.31,0.26" style="fill:none;stroke:#999;stroke-width:3"></path>
<path d="M454.5,42.17c0.73,0.58,2.18,0.9,4.36,0.13c6.06-2.14,13.58-5.65,19.64-7.79" style="fill:none;stroke:#999;stroke-width:3"></path>
<path d="M493.23,10.75c0.04,0.43,0.07,1.11-0.07,1.73c-0.85,3.65-5.76,11.67-12.48,16.58" style="fill:none;stroke:#999;stroke-width:3"></path>
<path d="M489.31,20.41c0.81,0.23,2.33,0.58,3.55,0.38c1.48-0.24,27.4-2.43,28.81-2.44c4.86-0.04-0.01,6.1-3.01,9.07" style="fill:none;stroke:#999;stroke-width:3"></path>
<path d="M499.51,23.12c0.06,0.65,0.04,1.66-0.11,2.61c-0.95,5.9-9.87,20-22.14,26.77" style="fill:none;stroke:#999;stroke-width:3"></path>

<path d="M567.25,19.54c0.62,0.07,1.83,0.4,2.92,0.33c5.09-0.35,10.83-2.12,15.52-2.25c0.96-0.02,1.83,0.13,2.31,0.26" style="fill:none;stroke:#999;stroke-width:3"></path>
<path d="M563.5,42.17c0.73,0.58,2.18,0.9,4.36,0.13c6.06-2.14,13.58-5.65,19.64-7.79" style="fill:none;stroke:#999;stroke-width:3"></path>
<path d="M602.23,10.75c0.04,0.43,0.07,1.11-0.07,1.73c-0.85,3.65-5.76,11.67-12.48,16.58" style="fill:none;stroke:#999;stroke-width:3"></path>
<path d="M598.31,20.41c0.81,0.23,2.33,0.58,3.55,0.38c1.48-0.24,27.4-2.43,28.81-2.44c4.86-0.04-0.01,6.1-3.01,9.07" style="fill:none;stroke:#999;stroke-width:3"></path>
<path d="M608.51,23.12c0.06,0.65,0.04,1.66-0.11,2.61c-0.95,5.9-9.87,20-22.14,26.77" style="fill:none;stroke:#999;stroke-width:3"></path>
<path d="M607.31,30.25C611.3,33.69,625.26,44,632.42,47.67c1.51,0.77,2.65,1.23,4.08,1.48" style="fill:none;stroke:#999;stroke-width:3"></path>

<path d="M676.25,19.54c0.62,0.07,1.83,0.4,2.92,0.33c5.09-0.35,10.83-2.12,15.52-2.25c0.96-0.02,1.83,0.13,2.31,0.26" style="fill:none;stroke:#999;stroke-width:3"></path>
<path d="M672.5,42.17c0.73,0.58,2.18,0.9,4.36,0.13c6.06-2.14,13.58-5.65,19.64-7.79" style="fill:none;stroke:#999;stroke-width:3"></path>
<path d="M711.23,10.75c0.04,0.43,0.07,1.11-0.07,1.73c-0.85,3.65-5.76,11.67-12.48,16.58" style="fill:none;stroke:#999;stroke-width:3"></path>
<path d="M707.31,20.41c0.81,0.23,2.33,0.58,3.55,0.38c1.48-0.24,27.4-2.43,28.81-2.44c4.86-0.04-0.01,6.1-3.01,9.07" style="fill:none;stroke:#999;stroke-width:3"></path>
<path d="M717.51,23.12c0.06,0.65,0.04,1.66-0.11,2.61c-0.95,5.9-9.87,20-22.14,26.77" style="fill:none;stroke:#999;stroke-width:3"></path>
<path d="M716.31,30.25C720.3,33.69,734.26,44,741.42,47.67c1.51,0.77,2.65,1.23,4.08,1.48" style="fill:none;stroke:#999;stroke-width:3"></path>
<path d="M673.3,58.61c1.93,0.61,5.47,0.7,7.39,0.61c16.06-0.72,45.22-2.45,56.09-2.7c3.21-0.07,5.14,0.29,6.75,0.6" style="fill:none;stroke:#999;stroke-width:3"></path>

<path d="M785.25,19.54c0.62,0.07,1.83,0.4,2.92,0.33c5.09-0.35,10.83-2.12,15.52-2.25c0.96-0.02,1.83,0.13,2.31,0.26" style="fill:none;stroke:#999;stroke-width:3"></path>
<path d="M781.5,42.17c0.73,0.58,2.18,0.9,4.36,0.13c6.06-2.14,13.58-5.65,19.64-7.79" style="fill:none;stroke:#999;stroke-width:3"></path>
<path d="M820.23,10.75c0.04,0.43,0.07,1.11-0.07,1.73c-0.85,3.65-5.76,11.67-12.48,16.58" style="fill:none;stroke:#999;stroke-width:3"></path>
<path d="M816.31,20.41c0.81,0.23,2.33,0.58,3.55,0.38c1.48-0.24,27.4-2.43,28.81-2.44c4.86-0.04-0.01,6.1-3.01,9.07" style="fill:none;stroke:#999;stroke-width:3"></path>
<path d="M826.51,23.12c0.06,0.65,0.04,1.66-0.11,2.61c-0.95,5.9-9.87,20-22.14,26.77" style="fill:none;stroke:#999;stroke-width:3"></path>
<path d="M825.31,30.25C829.3,33.69,843.26,44,850.42,47.67c1.51,0.77,2.65,1.23,4.08,1.48" style="fill:none;stroke:#999;stroke-width:3"></path>
<path d="M782.3,58.61c1.93,0.61,5.47,0.7,7.39,0.61c16.06-0.72,45.22-2.45,56.09-2.7c3.21-0.07,5.14,0.29,6.75,0.6" style="fill:none;stroke:#999;stroke-width:3"></path>
<path d="m 39.7,60.25 c 0.08,1 -0.22,3.05 -0.45,3.59 -2.47,5.66 -11.063542,28.477292 -13.333542,33.067292" style="fill:none;stroke:#999;stroke-width:3"></path>

<path d="M894.25,19.54c0.62,0.07,1.83,0.4,2.92,0.33c5.09-0.35,10.83-2.12,15.52-2.25c0.96-0.02,1.83,0.13,2.31,0.26" style="fill:none;stroke:#999;stroke-width:3"></path>
<path d="M890.5,42.17c0.73,0.58,2.18,0.9,4.36,0.13c6.06-2.14,13.58-5.65,19.64-7.79" style="fill:none;stroke:#999;stroke-width:3"></path>
<path d="M929.23,10.75c0.04,0.43,0.07,1.11-0.07,1.73c-0.85,3.65-5.76,11.67-12.48,16.58" style="fill:none;stroke:#999;stroke-width:3"></path>
<path d="M925.31,20.41c0.81,0.23,2.33,0.58,3.55,0.38c1.48-0.24,27.4-2.43,28.81-2.44c4.86-0.04-0.01,6.1-3.01,9.07" style="fill:none;stroke:#999;stroke-width:3"></path>
<path d="M935.51,23.12c0.06,0.65,0.04,1.66-0.11,2.61c-0.95,5.9-9.87,20-22.14,26.77" style="fill:none;stroke:#999;stroke-width:3"></path>
<path d="M934.31,30.25C938.3,33.69,952.26,44,959.42,47.67c1.51,0.77,2.65,1.23,4.08,1.48" style="fill:none;stroke:#999;stroke-width:3"></path>
<path d="M891.3,58.61c1.93,0.61,5.47,0.7,7.39,0.61c16.06-0.72,45.22-2.45,56.09-2.7c3.21-0.07,5.14,0.29,6.75,0.6" style="fill:none;stroke:#999;stroke-width:3"></path>
<path d="m 39.7,60.25 c 0.08,1 -0.22,3.05 -0.45,3.59 -2.47,5.66 -11.063542,28.477292 -13.333542,33.067292" style="fill:none;stroke:#999;stroke-width:3"></path>
<path d="m 20.6,97.3 c 1.035944,0.308484 2.43278,0.131632 3.283787,-0.03605 8.153468,-1.606505 30.289311,-5.964859 38.289311,-7.214859" style="fill:none;stroke:#999;stroke-width:3"></path>

<path d="M1003.25,19.54c0.62,0.07,1.83,0.4,2.92,0.33c5.09-0.35,10.83-2.12,15.52-2.25c0.96-0.02,1.83,0.13,2.31,0.26" style="fill:none;stroke:#999;stroke-width:3"></path>
<path d="M999.5,42.17c0.73,0.58,2.18,0.9,4.36,0.13c6.06-2.14,13.58-5.65,19.64-7.79" style="fill:none;stroke:#999;stroke-width:3"></path>
<path d="M1038.23,10.75c0.04,0.43,0.07,1.11-0.07,1.73c-0.85,3.65-5.76,11.67-12.48,16.58" style="fill:none;stroke:#999;stroke-width:3"></path>
<path d="M1034.31,20.41c0.81,0.23,2.33,0.58,3.55,0.38c1.48-0.24,27.4-2.43,28.81-2.44c4.86-0.04-0.01,6.1-3.01,9.07" style="fill:none;stroke:#999;stroke-width:3"></path>
<path d="M1044.51,23.12c0.06,0.65,0.04,1.66-0.11,2.61c-0.95,5.9-9.87,20-22.14,26.77" style="fill:none;stroke:#999;stroke-width:3"></path>
<path d="M1043.31,30.25C1047.3,33.69,1061.26,44,1068.42,47.67c1.51,0.77,2.65,1.23,4.08,1.48" style="fill:none;stroke:#999;stroke-width:3"></path>
<path d="M1000.3,58.61c1.93,0.61,5.47,0.7,7.39,0.61c16.06-0.72,45.22-2.45,56.09-2.7c3.21-0.07,5.14,0.29,6.75,0.6" style="fill:none;stroke:#999;stroke-width:3"></path>
<path d="m 39.7,60.25 c 0.08,1 -0.22,3.05 -0.45,3.59 -2.47,5.66 -11.063542,28.477292 -13.333542,33.067292" style="fill:none;stroke:#999;stroke-width:3"></path>
<path d="m 20.6,97.3 c 1.035944,0.308484 2.43278,0.131632 3.283787,-0.03605 8.153468,-1.606505 30.289311,-5.964859 38.289311,-7.214859" style="fill:none;stroke:#999;stroke-width:3"></path>
<path d="M1022.74,69.54c0.87,0.21,2.28,0.1,3.14,0C1036.5,68.25,1044.0,67,1050.65,66.25c1.34-0.15,2.69,1.58,2.16,3.03C1051.0,74.25,1049.0,78.75,1048.25,84.25c-1.42,10.4,1.75,12.5,12.5,12.5c11.25,0,10.58-2.27,10.75-12" style="fill:none;stroke:#999;stroke-width:3"></path>

<path d="M1112.25,19.54c0.62,0.07,1.83,0.4,2.92,0.33c5.09-0.35,10.83-2.12,15.52-2.25c0.96-0.02,1.83,0.13,2.31,0.26" style="fill:none;stroke:#999;stroke-width:3"></path>
<path d="M1108.5,42.17c0.73,0.58,2.18,0.9,4.36,0.13c6.06-2.14,13.58-5.65,19.64-7.79" style="fill:none;stroke:#999;stroke-width:3"></path>
<path d="M1147.23,10.75c0.04,0.43,0.07,1.11-0.07,1.73c-0.85,3.65-5.76,11.67-12.48,16.58" style="fill:none;stroke:#999;stroke-width:3"></path>
<path d="M1143.31,20.41c0.81,0.23,2.33,0.58,3.55,0.38c1.48-0.24,27.4-2.43,28.81-2.44c4.86-0.04-0.01,6.1-3.01,9.07" style="fill:none;stroke:#999;stroke-width:3"></path>
<path d="M1153.51,23.12c0.06,0.65,0.04,1.66-0.11,2.61c-0.95,5.9-9.87,20-22.14,26.77" style="fill:none;stroke:#999;stroke-width:3"></path>
<path d="M1152.31,30.25C1156.3,33.69,1170.26,44,1177.42,47.67c1.51,0.77,2.65,1.23,4.08,1.48" style="fill:none;stroke:#999;stroke-width:3"></path>
<path d="M1109.3,58.61c1.93,0.61,5.47,0.7,7.39,0.61c16.06-0.72,45.22-2.45,56.09-2.7c3.21-0.07,5.14,0.29,6.75,0.6" style="fill:none;stroke:#999;stroke-width:3"></path>
<path d="m 39.7,60.25 c 0.08,1 -0.22,3.05 -0.45,3.59 -2.47,5.66 -11.063542,28.477292 -13.333542,33.067292" style="fill:none;stroke:#999;stroke-width:3"></path>
<path d="m 20.6,97.3 c 1.035944,0.308484 2.43278,0.131632 3.283787,-0.03605 8.153468,-1.606505 30.289311,-5.964859 38.289311,-7.214859" style="fill:none;stroke:#999;stroke-width:3"></path>
<path d="M1131.74,69.54c0.87,0.21,2.28,0.1,3.14,0C1145.5,68.25,1153.0,67,1159.65,66.25c1.34-0.15,2.69,1.58,2.16,3.03C1160.0,74.25,1158.0,78.75,1157.25,84.25c-1.42,10.4,1.75,12.5,12.5,12.5c11.25,0,10.58-2.27,10.75-12" style="fill:none;stroke:#999;stroke-width:3"></path>
<path d="M1133.1,74.33c3.51,1.7,9.06,6.99,9.94,9.63" style="fill:none;stroke:#999;stroke-width:3"></path>

</svg>