<svg width="1199px" height="109px" viewBox="0 0 1199 109" xmlns="http://www.w3.org/2000/svg" xmlns:xlink="http://www.w3.org/1999/xlink" xml:space="preserve" version="1.1" baseProfile="full">
<line x1="1" y1="1" x2="1198" y2="1" style="stroke:#ddd;stroke-width:2"></line>
<line x1="1" y1="1" x2="1" y2="108" style="stroke:#ddd;stroke-width:2"></line>
<line x1="1" y1="108" x2="1198" y2="108" style="stroke:#ddd;stroke-width:2"></line>
<line x1="1198" y1="1" x2="1198" y2="108" style="stroke:#ddd;stroke-width:2"></line>
<line x1="109" y1="1" x2="109" y2="108" style="stroke:#ddd;stroke-width:2"></line>
<line x1="218" y1="1" x2="218" y2="108" style="stroke:#ddd;stroke-width:2"></line>
<line x1="327" y1="1" x2="327" y2="108" style="stroke:#ddd;stroke-width:2"></line>
<line x1="436" y1="1" x2="436" y2="108" style="stroke:#ddd;stroke-width:2"></line>
<line x1="545" y1="1" x2="545" y2="108" style="stroke:#ddd;stroke-width:2"></line>
<line x1="654" y1="1" x2="654" y2="108" style="stroke:#ddd;stroke-width:2"></line>
<line x1="763" y1="1" x2="763" y2="108" style="stroke:#ddd;stroke-width:2"></line>
<line x1="872" y1="1" x2="872" y2="108" style="stroke:#ddd;stroke-width:2"></line>
<line x1="981" y1="1" x2="981" y2="108" style="stroke:#ddd;stroke-width:2"></line>
<line x1="1090" y1="1" x2="1090" y2="108" style="stroke:#ddd;stroke-width:2"></line>
<line x1="1" y1="54" x2="1198" y2="54" style="stroke:#ddd;stroke-width:2;stroke-dasharray:3 3"></line>
<line x1="55" y1="1" x2="55" y2="108" style="stroke:#ddd;stroke-width:2;stroke-dasharray:3 3"></line>
<line x1="164" y1="1" x2="164" y2="108" style="stroke:#ddd;stroke-width:2;stroke-dasharray:3 3"></line>
<line x1="273" y1="1" x2="273" y2="108" style="stroke:#ddd;stroke-width:2;stroke-dasharray:3 3"></line>
<line x1="382" y1="1" x2="382" y2="108" style="stroke:#ddd;stroke-width:2;stroke-dasharray:3 3"></line>
<line x1="491" y1="1" x2="491" y2="108" style="stroke:#ddd;stroke-width:2;stroke-dasharray:3 3"></line>
<line x1="600" y1="1" x2="600" y2="108" style="stroke:#ddd;stroke-width:2;stroke-dasharray:3 3"></line>
<line x1="709" y1="1" x2="709" y2="108" style="stroke:#ddd;stroke-width:2;stroke-dasharray:3 3"></line>
<line x1="818" y1="1" x2="818" y2="108" style="stroke:#ddd;stroke-width:2;stroke-dasharray:3 3"></line>
<line x1="927" y1="1" x2="927" y2="108" style="stroke:#ddd;stroke-width:2;stroke-dasharray:3 3"></line>
<line x1="1036" y1="1" x2="1036" y2="108" style="stroke:#ddd;stroke-width:2;stroke-dasharray:3 3"></line>
<line x1="1145" y1="1" x2="1145" y2="108" style="stroke:#ddd;stroke-width:2;stroke-dasharray:3 3"></line>
<path d="M53.75,9.25c1,1,1.5,2.25,1.5,4s0,5.38,0,7.75" style="fill:none;stroke:#999;stroke-width:3"></path>

<path d="M162.75,9.25c1,1,1.5,2.25,1.5,4s0,5.38,0,7.75" style="fill:none;stroke:#999;stroke-width:3"></path>
<path d="M138.5,23.7c2.38,0.55,4.54,0.3,6.75,0.11c8.76-0.76,28.51-2.9,39.13-3.61c2.64-0.18,5.25-0.31,7.87,0.13" style="fill:none;stroke:#999;stroke-width:3"></path>

<path d="M271.75,9.25c1,1,1.5,2.25,1.5,4s0,5.38,0,7.75" style="fill:none;stroke:#999;stroke-width:3"></path>
<path d="M247.5,23.7c2.38,0.55,4.54,0.3,6.75,0.11c8.76-0.76,28.51-2.9,39.13-3.61c2.64-0.18,5.25-0.31,7.87,0.13" style="fill:none;stroke:#999;stroke-width:3"></path>
<path d="M257.75,27.75c3.12,4.5,5.88,9.88,7.5,14.75" style="fill:none;stroke:#999;stroke-width:3"></path>

<path d="M380.75,9.25c1,1,1.5,2.25,1.5,4s0,5.38,0,7.75" style="fill:none;stroke:#999;stroke-width:3"></path>
<path d="M356.5,23.7c2.38,0.55,4.54,0.3,6.75,0.11c8.76-0.76,28.51-2.9,39.13-3.61c2.64-0.18,5.25-0.31,7.87,0.13" style="fill:none;stroke:#999;stroke-width:3"></path>
<path d="M366.75,27.75c3.12,4.5,5.88,9.88,7.5,14.75" style="fill:none;stroke:#999;stroke-width:3"></path>
<path d="M397.90999999999997,24.5c0.47,0.75,0.44,1.91,0.37,2.4c-0.49,3.41-4.54,12.24-5.77,14.85" style="fill:none;stroke:#999;stroke-width:3"></path>

<path d="M489.75,9.25c1,1,1.5,2.25,1.5,4s0,5.38,0,7.75" style="fill:none;stroke:#999;stroke-width:3"></path>
<path d="M465.5,23.7c2.38,0.55,4.54,0.3,6.75,0.11c8.76-0.76,28.51-2.9,39.13-3.61c2.64-0.18,5.25-0.31,7.87,0.13" style="fill:none;stroke:#999;stroke-width:3"></path>
<path d="M475.75,27.75c3.12,4.5,5.88,9.88,7.5,14.75" style="fill:none;stroke:#999;stroke-width:3"></path>
<path d="M506.90999999999997,24.5c0.47,0.75,0.44,1.91,0.37,2.4c-0.49,3.41-4.54,12.24-5.77,14.85" style="fill:none;stroke:#999;stroke-width:3"></path>
<path d="M459.75,46.8c3.38,0.45,5.81,0.26,8.74-0.04c14.53-1.5,34.07-3.28,50.26-4.13c3.05-0.16,5.98-0.29,9,0.19" style="fill:none;stroke:#999;stroke-width:3"></path>

<path d="M598.75,9.25c1,1,1.5,2.25,1.5,4s0,5.38,0,7.75" style="fill:none;stroke:#999;stroke-width:3"></path>
<path d="M574.5,23.7c2.38,0.55,4.54,0.3,6.75,0.11c8.76-0.76,28.51-2.9,39.13-3.61c2.64-0.18,5.25-0.31,7.87,0.13" style="fill:none;stroke:#999;stroke-width:3"></path>
<path d="M584.75,27.75c3.12,4.5,5.88,9.88,7.5,14.75" style="fill:none;stroke:#999;stroke-width:3"></path>
<path d="M615.91,24.5c0.47,0.75,0.44,1.91,0.37,2.4c-0.49,3.41-4.54,12.24-5.77,14.85" style="fill:none;stroke:#999;stroke-width:3"></path>
<path d="M568.75,46.8c3.38,0.45,5.81,0.26,8.74-0.04c14.53-1.5,34.07-3.28,50.26-4.13c3.05-0.16,5.98-0.29,9,0.19" style="fill:none;stroke:#999;stroke-width:3"></path>
<path d="M573.25,48.25c0.94,0.94,1.32,2.35,1.18,4.06c-1.8,21.19-8.18,36.44-17.93,46.44" style="fill:none;stroke:#999;stroke-width:3"></path>

<path d="M707.75,9.25c1,1,1.5,2.25,1.5,4s0,5.38,0,7.75" style="fill:none;stroke:#999;stroke-width:3"></path>
<path d="M683.5,23.7c2.38,0.55,4.54,0.3,6.75,0.11c8.76-0.76,28.51-2.9,39.13-3.61c2.64-0.18,5.25-0.31,7.87,0.13" style="fill:none;stroke:#999;stroke-width:3"></path>
<path d="M693.75,27.75c3.12,4.5,5.88,9.88,7.5,14.75" style="fill:none;stroke:#999;stroke-width:3"></path>
<path d="M724.91,24.5c0.47,0.75,0.44,1.91,0.37,2.4c-0.49,3.41-4.54,12.24-5.77,14.85" style="fill:none;stroke:#999;stroke-width:3"></path>
<path d="M677.75,46.8c3.38,0.45,5.81,0.26,8.74-0.04c14.53-1.5,34.07-3.28,50.26-4.13c3.05-0.16,5.98-0.29,9,0.19" style="fill:none;stroke:#999;stroke-width:3"></path>
<path d="M682.25,48.25c0.94,0.94,1.32,2.35,1.18,4.06c-1.8,21.19-8.18,36.44-17.93,46.44" style="fill:none;stroke:#999;stroke-width:3"></path>
<path d="M699.01,54.12c0.36,0.93,0.36,1.77,0.18,2.77c-0.77,4.26-5.21,13.11-11.29,18.84" style="fill:none;stroke:#999;stroke-width:3"></path>

<path d="M816.75,9.25c1,1,1.5,2.25,1.5,4s0,5.38,0,7.75" style="fill:none;stroke:#999;stroke-width:3"></path>
<path d="M792.5,23.7c2.38,0.55,4.54,0.3,6.75,0.11c8.76-0.76,28.51-2.9,39.13-3.61c2.64-0.18,5.25-0.31,7.87,0.13" style="fill:none;stroke:#999;stroke-width:3"></path>
<path d="M802.75,27.75c3.12,4.5,5.88,9.88,7.5,14.75" style="fill:none;stroke:#999;stroke-width:3"></path>
<path d="M833.91,24.5c0.47,0.75,0.44,1.91,0.37,2.4c-0.49,3.41-4.54,12.24-5.77,14.85" style="fill:none;stroke:#999;stroke-width:3"></path>
<path d="M786.75,46.8c3.38,0.45,5.81,0.26,8.74-0.04c14.53-1.5,34.07-3.28,50.26-4.13c3.05-0.16,5.98-0.29,9,0.19" style="fill:none;stroke:#999;stroke-width:3"></path>
<path d="M791.25,48.25c0.94,0.94,1.32,2.35,1.18,4.06c-1.8,21.19-8.18,36.44-17.93,46.44" style="fill:none;stroke:#999;stroke-width:3"></path>
<path d="M808.01,54.12c0.36,0.93,0.36,1.77,0.18,2.77c-0.77,4.26-5.21,13.11-11.29,18.84" style="fill:none;stroke:#999;stroke-width:3"></path>
<path d="M808.16,64.9c2.09,0.35,4,0.23,5.6,0.07c6.67-0.64,21.17-2.28,28.24-3.04c1.84-0.2,3.95,0,5.8,0.14" style="fill:none;stroke:#999;stroke-width:3"></path>

<path d="M925.75,9.25c1,1,1.5,2.25,1.5,4s0,5.38,0,7.75" style="fill:none;stroke:#999;stroke-width:3"></path>
<path d="M901.5,23.7c2.38,0.55,4.54,0.3,6.75,0.11c8.76-0.76,28.51-2.9,39.13-3.61c2.64-0.18,5.25-0.31,7.87,0.13" style="fill:none;stroke:#999;stroke-width:3"></path>
<path d="M911.75,27.75c3.12,4.5,5.88,9.88,7.5,14.75" style="fill:none;stroke:#999;stroke-width:3"></path>
<path d="M942.91,24.5c0.47,0.75,0.44,1.91,0.37,2.4c-0.49,3.41-4.54,12.24-5.77,14.85" style="fill:none;stroke:#999;stroke-width:3"></path>
<path d="M895.75,46.8c3.38,0.45,5.81,0.26,8.74-0.04c14.53-1.5,34.07-3.28,50.26-4.13c3.05-0.16,5.98-0.29,9,0.19" style="fill:none;stroke:#999;stroke-width:3"></path>
<path d="M900.25,48.25c0.94,0.94,1.32,2.35,1.18,4.06c-1.8,21.19-8.18,36.44-17.93,46.44" style="fill:none;stroke:#999;stroke-width:3"></path>
<path d="M917.01,54.12c0.36,0.93,0.36,1.77,0.18,2.77c-0.77,4.26-5.21,13.11-11.29,18.84" style="fill:none;stroke:#999;stroke-width:3"></path>
<path d="M917.16,64.9c2.09,0.35,4,0.23,5.6,0.07c6.67-0.64,21.17-2.28,28.24-3.04c1.84-0.2,3.95,0,5.8,0.14" style="fill:none;stroke:#999;stroke-width:3"></path>
<path d="M933.29,50.88c0.98,0.98,1.41,2.49,1.41,3.78c0,0.8-0.19,34.84-0.19,39.86" style="fill:none;stroke:#999;stroke-width:3"></path>

<path d="M1034.75,9.25c1,1,1.5,2.25,1.5,4s0,5.38,0,7.75" style="fill:none;stroke:#999;stroke-width:3"></path>
<path d="M1010.5,23.7c2.38,0.55,4.54,0.3,6.75,0.11c8.76-0.76,28.51-2.9,39.13-3.61c2.64-0.18,5.25-0.31,7.87,0.13" style="fill:none;stroke:#999;stroke-width:3"></path>
<path d="M1020.75,27.75c3.12,4.5,5.88,9.88,7.5,14.75" style="fill:none;stroke:#999;stroke-width:3"></path>
<path d="M1051.9099999999999,24.5c0.47,0.75,0.44,1.91,0.37,2.4c-0.49,3.41-4.54,12.24-5.77,14.85" style="fill:none;stroke:#999;stroke-width:3"></path>
<path d="M1004.75,46.8c3.38,0.45,5.81,0.26,8.74-0.04c14.53-1.5,34.07-3.28,50.26-4.13c3.05-0.16,5.98-0.29,9,0.19" style="fill:none;stroke:#999;stroke-width:3"></path>
<path d="M1009.25,48.25c0.94,0.94,1.32,2.35,1.18,4.06c-1.8,21.19-8.18,36.44-17.93,46.44" style="fill:none;stroke:#999;stroke-width:3"></path>
<path d="M1026.01,54.12c0.36,0.93,0.36,1.77,0.18,2.77c-0.77,4.26-5.21,13.11-11.29,18.84" style="fill:none;stroke:#999;stroke-width:3"></path>
<path d="M1026.1599999999999,64.9c2.09,0.35,4,0.23,5.6,0.07c6.67-0.64,21.17-2.28,28.24-3.04c1.84-0.2,3.95,0,5.8,0.14" style="fill:none;stroke:#999;stroke-width:3"></path>
<path d="M1042.29,50.88c0.98,0.98,1.41,2.49,1.41,3.78c0,0.8-0.19,34.84-0.19,39.86" style="fill:none;stroke:#999;stroke-width:3"></path>
<path d="M1022.91,80.06c1.86,0.51,4.05,0.15,5.93,0c7.18-0.56,20.17-1.96,27.64-2.6c2.05-0.18,4.27-0.21,6.46,0.19" style="fill:none;stroke:#999;stroke-width:3"></path>

<path d="M1143.75,9.25c1,1,1.5,2.25,1.5,4s0,5.38,0,7.75" style="fill:none;stroke:#999;stroke-width:3"></path>
<path d="M1119.5,23.7c2.38,0.55,4.54,0.3,6.75,0.11c8.76-0.76,28.51-2.9,39.13-3.61c2.64-0.18,5.25-0.31,7.87,0.13" style="fill:none;stroke:#999;stroke-width:3"></path>
<path d="M1129.75,27.75c3.12,4.5,5.88,9.88,7.5,14.75" style="fill:none;stroke:#999;stroke-width:3"></path>
<path d="M1160.9099999999999,24.5c0.47,0.75,0.44,1.91,0.37,2.4c-0.49,3.41-4.54,12.24-5.77,14.85" style="fill:none;stroke:#999;stroke-width:3"></path>
<path d="M1113.75,46.8c3.38,0.45,5.81,0.26,8.74-0.04c14.53-1.5,34.07-3.28,50.26-4.13c3.05-0.16,5.98-0.29,9,0.19" style="fill:none;stroke:#999;stroke-width:3"></path>
<path d="M1118.25,48.25c0.94,0.94,1.32,2.35,1.18,4.06c-1.8,21.19-8.18,36.44-17.93,46.44" style="fill:none;stroke:#999;stroke-width:3"></path>
<path d="M1135.01,54.12c0.36,0.93,0.36,1.77,0.18,2.77c-0.77,4.26-5.21,13.11-11.29,18.84" style="fill:none;stroke:#999;stroke-width:3"></path>
<path d="M1135.1599999999999,64.9c2.09,0.35,4,0.23,5.6,0.07c6.67-0.64,21.17-2.28,28.24-3.04c1.84-0.2,3.95,0,5.8,0.14" style="fill:none;stroke:#999;stroke-width:3"></path>
<path d="M1151.29,50.88c0.98,0.98,1.41,2.49,1.41,3.78c0,0.8-0.19,34.84-0.19,39.86" style="fill:none;stroke:#999;stroke-width:3"></path>
<path d="M1131.9099999999999,80.06c1.86,0.51,4.05,0.15,5.93,0c7.18-0.56,20.17-1.96,27.64-2.6c2.05-0.18,4.27-0.21,6.46,0.19" style="fill:none;stroke:#999;stroke-width:3"></path>
<path d="M1121.3,96.83c3.43,0.7,5.68,0.81,9.08,0.47c12-1.18,33.82-2.49,44.13-3.14c3.16-0.2,6.7,0.06,9.82,0.75" style="fill:none;stroke:#999;stroke-width:3"></path>

</svg>