<svg width="545px" height="109px" viewBox="0 0 545 109" xmlns="http://www.w3.org/2000/svg" xmlns:xlink="http://www.w3.org/1999/xlink" xml:space="preserve" version="1.1" baseProfile="full">
<line x1="1" y1="1" x2="544" y2="1" style="stroke:#ddd;stroke-width:2"></line>
<line x1="1" y1="1" x2="1" y2="108" style="stroke:#ddd;stroke-width:2"></line>
<line x1="1" y1="108" x2="544" y2="108" style="stroke:#ddd;stroke-width:2"></line>
<line x1="544" y1="1" x2="544" y2="108" style="stroke:#ddd;stroke-width:2"></line>
<line x1="109" y1="1" x2="109" y2="108" style="stroke:#ddd;stroke-width:2"></line>
<line x1="218" y1="1" x2="218" y2="108" style="stroke:#ddd;stroke-width:2"></line>
<line x1="327" y1="1" x2="327" y2="108" style="stroke:#ddd;stroke-width:2"></line>
<line x1="436" y1="1" x2="436" y2="108" style="stroke:#ddd;stroke-width:2"></line>
<line x1="1" y1="54" x2="544" y2="54" style="stroke:#ddd;stroke-width:2;stroke-dasharray:3 3"></line>
<line x1="55" y1="1" x2="55" y2="108" style="stroke:#ddd;stroke-width:2;stroke-dasharray:3 3"></line>
<line x1="164" y1="1" x2="164" y2="108" style="stroke:#ddd;stroke-width:2;stroke-dasharray:3 3"></line>
<line x1="273" y1="1" x2="273" y2="108" style="stroke:#ddd;stroke-width:2;stroke-dasharray:3 3"></line>
<line x1="382" y1="1" x2="382" y2="108" style="stroke:#ddd;stroke-width:2;stroke-dasharray:3 3"></line>
<line x1="491" y1="1" x2="491" y2="108" style="stroke:#ddd;stroke-width:2;stroke-dasharray:3 3"></line>
<path d="M25.44,16.14c0.83,1.04,1.1,2.36,1.15,3.86C28.12,65.5,24.5,82,13.75,95" style="fill:none;stroke:#999;stroke-width:3"></path>

<path d="M134.44,16.14c0.83,1.04,1.1,2.36,1.15,3.86C137.12,65.5,133.5,82,122.75,95" style="fill:none;stroke:#999;stroke-width:3"></path>
<path d="M136.8,18.84C152.75,17,180.5,14,190.92000000000002,13.47c4.07-0.21,5.75,2.03,5.75,5.18c0,6.1-0.32,50.35-0.32,71.37c0,14.98-8.09,2.23-9.84,1.34" style="fill:none;stroke:#999;stroke-width:3"></path>

<path d="M243.44,16.14c0.83,1.04,1.1,2.36,1.15,3.86C246.12,65.5,242.5,82,231.75,95" style="fill:none;stroke:#999;stroke-width:3"></path>
<path d="M245.8,18.84C261.75,17,289.5,14,299.92,13.47c4.07-0.21,5.75,2.03,5.75,5.18c0,6.1-0.32,50.35-0.32,71.37c0,14.98-8.09,2.23-9.84,1.34" style="fill:none;stroke:#999;stroke-width:3"></path>
<path d="M245.99,40.91c16.26-1.66,41.51-3.66,58.25-4.7" style="fill:none;stroke:#999;stroke-width:3"></path>

<path d="M352.44,16.14c0.83,1.04,1.1,2.36,1.15,3.86C355.12,65.5,351.5,82,340.75,95" style="fill:none;stroke:#999;stroke-width:3"></path>
<path d="M354.8,18.84C370.75,17,398.5,14,408.92,13.47c4.07-0.21,5.75,2.03,5.75,5.18c0,6.1-0.32,50.35-0.32,71.37c0,14.98-8.09,2.23-9.84,1.34" style="fill:none;stroke:#999;stroke-width:3"></path>
<path d="M354.99,40.91c16.26-1.66,41.51-3.66,58.25-4.7" style="fill:none;stroke:#999;stroke-width:3"></path>
<path d="M354.25,62c14.88-1.38,43-3.25,59-4.25" style="fill:none;stroke:#999;stroke-width:3"></path>

<path d="M461.44,16.14c0.83,1.04,1.1,2.36,1.15,3.86C464.12,65.5,460.5,82,449.75,95" style="fill:none;stroke:#999;stroke-width:3"></path>
<path d="M463.8,18.84C479.75,17,507.5,14,517.9200000000001,13.47c4.07-0.21,5.75,2.03,5.75,5.18c0,6.1-0.32,50.35-0.32,71.37c0,14.98-8.09,2.23-9.84,1.34" style="fill:none;stroke:#999;stroke-width:3"></path>
<path d="M463.99,40.91c16.26-1.66,41.51-3.66,58.25-4.7" style="fill:none;stroke:#999;stroke-width:3"></path>
<path d="M463.25,62c14.88-1.38,43-3.25,59-4.25" style="fill:none;stroke:#999;stroke-width:3"></path>
<path d="M489.62,19.5c1.13,1,1.96,2.5,1.96,4.25c0,3.66,0,42.87-0.12,60.75c-0.03,4.11-0.06,7.09-0.1,8.25" style="fill:none;stroke:#999;stroke-width:3"></path>

</svg>