<svg width="763px" height="109px" viewBox="0 0 763 109" xmlns="http://www.w3.org/2000/svg" xmlns:xlink="http://www.w3.org/1999/xlink" xml:space="preserve" version="1.1" baseProfile="full">
<line x1="1" y1="1" x2="762" y2="1" style="stroke:#ddd;stroke-width:2"></line>
<line x1="1" y1="1" x2="1" y2="108" style="stroke:#ddd;stroke-width:2"></line>
<line x1="1" y1="108" x2="762" y2="108" style="stroke:#ddd;stroke-width:2"></line>
<line x1="762" y1="1" x2="762" y2="108" style="stroke:#ddd;stroke-width:2"></line>
<line x1="109" y1="1" x2="109" y2="108" style="stroke:#ddd;stroke-width:2"></line>
<line x1="218" y1="1" x2="218" y2="108" style="stroke:#ddd;stroke-width:2"></line>
<line x1="327" y1="1" x2="327" y2="108" style="stroke:#ddd;stroke-width:2"></line>
<line x1="436" y1="1" x2="436" y2="108" style="stroke:#ddd;stroke-width:2"></line>
<line x1="545" y1="1" x2="545" y2="108" style="stroke:#ddd;stroke-width:2"></line>
<line x1="654" y1="1" x2="654" y2="108" style="stroke:#ddd;stroke-width:2"></line>
<line x1="1" y1="54" x2="762" y2="54" style="stroke:#ddd;stroke-width:2;stroke-dasharray:3 3"></line>
<line x1="55" y1="1" x2="55" y2="108" style="stroke:#ddd;stroke-width:2;stroke-dasharray:3 3"></line>
<line x1="164" y1="1" x2="164" y2="108" style="stroke:#ddd;stroke-width:2;stroke-dasharray:3 3"></line>
<line x1="273" y1="1" x2="273" y2="108" style="stroke:#ddd;stroke-width:2;stroke-dasharray:3 3"></line>
<line x1="382" y1="1" x2="382" y2="108" style="stroke:#ddd;stroke-width:2;stroke-dasharray:3 3"></line>
<line x1="491" y1="1" x2="491" y2="108" style="stroke:#ddd;stroke-width:2;stroke-dasharray:3 3"></line>
<line x1="600" y1="1" x2="600" y2="108" style="stroke:#ddd;stroke-width:2;stroke-dasharray:3 3"></line>
<line x1="709" y1="1" x2="709" y2="108" style="stroke:#ddd;stroke-width:2;stroke-dasharray:3 3"></line>
<path d="M11.25,30.5c1.12,1.12,1.5,2.12,1.65,3.26C13.69,39.98,13.97,58,14.54,71c0.08,1.89,0.16,2.49,0.23,4.25" style="fill:none;stroke:#999;stroke-width:3"></path>

<path d="M120.25,30.5c1.12,1.12,1.5,2.12,1.65,3.26C122.69,39.98,122.97,58,123.53999999999999,71c0.08,1.89,0.16,2.49,0.23,4.25" style="fill:none;stroke:#999;stroke-width:3"></path>
<path d="M122.75,32.29c7.37-0.79,21.04-2.87,25.07-3.05c2-0.09,3.01,1.91,2.9,3.93c-0.35,6.55-1.51,24.68-2.05,36.33c-0.07,1.5-0.18,2.62-0.43,3.75" style="fill:none;stroke:#999;stroke-width:3"></path>

<path d="M229.25,30.5c1.12,1.12,1.5,2.12,1.65,3.26C231.69,39.98,231.97,58,232.54,71c0.08,1.89,0.16,2.49,0.23,4.25" style="fill:none;stroke:#999;stroke-width:3"></path>
<path d="M231.75,32.29c7.37-0.79,21.04-2.87,25.07-3.05c2-0.09,3.01,1.91,2.9,3.93c-0.35,6.55-1.51,24.68-2.05,36.33c-0.07,1.5-0.18,2.62-0.43,3.75" style="fill:none;stroke:#999;stroke-width:3"></path>
<path d="M243.31,31.8c0.94,0.95,1.48,2.28,1.47,3.7c-0.02,6.52,0.13,33.79,0.13,34.55" style="fill:none;stroke:#999;stroke-width:3"></path>

<path d="M338.25,30.5c1.12,1.12,1.5,2.12,1.65,3.26C340.69,39.98,340.97,58,341.53999999999996,71c0.08,1.89,0.16,2.49,0.23,4.25" style="fill:none;stroke:#999;stroke-width:3"></path>
<path d="M340.75,32.29c7.37-0.79,21.04-2.87,25.07-3.05c2-0.09,3.01,1.91,2.9,3.93c-0.35,6.55-1.51,24.68-2.05,36.33c-0.07,1.5-0.18,2.62-0.43,3.75" style="fill:none;stroke:#999;stroke-width:3"></path>
<path d="M352.31,31.8c0.94,0.95,1.48,2.28,1.47,3.7c-0.02,6.52,0.13,33.79,0.13,34.55" style="fill:none;stroke:#999;stroke-width:3"></path>
<path d="M341.43,51.84c2.37-0.37,23.45-2.56,25.41-2.56" style="fill:none;stroke:#999;stroke-width:3"></path>

<path d="M447.25,30.5c1.12,1.12,1.5,2.12,1.65,3.26C449.69,39.98,449.97,58,450.53999999999996,71c0.08,1.89,0.16,2.49,0.23,4.25" style="fill:none;stroke:#999;stroke-width:3"></path>
<path d="M449.75,32.29c7.37-0.79,21.04-2.87,25.07-3.05c2-0.09,3.01,1.91,2.9,3.93c-0.35,6.55-1.51,24.68-2.05,36.33c-0.07,1.5-0.18,2.62-0.43,3.75" style="fill:none;stroke:#999;stroke-width:3"></path>
<path d="M461.31,31.8c0.94,0.95,1.48,2.28,1.47,3.7c-0.02,6.52,0.13,33.79,0.13,34.55" style="fill:none;stroke:#999;stroke-width:3"></path>
<path d="M450.43,51.84c2.37-0.37,23.45-2.56,25.41-2.56" style="fill:none;stroke:#999;stroke-width:3"></path>
<path d="M451.15,71.79c6.98-0.42,15.85-1.42,24.06-1.88" style="fill:none;stroke:#999;stroke-width:3"></path>

<path d="M556.25,30.5c1.12,1.12,1.5,2.12,1.65,3.26C558.69,39.98,558.97,58,559.54,71c0.08,1.89,0.16,2.49,0.23,4.25" style="fill:none;stroke:#999;stroke-width:3"></path>
<path d="M558.75,32.29c7.37-0.79,21.04-2.87,25.07-3.05c2-0.09,3.01,1.91,2.9,3.93c-0.35,6.55-1.51,24.68-2.05,36.33c-0.07,1.5-0.18,2.62-0.43,3.75" style="fill:none;stroke:#999;stroke-width:3"></path>
<path d="M570.31,31.8c0.94,0.95,1.48,2.28,1.47,3.7c-0.02,6.52,0.13,33.79,0.13,34.55" style="fill:none;stroke:#999;stroke-width:3"></path>
<path d="M559.4300000000001,51.84c2.37-0.37,23.45-2.56,25.41-2.56" style="fill:none;stroke:#999;stroke-width:3"></path>
<path d="M560.15,71.79c6.98-0.42,15.85-1.42,24.06-1.88" style="fill:none;stroke:#999;stroke-width:3"></path>
<path d="M594.0,27.6c1.48,0.42,4.18,0.56,5.66,0.42c10.97-1.02,25.72-2.9,37.18-3.63c2.45-0.16,3.91-0.01,5.16,0.41" style="fill:none;stroke:#999;stroke-width:3"></path>

<path d="M665.25,30.5c1.12,1.12,1.5,2.12,1.65,3.26C667.69,39.98,667.97,58,668.54,71c0.08,1.89,0.16,2.49,0.23,4.25" style="fill:none;stroke:#999;stroke-width:3"></path>
<path d="M667.75,32.29c7.37-0.79,21.04-2.87,25.07-3.05c2-0.09,3.01,1.91,2.9,3.93c-0.35,6.55-1.51,24.68-2.05,36.33c-0.07,1.5-0.18,2.62-0.43,3.75" style="fill:none;stroke:#999;stroke-width:3"></path>
<path d="M679.31,31.8c0.94,0.95,1.48,2.28,1.47,3.7c-0.02,6.52,0.13,33.79,0.13,34.55" style="fill:none;stroke:#999;stroke-width:3"></path>
<path d="M668.4300000000001,51.84c2.37-0.37,23.45-2.56,25.41-2.56" style="fill:none;stroke:#999;stroke-width:3"></path>
<path d="M669.15,71.79c6.98-0.42,15.85-1.42,24.06-1.88" style="fill:none;stroke:#999;stroke-width:3"></path>
<path d="M703.0,27.6c1.48,0.42,4.18,0.56,5.66,0.42c10.97-1.02,25.72-2.9,37.18-3.63c2.45-0.16,3.91-0.01,5.16,0.41" style="fill:none;stroke:#999;stroke-width:3"></path>
<path d="M725.77,29.08c1.2,1.2,2,2.75,2,5.81c0,17.98,0,51.3,0,56.3c0,11.06-6.02,2.81-9.21-0.25" style="fill:none;stroke:#999;stroke-width:3"></path>

</svg>