<svg width="981px" height="109px" viewBox="0 0 981 109" xmlns="http://www.w3.org/2000/svg" xmlns:xlink="http://www.w3.org/1999/xlink" xml:space="preserve" version="1.1" baseProfile="full">
<line x1="1" y1="1" x2="980" y2="1" style="stroke:#ddd;stroke-width:2"></line>
<line x1="1" y1="1" x2="1" y2="108" style="stroke:#ddd;stroke-width:2"></line>
<line x1="1" y1="108" x2="980" y2="108" style="stroke:#ddd;stroke-width:2"></line>
<line x1="980" y1="1" x2="980" y2="108" style="stroke:#ddd;stroke-width:2"></line>
<line x1="109" y1="1" x2="109" y2="108" style="stroke:#ddd;stroke-width:2"></line>
<line x1="218" y1="1" x2="218" y2="108" style="stroke:#ddd;stroke-width:2"></line>
<line x1="327" y1="1" x2="327" y2="108" style="stroke:#ddd;stroke-width:2"></line>
<line x1="436" y1="1" x2="436" y2="108" style="stroke:#ddd;stroke-width:2"></line>
<line x1="545" y1="1" x2="545" y2="108" style="stroke:#ddd;stroke-width:2"></line>
<line x1="654" y1="1" x2="654" y2="108" style="stroke:#ddd;stroke-width:2"></line>
<line x1="763" y1="1" x2="763" y2="108" style="stroke:#ddd;stroke-width:2"></line>
<line x1="872" y1="1" x2="872" y2="108" style="stroke:#ddd;stroke-width:2"></line>
<line x1="1" y1="54" x2="980" y2="54" style="stroke:#ddd;stroke-width:2;stroke-dasharray:3 3"></line>
<line x1="55" y1="1" x2="55" y2="108" style="stroke:#ddd;stroke-width:2;stroke-dasharray:3 3"></line>
<line x1="164" y1="1" x2="164" y2="108" style="stroke:#ddd;stroke-width:2;stroke-dasharray:3 3"></line>
<line x1="273" y1="1" x2="273" y2="108" style="stroke:#ddd;stroke-width:2;stroke-dasharray:3 3"></line>
<line x1="382" y1="1" x2="382" y2="108" style="stroke:#ddd;stroke-width:2;stroke-dasharray:3 3"></line>
<line x1="491" y1="1" x2="491" y2="108" style="stroke:#ddd;stroke-width:2;stroke-dasharray:3 3"></line>
<line x1="600" y1="1" x2="600" y2="108" style="stroke:#ddd;stroke-width:2;stroke-dasharray:3 3"></line>
<line x1="709" y1="1" x2="709" y2="108" style="stroke:#ddd;stroke-width:2;stroke-dasharray:3 3"></line>
<line x1="818" y1="1" x2="818" y2="108" style="stroke:#ddd;stroke-width:2;stroke-dasharray:3 3"></line>
<line x1="927" y1="1" x2="927" y2="108" style="stroke:#ddd;stroke-width:2;stroke-dasharray:3 3"></line>
<path d="M12.24,25.38c0.21,0.82,1.21,1.91,1.33,2.92c0.94,8.31,1.32,30.64,1.9,45.91" style="fill:none;stroke:#999;stroke-width:3"></path>

<path d="M121.24,25.38c0.21,0.82,1.21,1.91,1.33,2.92c0.94,8.31,1.32,30.64,1.9,45.91" style="fill:none;stroke:#999;stroke-width:3"></path>
<path d="M122.72,27.2c7.26-0.65,20.21-2.27,25.63-2.94c1.99-0.25,3.01,2.18,2.91,4.4c-0.37,8.12-1.3,30.26-2.21,43.78" style="fill:none;stroke:#999;stroke-width:3"></path>

<path d="M230.24,25.38c0.21,0.82,1.21,1.91,1.33,2.92c0.94,8.31,1.32,30.64,1.9,45.91" style="fill:none;stroke:#999;stroke-width:3"></path>
<path d="M231.72,27.2c7.26-0.65,20.21-2.27,25.63-2.94c1.99-0.25,3.01,2.18,2.91,4.4c-0.37,8.12-1.3,30.26-2.21,43.78" style="fill:none;stroke:#999;stroke-width:3"></path>
<path d="M244.3,27.5c0.45,0.56,1.03,2.32,1.04,2.99c0.21,11.25,0.09,31.08,0.09,37.72" style="fill:none;stroke:#999;stroke-width:3"></path>

<path d="M339.24,25.38c0.21,0.82,1.21,1.91,1.33,2.92c0.94,8.31,1.32,30.64,1.9,45.91" style="fill:none;stroke:#999;stroke-width:3"></path>
<path d="M340.72,27.2c7.26-0.65,20.21-2.27,25.63-2.94c1.99-0.25,3.01,2.18,2.91,4.4c-0.37,8.12-1.3,30.26-2.21,43.78" style="fill:none;stroke:#999;stroke-width:3"></path>
<path d="M353.3,27.5c0.45,0.56,1.03,2.32,1.04,2.99c0.21,11.25,0.09,31.08,0.09,37.72" style="fill:none;stroke:#999;stroke-width:3"></path>
<path d="M342.07,48.49c2.37-0.34,23.15-2.21,25.1-2.15" style="fill:none;stroke:#999;stroke-width:3"></path>

<path d="M448.24,25.38c0.21,0.82,1.21,1.91,1.33,2.92c0.94,8.31,1.32,30.64,1.9,45.91" style="fill:none;stroke:#999;stroke-width:3"></path>
<path d="M449.72,27.2c7.26-0.65,20.21-2.27,25.63-2.94c1.99-0.25,3.01,2.18,2.91,4.4c-0.37,8.12-1.3,30.26-2.21,43.78" style="fill:none;stroke:#999;stroke-width:3"></path>
<path d="M462.3,27.5c0.45,0.56,1.03,2.32,1.04,2.99c0.21,11.25,0.09,31.08,0.09,37.72" style="fill:none;stroke:#999;stroke-width:3"></path>
<path d="M451.07,48.49c2.37-0.34,23.15-2.21,25.1-2.15" style="fill:none;stroke:#999;stroke-width:3"></path>
<path d="M451.84,70.45c5.23,0.14,16.98-1.34,24.2-1.37" style="fill:none;stroke:#999;stroke-width:3"></path>

<path d="M557.24,25.38c0.21,0.82,1.21,1.91,1.33,2.92c0.94,8.31,1.32,30.64,1.9,45.91" style="fill:none;stroke:#999;stroke-width:3"></path>
<path d="M558.72,27.2c7.26-0.65,20.21-2.27,25.63-2.94c1.99-0.25,3.01,2.18,2.91,4.4c-0.37,8.12-1.3,30.26-2.21,43.78" style="fill:none;stroke:#999;stroke-width:3"></path>
<path d="M571.3,27.5c0.45,0.56,1.03,2.32,1.04,2.99c0.21,11.25,0.09,31.08,0.09,37.72" style="fill:none;stroke:#999;stroke-width:3"></path>
<path d="M560.0699999999999,48.49c2.37-0.34,23.15-2.21,25.1-2.15" style="fill:none;stroke:#999;stroke-width:3"></path>
<path d="M560.8399999999999,70.45c5.23,0.14,16.98-1.34,24.2-1.37" style="fill:none;stroke:#999;stroke-width:3"></path>
<path d="M613.81,9.25c0.06,0.96,0.22,2.53-0.13,3.88C611.5,21.47,602.52,39.9,590.5,50.25" style="fill:none;stroke:#999;stroke-width:3"></path>

<path d="M666.24,25.38c0.21,0.82,1.21,1.91,1.33,2.92c0.94,8.31,1.32,30.64,1.9,45.91" style="fill:none;stroke:#999;stroke-width:3"></path>
<path d="M667.72,27.2c7.26-0.65,20.21-2.27,25.63-2.94c1.99-0.25,3.01,2.18,2.91,4.4c-0.37,8.12-1.3,30.26-2.21,43.78" style="fill:none;stroke:#999;stroke-width:3"></path>
<path d="M680.3,27.5c0.45,0.56,1.03,2.32,1.04,2.99c0.21,11.25,0.09,31.08,0.09,37.72" style="fill:none;stroke:#999;stroke-width:3"></path>
<path d="M669.0699999999999,48.49c2.37-0.34,23.15-2.21,25.1-2.15" style="fill:none;stroke:#999;stroke-width:3"></path>
<path d="M669.8399999999999,70.45c5.23,0.14,16.98-1.34,24.2-1.37" style="fill:none;stroke:#999;stroke-width:3"></path>
<path d="M722.81,9.25c0.06,0.96,0.22,2.53-0.13,3.88C720.5,21.47,711.52,39.9,699.5,50.25" style="fill:none;stroke:#999;stroke-width:3"></path>
<path d="M722.5,15.5c5.22,7.79,18.13,22.98,24.85,29.2c1.49,1.37,3.23,2.13,4.65,2.55" style="fill:none;stroke:#999;stroke-width:3"></path>

<path d="M775.24,25.38c0.21,0.82,1.21,1.91,1.33,2.92c0.94,8.31,1.32,30.64,1.9,45.91" style="fill:none;stroke:#999;stroke-width:3"></path>
<path d="M776.72,27.2c7.26-0.65,20.21-2.27,25.63-2.94c1.99-0.25,3.01,2.18,2.91,4.4c-0.37,8.12-1.3,30.26-2.21,43.78" style="fill:none;stroke:#999;stroke-width:3"></path>
<path d="M789.3,27.5c0.45,0.56,1.03,2.32,1.04,2.99c0.21,11.25,0.09,31.08,0.09,37.72" style="fill:none;stroke:#999;stroke-width:3"></path>
<path d="M778.0699999999999,48.49c2.37-0.34,23.15-2.21,25.1-2.15" style="fill:none;stroke:#999;stroke-width:3"></path>
<path d="M778.8399999999999,70.45c5.23,0.14,16.98-1.34,24.2-1.37" style="fill:none;stroke:#999;stroke-width:3"></path>
<path d="M831.81,9.25c0.06,0.96,0.22,2.53-0.13,3.88C829.5,21.47,820.52,39.9,808.5,50.25" style="fill:none;stroke:#999;stroke-width:3"></path>
<path d="M831.5,15.5c5.22,7.79,18.13,22.98,24.85,29.2c1.49,1.37,3.23,2.13,4.65,2.55" style="fill:none;stroke:#999;stroke-width:3"></path>
<path d="M821.68,48.75c0.59,1.33,1.42,2.38,1.42,4.04c0,15.2,0.53,34.94-17.54,45.43" style="fill:none;stroke:#999;stroke-width:3"></path>

<path d="M884.24,25.38c0.21,0.82,1.21,1.91,1.33,2.92c0.94,8.31,1.32,30.64,1.9,45.91" style="fill:none;stroke:#999;stroke-width:3"></path>
<path d="M885.72,27.2c7.26-0.65,20.21-2.27,25.63-2.94c1.99-0.25,3.01,2.18,2.91,4.4c-0.37,8.12-1.3,30.26-2.21,43.78" style="fill:none;stroke:#999;stroke-width:3"></path>
<path d="M898.3,27.5c0.45,0.56,1.03,2.32,1.04,2.99c0.21,11.25,0.09,31.08,0.09,37.72" style="fill:none;stroke:#999;stroke-width:3"></path>
<path d="M887.0699999999999,48.49c2.37-0.34,23.15-2.21,25.1-2.15" style="fill:none;stroke:#999;stroke-width:3"></path>
<path d="M887.8399999999999,70.45c5.23,0.14,16.98-1.34,24.2-1.37" style="fill:none;stroke:#999;stroke-width:3"></path>
<path d="M940.81,9.25c0.06,0.96,0.22,2.53-0.13,3.88C938.5,21.47,929.52,39.9,917.5,50.25" style="fill:none;stroke:#999;stroke-width:3"></path>
<path d="M940.5,15.5c5.22,7.79,18.13,22.98,24.85,29.2c1.49,1.37,3.23,2.13,4.65,2.55" style="fill:none;stroke:#999;stroke-width:3"></path>
<path d="M930.68,48.75c0.59,1.33,1.42,2.38,1.42,4.04c0,15.2,0.53,34.94-17.54,45.43" style="fill:none;stroke:#999;stroke-width:3"></path>
<path d="M951.62,48.25c1.09,0.5,1.74,2.25,1.96,3.25c0.22,1,0,41.25-0.22,47.5" style="fill:none;stroke:#999;stroke-width:3"></path>

</svg>