<svg width="1090px" height="109px" viewBox="0 0 1090 109" xmlns="http://www.w3.org/2000/svg" xmlns:xlink="http://www.w3.org/1999/xlink" xml:space="preserve" version="1.1" baseProfile="full">
<line x1="1" y1="1" x2="1089" y2="1" style="stroke:#ddd;stroke-width:2"></line>
<line x1="1" y1="1" x2="1" y2="108" style="stroke:#ddd;stroke-width:2"></line>
<line x1="1" y1="108" x2="1089" y2="108" style="stroke:#ddd;stroke-width:2"></line>
<line x1="1089" y1="1" x2="1089" y2="108" style="stroke:#ddd;stroke-width:2"></line>
<line x1="109" y1="1" x2="109" y2="108" style="stroke:#ddd;stroke-width:2"></line>
<line x1="218" y1="1" x2="218" y2="108" style="stroke:#ddd;stroke-width:2"></line>
<line x1="327" y1="1" x2="327" y2="108" style="stroke:#ddd;stroke-width:2"></line>
<line x1="436" y1="1" x2="436" y2="108" style="stroke:#ddd;stroke-width:2"></line>
<line x1="545" y1="1" x2="545" y2="108" style="stroke:#ddd;stroke-width:2"></line>
<line x1="654" y1="1" x2="654" y2="108" style="stroke:#ddd;stroke-width:2"></line>
<line x1="763" y1="1" x2="763" y2="108" style="stroke:#ddd;stroke-width:2"></line>
<line x1="872" y1="1" x2="872" y2="108" style="stroke:#ddd;stroke-width:2"></line>
<line x1="981" y1="1" x2="981" y2="108" style="stroke:#ddd;stroke-width:2"></line>
<line x1="1" y1="54" x2="1089" y2="54" style="stroke:#ddd;stroke-width:2;stroke-dasharray:3 3"></line>
<line x1="55" y1="1" x2="55" y2="108" style="stroke:#ddd;stroke-width:2;stroke-dasharray:3 3"></line>
<line x1="164" y1="1" x2="164" y2="108" style="stroke:#ddd;stroke-width:2;stroke-dasharray:3 3"></line>
<line x1="273" y1="1" x2="273" y2="108" style="stroke:#ddd;stroke-width:2;stroke-dasharray:3 3"></line>
<line x1="382" y1="1" x2="382" y2="108" style="stroke:#ddd;stroke-width:2;stroke-dasharray:3 3"></line>
<line x1="491" y1="1" x2="491" y2="108" style="stroke:#ddd;stroke-width:2;stroke-dasharray:3 3"></line>
<line x1="600" y1="1" x2="600" y2="108" style="stroke:#ddd;stroke-width:2;stroke-dasharray:3 3"></line>
<line x1="709" y1="1" x2="709" y2="108" style="stroke:#ddd;stroke-width:2;stroke-dasharray:3 3"></line>
<line x1="818" y1="1" x2="818" y2="108" style="stroke:#ddd;stroke-width:2;stroke-dasharray:3 3"></line>
<line x1="927" y1="1" x2="927" y2="108" style="stroke:#ddd;stroke-width:2;stroke-dasharray:3 3"></line>
<line x1="1036" y1="1" x2="1036" y2="108" style="stroke:#ddd;stroke-width:2;stroke-dasharray:3 3"></line>
<path d="M54.22,8.25c-0.12,1.12-0.18,2.21-0.58,2.73c-5.41,7.05-12.57,12.65-19.9,17.74c-2.32,1.61-2.32,3.97,1.07,3.61c7.13-0.75,29.44-5.34,41.49-7.18" style="fill:none;stroke:#999;stroke-width:3"></path>

<path d="M163.22,8.25c-0.12,1.12-0.18,2.21-0.58,2.73c-5.41,7.05-12.57,12.65-19.9,17.74c-2.32,1.61-2.32,3.97,1.07,3.61c7.13-0.75,29.44-5.34,41.49-7.18" style="fill:none;stroke:#999;stroke-width:3"></path>
<path d="M175.93,16.88c4.9,2.57,12.65,10.59,13.87,14.59" style="fill:none;stroke:#999;stroke-width:3"></path>

<path d="M272.22,8.25c-0.12,1.12-0.18,2.21-0.58,2.73c-5.41,7.05-12.57,12.65-19.9,17.74c-2.32,1.61-2.32,3.97,1.07,3.61c7.13-0.75,29.44-5.34,41.49-7.18" style="fill:none;stroke:#999;stroke-width:3"></path>
<path d="M284.93,16.88c4.9,2.57,12.65,10.59,13.87,14.59" style="fill:none;stroke:#999;stroke-width:3"></path>
<path d="M230.38,46.04c1.46,0.4,5.34,0.88,8.44,0.7c20.93-1.2,48.41-3.61,67.2-4.19c3.23-0.1,5.83-0.05,8.74,0.26" style="fill:none;stroke:#999;stroke-width:3"></path>

<path d="M381.22,8.25c-0.12,1.12-0.18,2.21-0.58,2.73c-5.41,7.05-12.57,12.65-19.9,17.74c-2.32,1.61-2.32,3.97,1.07,3.61c7.13-0.75,29.44-5.34,41.49-7.18" style="fill:none;stroke:#999;stroke-width:3"></path>
<path d="M393.93,16.88c4.9,2.57,12.65,10.59,13.87,14.59" style="fill:none;stroke:#999;stroke-width:3"></path>
<path d="M339.38,46.04c1.46,0.4,5.34,0.88,8.44,0.7c20.93-1.2,48.41-3.61,67.2-4.19c3.23-0.1,5.83-0.05,8.74,0.26" style="fill:none;stroke:#999;stroke-width:3"></path>
<path d="M378.98,32.25c0.02,1.25,0.39,2.8,0.01,3.98C375.5,47.25,355.5,67.25,336.5,74.25" style="fill:none;stroke:#999;stroke-width:3"></path>

<path d="M490.22,8.25c-0.12,1.12-0.18,2.21-0.58,2.73c-5.41,7.05-12.57,12.65-19.9,17.74c-2.32,1.61-2.32,3.97,1.07,3.61c7.13-0.75,29.44-5.34,41.49-7.18" style="fill:none;stroke:#999;stroke-width:3"></path>
<path d="M502.93,16.88c4.9,2.57,12.65,10.59,13.87,14.59" style="fill:none;stroke:#999;stroke-width:3"></path>
<path d="M448.38,46.04c1.46,0.4,5.34,0.88,8.44,0.7c20.93-1.2,48.41-3.61,67.2-4.19c3.23-0.1,5.83-0.05,8.74,0.26" style="fill:none;stroke:#999;stroke-width:3"></path>
<path d="M487.98,32.25c0.02,1.25,0.39,2.8,0.01,3.98C484.5,47.25,464.5,67.25,445.5,74.25" style="fill:none;stroke:#999;stroke-width:3"></path>
<path d="M498.5,44c6.83,6,22.75,21.29,29.57,25.3c2.32,1.37,3.12,1.57,4.18,1.7" style="fill:none;stroke:#999;stroke-width:3"></path>

<path d="M599.22,8.25c-0.12,1.12-0.18,2.21-0.58,2.73c-5.41,7.05-12.57,12.65-19.9,17.74c-2.32,1.61-2.32,3.97,1.07,3.61c7.13-0.75,29.44-5.34,41.49-7.18" style="fill:none;stroke:#999;stroke-width:3"></path>
<path d="M611.9300000000001,16.88c4.9,2.57,12.65,10.59,13.87,14.59" style="fill:none;stroke:#999;stroke-width:3"></path>
<path d="M557.38,46.04c1.46,0.4,5.34,0.88,8.44,0.7c20.93-1.2,48.41-3.61,67.2-4.19c3.23-0.1,5.83-0.05,8.74,0.26" style="fill:none;stroke:#999;stroke-width:3"></path>
<path d="M596.98,32.25c0.02,1.25,0.39,2.8,0.01,3.98C593.5,47.25,573.5,67.25,554.5,74.25" style="fill:none;stroke:#999;stroke-width:3"></path>
<path d="M607.5,44c6.83,6,22.75,21.29,29.57,25.3c2.32,1.37,3.12,1.57,4.18,1.7" style="fill:none;stroke:#999;stroke-width:3"></path>
<path d="M573.61,66.71c0.35,0.56,0.86,1.93,1.04,2.62c1.55,5.65,3.45,19.77,4.37,30.18" style="fill:none;stroke:#999;stroke-width:3"></path>

<path d="M708.22,8.25c-0.12,1.12-0.18,2.21-0.58,2.73c-5.41,7.05-12.57,12.65-19.9,17.74c-2.32,1.61-2.32,3.97,1.07,3.61c7.13-0.75,29.44-5.34,41.49-7.18" style="fill:none;stroke:#999;stroke-width:3"></path>
<path d="M720.9300000000001,16.88c4.9,2.57,12.65,10.59,13.87,14.59" style="fill:none;stroke:#999;stroke-width:3"></path>
<path d="M666.38,46.04c1.46,0.4,5.34,0.88,8.44,0.7c20.93-1.2,48.41-3.61,67.2-4.19c3.23-0.1,5.83-0.05,8.74,0.26" style="fill:none;stroke:#999;stroke-width:3"></path>
<path d="M705.98,32.25c0.02,1.25,0.39,2.8,0.01,3.98C702.5,47.25,682.5,67.25,663.5,74.25" style="fill:none;stroke:#999;stroke-width:3"></path>
<path d="M716.5,44c6.83,6,22.75,21.29,29.57,25.3c2.32,1.37,3.12,1.57,4.18,1.7" style="fill:none;stroke:#999;stroke-width:3"></path>
<path d="M682.61,66.71c0.35,0.56,0.86,1.93,1.04,2.62c1.55,5.65,3.45,19.77,4.37,30.18" style="fill:none;stroke:#999;stroke-width:3"></path>
<path d="M684.75,68.56c14.25-1.31,35.98-2.53,45.19-3.08c3.38-0.2,4.6,2.43,4.42,3.95c-0.68,5.55-3.12,19.82-5.12,29.08" style="fill:none;stroke:#999;stroke-width:3"></path>

<path d="M817.22,8.25c-0.12,1.12-0.18,2.21-0.58,2.73c-5.41,7.05-12.57,12.65-19.9,17.74c-2.32,1.61-2.32,3.97,1.07,3.61c7.13-0.75,29.44-5.34,41.49-7.18" style="fill:none;stroke:#999;stroke-width:3"></path>
<path d="M829.9300000000001,16.88c4.9,2.57,12.65,10.59,13.87,14.59" style="fill:none;stroke:#999;stroke-width:3"></path>
<path d="M775.38,46.04c1.46,0.4,5.34,0.88,8.44,0.7c20.93-1.2,48.41-3.61,67.2-4.19c3.23-0.1,5.83-0.05,8.74,0.26" style="fill:none;stroke:#999;stroke-width:3"></path>
<path d="M814.98,32.25c0.02,1.25,0.39,2.8,0.01,3.98C811.5,47.25,791.5,67.25,772.5,74.25" style="fill:none;stroke:#999;stroke-width:3"></path>
<path d="M825.5,44c6.83,6,22.75,21.29,29.57,25.3c2.32,1.37,3.12,1.57,4.18,1.7" style="fill:none;stroke:#999;stroke-width:3"></path>
<path d="M791.61,66.71c0.35,0.56,0.86,1.93,1.04,2.62c1.55,5.65,3.45,19.77,4.37,30.18" style="fill:none;stroke:#999;stroke-width:3"></path>
<path d="M793.75,68.56c14.25-1.31,35.98-2.53,45.19-3.08c3.38-0.2,4.6,2.43,4.42,3.95c-0.68,5.55-3.12,19.82-5.12,29.08" style="fill:none;stroke:#999;stroke-width:3"></path>
<path d="M816.92,68.4c-0.02,0.43-0.04,1.19-0.04,2.19c-0.04,6.55,0.22,23.38,0.22,25.76" style="fill:none;stroke:#999;stroke-width:3"></path>

<path d="M926.22,8.25c-0.12,1.12-0.18,2.21-0.58,2.73c-5.41,7.05-12.57,12.65-19.9,17.74c-2.32,1.61-2.32,3.97,1.07,3.61c7.13-0.75,29.44-5.34,41.49-7.18" style="fill:none;stroke:#999;stroke-width:3"></path>
<path d="M938.9300000000001,16.88c4.9,2.57,12.65,10.59,13.87,14.59" style="fill:none;stroke:#999;stroke-width:3"></path>
<path d="M884.38,46.04c1.46,0.4,5.34,0.88,8.44,0.7c20.93-1.2,48.41-3.61,67.2-4.19c3.23-0.1,5.83-0.05,8.74,0.26" style="fill:none;stroke:#999;stroke-width:3"></path>
<path d="M923.98,32.25c0.02,1.25,0.39,2.8,0.01,3.98C920.5,47.25,900.5,67.25,881.5,74.25" style="fill:none;stroke:#999;stroke-width:3"></path>
<path d="M934.5,44c6.83,6,22.75,21.29,29.57,25.3c2.32,1.37,3.12,1.57,4.18,1.7" style="fill:none;stroke:#999;stroke-width:3"></path>
<path d="M900.61,66.71c0.35,0.56,0.86,1.93,1.04,2.62c1.55,5.65,3.45,19.77,4.37,30.18" style="fill:none;stroke:#999;stroke-width:3"></path>
<path d="M902.75,68.56c14.25-1.31,35.98-2.53,45.19-3.08c3.38-0.2,4.6,2.43,4.42,3.95c-0.68,5.55-3.12,19.82-5.12,29.08" style="fill:none;stroke:#999;stroke-width:3"></path>
<path d="M925.92,68.4c-0.02,0.43-0.04,1.19-0.04,2.19c-0.04,6.55,0.22,23.38,0.22,25.76" style="fill:none;stroke:#999;stroke-width:3"></path>
<path d="M904.45,83.06c4.02-0.27,42.82-2.42,46.14-2.42" style="fill:none;stroke:#999;stroke-width:3"></path>

<path d="M1035.22,8.25c-0.12,1.12-0.18,2.21-0.58,2.73c-5.41,7.05-12.57,12.65-19.9,17.74c-2.32,1.61-2.32,3.97,1.07,3.61c7.13-0.75,29.44-5.34,41.49-7.18" style="fill:none;stroke:#999;stroke-width:3"></path>
<path d="M1047.93,16.88c4.9,2.57,12.65,10.59,13.87,14.59" style="fill:none;stroke:#999;stroke-width:3"></path>
<path d="M993.38,46.04c1.46,0.4,5.34,0.88,8.44,0.7c20.93-1.2,48.41-3.61,67.2-4.19c3.23-0.1,5.83-0.05,8.74,0.26" style="fill:none;stroke:#999;stroke-width:3"></path>
<path d="M1032.98,32.25c0.02,1.25,0.39,2.8,0.01,3.98C1029.5,47.25,1009.5,67.25,990.5,74.25" style="fill:none;stroke:#999;stroke-width:3"></path>
<path d="M1043.5,44c6.83,6,22.75,21.29,29.57,25.3c2.32,1.37,3.12,1.57,4.18,1.7" style="fill:none;stroke:#999;stroke-width:3"></path>
<path d="M1009.61,66.71c0.35,0.56,0.86,1.93,1.04,2.62c1.55,5.65,3.45,19.77,4.37,30.18" style="fill:none;stroke:#999;stroke-width:3"></path>
<path d="M1011.75,68.56c14.25-1.31,35.98-2.53,45.19-3.08c3.38-0.2,4.6,2.43,4.42,3.95c-0.68,5.55-3.12,19.82-5.12,29.08" style="fill:none;stroke:#999;stroke-width:3"></path>
<path d="M1034.92,68.4c-0.02,0.43-0.04,1.19-0.04,2.19c-0.04,6.55,0.22,23.38,0.22,25.76" style="fill:none;stroke:#999;stroke-width:3"></path>
<path d="M1013.45,83.06c4.02-0.27,42.82-2.42,46.14-2.42" style="fill:none;stroke:#999;stroke-width:3"></path>
<path d="M1015.16,97.53c8.88,0,28.93-1.76,41.19-1.91" style="fill:none;stroke:#999;stroke-width:3"></path>

</svg>