<svg width="1308px" height="109px" viewBox="0 0 1308 109" xmlns="http://www.w3.org/2000/svg" xmlns:xlink="http://www.w3.org/1999/xlink" xml:space="preserve" version="1.1" baseProfile="full">
<line x1="1" y1="1" x2="1307" y2="1" style="stroke:#ddd;stroke-width:2"></line>
<line x1="1" y1="1" x2="1" y2="108" style="stroke:#ddd;stroke-width:2"></line>
<line x1="1" y1="108" x2="1307" y2="108" style="stroke:#ddd;stroke-width:2"></line>
<line x1="1307" y1="1" x2="1307" y2="108" style="stroke:#ddd;stroke-width:2"></line>
<line x1="109" y1="1" x2="109" y2="108" style="stroke:#ddd;stroke-width:2"></line>
<line x1="218" y1="1" x2="218" y2="108" style="stroke:#ddd;stroke-width:2"></line>
<line x1="327" y1="1" x2="327" y2="108" style="stroke:#ddd;stroke-width:2"></line>
<line x1="436" y1="1" x2="436" y2="108" style="stroke:#ddd;stroke-width:2"></line>
<line x1="545" y1="1" x2="545" y2="108" style="stroke:#ddd;stroke-width:2"></line>
<line x1="654" y1="1" x2="654" y2="108" style="stroke:#ddd;stroke-width:2"></line>
<line x1="763" y1="1" x2="763" y2="108" style="stroke:#ddd;stroke-width:2"></line>
<line x1="872" y1="1" x2="872" y2="108" style="stroke:#ddd;stroke-width:2"></line>
<line x1="981" y1="1" x2="981" y2="108" style="stroke:#ddd;stroke-width:2"></line>
<line x1="1090" y1="1" x2="1090" y2="108" style="stroke:#ddd;stroke-width:2"></line>
<line x1="1199" y1="1" x2="1199" y2="108" style="stroke:#ddd;stroke-width:2"></line>
<line x1="1" y1="54" x2="1307" y2="54" style="stroke:#ddd;stroke-width:2;stroke-dasharray:3 3"></line>
<line x1="55" y1="1" x2="55" y2="108" style="stroke:#ddd;stroke-width:2;stroke-dasharray:3 3"></line>
<line x1="164" y1="1" x2="164" y2="108" style="stroke:#ddd;stroke-width:2;stroke-dasharray:3 3"></line>
<line x1="273" y1="1" x2="273" y2="108" style="stroke:#ddd;stroke-width:2;stroke-dasharray:3 3"></line>
<line x1="382" y1="1" x2="382" y2="108" style="stroke:#ddd;stroke-width:2;stroke-dasharray:3 3"></line>
<line x1="491" y1="1" x2="491" y2="108" style="stroke:#ddd;stroke-width:2;stroke-dasharray:3 3"></line>
<line x1="600" y1="1" x2="600" y2="108" style="stroke:#ddd;stroke-width:2;stroke-dasharray:3 3"></line>
<line x1="709" y1="1" x2="709" y2="108" style="stroke:#ddd;stroke-width:2;stroke-dasharray:3 3"></line>
<line x1="818" y1="1" x2="818" y2="108" style="stroke:#ddd;stroke-width:2;stroke-dasharray:3 3"></line>
<line x1="927" y1="1" x2="927" y2="108" style="stroke:#ddd;stroke-width:2;stroke-dasharray:3 3"></line>
<line x1="1036" y1="1" x2="1036" y2="108" style="stroke:#ddd;stroke-width:2;stroke-dasharray:3 3"></line>
<line x1="1145" y1="1" x2="1145" y2="108" style="stroke:#ddd;stroke-width:2;stroke-dasharray:3 3"></line>
<line x1="1254" y1="1" x2="1254" y2="108" style="stroke:#ddd;stroke-width:2;stroke-dasharray:3 3"></line>
<path d="M30.0,19.82c2.33,0.23,2.99,0.62,5.13,0.47c9.8-0.7,29.87-2.5,39.2-2.97c3.03-0.15,5.11,1.14,4.67,3.5c-0.7,3.73-1.6,7.6-3.23,18.1" style="fill:none;stroke:#999;stroke-width:3"></path>

<path d="M139.0,19.82c2.33,0.23,2.99,0.62,5.13,0.47c9.8-0.7,29.87-2.5,39.2-2.97c3.03-0.15,5.11,1.14,4.67,3.5c-0.7,3.73-1.6,7.6-3.23,18.1" style="fill:none;stroke:#999;stroke-width:3"></path>
<path d="M123.75,31.5c2.25,0.5,4.01,0.7,6.5,0.5c22-1.75,50.75-3.5,68-4.25c2.76-0.12,5,0.5,6.25,0.75" style="fill:none;stroke:#999;stroke-width:3"></path>

<path d="M248.0,19.82c2.33,0.23,2.99,0.62,5.13,0.47c9.8-0.7,29.87-2.5,39.2-2.97c3.03-0.15,5.11,1.14,4.67,3.5c-0.7,3.73-1.6,7.6-3.23,18.1" style="fill:none;stroke:#999;stroke-width:3"></path>
<path d="M232.75,31.5c2.25,0.5,4.01,0.7,6.5,0.5c22-1.75,50.75-3.5,68-4.25c2.76-0.12,5,0.5,6.25,0.75" style="fill:none;stroke:#999;stroke-width:3"></path>
<path d="M246.5,42c1.25,0.25,3.51,0.39,5,0.25c13.75-1.25,27.75-2,40.25-3.25c1.99-0.2,3.25,0,4.75,0.25" style="fill:none;stroke:#999;stroke-width:3"></path>

<path d="M357.0,19.82c2.33,0.23,2.99,0.62,5.13,0.47c9.8-0.7,29.87-2.5,39.2-2.97c3.03-0.15,5.11,1.14,4.67,3.5c-0.7,3.73-1.6,7.6-3.23,18.1" style="fill:none;stroke:#999;stroke-width:3"></path>
<path d="M341.75,31.5c2.25,0.5,4.01,0.7,6.5,0.5c22-1.75,50.75-3.5,68-4.25c2.76-0.12,5,0.5,6.25,0.75" style="fill:none;stroke:#999;stroke-width:3"></path>
<path d="M355.5,42c1.25,0.25,3.51,0.39,5,0.25c13.75-1.25,27.75-2,40.25-3.25c1.99-0.2,3.25,0,4.75,0.25" style="fill:none;stroke:#999;stroke-width:3"></path>
<path d="M357.38,51.67c1.15,0.38,3.24,0.42,4.39,0.38C373.68,51.61,390.5,50,402.12,49.16c1.9-0.14,3.05,0.18,4.01,0.37" style="fill:none;stroke:#999;stroke-width:3"></path>

<path d="M466.0,19.82c2.33,0.23,2.99,0.62,5.13,0.47c9.8-0.7,29.87-2.5,39.2-2.97c3.03-0.15,5.11,1.14,4.67,3.5c-0.7,3.73-1.6,7.6-3.23,18.1" style="fill:none;stroke:#999;stroke-width:3"></path>
<path d="M450.75,31.5c2.25,0.5,4.01,0.7,6.5,0.5c22-1.75,50.75-3.5,68-4.25c2.76-0.12,5,0.5,6.25,0.75" style="fill:none;stroke:#999;stroke-width:3"></path>
<path d="M464.5,42c1.25,0.25,3.51,0.39,5,0.25c13.75-1.25,27.75-2,40.25-3.25c1.99-0.2,3.25,0,4.75,0.25" style="fill:none;stroke:#999;stroke-width:3"></path>
<path d="M466.38,51.67c1.15,0.38,3.24,0.42,4.39,0.38C482.68,51.61,499.5,50,511.12,49.16c1.9-0.14,3.05,0.18,4.01,0.37" style="fill:none;stroke:#999;stroke-width:3"></path>
<path d="M452.88,62.98c1.52,0.54,4.31,0.71,5.82,0.54c17.8-2.02,51.3-4.27,65.11-4.73c2.53-0.08,4.05,0.26,5.31,0.53" style="fill:none;stroke:#999;stroke-width:3"></path>

<path d="M575.0,19.82c2.33,0.23,2.99,0.62,5.13,0.47c9.8-0.7,29.87-2.5,39.2-2.97c3.03-0.15,5.11,1.14,4.67,3.5c-0.7,3.73-1.6,7.6-3.23,18.1" style="fill:none;stroke:#999;stroke-width:3"></path>
<path d="M559.75,31.5c2.25,0.5,4.01,0.7,6.5,0.5c22-1.75,50.75-3.5,68-4.25c2.76-0.12,5,0.5,6.25,0.75" style="fill:none;stroke:#999;stroke-width:3"></path>
<path d="M573.5,42c1.25,0.25,3.51,0.39,5,0.25c13.75-1.25,27.75-2,40.25-3.25c1.99-0.2,3.25,0,4.75,0.25" style="fill:none;stroke:#999;stroke-width:3"></path>
<path d="M575.38,51.67c1.15,0.38,3.24,0.42,4.39,0.38C591.6800000000001,51.61,608.5,50,620.12,49.16c1.9-0.14,3.05,0.18,4.01,0.37" style="fill:none;stroke:#999;stroke-width:3"></path>
<path d="M561.88,62.98c1.52,0.54,4.31,0.71,5.82,0.54c17.8-2.02,51.3-4.27,65.11-4.73c2.53-0.08,4.05,0.26,5.31,0.53" style="fill:none;stroke:#999;stroke-width:3"></path>
<path d="M597.37,8.25c1.09,0.5,1.74,2.25,1.96,3.25c0.22,1,0,42.75-0.22,49" style="fill:none;stroke:#999;stroke-width:3"></path>

<path d="M684.0,19.82c2.33,0.23,2.99,0.62,5.13,0.47c9.8-0.7,29.87-2.5,39.2-2.97c3.03-0.15,5.11,1.14,4.67,3.5c-0.7,3.73-1.6,7.6-3.23,18.1" style="fill:none;stroke:#999;stroke-width:3"></path>
<path d="M668.75,31.5c2.25,0.5,4.01,0.7,6.5,0.5c22-1.75,50.75-3.5,68-4.25c2.76-0.12,5,0.5,6.25,0.75" style="fill:none;stroke:#999;stroke-width:3"></path>
<path d="M682.5,42c1.25,0.25,3.51,0.39,5,0.25c13.75-1.25,27.75-2,40.25-3.25c1.99-0.2,3.25,0,4.75,0.25" style="fill:none;stroke:#999;stroke-width:3"></path>
<path d="M684.38,51.67c1.15,0.38,3.24,0.42,4.39,0.38C700.6800000000001,51.61,717.5,50,729.12,49.16c1.9-0.14,3.05,0.18,4.01,0.37" style="fill:none;stroke:#999;stroke-width:3"></path>
<path d="M670.88,62.98c1.52,0.54,4.31,0.71,5.82,0.54c17.8-2.02,51.3-4.27,65.11-4.73c2.53-0.08,4.05,0.26,5.31,0.53" style="fill:none;stroke:#999;stroke-width:3"></path>
<path d="M706.37,8.25c1.09,0.5,1.74,2.25,1.96,3.25c0.22,1,0,42.75-0.22,49" style="fill:none;stroke:#999;stroke-width:3"></path>
<path d="M685.59,70.23c0.32,0.33,0.33,0.55,0.5,0.97c1.43,3.4,3.21,13.5,4.06,19.86" style="fill:none;stroke:#999;stroke-width:3"></path>

<path d="M793.0,19.82c2.33,0.23,2.99,0.62,5.13,0.47c9.8-0.7,29.87-2.5,39.2-2.97c3.03-0.15,5.11,1.14,4.67,3.5c-0.7,3.73-1.6,7.6-3.23,18.1" style="fill:none;stroke:#999;stroke-width:3"></path>
<path d="M777.75,31.5c2.25,0.5,4.01,0.7,6.5,0.5c22-1.75,50.75-3.5,68-4.25c2.76-0.12,5,0.5,6.25,0.75" style="fill:none;stroke:#999;stroke-width:3"></path>
<path d="M791.5,42c1.25,0.25,3.51,0.39,5,0.25c13.75-1.25,27.75-2,40.25-3.25c1.99-0.2,3.25,0,4.75,0.25" style="fill:none;stroke:#999;stroke-width:3"></path>
<path d="M793.38,51.67c1.15,0.38,3.24,0.42,4.39,0.38C809.6800000000001,51.61,826.5,50,838.12,49.16c1.9-0.14,3.05,0.18,4.01,0.37" style="fill:none;stroke:#999;stroke-width:3"></path>
<path d="M779.88,62.98c1.52,0.54,4.31,0.71,5.82,0.54c17.8-2.02,51.3-4.27,65.11-4.73c2.53-0.08,4.05,0.26,5.31,0.53" style="fill:none;stroke:#999;stroke-width:3"></path>
<path d="M815.37,8.25c1.09,0.5,1.74,2.25,1.96,3.25c0.22,1,0,42.75-0.22,49" style="fill:none;stroke:#999;stroke-width:3"></path>
<path d="M794.59,70.23c0.32,0.33,0.33,0.55,0.5,0.97c1.43,3.4,3.21,13.5,4.06,19.86" style="fill:none;stroke:#999;stroke-width:3"></path>
<path d="M796.1,71.18c11.9-1.43,30.79-3.48,39.26-4.24c3.11-0.28,4.14,0.56,4.02,2.58c-0.2,3.49-2.23,13.02-2.87,18.39" style="fill:none;stroke:#999;stroke-width:3"></path>

<path d="M902.0,19.82c2.33,0.23,2.99,0.62,5.13,0.47c9.8-0.7,29.87-2.5,39.2-2.97c3.03-0.15,5.11,1.14,4.67,3.5c-0.7,3.73-1.6,7.6-3.23,18.1" style="fill:none;stroke:#999;stroke-width:3"></path>
<path d="M886.75,31.5c2.25,0.5,4.01,0.7,6.5,0.5c22-1.75,50.75-3.5,68-4.25c2.76-0.12,5,0.5,6.25,0.75" style="fill:none;stroke:#999;stroke-width:3"></path>
<path d="M900.5,42c1.25,0.25,3.51,0.39,5,0.25c13.75-1.25,27.75-2,40.25-3.25c1.99-0.2,3.25,0,4.75,0.25" style="fill:none;stroke:#999;stroke-width:3"></path>
<path d="M902.38,51.67c1.15,0.38,3.24,0.42,4.39,0.38C918.6800000000001,51.61,935.5,50,947.12,49.16c1.9-0.14,3.05,0.18,4.01,0.37" style="fill:none;stroke:#999;stroke-width:3"></path>
<path d="M888.88,62.98c1.52,0.54,4.31,0.71,5.82,0.54c17.8-2.02,51.3-4.27,65.11-4.73c2.53-0.08,4.05,0.26,5.31,0.53" style="fill:none;stroke:#999;stroke-width:3"></path>
<path d="M924.37,8.25c1.09,0.5,1.74,2.25,1.96,3.25c0.22,1,0,42.75-0.22,49" style="fill:none;stroke:#999;stroke-width:3"></path>
<path d="M903.59,70.23c0.32,0.33,0.33,0.55,0.5,0.97c1.43,3.4,3.21,13.5,4.06,19.86" style="fill:none;stroke:#999;stroke-width:3"></path>
<path d="M905.1,71.18c11.9-1.43,30.79-3.48,39.26-4.24c3.11-0.28,4.14,0.56,4.02,2.58c-0.2,3.49-2.23,13.02-2.87,18.39" style="fill:none;stroke:#999;stroke-width:3"></path>
<path d="M926.41,69.51c-0.02,0.27-0.03,0.73-0.04,1.35c-0.04,4.03,0.2,14.35,0.2,15.81" style="fill:none;stroke:#999;stroke-width:3"></path>

<path d="M1011.0,19.82c2.33,0.23,2.99,0.62,5.13,0.47c9.8-0.7,29.87-2.5,39.2-2.97c3.03-0.15,5.11,1.14,4.67,3.5c-0.7,3.73-1.6,7.6-3.23,18.1" style="fill:none;stroke:#999;stroke-width:3"></path>
<path d="M995.75,31.5c2.25,0.5,4.01,0.7,6.5,0.5c22-1.75,50.75-3.5,68-4.25c2.76-0.12,5,0.5,6.25,0.75" style="fill:none;stroke:#999;stroke-width:3"></path>
<path d="M1009.5,42c1.25,0.25,3.51,0.39,5,0.25c13.75-1.25,27.75-2,40.25-3.25c1.99-0.2,3.25,0,4.75,0.25" style="fill:none;stroke:#999;stroke-width:3"></path>
<path d="M1011.38,51.67c1.15,0.38,3.24,0.42,4.39,0.38C1027.68,51.61,1044.5,50,1056.12,49.16c1.9-0.14,3.05,0.18,4.01,0.37" style="fill:none;stroke:#999;stroke-width:3"></path>
<path d="M997.88,62.98c1.52,0.54,4.31,0.71,5.82,0.54c17.8-2.02,51.3-4.27,65.11-4.73c2.53-0.08,4.05,0.26,5.31,0.53" style="fill:none;stroke:#999;stroke-width:3"></path>
<path d="M1033.37,8.25c1.09,0.5,1.74,2.25,1.96,3.25c0.22,1,0,42.75-0.22,49" style="fill:none;stroke:#999;stroke-width:3"></path>
<path d="M1012.59,70.23c0.32,0.33,0.33,0.55,0.5,0.97c1.43,3.4,3.21,13.5,4.06,19.86" style="fill:none;stroke:#999;stroke-width:3"></path>
<path d="M1014.1,71.18c11.9-1.43,30.79-3.48,39.26-4.24c3.11-0.28,4.14,0.56,4.02,2.58c-0.2,3.49-2.23,13.02-2.87,18.39" style="fill:none;stroke:#999;stroke-width:3"></path>
<path d="M1035.4099999999999,69.51c-0.02,0.27-0.03,0.73-0.04,1.35c-0.04,4.03,0.2,14.35,0.2,15.81" style="fill:none;stroke:#999;stroke-width:3"></path>
<path d="M1016.12,79.48c3.7-0.35,36.16-2.99,39.21-3.14" style="fill:none;stroke:#999;stroke-width:3"></path>

<path d="M1120.0,19.82c2.33,0.23,2.99,0.62,5.13,0.47c9.8-0.7,29.87-2.5,39.2-2.97c3.03-0.15,5.11,1.14,4.67,3.5c-0.7,3.73-1.6,7.6-3.23,18.1" style="fill:none;stroke:#999;stroke-width:3"></path>
<path d="M1104.75,31.5c2.25,0.5,4.01,0.7,6.5,0.5c22-1.75,50.75-3.5,68-4.25c2.76-0.12,5,0.5,6.25,0.75" style="fill:none;stroke:#999;stroke-width:3"></path>
<path d="M1118.5,42c1.25,0.25,3.51,0.39,5,0.25c13.75-1.25,27.75-2,40.25-3.25c1.99-0.2,3.25,0,4.75,0.25" style="fill:none;stroke:#999;stroke-width:3"></path>
<path d="M1120.38,51.67c1.15,0.38,3.24,0.42,4.39,0.38C1136.68,51.61,1153.5,50,1165.12,49.16c1.9-0.14,3.05,0.18,4.01,0.37" style="fill:none;stroke:#999;stroke-width:3"></path>
<path d="M1106.88,62.98c1.52,0.54,4.31,0.71,5.82,0.54c17.8-2.02,51.3-4.27,65.11-4.73c2.53-0.08,4.05,0.26,5.31,0.53" style="fill:none;stroke:#999;stroke-width:3"></path>
<path d="M1142.37,8.25c1.09,0.5,1.74,2.25,1.96,3.25c0.22,1,0,42.75-0.22,49" style="fill:none;stroke:#999;stroke-width:3"></path>
<path d="M1121.5900000000001,70.23c0.32,0.33,0.33,0.55,0.5,0.97c1.43,3.4,3.21,13.5,4.06,19.86" style="fill:none;stroke:#999;stroke-width:3"></path>
<path d="M1123.1,71.18c11.9-1.43,30.79-3.48,39.26-4.24c3.11-0.28,4.14,0.56,4.02,2.58c-0.2,3.49-2.23,13.02-2.87,18.39" style="fill:none;stroke:#999;stroke-width:3"></path>
<path d="M1144.4099999999999,69.51c-0.02,0.27-0.03,0.73-0.04,1.35c-0.04,4.03,0.2,14.35,0.2,15.81" style="fill:none;stroke:#999;stroke-width:3"></path>
<path d="M1125.12,79.48c3.7-0.35,36.16-2.99,39.21-3.14" style="fill:none;stroke:#999;stroke-width:3"></path>
<path d="M1126.24,88.62c8.17-0.41,26.11-2.11,37.38-2.76" style="fill:none;stroke:#999;stroke-width:3"></path>

<path d="M1229.0,19.82c2.33,0.23,2.99,0.62,5.13,0.47c9.8-0.7,29.87-2.5,39.2-2.97c3.03-0.15,5.11,1.14,4.67,3.5c-0.7,3.73-1.6,7.6-3.23,18.1" style="fill:none;stroke:#999;stroke-width:3"></path>
<path d="M1213.75,31.5c2.25,0.5,4.01,0.7,6.5,0.5c22-1.75,50.75-3.5,68-4.25c2.76-0.12,5,0.5,6.25,0.75" style="fill:none;stroke:#999;stroke-width:3"></path>
<path d="M1227.5,42c1.25,0.25,3.51,0.39,5,0.25c13.75-1.25,27.75-2,40.25-3.25c1.99-0.2,3.25,0,4.75,0.25" style="fill:none;stroke:#999;stroke-width:3"></path>
<path d="M1229.38,51.67c1.15,0.38,3.24,0.42,4.39,0.38C1245.68,51.61,1262.5,50,1274.12,49.16c1.9-0.14,3.05,0.18,4.01,0.37" style="fill:none;stroke:#999;stroke-width:3"></path>
<path d="M1215.88,62.98c1.52,0.54,4.31,0.71,5.82,0.54c17.8-2.02,51.3-4.27,65.11-4.73c2.53-0.08,4.05,0.26,5.31,0.53" style="fill:none;stroke:#999;stroke-width:3"></path>
<path d="M1251.37,8.25c1.09,0.5,1.74,2.25,1.96,3.25c0.22,1,0,42.75-0.22,49" style="fill:none;stroke:#999;stroke-width:3"></path>
<path d="M1230.5900000000001,70.23c0.32,0.33,0.33,0.55,0.5,0.97c1.43,3.4,3.21,13.5,4.06,19.86" style="fill:none;stroke:#999;stroke-width:3"></path>
<path d="M1232.1,71.18c11.9-1.43,30.79-3.48,39.26-4.24c3.11-0.28,4.14,0.56,4.02,2.58c-0.2,3.49-2.23,13.02-2.87,18.39" style="fill:none;stroke:#999;stroke-width:3"></path>
<path d="M1253.4099999999999,69.51c-0.02,0.27-0.03,0.73-0.04,1.35c-0.04,4.03,0.2,14.35,0.2,15.81" style="fill:none;stroke:#999;stroke-width:3"></path>
<path d="M1234.12,79.48c3.7-0.35,36.16-2.99,39.21-3.14" style="fill:none;stroke:#999;stroke-width:3"></path>
<path d="M1235.24,88.62c8.17-0.41,26.11-2.11,37.38-2.76" style="fill:none;stroke:#999;stroke-width:3"></path>
<path d="M1216.88,97.98c1.52,0.54,4.3,0.61,5.82,0.54c17.3-0.77,50.8-3.27,64.61-3.73c2.53-0.08,4.05,0.26,5.31,0.53" style="fill:none;stroke:#999;stroke-width:3"></path>

</svg>