<svg width="1308px" height="109px" viewBox="0 0 1308 109" xmlns="http://www.w3.org/2000/svg" xmlns:xlink="http://www.w3.org/1999/xlink" xml:space="preserve" version="1.1" baseProfile="full">
<line x1="1" y1="1" x2="1307" y2="1" style="stroke:#ddd;stroke-width:2"></line>
<line x1="1" y1="1" x2="1" y2="108" style="stroke:#ddd;stroke-width:2"></line>
<line x1="1" y1="108" x2="1307" y2="108" style="stroke:#ddd;stroke-width:2"></line>
<line x1="1307" y1="1" x2="1307" y2="108" style="stroke:#ddd;stroke-width:2"></line>
<line x1="109" y1="1" x2="109" y2="108" style="stroke:#ddd;stroke-width:2"></line>
<line x1="218" y1="1" x2="218" y2="108" style="stroke:#ddd;stroke-width:2"></line>
<line x1="327" y1="1" x2="327" y2="108" style="stroke:#ddd;stroke-width:2"></line>
<line x1="436" y1="1" x2="436" y2="108" style="stroke:#ddd;stroke-width:2"></line>
<line x1="545" y1="1" x2="545" y2="108" style="stroke:#ddd;stroke-width:2"></line>
<line x1="654" y1="1" x2="654" y2="108" style="stroke:#ddd;stroke-width:2"></line>
<line x1="763" y1="1" x2="763" y2="108" style="stroke:#ddd;stroke-width:2"></line>
<line x1="872" y1="1" x2="872" y2="108" style="stroke:#ddd;stroke-width:2"></line>
<line x1="981" y1="1" x2="981" y2="108" style="stroke:#ddd;stroke-width:2"></line>
<line x1="1090" y1="1" x2="1090" y2="108" style="stroke:#ddd;stroke-width:2"></line>
<line x1="1199" y1="1" x2="1199" y2="108" style="stroke:#ddd;stroke-width:2"></line>
<line x1="1" y1="54" x2="1307" y2="54" style="stroke:#ddd;stroke-width:2;stroke-dasharray:3 3"></line>
<line x1="55" y1="1" x2="55" y2="108" style="stroke:#ddd;stroke-width:2;stroke-dasharray:3 3"></line>
<line x1="164" y1="1" x2="164" y2="108" style="stroke:#ddd;stroke-width:2;stroke-dasharray:3 3"></line>
<line x1="273" y1="1" x2="273" y2="108" style="stroke:#ddd;stroke-width:2;stroke-dasharray:3 3"></line>
<line x1="382" y1="1" x2="382" y2="108" style="stroke:#ddd;stroke-width:2;stroke-dasharray:3 3"></line>
<line x1="491" y1="1" x2="491" y2="108" style="stroke:#ddd;stroke-width:2;stroke-dasharray:3 3"></line>
<line x1="600" y1="1" x2="600" y2="108" style="stroke:#ddd;stroke-width:2;stroke-dasharray:3 3"></line>
<line x1="709" y1="1" x2="709" y2="108" style="stroke:#ddd;stroke-width:2;stroke-dasharray:3 3"></line>
<line x1="818" y1="1" x2="818" y2="108" style="stroke:#ddd;stroke-width:2;stroke-dasharray:3 3"></line>
<line x1="927" y1="1" x2="927" y2="108" style="stroke:#ddd;stroke-width:2;stroke-dasharray:3 3"></line>
<line x1="1036" y1="1" x2="1036" y2="108" style="stroke:#ddd;stroke-width:2;stroke-dasharray:3 3"></line>
<line x1="1145" y1="1" x2="1145" y2="108" style="stroke:#ddd;stroke-width:2;stroke-dasharray:3 3"></line>
<line x1="1254" y1="1" x2="1254" y2="108" style="stroke:#ddd;stroke-width:2;stroke-dasharray:3 3"></line>
<path d="M29.65,15.99c0.81,0.81,1.02,1.5,1.17,3.01c0.61,6.29,0.78,11.42,1.08,18.24c0.06,1.41,0.12,2.83,0.17,4.25" style="fill:none;stroke:#999;stroke-width:3"></path>

<path d="M138.65,15.99c0.81,0.81,1.02,1.5,1.17,3.01c0.61,6.29,0.78,11.42,1.08,18.24c0.06,1.41,0.12,2.83,0.17,4.25" style="fill:none;stroke:#999;stroke-width:3"></path>
<path d="M140.54,17.29c13.27-1.81,31.04-4.47,41.08-5.17c3.38-0.24,6.05,1.06,5.49,4.77c-0.59,3.89-1.86,10.47-3.04,16.23c-0.36,1.77-0.74,3.47-1.12,4.99" style="fill:none;stroke:#999;stroke-width:3"></path>

<path d="M247.65,15.99c0.81,0.81,1.02,1.5,1.17,3.01c0.61,6.29,0.78,11.42,1.08,18.24c0.06,1.41,0.12,2.83,0.17,4.25" style="fill:none;stroke:#999;stroke-width:3"></path>
<path d="M249.54,17.29c13.27-1.81,31.04-4.47,41.08-5.17c3.38-0.24,6.05,1.06,5.49,4.77c-0.59,3.89-1.86,10.47-3.04,16.23c-0.36,1.77-0.74,3.47-1.12,4.99" style="fill:none;stroke:#999;stroke-width:3"></path>
<path d="M270.1,17.4c1.07,1.07,1.41,2.48,1.41,3.73c0,5.07-0.01,13.07-0.01,15" style="fill:none;stroke:#999;stroke-width:3"></path>

<path d="M356.65,15.99c0.81,0.81,1.02,1.5,1.17,3.01c0.61,6.29,0.78,11.42,1.08,18.24c0.06,1.41,0.12,2.83,0.17,4.25" style="fill:none;stroke:#999;stroke-width:3"></path>
<path d="M358.53999999999996,17.29c13.27-1.81,31.04-4.47,41.08-5.17c3.38-0.24,6.05,1.06,5.49,4.77c-0.59,3.89-1.86,10.47-3.04,16.23c-0.36,1.77-0.74,3.47-1.12,4.99" style="fill:none;stroke:#999;stroke-width:3"></path>
<path d="M379.1,17.4c1.07,1.07,1.41,2.48,1.41,3.73c0,5.07-0.01,13.07-0.01,15" style="fill:none;stroke:#999;stroke-width:3"></path>
<path d="M359.5,28.18c10.87-1.68,37-4.31,42.79-4.64" style="fill:none;stroke:#999;stroke-width:3"></path>

<path d="M465.65,15.99c0.81,0.81,1.02,1.5,1.17,3.01c0.61,6.29,0.78,11.42,1.08,18.24c0.06,1.41,0.12,2.83,0.17,4.25" style="fill:none;stroke:#999;stroke-width:3"></path>
<path d="M467.53999999999996,17.29c13.27-1.81,31.04-4.47,41.08-5.17c3.38-0.24,6.05,1.06,5.49,4.77c-0.59,3.89-1.86,10.47-3.04,16.23c-0.36,1.77-0.74,3.47-1.12,4.99" style="fill:none;stroke:#999;stroke-width:3"></path>
<path d="M488.1,17.4c1.07,1.07,1.41,2.48,1.41,3.73c0,5.07-0.01,13.07-0.01,15" style="fill:none;stroke:#999;stroke-width:3"></path>
<path d="M468.5,28.18c10.87-1.68,37-4.31,42.79-4.64" style="fill:none;stroke:#999;stroke-width:3"></path>
<path d="M469.22,39.27c12.78-1.4,26.03-2.4,40.09-3.12" style="fill:none;stroke:#999;stroke-width:3"></path>

<path d="M574.65,15.99c0.81,0.81,1.02,1.5,1.17,3.01c0.61,6.29,0.78,11.42,1.08,18.24c0.06,1.41,0.12,2.83,0.17,4.25" style="fill:none;stroke:#999;stroke-width:3"></path>
<path d="M576.54,17.29c13.27-1.81,31.04-4.47,41.08-5.17c3.38-0.24,6.05,1.06,5.49,4.77c-0.59,3.89-1.86,10.47-3.04,16.23c-0.36,1.77-0.74,3.47-1.12,4.99" style="fill:none;stroke:#999;stroke-width:3"></path>
<path d="M597.1,17.4c1.07,1.07,1.41,2.48,1.41,3.73c0,5.07-0.01,13.07-0.01,15" style="fill:none;stroke:#999;stroke-width:3"></path>
<path d="M577.5,28.18c10.87-1.68,37-4.31,42.79-4.64" style="fill:none;stroke:#999;stroke-width:3"></path>
<path d="M578.22,39.27c12.78-1.4,26.03-2.4,40.09-3.12" style="fill:none;stroke:#999;stroke-width:3"></path>
<path d="M563.75,46c-0.13,4.06-3.17,14.68-4.25,17.1" style="fill:none;stroke:#999;stroke-width:3"></path>

<path d="M683.65,15.99c0.81,0.81,1.02,1.5,1.17,3.01c0.61,6.29,0.78,11.42,1.08,18.24c0.06,1.41,0.12,2.83,0.17,4.25" style="fill:none;stroke:#999;stroke-width:3"></path>
<path d="M685.54,17.29c13.27-1.81,31.04-4.47,41.08-5.17c3.38-0.24,6.05,1.06,5.49,4.77c-0.59,3.89-1.86,10.47-3.04,16.23c-0.36,1.77-0.74,3.47-1.12,4.99" style="fill:none;stroke:#999;stroke-width:3"></path>
<path d="M706.1,17.4c1.07,1.07,1.41,2.48,1.41,3.73c0,5.07-0.01,13.07-0.01,15" style="fill:none;stroke:#999;stroke-width:3"></path>
<path d="M686.5,28.18c10.87-1.68,37-4.31,42.79-4.64" style="fill:none;stroke:#999;stroke-width:3"></path>
<path d="M687.22,39.27c12.78-1.4,26.03-2.4,40.09-3.12" style="fill:none;stroke:#999;stroke-width:3"></path>
<path d="M672.75,46c-0.13,4.06-3.17,14.68-4.25,17.1" style="fill:none;stroke:#999;stroke-width:3"></path>
<path d="M673.9,50.02c15.1-1.77,47.46-5.45,64.52-5.65c10.33-0.12,4.17,5.21-0.17,8.61" style="fill:none;stroke:#999;stroke-width:3"></path>

<path d="M792.65,15.99c0.81,0.81,1.02,1.5,1.17,3.01c0.61,6.29,0.78,11.42,1.08,18.24c0.06,1.41,0.12,2.83,0.17,4.25" style="fill:none;stroke:#999;stroke-width:3"></path>
<path d="M794.54,17.29c13.27-1.81,31.04-4.47,41.08-5.17c3.38-0.24,6.05,1.06,5.49,4.77c-0.59,3.89-1.86,10.47-3.04,16.23c-0.36,1.77-0.74,3.47-1.12,4.99" style="fill:none;stroke:#999;stroke-width:3"></path>
<path d="M815.1,17.4c1.07,1.07,1.41,2.48,1.41,3.73c0,5.07-0.01,13.07-0.01,15" style="fill:none;stroke:#999;stroke-width:3"></path>
<path d="M795.5,28.18c10.87-1.68,37-4.31,42.79-4.64" style="fill:none;stroke:#999;stroke-width:3"></path>
<path d="M796.22,39.27c12.78-1.4,26.03-2.4,40.09-3.12" style="fill:none;stroke:#999;stroke-width:3"></path>
<path d="M781.75,46c-0.13,4.06-3.17,14.68-4.25,17.1" style="fill:none;stroke:#999;stroke-width:3"></path>
<path d="M782.9,50.02c15.1-1.77,47.46-5.45,64.52-5.65c10.33-0.12,4.17,5.21-0.17,8.61" style="fill:none;stroke:#999;stroke-width:3"></path>
<path d="M796.25,57.05c0.91,0.91,1.26,1.82,1.26,3.11c0,0.89,0.96,31.48,0.88,33.39" style="fill:none;stroke:#999;stroke-width:3"></path>

<path d="M901.65,15.99c0.81,0.81,1.02,1.5,1.17,3.01c0.61,6.29,0.78,11.42,1.08,18.24c0.06,1.41,0.12,2.83,0.17,4.25" style="fill:none;stroke:#999;stroke-width:3"></path>
<path d="M903.54,17.29c13.27-1.81,31.04-4.47,41.08-5.17c3.38-0.24,6.05,1.06,5.49,4.77c-0.59,3.89-1.86,10.47-3.04,16.23c-0.36,1.77-0.74,3.47-1.12,4.99" style="fill:none;stroke:#999;stroke-width:3"></path>
<path d="M924.1,17.4c1.07,1.07,1.41,2.48,1.41,3.73c0,5.07-0.01,13.07-0.01,15" style="fill:none;stroke:#999;stroke-width:3"></path>
<path d="M904.5,28.18c10.87-1.68,37-4.31,42.79-4.64" style="fill:none;stroke:#999;stroke-width:3"></path>
<path d="M905.22,39.27c12.78-1.4,26.03-2.4,40.09-3.12" style="fill:none;stroke:#999;stroke-width:3"></path>
<path d="M890.75,46c-0.13,4.06-3.17,14.68-4.25,17.1" style="fill:none;stroke:#999;stroke-width:3"></path>
<path d="M891.9,50.02c15.1-1.77,47.46-5.45,64.52-5.65c10.33-0.12,4.17,5.21-0.17,8.61" style="fill:none;stroke:#999;stroke-width:3"></path>
<path d="M905.25,57.05c0.91,0.91,1.26,1.82,1.26,3.11c0,0.89,0.96,31.48,0.88,33.39" style="fill:none;stroke:#999;stroke-width:3"></path>
<path d="M907.75,58.95c8.75-0.95,27.62-3.2,32.46-3.75c3.31-0.38,4.18,0.67,4.18,3.49c0,2.81-0.02,22.56-0.02,31.31" style="fill:none;stroke:#999;stroke-width:3"></path>

<path d="M1010.65,15.99c0.81,0.81,1.02,1.5,1.17,3.01c0.61,6.29,0.78,11.42,1.08,18.24c0.06,1.41,0.12,2.83,0.17,4.25" style="fill:none;stroke:#999;stroke-width:3"></path>
<path d="M1012.54,17.29c13.27-1.81,31.04-4.47,41.08-5.17c3.38-0.24,6.05,1.06,5.49,4.77c-0.59,3.89-1.86,10.47-3.04,16.23c-0.36,1.77-0.74,3.47-1.12,4.99" style="fill:none;stroke:#999;stroke-width:3"></path>
<path d="M1033.1,17.4c1.07,1.07,1.41,2.48,1.41,3.73c0,5.07-0.01,13.07-0.01,15" style="fill:none;stroke:#999;stroke-width:3"></path>
<path d="M1013.5,28.18c10.87-1.68,37-4.31,42.79-4.64" style="fill:none;stroke:#999;stroke-width:3"></path>
<path d="M1014.22,39.27c12.78-1.4,26.03-2.4,40.09-3.12" style="fill:none;stroke:#999;stroke-width:3"></path>
<path d="M999.75,46c-0.13,4.06-3.17,14.68-4.25,17.1" style="fill:none;stroke:#999;stroke-width:3"></path>
<path d="M1000.9,50.02c15.1-1.77,47.46-5.45,64.52-5.65c10.33-0.12,4.17,5.21-0.17,8.61" style="fill:none;stroke:#999;stroke-width:3"></path>
<path d="M1014.25,57.05c0.91,0.91,1.26,1.82,1.26,3.11c0,0.89,0.96,31.48,0.88,33.39" style="fill:none;stroke:#999;stroke-width:3"></path>
<path d="M1016.75,58.95c8.75-0.95,27.62-3.2,32.46-3.75c3.31-0.38,4.18,0.67,4.18,3.49c0,2.81-0.02,22.56-0.02,31.31" style="fill:none;stroke:#999;stroke-width:3"></path>
<path d="M1016.84,70.49c8.52-0.85,27.93-2.33,35.42-2.59" style="fill:none;stroke:#999;stroke-width:3"></path>

<path d="M1119.65,15.99c0.81,0.81,1.02,1.5,1.17,3.01c0.61,6.29,0.78,11.42,1.08,18.24c0.06,1.41,0.12,2.83,0.17,4.25" style="fill:none;stroke:#999;stroke-width:3"></path>
<path d="M1121.54,17.29c13.27-1.81,31.04-4.47,41.08-5.17c3.38-0.24,6.05,1.06,5.49,4.77c-0.59,3.89-1.86,10.47-3.04,16.23c-0.36,1.77-0.74,3.47-1.12,4.99" style="fill:none;stroke:#999;stroke-width:3"></path>
<path d="M1142.1,17.4c1.07,1.07,1.41,2.48,1.41,3.73c0,5.07-0.01,13.07-0.01,15" style="fill:none;stroke:#999;stroke-width:3"></path>
<path d="M1122.5,28.18c10.87-1.68,37-4.31,42.79-4.64" style="fill:none;stroke:#999;stroke-width:3"></path>
<path d="M1123.22,39.27c12.78-1.4,26.03-2.4,40.09-3.12" style="fill:none;stroke:#999;stroke-width:3"></path>
<path d="M1108.75,46c-0.13,4.06-3.17,14.68-4.25,17.1" style="fill:none;stroke:#999;stroke-width:3"></path>
<path d="M1109.9,50.02c15.1-1.77,47.46-5.45,64.52-5.65c10.33-0.12,4.17,5.21-0.17,8.61" style="fill:none;stroke:#999;stroke-width:3"></path>
<path d="M1123.25,57.05c0.91,0.91,1.26,1.82,1.26,3.11c0,0.89,0.96,31.48,0.88,33.39" style="fill:none;stroke:#999;stroke-width:3"></path>
<path d="M1125.75,58.95c8.75-0.95,27.62-3.2,32.46-3.75c3.31-0.38,4.18,0.67,4.18,3.49c0,2.81-0.02,22.56-0.02,31.31" style="fill:none;stroke:#999;stroke-width:3"></path>
<path d="M1125.8400000000001,70.49c8.52-0.85,27.93-2.33,35.42-2.59" style="fill:none;stroke:#999;stroke-width:3"></path>
<path d="M1126.09,82.28C1134.0,81.5,1152.0,80.12,1161.22,79.73" style="fill:none;stroke:#999;stroke-width:3"></path>

<path d="M1228.65,15.99c0.81,0.81,1.02,1.5,1.17,3.01c0.61,6.29,0.78,11.42,1.08,18.24c0.06,1.41,0.12,2.83,0.17,4.25" style="fill:none;stroke:#999;stroke-width:3"></path>
<path d="M1230.54,17.29c13.27-1.81,31.04-4.47,41.08-5.17c3.38-0.24,6.05,1.06,5.49,4.77c-0.59,3.89-1.86,10.47-3.04,16.23c-0.36,1.77-0.74,3.47-1.12,4.99" style="fill:none;stroke:#999;stroke-width:3"></path>
<path d="M1251.1,17.4c1.07,1.07,1.41,2.48,1.41,3.73c0,5.07-0.01,13.07-0.01,15" style="fill:none;stroke:#999;stroke-width:3"></path>
<path d="M1231.5,28.18c10.87-1.68,37-4.31,42.79-4.64" style="fill:none;stroke:#999;stroke-width:3"></path>
<path d="M1232.22,39.27c12.78-1.4,26.03-2.4,40.09-3.12" style="fill:none;stroke:#999;stroke-width:3"></path>
<path d="M1217.75,46c-0.13,4.06-3.17,14.68-4.25,17.1" style="fill:none;stroke:#999;stroke-width:3"></path>
<path d="M1218.9,50.02c15.1-1.77,47.46-5.45,64.52-5.65c10.33-0.12,4.17,5.21-0.17,8.61" style="fill:none;stroke:#999;stroke-width:3"></path>
<path d="M1232.25,57.05c0.91,0.91,1.26,1.82,1.26,3.11c0,0.89,0.96,31.48,0.88,33.39" style="fill:none;stroke:#999;stroke-width:3"></path>
<path d="M1234.75,58.95c8.75-0.95,27.62-3.2,32.46-3.75c3.31-0.38,4.18,0.67,4.18,3.49c0,2.81-0.02,22.56-0.02,31.31" style="fill:none;stroke:#999;stroke-width:3"></path>
<path d="M1234.8400000000001,70.49c8.52-0.85,27.93-2.33,35.42-2.59" style="fill:none;stroke:#999;stroke-width:3"></path>
<path d="M1235.09,82.28C1243.0,81.5,1261.0,80.12,1270.22,79.73" style="fill:none;stroke:#999;stroke-width:3"></path>
<path d="M1215.29,95.14c2.8,0.82,5.99,0.75,8.84,0.51c16.5-1.4,36.66-2.74,58.88-3.17c3.33-0.06,6.66-0.17,9.88,0.87" style="fill:none;stroke:#999;stroke-width:3"></path>

</svg>