<svg width="1417px" height="109px" viewBox="0 0 1417 109" xmlns="http://www.w3.org/2000/svg" xmlns:xlink="http://www.w3.org/1999/xlink" xml:space="preserve" version="1.1" baseProfile="full">
<line x1="1" y1="1" x2="1416" y2="1" style="stroke:#ddd;stroke-width:2"></line>
<line x1="1" y1="1" x2="1" y2="108" style="stroke:#ddd;stroke-width:2"></line>
<line x1="1" y1="108" x2="1416" y2="108" style="stroke:#ddd;stroke-width:2"></line>
<line x1="1416" y1="1" x2="1416" y2="108" style="stroke:#ddd;stroke-width:2"></line>
<line x1="109" y1="1" x2="109" y2="108" style="stroke:#ddd;stroke-width:2"></line>
<line x1="218" y1="1" x2="218" y2="108" style="stroke:#ddd;stroke-width:2"></line>
<line x1="327" y1="1" x2="327" y2="108" style="stroke:#ddd;stroke-width:2"></line>
<line x1="436" y1="1" x2="436" y2="108" style="stroke:#ddd;stroke-width:2"></line>
<line x1="545" y1="1" x2="545" y2="108" style="stroke:#ddd;stroke-width:2"></line>
<line x1="654" y1="1" x2="654" y2="108" style="stroke:#ddd;stroke-width:2"></line>
<line x1="763" y1="1" x2="763" y2="108" style="stroke:#ddd;stroke-width:2"></line>
<line x1="872" y1="1" x2="872" y2="108" style="stroke:#ddd;stroke-width:2"></line>
<line x1="981" y1="1" x2="981" y2="108" style="stroke:#ddd;stroke-width:2"></line>
<line x1="1090" y1="1" x2="1090" y2="108" style="stroke:#ddd;stroke-width:2"></line>
<line x1="1199" y1="1" x2="1199" y2="108" style="stroke:#ddd;stroke-width:2"></line>
<line x1="1308" y1="1" x2="1308" y2="108" style="stroke:#ddd;stroke-width:2"></line>
<line x1="1" y1="54" x2="1416" y2="54" style="stroke:#ddd;stroke-width:2;stroke-dasharray:3 3"></line>
<line x1="55" y1="1" x2="55" y2="108" style="stroke:#ddd;stroke-width:2;stroke-dasharray:3 3"></line>
<line x1="164" y1="1" x2="164" y2="108" style="stroke:#ddd;stroke-width:2;stroke-dasharray:3 3"></line>
<line x1="273" y1="1" x2="273" y2="108" style="stroke:#ddd;stroke-width:2;stroke-dasharray:3 3"></line>
<line x1="382" y1="1" x2="382" y2="108" style="stroke:#ddd;stroke-width:2;stroke-dasharray:3 3"></line>
<line x1="491" y1="1" x2="491" y2="108" style="stroke:#ddd;stroke-width:2;stroke-dasharray:3 3"></line>
<line x1="600" y1="1" x2="600" y2="108" style="stroke:#ddd;stroke-width:2;stroke-dasharray:3 3"></line>
<line x1="709" y1="1" x2="709" y2="108" style="stroke:#ddd;stroke-width:2;stroke-dasharray:3 3"></line>
<line x1="818" y1="1" x2="818" y2="108" style="stroke:#ddd;stroke-width:2;stroke-dasharray:3 3"></line>
<line x1="927" y1="1" x2="927" y2="108" style="stroke:#ddd;stroke-width:2;stroke-dasharray:3 3"></line>
<line x1="1036" y1="1" x2="1036" y2="108" style="stroke:#ddd;stroke-width:2;stroke-dasharray:3 3"></line>
<line x1="1145" y1="1" x2="1145" y2="108" style="stroke:#ddd;stroke-width:2;stroke-dasharray:3 3"></line>
<line x1="1254" y1="1" x2="1254" y2="108" style="stroke:#ddd;stroke-width:2;stroke-dasharray:3 3"></line>
<line x1="1363" y1="1" x2="1363" y2="108" style="stroke:#ddd;stroke-width:2;stroke-dasharray:3 3"></line>
<path d="M13.39,25.79c0.86,1.21,1.22,2.02,1.34,3.13c0.94,9.2,1.02,32.09,1.37,48.98" style="fill:none;stroke:#999;stroke-width:3"></path>

<path d="M122.39,25.79c0.86,1.21,1.22,2.02,1.34,3.13c0.94,9.2,1.02,32.09,1.37,48.98" style="fill:none;stroke:#999;stroke-width:3"></path>
<path d="M124.03,27.22c8.76-0.52,17.28-2.38,23.83-2.97c2.4-0.22,3.58,2.49,3.4,4.93c-0.64,8.96-1.27,31.89-2.68,46.8" style="fill:none;stroke:#999;stroke-width:3"></path>

<path d="M231.39,25.79c0.86,1.21,1.22,2.02,1.34,3.13c0.94,9.2,1.02,32.09,1.37,48.98" style="fill:none;stroke:#999;stroke-width:3"></path>
<path d="M233.03,27.22c8.76-0.52,17.28-2.38,23.83-2.97c2.4-0.22,3.58,2.49,3.4,4.93c-0.64,8.96-1.27,31.89-2.68,46.8" style="fill:none;stroke:#999;stroke-width:3"></path>
<path d="M245.28,25.9c0.47,0.85,1.01,3.01,1.01,3.86c0.03,12.76-0.14,37.32-0.3,44.61" style="fill:none;stroke:#999;stroke-width:3"></path>

<path d="M340.39,25.79c0.86,1.21,1.22,2.02,1.34,3.13c0.94,9.2,1.02,32.09,1.37,48.98" style="fill:none;stroke:#999;stroke-width:3"></path>
<path d="M342.03,27.22c8.76-0.52,17.28-2.38,23.83-2.97c2.4-0.22,3.58,2.49,3.4,4.93c-0.64,8.96-1.27,31.89-2.68,46.8" style="fill:none;stroke:#999;stroke-width:3"></path>
<path d="M354.28,25.9c0.47,0.85,1.01,3.01,1.01,3.86c0.03,12.76-0.14,37.32-0.3,44.61" style="fill:none;stroke:#999;stroke-width:3"></path>
<path d="M343.17,50.27c2.86-0.31,21.43-1.81,23.79-1.71" style="fill:none;stroke:#999;stroke-width:3"></path>

<path d="M449.39,25.79c0.86,1.21,1.22,2.02,1.34,3.13c0.94,9.2,1.02,32.09,1.37,48.98" style="fill:none;stroke:#999;stroke-width:3"></path>
<path d="M451.03,27.22c8.76-0.52,17.28-2.38,23.83-2.97c2.4-0.22,3.58,2.49,3.4,4.93c-0.64,8.96-1.27,31.89-2.68,46.8" style="fill:none;stroke:#999;stroke-width:3"></path>
<path d="M463.28,25.9c0.47,0.85,1.01,3.01,1.01,3.86c0.03,12.76-0.14,37.32-0.3,44.61" style="fill:none;stroke:#999;stroke-width:3"></path>
<path d="M452.17,50.27c2.86-0.31,21.43-1.81,23.79-1.71" style="fill:none;stroke:#999;stroke-width:3"></path>
<path d="M452.59,75.54c6.3,0.29,13.38-1.54,22.08-1.38" style="fill:none;stroke:#999;stroke-width:3"></path>

<path d="M558.39,25.79c0.86,1.21,1.22,2.02,1.34,3.13c0.94,9.2,1.02,32.09,1.37,48.98" style="fill:none;stroke:#999;stroke-width:3"></path>
<path d="M560.03,27.22c8.76-0.52,17.28-2.38,23.83-2.97c2.4-0.22,3.58,2.49,3.4,4.93c-0.64,8.96-1.27,31.89-2.68,46.8" style="fill:none;stroke:#999;stroke-width:3"></path>
<path d="M572.28,25.9c0.47,0.85,1.01,3.01,1.01,3.86c0.03,12.76-0.14,37.32-0.3,44.61" style="fill:none;stroke:#999;stroke-width:3"></path>
<path d="M561.1700000000001,50.27c2.86-0.31,21.43-1.81,23.79-1.71" style="fill:none;stroke:#999;stroke-width:3"></path>
<path d="M561.5899999999999,75.54c6.3,0.29,13.38-1.54,22.08-1.38" style="fill:none;stroke:#999;stroke-width:3"></path>
<path d="M594.14,22.26c1.6,0.27,3.39,0.62,4.44,0.58c14-0.59,19.84-1,33.63-1.82c1.32-0.08,3.54,0.23,5.16,0.44" style="fill:none;stroke:#999;stroke-width:3"></path>

<path d="M667.39,25.79c0.86,1.21,1.22,2.02,1.34,3.13c0.94,9.2,1.02,32.09,1.37,48.98" style="fill:none;stroke:#999;stroke-width:3"></path>
<path d="M669.03,27.22c8.76-0.52,17.28-2.38,23.83-2.97c2.4-0.22,3.58,2.49,3.4,4.93c-0.64,8.96-1.27,31.89-2.68,46.8" style="fill:none;stroke:#999;stroke-width:3"></path>
<path d="M681.28,25.9c0.47,0.85,1.01,3.01,1.01,3.86c0.03,12.76-0.14,37.32-0.3,44.61" style="fill:none;stroke:#999;stroke-width:3"></path>
<path d="M670.1700000000001,50.27c2.86-0.31,21.43-1.81,23.79-1.71" style="fill:none;stroke:#999;stroke-width:3"></path>
<path d="M670.5899999999999,75.54c6.3,0.29,13.38-1.54,22.08-1.38" style="fill:none;stroke:#999;stroke-width:3"></path>
<path d="M703.14,22.26c1.6,0.27,3.39,0.62,4.44,0.58c14-0.59,19.84-1,33.63-1.82c1.32-0.08,3.54,0.23,5.16,0.44" style="fill:none;stroke:#999;stroke-width:3"></path>
<path d="M722.73,10c0.31,0.47,0.48,1.01,0.46,2.03C722.87,25.98,716.5,40,704.12,43.75" style="fill:none;stroke:#999;stroke-width:3"></path>

<path d="M776.39,25.79c0.86,1.21,1.22,2.02,1.34,3.13c0.94,9.2,1.02,32.09,1.37,48.98" style="fill:none;stroke:#999;stroke-width:3"></path>
<path d="M778.03,27.22c8.76-0.52,17.28-2.38,23.83-2.97c2.4-0.22,3.58,2.49,3.4,4.93c-0.64,8.96-1.27,31.89-2.68,46.8" style="fill:none;stroke:#999;stroke-width:3"></path>
<path d="M790.28,25.9c0.47,0.85,1.01,3.01,1.01,3.86c0.03,12.76-0.14,37.32-0.3,44.61" style="fill:none;stroke:#999;stroke-width:3"></path>
<path d="M779.1700000000001,50.27c2.86-0.31,21.43-1.81,23.79-1.71" style="fill:none;stroke:#999;stroke-width:3"></path>
<path d="M779.5899999999999,75.54c6.3,0.29,13.38-1.54,22.08-1.38" style="fill:none;stroke:#999;stroke-width:3"></path>
<path d="M812.14,22.26c1.6,0.27,3.39,0.62,4.44,0.58c14-0.59,19.84-1,33.63-1.82c1.32-0.08,3.54,0.23,5.16,0.44" style="fill:none;stroke:#999;stroke-width:3"></path>
<path d="M831.73,10c0.31,0.47,0.48,1.01,0.46,2.03C831.87,25.98,825.5,40,813.12,43.75" style="fill:none;stroke:#999;stroke-width:3"></path>
<path d="M834.62,27c6.86,3.04,14.81,7.96,19,12.5" style="fill:none;stroke:#999;stroke-width:3"></path>

<path d="M885.39,25.79c0.86,1.21,1.22,2.02,1.34,3.13c0.94,9.2,1.02,32.09,1.37,48.98" style="fill:none;stroke:#999;stroke-width:3"></path>
<path d="M887.03,27.22c8.76-0.52,17.28-2.38,23.83-2.97c2.4-0.22,3.58,2.49,3.4,4.93c-0.64,8.96-1.27,31.89-2.68,46.8" style="fill:none;stroke:#999;stroke-width:3"></path>
<path d="M899.28,25.9c0.47,0.85,1.01,3.01,1.01,3.86c0.03,12.76-0.14,37.32-0.3,44.61" style="fill:none;stroke:#999;stroke-width:3"></path>
<path d="M888.1700000000001,50.27c2.86-0.31,21.43-1.81,23.79-1.71" style="fill:none;stroke:#999;stroke-width:3"></path>
<path d="M888.5899999999999,75.54c6.3,0.29,13.38-1.54,22.08-1.38" style="fill:none;stroke:#999;stroke-width:3"></path>
<path d="M921.14,22.26c1.6,0.27,3.39,0.62,4.44,0.58c14-0.59,19.84-1,33.63-1.82c1.32-0.08,3.54,0.23,5.16,0.44" style="fill:none;stroke:#999;stroke-width:3"></path>
<path d="M940.73,10c0.31,0.47,0.48,1.01,0.46,2.03C940.87,25.98,934.5,40,922.12,43.75" style="fill:none;stroke:#999;stroke-width:3"></path>
<path d="M943.62,27c6.86,3.04,14.81,7.96,19,12.5" style="fill:none;stroke:#999;stroke-width:3"></path>
<path d="M919.0,49.01c1.56,0.51,4.42,0.63,5.98,0.51c9.29-0.72,27.42-1.63,40.32-2.3c2.59-0.13,4.16,0.24,5.46,0.5" style="fill:none;stroke:#999;stroke-width:3"></path>

<path d="M994.39,25.79c0.86,1.21,1.22,2.02,1.34,3.13c0.94,9.2,1.02,32.09,1.37,48.98" style="fill:none;stroke:#999;stroke-width:3"></path>
<path d="M996.03,27.22c8.76-0.52,17.28-2.38,23.83-2.97c2.4-0.22,3.58,2.49,3.4,4.93c-0.64,8.96-1.27,31.89-2.68,46.8" style="fill:none;stroke:#999;stroke-width:3"></path>
<path d="M1008.28,25.9c0.47,0.85,1.01,3.01,1.01,3.86c0.03,12.76-0.14,37.32-0.3,44.61" style="fill:none;stroke:#999;stroke-width:3"></path>
<path d="M997.1700000000001,50.27c2.86-0.31,21.43-1.81,23.79-1.71" style="fill:none;stroke:#999;stroke-width:3"></path>
<path d="M997.5899999999999,75.54c6.3,0.29,13.38-1.54,22.08-1.38" style="fill:none;stroke:#999;stroke-width:3"></path>
<path d="M1030.1399999999999,22.26c1.6,0.27,3.39,0.62,4.44,0.58c14-0.59,19.84-1,33.63-1.82c1.32-0.08,3.54,0.23,5.16,0.44" style="fill:none;stroke:#999;stroke-width:3"></path>
<path d="M1049.73,10c0.31,0.47,0.48,1.01,0.46,2.03C1049.87,25.98,1043.5,40,1031.12,43.75" style="fill:none;stroke:#999;stroke-width:3"></path>
<path d="M1052.62,27c6.86,3.04,14.81,7.96,19,12.5" style="fill:none;stroke:#999;stroke-width:3"></path>
<path d="M1028.0,49.01c1.56,0.51,4.42,0.63,5.98,0.51c9.29-0.72,27.42-1.63,40.32-2.3c2.59-0.13,4.16,0.24,5.46,0.5" style="fill:none;stroke:#999;stroke-width:3"></path>
<path d="M1032.82,60.15c0.31,0.34,0.63,0.61,0.77,1.03c1.09,3.33,2.38,13.43,3.12,19.4" style="fill:none;stroke:#999;stroke-width:3"></path>

<path d="M1103.3899999999999,25.79c0.86,1.21,1.22,2.02,1.34,3.13c0.94,9.2,1.02,32.09,1.37,48.98" style="fill:none;stroke:#999;stroke-width:3"></path>
<path d="M1105.03,27.22c8.76-0.52,17.28-2.38,23.83-2.97c2.4-0.22,3.58,2.49,3.4,4.93c-0.64,8.96-1.27,31.89-2.68,46.8" style="fill:none;stroke:#999;stroke-width:3"></path>
<path d="M1117.28,25.9c0.47,0.85,1.01,3.01,1.01,3.86c0.03,12.76-0.14,37.32-0.3,44.61" style="fill:none;stroke:#999;stroke-width:3"></path>
<path d="M1106.17,50.27c2.86-0.31,21.43-1.81,23.79-1.71" style="fill:none;stroke:#999;stroke-width:3"></path>
<path d="M1106.59,75.54c6.3,0.29,13.38-1.54,22.08-1.38" style="fill:none;stroke:#999;stroke-width:3"></path>
<path d="M1139.1399999999999,22.26c1.6,0.27,3.39,0.62,4.44,0.58c14-0.59,19.84-1,33.63-1.82c1.32-0.08,3.54,0.23,5.16,0.44" style="fill:none;stroke:#999;stroke-width:3"></path>
<path d="M1158.73,10c0.31,0.47,0.48,1.01,0.46,2.03C1158.87,25.98,1152.5,40,1140.12,43.75" style="fill:none;stroke:#999;stroke-width:3"></path>
<path d="M1161.62,27c6.86,3.04,14.81,7.96,19,12.5" style="fill:none;stroke:#999;stroke-width:3"></path>
<path d="M1137.0,49.01c1.56,0.51,4.42,0.63,5.98,0.51c9.29-0.72,27.42-1.63,40.32-2.3c2.59-0.13,4.16,0.24,5.46,0.5" style="fill:none;stroke:#999;stroke-width:3"></path>
<path d="M1141.82,60.15c0.31,0.34,0.63,0.61,0.77,1.03c1.09,3.33,2.38,13.43,3.12,19.4" style="fill:none;stroke:#999;stroke-width:3"></path>
<path d="M1142.77,61.76c6.41-1.09,13.68-2.44,17.35-2.87c1.34-0.16,2.14,0.95,1.95,1.88c-0.79,3.88-1.32,9.23-1.9,15.88" style="fill:none;stroke:#999;stroke-width:3"></path>

<path d="M1212.3899999999999,25.79c0.86,1.21,1.22,2.02,1.34,3.13c0.94,9.2,1.02,32.09,1.37,48.98" style="fill:none;stroke:#999;stroke-width:3"></path>
<path d="M1214.03,27.22c8.76-0.52,17.28-2.38,23.83-2.97c2.4-0.22,3.58,2.49,3.4,4.93c-0.64,8.96-1.27,31.89-2.68,46.8" style="fill:none;stroke:#999;stroke-width:3"></path>
<path d="M1226.28,25.9c0.47,0.85,1.01,3.01,1.01,3.86c0.03,12.76-0.14,37.32-0.3,44.61" style="fill:none;stroke:#999;stroke-width:3"></path>
<path d="M1215.17,50.27c2.86-0.31,21.43-1.81,23.79-1.71" style="fill:none;stroke:#999;stroke-width:3"></path>
<path d="M1215.59,75.54c6.3,0.29,13.38-1.54,22.08-1.38" style="fill:none;stroke:#999;stroke-width:3"></path>
<path d="M1248.1399999999999,22.26c1.6,0.27,3.39,0.62,4.44,0.58c14-0.59,19.84-1,33.63-1.82c1.32-0.08,3.54,0.23,5.16,0.44" style="fill:none;stroke:#999;stroke-width:3"></path>
<path d="M1267.73,10c0.31,0.47,0.48,1.01,0.46,2.03C1267.87,25.98,1261.5,40,1249.12,43.75" style="fill:none;stroke:#999;stroke-width:3"></path>
<path d="M1270.62,27c6.86,3.04,14.81,7.96,19,12.5" style="fill:none;stroke:#999;stroke-width:3"></path>
<path d="M1246.0,49.01c1.56,0.51,4.42,0.63,5.98,0.51c9.29-0.72,27.42-1.63,40.32-2.3c2.59-0.13,4.16,0.24,5.46,0.5" style="fill:none;stroke:#999;stroke-width:3"></path>
<path d="M1250.82,60.15c0.31,0.34,0.63,0.61,0.77,1.03c1.09,3.33,2.38,13.43,3.12,19.4" style="fill:none;stroke:#999;stroke-width:3"></path>
<path d="M1251.77,61.76c6.41-1.09,13.68-2.44,17.35-2.87c1.34-0.16,2.14,0.95,1.95,1.88c-0.79,3.88-1.32,9.23-1.9,15.88" style="fill:none;stroke:#999;stroke-width:3"></path>
<path d="M1254.86,78.73c4.3-0.5,10.24-0.85,16.15-1.61" style="fill:none;stroke:#999;stroke-width:3"></path>

<path d="M1321.3899999999999,25.79c0.86,1.21,1.22,2.02,1.34,3.13c0.94,9.2,1.02,32.09,1.37,48.98" style="fill:none;stroke:#999;stroke-width:3"></path>
<path d="M1323.03,27.22c8.76-0.52,17.28-2.38,23.83-2.97c2.4-0.22,3.58,2.49,3.4,4.93c-0.64,8.96-1.27,31.89-2.68,46.8" style="fill:none;stroke:#999;stroke-width:3"></path>
<path d="M1335.28,25.9c0.47,0.85,1.01,3.01,1.01,3.86c0.03,12.76-0.14,37.32-0.3,44.61" style="fill:none;stroke:#999;stroke-width:3"></path>
<path d="M1324.17,50.27c2.86-0.31,21.43-1.81,23.79-1.71" style="fill:none;stroke:#999;stroke-width:3"></path>
<path d="M1324.59,75.54c6.3,0.29,13.38-1.54,22.08-1.38" style="fill:none;stroke:#999;stroke-width:3"></path>
<path d="M1357.1399999999999,22.26c1.6,0.27,3.39,0.62,4.44,0.58c14-0.59,19.84-1,33.63-1.82c1.32-0.08,3.54,0.23,5.16,0.44" style="fill:none;stroke:#999;stroke-width:3"></path>
<path d="M1376.73,10c0.31,0.47,0.48,1.01,0.46,2.03C1376.87,25.98,1370.5,40,1358.12,43.75" style="fill:none;stroke:#999;stroke-width:3"></path>
<path d="M1379.62,27c6.86,3.04,14.81,7.96,19,12.5" style="fill:none;stroke:#999;stroke-width:3"></path>
<path d="M1355.0,49.01c1.56,0.51,4.42,0.63,5.98,0.51c9.29-0.72,27.42-1.63,40.32-2.3c2.59-0.13,4.16,0.24,5.46,0.5" style="fill:none;stroke:#999;stroke-width:3"></path>
<path d="M1359.82,60.15c0.31,0.34,0.63,0.61,0.77,1.03c1.09,3.33,2.38,13.43,3.12,19.4" style="fill:none;stroke:#999;stroke-width:3"></path>
<path d="M1360.77,61.76c6.41-1.09,13.68-2.44,17.35-2.87c1.34-0.16,2.14,0.95,1.95,1.88c-0.79,3.88-1.32,9.23-1.9,15.88" style="fill:none;stroke:#999;stroke-width:3"></path>
<path d="M1363.86,78.73c4.3-0.5,10.24-0.85,16.15-1.61" style="fill:none;stroke:#999;stroke-width:3"></path>
<path d="M1392.05,49.97c0.06,0.53,1.24,2.75,1.31,6.1c0.3,16.08-0.19,30.27-0.19,35.75c0,12.93-6.16,2.68-8.47,0.78" style="fill:none;stroke:#999;stroke-width:3"></path>

</svg>