<svg width="545px" height="109px" viewBox="0 0 545 109" xmlns="http://www.w3.org/2000/svg" xmlns:xlink="http://www.w3.org/1999/xlink" xml:space="preserve" version="1.1" baseProfile="full">
<line x1="1" y1="1" x2="544" y2="1" style="stroke:#ddd;stroke-width:2"></line>
<line x1="1" y1="1" x2="1" y2="108" style="stroke:#ddd;stroke-width:2"></line>
<line x1="1" y1="108" x2="544" y2="108" style="stroke:#ddd;stroke-width:2"></line>
<line x1="544" y1="1" x2="544" y2="108" style="stroke:#ddd;stroke-width:2"></line>
<line x1="109" y1="1" x2="109" y2="108" style="stroke:#ddd;stroke-width:2"></line>
<line x1="218" y1="1" x2="218" y2="108" style="stroke:#ddd;stroke-width:2"></line>
<line x1="327" y1="1" x2="327" y2="108" style="stroke:#ddd;stroke-width:2"></line>
<line x1="436" y1="1" x2="436" y2="108" style="stroke:#ddd;stroke-width:2"></line>
<line x1="1" y1="54" x2="544" y2="54" style="stroke:#ddd;stroke-width:2;stroke-dasharray:3 3"></line>
<line x1="55" y1="1" x2="55" y2="108" style="stroke:#ddd;stroke-width:2;stroke-dasharray:3 3"></line>
<line x1="164" y1="1" x2="164" y2="108" style="stroke:#ddd;stroke-width:2;stroke-dasharray:3 3"></line>
<line x1="273" y1="1" x2="273" y2="108" style="stroke:#ddd;stroke-width:2;stroke-dasharray:3 3"></line>
<line x1="382" y1="1" x2="382" y2="108" style="stroke:#ddd;stroke-width:2;stroke-dasharray:3 3"></line>
<line x1="491" y1="1" x2="491" y2="108" style="stroke:#ddd;stroke-width:2;stroke-dasharray:3 3"></line>
<path d="M60.06,6.88c1.34,1.34,1.51,2.74,1.51,4.4c0,0.79-0.07,7.96-0.07,10.71" style="fill:none;stroke:#999;stroke-width:3"></path>

<path d="M169.06,6.88c1.34,1.34,1.51,2.74,1.51,4.4c0,0.79-0.07,7.96-0.07,10.71" style="fill:none;stroke:#999;stroke-width:3"></path>
<path d="M140.38,23.08c1.62,1.05,4.46,1.37,6.04,1.45c2.09,0.1,3.53,0.06,4.73,0c14.48-0.65,29.23-2.03,43.99-3.26c3.45-0.29,6.82-0.38,10.25,0.21" style="fill:none;stroke:#999;stroke-width:3"></path>

<path d="M278.06,6.88c1.34,1.34,1.51,2.74,1.51,4.4c0,0.79-0.07,7.96-0.07,10.71" style="fill:none;stroke:#999;stroke-width:3"></path>
<path d="M249.38,23.08c1.62,1.05,4.46,1.37,6.04,1.45c2.09,0.1,3.53,0.06,4.73,0c14.48-0.65,29.23-2.03,43.99-3.26c3.45-0.29,6.82-0.38,10.25,0.21" style="fill:none;stroke:#999;stroke-width:3"></path>
<path d="M251.99,24.75c0.75,0.75,0.69,2.18,0.66,3.25c-1.16,32.15-9.16,48.05-20.84,64.47" style="fill:none;stroke:#999;stroke-width:3"></path>

<path d="M387.06,6.88c1.34,1.34,1.51,2.74,1.51,4.4c0,0.79-0.07,7.96-0.07,10.71" style="fill:none;stroke:#999;stroke-width:3"></path>
<path d="M358.38,23.08c1.62,1.05,4.46,1.37,6.04,1.45c2.09,0.1,3.53,0.06,4.73,0c14.48-0.65,29.23-2.03,43.99-3.26c3.45-0.29,6.82-0.38,10.25,0.21" style="fill:none;stroke:#999;stroke-width:3"></path>
<path d="M360.99,24.75c0.75,0.75,0.69,2.18,0.66,3.25c-1.16,32.15-9.16,48.05-20.84,64.47" style="fill:none;stroke:#999;stroke-width:3"></path>
<path d="M337.75,29.25c3.88,2.2,10.03,9.07,11,12.5" style="fill:none;stroke:#999;stroke-width:3"></path>

<path d="M496.06,6.88c1.34,1.34,1.51,2.74,1.51,4.4c0,0.79-0.07,7.96-0.07,10.71" style="fill:none;stroke:#999;stroke-width:3"></path>
<path d="M467.38,23.08c1.62,1.05,4.46,1.37,6.04,1.45c2.09,0.1,3.53,0.06,4.73,0c14.48-0.65,29.23-2.03,43.99-3.26c3.45-0.29,6.82-0.38,10.25,0.21" style="fill:none;stroke:#999;stroke-width:3"></path>
<path d="M469.99,24.75c0.75,0.75,0.69,2.18,0.66,3.25c-1.16,32.15-9.16,48.05-20.84,64.47" style="fill:none;stroke:#999;stroke-width:3"></path>
<path d="M446.75,29.25c3.88,2.2,10.03,9.07,11,12.5" style="fill:none;stroke:#999;stroke-width:3"></path>
<path d="M443.17,60.63c1.9,0.72,2.49,0.51,4.16-0.36c6.76-3.55,10.67-5.82,15.79-8.89" style="fill:none;stroke:#999;stroke-width:3"></path>

</svg>