<svg width="763px" height="109px" viewBox="0 0 763 109" xmlns="http://www.w3.org/2000/svg" xmlns:xlink="http://www.w3.org/1999/xlink" xml:space="preserve" version="1.1" baseProfile="full">
<line x1="1" y1="1" x2="762" y2="1" style="stroke:#ddd;stroke-width:2"></line>
<line x1="1" y1="1" x2="1" y2="108" style="stroke:#ddd;stroke-width:2"></line>
<line x1="1" y1="108" x2="762" y2="108" style="stroke:#ddd;stroke-width:2"></line>
<line x1="762" y1="1" x2="762" y2="108" style="stroke:#ddd;stroke-width:2"></line>
<line x1="109" y1="1" x2="109" y2="108" style="stroke:#ddd;stroke-width:2"></line>
<line x1="218" y1="1" x2="218" y2="108" style="stroke:#ddd;stroke-width:2"></line>
<line x1="327" y1="1" x2="327" y2="108" style="stroke:#ddd;stroke-width:2"></line>
<line x1="436" y1="1" x2="436" y2="108" style="stroke:#ddd;stroke-width:2"></line>
<line x1="545" y1="1" x2="545" y2="108" style="stroke:#ddd;stroke-width:2"></line>
<line x1="654" y1="1" x2="654" y2="108" style="stroke:#ddd;stroke-width:2"></line>
<line x1="1" y1="54" x2="762" y2="54" style="stroke:#ddd;stroke-width:2;stroke-dasharray:3 3"></line>
<line x1="55" y1="1" x2="55" y2="108" style="stroke:#ddd;stroke-width:2;stroke-dasharray:3 3"></line>
<line x1="164" y1="1" x2="164" y2="108" style="stroke:#ddd;stroke-width:2;stroke-dasharray:3 3"></line>
<line x1="273" y1="1" x2="273" y2="108" style="stroke:#ddd;stroke-width:2;stroke-dasharray:3 3"></line>
<line x1="382" y1="1" x2="382" y2="108" style="stroke:#ddd;stroke-width:2;stroke-dasharray:3 3"></line>
<line x1="491" y1="1" x2="491" y2="108" style="stroke:#ddd;stroke-width:2;stroke-dasharray:3 3"></line>
<line x1="600" y1="1" x2="600" y2="108" style="stroke:#ddd;stroke-width:2;stroke-dasharray:3 3"></line>
<line x1="709" y1="1" x2="709" y2="108" style="stroke:#ddd;stroke-width:2;stroke-dasharray:3 3"></line>
<path d="M54.88,10.38c0.71,0.36,2.23,2.72,2.37,3.44c0.14,0.73,0.07,4.39-0.07,8.92" style="fill:none;stroke:#999;stroke-width:3"></path>

<path d="M163.88,10.38c0.71,0.36,2.23,2.72,2.37,3.44c0.14,0.73,0.07,4.39-0.07,8.92" style="fill:none;stroke:#999;stroke-width:3"></path>
<path d="M133.38,24.64c1.73,0.39,4.89,0.45,6.61,0.39c17.95-0.65,38.12-3.24,54.1-3.74c2.87-0.09,4.6,0.19,6.04,0.38" style="fill:none;stroke:#999;stroke-width:3"></path>

<path d="M272.88,10.38c0.71,0.36,2.23,2.72,2.37,3.44c0.14,0.73,0.07,4.39-0.07,8.92" style="fill:none;stroke:#999;stroke-width:3"></path>
<path d="M242.38,24.64c1.73,0.39,4.89,0.45,6.61,0.39c17.95-0.65,38.12-3.24,54.1-3.74c2.87-0.09,4.6,0.19,6.04,0.38" style="fill:none;stroke:#999;stroke-width:3"></path>
<path d="M249.99,25.5c0,1.18,0,2.35-0.01,3.5c-0.27,32.91-4.43,51.74-17.42,65.72" style="fill:none;stroke:#999;stroke-width:3"></path>

<path d="M381.88,10.38c0.71,0.36,2.23,2.72,2.37,3.44c0.14,0.73,0.07,4.39-0.07,8.92" style="fill:none;stroke:#999;stroke-width:3"></path>
<path d="M351.38,24.64c1.73,0.39,4.89,0.45,6.61,0.39c17.95-0.65,38.12-3.24,54.1-3.74c2.87-0.09,4.6,0.19,6.04,0.38" style="fill:none;stroke:#999;stroke-width:3"></path>
<path d="M358.99,25.5c0,1.18,0,2.35-0.01,3.5c-0.27,32.91-4.43,51.74-17.42,65.72" style="fill:none;stroke:#999;stroke-width:3"></path>
<path d="M341.75,38c2.74,1.63,7.07,6.71,7.75,9.25" style="fill:none;stroke:#999;stroke-width:3"></path>

<path d="M490.88,10.38c0.71,0.36,2.23,2.72,2.37,3.44c0.14,0.73,0.07,4.39-0.07,8.92" style="fill:none;stroke:#999;stroke-width:3"></path>
<path d="M460.38,24.64c1.73,0.39,4.89,0.45,6.61,0.39c17.95-0.65,38.12-3.24,54.1-3.74c2.87-0.09,4.6,0.19,6.04,0.38" style="fill:none;stroke:#999;stroke-width:3"></path>
<path d="M467.99,25.5c0,1.18,0,2.35-0.01,3.5c-0.27,32.91-4.43,51.74-17.42,65.72" style="fill:none;stroke:#999;stroke-width:3"></path>
<path d="M450.75,38c2.74,1.63,7.07,6.71,7.75,9.25" style="fill:none;stroke:#999;stroke-width:3"></path>
<path d="M447.17,66.01c1.46,0.72,1.91,0.51,3.2-0.37c5.2-3.55,8.2-5.82,12.13-8.89" style="fill:none;stroke:#999;stroke-width:3"></path>

<path d="M599.88,10.38c0.71,0.36,2.23,2.72,2.37,3.44c0.14,0.73,0.07,4.39-0.07,8.92" style="fill:none;stroke:#999;stroke-width:3"></path>
<path d="M569.38,24.64c1.73,0.39,4.89,0.45,6.61,0.39c17.95-0.65,38.12-3.24,54.1-3.74c2.87-0.09,4.6,0.19,6.04,0.38" style="fill:none;stroke:#999;stroke-width:3"></path>
<path d="M576.99,25.5c0,1.18,0,2.35-0.01,3.5c-0.27,32.91-4.43,51.74-17.42,65.72" style="fill:none;stroke:#999;stroke-width:3"></path>
<path d="M559.75,38c2.74,1.63,7.07,6.71,7.75,9.25" style="fill:none;stroke:#999;stroke-width:3"></path>
<path d="M556.1700000000001,66.01c1.46,0.72,1.91,0.51,3.2-0.37c5.2-3.55,8.2-5.82,12.13-8.89" style="fill:none;stroke:#999;stroke-width:3"></path>
<path d="M583.75,44.08c1.76,0.56,5,0.75,6.76,0.56c9.48-0.99,31-2.49,41.07-3.48c2.92-0.29,4.7,0.27,6.17,0.55" style="fill:none;stroke:#999;stroke-width:3"></path>

<path d="M708.88,10.38c0.71,0.36,2.23,2.72,2.37,3.44c0.14,0.73,0.07,4.39-0.07,8.92" style="fill:none;stroke:#999;stroke-width:3"></path>
<path d="M678.38,24.64c1.73,0.39,4.89,0.45,6.61,0.39c17.95-0.65,38.12-3.24,54.1-3.74c2.87-0.09,4.6,0.19,6.04,0.38" style="fill:none;stroke:#999;stroke-width:3"></path>
<path d="M685.99,25.5c0,1.18,0,2.35-0.01,3.5c-0.27,32.91-4.43,51.74-17.42,65.72" style="fill:none;stroke:#999;stroke-width:3"></path>
<path d="M668.75,38c2.74,1.63,7.07,6.71,7.75,9.25" style="fill:none;stroke:#999;stroke-width:3"></path>
<path d="M665.1700000000001,66.01c1.46,0.72,1.91,0.51,3.2-0.37c5.2-3.55,8.2-5.82,12.13-8.89" style="fill:none;stroke:#999;stroke-width:3"></path>
<path d="M692.75,44.08c1.76,0.56,5,0.75,6.76,0.56c9.48-0.99,31-2.49,41.07-3.48c2.92-0.29,4.7,0.27,6.17,0.55" style="fill:none;stroke:#999;stroke-width:3"></path>
<path d="M719.52,45.49c0.73,0.92,1.75,2.5,1.75,5.56c0,21.45-0.25,35.05-0.25,40.05c0,10.15-6.06,2.43-7.46,1.25" style="fill:none;stroke:#999;stroke-width:3"></path>

</svg>