<svg width="1308px" height="109px" viewBox="0 0 1308 109" xmlns="http://www.w3.org/2000/svg" xmlns:xlink="http://www.w3.org/1999/xlink" xml:space="preserve" version="1.1" baseProfile="full">
<line x1="1" y1="1" x2="1307" y2="1" style="stroke:#ddd;stroke-width:2"></line>
<line x1="1" y1="1" x2="1" y2="108" style="stroke:#ddd;stroke-width:2"></line>
<line x1="1" y1="108" x2="1307" y2="108" style="stroke:#ddd;stroke-width:2"></line>
<line x1="1307" y1="1" x2="1307" y2="108" style="stroke:#ddd;stroke-width:2"></line>
<line x1="109" y1="1" x2="109" y2="108" style="stroke:#ddd;stroke-width:2"></line>
<line x1="218" y1="1" x2="218" y2="108" style="stroke:#ddd;stroke-width:2"></line>
<line x1="327" y1="1" x2="327" y2="108" style="stroke:#ddd;stroke-width:2"></line>
<line x1="436" y1="1" x2="436" y2="108" style="stroke:#ddd;stroke-width:2"></line>
<line x1="545" y1="1" x2="545" y2="108" style="stroke:#ddd;stroke-width:2"></line>
<line x1="654" y1="1" x2="654" y2="108" style="stroke:#ddd;stroke-width:2"></line>
<line x1="763" y1="1" x2="763" y2="108" style="stroke:#ddd;stroke-width:2"></line>
<line x1="872" y1="1" x2="872" y2="108" style="stroke:#ddd;stroke-width:2"></line>
<line x1="981" y1="1" x2="981" y2="108" style="stroke:#ddd;stroke-width:2"></line>
<line x1="1090" y1="1" x2="1090" y2="108" style="stroke:#ddd;stroke-width:2"></line>
<line x1="1199" y1="1" x2="1199" y2="108" style="stroke:#ddd;stroke-width:2"></line>
<line x1="1" y1="54" x2="1307" y2="54" style="stroke:#ddd;stroke-width:2;stroke-dasharray:3 3"></line>
<line x1="55" y1="1" x2="55" y2="108" style="stroke:#ddd;stroke-width:2;stroke-dasharray:3 3"></line>
<line x1="164" y1="1" x2="164" y2="108" style="stroke:#ddd;stroke-width:2;stroke-dasharray:3 3"></line>
<line x1="273" y1="1" x2="273" y2="108" style="stroke:#ddd;stroke-width:2;stroke-dasharray:3 3"></line>
<line x1="382" y1="1" x2="382" y2="108" style="stroke:#ddd;stroke-width:2;stroke-dasharray:3 3"></line>
<line x1="491" y1="1" x2="491" y2="108" style="stroke:#ddd;stroke-width:2;stroke-dasharray:3 3"></line>
<line x1="600" y1="1" x2="600" y2="108" style="stroke:#ddd;stroke-width:2;stroke-dasharray:3 3"></line>
<line x1="709" y1="1" x2="709" y2="108" style="stroke:#ddd;stroke-width:2;stroke-dasharray:3 3"></line>
<line x1="818" y1="1" x2="818" y2="108" style="stroke:#ddd;stroke-width:2;stroke-dasharray:3 3"></line>
<line x1="927" y1="1" x2="927" y2="108" style="stroke:#ddd;stroke-width:2;stroke-dasharray:3 3"></line>
<line x1="1036" y1="1" x2="1036" y2="108" style="stroke:#ddd;stroke-width:2;stroke-dasharray:3 3"></line>
<line x1="1145" y1="1" x2="1145" y2="108" style="stroke:#ddd;stroke-width:2;stroke-dasharray:3 3"></line>
<line x1="1254" y1="1" x2="1254" y2="108" style="stroke:#ddd;stroke-width:2;stroke-dasharray:3 3"></line>
<path d="M55.06,11.38c0.97,0.97,1.26,2.49,1.26,3.9c0,0.79-0.07,4.59-0.07,7.46" style="fill:none;stroke:#999;stroke-width:3"></path>

<path d="M164.06,11.38c0.97,0.97,1.26,2.49,1.26,3.9c0,0.79-0.07,4.59-0.07,7.46" style="fill:none;stroke:#999;stroke-width:3"></path>
<path d="M135.13,25.73c2.75,0.65,5.94,0.63,8.74,0.35c15.75-1.58,34.38-3.7,48-4.74c2.76-0.21,5.53-0.35,8.25,0.23" style="fill:none;stroke:#999;stroke-width:3"></path>

<path d="M273.06,11.38c0.97,0.97,1.26,2.49,1.26,3.9c0,0.79-0.07,4.59-0.07,7.46" style="fill:none;stroke:#999;stroke-width:3"></path>
<path d="M244.13,25.73c2.75,0.65,5.94,0.63,8.74,0.35c15.75-1.58,34.38-3.7,48-4.74c2.76-0.21,5.53-0.35,8.25,0.23" style="fill:none;stroke:#999;stroke-width:3"></path>
<path d="M247.24,26.75c1,1,1.43,2.12,1.41,3.63c-0.16,16.74,1.09,47.49-14.1,62.59" style="fill:none;stroke:#999;stroke-width:3"></path>

<path d="M382.06,11.38c0.97,0.97,1.26,2.49,1.26,3.9c0,0.79-0.07,4.59-0.07,7.46" style="fill:none;stroke:#999;stroke-width:3"></path>
<path d="M353.13,25.73c2.75,0.65,5.94,0.63,8.74,0.35c15.75-1.58,34.38-3.7,48-4.74c2.76-0.21,5.53-0.35,8.25,0.23" style="fill:none;stroke:#999;stroke-width:3"></path>
<path d="M356.24,26.75c1,1,1.43,2.12,1.41,3.63c-0.16,16.74,1.09,47.49-14.1,62.59" style="fill:none;stroke:#999;stroke-width:3"></path>
<path d="M341.5,38.5c2.74,1.98,6.75,7.5,7.75,11.25" style="fill:none;stroke:#999;stroke-width:3"></path>

<path d="M491.06,11.38c0.97,0.97,1.26,2.49,1.26,3.9c0,0.79-0.07,4.59-0.07,7.46" style="fill:none;stroke:#999;stroke-width:3"></path>
<path d="M462.13,25.73c2.75,0.65,5.94,0.63,8.74,0.35c15.75-1.58,34.38-3.7,48-4.74c2.76-0.21,5.53-0.35,8.25,0.23" style="fill:none;stroke:#999;stroke-width:3"></path>
<path d="M465.24,26.75c1,1,1.43,2.12,1.41,3.63c-0.16,16.74,1.09,47.49-14.1,62.59" style="fill:none;stroke:#999;stroke-width:3"></path>
<path d="M450.5,38.5c2.74,1.98,6.75,7.5,7.75,11.25" style="fill:none;stroke:#999;stroke-width:3"></path>
<path d="M447.8,67.48c1.2,0.77,2.56,0.49,3.75-0.41c4.15-3.13,5.99-4.91,10.7-9.07" style="fill:none;stroke:#999;stroke-width:3"></path>

<path d="M600.06,11.38c0.97,0.97,1.26,2.49,1.26,3.9c0,0.79-0.07,4.59-0.07,7.46" style="fill:none;stroke:#999;stroke-width:3"></path>
<path d="M571.13,25.73c2.75,0.65,5.94,0.63,8.74,0.35c15.75-1.58,34.38-3.7,48-4.74c2.76-0.21,5.53-0.35,8.25,0.23" style="fill:none;stroke:#999;stroke-width:3"></path>
<path d="M574.24,26.75c1,1,1.43,2.12,1.41,3.63c-0.16,16.74,1.09,47.49-14.1,62.59" style="fill:none;stroke:#999;stroke-width:3"></path>
<path d="M559.5,38.5c2.74,1.98,6.75,7.5,7.75,11.25" style="fill:none;stroke:#999;stroke-width:3"></path>
<path d="M556.8,67.48c1.2,0.77,2.56,0.49,3.75-0.41c4.15-3.13,5.99-4.91,10.7-9.07" style="fill:none;stroke:#999;stroke-width:3"></path>
<path d="M588.12,35.65c1.86,0.72,3.85,0.59,5.77,0.31c5.52-0.81,21.23-3.33,27.57-4.29c3.03-0.46,3.92,1.48,1.94,3.28c-1.08,0.98-9.52,8.42-13.43,11.67" style="fill:none;stroke:#999;stroke-width:3"></path>

<path d="M709.06,11.38c0.97,0.97,1.26,2.49,1.26,3.9c0,0.79-0.07,4.59-0.07,7.46" style="fill:none;stroke:#999;stroke-width:3"></path>
<path d="M680.13,25.73c2.75,0.65,5.94,0.63,8.74,0.35c15.75-1.58,34.38-3.7,48-4.74c2.76-0.21,5.53-0.35,8.25,0.23" style="fill:none;stroke:#999;stroke-width:3"></path>
<path d="M683.24,26.75c1,1,1.43,2.12,1.41,3.63c-0.16,16.74,1.09,47.49-14.1,62.59" style="fill:none;stroke:#999;stroke-width:3"></path>
<path d="M668.5,38.5c2.74,1.98,6.75,7.5,7.75,11.25" style="fill:none;stroke:#999;stroke-width:3"></path>
<path d="M665.8,67.48c1.2,0.77,2.56,0.49,3.75-0.41c4.15-3.13,5.99-4.91,10.7-9.07" style="fill:none;stroke:#999;stroke-width:3"></path>
<path d="M697.12,35.65c1.86,0.72,3.85,0.59,5.77,0.31c5.52-0.81,21.23-3.33,27.57-4.29c3.03-0.46,3.92,1.48,1.94,3.28c-1.08,0.98-9.52,8.42-13.43,11.67" style="fill:none;stroke:#999;stroke-width:3"></path>
<path d="M710.62,42c2.46,1.01,8.81,4.89,9.97,7.52" style="fill:none;stroke:#999;stroke-width:3"></path>

<path d="M818.06,11.38c0.97,0.97,1.26,2.49,1.26,3.9c0,0.79-0.07,4.59-0.07,7.46" style="fill:none;stroke:#999;stroke-width:3"></path>
<path d="M789.13,25.73c2.75,0.65,5.94,0.63,8.74,0.35c15.75-1.58,34.38-3.7,48-4.74c2.76-0.21,5.53-0.35,8.25,0.23" style="fill:none;stroke:#999;stroke-width:3"></path>
<path d="M792.24,26.75c1,1,1.43,2.12,1.41,3.63c-0.16,16.74,1.09,47.49-14.1,62.59" style="fill:none;stroke:#999;stroke-width:3"></path>
<path d="M777.5,38.5c2.74,1.98,6.75,7.5,7.75,11.25" style="fill:none;stroke:#999;stroke-width:3"></path>
<path d="M774.8,67.48c1.2,0.77,2.56,0.49,3.75-0.41c4.15-3.13,5.99-4.91,10.7-9.07" style="fill:none;stroke:#999;stroke-width:3"></path>
<path d="M806.12,35.65c1.86,0.72,3.85,0.59,5.77,0.31c5.52-0.81,21.23-3.33,27.57-4.29c3.03-0.46,3.92,1.48,1.94,3.28c-1.08,0.98-9.52,8.42-13.43,11.67" style="fill:none;stroke:#999;stroke-width:3"></path>
<path d="M819.62,42c2.46,1.01,8.81,4.89,9.97,7.52" style="fill:none;stroke:#999;stroke-width:3"></path>
<path d="M806.69,53.34c0.8,0.8,1.12,2.03,1.12,3.37c0,2.21-0.04,23.03-0.06,34.29c0,2.91-0.01,5.18-0.01,6.33" style="fill:none;stroke:#999;stroke-width:3"></path>

<path d="M927.06,11.38c0.97,0.97,1.26,2.49,1.26,3.9c0,0.79-0.07,4.59-0.07,7.46" style="fill:none;stroke:#999;stroke-width:3"></path>
<path d="M898.13,25.73c2.75,0.65,5.94,0.63,8.74,0.35c15.75-1.58,34.38-3.7,48-4.74c2.76-0.21,5.53-0.35,8.25,0.23" style="fill:none;stroke:#999;stroke-width:3"></path>
<path d="M901.24,26.75c1,1,1.43,2.12,1.41,3.63c-0.16,16.74,1.09,47.49-14.1,62.59" style="fill:none;stroke:#999;stroke-width:3"></path>
<path d="M886.5,38.5c2.74,1.98,6.75,7.5,7.75,11.25" style="fill:none;stroke:#999;stroke-width:3"></path>
<path d="M883.8,67.48c1.2,0.77,2.56,0.49,3.75-0.41c4.15-3.13,5.99-4.91,10.7-9.07" style="fill:none;stroke:#999;stroke-width:3"></path>
<path d="M915.12,35.65c1.86,0.72,3.85,0.59,5.77,0.31c5.52-0.81,21.23-3.33,27.57-4.29c3.03-0.46,3.92,1.48,1.94,3.28c-1.08,0.98-9.52,8.42-13.43,11.67" style="fill:none;stroke:#999;stroke-width:3"></path>
<path d="M928.62,42c2.46,1.01,8.81,4.89,9.97,7.52" style="fill:none;stroke:#999;stroke-width:3"></path>
<path d="M915.69,53.34c0.8,0.8,1.12,2.03,1.12,3.37c0,2.21-0.04,23.03-0.06,34.29c0,2.91-0.01,5.18-0.01,6.33" style="fill:none;stroke:#999;stroke-width:3"></path>
<path d="M917.69,54.58c5.56-0.48,28.31-3.66,34.85-4.51c3.28-0.43,5.3,0.81,5.3,3.94c0,5.3-0.2,26.65-0.2,36.7c0,10.54-5.86,1.49-7.05,1.07" style="fill:none;stroke:#999;stroke-width:3"></path>

<path d="M1036.06,11.38c0.97,0.97,1.26,2.49,1.26,3.9c0,0.79-0.07,4.59-0.07,7.46" style="fill:none;stroke:#999;stroke-width:3"></path>
<path d="M1007.13,25.73c2.75,0.65,5.94,0.63,8.74,0.35c15.75-1.58,34.38-3.7,48-4.74c2.76-0.21,5.53-0.35,8.25,0.23" style="fill:none;stroke:#999;stroke-width:3"></path>
<path d="M1010.24,26.75c1,1,1.43,2.12,1.41,3.63c-0.16,16.74,1.09,47.49-14.1,62.59" style="fill:none;stroke:#999;stroke-width:3"></path>
<path d="M995.5,38.5c2.74,1.98,6.75,7.5,7.75,11.25" style="fill:none;stroke:#999;stroke-width:3"></path>
<path d="M992.8,67.48c1.2,0.77,2.56,0.49,3.75-0.41c4.15-3.13,5.99-4.91,10.7-9.07" style="fill:none;stroke:#999;stroke-width:3"></path>
<path d="M1024.12,35.65c1.86,0.72,3.85,0.59,5.77,0.31c5.52-0.81,21.23-3.33,27.57-4.29c3.03-0.46,3.92,1.48,1.94,3.28c-1.08,0.98-9.52,8.42-13.43,11.67" style="fill:none;stroke:#999;stroke-width:3"></path>
<path d="M1037.62,42c2.46,1.01,8.81,4.89,9.97,7.52" style="fill:none;stroke:#999;stroke-width:3"></path>
<path d="M1024.69,53.34c0.8,0.8,1.12,2.03,1.12,3.37c0,2.21-0.04,23.03-0.06,34.29c0,2.91-0.01,5.18-0.01,6.33" style="fill:none;stroke:#999;stroke-width:3"></path>
<path d="M1026.69,54.58c5.56-0.48,28.31-3.66,34.85-4.51c3.28-0.43,5.3,0.81,5.3,3.94c0,5.3-0.2,26.65-0.2,36.7c0,10.54-5.86,1.49-7.05,1.07" style="fill:none;stroke:#999;stroke-width:3"></path>
<path d="M1026.69,66.9c9.68-1.15,28.18-3.53,39.2-3.96" style="fill:none;stroke:#999;stroke-width:3"></path>

<path d="M1145.06,11.38c0.97,0.97,1.26,2.49,1.26,3.9c0,0.79-0.07,4.59-0.07,7.46" style="fill:none;stroke:#999;stroke-width:3"></path>
<path d="M1116.13,25.73c2.75,0.65,5.94,0.63,8.74,0.35c15.75-1.58,34.38-3.7,48-4.74c2.76-0.21,5.53-0.35,8.25,0.23" style="fill:none;stroke:#999;stroke-width:3"></path>
<path d="M1119.24,26.75c1,1,1.43,2.12,1.41,3.63c-0.16,16.74,1.09,47.49-14.1,62.59" style="fill:none;stroke:#999;stroke-width:3"></path>
<path d="M1104.5,38.5c2.74,1.98,6.75,7.5,7.75,11.25" style="fill:none;stroke:#999;stroke-width:3"></path>
<path d="M1101.8,67.48c1.2,0.77,2.56,0.49,3.75-0.41c4.15-3.13,5.99-4.91,10.7-9.07" style="fill:none;stroke:#999;stroke-width:3"></path>
<path d="M1133.12,35.65c1.86,0.72,3.85,0.59,5.77,0.31c5.52-0.81,21.23-3.33,27.57-4.29c3.03-0.46,3.92,1.48,1.94,3.28c-1.08,0.98-9.52,8.42-13.43,11.67" style="fill:none;stroke:#999;stroke-width:3"></path>
<path d="M1146.62,42c2.46,1.01,8.81,4.89,9.97,7.52" style="fill:none;stroke:#999;stroke-width:3"></path>
<path d="M1133.69,53.34c0.8,0.8,1.12,2.03,1.12,3.37c0,2.21-0.04,23.03-0.06,34.29c0,2.91-0.01,5.18-0.01,6.33" style="fill:none;stroke:#999;stroke-width:3"></path>
<path d="M1135.69,54.58c5.56-0.48,28.31-3.66,34.85-4.51c3.28-0.43,5.3,0.81,5.3,3.94c0,5.3-0.2,26.65-0.2,36.7c0,10.54-5.86,1.49-7.05,1.07" style="fill:none;stroke:#999;stroke-width:3"></path>
<path d="M1135.69,66.9c9.68-1.15,28.18-3.53,39.2-3.96" style="fill:none;stroke:#999;stroke-width:3"></path>
<path d="M1135.67,80.22c6-0.71,29.58-3.59,38.99-3.91" style="fill:none;stroke:#999;stroke-width:3"></path>

<path d="M1254.06,11.38c0.97,0.97,1.26,2.49,1.26,3.9c0,0.79-0.07,4.59-0.07,7.46" style="fill:none;stroke:#999;stroke-width:3"></path>
<path d="M1225.13,25.73c2.75,0.65,5.94,0.63,8.74,0.35c15.75-1.58,34.38-3.7,48-4.74c2.76-0.21,5.53-0.35,8.25,0.23" style="fill:none;stroke:#999;stroke-width:3"></path>
<path d="M1228.24,26.75c1,1,1.43,2.12,1.41,3.63c-0.16,16.74,1.09,47.49-14.1,62.59" style="fill:none;stroke:#999;stroke-width:3"></path>
<path d="M1213.5,38.5c2.74,1.98,6.75,7.5,7.75,11.25" style="fill:none;stroke:#999;stroke-width:3"></path>
<path d="M1210.8,67.48c1.2,0.77,2.56,0.49,3.75-0.41c4.15-3.13,5.99-4.91,10.7-9.07" style="fill:none;stroke:#999;stroke-width:3"></path>
<path d="M1242.12,35.65c1.86,0.72,3.85,0.59,5.77,0.31c5.52-0.81,21.23-3.33,27.57-4.29c3.03-0.46,3.92,1.48,1.94,3.28c-1.08,0.98-9.52,8.42-13.43,11.67" style="fill:none;stroke:#999;stroke-width:3"></path>
<path d="M1255.62,42c2.46,1.01,8.81,4.89,9.97,7.52" style="fill:none;stroke:#999;stroke-width:3"></path>
<path d="M1242.69,53.34c0.8,0.8,1.12,2.03,1.12,3.37c0,2.21-0.04,23.03-0.06,34.29c0,2.91-0.01,5.18-0.01,6.33" style="fill:none;stroke:#999;stroke-width:3"></path>
<path d="M1244.69,54.58c5.56-0.48,28.31-3.66,34.85-4.51c3.28-0.43,5.3,0.81,5.3,3.94c0,5.3-0.2,26.65-0.2,36.7c0,10.54-5.86,1.49-7.05,1.07" style="fill:none;stroke:#999;stroke-width:3"></path>
<path d="M1244.69,66.9c9.68-1.15,28.18-3.53,39.2-3.96" style="fill:none;stroke:#999;stroke-width:3"></path>
<path d="M1244.67,80.22c6-0.71,29.58-3.59,38.99-3.91" style="fill:none;stroke:#999;stroke-width:3"></path>
<path d="M1262.11,55.17c0.92,0.92,1.09,2.2,1.09,3.44c0,5.45-0.11,19.21-0.14,31.39c-0.01,2.1-0.01,4.07-0.01,5.85" style="fill:none;stroke:#999;stroke-width:3"></path>

</svg>