<svg width="872px" height="109px" viewBox="0 0 872 109" xmlns="http://www.w3.org/2000/svg" xmlns:xlink="http://www.w3.org/1999/xlink" xml:space="preserve" version="1.1" baseProfile="full">
<line x1="1" y1="1" x2="871" y2="1" style="stroke:#ddd;stroke-width:2"></line>
<line x1="1" y1="1" x2="1" y2="108" style="stroke:#ddd;stroke-width:2"></line>
<line x1="1" y1="108" x2="871" y2="108" style="stroke:#ddd;stroke-width:2"></line>
<line x1="871" y1="1" x2="871" y2="108" style="stroke:#ddd;stroke-width:2"></line>
<line x1="109" y1="1" x2="109" y2="108" style="stroke:#ddd;stroke-width:2"></line>
<line x1="218" y1="1" x2="218" y2="108" style="stroke:#ddd;stroke-width:2"></line>
<line x1="327" y1="1" x2="327" y2="108" style="stroke:#ddd;stroke-width:2"></line>
<line x1="436" y1="1" x2="436" y2="108" style="stroke:#ddd;stroke-width:2"></line>
<line x1="545" y1="1" x2="545" y2="108" style="stroke:#ddd;stroke-width:2"></line>
<line x1="654" y1="1" x2="654" y2="108" style="stroke:#ddd;stroke-width:2"></line>
<line x1="763" y1="1" x2="763" y2="108" style="stroke:#ddd;stroke-width:2"></line>
<line x1="1" y1="54" x2="871" y2="54" style="stroke:#ddd;stroke-width:2;stroke-dasharray:3 3"></line>
<line x1="55" y1="1" x2="55" y2="108" style="stroke:#ddd;stroke-width:2;stroke-dasharray:3 3"></line>
<line x1="164" y1="1" x2="164" y2="108" style="stroke:#ddd;stroke-width:2;stroke-dasharray:3 3"></line>
<line x1="273" y1="1" x2="273" y2="108" style="stroke:#ddd;stroke-width:2;stroke-dasharray:3 3"></line>
<line x1="382" y1="1" x2="382" y2="108" style="stroke:#ddd;stroke-width:2;stroke-dasharray:3 3"></line>
<line x1="491" y1="1" x2="491" y2="108" style="stroke:#ddd;stroke-width:2;stroke-dasharray:3 3"></line>
<line x1="600" y1="1" x2="600" y2="108" style="stroke:#ddd;stroke-width:2;stroke-dasharray:3 3"></line>
<line x1="709" y1="1" x2="709" y2="108" style="stroke:#ddd;stroke-width:2;stroke-dasharray:3 3"></line>
<line x1="818" y1="1" x2="818" y2="108" style="stroke:#ddd;stroke-width:2;stroke-dasharray:3 3"></line>
<path d="M29.46,15.75c0.35,0.64,0.41,1.67,0.32,2.22c-0.49,3.27-4.77,11.11-8.65,15.51" style="fill:none;stroke:#999;stroke-width:3"></path>

<path d="M138.46,15.75c0.35,0.64,0.41,1.67,0.32,2.22c-0.49,3.27-4.77,11.11-8.65,15.51" style="fill:none;stroke:#999;stroke-width:3"></path>
<path d="M123.25,35.72c0.89,0.89,1.19,2.18,1.19,3.68c0,2.11,0.91,25.66,1.17,36.84c0.05,1.93,0.07,3.49,0.07,4.51" style="fill:none;stroke:#999;stroke-width:3"></path>

<path d="M247.46,15.75c0.35,0.64,0.41,1.67,0.32,2.22c-0.49,3.27-4.77,11.11-8.65,15.51" style="fill:none;stroke:#999;stroke-width:3"></path>
<path d="M232.25,35.72c0.89,0.89,1.19,2.18,1.19,3.68c0,2.11,0.91,25.66,1.17,36.84c0.05,1.93,0.07,3.49,0.07,4.51" style="fill:none;stroke:#999;stroke-width:3"></path>
<path d="M233.72,37.36c3.41-0.52,16.99-3.12,22.54-3.97c3.29-0.5,5.26-0.07,5.25,3.61c-0.02,5.82-0.09,24.19-0.11,36.61c0,2.01-0.01,3.87-0.01,5.49" style="fill:none;stroke:#999;stroke-width:3"></path>

<path d="M356.46000000000004,15.75c0.35,0.64,0.41,1.67,0.32,2.22c-0.49,3.27-4.77,11.11-8.65,15.51" style="fill:none;stroke:#999;stroke-width:3"></path>
<path d="M341.25,35.72c0.89,0.89,1.19,2.18,1.19,3.68c0,2.11,0.91,25.66,1.17,36.84c0.05,1.93,0.07,3.49,0.07,4.51" style="fill:none;stroke:#999;stroke-width:3"></path>
<path d="M342.72,37.36c3.41-0.52,16.99-3.12,22.54-3.97c3.29-0.5,5.26-0.07,5.25,3.61c-0.02,5.82-0.09,24.19-0.11,36.61c0,2.01-0.01,3.87-0.01,5.49" style="fill:none;stroke:#999;stroke-width:3"></path>
<path d="M344.18,56.11c6.07-0.74,18.94-2.74,25.12-3.01" style="fill:none;stroke:#999;stroke-width:3"></path>

<path d="M465.46000000000004,15.75c0.35,0.64,0.41,1.67,0.32,2.22c-0.49,3.27-4.77,11.11-8.65,15.51" style="fill:none;stroke:#999;stroke-width:3"></path>
<path d="M450.25,35.72c0.89,0.89,1.19,2.18,1.19,3.68c0,2.11,0.91,25.66,1.17,36.84c0.05,1.93,0.07,3.49,0.07,4.51" style="fill:none;stroke:#999;stroke-width:3"></path>
<path d="M451.72,37.36c3.41-0.52,16.99-3.12,22.54-3.97c3.29-0.5,5.26-0.07,5.25,3.61c-0.02,5.82-0.09,24.19-0.11,36.61c0,2.01-0.01,3.87-0.01,5.49" style="fill:none;stroke:#999;stroke-width:3"></path>
<path d="M453.18,56.11c6.07-0.74,18.94-2.74,25.12-3.01" style="fill:none;stroke:#999;stroke-width:3"></path>
<path d="M453.71,77.44c7.54-0.69,16.16-2.07,24.53-2.39" style="fill:none;stroke:#999;stroke-width:3"></path>

<path d="M574.46,15.75c0.35,0.64,0.41,1.67,0.32,2.22c-0.49,3.27-4.77,11.11-8.65,15.51" style="fill:none;stroke:#999;stroke-width:3"></path>
<path d="M559.25,35.72c0.89,0.89,1.19,2.18,1.19,3.68c0,2.11,0.91,25.66,1.17,36.84c0.05,1.93,0.07,3.49,0.07,4.51" style="fill:none;stroke:#999;stroke-width:3"></path>
<path d="M560.72,37.36c3.41-0.52,16.99-3.12,22.54-3.97c3.29-0.5,5.26-0.07,5.25,3.61c-0.02,5.82-0.09,24.19-0.11,36.61c0,2.01-0.01,3.87-0.01,5.49" style="fill:none;stroke:#999;stroke-width:3"></path>
<path d="M562.1800000000001,56.11c6.07-0.74,18.94-2.74,25.12-3.01" style="fill:none;stroke:#999;stroke-width:3"></path>
<path d="M562.71,77.44c7.54-0.69,16.16-2.07,24.53-2.39" style="fill:none;stroke:#999;stroke-width:3"></path>
<path d="M609.89,14.37c0.04,0.8,0.17,2.08-0.09,3.21c-1.55,6.8-6.05,19.3-14.54,29.21" style="fill:none;stroke:#999;stroke-width:3"></path>

<path d="M683.46,15.75c0.35,0.64,0.41,1.67,0.32,2.22c-0.49,3.27-4.77,11.11-8.65,15.51" style="fill:none;stroke:#999;stroke-width:3"></path>
<path d="M668.25,35.72c0.89,0.89,1.19,2.18,1.19,3.68c0,2.11,0.91,25.66,1.17,36.84c0.05,1.93,0.07,3.49,0.07,4.51" style="fill:none;stroke:#999;stroke-width:3"></path>
<path d="M669.72,37.36c3.41-0.52,16.99-3.12,22.54-3.97c3.29-0.5,5.26-0.07,5.25,3.61c-0.02,5.82-0.09,24.19-0.11,36.61c0,2.01-0.01,3.87-0.01,5.49" style="fill:none;stroke:#999;stroke-width:3"></path>
<path d="M671.1800000000001,56.11c6.07-0.74,18.94-2.74,25.12-3.01" style="fill:none;stroke:#999;stroke-width:3"></path>
<path d="M671.71,77.44c7.54-0.69,16.16-2.07,24.53-2.39" style="fill:none;stroke:#999;stroke-width:3"></path>
<path d="M718.89,14.37c0.04,0.8,0.17,2.08-0.09,3.21c-1.55,6.8-6.05,19.3-14.54,29.21" style="fill:none;stroke:#999;stroke-width:3"></path>
<path d="M716.32,33.03c1.18,0.47,2.77,0.42,4.2,0.19c4.61-0.73,16.98-2.6,22-3.5c3.41-0.61,5.99,0.75,5.47,5.41c-1.24,11.11-6.11,42.49-14.1,57c-2.72,4.94-5.76,1.98-8.53-0.61" style="fill:none;stroke:#999;stroke-width:3"></path>

<path d="M792.46,15.75c0.35,0.64,0.41,1.67,0.32,2.22c-0.49,3.27-4.77,11.11-8.65,15.51" style="fill:none;stroke:#999;stroke-width:3"></path>
<path d="M777.25,35.72c0.89,0.89,1.19,2.18,1.19,3.68c0,2.11,0.91,25.66,1.17,36.84c0.05,1.93,0.07,3.49,0.07,4.51" style="fill:none;stroke:#999;stroke-width:3"></path>
<path d="M778.72,37.36c3.41-0.52,16.99-3.12,22.54-3.97c3.29-0.5,5.26-0.07,5.25,3.61c-0.02,5.82-0.09,24.19-0.11,36.61c0,2.01-0.01,3.87-0.01,5.49" style="fill:none;stroke:#999;stroke-width:3"></path>
<path d="M780.1800000000001,56.11c6.07-0.74,18.94-2.74,25.12-3.01" style="fill:none;stroke:#999;stroke-width:3"></path>
<path d="M780.71,77.44c7.54-0.69,16.16-2.07,24.53-2.39" style="fill:none;stroke:#999;stroke-width:3"></path>
<path d="M827.89,14.37c0.04,0.8,0.17,2.08-0.09,3.21c-1.55,6.8-6.05,19.3-14.54,29.21" style="fill:none;stroke:#999;stroke-width:3"></path>
<path d="M825.32,33.03c1.18,0.47,2.77,0.42,4.2,0.19c4.61-0.73,16.98-2.6,22-3.5c3.41-0.61,5.99,0.75,5.47,5.41c-1.24,11.11-6.11,42.49-14.1,57c-2.72,4.94-5.76,1.98-8.53-0.61" style="fill:none;stroke:#999;stroke-width:3"></path>
<path d="M823.38,53.93c3.35,2.26,8.65,9.31,9.49,12.84" style="fill:none;stroke:#999;stroke-width:3"></path>

</svg>