<svg width="545px" height="109px" viewBox="0 0 545 109" xmlns="http://www.w3.org/2000/svg" xmlns:xlink="http://www.w3.org/1999/xlink" xml:space="preserve" version="1.1" baseProfile="full">
<line x1="1" y1="1" x2="544" y2="1" style="stroke:#ddd;stroke-width:2"></line>
<line x1="1" y1="1" x2="1" y2="108" style="stroke:#ddd;stroke-width:2"></line>
<line x1="1" y1="108" x2="544" y2="108" style="stroke:#ddd;stroke-width:2"></line>
<line x1="544" y1="1" x2="544" y2="108" style="stroke:#ddd;stroke-width:2"></line>
<line x1="109" y1="1" x2="109" y2="108" style="stroke:#ddd;stroke-width:2"></line>
<line x1="218" y1="1" x2="218" y2="108" style="stroke:#ddd;stroke-width:2"></line>
<line x1="327" y1="1" x2="327" y2="108" style="stroke:#ddd;stroke-width:2"></line>
<line x1="436" y1="1" x2="436" y2="108" style="stroke:#ddd;stroke-width:2"></line>
<line x1="1" y1="54" x2="544" y2="54" style="stroke:#ddd;stroke-width:2;stroke-dasharray:3 3"></line>
<line x1="55" y1="1" x2="55" y2="108" style="stroke:#ddd;stroke-width:2;stroke-dasharray:3 3"></line>
<line x1="164" y1="1" x2="164" y2="108" style="stroke:#ddd;stroke-width:2;stroke-dasharray:3 3"></line>
<line x1="273" y1="1" x2="273" y2="108" style="stroke:#ddd;stroke-width:2;stroke-dasharray:3 3"></line>
<line x1="382" y1="1" x2="382" y2="108" style="stroke:#ddd;stroke-width:2;stroke-dasharray:3 3"></line>
<line x1="491" y1="1" x2="491" y2="108" style="stroke:#ddd;stroke-width:2;stroke-dasharray:3 3"></line>
<path d="M22.41,32.87c1.3,1.3,1.71,2.72,1.7,5.07C24.0,64.5,22.0,80.88,11.87,92.63" style="fill:none;stroke:#999;stroke-width:3"></path>

<path d="M131.41,32.87c1.3,1.3,1.71,2.72,1.7,5.07C133.0,64.5,131.0,80.88,120.87,92.63" style="fill:none;stroke:#999;stroke-width:3"></path>
<path d="M134.14,35.26C154.12,32,175.62,29.62,184.7,29.09c12.11-0.72,5.93,5.29,0.8,10.28" style="fill:none;stroke:#999;stroke-width:3"></path>

<path d="M240.41,32.87c1.3,1.3,1.71,2.72,1.7,5.07C242.0,64.5,240.0,80.88,229.87,92.63" style="fill:none;stroke:#999;stroke-width:3"></path>
<path d="M243.14,35.26C263.12,32,284.62,29.62,293.7,29.09c12.11-0.72,5.93,5.29,0.8,10.28" style="fill:none;stroke:#999;stroke-width:3"></path>
<path d="M269.87,13.75c1.06,1.06,1.46,2.5,1.46,3.75c0,1.02-0.08,23-0.08,33.25" style="fill:none;stroke:#999;stroke-width:3"></path>

<path d="M349.40999999999997,32.87c1.3,1.3,1.71,2.72,1.7,5.07C351.0,64.5,349.0,80.88,338.87,92.63" style="fill:none;stroke:#999;stroke-width:3"></path>
<path d="M352.14,35.26C372.12,32,393.62,29.62,402.7,29.09c12.11-0.72,5.93,5.29,0.8,10.28" style="fill:none;stroke:#999;stroke-width:3"></path>
<path d="M378.87,13.75c1.06,1.06,1.46,2.5,1.46,3.75c0,1.02-0.08,23-0.08,33.25" style="fill:none;stroke:#999;stroke-width:3"></path>
<path d="M363.0,53.94c2.02,0.49,4.11,0.19,6.13-0.17c5.68-1,21.7-4.05,23.58-4.54c3.29-0.86,4.96,0.72,3.12,4.31C386.12,72.5,370.38,85.99,352.0,95.17" style="fill:none;stroke:#999;stroke-width:3"></path>

<path d="M458.40999999999997,32.87c1.3,1.3,1.71,2.72,1.7,5.07C460.0,64.5,458.0,80.88,447.87,92.63" style="fill:none;stroke:#999;stroke-width:3"></path>
<path d="M461.14,35.26C481.12,32,502.62,29.62,511.7,29.09c12.11-0.72,5.93,5.29,0.8,10.28" style="fill:none;stroke:#999;stroke-width:3"></path>
<path d="M487.87,13.75c1.06,1.06,1.46,2.5,1.46,3.75c0,1.02-0.08,23-0.08,33.25" style="fill:none;stroke:#999;stroke-width:3"></path>
<path d="M472.0,53.94c2.02,0.49,4.11,0.19,6.13-0.17c5.68-1,21.7-4.05,23.58-4.54c3.29-0.86,4.96,0.72,3.12,4.31C495.12,72.5,479.38,85.99,461.0,95.17" style="fill:none;stroke:#999;stroke-width:3"></path>
<path d="M472.23,62.9c4.67,0.76,26.56,20.08,43.46,29.57c3.08,1.73,6.32,3.56,9.84,4.21" style="fill:none;stroke:#999;stroke-width:3"></path>

</svg>