<svg width="545px" height="109px" viewBox="0 0 545 109" xmlns="http://www.w3.org/2000/svg" xmlns:xlink="http://www.w3.org/1999/xlink" xml:space="preserve" version="1.1" baseProfile="full">
<line x1="1" y1="1" x2="544" y2="1" style="stroke:#ddd;stroke-width:2"></line>
<line x1="1" y1="1" x2="1" y2="108" style="stroke:#ddd;stroke-width:2"></line>
<line x1="1" y1="108" x2="544" y2="108" style="stroke:#ddd;stroke-width:2"></line>
<line x1="544" y1="1" x2="544" y2="108" style="stroke:#ddd;stroke-width:2"></line>
<line x1="109" y1="1" x2="109" y2="108" style="stroke:#ddd;stroke-width:2"></line>
<line x1="218" y1="1" x2="218" y2="108" style="stroke:#ddd;stroke-width:2"></line>
<line x1="327" y1="1" x2="327" y2="108" style="stroke:#ddd;stroke-width:2"></line>
<line x1="436" y1="1" x2="436" y2="108" style="stroke:#ddd;stroke-width:2"></line>
<line x1="1" y1="54" x2="544" y2="54" style="stroke:#ddd;stroke-width:2;stroke-dasharray:3 3"></line>
<line x1="55" y1="1" x2="55" y2="108" style="stroke:#ddd;stroke-width:2;stroke-dasharray:3 3"></line>
<line x1="164" y1="1" x2="164" y2="108" style="stroke:#ddd;stroke-width:2;stroke-dasharray:3 3"></line>
<line x1="273" y1="1" x2="273" y2="108" style="stroke:#ddd;stroke-width:2;stroke-dasharray:3 3"></line>
<line x1="382" y1="1" x2="382" y2="108" style="stroke:#ddd;stroke-width:2;stroke-dasharray:3 3"></line>
<line x1="491" y1="1" x2="491" y2="108" style="stroke:#ddd;stroke-width:2;stroke-dasharray:3 3"></line>
<path d="M22.82,32.31c1.06,1.06,1.81,2.48,1.91,3.5c1.02,9.81,2.57,27.99,3.45,42.44" style="fill:none;stroke:#999;stroke-width:3"></path>

<path d="M131.82,32.31c1.06,1.06,1.81,2.48,1.91,3.5c1.02,9.81,2.57,27.99,3.45,42.44" style="fill:none;stroke:#999;stroke-width:3"></path>
<path d="M134.92000000000002,34.83c11.91-1.45,43.51-3.98,54.7-4.6C193.75,30,196.5,31.38,195.76999999999998,36c-1.51,9.6-5.02,33.87-6.11,40.42" style="fill:none;stroke:#999;stroke-width:3"></path>

<path d="M240.82,32.31c1.06,1.06,1.81,2.48,1.91,3.5c1.02,9.81,2.57,27.99,3.45,42.44" style="fill:none;stroke:#999;stroke-width:3"></path>
<path d="M243.92000000000002,34.83c11.91-1.45,43.51-3.98,54.7-4.6C302.75,30,305.5,31.38,304.77,36c-1.51,9.6-5.02,33.87-6.11,40.42" style="fill:none;stroke:#999;stroke-width:3"></path>
<path d="M260.65999999999997,35.06c0.77,0.77,1.2,1.9,1.28,2.86c0.69,8.96,1.66,26.03,2.41,39.66" style="fill:none;stroke:#999;stroke-width:3"></path>

<path d="M349.82,32.31c1.06,1.06,1.81,2.48,1.91,3.5c1.02,9.81,2.57,27.99,3.45,42.44" style="fill:none;stroke:#999;stroke-width:3"></path>
<path d="M352.92,34.83c11.91-1.45,43.51-3.98,54.7-4.6C411.75,30,414.5,31.38,413.77,36c-1.51,9.6-5.02,33.87-6.11,40.42" style="fill:none;stroke:#999;stroke-width:3"></path>
<path d="M369.65999999999997,35.06c0.77,0.77,1.2,1.9,1.28,2.86c0.69,8.96,1.66,26.03,2.41,39.66" style="fill:none;stroke:#999;stroke-width:3"></path>
<path d="M390.92,33.33c0.58,0.92,0.89,2.48,0.79,3.67c-0.96,11.75-2.03,24.78-3.21,39.83" style="fill:none;stroke:#999;stroke-width:3"></path>

<path d="M458.82,32.31c1.06,1.06,1.81,2.48,1.91,3.5c1.02,9.81,2.57,27.99,3.45,42.44" style="fill:none;stroke:#999;stroke-width:3"></path>
<path d="M461.92,34.83c11.91-1.45,43.51-3.98,54.7-4.6C520.75,30,523.5,31.38,522.77,36c-1.51,9.6-5.02,33.87-6.11,40.42" style="fill:none;stroke:#999;stroke-width:3"></path>
<path d="M478.65999999999997,35.06c0.77,0.77,1.2,1.9,1.28,2.86c0.69,8.96,1.66,26.03,2.41,39.66" style="fill:none;stroke:#999;stroke-width:3"></path>
<path d="M499.92,33.33c0.58,0.92,0.89,2.48,0.79,3.67c-0.96,11.75-2.03,24.78-3.21,39.83" style="fill:none;stroke:#999;stroke-width:3"></path>
<path d="M446.13,79.32c2.81,0.92,7.95,1.09,10.76,0.92c24.86-1.49,46.49-2.49,66.92-2.69c4.67-0.05,7.48,0.44,9.82,0.9" style="fill:none;stroke:#999;stroke-width:3"></path>

</svg>