<svg width="545px" height="109px" viewBox="0 0 545 109" xmlns="http://www.w3.org/2000/svg" xmlns:xlink="http://www.w3.org/1999/xlink" xml:space="preserve" version="1.1" baseProfile="full">
<line x1="1" y1="1" x2="544" y2="1" style="stroke:#ddd;stroke-width:2"></line>
<line x1="1" y1="1" x2="1" y2="108" style="stroke:#ddd;stroke-width:2"></line>
<line x1="1" y1="108" x2="544" y2="108" style="stroke:#ddd;stroke-width:2"></line>
<line x1="544" y1="1" x2="544" y2="108" style="stroke:#ddd;stroke-width:2"></line>
<line x1="109" y1="1" x2="109" y2="108" style="stroke:#ddd;stroke-width:2"></line>
<line x1="218" y1="1" x2="218" y2="108" style="stroke:#ddd;stroke-width:2"></line>
<line x1="327" y1="1" x2="327" y2="108" style="stroke:#ddd;stroke-width:2"></line>
<line x1="436" y1="1" x2="436" y2="108" style="stroke:#ddd;stroke-width:2"></line>
<line x1="1" y1="54" x2="544" y2="54" style="stroke:#ddd;stroke-width:2;stroke-dasharray:3 3"></line>
<line x1="55" y1="1" x2="55" y2="108" style="stroke:#ddd;stroke-width:2;stroke-dasharray:3 3"></line>
<line x1="164" y1="1" x2="164" y2="108" style="stroke:#ddd;stroke-width:2;stroke-dasharray:3 3"></line>
<line x1="273" y1="1" x2="273" y2="108" style="stroke:#ddd;stroke-width:2;stroke-dasharray:3 3"></line>
<line x1="382" y1="1" x2="382" y2="108" style="stroke:#ddd;stroke-width:2;stroke-dasharray:3 3"></line>
<line x1="491" y1="1" x2="491" y2="108" style="stroke:#ddd;stroke-width:2;stroke-dasharray:3 3"></line>
<path d="M29.75,19.05c1.35,1.35,1.86,3.21,1.86,5.47c0,1.77,0.19,42.37,0.06,60.23c-0.04,4.91-0.06,8.11-0.06,8.36" style="fill:none;stroke:#999;stroke-width:3"></path>

<path d="M138.75,19.05c1.35,1.35,1.86,3.21,1.86,5.47c0,1.77,0.19,42.37,0.06,60.23c-0.04,4.91-0.06,8.11-0.06,8.36" style="fill:none;stroke:#999;stroke-width:3"></path>
<path d="M141.54,21.39c10.92-1.23,38.33-4.11,41.42-4.38c3.25-0.28,5.54,1.25,5.54,4.18c0,8.95-0.26,39.93-0.26,64.82c0,3,0.01,3.75,0.01,6" style="fill:none;stroke:#999;stroke-width:3"></path>

<path d="M247.75,19.05c1.35,1.35,1.86,3.21,1.86,5.47c0,1.77,0.19,42.37,0.06,60.23c-0.04,4.91-0.06,8.11-0.06,8.36" style="fill:none;stroke:#999;stroke-width:3"></path>
<path d="M250.54,21.39c10.92-1.23,38.33-4.11,41.42-4.38c3.25-0.28,5.54,1.25,5.54,4.18c0,8.95-0.26,39.93-0.26,64.82c0,3,0.01,3.75,0.01,6" style="fill:none;stroke:#999;stroke-width:3"></path>
<path d="M251.05,43.64c12.45-1.51,34.83-3.51,45.18-4.09" style="fill:none;stroke:#999;stroke-width:3"></path>

<path d="M356.75,19.05c1.35,1.35,1.86,3.21,1.86,5.47c0,1.77,0.19,42.37,0.06,60.23c-0.04,4.91-0.06,8.11-0.06,8.36" style="fill:none;stroke:#999;stroke-width:3"></path>
<path d="M359.53999999999996,21.39c10.92-1.23,38.33-4.11,41.42-4.38c3.25-0.28,5.54,1.25,5.54,4.18c0,8.95-0.26,39.93-0.26,64.82c0,3,0.01,3.75,0.01,6" style="fill:none;stroke:#999;stroke-width:3"></path>
<path d="M360.05,43.64c12.45-1.51,34.83-3.51,45.18-4.09" style="fill:none;stroke:#999;stroke-width:3"></path>
<path d="M359.9,65.95C371.25,65,393.0,62.88,404.72,62.56" style="fill:none;stroke:#999;stroke-width:3"></path>

<path d="M465.75,19.05c1.35,1.35,1.86,3.21,1.86,5.47c0,1.77,0.19,42.37,0.06,60.23c-0.04,4.91-0.06,8.11-0.06,8.36" style="fill:none;stroke:#999;stroke-width:3"></path>
<path d="M468.53999999999996,21.39c10.92-1.23,38.33-4.11,41.42-4.38c3.25-0.28,5.54,1.25,5.54,4.18c0,8.95-0.26,39.93-0.26,64.82c0,3,0.01,3.75,0.01,6" style="fill:none;stroke:#999;stroke-width:3"></path>
<path d="M469.05,43.64c12.45-1.51,34.83-3.51,45.18-4.09" style="fill:none;stroke:#999;stroke-width:3"></path>
<path d="M468.9,65.95C480.25,65,502.0,62.88,513.72,62.56" style="fill:none;stroke:#999;stroke-width:3"></path>
<path d="M469.0,90.5c9.75-0.5,33.25-2.5,44.79-2.53" style="fill:none;stroke:#999;stroke-width:3"></path>

</svg>