<svg width="1090px" height="109px" viewBox="0 0 1090 109" xmlns="http://www.w3.org/2000/svg" xmlns:xlink="http://www.w3.org/1999/xlink" xml:space="preserve" version="1.1" baseProfile="full">
<line x1="1" y1="1" x2="1089" y2="1" style="stroke:#ddd;stroke-width:2"></line>
<line x1="1" y1="1" x2="1" y2="108" style="stroke:#ddd;stroke-width:2"></line>
<line x1="1" y1="108" x2="1089" y2="108" style="stroke:#ddd;stroke-width:2"></line>
<line x1="1089" y1="1" x2="1089" y2="108" style="stroke:#ddd;stroke-width:2"></line>
<line x1="109" y1="1" x2="109" y2="108" style="stroke:#ddd;stroke-width:2"></line>
<line x1="218" y1="1" x2="218" y2="108" style="stroke:#ddd;stroke-width:2"></line>
<line x1="327" y1="1" x2="327" y2="108" style="stroke:#ddd;stroke-width:2"></line>
<line x1="436" y1="1" x2="436" y2="108" style="stroke:#ddd;stroke-width:2"></line>
<line x1="545" y1="1" x2="545" y2="108" style="stroke:#ddd;stroke-width:2"></line>
<line x1="654" y1="1" x2="654" y2="108" style="stroke:#ddd;stroke-width:2"></line>
<line x1="763" y1="1" x2="763" y2="108" style="stroke:#ddd;stroke-width:2"></line>
<line x1="872" y1="1" x2="872" y2="108" style="stroke:#ddd;stroke-width:2"></line>
<line x1="981" y1="1" x2="981" y2="108" style="stroke:#ddd;stroke-width:2"></line>
<line x1="1" y1="54" x2="1089" y2="54" style="stroke:#ddd;stroke-width:2;stroke-dasharray:3 3"></line>
<line x1="55" y1="1" x2="55" y2="108" style="stroke:#ddd;stroke-width:2;stroke-dasharray:3 3"></line>
<line x1="164" y1="1" x2="164" y2="108" style="stroke:#ddd;stroke-width:2;stroke-dasharray:3 3"></line>
<line x1="273" y1="1" x2="273" y2="108" style="stroke:#ddd;stroke-width:2;stroke-dasharray:3 3"></line>
<line x1="382" y1="1" x2="382" y2="108" style="stroke:#ddd;stroke-width:2;stroke-dasharray:3 3"></line>
<line x1="491" y1="1" x2="491" y2="108" style="stroke:#ddd;stroke-width:2;stroke-dasharray:3 3"></line>
<line x1="600" y1="1" x2="600" y2="108" style="stroke:#ddd;stroke-width:2;stroke-dasharray:3 3"></line>
<line x1="709" y1="1" x2="709" y2="108" style="stroke:#ddd;stroke-width:2;stroke-dasharray:3 3"></line>
<line x1="818" y1="1" x2="818" y2="108" style="stroke:#ddd;stroke-width:2;stroke-dasharray:3 3"></line>
<line x1="927" y1="1" x2="927" y2="108" style="stroke:#ddd;stroke-width:2;stroke-dasharray:3 3"></line>
<line x1="1036" y1="1" x2="1036" y2="108" style="stroke:#ddd;stroke-width:2;stroke-dasharray:3 3"></line>
<path d="M12.18,23.1c0.32,1.43,0.8,2.52,0.8,4.37c0,1.85-0.11,56.64,0,58.51" style="fill:none;stroke:#999;stroke-width:3"></path>

<path d="M121.18,23.1c0.32,1.43,0.8,2.52,0.8,4.37c0,1.85-0.11,56.64,0,58.51" style="fill:none;stroke:#999;stroke-width:3"></path>
<path d="M122.52,23.83c1.84-0.02,14.76-1.39,16.43-1.47c1.39-0.07,2.37,1.56,2.37,3.28c0,6.34-0.15,45.01-0.15,59.48" style="fill:none;stroke:#999;stroke-width:3"></path>

<path d="M230.18,23.1c0.32,1.43,0.8,2.52,0.8,4.37c0,1.85-0.11,56.64,0,58.51" style="fill:none;stroke:#999;stroke-width:3"></path>
<path d="M231.51999999999998,23.83c1.84-0.02,14.76-1.39,16.43-1.47c1.39-0.07,2.37,1.56,2.37,3.28c0,6.34-0.15,45.01-0.15,59.48" style="fill:none;stroke:#999;stroke-width:3"></path>
<path d="M231.49,43.38c5.07-0.48,12.26-1.13,18.43-1.33" style="fill:none;stroke:#999;stroke-width:3"></path>

<path d="M339.18,23.1c0.32,1.43,0.8,2.52,0.8,4.37c0,1.85-0.11,56.64,0,58.51" style="fill:none;stroke:#999;stroke-width:3"></path>
<path d="M340.52,23.83c1.84-0.02,14.76-1.39,16.43-1.47c1.39-0.07,2.37,1.56,2.37,3.28c0,6.34-0.15,45.01-0.15,59.48" style="fill:none;stroke:#999;stroke-width:3"></path>
<path d="M340.49,43.38c5.07-0.48,12.26-1.13,18.43-1.33" style="fill:none;stroke:#999;stroke-width:3"></path>
<path d="M340.14,60.03c4.86-0.22,12.61-0.78,18.93-1.1" style="fill:none;stroke:#999;stroke-width:3"></path>

<path d="M448.18,23.1c0.32,1.43,0.8,2.52,0.8,4.37c0,1.85-0.11,56.64,0,58.51" style="fill:none;stroke:#999;stroke-width:3"></path>
<path d="M449.52,23.83c1.84-0.02,14.76-1.39,16.43-1.47c1.39-0.07,2.37,1.56,2.37,3.28c0,6.34-0.15,45.01-0.15,59.48" style="fill:none;stroke:#999;stroke-width:3"></path>
<path d="M449.49,43.38c5.07-0.48,12.26-1.13,18.43-1.33" style="fill:none;stroke:#999;stroke-width:3"></path>
<path d="M449.14,60.03c4.86-0.22,12.61-0.78,18.93-1.1" style="fill:none;stroke:#999;stroke-width:3"></path>
<path d="M448.92,82.59c4.99-0.26,12.87-0.95,19.19-0.92" style="fill:none;stroke:#999;stroke-width:3"></path>

<path d="M557.1800000000001,23.1c0.32,1.43,0.8,2.52,0.8,4.37c0,1.85-0.11,56.64,0,58.51" style="fill:none;stroke:#999;stroke-width:3"></path>
<path d="M558.52,23.83c1.84-0.02,14.76-1.39,16.43-1.47c1.39-0.07,2.37,1.56,2.37,3.28c0,6.34-0.15,45.01-0.15,59.48" style="fill:none;stroke:#999;stroke-width:3"></path>
<path d="M558.49,43.38c5.07-0.48,12.26-1.13,18.43-1.33" style="fill:none;stroke:#999;stroke-width:3"></path>
<path d="M558.14,60.03c4.86-0.22,12.61-0.78,18.93-1.1" style="fill:none;stroke:#999;stroke-width:3"></path>
<path d="M557.9200000000001,82.59c4.99-0.26,12.87-0.95,19.19-0.92" style="fill:none;stroke:#999;stroke-width:3"></path>
<path d="M591.81,29.52c1.01,0.28,2.86,0.31,3.87,0.28c10.51-0.32,18.4-1.55,30.26-2.23c1.68-0.1,2.69,0.13,3.53,0.27" style="fill:none;stroke:#999;stroke-width:3"></path>

<path d="M666.1800000000001,23.1c0.32,1.43,0.8,2.52,0.8,4.37c0,1.85-0.11,56.64,0,58.51" style="fill:none;stroke:#999;stroke-width:3"></path>
<path d="M667.52,23.83c1.84-0.02,14.76-1.39,16.43-1.47c1.39-0.07,2.37,1.56,2.37,3.28c0,6.34-0.15,45.01-0.15,59.48" style="fill:none;stroke:#999;stroke-width:3"></path>
<path d="M667.49,43.38c5.07-0.48,12.26-1.13,18.43-1.33" style="fill:none;stroke:#999;stroke-width:3"></path>
<path d="M667.14,60.03c4.86-0.22,12.61-0.78,18.93-1.1" style="fill:none;stroke:#999;stroke-width:3"></path>
<path d="M666.9200000000001,82.59c4.99-0.26,12.87-0.95,19.19-0.92" style="fill:none;stroke:#999;stroke-width:3"></path>
<path d="M700.81,29.52c1.01,0.28,2.86,0.31,3.87,0.28c10.51-0.32,18.4-1.55,30.26-2.23c1.68-0.1,2.69,0.13,3.53,0.27" style="fill:none;stroke:#999;stroke-width:3"></path>
<path d="M693.63,50.5c1.11,0.25,3.22,0.8,6.17,0.5c9.95-1,31.95-2.75,43.78-3.25c2.96-0.12,4.71,0.25,6.56,0.5" style="fill:none;stroke:#999;stroke-width:3"></path>

<path d="M775.1800000000001,23.1c0.32,1.43,0.8,2.52,0.8,4.37c0,1.85-0.11,56.64,0,58.51" style="fill:none;stroke:#999;stroke-width:3"></path>
<path d="M776.52,23.83c1.84-0.02,14.76-1.39,16.43-1.47c1.39-0.07,2.37,1.56,2.37,3.28c0,6.34-0.15,45.01-0.15,59.48" style="fill:none;stroke:#999;stroke-width:3"></path>
<path d="M776.49,43.38c5.07-0.48,12.26-1.13,18.43-1.33" style="fill:none;stroke:#999;stroke-width:3"></path>
<path d="M776.14,60.03c4.86-0.22,12.61-0.78,18.93-1.1" style="fill:none;stroke:#999;stroke-width:3"></path>
<path d="M775.9200000000001,82.59c4.99-0.26,12.87-0.95,19.19-0.92" style="fill:none;stroke:#999;stroke-width:3"></path>
<path d="M809.81,29.52c1.01,0.28,2.86,0.31,3.87,0.28c10.51-0.32,18.4-1.55,30.26-2.23c1.68-0.1,2.69,0.13,3.53,0.27" style="fill:none;stroke:#999;stroke-width:3"></path>
<path d="M802.63,50.5c1.11,0.25,3.22,0.8,6.17,0.5c9.95-1,31.95-2.75,43.78-3.25c2.96-0.12,4.71,0.25,6.56,0.5" style="fill:none;stroke:#999;stroke-width:3"></path>
<path d="M825.68,12.75c1.35,0.5,2.16,2.25,2.43,3.25s-0.5,75.25-0.77,81.5" style="fill:none;stroke:#999;stroke-width:3"></path>

<path d="M884.1800000000001,23.1c0.32,1.43,0.8,2.52,0.8,4.37c0,1.85-0.11,56.64,0,58.51" style="fill:none;stroke:#999;stroke-width:3"></path>
<path d="M885.52,23.83c1.84-0.02,14.76-1.39,16.43-1.47c1.39-0.07,2.37,1.56,2.37,3.28c0,6.34-0.15,45.01-0.15,59.48" style="fill:none;stroke:#999;stroke-width:3"></path>
<path d="M885.49,43.38c5.07-0.48,12.26-1.13,18.43-1.33" style="fill:none;stroke:#999;stroke-width:3"></path>
<path d="M885.14,60.03c4.86-0.22,12.61-0.78,18.93-1.1" style="fill:none;stroke:#999;stroke-width:3"></path>
<path d="M884.9200000000001,82.59c4.99-0.26,12.87-0.95,19.19-0.92" style="fill:none;stroke:#999;stroke-width:3"></path>
<path d="M918.81,29.52c1.01,0.28,2.86,0.31,3.87,0.28c10.51-0.32,18.4-1.55,30.26-2.23c1.68-0.1,2.69,0.13,3.53,0.27" style="fill:none;stroke:#999;stroke-width:3"></path>
<path d="M911.63,50.5c1.11,0.25,3.22,0.8,6.17,0.5c9.95-1,31.95-2.75,43.78-3.25c2.96-0.12,4.71,0.25,6.56,0.5" style="fill:none;stroke:#999;stroke-width:3"></path>
<path d="M934.68,12.75c1.35,0.5,2.16,2.25,2.43,3.25s-0.5,75.25-0.77,81.5" style="fill:none;stroke:#999;stroke-width:3"></path>
<path d="M936.72,50.25C931.18,63.08,917.52,81.24,906.0,88.5" style="fill:none;stroke:#999;stroke-width:3"></path>

<path d="M993.1800000000001,23.1c0.32,1.43,0.8,2.52,0.8,4.37c0,1.85-0.11,56.64,0,58.51" style="fill:none;stroke:#999;stroke-width:3"></path>
<path d="M994.52,23.83c1.84-0.02,14.76-1.39,16.43-1.47c1.39-0.07,2.37,1.56,2.37,3.28c0,6.34-0.15,45.01-0.15,59.48" style="fill:none;stroke:#999;stroke-width:3"></path>
<path d="M994.49,43.38c5.07-0.48,12.26-1.13,18.43-1.33" style="fill:none;stroke:#999;stroke-width:3"></path>
<path d="M994.14,60.03c4.86-0.22,12.61-0.78,18.93-1.1" style="fill:none;stroke:#999;stroke-width:3"></path>
<path d="M993.9200000000001,82.59c4.99-0.26,12.87-0.95,19.19-0.92" style="fill:none;stroke:#999;stroke-width:3"></path>
<path d="M1027.81,29.52c1.01,0.28,2.86,0.31,3.87,0.28c10.51-0.32,18.4-1.55,30.26-2.23c1.68-0.1,2.69,0.13,3.53,0.27" style="fill:none;stroke:#999;stroke-width:3"></path>
<path d="M1020.63,50.5c1.11,0.25,3.22,0.8,6.17,0.5c9.95-1,31.95-2.75,43.78-3.25c2.96-0.12,4.71,0.25,6.56,0.5" style="fill:none;stroke:#999;stroke-width:3"></path>
<path d="M1043.6799999999998,12.75c1.35,0.5,2.16,2.25,2.43,3.25s-0.5,75.25-0.77,81.5" style="fill:none;stroke:#999;stroke-width:3"></path>
<path d="M1045.72,50.25C1040.1799999999998,63.08,1026.52,81.24,1015.0,88.5" style="fill:none;stroke:#999;stroke-width:3"></path>
<path d="M1045.78,49.75c4.41,7.41,20.6,26.75,27.17,32.95c1.64,1.55,2.96,2.34,4.55,2.8" style="fill:none;stroke:#999;stroke-width:3"></path>

</svg>