<svg width="1199px" height="109px" viewBox="0 0 1199 109" xmlns="http://www.w3.org/2000/svg" xmlns:xlink="http://www.w3.org/1999/xlink" xml:space="preserve" version="1.1" baseProfile="full">
<line x1="1" y1="1" x2="1198" y2="1" style="stroke:#ddd;stroke-width:2"></line>
<line x1="1" y1="1" x2="1" y2="108" style="stroke:#ddd;stroke-width:2"></line>
<line x1="1" y1="108" x2="1198" y2="108" style="stroke:#ddd;stroke-width:2"></line>
<line x1="1198" y1="1" x2="1198" y2="108" style="stroke:#ddd;stroke-width:2"></line>
<line x1="109" y1="1" x2="109" y2="108" style="stroke:#ddd;stroke-width:2"></line>
<line x1="218" y1="1" x2="218" y2="108" style="stroke:#ddd;stroke-width:2"></line>
<line x1="327" y1="1" x2="327" y2="108" style="stroke:#ddd;stroke-width:2"></line>
<line x1="436" y1="1" x2="436" y2="108" style="stroke:#ddd;stroke-width:2"></line>
<line x1="545" y1="1" x2="545" y2="108" style="stroke:#ddd;stroke-width:2"></line>
<line x1="654" y1="1" x2="654" y2="108" style="stroke:#ddd;stroke-width:2"></line>
<line x1="763" y1="1" x2="763" y2="108" style="stroke:#ddd;stroke-width:2"></line>
<line x1="872" y1="1" x2="872" y2="108" style="stroke:#ddd;stroke-width:2"></line>
<line x1="981" y1="1" x2="981" y2="108" style="stroke:#ddd;stroke-width:2"></line>
<line x1="1090" y1="1" x2="1090" y2="108" style="stroke:#ddd;stroke-width:2"></line>
<line x1="1" y1="54" x2="1198" y2="54" style="stroke:#ddd;stroke-width:2;stroke-dasharray:3 3"></line>
<line x1="55" y1="1" x2="55" y2="108" style="stroke:#ddd;stroke-width:2;stroke-dasharray:3 3"></line>
<line x1="164" y1="1" x2="164" y2="108" style="stroke:#ddd;stroke-width:2;stroke-dasharray:3 3"></line>
<line x1="273" y1="1" x2="273" y2="108" style="stroke:#ddd;stroke-width:2;stroke-dasharray:3 3"></line>
<line x1="382" y1="1" x2="382" y2="108" style="stroke:#ddd;stroke-width:2;stroke-dasharray:3 3"></line>
<line x1="491" y1="1" x2="491" y2="108" style="stroke:#ddd;stroke-width:2;stroke-dasharray:3 3"></line>
<line x1="600" y1="1" x2="600" y2="108" style="stroke:#ddd;stroke-width:2;stroke-dasharray:3 3"></line>
<line x1="709" y1="1" x2="709" y2="108" style="stroke:#ddd;stroke-width:2;stroke-dasharray:3 3"></line>
<line x1="818" y1="1" x2="818" y2="108" style="stroke:#ddd;stroke-width:2;stroke-dasharray:3 3"></line>
<line x1="927" y1="1" x2="927" y2="108" style="stroke:#ddd;stroke-width:2;stroke-dasharray:3 3"></line>
<line x1="1036" y1="1" x2="1036" y2="108" style="stroke:#ddd;stroke-width:2;stroke-dasharray:3 3"></line>
<line x1="1145" y1="1" x2="1145" y2="108" style="stroke:#ddd;stroke-width:2;stroke-dasharray:3 3"></line>
<path d="M13.38,21.3c0.84,0.84,1.11,2.36,1.11,4.09c0,1.38,0,33.69,0,48.98c0,3.93,0,6.74,0,7.61" style="fill:none;stroke:#999;stroke-width:3"></path>

<path d="M122.38,21.3c0.84,0.84,1.11,2.36,1.11,4.09c0,1.38,0,33.69,0,48.98c0,3.93,0,6.74,0,7.61" style="fill:none;stroke:#999;stroke-width:3"></path>
<path d="M124.08,23.48c3.25-0.42,13.23-2.06,17.3-2.5c3.25-0.35,4.02,1.42,3.99,4.4c-0.06,7.57-0.16,32.7-0.18,47.99c0,2.82-0.01,5.31-0.01,7.29" style="fill:none;stroke:#999;stroke-width:3"></path>

<path d="M231.38,21.3c0.84,0.84,1.11,2.36,1.11,4.09c0,1.38,0,33.69,0,48.98c0,3.93,0,6.74,0,7.61" style="fill:none;stroke:#999;stroke-width:3"></path>
<path d="M233.07999999999998,23.48c3.25-0.42,13.23-2.06,17.3-2.5c3.25-0.35,4.02,1.42,3.99,4.4c-0.06,7.57-0.16,32.7-0.18,47.99c0,2.82-0.01,5.31-0.01,7.29" style="fill:none;stroke:#999;stroke-width:3"></path>
<path d="M233.54,41.49c5.46-0.45,14.33-1.12,19.82-1.03" style="fill:none;stroke:#999;stroke-width:3"></path>

<path d="M340.38,21.3c0.84,0.84,1.11,2.36,1.11,4.09c0,1.38,0,33.69,0,48.98c0,3.93,0,6.74,0,7.61" style="fill:none;stroke:#999;stroke-width:3"></path>
<path d="M342.08,23.48c3.25-0.42,13.23-2.06,17.3-2.5c3.25-0.35,4.02,1.42,3.99,4.4c-0.06,7.57-0.16,32.7-0.18,47.99c0,2.82-0.01,5.31-0.01,7.29" style="fill:none;stroke:#999;stroke-width:3"></path>
<path d="M342.53999999999996,41.49c5.46-0.45,14.33-1.12,19.82-1.03" style="fill:none;stroke:#999;stroke-width:3"></path>
<path d="M342.7,58.76c5.24-0.21,12.42-0.88,19.36-1.07" style="fill:none;stroke:#999;stroke-width:3"></path>

<path d="M449.38,21.3c0.84,0.84,1.11,2.36,1.11,4.09c0,1.38,0,33.69,0,48.98c0,3.93,0,6.74,0,7.61" style="fill:none;stroke:#999;stroke-width:3"></path>
<path d="M451.08,23.48c3.25-0.42,13.23-2.06,17.3-2.5c3.25-0.35,4.02,1.42,3.99,4.4c-0.06,7.57-0.16,32.7-0.18,47.99c0,2.82-0.01,5.31-0.01,7.29" style="fill:none;stroke:#999;stroke-width:3"></path>
<path d="M451.53999999999996,41.49c5.46-0.45,14.33-1.12,19.82-1.03" style="fill:none;stroke:#999;stroke-width:3"></path>
<path d="M451.7,58.76c5.24-0.21,12.42-0.88,19.36-1.07" style="fill:none;stroke:#999;stroke-width:3"></path>
<path d="M451.68,78.05c5.38-0.25,11.2-0.92,19.42-1.11" style="fill:none;stroke:#999;stroke-width:3"></path>

<path d="M558.38,21.3c0.84,0.84,1.11,2.36,1.11,4.09c0,1.38,0,33.69,0,48.98c0,3.93,0,6.74,0,7.61" style="fill:none;stroke:#999;stroke-width:3"></path>
<path d="M560.0799999999999,23.48c3.25-0.42,13.23-2.06,17.3-2.5c3.25-0.35,4.02,1.42,3.99,4.4c-0.06,7.57-0.16,32.7-0.18,47.99c0,2.82-0.01,5.31-0.01,7.29" style="fill:none;stroke:#999;stroke-width:3"></path>
<path d="M560.54,41.49c5.46-0.45,14.33-1.12,19.82-1.03" style="fill:none;stroke:#999;stroke-width:3"></path>
<path d="M560.7,58.76c5.24-0.21,12.42-0.88,19.36-1.07" style="fill:none;stroke:#999;stroke-width:3"></path>
<path d="M560.6800000000001,78.05c5.38-0.25,11.2-0.92,19.42-1.11" style="fill:none;stroke:#999;stroke-width:3"></path>
<path d="M612.7,9c0.05,1-0.25,2.41-0.66,2.94C606.38,19,599.5,25.75,592.77,31.66c-1.92,1.69-1.55,4.13,1.09,3.55c8.89-1.96,25.52-5.46,36.15-7.57" style="fill:none;stroke:#999;stroke-width:3"></path>

<path d="M667.38,21.3c0.84,0.84,1.11,2.36,1.11,4.09c0,1.38,0,33.69,0,48.98c0,3.93,0,6.74,0,7.61" style="fill:none;stroke:#999;stroke-width:3"></path>
<path d="M669.0799999999999,23.48c3.25-0.42,13.23-2.06,17.3-2.5c3.25-0.35,4.02,1.42,3.99,4.4c-0.06,7.57-0.16,32.7-0.18,47.99c0,2.82-0.01,5.31-0.01,7.29" style="fill:none;stroke:#999;stroke-width:3"></path>
<path d="M669.54,41.49c5.46-0.45,14.33-1.12,19.82-1.03" style="fill:none;stroke:#999;stroke-width:3"></path>
<path d="M669.7,58.76c5.24-0.21,12.42-0.88,19.36-1.07" style="fill:none;stroke:#999;stroke-width:3"></path>
<path d="M669.6800000000001,78.05c5.38-0.25,11.2-0.92,19.42-1.11" style="fill:none;stroke:#999;stroke-width:3"></path>
<path d="M721.7,9c0.05,1-0.25,2.41-0.66,2.94C715.38,19,708.5,25.75,701.77,31.66c-1.92,1.69-1.55,4.13,1.09,3.55c8.89-1.96,25.52-5.46,36.15-7.57" style="fill:none;stroke:#999;stroke-width:3"></path>
<path d="M731.84,17.9c5.28,2.97,13.65,12.2,14.97,16.81" style="fill:none;stroke:#999;stroke-width:3"></path>

<path d="M776.38,21.3c0.84,0.84,1.11,2.36,1.11,4.09c0,1.38,0,33.69,0,48.98c0,3.93,0,6.74,0,7.61" style="fill:none;stroke:#999;stroke-width:3"></path>
<path d="M778.0799999999999,23.48c3.25-0.42,13.23-2.06,17.3-2.5c3.25-0.35,4.02,1.42,3.99,4.4c-0.06,7.57-0.16,32.7-0.18,47.99c0,2.82-0.01,5.31-0.01,7.29" style="fill:none;stroke:#999;stroke-width:3"></path>
<path d="M778.54,41.49c5.46-0.45,14.33-1.12,19.82-1.03" style="fill:none;stroke:#999;stroke-width:3"></path>
<path d="M778.7,58.76c5.24-0.21,12.42-0.88,19.36-1.07" style="fill:none;stroke:#999;stroke-width:3"></path>
<path d="M778.6800000000001,78.05c5.38-0.25,11.2-0.92,19.42-1.11" style="fill:none;stroke:#999;stroke-width:3"></path>
<path d="M830.7,9c0.05,1-0.25,2.41-0.66,2.94C824.38,19,817.5,25.75,810.77,31.66c-1.92,1.69-1.55,4.13,1.09,3.55c8.89-1.96,25.52-5.46,36.15-7.57" style="fill:none;stroke:#999;stroke-width:3"></path>
<path d="M840.84,17.9c5.28,2.97,13.65,12.2,14.97,16.81" style="fill:none;stroke:#999;stroke-width:3"></path>
<path d="M819.07,41.64c0.07,1.12-0.21,2.44-0.66,3.49c-2.16,4.99-5.44,10.56-11.07,17.61" style="fill:none;stroke:#999;stroke-width:3"></path>

<path d="M885.38,21.3c0.84,0.84,1.11,2.36,1.11,4.09c0,1.38,0,33.69,0,48.98c0,3.93,0,6.74,0,7.61" style="fill:none;stroke:#999;stroke-width:3"></path>
<path d="M887.0799999999999,23.48c3.25-0.42,13.23-2.06,17.3-2.5c3.25-0.35,4.02,1.42,3.99,4.4c-0.06,7.57-0.16,32.7-0.18,47.99c0,2.82-0.01,5.31-0.01,7.29" style="fill:none;stroke:#999;stroke-width:3"></path>
<path d="M887.54,41.49c5.46-0.45,14.33-1.12,19.82-1.03" style="fill:none;stroke:#999;stroke-width:3"></path>
<path d="M887.7,58.76c5.24-0.21,12.42-0.88,19.36-1.07" style="fill:none;stroke:#999;stroke-width:3"></path>
<path d="M887.6800000000001,78.05c5.38-0.25,11.2-0.92,19.42-1.11" style="fill:none;stroke:#999;stroke-width:3"></path>
<path d="M939.7,9c0.05,1-0.25,2.41-0.66,2.94C933.38,19,926.5,25.75,919.77,31.66c-1.92,1.69-1.55,4.13,1.09,3.55c8.89-1.96,25.52-5.46,36.15-7.57" style="fill:none;stroke:#999;stroke-width:3"></path>
<path d="M949.84,17.9c5.28,2.97,13.65,12.2,14.97,16.81" style="fill:none;stroke:#999;stroke-width:3"></path>
<path d="M928.07,41.64c0.07,1.12-0.21,2.44-0.66,3.49c-2.16,4.99-5.44,10.56-11.07,17.61" style="fill:none;stroke:#999;stroke-width:3"></path>
<path d="M928.23,51.17c2.4,0.46,4.18,0.29,5.89,0.19c7.18-0.42,15.34-0.81,23.27-1.25c1.97-0.11,4.01-0.21,5.92,0.43" style="fill:none;stroke:#999;stroke-width:3"></path>

<path d="M994.38,21.3c0.84,0.84,1.11,2.36,1.11,4.09c0,1.38,0,33.69,0,48.98c0,3.93,0,6.74,0,7.61" style="fill:none;stroke:#999;stroke-width:3"></path>
<path d="M996.0799999999999,23.48c3.25-0.42,13.23-2.06,17.3-2.5c3.25-0.35,4.02,1.42,3.99,4.4c-0.06,7.57-0.16,32.7-0.18,47.99c0,2.82-0.01,5.31-0.01,7.29" style="fill:none;stroke:#999;stroke-width:3"></path>
<path d="M996.54,41.49c5.46-0.45,14.33-1.12,19.82-1.03" style="fill:none;stroke:#999;stroke-width:3"></path>
<path d="M996.7,58.76c5.24-0.21,12.42-0.88,19.36-1.07" style="fill:none;stroke:#999;stroke-width:3"></path>
<path d="M996.6800000000001,78.05c5.38-0.25,11.2-0.92,19.42-1.11" style="fill:none;stroke:#999;stroke-width:3"></path>
<path d="M1048.7,9c0.05,1-0.25,2.41-0.66,2.94C1042.38,19,1035.5,25.75,1028.77,31.66c-1.92,1.69-1.55,4.13,1.09,3.55c8.89-1.96,25.52-5.46,36.15-7.57" style="fill:none;stroke:#999;stroke-width:3"></path>
<path d="M1058.8400000000001,17.9c5.28,2.97,13.65,12.2,14.97,16.81" style="fill:none;stroke:#999;stroke-width:3"></path>
<path d="M1037.0700000000002,41.64c0.07,1.12-0.21,2.44-0.66,3.49c-2.16,4.99-5.44,10.56-11.07,17.61" style="fill:none;stroke:#999;stroke-width:3"></path>
<path d="M1037.23,51.17c2.4,0.46,4.18,0.29,5.89,0.19c7.18-0.42,15.34-0.81,23.27-1.25c1.97-0.11,4.01-0.21,5.92,0.43" style="fill:none;stroke:#999;stroke-width:3"></path>
<path d="M1024.75,69.73c3.12,0.77,6.87,0.36,9.74,0.21c10.26-0.56,22.64-1.06,37.64-1.83c2.63-0.13,5.31-0.04,7.88,0.71" style="fill:none;stroke:#999;stroke-width:3"></path>

<path d="M1103.38,21.3c0.84,0.84,1.11,2.36,1.11,4.09c0,1.38,0,33.69,0,48.98c0,3.93,0,6.74,0,7.61" style="fill:none;stroke:#999;stroke-width:3"></path>
<path d="M1105.08,23.48c3.25-0.42,13.23-2.06,17.3-2.5c3.25-0.35,4.02,1.42,3.99,4.4c-0.06,7.57-0.16,32.7-0.18,47.99c0,2.82-0.01,5.31-0.01,7.29" style="fill:none;stroke:#999;stroke-width:3"></path>
<path d="M1105.54,41.49c5.46-0.45,14.33-1.12,19.82-1.03" style="fill:none;stroke:#999;stroke-width:3"></path>
<path d="M1105.7,58.76c5.24-0.21,12.42-0.88,19.36-1.07" style="fill:none;stroke:#999;stroke-width:3"></path>
<path d="M1105.68,78.05c5.38-0.25,11.2-0.92,19.42-1.11" style="fill:none;stroke:#999;stroke-width:3"></path>
<path d="M1157.7,9c0.05,1-0.25,2.41-0.66,2.94C1151.38,19,1144.5,25.75,1137.77,31.66c-1.92,1.69-1.55,4.13,1.09,3.55c8.89-1.96,25.52-5.46,36.15-7.57" style="fill:none;stroke:#999;stroke-width:3"></path>
<path d="M1167.8400000000001,17.9c5.28,2.97,13.65,12.2,14.97,16.81" style="fill:none;stroke:#999;stroke-width:3"></path>
<path d="M1146.0700000000002,41.64c0.07,1.12-0.21,2.44-0.66,3.49c-2.16,4.99-5.44,10.56-11.07,17.61" style="fill:none;stroke:#999;stroke-width:3"></path>
<path d="M1146.23,51.17c2.4,0.46,4.18,0.29,5.89,0.19c7.18-0.42,15.34-0.81,23.27-1.25c1.97-0.11,4.01-0.21,5.92,0.43" style="fill:none;stroke:#999;stroke-width:3"></path>
<path d="M1133.75,69.73c3.12,0.77,6.87,0.36,9.74,0.21c10.26-0.56,22.64-1.06,37.64-1.83c2.63-0.13,5.31-0.04,7.88,0.71" style="fill:none;stroke:#999;stroke-width:3"></path>
<path d="M1158.45,37.13c0.9,0.9,1.48,2.37,1.48,4.25c0,3.83,0.04,32.37,0.06,48.49c0,4.36,0.01,7.82,0.01,9.62" style="fill:none;stroke:#999;stroke-width:3"></path>

</svg>