<svg width="1635px" height="109px" viewBox="0 0 1635 109" xmlns="http://www.w3.org/2000/svg" xmlns:xlink="http://www.w3.org/1999/xlink" xml:space="preserve" version="1.1" baseProfile="full">
<line x1="1" y1="1" x2="1634" y2="1" style="stroke:#ddd;stroke-width:2"></line>
<line x1="1" y1="1" x2="1" y2="108" style="stroke:#ddd;stroke-width:2"></line>
<line x1="1" y1="108" x2="1634" y2="108" style="stroke:#ddd;stroke-width:2"></line>
<line x1="1634" y1="1" x2="1634" y2="108" style="stroke:#ddd;stroke-width:2"></line>
<line x1="109" y1="1" x2="109" y2="108" style="stroke:#ddd;stroke-width:2"></line>
<line x1="218" y1="1" x2="218" y2="108" style="stroke:#ddd;stroke-width:2"></line>
<line x1="327" y1="1" x2="327" y2="108" style="stroke:#ddd;stroke-width:2"></line>
<line x1="436" y1="1" x2="436" y2="108" style="stroke:#ddd;stroke-width:2"></line>
<line x1="545" y1="1" x2="545" y2="108" style="stroke:#ddd;stroke-width:2"></line>
<line x1="654" y1="1" x2="654" y2="108" style="stroke:#ddd;stroke-width:2"></line>
<line x1="763" y1="1" x2="763" y2="108" style="stroke:#ddd;stroke-width:2"></line>
<line x1="872" y1="1" x2="872" y2="108" style="stroke:#ddd;stroke-width:2"></line>
<line x1="981" y1="1" x2="981" y2="108" style="stroke:#ddd;stroke-width:2"></line>
<line x1="1090" y1="1" x2="1090" y2="108" style="stroke:#ddd;stroke-width:2"></line>
<line x1="1199" y1="1" x2="1199" y2="108" style="stroke:#ddd;stroke-width:2"></line>
<line x1="1308" y1="1" x2="1308" y2="108" style="stroke:#ddd;stroke-width:2"></line>
<line x1="1417" y1="1" x2="1417" y2="108" style="stroke:#ddd;stroke-width:2"></line>
<line x1="1526" y1="1" x2="1526" y2="108" style="stroke:#ddd;stroke-width:2"></line>
<line x1="1" y1="54" x2="1634" y2="54" style="stroke:#ddd;stroke-width:2;stroke-dasharray:3 3"></line>
<line x1="55" y1="1" x2="55" y2="108" style="stroke:#ddd;stroke-width:2;stroke-dasharray:3 3"></line>
<line x1="164" y1="1" x2="164" y2="108" style="stroke:#ddd;stroke-width:2;stroke-dasharray:3 3"></line>
<line x1="273" y1="1" x2="273" y2="108" style="stroke:#ddd;stroke-width:2;stroke-dasharray:3 3"></line>
<line x1="382" y1="1" x2="382" y2="108" style="stroke:#ddd;stroke-width:2;stroke-dasharray:3 3"></line>
<line x1="491" y1="1" x2="491" y2="108" style="stroke:#ddd;stroke-width:2;stroke-dasharray:3 3"></line>
<line x1="600" y1="1" x2="600" y2="108" style="stroke:#ddd;stroke-width:2;stroke-dasharray:3 3"></line>
<line x1="709" y1="1" x2="709" y2="108" style="stroke:#ddd;stroke-width:2;stroke-dasharray:3 3"></line>
<line x1="818" y1="1" x2="818" y2="108" style="stroke:#ddd;stroke-width:2;stroke-dasharray:3 3"></line>
<line x1="927" y1="1" x2="927" y2="108" style="stroke:#ddd;stroke-width:2;stroke-dasharray:3 3"></line>
<line x1="1036" y1="1" x2="1036" y2="108" style="stroke:#ddd;stroke-width:2;stroke-dasharray:3 3"></line>
<line x1="1145" y1="1" x2="1145" y2="108" style="stroke:#ddd;stroke-width:2;stroke-dasharray:3 3"></line>
<line x1="1254" y1="1" x2="1254" y2="108" style="stroke:#ddd;stroke-width:2;stroke-dasharray:3 3"></line>
<line x1="1363" y1="1" x2="1363" y2="108" style="stroke:#ddd;stroke-width:2;stroke-dasharray:3 3"></line>
<line x1="1472" y1="1" x2="1472" y2="108" style="stroke:#ddd;stroke-width:2;stroke-dasharray:3 3"></line>
<line x1="1581" y1="1" x2="1581" y2="108" style="stroke:#ddd;stroke-width:2;stroke-dasharray:3 3"></line>
<path d="M12.88,20.07c0.29,1.36,0.71,2.4,0.71,4.16c0,1.77-0.1,62.47,0,64.25" style="fill:none;stroke:#999;stroke-width:3"></path>

<path d="M121.88,20.07c0.29,1.36,0.71,2.4,0.71,4.16c0,1.77-0.1,62.47,0,64.25" style="fill:none;stroke:#999;stroke-width:3"></path>
<path d="M123.07,21.26c1.62-0.02,13.48-1.82,14.96-1.9c1.23-0.07,2.1,0.99,2.1,2.63c0,6.04-0.57,51.89-0.57,65.68" style="fill:none;stroke:#999;stroke-width:3"></path>

<path d="M230.88,20.07c0.29,1.36,0.71,2.4,0.71,4.16c0,1.77-0.1,62.47,0,64.25" style="fill:none;stroke:#999;stroke-width:3"></path>
<path d="M232.07,21.26c1.62-0.02,13.48-1.82,14.96-1.9c1.23-0.07,2.1,0.99,2.1,2.63c0,6.04-0.57,51.89-0.57,65.68" style="fill:none;stroke:#999;stroke-width:3"></path>
<path d="M232.04,42.34c4.48-0.46,12.21-1.52,15.85-1.29" style="fill:none;stroke:#999;stroke-width:3"></path>

<path d="M339.88,20.07c0.29,1.36,0.71,2.4,0.71,4.16c0,1.77-0.1,62.47,0,64.25" style="fill:none;stroke:#999;stroke-width:3"></path>
<path d="M341.07,21.26c1.62-0.02,13.48-1.82,14.96-1.9c1.23-0.07,2.1,0.99,2.1,2.63c0,6.04-0.57,51.89-0.57,65.68" style="fill:none;stroke:#999;stroke-width:3"></path>
<path d="M341.03999999999996,42.34c4.48-0.46,12.21-1.52,15.85-1.29" style="fill:none;stroke:#999;stroke-width:3"></path>
<path d="M341.17,62.64c4.3-0.21,10.54-1.46,16.29-1.08" style="fill:none;stroke:#999;stroke-width:3"></path>

<path d="M448.88,20.07c0.29,1.36,0.71,2.4,0.71,4.16c0,1.77-0.1,62.47,0,64.25" style="fill:none;stroke:#999;stroke-width:3"></path>
<path d="M450.07,21.26c1.62-0.02,13.48-1.82,14.96-1.9c1.23-0.07,2.1,0.99,2.1,2.63c0,6.04-0.57,51.89-0.57,65.68" style="fill:none;stroke:#999;stroke-width:3"></path>
<path d="M450.03999999999996,42.34c4.48-0.46,12.21-1.52,15.85-1.29" style="fill:none;stroke:#999;stroke-width:3"></path>
<path d="M450.17,62.64c4.3-0.21,10.54-1.46,16.29-1.08" style="fill:none;stroke:#999;stroke-width:3"></path>
<path d="M449.54,86.25c4.41-0.25,11.37-0.9,16.95-0.87" style="fill:none;stroke:#999;stroke-width:3"></path>

<path d="M557.88,20.07c0.29,1.36,0.71,2.4,0.71,4.16c0,1.77-0.1,62.47,0,64.25" style="fill:none;stroke:#999;stroke-width:3"></path>
<path d="M559.0699999999999,21.26c1.62-0.02,13.48-1.82,14.96-1.9c1.23-0.07,2.1,0.99,2.1,2.63c0,6.04-0.57,51.89-0.57,65.68" style="fill:none;stroke:#999;stroke-width:3"></path>
<path d="M559.04,42.34c4.48-0.46,12.21-1.52,15.85-1.29" style="fill:none;stroke:#999;stroke-width:3"></path>
<path d="M559.1700000000001,62.64c4.3-0.21,10.54-1.46,16.29-1.08" style="fill:none;stroke:#999;stroke-width:3"></path>
<path d="M558.54,86.25c4.41-0.25,11.37-0.9,16.95-0.87" style="fill:none;stroke:#999;stroke-width:3"></path>
<path d="M608.59,11c1.05,0.34,2.52,1.5,2.52,3.71c0,3.11-0.08,6.4-0.08,9.23" style="fill:none;stroke:#999;stroke-width:3"></path>

<path d="M666.88,20.07c0.29,1.36,0.71,2.4,0.71,4.16c0,1.77-0.1,62.47,0,64.25" style="fill:none;stroke:#999;stroke-width:3"></path>
<path d="M668.0699999999999,21.26c1.62-0.02,13.48-1.82,14.96-1.9c1.23-0.07,2.1,0.99,2.1,2.63c0,6.04-0.57,51.89-0.57,65.68" style="fill:none;stroke:#999;stroke-width:3"></path>
<path d="M668.04,42.34c4.48-0.46,12.21-1.52,15.85-1.29" style="fill:none;stroke:#999;stroke-width:3"></path>
<path d="M668.1700000000001,62.64c4.3-0.21,10.54-1.46,16.29-1.08" style="fill:none;stroke:#999;stroke-width:3"></path>
<path d="M667.54,86.25c4.41-0.25,11.37-0.9,16.95-0.87" style="fill:none;stroke:#999;stroke-width:3"></path>
<path d="M717.59,11c1.05,0.34,2.52,1.5,2.52,3.71c0,3.11-0.08,6.4-0.08,9.23" style="fill:none;stroke:#999;stroke-width:3"></path>
<path d="M697.4,23.25c0,2.77-2.92,12.9-4.02,14.75" style="fill:none;stroke:#999;stroke-width:3"></path>

<path d="M775.88,20.07c0.29,1.36,0.71,2.4,0.71,4.16c0,1.77-0.1,62.47,0,64.25" style="fill:none;stroke:#999;stroke-width:3"></path>
<path d="M777.0699999999999,21.26c1.62-0.02,13.48-1.82,14.96-1.9c1.23-0.07,2.1,0.99,2.1,2.63c0,6.04-0.57,51.89-0.57,65.68" style="fill:none;stroke:#999;stroke-width:3"></path>
<path d="M777.04,42.34c4.48-0.46,12.21-1.52,15.85-1.29" style="fill:none;stroke:#999;stroke-width:3"></path>
<path d="M777.1700000000001,62.64c4.3-0.21,10.54-1.46,16.29-1.08" style="fill:none;stroke:#999;stroke-width:3"></path>
<path d="M776.54,86.25c4.41-0.25,11.37-0.9,16.95-0.87" style="fill:none;stroke:#999;stroke-width:3"></path>
<path d="M826.59,11c1.05,0.34,2.52,1.5,2.52,3.71c0,3.11-0.08,6.4-0.08,9.23" style="fill:none;stroke:#999;stroke-width:3"></path>
<path d="M806.4,23.25c0,2.77-2.92,12.9-4.02,14.75" style="fill:none;stroke:#999;stroke-width:3"></path>
<path d="M806.65,26.13c1.21,0.07,42.72-3.14,48.87-3.41c10.73-0.47,2.48,6.28-1.36,9.4" style="fill:none;stroke:#999;stroke-width:3"></path>

<path d="M884.88,20.07c0.29,1.36,0.71,2.4,0.71,4.16c0,1.77-0.1,62.47,0,64.25" style="fill:none;stroke:#999;stroke-width:3"></path>
<path d="M886.0699999999999,21.26c1.62-0.02,13.48-1.82,14.96-1.9c1.23-0.07,2.1,0.99,2.1,2.63c0,6.04-0.57,51.89-0.57,65.68" style="fill:none;stroke:#999;stroke-width:3"></path>
<path d="M886.04,42.34c4.48-0.46,12.21-1.52,15.85-1.29" style="fill:none;stroke:#999;stroke-width:3"></path>
<path d="M886.1700000000001,62.64c4.3-0.21,10.54-1.46,16.29-1.08" style="fill:none;stroke:#999;stroke-width:3"></path>
<path d="M885.54,86.25c4.41-0.25,11.37-0.9,16.95-0.87" style="fill:none;stroke:#999;stroke-width:3"></path>
<path d="M935.59,11c1.05,0.34,2.52,1.5,2.52,3.71c0,3.11-0.08,6.4-0.08,9.23" style="fill:none;stroke:#999;stroke-width:3"></path>
<path d="M915.4,23.25c0,2.77-2.92,12.9-4.02,14.75" style="fill:none;stroke:#999;stroke-width:3"></path>
<path d="M915.65,26.13c1.21,0.07,42.72-3.14,48.87-3.41c10.73-0.47,2.48,6.28-1.36,9.4" style="fill:none;stroke:#999;stroke-width:3"></path>
<path d="M953.76,31c0.09,0.32-0.17,1.38-0.69,1.78C946.0,38.25,935.5,41.75,919.0,44.54" style="fill:none;stroke:#999;stroke-width:3"></path>

<path d="M993.88,20.07c0.29,1.36,0.71,2.4,0.71,4.16c0,1.77-0.1,62.47,0,64.25" style="fill:none;stroke:#999;stroke-width:3"></path>
<path d="M995.0699999999999,21.26c1.62-0.02,13.48-1.82,14.96-1.9c1.23-0.07,2.1,0.99,2.1,2.63c0,6.04-0.57,51.89-0.57,65.68" style="fill:none;stroke:#999;stroke-width:3"></path>
<path d="M995.04,42.34c4.48-0.46,12.21-1.52,15.85-1.29" style="fill:none;stroke:#999;stroke-width:3"></path>
<path d="M995.1700000000001,62.64c4.3-0.21,10.54-1.46,16.29-1.08" style="fill:none;stroke:#999;stroke-width:3"></path>
<path d="M994.54,86.25c4.41-0.25,11.37-0.9,16.95-0.87" style="fill:none;stroke:#999;stroke-width:3"></path>
<path d="M1044.5900000000001,11c1.05,0.34,2.52,1.5,2.52,3.71c0,3.11-0.08,6.4-0.08,9.23" style="fill:none;stroke:#999;stroke-width:3"></path>
<path d="M1024.4,23.25c0,2.77-2.92,12.9-4.02,14.75" style="fill:none;stroke:#999;stroke-width:3"></path>
<path d="M1024.65,26.13c1.21,0.07,42.72-3.14,48.87-3.41c10.73-0.47,2.48,6.28-1.36,9.4" style="fill:none;stroke:#999;stroke-width:3"></path>
<path d="M1062.76,31c0.09,0.32-0.17,1.38-0.69,1.78C1055.0,38.25,1044.5,41.75,1028.0,44.54" style="fill:none;stroke:#999;stroke-width:3"></path>
<path d="M1026.0,52.52c1.06,0.43,3,0.56,4.06,0.43c9.94-1.2,28.9-3.12,36.74-3.25c1.76-0.03,2.82,0.2,3.7,0.42" style="fill:none;stroke:#999;stroke-width:3"></path>

<path d="M1102.88,20.07c0.29,1.36,0.71,2.4,0.71,4.16c0,1.77-0.1,62.47,0,64.25" style="fill:none;stroke:#999;stroke-width:3"></path>
<path d="M1104.07,21.26c1.62-0.02,13.48-1.82,14.96-1.9c1.23-0.07,2.1,0.99,2.1,2.63c0,6.04-0.57,51.89-0.57,65.68" style="fill:none;stroke:#999;stroke-width:3"></path>
<path d="M1104.04,42.34c4.48-0.46,12.21-1.52,15.85-1.29" style="fill:none;stroke:#999;stroke-width:3"></path>
<path d="M1104.17,62.64c4.3-0.21,10.54-1.46,16.29-1.08" style="fill:none;stroke:#999;stroke-width:3"></path>
<path d="M1103.54,86.25c4.41-0.25,11.37-0.9,16.95-0.87" style="fill:none;stroke:#999;stroke-width:3"></path>
<path d="M1153.5900000000001,11c1.05,0.34,2.52,1.5,2.52,3.71c0,3.11-0.08,6.4-0.08,9.23" style="fill:none;stroke:#999;stroke-width:3"></path>
<path d="M1133.4,23.25c0,2.77-2.92,12.9-4.02,14.75" style="fill:none;stroke:#999;stroke-width:3"></path>
<path d="M1133.65,26.13c1.21,0.07,42.72-3.14,48.87-3.41c10.73-0.47,2.48,6.28-1.36,9.4" style="fill:none;stroke:#999;stroke-width:3"></path>
<path d="M1171.76,31c0.09,0.32-0.17,1.38-0.69,1.78C1164.0,38.25,1153.5,41.75,1137.0,44.54" style="fill:none;stroke:#999;stroke-width:3"></path>
<path d="M1135.0,52.52c1.06,0.43,3,0.56,4.06,0.43c9.94-1.2,28.9-3.12,36.74-3.25c1.76-0.03,2.82,0.2,3.7,0.42" style="fill:none;stroke:#999;stroke-width:3"></path>
<path d="M1128.0,64.61c1.37,0.46,3.88,0.51,5.26,0.46c9.71-0.33,38.9-3.45,49.44-2.98c2.28,0.1,3.66,0.22,4.8,0.45" style="fill:none;stroke:#999;stroke-width:3"></path>

<path d="M1211.88,20.07c0.29,1.36,0.71,2.4,0.71,4.16c0,1.77-0.1,62.47,0,64.25" style="fill:none;stroke:#999;stroke-width:3"></path>
<path d="M1213.07,21.26c1.62-0.02,13.48-1.82,14.96-1.9c1.23-0.07,2.1,0.99,2.1,2.63c0,6.04-0.57,51.89-0.57,65.68" style="fill:none;stroke:#999;stroke-width:3"></path>
<path d="M1213.04,42.34c4.48-0.46,12.21-1.52,15.85-1.29" style="fill:none;stroke:#999;stroke-width:3"></path>
<path d="M1213.17,62.64c4.3-0.21,10.54-1.46,16.29-1.08" style="fill:none;stroke:#999;stroke-width:3"></path>
<path d="M1212.54,86.25c4.41-0.25,11.37-0.9,16.95-0.87" style="fill:none;stroke:#999;stroke-width:3"></path>
<path d="M1262.5900000000001,11c1.05,0.34,2.52,1.5,2.52,3.71c0,3.11-0.08,6.4-0.08,9.23" style="fill:none;stroke:#999;stroke-width:3"></path>
<path d="M1242.4,23.25c0,2.77-2.92,12.9-4.02,14.75" style="fill:none;stroke:#999;stroke-width:3"></path>
<path d="M1242.65,26.13c1.21,0.07,42.72-3.14,48.87-3.41c10.73-0.47,2.48,6.28-1.36,9.4" style="fill:none;stroke:#999;stroke-width:3"></path>
<path d="M1280.76,31c0.09,0.32-0.17,1.38-0.69,1.78C1273.0,38.25,1262.5,41.75,1246.0,44.54" style="fill:none;stroke:#999;stroke-width:3"></path>
<path d="M1244.0,52.52c1.06,0.43,3,0.56,4.06,0.43c9.94-1.2,28.9-3.12,36.74-3.25c1.76-0.03,2.82,0.2,3.7,0.42" style="fill:none;stroke:#999;stroke-width:3"></path>
<path d="M1237.0,64.61c1.37,0.46,3.88,0.51,5.26,0.46c9.71-0.33,38.9-3.45,49.44-2.98c2.28,0.1,3.66,0.22,4.8,0.45" style="fill:none;stroke:#999;stroke-width:3"></path>
<path d="M1263.12,31.25c1.09,0.5,1.74,2.25,1.96,3.25c0.22,1,0.14,27.5-0.08,33.75" style="fill:none;stroke:#999;stroke-width:3"></path>

<path d="M1320.88,20.07c0.29,1.36,0.71,2.4,0.71,4.16c0,1.77-0.1,62.47,0,64.25" style="fill:none;stroke:#999;stroke-width:3"></path>
<path d="M1322.07,21.26c1.62-0.02,13.48-1.82,14.96-1.9c1.23-0.07,2.1,0.99,2.1,2.63c0,6.04-0.57,51.89-0.57,65.68" style="fill:none;stroke:#999;stroke-width:3"></path>
<path d="M1322.04,42.34c4.48-0.46,12.21-1.52,15.85-1.29" style="fill:none;stroke:#999;stroke-width:3"></path>
<path d="M1322.17,62.64c4.3-0.21,10.54-1.46,16.29-1.08" style="fill:none;stroke:#999;stroke-width:3"></path>
<path d="M1321.54,86.25c4.41-0.25,11.37-0.9,16.95-0.87" style="fill:none;stroke:#999;stroke-width:3"></path>
<path d="M1371.5900000000001,11c1.05,0.34,2.52,1.5,2.52,3.71c0,3.11-0.08,6.4-0.08,9.23" style="fill:none;stroke:#999;stroke-width:3"></path>
<path d="M1351.4,23.25c0,2.77-2.92,12.9-4.02,14.75" style="fill:none;stroke:#999;stroke-width:3"></path>
<path d="M1351.65,26.13c1.21,0.07,42.72-3.14,48.87-3.41c10.73-0.47,2.48,6.28-1.36,9.4" style="fill:none;stroke:#999;stroke-width:3"></path>
<path d="M1389.76,31c0.09,0.32-0.17,1.38-0.69,1.78C1382.0,38.25,1371.5,41.75,1355.0,44.54" style="fill:none;stroke:#999;stroke-width:3"></path>
<path d="M1353.0,52.52c1.06,0.43,3,0.56,4.06,0.43c9.94-1.2,28.9-3.12,36.74-3.25c1.76-0.03,2.82,0.2,3.7,0.42" style="fill:none;stroke:#999;stroke-width:3"></path>
<path d="M1346.0,64.61c1.37,0.46,3.88,0.51,5.26,0.46c9.71-0.33,38.9-3.45,49.44-2.98c2.28,0.1,3.66,0.22,4.8,0.45" style="fill:none;stroke:#999;stroke-width:3"></path>
<path d="M1372.12,31.25c1.09,0.5,1.74,2.25,1.96,3.25c0.22,1,0.14,27.5-0.08,33.75" style="fill:none;stroke:#999;stroke-width:3"></path>
<path d="M1356.75,76.85c0.35,0.37,0.7,0.68,0.85,1.15c1.2,3.68,2.14,13.85,2.96,20.47" style="fill:none;stroke:#999;stroke-width:3"></path>

<path d="M1429.88,20.07c0.29,1.36,0.71,2.4,0.71,4.16c0,1.77-0.1,62.47,0,64.25" style="fill:none;stroke:#999;stroke-width:3"></path>
<path d="M1431.07,21.26c1.62-0.02,13.48-1.82,14.96-1.9c1.23-0.07,2.1,0.99,2.1,2.63c0,6.04-0.57,51.89-0.57,65.68" style="fill:none;stroke:#999;stroke-width:3"></path>
<path d="M1431.04,42.34c4.48-0.46,12.21-1.52,15.85-1.29" style="fill:none;stroke:#999;stroke-width:3"></path>
<path d="M1431.17,62.64c4.3-0.21,10.54-1.46,16.29-1.08" style="fill:none;stroke:#999;stroke-width:3"></path>
<path d="M1430.54,86.25c4.41-0.25,11.37-0.9,16.95-0.87" style="fill:none;stroke:#999;stroke-width:3"></path>
<path d="M1480.5900000000001,11c1.05,0.34,2.52,1.5,2.52,3.71c0,3.11-0.08,6.4-0.08,9.23" style="fill:none;stroke:#999;stroke-width:3"></path>
<path d="M1460.4,23.25c0,2.77-2.92,12.9-4.02,14.75" style="fill:none;stroke:#999;stroke-width:3"></path>
<path d="M1460.65,26.13c1.21,0.07,42.72-3.14,48.87-3.41c10.73-0.47,2.48,6.28-1.36,9.4" style="fill:none;stroke:#999;stroke-width:3"></path>
<path d="M1498.76,31c0.09,0.32-0.17,1.38-0.69,1.78C1491.0,38.25,1480.5,41.75,1464.0,44.54" style="fill:none;stroke:#999;stroke-width:3"></path>
<path d="M1462.0,52.52c1.06,0.43,3,0.56,4.06,0.43c9.94-1.2,28.9-3.12,36.74-3.25c1.76-0.03,2.82,0.2,3.7,0.42" style="fill:none;stroke:#999;stroke-width:3"></path>
<path d="M1455.0,64.61c1.37,0.46,3.88,0.51,5.26,0.46c9.71-0.33,38.9-3.45,49.44-2.98c2.28,0.1,3.66,0.22,4.8,0.45" style="fill:none;stroke:#999;stroke-width:3"></path>
<path d="M1481.12,31.25c1.09,0.5,1.74,2.25,1.96,3.25c0.22,1,0.14,27.5-0.08,33.75" style="fill:none;stroke:#999;stroke-width:3"></path>
<path d="M1465.75,76.85c0.35,0.37,0.7,0.68,0.85,1.15c1.2,3.68,2.14,13.85,2.96,20.47" style="fill:none;stroke:#999;stroke-width:3"></path>
<path d="M1466.91,78.11c9.09-1.11,28.53-2.08,32.9-2.6c1.6-0.19,2.56,1.92,2.33,3.04c-0.95,4.64-2.03,9.64-4.06,16.33" style="fill:none;stroke:#999;stroke-width:3"></path>

<path d="M1538.88,20.07c0.29,1.36,0.71,2.4,0.71,4.16c0,1.77-0.1,62.47,0,64.25" style="fill:none;stroke:#999;stroke-width:3"></path>
<path d="M1540.07,21.26c1.62-0.02,13.48-1.82,14.96-1.9c1.23-0.07,2.1,0.99,2.1,2.63c0,6.04-0.57,51.89-0.57,65.68" style="fill:none;stroke:#999;stroke-width:3"></path>
<path d="M1540.04,42.34c4.48-0.46,12.21-1.52,15.85-1.29" style="fill:none;stroke:#999;stroke-width:3"></path>
<path d="M1540.17,62.64c4.3-0.21,10.54-1.46,16.29-1.08" style="fill:none;stroke:#999;stroke-width:3"></path>
<path d="M1539.54,86.25c4.41-0.25,11.37-0.9,16.95-0.87" style="fill:none;stroke:#999;stroke-width:3"></path>
<path d="M1589.5900000000001,11c1.05,0.34,2.52,1.5,2.52,3.71c0,3.11-0.08,6.4-0.08,9.23" style="fill:none;stroke:#999;stroke-width:3"></path>
<path d="M1569.4,23.25c0,2.77-2.92,12.9-4.02,14.75" style="fill:none;stroke:#999;stroke-width:3"></path>
<path d="M1569.65,26.13c1.21,0.07,42.72-3.14,48.87-3.41c10.73-0.47,2.48,6.28-1.36,9.4" style="fill:none;stroke:#999;stroke-width:3"></path>
<path d="M1607.76,31c0.09,0.32-0.17,1.38-0.69,1.78C1600.0,38.25,1589.5,41.75,1573.0,44.54" style="fill:none;stroke:#999;stroke-width:3"></path>
<path d="M1571.0,52.52c1.06,0.43,3,0.56,4.06,0.43c9.94-1.2,28.9-3.12,36.74-3.25c1.76-0.03,2.82,0.2,3.7,0.42" style="fill:none;stroke:#999;stroke-width:3"></path>
<path d="M1564.0,64.61c1.37,0.46,3.88,0.51,5.26,0.46c9.71-0.33,38.9-3.45,49.44-2.98c2.28,0.1,3.66,0.22,4.8,0.45" style="fill:none;stroke:#999;stroke-width:3"></path>
<path d="M1590.12,31.25c1.09,0.5,1.74,2.25,1.96,3.25c0.22,1,0.14,27.5-0.08,33.75" style="fill:none;stroke:#999;stroke-width:3"></path>
<path d="M1574.75,76.85c0.35,0.37,0.7,0.68,0.85,1.15c1.2,3.68,2.14,13.85,2.96,20.47" style="fill:none;stroke:#999;stroke-width:3"></path>
<path d="M1575.91,78.11c9.09-1.11,28.53-2.08,32.9-2.6c1.6-0.19,2.56,1.92,2.33,3.04c-0.95,4.64-2.03,9.64-4.06,16.33" style="fill:none;stroke:#999;stroke-width:3"></path>
<path d="M1578.91,96.53c6.59-0.53,24.25-0.97,30.77-1.56" style="fill:none;stroke:#999;stroke-width:3"></path>

</svg>