<svg width="981px" height="109px" viewBox="0 0 981 109" xmlns="http://www.w3.org/2000/svg" xmlns:xlink="http://www.w3.org/1999/xlink" xml:space="preserve" version="1.1" baseProfile="full">
<line x1="1" y1="1" x2="980" y2="1" style="stroke:#ddd;stroke-width:2"></line>
<line x1="1" y1="1" x2="1" y2="108" style="stroke:#ddd;stroke-width:2"></line>
<line x1="1" y1="108" x2="980" y2="108" style="stroke:#ddd;stroke-width:2"></line>
<line x1="980" y1="1" x2="980" y2="108" style="stroke:#ddd;stroke-width:2"></line>
<line x1="109" y1="1" x2="109" y2="108" style="stroke:#ddd;stroke-width:2"></line>
<line x1="218" y1="1" x2="218" y2="108" style="stroke:#ddd;stroke-width:2"></line>
<line x1="327" y1="1" x2="327" y2="108" style="stroke:#ddd;stroke-width:2"></line>
<line x1="436" y1="1" x2="436" y2="108" style="stroke:#ddd;stroke-width:2"></line>
<line x1="545" y1="1" x2="545" y2="108" style="stroke:#ddd;stroke-width:2"></line>
<line x1="654" y1="1" x2="654" y2="108" style="stroke:#ddd;stroke-width:2"></line>
<line x1="763" y1="1" x2="763" y2="108" style="stroke:#ddd;stroke-width:2"></line>
<line x1="872" y1="1" x2="872" y2="108" style="stroke:#ddd;stroke-width:2"></line>
<line x1="1" y1="54" x2="980" y2="54" style="stroke:#ddd;stroke-width:2;stroke-dasharray:3 3"></line>
<line x1="55" y1="1" x2="55" y2="108" style="stroke:#ddd;stroke-width:2;stroke-dasharray:3 3"></line>
<line x1="164" y1="1" x2="164" y2="108" style="stroke:#ddd;stroke-width:2;stroke-dasharray:3 3"></line>
<line x1="273" y1="1" x2="273" y2="108" style="stroke:#ddd;stroke-width:2;stroke-dasharray:3 3"></line>
<line x1="382" y1="1" x2="382" y2="108" style="stroke:#ddd;stroke-width:2;stroke-dasharray:3 3"></line>
<line x1="491" y1="1" x2="491" y2="108" style="stroke:#ddd;stroke-width:2;stroke-dasharray:3 3"></line>
<line x1="600" y1="1" x2="600" y2="108" style="stroke:#ddd;stroke-width:2;stroke-dasharray:3 3"></line>
<line x1="709" y1="1" x2="709" y2="108" style="stroke:#ddd;stroke-width:2;stroke-dasharray:3 3"></line>
<line x1="818" y1="1" x2="818" y2="108" style="stroke:#ddd;stroke-width:2;stroke-dasharray:3 3"></line>
<line x1="927" y1="1" x2="927" y2="108" style="stroke:#ddd;stroke-width:2;stroke-dasharray:3 3"></line>
<path d="M14.14,17.62c0.68,0.36,3.58,0.98,4.76,0.76c2.34-0.44,19.85-2.57,22.33-3.02c2.48-0.44,3.32,1.88,1.84,3.33c-2.53,2.5-9.77,10.8-11.33,12.59" style="fill:none;stroke:#999;stroke-width:3"></path>

<path d="M123.14,17.62c0.68,0.36,3.58,0.98,4.76,0.76c2.34-0.44,19.85-2.57,22.33-3.02c2.48-0.44,3.32,1.88,1.84,3.33c-2.53,2.5-9.77,10.8-11.33,12.59" style="fill:none;stroke:#999;stroke-width:3"></path>
<path d="M129.72,26.06c3.16,1.55,11.35,7.51,12.84,11.57" style="fill:none;stroke:#999;stroke-width:3"></path>

<path d="M232.14,17.62c0.68,0.36,3.58,0.98,4.76,0.76c2.34-0.44,19.85-2.57,22.33-3.02c2.48-0.44,3.32,1.88,1.84,3.33c-2.53,2.5-9.77,10.8-11.33,12.59" style="fill:none;stroke:#999;stroke-width:3"></path>
<path d="M238.72,26.06c3.16,1.55,11.35,7.51,12.84,11.57" style="fill:none;stroke:#999;stroke-width:3"></path>
<path d="M228.06,42.91c0.72,0.25,1.79,1.31,4.82,0.86c6.2-0.95,21.04-3.5,26.95-4.89c11.25-2.63,2.42,7.37-1.58,11.87" style="fill:none;stroke:#999;stroke-width:3"></path>

<path d="M341.14,17.62c0.68,0.36,3.58,0.98,4.76,0.76c2.34-0.44,19.85-2.57,22.33-3.02c2.48-0.44,3.32,1.88,1.84,3.33c-2.53,2.5-9.77,10.8-11.33,12.59" style="fill:none;stroke:#999;stroke-width:3"></path>
<path d="M347.72,26.06c3.16,1.55,11.35,7.51,12.84,11.57" style="fill:none;stroke:#999;stroke-width:3"></path>
<path d="M337.06,42.91c0.72,0.25,1.79,1.31,4.82,0.86c6.2-0.95,21.04-3.5,26.95-4.89c11.25-2.63,2.42,7.37-1.58,11.87" style="fill:none;stroke:#999;stroke-width:3"></path>
<path d="M359.90999999999997,41.87c0,10.69,0.33,26.73,0.33,47.51c0,14.3-8.11,1.78-10.7,0.89" style="fill:none;stroke:#999;stroke-width:3"></path>

<path d="M450.14,17.62c0.68,0.36,3.58,0.98,4.76,0.76c2.34-0.44,19.85-2.57,22.33-3.02c2.48-0.44,3.32,1.88,1.84,3.33c-2.53,2.5-9.77,10.8-11.33,12.59" style="fill:none;stroke:#999;stroke-width:3"></path>
<path d="M456.72,26.06c3.16,1.55,11.35,7.51,12.84,11.57" style="fill:none;stroke:#999;stroke-width:3"></path>
<path d="M446.06,42.91c0.72,0.25,1.79,1.31,4.82,0.86c6.2-0.95,21.04-3.5,26.95-4.89c11.25-2.63,2.42,7.37-1.58,11.87" style="fill:none;stroke:#999;stroke-width:3"></path>
<path d="M468.90999999999997,41.87c0,10.69,0.33,26.73,0.33,47.51c0,14.3-8.11,1.78-10.7,0.89" style="fill:none;stroke:#999;stroke-width:3"></path>
<path d="M469.71,41.97c0.07,0.84,0.37,2.28-0.13,3.4c-4.01,9.05-9.85,20.5-22.91,32.57" style="fill:none;stroke:#999;stroke-width:3"></path>

<path d="M559.14,17.62c0.68,0.36,3.58,0.98,4.76,0.76c2.34-0.44,19.85-2.57,22.33-3.02c2.48-0.44,3.32,1.88,1.84,3.33c-2.53,2.5-9.77,10.8-11.33,12.59" style="fill:none;stroke:#999;stroke-width:3"></path>
<path d="M565.72,26.06c3.16,1.55,11.35,7.51,12.84,11.57" style="fill:none;stroke:#999;stroke-width:3"></path>
<path d="M555.06,42.91c0.72,0.25,1.79,1.31,4.82,0.86c6.2-0.95,21.04-3.5,26.95-4.89c11.25-2.63,2.42,7.37-1.58,11.87" style="fill:none;stroke:#999;stroke-width:3"></path>
<path d="M577.91,41.87c0,10.69,0.33,26.73,0.33,47.51c0,14.3-8.11,1.78-10.7,0.89" style="fill:none;stroke:#999;stroke-width:3"></path>
<path d="M578.71,41.97c0.07,0.84,0.37,2.28-0.13,3.4c-4.01,9.05-9.85,20.5-22.91,32.57" style="fill:none;stroke:#999;stroke-width:3"></path>
<path d="M613.29,12.83c0.07,1.02,0.27,2.7-0.15,4.11c-2.9,9.92-11.52,26.04-25.65,39.38" style="fill:none;stroke:#999;stroke-width:3"></path>

<path d="M668.14,17.62c0.68,0.36,3.58,0.98,4.76,0.76c2.34-0.44,19.85-2.57,22.33-3.02c2.48-0.44,3.32,1.88,1.84,3.33c-2.53,2.5-9.77,10.8-11.33,12.59" style="fill:none;stroke:#999;stroke-width:3"></path>
<path d="M674.72,26.06c3.16,1.55,11.35,7.51,12.84,11.57" style="fill:none;stroke:#999;stroke-width:3"></path>
<path d="M664.06,42.91c0.72,0.25,1.79,1.31,4.82,0.86c6.2-0.95,21.04-3.5,26.95-4.89c11.25-2.63,2.42,7.37-1.58,11.87" style="fill:none;stroke:#999;stroke-width:3"></path>
<path d="M686.91,41.87c0,10.69,0.33,26.73,0.33,47.51c0,14.3-8.11,1.78-10.7,0.89" style="fill:none;stroke:#999;stroke-width:3"></path>
<path d="M687.71,41.97c0.07,0.84,0.37,2.28-0.13,3.4c-4.01,9.05-9.85,20.5-22.91,32.57" style="fill:none;stroke:#999;stroke-width:3"></path>
<path d="M722.29,12.83c0.07,1.02,0.27,2.7-0.15,4.11c-2.9,9.92-11.52,26.04-25.65,39.38" style="fill:none;stroke:#999;stroke-width:3"></path>
<path d="M722.51,15.82C726.19,22.37,743.02,44.21,747.06,49c1.37,1.63,3.14,2.32,4.51,2.78" style="fill:none;stroke:#999;stroke-width:3"></path>

<path d="M777.14,17.62c0.68,0.36,3.58,0.98,4.76,0.76c2.34-0.44,19.85-2.57,22.33-3.02c2.48-0.44,3.32,1.88,1.84,3.33c-2.53,2.5-9.77,10.8-11.33,12.59" style="fill:none;stroke:#999;stroke-width:3"></path>
<path d="M783.72,26.06c3.16,1.55,11.35,7.51,12.84,11.57" style="fill:none;stroke:#999;stroke-width:3"></path>
<path d="M773.06,42.91c0.72,0.25,1.79,1.31,4.82,0.86c6.2-0.95,21.04-3.5,26.95-4.89c11.25-2.63,2.42,7.37-1.58,11.87" style="fill:none;stroke:#999;stroke-width:3"></path>
<path d="M795.91,41.87c0,10.69,0.33,26.73,0.33,47.51c0,14.3-8.11,1.78-10.7,0.89" style="fill:none;stroke:#999;stroke-width:3"></path>
<path d="M796.71,41.97c0.07,0.84,0.37,2.28-0.13,3.4c-4.01,9.05-9.85,20.5-22.91,32.57" style="fill:none;stroke:#999;stroke-width:3"></path>
<path d="M831.29,12.83c0.07,1.02,0.27,2.7-0.15,4.11c-2.9,9.92-11.52,26.04-25.65,39.38" style="fill:none;stroke:#999;stroke-width:3"></path>
<path d="M831.51,15.82C835.19,22.37,852.02,44.21,856.06,49c1.37,1.63,3.14,2.32,4.51,2.78" style="fill:none;stroke:#999;stroke-width:3"></path>
<path d="M820.32,48.61c0.37,0.2,2.62,0.22,2.98,0.2c3.82-0.23,13.28-2.32,17.03-2.3c0.62,0,3.16,0.09,3.47,0.19" style="fill:none;stroke:#999;stroke-width:3"></path>

<path d="M886.14,17.62c0.68,0.36,3.58,0.98,4.76,0.76c2.34-0.44,19.85-2.57,22.33-3.02c2.48-0.44,3.32,1.88,1.84,3.33c-2.53,2.5-9.77,10.8-11.33,12.59" style="fill:none;stroke:#999;stroke-width:3"></path>
<path d="M892.72,26.06c3.16,1.55,11.35,7.51,12.84,11.57" style="fill:none;stroke:#999;stroke-width:3"></path>
<path d="M882.06,42.91c0.72,0.25,1.79,1.31,4.82,0.86c6.2-0.95,21.04-3.5,26.95-4.89c11.25-2.63,2.42,7.37-1.58,11.87" style="fill:none;stroke:#999;stroke-width:3"></path>
<path d="M904.91,41.87c0,10.69,0.33,26.73,0.33,47.51c0,14.3-8.11,1.78-10.7,0.89" style="fill:none;stroke:#999;stroke-width:3"></path>
<path d="M905.71,41.97c0.07,0.84,0.37,2.28-0.13,3.4c-4.01,9.05-9.85,20.5-22.91,32.57" style="fill:none;stroke:#999;stroke-width:3"></path>
<path d="M940.29,12.83c0.07,1.02,0.27,2.7-0.15,4.11c-2.9,9.92-11.52,26.04-25.65,39.38" style="fill:none;stroke:#999;stroke-width:3"></path>
<path d="M940.51,15.82C944.19,22.37,961.02,44.21,965.06,49c1.37,1.63,3.14,2.32,4.51,2.78" style="fill:none;stroke:#999;stroke-width:3"></path>
<path d="M929.32,48.61c0.37,0.2,2.62,0.22,2.98,0.2c3.82-0.23,13.28-2.32,17.03-2.3c0.62,0,3.16,0.09,3.47,0.19" style="fill:none;stroke:#999;stroke-width:3"></path>
<path d="M922.35,64.16c0.87,0.05,3.8,0.37,6.1,0.08c5.97-0.74,17.95-1.85,24.34-2.87c3.79-0.61,5.1,1.43,2.95,5.77c-5.99,10.61-9.24,18.61-15.94,29.67" style="fill:none;stroke:#999;stroke-width:3"></path>

</svg>