<svg width="545px" height="109px" viewBox="0 0 545 109" xmlns="http://www.w3.org/2000/svg" xmlns:xlink="http://www.w3.org/1999/xlink" xml:space="preserve" version="1.1" baseProfile="full">
<line x1="1" y1="1" x2="544" y2="1" style="stroke:#ddd;stroke-width:2"></line>
<line x1="1" y1="1" x2="1" y2="108" style="stroke:#ddd;stroke-width:2"></line>
<line x1="1" y1="108" x2="544" y2="108" style="stroke:#ddd;stroke-width:2"></line>
<line x1="544" y1="1" x2="544" y2="108" style="stroke:#ddd;stroke-width:2"></line>
<line x1="109" y1="1" x2="109" y2="108" style="stroke:#ddd;stroke-width:2"></line>
<line x1="218" y1="1" x2="218" y2="108" style="stroke:#ddd;stroke-width:2"></line>
<line x1="327" y1="1" x2="327" y2="108" style="stroke:#ddd;stroke-width:2"></line>
<line x1="436" y1="1" x2="436" y2="108" style="stroke:#ddd;stroke-width:2"></line>
<line x1="1" y1="54" x2="544" y2="54" style="stroke:#ddd;stroke-width:2;stroke-dasharray:3 3"></line>
<line x1="55" y1="1" x2="55" y2="108" style="stroke:#ddd;stroke-width:2;stroke-dasharray:3 3"></line>
<line x1="164" y1="1" x2="164" y2="108" style="stroke:#ddd;stroke-width:2;stroke-dasharray:3 3"></line>
<line x1="273" y1="1" x2="273" y2="108" style="stroke:#ddd;stroke-width:2;stroke-dasharray:3 3"></line>
<line x1="382" y1="1" x2="382" y2="108" style="stroke:#ddd;stroke-width:2;stroke-dasharray:3 3"></line>
<line x1="491" y1="1" x2="491" y2="108" style="stroke:#ddd;stroke-width:2;stroke-dasharray:3 3"></line>
<path d="M39.55,11.75c0.11,1.35,0.01,2.63-0.39,3.92c-2.04,6.63-10.37,20.42-18.66,25.7" style="fill:none;stroke:#999;stroke-width:3"></path>

<path d="M148.55,11.75c0.11,1.35,0.01,2.63-0.39,3.92c-2.04,6.63-10.37,20.42-18.66,25.7" style="fill:none;stroke:#999;stroke-width:3"></path>
<path d="M143.92000000000002,31.39c1.83,0.11,3.39-0.16,4.66-0.31c6.04-0.71,20.92-3.33,29.16-5.29c2.08-0.49,3.63-0.54,5.26-0.29" style="fill:none;stroke:#999;stroke-width:3"></path>

<path d="M257.55,11.75c0.11,1.35,0.01,2.63-0.39,3.92c-2.04,6.63-10.37,20.42-18.66,25.7" style="fill:none;stroke:#999;stroke-width:3"></path>
<path d="M252.92000000000002,31.39c1.83,0.11,3.39-0.16,4.66-0.31c6.04-0.71,20.92-3.33,29.16-5.29c2.08-0.49,3.63-0.54,5.26-0.29" style="fill:none;stroke:#999;stroke-width:3"></path>
<path d="M236.95,54.02c2.2,0.48,5.05,0.73,7.46,0.46c20.43-2.24,38.35-4.61,54.2-5.3c1.83-0.08,5.47,0.07,7.68,0.7" style="fill:none;stroke:#999;stroke-width:3"></path>

<path d="M366.55,11.75c0.11,1.35,0.01,2.63-0.39,3.92c-2.04,6.63-10.37,20.42-18.66,25.7" style="fill:none;stroke:#999;stroke-width:3"></path>
<path d="M361.92,31.39c1.83,0.11,3.39-0.16,4.66-0.31c6.04-0.71,20.92-3.33,29.16-5.29c2.08-0.49,3.63-0.54,5.26-0.29" style="fill:none;stroke:#999;stroke-width:3"></path>
<path d="M345.95,54.02c2.2,0.48,5.05,0.73,7.46,0.46c20.43-2.24,38.35-4.61,54.2-5.3c1.83-0.08,5.47,0.07,7.68,0.7" style="fill:none;stroke:#999;stroke-width:3"></path>
<path d="M379.32,32.29c0.43,0.96,0.9,1.86,0.85,3.72c-0.92,32.5-14.54,48.87-36.42,59.12" style="fill:none;stroke:#999;stroke-width:3"></path>

<path d="M475.55,11.75c0.11,1.35,0.01,2.63-0.39,3.92c-2.04,6.63-10.37,20.42-18.66,25.7" style="fill:none;stroke:#999;stroke-width:3"></path>
<path d="M470.92,31.39c1.83,0.11,3.39-0.16,4.66-0.31c6.04-0.71,20.92-3.33,29.16-5.29c2.08-0.49,3.63-0.54,5.26-0.29" style="fill:none;stroke:#999;stroke-width:3"></path>
<path d="M454.95,54.02c2.2,0.48,5.05,0.73,7.46,0.46c20.43-2.24,38.35-4.61,54.2-5.3c1.83-0.08,5.47,0.07,7.68,0.7" style="fill:none;stroke:#999;stroke-width:3"></path>
<path d="M488.32,32.29c0.43,0.96,0.9,1.86,0.85,3.72c-0.92,32.5-14.54,48.87-36.42,59.12" style="fill:none;stroke:#999;stroke-width:3"></path>
<path d="M489.25,53c9.5,12.25,21.9,27.44,30.96,35.6c2.33,2.09,5.17,4.4,8.67,5.78" style="fill:none;stroke:#999;stroke-width:3"></path>

</svg>