<svg width="872px" height="109px" viewBox="0 0 872 109" xmlns="http://www.w3.org/2000/svg" xmlns:xlink="http://www.w3.org/1999/xlink" xml:space="preserve" version="1.1" baseProfile="full">
<line x1="1" y1="1" x2="871" y2="1" style="stroke:#ddd;stroke-width:2"></line>
<line x1="1" y1="1" x2="1" y2="108" style="stroke:#ddd;stroke-width:2"></line>
<line x1="1" y1="108" x2="871" y2="108" style="stroke:#ddd;stroke-width:2"></line>
<line x1="871" y1="1" x2="871" y2="108" style="stroke:#ddd;stroke-width:2"></line>
<line x1="109" y1="1" x2="109" y2="108" style="stroke:#ddd;stroke-width:2"></line>
<line x1="218" y1="1" x2="218" y2="108" style="stroke:#ddd;stroke-width:2"></line>
<line x1="327" y1="1" x2="327" y2="108" style="stroke:#ddd;stroke-width:2"></line>
<line x1="436" y1="1" x2="436" y2="108" style="stroke:#ddd;stroke-width:2"></line>
<line x1="545" y1="1" x2="545" y2="108" style="stroke:#ddd;stroke-width:2"></line>
<line x1="654" y1="1" x2="654" y2="108" style="stroke:#ddd;stroke-width:2"></line>
<line x1="763" y1="1" x2="763" y2="108" style="stroke:#ddd;stroke-width:2"></line>
<line x1="1" y1="54" x2="871" y2="54" style="stroke:#ddd;stroke-width:2;stroke-dasharray:3 3"></line>
<line x1="55" y1="1" x2="55" y2="108" style="stroke:#ddd;stroke-width:2;stroke-dasharray:3 3"></line>
<line x1="164" y1="1" x2="164" y2="108" style="stroke:#ddd;stroke-width:2;stroke-dasharray:3 3"></line>
<line x1="273" y1="1" x2="273" y2="108" style="stroke:#ddd;stroke-width:2;stroke-dasharray:3 3"></line>
<line x1="382" y1="1" x2="382" y2="108" style="stroke:#ddd;stroke-width:2;stroke-dasharray:3 3"></line>
<line x1="491" y1="1" x2="491" y2="108" style="stroke:#ddd;stroke-width:2;stroke-dasharray:3 3"></line>
<line x1="600" y1="1" x2="600" y2="108" style="stroke:#ddd;stroke-width:2;stroke-dasharray:3 3"></line>
<line x1="709" y1="1" x2="709" y2="108" style="stroke:#ddd;stroke-width:2;stroke-dasharray:3 3"></line>
<line x1="818" y1="1" x2="818" y2="108" style="stroke:#ddd;stroke-width:2;stroke-dasharray:3 3"></line>
<path d="M12.32,26.49c0.69,0.14,1.96,0.17,2.64,0.14c8.64-0.47,14.7-1.47,26.25-2.29c1.15-0.08,1.84,0.06,2.42,0.13" style="fill:none;stroke:#999;stroke-width:3"></path>

<path d="M121.32,26.49c0.69,0.14,1.96,0.17,2.64,0.14c8.64-0.47,14.7-1.47,26.25-2.29c1.15-0.08,1.84,0.06,2.42,0.13" style="fill:none;stroke:#999;stroke-width:3"></path>
<path d="M135.2,28.26c0.05,1.04,0.11,2.68-0.1,4.15c-1.31,8.77-8.82,27.98-19.09,39.77" style="fill:none;stroke:#999;stroke-width:3"></path>

<path d="M230.32,26.49c0.69,0.14,1.96,0.17,2.64,0.14c8.64-0.47,14.7-1.47,26.25-2.29c1.15-0.08,1.84,0.06,2.42,0.13" style="fill:none;stroke:#999;stroke-width:3"></path>
<path d="M244.2,28.26c0.05,1.04,0.11,2.68-0.1,4.15c-1.31,8.77-8.82,27.98-19.09,39.77" style="fill:none;stroke:#999;stroke-width:3"></path>
<path d="M239.41,54.69c0.29,0.48,0.59,0.88,0.71,1.49c1.01,4.78,1.73,18.97,2.42,27.57" style="fill:none;stroke:#999;stroke-width:3"></path>

<path d="M339.32,26.49c0.69,0.14,1.96,0.17,2.64,0.14c8.64-0.47,14.7-1.47,26.25-2.29c1.15-0.08,1.84,0.06,2.42,0.13" style="fill:none;stroke:#999;stroke-width:3"></path>
<path d="M353.2,28.26c0.05,1.04,0.11,2.68-0.1,4.15c-1.31,8.77-8.82,27.98-19.09,39.77" style="fill:none;stroke:#999;stroke-width:3"></path>
<path d="M348.40999999999997,54.69c0.29,0.48,0.59,0.88,0.71,1.49c1.01,4.78,1.73,18.97,2.42,27.57" style="fill:none;stroke:#999;stroke-width:3"></path>
<path d="M349.73,55.92c8.02-1.42,15.04-2.48,18.52-3.22c1.27-0.27,2.03,1.6,1.85,3.18c-0.75,6.57-2.7,14.51-3.82,23.58" style="fill:none;stroke:#999;stroke-width:3"></path>

<path d="M448.32,26.49c0.69,0.14,1.96,0.17,2.64,0.14c8.64-0.47,14.7-1.47,26.25-2.29c1.15-0.08,1.84,0.06,2.42,0.13" style="fill:none;stroke:#999;stroke-width:3"></path>
<path d="M462.2,28.26c0.05,1.04,0.11,2.68-0.1,4.15c-1.31,8.77-8.82,27.98-19.09,39.77" style="fill:none;stroke:#999;stroke-width:3"></path>
<path d="M457.40999999999997,54.69c0.29,0.48,0.59,0.88,0.71,1.49c1.01,4.78,1.73,18.97,2.42,27.57" style="fill:none;stroke:#999;stroke-width:3"></path>
<path d="M458.73,55.92c8.02-1.42,15.04-2.48,18.52-3.22c1.27-0.27,2.03,1.6,1.85,3.18c-0.75,6.57-2.7,14.51-3.82,23.58" style="fill:none;stroke:#999;stroke-width:3"></path>
<path d="M460.54,80.76c5.16-0.84,9.87-0.56,16.64-1.63" style="fill:none;stroke:#999;stroke-width:3"></path>

<path d="M557.3199999999999,26.49c0.69,0.14,1.96,0.17,2.64,0.14c8.64-0.47,14.7-1.47,26.25-2.29c1.15-0.08,1.84,0.06,2.42,0.13" style="fill:none;stroke:#999;stroke-width:3"></path>
<path d="M571.2,28.26c0.05,1.04,0.11,2.68-0.1,4.15c-1.31,8.77-8.82,27.98-19.09,39.77" style="fill:none;stroke:#999;stroke-width:3"></path>
<path d="M566.41,54.69c0.29,0.48,0.59,0.88,0.71,1.49c1.01,4.78,1.73,18.97,2.42,27.57" style="fill:none;stroke:#999;stroke-width:3"></path>
<path d="M567.73,55.92c8.02-1.42,15.04-2.48,18.52-3.22c1.27-0.27,2.03,1.6,1.85,3.18c-0.75,6.57-2.7,14.51-3.82,23.58" style="fill:none;stroke:#999;stroke-width:3"></path>
<path d="M569.54,80.76c5.16-0.84,9.87-0.56,16.64-1.63" style="fill:none;stroke:#999;stroke-width:3"></path>
<path d="M595.5,25.47c0.95,0.52,4.03,0.53,5,0.53c6.25,0,26.5-2.25,34-2.79c1.46-0.11,2.79,0.1,4,0.54" style="fill:none;stroke:#999;stroke-width:3"></path>

<path d="M666.3199999999999,26.49c0.69,0.14,1.96,0.17,2.64,0.14c8.64-0.47,14.7-1.47,26.25-2.29c1.15-0.08,1.84,0.06,2.42,0.13" style="fill:none;stroke:#999;stroke-width:3"></path>
<path d="M680.2,28.26c0.05,1.04,0.11,2.68-0.1,4.15c-1.31,8.77-8.82,27.98-19.09,39.77" style="fill:none;stroke:#999;stroke-width:3"></path>
<path d="M675.41,54.69c0.29,0.48,0.59,0.88,0.71,1.49c1.01,4.78,1.73,18.97,2.42,27.57" style="fill:none;stroke:#999;stroke-width:3"></path>
<path d="M676.73,55.92c8.02-1.42,15.04-2.48,18.52-3.22c1.27-0.27,2.03,1.6,1.85,3.18c-0.75,6.57-2.7,14.51-3.82,23.58" style="fill:none;stroke:#999;stroke-width:3"></path>
<path d="M678.54,80.76c5.16-0.84,9.87-0.56,16.64-1.63" style="fill:none;stroke:#999;stroke-width:3"></path>
<path d="M704.5,25.47c0.95,0.52,4.03,0.53,5,0.53c6.25,0,26.5-2.25,34-2.79c1.46-0.11,2.79,0.1,4,0.54" style="fill:none;stroke:#999;stroke-width:3"></path>
<path d="M722.87,27.25c1.63,2.25,1.27,4.71,1.27,7.06c0,16.47-0.07,22.86-0.07,51.1" style="fill:none;stroke:#999;stroke-width:3"></path>

<path d="M775.3199999999999,26.49c0.69,0.14,1.96,0.17,2.64,0.14c8.64-0.47,14.7-1.47,26.25-2.29c1.15-0.08,1.84,0.06,2.42,0.13" style="fill:none;stroke:#999;stroke-width:3"></path>
<path d="M789.2,28.26c0.05,1.04,0.11,2.68-0.1,4.15c-1.31,8.77-8.82,27.98-19.09,39.77" style="fill:none;stroke:#999;stroke-width:3"></path>
<path d="M784.41,54.69c0.29,0.48,0.59,0.88,0.71,1.49c1.01,4.78,1.73,18.97,2.42,27.57" style="fill:none;stroke:#999;stroke-width:3"></path>
<path d="M785.73,55.92c8.02-1.42,15.04-2.48,18.52-3.22c1.27-0.27,2.03,1.6,1.85,3.18c-0.75,6.57-2.7,14.51-3.82,23.58" style="fill:none;stroke:#999;stroke-width:3"></path>
<path d="M787.54,80.76c5.16-0.84,9.87-0.56,16.64-1.63" style="fill:none;stroke:#999;stroke-width:3"></path>
<path d="M813.5,25.47c0.95,0.52,4.03,0.53,5,0.53c6.25,0,26.5-2.25,34-2.79c1.46-0.11,2.79,0.1,4,0.54" style="fill:none;stroke:#999;stroke-width:3"></path>
<path d="M831.87,27.25c1.63,2.25,1.27,4.71,1.27,7.06c0,16.47-0.07,22.86-0.07,51.1" style="fill:none;stroke:#999;stroke-width:3"></path>
<path d="M804.25,87.66c0.96,0.45,4.37,0.92,5.99,0.72c17.44-2.19,30.19-3.25,46.07-3.93c2.6-0.11,5.73,0.75,7.03,1.46" style="fill:none;stroke:#999;stroke-width:3"></path>

</svg>