<svg width="1090px" height="109px" viewBox="0 0 1090 109" xmlns="http://www.w3.org/2000/svg" xmlns:xlink="http://www.w3.org/1999/xlink" xml:space="preserve" version="1.1" baseProfile="full">
<line x1="1" y1="1" x2="1089" y2="1" style="stroke:#ddd;stroke-width:2"></line>
<line x1="1" y1="1" x2="1" y2="108" style="stroke:#ddd;stroke-width:2"></line>
<line x1="1" y1="108" x2="1089" y2="108" style="stroke:#ddd;stroke-width:2"></line>
<line x1="1089" y1="1" x2="1089" y2="108" style="stroke:#ddd;stroke-width:2"></line>
<line x1="109" y1="1" x2="109" y2="108" style="stroke:#ddd;stroke-width:2"></line>
<line x1="218" y1="1" x2="218" y2="108" style="stroke:#ddd;stroke-width:2"></line>
<line x1="327" y1="1" x2="327" y2="108" style="stroke:#ddd;stroke-width:2"></line>
<line x1="436" y1="1" x2="436" y2="108" style="stroke:#ddd;stroke-width:2"></line>
<line x1="545" y1="1" x2="545" y2="108" style="stroke:#ddd;stroke-width:2"></line>
<line x1="654" y1="1" x2="654" y2="108" style="stroke:#ddd;stroke-width:2"></line>
<line x1="763" y1="1" x2="763" y2="108" style="stroke:#ddd;stroke-width:2"></line>
<line x1="872" y1="1" x2="872" y2="108" style="stroke:#ddd;stroke-width:2"></line>
<line x1="981" y1="1" x2="981" y2="108" style="stroke:#ddd;stroke-width:2"></line>
<line x1="1" y1="54" x2="1089" y2="54" style="stroke:#ddd;stroke-width:2;stroke-dasharray:3 3"></line>
<line x1="55" y1="1" x2="55" y2="108" style="stroke:#ddd;stroke-width:2;stroke-dasharray:3 3"></line>
<line x1="164" y1="1" x2="164" y2="108" style="stroke:#ddd;stroke-width:2;stroke-dasharray:3 3"></line>
<line x1="273" y1="1" x2="273" y2="108" style="stroke:#ddd;stroke-width:2;stroke-dasharray:3 3"></line>
<line x1="382" y1="1" x2="382" y2="108" style="stroke:#ddd;stroke-width:2;stroke-dasharray:3 3"></line>
<line x1="491" y1="1" x2="491" y2="108" style="stroke:#ddd;stroke-width:2;stroke-dasharray:3 3"></line>
<line x1="600" y1="1" x2="600" y2="108" style="stroke:#ddd;stroke-width:2;stroke-dasharray:3 3"></line>
<line x1="709" y1="1" x2="709" y2="108" style="stroke:#ddd;stroke-width:2;stroke-dasharray:3 3"></line>
<line x1="818" y1="1" x2="818" y2="108" style="stroke:#ddd;stroke-width:2;stroke-dasharray:3 3"></line>
<line x1="927" y1="1" x2="927" y2="108" style="stroke:#ddd;stroke-width:2;stroke-dasharray:3 3"></line>
<line x1="1036" y1="1" x2="1036" y2="108" style="stroke:#ddd;stroke-width:2;stroke-dasharray:3 3"></line>
<path d="M17.48,17.55c1.38,0.34,2.77,0.44,4.16,0.3c4.55-0.3,10.94-1.08,15.62-1.47c1.42-0.2,2.83-0.12,4.24,0.25" style="fill:none;stroke:#999;stroke-width:3"></path>

<path d="M126.48,17.55c1.38,0.34,2.77,0.44,4.16,0.3c4.55-0.3,10.94-1.08,15.62-1.47c1.42-0.2,2.83-0.12,4.24,0.25" style="fill:none;stroke:#999;stroke-width:3"></path>
<path d="M120.91,35.65c1.99,0.13,3.98,0.09,5.96-0.1c7.02-0.59,16.8-1.76,24.75-2.5c1.98-0.23,3.96-0.28,5.96-0.14" style="fill:none;stroke:#999;stroke-width:3"></path>

<path d="M235.48000000000002,17.55c1.38,0.34,2.77,0.44,4.16,0.3c4.55-0.3,10.94-1.08,15.62-1.47c1.42-0.2,2.83-0.12,4.24,0.25" style="fill:none;stroke:#999;stroke-width:3"></path>
<path d="M229.91,35.65c1.99,0.13,3.98,0.09,5.96-0.1c7.02-0.59,16.8-1.76,24.75-2.5c1.98-0.23,3.96-0.28,5.96-0.14" style="fill:none;stroke:#999;stroke-width:3"></path>
<path d="M247.59,36.93c0.95,1.79,1.28,3.69,1.01,5.69c0.04,8.29-0.01,32.64-0.08,45.75c-0.02,4.04-0.04,7.01-0.06,8.12" style="fill:none;stroke:#999;stroke-width:3"></path>

<path d="M344.48,17.55c1.38,0.34,2.77,0.44,4.16,0.3c4.55-0.3,10.94-1.08,15.62-1.47c1.42-0.2,2.83-0.12,4.24,0.25" style="fill:none;stroke:#999;stroke-width:3"></path>
<path d="M338.90999999999997,35.65c1.99,0.13,3.98,0.09,5.96-0.1c7.02-0.59,16.8-1.76,24.75-2.5c1.98-0.23,3.96-0.28,5.96-0.14" style="fill:none;stroke:#999;stroke-width:3"></path>
<path d="M356.59000000000003,36.93c0.95,1.79,1.28,3.69,1.01,5.69c0.04,8.29-0.01,32.64-0.08,45.75c-0.02,4.04-0.04,7.01-0.06,8.12" style="fill:none;stroke:#999;stroke-width:3"></path>
<path d="M346.88,48.75c0.4,1.69,0.59,3.4,0.49,5.12c-0.61,10.5-2.36,22.38-8.56,32.59" style="fill:none;stroke:#999;stroke-width:3"></path>

<path d="M453.48,17.55c1.38,0.34,2.77,0.44,4.16,0.3c4.55-0.3,10.94-1.08,15.62-1.47c1.42-0.2,2.83-0.12,4.24,0.25" style="fill:none;stroke:#999;stroke-width:3"></path>
<path d="M447.90999999999997,35.65c1.99,0.13,3.98,0.09,5.96-0.1c7.02-0.59,16.8-1.76,24.75-2.5c1.98-0.23,3.96-0.28,5.96-0.14" style="fill:none;stroke:#999;stroke-width:3"></path>
<path d="M465.59000000000003,36.93c0.95,1.79,1.28,3.69,1.01,5.69c0.04,8.29-0.01,32.64-0.08,45.75c-0.02,4.04-0.04,7.01-0.06,8.12" style="fill:none;stroke:#999;stroke-width:3"></path>
<path d="M455.88,48.75c0.4,1.69,0.59,3.4,0.49,5.12c-0.61,10.5-2.36,22.38-8.56,32.59" style="fill:none;stroke:#999;stroke-width:3"></path>
<path d="M477.3,45.75c0.95,1,1.42,3.03,1.42,3.97c0,4.53-0.21,22.16-0.21,31.61" style="fill:none;stroke:#999;stroke-width:3"></path>

<path d="M562.48,17.55c1.38,0.34,2.77,0.44,4.16,0.3c4.55-0.3,10.94-1.08,15.62-1.47c1.42-0.2,2.83-0.12,4.24,0.25" style="fill:none;stroke:#999;stroke-width:3"></path>
<path d="M556.91,35.65c1.99,0.13,3.98,0.09,5.96-0.1c7.02-0.59,16.8-1.76,24.75-2.5c1.98-0.23,3.96-0.28,5.96-0.14" style="fill:none;stroke:#999;stroke-width:3"></path>
<path d="M574.59,36.93c0.95,1.79,1.28,3.69,1.01,5.69c0.04,8.29-0.01,32.64-0.08,45.75c-0.02,4.04-0.04,7.01-0.06,8.12" style="fill:none;stroke:#999;stroke-width:3"></path>
<path d="M564.88,48.75c0.4,1.69,0.59,3.4,0.49,5.12c-0.61,10.5-2.36,22.38-8.56,32.59" style="fill:none;stroke:#999;stroke-width:3"></path>
<path d="M586.3,45.75c0.95,1,1.42,3.03,1.42,3.97c0,4.53-0.21,22.16-0.21,31.61" style="fill:none;stroke:#999;stroke-width:3"></path>
<path d="M612.52,12.5c0.25,1.54,0.07,3.01-0.54,4.4c-2.51,7.15-8.3,18.89-17.24,28.35" style="fill:none;stroke:#999;stroke-width:3"></path>

<path d="M671.48,17.55c1.38,0.34,2.77,0.44,4.16,0.3c4.55-0.3,10.94-1.08,15.62-1.47c1.42-0.2,2.83-0.12,4.24,0.25" style="fill:none;stroke:#999;stroke-width:3"></path>
<path d="M665.91,35.65c1.99,0.13,3.98,0.09,5.96-0.1c7.02-0.59,16.8-1.76,24.75-2.5c1.98-0.23,3.96-0.28,5.96-0.14" style="fill:none;stroke:#999;stroke-width:3"></path>
<path d="M683.59,36.93c0.95,1.79,1.28,3.69,1.01,5.69c0.04,8.29-0.01,32.64-0.08,45.75c-0.02,4.04-0.04,7.01-0.06,8.12" style="fill:none;stroke:#999;stroke-width:3"></path>
<path d="M673.88,48.75c0.4,1.69,0.59,3.4,0.49,5.12c-0.61,10.5-2.36,22.38-8.56,32.59" style="fill:none;stroke:#999;stroke-width:3"></path>
<path d="M695.3,45.75c0.95,1,1.42,3.03,1.42,3.97c0,4.53-0.21,22.16-0.21,31.61" style="fill:none;stroke:#999;stroke-width:3"></path>
<path d="M721.52,12.5c0.25,1.54,0.07,3.01-0.54,4.4c-2.51,7.15-8.3,18.89-17.24,28.35" style="fill:none;stroke:#999;stroke-width:3"></path>
<path d="M717.36,31.8c1.8,0.27,3.6,0.32,5.4,0.15c10.67-0.65,16.55-2.86,24.61-3.54c1.87-0.2,3.75-0.14,5.62,0.18" style="fill:none;stroke:#999;stroke-width:3"></path>

<path d="M780.48,17.55c1.38,0.34,2.77,0.44,4.16,0.3c4.55-0.3,10.94-1.08,15.62-1.47c1.42-0.2,2.83-0.12,4.24,0.25" style="fill:none;stroke:#999;stroke-width:3"></path>
<path d="M774.91,35.65c1.99,0.13,3.98,0.09,5.96-0.1c7.02-0.59,16.8-1.76,24.75-2.5c1.98-0.23,3.96-0.28,5.96-0.14" style="fill:none;stroke:#999;stroke-width:3"></path>
<path d="M792.59,36.93c0.95,1.79,1.28,3.69,1.01,5.69c0.04,8.29-0.01,32.64-0.08,45.75c-0.02,4.04-0.04,7.01-0.06,8.12" style="fill:none;stroke:#999;stroke-width:3"></path>
<path d="M782.88,48.75c0.4,1.69,0.59,3.4,0.49,5.12c-0.61,10.5-2.36,22.38-8.56,32.59" style="fill:none;stroke:#999;stroke-width:3"></path>
<path d="M804.3,45.75c0.95,1,1.42,3.03,1.42,3.97c0,4.53-0.21,22.16-0.21,31.61" style="fill:none;stroke:#999;stroke-width:3"></path>
<path d="M830.52,12.5c0.25,1.54,0.07,3.01-0.54,4.4c-2.51,7.15-8.3,18.89-17.24,28.35" style="fill:none;stroke:#999;stroke-width:3"></path>
<path d="M826.36,31.8c1.8,0.27,3.6,0.32,5.4,0.15c10.67-0.65,16.55-2.86,24.61-3.54c1.87-0.2,3.75-0.14,5.62,0.18" style="fill:none;stroke:#999;stroke-width:3"></path>
<path d="M829.89,33.71c1.19,1.23,1.57,2.79,1.57,4.17c0,10.16-0.06,37.44-0.08,52.63c0,3.52-0.01,6.4-0.01,8.25" style="fill:none;stroke:#999;stroke-width:3"></path>

<path d="M889.48,17.55c1.38,0.34,2.77,0.44,4.16,0.3c4.55-0.3,10.94-1.08,15.62-1.47c1.42-0.2,2.83-0.12,4.24,0.25" style="fill:none;stroke:#999;stroke-width:3"></path>
<path d="M883.91,35.65c1.99,0.13,3.98,0.09,5.96-0.1c7.02-0.59,16.8-1.76,24.75-2.5c1.98-0.23,3.96-0.28,5.96-0.14" style="fill:none;stroke:#999;stroke-width:3"></path>
<path d="M901.59,36.93c0.95,1.79,1.28,3.69,1.01,5.69c0.04,8.29-0.01,32.64-0.08,45.75c-0.02,4.04-0.04,7.01-0.06,8.12" style="fill:none;stroke:#999;stroke-width:3"></path>
<path d="M891.88,48.75c0.4,1.69,0.59,3.4,0.49,5.12c-0.61,10.5-2.36,22.38-8.56,32.59" style="fill:none;stroke:#999;stroke-width:3"></path>
<path d="M913.3,45.75c0.95,1,1.42,3.03,1.42,3.97c0,4.53-0.21,22.16-0.21,31.61" style="fill:none;stroke:#999;stroke-width:3"></path>
<path d="M939.52,12.5c0.25,1.54,0.07,3.01-0.54,4.4c-2.51,7.15-8.3,18.89-17.24,28.35" style="fill:none;stroke:#999;stroke-width:3"></path>
<path d="M935.36,31.8c1.8,0.27,3.6,0.32,5.4,0.15c10.67-0.65,16.55-2.86,24.61-3.54c1.87-0.2,3.75-0.14,5.62,0.18" style="fill:none;stroke:#999;stroke-width:3"></path>
<path d="M938.89,33.71c1.19,1.23,1.57,2.79,1.57,4.17c0,10.16-0.06,37.44-0.08,52.63c0,3.52-0.01,6.4-0.01,8.25" style="fill:none;stroke:#999;stroke-width:3"></path>
<path d="M943.3199999999999,51.19c6.93-0.69,11.25-1.13,17.29-1.72c1.63-0.16,3.23-0.3,4.86,0.01" style="fill:none;stroke:#999;stroke-width:3"></path>

<path d="M998.48,17.55c1.38,0.34,2.77,0.44,4.16,0.3c4.55-0.3,10.94-1.08,15.62-1.47c1.42-0.2,2.83-0.12,4.24,0.25" style="fill:none;stroke:#999;stroke-width:3"></path>
<path d="M992.91,35.65c1.99,0.13,3.98,0.09,5.96-0.1c7.02-0.59,16.8-1.76,24.75-2.5c1.98-0.23,3.96-0.28,5.96-0.14" style="fill:none;stroke:#999;stroke-width:3"></path>
<path d="M1010.59,36.93c0.95,1.79,1.28,3.69,1.01,5.69c0.04,8.29-0.01,32.64-0.08,45.75c-0.02,4.04-0.04,7.01-0.06,8.12" style="fill:none;stroke:#999;stroke-width:3"></path>
<path d="M1000.88,48.75c0.4,1.69,0.59,3.4,0.49,5.12c-0.61,10.5-2.36,22.38-8.56,32.59" style="fill:none;stroke:#999;stroke-width:3"></path>
<path d="M1022.3,45.75c0.95,1,1.42,3.03,1.42,3.97c0,4.53-0.21,22.16-0.21,31.61" style="fill:none;stroke:#999;stroke-width:3"></path>
<path d="M1048.52,12.5c0.25,1.54,0.07,3.01-0.54,4.4c-2.51,7.15-8.3,18.89-17.24,28.35" style="fill:none;stroke:#999;stroke-width:3"></path>
<path d="M1044.3600000000001,31.8c1.8,0.27,3.6,0.32,5.4,0.15c10.67-0.65,16.55-2.86,24.61-3.54c1.87-0.2,3.75-0.14,5.62,0.18" style="fill:none;stroke:#999;stroke-width:3"></path>
<path d="M1047.8899999999999,33.71c1.19,1.23,1.57,2.79,1.57,4.17c0,10.16-0.06,37.44-0.08,52.63c0,3.52-0.01,6.4-0.01,8.25" style="fill:none;stroke:#999;stroke-width:3"></path>
<path d="M1052.32,51.19c6.93-0.69,11.25-1.13,17.29-1.72c1.63-0.16,3.23-0.3,4.86,0.01" style="fill:none;stroke:#999;stroke-width:3"></path>
<path d="M1051.98,68.63c4.08-0.46,12.42-1.48,21.64-2.46c1.61-0.24,3.23-0.22,4.86,0.05" style="fill:none;stroke:#999;stroke-width:3"></path>

</svg>