<svg width="1308px" height="109px" viewBox="0 0 1308 109" xmlns="http://www.w3.org/2000/svg" xmlns:xlink="http://www.w3.org/1999/xlink" xml:space="preserve" version="1.1" baseProfile="full">
<line x1="1" y1="1" x2="1307" y2="1" style="stroke:#ddd;stroke-width:2"></line>
<line x1="1" y1="1" x2="1" y2="108" style="stroke:#ddd;stroke-width:2"></line>
<line x1="1" y1="108" x2="1307" y2="108" style="stroke:#ddd;stroke-width:2"></line>
<line x1="1307" y1="1" x2="1307" y2="108" style="stroke:#ddd;stroke-width:2"></line>
<line x1="109" y1="1" x2="109" y2="108" style="stroke:#ddd;stroke-width:2"></line>
<line x1="218" y1="1" x2="218" y2="108" style="stroke:#ddd;stroke-width:2"></line>
<line x1="327" y1="1" x2="327" y2="108" style="stroke:#ddd;stroke-width:2"></line>
<line x1="436" y1="1" x2="436" y2="108" style="stroke:#ddd;stroke-width:2"></line>
<line x1="545" y1="1" x2="545" y2="108" style="stroke:#ddd;stroke-width:2"></line>
<line x1="654" y1="1" x2="654" y2="108" style="stroke:#ddd;stroke-width:2"></line>
<line x1="763" y1="1" x2="763" y2="108" style="stroke:#ddd;stroke-width:2"></line>
<line x1="872" y1="1" x2="872" y2="108" style="stroke:#ddd;stroke-width:2"></line>
<line x1="981" y1="1" x2="981" y2="108" style="stroke:#ddd;stroke-width:2"></line>
<line x1="1090" y1="1" x2="1090" y2="108" style="stroke:#ddd;stroke-width:2"></line>
<line x1="1199" y1="1" x2="1199" y2="108" style="stroke:#ddd;stroke-width:2"></line>
<line x1="1" y1="54" x2="1307" y2="54" style="stroke:#ddd;stroke-width:2;stroke-dasharray:3 3"></line>
<line x1="55" y1="1" x2="55" y2="108" style="stroke:#ddd;stroke-width:2;stroke-dasharray:3 3"></line>
<line x1="164" y1="1" x2="164" y2="108" style="stroke:#ddd;stroke-width:2;stroke-dasharray:3 3"></line>
<line x1="273" y1="1" x2="273" y2="108" style="stroke:#ddd;stroke-width:2;stroke-dasharray:3 3"></line>
<line x1="382" y1="1" x2="382" y2="108" style="stroke:#ddd;stroke-width:2;stroke-dasharray:3 3"></line>
<line x1="491" y1="1" x2="491" y2="108" style="stroke:#ddd;stroke-width:2;stroke-dasharray:3 3"></line>
<line x1="600" y1="1" x2="600" y2="108" style="stroke:#ddd;stroke-width:2;stroke-dasharray:3 3"></line>
<line x1="709" y1="1" x2="709" y2="108" style="stroke:#ddd;stroke-width:2;stroke-dasharray:3 3"></line>
<line x1="818" y1="1" x2="818" y2="108" style="stroke:#ddd;stroke-width:2;stroke-dasharray:3 3"></line>
<line x1="927" y1="1" x2="927" y2="108" style="stroke:#ddd;stroke-width:2;stroke-dasharray:3 3"></line>
<line x1="1036" y1="1" x2="1036" y2="108" style="stroke:#ddd;stroke-width:2;stroke-dasharray:3 3"></line>
<line x1="1145" y1="1" x2="1145" y2="108" style="stroke:#ddd;stroke-width:2;stroke-dasharray:3 3"></line>
<line x1="1254" y1="1" x2="1254" y2="108" style="stroke:#ddd;stroke-width:2;stroke-dasharray:3 3"></line>
<path d="M40.17,17.41c0.07,0.27,0.15,0.7-0.14,1.1C38.31,20.82,28.47,25.89,15.0,29" style="fill:none;stroke:#999;stroke-width:3"></path>

<path d="M149.17000000000002,17.41c0.07,0.27,0.15,0.7-0.14,1.1C147.31,20.82,137.47,25.89,124.0,29" style="fill:none;stroke:#999;stroke-width:3"></path>
<path d="M118.23,45.27c0.52,0.14,1.93,0.38,3.32,0.43c3.85,0.14,20.7-2.15,30.32-2.86c1.4-0.1,1.75-0.14,2.62,0" style="fill:none;stroke:#999;stroke-width:3"></path>

<path d="M258.17,17.41c0.07,0.27,0.15,0.7-0.14,1.1C256.31,20.82,246.47,25.89,233.0,29" style="fill:none;stroke:#999;stroke-width:3"></path>
<path d="M227.23000000000002,45.27c0.52,0.14,1.93,0.38,3.32,0.43c3.85,0.14,20.7-2.15,30.32-2.86c1.4-0.1,1.75-0.14,2.62,0" style="fill:none;stroke:#999;stroke-width:3"></path>
<path d="M250.82999999999998,25.91c0.37,0.45,0.58,2.02,0.66,2.92c0.07,0.9,0,63.8-0.07,69.42" style="fill:none;stroke:#999;stroke-width:3"></path>

<path d="M367.17,17.41c0.07,0.27,0.15,0.7-0.14,1.1C365.31,20.82,355.47,25.89,342.0,29" style="fill:none;stroke:#999;stroke-width:3"></path>
<path d="M336.23,45.27c0.52,0.14,1.93,0.38,3.32,0.43c3.85,0.14,20.7-2.15,30.32-2.86c1.4-0.1,1.75-0.14,2.62,0" style="fill:none;stroke:#999;stroke-width:3"></path>
<path d="M359.83,25.91c0.37,0.45,0.58,2.02,0.66,2.92c0.07,0.9,0,63.8-0.07,69.42" style="fill:none;stroke:#999;stroke-width:3"></path>
<path d="M360.43,45.72c-4.6,11.4-12.27,25.46-22.68,34.78" style="fill:none;stroke:#999;stroke-width:3"></path>

<path d="M476.17,17.41c0.07,0.27,0.15,0.7-0.14,1.1C474.31,20.82,464.47,25.89,451.0,29" style="fill:none;stroke:#999;stroke-width:3"></path>
<path d="M445.23,45.27c0.52,0.14,1.93,0.38,3.32,0.43c3.85,0.14,20.7-2.15,30.32-2.86c1.4-0.1,1.75-0.14,2.62,0" style="fill:none;stroke:#999;stroke-width:3"></path>
<path d="M468.83,25.91c0.37,0.45,0.58,2.02,0.66,2.92c0.07,0.9,0,63.8-0.07,69.42" style="fill:none;stroke:#999;stroke-width:3"></path>
<path d="M469.43,45.72c-4.6,11.4-12.27,25.46-22.68,34.78" style="fill:none;stroke:#999;stroke-width:3"></path>
<path d="M471.0,50c5.14,2.74,9.48,8.22,12.25,11.75" style="fill:none;stroke:#999;stroke-width:3"></path>

<path d="M585.1700000000001,17.41c0.07,0.27,0.15,0.7-0.14,1.1C583.31,20.82,573.47,25.89,560.0,29" style="fill:none;stroke:#999;stroke-width:3"></path>
<path d="M554.23,45.27c0.52,0.14,1.93,0.38,3.32,0.43c3.85,0.14,20.7-2.15,30.32-2.86c1.4-0.1,1.75-0.14,2.62,0" style="fill:none;stroke:#999;stroke-width:3"></path>
<path d="M577.8299999999999,25.91c0.37,0.45,0.58,2.02,0.66,2.92c0.07,0.9,0,63.8-0.07,69.42" style="fill:none;stroke:#999;stroke-width:3"></path>
<path d="M578.4300000000001,45.72c-4.6,11.4-12.27,25.46-22.68,34.78" style="fill:none;stroke:#999;stroke-width:3"></path>
<path d="M580.0,50c5.14,2.74,9.48,8.22,12.25,11.75" style="fill:none;stroke:#999;stroke-width:3"></path>
<path d="M616.49,12.5c0.12,0.38,1.67,1.95,1.67,4.34c0,8.16,0.09,20.01,0.09,23.91" style="fill:none;stroke:#999;stroke-width:3"></path>

<path d="M694.1700000000001,17.41c0.07,0.27,0.15,0.7-0.14,1.1C692.31,20.82,682.47,25.89,669.0,29" style="fill:none;stroke:#999;stroke-width:3"></path>
<path d="M663.23,45.27c0.52,0.14,1.93,0.38,3.32,0.43c3.85,0.14,20.7-2.15,30.32-2.86c1.4-0.1,1.75-0.14,2.62,0" style="fill:none;stroke:#999;stroke-width:3"></path>
<path d="M686.8299999999999,25.91c0.37,0.45,0.58,2.02,0.66,2.92c0.07,0.9,0,63.8-0.07,69.42" style="fill:none;stroke:#999;stroke-width:3"></path>
<path d="M687.4300000000001,45.72c-4.6,11.4-12.27,25.46-22.68,34.78" style="fill:none;stroke:#999;stroke-width:3"></path>
<path d="M689.0,50c5.14,2.74,9.48,8.22,12.25,11.75" style="fill:none;stroke:#999;stroke-width:3"></path>
<path d="M725.49,12.5c0.12,0.38,1.67,1.95,1.67,4.34c0,8.16,0.09,20.01,0.09,23.91" style="fill:none;stroke:#999;stroke-width:3"></path>
<path d="M716.25,21.75c0.04,0.45,0.08,1.17-0.08,1.83c-0.94,3.86-5.51,9.92-10.67,14.17" style="fill:none;stroke:#999;stroke-width:3"></path>

<path d="M803.1700000000001,17.41c0.07,0.27,0.15,0.7-0.14,1.1C801.31,20.82,791.47,25.89,778.0,29" style="fill:none;stroke:#999;stroke-width:3"></path>
<path d="M772.23,45.27c0.52,0.14,1.93,0.38,3.32,0.43c3.85,0.14,20.7-2.15,30.32-2.86c1.4-0.1,1.75-0.14,2.62,0" style="fill:none;stroke:#999;stroke-width:3"></path>
<path d="M795.8299999999999,25.91c0.37,0.45,0.58,2.02,0.66,2.92c0.07,0.9,0,63.8-0.07,69.42" style="fill:none;stroke:#999;stroke-width:3"></path>
<path d="M796.4300000000001,45.72c-4.6,11.4-12.27,25.46-22.68,34.78" style="fill:none;stroke:#999;stroke-width:3"></path>
<path d="M798.0,50c5.14,2.74,9.48,8.22,12.25,11.75" style="fill:none;stroke:#999;stroke-width:3"></path>
<path d="M834.49,12.5c0.12,0.38,1.67,1.95,1.67,4.34c0,8.16,0.09,20.01,0.09,23.91" style="fill:none;stroke:#999;stroke-width:3"></path>
<path d="M825.25,21.75c0.04,0.45,0.08,1.17-0.08,1.83c-0.94,3.86-5.51,9.92-10.67,14.17" style="fill:none;stroke:#999;stroke-width:3"></path>
<path d="M846.25,19.25c5.27,2.62,11.93,8.93,13.25,13" style="fill:none;stroke:#999;stroke-width:3"></path>

<path d="M912.1700000000001,17.41c0.07,0.27,0.15,0.7-0.14,1.1C910.31,20.82,900.47,25.89,887.0,29" style="fill:none;stroke:#999;stroke-width:3"></path>
<path d="M881.23,45.27c0.52,0.14,1.93,0.38,3.32,0.43c3.85,0.14,20.7-2.15,30.32-2.86c1.4-0.1,1.75-0.14,2.62,0" style="fill:none;stroke:#999;stroke-width:3"></path>
<path d="M904.8299999999999,25.91c0.37,0.45,0.58,2.02,0.66,2.92c0.07,0.9,0,63.8-0.07,69.42" style="fill:none;stroke:#999;stroke-width:3"></path>
<path d="M905.4300000000001,45.72c-4.6,11.4-12.27,25.46-22.68,34.78" style="fill:none;stroke:#999;stroke-width:3"></path>
<path d="M907.0,50c5.14,2.74,9.48,8.22,12.25,11.75" style="fill:none;stroke:#999;stroke-width:3"></path>
<path d="M943.49,12.5c0.12,0.38,1.67,1.95,1.67,4.34c0,8.16,0.09,20.01,0.09,23.91" style="fill:none;stroke:#999;stroke-width:3"></path>
<path d="M934.25,21.75c0.04,0.45,0.08,1.17-0.08,1.83c-0.94,3.86-5.51,9.92-10.67,14.17" style="fill:none;stroke:#999;stroke-width:3"></path>
<path d="M955.25,19.25c5.27,2.62,11.93,8.93,13.25,13" style="fill:none;stroke:#999;stroke-width:3"></path>
<path d="M927.73,40.98c0.87,0.96,1.44,1.92,1.73,2.88c0.29,0.96,0.41,52.29,0.29,54.45" style="fill:none;stroke:#999;stroke-width:3"></path>

<path d="M1021.1700000000001,17.41c0.07,0.27,0.15,0.7-0.14,1.1C1019.31,20.82,1009.47,25.89,996.0,29" style="fill:none;stroke:#999;stroke-width:3"></path>
<path d="M990.23,45.27c0.52,0.14,1.93,0.38,3.32,0.43c3.85,0.14,20.7-2.15,30.32-2.86c1.4-0.1,1.75-0.14,2.62,0" style="fill:none;stroke:#999;stroke-width:3"></path>
<path d="M1013.8299999999999,25.91c0.37,0.45,0.58,2.02,0.66,2.92c0.07,0.9,0,63.8-0.07,69.42" style="fill:none;stroke:#999;stroke-width:3"></path>
<path d="M1014.4300000000001,45.72c-4.6,11.4-12.27,25.46-22.68,34.78" style="fill:none;stroke:#999;stroke-width:3"></path>
<path d="M1016.0,50c5.14,2.74,9.48,8.22,12.25,11.75" style="fill:none;stroke:#999;stroke-width:3"></path>
<path d="M1052.49,12.5c0.12,0.38,1.67,1.95,1.67,4.34c0,8.16,0.09,20.01,0.09,23.91" style="fill:none;stroke:#999;stroke-width:3"></path>
<path d="M1043.25,21.75c0.04,0.45,0.08,1.17-0.08,1.83c-0.94,3.86-5.51,9.92-10.67,14.17" style="fill:none;stroke:#999;stroke-width:3"></path>
<path d="M1064.25,19.25c5.27,2.62,11.93,8.93,13.25,13" style="fill:none;stroke:#999;stroke-width:3"></path>
<path d="M1036.73,40.98c0.87,0.96,1.44,1.92,1.73,2.88c0.29,0.96,0.41,52.29,0.29,54.45" style="fill:none;stroke:#999;stroke-width:3"></path>
<path d="M1038.99,42.48c2.64-0.24,26.38-2.28,28.34-2.54c3.52-0.48,4.39,3.01,4.39,4.52c0,10.26-0.66,27.64-0.66,46.9c0,11.54-5.93,2.65-7.91,0.98" style="fill:none;stroke:#999;stroke-width:3"></path>

<path d="M1130.17,17.41c0.07,0.27,0.15,0.7-0.14,1.1C1128.31,20.82,1118.47,25.89,1105.0,29" style="fill:none;stroke:#999;stroke-width:3"></path>
<path d="M1099.23,45.27c0.52,0.14,1.93,0.38,3.32,0.43c3.85,0.14,20.7-2.15,30.32-2.86c1.4-0.1,1.75-0.14,2.62,0" style="fill:none;stroke:#999;stroke-width:3"></path>
<path d="M1122.83,25.91c0.37,0.45,0.58,2.02,0.66,2.92c0.07,0.9,0,63.8-0.07,69.42" style="fill:none;stroke:#999;stroke-width:3"></path>
<path d="M1123.43,45.72c-4.6,11.4-12.27,25.46-22.68,34.78" style="fill:none;stroke:#999;stroke-width:3"></path>
<path d="M1125.0,50c5.14,2.74,9.48,8.22,12.25,11.75" style="fill:none;stroke:#999;stroke-width:3"></path>
<path d="M1161.49,12.5c0.12,0.38,1.67,1.95,1.67,4.34c0,8.16,0.09,20.01,0.09,23.91" style="fill:none;stroke:#999;stroke-width:3"></path>
<path d="M1152.25,21.75c0.04,0.45,0.08,1.17-0.08,1.83c-0.94,3.86-5.51,9.92-10.67,14.17" style="fill:none;stroke:#999;stroke-width:3"></path>
<path d="M1173.25,19.25c5.27,2.62,11.93,8.93,13.25,13" style="fill:none;stroke:#999;stroke-width:3"></path>
<path d="M1145.73,40.98c0.87,0.96,1.44,1.92,1.73,2.88c0.29,0.96,0.41,52.29,0.29,54.45" style="fill:none;stroke:#999;stroke-width:3"></path>
<path d="M1147.99,42.48c2.64-0.24,26.38-2.28,28.34-2.54c3.52-0.48,4.39,3.01,4.39,4.52c0,10.26-0.66,27.64-0.66,46.9c0,11.54-5.93,2.65-7.91,0.98" style="fill:none;stroke:#999;stroke-width:3"></path>
<path d="M1147.99,58.62c9.04-1.18,23.82-1.78,31.76-2.37" style="fill:none;stroke:#999;stroke-width:3"></path>

<path d="M1239.17,17.41c0.07,0.27,0.15,0.7-0.14,1.1C1237.31,20.82,1227.47,25.89,1214.0,29" style="fill:none;stroke:#999;stroke-width:3"></path>
<path d="M1208.23,45.27c0.52,0.14,1.93,0.38,3.32,0.43c3.85,0.14,20.7-2.15,30.32-2.86c1.4-0.1,1.75-0.14,2.62,0" style="fill:none;stroke:#999;stroke-width:3"></path>
<path d="M1231.83,25.91c0.37,0.45,0.58,2.02,0.66,2.92c0.07,0.9,0,63.8-0.07,69.42" style="fill:none;stroke:#999;stroke-width:3"></path>
<path d="M1232.43,45.72c-4.6,11.4-12.27,25.46-22.68,34.78" style="fill:none;stroke:#999;stroke-width:3"></path>
<path d="M1234.0,50c5.14,2.74,9.48,8.22,12.25,11.75" style="fill:none;stroke:#999;stroke-width:3"></path>
<path d="M1270.49,12.5c0.12,0.38,1.67,1.95,1.67,4.34c0,8.16,0.09,20.01,0.09,23.91" style="fill:none;stroke:#999;stroke-width:3"></path>
<path d="M1261.25,21.75c0.04,0.45,0.08,1.17-0.08,1.83c-0.94,3.86-5.51,9.92-10.67,14.17" style="fill:none;stroke:#999;stroke-width:3"></path>
<path d="M1282.25,19.25c5.27,2.62,11.93,8.93,13.25,13" style="fill:none;stroke:#999;stroke-width:3"></path>
<path d="M1254.73,40.98c0.87,0.96,1.44,1.92,1.73,2.88c0.29,0.96,0.41,52.29,0.29,54.45" style="fill:none;stroke:#999;stroke-width:3"></path>
<path d="M1256.99,42.48c2.64-0.24,26.38-2.28,28.34-2.54c3.52-0.48,4.39,3.01,4.39,4.52c0,10.26-0.66,27.64-0.66,46.9c0,11.54-5.93,2.65-7.91,0.98" style="fill:none;stroke:#999;stroke-width:3"></path>
<path d="M1256.99,58.62c9.04-1.18,23.82-1.78,31.76-2.37" style="fill:none;stroke:#999;stroke-width:3"></path>
<path d="M1257.83,73.25C1264.47,72.44,1281.32,71.54,1289.0,71" style="fill:none;stroke:#999;stroke-width:3"></path>

</svg>