<svg width="1744px" height="109px" viewBox="0 0 1744 109" xmlns="http://www.w3.org/2000/svg" xmlns:xlink="http://www.w3.org/1999/xlink" xml:space="preserve" version="1.1" baseProfile="full">
<line x1="1" y1="1" x2="1743" y2="1" style="stroke:#ddd;stroke-width:2"></line>
<line x1="1" y1="1" x2="1" y2="108" style="stroke:#ddd;stroke-width:2"></line>
<line x1="1" y1="108" x2="1743" y2="108" style="stroke:#ddd;stroke-width:2"></line>
<line x1="1743" y1="1" x2="1743" y2="108" style="stroke:#ddd;stroke-width:2"></line>
<line x1="109" y1="1" x2="109" y2="108" style="stroke:#ddd;stroke-width:2"></line>
<line x1="218" y1="1" x2="218" y2="108" style="stroke:#ddd;stroke-width:2"></line>
<line x1="327" y1="1" x2="327" y2="108" style="stroke:#ddd;stroke-width:2"></line>
<line x1="436" y1="1" x2="436" y2="108" style="stroke:#ddd;stroke-width:2"></line>
<line x1="545" y1="1" x2="545" y2="108" style="stroke:#ddd;stroke-width:2"></line>
<line x1="654" y1="1" x2="654" y2="108" style="stroke:#ddd;stroke-width:2"></line>
<line x1="763" y1="1" x2="763" y2="108" style="stroke:#ddd;stroke-width:2"></line>
<line x1="872" y1="1" x2="872" y2="108" style="stroke:#ddd;stroke-width:2"></line>
<line x1="981" y1="1" x2="981" y2="108" style="stroke:#ddd;stroke-width:2"></line>
<line x1="1090" y1="1" x2="1090" y2="108" style="stroke:#ddd;stroke-width:2"></line>
<line x1="1199" y1="1" x2="1199" y2="108" style="stroke:#ddd;stroke-width:2"></line>
<line x1="1308" y1="1" x2="1308" y2="108" style="stroke:#ddd;stroke-width:2"></line>
<line x1="1417" y1="1" x2="1417" y2="108" style="stroke:#ddd;stroke-width:2"></line>
<line x1="1526" y1="1" x2="1526" y2="108" style="stroke:#ddd;stroke-width:2"></line>
<line x1="1635" y1="1" x2="1635" y2="108" style="stroke:#ddd;stroke-width:2"></line>
<line x1="1" y1="54" x2="1743" y2="54" style="stroke:#ddd;stroke-width:2;stroke-dasharray:3 3"></line>
<line x1="55" y1="1" x2="55" y2="108" style="stroke:#ddd;stroke-width:2;stroke-dasharray:3 3"></line>
<line x1="164" y1="1" x2="164" y2="108" style="stroke:#ddd;stroke-width:2;stroke-dasharray:3 3"></line>
<line x1="273" y1="1" x2="273" y2="108" style="stroke:#ddd;stroke-width:2;stroke-dasharray:3 3"></line>
<line x1="382" y1="1" x2="382" y2="108" style="stroke:#ddd;stroke-width:2;stroke-dasharray:3 3"></line>
<line x1="491" y1="1" x2="491" y2="108" style="stroke:#ddd;stroke-width:2;stroke-dasharray:3 3"></line>
<line x1="600" y1="1" x2="600" y2="108" style="stroke:#ddd;stroke-width:2;stroke-dasharray:3 3"></line>
<line x1="709" y1="1" x2="709" y2="108" style="stroke:#ddd;stroke-width:2;stroke-dasharray:3 3"></line>
<line x1="818" y1="1" x2="818" y2="108" style="stroke:#ddd;stroke-width:2;stroke-dasharray:3 3"></line>
<line x1="927" y1="1" x2="927" y2="108" style="stroke:#ddd;stroke-width:2;stroke-dasharray:3 3"></line>
<line x1="1036" y1="1" x2="1036" y2="108" style="stroke:#ddd;stroke-width:2;stroke-dasharray:3 3"></line>
<line x1="1145" y1="1" x2="1145" y2="108" style="stroke:#ddd;stroke-width:2;stroke-dasharray:3 3"></line>
<line x1="1254" y1="1" x2="1254" y2="108" style="stroke:#ddd;stroke-width:2;stroke-dasharray:3 3"></line>
<line x1="1363" y1="1" x2="1363" y2="108" style="stroke:#ddd;stroke-width:2;stroke-dasharray:3 3"></line>
<line x1="1472" y1="1" x2="1472" y2="108" style="stroke:#ddd;stroke-width:2;stroke-dasharray:3 3"></line>
<line x1="1581" y1="1" x2="1581" y2="108" style="stroke:#ddd;stroke-width:2;stroke-dasharray:3 3"></line>
<line x1="1690" y1="1" x2="1690" y2="108" style="stroke:#ddd;stroke-width:2;stroke-dasharray:3 3"></line>
<path d="M44.57,16.55c0,1.2-0.92,2.4-2.12,3.11c-3.98,2.37-8.69,4.84-16.94,7.59" style="fill:none;stroke:#999;stroke-width:3"></path>

<path d="M153.57,16.55c0,1.2-0.92,2.4-2.12,3.11c-3.98,2.37-8.69,4.84-16.94,7.59" style="fill:none;stroke:#999;stroke-width:3"></path>
<path d="M130.25,15c0.63,0.63,0.9,1.42,0.9,2.4c0,1.43,0.09,15.28,0.09,16.96c0,7.82,6.58,6.74,12.54,6.74c10.01,0,11.99-0.76,11.99-4.75" style="fill:none;stroke:#999;stroke-width:3"></path>

<path d="M262.57,16.55c0,1.2-0.92,2.4-2.12,3.11c-3.98,2.37-8.69,4.84-16.94,7.59" style="fill:none;stroke:#999;stroke-width:3"></path>
<path d="M239.25,15c0.63,0.63,0.9,1.42,0.9,2.4c0,1.43,0.09,15.28,0.09,16.96c0,7.82,6.58,6.74,12.54,6.74c10.01,0,11.99-0.76,11.99-4.75" style="fill:none;stroke:#999;stroke-width:3"></path>
<path d="M264.69,47.23c-0.35,1.16-1.36,1.88-2.46,2.43c-4.5,2.26-11.83,4.4-22.98,6.34" style="fill:none;stroke:#999;stroke-width:3"></path>

<path d="M371.57,16.55c0,1.2-0.92,2.4-2.12,3.11c-3.98,2.37-8.69,4.84-16.94,7.59" style="fill:none;stroke:#999;stroke-width:3"></path>
<path d="M348.25,15c0.63,0.63,0.9,1.42,0.9,2.4c0,1.43,0.09,15.28,0.09,16.96c0,7.82,6.58,6.74,12.54,6.74c10.01,0,11.99-0.76,11.99-4.75" style="fill:none;stroke:#999;stroke-width:3"></path>
<path d="M373.69,47.23c-0.35,1.16-1.36,1.88-2.46,2.43c-4.5,2.26-11.83,4.4-22.98,6.34" style="fill:none;stroke:#999;stroke-width:3"></path>
<path d="M342.37,67.33c2.3,0.44,4.6,0.51,6.89,0.2c6-0.6,16.04-2.02,22.23-2.83c1.65-0.34,3.31-0.47,4.99-0.39" style="fill:none;stroke:#999;stroke-width:3"></path>

<path d="M480.57,16.55c0,1.2-0.92,2.4-2.12,3.11c-3.98,2.37-8.69,4.84-16.94,7.59" style="fill:none;stroke:#999;stroke-width:3"></path>
<path d="M457.25,15c0.63,0.63,0.9,1.42,0.9,2.4c0,1.43,0.09,15.28,0.09,16.96c0,7.82,6.58,6.74,12.54,6.74c10.01,0,11.99-0.76,11.99-4.75" style="fill:none;stroke:#999;stroke-width:3"></path>
<path d="M482.69,47.23c-0.35,1.16-1.36,1.88-2.46,2.43c-4.5,2.26-11.83,4.4-22.98,6.34" style="fill:none;stroke:#999;stroke-width:3"></path>
<path d="M451.37,67.33c2.3,0.44,4.6,0.51,6.89,0.2c6-0.6,16.04-2.02,22.23-2.83c1.65-0.34,3.31-0.47,4.99-0.39" style="fill:none;stroke:#999;stroke-width:3"></path>
<path d="M470.08,56.91c0.74,0.74,0.98,1.8,0.92,2.89c0.03,3.73,0.01,18.65-0.03,28.28c-0.02,3.8-0.04,6.78-0.05,7.92" style="fill:none;stroke:#999;stroke-width:3"></path>

<path d="M589.5699999999999,16.55c0,1.2-0.92,2.4-2.12,3.11c-3.98,2.37-8.69,4.84-16.94,7.59" style="fill:none;stroke:#999;stroke-width:3"></path>
<path d="M566.25,15c0.63,0.63,0.9,1.42,0.9,2.4c0,1.43,0.09,15.28,0.09,16.96c0,7.82,6.58,6.74,12.54,6.74c10.01,0,11.99-0.76,11.99-4.75" style="fill:none;stroke:#999;stroke-width:3"></path>
<path d="M591.69,47.23c-0.35,1.16-1.36,1.88-2.46,2.43c-4.5,2.26-11.83,4.4-22.98,6.34" style="fill:none;stroke:#999;stroke-width:3"></path>
<path d="M560.37,67.33c2.3,0.44,4.6,0.51,6.89,0.2c6-0.6,16.04-2.02,22.23-2.83c1.65-0.34,3.31-0.47,4.99-0.39" style="fill:none;stroke:#999;stroke-width:3"></path>
<path d="M579.0799999999999,56.91c0.74,0.74,0.98,1.8,0.92,2.89c0.03,3.73,0.01,18.65-0.03,28.28c-0.02,3.8-0.04,6.78-0.05,7.92" style="fill:none;stroke:#999;stroke-width:3"></path>
<path d="M578.93,67.23c-0.1,1.15-0.66,2.36-1.31,3.45c-4.17,6.98-10.86,14.54-18.87,19.97" style="fill:none;stroke:#999;stroke-width:3"></path>

<path d="M698.5699999999999,16.55c0,1.2-0.92,2.4-2.12,3.11c-3.98,2.37-8.69,4.84-16.94,7.59" style="fill:none;stroke:#999;stroke-width:3"></path>
<path d="M675.25,15c0.63,0.63,0.9,1.42,0.9,2.4c0,1.43,0.09,15.28,0.09,16.96c0,7.82,6.58,6.74,12.54,6.74c10.01,0,11.99-0.76,11.99-4.75" style="fill:none;stroke:#999;stroke-width:3"></path>
<path d="M700.69,47.23c-0.35,1.16-1.36,1.88-2.46,2.43c-4.5,2.26-11.83,4.4-22.98,6.34" style="fill:none;stroke:#999;stroke-width:3"></path>
<path d="M669.37,67.33c2.3,0.44,4.6,0.51,6.89,0.2c6-0.6,16.04-2.02,22.23-2.83c1.65-0.34,3.31-0.47,4.99-0.39" style="fill:none;stroke:#999;stroke-width:3"></path>
<path d="M688.0799999999999,56.91c0.74,0.74,0.98,1.8,0.92,2.89c0.03,3.73,0.01,18.65-0.03,28.28c-0.02,3.8-0.04,6.78-0.05,7.92" style="fill:none;stroke:#999;stroke-width:3"></path>
<path d="M687.93,67.23c-0.1,1.15-0.66,2.36-1.31,3.45c-4.17,6.98-10.86,14.54-18.87,19.97" style="fill:none;stroke:#999;stroke-width:3"></path>
<path d="M691.75,73.09c4.3,1.78,7.94,5.34,10.25,7.63" style="fill:none;stroke:#999;stroke-width:3"></path>

<path d="M807.5699999999999,16.55c0,1.2-0.92,2.4-2.12,3.11c-3.98,2.37-8.69,4.84-16.94,7.59" style="fill:none;stroke:#999;stroke-width:3"></path>
<path d="M784.25,15c0.63,0.63,0.9,1.42,0.9,2.4c0,1.43,0.09,15.28,0.09,16.96c0,7.82,6.58,6.74,12.54,6.74c10.01,0,11.99-0.76,11.99-4.75" style="fill:none;stroke:#999;stroke-width:3"></path>
<path d="M809.69,47.23c-0.35,1.16-1.36,1.88-2.46,2.43c-4.5,2.26-11.83,4.4-22.98,6.34" style="fill:none;stroke:#999;stroke-width:3"></path>
<path d="M778.37,67.33c2.3,0.44,4.6,0.51,6.89,0.2c6-0.6,16.04-2.02,22.23-2.83c1.65-0.34,3.31-0.47,4.99-0.39" style="fill:none;stroke:#999;stroke-width:3"></path>
<path d="M797.0799999999999,56.91c0.74,0.74,0.98,1.8,0.92,2.89c0.03,3.73,0.01,18.65-0.03,28.28c-0.02,3.8-0.04,6.78-0.05,7.92" style="fill:none;stroke:#999;stroke-width:3"></path>
<path d="M796.93,67.23c-0.1,1.15-0.66,2.36-1.31,3.45c-4.17,6.98-10.86,14.54-18.87,19.97" style="fill:none;stroke:#999;stroke-width:3"></path>
<path d="M800.75,73.09c4.3,1.78,7.94,5.34,10.25,7.63" style="fill:none;stroke:#999;stroke-width:3"></path>
<path d="M818.55,17.33c2.49,0.4,4.97,0.47,7.45,0.2c7.43-0.66,18.21-1.62,24.61-2.09c2.15-0.32,4.29-0.21,6.41,0.32" style="fill:none;stroke:#999;stroke-width:3"></path>

<path d="M916.5699999999999,16.55c0,1.2-0.92,2.4-2.12,3.11c-3.98,2.37-8.69,4.84-16.94,7.59" style="fill:none;stroke:#999;stroke-width:3"></path>
<path d="M893.25,15c0.63,0.63,0.9,1.42,0.9,2.4c0,1.43,0.09,15.28,0.09,16.96c0,7.82,6.58,6.74,12.54,6.74c10.01,0,11.99-0.76,11.99-4.75" style="fill:none;stroke:#999;stroke-width:3"></path>
<path d="M918.69,47.23c-0.35,1.16-1.36,1.88-2.46,2.43c-4.5,2.26-11.83,4.4-22.98,6.34" style="fill:none;stroke:#999;stroke-width:3"></path>
<path d="M887.37,67.33c2.3,0.44,4.6,0.51,6.89,0.2c6-0.6,16.04-2.02,22.23-2.83c1.65-0.34,3.31-0.47,4.99-0.39" style="fill:none;stroke:#999;stroke-width:3"></path>
<path d="M906.0799999999999,56.91c0.74,0.74,0.98,1.8,0.92,2.89c0.03,3.73,0.01,18.65-0.03,28.28c-0.02,3.8-0.04,6.78-0.05,7.92" style="fill:none;stroke:#999;stroke-width:3"></path>
<path d="M905.93,67.23c-0.1,1.15-0.66,2.36-1.31,3.45c-4.17,6.98-10.86,14.54-18.87,19.97" style="fill:none;stroke:#999;stroke-width:3"></path>
<path d="M909.75,73.09c4.3,1.78,7.94,5.34,10.25,7.63" style="fill:none;stroke:#999;stroke-width:3"></path>
<path d="M927.55,17.33c2.49,0.4,4.97,0.47,7.45,0.2c7.43-0.66,18.21-1.62,24.61-2.09c2.15-0.32,4.29-0.21,6.41,0.32" style="fill:none;stroke:#999;stroke-width:3"></path>
<path d="M944.73,20.16c0.06,0.78-0.03,1.54-0.27,2.28c-0.74,2.47-2.87,6-4.61,8.76" style="fill:none;stroke:#999;stroke-width:3"></path>

<path d="M1025.57,16.55c0,1.2-0.92,2.4-2.12,3.11c-3.98,2.37-8.69,4.84-16.94,7.59" style="fill:none;stroke:#999;stroke-width:3"></path>
<path d="M1002.25,15c0.63,0.63,0.9,1.42,0.9,2.4c0,1.43,0.09,15.28,0.09,16.96c0,7.82,6.58,6.74,12.54,6.74c10.01,0,11.99-0.76,11.99-4.75" style="fill:none;stroke:#999;stroke-width:3"></path>
<path d="M1027.69,47.23c-0.35,1.16-1.36,1.88-2.46,2.43c-4.5,2.26-11.83,4.4-22.98,6.34" style="fill:none;stroke:#999;stroke-width:3"></path>
<path d="M996.37,67.33c2.3,0.44,4.6,0.51,6.89,0.2c6-0.6,16.04-2.02,22.23-2.83c1.65-0.34,3.31-0.47,4.99-0.39" style="fill:none;stroke:#999;stroke-width:3"></path>
<path d="M1015.0799999999999,56.91c0.74,0.74,0.98,1.8,0.92,2.89c0.03,3.73,0.01,18.65-0.03,28.28c-0.02,3.8-0.04,6.78-0.05,7.92" style="fill:none;stroke:#999;stroke-width:3"></path>
<path d="M1014.93,67.23c-0.1,1.15-0.66,2.36-1.31,3.45c-4.17,6.98-10.86,14.54-18.87,19.97" style="fill:none;stroke:#999;stroke-width:3"></path>
<path d="M1018.75,73.09c4.3,1.78,7.94,5.34,10.25,7.63" style="fill:none;stroke:#999;stroke-width:3"></path>
<path d="M1036.55,17.33c2.49,0.4,4.97,0.47,7.45,0.2c7.43-0.66,18.21-1.62,24.61-2.09c2.15-0.32,4.29-0.21,6.41,0.32" style="fill:none;stroke:#999;stroke-width:3"></path>
<path d="M1053.73,20.16c0.06,0.78-0.03,1.54-0.27,2.28c-0.74,2.47-2.87,6-4.61,8.76" style="fill:none;stroke:#999;stroke-width:3"></path>
<path d="M1038.74,33c0.98,0.98,1.2,2.36,1.2,3.38c0,1.09,0,22.38,0,34.31c0,4.16,0,7.18,0,7.82" style="fill:none;stroke:#999;stroke-width:3"></path>

<path d="M1134.57,16.55c0,1.2-0.92,2.4-2.12,3.11c-3.98,2.37-8.69,4.84-16.94,7.59" style="fill:none;stroke:#999;stroke-width:3"></path>
<path d="M1111.25,15c0.63,0.63,0.9,1.42,0.9,2.4c0,1.43,0.09,15.28,0.09,16.96c0,7.82,6.58,6.74,12.54,6.74c10.01,0,11.99-0.76,11.99-4.75" style="fill:none;stroke:#999;stroke-width:3"></path>
<path d="M1136.69,47.23c-0.35,1.16-1.36,1.88-2.46,2.43c-4.5,2.26-11.83,4.4-22.98,6.34" style="fill:none;stroke:#999;stroke-width:3"></path>
<path d="M1105.37,67.33c2.3,0.44,4.6,0.51,6.89,0.2c6-0.6,16.04-2.02,22.23-2.83c1.65-0.34,3.31-0.47,4.99-0.39" style="fill:none;stroke:#999;stroke-width:3"></path>
<path d="M1124.08,56.91c0.74,0.74,0.98,1.8,0.92,2.89c0.03,3.73,0.01,18.65-0.03,28.28c-0.02,3.8-0.04,6.78-0.05,7.92" style="fill:none;stroke:#999;stroke-width:3"></path>
<path d="M1123.9299999999998,67.23c-0.1,1.15-0.66,2.36-1.31,3.45c-4.17,6.98-10.86,14.54-18.87,19.97" style="fill:none;stroke:#999;stroke-width:3"></path>
<path d="M1127.75,73.09c4.3,1.78,7.94,5.34,10.25,7.63" style="fill:none;stroke:#999;stroke-width:3"></path>
<path d="M1145.55,17.33c2.49,0.4,4.97,0.47,7.45,0.2c7.43-0.66,18.21-1.62,24.61-2.09c2.15-0.32,4.29-0.21,6.41,0.32" style="fill:none;stroke:#999;stroke-width:3"></path>
<path d="M1162.73,20.16c0.06,0.78-0.03,1.54-0.27,2.28c-0.74,2.47-2.87,6-4.61,8.76" style="fill:none;stroke:#999;stroke-width:3"></path>
<path d="M1147.74,33c0.98,0.98,1.2,2.36,1.2,3.38c0,1.09,0,22.38,0,34.31c0,4.16,0,7.18,0,7.82" style="fill:none;stroke:#999;stroke-width:3"></path>
<path d="M1149.75,34.46c2.76-0.18,23.73-2.93,26.25-3.15c2.09-0.18,3.57,1.15,3.57,3.39c0,1.78,0.01,23.35,0.02,35.77c0,4.29,0,7.5,0,8.4" style="fill:none;stroke:#999;stroke-width:3"></path>

<path d="M1243.57,16.55c0,1.2-0.92,2.4-2.12,3.11c-3.98,2.37-8.69,4.84-16.94,7.59" style="fill:none;stroke:#999;stroke-width:3"></path>
<path d="M1220.25,15c0.63,0.63,0.9,1.42,0.9,2.4c0,1.43,0.09,15.28,0.09,16.96c0,7.82,6.58,6.74,12.54,6.74c10.01,0,11.99-0.76,11.99-4.75" style="fill:none;stroke:#999;stroke-width:3"></path>
<path d="M1245.69,47.23c-0.35,1.16-1.36,1.88-2.46,2.43c-4.5,2.26-11.83,4.4-22.98,6.34" style="fill:none;stroke:#999;stroke-width:3"></path>
<path d="M1214.37,67.33c2.3,0.44,4.6,0.51,6.89,0.2c6-0.6,16.04-2.02,22.23-2.83c1.65-0.34,3.31-0.47,4.99-0.39" style="fill:none;stroke:#999;stroke-width:3"></path>
<path d="M1233.08,56.91c0.74,0.74,0.98,1.8,0.92,2.89c0.03,3.73,0.01,18.65-0.03,28.28c-0.02,3.8-0.04,6.78-0.05,7.92" style="fill:none;stroke:#999;stroke-width:3"></path>
<path d="M1232.9299999999998,67.23c-0.1,1.15-0.66,2.36-1.31,3.45c-4.17,6.98-10.86,14.54-18.87,19.97" style="fill:none;stroke:#999;stroke-width:3"></path>
<path d="M1236.75,73.09c4.3,1.78,7.94,5.34,10.25,7.63" style="fill:none;stroke:#999;stroke-width:3"></path>
<path d="M1254.55,17.33c2.49,0.4,4.97,0.47,7.45,0.2c7.43-0.66,18.21-1.62,24.61-2.09c2.15-0.32,4.29-0.21,6.41,0.32" style="fill:none;stroke:#999;stroke-width:3"></path>
<path d="M1271.73,20.16c0.06,0.78-0.03,1.54-0.27,2.28c-0.74,2.47-2.87,6-4.61,8.76" style="fill:none;stroke:#999;stroke-width:3"></path>
<path d="M1256.74,33c0.98,0.98,1.2,2.36,1.2,3.38c0,1.09,0,22.38,0,34.31c0,4.16,0,7.18,0,7.82" style="fill:none;stroke:#999;stroke-width:3"></path>
<path d="M1258.75,34.46c2.76-0.18,23.73-2.93,26.25-3.15c2.09-0.18,3.57,1.15,3.57,3.39c0,1.78,0.01,23.35,0.02,35.77c0,4.29,0,7.5,0,8.4" style="fill:none;stroke:#999;stroke-width:3"></path>
<path d="M1258.71,48.32c5.29-0.33,23.06-1.73,28.96-2.12" style="fill:none;stroke:#999;stroke-width:3"></path>

<path d="M1352.57,16.55c0,1.2-0.92,2.4-2.12,3.11c-3.98,2.37-8.69,4.84-16.94,7.59" style="fill:none;stroke:#999;stroke-width:3"></path>
<path d="M1329.25,15c0.63,0.63,0.9,1.42,0.9,2.4c0,1.43,0.09,15.28,0.09,16.96c0,7.82,6.58,6.74,12.54,6.74c10.01,0,11.99-0.76,11.99-4.75" style="fill:none;stroke:#999;stroke-width:3"></path>
<path d="M1354.69,47.23c-0.35,1.16-1.36,1.88-2.46,2.43c-4.5,2.26-11.83,4.4-22.98,6.34" style="fill:none;stroke:#999;stroke-width:3"></path>
<path d="M1323.37,67.33c2.3,0.44,4.6,0.51,6.89,0.2c6-0.6,16.04-2.02,22.23-2.83c1.65-0.34,3.31-0.47,4.99-0.39" style="fill:none;stroke:#999;stroke-width:3"></path>
<path d="M1342.08,56.91c0.74,0.74,0.98,1.8,0.92,2.89c0.03,3.73,0.01,18.65-0.03,28.28c-0.02,3.8-0.04,6.78-0.05,7.92" style="fill:none;stroke:#999;stroke-width:3"></path>
<path d="M1341.9299999999998,67.23c-0.1,1.15-0.66,2.36-1.31,3.45c-4.17,6.98-10.86,14.54-18.87,19.97" style="fill:none;stroke:#999;stroke-width:3"></path>
<path d="M1345.75,73.09c4.3,1.78,7.94,5.34,10.25,7.63" style="fill:none;stroke:#999;stroke-width:3"></path>
<path d="M1363.55,17.33c2.49,0.4,4.97,0.47,7.45,0.2c7.43-0.66,18.21-1.62,24.61-2.09c2.15-0.32,4.29-0.21,6.41,0.32" style="fill:none;stroke:#999;stroke-width:3"></path>
<path d="M1380.73,20.16c0.06,0.78-0.03,1.54-0.27,2.28c-0.74,2.47-2.87,6-4.61,8.76" style="fill:none;stroke:#999;stroke-width:3"></path>
<path d="M1365.74,33c0.98,0.98,1.2,2.36,1.2,3.38c0,1.09,0,22.38,0,34.31c0,4.16,0,7.18,0,7.82" style="fill:none;stroke:#999;stroke-width:3"></path>
<path d="M1367.75,34.46c2.76-0.18,23.73-2.93,26.25-3.15c2.09-0.18,3.57,1.15,3.57,3.39c0,1.78,0.01,23.35,0.02,35.77c0,4.29,0,7.5,0,8.4" style="fill:none;stroke:#999;stroke-width:3"></path>
<path d="M1367.71,48.32c5.29-0.33,23.06-1.73,28.96-2.12" style="fill:none;stroke:#999;stroke-width:3"></path>
<path d="M1368.18,62.69c10.55-1.04,20.92-1.83,28.45-2.34" style="fill:none;stroke:#999;stroke-width:3"></path>

<path d="M1461.57,16.55c0,1.2-0.92,2.4-2.12,3.11c-3.98,2.37-8.69,4.84-16.94,7.59" style="fill:none;stroke:#999;stroke-width:3"></path>
<path d="M1438.25,15c0.63,0.63,0.9,1.42,0.9,2.4c0,1.43,0.09,15.28,0.09,16.96c0,7.82,6.58,6.74,12.54,6.74c10.01,0,11.99-0.76,11.99-4.75" style="fill:none;stroke:#999;stroke-width:3"></path>
<path d="M1463.69,47.23c-0.35,1.16-1.36,1.88-2.46,2.43c-4.5,2.26-11.83,4.4-22.98,6.34" style="fill:none;stroke:#999;stroke-width:3"></path>
<path d="M1432.37,67.33c2.3,0.44,4.6,0.51,6.89,0.2c6-0.6,16.04-2.02,22.23-2.83c1.65-0.34,3.31-0.47,4.99-0.39" style="fill:none;stroke:#999;stroke-width:3"></path>
<path d="M1451.08,56.91c0.74,0.74,0.98,1.8,0.92,2.89c0.03,3.73,0.01,18.65-0.03,28.28c-0.02,3.8-0.04,6.78-0.05,7.92" style="fill:none;stroke:#999;stroke-width:3"></path>
<path d="M1450.9299999999998,67.23c-0.1,1.15-0.66,2.36-1.31,3.45c-4.17,6.98-10.86,14.54-18.87,19.97" style="fill:none;stroke:#999;stroke-width:3"></path>
<path d="M1454.75,73.09c4.3,1.78,7.94,5.34,10.25,7.63" style="fill:none;stroke:#999;stroke-width:3"></path>
<path d="M1472.55,17.33c2.49,0.4,4.97,0.47,7.45,0.2c7.43-0.66,18.21-1.62,24.61-2.09c2.15-0.32,4.29-0.21,6.41,0.32" style="fill:none;stroke:#999;stroke-width:3"></path>
<path d="M1489.73,20.16c0.06,0.78-0.03,1.54-0.27,2.28c-0.74,2.47-2.87,6-4.61,8.76" style="fill:none;stroke:#999;stroke-width:3"></path>
<path d="M1474.74,33c0.98,0.98,1.2,2.36,1.2,3.38c0,1.09,0,22.38,0,34.31c0,4.16,0,7.18,0,7.82" style="fill:none;stroke:#999;stroke-width:3"></path>
<path d="M1476.75,34.46c2.76-0.18,23.73-2.93,26.25-3.15c2.09-0.18,3.57,1.15,3.57,3.39c0,1.78,0.01,23.35,0.02,35.77c0,4.29,0,7.5,0,8.4" style="fill:none;stroke:#999;stroke-width:3"></path>
<path d="M1476.71,48.32c5.29-0.33,23.06-1.73,28.96-2.12" style="fill:none;stroke:#999;stroke-width:3"></path>
<path d="M1477.18,62.69c10.55-1.04,20.92-1.83,28.45-2.34" style="fill:none;stroke:#999;stroke-width:3"></path>
<path d="M1477.64,76.86c6.36-1.09,19.68-1.55,27.7-2.11" style="fill:none;stroke:#999;stroke-width:3"></path>

<path d="M1570.57,16.55c0,1.2-0.92,2.4-2.12,3.11c-3.98,2.37-8.69,4.84-16.94,7.59" style="fill:none;stroke:#999;stroke-width:3"></path>
<path d="M1547.25,15c0.63,0.63,0.9,1.42,0.9,2.4c0,1.43,0.09,15.28,0.09,16.96c0,7.82,6.58,6.74,12.54,6.74c10.01,0,11.99-0.76,11.99-4.75" style="fill:none;stroke:#999;stroke-width:3"></path>
<path d="M1572.69,47.23c-0.35,1.16-1.36,1.88-2.46,2.43c-4.5,2.26-11.83,4.4-22.98,6.34" style="fill:none;stroke:#999;stroke-width:3"></path>
<path d="M1541.37,67.33c2.3,0.44,4.6,0.51,6.89,0.2c6-0.6,16.04-2.02,22.23-2.83c1.65-0.34,3.31-0.47,4.99-0.39" style="fill:none;stroke:#999;stroke-width:3"></path>
<path d="M1560.08,56.91c0.74,0.74,0.98,1.8,0.92,2.89c0.03,3.73,0.01,18.65-0.03,28.28c-0.02,3.8-0.04,6.78-0.05,7.92" style="fill:none;stroke:#999;stroke-width:3"></path>
<path d="M1559.9299999999998,67.23c-0.1,1.15-0.66,2.36-1.31,3.45c-4.17,6.98-10.86,14.54-18.87,19.97" style="fill:none;stroke:#999;stroke-width:3"></path>
<path d="M1563.75,73.09c4.3,1.78,7.94,5.34,10.25,7.63" style="fill:none;stroke:#999;stroke-width:3"></path>
<path d="M1581.55,17.33c2.49,0.4,4.97,0.47,7.45,0.2c7.43-0.66,18.21-1.62,24.61-2.09c2.15-0.32,4.29-0.21,6.41,0.32" style="fill:none;stroke:#999;stroke-width:3"></path>
<path d="M1598.73,20.16c0.06,0.78-0.03,1.54-0.27,2.28c-0.74,2.47-2.87,6-4.61,8.76" style="fill:none;stroke:#999;stroke-width:3"></path>
<path d="M1583.74,33c0.98,0.98,1.2,2.36,1.2,3.38c0,1.09,0,22.38,0,34.31c0,4.16,0,7.18,0,7.82" style="fill:none;stroke:#999;stroke-width:3"></path>
<path d="M1585.75,34.46c2.76-0.18,23.73-2.93,26.25-3.15c2.09-0.18,3.57,1.15,3.57,3.39c0,1.78,0.01,23.35,0.02,35.77c0,4.29,0,7.5,0,8.4" style="fill:none;stroke:#999;stroke-width:3"></path>
<path d="M1585.71,48.32c5.29-0.33,23.06-1.73,28.96-2.12" style="fill:none;stroke:#999;stroke-width:3"></path>
<path d="M1586.18,62.69c10.55-1.04,20.92-1.83,28.45-2.34" style="fill:none;stroke:#999;stroke-width:3"></path>
<path d="M1586.64,76.86c6.36-1.09,19.68-1.55,27.7-2.11" style="fill:none;stroke:#999;stroke-width:3"></path>
<path d="M1592.45,82.08c0,0.94-0.22,1.91-1,2.86c-2.35,2.87-9.91,9.42-14.6,12.81" style="fill:none;stroke:#999;stroke-width:3"></path>

<path d="M1679.57,16.55c0,1.2-0.92,2.4-2.12,3.11c-3.98,2.37-8.69,4.84-16.94,7.59" style="fill:none;stroke:#999;stroke-width:3"></path>
<path d="M1656.25,15c0.63,0.63,0.9,1.42,0.9,2.4c0,1.43,0.09,15.28,0.09,16.96c0,7.82,6.58,6.74,12.54,6.74c10.01,0,11.99-0.76,11.99-4.75" style="fill:none;stroke:#999;stroke-width:3"></path>
<path d="M1681.69,47.23c-0.35,1.16-1.36,1.88-2.46,2.43c-4.5,2.26-11.83,4.4-22.98,6.34" style="fill:none;stroke:#999;stroke-width:3"></path>
<path d="M1650.37,67.33c2.3,0.44,4.6,0.51,6.89,0.2c6-0.6,16.04-2.02,22.23-2.83c1.65-0.34,3.31-0.47,4.99-0.39" style="fill:none;stroke:#999;stroke-width:3"></path>
<path d="M1669.08,56.91c0.74,0.74,0.98,1.8,0.92,2.89c0.03,3.73,0.01,18.65-0.03,28.28c-0.02,3.8-0.04,6.78-0.05,7.92" style="fill:none;stroke:#999;stroke-width:3"></path>
<path d="M1668.9299999999998,67.23c-0.1,1.15-0.66,2.36-1.31,3.45c-4.17,6.98-10.86,14.54-18.87,19.97" style="fill:none;stroke:#999;stroke-width:3"></path>
<path d="M1672.75,73.09c4.3,1.78,7.94,5.34,10.25,7.63" style="fill:none;stroke:#999;stroke-width:3"></path>
<path d="M1690.55,17.33c2.49,0.4,4.97,0.47,7.45,0.2c7.43-0.66,18.21-1.62,24.61-2.09c2.15-0.32,4.29-0.21,6.41,0.32" style="fill:none;stroke:#999;stroke-width:3"></path>
<path d="M1707.73,20.16c0.06,0.78-0.03,1.54-0.27,2.28c-0.74,2.47-2.87,6-4.61,8.76" style="fill:none;stroke:#999;stroke-width:3"></path>
<path d="M1692.74,33c0.98,0.98,1.2,2.36,1.2,3.38c0,1.09,0,22.38,0,34.31c0,4.16,0,7.18,0,7.82" style="fill:none;stroke:#999;stroke-width:3"></path>
<path d="M1694.75,34.46c2.76-0.18,23.73-2.93,26.25-3.15c2.09-0.18,3.57,1.15,3.57,3.39c0,1.78,0.01,23.35,0.02,35.77c0,4.29,0,7.5,0,8.4" style="fill:none;stroke:#999;stroke-width:3"></path>
<path d="M1694.71,48.32c5.29-0.33,23.06-1.73,28.96-2.12" style="fill:none;stroke:#999;stroke-width:3"></path>
<path d="M1695.18,62.69c10.55-1.04,20.92-1.83,28.45-2.34" style="fill:none;stroke:#999;stroke-width:3"></path>
<path d="M1695.64,76.86c6.36-1.09,19.68-1.55,27.7-2.11" style="fill:none;stroke:#999;stroke-width:3"></path>
<path d="M1701.45,82.08c0,0.94-0.22,1.91-1,2.86c-2.35,2.87-9.91,9.42-14.6,12.81" style="fill:none;stroke:#999;stroke-width:3"></path>
<path d="M1716.24,83.2c5.17,3.7,11.27,10.41,12.68,13.65" style="fill:none;stroke:#999;stroke-width:3"></path>

</svg>