<svg width="545px" height="109px" viewBox="0 0 545 109" xmlns="http://www.w3.org/2000/svg" xmlns:xlink="http://www.w3.org/1999/xlink" xml:space="preserve" version="1.1" baseProfile="full">
<line x1="1" y1="1" x2="544" y2="1" style="stroke:#ddd;stroke-width:2"></line>
<line x1="1" y1="1" x2="1" y2="108" style="stroke:#ddd;stroke-width:2"></line>
<line x1="1" y1="108" x2="544" y2="108" style="stroke:#ddd;stroke-width:2"></line>
<line x1="544" y1="1" x2="544" y2="108" style="stroke:#ddd;stroke-width:2"></line>
<line x1="109" y1="1" x2="109" y2="108" style="stroke:#ddd;stroke-width:2"></line>
<line x1="218" y1="1" x2="218" y2="108" style="stroke:#ddd;stroke-width:2"></line>
<line x1="327" y1="1" x2="327" y2="108" style="stroke:#ddd;stroke-width:2"></line>
<line x1="436" y1="1" x2="436" y2="108" style="stroke:#ddd;stroke-width:2"></line>
<line x1="1" y1="54" x2="544" y2="54" style="stroke:#ddd;stroke-width:2;stroke-dasharray:3 3"></line>
<line x1="55" y1="1" x2="55" y2="108" style="stroke:#ddd;stroke-width:2;stroke-dasharray:3 3"></line>
<line x1="164" y1="1" x2="164" y2="108" style="stroke:#ddd;stroke-width:2;stroke-dasharray:3 3"></line>
<line x1="273" y1="1" x2="273" y2="108" style="stroke:#ddd;stroke-width:2;stroke-dasharray:3 3"></line>
<line x1="382" y1="1" x2="382" y2="108" style="stroke:#ddd;stroke-width:2;stroke-dasharray:3 3"></line>
<line x1="491" y1="1" x2="491" y2="108" style="stroke:#ddd;stroke-width:2;stroke-dasharray:3 3"></line>
<path d="M50.97,15.25c1.08,1.08,1.62,2.75,1.62,4.39c0,3.36-0.09,5.86-0.09,8.92" style="fill:none;stroke:#999;stroke-width:3"></path>

<path d="M159.97,15.25c1.08,1.08,1.62,2.75,1.62,4.39c0,3.36-0.09,5.86-0.09,8.92" style="fill:none;stroke:#999;stroke-width:3"></path>
<path d="M129.75,29.62c0,4.61-2.92,17.3-4.25,20.38" style="fill:none;stroke:#999;stroke-width:3"></path>

<path d="M268.97,15.25c1.08,1.08,1.62,2.75,1.62,4.39c0,3.36-0.09,5.86-0.09,8.92" style="fill:none;stroke:#999;stroke-width:3"></path>
<path d="M238.75,29.62c0,4.61-2.92,17.3-4.25,20.38" style="fill:none;stroke:#999;stroke-width:3"></path>
<path d="M239.0,33.75C258.38,31,285.62,27.25,301.75,27c12.75-0.2,3.25,7,0.5,9.25" style="fill:none;stroke:#999;stroke-width:3"></path>

<path d="M377.97,15.25c1.08,1.08,1.62,2.75,1.62,4.39c0,3.36-0.09,5.86-0.09,8.92" style="fill:none;stroke:#999;stroke-width:3"></path>
<path d="M347.75,29.62c0,4.61-2.92,17.3-4.25,20.38" style="fill:none;stroke:#999;stroke-width:3"></path>
<path d="M348.0,33.75C367.38,31,394.62,27.25,410.75,27c12.75-0.2,3.25,7,0.5,9.25" style="fill:none;stroke:#999;stroke-width:3"></path>
<path d="M366.72,56.24c0.28,1.26,0,2.66-0.68,3.84C361.0,68.75,350.0,83,343.0,89.47" style="fill:none;stroke:#999;stroke-width:3"></path>

<path d="M486.97,15.25c1.08,1.08,1.62,2.75,1.62,4.39c0,3.36-0.09,5.86-0.09,8.92" style="fill:none;stroke:#999;stroke-width:3"></path>
<path d="M456.75,29.62c0,4.61-2.92,17.3-4.25,20.38" style="fill:none;stroke:#999;stroke-width:3"></path>
<path d="M457.0,33.75C476.38,31,503.62,27.25,519.75,27c12.75-0.2,3.25,7,0.5,9.25" style="fill:none;stroke:#999;stroke-width:3"></path>
<path d="M475.72,56.24c0.28,1.26,0,2.66-0.68,3.84C470.0,68.75,459.0,83,452.0,89.47" style="fill:none;stroke:#999;stroke-width:3"></path>
<path d="M488.0,44.5c9.25,1.25,12.25,20,30.87,40.12c3.2,3.46,4.88,5.12,8.13,7.12" style="fill:none;stroke:#999;stroke-width:3"></path>

</svg>