<svg width="981px" height="109px" viewBox="0 0 981 109" xmlns="http://www.w3.org/2000/svg" xmlns:xlink="http://www.w3.org/1999/xlink" xml:space="preserve" version="1.1" baseProfile="full">
<line x1="1" y1="1" x2="980" y2="1" style="stroke:#ddd;stroke-width:2"></line>
<line x1="1" y1="1" x2="1" y2="108" style="stroke:#ddd;stroke-width:2"></line>
<line x1="1" y1="108" x2="980" y2="108" style="stroke:#ddd;stroke-width:2"></line>
<line x1="980" y1="1" x2="980" y2="108" style="stroke:#ddd;stroke-width:2"></line>
<line x1="109" y1="1" x2="109" y2="108" style="stroke:#ddd;stroke-width:2"></line>
<line x1="218" y1="1" x2="218" y2="108" style="stroke:#ddd;stroke-width:2"></line>
<line x1="327" y1="1" x2="327" y2="108" style="stroke:#ddd;stroke-width:2"></line>
<line x1="436" y1="1" x2="436" y2="108" style="stroke:#ddd;stroke-width:2"></line>
<line x1="545" y1="1" x2="545" y2="108" style="stroke:#ddd;stroke-width:2"></line>
<line x1="654" y1="1" x2="654" y2="108" style="stroke:#ddd;stroke-width:2"></line>
<line x1="763" y1="1" x2="763" y2="108" style="stroke:#ddd;stroke-width:2"></line>
<line x1="872" y1="1" x2="872" y2="108" style="stroke:#ddd;stroke-width:2"></line>
<line x1="1" y1="54" x2="980" y2="54" style="stroke:#ddd;stroke-width:2;stroke-dasharray:3 3"></line>
<line x1="55" y1="1" x2="55" y2="108" style="stroke:#ddd;stroke-width:2;stroke-dasharray:3 3"></line>
<line x1="164" y1="1" x2="164" y2="108" style="stroke:#ddd;stroke-width:2;stroke-dasharray:3 3"></line>
<line x1="273" y1="1" x2="273" y2="108" style="stroke:#ddd;stroke-width:2;stroke-dasharray:3 3"></line>
<line x1="382" y1="1" x2="382" y2="108" style="stroke:#ddd;stroke-width:2;stroke-dasharray:3 3"></line>
<line x1="491" y1="1" x2="491" y2="108" style="stroke:#ddd;stroke-width:2;stroke-dasharray:3 3"></line>
<line x1="600" y1="1" x2="600" y2="108" style="stroke:#ddd;stroke-width:2;stroke-dasharray:3 3"></line>
<line x1="709" y1="1" x2="709" y2="108" style="stroke:#ddd;stroke-width:2;stroke-dasharray:3 3"></line>
<line x1="818" y1="1" x2="818" y2="108" style="stroke:#ddd;stroke-width:2;stroke-dasharray:3 3"></line>
<line x1="927" y1="1" x2="927" y2="108" style="stroke:#ddd;stroke-width:2;stroke-dasharray:3 3"></line>
<path d="M52.75,8.75c1,0.75,1.5,1.75,1.5,3.5s0,4.75,0,9.5" style="fill:none;stroke:#999;stroke-width:3"></path>

<path d="M161.75,8.75c1,0.75,1.5,1.75,1.5,3.5s0,4.75,0,9.5" style="fill:none;stroke:#999;stroke-width:3"></path>
<path d="M135.0,24.09c1.55,0.41,3.37,0.47,4.92,0.41c8.77-0.35,34.14-4.41,47.39-4.71c2.59-0.06,4.14,0.2,5.44,0.4" style="fill:none;stroke:#999;stroke-width:3"></path>

<path d="M270.75,8.75c1,0.75,1.5,1.75,1.5,3.5s0,4.75,0,9.5" style="fill:none;stroke:#999;stroke-width:3"></path>
<path d="M244.0,24.09c1.55,0.41,3.37,0.47,4.92,0.41c8.77-0.35,34.14-4.41,47.39-4.71c2.59-0.06,4.14,0.2,5.44,0.4" style="fill:none;stroke:#999;stroke-width:3"></path>
<path d="M253.5,29.25c5.18,5.59,7.53,11.31,8,15" style="fill:none;stroke:#999;stroke-width:3"></path>

<path d="M379.75,8.75c1,0.75,1.5,1.75,1.5,3.5s0,4.75,0,9.5" style="fill:none;stroke:#999;stroke-width:3"></path>
<path d="M353.0,24.09c1.55,0.41,3.37,0.47,4.92,0.41c8.77-0.35,34.14-4.41,47.39-4.71c2.59-0.06,4.14,0.2,5.44,0.4" style="fill:none;stroke:#999;stroke-width:3"></path>
<path d="M362.5,29.25c5.18,5.59,7.53,11.31,8,15" style="fill:none;stroke:#999;stroke-width:3"></path>
<path d="M396.94,25c0.82,0.69,0.53,2.58,0.32,3.12c-1.77,4.63-6.12,13.37-7.77,16.38" style="fill:none;stroke:#999;stroke-width:3"></path>

<path d="M488.75,8.75c1,0.75,1.5,1.75,1.5,3.5s0,4.75,0,9.5" style="fill:none;stroke:#999;stroke-width:3"></path>
<path d="M462.0,24.09c1.55,0.41,3.37,0.47,4.92,0.41c8.77-0.35,34.14-4.41,47.39-4.71c2.59-0.06,4.14,0.2,5.44,0.4" style="fill:none;stroke:#999;stroke-width:3"></path>
<path d="M471.5,29.25c5.18,5.59,7.53,11.31,8,15" style="fill:none;stroke:#999;stroke-width:3"></path>
<path d="M505.94,25c0.82,0.69,0.53,2.58,0.32,3.12c-1.77,4.63-6.12,13.37-7.77,16.38" style="fill:none;stroke:#999;stroke-width:3"></path>
<path d="M450.25,51.21c2.06,0.47,4.48,0.65,6.52,0.47c22.43-2.03,40.79-5.02,66.77-5.98c3.43-0.13,5.49,0.22,7.21,0.46" style="fill:none;stroke:#999;stroke-width:3"></path>

<path d="M597.75,8.75c1,0.75,1.5,1.75,1.5,3.5s0,4.75,0,9.5" style="fill:none;stroke:#999;stroke-width:3"></path>
<path d="M571.0,24.09c1.55,0.41,3.37,0.47,4.92,0.41c8.77-0.35,34.14-4.41,47.39-4.71c2.59-0.06,4.14,0.2,5.44,0.4" style="fill:none;stroke:#999;stroke-width:3"></path>
<path d="M580.5,29.25c5.18,5.59,7.53,11.31,8,15" style="fill:none;stroke:#999;stroke-width:3"></path>
<path d="M614.94,25c0.82,0.69,0.53,2.58,0.32,3.12c-1.77,4.63-6.12,13.37-7.77,16.38" style="fill:none;stroke:#999;stroke-width:3"></path>
<path d="M559.25,51.21c2.06,0.47,4.48,0.65,6.52,0.47c22.43-2.03,40.79-5.02,66.77-5.98c3.43-0.13,5.49,0.22,7.21,0.46" style="fill:none;stroke:#999;stroke-width:3"></path>
<path d="M576.25,63.81c0.28,0.33,0.57,0.61,0.7,1.03c0.98,3.3,2.99,12.24,3.66,18.17" style="fill:none;stroke:#999;stroke-width:3"></path>

<path d="M706.75,8.75c1,0.75,1.5,1.75,1.5,3.5s0,4.75,0,9.5" style="fill:none;stroke:#999;stroke-width:3"></path>
<path d="M680.0,24.09c1.55,0.41,3.37,0.47,4.92,0.41c8.77-0.35,34.14-4.41,47.39-4.71c2.59-0.06,4.14,0.2,5.44,0.4" style="fill:none;stroke:#999;stroke-width:3"></path>
<path d="M689.5,29.25c5.18,5.59,7.53,11.31,8,15" style="fill:none;stroke:#999;stroke-width:3"></path>
<path d="M723.94,25c0.82,0.69,0.53,2.58,0.32,3.12c-1.77,4.63-6.12,13.37-7.77,16.38" style="fill:none;stroke:#999;stroke-width:3"></path>
<path d="M668.25,51.21c2.06,0.47,4.48,0.65,6.52,0.47c22.43-2.03,40.79-5.02,66.77-5.98c3.43-0.13,5.49,0.22,7.21,0.46" style="fill:none;stroke:#999;stroke-width:3"></path>
<path d="M685.25,63.81c0.28,0.33,0.57,0.61,0.7,1.03c0.98,3.3,2.99,12.24,3.66,18.17" style="fill:none;stroke:#999;stroke-width:3"></path>
<path d="M687.02,64.77c5.97-1.08,17.73-2.35,21.05-2.79c1.21-0.16,1.94,0.94,1.77,1.87c-0.72,3.85-1.4,8.7-2.46,14.03" style="fill:none;stroke:#999;stroke-width:3"></path>

<path d="M815.75,8.75c1,0.75,1.5,1.75,1.5,3.5s0,4.75,0,9.5" style="fill:none;stroke:#999;stroke-width:3"></path>
<path d="M789.0,24.09c1.55,0.41,3.37,0.47,4.92,0.41c8.77-0.35,34.14-4.41,47.39-4.71c2.59-0.06,4.14,0.2,5.44,0.4" style="fill:none;stroke:#999;stroke-width:3"></path>
<path d="M798.5,29.25c5.18,5.59,7.53,11.31,8,15" style="fill:none;stroke:#999;stroke-width:3"></path>
<path d="M832.94,25c0.82,0.69,0.53,2.58,0.32,3.12c-1.77,4.63-6.12,13.37-7.77,16.38" style="fill:none;stroke:#999;stroke-width:3"></path>
<path d="M777.25,51.21c2.06,0.47,4.48,0.65,6.52,0.47c22.43-2.03,40.79-5.02,66.77-5.98c3.43-0.13,5.49,0.22,7.21,0.46" style="fill:none;stroke:#999;stroke-width:3"></path>
<path d="M794.25,63.81c0.28,0.33,0.57,0.61,0.7,1.03c0.98,3.3,2.99,12.24,3.66,18.17" style="fill:none;stroke:#999;stroke-width:3"></path>
<path d="M796.02,64.77c5.97-1.08,17.73-2.35,21.05-2.79c1.21-0.16,1.94,0.94,1.77,1.87c-0.72,3.85-1.4,8.7-2.46,14.03" style="fill:none;stroke:#999;stroke-width:3"></path>
<path d="M798.74,80.95c3.9-0.49,13.98-1.34,19.34-2.09" style="fill:none;stroke:#999;stroke-width:3"></path>

<path d="M924.75,8.75c1,0.75,1.5,1.75,1.5,3.5s0,4.75,0,9.5" style="fill:none;stroke:#999;stroke-width:3"></path>
<path d="M898.0,24.09c1.55,0.41,3.37,0.47,4.92,0.41c8.77-0.35,34.14-4.41,47.39-4.71c2.59-0.06,4.14,0.2,5.44,0.4" style="fill:none;stroke:#999;stroke-width:3"></path>
<path d="M907.5,29.25c5.18,5.59,7.53,11.31,8,15" style="fill:none;stroke:#999;stroke-width:3"></path>
<path d="M941.94,25c0.82,0.69,0.53,2.58,0.32,3.12c-1.77,4.63-6.12,13.37-7.77,16.38" style="fill:none;stroke:#999;stroke-width:3"></path>
<path d="M886.25,51.21c2.06,0.47,4.48,0.65,6.52,0.47c22.43-2.03,40.79-5.02,66.77-5.98c3.43-0.13,5.49,0.22,7.21,0.46" style="fill:none;stroke:#999;stroke-width:3"></path>
<path d="M903.25,63.81c0.28,0.33,0.57,0.61,0.7,1.03c0.98,3.3,2.99,12.24,3.66,18.17" style="fill:none;stroke:#999;stroke-width:3"></path>
<path d="M905.02,64.77c5.97-1.08,17.73-2.35,21.05-2.79c1.21-0.16,1.94,0.94,1.77,1.87c-0.72,3.85-1.4,8.7-2.46,14.03" style="fill:none;stroke:#999;stroke-width:3"></path>
<path d="M907.74,80.95c3.9-0.49,13.98-1.34,19.34-2.09" style="fill:none;stroke:#999;stroke-width:3"></path>
<path d="M944.52,49.85C945.5,51,946.0699999999999,52.6,946.09,54c0.24,18.64,0.17,35.85,0.17,40.46c0,10.39-7.21,1.5-8.71,0.25" style="fill:none;stroke:#999;stroke-width:3"></path>

</svg>