<svg width="1090px" height="109px" viewBox="0 0 1090 109" xmlns="http://www.w3.org/2000/svg" xmlns:xlink="http://www.w3.org/1999/xlink" xml:space="preserve" version="1.1" baseProfile="full">
<line x1="1" y1="1" x2="1089" y2="1" style="stroke:#ddd;stroke-width:2"></line>
<line x1="1" y1="1" x2="1" y2="108" style="stroke:#ddd;stroke-width:2"></line>
<line x1="1" y1="108" x2="1089" y2="108" style="stroke:#ddd;stroke-width:2"></line>
<line x1="1089" y1="1" x2="1089" y2="108" style="stroke:#ddd;stroke-width:2"></line>
<line x1="109" y1="1" x2="109" y2="108" style="stroke:#ddd;stroke-width:2"></line>
<line x1="218" y1="1" x2="218" y2="108" style="stroke:#ddd;stroke-width:2"></line>
<line x1="327" y1="1" x2="327" y2="108" style="stroke:#ddd;stroke-width:2"></line>
<line x1="436" y1="1" x2="436" y2="108" style="stroke:#ddd;stroke-width:2"></line>
<line x1="545" y1="1" x2="545" y2="108" style="stroke:#ddd;stroke-width:2"></line>
<line x1="654" y1="1" x2="654" y2="108" style="stroke:#ddd;stroke-width:2"></line>
<line x1="763" y1="1" x2="763" y2="108" style="stroke:#ddd;stroke-width:2"></line>
<line x1="872" y1="1" x2="872" y2="108" style="stroke:#ddd;stroke-width:2"></line>
<line x1="981" y1="1" x2="981" y2="108" style="stroke:#ddd;stroke-width:2"></line>
<line x1="1" y1="54" x2="1089" y2="54" style="stroke:#ddd;stroke-width:2;stroke-dasharray:3 3"></line>
<line x1="55" y1="1" x2="55" y2="108" style="stroke:#ddd;stroke-width:2;stroke-dasharray:3 3"></line>
<line x1="164" y1="1" x2="164" y2="108" style="stroke:#ddd;stroke-width:2;stroke-dasharray:3 3"></line>
<line x1="273" y1="1" x2="273" y2="108" style="stroke:#ddd;stroke-width:2;stroke-dasharray:3 3"></line>
<line x1="382" y1="1" x2="382" y2="108" style="stroke:#ddd;stroke-width:2;stroke-dasharray:3 3"></line>
<line x1="491" y1="1" x2="491" y2="108" style="stroke:#ddd;stroke-width:2;stroke-dasharray:3 3"></line>
<line x1="600" y1="1" x2="600" y2="108" style="stroke:#ddd;stroke-width:2;stroke-dasharray:3 3"></line>
<line x1="709" y1="1" x2="709" y2="108" style="stroke:#ddd;stroke-width:2;stroke-dasharray:3 3"></line>
<line x1="818" y1="1" x2="818" y2="108" style="stroke:#ddd;stroke-width:2;stroke-dasharray:3 3"></line>
<line x1="927" y1="1" x2="927" y2="108" style="stroke:#ddd;stroke-width:2;stroke-dasharray:3 3"></line>
<line x1="1036" y1="1" x2="1036" y2="108" style="stroke:#ddd;stroke-width:2;stroke-dasharray:3 3"></line>
<path d="M26.96,16c1.04,0.91,1.57,2.12,1.57,3.06c0,2.14,0,13.17,0,18.98" style="fill:none;stroke:#999;stroke-width:3"></path>

<path d="M135.96,16c1.04,0.91,1.57,2.12,1.57,3.06c0,2.14,0,13.17,0,18.98" style="fill:none;stroke:#999;stroke-width:3"></path>
<path d="M121.0,38.41c1.16,0.3,2.53,0.35,3.68,0.3c6.57-0.26,17.07-0.97,25.99-1.58c1.93-0.13,3.1,0.14,4.07,0.3" style="fill:none;stroke:#999;stroke-width:3"></path>

<path d="M244.96,16c1.04,0.91,1.57,2.12,1.57,3.06c0,2.14,0,13.17,0,18.98" style="fill:none;stroke:#999;stroke-width:3"></path>
<path d="M230.0,38.41c1.16,0.3,2.53,0.35,3.68,0.3c6.57-0.26,17.07-0.97,25.99-1.58c1.93-0.13,3.1,0.14,4.07,0.3" style="fill:none;stroke:#999;stroke-width:3"></path>
<path d="M233.75,50.4c5.66,10.67,8.23,21.57,8.75,28.6" style="fill:none;stroke:#999;stroke-width:3"></path>

<path d="M353.96000000000004,16c1.04,0.91,1.57,2.12,1.57,3.06c0,2.14,0,13.17,0,18.98" style="fill:none;stroke:#999;stroke-width:3"></path>
<path d="M339.0,38.41c1.16,0.3,2.53,0.35,3.68,0.3c6.57-0.26,17.07-0.97,25.99-1.58c1.93-0.13,3.1,0.14,4.07,0.3" style="fill:none;stroke:#999;stroke-width:3"></path>
<path d="M342.75,50.4c5.66,10.67,8.23,21.57,8.75,28.6" style="fill:none;stroke:#999;stroke-width:3"></path>
<path d="M366.56,44.48c1.07,1.33,0.6,4.1,0.38,5.15c-2.36,10.89-7.32,28.37-9.43,34.02" style="fill:none;stroke:#999;stroke-width:3"></path>

<path d="M462.96000000000004,16c1.04,0.91,1.57,2.12,1.57,3.06c0,2.14,0,13.17,0,18.98" style="fill:none;stroke:#999;stroke-width:3"></path>
<path d="M448.0,38.41c1.16,0.3,2.53,0.35,3.68,0.3c6.57-0.26,17.07-0.97,25.99-1.58c1.93-0.13,3.1,0.14,4.07,0.3" style="fill:none;stroke:#999;stroke-width:3"></path>
<path d="M451.75,50.4c5.66,10.67,8.23,21.57,8.75,28.6" style="fill:none;stroke:#999;stroke-width:3"></path>
<path d="M475.56,44.48c1.07,1.33,0.6,4.1,0.38,5.15c-2.36,10.89-7.32,28.37-9.43,34.02" style="fill:none;stroke:#999;stroke-width:3"></path>
<path d="M449.0,93.24c0.9,1.06,2.9,1.04,3.79,0.62c9.78-4.59,17.78-8.83,26.46-12.61" style="fill:none;stroke:#999;stroke-width:3"></path>

<path d="M571.96,16c1.04,0.91,1.57,2.12,1.57,3.06c0,2.14,0,13.17,0,18.98" style="fill:none;stroke:#999;stroke-width:3"></path>
<path d="M557.0,38.41c1.16,0.3,2.53,0.35,3.68,0.3c6.57-0.26,17.07-0.97,25.99-1.58c1.93-0.13,3.1,0.14,4.07,0.3" style="fill:none;stroke:#999;stroke-width:3"></path>
<path d="M560.75,50.4c5.66,10.67,8.23,21.57,8.75,28.6" style="fill:none;stroke:#999;stroke-width:3"></path>
<path d="M584.56,44.48c1.07,1.33,0.6,4.1,0.38,5.15c-2.36,10.89-7.32,28.37-9.43,34.02" style="fill:none;stroke:#999;stroke-width:3"></path>
<path d="M558.0,93.24c0.9,1.06,2.9,1.04,3.79,0.62c9.78-4.59,17.78-8.83,26.46-12.61" style="fill:none;stroke:#999;stroke-width:3"></path>
<path d="M616.01,12.75c0.99,1,2.49,3.25,2.49,5.81c0,4.07,0,5.64,0,16.69" style="fill:none;stroke:#999;stroke-width:3"></path>

<path d="M680.96,16c1.04,0.91,1.57,2.12,1.57,3.06c0,2.14,0,13.17,0,18.98" style="fill:none;stroke:#999;stroke-width:3"></path>
<path d="M666.0,38.41c1.16,0.3,2.53,0.35,3.68,0.3c6.57-0.26,17.07-0.97,25.99-1.58c1.93-0.13,3.1,0.14,4.07,0.3" style="fill:none;stroke:#999;stroke-width:3"></path>
<path d="M669.75,50.4c5.66,10.67,8.23,21.57,8.75,28.6" style="fill:none;stroke:#999;stroke-width:3"></path>
<path d="M693.56,44.48c1.07,1.33,0.6,4.1,0.38,5.15c-2.36,10.89-7.32,28.37-9.43,34.02" style="fill:none;stroke:#999;stroke-width:3"></path>
<path d="M667.0,93.24c0.9,1.06,2.9,1.04,3.79,0.62c9.78-4.59,17.78-8.83,26.46-12.61" style="fill:none;stroke:#999;stroke-width:3"></path>
<path d="M725.01,12.75c0.99,1,2.49,3.25,2.49,5.81c0,4.07,0,5.64,0,16.69" style="fill:none;stroke:#999;stroke-width:3"></path>
<path d="M707.75,37.18c1.66,0.32,3.34,0.4,4.19,0.35c4.84-0.3,26.88-2.02,34.2-2.28c1.43-0.05,3.39,0.17,4.11,0.34" style="fill:none;stroke:#999;stroke-width:3"></path>

<path d="M789.96,16c1.04,0.91,1.57,2.12,1.57,3.06c0,2.14,0,13.17,0,18.98" style="fill:none;stroke:#999;stroke-width:3"></path>
<path d="M775.0,38.41c1.16,0.3,2.53,0.35,3.68,0.3c6.57-0.26,17.07-0.97,25.99-1.58c1.93-0.13,3.1,0.14,4.07,0.3" style="fill:none;stroke:#999;stroke-width:3"></path>
<path d="M778.75,50.4c5.66,10.67,8.23,21.57,8.75,28.6" style="fill:none;stroke:#999;stroke-width:3"></path>
<path d="M802.56,44.48c1.07,1.33,0.6,4.1,0.38,5.15c-2.36,10.89-7.32,28.37-9.43,34.02" style="fill:none;stroke:#999;stroke-width:3"></path>
<path d="M776.0,93.24c0.9,1.06,2.9,1.04,3.79,0.62c9.78-4.59,17.78-8.83,26.46-12.61" style="fill:none;stroke:#999;stroke-width:3"></path>
<path d="M834.01,12.75c0.99,1,2.49,3.25,2.49,5.81c0,4.07,0,5.64,0,16.69" style="fill:none;stroke:#999;stroke-width:3"></path>
<path d="M816.75,37.18c1.66,0.32,3.34,0.4,4.19,0.35c4.84-0.3,26.88-2.02,34.2-2.28c1.43-0.05,3.39,0.17,4.11,0.34" style="fill:none;stroke:#999;stroke-width:3"></path>
<path d="M821.25,48.25c4.92,11.09,8.05,24.44,8.5,31.75" style="fill:none;stroke:#999;stroke-width:3"></path>

<path d="M898.96,16c1.04,0.91,1.57,2.12,1.57,3.06c0,2.14,0,13.17,0,18.98" style="fill:none;stroke:#999;stroke-width:3"></path>
<path d="M884.0,38.41c1.16,0.3,2.53,0.35,3.68,0.3c6.57-0.26,17.07-0.97,25.99-1.58c1.93-0.13,3.1,0.14,4.07,0.3" style="fill:none;stroke:#999;stroke-width:3"></path>
<path d="M887.75,50.4c5.66,10.67,8.23,21.57,8.75,28.6" style="fill:none;stroke:#999;stroke-width:3"></path>
<path d="M911.56,44.48c1.07,1.33,0.6,4.1,0.38,5.15c-2.36,10.89-7.32,28.37-9.43,34.02" style="fill:none;stroke:#999;stroke-width:3"></path>
<path d="M885.0,93.24c0.9,1.06,2.9,1.04,3.79,0.62c9.78-4.59,17.78-8.83,26.46-12.61" style="fill:none;stroke:#999;stroke-width:3"></path>
<path d="M943.01,12.75c0.99,1,2.49,3.25,2.49,5.81c0,4.07,0,5.64,0,16.69" style="fill:none;stroke:#999;stroke-width:3"></path>
<path d="M925.75,37.18c1.66,0.32,3.34,0.4,4.19,0.35c4.84-0.3,26.88-2.02,34.2-2.28c1.43-0.05,3.39,0.17,4.11,0.34" style="fill:none;stroke:#999;stroke-width:3"></path>
<path d="M930.25,48.25c4.92,11.09,8.05,24.44,8.5,31.75" style="fill:none;stroke:#999;stroke-width:3"></path>
<path d="M960.51,43c0.73,1.21,0.56,3.18,0.25,4.35C958.3,56.54,950.7,80.71,948.25,87" style="fill:none;stroke:#999;stroke-width:3"></path>

<path d="M1007.96,16c1.04,0.91,1.57,2.12,1.57,3.06c0,2.14,0,13.17,0,18.98" style="fill:none;stroke:#999;stroke-width:3"></path>
<path d="M993.0,38.41c1.16,0.3,2.53,0.35,3.68,0.3c6.57-0.26,17.07-0.97,25.99-1.58c1.93-0.13,3.1,0.14,4.07,0.3" style="fill:none;stroke:#999;stroke-width:3"></path>
<path d="M996.75,50.4c5.66,10.67,8.23,21.57,8.75,28.6" style="fill:none;stroke:#999;stroke-width:3"></path>
<path d="M1020.56,44.48c1.07,1.33,0.6,4.1,0.38,5.15c-2.36,10.89-7.32,28.37-9.43,34.02" style="fill:none;stroke:#999;stroke-width:3"></path>
<path d="M994.0,93.24c0.9,1.06,2.9,1.04,3.79,0.62c9.78-4.59,17.78-8.83,26.46-12.61" style="fill:none;stroke:#999;stroke-width:3"></path>
<path d="M1052.01,12.75c0.99,1,2.49,3.25,2.49,5.81c0,4.07,0,5.64,0,16.69" style="fill:none;stroke:#999;stroke-width:3"></path>
<path d="M1034.75,37.18c1.66,0.32,3.34,0.4,4.19,0.35c4.84-0.3,26.88-2.02,34.2-2.28c1.43-0.05,3.39,0.17,4.11,0.34" style="fill:none;stroke:#999;stroke-width:3"></path>
<path d="M1039.25,48.25c4.92,11.09,8.05,24.44,8.5,31.75" style="fill:none;stroke:#999;stroke-width:3"></path>
<path d="M1069.51,43c0.73,1.21,0.56,3.18,0.25,4.35C1067.3,56.54,1059.7,80.71,1057.25,87" style="fill:none;stroke:#999;stroke-width:3"></path>
<path d="M1025.75,91.41c1.5,0.56,4.42,0.55,5.67,0.49c15.09-0.65,27.47-1.65,43.24-2.66c2.08-0.13,4.59,0.07,6.09,1.11" style="fill:none;stroke:#999;stroke-width:3"></path>

</svg>