<svg width="1199px" height="109px" viewBox="0 0 1199 109" xmlns="http://www.w3.org/2000/svg" xmlns:xlink="http://www.w3.org/1999/xlink" xml:space="preserve" version="1.1" baseProfile="full">
<line x1="1" y1="1" x2="1198" y2="1" style="stroke:#ddd;stroke-width:2"></line>
<line x1="1" y1="1" x2="1" y2="108" style="stroke:#ddd;stroke-width:2"></line>
<line x1="1" y1="108" x2="1198" y2="108" style="stroke:#ddd;stroke-width:2"></line>
<line x1="1198" y1="1" x2="1198" y2="108" style="stroke:#ddd;stroke-width:2"></line>
<line x1="109" y1="1" x2="109" y2="108" style="stroke:#ddd;stroke-width:2"></line>
<line x1="218" y1="1" x2="218" y2="108" style="stroke:#ddd;stroke-width:2"></line>
<line x1="327" y1="1" x2="327" y2="108" style="stroke:#ddd;stroke-width:2"></line>
<line x1="436" y1="1" x2="436" y2="108" style="stroke:#ddd;stroke-width:2"></line>
<line x1="545" y1="1" x2="545" y2="108" style="stroke:#ddd;stroke-width:2"></line>
<line x1="654" y1="1" x2="654" y2="108" style="stroke:#ddd;stroke-width:2"></line>
<line x1="763" y1="1" x2="763" y2="108" style="stroke:#ddd;stroke-width:2"></line>
<line x1="872" y1="1" x2="872" y2="108" style="stroke:#ddd;stroke-width:2"></line>
<line x1="981" y1="1" x2="981" y2="108" style="stroke:#ddd;stroke-width:2"></line>
<line x1="1090" y1="1" x2="1090" y2="108" style="stroke:#ddd;stroke-width:2"></line>
<line x1="1" y1="54" x2="1198" y2="54" style="stroke:#ddd;stroke-width:2;stroke-dasharray:3 3"></line>
<line x1="55" y1="1" x2="55" y2="108" style="stroke:#ddd;stroke-width:2;stroke-dasharray:3 3"></line>
<line x1="164" y1="1" x2="164" y2="108" style="stroke:#ddd;stroke-width:2;stroke-dasharray:3 3"></line>
<line x1="273" y1="1" x2="273" y2="108" style="stroke:#ddd;stroke-width:2;stroke-dasharray:3 3"></line>
<line x1="382" y1="1" x2="382" y2="108" style="stroke:#ddd;stroke-width:2;stroke-dasharray:3 3"></line>
<line x1="491" y1="1" x2="491" y2="108" style="stroke:#ddd;stroke-width:2;stroke-dasharray:3 3"></line>
<line x1="600" y1="1" x2="600" y2="108" style="stroke:#ddd;stroke-width:2;stroke-dasharray:3 3"></line>
<line x1="709" y1="1" x2="709" y2="108" style="stroke:#ddd;stroke-width:2;stroke-dasharray:3 3"></line>
<line x1="818" y1="1" x2="818" y2="108" style="stroke:#ddd;stroke-width:2;stroke-dasharray:3 3"></line>
<line x1="927" y1="1" x2="927" y2="108" style="stroke:#ddd;stroke-width:2;stroke-dasharray:3 3"></line>
<line x1="1036" y1="1" x2="1036" y2="108" style="stroke:#ddd;stroke-width:2;stroke-dasharray:3 3"></line>
<line x1="1145" y1="1" x2="1145" y2="108" style="stroke:#ddd;stroke-width:2;stroke-dasharray:3 3"></line>
<path d="M29.5,14.5c0.25,1,0.18,1.85-0.08,2.71c-1.92,6.41-5.92,15.41-13.67,24.04" style="fill:none;stroke:#999;stroke-width:3"></path>

<path d="M138.5,14.5c0.25,1,0.18,1.85-0.08,2.71c-1.92,6.41-5.92,15.41-13.67,24.04" style="fill:none;stroke:#999;stroke-width:3"></path>
<path d="M136.98,29.04c3.02,0,12.52-1.79,18.14-2.81c1.3-0.24,2.91-0.12,3.63,0.02" style="fill:none;stroke:#999;stroke-width:3"></path>

<path d="M247.5,14.5c0.25,1,0.18,1.85-0.08,2.71c-1.92,6.41-5.92,15.41-13.67,24.04" style="fill:none;stroke:#999;stroke-width:3"></path>
<path d="M245.98,29.04c3.02,0,12.52-1.79,18.14-2.81c1.3-0.24,2.91-0.12,3.63,0.02" style="fill:none;stroke:#999;stroke-width:3"></path>
<path d="M249.5,31.62c2.33,2.23,6.39,7.28,6.81,9.34" style="fill:none;stroke:#999;stroke-width:3"></path>

<path d="M356.5,14.5c0.25,1,0.18,1.85-0.08,2.71c-1.92,6.41-5.92,15.41-13.67,24.04" style="fill:none;stroke:#999;stroke-width:3"></path>
<path d="M354.98,29.04c3.02,0,12.52-1.79,18.14-2.81c1.3-0.24,2.91-0.12,3.63,0.02" style="fill:none;stroke:#999;stroke-width:3"></path>
<path d="M358.5,31.62c2.33,2.23,6.39,7.28,6.81,9.34" style="fill:none;stroke:#999;stroke-width:3"></path>
<path d="M394.5,13c0.11,0.94-0.05,1.84-0.46,2.69c-1.5,4.02-5.82,10.86-10.54,15.81" style="fill:none;stroke:#999;stroke-width:3"></path>

<path d="M465.5,14.5c0.25,1,0.18,1.85-0.08,2.71c-1.92,6.41-5.92,15.41-13.67,24.04" style="fill:none;stroke:#999;stroke-width:3"></path>
<path d="M463.98,29.04c3.02,0,12.52-1.79,18.14-2.81c1.3-0.24,2.91-0.12,3.63,0.02" style="fill:none;stroke:#999;stroke-width:3"></path>
<path d="M467.5,31.62c2.33,2.23,6.39,7.28,6.81,9.34" style="fill:none;stroke:#999;stroke-width:3"></path>
<path d="M503.5,13c0.11,0.94-0.05,1.84-0.46,2.69c-1.5,4.02-5.82,10.86-10.54,15.81" style="fill:none;stroke:#999;stroke-width:3"></path>
<path d="M501.48,25.66c6.39-0.03,15.89-1.28,22.64-2.4c1.19-0.2,3-0.26,4,0.08" style="fill:none;stroke:#999;stroke-width:3"></path>

<path d="M574.5,14.5c0.25,1,0.18,1.85-0.08,2.71c-1.92,6.41-5.92,15.41-13.67,24.04" style="fill:none;stroke:#999;stroke-width:3"></path>
<path d="M572.98,29.04c3.02,0,12.52-1.79,18.14-2.81c1.3-0.24,2.91-0.12,3.63,0.02" style="fill:none;stroke:#999;stroke-width:3"></path>
<path d="M576.5,31.62c2.33,2.23,6.39,7.28,6.81,9.34" style="fill:none;stroke:#999;stroke-width:3"></path>
<path d="M612.5,13c0.11,0.94-0.05,1.84-0.46,2.69c-1.5,4.02-5.82,10.86-10.54,15.81" style="fill:none;stroke:#999;stroke-width:3"></path>
<path d="M610.48,25.66c6.39-0.03,15.89-1.28,22.64-2.4c1.19-0.2,3-0.26,4,0.08" style="fill:none;stroke:#999;stroke-width:3"></path>
<path d="M622.12,28.12c0.12,1-0.12,2-0.54,2.78c-1.07,1.99-3.46,4.85-6.46,8.1" style="fill:none;stroke:#999;stroke-width:3"></path>

<path d="M683.5,14.5c0.25,1,0.18,1.85-0.08,2.71c-1.92,6.41-5.92,15.41-13.67,24.04" style="fill:none;stroke:#999;stroke-width:3"></path>
<path d="M681.98,29.04c3.02,0,12.52-1.79,18.14-2.81c1.3-0.24,2.91-0.12,3.63,0.02" style="fill:none;stroke:#999;stroke-width:3"></path>
<path d="M685.5,31.62c2.33,2.23,6.39,7.28,6.81,9.34" style="fill:none;stroke:#999;stroke-width:3"></path>
<path d="M721.5,13c0.11,0.94-0.05,1.84-0.46,2.69c-1.5,4.02-5.82,10.86-10.54,15.81" style="fill:none;stroke:#999;stroke-width:3"></path>
<path d="M719.48,25.66c6.39-0.03,15.89-1.28,22.64-2.4c1.19-0.2,3-0.26,4,0.08" style="fill:none;stroke:#999;stroke-width:3"></path>
<path d="M731.12,28.12c0.12,1-0.12,2-0.54,2.78c-1.07,1.99-3.46,4.85-6.46,8.1" style="fill:none;stroke:#999;stroke-width:3"></path>
<path d="M677.5,59.69c1.09,1.09,1.73,2.15,1.9,3.02c1.55,8,3.53,19.32,5.54,32.52c0.23,1.49,0.46,3,0.68,4.52" style="fill:none;stroke:#999;stroke-width:3"></path>

<path d="M792.5,14.5c0.25,1,0.18,1.85-0.08,2.71c-1.92,6.41-5.92,15.41-13.67,24.04" style="fill:none;stroke:#999;stroke-width:3"></path>
<path d="M790.98,29.04c3.02,0,12.52-1.79,18.14-2.81c1.3-0.24,2.91-0.12,3.63,0.02" style="fill:none;stroke:#999;stroke-width:3"></path>
<path d="M794.5,31.62c2.33,2.23,6.39,7.28,6.81,9.34" style="fill:none;stroke:#999;stroke-width:3"></path>
<path d="M830.5,13c0.11,0.94-0.05,1.84-0.46,2.69c-1.5,4.02-5.82,10.86-10.54,15.81" style="fill:none;stroke:#999;stroke-width:3"></path>
<path d="M828.48,25.66c6.39-0.03,15.89-1.28,22.64-2.4c1.19-0.2,3-0.26,4,0.08" style="fill:none;stroke:#999;stroke-width:3"></path>
<path d="M840.12,28.12c0.12,1-0.12,2-0.54,2.78c-1.07,1.99-3.46,4.85-6.46,8.1" style="fill:none;stroke:#999;stroke-width:3"></path>
<path d="M786.5,59.69c1.09,1.09,1.73,2.15,1.9,3.02c1.55,8,3.53,19.32,5.54,32.52c0.23,1.49,0.46,3,0.68,4.52" style="fill:none;stroke:#999;stroke-width:3"></path>
<path d="M789.2,60.95c15.67-2.7,39.8-5.45,52.68-6.37c3.56-0.26,6.14,1.57,5.7,5.18c-0.92,7.52-3.09,21.4-4.93,32.13c-0.24,1.41-0.48,2.76-0.71,4.04" style="fill:none;stroke:#999;stroke-width:3"></path>

<path d="M901.5,14.5c0.25,1,0.18,1.85-0.08,2.71c-1.92,6.41-5.92,15.41-13.67,24.04" style="fill:none;stroke:#999;stroke-width:3"></path>
<path d="M899.98,29.04c3.02,0,12.52-1.79,18.14-2.81c1.3-0.24,2.91-0.12,3.63,0.02" style="fill:none;stroke:#999;stroke-width:3"></path>
<path d="M903.5,31.62c2.33,2.23,6.39,7.28,6.81,9.34" style="fill:none;stroke:#999;stroke-width:3"></path>
<path d="M939.5,13c0.11,0.94-0.05,1.84-0.46,2.69c-1.5,4.02-5.82,10.86-10.54,15.81" style="fill:none;stroke:#999;stroke-width:3"></path>
<path d="M937.48,25.66c6.39-0.03,15.89-1.28,22.64-2.4c1.19-0.2,3-0.26,4,0.08" style="fill:none;stroke:#999;stroke-width:3"></path>
<path d="M949.12,28.12c0.12,1-0.12,2-0.54,2.78c-1.07,1.99-3.46,4.85-6.46,8.1" style="fill:none;stroke:#999;stroke-width:3"></path>
<path d="M895.5,59.69c1.09,1.09,1.73,2.15,1.9,3.02c1.55,8,3.53,19.32,5.54,32.52c0.23,1.49,0.46,3,0.68,4.52" style="fill:none;stroke:#999;stroke-width:3"></path>
<path d="M898.2,60.95c15.67-2.7,39.8-5.45,52.68-6.37c3.56-0.26,6.14,1.57,5.7,5.18c-0.92,7.52-3.09,21.4-4.93,32.13c-0.24,1.41-0.48,2.76-0.71,4.04" style="fill:none;stroke:#999;stroke-width:3"></path>
<path d="M923.88,37.96c1.02,1.02,1.73,2.41,1.73,3.92c0,12.09,0.2,48.69,0.2,51.85" style="fill:none;stroke:#999;stroke-width:3"></path>

<path d="M1010.5,14.5c0.25,1,0.18,1.85-0.08,2.71c-1.92,6.41-5.92,15.41-13.67,24.04" style="fill:none;stroke:#999;stroke-width:3"></path>
<path d="M1008.98,29.04c3.02,0,12.52-1.79,18.14-2.81c1.3-0.24,2.91-0.12,3.63,0.02" style="fill:none;stroke:#999;stroke-width:3"></path>
<path d="M1012.5,31.62c2.33,2.23,6.39,7.28,6.81,9.34" style="fill:none;stroke:#999;stroke-width:3"></path>
<path d="M1048.5,13c0.11,0.94-0.05,1.84-0.46,2.69c-1.5,4.02-5.82,10.86-10.54,15.81" style="fill:none;stroke:#999;stroke-width:3"></path>
<path d="M1046.48,25.66c6.39-0.03,15.89-1.28,22.64-2.4c1.19-0.2,3-0.26,4,0.08" style="fill:none;stroke:#999;stroke-width:3"></path>
<path d="M1058.12,28.12c0.12,1-0.12,2-0.54,2.78c-1.07,1.99-3.46,4.85-6.46,8.1" style="fill:none;stroke:#999;stroke-width:3"></path>
<path d="M1004.5,59.69c1.09,1.09,1.73,2.15,1.9,3.02c1.55,8,3.53,19.32,5.54,32.52c0.23,1.49,0.46,3,0.68,4.52" style="fill:none;stroke:#999;stroke-width:3"></path>
<path d="M1007.2,60.95c15.67-2.7,39.8-5.45,52.68-6.37c3.56-0.26,6.14,1.57,5.7,5.18c-0.92,7.52-3.09,21.4-4.93,32.13c-0.24,1.41-0.48,2.76-0.71,4.04" style="fill:none;stroke:#999;stroke-width:3"></path>
<path d="M1032.88,37.96c1.02,1.02,1.73,2.41,1.73,3.92c0,12.09,0.2,48.69,0.2,51.85" style="fill:none;stroke:#999;stroke-width:3"></path>
<path d="M1010.2,78.4c14.92-2.02,39.55-4.9,52.34-5.69" style="fill:none;stroke:#999;stroke-width:3"></path>

<path d="M1119.5,14.5c0.25,1,0.18,1.85-0.08,2.71c-1.92,6.41-5.92,15.41-13.67,24.04" style="fill:none;stroke:#999;stroke-width:3"></path>
<path d="M1117.98,29.04c3.02,0,12.52-1.79,18.14-2.81c1.3-0.24,2.91-0.12,3.63,0.02" style="fill:none;stroke:#999;stroke-width:3"></path>
<path d="M1121.5,31.62c2.33,2.23,6.39,7.28,6.81,9.34" style="fill:none;stroke:#999;stroke-width:3"></path>
<path d="M1157.5,13c0.11,0.94-0.05,1.84-0.46,2.69c-1.5,4.02-5.82,10.86-10.54,15.81" style="fill:none;stroke:#999;stroke-width:3"></path>
<path d="M1155.48,25.66c6.39-0.03,15.89-1.28,22.64-2.4c1.19-0.2,3-0.26,4,0.08" style="fill:none;stroke:#999;stroke-width:3"></path>
<path d="M1167.12,28.12c0.12,1-0.12,2-0.54,2.78c-1.07,1.99-3.46,4.85-6.46,8.1" style="fill:none;stroke:#999;stroke-width:3"></path>
<path d="M1113.5,59.69c1.09,1.09,1.73,2.15,1.9,3.02c1.55,8,3.53,19.32,5.54,32.52c0.23,1.49,0.46,3,0.68,4.52" style="fill:none;stroke:#999;stroke-width:3"></path>
<path d="M1116.2,60.95c15.67-2.7,39.8-5.45,52.68-6.37c3.56-0.26,6.14,1.57,5.7,5.18c-0.92,7.52-3.09,21.4-4.93,32.13c-0.24,1.41-0.48,2.76-0.71,4.04" style="fill:none;stroke:#999;stroke-width:3"></path>
<path d="M1141.88,37.96c1.02,1.02,1.73,2.41,1.73,3.92c0,12.09,0.2,48.69,0.2,51.85" style="fill:none;stroke:#999;stroke-width:3"></path>
<path d="M1119.2,78.4c14.92-2.02,39.55-4.9,52.34-5.69" style="fill:none;stroke:#999;stroke-width:3"></path>
<path d="M1122.39,96.83c14.23-1.58,31.37-3.03,45.93-3.84" style="fill:none;stroke:#999;stroke-width:3"></path>

</svg>