<svg width="1199px" height="109px" viewBox="0 0 1199 109" xmlns="http://www.w3.org/2000/svg" xmlns:xlink="http://www.w3.org/1999/xlink" xml:space="preserve" version="1.1" baseProfile="full">
<line x1="1" y1="1" x2="1198" y2="1" style="stroke:#ddd;stroke-width:2"></line>
<line x1="1" y1="1" x2="1" y2="108" style="stroke:#ddd;stroke-width:2"></line>
<line x1="1" y1="108" x2="1198" y2="108" style="stroke:#ddd;stroke-width:2"></line>
<line x1="1198" y1="1" x2="1198" y2="108" style="stroke:#ddd;stroke-width:2"></line>
<line x1="109" y1="1" x2="109" y2="108" style="stroke:#ddd;stroke-width:2"></line>
<line x1="218" y1="1" x2="218" y2="108" style="stroke:#ddd;stroke-width:2"></line>
<line x1="327" y1="1" x2="327" y2="108" style="stroke:#ddd;stroke-width:2"></line>
<line x1="436" y1="1" x2="436" y2="108" style="stroke:#ddd;stroke-width:2"></line>
<line x1="545" y1="1" x2="545" y2="108" style="stroke:#ddd;stroke-width:2"></line>
<line x1="654" y1="1" x2="654" y2="108" style="stroke:#ddd;stroke-width:2"></line>
<line x1="763" y1="1" x2="763" y2="108" style="stroke:#ddd;stroke-width:2"></line>
<line x1="872" y1="1" x2="872" y2="108" style="stroke:#ddd;stroke-width:2"></line>
<line x1="981" y1="1" x2="981" y2="108" style="stroke:#ddd;stroke-width:2"></line>
<line x1="1090" y1="1" x2="1090" y2="108" style="stroke:#ddd;stroke-width:2"></line>
<line x1="1" y1="54" x2="1198" y2="54" style="stroke:#ddd;stroke-width:2;stroke-dasharray:3 3"></line>
<line x1="55" y1="1" x2="55" y2="108" style="stroke:#ddd;stroke-width:2;stroke-dasharray:3 3"></line>
<line x1="164" y1="1" x2="164" y2="108" style="stroke:#ddd;stroke-width:2;stroke-dasharray:3 3"></line>
<line x1="273" y1="1" x2="273" y2="108" style="stroke:#ddd;stroke-width:2;stroke-dasharray:3 3"></line>
<line x1="382" y1="1" x2="382" y2="108" style="stroke:#ddd;stroke-width:2;stroke-dasharray:3 3"></line>
<line x1="491" y1="1" x2="491" y2="108" style="stroke:#ddd;stroke-width:2;stroke-dasharray:3 3"></line>
<line x1="600" y1="1" x2="600" y2="108" style="stroke:#ddd;stroke-width:2;stroke-dasharray:3 3"></line>
<line x1="709" y1="1" x2="709" y2="108" style="stroke:#ddd;stroke-width:2;stroke-dasharray:3 3"></line>
<line x1="818" y1="1" x2="818" y2="108" style="stroke:#ddd;stroke-width:2;stroke-dasharray:3 3"></line>
<line x1="927" y1="1" x2="927" y2="108" style="stroke:#ddd;stroke-width:2;stroke-dasharray:3 3"></line>
<line x1="1036" y1="1" x2="1036" y2="108" style="stroke:#ddd;stroke-width:2;stroke-dasharray:3 3"></line>
<line x1="1145" y1="1" x2="1145" y2="108" style="stroke:#ddd;stroke-width:2;stroke-dasharray:3 3"></line>
<path d="M28.5,10.25c0.04,0.55,0.09,1.43-0.08,2.22c-1,4.69-6.77,14.98-14.67,21.28" style="fill:none;stroke:#999;stroke-width:3"></path>

<path d="M137.5,10.25c0.04,0.55,0.09,1.43-0.08,2.22c-1,4.69-6.77,14.98-14.67,21.28" style="fill:none;stroke:#999;stroke-width:3"></path>
<path d="M136.73,22.29c3.71,0,18.61-2.29,22.77-2.29" style="fill:none;stroke:#999;stroke-width:3"></path>

<path d="M246.5,10.25c0.04,0.55,0.09,1.43-0.08,2.22c-1,4.69-6.77,14.98-14.67,21.28" style="fill:none;stroke:#999;stroke-width:3"></path>
<path d="M245.73,22.29c3.71,0,18.61-2.29,22.77-2.29" style="fill:none;stroke:#999;stroke-width:3"></path>
<path d="M252.52,24.58c2.82,1.84,7.28,7.56,7.98,10.42" style="fill:none;stroke:#999;stroke-width:3"></path>

<path d="M355.5,10.25c0.04,0.55,0.09,1.43-0.08,2.22c-1,4.69-6.77,14.98-14.67,21.28" style="fill:none;stroke:#999;stroke-width:3"></path>
<path d="M354.73,22.29c3.71,0,18.61-2.29,22.77-2.29" style="fill:none;stroke:#999;stroke-width:3"></path>
<path d="M361.52,24.58c2.82,1.84,7.28,7.56,7.98,10.42" style="fill:none;stroke:#999;stroke-width:3"></path>
<path d="M390.73,9.25c0.03,0.51,0.14,1.34-0.07,2.06c-1.6,5.39-6.04,13.07-11.91,19.69" style="fill:none;stroke:#999;stroke-width:3"></path>

<path d="M464.5,10.25c0.04,0.55,0.09,1.43-0.08,2.22c-1,4.69-6.77,14.98-14.67,21.28" style="fill:none;stroke:#999;stroke-width:3"></path>
<path d="M463.73,22.29c3.71,0,18.61-2.29,22.77-2.29" style="fill:none;stroke:#999;stroke-width:3"></path>
<path d="M470.52,24.58c2.82,1.84,7.28,7.56,7.98,10.42" style="fill:none;stroke:#999;stroke-width:3"></path>
<path d="M499.73,9.25c0.03,0.51,0.14,1.34-0.07,2.06c-1.6,5.39-6.04,13.07-11.91,19.69" style="fill:none;stroke:#999;stroke-width:3"></path>
<path d="M499.98,19.66c4.73,0,22.58-2.57,27.9-2.57" style="fill:none;stroke:#999;stroke-width:3"></path>

<path d="M573.5,10.25c0.04,0.55,0.09,1.43-0.08,2.22c-1,4.69-6.77,14.98-14.67,21.28" style="fill:none;stroke:#999;stroke-width:3"></path>
<path d="M572.73,22.29c3.71,0,18.61-2.29,22.77-2.29" style="fill:none;stroke:#999;stroke-width:3"></path>
<path d="M579.52,24.58c2.82,1.84,7.28,7.56,7.98,10.42" style="fill:none;stroke:#999;stroke-width:3"></path>
<path d="M608.73,9.25c0.03,0.51,0.14,1.34-0.07,2.06c-1.6,5.39-6.04,13.07-11.91,19.69" style="fill:none;stroke:#999;stroke-width:3"></path>
<path d="M608.98,19.66c4.73,0,22.58-2.57,27.9-2.57" style="fill:none;stroke:#999;stroke-width:3"></path>
<path d="M619.76,21.75c0.03,0.33,0.07,0.87-0.07,1.35c-0.82,2.84-5.52,9.08-11.94,12.9" style="fill:none;stroke:#999;stroke-width:3"></path>

<path d="M682.5,10.25c0.04,0.55,0.09,1.43-0.08,2.22c-1,4.69-6.77,14.98-14.67,21.28" style="fill:none;stroke:#999;stroke-width:3"></path>
<path d="M681.73,22.29c3.71,0,18.61-2.29,22.77-2.29" style="fill:none;stroke:#999;stroke-width:3"></path>
<path d="M688.52,24.58c2.82,1.84,7.28,7.56,7.98,10.42" style="fill:none;stroke:#999;stroke-width:3"></path>
<path d="M717.73,9.25c0.03,0.51,0.14,1.34-0.07,2.06c-1.6,5.39-6.04,13.07-11.91,19.69" style="fill:none;stroke:#999;stroke-width:3"></path>
<path d="M717.98,19.66c4.73,0,22.58-2.57,27.9-2.57" style="fill:none;stroke:#999;stroke-width:3"></path>
<path d="M728.76,21.75c0.03,0.33,0.07,0.87-0.07,1.35c-0.82,2.84-5.52,9.08-11.94,12.9" style="fill:none;stroke:#999;stroke-width:3"></path>
<path d="M692.81,38.98c0.05,0.56,0.11,1.45-0.11,2.25C691.41,45.98,683.31,57.67,675.25,62" style="fill:none;stroke:#999;stroke-width:3"></path>

<path d="M791.5,10.25c0.04,0.55,0.09,1.43-0.08,2.22c-1,4.69-6.77,14.98-14.67,21.28" style="fill:none;stroke:#999;stroke-width:3"></path>
<path d="M790.73,22.29c3.71,0,18.61-2.29,22.77-2.29" style="fill:none;stroke:#999;stroke-width:3"></path>
<path d="M797.52,24.58c2.82,1.84,7.28,7.56,7.98,10.42" style="fill:none;stroke:#999;stroke-width:3"></path>
<path d="M826.73,9.25c0.03,0.51,0.14,1.34-0.07,2.06c-1.6,5.39-6.04,13.07-11.91,19.69" style="fill:none;stroke:#999;stroke-width:3"></path>
<path d="M826.98,19.66c4.73,0,22.58-2.57,27.9-2.57" style="fill:none;stroke:#999;stroke-width:3"></path>
<path d="M837.76,21.75c0.03,0.33,0.07,0.87-0.07,1.35c-0.82,2.84-5.52,9.08-11.94,12.9" style="fill:none;stroke:#999;stroke-width:3"></path>
<path d="M801.81,38.98c0.05,0.56,0.11,1.45-0.11,2.25C800.41,45.98,792.31,57.67,784.25,62" style="fill:none;stroke:#999;stroke-width:3"></path>
<path d="M799.92,50.41c1.97,0.05,5.01,0.07,6.37-0.03c5.59-0.43,21.74-2.57,30.35-3.31c2.27-0.19,3.71-0.26,4.86-0.15" style="fill:none;stroke:#999;stroke-width:3"></path>

<path d="M900.5,10.25c0.04,0.55,0.09,1.43-0.08,2.22c-1,4.69-6.77,14.98-14.67,21.28" style="fill:none;stroke:#999;stroke-width:3"></path>
<path d="M899.73,22.29c3.71,0,18.61-2.29,22.77-2.29" style="fill:none;stroke:#999;stroke-width:3"></path>
<path d="M906.52,24.58c2.82,1.84,7.28,7.56,7.98,10.42" style="fill:none;stroke:#999;stroke-width:3"></path>
<path d="M935.73,9.25c0.03,0.51,0.14,1.34-0.07,2.06c-1.6,5.39-6.04,13.07-11.91,19.69" style="fill:none;stroke:#999;stroke-width:3"></path>
<path d="M935.98,19.66c4.73,0,22.58-2.57,27.9-2.57" style="fill:none;stroke:#999;stroke-width:3"></path>
<path d="M946.76,21.75c0.03,0.33,0.07,0.87-0.07,1.35c-0.82,2.84-5.52,9.08-11.94,12.9" style="fill:none;stroke:#999;stroke-width:3"></path>
<path d="M910.81,38.98c0.05,0.56,0.11,1.45-0.11,2.25C909.41,45.98,901.31,57.67,893.25,62" style="fill:none;stroke:#999;stroke-width:3"></path>
<path d="M908.92,50.41c1.97,0.05,5.01,0.07,6.37-0.03c5.59-0.43,21.74-2.57,30.35-3.31c2.27-0.19,3.71-0.26,4.86-0.15" style="fill:none;stroke:#999;stroke-width:3"></path>
<path d="M887.0,69.33c1.75,0.36,5.44,0.44,6.56,0.35c19.18-1.5,53.36-3.28,66.99-3.52c1.45-0.03,3.5,0.1,6.74,0.53" style="fill:none;stroke:#999;stroke-width:3"></path>

<path d="M1009.5,10.25c0.04,0.55,0.09,1.43-0.08,2.22c-1,4.69-6.77,14.98-14.67,21.28" style="fill:none;stroke:#999;stroke-width:3"></path>
<path d="M1008.73,22.29c3.71,0,18.61-2.29,22.77-2.29" style="fill:none;stroke:#999;stroke-width:3"></path>
<path d="M1015.52,24.58c2.82,1.84,7.28,7.56,7.98,10.42" style="fill:none;stroke:#999;stroke-width:3"></path>
<path d="M1044.73,9.25c0.03,0.51,0.14,1.34-0.07,2.06c-1.6,5.39-6.04,13.07-11.91,19.69" style="fill:none;stroke:#999;stroke-width:3"></path>
<path d="M1044.98,19.66c4.73,0,22.58-2.57,27.9-2.57" style="fill:none;stroke:#999;stroke-width:3"></path>
<path d="M1055.76,21.75c0.03,0.33,0.07,0.87-0.07,1.35c-0.82,2.84-5.52,9.08-11.94,12.9" style="fill:none;stroke:#999;stroke-width:3"></path>
<path d="M1019.81,38.98c0.05,0.56,0.11,1.45-0.11,2.25C1018.41,45.98,1010.31,57.67,1002.25,62" style="fill:none;stroke:#999;stroke-width:3"></path>
<path d="M1017.92,50.41c1.97,0.05,5.01,0.07,6.37-0.03c5.59-0.43,21.74-2.57,30.35-3.31c2.27-0.19,3.71-0.26,4.86-0.15" style="fill:none;stroke:#999;stroke-width:3"></path>
<path d="M996.0,69.33c1.75,0.36,5.44,0.44,6.56,0.35c19.18-1.5,53.36-3.28,66.99-3.52c1.45-0.03,3.5,0.1,6.74,0.53" style="fill:none;stroke:#999;stroke-width:3"></path>
<path d="M1034.78,51.26c0.45,0.75,0.9,1.45,0.88,2.91C1035.38,79.36,1022.0,93,997.75,100" style="fill:none;stroke:#999;stroke-width:3"></path>

<path d="M1118.5,10.25c0.04,0.55,0.09,1.43-0.08,2.22c-1,4.69-6.77,14.98-14.67,21.28" style="fill:none;stroke:#999;stroke-width:3"></path>
<path d="M1117.73,22.29c3.71,0,18.61-2.29,22.77-2.29" style="fill:none;stroke:#999;stroke-width:3"></path>
<path d="M1124.52,24.58c2.82,1.84,7.28,7.56,7.98,10.42" style="fill:none;stroke:#999;stroke-width:3"></path>
<path d="M1153.73,9.25c0.03,0.51,0.14,1.34-0.07,2.06c-1.6,5.39-6.04,13.07-11.91,19.69" style="fill:none;stroke:#999;stroke-width:3"></path>
<path d="M1153.98,19.66c4.73,0,22.58-2.57,27.9-2.57" style="fill:none;stroke:#999;stroke-width:3"></path>
<path d="M1164.76,21.75c0.03,0.33,0.07,0.87-0.07,1.35c-0.82,2.84-5.52,9.08-11.94,12.9" style="fill:none;stroke:#999;stroke-width:3"></path>
<path d="M1128.81,38.98c0.05,0.56,0.11,1.45-0.11,2.25C1127.4099999999999,45.98,1119.31,57.67,1111.25,62" style="fill:none;stroke:#999;stroke-width:3"></path>
<path d="M1126.92,50.41c1.97,0.05,5.01,0.07,6.37-0.03c5.59-0.43,21.74-2.57,30.35-3.31c2.27-0.19,3.71-0.26,4.86-0.15" style="fill:none;stroke:#999;stroke-width:3"></path>
<path d="M1105.0,69.33c1.75,0.36,5.44,0.44,6.56,0.35c19.18-1.5,53.36-3.28,66.99-3.52c1.45-0.03,3.5,0.1,6.74,0.53" style="fill:none;stroke:#999;stroke-width:3"></path>
<path d="M1143.78,51.26c0.45,0.75,0.9,1.45,0.88,2.91C1144.38,79.36,1131.0,93,1106.75,100" style="fill:none;stroke:#999;stroke-width:3"></path>
<path d="M1145.5,68.48c6.71,10.58,22.87,24.17,30.08,28.99c2.45,1.64,3.31,1.88,4.42,2.04" style="fill:none;stroke:#999;stroke-width:3"></path>

</svg>