<svg width="1526px" height="109px" viewBox="0 0 1526 109" xmlns="http://www.w3.org/2000/svg" xmlns:xlink="http://www.w3.org/1999/xlink" xml:space="preserve" version="1.1" baseProfile="full">
<line x1="1" y1="1" x2="1525" y2="1" style="stroke:#ddd;stroke-width:2"></line>
<line x1="1" y1="1" x2="1" y2="108" style="stroke:#ddd;stroke-width:2"></line>
<line x1="1" y1="108" x2="1525" y2="108" style="stroke:#ddd;stroke-width:2"></line>
<line x1="1525" y1="1" x2="1525" y2="108" style="stroke:#ddd;stroke-width:2"></line>
<line x1="109" y1="1" x2="109" y2="108" style="stroke:#ddd;stroke-width:2"></line>
<line x1="218" y1="1" x2="218" y2="108" style="stroke:#ddd;stroke-width:2"></line>
<line x1="327" y1="1" x2="327" y2="108" style="stroke:#ddd;stroke-width:2"></line>
<line x1="436" y1="1" x2="436" y2="108" style="stroke:#ddd;stroke-width:2"></line>
<line x1="545" y1="1" x2="545" y2="108" style="stroke:#ddd;stroke-width:2"></line>
<line x1="654" y1="1" x2="654" y2="108" style="stroke:#ddd;stroke-width:2"></line>
<line x1="763" y1="1" x2="763" y2="108" style="stroke:#ddd;stroke-width:2"></line>
<line x1="872" y1="1" x2="872" y2="108" style="stroke:#ddd;stroke-width:2"></line>
<line x1="981" y1="1" x2="981" y2="108" style="stroke:#ddd;stroke-width:2"></line>
<line x1="1090" y1="1" x2="1090" y2="108" style="stroke:#ddd;stroke-width:2"></line>
<line x1="1199" y1="1" x2="1199" y2="108" style="stroke:#ddd;stroke-width:2"></line>
<line x1="1308" y1="1" x2="1308" y2="108" style="stroke:#ddd;stroke-width:2"></line>
<line x1="1417" y1="1" x2="1417" y2="108" style="stroke:#ddd;stroke-width:2"></line>
<line x1="1" y1="54" x2="1525" y2="54" style="stroke:#ddd;stroke-width:2;stroke-dasharray:3 3"></line>
<line x1="55" y1="1" x2="55" y2="108" style="stroke:#ddd;stroke-width:2;stroke-dasharray:3 3"></line>
<line x1="164" y1="1" x2="164" y2="108" style="stroke:#ddd;stroke-width:2;stroke-dasharray:3 3"></line>
<line x1="273" y1="1" x2="273" y2="108" style="stroke:#ddd;stroke-width:2;stroke-dasharray:3 3"></line>
<line x1="382" y1="1" x2="382" y2="108" style="stroke:#ddd;stroke-width:2;stroke-dasharray:3 3"></line>
<line x1="491" y1="1" x2="491" y2="108" style="stroke:#ddd;stroke-width:2;stroke-dasharray:3 3"></line>
<line x1="600" y1="1" x2="600" y2="108" style="stroke:#ddd;stroke-width:2;stroke-dasharray:3 3"></line>
<line x1="709" y1="1" x2="709" y2="108" style="stroke:#ddd;stroke-width:2;stroke-dasharray:3 3"></line>
<line x1="818" y1="1" x2="818" y2="108" style="stroke:#ddd;stroke-width:2;stroke-dasharray:3 3"></line>
<line x1="927" y1="1" x2="927" y2="108" style="stroke:#ddd;stroke-width:2;stroke-dasharray:3 3"></line>
<line x1="1036" y1="1" x2="1036" y2="108" style="stroke:#ddd;stroke-width:2;stroke-dasharray:3 3"></line>
<line x1="1145" y1="1" x2="1145" y2="108" style="stroke:#ddd;stroke-width:2;stroke-dasharray:3 3"></line>
<line x1="1254" y1="1" x2="1254" y2="108" style="stroke:#ddd;stroke-width:2;stroke-dasharray:3 3"></line>
<line x1="1363" y1="1" x2="1363" y2="108" style="stroke:#ddd;stroke-width:2;stroke-dasharray:3 3"></line>
<line x1="1472" y1="1" x2="1472" y2="108" style="stroke:#ddd;stroke-width:2;stroke-dasharray:3 3"></line>
<path d="M29.5,13c0.07,1.06,0.02,2.2-0.4,3.2c-1.86,4.43-5.52,10.52-11.61,17.05" style="fill:none;stroke:#999;stroke-width:3"></path>

<path d="M138.5,13c0.07,1.06,0.02,2.2-0.4,3.2c-1.86,4.43-5.52,10.52-11.61,17.05" style="fill:none;stroke:#999;stroke-width:3"></path>
<path d="M138.23,24.04c2.92,0,11.77-2.04,17.54-3.4c1.52-0.36,2.84-0.13,3.73-0.13" style="fill:none;stroke:#999;stroke-width:3"></path>

<path d="M247.5,13c0.07,1.06,0.02,2.2-0.4,3.2c-1.86,4.43-5.52,10.52-11.61,17.05" style="fill:none;stroke:#999;stroke-width:3"></path>
<path d="M247.23,24.04c2.92,0,11.77-2.04,17.54-3.4c1.52-0.36,2.84-0.13,3.73-0.13" style="fill:none;stroke:#999;stroke-width:3"></path>
<path d="M252.02,25.83c2.49,1.88,6.42,7.72,7.04,10.63" style="fill:none;stroke:#999;stroke-width:3"></path>

<path d="M356.5,13c0.07,1.06,0.02,2.2-0.4,3.2c-1.86,4.43-5.52,10.52-11.61,17.05" style="fill:none;stroke:#999;stroke-width:3"></path>
<path d="M356.23,24.04c2.92,0,11.77-2.04,17.54-3.4c1.52-0.36,2.84-0.13,3.73-0.13" style="fill:none;stroke:#999;stroke-width:3"></path>
<path d="M361.02,25.83c2.49,1.88,6.42,7.72,7.04,10.63" style="fill:none;stroke:#999;stroke-width:3"></path>
<path d="M391.75,12c0.11,0.86-0.02,1.68-0.38,2.46c-1.41,3.83-5.03,9.54-8.62,13.79" style="fill:none;stroke:#999;stroke-width:3"></path>

<path d="M465.5,13c0.07,1.06,0.02,2.2-0.4,3.2c-1.86,4.43-5.52,10.52-11.61,17.05" style="fill:none;stroke:#999;stroke-width:3"></path>
<path d="M465.23,24.04c2.92,0,11.77-2.04,17.54-3.4c1.52-0.36,2.84-0.13,3.73-0.13" style="fill:none;stroke:#999;stroke-width:3"></path>
<path d="M470.02,25.83c2.49,1.88,6.42,7.72,7.04,10.63" style="fill:none;stroke:#999;stroke-width:3"></path>
<path d="M500.75,12c0.11,0.86-0.02,1.68-0.38,2.46c-1.41,3.83-5.03,9.54-8.62,13.79" style="fill:none;stroke:#999;stroke-width:3"></path>
<path d="M500.73,21.66c3.91,0,16.89-2.03,23.28-3.07c1.59-0.26,2.94,0,3.87,0" style="fill:none;stroke:#999;stroke-width:3"></path>

<path d="M574.5,13c0.07,1.06,0.02,2.2-0.4,3.2c-1.86,4.43-5.52,10.52-11.61,17.05" style="fill:none;stroke:#999;stroke-width:3"></path>
<path d="M574.23,24.04c2.92,0,11.77-2.04,17.54-3.4c1.52-0.36,2.84-0.13,3.73-0.13" style="fill:none;stroke:#999;stroke-width:3"></path>
<path d="M579.02,25.83c2.49,1.88,6.42,7.72,7.04,10.63" style="fill:none;stroke:#999;stroke-width:3"></path>
<path d="M609.75,12c0.11,0.86-0.02,1.68-0.38,2.46c-1.41,3.83-5.03,9.54-8.62,13.79" style="fill:none;stroke:#999;stroke-width:3"></path>
<path d="M609.73,21.66c3.91,0,16.89-2.03,23.28-3.07c1.59-0.26,2.94,0,3.87,0" style="fill:none;stroke:#999;stroke-width:3"></path>
<path d="M621.02,24c0.07,0.64,0.03,1.28-0.28,1.83c-1.49,2.67-3.7,5.33-7.74,8.92" style="fill:none;stroke:#999;stroke-width:3"></path>

<path d="M683.5,13c0.07,1.06,0.02,2.2-0.4,3.2c-1.86,4.43-5.52,10.52-11.61,17.05" style="fill:none;stroke:#999;stroke-width:3"></path>
<path d="M683.23,24.04c2.92,0,11.77-2.04,17.54-3.4c1.52-0.36,2.84-0.13,3.73-0.13" style="fill:none;stroke:#999;stroke-width:3"></path>
<path d="M688.02,25.83c2.49,1.88,6.42,7.72,7.04,10.63" style="fill:none;stroke:#999;stroke-width:3"></path>
<path d="M718.75,12c0.11,0.86-0.02,1.68-0.38,2.46c-1.41,3.83-5.03,9.54-8.62,13.79" style="fill:none;stroke:#999;stroke-width:3"></path>
<path d="M718.73,21.66c3.91,0,16.89-2.03,23.28-3.07c1.59-0.26,2.94,0,3.87,0" style="fill:none;stroke:#999;stroke-width:3"></path>
<path d="M730.02,24c0.07,0.64,0.03,1.28-0.28,1.83c-1.49,2.67-3.7,5.33-7.74,8.92" style="fill:none;stroke:#999;stroke-width:3"></path>
<path d="M678.17,43.71c1.06,1.06,1.42,2.89,1.42,4.51c0,11.17-0.02,33.54-0.03,45.66c0,2.57,0,4.68,0,6.12" style="fill:none;stroke:#999;stroke-width:3"></path>

<path d="M792.5,13c0.07,1.06,0.02,2.2-0.4,3.2c-1.86,4.43-5.52,10.52-11.61,17.05" style="fill:none;stroke:#999;stroke-width:3"></path>
<path d="M792.23,24.04c2.92,0,11.77-2.04,17.54-3.4c1.52-0.36,2.84-0.13,3.73-0.13" style="fill:none;stroke:#999;stroke-width:3"></path>
<path d="M797.02,25.83c2.49,1.88,6.42,7.72,7.04,10.63" style="fill:none;stroke:#999;stroke-width:3"></path>
<path d="M827.75,12c0.11,0.86-0.02,1.68-0.38,2.46c-1.41,3.83-5.03,9.54-8.62,13.79" style="fill:none;stroke:#999;stroke-width:3"></path>
<path d="M827.73,21.66c3.91,0,16.89-2.03,23.28-3.07c1.59-0.26,2.94,0,3.87,0" style="fill:none;stroke:#999;stroke-width:3"></path>
<path d="M839.02,24c0.07,0.64,0.03,1.28-0.28,1.83c-1.49,2.67-3.7,5.33-7.74,8.92" style="fill:none;stroke:#999;stroke-width:3"></path>
<path d="M787.17,43.71c1.06,1.06,1.42,2.89,1.42,4.51c0,11.17-0.02,33.54-0.03,45.66c0,2.57,0,4.68,0,6.12" style="fill:none;stroke:#999;stroke-width:3"></path>
<path d="M789.54,45.7c17.11-2.27,40.92-4.9,54.21-5.84c4.47-0.31,6.08,0.49,6.08,5.14c0,12.91-0.08,50.54-0.08,53.88" style="fill:none;stroke:#999;stroke-width:3"></path>

<path d="M901.5,13c0.07,1.06,0.02,2.2-0.4,3.2c-1.86,4.43-5.52,10.52-11.61,17.05" style="fill:none;stroke:#999;stroke-width:3"></path>
<path d="M901.23,24.04c2.92,0,11.77-2.04,17.54-3.4c1.52-0.36,2.84-0.13,3.73-0.13" style="fill:none;stroke:#999;stroke-width:3"></path>
<path d="M906.02,25.83c2.49,1.88,6.42,7.72,7.04,10.63" style="fill:none;stroke:#999;stroke-width:3"></path>
<path d="M936.75,12c0.11,0.86-0.02,1.68-0.38,2.46c-1.41,3.83-5.03,9.54-8.62,13.79" style="fill:none;stroke:#999;stroke-width:3"></path>
<path d="M936.73,21.66c3.91,0,16.89-2.03,23.28-3.07c1.59-0.26,2.94,0,3.87,0" style="fill:none;stroke:#999;stroke-width:3"></path>
<path d="M948.02,24c0.07,0.64,0.03,1.28-0.28,1.83c-1.49,2.67-3.7,5.33-7.74,8.92" style="fill:none;stroke:#999;stroke-width:3"></path>
<path d="M896.17,43.71c1.06,1.06,1.42,2.89,1.42,4.51c0,11.17-0.02,33.54-0.03,45.66c0,2.57,0,4.68,0,6.12" style="fill:none;stroke:#999;stroke-width:3"></path>
<path d="M898.54,45.7c17.11-2.27,40.92-4.9,54.21-5.84c4.47-0.31,6.08,0.49,6.08,5.14c0,12.91-0.08,50.54-0.08,53.88" style="fill:none;stroke:#999;stroke-width:3"></path>
<path d="M908.89,58.96c1.73,0.53,3.33,0.57,5.1,0.32c8.14-1.16,20.71-2.73,28.62-3.32c1.66-0.12,3.19-0.2,4.84,0.1" style="fill:none;stroke:#999;stroke-width:3"></path>

<path d="M1010.5,13c0.07,1.06,0.02,2.2-0.4,3.2c-1.86,4.43-5.52,10.52-11.61,17.05" style="fill:none;stroke:#999;stroke-width:3"></path>
<path d="M1010.23,24.04c2.92,0,11.77-2.04,17.54-3.4c1.52-0.36,2.84-0.13,3.73-0.13" style="fill:none;stroke:#999;stroke-width:3"></path>
<path d="M1015.02,25.83c2.49,1.88,6.42,7.72,7.04,10.63" style="fill:none;stroke:#999;stroke-width:3"></path>
<path d="M1045.75,12c0.11,0.86-0.02,1.68-0.38,2.46c-1.41,3.83-5.03,9.54-8.62,13.79" style="fill:none;stroke:#999;stroke-width:3"></path>
<path d="M1045.73,21.66c3.91,0,16.89-2.03,23.28-3.07c1.59-0.26,2.94,0,3.87,0" style="fill:none;stroke:#999;stroke-width:3"></path>
<path d="M1057.02,24c0.07,0.64,0.03,1.28-0.28,1.83c-1.49,2.67-3.7,5.33-7.74,8.92" style="fill:none;stroke:#999;stroke-width:3"></path>
<path d="M1005.17,43.71c1.06,1.06,1.42,2.89,1.42,4.51c0,11.17-0.02,33.54-0.03,45.66c0,2.57,0,4.68,0,6.12" style="fill:none;stroke:#999;stroke-width:3"></path>
<path d="M1007.54,45.7c17.11-2.27,40.92-4.9,54.21-5.84c4.47-0.31,6.08,0.49,6.08,5.14c0,12.91-0.08,50.54-0.08,53.88" style="fill:none;stroke:#999;stroke-width:3"></path>
<path d="M1017.89,58.96c1.73,0.53,3.33,0.57,5.1,0.32c8.14-1.16,20.71-2.73,28.62-3.32c1.66-0.12,3.19-0.2,4.84,0.1" style="fill:none;stroke:#999;stroke-width:3"></path>
<path d="M1035.05,44.31c0.76,0.76,1.27,2.57,1.27,4.07c0,1.74-0.07,15.16-0.07,20.37" style="fill:none;stroke:#999;stroke-width:3"></path>

<path d="M1119.5,13c0.07,1.06,0.02,2.2-0.4,3.2c-1.86,4.43-5.52,10.52-11.61,17.05" style="fill:none;stroke:#999;stroke-width:3"></path>
<path d="M1119.23,24.04c2.92,0,11.77-2.04,17.54-3.4c1.52-0.36,2.84-0.13,3.73-0.13" style="fill:none;stroke:#999;stroke-width:3"></path>
<path d="M1124.02,25.83c2.49,1.88,6.42,7.72,7.04,10.63" style="fill:none;stroke:#999;stroke-width:3"></path>
<path d="M1154.75,12c0.11,0.86-0.02,1.68-0.38,2.46c-1.41,3.83-5.03,9.54-8.62,13.79" style="fill:none;stroke:#999;stroke-width:3"></path>
<path d="M1154.73,21.66c3.91,0,16.89-2.03,23.28-3.07c1.59-0.26,2.94,0,3.87,0" style="fill:none;stroke:#999;stroke-width:3"></path>
<path d="M1166.02,24c0.07,0.64,0.03,1.28-0.28,1.83c-1.49,2.67-3.7,5.33-7.74,8.92" style="fill:none;stroke:#999;stroke-width:3"></path>
<path d="M1114.17,43.71c1.06,1.06,1.42,2.89,1.42,4.51c0,11.17-0.02,33.54-0.03,45.66c0,2.57,0,4.68,0,6.12" style="fill:none;stroke:#999;stroke-width:3"></path>
<path d="M1116.54,45.7c17.11-2.27,40.92-4.9,54.21-5.84c4.47-0.31,6.08,0.49,6.08,5.14c0,12.91-0.08,50.54-0.08,53.88" style="fill:none;stroke:#999;stroke-width:3"></path>
<path d="M1126.8899999999999,58.96c1.73,0.53,3.33,0.57,5.1,0.32c8.14-1.16,20.71-2.73,28.62-3.32c1.66-0.12,3.19-0.2,4.84,0.1" style="fill:none;stroke:#999;stroke-width:3"></path>
<path d="M1144.05,44.31c0.76,0.76,1.27,2.57,1.27,4.07c0,1.74-0.07,15.16-0.07,20.37" style="fill:none;stroke:#999;stroke-width:3"></path>
<path d="M1130.84,69.94c0.67,0.67,1.1,1.71,1.17,2.68c0.5,2.44,1.21,6.26,1.85,9.85c0.23,1.29,0.44,2.55,0.63,3.71" style="fill:none;stroke:#999;stroke-width:3"></path>

<path d="M1228.5,13c0.07,1.06,0.02,2.2-0.4,3.2c-1.86,4.43-5.52,10.52-11.61,17.05" style="fill:none;stroke:#999;stroke-width:3"></path>
<path d="M1228.23,24.04c2.92,0,11.77-2.04,17.54-3.4c1.52-0.36,2.84-0.13,3.73-0.13" style="fill:none;stroke:#999;stroke-width:3"></path>
<path d="M1233.02,25.83c2.49,1.88,6.42,7.72,7.04,10.63" style="fill:none;stroke:#999;stroke-width:3"></path>
<path d="M1263.75,12c0.11,0.86-0.02,1.68-0.38,2.46c-1.41,3.83-5.03,9.54-8.62,13.79" style="fill:none;stroke:#999;stroke-width:3"></path>
<path d="M1263.73,21.66c3.91,0,16.89-2.03,23.28-3.07c1.59-0.26,2.94,0,3.87,0" style="fill:none;stroke:#999;stroke-width:3"></path>
<path d="M1275.02,24c0.07,0.64,0.03,1.28-0.28,1.83c-1.49,2.67-3.7,5.33-7.74,8.92" style="fill:none;stroke:#999;stroke-width:3"></path>
<path d="M1223.17,43.71c1.06,1.06,1.42,2.89,1.42,4.51c0,11.17-0.02,33.54-0.03,45.66c0,2.57,0,4.68,0,6.12" style="fill:none;stroke:#999;stroke-width:3"></path>
<path d="M1225.54,45.7c17.11-2.27,40.92-4.9,54.21-5.84c4.47-0.31,6.08,0.49,6.08,5.14c0,12.91-0.08,50.54-0.08,53.88" style="fill:none;stroke:#999;stroke-width:3"></path>
<path d="M1235.8899999999999,58.96c1.73,0.53,3.33,0.57,5.1,0.32c8.14-1.16,20.71-2.73,28.62-3.32c1.66-0.12,3.19-0.2,4.84,0.1" style="fill:none;stroke:#999;stroke-width:3"></path>
<path d="M1253.05,44.31c0.76,0.76,1.27,2.57,1.27,4.07c0,1.74-0.07,15.16-0.07,20.37" style="fill:none;stroke:#999;stroke-width:3"></path>
<path d="M1239.84,69.94c0.67,0.67,1.1,1.71,1.17,2.68c0.5,2.44,1.21,6.26,1.85,9.85c0.23,1.29,0.44,2.55,0.63,3.71" style="fill:none;stroke:#999;stroke-width:3"></path>
<path d="M1241.57,71.35c7.4-1.01,16.25-2.29,22.19-2.89c3.24-0.33,4.62,1.17,3.97,3.2c-0.89,2.79-1.95,5.52-2.85,9.14" style="fill:none;stroke:#999;stroke-width:3"></path>

<path d="M1337.5,13c0.07,1.06,0.02,2.2-0.4,3.2c-1.86,4.43-5.52,10.52-11.61,17.05" style="fill:none;stroke:#999;stroke-width:3"></path>
<path d="M1337.23,24.04c2.92,0,11.77-2.04,17.54-3.4c1.52-0.36,2.84-0.13,3.73-0.13" style="fill:none;stroke:#999;stroke-width:3"></path>
<path d="M1342.02,25.83c2.49,1.88,6.42,7.72,7.04,10.63" style="fill:none;stroke:#999;stroke-width:3"></path>
<path d="M1372.75,12c0.11,0.86-0.02,1.68-0.38,2.46c-1.41,3.83-5.03,9.54-8.62,13.79" style="fill:none;stroke:#999;stroke-width:3"></path>
<path d="M1372.73,21.66c3.91,0,16.89-2.03,23.28-3.07c1.59-0.26,2.94,0,3.87,0" style="fill:none;stroke:#999;stroke-width:3"></path>
<path d="M1384.02,24c0.07,0.64,0.03,1.28-0.28,1.83c-1.49,2.67-3.7,5.33-7.74,8.92" style="fill:none;stroke:#999;stroke-width:3"></path>
<path d="M1332.17,43.71c1.06,1.06,1.42,2.89,1.42,4.51c0,11.17-0.02,33.54-0.03,45.66c0,2.57,0,4.68,0,6.12" style="fill:none;stroke:#999;stroke-width:3"></path>
<path d="M1334.54,45.7c17.11-2.27,40.92-4.9,54.21-5.84c4.47-0.31,6.08,0.49,6.08,5.14c0,12.91-0.08,50.54-0.08,53.88" style="fill:none;stroke:#999;stroke-width:3"></path>
<path d="M1344.8899999999999,58.96c1.73,0.53,3.33,0.57,5.1,0.32c8.14-1.16,20.71-2.73,28.62-3.32c1.66-0.12,3.19-0.2,4.84,0.1" style="fill:none;stroke:#999;stroke-width:3"></path>
<path d="M1362.05,44.31c0.76,0.76,1.27,2.57,1.27,4.07c0,1.74-0.07,15.16-0.07,20.37" style="fill:none;stroke:#999;stroke-width:3"></path>
<path d="M1348.84,69.94c0.67,0.67,1.1,1.71,1.17,2.68c0.5,2.44,1.21,6.26,1.85,9.85c0.23,1.29,0.44,2.55,0.63,3.71" style="fill:none;stroke:#999;stroke-width:3"></path>
<path d="M1350.57,71.35c7.4-1.01,16.25-2.29,22.19-2.89c3.24-0.33,4.62,1.17,3.97,3.2c-0.89,2.79-1.95,5.52-2.85,9.14" style="fill:none;stroke:#999;stroke-width:3"></path>
<path d="M1353.36,83.8c5.85-0.65,12.91-1.28,19.15-1.83c1.38-0.12,2.7-0.21,3.92-0.27" style="fill:none;stroke:#999;stroke-width:3"></path>

<path d="M1446.5,13c0.07,1.06,0.02,2.2-0.4,3.2c-1.86,4.43-5.52,10.52-11.61,17.05" style="fill:none;stroke:#999;stroke-width:3"></path>
<path d="M1446.23,24.04c2.92,0,11.77-2.04,17.54-3.4c1.52-0.36,2.84-0.13,3.73-0.13" style="fill:none;stroke:#999;stroke-width:3"></path>
<path d="M1451.02,25.83c2.49,1.88,6.42,7.72,7.04,10.63" style="fill:none;stroke:#999;stroke-width:3"></path>
<path d="M1481.75,12c0.11,0.86-0.02,1.68-0.38,2.46c-1.41,3.83-5.03,9.54-8.62,13.79" style="fill:none;stroke:#999;stroke-width:3"></path>
<path d="M1481.73,21.66c3.91,0,16.89-2.03,23.28-3.07c1.59-0.26,2.94,0,3.87,0" style="fill:none;stroke:#999;stroke-width:3"></path>
<path d="M1493.02,24c0.07,0.64,0.03,1.28-0.28,1.83c-1.49,2.67-3.7,5.33-7.74,8.92" style="fill:none;stroke:#999;stroke-width:3"></path>
<path d="M1441.17,43.71c1.06,1.06,1.42,2.89,1.42,4.51c0,11.17-0.02,33.54-0.03,45.66c0,2.57,0,4.68,0,6.12" style="fill:none;stroke:#999;stroke-width:3"></path>
<path d="M1443.54,45.7c17.11-2.27,40.92-4.9,54.21-5.84c4.47-0.31,6.08,0.49,6.08,5.14c0,12.91-0.08,50.54-0.08,53.88" style="fill:none;stroke:#999;stroke-width:3"></path>
<path d="M1453.8899999999999,58.96c1.73,0.53,3.33,0.57,5.1,0.32c8.14-1.16,20.71-2.73,28.62-3.32c1.66-0.12,3.19-0.2,4.84,0.1" style="fill:none;stroke:#999;stroke-width:3"></path>
<path d="M1471.05,44.31c0.76,0.76,1.27,2.57,1.27,4.07c0,1.74-0.07,15.16-0.07,20.37" style="fill:none;stroke:#999;stroke-width:3"></path>
<path d="M1457.84,69.94c0.67,0.67,1.1,1.71,1.17,2.68c0.5,2.44,1.21,6.26,1.85,9.85c0.23,1.29,0.44,2.55,0.63,3.71" style="fill:none;stroke:#999;stroke-width:3"></path>
<path d="M1459.57,71.35c7.4-1.01,16.25-2.29,22.19-2.89c3.24-0.33,4.62,1.17,3.97,3.2c-0.89,2.79-1.95,5.52-2.85,9.14" style="fill:none;stroke:#999;stroke-width:3"></path>
<path d="M1462.36,83.8c5.85-0.65,12.91-1.28,19.15-1.83c1.38-0.12,2.7-0.21,3.92-0.27" style="fill:none;stroke:#999;stroke-width:3"></path>
<path d="M1443.66,96.81C1456.5,96,1486.45,94.02,1502.63,93.67" style="fill:none;stroke:#999;stroke-width:3"></path>

</svg>