<svg width="872px" height="109px" viewBox="0 0 872 109" xmlns="http://www.w3.org/2000/svg" xmlns:xlink="http://www.w3.org/1999/xlink" xml:space="preserve" version="1.1" baseProfile="full">
<line x1="1" y1="1" x2="871" y2="1" style="stroke:#ddd;stroke-width:2"></line>
<line x1="1" y1="1" x2="1" y2="108" style="stroke:#ddd;stroke-width:2"></line>
<line x1="1" y1="108" x2="871" y2="108" style="stroke:#ddd;stroke-width:2"></line>
<line x1="871" y1="1" x2="871" y2="108" style="stroke:#ddd;stroke-width:2"></line>
<line x1="109" y1="1" x2="109" y2="108" style="stroke:#ddd;stroke-width:2"></line>
<line x1="218" y1="1" x2="218" y2="108" style="stroke:#ddd;stroke-width:2"></line>
<line x1="327" y1="1" x2="327" y2="108" style="stroke:#ddd;stroke-width:2"></line>
<line x1="436" y1="1" x2="436" y2="108" style="stroke:#ddd;stroke-width:2"></line>
<line x1="545" y1="1" x2="545" y2="108" style="stroke:#ddd;stroke-width:2"></line>
<line x1="654" y1="1" x2="654" y2="108" style="stroke:#ddd;stroke-width:2"></line>
<line x1="763" y1="1" x2="763" y2="108" style="stroke:#ddd;stroke-width:2"></line>
<line x1="1" y1="54" x2="871" y2="54" style="stroke:#ddd;stroke-width:2;stroke-dasharray:3 3"></line>
<line x1="55" y1="1" x2="55" y2="108" style="stroke:#ddd;stroke-width:2;stroke-dasharray:3 3"></line>
<line x1="164" y1="1" x2="164" y2="108" style="stroke:#ddd;stroke-width:2;stroke-dasharray:3 3"></line>
<line x1="273" y1="1" x2="273" y2="108" style="stroke:#ddd;stroke-width:2;stroke-dasharray:3 3"></line>
<line x1="382" y1="1" x2="382" y2="108" style="stroke:#ddd;stroke-width:2;stroke-dasharray:3 3"></line>
<line x1="491" y1="1" x2="491" y2="108" style="stroke:#ddd;stroke-width:2;stroke-dasharray:3 3"></line>
<line x1="600" y1="1" x2="600" y2="108" style="stroke:#ddd;stroke-width:2;stroke-dasharray:3 3"></line>
<line x1="709" y1="1" x2="709" y2="108" style="stroke:#ddd;stroke-width:2;stroke-dasharray:3 3"></line>
<line x1="818" y1="1" x2="818" y2="108" style="stroke:#ddd;stroke-width:2;stroke-dasharray:3 3"></line>
<path d="M15.44,26.89c2.92,2.26,7.33,8.65,8.06,12.16" style="fill:none;stroke:#999;stroke-width:3"></path>

<path d="M124.44,26.89c2.92,2.26,7.33,8.65,8.06,12.16" style="fill:none;stroke:#999;stroke-width:3"></path>
<path d="M157.26,23.47c0.02,0.35,0.05,0.9-0.05,1.4c-0.57,2.96-3.87,9.45-8.39,13.42" style="fill:none;stroke:#999;stroke-width:3"></path>

<path d="M233.44,26.89c2.92,2.26,7.33,8.65,8.06,12.16" style="fill:none;stroke:#999;stroke-width:3"></path>
<path d="M266.26,23.47c0.02,0.35,0.05,0.9-0.05,1.4c-0.57,2.96-3.87,9.45-8.39,13.42" style="fill:none;stroke:#999;stroke-width:3"></path>
<path d="M231.1,47.05c0.67,0.16,2.45,0.55,4.23,0.47c6.37-0.31,18.99-1.85,26.19-2.35c1.77-0.12,2.22-0.16,3.34,0" style="fill:none;stroke:#999;stroke-width:3"></path>

<path d="M342.44,26.89c2.92,2.26,7.33,8.65,8.06,12.16" style="fill:none;stroke:#999;stroke-width:3"></path>
<path d="M375.26,23.47c0.02,0.35,0.05,0.9-0.05,1.4c-0.57,2.96-3.87,9.45-8.39,13.42" style="fill:none;stroke:#999;stroke-width:3"></path>
<path d="M340.1,47.05c0.67,0.16,2.45,0.55,4.23,0.47c6.37-0.31,18.99-1.85,26.19-2.35c1.77-0.12,2.22-0.16,3.34,0" style="fill:none;stroke:#999;stroke-width:3"></path>
<path d="M357.52,16.46c0.88,0.45,1.41,2.03,1.59,2.94s0,70.74-0.18,76.39" style="fill:none;stroke:#999;stroke-width:3"></path>

<path d="M451.44,26.89c2.92,2.26,7.33,8.65,8.06,12.16" style="fill:none;stroke:#999;stroke-width:3"></path>
<path d="M484.26,23.47c0.02,0.35,0.05,0.9-0.05,1.4c-0.57,2.96-3.87,9.45-8.39,13.42" style="fill:none;stroke:#999;stroke-width:3"></path>
<path d="M449.1,47.05c0.67,0.16,2.45,0.55,4.23,0.47c6.37-0.31,18.99-1.85,26.19-2.35c1.77-0.12,2.22-0.16,3.34,0" style="fill:none;stroke:#999;stroke-width:3"></path>
<path d="M466.52,16.46c0.88,0.45,1.41,2.03,1.59,2.94s0,70.74-0.18,76.39" style="fill:none;stroke:#999;stroke-width:3"></path>
<path d="M468.52,47.46C465.26,57.95,457.33,72.67,450.0,78.73" style="fill:none;stroke:#999;stroke-width:3"></path>

<path d="M560.44,26.89c2.92,2.26,7.33,8.65,8.06,12.16" style="fill:none;stroke:#999;stroke-width:3"></path>
<path d="M593.26,23.47c0.02,0.35,0.05,0.9-0.05,1.4c-0.57,2.96-3.87,9.45-8.39,13.42" style="fill:none;stroke:#999;stroke-width:3"></path>
<path d="M558.1,47.05c0.67,0.16,2.45,0.55,4.23,0.47c6.37-0.31,18.99-1.85,26.19-2.35c1.77-0.12,2.22-0.16,3.34,0" style="fill:none;stroke:#999;stroke-width:3"></path>
<path d="M575.52,16.46c0.88,0.45,1.41,2.03,1.59,2.94s0,70.74-0.18,76.39" style="fill:none;stroke:#999;stroke-width:3"></path>
<path d="M577.52,47.46C574.26,57.95,566.3299999999999,72.67,559.0,78.73" style="fill:none;stroke:#999;stroke-width:3"></path>
<path d="M580.12,53.82c5.53,3.1,9.6,6.67,11.65,11.9" style="fill:none;stroke:#999;stroke-width:3"></path>

<path d="M669.44,26.89c2.92,2.26,7.33,8.65,8.06,12.16" style="fill:none;stroke:#999;stroke-width:3"></path>
<path d="M702.26,23.47c0.02,0.35,0.05,0.9-0.05,1.4c-0.57,2.96-3.87,9.45-8.39,13.42" style="fill:none;stroke:#999;stroke-width:3"></path>
<path d="M667.1,47.05c0.67,0.16,2.45,0.55,4.23,0.47c6.37-0.31,18.99-1.85,26.19-2.35c1.77-0.12,2.22-0.16,3.34,0" style="fill:none;stroke:#999;stroke-width:3"></path>
<path d="M684.52,16.46c0.88,0.45,1.41,2.03,1.59,2.94s0,70.74-0.18,76.39" style="fill:none;stroke:#999;stroke-width:3"></path>
<path d="M686.52,47.46C683.26,57.95,675.3299999999999,72.67,668.0,78.73" style="fill:none;stroke:#999;stroke-width:3"></path>
<path d="M689.12,53.82c5.53,3.1,9.6,6.67,11.65,11.9" style="fill:none;stroke:#999;stroke-width:3"></path>
<path d="M707.53,46.4c1.53,0.5,3.27,0.66,5.03,0.5c8.97-0.82,22.07-1.68,35.64-2.64c1.75-0.12,2.84,0.08,4.6,0.44" style="fill:none;stroke:#999;stroke-width:3"></path>

<path d="M778.44,26.89c2.92,2.26,7.33,8.65,8.06,12.16" style="fill:none;stroke:#999;stroke-width:3"></path>
<path d="M811.26,23.47c0.02,0.35,0.05,0.9-0.05,1.4c-0.57,2.96-3.87,9.45-8.39,13.42" style="fill:none;stroke:#999;stroke-width:3"></path>
<path d="M776.1,47.05c0.67,0.16,2.45,0.55,4.23,0.47c6.37-0.31,18.99-1.85,26.19-2.35c1.77-0.12,2.22-0.16,3.34,0" style="fill:none;stroke:#999;stroke-width:3"></path>
<path d="M793.52,16.46c0.88,0.45,1.41,2.03,1.59,2.94s0,70.74-0.18,76.39" style="fill:none;stroke:#999;stroke-width:3"></path>
<path d="M795.52,47.46C792.26,57.95,784.3299999999999,72.67,777.0,78.73" style="fill:none;stroke:#999;stroke-width:3"></path>
<path d="M798.12,53.82c5.53,3.1,9.6,6.67,11.65,11.9" style="fill:none;stroke:#999;stroke-width:3"></path>
<path d="M816.53,46.4c1.53,0.5,3.27,0.66,5.03,0.5c8.97-0.82,22.07-1.68,35.64-2.64c1.75-0.12,2.84,0.08,4.6,0.44" style="fill:none;stroke:#999;stroke-width:3"></path>
<path d="M835.6,14.75c1.21,0.48,2.17,2.14,2.17,3.14c0,10.13,0,73.58-0.24,79.61" style="fill:none;stroke:#999;stroke-width:3"></path>

</svg>