<svg width="1090px" height="109px" viewBox="0 0 1090 109" xmlns="http://www.w3.org/2000/svg" xmlns:xlink="http://www.w3.org/1999/xlink" xml:space="preserve" version="1.1" baseProfile="full">
<line x1="1" y1="1" x2="1089" y2="1" style="stroke:#ddd;stroke-width:2"></line>
<line x1="1" y1="1" x2="1" y2="108" style="stroke:#ddd;stroke-width:2"></line>
<line x1="1" y1="108" x2="1089" y2="108" style="stroke:#ddd;stroke-width:2"></line>
<line x1="1089" y1="1" x2="1089" y2="108" style="stroke:#ddd;stroke-width:2"></line>
<line x1="109" y1="1" x2="109" y2="108" style="stroke:#ddd;stroke-width:2"></line>
<line x1="218" y1="1" x2="218" y2="108" style="stroke:#ddd;stroke-width:2"></line>
<line x1="327" y1="1" x2="327" y2="108" style="stroke:#ddd;stroke-width:2"></line>
<line x1="436" y1="1" x2="436" y2="108" style="stroke:#ddd;stroke-width:2"></line>
<line x1="545" y1="1" x2="545" y2="108" style="stroke:#ddd;stroke-width:2"></line>
<line x1="654" y1="1" x2="654" y2="108" style="stroke:#ddd;stroke-width:2"></line>
<line x1="763" y1="1" x2="763" y2="108" style="stroke:#ddd;stroke-width:2"></line>
<line x1="872" y1="1" x2="872" y2="108" style="stroke:#ddd;stroke-width:2"></line>
<line x1="981" y1="1" x2="981" y2="108" style="stroke:#ddd;stroke-width:2"></line>
<line x1="1" y1="54" x2="1089" y2="54" style="stroke:#ddd;stroke-width:2;stroke-dasharray:3 3"></line>
<line x1="55" y1="1" x2="55" y2="108" style="stroke:#ddd;stroke-width:2;stroke-dasharray:3 3"></line>
<line x1="164" y1="1" x2="164" y2="108" style="stroke:#ddd;stroke-width:2;stroke-dasharray:3 3"></line>
<line x1="273" y1="1" x2="273" y2="108" style="stroke:#ddd;stroke-width:2;stroke-dasharray:3 3"></line>
<line x1="382" y1="1" x2="382" y2="108" style="stroke:#ddd;stroke-width:2;stroke-dasharray:3 3"></line>
<line x1="491" y1="1" x2="491" y2="108" style="stroke:#ddd;stroke-width:2;stroke-dasharray:3 3"></line>
<line x1="600" y1="1" x2="600" y2="108" style="stroke:#ddd;stroke-width:2;stroke-dasharray:3 3"></line>
<line x1="709" y1="1" x2="709" y2="108" style="stroke:#ddd;stroke-width:2;stroke-dasharray:3 3"></line>
<line x1="818" y1="1" x2="818" y2="108" style="stroke:#ddd;stroke-width:2;stroke-dasharray:3 3"></line>
<line x1="927" y1="1" x2="927" y2="108" style="stroke:#ddd;stroke-width:2;stroke-dasharray:3 3"></line>
<line x1="1036" y1="1" x2="1036" y2="108" style="stroke:#ddd;stroke-width:2;stroke-dasharray:3 3"></line>
<path d="M14.19,26.14c2.65,2.21,6.65,8.47,7.31,11.91" style="fill:none;stroke:#999;stroke-width:3"></path>

<path d="M123.19,26.14c2.65,2.21,6.65,8.47,7.31,11.91" style="fill:none;stroke:#999;stroke-width:3"></path>
<path d="M153.26,22.47c0.02,0.31,0.04,0.81-0.04,1.26c-0.51,2.66-3.42,8.49-7.4,12.06" style="fill:none;stroke:#999;stroke-width:3"></path>

<path d="M232.19,26.14c2.65,2.21,6.65,8.47,7.31,11.91" style="fill:none;stroke:#999;stroke-width:3"></path>
<path d="M262.26,22.47c0.02,0.31,0.04,0.81-0.04,1.26c-0.51,2.66-3.42,8.49-7.4,12.06" style="fill:none;stroke:#999;stroke-width:3"></path>
<path d="M229.35,45.2c0.56,0.19,2.05,0.66,3.53,0.56c5.33-0.37,21.15-2.21,27.18-2.81c1.48-0.15,1.86-0.19,2.79,0" style="fill:none;stroke:#999;stroke-width:3"></path>

<path d="M341.19,26.14c2.65,2.21,6.65,8.47,7.31,11.91" style="fill:none;stroke:#999;stroke-width:3"></path>
<path d="M371.26,22.47c0.02,0.31,0.04,0.81-0.04,1.26c-0.51,2.66-3.42,8.49-7.4,12.06" style="fill:none;stroke:#999;stroke-width:3"></path>
<path d="M338.35,45.2c0.56,0.19,2.05,0.66,3.53,0.56c5.33-0.37,21.15-2.21,27.18-2.81c1.48-0.15,1.86-0.19,2.79,0" style="fill:none;stroke:#999;stroke-width:3"></path>
<path d="M356.02,16.46c0.88,0.45,1.41,2.03,1.59,2.94s0,69.74-0.18,75.39" style="fill:none;stroke:#999;stroke-width:3"></path>

<path d="M450.19,26.14c2.65,2.21,6.65,8.47,7.31,11.91" style="fill:none;stroke:#999;stroke-width:3"></path>
<path d="M480.26,22.47c0.02,0.31,0.04,0.81-0.04,1.26c-0.51,2.66-3.42,8.49-7.4,12.06" style="fill:none;stroke:#999;stroke-width:3"></path>
<path d="M447.35,45.2c0.56,0.19,2.05,0.66,3.53,0.56c5.33-0.37,21.15-2.21,27.18-2.81c1.48-0.15,1.86-0.19,2.79,0" style="fill:none;stroke:#999;stroke-width:3"></path>
<path d="M465.02,16.46c0.88,0.45,1.41,2.03,1.59,2.94s0,69.74-0.18,75.39" style="fill:none;stroke:#999;stroke-width:3"></path>
<path d="M466.52,44.96C462.69,56.45,453.37,72.59,444.75,79.23" style="fill:none;stroke:#999;stroke-width:3"></path>

<path d="M559.19,26.14c2.65,2.21,6.65,8.47,7.31,11.91" style="fill:none;stroke:#999;stroke-width:3"></path>
<path d="M589.26,22.47c0.02,0.31,0.04,0.81-0.04,1.26c-0.51,2.66-3.42,8.49-7.4,12.06" style="fill:none;stroke:#999;stroke-width:3"></path>
<path d="M556.35,45.2c0.56,0.19,2.05,0.66,3.53,0.56c5.33-0.37,21.15-2.21,27.18-2.81c1.48-0.15,1.86-0.19,2.79,0" style="fill:none;stroke:#999;stroke-width:3"></path>
<path d="M574.02,16.46c0.88,0.45,1.41,2.03,1.59,2.94s0,69.74-0.18,75.39" style="fill:none;stroke:#999;stroke-width:3"></path>
<path d="M575.52,44.96C571.69,56.45,562.37,72.59,553.75,79.23" style="fill:none;stroke:#999;stroke-width:3"></path>
<path d="M578.37,51.32c4.46,2.97,7.74,6.39,9.4,11.4" style="fill:none;stroke:#999;stroke-width:3"></path>

<path d="M668.19,26.14c2.65,2.21,6.65,8.47,7.31,11.91" style="fill:none;stroke:#999;stroke-width:3"></path>
<path d="M698.26,22.47c0.02,0.31,0.04,0.81-0.04,1.26c-0.51,2.66-3.42,8.49-7.4,12.06" style="fill:none;stroke:#999;stroke-width:3"></path>
<path d="M665.35,45.2c0.56,0.19,2.05,0.66,3.53,0.56c5.33-0.37,21.15-2.21,27.18-2.81c1.48-0.15,1.86-0.19,2.79,0" style="fill:none;stroke:#999;stroke-width:3"></path>
<path d="M683.02,16.46c0.88,0.45,1.41,2.03,1.59,2.94s0,69.74-0.18,75.39" style="fill:none;stroke:#999;stroke-width:3"></path>
<path d="M684.52,44.96C680.69,56.45,671.37,72.59,662.75,79.23" style="fill:none;stroke:#999;stroke-width:3"></path>
<path d="M687.37,51.32c4.46,2.97,7.74,6.39,9.4,11.4" style="fill:none;stroke:#999;stroke-width:3"></path>
<path d="M707.23,47.28c4.49-0.31,7.83-0.91,11.75-1.44c1.15-0.15,3.05-0.15,3.64-0.06" style="fill:none;stroke:#999;stroke-width:3"></path>

<path d="M777.19,26.14c2.65,2.21,6.65,8.47,7.31,11.91" style="fill:none;stroke:#999;stroke-width:3"></path>
<path d="M807.26,22.47c0.02,0.31,0.04,0.81-0.04,1.26c-0.51,2.66-3.42,8.49-7.4,12.06" style="fill:none;stroke:#999;stroke-width:3"></path>
<path d="M774.35,45.2c0.56,0.19,2.05,0.66,3.53,0.56c5.33-0.37,21.15-2.21,27.18-2.81c1.48-0.15,1.86-0.19,2.79,0" style="fill:none;stroke:#999;stroke-width:3"></path>
<path d="M792.02,16.46c0.88,0.45,1.41,2.03,1.59,2.94s0,69.74-0.18,75.39" style="fill:none;stroke:#999;stroke-width:3"></path>
<path d="M793.52,44.96C789.69,56.45,780.37,72.59,771.75,79.23" style="fill:none;stroke:#999;stroke-width:3"></path>
<path d="M796.37,51.32c4.46,2.97,7.74,6.39,9.4,11.4" style="fill:none;stroke:#999;stroke-width:3"></path>
<path d="M816.23,47.28c4.49-0.31,7.83-0.91,11.75-1.44c1.15-0.15,3.05-0.15,3.64-0.06" style="fill:none;stroke:#999;stroke-width:3"></path>
<path d="M814.87,16.83c0.69,1.12,1.29,2.3,1.29,3.84c0,4.17,0.28,58.33,0.28,64.53c0,3.8,1.57,4.55,3.28,3.14c4.79-3.94,6.54-6.34,9.76-8.6" style="fill:none;stroke:#999;stroke-width:3"></path>

<path d="M886.19,26.14c2.65,2.21,6.65,8.47,7.31,11.91" style="fill:none;stroke:#999;stroke-width:3"></path>
<path d="M916.26,22.47c0.02,0.31,0.04,0.81-0.04,1.26c-0.51,2.66-3.42,8.49-7.4,12.06" style="fill:none;stroke:#999;stroke-width:3"></path>
<path d="M883.35,45.2c0.56,0.19,2.05,0.66,3.53,0.56c5.33-0.37,21.15-2.21,27.18-2.81c1.48-0.15,1.86-0.19,2.79,0" style="fill:none;stroke:#999;stroke-width:3"></path>
<path d="M901.02,16.46c0.88,0.45,1.41,2.03,1.59,2.94s0,69.74-0.18,75.39" style="fill:none;stroke:#999;stroke-width:3"></path>
<path d="M902.52,44.96C898.69,56.45,889.37,72.59,880.75,79.23" style="fill:none;stroke:#999;stroke-width:3"></path>
<path d="M905.37,51.32c4.46,2.97,7.74,6.39,9.4,11.4" style="fill:none;stroke:#999;stroke-width:3"></path>
<path d="M925.23,47.28c4.49-0.31,7.83-0.91,11.75-1.44c1.15-0.15,3.05-0.15,3.64-0.06" style="fill:none;stroke:#999;stroke-width:3"></path>
<path d="M923.87,16.83c0.69,1.12,1.29,2.3,1.29,3.84c0,4.17,0.28,58.33,0.28,64.53c0,3.8,1.57,4.55,3.28,3.14c4.79-3.94,6.54-6.34,9.76-8.6" style="fill:none;stroke:#999;stroke-width:3"></path>
<path d="M966.5699999999999,32.44c0.21,0.93,0.27,3.03-0.73,4.08c-5.68,6.03-9.99,10.44-16.32,15.47" style="fill:none;stroke:#999;stroke-width:3"></path>

<path d="M995.19,26.14c2.65,2.21,6.65,8.47,7.31,11.91" style="fill:none;stroke:#999;stroke-width:3"></path>
<path d="M1025.26,22.47c0.02,0.31,0.04,0.81-0.04,1.26c-0.51,2.66-3.42,8.49-7.4,12.06" style="fill:none;stroke:#999;stroke-width:3"></path>
<path d="M992.35,45.2c0.56,0.19,2.05,0.66,3.53,0.56c5.33-0.37,21.15-2.21,27.18-2.81c1.48-0.15,1.86-0.19,2.79,0" style="fill:none;stroke:#999;stroke-width:3"></path>
<path d="M1010.02,16.46c0.88,0.45,1.41,2.03,1.59,2.94s0,69.74-0.18,75.39" style="fill:none;stroke:#999;stroke-width:3"></path>
<path d="M1011.52,44.96C1007.69,56.45,998.37,72.59,989.75,79.23" style="fill:none;stroke:#999;stroke-width:3"></path>
<path d="M1014.37,51.32c4.46,2.97,7.74,6.39,9.4,11.4" style="fill:none;stroke:#999;stroke-width:3"></path>
<path d="M1034.23,47.28c4.49-0.31,7.83-0.91,11.75-1.44c1.15-0.15,3.05-0.15,3.64-0.06" style="fill:none;stroke:#999;stroke-width:3"></path>
<path d="M1032.87,16.83c0.69,1.12,1.29,2.3,1.29,3.84c0,4.17,0.28,58.33,0.28,64.53c0,3.8,1.57,4.55,3.28,3.14c4.79-3.94,6.54-6.34,9.76-8.6" style="fill:none;stroke:#999;stroke-width:3"></path>
<path d="M1075.57,32.44c0.21,0.93,0.27,3.03-0.73,4.08c-5.68,6.03-9.99,10.44-16.32,15.47" style="fill:none;stroke:#999;stroke-width:3"></path>
<path d="M1054.29,15.5c0.8,1.18,1.49,3.06,1.49,4.55c0,3.93-0.37,57.04-0.37,61.65c0,10.54,2.34,11.55,11.39,11.55c12.2,0,10.89-2.26,10.89-12.57" style="fill:none;stroke:#999;stroke-width:3"></path>

</svg>