<svg width="1417px" height="109px" viewBox="0 0 1417 109" xmlns="http://www.w3.org/2000/svg" xmlns:xlink="http://www.w3.org/1999/xlink" xml:space="preserve" version="1.1" baseProfile="full">
<line x1="1" y1="1" x2="1416" y2="1" style="stroke:#ddd;stroke-width:2"></line>
<line x1="1" y1="1" x2="1" y2="108" style="stroke:#ddd;stroke-width:2"></line>
<line x1="1" y1="108" x2="1416" y2="108" style="stroke:#ddd;stroke-width:2"></line>
<line x1="1416" y1="1" x2="1416" y2="108" style="stroke:#ddd;stroke-width:2"></line>
<line x1="109" y1="1" x2="109" y2="108" style="stroke:#ddd;stroke-width:2"></line>
<line x1="218" y1="1" x2="218" y2="108" style="stroke:#ddd;stroke-width:2"></line>
<line x1="327" y1="1" x2="327" y2="108" style="stroke:#ddd;stroke-width:2"></line>
<line x1="436" y1="1" x2="436" y2="108" style="stroke:#ddd;stroke-width:2"></line>
<line x1="545" y1="1" x2="545" y2="108" style="stroke:#ddd;stroke-width:2"></line>
<line x1="654" y1="1" x2="654" y2="108" style="stroke:#ddd;stroke-width:2"></line>
<line x1="763" y1="1" x2="763" y2="108" style="stroke:#ddd;stroke-width:2"></line>
<line x1="872" y1="1" x2="872" y2="108" style="stroke:#ddd;stroke-width:2"></line>
<line x1="981" y1="1" x2="981" y2="108" style="stroke:#ddd;stroke-width:2"></line>
<line x1="1090" y1="1" x2="1090" y2="108" style="stroke:#ddd;stroke-width:2"></line>
<line x1="1199" y1="1" x2="1199" y2="108" style="stroke:#ddd;stroke-width:2"></line>
<line x1="1308" y1="1" x2="1308" y2="108" style="stroke:#ddd;stroke-width:2"></line>
<line x1="1" y1="54" x2="1416" y2="54" style="stroke:#ddd;stroke-width:2;stroke-dasharray:3 3"></line>
<line x1="55" y1="1" x2="55" y2="108" style="stroke:#ddd;stroke-width:2;stroke-dasharray:3 3"></line>
<line x1="164" y1="1" x2="164" y2="108" style="stroke:#ddd;stroke-width:2;stroke-dasharray:3 3"></line>
<line x1="273" y1="1" x2="273" y2="108" style="stroke:#ddd;stroke-width:2;stroke-dasharray:3 3"></line>
<line x1="382" y1="1" x2="382" y2="108" style="stroke:#ddd;stroke-width:2;stroke-dasharray:3 3"></line>
<line x1="491" y1="1" x2="491" y2="108" style="stroke:#ddd;stroke-width:2;stroke-dasharray:3 3"></line>
<line x1="600" y1="1" x2="600" y2="108" style="stroke:#ddd;stroke-width:2;stroke-dasharray:3 3"></line>
<line x1="709" y1="1" x2="709" y2="108" style="stroke:#ddd;stroke-width:2;stroke-dasharray:3 3"></line>
<line x1="818" y1="1" x2="818" y2="108" style="stroke:#ddd;stroke-width:2;stroke-dasharray:3 3"></line>
<line x1="927" y1="1" x2="927" y2="108" style="stroke:#ddd;stroke-width:2;stroke-dasharray:3 3"></line>
<line x1="1036" y1="1" x2="1036" y2="108" style="stroke:#ddd;stroke-width:2;stroke-dasharray:3 3"></line>
<line x1="1145" y1="1" x2="1145" y2="108" style="stroke:#ddd;stroke-width:2;stroke-dasharray:3 3"></line>
<line x1="1254" y1="1" x2="1254" y2="108" style="stroke:#ddd;stroke-width:2;stroke-dasharray:3 3"></line>
<line x1="1363" y1="1" x2="1363" y2="108" style="stroke:#ddd;stroke-width:2;stroke-dasharray:3 3"></line>
<path d="M23.75,11.5c3.97,1.59,10.26,6.53,11.25,9" style="fill:none;stroke:#999;stroke-width:3"></path>

<path d="M132.75,11.5c3.97,1.59,10.26,6.53,11.25,9" style="fill:none;stroke:#999;stroke-width:3"></path>
<path d="M125.75,26.76c3.97,1.14,10.26,4.71,11.25,6.49" style="fill:none;stroke:#999;stroke-width:3"></path>

<path d="M241.75,11.5c3.97,1.59,10.26,6.53,11.25,9" style="fill:none;stroke:#999;stroke-width:3"></path>
<path d="M234.75,26.76c3.97,1.14,10.26,4.71,11.25,6.49" style="fill:none;stroke:#999;stroke-width:3"></path>
<path d="M235.0,51.21c1.32,0.62,2.92,0.65,3.75-0.12c2.43-2.24,15.85-14.98,18.06-17.84" style="fill:none;stroke:#999;stroke-width:3"></path>

<path d="M350.75,11.5c3.97,1.59,10.26,6.53,11.25,9" style="fill:none;stroke:#999;stroke-width:3"></path>
<path d="M343.75,26.76c3.97,1.14,10.26,4.71,11.25,6.49" style="fill:none;stroke:#999;stroke-width:3"></path>
<path d="M344.0,51.21c1.32,0.62,2.92,0.65,3.75-0.12c2.43-2.24,15.85-14.98,18.06-17.84" style="fill:none;stroke:#999;stroke-width:3"></path>
<path d="M375.53,15.1c1.08,0.4,2.95,0.84,3.89,0.7c7.7-1.16,22.62-2.21,26.89-2.65c2.78-0.28,4.02,0.78,3.88,2.66c-0.38,4.96-4.36,20.7-9.48,27.66c-3.7,5.03-4.33,2.84-6.43,0.16" style="fill:none;stroke:#999;stroke-width:3"></path>

<path d="M459.75,11.5c3.97,1.59,10.26,6.53,11.25,9" style="fill:none;stroke:#999;stroke-width:3"></path>
<path d="M452.75,26.76c3.97,1.14,10.26,4.71,11.25,6.49" style="fill:none;stroke:#999;stroke-width:3"></path>
<path d="M453.0,51.21c1.32,0.62,2.92,0.65,3.75-0.12c2.43-2.24,15.85-14.98,18.06-17.84" style="fill:none;stroke:#999;stroke-width:3"></path>
<path d="M484.53,15.1c1.08,0.4,2.95,0.84,3.89,0.7c7.7-1.16,22.62-2.21,26.89-2.65c2.78-0.28,4.02,0.78,3.88,2.66c-0.38,4.96-4.36,20.7-9.48,27.66c-3.7,5.03-4.33,2.84-6.43,0.16" style="fill:none;stroke:#999;stroke-width:3"></path>
<path d="M501.25,17.75c0.05,0.66,0.08,1.7-0.12,2.65c-1.9,9.3-5.66,19.2-19.39,27" style="fill:none;stroke:#999;stroke-width:3"></path>

<path d="M568.75,11.5c3.97,1.59,10.26,6.53,11.25,9" style="fill:none;stroke:#999;stroke-width:3"></path>
<path d="M561.75,26.76c3.97,1.14,10.26,4.71,11.25,6.49" style="fill:none;stroke:#999;stroke-width:3"></path>
<path d="M562.0,51.21c1.32,0.62,2.92,0.65,3.75-0.12c2.43-2.24,15.85-14.98,18.06-17.84" style="fill:none;stroke:#999;stroke-width:3"></path>
<path d="M593.53,15.1c1.08,0.4,2.95,0.84,3.89,0.7c7.7-1.16,22.62-2.21,26.89-2.65c2.78-0.28,4.02,0.78,3.88,2.66c-0.38,4.96-4.36,20.7-9.48,27.66c-3.7,5.03-4.33,2.84-6.43,0.16" style="fill:none;stroke:#999;stroke-width:3"></path>
<path d="M610.25,17.75c0.05,0.66,0.08,1.7-0.12,2.65c-1.9,9.3-5.66,19.2-19.39,27" style="fill:none;stroke:#999;stroke-width:3"></path>
<path d="M597.5,26c-1,3.44-4,7.9-7.25,10.27" style="fill:none;stroke:#999;stroke-width:3"></path>

<path d="M677.75,11.5c3.97,1.59,10.26,6.53,11.25,9" style="fill:none;stroke:#999;stroke-width:3"></path>
<path d="M670.75,26.76c3.97,1.14,10.26,4.71,11.25,6.49" style="fill:none;stroke:#999;stroke-width:3"></path>
<path d="M671.0,51.21c1.32,0.62,2.92,0.65,3.75-0.12c2.43-2.24,15.85-14.98,18.06-17.84" style="fill:none;stroke:#999;stroke-width:3"></path>
<path d="M702.53,15.1c1.08,0.4,2.95,0.84,3.89,0.7c7.7-1.16,22.62-2.21,26.89-2.65c2.78-0.28,4.02,0.78,3.88,2.66c-0.38,4.96-4.36,20.7-9.48,27.66c-3.7,5.03-4.33,2.84-6.43,0.16" style="fill:none;stroke:#999;stroke-width:3"></path>
<path d="M719.25,17.75c0.05,0.66,0.08,1.7-0.12,2.65c-1.9,9.3-5.66,19.2-19.39,27" style="fill:none;stroke:#999;stroke-width:3"></path>
<path d="M706.5,26c-1,3.44-4,7.9-7.25,10.27" style="fill:none;stroke:#999;stroke-width:3"></path>
<path d="M740.5,29.92c2.91,1.99,7.52,8.18,8.25,11.27" style="fill:none;stroke:#999;stroke-width:3"></path>

<path d="M786.75,11.5c3.97,1.59,10.26,6.53,11.25,9" style="fill:none;stroke:#999;stroke-width:3"></path>
<path d="M779.75,26.76c3.97,1.14,10.26,4.71,11.25,6.49" style="fill:none;stroke:#999;stroke-width:3"></path>
<path d="M780.0,51.21c1.32,0.62,2.92,0.65,3.75-0.12c2.43-2.24,15.85-14.98,18.06-17.84" style="fill:none;stroke:#999;stroke-width:3"></path>
<path d="M811.53,15.1c1.08,0.4,2.95,0.84,3.89,0.7c7.7-1.16,22.62-2.21,26.89-2.65c2.78-0.28,4.02,0.78,3.88,2.66c-0.38,4.96-4.36,20.7-9.48,27.66c-3.7,5.03-4.33,2.84-6.43,0.16" style="fill:none;stroke:#999;stroke-width:3"></path>
<path d="M828.25,17.75c0.05,0.66,0.08,1.7-0.12,2.65c-1.9,9.3-5.66,19.2-19.39,27" style="fill:none;stroke:#999;stroke-width:3"></path>
<path d="M815.5,26c-1,3.44-4,7.9-7.25,10.27" style="fill:none;stroke:#999;stroke-width:3"></path>
<path d="M849.5,29.92c2.91,1.99,7.52,8.18,8.25,11.27" style="fill:none;stroke:#999;stroke-width:3"></path>
<path d="M794.75,54.5c3.28,1.59,8.22,6.07,9.04,8.54" style="fill:none;stroke:#999;stroke-width:3"></path>

<path d="M895.75,11.5c3.97,1.59,10.26,6.53,11.25,9" style="fill:none;stroke:#999;stroke-width:3"></path>
<path d="M888.75,26.76c3.97,1.14,10.26,4.71,11.25,6.49" style="fill:none;stroke:#999;stroke-width:3"></path>
<path d="M889.0,51.21c1.32,0.62,2.92,0.65,3.75-0.12c2.43-2.24,15.85-14.98,18.06-17.84" style="fill:none;stroke:#999;stroke-width:3"></path>
<path d="M920.53,15.1c1.08,0.4,2.95,0.84,3.89,0.7c7.7-1.16,22.62-2.21,26.89-2.65c2.78-0.28,4.02,0.78,3.88,2.66c-0.38,4.96-4.36,20.7-9.48,27.66c-3.7,5.03-4.33,2.84-6.43,0.16" style="fill:none;stroke:#999;stroke-width:3"></path>
<path d="M937.25,17.75c0.05,0.66,0.08,1.7-0.12,2.65c-1.9,9.3-5.66,19.2-19.39,27" style="fill:none;stroke:#999;stroke-width:3"></path>
<path d="M924.5,26c-1,3.44-4,7.9-7.25,10.27" style="fill:none;stroke:#999;stroke-width:3"></path>
<path d="M958.5,29.92c2.91,1.99,7.52,8.18,8.25,11.27" style="fill:none;stroke:#999;stroke-width:3"></path>
<path d="M903.75,54.5c3.28,1.59,8.22,6.07,9.04,8.54" style="fill:none;stroke:#999;stroke-width:3"></path>
<path d="M948.99,52.25c0.02,0.3,0.04,0.77-0.04,1.21C948.44,56,945.51,61.58,941.5,65" style="fill:none;stroke:#999;stroke-width:3"></path>

<path d="M1004.75,11.5c3.97,1.59,10.26,6.53,11.25,9" style="fill:none;stroke:#999;stroke-width:3"></path>
<path d="M997.75,26.76c3.97,1.14,10.26,4.71,11.25,6.49" style="fill:none;stroke:#999;stroke-width:3"></path>
<path d="M998.0,51.21c1.32,0.62,2.92,0.65,3.75-0.12c2.43-2.24,15.85-14.98,18.06-17.84" style="fill:none;stroke:#999;stroke-width:3"></path>
<path d="M1029.53,15.1c1.08,0.4,2.95,0.84,3.89,0.7c7.7-1.16,22.62-2.21,26.89-2.65c2.78-0.28,4.02,0.78,3.88,2.66c-0.38,4.96-4.36,20.7-9.48,27.66c-3.7,5.03-4.33,2.84-6.43,0.16" style="fill:none;stroke:#999;stroke-width:3"></path>
<path d="M1046.25,17.75c0.05,0.66,0.08,1.7-0.12,2.65c-1.9,9.3-5.66,19.2-19.39,27" style="fill:none;stroke:#999;stroke-width:3"></path>
<path d="M1033.5,26c-1,3.44-4,7.9-7.25,10.27" style="fill:none;stroke:#999;stroke-width:3"></path>
<path d="M1067.5,29.92c2.91,1.99,7.52,8.18,8.25,11.27" style="fill:none;stroke:#999;stroke-width:3"></path>
<path d="M1012.75,54.5c3.28,1.59,8.22,6.07,9.04,8.54" style="fill:none;stroke:#999;stroke-width:3"></path>
<path d="M1057.99,52.25c0.02,0.3,0.04,0.77-0.04,1.21C1057.44,56,1054.51,61.58,1050.5,65" style="fill:none;stroke:#999;stroke-width:3"></path>
<path d="M998.4,69.94c0.98,0.13,3.59,0.35,6.2,0.41c7.18,0.15,52.54-3.13,63.97-2.85c2.61,0.07,4.26,0.37,5.89,0.51" style="fill:none;stroke:#999;stroke-width:3"></path>

<path d="M1113.75,11.5c3.97,1.59,10.26,6.53,11.25,9" style="fill:none;stroke:#999;stroke-width:3"></path>
<path d="M1106.75,26.76c3.97,1.14,10.26,4.71,11.25,6.49" style="fill:none;stroke:#999;stroke-width:3"></path>
<path d="M1107.0,51.21c1.32,0.62,2.92,0.65,3.75-0.12c2.43-2.24,15.85-14.98,18.06-17.84" style="fill:none;stroke:#999;stroke-width:3"></path>
<path d="M1138.53,15.1c1.08,0.4,2.95,0.84,3.89,0.7c7.7-1.16,22.62-2.21,26.89-2.65c2.78-0.28,4.02,0.78,3.88,2.66c-0.38,4.96-4.36,20.7-9.48,27.66c-3.7,5.03-4.33,2.84-6.43,0.16" style="fill:none;stroke:#999;stroke-width:3"></path>
<path d="M1155.25,17.75c0.05,0.66,0.08,1.7-0.12,2.65c-1.9,9.3-5.66,19.2-19.39,27" style="fill:none;stroke:#999;stroke-width:3"></path>
<path d="M1142.5,26c-1,3.44-4,7.9-7.25,10.27" style="fill:none;stroke:#999;stroke-width:3"></path>
<path d="M1176.5,29.92c2.91,1.99,7.52,8.18,8.25,11.27" style="fill:none;stroke:#999;stroke-width:3"></path>
<path d="M1121.75,54.5c3.28,1.59,8.22,6.07,9.04,8.54" style="fill:none;stroke:#999;stroke-width:3"></path>
<path d="M1166.99,52.25c0.02,0.3,0.04,0.77-0.04,1.21C1166.44,56,1163.51,61.58,1159.5,65" style="fill:none;stroke:#999;stroke-width:3"></path>
<path d="M1107.4,69.94c0.98,0.13,3.59,0.35,6.2,0.41c7.18,0.15,52.54-3.13,63.97-2.85c2.61,0.07,4.26,0.37,5.89,0.51" style="fill:none;stroke:#999;stroke-width:3"></path>
<path d="M1143.17,51.25c1.1,0.29,1.25,1.79,1.47,2.37c0.22,0.57,0,41.29-0.22,44.88" style="fill:none;stroke:#999;stroke-width:3"></path>

<path d="M1222.75,11.5c3.97,1.59,10.26,6.53,11.25,9" style="fill:none;stroke:#999;stroke-width:3"></path>
<path d="M1215.75,26.76c3.97,1.14,10.26,4.71,11.25,6.49" style="fill:none;stroke:#999;stroke-width:3"></path>
<path d="M1216.0,51.21c1.32,0.62,2.92,0.65,3.75-0.12c2.43-2.24,15.85-14.98,18.06-17.84" style="fill:none;stroke:#999;stroke-width:3"></path>
<path d="M1247.53,15.1c1.08,0.4,2.95,0.84,3.89,0.7c7.7-1.16,22.62-2.21,26.89-2.65c2.78-0.28,4.02,0.78,3.88,2.66c-0.38,4.96-4.36,20.7-9.48,27.66c-3.7,5.03-4.33,2.84-6.43,0.16" style="fill:none;stroke:#999;stroke-width:3"></path>
<path d="M1264.25,17.75c0.05,0.66,0.08,1.7-0.12,2.65c-1.9,9.3-5.66,19.2-19.39,27" style="fill:none;stroke:#999;stroke-width:3"></path>
<path d="M1251.5,26c-1,3.44-4,7.9-7.25,10.27" style="fill:none;stroke:#999;stroke-width:3"></path>
<path d="M1285.5,29.92c2.91,1.99,7.52,8.18,8.25,11.27" style="fill:none;stroke:#999;stroke-width:3"></path>
<path d="M1230.75,54.5c3.28,1.59,8.22,6.07,9.04,8.54" style="fill:none;stroke:#999;stroke-width:3"></path>
<path d="M1275.99,52.25c0.02,0.3,0.04,0.77-0.04,1.21C1275.44,56,1272.51,61.58,1268.5,65" style="fill:none;stroke:#999;stroke-width:3"></path>
<path d="M1216.4,69.94c0.98,0.13,3.59,0.35,6.2,0.41c7.18,0.15,52.54-3.13,63.97-2.85c2.61,0.07,4.26,0.37,5.89,0.51" style="fill:none;stroke:#999;stroke-width:3"></path>
<path d="M1252.17,51.25c1.1,0.29,1.25,1.79,1.47,2.37c0.22,0.57,0,41.29-0.22,44.88" style="fill:none;stroke:#999;stroke-width:3"></path>
<path d="M1250.74,69.14c-6.38,8.2-21.88,19.72-36.23,24.45" style="fill:none;stroke:#999;stroke-width:3"></path>

<path d="M1331.75,11.5c3.97,1.59,10.26,6.53,11.25,9" style="fill:none;stroke:#999;stroke-width:3"></path>
<path d="M1324.75,26.76c3.97,1.14,10.26,4.71,11.25,6.49" style="fill:none;stroke:#999;stroke-width:3"></path>
<path d="M1325.0,51.21c1.32,0.62,2.92,0.65,3.75-0.12c2.43-2.24,15.85-14.98,18.06-17.84" style="fill:none;stroke:#999;stroke-width:3"></path>
<path d="M1356.53,15.1c1.08,0.4,2.95,0.84,3.89,0.7c7.7-1.16,22.62-2.21,26.89-2.65c2.78-0.28,4.02,0.78,3.88,2.66c-0.38,4.96-4.36,20.7-9.48,27.66c-3.7,5.03-4.33,2.84-6.43,0.16" style="fill:none;stroke:#999;stroke-width:3"></path>
<path d="M1373.25,17.75c0.05,0.66,0.08,1.7-0.12,2.65c-1.9,9.3-5.66,19.2-19.39,27" style="fill:none;stroke:#999;stroke-width:3"></path>
<path d="M1360.5,26c-1,3.44-4,7.9-7.25,10.27" style="fill:none;stroke:#999;stroke-width:3"></path>
<path d="M1394.5,29.92c2.91,1.99,7.52,8.18,8.25,11.27" style="fill:none;stroke:#999;stroke-width:3"></path>
<path d="M1339.75,54.5c3.28,1.59,8.22,6.07,9.04,8.54" style="fill:none;stroke:#999;stroke-width:3"></path>
<path d="M1384.99,52.25c0.02,0.3,0.04,0.77-0.04,1.21C1384.44,56,1381.51,61.58,1377.5,65" style="fill:none;stroke:#999;stroke-width:3"></path>
<path d="M1325.4,69.94c0.98,0.13,3.59,0.35,6.2,0.41c7.18,0.15,52.54-3.13,63.97-2.85c2.61,0.07,4.26,0.37,5.89,0.51" style="fill:none;stroke:#999;stroke-width:3"></path>
<path d="M1361.17,51.25c1.1,0.29,1.25,1.79,1.47,2.37c0.22,0.57,0,41.29-0.22,44.88" style="fill:none;stroke:#999;stroke-width:3"></path>
<path d="M1359.74,69.14c-6.38,8.2-21.88,19.72-36.23,24.45" style="fill:none;stroke:#999;stroke-width:3"></path>
<path d="M1364.1,69.86c4.67,3.25,25.16,18.6,30.23,21.79c1.72,1.08,3.2,1.55,4.92,1.86" style="fill:none;stroke:#999;stroke-width:3"></path>

</svg>