<svg width="1090px" height="109px" viewBox="0 0 1090 109" xmlns="http://www.w3.org/2000/svg" xmlns:xlink="http://www.w3.org/1999/xlink" xml:space="preserve" version="1.1" baseProfile="full">
<line x1="1" y1="1" x2="1089" y2="1" style="stroke:#ddd;stroke-width:2"></line>
<line x1="1" y1="1" x2="1" y2="108" style="stroke:#ddd;stroke-width:2"></line>
<line x1="1" y1="108" x2="1089" y2="108" style="stroke:#ddd;stroke-width:2"></line>
<line x1="1089" y1="1" x2="1089" y2="108" style="stroke:#ddd;stroke-width:2"></line>
<line x1="109" y1="1" x2="109" y2="108" style="stroke:#ddd;stroke-width:2"></line>
<line x1="218" y1="1" x2="218" y2="108" style="stroke:#ddd;stroke-width:2"></line>
<line x1="327" y1="1" x2="327" y2="108" style="stroke:#ddd;stroke-width:2"></line>
<line x1="436" y1="1" x2="436" y2="108" style="stroke:#ddd;stroke-width:2"></line>
<line x1="545" y1="1" x2="545" y2="108" style="stroke:#ddd;stroke-width:2"></line>
<line x1="654" y1="1" x2="654" y2="108" style="stroke:#ddd;stroke-width:2"></line>
<line x1="763" y1="1" x2="763" y2="108" style="stroke:#ddd;stroke-width:2"></line>
<line x1="872" y1="1" x2="872" y2="108" style="stroke:#ddd;stroke-width:2"></line>
<line x1="981" y1="1" x2="981" y2="108" style="stroke:#ddd;stroke-width:2"></line>
<line x1="1" y1="54" x2="1089" y2="54" style="stroke:#ddd;stroke-width:2;stroke-dasharray:3 3"></line>
<line x1="55" y1="1" x2="55" y2="108" style="stroke:#ddd;stroke-width:2;stroke-dasharray:3 3"></line>
<line x1="164" y1="1" x2="164" y2="108" style="stroke:#ddd;stroke-width:2;stroke-dasharray:3 3"></line>
<line x1="273" y1="1" x2="273" y2="108" style="stroke:#ddd;stroke-width:2;stroke-dasharray:3 3"></line>
<line x1="382" y1="1" x2="382" y2="108" style="stroke:#ddd;stroke-width:2;stroke-dasharray:3 3"></line>
<line x1="491" y1="1" x2="491" y2="108" style="stroke:#ddd;stroke-width:2;stroke-dasharray:3 3"></line>
<line x1="600" y1="1" x2="600" y2="108" style="stroke:#ddd;stroke-width:2;stroke-dasharray:3 3"></line>
<line x1="709" y1="1" x2="709" y2="108" style="stroke:#ddd;stroke-width:2;stroke-dasharray:3 3"></line>
<line x1="818" y1="1" x2="818" y2="108" style="stroke:#ddd;stroke-width:2;stroke-dasharray:3 3"></line>
<line x1="927" y1="1" x2="927" y2="108" style="stroke:#ddd;stroke-width:2;stroke-dasharray:3 3"></line>
<line x1="1036" y1="1" x2="1036" y2="108" style="stroke:#ddd;stroke-width:2;stroke-dasharray:3 3"></line>
<path d="M52.12,9c0.84,0.36,2.23,1.76,2.23,2.48c0,2.85-0.02,5.63-0.11,7.68" style="fill:none;stroke:#999;stroke-width:3"></path>

<path d="M161.12,9c0.84,0.36,2.23,1.76,2.23,2.48c0,2.85-0.02,5.63-0.11,7.68" style="fill:none;stroke:#999;stroke-width:3"></path>
<path d="M129.0,21.57c1.22,0.05,3.53,0.3,4.72,0.27c9.97-0.24,48.17-3.05,61.23-3.18c2.02-0.02,3.05,0.03,4.55,0.35" style="fill:none;stroke:#999;stroke-width:3"></path>

<path d="M270.12,9c0.84,0.36,2.23,1.76,2.23,2.48c0,2.85-0.02,5.63-0.11,7.68" style="fill:none;stroke:#999;stroke-width:3"></path>
<path d="M238.0,21.57c1.22,0.05,3.53,0.3,4.72,0.27c9.97-0.24,48.17-3.05,61.23-3.18c2.02-0.02,3.05,0.03,4.55,0.35" style="fill:none;stroke:#999;stroke-width:3"></path>
<path d="M287.35,22.72c0.68,0.68,0.43,2.27-0.66,3.41C275.75,37.5,257.75,47.25,233.5,53.25" style="fill:none;stroke:#999;stroke-width:3"></path>

<path d="M379.12,9c0.84,0.36,2.23,1.76,2.23,2.48c0,2.85-0.02,5.63-0.11,7.68" style="fill:none;stroke:#999;stroke-width:3"></path>
<path d="M347.0,21.57c1.22,0.05,3.53,0.3,4.72,0.27c9.97-0.24,48.17-3.05,61.23-3.18c2.02-0.02,3.05,0.03,4.55,0.35" style="fill:none;stroke:#999;stroke-width:3"></path>
<path d="M396.35,22.72c0.68,0.68,0.43,2.27-0.66,3.41C384.75,37.5,366.75,47.25,342.5,53.25" style="fill:none;stroke:#999;stroke-width:3"></path>
<path d="M362.75,29.25c14.36,5.79,34.88,16.72,51.91,22.77c3.2,1.14,5.56,1.12,8.34,1.22" style="fill:none;stroke:#999;stroke-width:3"></path>

<path d="M488.12,9c0.84,0.36,2.23,1.76,2.23,2.48c0,2.85-0.02,5.63-0.11,7.68" style="fill:none;stroke:#999;stroke-width:3"></path>
<path d="M456.0,21.57c1.22,0.05,3.53,0.3,4.72,0.27c9.97-0.24,48.17-3.05,61.23-3.18c2.02-0.02,3.05,0.03,4.55,0.35" style="fill:none;stroke:#999;stroke-width:3"></path>
<path d="M505.35,22.72c0.68,0.68,0.43,2.27-0.66,3.41C493.75,37.5,475.75,47.25,451.5,53.25" style="fill:none;stroke:#999;stroke-width:3"></path>
<path d="M471.75,29.25c14.36,5.79,34.88,16.72,51.91,22.77c3.2,1.14,5.56,1.12,8.34,1.22" style="fill:none;stroke:#999;stroke-width:3"></path>
<path d="M487.85,46.75c0.43,0.79,0.32,1.97-0.72,2.75c-4.56,3.44-10.65,8.98-14.99,10.83c-0.89,0.38-0.86,1.83,0,1.99c4.56,0.79,10.05,3.12,13.95,4.58" style="fill:none;stroke:#999;stroke-width:3"></path>

<path d="M597.12,9c0.84,0.36,2.23,1.76,2.23,2.48c0,2.85-0.02,5.63-0.11,7.68" style="fill:none;stroke:#999;stroke-width:3"></path>
<path d="M565.0,21.57c1.22,0.05,3.53,0.3,4.72,0.27c9.97-0.24,48.17-3.05,61.23-3.18c2.02-0.02,3.05,0.03,4.55,0.35" style="fill:none;stroke:#999;stroke-width:3"></path>
<path d="M614.35,22.72c0.68,0.68,0.43,2.27-0.66,3.41C602.75,37.5,584.75,47.25,560.5,53.25" style="fill:none;stroke:#999;stroke-width:3"></path>
<path d="M580.75,29.25c14.36,5.79,34.88,16.72,51.91,22.77c3.2,1.14,5.56,1.12,8.34,1.22" style="fill:none;stroke:#999;stroke-width:3"></path>
<path d="M596.85,46.75c0.43,0.79,0.32,1.97-0.72,2.75c-4.56,3.44-10.65,8.98-14.99,10.83c-0.89,0.38-0.86,1.83,0,1.99c4.56,0.79,10.05,3.12,13.95,4.58" style="fill:none;stroke:#999;stroke-width:3"></path>
<path d="M613.04,53.25c0.5,0.46,0.16,2.47-0.5,2.96c-9.75,7.23-20.17,13.7-33.55,20.3c-3.07,1.51-1.74,2.88,0.26,2.57c8.38-1.29,32.24-3.85,43-5.08" style="fill:none;stroke:#999;stroke-width:3"></path>

<path d="M706.12,9c0.84,0.36,2.23,1.76,2.23,2.48c0,2.85-0.02,5.63-0.11,7.68" style="fill:none;stroke:#999;stroke-width:3"></path>
<path d="M674.0,21.57c1.22,0.05,3.53,0.3,4.72,0.27c9.97-0.24,48.17-3.05,61.23-3.18c2.02-0.02,3.05,0.03,4.55,0.35" style="fill:none;stroke:#999;stroke-width:3"></path>
<path d="M723.35,22.72c0.68,0.68,0.43,2.27-0.66,3.41C711.75,37.5,693.75,47.25,669.5,53.25" style="fill:none;stroke:#999;stroke-width:3"></path>
<path d="M689.75,29.25c14.36,5.79,34.88,16.72,51.91,22.77c3.2,1.14,5.56,1.12,8.34,1.22" style="fill:none;stroke:#999;stroke-width:3"></path>
<path d="M705.85,46.75c0.43,0.79,0.32,1.97-0.72,2.75c-4.56,3.44-10.65,8.98-14.99,10.83c-0.89,0.38-0.86,1.83,0,1.99c4.56,0.79,10.05,3.12,13.95,4.58" style="fill:none;stroke:#999;stroke-width:3"></path>
<path d="M722.04,53.25c0.5,0.46,0.16,2.47-0.5,2.96c-9.75,7.23-20.17,13.7-33.55,20.3c-3.07,1.51-1.74,2.88,0.26,2.57c8.38-1.29,32.24-3.85,43-5.08" style="fill:none;stroke:#999;stroke-width:3"></path>
<path d="M722.11,66.1c5.43,2.42,14.03,9.94,15.39,13.7" style="fill:none;stroke:#999;stroke-width:3"></path>

<path d="M815.12,9c0.84,0.36,2.23,1.76,2.23,2.48c0,2.85-0.02,5.63-0.11,7.68" style="fill:none;stroke:#999;stroke-width:3"></path>
<path d="M783.0,21.57c1.22,0.05,3.53,0.3,4.72,0.27c9.97-0.24,48.17-3.05,61.23-3.18c2.02-0.02,3.05,0.03,4.55,0.35" style="fill:none;stroke:#999;stroke-width:3"></path>
<path d="M832.35,22.72c0.68,0.68,0.43,2.27-0.66,3.41C820.75,37.5,802.75,47.25,778.5,53.25" style="fill:none;stroke:#999;stroke-width:3"></path>
<path d="M798.75,29.25c14.36,5.79,34.88,16.72,51.91,22.77c3.2,1.14,5.56,1.12,8.34,1.22" style="fill:none;stroke:#999;stroke-width:3"></path>
<path d="M814.85,46.75c0.43,0.79,0.32,1.97-0.72,2.75c-4.56,3.44-10.65,8.98-14.99,10.83c-0.89,0.38-0.86,1.83,0,1.99c4.56,0.79,10.05,3.12,13.95,4.58" style="fill:none;stroke:#999;stroke-width:3"></path>
<path d="M831.04,53.25c0.5,0.46,0.16,2.47-0.5,2.96c-9.75,7.23-20.17,13.7-33.55,20.3c-3.07,1.51-1.74,2.88,0.26,2.57c8.38-1.29,32.24-3.85,43-5.08" style="fill:none;stroke:#999;stroke-width:3"></path>
<path d="M831.11,66.1c5.43,2.42,14.03,9.94,15.39,13.7" style="fill:none;stroke:#999;stroke-width:3"></path>
<path d="M816.55,78.25c0.06,0.18,0.88,0.91,0.94,2.01c0.3,5.3-0.19,19.18-0.19,20.99" style="fill:none;stroke:#999;stroke-width:3"></path>

<path d="M924.12,9c0.84,0.36,2.23,1.76,2.23,2.48c0,2.85-0.02,5.63-0.11,7.68" style="fill:none;stroke:#999;stroke-width:3"></path>
<path d="M892.0,21.57c1.22,0.05,3.53,0.3,4.72,0.27c9.97-0.24,48.17-3.05,61.23-3.18c2.02-0.02,3.05,0.03,4.55,0.35" style="fill:none;stroke:#999;stroke-width:3"></path>
<path d="M941.35,22.72c0.68,0.68,0.43,2.27-0.66,3.41C929.75,37.5,911.75,47.25,887.5,53.25" style="fill:none;stroke:#999;stroke-width:3"></path>
<path d="M907.75,29.25c14.36,5.79,34.88,16.72,51.91,22.77c3.2,1.14,5.56,1.12,8.34,1.22" style="fill:none;stroke:#999;stroke-width:3"></path>
<path d="M923.85,46.75c0.43,0.79,0.32,1.97-0.72,2.75c-4.56,3.44-10.65,8.98-14.99,10.83c-0.89,0.38-0.86,1.83,0,1.99c4.56,0.79,10.05,3.12,13.95,4.58" style="fill:none;stroke:#999;stroke-width:3"></path>
<path d="M940.04,53.25c0.5,0.46,0.16,2.47-0.5,2.96c-9.75,7.23-20.17,13.7-33.55,20.3c-3.07,1.51-1.74,2.88,0.26,2.57c8.38-1.29,32.24-3.85,43-5.08" style="fill:none;stroke:#999;stroke-width:3"></path>
<path d="M940.11,66.1c5.43,2.42,14.03,9.94,15.39,13.7" style="fill:none;stroke:#999;stroke-width:3"></path>
<path d="M925.55,78.25c0.06,0.18,0.88,0.91,0.94,2.01c0.3,5.3-0.19,19.18-0.19,20.99" style="fill:none;stroke:#999;stroke-width:3"></path>
<path d="M912.35,85.7c0.15,1.05-0.18,2.45-0.89,2.92c-4.62,3.06-14.67,8.46-21.22,11.08" style="fill:none;stroke:#999;stroke-width:3"></path>

<path d="M1033.12,9c0.84,0.36,2.23,1.76,2.23,2.48c0,2.85-0.02,5.63-0.11,7.68" style="fill:none;stroke:#999;stroke-width:3"></path>
<path d="M1001.0,21.57c1.22,0.05,3.53,0.3,4.72,0.27c9.97-0.24,48.17-3.05,61.23-3.18c2.02-0.02,3.05,0.03,4.55,0.35" style="fill:none;stroke:#999;stroke-width:3"></path>
<path d="M1050.35,22.72c0.68,0.68,0.43,2.27-0.66,3.41C1038.75,37.5,1020.75,47.25,996.5,53.25" style="fill:none;stroke:#999;stroke-width:3"></path>
<path d="M1016.75,29.25c14.36,5.79,34.88,16.72,51.91,22.77c3.2,1.14,5.56,1.12,8.34,1.22" style="fill:none;stroke:#999;stroke-width:3"></path>
<path d="M1032.85,46.75c0.43,0.79,0.32,1.97-0.72,2.75c-4.56,3.44-10.65,8.98-14.99,10.83c-0.89,0.38-0.86,1.83,0,1.99c4.56,0.79,10.05,3.12,13.95,4.58" style="fill:none;stroke:#999;stroke-width:3"></path>
<path d="M1049.04,53.25c0.5,0.46,0.16,2.47-0.5,2.96c-9.75,7.23-20.17,13.7-33.55,20.3c-3.07,1.51-1.74,2.88,0.26,2.57c8.38-1.29,32.24-3.85,43-5.08" style="fill:none;stroke:#999;stroke-width:3"></path>
<path d="M1049.1100000000001,66.1c5.43,2.42,14.03,9.94,15.39,13.7" style="fill:none;stroke:#999;stroke-width:3"></path>
<path d="M1034.55,78.25c0.06,0.18,0.88,0.91,0.94,2.01c0.3,5.3-0.19,19.18-0.19,20.99" style="fill:none;stroke:#999;stroke-width:3"></path>
<path d="M1021.35,85.7c0.15,1.05-0.18,2.45-0.89,2.92c-4.62,3.06-14.67,8.46-21.22,11.08" style="fill:none;stroke:#999;stroke-width:3"></path>
<path d="M1048.52,85.2c9.2,2.84,16.26,9.43,18.4,12" style="fill:none;stroke:#999;stroke-width:3"></path>

</svg>