<svg width="1308px" height="109px" viewBox="0 0 1308 109" xmlns="http://www.w3.org/2000/svg" xmlns:xlink="http://www.w3.org/1999/xlink" xml:space="preserve" version="1.1" baseProfile="full">
<line x1="1" y1="1" x2="1307" y2="1" style="stroke:#ddd;stroke-width:2"></line>
<line x1="1" y1="1" x2="1" y2="108" style="stroke:#ddd;stroke-width:2"></line>
<line x1="1" y1="108" x2="1307" y2="108" style="stroke:#ddd;stroke-width:2"></line>
<line x1="1307" y1="1" x2="1307" y2="108" style="stroke:#ddd;stroke-width:2"></line>
<line x1="109" y1="1" x2="109" y2="108" style="stroke:#ddd;stroke-width:2"></line>
<line x1="218" y1="1" x2="218" y2="108" style="stroke:#ddd;stroke-width:2"></line>
<line x1="327" y1="1" x2="327" y2="108" style="stroke:#ddd;stroke-width:2"></line>
<line x1="436" y1="1" x2="436" y2="108" style="stroke:#ddd;stroke-width:2"></line>
<line x1="545" y1="1" x2="545" y2="108" style="stroke:#ddd;stroke-width:2"></line>
<line x1="654" y1="1" x2="654" y2="108" style="stroke:#ddd;stroke-width:2"></line>
<line x1="763" y1="1" x2="763" y2="108" style="stroke:#ddd;stroke-width:2"></line>
<line x1="872" y1="1" x2="872" y2="108" style="stroke:#ddd;stroke-width:2"></line>
<line x1="981" y1="1" x2="981" y2="108" style="stroke:#ddd;stroke-width:2"></line>
<line x1="1090" y1="1" x2="1090" y2="108" style="stroke:#ddd;stroke-width:2"></line>
<line x1="1199" y1="1" x2="1199" y2="108" style="stroke:#ddd;stroke-width:2"></line>
<line x1="1" y1="54" x2="1307" y2="54" style="stroke:#ddd;stroke-width:2;stroke-dasharray:3 3"></line>
<line x1="55" y1="1" x2="55" y2="108" style="stroke:#ddd;stroke-width:2;stroke-dasharray:3 3"></line>
<line x1="164" y1="1" x2="164" y2="108" style="stroke:#ddd;stroke-width:2;stroke-dasharray:3 3"></line>
<line x1="273" y1="1" x2="273" y2="108" style="stroke:#ddd;stroke-width:2;stroke-dasharray:3 3"></line>
<line x1="382" y1="1" x2="382" y2="108" style="stroke:#ddd;stroke-width:2;stroke-dasharray:3 3"></line>
<line x1="491" y1="1" x2="491" y2="108" style="stroke:#ddd;stroke-width:2;stroke-dasharray:3 3"></line>
<line x1="600" y1="1" x2="600" y2="108" style="stroke:#ddd;stroke-width:2;stroke-dasharray:3 3"></line>
<line x1="709" y1="1" x2="709" y2="108" style="stroke:#ddd;stroke-width:2;stroke-dasharray:3 3"></line>
<line x1="818" y1="1" x2="818" y2="108" style="stroke:#ddd;stroke-width:2;stroke-dasharray:3 3"></line>
<line x1="927" y1="1" x2="927" y2="108" style="stroke:#ddd;stroke-width:2;stroke-dasharray:3 3"></line>
<line x1="1036" y1="1" x2="1036" y2="108" style="stroke:#ddd;stroke-width:2;stroke-dasharray:3 3"></line>
<line x1="1145" y1="1" x2="1145" y2="108" style="stroke:#ddd;stroke-width:2;stroke-dasharray:3 3"></line>
<line x1="1254" y1="1" x2="1254" y2="108" style="stroke:#ddd;stroke-width:2;stroke-dasharray:3 3"></line>
<path d="M36.13,13.32c1.09,1.09,1.41,2.43,1.41,3.92c0,1-0.04,15.76-0.04,21.01" style="fill:none;stroke:#999;stroke-width:3"></path>

<path d="M145.13,13.32c1.09,1.09,1.41,2.43,1.41,3.92c0,1-0.04,15.76-0.04,21.01" style="fill:none;stroke:#999;stroke-width:3"></path>
<path d="M147.57999999999998,26.08c4.37-0.68,6.32-1.12,10.26-1.77c1.03-0.17,2.12-0.5,3.14-0.16" style="fill:none;stroke:#999;stroke-width:3"></path>

<path d="M254.13,13.32c1.09,1.09,1.41,2.43,1.41,3.92c0,1-0.04,15.76-0.04,21.01" style="fill:none;stroke:#999;stroke-width:3"></path>
<path d="M256.58,26.08c4.37-0.68,6.32-1.12,10.26-1.77c1.03-0.17,2.12-0.5,3.14-0.16" style="fill:none;stroke:#999;stroke-width:3"></path>
<path d="M241.02,24.31c0.96,0.96,1.41,2.19,1.41,3.92c0,5.36,0.03,10.64,0.03,15.08" style="fill:none;stroke:#999;stroke-width:3"></path>

<path d="M363.13,13.32c1.09,1.09,1.41,2.43,1.41,3.92c0,1-0.04,15.76-0.04,21.01" style="fill:none;stroke:#999;stroke-width:3"></path>
<path d="M365.58,26.08c4.37-0.68,6.32-1.12,10.26-1.77c1.03-0.17,2.12-0.5,3.14-0.16" style="fill:none;stroke:#999;stroke-width:3"></path>
<path d="M350.02,24.31c0.96,0.96,1.41,2.19,1.41,3.92c0,5.36,0.03,10.64,0.03,15.08" style="fill:none;stroke:#999;stroke-width:3"></path>
<path d="M341.0,46.57c1.03,1.03,2.48,0.96,3.59,0.52c8.94-3.54,18.54-7.22,33.43-13.09" style="fill:none;stroke:#999;stroke-width:3"></path>

<path d="M472.13,13.32c1.09,1.09,1.41,2.43,1.41,3.92c0,1-0.04,15.76-0.04,21.01" style="fill:none;stroke:#999;stroke-width:3"></path>
<path d="M474.58,26.08c4.37-0.68,6.32-1.12,10.26-1.77c1.03-0.17,2.12-0.5,3.14-0.16" style="fill:none;stroke:#999;stroke-width:3"></path>
<path d="M459.02,24.31c0.96,0.96,1.41,2.19,1.41,3.92c0,5.36,0.03,10.64,0.03,15.08" style="fill:none;stroke:#999;stroke-width:3"></path>
<path d="M450.0,46.57c1.03,1.03,2.48,0.96,3.59,0.52c8.94-3.54,18.54-7.22,33.43-13.09" style="fill:none;stroke:#999;stroke-width:3"></path>
<path d="M521.44,13.98c0,0.9-0.81,2.25-1.35,2.75c-3.26,2.96-9.09,6.4-16.88,9.57" style="fill:none;stroke:#999;stroke-width:3"></path>

<path d="M581.13,13.32c1.09,1.09,1.41,2.43,1.41,3.92c0,1-0.04,15.76-0.04,21.01" style="fill:none;stroke:#999;stroke-width:3"></path>
<path d="M583.5799999999999,26.08c4.37-0.68,6.32-1.12,10.26-1.77c1.03-0.17,2.12-0.5,3.14-0.16" style="fill:none;stroke:#999;stroke-width:3"></path>
<path d="M568.02,24.31c0.96,0.96,1.41,2.19,1.41,3.92c0,5.36,0.03,10.64,0.03,15.08" style="fill:none;stroke:#999;stroke-width:3"></path>
<path d="M559.0,46.57c1.03,1.03,2.48,0.96,3.59,0.52c8.94-3.54,18.54-7.22,33.43-13.09" style="fill:none;stroke:#999;stroke-width:3"></path>
<path d="M630.44,13.98c0,0.9-0.81,2.25-1.35,2.75c-3.26,2.96-9.09,6.4-16.88,9.57" style="fill:none;stroke:#999;stroke-width:3"></path>
<path d="M608.06,11.71c0.8,0.8,1.22,2.16,1.22,3.49c0,1.59-0.03,7.2-0.03,16.17c0,7.1,1.25,8.76,14.05,8.76c11.45,0,12.95-1.64,12.95-8.84" style="fill:none;stroke:#999;stroke-width:3"></path>

<path d="M690.13,13.32c1.09,1.09,1.41,2.43,1.41,3.92c0,1-0.04,15.76-0.04,21.01" style="fill:none;stroke:#999;stroke-width:3"></path>
<path d="M692.5799999999999,26.08c4.37-0.68,6.32-1.12,10.26-1.77c1.03-0.17,2.12-0.5,3.14-0.16" style="fill:none;stroke:#999;stroke-width:3"></path>
<path d="M677.02,24.31c0.96,0.96,1.41,2.19,1.41,3.92c0,5.36,0.03,10.64,0.03,15.08" style="fill:none;stroke:#999;stroke-width:3"></path>
<path d="M668.0,46.57c1.03,1.03,2.48,0.96,3.59,0.52c8.94-3.54,18.54-7.22,33.43-13.09" style="fill:none;stroke:#999;stroke-width:3"></path>
<path d="M739.44,13.98c0,0.9-0.81,2.25-1.35,2.75c-3.26,2.96-9.09,6.4-16.88,9.57" style="fill:none;stroke:#999;stroke-width:3"></path>
<path d="M717.06,11.71c0.8,0.8,1.22,2.16,1.22,3.49c0,1.59-0.03,7.2-0.03,16.17c0,7.1,1.25,8.76,14.05,8.76c11.45,0,12.95-1.64,12.95-8.84" style="fill:none;stroke:#999;stroke-width:3"></path>
<path d="M706.5,39.5c0.25,1.38-0.09,2.47-1.5,3.75c-2.88,2.62-5.75,5-10.75,8.5c-1.02,0.72-0.74,2.47,0.25,2.75c3.5,1,6,2.5,10.25,5.25" style="fill:none;stroke:#999;stroke-width:3"></path>

<path d="M799.13,13.32c1.09,1.09,1.41,2.43,1.41,3.92c0,1-0.04,15.76-0.04,21.01" style="fill:none;stroke:#999;stroke-width:3"></path>
<path d="M801.5799999999999,26.08c4.37-0.68,6.32-1.12,10.26-1.77c1.03-0.17,2.12-0.5,3.14-0.16" style="fill:none;stroke:#999;stroke-width:3"></path>
<path d="M786.02,24.31c0.96,0.96,1.41,2.19,1.41,3.92c0,5.36,0.03,10.64,0.03,15.08" style="fill:none;stroke:#999;stroke-width:3"></path>
<path d="M777.0,46.57c1.03,1.03,2.48,0.96,3.59,0.52c8.94-3.54,18.54-7.22,33.43-13.09" style="fill:none;stroke:#999;stroke-width:3"></path>
<path d="M848.44,13.98c0,0.9-0.81,2.25-1.35,2.75c-3.26,2.96-9.09,6.4-16.88,9.57" style="fill:none;stroke:#999;stroke-width:3"></path>
<path d="M826.06,11.71c0.8,0.8,1.22,2.16,1.22,3.49c0,1.59-0.03,7.2-0.03,16.17c0,7.1,1.25,8.76,14.05,8.76c11.45,0,12.95-1.64,12.95-8.84" style="fill:none;stroke:#999;stroke-width:3"></path>
<path d="M815.5,39.5c0.25,1.38-0.09,2.47-1.5,3.75c-2.88,2.62-5.75,5-10.75,8.5c-1.02,0.72-0.74,2.47,0.25,2.75c3.5,1,6,2.5,10.25,5.25" style="fill:none;stroke:#999;stroke-width:3"></path>
<path d="M828.75,46.5c0.12,1.62-0.25,2.75-1.5,3.75c-10.31,8.25-18.25,13-29.75,20c-1.97,1.2-1.54,2.31,0.5,2c10-1.5,25.62-3.88,37.62-5.88" style="fill:none;stroke:#999;stroke-width:3"></path>

<path d="M908.13,13.32c1.09,1.09,1.41,2.43,1.41,3.92c0,1-0.04,15.76-0.04,21.01" style="fill:none;stroke:#999;stroke-width:3"></path>
<path d="M910.5799999999999,26.08c4.37-0.68,6.32-1.12,10.26-1.77c1.03-0.17,2.12-0.5,3.14-0.16" style="fill:none;stroke:#999;stroke-width:3"></path>
<path d="M895.02,24.31c0.96,0.96,1.41,2.19,1.41,3.92c0,5.36,0.03,10.64,0.03,15.08" style="fill:none;stroke:#999;stroke-width:3"></path>
<path d="M886.0,46.57c1.03,1.03,2.48,0.96,3.59,0.52c8.94-3.54,18.54-7.22,33.43-13.09" style="fill:none;stroke:#999;stroke-width:3"></path>
<path d="M957.44,13.98c0,0.9-0.81,2.25-1.35,2.75c-3.26,2.96-9.09,6.4-16.88,9.57" style="fill:none;stroke:#999;stroke-width:3"></path>
<path d="M935.06,11.71c0.8,0.8,1.22,2.16,1.22,3.49c0,1.59-0.03,7.2-0.03,16.17c0,7.1,1.25,8.76,14.05,8.76c11.45,0,12.95-1.64,12.95-8.84" style="fill:none;stroke:#999;stroke-width:3"></path>
<path d="M924.5,39.5c0.25,1.38-0.09,2.47-1.5,3.75c-2.88,2.62-5.75,5-10.75,8.5c-1.02,0.72-0.74,2.47,0.25,2.75c3.5,1,6,2.5,10.25,5.25" style="fill:none;stroke:#999;stroke-width:3"></path>
<path d="M937.75,46.5c0.12,1.62-0.25,2.75-1.5,3.75c-10.31,8.25-18.25,13-29.75,20c-1.97,1.2-1.54,2.31,0.5,2c10-1.5,25.62-3.88,37.62-5.88" style="fill:none;stroke:#999;stroke-width:3"></path>
<path d="M941.25,61.25c3.44,2.21,8.89,9.07,9.75,12.5" style="fill:none;stroke:#999;stroke-width:3"></path>

<path d="M1017.13,13.32c1.09,1.09,1.41,2.43,1.41,3.92c0,1-0.04,15.76-0.04,21.01" style="fill:none;stroke:#999;stroke-width:3"></path>
<path d="M1019.5799999999999,26.08c4.37-0.68,6.32-1.12,10.26-1.77c1.03-0.17,2.12-0.5,3.14-0.16" style="fill:none;stroke:#999;stroke-width:3"></path>
<path d="M1004.02,24.31c0.96,0.96,1.41,2.19,1.41,3.92c0,5.36,0.03,10.64,0.03,15.08" style="fill:none;stroke:#999;stroke-width:3"></path>
<path d="M995.0,46.57c1.03,1.03,2.48,0.96,3.59,0.52c8.94-3.54,18.54-7.22,33.43-13.09" style="fill:none;stroke:#999;stroke-width:3"></path>
<path d="M1066.44,13.98c0,0.9-0.81,2.25-1.35,2.75c-3.26,2.96-9.09,6.4-16.88,9.57" style="fill:none;stroke:#999;stroke-width:3"></path>
<path d="M1044.06,11.71c0.8,0.8,1.22,2.16,1.22,3.49c0,1.59-0.03,7.2-0.03,16.17c0,7.1,1.25,8.76,14.05,8.76c11.45,0,12.95-1.64,12.95-8.84" style="fill:none;stroke:#999;stroke-width:3"></path>
<path d="M1033.5,39.5c0.25,1.38-0.09,2.47-1.5,3.75c-2.88,2.62-5.75,5-10.75,8.5c-1.02,0.72-0.74,2.47,0.25,2.75c3.5,1,6,2.5,10.25,5.25" style="fill:none;stroke:#999;stroke-width:3"></path>
<path d="M1046.75,46.5c0.12,1.62-0.25,2.75-1.5,3.75c-10.31,8.25-18.25,13-29.75,20c-1.97,1.2-1.54,2.31,0.5,2c10-1.5,25.62-3.88,37.62-5.88" style="fill:none;stroke:#999;stroke-width:3"></path>
<path d="M1050.25,61.25c3.44,2.21,8.89,9.07,9.75,12.5" style="fill:none;stroke:#999;stroke-width:3"></path>
<path d="M1034.73,73.25c1.01,1.01,1.3,2.38,1.3,4.54c0,4.56,0.04,10.08,0.04,15.45c0,1.83-0.06,3.54-0.06,5" style="fill:none;stroke:#999;stroke-width:3"></path>

<path d="M1126.13,13.32c1.09,1.09,1.41,2.43,1.41,3.92c0,1-0.04,15.76-0.04,21.01" style="fill:none;stroke:#999;stroke-width:3"></path>
<path d="M1128.58,26.08c4.37-0.68,6.32-1.12,10.26-1.77c1.03-0.17,2.12-0.5,3.14-0.16" style="fill:none;stroke:#999;stroke-width:3"></path>
<path d="M1113.02,24.31c0.96,0.96,1.41,2.19,1.41,3.92c0,5.36,0.03,10.64,0.03,15.08" style="fill:none;stroke:#999;stroke-width:3"></path>
<path d="M1104.0,46.57c1.03,1.03,2.48,0.96,3.59,0.52c8.94-3.54,18.54-7.22,33.43-13.09" style="fill:none;stroke:#999;stroke-width:3"></path>
<path d="M1175.44,13.98c0,0.9-0.81,2.25-1.35,2.75c-3.26,2.96-9.09,6.4-16.88,9.57" style="fill:none;stroke:#999;stroke-width:3"></path>
<path d="M1153.06,11.71c0.8,0.8,1.22,2.16,1.22,3.49c0,1.59-0.03,7.2-0.03,16.17c0,7.1,1.25,8.76,14.05,8.76c11.45,0,12.95-1.64,12.95-8.84" style="fill:none;stroke:#999;stroke-width:3"></path>
<path d="M1142.5,39.5c0.25,1.38-0.09,2.47-1.5,3.75c-2.88,2.62-5.75,5-10.75,8.5c-1.02,0.72-0.74,2.47,0.25,2.75c3.5,1,6,2.5,10.25,5.25" style="fill:none;stroke:#999;stroke-width:3"></path>
<path d="M1155.75,46.5c0.12,1.62-0.25,2.75-1.5,3.75c-10.31,8.25-18.25,13-29.75,20c-1.97,1.2-1.54,2.31,0.5,2c10-1.5,25.62-3.88,37.62-5.88" style="fill:none;stroke:#999;stroke-width:3"></path>
<path d="M1159.25,61.25c3.44,2.21,8.89,9.07,9.75,12.5" style="fill:none;stroke:#999;stroke-width:3"></path>
<path d="M1143.73,73.25c1.01,1.01,1.3,2.38,1.3,4.54c0,4.56,0.04,10.08,0.04,15.45c0,1.83-0.06,3.54-0.06,5" style="fill:none;stroke:#999;stroke-width:3"></path>
<path d="M1129.46,81.75c0.16,1.25-0.21,2-1.31,2.89c-3.69,3-12.1,8.59-17.4,11.11" style="fill:none;stroke:#999;stroke-width:3"></path>

<path d="M1235.13,13.32c1.09,1.09,1.41,2.43,1.41,3.92c0,1-0.04,15.76-0.04,21.01" style="fill:none;stroke:#999;stroke-width:3"></path>
<path d="M1237.58,26.08c4.37-0.68,6.32-1.12,10.26-1.77c1.03-0.17,2.12-0.5,3.14-0.16" style="fill:none;stroke:#999;stroke-width:3"></path>
<path d="M1222.02,24.31c0.96,0.96,1.41,2.19,1.41,3.92c0,5.36,0.03,10.64,0.03,15.08" style="fill:none;stroke:#999;stroke-width:3"></path>
<path d="M1213.0,46.57c1.03,1.03,2.48,0.96,3.59,0.52c8.94-3.54,18.54-7.22,33.43-13.09" style="fill:none;stroke:#999;stroke-width:3"></path>
<path d="M1284.44,13.98c0,0.9-0.81,2.25-1.35,2.75c-3.26,2.96-9.09,6.4-16.88,9.57" style="fill:none;stroke:#999;stroke-width:3"></path>
<path d="M1262.06,11.71c0.8,0.8,1.22,2.16,1.22,3.49c0,1.59-0.03,7.2-0.03,16.17c0,7.1,1.25,8.76,14.05,8.76c11.45,0,12.95-1.64,12.95-8.84" style="fill:none;stroke:#999;stroke-width:3"></path>
<path d="M1251.5,39.5c0.25,1.38-0.09,2.47-1.5,3.75c-2.88,2.62-5.75,5-10.75,8.5c-1.02,0.72-0.74,2.47,0.25,2.75c3.5,1,6,2.5,10.25,5.25" style="fill:none;stroke:#999;stroke-width:3"></path>
<path d="M1264.75,46.5c0.12,1.62-0.25,2.75-1.5,3.75c-10.31,8.25-18.25,13-29.75,20c-1.97,1.2-1.54,2.31,0.5,2c10-1.5,25.62-3.88,37.62-5.88" style="fill:none;stroke:#999;stroke-width:3"></path>
<path d="M1268.25,61.25c3.44,2.21,8.89,9.07,9.75,12.5" style="fill:none;stroke:#999;stroke-width:3"></path>
<path d="M1252.73,73.25c1.01,1.01,1.3,2.38,1.3,4.54c0,4.56,0.04,10.08,0.04,15.45c0,1.83-0.06,3.54-0.06,5" style="fill:none;stroke:#999;stroke-width:3"></path>
<path d="M1238.46,81.75c0.16,1.25-0.21,2-1.31,2.89c-3.69,3-12.1,8.59-17.4,11.11" style="fill:none;stroke:#999;stroke-width:3"></path>
<path d="M1271.0,81.5c5.21,2.52,14.14,9.23,16,11.75" style="fill:none;stroke:#999;stroke-width:3"></path>

</svg>