<svg width="1199px" height="109px" viewBox="0 0 1199 109" xmlns="http://www.w3.org/2000/svg" xmlns:xlink="http://www.w3.org/1999/xlink" xml:space="preserve" version="1.1" baseProfile="full">
<line x1="1" y1="1" x2="1198" y2="1" style="stroke:#ddd;stroke-width:2"></line>
<line x1="1" y1="1" x2="1" y2="108" style="stroke:#ddd;stroke-width:2"></line>
<line x1="1" y1="108" x2="1198" y2="108" style="stroke:#ddd;stroke-width:2"></line>
<line x1="1198" y1="1" x2="1198" y2="108" style="stroke:#ddd;stroke-width:2"></line>
<line x1="109" y1="1" x2="109" y2="108" style="stroke:#ddd;stroke-width:2"></line>
<line x1="218" y1="1" x2="218" y2="108" style="stroke:#ddd;stroke-width:2"></line>
<line x1="327" y1="1" x2="327" y2="108" style="stroke:#ddd;stroke-width:2"></line>
<line x1="436" y1="1" x2="436" y2="108" style="stroke:#ddd;stroke-width:2"></line>
<line x1="545" y1="1" x2="545" y2="108" style="stroke:#ddd;stroke-width:2"></line>
<line x1="654" y1="1" x2="654" y2="108" style="stroke:#ddd;stroke-width:2"></line>
<line x1="763" y1="1" x2="763" y2="108" style="stroke:#ddd;stroke-width:2"></line>
<line x1="872" y1="1" x2="872" y2="108" style="stroke:#ddd;stroke-width:2"></line>
<line x1="981" y1="1" x2="981" y2="108" style="stroke:#ddd;stroke-width:2"></line>
<line x1="1090" y1="1" x2="1090" y2="108" style="stroke:#ddd;stroke-width:2"></line>
<line x1="1" y1="54" x2="1198" y2="54" style="stroke:#ddd;stroke-width:2;stroke-dasharray:3 3"></line>
<line x1="55" y1="1" x2="55" y2="108" style="stroke:#ddd;stroke-width:2;stroke-dasharray:3 3"></line>
<line x1="164" y1="1" x2="164" y2="108" style="stroke:#ddd;stroke-width:2;stroke-dasharray:3 3"></line>
<line x1="273" y1="1" x2="273" y2="108" style="stroke:#ddd;stroke-width:2;stroke-dasharray:3 3"></line>
<line x1="382" y1="1" x2="382" y2="108" style="stroke:#ddd;stroke-width:2;stroke-dasharray:3 3"></line>
<line x1="491" y1="1" x2="491" y2="108" style="stroke:#ddd;stroke-width:2;stroke-dasharray:3 3"></line>
<line x1="600" y1="1" x2="600" y2="108" style="stroke:#ddd;stroke-width:2;stroke-dasharray:3 3"></line>
<line x1="709" y1="1" x2="709" y2="108" style="stroke:#ddd;stroke-width:2;stroke-dasharray:3 3"></line>
<line x1="818" y1="1" x2="818" y2="108" style="stroke:#ddd;stroke-width:2;stroke-dasharray:3 3"></line>
<line x1="927" y1="1" x2="927" y2="108" style="stroke:#ddd;stroke-width:2;stroke-dasharray:3 3"></line>
<line x1="1036" y1="1" x2="1036" y2="108" style="stroke:#ddd;stroke-width:2;stroke-dasharray:3 3"></line>
<line x1="1145" y1="1" x2="1145" y2="108" style="stroke:#ddd;stroke-width:2;stroke-dasharray:3 3"></line>
<path d="M28.4,10.92c0.36,1.42,0.38,2.47-0.18,4.01c-2.46,6.81-7.96,13.56-12.78,19.01c-0.67,0.75-0.72,3.27,0,3.54c3.81,1.42,8.64,3.28,11.91,5.88" style="fill:none;stroke:#999;stroke-width:3"></path>

<path d="M137.4,10.92c0.36,1.42,0.38,2.47-0.18,4.01c-2.46,6.81-7.96,13.56-12.78,19.01c-0.67,0.75-0.72,3.27,0,3.54c3.81,1.42,8.64,3.28,11.91,5.88" style="fill:none;stroke:#999;stroke-width:3"></path>
<path d="M149.3,23.18c0.3,0.58,0.37,2.46,0,3.09C143.5,36,132.31,48.94,124.32,57.21c-1.83,1.89,0.46,2.98,1.65,2.59c5-1.61,17.87-4.49,24.29-6.03" style="fill:none;stroke:#999;stroke-width:3"></path>

<path d="M246.4,10.92c0.36,1.42,0.38,2.47-0.18,4.01c-2.46,6.81-7.96,13.56-12.78,19.01c-0.67,0.75-0.72,3.27,0,3.54c3.81,1.42,8.64,3.28,11.91,5.88" style="fill:none;stroke:#999;stroke-width:3"></path>
<path d="M258.3,23.18c0.3,0.58,0.37,2.46,0,3.09C252.5,36,241.31,48.94,233.32,57.21c-1.83,1.89,0.46,2.98,1.65,2.59c5-1.61,17.87-4.49,24.29-6.03" style="fill:none;stroke:#999;stroke-width:3"></path>
<path d="M255.63,47.38c2.43,2.31,6.27,9.5,6.87,13.1" style="fill:none;stroke:#999;stroke-width:3"></path>

<path d="M355.4,10.92c0.36,1.42,0.38,2.47-0.18,4.01c-2.46,6.81-7.96,13.56-12.78,19.01c-0.67,0.75-0.72,3.27,0,3.54c3.81,1.42,8.64,3.28,11.91,5.88" style="fill:none;stroke:#999;stroke-width:3"></path>
<path d="M367.3,23.18c0.3,0.58,0.37,2.46,0,3.09C361.5,36,350.31,48.94,342.32,57.21c-1.83,1.89,0.46,2.98,1.65,2.59c5-1.61,17.87-4.49,24.29-6.03" style="fill:none;stroke:#999;stroke-width:3"></path>
<path d="M364.63,47.38c2.43,2.31,6.27,9.5,6.87,13.1" style="fill:none;stroke:#999;stroke-width:3"></path>
<path d="M355.64,59.87c0.07,0.36,0.91,1.85,0.98,4.09c0.31,10.79-0.2,31.79-0.2,35.46" style="fill:none;stroke:#999;stroke-width:3"></path>

<path d="M464.4,10.92c0.36,1.42,0.38,2.47-0.18,4.01c-2.46,6.81-7.96,13.56-12.78,19.01c-0.67,0.75-0.72,3.27,0,3.54c3.81,1.42,8.64,3.28,11.91,5.88" style="fill:none;stroke:#999;stroke-width:3"></path>
<path d="M476.3,23.18c0.3,0.58,0.37,2.46,0,3.09C470.5,36,459.31,48.94,451.32,57.21c-1.83,1.89,0.46,2.98,1.65,2.59c5-1.61,17.87-4.49,24.29-6.03" style="fill:none;stroke:#999;stroke-width:3"></path>
<path d="M473.63,47.38c2.43,2.31,6.27,9.5,6.87,13.1" style="fill:none;stroke:#999;stroke-width:3"></path>
<path d="M464.64,59.87c0.07,0.36,0.91,1.85,0.98,4.09c0.31,10.79-0.2,31.79-0.2,35.46" style="fill:none;stroke:#999;stroke-width:3"></path>
<path d="M456.35,71.1c0.17,0.94,0.14,2.79-0.17,3.47c-2.02,4.39-7.07,12.85-9.93,16.62" style="fill:none;stroke:#999;stroke-width:3"></path>

<path d="M573.4,10.92c0.36,1.42,0.38,2.47-0.18,4.01c-2.46,6.81-7.96,13.56-12.78,19.01c-0.67,0.75-0.72,3.27,0,3.54c3.81,1.42,8.64,3.28,11.91,5.88" style="fill:none;stroke:#999;stroke-width:3"></path>
<path d="M585.3,23.18c0.3,0.58,0.37,2.46,0,3.09C579.5,36,568.31,48.94,560.3199999999999,57.21c-1.83,1.89,0.46,2.98,1.65,2.59c5-1.61,17.87-4.49,24.29-6.03" style="fill:none;stroke:#999;stroke-width:3"></path>
<path d="M582.63,47.38c2.43,2.31,6.27,9.5,6.87,13.1" style="fill:none;stroke:#999;stroke-width:3"></path>
<path d="M573.64,59.87c0.07,0.36,0.91,1.85,0.98,4.09c0.31,10.79-0.2,31.79-0.2,35.46" style="fill:none;stroke:#999;stroke-width:3"></path>
<path d="M565.35,71.1c0.17,0.94,0.14,2.79-0.17,3.47c-2.02,4.39-7.07,12.85-9.93,16.62" style="fill:none;stroke:#999;stroke-width:3"></path>
<path d="M583.18,70.54c3.62,3.35,6.4,11.15,7.24,14.19" style="fill:none;stroke:#999;stroke-width:3"></path>

<path d="M682.4,10.92c0.36,1.42,0.38,2.47-0.18,4.01c-2.46,6.81-7.96,13.56-12.78,19.01c-0.67,0.75-0.72,3.27,0,3.54c3.81,1.42,8.64,3.28,11.91,5.88" style="fill:none;stroke:#999;stroke-width:3"></path>
<path d="M694.3,23.18c0.3,0.58,0.37,2.46,0,3.09C688.5,36,677.31,48.94,669.3199999999999,57.21c-1.83,1.89,0.46,2.98,1.65,2.59c5-1.61,17.87-4.49,24.29-6.03" style="fill:none;stroke:#999;stroke-width:3"></path>
<path d="M691.63,47.38c2.43,2.31,6.27,9.5,6.87,13.1" style="fill:none;stroke:#999;stroke-width:3"></path>
<path d="M682.64,59.87c0.07,0.36,0.91,1.85,0.98,4.09c0.31,10.79-0.2,31.79-0.2,35.46" style="fill:none;stroke:#999;stroke-width:3"></path>
<path d="M674.35,71.1c0.17,0.94,0.14,2.79-0.17,3.47c-2.02,4.39-7.07,12.85-9.93,16.62" style="fill:none;stroke:#999;stroke-width:3"></path>
<path d="M692.18,70.54c3.62,3.35,6.4,11.15,7.24,14.19" style="fill:none;stroke:#999;stroke-width:3"></path>
<path d="M723.94,11c0.3,0.43,0.72,1.53,0.72,2.77c-0.02,3.9-0.02,8.54-0.02,12.08" style="fill:none;stroke:#999;stroke-width:3"></path>

<path d="M791.4,10.92c0.36,1.42,0.38,2.47-0.18,4.01c-2.46,6.81-7.96,13.56-12.78,19.01c-0.67,0.75-0.72,3.27,0,3.54c3.81,1.42,8.64,3.28,11.91,5.88" style="fill:none;stroke:#999;stroke-width:3"></path>
<path d="M803.3,23.18c0.3,0.58,0.37,2.46,0,3.09C797.5,36,786.31,48.94,778.3199999999999,57.21c-1.83,1.89,0.46,2.98,1.65,2.59c5-1.61,17.87-4.49,24.29-6.03" style="fill:none;stroke:#999;stroke-width:3"></path>
<path d="M800.63,47.38c2.43,2.31,6.27,9.5,6.87,13.1" style="fill:none;stroke:#999;stroke-width:3"></path>
<path d="M791.64,59.87c0.07,0.36,0.91,1.85,0.98,4.09c0.31,10.79-0.2,31.79-0.2,35.46" style="fill:none;stroke:#999;stroke-width:3"></path>
<path d="M783.35,71.1c0.17,0.94,0.14,2.79-0.17,3.47c-2.02,4.39-7.07,12.85-9.93,16.62" style="fill:none;stroke:#999;stroke-width:3"></path>
<path d="M801.18,70.54c3.62,3.35,6.4,11.15,7.24,14.19" style="fill:none;stroke:#999;stroke-width:3"></path>
<path d="M832.94,11c0.3,0.43,0.72,1.53,0.72,2.77c-0.02,3.9-0.02,8.54-0.02,12.08" style="fill:none;stroke:#999;stroke-width:3"></path>
<path d="M811.88,25.38c0,3.43-2.62,13.83-3.54,16.12" style="fill:none;stroke:#999;stroke-width:3"></path>

<path d="M900.4,10.92c0.36,1.42,0.38,2.47-0.18,4.01c-2.46,6.81-7.96,13.56-12.78,19.01c-0.67,0.75-0.72,3.27,0,3.54c3.81,1.42,8.64,3.28,11.91,5.88" style="fill:none;stroke:#999;stroke-width:3"></path>
<path d="M912.3,23.18c0.3,0.58,0.37,2.46,0,3.09C906.5,36,895.31,48.94,887.3199999999999,57.21c-1.83,1.89,0.46,2.98,1.65,2.59c5-1.61,17.87-4.49,24.29-6.03" style="fill:none;stroke:#999;stroke-width:3"></path>
<path d="M909.63,47.38c2.43,2.31,6.27,9.5,6.87,13.1" style="fill:none;stroke:#999;stroke-width:3"></path>
<path d="M900.64,59.87c0.07,0.36,0.91,1.85,0.98,4.09c0.31,10.79-0.2,31.79-0.2,35.46" style="fill:none;stroke:#999;stroke-width:3"></path>
<path d="M892.35,71.1c0.17,0.94,0.14,2.79-0.17,3.47c-2.02,4.39-7.07,12.85-9.93,16.62" style="fill:none;stroke:#999;stroke-width:3"></path>
<path d="M910.18,70.54c3.62,3.35,6.4,11.15,7.24,14.19" style="fill:none;stroke:#999;stroke-width:3"></path>
<path d="M941.94,11c0.3,0.43,0.72,1.53,0.72,2.77c-0.02,3.9-0.02,8.54-0.02,12.08" style="fill:none;stroke:#999;stroke-width:3"></path>
<path d="M920.88,25.38c0,3.43-2.62,13.83-3.54,16.12" style="fill:none;stroke:#999;stroke-width:3"></path>
<path d="M921.44,29.01c0.76,0.12,36.31-4.01,42.98-4.12c11.03-0.18,0.83,8.63-0.62,10.5" style="fill:none;stroke:#999;stroke-width:3"></path>

<path d="M1009.4,10.92c0.36,1.42,0.38,2.47-0.18,4.01c-2.46,6.81-7.96,13.56-12.78,19.01c-0.67,0.75-0.72,3.27,0,3.54c3.81,1.42,8.64,3.28,11.91,5.88" style="fill:none;stroke:#999;stroke-width:3"></path>
<path d="M1021.3,23.18c0.3,0.58,0.37,2.46,0,3.09C1015.5,36,1004.31,48.94,996.3199999999999,57.21c-1.83,1.89,0.46,2.98,1.65,2.59c5-1.61,17.87-4.49,24.29-6.03" style="fill:none;stroke:#999;stroke-width:3"></path>
<path d="M1018.63,47.38c2.43,2.31,6.27,9.5,6.87,13.1" style="fill:none;stroke:#999;stroke-width:3"></path>
<path d="M1009.64,59.87c0.07,0.36,0.91,1.85,0.98,4.09c0.31,10.79-0.2,31.79-0.2,35.46" style="fill:none;stroke:#999;stroke-width:3"></path>
<path d="M1001.35,71.1c0.17,0.94,0.14,2.79-0.17,3.47c-2.02,4.39-7.07,12.85-9.93,16.62" style="fill:none;stroke:#999;stroke-width:3"></path>
<path d="M1019.18,70.54c3.62,3.35,6.4,11.15,7.24,14.19" style="fill:none;stroke:#999;stroke-width:3"></path>
<path d="M1050.94,11c0.3,0.43,0.72,1.53,0.72,2.77c-0.02,3.9-0.02,8.54-0.02,12.08" style="fill:none;stroke:#999;stroke-width:3"></path>
<path d="M1029.88,25.38c0,3.43-2.62,13.83-3.54,16.12" style="fill:none;stroke:#999;stroke-width:3"></path>
<path d="M1030.44,29.01c0.76,0.12,36.31-4.01,42.98-4.12c11.03-0.18,0.83,8.63-0.62,10.5" style="fill:none;stroke:#999;stroke-width:3"></path>
<path d="M1027.5,50.19c1.36,0.26,3.85,0.35,5.2,0.26c9.23-0.62,29.26-2.72,41.38-2.86c2.26-0.03,3.61,0.12,4.74,0.25" style="fill:none;stroke:#999;stroke-width:3"></path>

<path d="M1118.4,10.92c0.36,1.42,0.38,2.47-0.18,4.01c-2.46,6.81-7.96,13.56-12.78,19.01c-0.67,0.75-0.72,3.27,0,3.54c3.81,1.42,8.64,3.28,11.91,5.88" style="fill:none;stroke:#999;stroke-width:3"></path>
<path d="M1130.3,23.18c0.3,0.58,0.37,2.46,0,3.09C1124.5,36,1113.31,48.94,1105.32,57.21c-1.83,1.89,0.46,2.98,1.65,2.59c5-1.61,17.87-4.49,24.29-6.03" style="fill:none;stroke:#999;stroke-width:3"></path>
<path d="M1127.63,47.38c2.43,2.31,6.27,9.5,6.87,13.1" style="fill:none;stroke:#999;stroke-width:3"></path>
<path d="M1118.6399999999999,59.87c0.07,0.36,0.91,1.85,0.98,4.09c0.31,10.79-0.2,31.79-0.2,35.46" style="fill:none;stroke:#999;stroke-width:3"></path>
<path d="M1110.35,71.1c0.17,0.94,0.14,2.79-0.17,3.47c-2.02,4.39-7.07,12.85-9.93,16.62" style="fill:none;stroke:#999;stroke-width:3"></path>
<path d="M1128.1799999999998,70.54c3.62,3.35,6.4,11.15,7.24,14.19" style="fill:none;stroke:#999;stroke-width:3"></path>
<path d="M1159.94,11c0.3,0.43,0.72,1.53,0.72,2.77c-0.02,3.9-0.02,8.54-0.02,12.08" style="fill:none;stroke:#999;stroke-width:3"></path>
<path d="M1138.88,25.38c0,3.43-2.62,13.83-3.54,16.12" style="fill:none;stroke:#999;stroke-width:3"></path>
<path d="M1139.44,29.01c0.76,0.12,36.31-4.01,42.98-4.12c11.03-0.18,0.83,8.63-0.62,10.5" style="fill:none;stroke:#999;stroke-width:3"></path>
<path d="M1136.5,50.19c1.36,0.26,3.85,0.35,5.2,0.26c9.23-0.62,29.26-2.72,41.38-2.86c2.26-0.03,3.61,0.12,4.74,0.25" style="fill:none;stroke:#999;stroke-width:3"></path>
<path d="M1161.53,51.61c0.06,0.37,0.93,1.93,0.93,4.29c0,13.6-0.19,31.32-0.19,35.17c0,10.93-6.32,0.39-7.44-0.58" style="fill:none;stroke:#999;stroke-width:3"></path>

</svg>