<svg width="1526px" height="109px" viewBox="0 0 1526 109" xmlns="http://www.w3.org/2000/svg" xmlns:xlink="http://www.w3.org/1999/xlink" xml:space="preserve" version="1.1" baseProfile="full">
<line x1="1" y1="1" x2="1525" y2="1" style="stroke:#ddd;stroke-width:2"></line>
<line x1="1" y1="1" x2="1" y2="108" style="stroke:#ddd;stroke-width:2"></line>
<line x1="1" y1="108" x2="1525" y2="108" style="stroke:#ddd;stroke-width:2"></line>
<line x1="1525" y1="1" x2="1525" y2="108" style="stroke:#ddd;stroke-width:2"></line>
<line x1="109" y1="1" x2="109" y2="108" style="stroke:#ddd;stroke-width:2"></line>
<line x1="218" y1="1" x2="218" y2="108" style="stroke:#ddd;stroke-width:2"></line>
<line x1="327" y1="1" x2="327" y2="108" style="stroke:#ddd;stroke-width:2"></line>
<line x1="436" y1="1" x2="436" y2="108" style="stroke:#ddd;stroke-width:2"></line>
<line x1="545" y1="1" x2="545" y2="108" style="stroke:#ddd;stroke-width:2"></line>
<line x1="654" y1="1" x2="654" y2="108" style="stroke:#ddd;stroke-width:2"></line>
<line x1="763" y1="1" x2="763" y2="108" style="stroke:#ddd;stroke-width:2"></line>
<line x1="872" y1="1" x2="872" y2="108" style="stroke:#ddd;stroke-width:2"></line>
<line x1="981" y1="1" x2="981" y2="108" style="stroke:#ddd;stroke-width:2"></line>
<line x1="1090" y1="1" x2="1090" y2="108" style="stroke:#ddd;stroke-width:2"></line>
<line x1="1199" y1="1" x2="1199" y2="108" style="stroke:#ddd;stroke-width:2"></line>
<line x1="1308" y1="1" x2="1308" y2="108" style="stroke:#ddd;stroke-width:2"></line>
<line x1="1417" y1="1" x2="1417" y2="108" style="stroke:#ddd;stroke-width:2"></line>
<line x1="1" y1="54" x2="1525" y2="54" style="stroke:#ddd;stroke-width:2;stroke-dasharray:3 3"></line>
<line x1="55" y1="1" x2="55" y2="108" style="stroke:#ddd;stroke-width:2;stroke-dasharray:3 3"></line>
<line x1="164" y1="1" x2="164" y2="108" style="stroke:#ddd;stroke-width:2;stroke-dasharray:3 3"></line>
<line x1="273" y1="1" x2="273" y2="108" style="stroke:#ddd;stroke-width:2;stroke-dasharray:3 3"></line>
<line x1="382" y1="1" x2="382" y2="108" style="stroke:#ddd;stroke-width:2;stroke-dasharray:3 3"></line>
<line x1="491" y1="1" x2="491" y2="108" style="stroke:#ddd;stroke-width:2;stroke-dasharray:3 3"></line>
<line x1="600" y1="1" x2="600" y2="108" style="stroke:#ddd;stroke-width:2;stroke-dasharray:3 3"></line>
<line x1="709" y1="1" x2="709" y2="108" style="stroke:#ddd;stroke-width:2;stroke-dasharray:3 3"></line>
<line x1="818" y1="1" x2="818" y2="108" style="stroke:#ddd;stroke-width:2;stroke-dasharray:3 3"></line>
<line x1="927" y1="1" x2="927" y2="108" style="stroke:#ddd;stroke-width:2;stroke-dasharray:3 3"></line>
<line x1="1036" y1="1" x2="1036" y2="108" style="stroke:#ddd;stroke-width:2;stroke-dasharray:3 3"></line>
<line x1="1145" y1="1" x2="1145" y2="108" style="stroke:#ddd;stroke-width:2;stroke-dasharray:3 3"></line>
<line x1="1254" y1="1" x2="1254" y2="108" style="stroke:#ddd;stroke-width:2;stroke-dasharray:3 3"></line>
<line x1="1363" y1="1" x2="1363" y2="108" style="stroke:#ddd;stroke-width:2;stroke-dasharray:3 3"></line>
<line x1="1472" y1="1" x2="1472" y2="108" style="stroke:#ddd;stroke-width:2;stroke-dasharray:3 3"></line>
<path d="M28.15,15.5c0.31,1.21,0.59,2.24-0.16,3.44c-3.26,5.27-9.21,14.46-12.32,17.29c-0.64,0.58-0.62,2.81,0,3.04c3.26,1.21,8.84,2.74,11.64,4.97" style="fill:none;stroke:#999;stroke-width:3"></path>

<path d="M137.15,15.5c0.31,1.21,0.59,2.24-0.16,3.44c-3.26,5.27-9.21,14.46-12.32,17.29c-0.64,0.58-0.62,2.81,0,3.04c3.26,1.21,8.84,2.74,11.64,4.97" style="fill:none;stroke:#999;stroke-width:3"></path>
<path d="M145.78,28.44c0.29,0.55,0.38,2.35,0,2.94C140.25,40,131.0,50,123.4,57.86c-1.74,1.8,0.43,2.83,1.57,2.47c4.75-1.53,13.12-3.27,19.23-4.74" style="fill:none;stroke:#999;stroke-width:3"></path>

<path d="M246.15,15.5c0.31,1.21,0.59,2.24-0.16,3.44c-3.26,5.27-9.21,14.46-12.32,17.29c-0.64,0.58-0.62,2.81,0,3.04c3.26,1.21,8.84,2.74,11.64,4.97" style="fill:none;stroke:#999;stroke-width:3"></path>
<path d="M254.78,28.44c0.29,0.55,0.38,2.35,0,2.94C249.25,40,240.0,50,232.4,57.86c-1.74,1.8,0.43,2.83,1.57,2.47c4.75-1.53,13.12-3.27,19.23-4.74" style="fill:none;stroke:#999;stroke-width:3"></path>
<path d="M250.25,49c2.38,2.29,6.15,9.43,6.75,13" style="fill:none;stroke:#999;stroke-width:3"></path>

<path d="M355.15,15.5c0.31,1.21,0.59,2.24-0.16,3.44c-3.26,5.27-9.21,14.46-12.32,17.29c-0.64,0.58-0.62,2.81,0,3.04c3.26,1.21,8.84,2.74,11.64,4.97" style="fill:none;stroke:#999;stroke-width:3"></path>
<path d="M363.78,28.44c0.29,0.55,0.38,2.35,0,2.94C358.25,40,349.0,50,341.4,57.86c-1.74,1.8,0.43,2.83,1.57,2.47c4.75-1.53,13.12-3.27,19.23-4.74" style="fill:none;stroke:#999;stroke-width:3"></path>
<path d="M359.25,49c2.38,2.29,6.15,9.43,6.75,13" style="fill:none;stroke:#999;stroke-width:3"></path>
<path d="M353.58,60.51c0.05,0.29,0.73,1.48,0.78,3.28c0.25,8.64-0.16,29.77-0.16,32.71" style="fill:none;stroke:#999;stroke-width:3"></path>

<path d="M464.15,15.5c0.31,1.21,0.59,2.24-0.16,3.44c-3.26,5.27-9.21,14.46-12.32,17.29c-0.64,0.58-0.62,2.81,0,3.04c3.26,1.21,8.84,2.74,11.64,4.97" style="fill:none;stroke:#999;stroke-width:3"></path>
<path d="M472.78,28.44c0.29,0.55,0.38,2.35,0,2.94C467.25,40,458.0,50,450.4,57.86c-1.74,1.8,0.43,2.83,1.57,2.47c4.75-1.53,13.12-3.27,19.23-4.74" style="fill:none;stroke:#999;stroke-width:3"></path>
<path d="M468.25,49c2.38,2.29,6.15,9.43,6.75,13" style="fill:none;stroke:#999;stroke-width:3"></path>
<path d="M462.58,60.51c0.05,0.29,0.73,1.48,0.78,3.28c0.25,8.64-0.16,29.77-0.16,32.71" style="fill:none;stroke:#999;stroke-width:3"></path>
<path d="M453.49,70c0.14,0.87,0.12,2.57-0.14,3.19c-1.65,4.04-5.77,11.84-8.11,15.31" style="fill:none;stroke:#999;stroke-width:3"></path>

<path d="M573.15,15.5c0.31,1.21,0.59,2.24-0.16,3.44c-3.26,5.27-9.21,14.46-12.32,17.29c-0.64,0.58-0.62,2.81,0,3.04c3.26,1.21,8.84,2.74,11.64,4.97" style="fill:none;stroke:#999;stroke-width:3"></path>
<path d="M581.78,28.44c0.29,0.55,0.38,2.35,0,2.94C576.25,40,567.0,50,559.4,57.86c-1.74,1.8,0.43,2.83,1.57,2.47c4.75-1.53,13.12-3.27,19.23-4.74" style="fill:none;stroke:#999;stroke-width:3"></path>
<path d="M577.25,49c2.38,2.29,6.15,9.43,6.75,13" style="fill:none;stroke:#999;stroke-width:3"></path>
<path d="M571.5799999999999,60.51c0.05,0.29,0.73,1.48,0.78,3.28c0.25,8.64-0.16,29.77-0.16,32.71" style="fill:none;stroke:#999;stroke-width:3"></path>
<path d="M562.49,70c0.14,0.87,0.12,2.57-0.14,3.19c-1.65,4.04-5.77,11.84-8.11,15.31" style="fill:none;stroke:#999;stroke-width:3"></path>
<path d="M579.5,68.25c3.12,3.78,5.52,12.57,6.25,16" style="fill:none;stroke:#999;stroke-width:3"></path>

<path d="M682.15,15.5c0.31,1.21,0.59,2.24-0.16,3.44c-3.26,5.27-9.21,14.46-12.32,17.29c-0.64,0.58-0.62,2.81,0,3.04c3.26,1.21,8.84,2.74,11.64,4.97" style="fill:none;stroke:#999;stroke-width:3"></path>
<path d="M690.78,28.44c0.29,0.55,0.38,2.35,0,2.94C685.25,40,676.0,50,668.4,57.86c-1.74,1.8,0.43,2.83,1.57,2.47c4.75-1.53,13.12-3.27,19.23-4.74" style="fill:none;stroke:#999;stroke-width:3"></path>
<path d="M686.25,49c2.38,2.29,6.15,9.43,6.75,13" style="fill:none;stroke:#999;stroke-width:3"></path>
<path d="M680.5799999999999,60.51c0.05,0.29,0.73,1.48,0.78,3.28c0.25,8.64-0.16,29.77-0.16,32.71" style="fill:none;stroke:#999;stroke-width:3"></path>
<path d="M671.49,70c0.14,0.87,0.12,2.57-0.14,3.19c-1.65,4.04-5.77,11.84-8.11,15.31" style="fill:none;stroke:#999;stroke-width:3"></path>
<path d="M688.5,68.25c3.12,3.78,5.52,12.57,6.25,16" style="fill:none;stroke:#999;stroke-width:3"></path>
<path d="M719.48,12c0.58,0.51,1.52,2.46,1.52,3.47c0,3.99-0.02,5.5-0.08,8.36" style="fill:none;stroke:#999;stroke-width:3"></path>

<path d="M791.15,15.5c0.31,1.21,0.59,2.24-0.16,3.44c-3.26,5.27-9.21,14.46-12.32,17.29c-0.64,0.58-0.62,2.81,0,3.04c3.26,1.21,8.84,2.74,11.64,4.97" style="fill:none;stroke:#999;stroke-width:3"></path>
<path d="M799.78,28.44c0.29,0.55,0.38,2.35,0,2.94C794.25,40,785.0,50,777.4,57.86c-1.74,1.8,0.43,2.83,1.57,2.47c4.75-1.53,13.12-3.27,19.23-4.74" style="fill:none;stroke:#999;stroke-width:3"></path>
<path d="M795.25,49c2.38,2.29,6.15,9.43,6.75,13" style="fill:none;stroke:#999;stroke-width:3"></path>
<path d="M789.5799999999999,60.51c0.05,0.29,0.73,1.48,0.78,3.28c0.25,8.64-0.16,29.77-0.16,32.71" style="fill:none;stroke:#999;stroke-width:3"></path>
<path d="M780.49,70c0.14,0.87,0.12,2.57-0.14,3.19c-1.65,4.04-5.77,11.84-8.11,15.31" style="fill:none;stroke:#999;stroke-width:3"></path>
<path d="M797.5,68.25c3.12,3.78,5.52,12.57,6.25,16" style="fill:none;stroke:#999;stroke-width:3"></path>
<path d="M828.48,12c0.58,0.51,1.52,2.46,1.52,3.47c0,3.99-0.02,5.5-0.08,8.36" style="fill:none;stroke:#999;stroke-width:3"></path>
<path d="M807.3,26.29c1.14,0.06,3.73,0.37,4.84,0.33c9.28-0.31,28.79-2.94,40.94-3.12c1.88-0.03,2.84,0.03,4.24,0.43" style="fill:none;stroke:#999;stroke-width:3"></path>

<path d="M900.15,15.5c0.31,1.21,0.59,2.24-0.16,3.44c-3.26,5.27-9.21,14.46-12.32,17.29c-0.64,0.58-0.62,2.81,0,3.04c3.26,1.21,8.84,2.74,11.64,4.97" style="fill:none;stroke:#999;stroke-width:3"></path>
<path d="M908.78,28.44c0.29,0.55,0.38,2.35,0,2.94C903.25,40,894.0,50,886.4,57.86c-1.74,1.8,0.43,2.83,1.57,2.47c4.75-1.53,13.12-3.27,19.23-4.74" style="fill:none;stroke:#999;stroke-width:3"></path>
<path d="M904.25,49c2.38,2.29,6.15,9.43,6.75,13" style="fill:none;stroke:#999;stroke-width:3"></path>
<path d="M898.5799999999999,60.51c0.05,0.29,0.73,1.48,0.78,3.28c0.25,8.64-0.16,29.77-0.16,32.71" style="fill:none;stroke:#999;stroke-width:3"></path>
<path d="M889.49,70c0.14,0.87,0.12,2.57-0.14,3.19c-1.65,4.04-5.77,11.84-8.11,15.31" style="fill:none;stroke:#999;stroke-width:3"></path>
<path d="M906.5,68.25c3.12,3.78,5.52,12.57,6.25,16" style="fill:none;stroke:#999;stroke-width:3"></path>
<path d="M937.48,12c0.58,0.51,1.52,2.46,1.52,3.47c0,3.99-0.02,5.5-0.08,8.36" style="fill:none;stroke:#999;stroke-width:3"></path>
<path d="M916.3,26.29c1.14,0.06,3.73,0.37,4.84,0.33c9.28-0.31,28.79-2.94,40.94-3.12c1.88-0.03,2.84,0.03,4.24,0.43" style="fill:none;stroke:#999;stroke-width:3"></path>
<path d="M950.3,27.75c0.43,0.63-0.06,2.13-0.77,3.19C942.97,40.82,931.75,51,916.0,56" style="fill:none;stroke:#999;stroke-width:3"></path>

<path d="M1009.15,15.5c0.31,1.21,0.59,2.24-0.16,3.44c-3.26,5.27-9.21,14.46-12.32,17.29c-0.64,0.58-0.62,2.81,0,3.04c3.26,1.21,8.84,2.74,11.64,4.97" style="fill:none;stroke:#999;stroke-width:3"></path>
<path d="M1017.78,28.44c0.29,0.55,0.38,2.35,0,2.94C1012.25,40,1003.0,50,995.4,57.86c-1.74,1.8,0.43,2.83,1.57,2.47c4.75-1.53,13.12-3.27,19.23-4.74" style="fill:none;stroke:#999;stroke-width:3"></path>
<path d="M1013.25,49c2.38,2.29,6.15,9.43,6.75,13" style="fill:none;stroke:#999;stroke-width:3"></path>
<path d="M1007.5799999999999,60.51c0.05,0.29,0.73,1.48,0.78,3.28c0.25,8.64-0.16,29.77-0.16,32.71" style="fill:none;stroke:#999;stroke-width:3"></path>
<path d="M998.49,70c0.14,0.87,0.12,2.57-0.14,3.19c-1.65,4.04-5.77,11.84-8.11,15.31" style="fill:none;stroke:#999;stroke-width:3"></path>
<path d="M1015.5,68.25c3.12,3.78,5.52,12.57,6.25,16" style="fill:none;stroke:#999;stroke-width:3"></path>
<path d="M1046.48,12c0.58,0.51,1.52,2.46,1.52,3.47c0,3.99-0.02,5.5-0.08,8.36" style="fill:none;stroke:#999;stroke-width:3"></path>
<path d="M1025.3,26.29c1.14,0.06,3.73,0.37,4.84,0.33c9.28-0.31,28.79-2.94,40.94-3.12c1.88-0.03,2.84,0.03,4.24,0.43" style="fill:none;stroke:#999;stroke-width:3"></path>
<path d="M1059.3,27.75c0.43,0.63-0.06,2.13-0.77,3.19C1051.97,40.82,1040.75,51,1025.0,56" style="fill:none;stroke:#999;stroke-width:3"></path>
<path d="M1032.47,29.58c8.28,4.92,23.06,14.66,35.52,21.95c2.34,1.37,4.07,1.35,6.1,1.47" style="fill:none;stroke:#999;stroke-width:3"></path>

<path d="M1118.15,15.5c0.31,1.21,0.59,2.24-0.16,3.44c-3.26,5.27-9.21,14.46-12.32,17.29c-0.64,0.58-0.62,2.81,0,3.04c3.26,1.21,8.84,2.74,11.64,4.97" style="fill:none;stroke:#999;stroke-width:3"></path>
<path d="M1126.78,28.44c0.29,0.55,0.38,2.35,0,2.94C1121.25,40,1112.0,50,1104.4,57.86c-1.74,1.8,0.43,2.83,1.57,2.47c4.75-1.53,13.12-3.27,19.23-4.74" style="fill:none;stroke:#999;stroke-width:3"></path>
<path d="M1122.25,49c2.38,2.29,6.15,9.43,6.75,13" style="fill:none;stroke:#999;stroke-width:3"></path>
<path d="M1116.58,60.51c0.05,0.29,0.73,1.48,0.78,3.28c0.25,8.64-0.16,29.77-0.16,32.71" style="fill:none;stroke:#999;stroke-width:3"></path>
<path d="M1107.49,70c0.14,0.87,0.12,2.57-0.14,3.19c-1.65,4.04-5.77,11.84-8.11,15.31" style="fill:none;stroke:#999;stroke-width:3"></path>
<path d="M1124.5,68.25c3.12,3.78,5.52,12.57,6.25,16" style="fill:none;stroke:#999;stroke-width:3"></path>
<path d="M1155.48,12c0.58,0.51,1.52,2.46,1.52,3.47c0,3.99-0.02,5.5-0.08,8.36" style="fill:none;stroke:#999;stroke-width:3"></path>
<path d="M1134.3,26.29c1.14,0.06,3.73,0.37,4.84,0.33c9.28-0.31,28.79-2.94,40.94-3.12c1.88-0.03,2.84,0.03,4.24,0.43" style="fill:none;stroke:#999;stroke-width:3"></path>
<path d="M1168.3,27.75c0.43,0.63-0.06,2.13-0.77,3.19C1160.97,40.82,1149.75,51,1134.0,56" style="fill:none;stroke:#999;stroke-width:3"></path>
<path d="M1141.47,29.58c8.28,4.92,23.06,14.66,35.52,21.95c2.34,1.37,4.07,1.35,6.1,1.47" style="fill:none;stroke:#999;stroke-width:3"></path>
<path d="M1141.38,58.75c0.62,1,1.21,2.02,1.21,2.58c0,20.3-1.34,30.67-12.34,37.92" style="fill:none;stroke:#999;stroke-width:3"></path>

<path d="M1227.15,15.5c0.31,1.21,0.59,2.24-0.16,3.44c-3.26,5.27-9.21,14.46-12.32,17.29c-0.64,0.58-0.62,2.81,0,3.04c3.26,1.21,8.84,2.74,11.64,4.97" style="fill:none;stroke:#999;stroke-width:3"></path>
<path d="M1235.78,28.44c0.29,0.55,0.38,2.35,0,2.94C1230.25,40,1221.0,50,1213.4,57.86c-1.74,1.8,0.43,2.83,1.57,2.47c4.75-1.53,13.12-3.27,19.23-4.74" style="fill:none;stroke:#999;stroke-width:3"></path>
<path d="M1231.25,49c2.38,2.29,6.15,9.43,6.75,13" style="fill:none;stroke:#999;stroke-width:3"></path>
<path d="M1225.58,60.51c0.05,0.29,0.73,1.48,0.78,3.28c0.25,8.64-0.16,29.77-0.16,32.71" style="fill:none;stroke:#999;stroke-width:3"></path>
<path d="M1216.49,70c0.14,0.87,0.12,2.57-0.14,3.19c-1.65,4.04-5.77,11.84-8.11,15.31" style="fill:none;stroke:#999;stroke-width:3"></path>
<path d="M1233.5,68.25c3.12,3.78,5.52,12.57,6.25,16" style="fill:none;stroke:#999;stroke-width:3"></path>
<path d="M1264.48,12c0.58,0.51,1.52,2.46,1.52,3.47c0,3.99-0.02,5.5-0.08,8.36" style="fill:none;stroke:#999;stroke-width:3"></path>
<path d="M1243.3,26.29c1.14,0.06,3.73,0.37,4.84,0.33c9.28-0.31,28.79-2.94,40.94-3.12c1.88-0.03,2.84,0.03,4.24,0.43" style="fill:none;stroke:#999;stroke-width:3"></path>
<path d="M1277.3,27.75c0.43,0.63-0.06,2.13-0.77,3.19C1269.97,40.82,1258.75,51,1243.0,56" style="fill:none;stroke:#999;stroke-width:3"></path>
<path d="M1250.47,29.58c8.28,4.92,23.06,14.66,35.52,21.95c2.34,1.37,4.07,1.35,6.1,1.47" style="fill:none;stroke:#999;stroke-width:3"></path>
<path d="M1250.38,58.75c0.62,1,1.21,2.02,1.21,2.58c0,20.3-1.34,30.67-12.34,37.92" style="fill:none;stroke:#999;stroke-width:3"></path>
<path d="M1252.47,67.33c8.55-0.54,22.52-1.35,30.03-1.63" style="fill:none;stroke:#999;stroke-width:3"></path>

<path d="M1336.15,15.5c0.31,1.21,0.59,2.24-0.16,3.44c-3.26,5.27-9.21,14.46-12.32,17.29c-0.64,0.58-0.62,2.81,0,3.04c3.26,1.21,8.84,2.74,11.64,4.97" style="fill:none;stroke:#999;stroke-width:3"></path>
<path d="M1344.78,28.44c0.29,0.55,0.38,2.35,0,2.94C1339.25,40,1330.0,50,1322.4,57.86c-1.74,1.8,0.43,2.83,1.57,2.47c4.75-1.53,13.12-3.27,19.23-4.74" style="fill:none;stroke:#999;stroke-width:3"></path>
<path d="M1340.25,49c2.38,2.29,6.15,9.43,6.75,13" style="fill:none;stroke:#999;stroke-width:3"></path>
<path d="M1334.58,60.51c0.05,0.29,0.73,1.48,0.78,3.28c0.25,8.64-0.16,29.77-0.16,32.71" style="fill:none;stroke:#999;stroke-width:3"></path>
<path d="M1325.49,70c0.14,0.87,0.12,2.57-0.14,3.19c-1.65,4.04-5.77,11.84-8.11,15.31" style="fill:none;stroke:#999;stroke-width:3"></path>
<path d="M1342.5,68.25c3.12,3.78,5.52,12.57,6.25,16" style="fill:none;stroke:#999;stroke-width:3"></path>
<path d="M1373.48,12c0.58,0.51,1.52,2.46,1.52,3.47c0,3.99-0.02,5.5-0.08,8.36" style="fill:none;stroke:#999;stroke-width:3"></path>
<path d="M1352.3,26.29c1.14,0.06,3.73,0.37,4.84,0.33c9.28-0.31,28.79-2.94,40.94-3.12c1.88-0.03,2.84,0.03,4.24,0.43" style="fill:none;stroke:#999;stroke-width:3"></path>
<path d="M1386.3,27.75c0.43,0.63-0.06,2.13-0.77,3.19C1378.97,40.82,1367.75,51,1352.0,56" style="fill:none;stroke:#999;stroke-width:3"></path>
<path d="M1359.47,29.58c8.28,4.92,23.06,14.66,35.52,21.95c2.34,1.37,4.07,1.35,6.1,1.47" style="fill:none;stroke:#999;stroke-width:3"></path>
<path d="M1359.38,58.75c0.62,1,1.21,2.02,1.21,2.58c0,20.3-1.34,30.67-12.34,37.92" style="fill:none;stroke:#999;stroke-width:3"></path>
<path d="M1361.47,67.33c8.55-0.54,22.52-1.35,30.03-1.63" style="fill:none;stroke:#999;stroke-width:3"></path>
<path d="M1360.68,79.14c7.02-0.28,21.69-1.1,29.67-1.29" style="fill:none;stroke:#999;stroke-width:3"></path>

<path d="M1445.15,15.5c0.31,1.21,0.59,2.24-0.16,3.44c-3.26,5.27-9.21,14.46-12.32,17.29c-0.64,0.58-0.62,2.81,0,3.04c3.26,1.21,8.84,2.74,11.64,4.97" style="fill:none;stroke:#999;stroke-width:3"></path>
<path d="M1453.78,28.44c0.29,0.55,0.38,2.35,0,2.94C1448.25,40,1439.0,50,1431.4,57.86c-1.74,1.8,0.43,2.83,1.57,2.47c4.75-1.53,13.12-3.27,19.23-4.74" style="fill:none;stroke:#999;stroke-width:3"></path>
<path d="M1449.25,49c2.38,2.29,6.15,9.43,6.75,13" style="fill:none;stroke:#999;stroke-width:3"></path>
<path d="M1443.58,60.51c0.05,0.29,0.73,1.48,0.78,3.28c0.25,8.64-0.16,29.77-0.16,32.71" style="fill:none;stroke:#999;stroke-width:3"></path>
<path d="M1434.49,70c0.14,0.87,0.12,2.57-0.14,3.19c-1.65,4.04-5.77,11.84-8.11,15.31" style="fill:none;stroke:#999;stroke-width:3"></path>
<path d="M1451.5,68.25c3.12,3.78,5.52,12.57,6.25,16" style="fill:none;stroke:#999;stroke-width:3"></path>
<path d="M1482.48,12c0.58,0.51,1.52,2.46,1.52,3.47c0,3.99-0.02,5.5-0.08,8.36" style="fill:none;stroke:#999;stroke-width:3"></path>
<path d="M1461.3,26.29c1.14,0.06,3.73,0.37,4.84,0.33c9.28-0.31,28.79-2.94,40.94-3.12c1.88-0.03,2.84,0.03,4.24,0.43" style="fill:none;stroke:#999;stroke-width:3"></path>
<path d="M1495.3,27.75c0.43,0.63-0.06,2.13-0.77,3.19C1487.97,40.82,1476.75,51,1461.0,56" style="fill:none;stroke:#999;stroke-width:3"></path>
<path d="M1468.47,29.58c8.28,4.92,23.06,14.66,35.52,21.95c2.34,1.37,4.07,1.35,6.1,1.47" style="fill:none;stroke:#999;stroke-width:3"></path>
<path d="M1468.38,58.75c0.62,1,1.21,2.02,1.21,2.58c0,20.3-1.34,30.67-12.34,37.92" style="fill:none;stroke:#999;stroke-width:3"></path>
<path d="M1470.47,67.33c8.55-0.54,22.52-1.35,30.03-1.63" style="fill:none;stroke:#999;stroke-width:3"></path>
<path d="M1469.68,79.14c7.02-0.28,21.69-1.1,29.67-1.29" style="fill:none;stroke:#999;stroke-width:3"></path>
<path d="M1499.94,57c0.49,0.5,1.3,2.43,1.3,3.43c0,3.94-0.01,34.33-0.07,37.16" style="fill:none;stroke:#999;stroke-width:3"></path>

</svg>