<svg width="1635px" height="109px" viewBox="0 0 1635 109" xmlns="http://www.w3.org/2000/svg" xmlns:xlink="http://www.w3.org/1999/xlink" xml:space="preserve" version="1.1" baseProfile="full">
<line x1="1" y1="1" x2="1634" y2="1" style="stroke:#ddd;stroke-width:2"></line>
<line x1="1" y1="1" x2="1" y2="108" style="stroke:#ddd;stroke-width:2"></line>
<line x1="1" y1="108" x2="1634" y2="108" style="stroke:#ddd;stroke-width:2"></line>
<line x1="1634" y1="1" x2="1634" y2="108" style="stroke:#ddd;stroke-width:2"></line>
<line x1="109" y1="1" x2="109" y2="108" style="stroke:#ddd;stroke-width:2"></line>
<line x1="218" y1="1" x2="218" y2="108" style="stroke:#ddd;stroke-width:2"></line>
<line x1="327" y1="1" x2="327" y2="108" style="stroke:#ddd;stroke-width:2"></line>
<line x1="436" y1="1" x2="436" y2="108" style="stroke:#ddd;stroke-width:2"></line>
<line x1="545" y1="1" x2="545" y2="108" style="stroke:#ddd;stroke-width:2"></line>
<line x1="654" y1="1" x2="654" y2="108" style="stroke:#ddd;stroke-width:2"></line>
<line x1="763" y1="1" x2="763" y2="108" style="stroke:#ddd;stroke-width:2"></line>
<line x1="872" y1="1" x2="872" y2="108" style="stroke:#ddd;stroke-width:2"></line>
<line x1="981" y1="1" x2="981" y2="108" style="stroke:#ddd;stroke-width:2"></line>
<line x1="1090" y1="1" x2="1090" y2="108" style="stroke:#ddd;stroke-width:2"></line>
<line x1="1199" y1="1" x2="1199" y2="108" style="stroke:#ddd;stroke-width:2"></line>
<line x1="1308" y1="1" x2="1308" y2="108" style="stroke:#ddd;stroke-width:2"></line>
<line x1="1417" y1="1" x2="1417" y2="108" style="stroke:#ddd;stroke-width:2"></line>
<line x1="1526" y1="1" x2="1526" y2="108" style="stroke:#ddd;stroke-width:2"></line>
<line x1="1" y1="54" x2="1634" y2="54" style="stroke:#ddd;stroke-width:2;stroke-dasharray:3 3"></line>
<line x1="55" y1="1" x2="55" y2="108" style="stroke:#ddd;stroke-width:2;stroke-dasharray:3 3"></line>
<line x1="164" y1="1" x2="164" y2="108" style="stroke:#ddd;stroke-width:2;stroke-dasharray:3 3"></line>
<line x1="273" y1="1" x2="273" y2="108" style="stroke:#ddd;stroke-width:2;stroke-dasharray:3 3"></line>
<line x1="382" y1="1" x2="382" y2="108" style="stroke:#ddd;stroke-width:2;stroke-dasharray:3 3"></line>
<line x1="491" y1="1" x2="491" y2="108" style="stroke:#ddd;stroke-width:2;stroke-dasharray:3 3"></line>
<line x1="600" y1="1" x2="600" y2="108" style="stroke:#ddd;stroke-width:2;stroke-dasharray:3 3"></line>
<line x1="709" y1="1" x2="709" y2="108" style="stroke:#ddd;stroke-width:2;stroke-dasharray:3 3"></line>
<line x1="818" y1="1" x2="818" y2="108" style="stroke:#ddd;stroke-width:2;stroke-dasharray:3 3"></line>
<line x1="927" y1="1" x2="927" y2="108" style="stroke:#ddd;stroke-width:2;stroke-dasharray:3 3"></line>
<line x1="1036" y1="1" x2="1036" y2="108" style="stroke:#ddd;stroke-width:2;stroke-dasharray:3 3"></line>
<line x1="1145" y1="1" x2="1145" y2="108" style="stroke:#ddd;stroke-width:2;stroke-dasharray:3 3"></line>
<line x1="1254" y1="1" x2="1254" y2="108" style="stroke:#ddd;stroke-width:2;stroke-dasharray:3 3"></line>
<line x1="1363" y1="1" x2="1363" y2="108" style="stroke:#ddd;stroke-width:2;stroke-dasharray:3 3"></line>
<line x1="1472" y1="1" x2="1472" y2="108" style="stroke:#ddd;stroke-width:2;stroke-dasharray:3 3"></line>
<line x1="1581" y1="1" x2="1581" y2="108" style="stroke:#ddd;stroke-width:2;stroke-dasharray:3 3"></line>
<path d="M27.9,14.75c0.31,1.21,0.59,2.24-0.16,3.44c-3.26,5.27-9.71,14.96-12.82,17.79c-0.64,0.58-0.62,2.81,0,3.04c3.26,1.21,7.84,3.24,10.64,5.47" style="fill:none;stroke:#999;stroke-width:3"></path>

<path d="M136.9,14.75c0.31,1.21,0.59,2.24-0.16,3.44c-3.26,5.27-9.71,14.96-12.82,17.79c-0.64,0.58-0.62,2.81,0,3.04c3.26,1.21,7.84,3.24,10.64,5.47" style="fill:none;stroke:#999;stroke-width:3"></path>
<path d="M146.03,26.69c0.29,0.55,0.38,2.35,0,2.94c-5.53,8.62-14.28,20.12-21.88,27.98c-1.74,1.8,0.43,2.83,1.57,2.47c4.75-1.53,14.62-4.27,20.73-5.74" style="fill:none;stroke:#999;stroke-width:3"></path>

<path d="M245.9,14.75c0.31,1.21,0.59,2.24-0.16,3.44c-3.26,5.27-9.71,14.96-12.82,17.79c-0.64,0.58-0.62,2.81,0,3.04c3.26,1.21,7.84,3.24,10.64,5.47" style="fill:none;stroke:#999;stroke-width:3"></path>
<path d="M255.03,26.69c0.29,0.55,0.38,2.35,0,2.94c-5.53,8.62-14.28,20.12-21.88,27.98c-1.74,1.8,0.43,2.83,1.57,2.47c4.75-1.53,14.62-4.27,20.73-5.74" style="fill:none;stroke:#999;stroke-width:3"></path>
<path d="M251.75,48.5c2.56,2.07,6.61,8.52,7.25,11.75" style="fill:none;stroke:#999;stroke-width:3"></path>

<path d="M354.9,14.75c0.31,1.21,0.59,2.24-0.16,3.44c-3.26,5.27-9.71,14.96-12.82,17.79c-0.64,0.58-0.62,2.81,0,3.04c3.26,1.21,7.84,3.24,10.64,5.47" style="fill:none;stroke:#999;stroke-width:3"></path>
<path d="M364.03,26.69c0.29,0.55,0.38,2.35,0,2.94c-5.53,8.62-14.28,20.12-21.88,27.98c-1.74,1.8,0.43,2.83,1.57,2.47c4.75-1.53,14.62-4.27,20.73-5.74" style="fill:none;stroke:#999;stroke-width:3"></path>
<path d="M360.75,48.5c2.56,2.07,6.61,8.52,7.25,11.75" style="fill:none;stroke:#999;stroke-width:3"></path>
<path d="M354.33,59.76c0.05,0.29,0.73,1.48,0.78,3.28c0.25,8.64-0.16,32.27-0.16,35.21" style="fill:none;stroke:#999;stroke-width:3"></path>

<path d="M463.9,14.75c0.31,1.21,0.59,2.24-0.16,3.44c-3.26,5.27-9.71,14.96-12.82,17.79c-0.64,0.58-0.62,2.81,0,3.04c3.26,1.21,7.84,3.24,10.64,5.47" style="fill:none;stroke:#999;stroke-width:3"></path>
<path d="M473.03,26.69c0.29,0.55,0.38,2.35,0,2.94c-5.53,8.62-14.28,20.12-21.88,27.98c-1.74,1.8,0.43,2.83,1.57,2.47c4.75-1.53,14.62-4.27,20.73-5.74" style="fill:none;stroke:#999;stroke-width:3"></path>
<path d="M469.75,48.5c2.56,2.07,6.61,8.52,7.25,11.75" style="fill:none;stroke:#999;stroke-width:3"></path>
<path d="M463.33,59.76c0.05,0.29,0.73,1.48,0.78,3.28c0.25,8.64-0.16,32.27-0.16,35.21" style="fill:none;stroke:#999;stroke-width:3"></path>
<path d="M453.5,70.75c0.12,0.89,0.1,2.64-0.12,3.28c-1.45,4.15-5.08,12.16-7.13,15.72" style="fill:none;stroke:#999;stroke-width:3"></path>

<path d="M572.9,14.75c0.31,1.21,0.59,2.24-0.16,3.44c-3.26,5.27-9.71,14.96-12.82,17.79c-0.64,0.58-0.62,2.81,0,3.04c3.26,1.21,7.84,3.24,10.64,5.47" style="fill:none;stroke:#999;stroke-width:3"></path>
<path d="M582.03,26.69c0.29,0.55,0.38,2.35,0,2.94c-5.53,8.62-14.28,20.12-21.88,27.98c-1.74,1.8,0.43,2.83,1.57,2.47c4.75-1.53,14.62-4.27,20.73-5.74" style="fill:none;stroke:#999;stroke-width:3"></path>
<path d="M578.75,48.5c2.56,2.07,6.61,8.52,7.25,11.75" style="fill:none;stroke:#999;stroke-width:3"></path>
<path d="M572.3299999999999,59.76c0.05,0.29,0.73,1.48,0.78,3.28c0.25,8.64-0.16,32.27-0.16,35.21" style="fill:none;stroke:#999;stroke-width:3"></path>
<path d="M562.5,70.75c0.12,0.89,0.1,2.64-0.12,3.28c-1.45,4.15-5.08,12.16-7.13,15.72" style="fill:none;stroke:#999;stroke-width:3"></path>
<path d="M580.5,69.75c2.75,3.07,4.86,10.21,5.5,13" style="fill:none;stroke:#999;stroke-width:3"></path>

<path d="M681.9,14.75c0.31,1.21,0.59,2.24-0.16,3.44c-3.26,5.27-9.71,14.96-12.82,17.79c-0.64,0.58-0.62,2.81,0,3.04c3.26,1.21,7.84,3.24,10.64,5.47" style="fill:none;stroke:#999;stroke-width:3"></path>
<path d="M691.03,26.69c0.29,0.55,0.38,2.35,0,2.94c-5.53,8.62-14.28,20.12-21.88,27.98c-1.74,1.8,0.43,2.83,1.57,2.47c4.75-1.53,14.62-4.27,20.73-5.74" style="fill:none;stroke:#999;stroke-width:3"></path>
<path d="M687.75,48.5c2.56,2.07,6.61,8.52,7.25,11.75" style="fill:none;stroke:#999;stroke-width:3"></path>
<path d="M681.3299999999999,59.76c0.05,0.29,0.73,1.48,0.78,3.28c0.25,8.64-0.16,32.27-0.16,35.21" style="fill:none;stroke:#999;stroke-width:3"></path>
<path d="M671.5,70.75c0.12,0.89,0.1,2.64-0.12,3.28c-1.45,4.15-5.08,12.16-7.13,15.72" style="fill:none;stroke:#999;stroke-width:3"></path>
<path d="M689.5,69.75c2.75,3.07,4.86,10.21,5.5,13" style="fill:none;stroke:#999;stroke-width:3"></path>
<path d="M696.28,18.07c1.28,0.46,3.63,1,4.91,0.96c8.32-0.28,31.05-3.81,45.53-4.02c2.13-0.03,3.41,0.22,4.48,0.45" style="fill:none;stroke:#999;stroke-width:3"></path>

<path d="M790.9,14.75c0.31,1.21,0.59,2.24-0.16,3.44c-3.26,5.27-9.71,14.96-12.82,17.79c-0.64,0.58-0.62,2.81,0,3.04c3.26,1.21,7.84,3.24,10.64,5.47" style="fill:none;stroke:#999;stroke-width:3"></path>
<path d="M800.03,26.69c0.29,0.55,0.38,2.35,0,2.94c-5.53,8.62-14.28,20.12-21.88,27.98c-1.74,1.8,0.43,2.83,1.57,2.47c4.75-1.53,14.62-4.27,20.73-5.74" style="fill:none;stroke:#999;stroke-width:3"></path>
<path d="M796.75,48.5c2.56,2.07,6.61,8.52,7.25,11.75" style="fill:none;stroke:#999;stroke-width:3"></path>
<path d="M790.3299999999999,59.76c0.05,0.29,0.73,1.48,0.78,3.28c0.25,8.64-0.16,32.27-0.16,35.21" style="fill:none;stroke:#999;stroke-width:3"></path>
<path d="M780.5,70.75c0.12,0.89,0.1,2.64-0.12,3.28c-1.45,4.15-5.08,12.16-7.13,15.72" style="fill:none;stroke:#999;stroke-width:3"></path>
<path d="M798.5,69.75c2.75,3.07,4.86,10.21,5.5,13" style="fill:none;stroke:#999;stroke-width:3"></path>
<path d="M805.28,18.07c1.28,0.46,3.63,1,4.91,0.96c8.32-0.28,31.05-3.81,45.53-4.02c2.13-0.03,3.41,0.22,4.48,0.45" style="fill:none;stroke:#999;stroke-width:3"></path>
<path d="M829.24,20.68c0.02,0.44,0.04,1.13-0.04,1.75c-0.53,3.7-3.54,11.81-7.66,16.78" style="fill:none;stroke:#999;stroke-width:3"></path>

<path d="M899.9,14.75c0.31,1.21,0.59,2.24-0.16,3.44c-3.26,5.27-9.71,14.96-12.82,17.79c-0.64,0.58-0.62,2.81,0,3.04c3.26,1.21,7.84,3.24,10.64,5.47" style="fill:none;stroke:#999;stroke-width:3"></path>
<path d="M909.03,26.69c0.29,0.55,0.38,2.35,0,2.94c-5.53,8.62-14.28,20.12-21.88,27.98c-1.74,1.8,0.43,2.83,1.57,2.47c4.75-1.53,14.62-4.27,20.73-5.74" style="fill:none;stroke:#999;stroke-width:3"></path>
<path d="M905.75,48.5c2.56,2.07,6.61,8.52,7.25,11.75" style="fill:none;stroke:#999;stroke-width:3"></path>
<path d="M899.3299999999999,59.76c0.05,0.29,0.73,1.48,0.78,3.28c0.25,8.64-0.16,32.27-0.16,35.21" style="fill:none;stroke:#999;stroke-width:3"></path>
<path d="M889.5,70.75c0.12,0.89,0.1,2.64-0.12,3.28c-1.45,4.15-5.08,12.16-7.13,15.72" style="fill:none;stroke:#999;stroke-width:3"></path>
<path d="M907.5,69.75c2.75,3.07,4.86,10.21,5.5,13" style="fill:none;stroke:#999;stroke-width:3"></path>
<path d="M914.28,18.07c1.28,0.46,3.63,1,4.91,0.96c8.32-0.28,31.05-3.81,45.53-4.02c2.13-0.03,3.41,0.22,4.48,0.45" style="fill:none;stroke:#999;stroke-width:3"></path>
<path d="M938.24,20.68c0.02,0.44,0.04,1.13-0.04,1.75c-0.53,3.7-3.54,11.81-7.66,16.78" style="fill:none;stroke:#999;stroke-width:3"></path>
<path d="M917.75,41.06c0.72,1.01,1.03,1.78,1.13,3.12C920.0,59,920.75,76,921.25,95" style="fill:none;stroke:#999;stroke-width:3"></path>

<path d="M1008.9,14.75c0.31,1.21,0.59,2.24-0.16,3.44c-3.26,5.27-9.71,14.96-12.82,17.79c-0.64,0.58-0.62,2.81,0,3.04c3.26,1.21,7.84,3.24,10.64,5.47" style="fill:none;stroke:#999;stroke-width:3"></path>
<path d="M1018.03,26.69c0.29,0.55,0.38,2.35,0,2.94c-5.53,8.62-14.28,20.12-21.88,27.98c-1.74,1.8,0.43,2.83,1.57,2.47c4.75-1.53,14.62-4.27,20.73-5.74" style="fill:none;stroke:#999;stroke-width:3"></path>
<path d="M1014.75,48.5c2.56,2.07,6.61,8.52,7.25,11.75" style="fill:none;stroke:#999;stroke-width:3"></path>
<path d="M1008.3299999999999,59.76c0.05,0.29,0.73,1.48,0.78,3.28c0.25,8.64-0.16,32.27-0.16,35.21" style="fill:none;stroke:#999;stroke-width:3"></path>
<path d="M998.5,70.75c0.12,0.89,0.1,2.64-0.12,3.28c-1.45,4.15-5.08,12.16-7.13,15.72" style="fill:none;stroke:#999;stroke-width:3"></path>
<path d="M1016.5,69.75c2.75,3.07,4.86,10.21,5.5,13" style="fill:none;stroke:#999;stroke-width:3"></path>
<path d="M1023.28,18.07c1.28,0.46,3.63,1,4.91,0.96c8.32-0.28,31.05-3.81,45.53-4.02c2.13-0.03,3.41,0.22,4.48,0.45" style="fill:none;stroke:#999;stroke-width:3"></path>
<path d="M1047.24,20.68c0.02,0.44,0.04,1.13-0.04,1.75c-0.53,3.7-3.54,11.81-7.66,16.78" style="fill:none;stroke:#999;stroke-width:3"></path>
<path d="M1026.75,41.06c0.72,1.01,1.03,1.78,1.13,3.12C1029.0,59,1029.75,76,1030.25,95" style="fill:none;stroke:#999;stroke-width:3"></path>
<path d="M1027.92,42.77c11.66-1.36,35.66-3.82,43.09-4.13c3.08-0.12,4.69,2.77,4.46,5.68c-0.93,12.02-1.73,30.93-3.73,48.29" style="fill:none;stroke:#999;stroke-width:3"></path>

<path d="M1117.9,14.75c0.31,1.21,0.59,2.24-0.16,3.44c-3.26,5.27-9.71,14.96-12.82,17.79c-0.64,0.58-0.62,2.81,0,3.04c3.26,1.21,7.84,3.24,10.64,5.47" style="fill:none;stroke:#999;stroke-width:3"></path>
<path d="M1127.03,26.69c0.29,0.55,0.38,2.35,0,2.94c-5.53,8.62-14.28,20.12-21.88,27.98c-1.74,1.8,0.43,2.83,1.57,2.47c4.75-1.53,14.62-4.27,20.73-5.74" style="fill:none;stroke:#999;stroke-width:3"></path>
<path d="M1123.75,48.5c2.56,2.07,6.61,8.52,7.25,11.75" style="fill:none;stroke:#999;stroke-width:3"></path>
<path d="M1117.33,59.76c0.05,0.29,0.73,1.48,0.78,3.28c0.25,8.64-0.16,32.27-0.16,35.21" style="fill:none;stroke:#999;stroke-width:3"></path>
<path d="M1107.5,70.75c0.12,0.89,0.1,2.64-0.12,3.28c-1.45,4.15-5.08,12.16-7.13,15.72" style="fill:none;stroke:#999;stroke-width:3"></path>
<path d="M1125.5,69.75c2.75,3.07,4.86,10.21,5.5,13" style="fill:none;stroke:#999;stroke-width:3"></path>
<path d="M1132.28,18.07c1.28,0.46,3.63,1,4.91,0.96c8.32-0.28,31.05-3.81,45.53-4.02c2.13-0.03,3.41,0.22,4.48,0.45" style="fill:none;stroke:#999;stroke-width:3"></path>
<path d="M1156.24,20.68c0.02,0.44,0.04,1.13-0.04,1.75c-0.53,3.7-3.54,11.81-7.66,16.78" style="fill:none;stroke:#999;stroke-width:3"></path>
<path d="M1135.75,41.06c0.72,1.01,1.03,1.78,1.13,3.12C1138.0,59,1138.75,76,1139.25,95" style="fill:none;stroke:#999;stroke-width:3"></path>
<path d="M1136.92,42.77c11.66-1.36,35.66-3.82,43.09-4.13c3.08-0.12,4.69,2.77,4.46,5.68c-0.93,12.02-1.73,30.93-3.73,48.29" style="fill:none;stroke:#999;stroke-width:3"></path>
<path d="M1151.3,42.96c0.48,0.79,0.95,2.11,0.95,3.17c0,1.06,1.13,45.51,1.13,45.51" style="fill:none;stroke:#999;stroke-width:3"></path>

<path d="M1226.9,14.75c0.31,1.21,0.59,2.24-0.16,3.44c-3.26,5.27-9.71,14.96-12.82,17.79c-0.64,0.58-0.62,2.81,0,3.04c3.26,1.21,7.84,3.24,10.64,5.47" style="fill:none;stroke:#999;stroke-width:3"></path>
<path d="M1236.03,26.69c0.29,0.55,0.38,2.35,0,2.94c-5.53,8.62-14.28,20.12-21.88,27.98c-1.74,1.8,0.43,2.83,1.57,2.47c4.75-1.53,14.62-4.27,20.73-5.74" style="fill:none;stroke:#999;stroke-width:3"></path>
<path d="M1232.75,48.5c2.56,2.07,6.61,8.52,7.25,11.75" style="fill:none;stroke:#999;stroke-width:3"></path>
<path d="M1226.33,59.76c0.05,0.29,0.73,1.48,0.78,3.28c0.25,8.64-0.16,32.27-0.16,35.21" style="fill:none;stroke:#999;stroke-width:3"></path>
<path d="M1216.5,70.75c0.12,0.89,0.1,2.64-0.12,3.28c-1.45,4.15-5.08,12.16-7.13,15.72" style="fill:none;stroke:#999;stroke-width:3"></path>
<path d="M1234.5,69.75c2.75,3.07,4.86,10.21,5.5,13" style="fill:none;stroke:#999;stroke-width:3"></path>
<path d="M1241.28,18.07c1.28,0.46,3.63,1,4.91,0.96c8.32-0.28,31.05-3.81,45.53-4.02c2.13-0.03,3.41,0.22,4.48,0.45" style="fill:none;stroke:#999;stroke-width:3"></path>
<path d="M1265.24,20.68c0.02,0.44,0.04,1.13-0.04,1.75c-0.53,3.7-3.54,11.81-7.66,16.78" style="fill:none;stroke:#999;stroke-width:3"></path>
<path d="M1244.75,41.06c0.72,1.01,1.03,1.78,1.13,3.12C1247.0,59,1247.75,76,1248.25,95" style="fill:none;stroke:#999;stroke-width:3"></path>
<path d="M1245.92,42.77c11.66-1.36,35.66-3.82,43.09-4.13c3.08-0.12,4.69,2.77,4.46,5.68c-0.93,12.02-1.73,30.93-3.73,48.29" style="fill:none;stroke:#999;stroke-width:3"></path>
<path d="M1260.3,42.96c0.48,0.79,0.95,2.11,0.95,3.17c0,1.06,1.13,45.51,1.13,45.51" style="fill:none;stroke:#999;stroke-width:3"></path>
<path d="M1276.3,40.32c0.48,1.32,0.95,2.11,0.95,3.17c0,1.06-1.11,44.69-1.11,47.33" style="fill:none;stroke:#999;stroke-width:3"></path>

<path d="M1335.9,14.75c0.31,1.21,0.59,2.24-0.16,3.44c-3.26,5.27-9.71,14.96-12.82,17.79c-0.64,0.58-0.62,2.81,0,3.04c3.26,1.21,7.84,3.24,10.64,5.47" style="fill:none;stroke:#999;stroke-width:3"></path>
<path d="M1345.03,26.69c0.29,0.55,0.38,2.35,0,2.94c-5.53,8.62-14.28,20.12-21.88,27.98c-1.74,1.8,0.43,2.83,1.57,2.47c4.75-1.53,14.62-4.27,20.73-5.74" style="fill:none;stroke:#999;stroke-width:3"></path>
<path d="M1341.75,48.5c2.56,2.07,6.61,8.52,7.25,11.75" style="fill:none;stroke:#999;stroke-width:3"></path>
<path d="M1335.33,59.76c0.05,0.29,0.73,1.48,0.78,3.28c0.25,8.64-0.16,32.27-0.16,35.21" style="fill:none;stroke:#999;stroke-width:3"></path>
<path d="M1325.5,70.75c0.12,0.89,0.1,2.64-0.12,3.28c-1.45,4.15-5.08,12.16-7.13,15.72" style="fill:none;stroke:#999;stroke-width:3"></path>
<path d="M1343.5,69.75c2.75,3.07,4.86,10.21,5.5,13" style="fill:none;stroke:#999;stroke-width:3"></path>
<path d="M1350.28,18.07c1.28,0.46,3.63,1,4.91,0.96c8.32-0.28,31.05-3.81,45.53-4.02c2.13-0.03,3.41,0.22,4.48,0.45" style="fill:none;stroke:#999;stroke-width:3"></path>
<path d="M1374.24,20.68c0.02,0.44,0.04,1.13-0.04,1.75c-0.53,3.7-3.54,11.81-7.66,16.78" style="fill:none;stroke:#999;stroke-width:3"></path>
<path d="M1353.75,41.06c0.72,1.01,1.03,1.78,1.13,3.12C1356.0,59,1356.75,76,1357.25,95" style="fill:none;stroke:#999;stroke-width:3"></path>
<path d="M1354.92,42.77c11.66-1.36,35.66-3.82,43.09-4.13c3.08-0.12,4.69,2.77,4.46,5.68c-0.93,12.02-1.73,30.93-3.73,48.29" style="fill:none;stroke:#999;stroke-width:3"></path>
<path d="M1369.3,42.96c0.48,0.79,0.95,2.11,0.95,3.17c0,1.06,1.13,45.51,1.13,45.51" style="fill:none;stroke:#999;stroke-width:3"></path>
<path d="M1385.3,40.32c0.48,1.32,0.95,2.11,0.95,3.17c0,1.06-1.11,44.69-1.11,47.33" style="fill:none;stroke:#999;stroke-width:3"></path>
<path d="M1370.73,57.16c1.58,0,12.99-1.35,14.58-1.35" style="fill:none;stroke:#999;stroke-width:3"></path>

<path d="M1444.9,14.75c0.31,1.21,0.59,2.24-0.16,3.44c-3.26,5.27-9.71,14.96-12.82,17.79c-0.64,0.58-0.62,2.81,0,3.04c3.26,1.21,7.84,3.24,10.64,5.47" style="fill:none;stroke:#999;stroke-width:3"></path>
<path d="M1454.03,26.69c0.29,0.55,0.38,2.35,0,2.94c-5.53,8.62-14.28,20.12-21.88,27.98c-1.74,1.8,0.43,2.83,1.57,2.47c4.75-1.53,14.62-4.27,20.73-5.74" style="fill:none;stroke:#999;stroke-width:3"></path>
<path d="M1450.75,48.5c2.56,2.07,6.61,8.52,7.25,11.75" style="fill:none;stroke:#999;stroke-width:3"></path>
<path d="M1444.33,59.76c0.05,0.29,0.73,1.48,0.78,3.28c0.25,8.64-0.16,32.27-0.16,35.21" style="fill:none;stroke:#999;stroke-width:3"></path>
<path d="M1434.5,70.75c0.12,0.89,0.1,2.64-0.12,3.28c-1.45,4.15-5.08,12.16-7.13,15.72" style="fill:none;stroke:#999;stroke-width:3"></path>
<path d="M1452.5,69.75c2.75,3.07,4.86,10.21,5.5,13" style="fill:none;stroke:#999;stroke-width:3"></path>
<path d="M1459.28,18.07c1.28,0.46,3.63,1,4.91,0.96c8.32-0.28,31.05-3.81,45.53-4.02c2.13-0.03,3.41,0.22,4.48,0.45" style="fill:none;stroke:#999;stroke-width:3"></path>
<path d="M1483.24,20.68c0.02,0.44,0.04,1.13-0.04,1.75c-0.53,3.7-3.54,11.81-7.66,16.78" style="fill:none;stroke:#999;stroke-width:3"></path>
<path d="M1462.75,41.06c0.72,1.01,1.03,1.78,1.13,3.12C1465.0,59,1465.75,76,1466.25,95" style="fill:none;stroke:#999;stroke-width:3"></path>
<path d="M1463.92,42.77c11.66-1.36,35.66-3.82,43.09-4.13c3.08-0.12,4.69,2.77,4.46,5.68c-0.93,12.02-1.73,30.93-3.73,48.29" style="fill:none;stroke:#999;stroke-width:3"></path>
<path d="M1478.3,42.96c0.48,0.79,0.95,2.11,0.95,3.17c0,1.06,1.13,45.51,1.13,45.51" style="fill:none;stroke:#999;stroke-width:3"></path>
<path d="M1494.3,40.32c0.48,1.32,0.95,2.11,0.95,3.17c0,1.06-1.11,44.69-1.11,47.33" style="fill:none;stroke:#999;stroke-width:3"></path>
<path d="M1479.73,57.16c1.58,0,12.99-1.35,14.58-1.35" style="fill:none;stroke:#999;stroke-width:3"></path>
<path d="M1480.2,72.79c4.55-0.29,11.72-1.08,13.94-1.35" style="fill:none;stroke:#999;stroke-width:3"></path>

<path d="M1553.9,14.75c0.31,1.21,0.59,2.24-0.16,3.44c-3.26,5.27-9.71,14.96-12.82,17.79c-0.64,0.58-0.62,2.81,0,3.04c3.26,1.21,7.84,3.24,10.64,5.47" style="fill:none;stroke:#999;stroke-width:3"></path>
<path d="M1563.03,26.69c0.29,0.55,0.38,2.35,0,2.94c-5.53,8.62-14.28,20.12-21.88,27.98c-1.74,1.8,0.43,2.83,1.57,2.47c4.75-1.53,14.62-4.27,20.73-5.74" style="fill:none;stroke:#999;stroke-width:3"></path>
<path d="M1559.75,48.5c2.56,2.07,6.61,8.52,7.25,11.75" style="fill:none;stroke:#999;stroke-width:3"></path>
<path d="M1553.33,59.76c0.05,0.29,0.73,1.48,0.78,3.28c0.25,8.64-0.16,32.27-0.16,35.21" style="fill:none;stroke:#999;stroke-width:3"></path>
<path d="M1543.5,70.75c0.12,0.89,0.1,2.64-0.12,3.28c-1.45,4.15-5.08,12.16-7.13,15.72" style="fill:none;stroke:#999;stroke-width:3"></path>
<path d="M1561.5,69.75c2.75,3.07,4.86,10.21,5.5,13" style="fill:none;stroke:#999;stroke-width:3"></path>
<path d="M1568.28,18.07c1.28,0.46,3.63,1,4.91,0.96c8.32-0.28,31.05-3.81,45.53-4.02c2.13-0.03,3.41,0.22,4.48,0.45" style="fill:none;stroke:#999;stroke-width:3"></path>
<path d="M1592.24,20.68c0.02,0.44,0.04,1.13-0.04,1.75c-0.53,3.7-3.54,11.81-7.66,16.78" style="fill:none;stroke:#999;stroke-width:3"></path>
<path d="M1571.75,41.06c0.72,1.01,1.03,1.78,1.13,3.12C1574.0,59,1574.75,76,1575.25,95" style="fill:none;stroke:#999;stroke-width:3"></path>
<path d="M1572.92,42.77c11.66-1.36,35.66-3.82,43.09-4.13c3.08-0.12,4.69,2.77,4.46,5.68c-0.93,12.02-1.73,30.93-3.73,48.29" style="fill:none;stroke:#999;stroke-width:3"></path>
<path d="M1587.3,42.96c0.48,0.79,0.95,2.11,0.95,3.17c0,1.06,1.13,45.51,1.13,45.51" style="fill:none;stroke:#999;stroke-width:3"></path>
<path d="M1603.3,40.32c0.48,1.32,0.95,2.11,0.95,3.17c0,1.06-1.11,44.69-1.11,47.33" style="fill:none;stroke:#999;stroke-width:3"></path>
<path d="M1588.73,57.16c1.58,0,12.99-1.35,14.58-1.35" style="fill:none;stroke:#999;stroke-width:3"></path>
<path d="M1589.2,72.79c4.55-0.29,11.72-1.08,13.94-1.35" style="fill:none;stroke:#999;stroke-width:3"></path>
<path d="M1575.53,92.28c3.33-0.27,36.6-1.67,40.56-1.67" style="fill:none;stroke:#999;stroke-width:3"></path>

</svg>