<svg width="1090px" height="109px" viewBox="0 0 1090 109" xmlns="http://www.w3.org/2000/svg" xmlns:xlink="http://www.w3.org/1999/xlink" xml:space="preserve" version="1.1" baseProfile="full">
<line x1="1" y1="1" x2="1089" y2="1" style="stroke:#ddd;stroke-width:2"></line>
<line x1="1" y1="1" x2="1" y2="108" style="stroke:#ddd;stroke-width:2"></line>
<line x1="1" y1="108" x2="1089" y2="108" style="stroke:#ddd;stroke-width:2"></line>
<line x1="1089" y1="1" x2="1089" y2="108" style="stroke:#ddd;stroke-width:2"></line>
<line x1="109" y1="1" x2="109" y2="108" style="stroke:#ddd;stroke-width:2"></line>
<line x1="218" y1="1" x2="218" y2="108" style="stroke:#ddd;stroke-width:2"></line>
<line x1="327" y1="1" x2="327" y2="108" style="stroke:#ddd;stroke-width:2"></line>
<line x1="436" y1="1" x2="436" y2="108" style="stroke:#ddd;stroke-width:2"></line>
<line x1="545" y1="1" x2="545" y2="108" style="stroke:#ddd;stroke-width:2"></line>
<line x1="654" y1="1" x2="654" y2="108" style="stroke:#ddd;stroke-width:2"></line>
<line x1="763" y1="1" x2="763" y2="108" style="stroke:#ddd;stroke-width:2"></line>
<line x1="872" y1="1" x2="872" y2="108" style="stroke:#ddd;stroke-width:2"></line>
<line x1="981" y1="1" x2="981" y2="108" style="stroke:#ddd;stroke-width:2"></line>
<line x1="1" y1="54" x2="1089" y2="54" style="stroke:#ddd;stroke-width:2;stroke-dasharray:3 3"></line>
<line x1="55" y1="1" x2="55" y2="108" style="stroke:#ddd;stroke-width:2;stroke-dasharray:3 3"></line>
<line x1="164" y1="1" x2="164" y2="108" style="stroke:#ddd;stroke-width:2;stroke-dasharray:3 3"></line>
<line x1="273" y1="1" x2="273" y2="108" style="stroke:#ddd;stroke-width:2;stroke-dasharray:3 3"></line>
<line x1="382" y1="1" x2="382" y2="108" style="stroke:#ddd;stroke-width:2;stroke-dasharray:3 3"></line>
<line x1="491" y1="1" x2="491" y2="108" style="stroke:#ddd;stroke-width:2;stroke-dasharray:3 3"></line>
<line x1="600" y1="1" x2="600" y2="108" style="stroke:#ddd;stroke-width:2;stroke-dasharray:3 3"></line>
<line x1="709" y1="1" x2="709" y2="108" style="stroke:#ddd;stroke-width:2;stroke-dasharray:3 3"></line>
<line x1="818" y1="1" x2="818" y2="108" style="stroke:#ddd;stroke-width:2;stroke-dasharray:3 3"></line>
<line x1="927" y1="1" x2="927" y2="108" style="stroke:#ddd;stroke-width:2;stroke-dasharray:3 3"></line>
<line x1="1036" y1="1" x2="1036" y2="108" style="stroke:#ddd;stroke-width:2;stroke-dasharray:3 3"></line>
<path d="M24.5,15.75c0.03,0.59,0.07,1.52-0.06,2.37c-0.77,4.99-5.2,15.94-11.26,22.64" style="fill:none;stroke:#999;stroke-width:3"></path>

<path d="M133.5,15.75c0.03,0.59,0.07,1.52-0.06,2.37c-0.77,4.99-5.2,15.94-11.26,22.64" style="fill:none;stroke:#999;stroke-width:3"></path>
<path d="M130.15,31.29c0.71,0.26,2.01,0.33,2.72,0.26c5.54-0.55,12.48-1.92,17.04-2.33c1.18-0.1,1.89,0.12,2.48,0.26" style="fill:none;stroke:#999;stroke-width:3"></path>

<path d="M242.5,15.75c0.03,0.59,0.07,1.52-0.06,2.37c-0.77,4.99-5.2,15.94-11.26,22.64" style="fill:none;stroke:#999;stroke-width:3"></path>
<path d="M239.15,31.29c0.71,0.26,2.01,0.33,2.72,0.26c5.54-0.55,12.48-1.92,17.04-2.33c1.18-0.1,1.89,0.12,2.48,0.26" style="fill:none;stroke:#999;stroke-width:3"></path>
<path d="M229.21,50.24c0.98,0.37,2.79,0.47,3.77,0.37c8.45-0.79,23.86-3.58,30.03-3.96c1.64-0.1,2.62,0.18,3.44,0.37" style="fill:none;stroke:#999;stroke-width:3"></path>

<path d="M351.5,15.75c0.03,0.59,0.07,1.52-0.06,2.37c-0.77,4.99-5.2,15.94-11.26,22.64" style="fill:none;stroke:#999;stroke-width:3"></path>
<path d="M348.15,31.29c0.71,0.26,2.01,0.33,2.72,0.26c5.54-0.55,12.48-1.92,17.04-2.33c1.18-0.1,1.89,0.12,2.48,0.26" style="fill:none;stroke:#999;stroke-width:3"></path>
<path d="M338.21000000000004,50.24c0.98,0.37,2.79,0.47,3.77,0.37c8.45-0.79,23.86-3.58,30.03-3.96c1.64-0.1,2.62,0.18,3.44,0.37" style="fill:none;stroke:#999;stroke-width:3"></path>
<path d="M356.05,32.66c0.34,1.14,0.73,1.98,0.73,3.56c0,5.54-0.04,39.45-0.09,44.13" style="fill:none;stroke:#999;stroke-width:3"></path>

<path d="M460.5,15.75c0.03,0.59,0.07,1.52-0.06,2.37c-0.77,4.99-5.2,15.94-11.26,22.64" style="fill:none;stroke:#999;stroke-width:3"></path>
<path d="M457.15,31.29c0.71,0.26,2.01,0.33,2.72,0.26c5.54-0.55,12.48-1.92,17.04-2.33c1.18-0.1,1.89,0.12,2.48,0.26" style="fill:none;stroke:#999;stroke-width:3"></path>
<path d="M447.21000000000004,50.24c0.98,0.37,2.79,0.47,3.77,0.37c8.45-0.79,23.86-3.58,30.03-3.96c1.64-0.1,2.62,0.18,3.44,0.37" style="fill:none;stroke:#999;stroke-width:3"></path>
<path d="M465.05,32.66c0.34,1.14,0.73,1.98,0.73,3.56c0,5.54-0.04,39.45-0.09,44.13" style="fill:none;stroke:#999;stroke-width:3"></path>
<path d="M451.94,61.5c0.58,0.41,1.17,2.15,1.16,2.98c-0.06,5.15-0.44,9.09-0.77,15.63c-0.09,1.89,0.48,2.82,1.92,2.52c3.97-0.81,15.87-3.1,23.42-4.13" style="fill:none;stroke:#999;stroke-width:3"></path>

<path d="M569.5,15.75c0.03,0.59,0.07,1.52-0.06,2.37c-0.77,4.99-5.2,15.94-11.26,22.64" style="fill:none;stroke:#999;stroke-width:3"></path>
<path d="M566.15,31.29c0.71,0.26,2.01,0.33,2.72,0.26c5.54-0.55,12.48-1.92,17.04-2.33c1.18-0.1,1.89,0.12,2.48,0.26" style="fill:none;stroke:#999;stroke-width:3"></path>
<path d="M556.21,50.24c0.98,0.37,2.79,0.47,3.77,0.37c8.45-0.79,23.86-3.58,30.03-3.96c1.64-0.1,2.62,0.18,3.44,0.37" style="fill:none;stroke:#999;stroke-width:3"></path>
<path d="M574.05,32.66c0.34,1.14,0.73,1.98,0.73,3.56c0,5.54-0.04,39.45-0.09,44.13" style="fill:none;stroke:#999;stroke-width:3"></path>
<path d="M560.94,61.5c0.58,0.41,1.17,2.15,1.16,2.98c-0.06,5.15-0.44,9.09-0.77,15.63c-0.09,1.89,0.48,2.82,1.92,2.52c3.97-0.81,15.87-3.1,23.42-4.13" style="fill:none;stroke:#999;stroke-width:3"></path>
<path d="M586.77,60.25c0.82,0.41,1.76,3.03,1.63,3.84c-0.81,4.97-0.54,8.36-1.88,17.63" style="fill:none;stroke:#999;stroke-width:3"></path>

<path d="M678.5,15.75c0.03,0.59,0.07,1.52-0.06,2.37c-0.77,4.99-5.2,15.94-11.26,22.64" style="fill:none;stroke:#999;stroke-width:3"></path>
<path d="M675.15,31.29c0.71,0.26,2.01,0.33,2.72,0.26c5.54-0.55,12.48-1.92,17.04-2.33c1.18-0.1,1.89,0.12,2.48,0.26" style="fill:none;stroke:#999;stroke-width:3"></path>
<path d="M665.21,50.24c0.98,0.37,2.79,0.47,3.77,0.37c8.45-0.79,23.86-3.58,30.03-3.96c1.64-0.1,2.62,0.18,3.44,0.37" style="fill:none;stroke:#999;stroke-width:3"></path>
<path d="M683.05,32.66c0.34,1.14,0.73,1.98,0.73,3.56c0,5.54-0.04,39.45-0.09,44.13" style="fill:none;stroke:#999;stroke-width:3"></path>
<path d="M669.94,61.5c0.58,0.41,1.17,2.15,1.16,2.98c-0.06,5.15-0.44,9.09-0.77,15.63c-0.09,1.89,0.48,2.82,1.92,2.52c3.97-0.81,15.87-3.1,23.42-4.13" style="fill:none;stroke:#999;stroke-width:3"></path>
<path d="M695.77,60.25c0.82,0.41,1.76,3.03,1.63,3.84c-0.81,4.97-0.54,8.36-1.88,17.63" style="fill:none;stroke:#999;stroke-width:3"></path>
<path d="M709.02,37.01c0.97,0.72,2.6,0.93,4.05,0.69c1.45-0.24,21.33-2.28,23.26-2.7c3.23-0.71,3.9-0.28,3.04,3.67c-0.93,4.3-2.17,12.89-3.12,15.83" style="fill:none;stroke:#999;stroke-width:3"></path>

<path d="M787.5,15.75c0.03,0.59,0.07,1.52-0.06,2.37c-0.77,4.99-5.2,15.94-11.26,22.64" style="fill:none;stroke:#999;stroke-width:3"></path>
<path d="M784.15,31.29c0.71,0.26,2.01,0.33,2.72,0.26c5.54-0.55,12.48-1.92,17.04-2.33c1.18-0.1,1.89,0.12,2.48,0.26" style="fill:none;stroke:#999;stroke-width:3"></path>
<path d="M774.21,50.24c0.98,0.37,2.79,0.47,3.77,0.37c8.45-0.79,23.86-3.58,30.03-3.96c1.64-0.1,2.62,0.18,3.44,0.37" style="fill:none;stroke:#999;stroke-width:3"></path>
<path d="M792.05,32.66c0.34,1.14,0.73,1.98,0.73,3.56c0,5.54-0.04,39.45-0.09,44.13" style="fill:none;stroke:#999;stroke-width:3"></path>
<path d="M778.94,61.5c0.58,0.41,1.17,2.15,1.16,2.98c-0.06,5.15-0.44,9.09-0.77,15.63c-0.09,1.89,0.48,2.82,1.92,2.52c3.97-0.81,15.87-3.1,23.42-4.13" style="fill:none;stroke:#999;stroke-width:3"></path>
<path d="M804.77,60.25c0.82,0.41,1.76,3.03,1.63,3.84c-0.81,4.97-0.54,8.36-1.88,17.63" style="fill:none;stroke:#999;stroke-width:3"></path>
<path d="M818.02,37.01c0.97,0.72,2.6,0.93,4.05,0.69c1.45-0.24,21.33-2.28,23.26-2.7c3.23-0.71,3.9-0.28,3.04,3.67c-0.93,4.3-2.17,12.89-3.12,15.83" style="fill:none;stroke:#999;stroke-width:3"></path>
<path d="M813.12,58.39c0.87,0.2,3.11,0.34,4.06,0.27c13.37-0.99,21.18-2.33,35.8-2.52c1.21-0.02,2.92,0.08,5.62,0.41" style="fill:none;stroke:#999;stroke-width:3"></path>

<path d="M896.5,15.75c0.03,0.59,0.07,1.52-0.06,2.37c-0.77,4.99-5.2,15.94-11.26,22.64" style="fill:none;stroke:#999;stroke-width:3"></path>
<path d="M893.15,31.29c0.71,0.26,2.01,0.33,2.72,0.26c5.54-0.55,12.48-1.92,17.04-2.33c1.18-0.1,1.89,0.12,2.48,0.26" style="fill:none;stroke:#999;stroke-width:3"></path>
<path d="M883.21,50.24c0.98,0.37,2.79,0.47,3.77,0.37c8.45-0.79,23.86-3.58,30.03-3.96c1.64-0.1,2.62,0.18,3.44,0.37" style="fill:none;stroke:#999;stroke-width:3"></path>
<path d="M901.05,32.66c0.34,1.14,0.73,1.98,0.73,3.56c0,5.54-0.04,39.45-0.09,44.13" style="fill:none;stroke:#999;stroke-width:3"></path>
<path d="M887.94,61.5c0.58,0.41,1.17,2.15,1.16,2.98c-0.06,5.15-0.44,9.09-0.77,15.63c-0.09,1.89,0.48,2.82,1.92,2.52c3.97-0.81,15.87-3.1,23.42-4.13" style="fill:none;stroke:#999;stroke-width:3"></path>
<path d="M913.77,60.25c0.82,0.41,1.76,3.03,1.63,3.84c-0.81,4.97-0.54,8.36-1.88,17.63" style="fill:none;stroke:#999;stroke-width:3"></path>
<path d="M927.02,37.01c0.97,0.72,2.6,0.93,4.05,0.69c1.45-0.24,21.33-2.28,23.26-2.7c3.23-0.71,3.9-0.28,3.04,3.67c-0.93,4.3-2.17,12.89-3.12,15.83" style="fill:none;stroke:#999;stroke-width:3"></path>
<path d="M922.12,58.39c0.87,0.2,3.11,0.34,4.06,0.27c13.37-0.99,21.18-2.33,35.8-2.52c1.21-0.02,2.92,0.08,5.62,0.41" style="fill:none;stroke:#999;stroke-width:3"></path>
<path d="M938.01,14.75c0.54,0.98,1.56,2.05,1.56,4.1c0,37.15-1.81,61.4-24.81,76.65" style="fill:none;stroke:#999;stroke-width:3"></path>

<path d="M1005.5,15.75c0.03,0.59,0.07,1.52-0.06,2.37c-0.77,4.99-5.2,15.94-11.26,22.64" style="fill:none;stroke:#999;stroke-width:3"></path>
<path d="M1002.15,31.29c0.71,0.26,2.01,0.33,2.72,0.26c5.54-0.55,12.48-1.92,17.04-2.33c1.18-0.1,1.89,0.12,2.48,0.26" style="fill:none;stroke:#999;stroke-width:3"></path>
<path d="M992.21,50.24c0.98,0.37,2.79,0.47,3.77,0.37c8.45-0.79,23.86-3.58,30.03-3.96c1.64-0.1,2.62,0.18,3.44,0.37" style="fill:none;stroke:#999;stroke-width:3"></path>
<path d="M1010.05,32.66c0.34,1.14,0.73,1.98,0.73,3.56c0,5.54-0.04,39.45-0.09,44.13" style="fill:none;stroke:#999;stroke-width:3"></path>
<path d="M996.94,61.5c0.58,0.41,1.17,2.15,1.16,2.98c-0.06,5.15-0.44,9.09-0.77,15.63c-0.09,1.89,0.48,2.82,1.92,2.52c3.97-0.81,15.87-3.1,23.42-4.13" style="fill:none;stroke:#999;stroke-width:3"></path>
<path d="M1022.77,60.25c0.82,0.41,1.76,3.03,1.63,3.84c-0.81,4.97-0.54,8.36-1.88,17.63" style="fill:none;stroke:#999;stroke-width:3"></path>
<path d="M1036.02,37.01c0.97,0.72,2.6,0.93,4.05,0.69c1.45-0.24,21.33-2.28,23.26-2.7c3.23-0.71,3.9-0.28,3.04,3.67c-0.93,4.3-2.17,12.89-3.12,15.83" style="fill:none;stroke:#999;stroke-width:3"></path>
<path d="M1031.12,58.39c0.87,0.2,3.11,0.34,4.06,0.27c13.37-0.99,21.18-2.33,35.8-2.52c1.21-0.02,2.92,0.08,5.62,0.41" style="fill:none;stroke:#999;stroke-width:3"></path>
<path d="M1047.01,14.75c0.54,0.98,1.56,2.05,1.56,4.1c0,37.15-1.81,61.4-24.81,76.65" style="fill:none;stroke:#999;stroke-width:3"></path>
<path d="M1046.72,58.46C1054.0,70.5,1062.75,84,1073.23,92c2.39,1.82,3.01,2.31,4.02,2.5" style="fill:none;stroke:#999;stroke-width:3"></path>

</svg>