<svg width="1199px" height="109px" viewBox="0 0 1199 109" xmlns="http://www.w3.org/2000/svg" xmlns:xlink="http://www.w3.org/1999/xlink" xml:space="preserve" version="1.1" baseProfile="full">
<line x1="1" y1="1" x2="1198" y2="1" style="stroke:#ddd;stroke-width:2"></line>
<line x1="1" y1="1" x2="1" y2="108" style="stroke:#ddd;stroke-width:2"></line>
<line x1="1" y1="108" x2="1198" y2="108" style="stroke:#ddd;stroke-width:2"></line>
<line x1="1198" y1="1" x2="1198" y2="108" style="stroke:#ddd;stroke-width:2"></line>
<line x1="109" y1="1" x2="109" y2="108" style="stroke:#ddd;stroke-width:2"></line>
<line x1="218" y1="1" x2="218" y2="108" style="stroke:#ddd;stroke-width:2"></line>
<line x1="327" y1="1" x2="327" y2="108" style="stroke:#ddd;stroke-width:2"></line>
<line x1="436" y1="1" x2="436" y2="108" style="stroke:#ddd;stroke-width:2"></line>
<line x1="545" y1="1" x2="545" y2="108" style="stroke:#ddd;stroke-width:2"></line>
<line x1="654" y1="1" x2="654" y2="108" style="stroke:#ddd;stroke-width:2"></line>
<line x1="763" y1="1" x2="763" y2="108" style="stroke:#ddd;stroke-width:2"></line>
<line x1="872" y1="1" x2="872" y2="108" style="stroke:#ddd;stroke-width:2"></line>
<line x1="981" y1="1" x2="981" y2="108" style="stroke:#ddd;stroke-width:2"></line>
<line x1="1090" y1="1" x2="1090" y2="108" style="stroke:#ddd;stroke-width:2"></line>
<line x1="1" y1="54" x2="1198" y2="54" style="stroke:#ddd;stroke-width:2;stroke-dasharray:3 3"></line>
<line x1="55" y1="1" x2="55" y2="108" style="stroke:#ddd;stroke-width:2;stroke-dasharray:3 3"></line>
<line x1="164" y1="1" x2="164" y2="108" style="stroke:#ddd;stroke-width:2;stroke-dasharray:3 3"></line>
<line x1="273" y1="1" x2="273" y2="108" style="stroke:#ddd;stroke-width:2;stroke-dasharray:3 3"></line>
<line x1="382" y1="1" x2="382" y2="108" style="stroke:#ddd;stroke-width:2;stroke-dasharray:3 3"></line>
<line x1="491" y1="1" x2="491" y2="108" style="stroke:#ddd;stroke-width:2;stroke-dasharray:3 3"></line>
<line x1="600" y1="1" x2="600" y2="108" style="stroke:#ddd;stroke-width:2;stroke-dasharray:3 3"></line>
<line x1="709" y1="1" x2="709" y2="108" style="stroke:#ddd;stroke-width:2;stroke-dasharray:3 3"></line>
<line x1="818" y1="1" x2="818" y2="108" style="stroke:#ddd;stroke-width:2;stroke-dasharray:3 3"></line>
<line x1="927" y1="1" x2="927" y2="108" style="stroke:#ddd;stroke-width:2;stroke-dasharray:3 3"></line>
<line x1="1036" y1="1" x2="1036" y2="108" style="stroke:#ddd;stroke-width:2;stroke-dasharray:3 3"></line>
<line x1="1145" y1="1" x2="1145" y2="108" style="stroke:#ddd;stroke-width:2;stroke-dasharray:3 3"></line>
<path d="M15.79,16.09c3.41,2.12,8.82,8.72,9.68,12.02" style="fill:none;stroke:#999;stroke-width:3"></path>

<path d="M124.78999999999999,16.09c3.41,2.12,8.82,8.72,9.68,12.02" style="fill:none;stroke:#999;stroke-width:3"></path>
<path d="M149.64,13.14c0.02,0.38,0.04,0.99-0.04,1.54c-0.53,3.25-3.54,10.39-7.67,14.76" style="fill:none;stroke:#999;stroke-width:3"></path>

<path d="M233.79,16.09c3.41,2.12,8.82,8.72,9.68,12.02" style="fill:none;stroke:#999;stroke-width:3"></path>
<path d="M258.64,13.14c0.02,0.38,0.04,0.99-0.04,1.54c-0.53,3.25-3.54,10.39-7.67,14.76" style="fill:none;stroke:#999;stroke-width:3"></path>
<path d="M232.96,34.21c0.71,0.35,2,0.39,2.71,0.35c5-0.25,18.66-2.94,24.98-3.79c1.17-0.16,1.88,0.17,2.47,0.34" style="fill:none;stroke:#999;stroke-width:3"></path>

<path d="M342.78999999999996,16.09c3.41,2.12,8.82,8.72,9.68,12.02" style="fill:none;stroke:#999;stroke-width:3"></path>
<path d="M367.64,13.14c0.02,0.38,0.04,0.99-0.04,1.54c-0.53,3.25-3.54,10.39-7.67,14.76" style="fill:none;stroke:#999;stroke-width:3"></path>
<path d="M341.96000000000004,34.21c0.71,0.35,2,0.39,2.71,0.35c5-0.25,18.66-2.94,24.98-3.79c1.17-0.16,1.88,0.17,2.47,0.34" style="fill:none;stroke:#999;stroke-width:3"></path>
<path d="M341.93,47.95c0.62,0.34,2.76,0.4,3.39,0.34c5.24-0.46,17.31-3.07,23.59-4.16c1.03-0.18,1.66,0.16,2.18,0.33" style="fill:none;stroke:#999;stroke-width:3"></path>

<path d="M451.78999999999996,16.09c3.41,2.12,8.82,8.72,9.68,12.02" style="fill:none;stroke:#999;stroke-width:3"></path>
<path d="M476.64,13.14c0.02,0.38,0.04,0.99-0.04,1.54c-0.53,3.25-3.54,10.39-7.67,14.76" style="fill:none;stroke:#999;stroke-width:3"></path>
<path d="M450.96000000000004,34.21c0.71,0.35,2,0.39,2.71,0.35c5-0.25,18.66-2.94,24.98-3.79c1.17-0.16,1.88,0.17,2.47,0.34" style="fill:none;stroke:#999;stroke-width:3"></path>
<path d="M450.93,47.95c0.62,0.34,2.76,0.4,3.39,0.34c5.24-0.46,17.31-3.07,23.59-4.16c1.03-0.18,1.66,0.16,2.18,0.33" style="fill:none;stroke:#999;stroke-width:3"></path>
<path d="M448.0,64.89c0.66,0.77,1.88,0.9,2.54,0.77c5.09-1.05,20.48-6.57,28.71-9.16" style="fill:none;stroke:#999;stroke-width:3"></path>

<path d="M560.79,16.09c3.41,2.12,8.82,8.72,9.68,12.02" style="fill:none;stroke:#999;stroke-width:3"></path>
<path d="M585.64,13.14c0.02,0.38,0.04,0.99-0.04,1.54c-0.53,3.25-3.54,10.39-7.67,14.76" style="fill:none;stroke:#999;stroke-width:3"></path>
<path d="M559.96,34.21c0.71,0.35,2,0.39,2.71,0.35c5-0.25,18.66-2.94,24.98-3.79c1.17-0.16,1.88,0.17,2.47,0.34" style="fill:none;stroke:#999;stroke-width:3"></path>
<path d="M559.9300000000001,47.95c0.62,0.34,2.76,0.4,3.39,0.34c5.24-0.46,17.31-3.07,23.59-4.16c1.03-0.18,1.66,0.16,2.18,0.33" style="fill:none;stroke:#999;stroke-width:3"></path>
<path d="M557.0,64.89c0.66,0.77,1.88,0.9,2.54,0.77c5.09-1.05,20.48-6.57,28.71-9.16" style="fill:none;stroke:#999;stroke-width:3"></path>
<path d="M574.78,35.06c0.97,0.94,1.14,2.29,1.14,3.12C575.92,74.25,573.25,86,560.0,97" style="fill:none;stroke:#999;stroke-width:3"></path>

<path d="M669.79,16.09c3.41,2.12,8.82,8.72,9.68,12.02" style="fill:none;stroke:#999;stroke-width:3"></path>
<path d="M694.64,13.14c0.02,0.38,0.04,0.99-0.04,1.54c-0.53,3.25-3.54,10.39-7.67,14.76" style="fill:none;stroke:#999;stroke-width:3"></path>
<path d="M668.96,34.21c0.71,0.35,2,0.39,2.71,0.35c5-0.25,18.66-2.94,24.98-3.79c1.17-0.16,1.88,0.17,2.47,0.34" style="fill:none;stroke:#999;stroke-width:3"></path>
<path d="M668.9300000000001,47.95c0.62,0.34,2.76,0.4,3.39,0.34c5.24-0.46,17.31-3.07,23.59-4.16c1.03-0.18,1.66,0.16,2.18,0.33" style="fill:none;stroke:#999;stroke-width:3"></path>
<path d="M666.0,64.89c0.66,0.77,1.88,0.9,2.54,0.77c5.09-1.05,20.48-6.57,28.71-9.16" style="fill:none;stroke:#999;stroke-width:3"></path>
<path d="M683.78,35.06c0.97,0.94,1.14,2.29,1.14,3.12C684.92,74.25,682.25,86,669.0,97" style="fill:none;stroke:#999;stroke-width:3"></path>
<path d="M721.02,14c0.07,0.92,0.29,2.4-0.13,3.69C718.24,25.76,709.84,42.28,700.0,52.1" style="fill:none;stroke:#999;stroke-width:3"></path>

<path d="M778.79,16.09c3.41,2.12,8.82,8.72,9.68,12.02" style="fill:none;stroke:#999;stroke-width:3"></path>
<path d="M803.64,13.14c0.02,0.38,0.04,0.99-0.04,1.54c-0.53,3.25-3.54,10.39-7.67,14.76" style="fill:none;stroke:#999;stroke-width:3"></path>
<path d="M777.96,34.21c0.71,0.35,2,0.39,2.71,0.35c5-0.25,18.66-2.94,24.98-3.79c1.17-0.16,1.88,0.17,2.47,0.34" style="fill:none;stroke:#999;stroke-width:3"></path>
<path d="M777.9300000000001,47.95c0.62,0.34,2.76,0.4,3.39,0.34c5.24-0.46,17.31-3.07,23.59-4.16c1.03-0.18,1.66,0.16,2.18,0.33" style="fill:none;stroke:#999;stroke-width:3"></path>
<path d="M775.0,64.89c0.66,0.77,1.88,0.9,2.54,0.77c5.09-1.05,20.48-6.57,28.71-9.16" style="fill:none;stroke:#999;stroke-width:3"></path>
<path d="M792.78,35.06c0.97,0.94,1.14,2.29,1.14,3.12C793.92,74.25,791.25,86,778.0,97" style="fill:none;stroke:#999;stroke-width:3"></path>
<path d="M830.02,14c0.07,0.92,0.29,2.4-0.13,3.69C827.24,25.76,818.84,42.28,809.0,52.1" style="fill:none;stroke:#999;stroke-width:3"></path>
<path d="M830.25,18c4.63,4.66,21.48,23.51,25.39,27.38c1.33,1.31,3.03,1.88,4.36,2.25" style="fill:none;stroke:#999;stroke-width:3"></path>

<path d="M887.79,16.09c3.41,2.12,8.82,8.72,9.68,12.02" style="fill:none;stroke:#999;stroke-width:3"></path>
<path d="M912.64,13.14c0.02,0.38,0.04,0.99-0.04,1.54c-0.53,3.25-3.54,10.39-7.67,14.76" style="fill:none;stroke:#999;stroke-width:3"></path>
<path d="M886.96,34.21c0.71,0.35,2,0.39,2.71,0.35c5-0.25,18.66-2.94,24.98-3.79c1.17-0.16,1.88,0.17,2.47,0.34" style="fill:none;stroke:#999;stroke-width:3"></path>
<path d="M886.9300000000001,47.95c0.62,0.34,2.76,0.4,3.39,0.34c5.24-0.46,17.31-3.07,23.59-4.16c1.03-0.18,1.66,0.16,2.18,0.33" style="fill:none;stroke:#999;stroke-width:3"></path>
<path d="M884.0,64.89c0.66,0.77,1.88,0.9,2.54,0.77c5.09-1.05,20.48-6.57,28.71-9.16" style="fill:none;stroke:#999;stroke-width:3"></path>
<path d="M901.78,35.06c0.97,0.94,1.14,2.29,1.14,3.12C902.92,74.25,900.25,86,887.0,97" style="fill:none;stroke:#999;stroke-width:3"></path>
<path d="M939.02,14c0.07,0.92,0.29,2.4-0.13,3.69C936.24,25.76,927.84,42.28,918.0,52.1" style="fill:none;stroke:#999;stroke-width:3"></path>
<path d="M939.25,18c4.63,4.66,21.48,23.51,25.39,27.38c1.33,1.31,3.03,1.88,4.36,2.25" style="fill:none;stroke:#999;stroke-width:3"></path>
<path d="M930.651929,46.059857 c 0.796567,0.398856 1.99342,0.319857 3.120988,0.180143 5.4,-0.66 13.08,-1.76 18.48,-2.24 1.157425,-0.08971 2.576567,0.01086 3.52342,0.330429" style="fill:none;stroke:#999;stroke-width:3"></path>

<path d="M996.79,16.09c3.41,2.12,8.82,8.72,9.68,12.02" style="fill:none;stroke:#999;stroke-width:3"></path>
<path d="M1021.64,13.14c0.02,0.38,0.04,0.99-0.04,1.54c-0.53,3.25-3.54,10.39-7.67,14.76" style="fill:none;stroke:#999;stroke-width:3"></path>
<path d="M995.96,34.21c0.71,0.35,2,0.39,2.71,0.35c5-0.25,18.66-2.94,24.98-3.79c1.17-0.16,1.88,0.17,2.47,0.34" style="fill:none;stroke:#999;stroke-width:3"></path>
<path d="M995.9300000000001,47.95c0.62,0.34,2.76,0.4,3.39,0.34c5.24-0.46,17.31-3.07,23.59-4.16c1.03-0.18,1.66,0.16,2.18,0.33" style="fill:none;stroke:#999;stroke-width:3"></path>
<path d="M993.0,64.89c0.66,0.77,1.88,0.9,2.54,0.77c5.09-1.05,20.48-6.57,28.71-9.16" style="fill:none;stroke:#999;stroke-width:3"></path>
<path d="M1010.78,35.06c0.97,0.94,1.14,2.29,1.14,3.12C1011.92,74.25,1009.25,86,996.0,97" style="fill:none;stroke:#999;stroke-width:3"></path>
<path d="M1048.02,14c0.07,0.92,0.29,2.4-0.13,3.69C1045.24,25.76,1036.8400000000001,42.28,1027.0,52.1" style="fill:none;stroke:#999;stroke-width:3"></path>
<path d="M1048.25,18c4.63,4.66,21.48,23.51,25.39,27.38c1.33,1.31,3.03,1.88,4.36,2.25" style="fill:none;stroke:#999;stroke-width:3"></path>
<path d="M1039.651929,46.059857 c 0.796567,0.398856 1.99342,0.319857 3.120988,0.180143 5.4,-0.66 13.08,-1.76 18.48,-2.24 1.157425,-0.08971 2.576567,0.01086 3.52342,0.330429" style="fill:none;stroke:#999;stroke-width:3"></path>
<path d="M1038.76,53.58 c0.61,0.15,3,1,4.21,0.87c3.29-0.37,17.99-4.02,19.51-4.17c1.52-0.15,4.28-0.29,3.95,2.89c-0.43,4.17-2.68,16.92-6,23.84c-1.89,3.94-3.18,3.45-6.23,0.46" style="fill:none;stroke:#999;stroke-width:3"></path>

<path d="M1105.79,16.09c3.41,2.12,8.82,8.72,9.68,12.02" style="fill:none;stroke:#999;stroke-width:3"></path>
<path d="M1130.6399999999999,13.14c0.02,0.38,0.04,0.99-0.04,1.54c-0.53,3.25-3.54,10.39-7.67,14.76" style="fill:none;stroke:#999;stroke-width:3"></path>
<path d="M1104.96,34.21c0.71,0.35,2,0.39,2.71,0.35c5-0.25,18.66-2.94,24.98-3.79c1.17-0.16,1.88,0.17,2.47,0.34" style="fill:none;stroke:#999;stroke-width:3"></path>
<path d="M1104.93,47.95c0.62,0.34,2.76,0.4,3.39,0.34c5.24-0.46,17.31-3.07,23.59-4.16c1.03-0.18,1.66,0.16,2.18,0.33" style="fill:none;stroke:#999;stroke-width:3"></path>
<path d="M1102.0,64.89c0.66,0.77,1.88,0.9,2.54,0.77c5.09-1.05,20.48-6.57,28.71-9.16" style="fill:none;stroke:#999;stroke-width:3"></path>
<path d="M1119.78,35.06c0.97,0.94,1.14,2.29,1.14,3.12C1120.92,74.25,1118.25,86,1105.0,97" style="fill:none;stroke:#999;stroke-width:3"></path>
<path d="M1157.02,14c0.07,0.92,0.29,2.4-0.13,3.69C1154.24,25.76,1145.8400000000001,42.28,1136.0,52.1" style="fill:none;stroke:#999;stroke-width:3"></path>
<path d="M1157.25,18c4.63,4.66,21.48,23.51,25.39,27.38c1.33,1.31,3.03,1.88,4.36,2.25" style="fill:none;stroke:#999;stroke-width:3"></path>
<path d="M1148.651929,46.059857 c 0.796567,0.398856 1.99342,0.319857 3.120988,0.180143 5.4,-0.66 13.08,-1.76 18.48,-2.24 1.157425,-0.08971 2.576567,0.01086 3.52342,0.330429" style="fill:none;stroke:#999;stroke-width:3"></path>
<path d="M1147.76,53.58 c0.61,0.15,3,1,4.21,0.87c3.29-0.37,17.99-4.02,19.51-4.17c1.52-0.15,4.28-0.29,3.95,2.89c-0.43,4.17-2.68,16.92-6,23.84c-1.89,3.94-3.18,3.45-6.23,0.46" style="fill:none;stroke:#999;stroke-width:3"></path>
<path d="M1154.94,54.55 c 0.87,0.87 1.8,2 1.8,3.5 -0.219826,13.545146 0.202719,23.466557 -0.18,37.006667" style="fill:none;stroke:#999;stroke-width:3"></path>

</svg>