<svg width="1090px" height="109px" viewBox="0 0 1090 109" xmlns="http://www.w3.org/2000/svg" xmlns:xlink="http://www.w3.org/1999/xlink" xml:space="preserve" version="1.1" baseProfile="full">
<line x1="1" y1="1" x2="1089" y2="1" style="stroke:#ddd;stroke-width:2"></line>
<line x1="1" y1="1" x2="1" y2="108" style="stroke:#ddd;stroke-width:2"></line>
<line x1="1" y1="108" x2="1089" y2="108" style="stroke:#ddd;stroke-width:2"></line>
<line x1="1089" y1="1" x2="1089" y2="108" style="stroke:#ddd;stroke-width:2"></line>
<line x1="109" y1="1" x2="109" y2="108" style="stroke:#ddd;stroke-width:2"></line>
<line x1="218" y1="1" x2="218" y2="108" style="stroke:#ddd;stroke-width:2"></line>
<line x1="327" y1="1" x2="327" y2="108" style="stroke:#ddd;stroke-width:2"></line>
<line x1="436" y1="1" x2="436" y2="108" style="stroke:#ddd;stroke-width:2"></line>
<line x1="545" y1="1" x2="545" y2="108" style="stroke:#ddd;stroke-width:2"></line>
<line x1="654" y1="1" x2="654" y2="108" style="stroke:#ddd;stroke-width:2"></line>
<line x1="763" y1="1" x2="763" y2="108" style="stroke:#ddd;stroke-width:2"></line>
<line x1="872" y1="1" x2="872" y2="108" style="stroke:#ddd;stroke-width:2"></line>
<line x1="981" y1="1" x2="981" y2="108" style="stroke:#ddd;stroke-width:2"></line>
<line x1="1" y1="54" x2="1089" y2="54" style="stroke:#ddd;stroke-width:2;stroke-dasharray:3 3"></line>
<line x1="55" y1="1" x2="55" y2="108" style="stroke:#ddd;stroke-width:2;stroke-dasharray:3 3"></line>
<line x1="164" y1="1" x2="164" y2="108" style="stroke:#ddd;stroke-width:2;stroke-dasharray:3 3"></line>
<line x1="273" y1="1" x2="273" y2="108" style="stroke:#ddd;stroke-width:2;stroke-dasharray:3 3"></line>
<line x1="382" y1="1" x2="382" y2="108" style="stroke:#ddd;stroke-width:2;stroke-dasharray:3 3"></line>
<line x1="491" y1="1" x2="491" y2="108" style="stroke:#ddd;stroke-width:2;stroke-dasharray:3 3"></line>
<line x1="600" y1="1" x2="600" y2="108" style="stroke:#ddd;stroke-width:2;stroke-dasharray:3 3"></line>
<line x1="709" y1="1" x2="709" y2="108" style="stroke:#ddd;stroke-width:2;stroke-dasharray:3 3"></line>
<line x1="818" y1="1" x2="818" y2="108" style="stroke:#ddd;stroke-width:2;stroke-dasharray:3 3"></line>
<line x1="927" y1="1" x2="927" y2="108" style="stroke:#ddd;stroke-width:2;stroke-dasharray:3 3"></line>
<line x1="1036" y1="1" x2="1036" y2="108" style="stroke:#ddd;stroke-width:2;stroke-dasharray:3 3"></line>
<path d="M42.48,21.41c0.07,0.32,0.33,0.97-0.15,1.27c-8.07,5.09-16.3,9.42-26.58,12.08" style="fill:none;stroke:#999;stroke-width:3"></path>

<path d="M151.48,21.41c0.07,0.32,0.33,0.97-0.15,1.27c-8.07,5.09-16.3,9.42-26.58,12.08" style="fill:none;stroke:#999;stroke-width:3"></path>
<path d="M121.97,42.61c0.51,0.34,3.94,0.94,4.46,0.91c5.31-0.39,16.08-1.58,24.5-2.95c0.84-0.14,2.36,0.16,2.79,0.33" style="fill:none;stroke:#999;stroke-width:3"></path>

<path d="M260.48,21.41c0.07,0.32,0.33,0.97-0.15,1.27c-8.07,5.09-16.3,9.42-26.58,12.08" style="fill:none;stroke:#999;stroke-width:3"></path>
<path d="M230.97,42.61c0.51,0.34,3.94,0.94,4.46,0.91c5.31-0.39,16.08-1.58,24.5-2.95c0.84-0.14,2.36,0.16,2.79,0.33" style="fill:none;stroke:#999;stroke-width:3"></path>
<path d="M227.84,55.8c0.42,0.31,3.11,0.93,4.23,0.93c5.85,0.01,19.16-2.11,28.69-3.35c1.11-0.15,2.11,0.31,2.81,0.62" style="fill:none;stroke:#999;stroke-width:3"></path>

<path d="M369.48,21.41c0.07,0.32,0.33,0.97-0.15,1.27c-8.07,5.09-16.3,9.42-26.58,12.08" style="fill:none;stroke:#999;stroke-width:3"></path>
<path d="M339.97,42.61c0.51,0.34,3.94,0.94,4.46,0.91c5.31-0.39,16.08-1.58,24.5-2.95c0.84-0.14,2.36,0.16,2.79,0.33" style="fill:none;stroke:#999;stroke-width:3"></path>
<path d="M336.84000000000003,55.8c0.42,0.31,3.11,0.93,4.23,0.93c5.85,0.01,19.16-2.11,28.69-3.35c1.11-0.15,2.11,0.31,2.81,0.62" style="fill:none;stroke:#999;stroke-width:3"></path>
<path d="M357.01,15c0.65,0.45,1.17,3.35,1.17,4.3c0,3.62,0.22,70.55,0.09,76.2" style="fill:none;stroke:#999;stroke-width:3"></path>

<path d="M478.48,21.41c0.07,0.32,0.33,0.97-0.15,1.27c-8.07,5.09-16.3,9.42-26.58,12.08" style="fill:none;stroke:#999;stroke-width:3"></path>
<path d="M448.97,42.61c0.51,0.34,3.94,0.94,4.46,0.91c5.31-0.39,16.08-1.58,24.5-2.95c0.84-0.14,2.36,0.16,2.79,0.33" style="fill:none;stroke:#999;stroke-width:3"></path>
<path d="M445.84000000000003,55.8c0.42,0.31,3.11,0.93,4.23,0.93c5.85,0.01,19.16-2.11,28.69-3.35c1.11-0.15,2.11,0.31,2.81,0.62" style="fill:none;stroke:#999;stroke-width:3"></path>
<path d="M466.01,15c0.65,0.45,1.17,3.35,1.17,4.3c0,3.62,0.22,70.55,0.09,76.2" style="fill:none;stroke:#999;stroke-width:3"></path>
<path d="M466.53,55.36c-3.67,9.95-13.16,25.03-20.79,30.66" style="fill:none;stroke:#999;stroke-width:3"></path>

<path d="M587.48,21.41c0.07,0.32,0.33,0.97-0.15,1.27c-8.07,5.09-16.3,9.42-26.58,12.08" style="fill:none;stroke:#999;stroke-width:3"></path>
<path d="M557.97,42.61c0.51,0.34,3.94,0.94,4.46,0.91c5.31-0.39,16.08-1.58,24.5-2.95c0.84-0.14,2.36,0.16,2.79,0.33" style="fill:none;stroke:#999;stroke-width:3"></path>
<path d="M554.84,55.8c0.42,0.31,3.11,0.93,4.23,0.93c5.85,0.01,19.16-2.11,28.69-3.35c1.11-0.15,2.11,0.31,2.81,0.62" style="fill:none;stroke:#999;stroke-width:3"></path>
<path d="M575.01,15c0.65,0.45,1.17,3.35,1.17,4.3c0,3.62,0.22,70.55,0.09,76.2" style="fill:none;stroke:#999;stroke-width:3"></path>
<path d="M575.53,55.36c-3.67,9.95-13.16,25.03-20.79,30.66" style="fill:none;stroke:#999;stroke-width:3"></path>
<path d="M579.25,60.98c4.93,2.65,8.54,6.74,11.5,11.32" style="fill:none;stroke:#999;stroke-width:3"></path>

<path d="M696.48,21.41c0.07,0.32,0.33,0.97-0.15,1.27c-8.07,5.09-16.3,9.42-26.58,12.08" style="fill:none;stroke:#999;stroke-width:3"></path>
<path d="M666.97,42.61c0.51,0.34,3.94,0.94,4.46,0.91c5.31-0.39,16.08-1.58,24.5-2.95c0.84-0.14,2.36,0.16,2.79,0.33" style="fill:none;stroke:#999;stroke-width:3"></path>
<path d="M663.84,55.8c0.42,0.31,3.11,0.93,4.23,0.93c5.85,0.01,19.16-2.11,28.69-3.35c1.11-0.15,2.11,0.31,2.81,0.62" style="fill:none;stroke:#999;stroke-width:3"></path>
<path d="M684.01,15c0.65,0.45,1.17,3.35,1.17,4.3c0,3.62,0.22,70.55,0.09,76.2" style="fill:none;stroke:#999;stroke-width:3"></path>
<path d="M684.53,55.36c-3.67,9.95-13.16,25.03-20.79,30.66" style="fill:none;stroke:#999;stroke-width:3"></path>
<path d="M688.25,60.98c4.93,2.65,8.54,6.74,11.5,11.32" style="fill:none;stroke:#999;stroke-width:3"></path>
<path d="M710.49,27.37c1.67,0.32,4.14,0.26,4.61,0.27c5.66,0.11,17.21-1.46,22.71-2.07c0.76-0.09,3.57-0.37,3.95-0.24" style="fill:none;stroke:#999;stroke-width:3"></path>

<path d="M805.48,21.41c0.07,0.32,0.33,0.97-0.15,1.27c-8.07,5.09-16.3,9.42-26.58,12.08" style="fill:none;stroke:#999;stroke-width:3"></path>
<path d="M775.97,42.61c0.51,0.34,3.94,0.94,4.46,0.91c5.31-0.39,16.08-1.58,24.5-2.95c0.84-0.14,2.36,0.16,2.79,0.33" style="fill:none;stroke:#999;stroke-width:3"></path>
<path d="M772.84,55.8c0.42,0.31,3.11,0.93,4.23,0.93c5.85,0.01,19.16-2.11,28.69-3.35c1.11-0.15,2.11,0.31,2.81,0.62" style="fill:none;stroke:#999;stroke-width:3"></path>
<path d="M793.01,15c0.65,0.45,1.17,3.35,1.17,4.3c0,3.62,0.22,70.55,0.09,76.2" style="fill:none;stroke:#999;stroke-width:3"></path>
<path d="M793.53,55.36c-3.67,9.95-13.16,25.03-20.79,30.66" style="fill:none;stroke:#999;stroke-width:3"></path>
<path d="M797.25,60.98c4.93,2.65,8.54,6.74,11.5,11.32" style="fill:none;stroke:#999;stroke-width:3"></path>
<path d="M819.49,27.37c1.67,0.32,4.14,0.26,4.61,0.27c5.66,0.11,17.21-1.46,22.71-2.07c0.76-0.09,3.57-0.37,3.95-0.24" style="fill:none;stroke:#999;stroke-width:3"></path>
<path d="M813.5,48.54c0.84,0.29,3.95,0.33,4.79,0.29c7.46-0.33,27.13-3.14,37.47-2.94c1.4,0.03,3.29,0.14,3.99,0.28" style="fill:none;stroke:#999;stroke-width:3"></path>

<path d="M914.48,21.41c0.07,0.32,0.33,0.97-0.15,1.27c-8.07,5.09-16.3,9.42-26.58,12.08" style="fill:none;stroke:#999;stroke-width:3"></path>
<path d="M884.97,42.61c0.51,0.34,3.94,0.94,4.46,0.91c5.31-0.39,16.08-1.58,24.5-2.95c0.84-0.14,2.36,0.16,2.79,0.33" style="fill:none;stroke:#999;stroke-width:3"></path>
<path d="M881.84,55.8c0.42,0.31,3.11,0.93,4.23,0.93c5.85,0.01,19.16-2.11,28.69-3.35c1.11-0.15,2.11,0.31,2.81,0.62" style="fill:none;stroke:#999;stroke-width:3"></path>
<path d="M902.01,15c0.65,0.45,1.17,3.35,1.17,4.3c0,3.62,0.22,70.55,0.09,76.2" style="fill:none;stroke:#999;stroke-width:3"></path>
<path d="M902.53,55.36c-3.67,9.95-13.16,25.03-20.79,30.66" style="fill:none;stroke:#999;stroke-width:3"></path>
<path d="M906.25,60.98c4.93,2.65,8.54,6.74,11.5,11.32" style="fill:none;stroke:#999;stroke-width:3"></path>
<path d="M928.49,27.37c1.67,0.32,4.14,0.26,4.61,0.27c5.66,0.11,17.21-1.46,22.71-2.07c0.76-0.09,3.57-0.37,3.95-0.24" style="fill:none;stroke:#999;stroke-width:3"></path>
<path d="M922.5,48.54c0.84,0.29,3.95,0.33,4.79,0.29c7.46-0.33,27.13-3.14,37.47-2.94c1.4,0.03,3.29,0.14,3.99,0.28" style="fill:none;stroke:#999;stroke-width:3"></path>
<path d="M941.54,50.5c0.3,1.26,0.38,2.91-0.24,4.43c-4.66,11.29-11.23,22.56-18.06,33.05c-1.86,2.85-0.82,4.18,2.1,3.6c6.13-1.21,20.58-5,34.41-8.08" style="fill:none;stroke:#999;stroke-width:3"></path>

<path d="M1023.48,21.41c0.07,0.32,0.33,0.97-0.15,1.27c-8.07,5.09-16.3,9.42-26.58,12.08" style="fill:none;stroke:#999;stroke-width:3"></path>
<path d="M993.97,42.61c0.51,0.34,3.94,0.94,4.46,0.91c5.31-0.39,16.08-1.58,24.5-2.95c0.84-0.14,2.36,0.16,2.79,0.33" style="fill:none;stroke:#999;stroke-width:3"></path>
<path d="M990.84,55.8c0.42,0.31,3.11,0.93,4.23,0.93c5.85,0.01,19.16-2.11,28.69-3.35c1.11-0.15,2.11,0.31,2.81,0.62" style="fill:none;stroke:#999;stroke-width:3"></path>
<path d="M1011.01,15c0.65,0.45,1.17,3.35,1.17,4.3c0,3.62,0.22,70.55,0.09,76.2" style="fill:none;stroke:#999;stroke-width:3"></path>
<path d="M1011.53,55.36c-3.67,9.95-13.16,25.03-20.79,30.66" style="fill:none;stroke:#999;stroke-width:3"></path>
<path d="M1015.25,60.98c4.93,2.65,8.54,6.74,11.5,11.32" style="fill:none;stroke:#999;stroke-width:3"></path>
<path d="M1037.49,27.37c1.67,0.32,4.14,0.26,4.61,0.27c5.66,0.11,17.21-1.46,22.71-2.07c0.76-0.09,3.57-0.37,3.95-0.24" style="fill:none;stroke:#999;stroke-width:3"></path>
<path d="M1031.5,48.54c0.84,0.29,3.95,0.33,4.79,0.29c7.46-0.33,27.13-3.14,37.47-2.94c1.4,0.03,3.29,0.14,3.99,0.28" style="fill:none;stroke:#999;stroke-width:3"></path>
<path d="M1050.54,50.5c0.3,1.26,0.38,2.91-0.24,4.43c-4.66,11.29-11.23,22.56-18.06,33.05c-1.86,2.85-0.82,4.18,2.1,3.6c6.13-1.21,20.58-5,34.41-8.08" style="fill:none;stroke:#999;stroke-width:3"></path>
<path d="M1059.13,70.33c5.53,4.59,13.53,18.75,14.91,25.89" style="fill:none;stroke:#999;stroke-width:3"></path>

</svg>