<svg width="654px" height="109px" viewBox="0 0 654 109" xmlns="http://www.w3.org/2000/svg" xmlns:xlink="http://www.w3.org/1999/xlink" xml:space="preserve" version="1.1" baseProfile="full">
<line x1="1" y1="1" x2="653" y2="1" style="stroke:#ddd;stroke-width:2"></line>
<line x1="1" y1="1" x2="1" y2="108" style="stroke:#ddd;stroke-width:2"></line>
<line x1="1" y1="108" x2="653" y2="108" style="stroke:#ddd;stroke-width:2"></line>
<line x1="653" y1="1" x2="653" y2="108" style="stroke:#ddd;stroke-width:2"></line>
<line x1="109" y1="1" x2="109" y2="108" style="stroke:#ddd;stroke-width:2"></line>
<line x1="218" y1="1" x2="218" y2="108" style="stroke:#ddd;stroke-width:2"></line>
<line x1="327" y1="1" x2="327" y2="108" style="stroke:#ddd;stroke-width:2"></line>
<line x1="436" y1="1" x2="436" y2="108" style="stroke:#ddd;stroke-width:2"></line>
<line x1="545" y1="1" x2="545" y2="108" style="stroke:#ddd;stroke-width:2"></line>
<line x1="1" y1="54" x2="653" y2="54" style="stroke:#ddd;stroke-width:2;stroke-dasharray:3 3"></line>
<line x1="55" y1="1" x2="55" y2="108" style="stroke:#ddd;stroke-width:2;stroke-dasharray:3 3"></line>
<line x1="164" y1="1" x2="164" y2="108" style="stroke:#ddd;stroke-width:2;stroke-dasharray:3 3"></line>
<line x1="273" y1="1" x2="273" y2="108" style="stroke:#ddd;stroke-width:2;stroke-dasharray:3 3"></line>
<line x1="382" y1="1" x2="382" y2="108" style="stroke:#ddd;stroke-width:2;stroke-dasharray:3 3"></line>
<line x1="491" y1="1" x2="491" y2="108" style="stroke:#ddd;stroke-width:2;stroke-dasharray:3 3"></line>
<line x1="600" y1="1" x2="600" y2="108" style="stroke:#ddd;stroke-width:2;stroke-dasharray:3 3"></line>
<path d="M19.0,30.27c1.11,1.11,1.44,2.82,1.44,4.56c0,5.46,0.16,39.85,0.21,53.67c0.01,3.04,0.02,5.09,0.02,5.61" style="fill:none;stroke:#999;stroke-width:3"></path>

<path d="M128.0,30.27c1.11,1.11,1.44,2.82,1.44,4.56c0,5.46,0.16,39.85,0.21,53.67c0.01,3.04,0.02,5.09,0.02,5.61" style="fill:none;stroke:#999;stroke-width:3"></path>
<path d="M130.01,32.11c16.09-1.31,61.86-4.76,63.38-4.76c3.86,0,5.92,1.9,5.92,5.3c0,1.91,0.24,54.28,0.24,58.68c0,9.67-6.04,2.42-9.44-0.71" style="fill:none;stroke:#999;stroke-width:3"></path>

<path d="M237.0,30.27c1.11,1.11,1.44,2.82,1.44,4.56c0,5.46,0.16,39.85,0.21,53.67c0.01,3.04,0.02,5.09,0.02,5.61" style="fill:none;stroke:#999;stroke-width:3"></path>
<path d="M239.01,32.11c16.09-1.31,61.86-4.76,63.38-4.76c3.86,0,5.92,1.9,5.92,5.3c0,1.91,0.24,54.28,0.24,58.68c0,9.67-6.04,2.42-9.44-0.71" style="fill:none;stroke:#999;stroke-width:3"></path>
<path d="M271.28,12.75C272.0,14,272.03,15.33,272.1,16.79c0.65,13.46-8.35,34.46-24.6,38.71" style="fill:none;stroke:#999;stroke-width:3"></path>

<path d="M346.0,30.27c1.11,1.11,1.44,2.82,1.44,4.56c0,5.46,0.16,39.85,0.21,53.67c0.01,3.04,0.02,5.09,0.02,5.61" style="fill:none;stroke:#999;stroke-width:3"></path>
<path d="M348.01,32.11c16.09-1.31,61.86-4.76,63.38-4.76c3.86,0,5.92,1.9,5.92,5.3c0,1.91,0.24,54.28,0.24,58.68c0,9.67-6.04,2.42-9.44-0.71" style="fill:none;stroke:#999;stroke-width:3"></path>
<path d="M380.28,12.75C381.0,14,381.03,15.33,381.1,16.79c0.65,13.46-8.35,34.46-24.6,38.71" style="fill:none;stroke:#999;stroke-width:3"></path>
<path d="M381.5,37.25c8.56,3.18,22.11,13.06,24.25,18" style="fill:none;stroke:#999;stroke-width:3"></path>

<path d="M455.0,30.27c1.11,1.11,1.44,2.82,1.44,4.56c0,5.46,0.16,39.85,0.21,53.67c0.01,3.04,0.02,5.09,0.02,5.61" style="fill:none;stroke:#999;stroke-width:3"></path>
<path d="M457.01,32.11c16.09-1.31,61.86-4.76,63.38-4.76c3.86,0,5.92,1.9,5.92,5.3c0,1.91,0.24,54.28,0.24,58.68c0,9.67-6.04,2.42-9.44-0.71" style="fill:none;stroke:#999;stroke-width:3"></path>
<path d="M489.28,12.75C490.0,14,490.03,15.33,490.1,16.79c0.65,13.46-8.35,34.46-24.6,38.71" style="fill:none;stroke:#999;stroke-width:3"></path>
<path d="M490.5,37.25c8.56,3.18,22.11,13.06,24.25,18" style="fill:none;stroke:#999;stroke-width:3"></path>
<path d="M488.0,51.38c0.12,1.22,0.05,2.34-0.47,3.45c-3.28,7.05-11.03,17.05-21.23,22.4" style="fill:none;stroke:#999;stroke-width:3"></path>

<path d="M564.0,30.27c1.11,1.11,1.44,2.82,1.44,4.56c0,5.46,0.16,39.85,0.21,53.67c0.01,3.04,0.02,5.09,0.02,5.61" style="fill:none;stroke:#999;stroke-width:3"></path>
<path d="M566.01,32.11c16.09-1.31,61.86-4.76,63.38-4.76c3.86,0,5.92,1.9,5.92,5.3c0,1.91,0.24,54.28,0.24,58.68c0,9.67-6.04,2.42-9.44-0.71" style="fill:none;stroke:#999;stroke-width:3"></path>
<path d="M598.28,12.75C599.0,14,599.03,15.33,599.1,16.79c0.65,13.46-8.35,34.46-24.6,38.71" style="fill:none;stroke:#999;stroke-width:3"></path>
<path d="M599.5,37.25c8.56,3.18,22.11,13.06,24.25,18" style="fill:none;stroke:#999;stroke-width:3"></path>
<path d="M597.0,51.38c0.12,1.22,0.05,2.34-0.47,3.45c-3.28,7.05-11.03,17.05-21.23,22.4" style="fill:none;stroke:#999;stroke-width:3"></path>
<path d="M597.0,62.25C605.47,65.03,618.88,73.68,621.0,78" style="fill:none;stroke:#999;stroke-width:3"></path>

</svg>