<svg width="763px" height="109px" viewBox="0 0 763 109" xmlns="http://www.w3.org/2000/svg" xmlns:xlink="http://www.w3.org/1999/xlink" xml:space="preserve" version="1.1" baseProfile="full">
<line x1="1" y1="1" x2="762" y2="1" style="stroke:#ddd;stroke-width:2"></line>
<line x1="1" y1="1" x2="1" y2="108" style="stroke:#ddd;stroke-width:2"></line>
<line x1="1" y1="108" x2="762" y2="108" style="stroke:#ddd;stroke-width:2"></line>
<line x1="762" y1="1" x2="762" y2="108" style="stroke:#ddd;stroke-width:2"></line>
<line x1="109" y1="1" x2="109" y2="108" style="stroke:#ddd;stroke-width:2"></line>
<line x1="218" y1="1" x2="218" y2="108" style="stroke:#ddd;stroke-width:2"></line>
<line x1="327" y1="1" x2="327" y2="108" style="stroke:#ddd;stroke-width:2"></line>
<line x1="436" y1="1" x2="436" y2="108" style="stroke:#ddd;stroke-width:2"></line>
<line x1="545" y1="1" x2="545" y2="108" style="stroke:#ddd;stroke-width:2"></line>
<line x1="654" y1="1" x2="654" y2="108" style="stroke:#ddd;stroke-width:2"></line>
<line x1="1" y1="54" x2="762" y2="54" style="stroke:#ddd;stroke-width:2;stroke-dasharray:3 3"></line>
<line x1="55" y1="1" x2="55" y2="108" style="stroke:#ddd;stroke-width:2;stroke-dasharray:3 3"></line>
<line x1="164" y1="1" x2="164" y2="108" style="stroke:#ddd;stroke-width:2;stroke-dasharray:3 3"></line>
<line x1="273" y1="1" x2="273" y2="108" style="stroke:#ddd;stroke-width:2;stroke-dasharray:3 3"></line>
<line x1="382" y1="1" x2="382" y2="108" style="stroke:#ddd;stroke-width:2;stroke-dasharray:3 3"></line>
<line x1="491" y1="1" x2="491" y2="108" style="stroke:#ddd;stroke-width:2;stroke-dasharray:3 3"></line>
<line x1="600" y1="1" x2="600" y2="108" style="stroke:#ddd;stroke-width:2;stroke-dasharray:3 3"></line>
<line x1="709" y1="1" x2="709" y2="108" style="stroke:#ddd;stroke-width:2;stroke-dasharray:3 3"></line>
<path d="M19.41,17.74c0.8,0.8,1.2,2.01,1.2,3.55c0,40.46-1.61,53.46-9.61,67.1" style="fill:none;stroke:#999;stroke-width:3"></path>

<path d="M128.41,17.74c0.8,0.8,1.2,2.01,1.2,3.55c0,40.46-1.61,53.46-9.61,67.1" style="fill:none;stroke:#999;stroke-width:3"></path>
<path d="M130.56,19.56c4.73-1.14,12.33-2.99,16.57-3.55c3.21-0.43,4.16,0.95,4.16,3.99c-0.01,8.26-0.1,44.7-0.1,61.55c0,12.95-3.66,6.17-6.78,3.04" style="fill:none;stroke:#999;stroke-width:3"></path>

<path d="M237.41,17.74c0.8,0.8,1.2,2.01,1.2,3.55c0,40.46-1.61,53.46-9.61,67.1" style="fill:none;stroke:#999;stroke-width:3"></path>
<path d="M239.56,19.56c4.73-1.14,12.33-2.99,16.57-3.55c3.21-0.43,4.16,0.95,4.16,3.99c-0.01,8.26-0.1,44.7-0.1,61.55c0,12.95-3.66,6.17-6.78,3.04" style="fill:none;stroke:#999;stroke-width:3"></path>
<path d="M239.81,37.2c7.44-1.08,13.44-1.95,19.49-2.58" style="fill:none;stroke:#999;stroke-width:3"></path>

<path d="M346.40999999999997,17.74c0.8,0.8,1.2,2.01,1.2,3.55c0,40.46-1.61,53.46-9.61,67.1" style="fill:none;stroke:#999;stroke-width:3"></path>
<path d="M348.56,19.56c4.73-1.14,12.33-2.99,16.57-3.55c3.21-0.43,4.16,0.95,4.16,3.99c-0.01,8.26-0.1,44.7-0.1,61.55c0,12.95-3.66,6.17-6.78,3.04" style="fill:none;stroke:#999;stroke-width:3"></path>
<path d="M348.81,37.2c7.44-1.08,13.44-1.95,19.49-2.58" style="fill:none;stroke:#999;stroke-width:3"></path>
<path d="M348.0,55.16c6-0.66,14.28-1.53,20.15-1.95" style="fill:none;stroke:#999;stroke-width:3"></path>

<path d="M455.40999999999997,17.74c0.8,0.8,1.2,2.01,1.2,3.55c0,40.46-1.61,53.46-9.61,67.1" style="fill:none;stroke:#999;stroke-width:3"></path>
<path d="M457.56,19.56c4.73-1.14,12.33-2.99,16.57-3.55c3.21-0.43,4.16,0.95,4.16,3.99c-0.01,8.26-0.1,44.7-0.1,61.55c0,12.95-3.66,6.17-6.78,3.04" style="fill:none;stroke:#999;stroke-width:3"></path>
<path d="M457.81,37.2c7.44-1.08,13.44-1.95,19.49-2.58" style="fill:none;stroke:#999;stroke-width:3"></path>
<path d="M457.0,55.16c6-0.66,14.28-1.53,20.15-1.95" style="fill:none;stroke:#999;stroke-width:3"></path>
<path d="M491.87,21.16c2.25,0.47,4.39,0.2,6.13-0.01c5.43-0.66,15.22-1.92,21.76-2.53c1.9-0.18,3.85-0.29,5.71,0.25" style="fill:none;stroke:#999;stroke-width:3"></path>

<path d="M564.41,17.74c0.8,0.8,1.2,2.01,1.2,3.55c0,40.46-1.61,53.46-9.61,67.1" style="fill:none;stroke:#999;stroke-width:3"></path>
<path d="M566.56,19.56c4.73-1.14,12.33-2.99,16.57-3.55c3.21-0.43,4.16,0.95,4.16,3.99c-0.01,8.26-0.1,44.7-0.1,61.55c0,12.95-3.66,6.17-6.78,3.04" style="fill:none;stroke:#999;stroke-width:3"></path>
<path d="M566.81,37.2c7.44-1.08,13.44-1.95,19.49-2.58" style="fill:none;stroke:#999;stroke-width:3"></path>
<path d="M566.0,55.16c6-0.66,14.28-1.53,20.15-1.95" style="fill:none;stroke:#999;stroke-width:3"></path>
<path d="M600.87,21.16c2.25,0.47,4.39,0.2,6.13-0.01c5.43-0.66,15.22-1.92,21.76-2.53c1.9-0.18,3.85-0.29,5.71,0.25" style="fill:none;stroke:#999;stroke-width:3"></path>
<path d="M594.63,44.48c2.32,0.74,4.9,0.23,7.25-0.01c9.72-0.98,24.58-2.42,33.51-3.08c2.22-0.16,4.3-0.3,6.49,0.12" style="fill:none;stroke:#999;stroke-width:3"></path>

<path d="M673.41,17.74c0.8,0.8,1.2,2.01,1.2,3.55c0,40.46-1.61,53.46-9.61,67.1" style="fill:none;stroke:#999;stroke-width:3"></path>
<path d="M675.56,19.56c4.73-1.14,12.33-2.99,16.57-3.55c3.21-0.43,4.16,0.95,4.16,3.99c-0.01,8.26-0.1,44.7-0.1,61.55c0,12.95-3.66,6.17-6.78,3.04" style="fill:none;stroke:#999;stroke-width:3"></path>
<path d="M675.81,37.2c7.44-1.08,13.44-1.95,19.49-2.58" style="fill:none;stroke:#999;stroke-width:3"></path>
<path d="M675.0,55.16c6-0.66,14.28-1.53,20.15-1.95" style="fill:none;stroke:#999;stroke-width:3"></path>
<path d="M709.87,21.16c2.25,0.47,4.39,0.2,6.13-0.01c5.43-0.66,15.22-1.92,21.76-2.53c1.9-0.18,3.85-0.29,5.71,0.25" style="fill:none;stroke:#999;stroke-width:3"></path>
<path d="M703.63,44.48c2.32,0.74,4.9,0.23,7.25-0.01c9.72-0.98,24.58-2.42,33.51-3.08c2.22-0.16,4.3-0.3,6.49,0.12" style="fill:none;stroke:#999;stroke-width:3"></path>
<path d="M726.06,22.63c1.09,1.09,1.54,2.62,1.54,4.33c0,2.92-0.06,45.71-0.08,62.29c0,3.5-0.01,5.83-0.01,6.38" style="fill:none;stroke:#999;stroke-width:3"></path>

</svg>