<svg width="981px" height="109px" viewBox="0 0 981 109" xmlns="http://www.w3.org/2000/svg" xmlns:xlink="http://www.w3.org/1999/xlink" xml:space="preserve" version="1.1" baseProfile="full">
<line x1="1" y1="1" x2="980" y2="1" style="stroke:#ddd;stroke-width:2"></line>
<line x1="1" y1="1" x2="1" y2="108" style="stroke:#ddd;stroke-width:2"></line>
<line x1="1" y1="108" x2="980" y2="108" style="stroke:#ddd;stroke-width:2"></line>
<line x1="980" y1="1" x2="980" y2="108" style="stroke:#ddd;stroke-width:2"></line>
<line x1="109" y1="1" x2="109" y2="108" style="stroke:#ddd;stroke-width:2"></line>
<line x1="218" y1="1" x2="218" y2="108" style="stroke:#ddd;stroke-width:2"></line>
<line x1="327" y1="1" x2="327" y2="108" style="stroke:#ddd;stroke-width:2"></line>
<line x1="436" y1="1" x2="436" y2="108" style="stroke:#ddd;stroke-width:2"></line>
<line x1="545" y1="1" x2="545" y2="108" style="stroke:#ddd;stroke-width:2"></line>
<line x1="654" y1="1" x2="654" y2="108" style="stroke:#ddd;stroke-width:2"></line>
<line x1="763" y1="1" x2="763" y2="108" style="stroke:#ddd;stroke-width:2"></line>
<line x1="872" y1="1" x2="872" y2="108" style="stroke:#ddd;stroke-width:2"></line>
<line x1="1" y1="54" x2="980" y2="54" style="stroke:#ddd;stroke-width:2;stroke-dasharray:3 3"></line>
<line x1="55" y1="1" x2="55" y2="108" style="stroke:#ddd;stroke-width:2;stroke-dasharray:3 3"></line>
<line x1="164" y1="1" x2="164" y2="108" style="stroke:#ddd;stroke-width:2;stroke-dasharray:3 3"></line>
<line x1="273" y1="1" x2="273" y2="108" style="stroke:#ddd;stroke-width:2;stroke-dasharray:3 3"></line>
<line x1="382" y1="1" x2="382" y2="108" style="stroke:#ddd;stroke-width:2;stroke-dasharray:3 3"></line>
<line x1="491" y1="1" x2="491" y2="108" style="stroke:#ddd;stroke-width:2;stroke-dasharray:3 3"></line>
<line x1="600" y1="1" x2="600" y2="108" style="stroke:#ddd;stroke-width:2;stroke-dasharray:3 3"></line>
<line x1="709" y1="1" x2="709" y2="108" style="stroke:#ddd;stroke-width:2;stroke-dasharray:3 3"></line>
<line x1="818" y1="1" x2="818" y2="108" style="stroke:#ddd;stroke-width:2;stroke-dasharray:3 3"></line>
<line x1="927" y1="1" x2="927" y2="108" style="stroke:#ddd;stroke-width:2;stroke-dasharray:3 3"></line>
<path d="M20.97,18.34c2.03,0.41,3.46,0.6,6.28,0.33c16-1.5,35.97-4.67,53.69-4.67c6.06,0,4.06,4-0.69,6.84" style="fill:none;stroke:#999;stroke-width:3"></path>

<path d="M129.97,18.34c2.03,0.41,3.46,0.6,6.28,0.33c16-1.5,35.97-4.67,53.69-4.67c6.06,0,4.06,4-0.69,6.84" style="fill:none;stroke:#999;stroke-width:3"></path>
<path d="M160.62,16.67c1.09,0.33,1.74,1.5,1.96,2.17c0.22,0.67,0,15.22-0.22,19.39" style="fill:none;stroke:#999;stroke-width:3"></path>

<path d="M238.97,18.34c2.03,0.41,3.46,0.6,6.28,0.33c16-1.5,35.97-4.67,53.69-4.67c6.06,0,4.06,4-0.69,6.84" style="fill:none;stroke:#999;stroke-width:3"></path>
<path d="M269.62,16.67c1.09,0.33,1.74,1.5,1.96,2.17c0.22,0.67,0,15.22-0.22,19.39" style="fill:none;stroke:#999;stroke-width:3"></path>
<path d="M272.13,28.37c7.12-0.5,9.12-0.5,19.85-1.5c1.73-0.16,2.18-0.17,3.26,0" style="fill:none;stroke:#999;stroke-width:3"></path>

<path d="M347.97,18.34c2.03,0.41,3.46,0.6,6.28,0.33c16-1.5,35.97-4.67,53.69-4.67c6.06,0,4.06,4-0.69,6.84" style="fill:none;stroke:#999;stroke-width:3"></path>
<path d="M378.62,16.67c1.09,0.33,1.74,1.5,1.96,2.17c0.22,0.67,0,15.22-0.22,19.39" style="fill:none;stroke:#999;stroke-width:3"></path>
<path d="M381.13,28.37c7.12-0.5,9.12-0.5,19.85-1.5c1.73-0.16,2.18-0.17,3.26,0" style="fill:none;stroke:#999;stroke-width:3"></path>
<path d="M361.5,23.79c0.05,0.59,0.11,1.52-0.11,2.37c-1.29,5-8.7,15.67-18.84,22.39" style="fill:none;stroke:#999;stroke-width:3"></path>

<path d="M456.97,18.34c2.03,0.41,3.46,0.6,6.28,0.33c16-1.5,35.97-4.67,53.69-4.67c6.06,0,4.06,4-0.69,6.84" style="fill:none;stroke:#999;stroke-width:3"></path>
<path d="M487.62,16.67c1.09,0.33,1.74,1.5,1.96,2.17c0.22,0.67,0,15.22-0.22,19.39" style="fill:none;stroke:#999;stroke-width:3"></path>
<path d="M490.13,28.37c7.12-0.5,9.12-0.5,19.85-1.5c1.73-0.16,2.18-0.17,3.26,0" style="fill:none;stroke:#999;stroke-width:3"></path>
<path d="M470.5,23.79c0.05,0.59,0.11,1.52-0.11,2.37c-1.29,5-8.7,15.67-18.84,22.39" style="fill:none;stroke:#999;stroke-width:3"></path>
<path d="M468.75,32.3c7.77,2.19,41.87,12.54,50.32,14.7c2.86,0.73,5.32,1.04,8.18,1.25" style="fill:none;stroke:#999;stroke-width:3"></path>

<path d="M565.97,18.34c2.03,0.41,3.46,0.6,6.28,0.33c16-1.5,35.97-4.67,53.69-4.67c6.06,0,4.06,4-0.69,6.84" style="fill:none;stroke:#999;stroke-width:3"></path>
<path d="M596.62,16.67c1.09,0.33,1.74,1.5,1.96,2.17c0.22,0.67,0,15.22-0.22,19.39" style="fill:none;stroke:#999;stroke-width:3"></path>
<path d="M599.13,28.37c7.12-0.5,9.12-0.5,19.85-1.5c1.73-0.16,2.18-0.17,3.26,0" style="fill:none;stroke:#999;stroke-width:3"></path>
<path d="M579.5,23.79c0.05,0.59,0.11,1.52-0.11,2.37c-1.29,5-8.7,15.67-18.84,22.39" style="fill:none;stroke:#999;stroke-width:3"></path>
<path d="M577.75,32.3c7.77,2.19,41.87,12.54,50.32,14.7c2.86,0.73,5.32,1.04,8.18,1.25" style="fill:none;stroke:#999;stroke-width:3"></path>
<path d="M579.5,53.5c0.75,1,1.25,2,1.5,3s0.35,40.5,0.25,42.75" style="fill:none;stroke:#999;stroke-width:3"></path>

<path d="M674.97,18.34c2.03,0.41,3.46,0.6,6.28,0.33c16-1.5,35.97-4.67,53.69-4.67c6.06,0,4.06,4-0.69,6.84" style="fill:none;stroke:#999;stroke-width:3"></path>
<path d="M705.62,16.67c1.09,0.33,1.74,1.5,1.96,2.17c0.22,0.67,0,15.22-0.22,19.39" style="fill:none;stroke:#999;stroke-width:3"></path>
<path d="M708.13,28.37c7.12-0.5,9.12-0.5,19.85-1.5c1.73-0.16,2.18-0.17,3.26,0" style="fill:none;stroke:#999;stroke-width:3"></path>
<path d="M688.5,23.79c0.05,0.59,0.11,1.52-0.11,2.37c-1.29,5-8.7,15.67-18.84,22.39" style="fill:none;stroke:#999;stroke-width:3"></path>
<path d="M686.75,32.3c7.77,2.19,41.87,12.54,50.32,14.7c2.86,0.73,5.32,1.04,8.18,1.25" style="fill:none;stroke:#999;stroke-width:3"></path>
<path d="M688.5,53.5c0.75,1,1.25,2,1.5,3s0.35,40.5,0.25,42.75" style="fill:none;stroke:#999;stroke-width:3"></path>
<path d="M691.0,55c3-0.25,31.52-2.97,33.75-3.25c4-0.5,5.09,2.17,5,3.75C729.5,59.75,729.0,69.75,729.0,90c0,13-3.5,6.5-6,4.25" style="fill:none;stroke:#999;stroke-width:3"></path>

<path d="M783.97,18.34c2.03,0.41,3.46,0.6,6.28,0.33c16-1.5,35.97-4.67,53.69-4.67c6.06,0,4.06,4-0.69,6.84" style="fill:none;stroke:#999;stroke-width:3"></path>
<path d="M814.62,16.67c1.09,0.33,1.74,1.5,1.96,2.17c0.22,0.67,0,15.22-0.22,19.39" style="fill:none;stroke:#999;stroke-width:3"></path>
<path d="M817.13,28.37c7.12-0.5,9.12-0.5,19.85-1.5c1.73-0.16,2.18-0.17,3.26,0" style="fill:none;stroke:#999;stroke-width:3"></path>
<path d="M797.5,23.79c0.05,0.59,0.11,1.52-0.11,2.37c-1.29,5-8.7,15.67-18.84,22.39" style="fill:none;stroke:#999;stroke-width:3"></path>
<path d="M795.75,32.3c7.77,2.19,41.87,12.54,50.32,14.7c2.86,0.73,5.32,1.04,8.18,1.25" style="fill:none;stroke:#999;stroke-width:3"></path>
<path d="M797.5,53.5c0.75,1,1.25,2,1.5,3s0.35,40.5,0.25,42.75" style="fill:none;stroke:#999;stroke-width:3"></path>
<path d="M800.0,55c3-0.25,31.52-2.97,33.75-3.25c4-0.5,5.09,2.17,5,3.75C838.5,59.75,838.0,69.75,838.0,90c0,13-3.5,6.5-6,4.25" style="fill:none;stroke:#999;stroke-width:3"></path>
<path d="M799.5,66.25c11.03-1,29.06-2.5,38.75-3" style="fill:none;stroke:#999;stroke-width:3"></path>

<path d="M892.97,18.34c2.03,0.41,3.46,0.6,6.28,0.33c16-1.5,35.97-4.67,53.69-4.67c6.06,0,4.06,4-0.69,6.84" style="fill:none;stroke:#999;stroke-width:3"></path>
<path d="M923.62,16.67c1.09,0.33,1.74,1.5,1.96,2.17c0.22,0.67,0,15.22-0.22,19.39" style="fill:none;stroke:#999;stroke-width:3"></path>
<path d="M926.13,28.37c7.12-0.5,9.12-0.5,19.85-1.5c1.73-0.16,2.18-0.17,3.26,0" style="fill:none;stroke:#999;stroke-width:3"></path>
<path d="M906.5,23.79c0.05,0.59,0.11,1.52-0.11,2.37c-1.29,5-8.7,15.67-18.84,22.39" style="fill:none;stroke:#999;stroke-width:3"></path>
<path d="M904.75,32.3c7.77,2.19,41.87,12.54,50.32,14.7c2.86,0.73,5.32,1.04,8.18,1.25" style="fill:none;stroke:#999;stroke-width:3"></path>
<path d="M906.5,53.5c0.75,1,1.25,2,1.5,3s0.35,40.5,0.25,42.75" style="fill:none;stroke:#999;stroke-width:3"></path>
<path d="M909.0,55c3-0.25,31.52-2.97,33.75-3.25c4-0.5,5.09,2.17,5,3.75C947.5,59.75,947.0,69.75,947.0,90c0,13-3.5,6.5-6,4.25" style="fill:none;stroke:#999;stroke-width:3"></path>
<path d="M908.5,66.25c11.03-1,29.06-2.5,38.75-3" style="fill:none;stroke:#999;stroke-width:3"></path>
<path d="M908.25,77.55c9.04-0.61,28.3-2.44,38.75-2.84" style="fill:none;stroke:#999;stroke-width:3"></path>

</svg>