<svg width="1199px" height="109px" viewBox="0 0 1199 109" xmlns="http://www.w3.org/2000/svg" xmlns:xlink="http://www.w3.org/1999/xlink" xml:space="preserve" version="1.1" baseProfile="full">
<line x1="1" y1="1" x2="1198" y2="1" style="stroke:#ddd;stroke-width:2"></line>
<line x1="1" y1="1" x2="1" y2="108" style="stroke:#ddd;stroke-width:2"></line>
<line x1="1" y1="108" x2="1198" y2="108" style="stroke:#ddd;stroke-width:2"></line>
<line x1="1198" y1="1" x2="1198" y2="108" style="stroke:#ddd;stroke-width:2"></line>
<line x1="109" y1="1" x2="109" y2="108" style="stroke:#ddd;stroke-width:2"></line>
<line x1="218" y1="1" x2="218" y2="108" style="stroke:#ddd;stroke-width:2"></line>
<line x1="327" y1="1" x2="327" y2="108" style="stroke:#ddd;stroke-width:2"></line>
<line x1="436" y1="1" x2="436" y2="108" style="stroke:#ddd;stroke-width:2"></line>
<line x1="545" y1="1" x2="545" y2="108" style="stroke:#ddd;stroke-width:2"></line>
<line x1="654" y1="1" x2="654" y2="108" style="stroke:#ddd;stroke-width:2"></line>
<line x1="763" y1="1" x2="763" y2="108" style="stroke:#ddd;stroke-width:2"></line>
<line x1="872" y1="1" x2="872" y2="108" style="stroke:#ddd;stroke-width:2"></line>
<line x1="981" y1="1" x2="981" y2="108" style="stroke:#ddd;stroke-width:2"></line>
<line x1="1090" y1="1" x2="1090" y2="108" style="stroke:#ddd;stroke-width:2"></line>
<line x1="1" y1="54" x2="1198" y2="54" style="stroke:#ddd;stroke-width:2;stroke-dasharray:3 3"></line>
<line x1="55" y1="1" x2="55" y2="108" style="stroke:#ddd;stroke-width:2;stroke-dasharray:3 3"></line>
<line x1="164" y1="1" x2="164" y2="108" style="stroke:#ddd;stroke-width:2;stroke-dasharray:3 3"></line>
<line x1="273" y1="1" x2="273" y2="108" style="stroke:#ddd;stroke-width:2;stroke-dasharray:3 3"></line>
<line x1="382" y1="1" x2="382" y2="108" style="stroke:#ddd;stroke-width:2;stroke-dasharray:3 3"></line>
<line x1="491" y1="1" x2="491" y2="108" style="stroke:#ddd;stroke-width:2;stroke-dasharray:3 3"></line>
<line x1="600" y1="1" x2="600" y2="108" style="stroke:#ddd;stroke-width:2;stroke-dasharray:3 3"></line>
<line x1="709" y1="1" x2="709" y2="108" style="stroke:#ddd;stroke-width:2;stroke-dasharray:3 3"></line>
<line x1="818" y1="1" x2="818" y2="108" style="stroke:#ddd;stroke-width:2;stroke-dasharray:3 3"></line>
<line x1="927" y1="1" x2="927" y2="108" style="stroke:#ddd;stroke-width:2;stroke-dasharray:3 3"></line>
<line x1="1036" y1="1" x2="1036" y2="108" style="stroke:#ddd;stroke-width:2;stroke-dasharray:3 3"></line>
<line x1="1145" y1="1" x2="1145" y2="108" style="stroke:#ddd;stroke-width:2;stroke-dasharray:3 3"></line>
<path d="M19.57,20.01c0.84,0.84,1.02,1.89,1.03,2.84C21.0,49,21.38,78.12,11.5,92.87" style="fill:none;stroke:#999;stroke-width:3"></path>

<path d="M128.57,20.01c0.84,0.84,1.02,1.89,1.03,2.84C130.0,49,130.38,78.12,120.5,92.87" style="fill:none;stroke:#999;stroke-width:3"></path>
<path d="M130.38,21.34c2.68-0.42,10.69-1.84,13.48-2.17c2.91-0.35,4.19,0.74,4.17,3.57c-0.05,7.04-0.01,44.73-0.01,62.22c0,11.37-5.8,3.6-7.56,2.07" style="fill:none;stroke:#999;stroke-width:3"></path>

<path d="M237.57,20.01c0.84,0.84,1.02,1.89,1.03,2.84C239.0,49,239.38,78.12,229.5,92.87" style="fill:none;stroke:#999;stroke-width:3"></path>
<path d="M239.38,21.34c2.68-0.42,10.69-1.84,13.48-2.17c2.91-0.35,4.19,0.74,4.17,3.57c-0.05,7.04-0.01,44.73-0.01,62.22c0,11.37-5.8,3.6-7.56,2.07" style="fill:none;stroke:#999;stroke-width:3"></path>
<path d="M239.88,41.98c4.21-0.41,11.92-1.79,15.62-1.82" style="fill:none;stroke:#999;stroke-width:3"></path>

<path d="M346.57,20.01c0.84,0.84,1.02,1.89,1.03,2.84C348.0,49,348.38,78.12,338.5,92.87" style="fill:none;stroke:#999;stroke-width:3"></path>
<path d="M348.38,21.34c2.68-0.42,10.69-1.84,13.48-2.17c2.91-0.35,4.19,0.74,4.17,3.57c-0.05,7.04-0.01,44.73-0.01,62.22c0,11.37-5.8,3.6-7.56,2.07" style="fill:none;stroke:#999;stroke-width:3"></path>
<path d="M348.88,41.98c4.21-0.41,11.92-1.79,15.62-1.82" style="fill:none;stroke:#999;stroke-width:3"></path>
<path d="M347.88,60.23c5.62-0.8,11.82-1.49,16.93-1.98" style="fill:none;stroke:#999;stroke-width:3"></path>

<path d="M455.57,20.01c0.84,0.84,1.02,1.89,1.03,2.84C457.0,49,457.38,78.12,447.5,92.87" style="fill:none;stroke:#999;stroke-width:3"></path>
<path d="M457.38,21.34c2.68-0.42,10.69-1.84,13.48-2.17c2.91-0.35,4.19,0.74,4.17,3.57c-0.05,7.04-0.01,44.73-0.01,62.22c0,11.37-5.8,3.6-7.56,2.07" style="fill:none;stroke:#999;stroke-width:3"></path>
<path d="M457.88,41.98c4.21-0.41,11.92-1.79,15.62-1.82" style="fill:none;stroke:#999;stroke-width:3"></path>
<path d="M456.88,60.23c5.62-0.8,11.82-1.49,16.93-1.98" style="fill:none;stroke:#999;stroke-width:3"></path>
<path d="M489.56,17.58c2.58,2.14,6.65,8.8,7.3,12.13" style="fill:none;stroke:#999;stroke-width:3"></path>

<path d="M564.5699999999999,20.01c0.84,0.84,1.02,1.89,1.03,2.84C566.0,49,566.38,78.12,556.5,92.87" style="fill:none;stroke:#999;stroke-width:3"></path>
<path d="M566.38,21.34c2.68-0.42,10.69-1.84,13.48-2.17c2.91-0.35,4.19,0.74,4.17,3.57c-0.05,7.04-0.01,44.73-0.01,62.22c0,11.37-5.8,3.6-7.56,2.07" style="fill:none;stroke:#999;stroke-width:3"></path>
<path d="M566.88,41.98c4.21-0.41,11.92-1.79,15.62-1.82" style="fill:none;stroke:#999;stroke-width:3"></path>
<path d="M565.88,60.23c5.62-0.8,11.82-1.49,16.93-1.98" style="fill:none;stroke:#999;stroke-width:3"></path>
<path d="M598.56,17.58c2.58,2.14,6.65,8.8,7.3,12.13" style="fill:none;stroke:#999;stroke-width:3"></path>
<path d="M627.27,12.39c0.08,1.02-0.02,2.03-0.29,3.01c-2.1,5.22-3.97,9.72-7.98,15.57" style="fill:none;stroke:#999;stroke-width:3"></path>

<path d="M673.5699999999999,20.01c0.84,0.84,1.02,1.89,1.03,2.84C675.0,49,675.38,78.12,665.5,92.87" style="fill:none;stroke:#999;stroke-width:3"></path>
<path d="M675.38,21.34c2.68-0.42,10.69-1.84,13.48-2.17c2.91-0.35,4.19,0.74,4.17,3.57c-0.05,7.04-0.01,44.73-0.01,62.22c0,11.37-5.8,3.6-7.56,2.07" style="fill:none;stroke:#999;stroke-width:3"></path>
<path d="M675.88,41.98c4.21-0.41,11.92-1.79,15.62-1.82" style="fill:none;stroke:#999;stroke-width:3"></path>
<path d="M674.88,60.23c5.62-0.8,11.82-1.49,16.93-1.98" style="fill:none;stroke:#999;stroke-width:3"></path>
<path d="M707.56,17.58c2.58,2.14,6.65,8.8,7.3,12.13" style="fill:none;stroke:#999;stroke-width:3"></path>
<path d="M736.27,12.39c0.08,1.02-0.02,2.03-0.29,3.01c-2.1,5.22-3.97,9.72-7.98,15.57" style="fill:none;stroke:#999;stroke-width:3"></path>
<path d="M704.24,35.56c0.79,0.79,1.18,1.7,1.27,2.79c0.66,3.58,1.95,10.54,2.97,16.11c0.27,1.46,0.51,2.88,0.71,4.19" style="fill:none;stroke:#999;stroke-width:3"></path>

<path d="M782.5699999999999,20.01c0.84,0.84,1.02,1.89,1.03,2.84C784.0,49,784.38,78.12,774.5,92.87" style="fill:none;stroke:#999;stroke-width:3"></path>
<path d="M784.38,21.34c2.68-0.42,10.69-1.84,13.48-2.17c2.91-0.35,4.19,0.74,4.17,3.57c-0.05,7.04-0.01,44.73-0.01,62.22c0,11.37-5.8,3.6-7.56,2.07" style="fill:none;stroke:#999;stroke-width:3"></path>
<path d="M784.88,41.98c4.21-0.41,11.92-1.79,15.62-1.82" style="fill:none;stroke:#999;stroke-width:3"></path>
<path d="M783.88,60.23c5.62-0.8,11.82-1.49,16.93-1.98" style="fill:none;stroke:#999;stroke-width:3"></path>
<path d="M816.56,17.58c2.58,2.14,6.65,8.8,7.3,12.13" style="fill:none;stroke:#999;stroke-width:3"></path>
<path d="M845.27,12.39c0.08,1.02-0.02,2.03-0.29,3.01c-2.1,5.22-3.97,9.72-7.98,15.57" style="fill:none;stroke:#999;stroke-width:3"></path>
<path d="M813.24,35.56c0.79,0.79,1.18,1.7,1.27,2.79c0.66,3.58,1.95,10.54,2.97,16.11c0.27,1.46,0.51,2.88,0.71,4.19" style="fill:none;stroke:#999;stroke-width:3"></path>
<path d="M815.0,36.6c9.19-1.12,23.85-2.48,30.75-3.38c3.51-0.46,5.68,0.75,4.84,4.56c-0.95,4.32-2.17,8.79-3.37,14.34" style="fill:none;stroke:#999;stroke-width:3"></path>

<path d="M891.5699999999999,20.01c0.84,0.84,1.02,1.89,1.03,2.84C893.0,49,893.38,78.12,883.5,92.87" style="fill:none;stroke:#999;stroke-width:3"></path>
<path d="M893.38,21.34c2.68-0.42,10.69-1.84,13.48-2.17c2.91-0.35,4.19,0.74,4.17,3.57c-0.05,7.04-0.01,44.73-0.01,62.22c0,11.37-5.8,3.6-7.56,2.07" style="fill:none;stroke:#999;stroke-width:3"></path>
<path d="M893.88,41.98c4.21-0.41,11.92-1.79,15.62-1.82" style="fill:none;stroke:#999;stroke-width:3"></path>
<path d="M892.88,60.23c5.62-0.8,11.82-1.49,16.93-1.98" style="fill:none;stroke:#999;stroke-width:3"></path>
<path d="M925.56,17.58c2.58,2.14,6.65,8.8,7.3,12.13" style="fill:none;stroke:#999;stroke-width:3"></path>
<path d="M954.27,12.39c0.08,1.02-0.02,2.03-0.29,3.01c-2.1,5.22-3.97,9.72-7.98,15.57" style="fill:none;stroke:#999;stroke-width:3"></path>
<path d="M922.24,35.56c0.79,0.79,1.18,1.7,1.27,2.79c0.66,3.58,1.95,10.54,2.97,16.11c0.27,1.46,0.51,2.88,0.71,4.19" style="fill:none;stroke:#999;stroke-width:3"></path>
<path d="M924.0,36.6c9.19-1.12,23.85-2.48,30.75-3.38c3.51-0.46,5.68,0.75,4.84,4.56c-0.95,4.32-2.17,8.79-3.37,14.34" style="fill:none;stroke:#999;stroke-width:3"></path>
<path d="M927.63,55.96c5.25-0.33,17.47-1.7,26.12-2.5c1.45-0.13,2.75-0.33,4.26-0.09" style="fill:none;stroke:#999;stroke-width:3"></path>

<path d="M1000.5699999999999,20.01c0.84,0.84,1.02,1.89,1.03,2.84C1002.0,49,1002.38,78.12,992.5,92.87" style="fill:none;stroke:#999;stroke-width:3"></path>
<path d="M1002.38,21.34c2.68-0.42,10.69-1.84,13.48-2.17c2.91-0.35,4.19,0.74,4.17,3.57c-0.05,7.04-0.01,44.73-0.01,62.22c0,11.37-5.8,3.6-7.56,2.07" style="fill:none;stroke:#999;stroke-width:3"></path>
<path d="M1002.88,41.98c4.21-0.41,11.92-1.79,15.62-1.82" style="fill:none;stroke:#999;stroke-width:3"></path>
<path d="M1001.88,60.23c5.62-0.8,11.82-1.49,16.93-1.98" style="fill:none;stroke:#999;stroke-width:3"></path>
<path d="M1034.56,17.58c2.58,2.14,6.65,8.8,7.3,12.13" style="fill:none;stroke:#999;stroke-width:3"></path>
<path d="M1063.27,12.39c0.08,1.02-0.02,2.03-0.29,3.01c-2.1,5.22-3.97,9.72-7.98,15.57" style="fill:none;stroke:#999;stroke-width:3"></path>
<path d="M1031.24,35.56c0.79,0.79,1.18,1.7,1.27,2.79c0.66,3.58,1.95,10.54,2.97,16.11c0.27,1.46,0.51,2.88,0.71,4.19" style="fill:none;stroke:#999;stroke-width:3"></path>
<path d="M1033.0,36.6c9.19-1.12,23.85-2.48,30.75-3.38c3.51-0.46,5.68,0.75,4.84,4.56c-0.95,4.32-2.17,8.79-3.37,14.34" style="fill:none;stroke:#999;stroke-width:3"></path>
<path d="M1036.63,55.96c5.25-0.33,17.47-1.7,26.12-2.5c1.45-0.13,2.75-0.33,4.26-0.09" style="fill:none;stroke:#999;stroke-width:3"></path>
<path d="M1043.54,62c0.05,0.74-0.05,1.92-0.35,2.96c-1.94,6.8-7.07,19.67-17.38,28.55" style="fill:none;stroke:#999;stroke-width:3"></path>

<path d="M1109.57,20.01c0.84,0.84,1.02,1.89,1.03,2.84C1111.0,49,1111.38,78.12,1101.5,92.87" style="fill:none;stroke:#999;stroke-width:3"></path>
<path d="M1111.38,21.34c2.68-0.42,10.69-1.84,13.48-2.17c2.91-0.35,4.19,0.74,4.17,3.57c-0.05,7.04-0.01,44.73-0.01,62.22c0,11.37-5.8,3.6-7.56,2.07" style="fill:none;stroke:#999;stroke-width:3"></path>
<path d="M1111.88,41.98c4.21-0.41,11.92-1.79,15.62-1.82" style="fill:none;stroke:#999;stroke-width:3"></path>
<path d="M1110.88,60.23c5.62-0.8,11.82-1.49,16.93-1.98" style="fill:none;stroke:#999;stroke-width:3"></path>
<path d="M1143.56,17.58c2.58,2.14,6.65,8.8,7.3,12.13" style="fill:none;stroke:#999;stroke-width:3"></path>
<path d="M1172.27,12.39c0.08,1.02-0.02,2.03-0.29,3.01c-2.1,5.22-3.97,9.72-7.98,15.57" style="fill:none;stroke:#999;stroke-width:3"></path>
<path d="M1140.24,35.56c0.79,0.79,1.18,1.7,1.27,2.79c0.66,3.58,1.95,10.54,2.97,16.11c0.27,1.46,0.51,2.88,0.71,4.19" style="fill:none;stroke:#999;stroke-width:3"></path>
<path d="M1142.0,36.6c9.19-1.12,23.85-2.48,30.75-3.38c3.51-0.46,5.68,0.75,4.84,4.56c-0.95,4.32-2.17,8.79-3.37,14.34" style="fill:none;stroke:#999;stroke-width:3"></path>
<path d="M1145.63,55.96c5.25-0.33,17.47-1.7,26.12-2.5c1.45-0.13,2.75-0.33,4.26-0.09" style="fill:none;stroke:#999;stroke-width:3"></path>
<path d="M1152.54,62c0.05,0.74-0.05,1.92-0.35,2.96c-1.94,6.8-7.07,19.67-17.38,28.55" style="fill:none;stroke:#999;stroke-width:3"></path>
<path d="M1162.81,57.35c0.8,0.8,1.17,1.81,1.2,3.6c0.08,4.95,0,15.04,0,21.17c0,9.38,1.25,10.92,10.95,10.92c10.3,0,10.8-1.55,10.8-7.91" style="fill:none;stroke:#999;stroke-width:3"></path>

</svg>