<svg width="1417px" height="109px" viewBox="0 0 1417 109" xmlns="http://www.w3.org/2000/svg" xmlns:xlink="http://www.w3.org/1999/xlink" xml:space="preserve" version="1.1" baseProfile="full">
<line x1="1" y1="1" x2="1416" y2="1" style="stroke:#ddd;stroke-width:2"></line>
<line x1="1" y1="1" x2="1" y2="108" style="stroke:#ddd;stroke-width:2"></line>
<line x1="1" y1="108" x2="1416" y2="108" style="stroke:#ddd;stroke-width:2"></line>
<line x1="1416" y1="1" x2="1416" y2="108" style="stroke:#ddd;stroke-width:2"></line>
<line x1="109" y1="1" x2="109" y2="108" style="stroke:#ddd;stroke-width:2"></line>
<line x1="218" y1="1" x2="218" y2="108" style="stroke:#ddd;stroke-width:2"></line>
<line x1="327" y1="1" x2="327" y2="108" style="stroke:#ddd;stroke-width:2"></line>
<line x1="436" y1="1" x2="436" y2="108" style="stroke:#ddd;stroke-width:2"></line>
<line x1="545" y1="1" x2="545" y2="108" style="stroke:#ddd;stroke-width:2"></line>
<line x1="654" y1="1" x2="654" y2="108" style="stroke:#ddd;stroke-width:2"></line>
<line x1="763" y1="1" x2="763" y2="108" style="stroke:#ddd;stroke-width:2"></line>
<line x1="872" y1="1" x2="872" y2="108" style="stroke:#ddd;stroke-width:2"></line>
<line x1="981" y1="1" x2="981" y2="108" style="stroke:#ddd;stroke-width:2"></line>
<line x1="1090" y1="1" x2="1090" y2="108" style="stroke:#ddd;stroke-width:2"></line>
<line x1="1199" y1="1" x2="1199" y2="108" style="stroke:#ddd;stroke-width:2"></line>
<line x1="1308" y1="1" x2="1308" y2="108" style="stroke:#ddd;stroke-width:2"></line>
<line x1="1" y1="54" x2="1416" y2="54" style="stroke:#ddd;stroke-width:2;stroke-dasharray:3 3"></line>
<line x1="55" y1="1" x2="55" y2="108" style="stroke:#ddd;stroke-width:2;stroke-dasharray:3 3"></line>
<line x1="164" y1="1" x2="164" y2="108" style="stroke:#ddd;stroke-width:2;stroke-dasharray:3 3"></line>
<line x1="273" y1="1" x2="273" y2="108" style="stroke:#ddd;stroke-width:2;stroke-dasharray:3 3"></line>
<line x1="382" y1="1" x2="382" y2="108" style="stroke:#ddd;stroke-width:2;stroke-dasharray:3 3"></line>
<line x1="491" y1="1" x2="491" y2="108" style="stroke:#ddd;stroke-width:2;stroke-dasharray:3 3"></line>
<line x1="600" y1="1" x2="600" y2="108" style="stroke:#ddd;stroke-width:2;stroke-dasharray:3 3"></line>
<line x1="709" y1="1" x2="709" y2="108" style="stroke:#ddd;stroke-width:2;stroke-dasharray:3 3"></line>
<line x1="818" y1="1" x2="818" y2="108" style="stroke:#ddd;stroke-width:2;stroke-dasharray:3 3"></line>
<line x1="927" y1="1" x2="927" y2="108" style="stroke:#ddd;stroke-width:2;stroke-dasharray:3 3"></line>
<line x1="1036" y1="1" x2="1036" y2="108" style="stroke:#ddd;stroke-width:2;stroke-dasharray:3 3"></line>
<line x1="1145" y1="1" x2="1145" y2="108" style="stroke:#ddd;stroke-width:2;stroke-dasharray:3 3"></line>
<line x1="1254" y1="1" x2="1254" y2="108" style="stroke:#ddd;stroke-width:2;stroke-dasharray:3 3"></line>
<line x1="1363" y1="1" x2="1363" y2="108" style="stroke:#ddd;stroke-width:2;stroke-dasharray:3 3"></line>
<path d="M16.92,19.08c0.61,0.95,1.43,1.92,1.43,4.04c0,0.94,0.18,22.41-0.47,30.13c-0.93,11,0.28,21.33-7.88,37.72" style="fill:none;stroke:#999;stroke-width:3"></path>

<path d="M125.92,19.08c0.61,0.95,1.43,1.92,1.43,4.04c0,0.94,0.18,22.41-0.47,30.13c-0.93,11,0.28,21.33-7.88,37.72" style="fill:none;stroke:#999;stroke-width:3"></path>
<path d="M127.45,20.36c2.14-0.06,12.35-1.8,13.94-1.93c2.85-0.23,3.56,1.79,3.56,3.13c0,3.18-0.04,44.09-0.04,62.17c0,12.44-4.01,5.67-5.83,4.18" style="fill:none;stroke:#999;stroke-width:3"></path>

<path d="M234.92000000000002,19.08c0.61,0.95,1.43,1.92,1.43,4.04c0,0.94,0.18,22.41-0.47,30.13c-0.93,11,0.28,21.33-7.88,37.72" style="fill:none;stroke:#999;stroke-width:3"></path>
<path d="M236.45,20.36c2.14-0.06,12.35-1.8,13.94-1.93c2.85-0.23,3.56,1.79,3.56,3.13c0,3.18-0.04,44.09-0.04,62.17c0,12.44-4.01,5.67-5.83,4.18" style="fill:none;stroke:#999;stroke-width:3"></path>
<path d="M236.95,40.29c4.51-0.35,12.74-1.54,16.7-1.57" style="fill:none;stroke:#999;stroke-width:3"></path>

<path d="M343.92,19.08c0.61,0.95,1.43,1.92,1.43,4.04c0,0.94,0.18,22.41-0.47,30.13c-0.93,11,0.28,21.33-7.88,37.72" style="fill:none;stroke:#999;stroke-width:3"></path>
<path d="M345.45,20.36c2.14-0.06,12.35-1.8,13.94-1.93c2.85-0.23,3.56,1.79,3.56,3.13c0,3.18-0.04,44.09-0.04,62.17c0,12.44-4.01,5.67-5.83,4.18" style="fill:none;stroke:#999;stroke-width:3"></path>
<path d="M345.95,40.29c4.51-0.35,12.74-1.54,16.7-1.57" style="fill:none;stroke:#999;stroke-width:3"></path>
<path d="M345.56,59.52c3.57-0.11,11.87-1.04,16.72-1.6" style="fill:none;stroke:#999;stroke-width:3"></path>

<path d="M452.92,19.08c0.61,0.95,1.43,1.92,1.43,4.04c0,0.94,0.18,22.41-0.47,30.13c-0.93,11,0.28,21.33-7.88,37.72" style="fill:none;stroke:#999;stroke-width:3"></path>
<path d="M454.45,20.36c2.14-0.06,12.35-1.8,13.94-1.93c2.85-0.23,3.56,1.79,3.56,3.13c0,3.18-0.04,44.09-0.04,62.17c0,12.44-4.01,5.67-5.83,4.18" style="fill:none;stroke:#999;stroke-width:3"></path>
<path d="M454.95,40.29c4.51-0.35,12.74-1.54,16.7-1.57" style="fill:none;stroke:#999;stroke-width:3"></path>
<path d="M454.56,59.52c3.57-0.11,11.87-1.04,16.72-1.6" style="fill:none;stroke:#999;stroke-width:3"></path>
<path d="M483.75,17.92c0.25,0.54,1.36,2.5,1.5,3.17c1.12,5.51,2.73,24.26,3.39,34.42" style="fill:none;stroke:#999;stroke-width:3"></path>

<path d="M561.9200000000001,19.08c0.61,0.95,1.43,1.92,1.43,4.04c0,0.94,0.18,22.41-0.47,30.13c-0.93,11,0.28,21.33-7.88,37.72" style="fill:none;stroke:#999;stroke-width:3"></path>
<path d="M563.45,20.36c2.14-0.06,12.35-1.8,13.94-1.93c2.85-0.23,3.56,1.79,3.56,3.13c0,3.18-0.04,44.09-0.04,62.17c0,12.44-4.01,5.67-5.83,4.18" style="fill:none;stroke:#999;stroke-width:3"></path>
<path d="M563.95,40.29c4.51-0.35,12.74-1.54,16.7-1.57" style="fill:none;stroke:#999;stroke-width:3"></path>
<path d="M563.56,59.52c3.57-0.11,11.87-1.04,16.72-1.6" style="fill:none;stroke:#999;stroke-width:3"></path>
<path d="M592.75,17.92c0.25,0.54,1.36,2.5,1.5,3.17c1.12,5.51,2.73,24.26,3.39,34.42" style="fill:none;stroke:#999;stroke-width:3"></path>
<path d="M594.75,19.75c8-0.75,29.34-2.96,37-3.5c2.81-0.2,3.99,2.18,3.83,3.67c-0.56,5.44-1.38,23.2-3.83,33.33" style="fill:none;stroke:#999;stroke-width:3"></path>

<path d="M670.9200000000001,19.08c0.61,0.95,1.43,1.92,1.43,4.04c0,0.94,0.18,22.41-0.47,30.13c-0.93,11,0.28,21.33-7.88,37.72" style="fill:none;stroke:#999;stroke-width:3"></path>
<path d="M672.45,20.36c2.14-0.06,12.35-1.8,13.94-1.93c2.85-0.23,3.56,1.79,3.56,3.13c0,3.18-0.04,44.09-0.04,62.17c0,12.44-4.01,5.67-5.83,4.18" style="fill:none;stroke:#999;stroke-width:3"></path>
<path d="M672.95,40.29c4.51-0.35,12.74-1.54,16.7-1.57" style="fill:none;stroke:#999;stroke-width:3"></path>
<path d="M672.56,59.52c3.57-0.11,11.87-1.04,16.72-1.6" style="fill:none;stroke:#999;stroke-width:3"></path>
<path d="M701.75,17.92c0.25,0.54,1.36,2.5,1.5,3.17c1.12,5.51,2.73,24.26,3.39,34.42" style="fill:none;stroke:#999;stroke-width:3"></path>
<path d="M703.75,19.75c8-0.75,29.34-2.96,37-3.5c2.81-0.2,3.99,2.18,3.83,3.67c-0.56,5.44-1.38,23.2-3.83,33.33" style="fill:none;stroke:#999;stroke-width:3"></path>
<path d="M721.58,20.25c1.17,1,1.6,2.57,1.59,3.92c-0.06,7.41,0.07,24.21,0.07,26.41" style="fill:none;stroke:#999;stroke-width:3"></path>

<path d="M779.9200000000001,19.08c0.61,0.95,1.43,1.92,1.43,4.04c0,0.94,0.18,22.41-0.47,30.13c-0.93,11,0.28,21.33-7.88,37.72" style="fill:none;stroke:#999;stroke-width:3"></path>
<path d="M781.45,20.36c2.14-0.06,12.35-1.8,13.94-1.93c2.85-0.23,3.56,1.79,3.56,3.13c0,3.18-0.04,44.09-0.04,62.17c0,12.44-4.01,5.67-5.83,4.18" style="fill:none;stroke:#999;stroke-width:3"></path>
<path d="M781.95,40.29c4.51-0.35,12.74-1.54,16.7-1.57" style="fill:none;stroke:#999;stroke-width:3"></path>
<path d="M781.56,59.52c3.57-0.11,11.87-1.04,16.72-1.6" style="fill:none;stroke:#999;stroke-width:3"></path>
<path d="M810.75,17.92c0.25,0.54,1.36,2.5,1.5,3.17c1.12,5.51,2.73,24.26,3.39,34.42" style="fill:none;stroke:#999;stroke-width:3"></path>
<path d="M812.75,19.75c8-0.75,29.34-2.96,37-3.5c2.81-0.2,3.99,2.18,3.83,3.67c-0.56,5.44-1.38,23.2-3.83,33.33" style="fill:none;stroke:#999;stroke-width:3"></path>
<path d="M830.58,20.25c1.17,1,1.6,2.57,1.59,3.92c-0.06,7.41,0.07,24.21,0.07,26.41" style="fill:none;stroke:#999;stroke-width:3"></path>
<path d="M815.15,35.26c3.43-0.17,34.27-2.67,37.1-2.67" style="fill:none;stroke:#999;stroke-width:3"></path>

<path d="M888.9200000000001,19.08c0.61,0.95,1.43,1.92,1.43,4.04c0,0.94,0.18,22.41-0.47,30.13c-0.93,11,0.28,21.33-7.88,37.72" style="fill:none;stroke:#999;stroke-width:3"></path>
<path d="M890.45,20.36c2.14-0.06,12.35-1.8,13.94-1.93c2.85-0.23,3.56,1.79,3.56,3.13c0,3.18-0.04,44.09-0.04,62.17c0,12.44-4.01,5.67-5.83,4.18" style="fill:none;stroke:#999;stroke-width:3"></path>
<path d="M890.95,40.29c4.51-0.35,12.74-1.54,16.7-1.57" style="fill:none;stroke:#999;stroke-width:3"></path>
<path d="M890.56,59.52c3.57-0.11,11.87-1.04,16.72-1.6" style="fill:none;stroke:#999;stroke-width:3"></path>
<path d="M919.75,17.92c0.25,0.54,1.36,2.5,1.5,3.17c1.12,5.51,2.73,24.26,3.39,34.42" style="fill:none;stroke:#999;stroke-width:3"></path>
<path d="M921.75,19.75c8-0.75,29.34-2.96,37-3.5c2.81-0.2,3.99,2.18,3.83,3.67c-0.56,5.44-1.38,23.2-3.83,33.33" style="fill:none;stroke:#999;stroke-width:3"></path>
<path d="M939.58,20.25c1.17,1,1.6,2.57,1.59,3.92c-0.06,7.41,0.07,24.21,0.07,26.41" style="fill:none;stroke:#999;stroke-width:3"></path>
<path d="M924.15,35.26c3.43-0.17,34.27-2.67,37.1-2.67" style="fill:none;stroke:#999;stroke-width:3"></path>
<path d="M926.98,52.66c8.13-0.74,24.42-1.6,31.82-1.82" style="fill:none;stroke:#999;stroke-width:3"></path>

<path d="M997.9200000000001,19.08c0.61,0.95,1.43,1.92,1.43,4.04c0,0.94,0.18,22.41-0.47,30.13c-0.93,11,0.28,21.33-7.88,37.72" style="fill:none;stroke:#999;stroke-width:3"></path>
<path d="M999.45,20.36c2.14-0.06,12.35-1.8,13.94-1.93c2.85-0.23,3.56,1.79,3.56,3.13c0,3.18-0.04,44.09-0.04,62.17c0,12.44-4.01,5.67-5.83,4.18" style="fill:none;stroke:#999;stroke-width:3"></path>
<path d="M999.95,40.29c4.51-0.35,12.74-1.54,16.7-1.57" style="fill:none;stroke:#999;stroke-width:3"></path>
<path d="M999.56,59.52c3.57-0.11,11.87-1.04,16.72-1.6" style="fill:none;stroke:#999;stroke-width:3"></path>
<path d="M1028.75,17.92c0.25,0.54,1.36,2.5,1.5,3.17c1.12,5.51,2.73,24.26,3.39,34.42" style="fill:none;stroke:#999;stroke-width:3"></path>
<path d="M1030.75,19.75c8-0.75,29.34-2.96,37-3.5c2.81-0.2,3.99,2.18,3.83,3.67c-0.56,5.44-1.38,23.2-3.83,33.33" style="fill:none;stroke:#999;stroke-width:3"></path>
<path d="M1048.58,20.25c1.17,1,1.6,2.57,1.59,3.92c-0.06,7.41,0.07,24.21,0.07,26.41" style="fill:none;stroke:#999;stroke-width:3"></path>
<path d="M1033.15,35.26c3.43-0.17,34.27-2.67,37.1-2.67" style="fill:none;stroke:#999;stroke-width:3"></path>
<path d="M1035.98,52.66c8.13-0.74,24.42-1.6,31.82-1.82" style="fill:none;stroke:#999;stroke-width:3"></path>
<path d="M1029.76,73.21c0.41,2.5-4.11,14.05-7.35,18.21" style="fill:none;stroke:#999;stroke-width:3"></path>

<path d="M1106.92,19.08c0.61,0.95,1.43,1.92,1.43,4.04c0,0.94,0.18,22.41-0.47,30.13c-0.93,11,0.28,21.33-7.88,37.72" style="fill:none;stroke:#999;stroke-width:3"></path>
<path d="M1108.45,20.36c2.14-0.06,12.35-1.8,13.94-1.93c2.85-0.23,3.56,1.79,3.56,3.13c0,3.18-0.04,44.09-0.04,62.17c0,12.44-4.01,5.67-5.83,4.18" style="fill:none;stroke:#999;stroke-width:3"></path>
<path d="M1108.95,40.29c4.51-0.35,12.74-1.54,16.7-1.57" style="fill:none;stroke:#999;stroke-width:3"></path>
<path d="M1108.56,59.52c3.57-0.11,11.87-1.04,16.72-1.6" style="fill:none;stroke:#999;stroke-width:3"></path>
<path d="M1137.75,17.92c0.25,0.54,1.36,2.5,1.5,3.17c1.12,5.51,2.73,24.26,3.39,34.42" style="fill:none;stroke:#999;stroke-width:3"></path>
<path d="M1139.75,19.75c8-0.75,29.34-2.96,37-3.5c2.81-0.2,3.99,2.18,3.83,3.67c-0.56,5.44-1.38,23.2-3.83,33.33" style="fill:none;stroke:#999;stroke-width:3"></path>
<path d="M1157.58,20.25c1.17,1,1.6,2.57,1.59,3.92c-0.06,7.41,0.07,24.21,0.07,26.41" style="fill:none;stroke:#999;stroke-width:3"></path>
<path d="M1142.15,35.26c3.43-0.17,34.27-2.67,37.1-2.67" style="fill:none;stroke:#999;stroke-width:3"></path>
<path d="M1144.98,52.66c8.13-0.74,24.42-1.6,31.82-1.82" style="fill:none;stroke:#999;stroke-width:3"></path>
<path d="M1138.76,73.21c0.41,2.5-4.11,14.05-7.35,18.21" style="fill:none;stroke:#999;stroke-width:3"></path>
<path d="M1144.94,66.84C1150.06,81.45,1158.5,92,1176.75,93.58c6.18,0.54,7.11-2,3.5-7" style="fill:none;stroke:#999;stroke-width:3"></path>

<path d="M1215.92,19.08c0.61,0.95,1.43,1.92,1.43,4.04c0,0.94,0.18,22.41-0.47,30.13c-0.93,11,0.28,21.33-7.88,37.72" style="fill:none;stroke:#999;stroke-width:3"></path>
<path d="M1217.45,20.36c2.14-0.06,12.35-1.8,13.94-1.93c2.85-0.23,3.56,1.79,3.56,3.13c0,3.18-0.04,44.09-0.04,62.17c0,12.44-4.01,5.67-5.83,4.18" style="fill:none;stroke:#999;stroke-width:3"></path>
<path d="M1217.95,40.29c4.51-0.35,12.74-1.54,16.7-1.57" style="fill:none;stroke:#999;stroke-width:3"></path>
<path d="M1217.56,59.52c3.57-0.11,11.87-1.04,16.72-1.6" style="fill:none;stroke:#999;stroke-width:3"></path>
<path d="M1246.75,17.92c0.25,0.54,1.36,2.5,1.5,3.17c1.12,5.51,2.73,24.26,3.39,34.42" style="fill:none;stroke:#999;stroke-width:3"></path>
<path d="M1248.75,19.75c8-0.75,29.34-2.96,37-3.5c2.81-0.2,3.99,2.18,3.83,3.67c-0.56,5.44-1.38,23.2-3.83,33.33" style="fill:none;stroke:#999;stroke-width:3"></path>
<path d="M1266.58,20.25c1.17,1,1.6,2.57,1.59,3.92c-0.06,7.41,0.07,24.21,0.07,26.41" style="fill:none;stroke:#999;stroke-width:3"></path>
<path d="M1251.15,35.26c3.43-0.17,34.27-2.67,37.1-2.67" style="fill:none;stroke:#999;stroke-width:3"></path>
<path d="M1253.98,52.66c8.13-0.74,24.42-1.6,31.82-1.82" style="fill:none;stroke:#999;stroke-width:3"></path>
<path d="M1247.76,73.21c0.41,2.5-4.11,14.05-7.35,18.21" style="fill:none;stroke:#999;stroke-width:3"></path>
<path d="M1253.94,66.84C1259.06,81.45,1267.5,92,1285.75,93.58c6.18,0.54,7.11-2,3.5-7" style="fill:none;stroke:#999;stroke-width:3"></path>
<path d="M1269.58,67.25c1.36,3.21,5.15,7.39,6,2.85" style="fill:none;stroke:#999;stroke-width:3"></path>

<path d="M1324.92,19.08c0.61,0.95,1.43,1.92,1.43,4.04c0,0.94,0.18,22.41-0.47,30.13c-0.93,11,0.28,21.33-7.88,37.72" style="fill:none;stroke:#999;stroke-width:3"></path>
<path d="M1326.45,20.36c2.14-0.06,12.35-1.8,13.94-1.93c2.85-0.23,3.56,1.79,3.56,3.13c0,3.18-0.04,44.09-0.04,62.17c0,12.44-4.01,5.67-5.83,4.18" style="fill:none;stroke:#999;stroke-width:3"></path>
<path d="M1326.95,40.29c4.51-0.35,12.74-1.54,16.7-1.57" style="fill:none;stroke:#999;stroke-width:3"></path>
<path d="M1326.56,59.52c3.57-0.11,11.87-1.04,16.72-1.6" style="fill:none;stroke:#999;stroke-width:3"></path>
<path d="M1355.75,17.92c0.25,0.54,1.36,2.5,1.5,3.17c1.12,5.51,2.73,24.26,3.39,34.42" style="fill:none;stroke:#999;stroke-width:3"></path>
<path d="M1357.75,19.75c8-0.75,29.34-2.96,37-3.5c2.81-0.2,3.99,2.18,3.83,3.67c-0.56,5.44-1.38,23.2-3.83,33.33" style="fill:none;stroke:#999;stroke-width:3"></path>
<path d="M1375.58,20.25c1.17,1,1.6,2.57,1.59,3.92c-0.06,7.41,0.07,24.21,0.07,26.41" style="fill:none;stroke:#999;stroke-width:3"></path>
<path d="M1360.15,35.26c3.43-0.17,34.27-2.67,37.1-2.67" style="fill:none;stroke:#999;stroke-width:3"></path>
<path d="M1362.98,52.66c8.13-0.74,24.42-1.6,31.82-1.82" style="fill:none;stroke:#999;stroke-width:3"></path>
<path d="M1356.76,73.21c0.41,2.5-4.11,14.05-7.35,18.21" style="fill:none;stroke:#999;stroke-width:3"></path>
<path d="M1362.94,66.84C1368.06,81.45,1376.5,92,1394.75,93.58c6.18,0.54,7.11-2,3.5-7" style="fill:none;stroke:#999;stroke-width:3"></path>
<path d="M1378.58,67.25c1.36,3.21,5.15,7.39,6,2.85" style="fill:none;stroke:#999;stroke-width:3"></path>
<path d="M1393.83,63.92c5.4,3.18,9.81,6.03,13.08,10.97" style="fill:none;stroke:#999;stroke-width:3"></path>

</svg>