<svg width="763px" height="109px" viewBox="0 0 763 109" xmlns="http://www.w3.org/2000/svg" xmlns:xlink="http://www.w3.org/1999/xlink" xml:space="preserve" version="1.1" baseProfile="full">
<line x1="1" y1="1" x2="762" y2="1" style="stroke:#ddd;stroke-width:2"></line>
<line x1="1" y1="1" x2="1" y2="108" style="stroke:#ddd;stroke-width:2"></line>
<line x1="1" y1="108" x2="762" y2="108" style="stroke:#ddd;stroke-width:2"></line>
<line x1="762" y1="1" x2="762" y2="108" style="stroke:#ddd;stroke-width:2"></line>
<line x1="109" y1="1" x2="109" y2="108" style="stroke:#ddd;stroke-width:2"></line>
<line x1="218" y1="1" x2="218" y2="108" style="stroke:#ddd;stroke-width:2"></line>
<line x1="327" y1="1" x2="327" y2="108" style="stroke:#ddd;stroke-width:2"></line>
<line x1="436" y1="1" x2="436" y2="108" style="stroke:#ddd;stroke-width:2"></line>
<line x1="545" y1="1" x2="545" y2="108" style="stroke:#ddd;stroke-width:2"></line>
<line x1="654" y1="1" x2="654" y2="108" style="stroke:#ddd;stroke-width:2"></line>
<line x1="1" y1="54" x2="762" y2="54" style="stroke:#ddd;stroke-width:2;stroke-dasharray:3 3"></line>
<line x1="55" y1="1" x2="55" y2="108" style="stroke:#ddd;stroke-width:2;stroke-dasharray:3 3"></line>
<line x1="164" y1="1" x2="164" y2="108" style="stroke:#ddd;stroke-width:2;stroke-dasharray:3 3"></line>
<line x1="273" y1="1" x2="273" y2="108" style="stroke:#ddd;stroke-width:2;stroke-dasharray:3 3"></line>
<line x1="382" y1="1" x2="382" y2="108" style="stroke:#ddd;stroke-width:2;stroke-dasharray:3 3"></line>
<line x1="491" y1="1" x2="491" y2="108" style="stroke:#ddd;stroke-width:2;stroke-dasharray:3 3"></line>
<line x1="600" y1="1" x2="600" y2="108" style="stroke:#ddd;stroke-width:2;stroke-dasharray:3 3"></line>
<line x1="709" y1="1" x2="709" y2="108" style="stroke:#ddd;stroke-width:2;stroke-dasharray:3 3"></line>
<path d="M24.37,16.25c0.88,0.88,1.46,2.38,1.46,3.5c0,4.33-0.15,52.55-0.2,71.62c-0.01,3.52-0.01,6.05-0.01,7.12" style="fill:none;stroke:#999;stroke-width:3"></path>

<path d="M133.37,16.25c0.88,0.88,1.46,2.38,1.46,3.5c0,4.33-0.15,52.55-0.2,71.62c-0.01,3.52-0.01,6.05-0.01,7.12" style="fill:none;stroke:#999;stroke-width:3"></path>
<path d="M135.57,18.49c6.78-0.7,35.22-2.63,53.05-3.78c2.69-0.17,6.21-0.49,8.88,0.08" style="fill:none;stroke:#999;stroke-width:3"></path>

<path d="M242.37,16.25c0.88,0.88,1.46,2.38,1.46,3.5c0,4.33-0.15,52.55-0.2,71.62c-0.01,3.52-0.01,6.05-0.01,7.12" style="fill:none;stroke:#999;stroke-width:3"></path>
<path d="M244.57,18.49c6.78-0.7,35.22-2.63,53.05-3.78c2.69-0.17,6.21-0.49,8.88,0.08" style="fill:none;stroke:#999;stroke-width:3"></path>
<path d="M272.12,18.5c1.13,1.13,1.46,2.73,1.46,3.75c0,4.75-0.08,10.12-0.08,16.5" style="fill:none;stroke:#999;stroke-width:3"></path>

<path d="M351.37,16.25c0.88,0.88,1.46,2.38,1.46,3.5c0,4.33-0.15,52.55-0.2,71.62c-0.01,3.52-0.01,6.05-0.01,7.12" style="fill:none;stroke:#999;stroke-width:3"></path>
<path d="M353.57,18.49c6.78-0.7,35.22-2.63,53.05-3.78c2.69-0.17,6.21-0.49,8.88,0.08" style="fill:none;stroke:#999;stroke-width:3"></path>
<path d="M381.12,18.5c1.13,1.13,1.46,2.73,1.46,3.75c0,4.75-0.08,10.12-0.08,16.5" style="fill:none;stroke:#999;stroke-width:3"></path>
<path d="M354.0,42.5c18.38-1.75,39.32-3.24,51.25-4.5c4.83-0.51,6.25,1,5.25,5c-1.22,4.88-2.76,10.88-4,16.75" style="fill:none;stroke:#999;stroke-width:3"></path>

<path d="M460.37,16.25c0.88,0.88,1.46,2.38,1.46,3.5c0,4.33-0.15,52.55-0.2,71.62c-0.01,3.52-0.01,6.05-0.01,7.12" style="fill:none;stroke:#999;stroke-width:3"></path>
<path d="M462.57,18.49c6.78-0.7,35.22-2.63,53.05-3.78c2.69-0.17,6.21-0.49,8.88,0.08" style="fill:none;stroke:#999;stroke-width:3"></path>
<path d="M490.12,18.5c1.13,1.13,1.46,2.73,1.46,3.75c0,4.75-0.08,10.12-0.08,16.5" style="fill:none;stroke:#999;stroke-width:3"></path>
<path d="M463.0,42.5c18.38-1.75,39.32-3.24,51.25-4.5c4.83-0.51,6.25,1,5.25,5c-1.22,4.88-2.76,10.88-4,16.75" style="fill:none;stroke:#999;stroke-width:3"></path>
<path d="M462.82,64.74C468.84000000000003,64.12,497.85,62,512.0,61.13c2.72-0.17,4.9-0.29,6.25-0.34" style="fill:none;stroke:#999;stroke-width:3"></path>

<path d="M569.37,16.25c0.88,0.88,1.46,2.38,1.46,3.5c0,4.33-0.15,52.55-0.2,71.62c-0.01,3.52-0.01,6.05-0.01,7.12" style="fill:none;stroke:#999;stroke-width:3"></path>
<path d="M571.5699999999999,18.49c6.78-0.7,35.22-2.63,53.05-3.78c2.69-0.17,6.21-0.49,8.88,0.08" style="fill:none;stroke:#999;stroke-width:3"></path>
<path d="M599.12,18.5c1.13,1.13,1.46,2.73,1.46,3.75c0,4.75-0.08,10.12-0.08,16.5" style="fill:none;stroke:#999;stroke-width:3"></path>
<path d="M572.0,42.5c18.38-1.75,39.32-3.24,51.25-4.5c4.83-0.51,6.25,1,5.25,5c-1.22,4.88-2.76,10.88-4,16.75" style="fill:none;stroke:#999;stroke-width:3"></path>
<path d="M571.8199999999999,64.74C577.84,64.12,606.85,62,621.0,61.13c2.72-0.17,4.9-0.29,6.25-0.34" style="fill:none;stroke:#999;stroke-width:3"></path>
<path d="M600.12,64.5c0.94,0.94,1.46,2.23,1.46,3.25c0,4-0.08,16.88-0.08,23" style="fill:none;stroke:#999;stroke-width:3"></path>

<path d="M678.37,16.25c0.88,0.88,1.46,2.38,1.46,3.5c0,4.33-0.15,52.55-0.2,71.62c-0.01,3.52-0.01,6.05-0.01,7.12" style="fill:none;stroke:#999;stroke-width:3"></path>
<path d="M680.5699999999999,18.49c6.78-0.7,35.22-2.63,53.05-3.78c2.69-0.17,6.21-0.49,8.88,0.08" style="fill:none;stroke:#999;stroke-width:3"></path>
<path d="M708.12,18.5c1.13,1.13,1.46,2.73,1.46,3.75c0,4.75-0.08,10.12-0.08,16.5" style="fill:none;stroke:#999;stroke-width:3"></path>
<path d="M681.0,42.5c18.38-1.75,39.32-3.24,51.25-4.5c4.83-0.51,6.25,1,5.25,5c-1.22,4.88-2.76,10.88-4,16.75" style="fill:none;stroke:#999;stroke-width:3"></path>
<path d="M680.8199999999999,64.74C686.84,64.12,715.85,62,730.0,61.13c2.72-0.17,4.9-0.29,6.25-0.34" style="fill:none;stroke:#999;stroke-width:3"></path>
<path d="M709.12,64.5c0.94,0.94,1.46,2.23,1.46,3.25c0,4-0.08,16.88-0.08,23" style="fill:none;stroke:#999;stroke-width:3"></path>
<path d="M680.57,93.49c8.55-0.62,38.68-2.37,57.93-3.86c2.57-0.2,5.96-0.39,8.5,0.16" style="fill:none;stroke:#999;stroke-width:3"></path>

</svg>