<svg width="654px" height="109px" viewBox="0 0 654 109" xmlns="http://www.w3.org/2000/svg" xmlns:xlink="http://www.w3.org/1999/xlink" xml:space="preserve" version="1.1" baseProfile="full">
<line x1="1" y1="1" x2="653" y2="1" style="stroke:#ddd;stroke-width:2"></line>
<line x1="1" y1="1" x2="1" y2="108" style="stroke:#ddd;stroke-width:2"></line>
<line x1="1" y1="108" x2="653" y2="108" style="stroke:#ddd;stroke-width:2"></line>
<line x1="653" y1="1" x2="653" y2="108" style="stroke:#ddd;stroke-width:2"></line>
<line x1="109" y1="1" x2="109" y2="108" style="stroke:#ddd;stroke-width:2"></line>
<line x1="218" y1="1" x2="218" y2="108" style="stroke:#ddd;stroke-width:2"></line>
<line x1="327" y1="1" x2="327" y2="108" style="stroke:#ddd;stroke-width:2"></line>
<line x1="436" y1="1" x2="436" y2="108" style="stroke:#ddd;stroke-width:2"></line>
<line x1="545" y1="1" x2="545" y2="108" style="stroke:#ddd;stroke-width:2"></line>
<line x1="1" y1="54" x2="653" y2="54" style="stroke:#ddd;stroke-width:2;stroke-dasharray:3 3"></line>
<line x1="55" y1="1" x2="55" y2="108" style="stroke:#ddd;stroke-width:2;stroke-dasharray:3 3"></line>
<line x1="164" y1="1" x2="164" y2="108" style="stroke:#ddd;stroke-width:2;stroke-dasharray:3 3"></line>
<line x1="273" y1="1" x2="273" y2="108" style="stroke:#ddd;stroke-width:2;stroke-dasharray:3 3"></line>
<line x1="382" y1="1" x2="382" y2="108" style="stroke:#ddd;stroke-width:2;stroke-dasharray:3 3"></line>
<line x1="491" y1="1" x2="491" y2="108" style="stroke:#ddd;stroke-width:2;stroke-dasharray:3 3"></line>
<line x1="600" y1="1" x2="600" y2="108" style="stroke:#ddd;stroke-width:2;stroke-dasharray:3 3"></line>
<path d="M50.44,12.42c0.31,1.42,0.34,2.13-0.24,3.9c-1.45,4.43-3.45,7.55-7.56,13.43" style="fill:none;stroke:#999;stroke-width:3"></path>

<path d="M159.44,12.42c0.31,1.42,0.34,2.13-0.24,3.9c-1.45,4.43-3.45,7.55-7.56,13.43" style="fill:none;stroke:#999;stroke-width:3"></path>
<path d="M136.5,31.73c0.8,1.43,1.48,2.99,1.48,4.89c0,1.9-0.29,53.82-0.29,54.78c0,0.95,0.04,2.85,0.04,4.85" style="fill:none;stroke:#999;stroke-width:3"></path>

<path d="M268.44,12.42c0.31,1.42,0.34,2.13-0.24,3.9c-1.45,4.43-3.45,7.55-7.56,13.43" style="fill:none;stroke:#999;stroke-width:3"></path>
<path d="M245.5,31.73c0.8,1.43,1.48,2.99,1.48,4.89c0,1.9-0.29,53.82-0.29,54.78c0,0.95,0.04,2.85,0.04,4.85" style="fill:none;stroke:#999;stroke-width:3"></path>
<path d="M247.77,33.17c11.61-1.29,37.98-4.04,43.35-4.67c4.85-0.57,6.38,1,6.38,4.59c0,2.04-0.69,33.61-0.82,55.16c-0.01,2.4-0.02,4.68-0.02,6.78" style="fill:none;stroke:#999;stroke-width:3"></path>

<path d="M377.44,12.42c0.31,1.42,0.34,2.13-0.24,3.9c-1.45,4.43-3.45,7.55-7.56,13.43" style="fill:none;stroke:#999;stroke-width:3"></path>
<path d="M354.5,31.73c0.8,1.43,1.48,2.99,1.48,4.89c0,1.9-0.29,53.82-0.29,54.78c0,0.95,0.04,2.85,0.04,4.85" style="fill:none;stroke:#999;stroke-width:3"></path>
<path d="M356.77,33.17c11.61-1.29,37.98-4.04,43.35-4.67c4.85-0.57,6.38,1,6.38,4.59c0,2.04-0.69,33.61-0.82,55.16c-0.01,2.4-0.02,4.68-0.02,6.78" style="fill:none;stroke:#999;stroke-width:3"></path>
<path d="M357.23,51.23c11.14-1.1,37.27-3.48,47.79-3.77" style="fill:none;stroke:#999;stroke-width:3"></path>

<path d="M486.44,12.42c0.31,1.42,0.34,2.13-0.24,3.9c-1.45,4.43-3.45,7.55-7.56,13.43" style="fill:none;stroke:#999;stroke-width:3"></path>
<path d="M463.5,31.73c0.8,1.43,1.48,2.99,1.48,4.89c0,1.9-0.29,53.82-0.29,54.78c0,0.95,0.04,2.85,0.04,4.85" style="fill:none;stroke:#999;stroke-width:3"></path>
<path d="M465.77,33.17c11.61-1.29,37.98-4.04,43.35-4.67c4.85-0.57,6.38,1,6.38,4.59c0,2.04-0.69,33.61-0.82,55.16c-0.01,2.4-0.02,4.68-0.02,6.78" style="fill:none;stroke:#999;stroke-width:3"></path>
<path d="M466.23,51.23c11.14-1.1,37.27-3.48,47.79-3.77" style="fill:none;stroke:#999;stroke-width:3"></path>
<path d="M466.11,70.17C480.5,68.75,498.0,67.25,513.74,66.31" style="fill:none;stroke:#999;stroke-width:3"></path>

<path d="M595.44,12.42c0.31,1.42,0.34,2.13-0.24,3.9c-1.45,4.43-3.45,7.55-7.56,13.43" style="fill:none;stroke:#999;stroke-width:3"></path>
<path d="M572.5,31.73c0.8,1.43,1.48,2.99,1.48,4.89c0,1.9-0.29,53.82-0.29,54.78c0,0.95,0.04,2.85,0.04,4.85" style="fill:none;stroke:#999;stroke-width:3"></path>
<path d="M574.77,33.17c11.61-1.29,37.98-4.04,43.35-4.67c4.85-0.57,6.38,1,6.38,4.59c0,2.04-0.69,33.61-0.82,55.16c-0.01,2.4-0.02,4.68-0.02,6.78" style="fill:none;stroke:#999;stroke-width:3"></path>
<path d="M575.23,51.23c11.14-1.1,37.27-3.48,47.79-3.77" style="fill:none;stroke:#999;stroke-width:3"></path>
<path d="M575.11,70.17C589.5,68.75,607.0,67.25,622.74,66.31" style="fill:none;stroke:#999;stroke-width:3"></path>
<path d="M574.79,91.57c12.59-0.69,34.84-2.32,47.46-3.13" style="fill:none;stroke:#999;stroke-width:3"></path>

</svg>