<svg width="654px" height="109px" viewBox="0 0 654 109" xmlns="http://www.w3.org/2000/svg" xmlns:xlink="http://www.w3.org/1999/xlink" xml:space="preserve" version="1.1" baseProfile="full">
<line x1="1" y1="1" x2="653" y2="1" style="stroke:#ddd;stroke-width:2"></line>
<line x1="1" y1="1" x2="1" y2="108" style="stroke:#ddd;stroke-width:2"></line>
<line x1="1" y1="108" x2="653" y2="108" style="stroke:#ddd;stroke-width:2"></line>
<line x1="653" y1="1" x2="653" y2="108" style="stroke:#ddd;stroke-width:2"></line>
<line x1="109" y1="1" x2="109" y2="108" style="stroke:#ddd;stroke-width:2"></line>
<line x1="218" y1="1" x2="218" y2="108" style="stroke:#ddd;stroke-width:2"></line>
<line x1="327" y1="1" x2="327" y2="108" style="stroke:#ddd;stroke-width:2"></line>
<line x1="436" y1="1" x2="436" y2="108" style="stroke:#ddd;stroke-width:2"></line>
<line x1="545" y1="1" x2="545" y2="108" style="stroke:#ddd;stroke-width:2"></line>
<line x1="1" y1="54" x2="653" y2="54" style="stroke:#ddd;stroke-width:2;stroke-dasharray:3 3"></line>
<line x1="55" y1="1" x2="55" y2="108" style="stroke:#ddd;stroke-width:2;stroke-dasharray:3 3"></line>
<line x1="164" y1="1" x2="164" y2="108" style="stroke:#ddd;stroke-width:2;stroke-dasharray:3 3"></line>
<line x1="273" y1="1" x2="273" y2="108" style="stroke:#ddd;stroke-width:2;stroke-dasharray:3 3"></line>
<line x1="382" y1="1" x2="382" y2="108" style="stroke:#ddd;stroke-width:2;stroke-dasharray:3 3"></line>
<line x1="491" y1="1" x2="491" y2="108" style="stroke:#ddd;stroke-width:2;stroke-dasharray:3 3"></line>
<line x1="600" y1="1" x2="600" y2="108" style="stroke:#ddd;stroke-width:2;stroke-dasharray:3 3"></line>
<path d="M22.35,20.88c2.28,0.62,4.94,0.57,7.02,0.39c14.38-1.27,32.6-2.94,47.76-3.6c2.44-0.11,4.85-0.29,7.25,0.23" style="fill:none;stroke:#999;stroke-width:3"></path>

<path d="M131.35,20.88c2.28,0.62,4.94,0.57,7.02,0.39c14.38-1.27,32.6-2.94,47.76-3.6c2.44-0.11,4.85-0.29,7.25,0.23" style="fill:none;stroke:#999;stroke-width:3"></path>
<path d="M156.89,23.25c0.23,1-0.19,2.39-0.64,3c-5.25,7-9.75,11.25-17,18c-2.34,2.17-1.88,3.88,1.25,3.25c10.24-2.05,28.25-5.38,43.54-8.22" style="fill:none;stroke:#999;stroke-width:3"></path>

<path d="M240.35,20.88c2.28,0.62,4.94,0.57,7.02,0.39c14.38-1.27,32.6-2.94,47.76-3.6c2.44-0.11,4.85-0.29,7.25,0.23" style="fill:none;stroke:#999;stroke-width:3"></path>
<path d="M265.89,23.25c0.23,1-0.19,2.39-0.64,3c-5.25,7-9.75,11.25-17,18c-2.34,2.17-1.88,3.88,1.25,3.25c10.24-2.05,28.25-5.38,43.54-8.22" style="fill:none;stroke:#999;stroke-width:3"></path>
<path d="M283.62,29.62C289.4,32.69,298.55,42.23,300.0,47" style="fill:none;stroke:#999;stroke-width:3"></path>

<path d="M349.35,20.88c2.28,0.62,4.94,0.57,7.02,0.39c14.38-1.27,32.6-2.94,47.76-3.6c2.44-0.11,4.85-0.29,7.25,0.23" style="fill:none;stroke:#999;stroke-width:3"></path>
<path d="M374.89,23.25c0.23,1-0.19,2.39-0.64,3c-5.25,7-9.75,11.25-17,18c-2.34,2.17-1.88,3.88,1.25,3.25c10.24-2.05,28.25-5.38,43.54-8.22" style="fill:none;stroke:#999;stroke-width:3"></path>
<path d="M392.62,29.62C398.4,32.69,407.55,42.23,409.0,47" style="fill:none;stroke:#999;stroke-width:3"></path>
<path d="M357.13,67.95c1.92,0.59,4.61,0.5,6.59,0.33c9.87-0.8,27.11-2.63,36.53-2.95c2.13-0.07,4.27-0.15,6.38,0.24" style="fill:none;stroke:#999;stroke-width:3"></path>

<path d="M458.35,20.88c2.28,0.62,4.94,0.57,7.02,0.39c14.38-1.27,32.6-2.94,47.76-3.6c2.44-0.11,4.85-0.29,7.25,0.23" style="fill:none;stroke:#999;stroke-width:3"></path>
<path d="M483.89,23.25c0.23,1-0.19,2.39-0.64,3c-5.25,7-9.75,11.25-17,18c-2.34,2.17-1.88,3.88,1.25,3.25c10.24-2.05,28.25-5.38,43.54-8.22" style="fill:none;stroke:#999;stroke-width:3"></path>
<path d="M501.62,29.62C507.4,32.69,516.55,42.23,518.0,47" style="fill:none;stroke:#999;stroke-width:3"></path>
<path d="M466.13,67.95c1.92,0.59,4.61,0.5,6.59,0.33c9.87-0.8,27.11-2.63,36.53-2.95c2.13-0.07,4.27-0.15,6.38,0.24" style="fill:none;stroke:#999;stroke-width:3"></path>
<path d="M489.17,46.62c0.86,0.86,1.27,2.21,1.27,3.69c0,8.32-0.07,32.95-0.07,37.32" style="fill:none;stroke:#999;stroke-width:3"></path>

<path d="M567.35,20.88c2.28,0.62,4.94,0.57,7.02,0.39c14.38-1.27,32.6-2.94,47.76-3.6c2.44-0.11,4.85-0.29,7.25,0.23" style="fill:none;stroke:#999;stroke-width:3"></path>
<path d="M592.89,23.25c0.23,1-0.19,2.39-0.64,3c-5.25,7-9.75,11.25-17,18c-2.34,2.17-1.88,3.88,1.25,3.25c10.24-2.05,28.25-5.38,43.54-8.22" style="fill:none;stroke:#999;stroke-width:3"></path>
<path d="M610.62,29.62C616.4,32.69,625.55,42.23,627.0,47" style="fill:none;stroke:#999;stroke-width:3"></path>
<path d="M575.13,67.95c1.92,0.59,4.61,0.5,6.59,0.33c9.87-0.8,27.11-2.63,36.53-2.95c2.13-0.07,4.27-0.15,6.38,0.24" style="fill:none;stroke:#999;stroke-width:3"></path>
<path d="M598.1700000000001,46.62c0.86,0.86,1.27,2.21,1.27,3.69c0,8.32-0.07,32.95-0.07,37.32" style="fill:none;stroke:#999;stroke-width:3"></path>
<path d="M560.88,90.36c2.76,0.78,6.27,0.89,9.12,0.66c19.89-1.62,35.95-3.16,61.51-3.36c2.9-0.02,6.01,0.16,8.88,0.65" style="fill:none;stroke:#999;stroke-width:3"></path>

</svg>