<svg width="981px" height="109px" viewBox="0 0 981 109" xmlns="http://www.w3.org/2000/svg" xmlns:xlink="http://www.w3.org/1999/xlink" xml:space="preserve" version="1.1" baseProfile="full">
<line x1="1" y1="1" x2="980" y2="1" style="stroke:#ddd;stroke-width:2"></line>
<line x1="1" y1="1" x2="1" y2="108" style="stroke:#ddd;stroke-width:2"></line>
<line x1="1" y1="108" x2="980" y2="108" style="stroke:#ddd;stroke-width:2"></line>
<line x1="980" y1="1" x2="980" y2="108" style="stroke:#ddd;stroke-width:2"></line>
<line x1="109" y1="1" x2="109" y2="108" style="stroke:#ddd;stroke-width:2"></line>
<line x1="218" y1="1" x2="218" y2="108" style="stroke:#ddd;stroke-width:2"></line>
<line x1="327" y1="1" x2="327" y2="108" style="stroke:#ddd;stroke-width:2"></line>
<line x1="436" y1="1" x2="436" y2="108" style="stroke:#ddd;stroke-width:2"></line>
<line x1="545" y1="1" x2="545" y2="108" style="stroke:#ddd;stroke-width:2"></line>
<line x1="654" y1="1" x2="654" y2="108" style="stroke:#ddd;stroke-width:2"></line>
<line x1="763" y1="1" x2="763" y2="108" style="stroke:#ddd;stroke-width:2"></line>
<line x1="872" y1="1" x2="872" y2="108" style="stroke:#ddd;stroke-width:2"></line>
<line x1="1" y1="54" x2="980" y2="54" style="stroke:#ddd;stroke-width:2;stroke-dasharray:3 3"></line>
<line x1="55" y1="1" x2="55" y2="108" style="stroke:#ddd;stroke-width:2;stroke-dasharray:3 3"></line>
<line x1="164" y1="1" x2="164" y2="108" style="stroke:#ddd;stroke-width:2;stroke-dasharray:3 3"></line>
<line x1="273" y1="1" x2="273" y2="108" style="stroke:#ddd;stroke-width:2;stroke-dasharray:3 3"></line>
<line x1="382" y1="1" x2="382" y2="108" style="stroke:#ddd;stroke-width:2;stroke-dasharray:3 3"></line>
<line x1="491" y1="1" x2="491" y2="108" style="stroke:#ddd;stroke-width:2;stroke-dasharray:3 3"></line>
<line x1="600" y1="1" x2="600" y2="108" style="stroke:#ddd;stroke-width:2;stroke-dasharray:3 3"></line>
<line x1="709" y1="1" x2="709" y2="108" style="stroke:#ddd;stroke-width:2;stroke-dasharray:3 3"></line>
<line x1="818" y1="1" x2="818" y2="108" style="stroke:#ddd;stroke-width:2;stroke-dasharray:3 3"></line>
<line x1="927" y1="1" x2="927" y2="108" style="stroke:#ddd;stroke-width:2;stroke-dasharray:3 3"></line>
<path d="M45.63,12.21c0.05,0.21-0.75,1.56-1.07,1.78c-4.2,2.92-6.52,5.23-16.67,9.02" style="fill:none;stroke:#999;stroke-width:3"></path>

<path d="M154.63,12.21c0.05,0.21-0.75,1.56-1.07,1.78c-4.2,2.92-6.52,5.23-16.67,9.02" style="fill:none;stroke:#999;stroke-width:3"></path>
<path d="M135.32999999999998,23.16c0.81,0.61,1.14,1.99,1.34,3.24c0.73,4.6,2.54,18.63,3.27,24.84" style="fill:none;stroke:#999;stroke-width:3"></path>

<path d="M263.63,12.21c0.05,0.21-0.75,1.56-1.07,1.78c-4.2,2.92-6.52,5.23-16.67,9.02" style="fill:none;stroke:#999;stroke-width:3"></path>
<path d="M244.32999999999998,23.16c0.81,0.61,1.14,1.99,1.34,3.24c0.73,4.6,2.54,18.63,3.27,24.84" style="fill:none;stroke:#999;stroke-width:3"></path>
<path d="M277.08,17.06c0.95,0.14,1.71,0.42,3.04,0.42c1.33,0,15.42-2.68,16.94-2.82c1.52-0.14,3.35,0.91,3.14,2.5c-1.16,8.79-2.66,22.29-3.8,29c-0.16,0.97,0,1.54-0.19,2.1" style="fill:none;stroke:#999;stroke-width:3"></path>

<path d="M372.63,12.21c0.05,0.21-0.75,1.56-1.07,1.78c-4.2,2.92-6.52,5.23-16.67,9.02" style="fill:none;stroke:#999;stroke-width:3"></path>
<path d="M353.33,23.16c0.81,0.61,1.14,1.99,1.34,3.24c0.73,4.6,2.54,18.63,3.27,24.84" style="fill:none;stroke:#999;stroke-width:3"></path>
<path d="M386.08,17.06c0.95,0.14,1.71,0.42,3.04,0.42c1.33,0,15.42-2.68,16.94-2.82c1.52-0.14,3.35,0.91,3.14,2.5c-1.16,8.79-2.66,22.29-3.8,29c-0.16,0.97,0,1.54-0.19,2.1" style="fill:none;stroke:#999;stroke-width:3"></path>
<path d="M356.28,34.24c4.3-0.6,14.66-2.99,15.68-2.99c1.02,0,2.46,0,3.27,0" style="fill:none;stroke:#999;stroke-width:3"></path>

<path d="M481.63,12.21c0.05,0.21-0.75,1.56-1.07,1.78c-4.2,2.92-6.52,5.23-16.67,9.02" style="fill:none;stroke:#999;stroke-width:3"></path>
<path d="M462.33,23.16c0.81,0.61,1.14,1.99,1.34,3.24c0.73,4.6,2.54,18.63,3.27,24.84" style="fill:none;stroke:#999;stroke-width:3"></path>
<path d="M495.08,17.06c0.95,0.14,1.71,0.42,3.04,0.42c1.33,0,15.42-2.68,16.94-2.82c1.52-0.14,3.35,0.91,3.14,2.5c-1.16,8.79-2.66,22.29-3.8,29c-0.16,0.97,0,1.54-0.19,2.1" style="fill:none;stroke:#999;stroke-width:3"></path>
<path d="M465.28,34.24c4.3-0.6,14.66-2.99,15.68-2.99c1.02,0,2.46,0,3.27,0" style="fill:none;stroke:#999;stroke-width:3"></path>
<path d="M495.0,31.06c0.95,0.14,1.71,0.42,3.04,0.42c1.33,0,16.95-1.6,18.47-1.74" style="fill:none;stroke:#999;stroke-width:3"></path>

<path d="M590.63,12.21c0.05,0.21-0.75,1.56-1.07,1.78c-4.2,2.92-6.52,5.23-16.67,9.02" style="fill:none;stroke:#999;stroke-width:3"></path>
<path d="M571.3299999999999,23.16c0.81,0.61,1.14,1.99,1.34,3.24c0.73,4.6,2.54,18.63,3.27,24.84" style="fill:none;stroke:#999;stroke-width:3"></path>
<path d="M604.0799999999999,17.06c0.95,0.14,1.71,0.42,3.04,0.42c1.33,0,15.42-2.68,16.94-2.82c1.52-0.14,3.35,0.91,3.14,2.5c-1.16,8.79-2.66,22.29-3.8,29c-0.16,0.97,0,1.54-0.19,2.1" style="fill:none;stroke:#999;stroke-width:3"></path>
<path d="M574.28,34.24c4.3-0.6,14.66-2.99,15.68-2.99c1.02,0,2.46,0,3.27,0" style="fill:none;stroke:#999;stroke-width:3"></path>
<path d="M604.0,31.06c0.95,0.14,1.71,0.42,3.04,0.42c1.33,0,16.95-1.6,18.47-1.74" style="fill:none;stroke:#999;stroke-width:3"></path>
<path d="M576.12,48.87c4.75-0.28,43.48-3.26,46.33-3.4" style="fill:none;stroke:#999;stroke-width:3"></path>

<path d="M699.63,12.21c0.05,0.21-0.75,1.56-1.07,1.78c-4.2,2.92-6.52,5.23-16.67,9.02" style="fill:none;stroke:#999;stroke-width:3"></path>
<path d="M680.3299999999999,23.16c0.81,0.61,1.14,1.99,1.34,3.24c0.73,4.6,2.54,18.63,3.27,24.84" style="fill:none;stroke:#999;stroke-width:3"></path>
<path d="M713.0799999999999,17.06c0.95,0.14,1.71,0.42,3.04,0.42c1.33,0,15.42-2.68,16.94-2.82c1.52-0.14,3.35,0.91,3.14,2.5c-1.16,8.79-2.66,22.29-3.8,29c-0.16,0.97,0,1.54-0.19,2.1" style="fill:none;stroke:#999;stroke-width:3"></path>
<path d="M683.28,34.24c4.3-0.6,14.66-2.99,15.68-2.99c1.02,0,2.46,0,3.27,0" style="fill:none;stroke:#999;stroke-width:3"></path>
<path d="M713.0,31.06c0.95,0.14,1.71,0.42,3.04,0.42c1.33,0,16.95-1.6,18.47-1.74" style="fill:none;stroke:#999;stroke-width:3"></path>
<path d="M685.12,48.87c4.75-0.28,43.48-3.26,46.33-3.4" style="fill:none;stroke:#999;stroke-width:3"></path>
<path d="M670.63,67.23c1.52,0.54,4.3,0.63,5.82,0.54C692.25,66.86,722.0,64,742.06,63.54c2.53-0.06,4.05,0.26,5.31,0.53" style="fill:none;stroke:#999;stroke-width:3"></path>

<path d="M808.63,12.21c0.05,0.21-0.75,1.56-1.07,1.78c-4.2,2.92-6.52,5.23-16.67,9.02" style="fill:none;stroke:#999;stroke-width:3"></path>
<path d="M789.3299999999999,23.16c0.81,0.61,1.14,1.99,1.34,3.24c0.73,4.6,2.54,18.63,3.27,24.84" style="fill:none;stroke:#999;stroke-width:3"></path>
<path d="M822.0799999999999,17.06c0.95,0.14,1.71,0.42,3.04,0.42c1.33,0,15.42-2.68,16.94-2.82c1.52-0.14,3.35,0.91,3.14,2.5c-1.16,8.79-2.66,22.29-3.8,29c-0.16,0.97,0,1.54-0.19,2.1" style="fill:none;stroke:#999;stroke-width:3"></path>
<path d="M792.28,34.24c4.3-0.6,14.66-2.99,15.68-2.99c1.02,0,2.46,0,3.27,0" style="fill:none;stroke:#999;stroke-width:3"></path>
<path d="M822.0,31.06c0.95,0.14,1.71,0.42,3.04,0.42c1.33,0,16.95-1.6,18.47-1.74" style="fill:none;stroke:#999;stroke-width:3"></path>
<path d="M794.12,48.87c4.75-0.28,43.48-3.26,46.33-3.4" style="fill:none;stroke:#999;stroke-width:3"></path>
<path d="M779.63,67.23c1.52,0.54,4.3,0.63,5.82,0.54C801.25,66.86,831.0,64,851.06,63.54c2.53-0.06,4.05,0.26,5.31,0.53" style="fill:none;stroke:#999;stroke-width:3"></path>
<path d="M804.3,52.75c0.69,1.07,1.39,2.18,1.39,3.74c0,17.18-0.4,33.71-20.44,42.76" style="fill:none;stroke:#999;stroke-width:3"></path>

<path d="M917.63,12.21c0.05,0.21-0.75,1.56-1.07,1.78c-4.2,2.92-6.52,5.23-16.67,9.02" style="fill:none;stroke:#999;stroke-width:3"></path>
<path d="M898.3299999999999,23.16c0.81,0.61,1.14,1.99,1.34,3.24c0.73,4.6,2.54,18.63,3.27,24.84" style="fill:none;stroke:#999;stroke-width:3"></path>
<path d="M931.0799999999999,17.06c0.95,0.14,1.71,0.42,3.04,0.42c1.33,0,15.42-2.68,16.94-2.82c1.52-0.14,3.35,0.91,3.14,2.5c-1.16,8.79-2.66,22.29-3.8,29c-0.16,0.97,0,1.54-0.19,2.1" style="fill:none;stroke:#999;stroke-width:3"></path>
<path d="M901.28,34.24c4.3-0.6,14.66-2.99,15.68-2.99c1.02,0,2.46,0,3.27,0" style="fill:none;stroke:#999;stroke-width:3"></path>
<path d="M931.0,31.06c0.95,0.14,1.71,0.42,3.04,0.42c1.33,0,16.95-1.6,18.47-1.74" style="fill:none;stroke:#999;stroke-width:3"></path>
<path d="M903.12,48.87c4.75-0.28,43.48-3.26,46.33-3.4" style="fill:none;stroke:#999;stroke-width:3"></path>
<path d="M888.63,67.23c1.52,0.54,4.3,0.63,5.82,0.54C910.25,66.86,940.0,64,960.06,63.54c2.53-0.06,4.05,0.26,5.31,0.53" style="fill:none;stroke:#999;stroke-width:3"></path>
<path d="M913.3,52.75c0.69,1.07,1.39,2.18,1.39,3.74c0,17.18-0.4,33.71-20.44,42.76" style="fill:none;stroke:#999;stroke-width:3"></path>
<path d="M937.62,49.5c1.13,1,1.96,2.25,1.96,4.25c0,6.75,0,39.25-0.22,45.5" style="fill:none;stroke:#999;stroke-width:3"></path>

</svg>