<svg width="1417px" height="109px" viewBox="0 0 1417 109" xmlns="http://www.w3.org/2000/svg" xmlns:xlink="http://www.w3.org/1999/xlink" xml:space="preserve" version="1.1" baseProfile="full">
<line x1="1" y1="1" x2="1416" y2="1" style="stroke:#ddd;stroke-width:2"></line>
<line x1="1" y1="1" x2="1" y2="108" style="stroke:#ddd;stroke-width:2"></line>
<line x1="1" y1="108" x2="1416" y2="108" style="stroke:#ddd;stroke-width:2"></line>
<line x1="1416" y1="1" x2="1416" y2="108" style="stroke:#ddd;stroke-width:2"></line>
<line x1="109" y1="1" x2="109" y2="108" style="stroke:#ddd;stroke-width:2"></line>
<line x1="218" y1="1" x2="218" y2="108" style="stroke:#ddd;stroke-width:2"></line>
<line x1="327" y1="1" x2="327" y2="108" style="stroke:#ddd;stroke-width:2"></line>
<line x1="436" y1="1" x2="436" y2="108" style="stroke:#ddd;stroke-width:2"></line>
<line x1="545" y1="1" x2="545" y2="108" style="stroke:#ddd;stroke-width:2"></line>
<line x1="654" y1="1" x2="654" y2="108" style="stroke:#ddd;stroke-width:2"></line>
<line x1="763" y1="1" x2="763" y2="108" style="stroke:#ddd;stroke-width:2"></line>
<line x1="872" y1="1" x2="872" y2="108" style="stroke:#ddd;stroke-width:2"></line>
<line x1="981" y1="1" x2="981" y2="108" style="stroke:#ddd;stroke-width:2"></line>
<line x1="1090" y1="1" x2="1090" y2="108" style="stroke:#ddd;stroke-width:2"></line>
<line x1="1199" y1="1" x2="1199" y2="108" style="stroke:#ddd;stroke-width:2"></line>
<line x1="1308" y1="1" x2="1308" y2="108" style="stroke:#ddd;stroke-width:2"></line>
<line x1="1" y1="54" x2="1416" y2="54" style="stroke:#ddd;stroke-width:2;stroke-dasharray:3 3"></line>
<line x1="55" y1="1" x2="55" y2="108" style="stroke:#ddd;stroke-width:2;stroke-dasharray:3 3"></line>
<line x1="164" y1="1" x2="164" y2="108" style="stroke:#ddd;stroke-width:2;stroke-dasharray:3 3"></line>
<line x1="273" y1="1" x2="273" y2="108" style="stroke:#ddd;stroke-width:2;stroke-dasharray:3 3"></line>
<line x1="382" y1="1" x2="382" y2="108" style="stroke:#ddd;stroke-width:2;stroke-dasharray:3 3"></line>
<line x1="491" y1="1" x2="491" y2="108" style="stroke:#ddd;stroke-width:2;stroke-dasharray:3 3"></line>
<line x1="600" y1="1" x2="600" y2="108" style="stroke:#ddd;stroke-width:2;stroke-dasharray:3 3"></line>
<line x1="709" y1="1" x2="709" y2="108" style="stroke:#ddd;stroke-width:2;stroke-dasharray:3 3"></line>
<line x1="818" y1="1" x2="818" y2="108" style="stroke:#ddd;stroke-width:2;stroke-dasharray:3 3"></line>
<line x1="927" y1="1" x2="927" y2="108" style="stroke:#ddd;stroke-width:2;stroke-dasharray:3 3"></line>
<line x1="1036" y1="1" x2="1036" y2="108" style="stroke:#ddd;stroke-width:2;stroke-dasharray:3 3"></line>
<line x1="1145" y1="1" x2="1145" y2="108" style="stroke:#ddd;stroke-width:2;stroke-dasharray:3 3"></line>
<line x1="1254" y1="1" x2="1254" y2="108" style="stroke:#ddd;stroke-width:2;stroke-dasharray:3 3"></line>
<line x1="1363" y1="1" x2="1363" y2="108" style="stroke:#ddd;stroke-width:2;stroke-dasharray:3 3"></line>
<path d="M44.6,9.38c0.04,0.21,0.19,0.61-0.09,0.83c-3.6,2.97-9.5,5.91-15.53,7.98" style="fill:none;stroke:#999;stroke-width:3"></path>

<path d="M153.6,9.38c0.04,0.21,0.19,0.61-0.09,0.83c-3.6,2.97-9.5,5.91-15.53,7.98" style="fill:none;stroke:#999;stroke-width:3"></path>
<path d="M135.42000000000002,16.58c0.53,0.42,1.61,1.96,1.74,2.83c0.48,3.18,2.83,12.46,3.31,16.76" style="fill:none;stroke:#999;stroke-width:3"></path>

<path d="M262.6,9.38c0.04,0.21,0.19,0.61-0.09,0.83c-3.6,2.97-9.5,5.91-15.53,7.98" style="fill:none;stroke:#999;stroke-width:3"></path>
<path d="M244.42000000000002,16.58c0.53,0.42,1.61,1.96,1.74,2.83c0.48,3.18,2.83,12.46,3.31,16.76" style="fill:none;stroke:#999;stroke-width:3"></path>
<path d="M279.08,12.92c0.81,0.09,2.01,0.5,3.33,0.5c1.23,0,14.37-1.59,15.78-1.69c1.41-0.1,2.58,0.51,2.47,1.14c-1.06,5.99-3.53,16.26-4.58,21.22" style="fill:none;stroke:#999;stroke-width:3"></path>

<path d="M371.6,9.38c0.04,0.21,0.19,0.61-0.09,0.83c-3.6,2.97-9.5,5.91-15.53,7.98" style="fill:none;stroke:#999;stroke-width:3"></path>
<path d="M353.42,16.58c0.53,0.42,1.61,1.96,1.74,2.83c0.48,3.18,2.83,12.46,3.31,16.76" style="fill:none;stroke:#999;stroke-width:3"></path>
<path d="M388.08,12.92c0.81,0.09,2.01,0.5,3.33,0.5c1.23,0,14.37-1.59,15.78-1.69c1.41-0.1,2.58,0.51,2.47,1.14c-1.06,5.99-3.53,16.26-4.58,21.22" style="fill:none;stroke:#999;stroke-width:3"></path>
<path d="M358.1,25.39c4.98-0.95,13.04-2.3,13.98-2.3c0.94,0,3.08,0,3.83,0" style="fill:none;stroke:#999;stroke-width:3"></path>

<path d="M480.6,9.38c0.04,0.21,0.19,0.61-0.09,0.83c-3.6,2.97-9.5,5.91-15.53,7.98" style="fill:none;stroke:#999;stroke-width:3"></path>
<path d="M462.42,16.58c0.53,0.42,1.61,1.96,1.74,2.83c0.48,3.18,2.83,12.46,3.31,16.76" style="fill:none;stroke:#999;stroke-width:3"></path>
<path d="M497.08,12.92c0.81,0.09,2.01,0.5,3.33,0.5c1.23,0,14.37-1.59,15.78-1.69c1.41-0.1,2.58,0.51,2.47,1.14c-1.06,5.99-3.53,16.26-4.58,21.22" style="fill:none;stroke:#999;stroke-width:3"></path>
<path d="M467.1,25.39c4.98-0.95,13.04-2.3,13.98-2.3c0.94,0,3.08,0,3.83,0" style="fill:none;stroke:#999;stroke-width:3"></path>
<path d="M495.25,22.08c0.94,0.16,2.86,0.67,4.17,0.67c1.31,0,15.84-1.17,17.33-1.33" style="fill:none;stroke:#999;stroke-width:3"></path>

<path d="M589.6,9.38c0.04,0.21,0.19,0.61-0.09,0.83c-3.6,2.97-9.5,5.91-15.53,7.98" style="fill:none;stroke:#999;stroke-width:3"></path>
<path d="M571.4200000000001,16.58c0.53,0.42,1.61,1.96,1.74,2.83c0.48,3.18,2.83,12.46,3.31,16.76" style="fill:none;stroke:#999;stroke-width:3"></path>
<path d="M606.0799999999999,12.92c0.81,0.09,2.01,0.5,3.33,0.5c1.23,0,14.37-1.59,15.78-1.69c1.41-0.1,2.58,0.51,2.47,1.14c-1.06,5.99-3.53,16.26-4.58,21.22" style="fill:none;stroke:#999;stroke-width:3"></path>
<path d="M576.1,25.39c4.98-0.95,13.04-2.3,13.98-2.3c0.94,0,3.08,0,3.83,0" style="fill:none;stroke:#999;stroke-width:3"></path>
<path d="M604.25,22.08c0.94,0.16,2.86,0.67,4.17,0.67c1.31,0,15.84-1.17,17.33-1.33" style="fill:none;stroke:#999;stroke-width:3"></path>
<path d="M577.16,34.57c10.16-0.89,34.06-3.07,46-3.42" style="fill:none;stroke:#999;stroke-width:3"></path>

<path d="M698.6,9.38c0.04,0.21,0.19,0.61-0.09,0.83c-3.6,2.97-9.5,5.91-15.53,7.98" style="fill:none;stroke:#999;stroke-width:3"></path>
<path d="M680.4200000000001,16.58c0.53,0.42,1.61,1.96,1.74,2.83c0.48,3.18,2.83,12.46,3.31,16.76" style="fill:none;stroke:#999;stroke-width:3"></path>
<path d="M715.0799999999999,12.92c0.81,0.09,2.01,0.5,3.33,0.5c1.23,0,14.37-1.59,15.78-1.69c1.41-0.1,2.58,0.51,2.47,1.14c-1.06,5.99-3.53,16.26-4.58,21.22" style="fill:none;stroke:#999;stroke-width:3"></path>
<path d="M685.1,25.39c4.98-0.95,13.04-2.3,13.98-2.3c0.94,0,3.08,0,3.83,0" style="fill:none;stroke:#999;stroke-width:3"></path>
<path d="M713.25,22.08c0.94,0.16,2.86,0.67,4.17,0.67c1.31,0,15.84-1.17,17.33-1.33" style="fill:none;stroke:#999;stroke-width:3"></path>
<path d="M686.16,34.57c10.16-0.89,34.06-3.07,46-3.42" style="fill:none;stroke:#999;stroke-width:3"></path>
<path d="M683.08,42.42c0.82,0.73,1.81,1.94,2,2.67c1.12,4.23,2.94,12.82,4.09,20.69" style="fill:none;stroke:#999;stroke-width:3"></path>

<path d="M807.6,9.38c0.04,0.21,0.19,0.61-0.09,0.83c-3.6,2.97-9.5,5.91-15.53,7.98" style="fill:none;stroke:#999;stroke-width:3"></path>
<path d="M789.4200000000001,16.58c0.53,0.42,1.61,1.96,1.74,2.83c0.48,3.18,2.83,12.46,3.31,16.76" style="fill:none;stroke:#999;stroke-width:3"></path>
<path d="M824.0799999999999,12.92c0.81,0.09,2.01,0.5,3.33,0.5c1.23,0,14.37-1.59,15.78-1.69c1.41-0.1,2.58,0.51,2.47,1.14c-1.06,5.99-3.53,16.26-4.58,21.22" style="fill:none;stroke:#999;stroke-width:3"></path>
<path d="M794.1,25.39c4.98-0.95,13.04-2.3,13.98-2.3c0.94,0,3.08,0,3.83,0" style="fill:none;stroke:#999;stroke-width:3"></path>
<path d="M822.25,22.08c0.94,0.16,2.86,0.67,4.17,0.67c1.31,0,15.84-1.17,17.33-1.33" style="fill:none;stroke:#999;stroke-width:3"></path>
<path d="M795.16,34.57c10.16-0.89,34.06-3.07,46-3.42" style="fill:none;stroke:#999;stroke-width:3"></path>
<path d="M792.08,42.42c0.82,0.73,1.81,1.94,2,2.67c1.12,4.23,2.94,12.82,4.09,20.69" style="fill:none;stroke:#999;stroke-width:3"></path>
<path d="M793.42,43.42c12.57-0.75,38.59-2.88,47.17-3c3.55-0.05,3.48,1.92,3,4.33c-0.98,4.93-2.15,10.83-4.17,19" style="fill:none;stroke:#999;stroke-width:3"></path>

<path d="M916.6,9.38c0.04,0.21,0.19,0.61-0.09,0.83c-3.6,2.97-9.5,5.91-15.53,7.98" style="fill:none;stroke:#999;stroke-width:3"></path>
<path d="M898.4200000000001,16.58c0.53,0.42,1.61,1.96,1.74,2.83c0.48,3.18,2.83,12.46,3.31,16.76" style="fill:none;stroke:#999;stroke-width:3"></path>
<path d="M933.0799999999999,12.92c0.81,0.09,2.01,0.5,3.33,0.5c1.23,0,14.37-1.59,15.78-1.69c1.41-0.1,2.58,0.51,2.47,1.14c-1.06,5.99-3.53,16.26-4.58,21.22" style="fill:none;stroke:#999;stroke-width:3"></path>
<path d="M903.1,25.39c4.98-0.95,13.04-2.3,13.98-2.3c0.94,0,3.08,0,3.83,0" style="fill:none;stroke:#999;stroke-width:3"></path>
<path d="M931.25,22.08c0.94,0.16,2.86,0.67,4.17,0.67c1.31,0,15.84-1.17,17.33-1.33" style="fill:none;stroke:#999;stroke-width:3"></path>
<path d="M904.16,34.57c10.16-0.89,34.06-3.07,46-3.42" style="fill:none;stroke:#999;stroke-width:3"></path>
<path d="M901.08,42.42c0.82,0.73,1.81,1.94,2,2.67c1.12,4.23,2.94,12.82,4.09,20.69" style="fill:none;stroke:#999;stroke-width:3"></path>
<path d="M902.42,43.42c12.57-0.75,38.59-2.88,47.17-3c3.55-0.05,3.48,1.92,3,4.33c-0.98,4.93-2.15,10.83-4.17,19" style="fill:none;stroke:#999;stroke-width:3"></path>
<path d="M925.42,42.75c0.68,0.54,1.15,2.37,1.16,3.28c0.05,6.34,0.26,13.83,0.26,15.62" style="fill:none;stroke:#999;stroke-width:3"></path>

<path d="M1025.6,9.38c0.04,0.21,0.19,0.61-0.09,0.83c-3.6,2.97-9.5,5.91-15.53,7.98" style="fill:none;stroke:#999;stroke-width:3"></path>
<path d="M1007.4200000000001,16.58c0.53,0.42,1.61,1.96,1.74,2.83c0.48,3.18,2.83,12.46,3.31,16.76" style="fill:none;stroke:#999;stroke-width:3"></path>
<path d="M1042.08,12.92c0.81,0.09,2.01,0.5,3.33,0.5c1.23,0,14.37-1.59,15.78-1.69c1.41-0.1,2.58,0.51,2.47,1.14c-1.06,5.99-3.53,16.26-4.58,21.22" style="fill:none;stroke:#999;stroke-width:3"></path>
<path d="M1012.1,25.39c4.98-0.95,13.04-2.3,13.98-2.3c0.94,0,3.08,0,3.83,0" style="fill:none;stroke:#999;stroke-width:3"></path>
<path d="M1040.25,22.08c0.94,0.16,2.86,0.67,4.17,0.67c1.31,0,15.84-1.17,17.33-1.33" style="fill:none;stroke:#999;stroke-width:3"></path>
<path d="M1013.16,34.57c10.16-0.89,34.06-3.07,46-3.42" style="fill:none;stroke:#999;stroke-width:3"></path>
<path d="M1010.08,42.42c0.82,0.73,1.81,1.94,2,2.67c1.12,4.23,2.94,12.82,4.09,20.69" style="fill:none;stroke:#999;stroke-width:3"></path>
<path d="M1011.42,43.42c12.57-0.75,38.59-2.88,47.17-3c3.55-0.05,3.48,1.92,3,4.33c-0.98,4.93-2.15,10.83-4.17,19" style="fill:none;stroke:#999;stroke-width:3"></path>
<path d="M1034.42,42.75c0.68,0.54,1.15,2.37,1.16,3.28c0.05,6.34,0.26,13.83,0.26,15.62" style="fill:none;stroke:#999;stroke-width:3"></path>
<path d="M1014.42,52.92c7.3-0.84,39.89-2.8,45.83-2.83" style="fill:none;stroke:#999;stroke-width:3"></path>

<path d="M1134.6,9.38c0.04,0.21,0.19,0.61-0.09,0.83c-3.6,2.97-9.5,5.91-15.53,7.98" style="fill:none;stroke:#999;stroke-width:3"></path>
<path d="M1116.42,16.58c0.53,0.42,1.61,1.96,1.74,2.83c0.48,3.18,2.83,12.46,3.31,16.76" style="fill:none;stroke:#999;stroke-width:3"></path>
<path d="M1151.08,12.92c0.81,0.09,2.01,0.5,3.33,0.5c1.23,0,14.37-1.59,15.78-1.69c1.41-0.1,2.58,0.51,2.47,1.14c-1.06,5.99-3.53,16.26-4.58,21.22" style="fill:none;stroke:#999;stroke-width:3"></path>
<path d="M1121.1,25.39c4.98-0.95,13.04-2.3,13.98-2.3c0.94,0,3.08,0,3.83,0" style="fill:none;stroke:#999;stroke-width:3"></path>
<path d="M1149.25,22.08c0.94,0.16,2.86,0.67,4.17,0.67c1.31,0,15.84-1.17,17.33-1.33" style="fill:none;stroke:#999;stroke-width:3"></path>
<path d="M1122.1599999999999,34.57c10.16-0.89,34.06-3.07,46-3.42" style="fill:none;stroke:#999;stroke-width:3"></path>
<path d="M1119.08,42.42c0.82,0.73,1.81,1.94,2,2.67c1.12,4.23,2.94,12.82,4.09,20.69" style="fill:none;stroke:#999;stroke-width:3"></path>
<path d="M1120.42,43.42c12.57-0.75,38.59-2.88,47.17-3c3.55-0.05,3.48,1.92,3,4.33c-0.98,4.93-2.15,10.83-4.17,19" style="fill:none;stroke:#999;stroke-width:3"></path>
<path d="M1143.42,42.75c0.68,0.54,1.15,2.37,1.16,3.28c0.05,6.34,0.26,13.83,0.26,15.62" style="fill:none;stroke:#999;stroke-width:3"></path>
<path d="M1123.42,52.92c7.3-0.84,39.89-2.8,45.83-2.83" style="fill:none;stroke:#999;stroke-width:3"></path>
<path d="M1125.08,63.58c12.17-1.44,27-1.98,41.33-2.5" style="fill:none;stroke:#999;stroke-width:3"></path>

<path d="M1243.6,9.38c0.04,0.21,0.19,0.61-0.09,0.83c-3.6,2.97-9.5,5.91-15.53,7.98" style="fill:none;stroke:#999;stroke-width:3"></path>
<path d="M1225.42,16.58c0.53,0.42,1.61,1.96,1.74,2.83c0.48,3.18,2.83,12.46,3.31,16.76" style="fill:none;stroke:#999;stroke-width:3"></path>
<path d="M1260.08,12.92c0.81,0.09,2.01,0.5,3.33,0.5c1.23,0,14.37-1.59,15.78-1.69c1.41-0.1,2.58,0.51,2.47,1.14c-1.06,5.99-3.53,16.26-4.58,21.22" style="fill:none;stroke:#999;stroke-width:3"></path>
<path d="M1230.1,25.39c4.98-0.95,13.04-2.3,13.98-2.3c0.94,0,3.08,0,3.83,0" style="fill:none;stroke:#999;stroke-width:3"></path>
<path d="M1258.25,22.08c0.94,0.16,2.86,0.67,4.17,0.67c1.31,0,15.84-1.17,17.33-1.33" style="fill:none;stroke:#999;stroke-width:3"></path>
<path d="M1231.1599999999999,34.57c10.16-0.89,34.06-3.07,46-3.42" style="fill:none;stroke:#999;stroke-width:3"></path>
<path d="M1228.08,42.42c0.82,0.73,1.81,1.94,2,2.67c1.12,4.23,2.94,12.82,4.09,20.69" style="fill:none;stroke:#999;stroke-width:3"></path>
<path d="M1229.42,43.42c12.57-0.75,38.59-2.88,47.17-3c3.55-0.05,3.48,1.92,3,4.33c-0.98,4.93-2.15,10.83-4.17,19" style="fill:none;stroke:#999;stroke-width:3"></path>
<path d="M1252.42,42.75c0.68,0.54,1.15,2.37,1.16,3.28c0.05,6.34,0.26,13.83,0.26,15.62" style="fill:none;stroke:#999;stroke-width:3"></path>
<path d="M1232.42,52.92c7.3-0.84,39.89-2.8,45.83-2.83" style="fill:none;stroke:#999;stroke-width:3"></path>
<path d="M1234.08,63.58c12.17-1.44,27-1.98,41.33-2.5" style="fill:none;stroke:#999;stroke-width:3"></path>
<path d="M1223.75,74.08c1.54,0.43,3.21,0.84,6,0.67c13-0.83,41.34-3.59,46.19-3.94c3.15-0.23,3.56,1.51,3.39,3.11c-0.46,4.21-5.64,16.5-9.58,20.66c-3.15,3.33-3.83,1.33-6-0.17" style="fill:none;stroke:#999;stroke-width:3"></path>

<path d="M1352.6,9.38c0.04,0.21,0.19,0.61-0.09,0.83c-3.6,2.97-9.5,5.91-15.53,7.98" style="fill:none;stroke:#999;stroke-width:3"></path>
<path d="M1334.42,16.58c0.53,0.42,1.61,1.96,1.74,2.83c0.48,3.18,2.83,12.46,3.31,16.76" style="fill:none;stroke:#999;stroke-width:3"></path>
<path d="M1369.08,12.92c0.81,0.09,2.01,0.5,3.33,0.5c1.23,0,14.37-1.59,15.78-1.69c1.41-0.1,2.58,0.51,2.47,1.14c-1.06,5.99-3.53,16.26-4.58,21.22" style="fill:none;stroke:#999;stroke-width:3"></path>
<path d="M1339.1,25.39c4.98-0.95,13.04-2.3,13.98-2.3c0.94,0,3.08,0,3.83,0" style="fill:none;stroke:#999;stroke-width:3"></path>
<path d="M1367.25,22.08c0.94,0.16,2.86,0.67,4.17,0.67c1.31,0,15.84-1.17,17.33-1.33" style="fill:none;stroke:#999;stroke-width:3"></path>
<path d="M1340.1599999999999,34.57c10.16-0.89,34.06-3.07,46-3.42" style="fill:none;stroke:#999;stroke-width:3"></path>
<path d="M1337.08,42.42c0.82,0.73,1.81,1.94,2,2.67c1.12,4.23,2.94,12.82,4.09,20.69" style="fill:none;stroke:#999;stroke-width:3"></path>
<path d="M1338.42,43.42c12.57-0.75,38.59-2.88,47.17-3c3.55-0.05,3.48,1.92,3,4.33c-0.98,4.93-2.15,10.83-4.17,19" style="fill:none;stroke:#999;stroke-width:3"></path>
<path d="M1361.42,42.75c0.68,0.54,1.15,2.37,1.16,3.28c0.05,6.34,0.26,13.83,0.26,15.62" style="fill:none;stroke:#999;stroke-width:3"></path>
<path d="M1341.42,52.92c7.3-0.84,39.89-2.8,45.83-2.83" style="fill:none;stroke:#999;stroke-width:3"></path>
<path d="M1343.08,63.58c12.17-1.44,27-1.98,41.33-2.5" style="fill:none;stroke:#999;stroke-width:3"></path>
<path d="M1332.75,74.08c1.54,0.43,3.21,0.84,6,0.67c13-0.83,41.34-3.59,46.19-3.94c3.15-0.23,3.56,1.51,3.39,3.11c-0.46,4.21-5.64,16.5-9.58,20.66c-3.15,3.33-3.83,1.33-6-0.17" style="fill:none;stroke:#999;stroke-width:3"></path>
<path d="M1359.78,65.08c0.79,1.01,0.77,2.08,0.48,3.21c-3.96,15.4-15.22,25.88-33.78,30.39" style="fill:none;stroke:#999;stroke-width:3"></path>

</svg>