<svg width="654px" height="109px" viewBox="0 0 654 109" xmlns="http://www.w3.org/2000/svg" xmlns:xlink="http://www.w3.org/1999/xlink" xml:space="preserve" version="1.1" baseProfile="full">
<line x1="1" y1="1" x2="653" y2="1" style="stroke:#ddd;stroke-width:2"></line>
<line x1="1" y1="1" x2="1" y2="108" style="stroke:#ddd;stroke-width:2"></line>
<line x1="1" y1="108" x2="653" y2="108" style="stroke:#ddd;stroke-width:2"></line>
<line x1="653" y1="1" x2="653" y2="108" style="stroke:#ddd;stroke-width:2"></line>
<line x1="109" y1="1" x2="109" y2="108" style="stroke:#ddd;stroke-width:2"></line>
<line x1="218" y1="1" x2="218" y2="108" style="stroke:#ddd;stroke-width:2"></line>
<line x1="327" y1="1" x2="327" y2="108" style="stroke:#ddd;stroke-width:2"></line>
<line x1="436" y1="1" x2="436" y2="108" style="stroke:#ddd;stroke-width:2"></line>
<line x1="545" y1="1" x2="545" y2="108" style="stroke:#ddd;stroke-width:2"></line>
<line x1="1" y1="54" x2="653" y2="54" style="stroke:#ddd;stroke-width:2;stroke-dasharray:3 3"></line>
<line x1="55" y1="1" x2="55" y2="108" style="stroke:#ddd;stroke-width:2;stroke-dasharray:3 3"></line>
<line x1="164" y1="1" x2="164" y2="108" style="stroke:#ddd;stroke-width:2;stroke-dasharray:3 3"></line>
<line x1="273" y1="1" x2="273" y2="108" style="stroke:#ddd;stroke-width:2;stroke-dasharray:3 3"></line>
<line x1="382" y1="1" x2="382" y2="108" style="stroke:#ddd;stroke-width:2;stroke-dasharray:3 3"></line>
<line x1="491" y1="1" x2="491" y2="108" style="stroke:#ddd;stroke-width:2;stroke-dasharray:3 3"></line>
<line x1="600" y1="1" x2="600" y2="108" style="stroke:#ddd;stroke-width:2;stroke-dasharray:3 3"></line>
<path d="M67.12,11.5c-0.25,1.12-1,2.25-2.27,3.11c-5.1,3.46-18.98,9.89-37.47,15.41" style="fill:none;stroke:#999;stroke-width:3"></path>

<path d="M176.12,11.5c-0.25,1.12-1,2.25-2.27,3.11c-5.1,3.46-18.98,9.89-37.47,15.41" style="fill:none;stroke:#999;stroke-width:3"></path>
<path d="M123.63,48.81c1.8,0.41,6.32,0.64,8.09,0.41c17.66-2.34,47.03-6.22,66.36-6.71c3-0.08,4.8,0.19,6.3,0.4" style="fill:none;stroke:#999;stroke-width:3"></path>

<path d="M285.12,11.5c-0.25,1.12-1,2.25-2.27,3.11c-5.1,3.46-18.98,9.89-37.47,15.41" style="fill:none;stroke:#999;stroke-width:3"></path>
<path d="M232.63,48.81c1.8,0.41,6.32,0.64,8.09,0.41c17.66-2.34,47.03-6.22,66.36-6.71c3-0.08,4.8,0.19,6.3,0.4" style="fill:none;stroke:#999;stroke-width:3"></path>
<path d="M270.56,25.26c1.21,1.21,1.76,2.99,1.76,4.58c0,4.28,0,29.41,0,38.91" style="fill:none;stroke:#999;stroke-width:3"></path>

<path d="M394.12,11.5c-0.25,1.12-1,2.25-2.27,3.11c-5.1,3.46-18.98,9.89-37.47,15.41" style="fill:none;stroke:#999;stroke-width:3"></path>
<path d="M341.63,48.81c1.8,0.41,6.32,0.64,8.09,0.41c17.66-2.34,47.03-6.22,66.36-6.71c3-0.08,4.8,0.19,6.3,0.4" style="fill:none;stroke:#999;stroke-width:3"></path>
<path d="M379.56,25.26c1.21,1.21,1.76,2.99,1.76,4.58c0,4.28,0,29.41,0,38.91" style="fill:none;stroke:#999;stroke-width:3"></path>
<path d="M357.0,70.75c1.5,0.88,2.12,2.25,2.52,3.74c1.31,4.92,3.49,13.03,4.85,20.03c0.32,1.67,0.62,3.26,0.88,4.73" style="fill:none;stroke:#999;stroke-width:3"></path>

<path d="M503.12,11.5c-0.25,1.12-1,2.25-2.27,3.11c-5.1,3.46-18.98,9.89-37.47,15.41" style="fill:none;stroke:#999;stroke-width:3"></path>
<path d="M450.63,48.81c1.8,0.41,6.32,0.64,8.09,0.41c17.66-2.34,47.03-6.22,66.36-6.71c3-0.08,4.8,0.19,6.3,0.4" style="fill:none;stroke:#999;stroke-width:3"></path>
<path d="M488.56,25.26c1.21,1.21,1.76,2.99,1.76,4.58c0,4.28,0,29.41,0,38.91" style="fill:none;stroke:#999;stroke-width:3"></path>
<path d="M466.0,70.75c1.5,0.88,2.12,2.25,2.52,3.74c1.31,4.92,3.49,13.03,4.85,20.03c0.32,1.67,0.62,3.26,0.88,4.73" style="fill:none;stroke:#999;stroke-width:3"></path>
<path d="M468.65999999999997,71.83c13.59-1.45,36.19-3.69,44.96-4.34c3.2-0.24,4.13,2.41,3.67,3.81c-1.9,5.78-5.62,13.76-8.44,21.75" style="fill:none;stroke:#999;stroke-width:3"></path>

<path d="M612.12,11.5c-0.25,1.12-1,2.25-2.27,3.11c-5.1,3.46-18.98,9.89-37.47,15.41" style="fill:none;stroke:#999;stroke-width:3"></path>
<path d="M559.63,48.81c1.8,0.41,6.32,0.64,8.09,0.41c17.66-2.34,47.03-6.22,66.36-6.71c3-0.08,4.8,0.19,6.3,0.4" style="fill:none;stroke:#999;stroke-width:3"></path>
<path d="M597.56,25.26c1.21,1.21,1.76,2.99,1.76,4.58c0,4.28,0,29.41,0,38.91" style="fill:none;stroke:#999;stroke-width:3"></path>
<path d="M575.0,70.75c1.5,0.88,2.12,2.25,2.52,3.74c1.31,4.92,3.49,13.03,4.85,20.03c0.32,1.67,0.62,3.26,0.88,4.73" style="fill:none;stroke:#999;stroke-width:3"></path>
<path d="M577.66,71.83c13.59-1.45,36.19-3.69,44.96-4.34c3.2-0.24,4.13,2.41,3.67,3.81c-1.9,5.78-5.62,13.76-8.44,21.75" style="fill:none;stroke:#999;stroke-width:3"></path>
<path d="M583.42,96.91c9.19-0.66,22.7-1.91,32.12-2.51c1.48-0.1,2.98-0.25,4.51-0.37" style="fill:none;stroke:#999;stroke-width:3"></path>

</svg>