<svg width="1199px" height="109px" viewBox="0 0 1199 109" xmlns="http://www.w3.org/2000/svg" xmlns:xlink="http://www.w3.org/1999/xlink" xml:space="preserve" version="1.1" baseProfile="full">
<line x1="1" y1="1" x2="1198" y2="1" style="stroke:#ddd;stroke-width:2"></line>
<line x1="1" y1="1" x2="1" y2="108" style="stroke:#ddd;stroke-width:2"></line>
<line x1="1" y1="108" x2="1198" y2="108" style="stroke:#ddd;stroke-width:2"></line>
<line x1="1198" y1="1" x2="1198" y2="108" style="stroke:#ddd;stroke-width:2"></line>
<line x1="109" y1="1" x2="109" y2="108" style="stroke:#ddd;stroke-width:2"></line>
<line x1="218" y1="1" x2="218" y2="108" style="stroke:#ddd;stroke-width:2"></line>
<line x1="327" y1="1" x2="327" y2="108" style="stroke:#ddd;stroke-width:2"></line>
<line x1="436" y1="1" x2="436" y2="108" style="stroke:#ddd;stroke-width:2"></line>
<line x1="545" y1="1" x2="545" y2="108" style="stroke:#ddd;stroke-width:2"></line>
<line x1="654" y1="1" x2="654" y2="108" style="stroke:#ddd;stroke-width:2"></line>
<line x1="763" y1="1" x2="763" y2="108" style="stroke:#ddd;stroke-width:2"></line>
<line x1="872" y1="1" x2="872" y2="108" style="stroke:#ddd;stroke-width:2"></line>
<line x1="981" y1="1" x2="981" y2="108" style="stroke:#ddd;stroke-width:2"></line>
<line x1="1090" y1="1" x2="1090" y2="108" style="stroke:#ddd;stroke-width:2"></line>
<line x1="1" y1="54" x2="1198" y2="54" style="stroke:#ddd;stroke-width:2;stroke-dasharray:3 3"></line>
<line x1="55" y1="1" x2="55" y2="108" style="stroke:#ddd;stroke-width:2;stroke-dasharray:3 3"></line>
<line x1="164" y1="1" x2="164" y2="108" style="stroke:#ddd;stroke-width:2;stroke-dasharray:3 3"></line>
<line x1="273" y1="1" x2="273" y2="108" style="stroke:#ddd;stroke-width:2;stroke-dasharray:3 3"></line>
<line x1="382" y1="1" x2="382" y2="108" style="stroke:#ddd;stroke-width:2;stroke-dasharray:3 3"></line>
<line x1="491" y1="1" x2="491" y2="108" style="stroke:#ddd;stroke-width:2;stroke-dasharray:3 3"></line>
<line x1="600" y1="1" x2="600" y2="108" style="stroke:#ddd;stroke-width:2;stroke-dasharray:3 3"></line>
<line x1="709" y1="1" x2="709" y2="108" style="stroke:#ddd;stroke-width:2;stroke-dasharray:3 3"></line>
<line x1="818" y1="1" x2="818" y2="108" style="stroke:#ddd;stroke-width:2;stroke-dasharray:3 3"></line>
<line x1="927" y1="1" x2="927" y2="108" style="stroke:#ddd;stroke-width:2;stroke-dasharray:3 3"></line>
<line x1="1036" y1="1" x2="1036" y2="108" style="stroke:#ddd;stroke-width:2;stroke-dasharray:3 3"></line>
<line x1="1145" y1="1" x2="1145" y2="108" style="stroke:#ddd;stroke-width:2;stroke-dasharray:3 3"></line>
<path d="M34.07,13.38c0.17,1.06-0.04,2.17-0.72,3.36c-0.8,1.41-4.39,7.83-8.61,13.39" style="fill:none;stroke:#999;stroke-width:3"></path>

<path d="M143.07,13.38c0.17,1.06-0.04,2.17-0.72,3.36c-0.8,1.41-4.39,7.83-8.61,13.39" style="fill:none;stroke:#999;stroke-width:3"></path>
<path d="M128.31,31.97c0.92,0.92,1.27,2.66,1.33,4.43c0.87,29.47-0.01,49.72-10.38,59.85" style="fill:none;stroke:#999;stroke-width:3"></path>

<path d="M252.07,13.38c0.17,1.06-0.04,2.17-0.72,3.36c-0.8,1.41-4.39,7.83-8.61,13.39" style="fill:none;stroke:#999;stroke-width:3"></path>
<path d="M237.31,31.97c0.92,0.92,1.27,2.66,1.33,4.43c0.87,29.47-0.01,49.72-10.38,59.85" style="fill:none;stroke:#999;stroke-width:3"></path>
<path d="M239.75,33.06c3.84-0.58,12.78-2.7,17.23-3.54c4.34-0.83,4.74,0.9,4.71,4.61c-0.05,8.47-0.07,52.69-0.07,55.63c0,9.05-5.47,2.1-6.27,1.47" style="fill:none;stroke:#999;stroke-width:3"></path>

<path d="M361.07,13.38c0.17,1.06-0.04,2.17-0.72,3.36c-0.8,1.41-4.39,7.83-8.61,13.39" style="fill:none;stroke:#999;stroke-width:3"></path>
<path d="M346.31,31.97c0.92,0.92,1.27,2.66,1.33,4.43c0.87,29.47-0.01,49.72-10.38,59.85" style="fill:none;stroke:#999;stroke-width:3"></path>
<path d="M348.75,33.06c3.84-0.58,12.78-2.7,17.23-3.54c4.34-0.83,4.74,0.9,4.71,4.61c-0.05,8.47-0.07,52.69-0.07,55.63c0,9.05-5.47,2.1-6.27,1.47" style="fill:none;stroke:#999;stroke-width:3"></path>
<path d="M355.03,38.52c2.47,2.48,4.85,5.98,5.85,8.72" style="fill:none;stroke:#999;stroke-width:3"></path>

<path d="M470.07,13.38c0.17,1.06-0.04,2.17-0.72,3.36c-0.8,1.41-4.39,7.83-8.61,13.39" style="fill:none;stroke:#999;stroke-width:3"></path>
<path d="M455.31,31.97c0.92,0.92,1.27,2.66,1.33,4.43c0.87,29.47-0.01,49.72-10.38,59.85" style="fill:none;stroke:#999;stroke-width:3"></path>
<path d="M457.75,33.06c3.84-0.58,12.78-2.7,17.23-3.54c4.34-0.83,4.74,0.9,4.71,4.61c-0.05,8.47-0.07,52.69-0.07,55.63c0,9.05-5.47,2.1-6.27,1.47" style="fill:none;stroke:#999;stroke-width:3"></path>
<path d="M464.03,38.52c2.47,2.48,4.85,5.98,5.85,8.72" style="fill:none;stroke:#999;stroke-width:3"></path>
<path d="M466.3,58.39c1.09,1.09,1.2,1.99,1.2,3.81c0,1.27,0.1,12.3,0.1,18.21" style="fill:none;stroke:#999;stroke-width:3"></path>

<path d="M579.0699999999999,13.38c0.17,1.06-0.04,2.17-0.72,3.36c-0.8,1.41-4.39,7.83-8.61,13.39" style="fill:none;stroke:#999;stroke-width:3"></path>
<path d="M564.31,31.97c0.92,0.92,1.27,2.66,1.33,4.43c0.87,29.47-0.01,49.72-10.38,59.85" style="fill:none;stroke:#999;stroke-width:3"></path>
<path d="M566.75,33.06c3.84-0.58,12.78-2.7,17.23-3.54c4.34-0.83,4.74,0.9,4.71,4.61c-0.05,8.47-0.07,52.69-0.07,55.63c0,9.05-5.47,2.1-6.27,1.47" style="fill:none;stroke:#999;stroke-width:3"></path>
<path d="M573.03,38.52c2.47,2.48,4.85,5.98,5.85,8.72" style="fill:none;stroke:#999;stroke-width:3"></path>
<path d="M575.3,58.39c1.09,1.09,1.2,1.99,1.2,3.81c0,1.27,0.1,12.3,0.1,18.21" style="fill:none;stroke:#999;stroke-width:3"></path>
<path d="M556.0,60.25c1,1,2.65,1.23,4,0.75c6.38-2.25,30.5-11.75,34.25-13.25" style="fill:none;stroke:#999;stroke-width:3"></path>

<path d="M688.0699999999999,13.38c0.17,1.06-0.04,2.17-0.72,3.36c-0.8,1.41-4.39,7.83-8.61,13.39" style="fill:none;stroke:#999;stroke-width:3"></path>
<path d="M673.31,31.97c0.92,0.92,1.27,2.66,1.33,4.43c0.87,29.47-0.01,49.72-10.38,59.85" style="fill:none;stroke:#999;stroke-width:3"></path>
<path d="M675.75,33.06c3.84-0.58,12.78-2.7,17.23-3.54c4.34-0.83,4.74,0.9,4.71,4.61c-0.05,8.47-0.07,52.69-0.07,55.63c0,9.05-5.47,2.1-6.27,1.47" style="fill:none;stroke:#999;stroke-width:3"></path>
<path d="M682.03,38.52c2.47,2.48,4.85,5.98,5.85,8.72" style="fill:none;stroke:#999;stroke-width:3"></path>
<path d="M684.3,58.39c1.09,1.09,1.2,1.99,1.2,3.81c0,1.27,0.1,12.3,0.1,18.21" style="fill:none;stroke:#999;stroke-width:3"></path>
<path d="M665.0,60.25c1,1,2.65,1.23,4,0.75c6.38-2.25,30.5-11.75,34.25-13.25" style="fill:none;stroke:#999;stroke-width:3"></path>
<path d="M725.61,13.5c1.07,1.07,0.98,2.75,0.98,4.38c0,3.75-0.09,7.87-0.09,10.25" style="fill:none;stroke:#999;stroke-width:3"></path>

<path d="M797.0699999999999,13.38c0.17,1.06-0.04,2.17-0.72,3.36c-0.8,1.41-4.39,7.83-8.61,13.39" style="fill:none;stroke:#999;stroke-width:3"></path>
<path d="M782.31,31.97c0.92,0.92,1.27,2.66,1.33,4.43c0.87,29.47-0.01,49.72-10.38,59.85" style="fill:none;stroke:#999;stroke-width:3"></path>
<path d="M784.75,33.06c3.84-0.58,12.78-2.7,17.23-3.54c4.34-0.83,4.74,0.9,4.71,4.61c-0.05,8.47-0.07,52.69-0.07,55.63c0,9.05-5.47,2.1-6.27,1.47" style="fill:none;stroke:#999;stroke-width:3"></path>
<path d="M791.03,38.52c2.47,2.48,4.85,5.98,5.85,8.72" style="fill:none;stroke:#999;stroke-width:3"></path>
<path d="M793.3,58.39c1.09,1.09,1.2,1.99,1.2,3.81c0,1.27,0.1,12.3,0.1,18.21" style="fill:none;stroke:#999;stroke-width:3"></path>
<path d="M774.0,60.25c1,1,2.65,1.23,4,0.75c6.38-2.25,30.5-11.75,34.25-13.25" style="fill:none;stroke:#999;stroke-width:3"></path>
<path d="M834.61,13.5c1.07,1.07,0.98,2.75,0.98,4.38c0,3.75-0.09,7.87-0.09,10.25" style="fill:none;stroke:#999;stroke-width:3"></path>
<path d="M816.0,30.73c2.77,0.57,5.48,0.24,8.28-0.16c7.47-1.06,18.47-2.31,27.08-2.94c2.96-0.22,5.78-0.59,8.63,0.09" style="fill:none;stroke:#999;stroke-width:3"></path>

<path d="M906.0699999999999,13.38c0.17,1.06-0.04,2.17-0.72,3.36c-0.8,1.41-4.39,7.83-8.61,13.39" style="fill:none;stroke:#999;stroke-width:3"></path>
<path d="M891.31,31.97c0.92,0.92,1.27,2.66,1.33,4.43c0.87,29.47-0.01,49.72-10.38,59.85" style="fill:none;stroke:#999;stroke-width:3"></path>
<path d="M893.75,33.06c3.84-0.58,12.78-2.7,17.23-3.54c4.34-0.83,4.74,0.9,4.71,4.61c-0.05,8.47-0.07,52.69-0.07,55.63c0,9.05-5.47,2.1-6.27,1.47" style="fill:none;stroke:#999;stroke-width:3"></path>
<path d="M900.03,38.52c2.47,2.48,4.85,5.98,5.85,8.72" style="fill:none;stroke:#999;stroke-width:3"></path>
<path d="M902.3,58.39c1.09,1.09,1.2,1.99,1.2,3.81c0,1.27,0.1,12.3,0.1,18.21" style="fill:none;stroke:#999;stroke-width:3"></path>
<path d="M883.0,60.25c1,1,2.65,1.23,4,0.75c6.38-2.25,30.5-11.75,34.25-13.25" style="fill:none;stroke:#999;stroke-width:3"></path>
<path d="M943.61,13.5c1.07,1.07,0.98,2.75,0.98,4.38c0,3.75-0.09,7.87-0.09,10.25" style="fill:none;stroke:#999;stroke-width:3"></path>
<path d="M925.0,30.73c2.77,0.57,5.48,0.24,8.28-0.16c7.47-1.06,18.47-2.31,27.08-2.94c2.96-0.22,5.78-0.59,8.63,0.09" style="fill:none;stroke:#999;stroke-width:3"></path>
<path d="M943.59,32.78c0.28,1.47-0.1,2.66-0.93,4.14c-3.79,6.77-6.67,11.04-12.49,17.99c-1.35,1.61-1.82,3.13,0.53,3.96c4.69,1.64,8.3,3.13,12.8,5.44" style="fill:none;stroke:#999;stroke-width:3"></path>

<path d="M1015.0699999999999,13.38c0.17,1.06-0.04,2.17-0.72,3.36c-0.8,1.41-4.39,7.83-8.61,13.39" style="fill:none;stroke:#999;stroke-width:3"></path>
<path d="M1000.31,31.97c0.92,0.92,1.27,2.66,1.33,4.43c0.87,29.47-0.01,49.72-10.38,59.85" style="fill:none;stroke:#999;stroke-width:3"></path>
<path d="M1002.75,33.06c3.84-0.58,12.78-2.7,17.23-3.54c4.34-0.83,4.74,0.9,4.71,4.61c-0.05,8.47-0.07,52.69-0.07,55.63c0,9.05-5.47,2.1-6.27,1.47" style="fill:none;stroke:#999;stroke-width:3"></path>
<path d="M1009.03,38.52c2.47,2.48,4.85,5.98,5.85,8.72" style="fill:none;stroke:#999;stroke-width:3"></path>
<path d="M1011.3,58.39c1.09,1.09,1.2,1.99,1.2,3.81c0,1.27,0.1,12.3,0.1,18.21" style="fill:none;stroke:#999;stroke-width:3"></path>
<path d="M992.0,60.25c1,1,2.65,1.23,4,0.75c6.38-2.25,30.5-11.75,34.25-13.25" style="fill:none;stroke:#999;stroke-width:3"></path>
<path d="M1052.6100000000001,13.5c1.07,1.07,0.98,2.75,0.98,4.38c0,3.75-0.09,7.87-0.09,10.25" style="fill:none;stroke:#999;stroke-width:3"></path>
<path d="M1034.0,30.73c2.77,0.57,5.48,0.24,8.28-0.16c7.47-1.06,18.47-2.31,27.08-2.94c2.96-0.22,5.78-0.59,8.63,0.09" style="fill:none;stroke:#999;stroke-width:3"></path>
<path d="M1052.5900000000001,32.78c0.28,1.47-0.1,2.66-0.93,4.14c-3.79,6.77-6.67,11.04-12.49,17.99c-1.35,1.61-1.82,3.13,0.53,3.96c4.69,1.64,8.3,3.13,12.8,5.44" style="fill:none;stroke:#999;stroke-width:3"></path>
<path d="M1066.96,42.84c0,1.66-0.38,3-1.25,4.31C1056.12,61.52,1051.72,68.65,1038.0,85.73c-2.41,3.01-2.24,4.47,1.89,3.59C1050.88,87,1051.12,87,1067.88,83" style="fill:none;stroke:#999;stroke-width:3"></path>

<path d="M1124.07,13.38c0.17,1.06-0.04,2.17-0.72,3.36c-0.8,1.41-4.39,7.83-8.61,13.39" style="fill:none;stroke:#999;stroke-width:3"></path>
<path d="M1109.31,31.97c0.92,0.92,1.27,2.66,1.33,4.43c0.87,29.47-0.01,49.72-10.38,59.85" style="fill:none;stroke:#999;stroke-width:3"></path>
<path d="M1111.75,33.06c3.84-0.58,12.78-2.7,17.23-3.54c4.34-0.83,4.74,0.9,4.71,4.61c-0.05,8.47-0.07,52.69-0.07,55.63c0,9.05-5.47,2.1-6.27,1.47" style="fill:none;stroke:#999;stroke-width:3"></path>
<path d="M1118.03,38.52c2.47,2.48,4.85,5.98,5.85,8.72" style="fill:none;stroke:#999;stroke-width:3"></path>
<path d="M1120.3,58.39c1.09,1.09,1.2,1.99,1.2,3.81c0,1.27,0.1,12.3,0.1,18.21" style="fill:none;stroke:#999;stroke-width:3"></path>
<path d="M1101.0,60.25c1,1,2.65,1.23,4,0.75c6.38-2.25,30.5-11.75,34.25-13.25" style="fill:none;stroke:#999;stroke-width:3"></path>
<path d="M1161.6100000000001,13.5c1.07,1.07,0.98,2.75,0.98,4.38c0,3.75-0.09,7.87-0.09,10.25" style="fill:none;stroke:#999;stroke-width:3"></path>
<path d="M1143.0,30.73c2.77,0.57,5.48,0.24,8.28-0.16c7.47-1.06,18.47-2.31,27.08-2.94c2.96-0.22,5.78-0.59,8.63,0.09" style="fill:none;stroke:#999;stroke-width:3"></path>
<path d="M1161.5900000000001,32.78c0.28,1.47-0.1,2.66-0.93,4.14c-3.79,6.77-6.67,11.04-12.49,17.99c-1.35,1.61-1.82,3.13,0.53,3.96c4.69,1.64,8.3,3.13,12.8,5.44" style="fill:none;stroke:#999;stroke-width:3"></path>
<path d="M1175.96,42.84c0,1.66-0.38,3-1.25,4.31C1165.12,61.52,1160.72,68.65,1147.0,85.73c-2.41,3.01-2.24,4.47,1.89,3.59C1159.88,87,1160.12,87,1176.88,83" style="fill:none;stroke:#999;stroke-width:3"></path>
<path d="M1171.71,71.1c4.32,4.02,11.17,16.51,12.25,22.76" style="fill:none;stroke:#999;stroke-width:3"></path>

</svg>