<svg width="327px" height="109px" viewBox="0 0 327 109" xmlns="http://www.w3.org/2000/svg" xmlns:xlink="http://www.w3.org/1999/xlink" xml:space="preserve" version="1.1" baseProfile="full">
<line x1="1" y1="1" x2="326" y2="1" style="stroke:#ddd;stroke-width:2"></line>
<line x1="1" y1="1" x2="1" y2="108" style="stroke:#ddd;stroke-width:2"></line>
<line x1="1" y1="108" x2="326" y2="108" style="stroke:#ddd;stroke-width:2"></line>
<line x1="326" y1="1" x2="326" y2="108" style="stroke:#ddd;stroke-width:2"></line>
<line x1="109" y1="1" x2="109" y2="108" style="stroke:#ddd;stroke-width:2"></line>
<line x1="218" y1="1" x2="218" y2="108" style="stroke:#ddd;stroke-width:2"></line>
<line x1="1" y1="54" x2="326" y2="54" style="stroke:#ddd;stroke-width:2;stroke-dasharray:3 3"></line>
<line x1="55" y1="1" x2="55" y2="108" style="stroke:#ddd;stroke-width:2;stroke-dasharray:3 3"></line>
<line x1="164" y1="1" x2="164" y2="108" style="stroke:#ddd;stroke-width:2;stroke-dasharray:3 3"></line>
<line x1="273" y1="1" x2="273" y2="108" style="stroke:#ddd;stroke-width:2;stroke-dasharray:3 3"></line>
<path d="M13.88,53.73c3.75,1.52,8.45,1.32,13.13,0.86c16.12-1.59,39.17-3.48,54.37-4.13c4.77-0.2,9-0.09,13.75,0.87" style="fill:none;stroke:#999;stroke-width:3"></path>

<path d="M122.88,53.73c3.75,1.52,8.45,1.32,13.13,0.86c16.12-1.59,39.17-3.48,54.37-4.13c4.77-0.2,9-0.09,13.75,0.87" style="fill:none;stroke:#999;stroke-width:3"></path>
<path d="M144.75,40.12c0.8,1,1.17,2.38,1.44,4c1.36,8.22,2.33,15.75,2.69,18.75" style="fill:none;stroke:#999;stroke-width:3"></path>

<path d="M231.88,53.73c3.75,1.52,8.45,1.32,13.13,0.86c16.12-1.59,39.17-3.48,54.37-4.13c4.77-0.2,9-0.09,13.75,0.87" style="fill:none;stroke:#999;stroke-width:3"></path>
<path d="M253.75,40.12c0.8,1,1.17,2.38,1.44,4c1.36,8.22,2.33,15.75,2.69,18.75" style="fill:none;stroke:#999;stroke-width:3"></path>
<path d="M291.51,38.25c0.34,1.09,0.18,2.13-0.2,3.46c-2.23,7.85-3.25,11.77-5.68,19.16" style="fill:none;stroke:#999;stroke-width:3"></path>

</svg>