<svg width="872px" height="109px" viewBox="0 0 872 109" xmlns="http://www.w3.org/2000/svg" xmlns:xlink="http://www.w3.org/1999/xlink" xml:space="preserve" version="1.1" baseProfile="full">
<line x1="1" y1="1" x2="871" y2="1" style="stroke:#ddd;stroke-width:2"></line>
<line x1="1" y1="1" x2="1" y2="108" style="stroke:#ddd;stroke-width:2"></line>
<line x1="1" y1="108" x2="871" y2="108" style="stroke:#ddd;stroke-width:2"></line>
<line x1="871" y1="1" x2="871" y2="108" style="stroke:#ddd;stroke-width:2"></line>
<line x1="109" y1="1" x2="109" y2="108" style="stroke:#ddd;stroke-width:2"></line>
<line x1="218" y1="1" x2="218" y2="108" style="stroke:#ddd;stroke-width:2"></line>
<line x1="327" y1="1" x2="327" y2="108" style="stroke:#ddd;stroke-width:2"></line>
<line x1="436" y1="1" x2="436" y2="108" style="stroke:#ddd;stroke-width:2"></line>
<line x1="545" y1="1" x2="545" y2="108" style="stroke:#ddd;stroke-width:2"></line>
<line x1="654" y1="1" x2="654" y2="108" style="stroke:#ddd;stroke-width:2"></line>
<line x1="763" y1="1" x2="763" y2="108" style="stroke:#ddd;stroke-width:2"></line>
<line x1="1" y1="54" x2="871" y2="54" style="stroke:#ddd;stroke-width:2;stroke-dasharray:3 3"></line>
<line x1="55" y1="1" x2="55" y2="108" style="stroke:#ddd;stroke-width:2;stroke-dasharray:3 3"></line>
<line x1="164" y1="1" x2="164" y2="108" style="stroke:#ddd;stroke-width:2;stroke-dasharray:3 3"></line>
<line x1="273" y1="1" x2="273" y2="108" style="stroke:#ddd;stroke-width:2;stroke-dasharray:3 3"></line>
<line x1="382" y1="1" x2="382" y2="108" style="stroke:#ddd;stroke-width:2;stroke-dasharray:3 3"></line>
<line x1="491" y1="1" x2="491" y2="108" style="stroke:#ddd;stroke-width:2;stroke-dasharray:3 3"></line>
<line x1="600" y1="1" x2="600" y2="108" style="stroke:#ddd;stroke-width:2;stroke-dasharray:3 3"></line>
<line x1="709" y1="1" x2="709" y2="108" style="stroke:#ddd;stroke-width:2;stroke-dasharray:3 3"></line>
<line x1="818" y1="1" x2="818" y2="108" style="stroke:#ddd;stroke-width:2;stroke-dasharray:3 3"></line>
<path d="M15.75,22.75c1.29,0.53,5,0.75,8.33,0.5c11.91-0.89,46.67-3.19,60.39-3.24c3.28-0.01,7.54,0.47,8.61,0.74" style="fill:none;stroke:#999;stroke-width:3"></path>

<path d="M124.75,22.75c1.29,0.53,5,0.75,8.33,0.5c11.91-0.89,46.67-3.19,60.39-3.24c3.28-0.01,7.54,0.47,8.61,0.74" style="fill:none;stroke:#999;stroke-width:3"></path>
<path d="M143.42000000000002,11.08c1.58,0.67,3.16,2.82,3.33,3.67c1.64,7.93,1.7,14.95,2.17,17.83" style="fill:none;stroke:#999;stroke-width:3"></path>

<path d="M233.75,22.75c1.29,0.53,5,0.75,8.33,0.5c11.91-0.89,46.67-3.19,60.39-3.24c3.28-0.01,7.54,0.47,8.61,0.74" style="fill:none;stroke:#999;stroke-width:3"></path>
<path d="M252.42000000000002,11.08c1.58,0.67,3.16,2.82,3.33,3.67c1.64,7.93,1.7,14.95,2.17,17.83" style="fill:none;stroke:#999;stroke-width:3"></path>
<path d="M286.75,9.25c1,1,1.74,2.83,1.33,4.33c-1.23,4.57-2.22,12.16-4,18" style="fill:none;stroke:#999;stroke-width:3"></path>

<path d="M342.75,22.75c1.29,0.53,5,0.75,8.33,0.5c11.91-0.89,46.67-3.19,60.39-3.24c3.28-0.01,7.54,0.47,8.61,0.74" style="fill:none;stroke:#999;stroke-width:3"></path>
<path d="M361.42,11.08c1.58,0.67,3.16,2.82,3.33,3.67c1.64,7.93,1.7,14.95,2.17,17.83" style="fill:none;stroke:#999;stroke-width:3"></path>
<path d="M395.75,9.25c1,1,1.74,2.83,1.33,4.33c-1.23,4.57-2.22,12.16-4,18" style="fill:none;stroke:#999;stroke-width:3"></path>
<path d="M353.58,39.42c2.17,0.83,3.21,3.08,3.21,5.87c0,1.99,0.16,47.9,0.16,51.21" style="fill:none;stroke:#999;stroke-width:3"></path>

<path d="M451.75,22.75c1.29,0.53,5,0.75,8.33,0.5c11.91-0.89,46.67-3.19,60.39-3.24c3.28-0.01,7.54,0.47,8.61,0.74" style="fill:none;stroke:#999;stroke-width:3"></path>
<path d="M470.42,11.08c1.58,0.67,3.16,2.82,3.33,3.67c1.64,7.93,1.7,14.95,2.17,17.83" style="fill:none;stroke:#999;stroke-width:3"></path>
<path d="M504.75,9.25c1,1,1.74,2.83,1.33,4.33c-1.23,4.57-2.22,12.16-4,18" style="fill:none;stroke:#999;stroke-width:3"></path>
<path d="M462.58,39.42c2.17,0.83,3.21,3.08,3.21,5.87c0,1.99,0.16,47.9,0.16,51.21" style="fill:none;stroke:#999;stroke-width:3"></path>
<path d="M465.75,42.42c6.71-0.88,44.66-3.37,45.98-3.68c2.82-0.66,4.9,1.61,4.59,2.65c-0.53,1.76-0.56,43.13-0.56,48.2c0,8.16-5.17,2.86-7.5,1.17" style="fill:none;stroke:#999;stroke-width:3"></path>

<path d="M560.75,22.75c1.29,0.53,5,0.75,8.33,0.5c11.91-0.89,46.67-3.19,60.39-3.24c3.28-0.01,7.54,0.47,8.61,0.74" style="fill:none;stroke:#999;stroke-width:3"></path>
<path d="M579.4200000000001,11.08c1.58,0.67,3.16,2.82,3.33,3.67c1.64,7.93,1.7,14.95,2.17,17.83" style="fill:none;stroke:#999;stroke-width:3"></path>
<path d="M613.75,9.25c1,1,1.74,2.83,1.33,4.33c-1.23,4.57-2.22,12.16-4,18" style="fill:none;stroke:#999;stroke-width:3"></path>
<path d="M571.5799999999999,39.42c2.17,0.83,3.21,3.08,3.21,5.87c0,1.99,0.16,47.9,0.16,51.21" style="fill:none;stroke:#999;stroke-width:3"></path>
<path d="M574.75,42.42c6.71-0.88,44.66-3.37,45.98-3.68c2.82-0.66,4.9,1.61,4.59,2.65c-0.53,1.76-0.56,43.13-0.56,48.2c0,8.16-5.17,2.86-7.5,1.17" style="fill:none;stroke:#999;stroke-width:3"></path>
<path d="M596.25,26.75c1.25,0.25,2.69,2.14,2.69,4c0,12-0.19,21.96-0.19,37.83" style="fill:none;stroke:#999;stroke-width:3"></path>

<path d="M669.75,22.75c1.29,0.53,5,0.75,8.33,0.5c11.91-0.89,46.67-3.19,60.39-3.24c3.28-0.01,7.54,0.47,8.61,0.74" style="fill:none;stroke:#999;stroke-width:3"></path>
<path d="M688.4200000000001,11.08c1.58,0.67,3.16,2.82,3.33,3.67c1.64,7.93,1.7,14.95,2.17,17.83" style="fill:none;stroke:#999;stroke-width:3"></path>
<path d="M722.75,9.25c1,1,1.74,2.83,1.33,4.33c-1.23,4.57-2.22,12.16-4,18" style="fill:none;stroke:#999;stroke-width:3"></path>
<path d="M680.5799999999999,39.42c2.17,0.83,3.21,3.08,3.21,5.87c0,1.99,0.16,47.9,0.16,51.21" style="fill:none;stroke:#999;stroke-width:3"></path>
<path d="M683.75,42.42c6.71-0.88,44.66-3.37,45.98-3.68c2.82-0.66,4.9,1.61,4.59,2.65c-0.53,1.76-0.56,43.13-0.56,48.2c0,8.16-5.17,2.86-7.5,1.17" style="fill:none;stroke:#999;stroke-width:3"></path>
<path d="M705.25,26.75c1.25,0.25,2.69,2.14,2.69,4c0,12-0.19,21.96-0.19,37.83" style="fill:none;stroke:#999;stroke-width:3"></path>
<path d="M684.75,56.25c13.11-1.05,33.81-2.5,48-3.33" style="fill:none;stroke:#999;stroke-width:3"></path>

<path d="M778.75,22.75c1.29,0.53,5,0.75,8.33,0.5c11.91-0.89,46.67-3.19,60.39-3.24c3.28-0.01,7.54,0.47,8.61,0.74" style="fill:none;stroke:#999;stroke-width:3"></path>
<path d="M797.4200000000001,11.08c1.58,0.67,3.16,2.82,3.33,3.67c1.64,7.93,1.7,14.95,2.17,17.83" style="fill:none;stroke:#999;stroke-width:3"></path>
<path d="M831.75,9.25c1,1,1.74,2.83,1.33,4.33c-1.23,4.57-2.22,12.16-4,18" style="fill:none;stroke:#999;stroke-width:3"></path>
<path d="M789.5799999999999,39.42c2.17,0.83,3.21,3.08,3.21,5.87c0,1.99,0.16,47.9,0.16,51.21" style="fill:none;stroke:#999;stroke-width:3"></path>
<path d="M792.75,42.42c6.71-0.88,44.66-3.37,45.98-3.68c2.82-0.66,4.9,1.61,4.59,2.65c-0.53,1.76-0.56,43.13-0.56,48.2c0,8.16-5.17,2.86-7.5,1.17" style="fill:none;stroke:#999;stroke-width:3"></path>
<path d="M814.25,26.75c1.25,0.25,2.69,2.14,2.69,4c0,12-0.19,21.96-0.19,37.83" style="fill:none;stroke:#999;stroke-width:3"></path>
<path d="M793.75,56.25c13.11-1.05,33.81-2.5,48-3.33" style="fill:none;stroke:#999;stroke-width:3"></path>
<path d="M776.92,71.08c2.58,0.67,6.58,0.67,9.5,0.5c17.99-1.03,50.24-2.74,66.33-3.17c2.42-0.06,5.5,0.08,7.33,1" style="fill:none;stroke:#999;stroke-width:3"></path>

</svg>