<svg width="872px" height="109px" viewBox="0 0 872 109" xmlns="http://www.w3.org/2000/svg" xmlns:xlink="http://www.w3.org/1999/xlink" xml:space="preserve" version="1.1" baseProfile="full">
<line x1="1" y1="1" x2="871" y2="1" style="stroke:#ddd;stroke-width:2"></line>
<line x1="1" y1="1" x2="1" y2="108" style="stroke:#ddd;stroke-width:2"></line>
<line x1="1" y1="108" x2="871" y2="108" style="stroke:#ddd;stroke-width:2"></line>
<line x1="871" y1="1" x2="871" y2="108" style="stroke:#ddd;stroke-width:2"></line>
<line x1="109" y1="1" x2="109" y2="108" style="stroke:#ddd;stroke-width:2"></line>
<line x1="218" y1="1" x2="218" y2="108" style="stroke:#ddd;stroke-width:2"></line>
<line x1="327" y1="1" x2="327" y2="108" style="stroke:#ddd;stroke-width:2"></line>
<line x1="436" y1="1" x2="436" y2="108" style="stroke:#ddd;stroke-width:2"></line>
<line x1="545" y1="1" x2="545" y2="108" style="stroke:#ddd;stroke-width:2"></line>
<line x1="654" y1="1" x2="654" y2="108" style="stroke:#ddd;stroke-width:2"></line>
<line x1="763" y1="1" x2="763" y2="108" style="stroke:#ddd;stroke-width:2"></line>
<line x1="1" y1="54" x2="871" y2="54" style="stroke:#ddd;stroke-width:2;stroke-dasharray:3 3"></line>
<line x1="55" y1="1" x2="55" y2="108" style="stroke:#ddd;stroke-width:2;stroke-dasharray:3 3"></line>
<line x1="164" y1="1" x2="164" y2="108" style="stroke:#ddd;stroke-width:2;stroke-dasharray:3 3"></line>
<line x1="273" y1="1" x2="273" y2="108" style="stroke:#ddd;stroke-width:2;stroke-dasharray:3 3"></line>
<line x1="382" y1="1" x2="382" y2="108" style="stroke:#ddd;stroke-width:2;stroke-dasharray:3 3"></line>
<line x1="491" y1="1" x2="491" y2="108" style="stroke:#ddd;stroke-width:2;stroke-dasharray:3 3"></line>
<line x1="600" y1="1" x2="600" y2="108" style="stroke:#ddd;stroke-width:2;stroke-dasharray:3 3"></line>
<line x1="709" y1="1" x2="709" y2="108" style="stroke:#ddd;stroke-width:2;stroke-dasharray:3 3"></line>
<line x1="818" y1="1" x2="818" y2="108" style="stroke:#ddd;stroke-width:2;stroke-dasharray:3 3"></line>
<path d="M18.0,22.24c1.38,0.56,2.99,0.67,4.38,0.56c12.72-1.01,50.12-4.71,64.78-4.78c2.31-0.01,3.69,0.26,4.84,0.54" style="fill:none;stroke:#999;stroke-width:3"></path>

<path d="M127.0,22.24c1.38,0.56,2.99,0.67,4.38,0.56c12.72-1.01,50.12-4.71,64.78-4.78c2.31-0.01,3.69,0.26,4.84,0.54" style="fill:none;stroke:#999;stroke-width:3"></path>
<path d="M144.75,9.5c1.42,1.33,1.87,1.74,2.02,2.56C148.19,19.73,148.6,26.71,149.0,29.5" style="fill:none;stroke:#999;stroke-width:3"></path>

<path d="M236.0,22.24c1.38,0.56,2.99,0.67,4.38,0.56c12.72-1.01,50.12-4.71,64.78-4.78c2.31-0.01,3.69,0.26,4.84,0.54" style="fill:none;stroke:#999;stroke-width:3"></path>
<path d="M253.75,9.5c1.42,1.33,1.87,1.74,2.02,2.56C257.19,19.73,257.6,26.71,258.0,29.5" style="fill:none;stroke:#999;stroke-width:3"></path>
<path d="M287.23,7.75c1.02,0.91,1.7,2.29,1.36,3.63c-1.02,4.09-1.7,10.9-3.18,16.12" style="fill:none;stroke:#999;stroke-width:3"></path>

<path d="M345.0,22.24c1.38,0.56,2.99,0.67,4.38,0.56c12.72-1.01,50.12-4.71,64.78-4.78c2.31-0.01,3.69,0.26,4.84,0.54" style="fill:none;stroke:#999;stroke-width:3"></path>
<path d="M362.75,9.5c1.42,1.33,1.87,1.74,2.02,2.56C366.19,19.73,366.6,26.71,367.0,29.5" style="fill:none;stroke:#999;stroke-width:3"></path>
<path d="M396.23,7.75c1.02,0.91,1.7,2.29,1.36,3.63c-1.02,4.09-1.7,10.9-3.18,16.12" style="fill:none;stroke:#999;stroke-width:3"></path>
<path d="M378.6,26.12c1.15,0.38,2.8,2.22,2.77,3.3c-0.08,3.41-0.08,6.72-0.09,9.82" style="fill:none;stroke:#999;stroke-width:3"></path>

<path d="M454.0,22.24c1.38,0.56,2.99,0.67,4.38,0.56c12.72-1.01,50.12-4.71,64.78-4.78c2.31-0.01,3.69,0.26,4.84,0.54" style="fill:none;stroke:#999;stroke-width:3"></path>
<path d="M471.75,9.5c1.42,1.33,1.87,1.74,2.02,2.56C475.19,19.73,475.6,26.71,476.0,29.5" style="fill:none;stroke:#999;stroke-width:3"></path>
<path d="M505.23,7.75c1.02,0.91,1.7,2.29,1.36,3.63c-1.02,4.09-1.7,10.9-3.18,16.12" style="fill:none;stroke:#999;stroke-width:3"></path>
<path d="M487.6,26.12c1.15,0.38,2.8,2.22,2.77,3.3c-0.08,3.41-0.08,6.72-0.09,9.82" style="fill:none;stroke:#999;stroke-width:3"></path>
<path d="M455.41,40.38c0,3.54-3.38,13.26-4.91,15.62" style="fill:none;stroke:#999;stroke-width:3"></path>

<path d="M563.0,22.24c1.38,0.56,2.99,0.67,4.38,0.56c12.72-1.01,50.12-4.71,64.78-4.78c2.31-0.01,3.69,0.26,4.84,0.54" style="fill:none;stroke:#999;stroke-width:3"></path>
<path d="M580.75,9.5c1.42,1.33,1.87,1.74,2.02,2.56C584.19,19.73,584.6,26.71,585.0,29.5" style="fill:none;stroke:#999;stroke-width:3"></path>
<path d="M614.23,7.75c1.02,0.91,1.7,2.29,1.36,3.63c-1.02,4.09-1.7,10.9-3.18,16.12" style="fill:none;stroke:#999;stroke-width:3"></path>
<path d="M596.6,26.12c1.15,0.38,2.8,2.22,2.77,3.3c-0.08,3.41-0.08,6.72-0.09,9.82" style="fill:none;stroke:#999;stroke-width:3"></path>
<path d="M564.4100000000001,40.38c0,3.54-3.38,13.26-4.91,15.62" style="fill:none;stroke:#999;stroke-width:3"></path>
<path d="M564.24,42.74c9.51-0.99,61.24-6.03,68.95-6.4c12.05-0.59,2.55,7.16-0.45,9.28" style="fill:none;stroke:#999;stroke-width:3"></path>

<path d="M672.0,22.24c1.38,0.56,2.99,0.67,4.38,0.56c12.72-1.01,50.12-4.71,64.78-4.78c2.31-0.01,3.69,0.26,4.84,0.54" style="fill:none;stroke:#999;stroke-width:3"></path>
<path d="M689.75,9.5c1.42,1.33,1.87,1.74,2.02,2.56C693.19,19.73,693.6,26.71,694.0,29.5" style="fill:none;stroke:#999;stroke-width:3"></path>
<path d="M723.23,7.75c1.02,0.91,1.7,2.29,1.36,3.63c-1.02,4.09-1.7,10.9-3.18,16.12" style="fill:none;stroke:#999;stroke-width:3"></path>
<path d="M705.6,26.12c1.15,0.38,2.8,2.22,2.77,3.3c-0.08,3.41-0.08,6.72-0.09,9.82" style="fill:none;stroke:#999;stroke-width:3"></path>
<path d="M673.4100000000001,40.38c0,3.54-3.38,13.26-4.91,15.62" style="fill:none;stroke:#999;stroke-width:3"></path>
<path d="M673.24,42.74c9.51-0.99,61.24-6.03,68.95-6.4c12.05-0.59,2.55,7.16-0.45,9.28" style="fill:none;stroke:#999;stroke-width:3"></path>
<path d="M670.5,62.04c1.44,0.5,4.08,0.62,5.52,0.5c14.73-1.31,46.23-4.92,63.95-5.57c2.4-0.09,3.84,0.24,5.04,0.49" style="fill:none;stroke:#999;stroke-width:3"></path>

<path d="M781.0,22.24c1.38,0.56,2.99,0.67,4.38,0.56c12.72-1.01,50.12-4.71,64.78-4.78c2.31-0.01,3.69,0.26,4.84,0.54" style="fill:none;stroke:#999;stroke-width:3"></path>
<path d="M798.75,9.5c1.42,1.33,1.87,1.74,2.02,2.56C802.19,19.73,802.6,26.71,803.0,29.5" style="fill:none;stroke:#999;stroke-width:3"></path>
<path d="M832.23,7.75c1.02,0.91,1.7,2.29,1.36,3.63c-1.02,4.09-1.7,10.9-3.18,16.12" style="fill:none;stroke:#999;stroke-width:3"></path>
<path d="M814.6,26.12c1.15,0.38,2.8,2.22,2.77,3.3c-0.08,3.41-0.08,6.72-0.09,9.82" style="fill:none;stroke:#999;stroke-width:3"></path>
<path d="M782.4100000000001,40.38c0,3.54-3.38,13.26-4.91,15.62" style="fill:none;stroke:#999;stroke-width:3"></path>
<path d="M782.24,42.74c9.51-0.99,61.24-6.03,68.95-6.4c12.05-0.59,2.55,7.16-0.45,9.28" style="fill:none;stroke:#999;stroke-width:3"></path>
<path d="M779.5,62.04c1.44,0.5,4.08,0.62,5.52,0.5c14.73-1.31,46.23-4.92,63.95-5.57c2.4-0.09,3.84,0.24,5.04,0.49" style="fill:none;stroke:#999;stroke-width:3"></path>
<path d="M817.27,62.64c0.08,0.42,1.17,2.2,1.25,4.89c0.4,12.89-0.25,20.59-0.25,24.98c0,9.95-6.96,1.45-8.46,0.34" style="fill:none;stroke:#999;stroke-width:3"></path>

</svg>