<svg width="981px" height="109px" viewBox="0 0 981 109" xmlns="http://www.w3.org/2000/svg" xmlns:xlink="http://www.w3.org/1999/xlink" xml:space="preserve" version="1.1" baseProfile="full">
<line x1="1" y1="1" x2="980" y2="1" style="stroke:#ddd;stroke-width:2"></line>
<line x1="1" y1="1" x2="1" y2="108" style="stroke:#ddd;stroke-width:2"></line>
<line x1="1" y1="108" x2="980" y2="108" style="stroke:#ddd;stroke-width:2"></line>
<line x1="980" y1="1" x2="980" y2="108" style="stroke:#ddd;stroke-width:2"></line>
<line x1="109" y1="1" x2="109" y2="108" style="stroke:#ddd;stroke-width:2"></line>
<line x1="218" y1="1" x2="218" y2="108" style="stroke:#ddd;stroke-width:2"></line>
<line x1="327" y1="1" x2="327" y2="108" style="stroke:#ddd;stroke-width:2"></line>
<line x1="436" y1="1" x2="436" y2="108" style="stroke:#ddd;stroke-width:2"></line>
<line x1="545" y1="1" x2="545" y2="108" style="stroke:#ddd;stroke-width:2"></line>
<line x1="654" y1="1" x2="654" y2="108" style="stroke:#ddd;stroke-width:2"></line>
<line x1="763" y1="1" x2="763" y2="108" style="stroke:#ddd;stroke-width:2"></line>
<line x1="872" y1="1" x2="872" y2="108" style="stroke:#ddd;stroke-width:2"></line>
<line x1="1" y1="54" x2="980" y2="54" style="stroke:#ddd;stroke-width:2;stroke-dasharray:3 3"></line>
<line x1="55" y1="1" x2="55" y2="108" style="stroke:#ddd;stroke-width:2;stroke-dasharray:3 3"></line>
<line x1="164" y1="1" x2="164" y2="108" style="stroke:#ddd;stroke-width:2;stroke-dasharray:3 3"></line>
<line x1="273" y1="1" x2="273" y2="108" style="stroke:#ddd;stroke-width:2;stroke-dasharray:3 3"></line>
<line x1="382" y1="1" x2="382" y2="108" style="stroke:#ddd;stroke-width:2;stroke-dasharray:3 3"></line>
<line x1="491" y1="1" x2="491" y2="108" style="stroke:#ddd;stroke-width:2;stroke-dasharray:3 3"></line>
<line x1="600" y1="1" x2="600" y2="108" style="stroke:#ddd;stroke-width:2;stroke-dasharray:3 3"></line>
<line x1="709" y1="1" x2="709" y2="108" style="stroke:#ddd;stroke-width:2;stroke-dasharray:3 3"></line>
<line x1="818" y1="1" x2="818" y2="108" style="stroke:#ddd;stroke-width:2;stroke-dasharray:3 3"></line>
<line x1="927" y1="1" x2="927" y2="108" style="stroke:#ddd;stroke-width:2;stroke-dasharray:3 3"></line>
<path d="M20.33,26.17c1.25,0.53,4.67,0.83,7.83,0.67C39.69,26.23,67.0,23.5,83.0,23.17c2.26-0.05,6.12,0.57,7.17,0.83" style="fill:none;stroke:#999;stroke-width:3"></path>

<path d="M129.32999999999998,26.17c1.25,0.53,4.67,0.83,7.83,0.67C148.69,26.23,176.0,23.5,192.0,23.17c2.26-0.05,6.12,0.57,7.17,0.83" style="fill:none;stroke:#999;stroke-width:3"></path>
<path d="M145.0,14c2.17,0.5,2.72,1.44,2.82,2.38c0.93,8.87,1.96,15.98,2.51,19.12" style="fill:none;stroke:#999;stroke-width:3"></path>

<path d="M238.32999999999998,26.17c1.25,0.53,4.67,0.83,7.83,0.67C257.69,26.23,285.0,23.5,301.0,23.17c2.26-0.05,6.12,0.57,7.17,0.83" style="fill:none;stroke:#999;stroke-width:3"></path>
<path d="M254.0,14c2.17,0.5,2.72,1.44,2.82,2.38c0.93,8.87,1.96,15.98,2.51,19.12" style="fill:none;stroke:#999;stroke-width:3"></path>
<path d="M289.4,11.75c0.6,0.75,1.37,2.49,0.8,3.94c-1.73,4.43-2.38,11.32-4.87,16.98" style="fill:none;stroke:#999;stroke-width:3"></path>

<path d="M347.33,26.17c1.25,0.53,4.67,0.83,7.83,0.67C366.69,26.23,394.0,23.5,410.0,23.17c2.26-0.05,6.12,0.57,7.17,0.83" style="fill:none;stroke:#999;stroke-width:3"></path>
<path d="M363.0,14c2.17,0.5,2.72,1.44,2.82,2.38c0.93,8.87,1.96,15.98,2.51,19.12" style="fill:none;stroke:#999;stroke-width:3"></path>
<path d="M398.4,11.75c0.6,0.75,1.37,2.49,0.8,3.94c-1.73,4.43-2.38,11.32-4.87,16.98" style="fill:none;stroke:#999;stroke-width:3"></path>
<path d="M347.97,39.5c4.25,1.35,10.97,5.56,12.03,7.67" style="fill:none;stroke:#999;stroke-width:3"></path>

<path d="M456.33,26.17c1.25,0.53,4.67,0.83,7.83,0.67C475.69,26.23,503.0,23.5,519.0,23.17c2.26-0.05,6.12,0.57,7.17,0.83" style="fill:none;stroke:#999;stroke-width:3"></path>
<path d="M472.0,14c2.17,0.5,2.72,1.44,2.82,2.38c0.93,8.87,1.96,15.98,2.51,19.12" style="fill:none;stroke:#999;stroke-width:3"></path>
<path d="M507.4,11.75c0.6,0.75,1.37,2.49,0.8,3.94c-1.73,4.43-2.38,11.32-4.87,16.98" style="fill:none;stroke:#999;stroke-width:3"></path>
<path d="M456.97,39.5c4.25,1.35,10.97,5.56,12.03,7.67" style="fill:none;stroke:#999;stroke-width:3"></path>
<path d="M452.67,56.76c4,1.16,10.33,4.77,11.33,6.58" style="fill:none;stroke:#999;stroke-width:3"></path>

<path d="M565.3299999999999,26.17c1.25,0.53,4.67,0.83,7.83,0.67C584.69,26.23,612.0,23.5,628.0,23.17c2.26-0.05,6.12,0.57,7.17,0.83" style="fill:none;stroke:#999;stroke-width:3"></path>
<path d="M581.0,14c2.17,0.5,2.72,1.44,2.82,2.38c0.93,8.87,1.96,15.98,2.51,19.12" style="fill:none;stroke:#999;stroke-width:3"></path>
<path d="M616.4,11.75c0.6,0.75,1.37,2.49,0.8,3.94c-1.73,4.43-2.38,11.32-4.87,16.98" style="fill:none;stroke:#999;stroke-width:3"></path>
<path d="M565.97,39.5c4.25,1.35,10.97,5.56,12.03,7.67" style="fill:none;stroke:#999;stroke-width:3"></path>
<path d="M561.6700000000001,56.76c4,1.16,10.33,4.77,11.33,6.58" style="fill:none;stroke:#999;stroke-width:3"></path>
<path d="M561.42,90.33c3.33,1.17,4.73-0.69,6.16-3.13c4.16-7.11,4.92-8.7,10.09-17.87" style="fill:none;stroke:#999;stroke-width:3"></path>

<path d="M674.3299999999999,26.17c1.25,0.53,4.67,0.83,7.83,0.67C693.69,26.23,721.0,23.5,737.0,23.17c2.26-0.05,6.12,0.57,7.17,0.83" style="fill:none;stroke:#999;stroke-width:3"></path>
<path d="M690.0,14c2.17,0.5,2.72,1.44,2.82,2.38c0.93,8.87,1.96,15.98,2.51,19.12" style="fill:none;stroke:#999;stroke-width:3"></path>
<path d="M725.4,11.75c0.6,0.75,1.37,2.49,0.8,3.94c-1.73,4.43-2.38,11.32-4.87,16.98" style="fill:none;stroke:#999;stroke-width:3"></path>
<path d="M674.97,39.5c4.25,1.35,10.97,5.56,12.03,7.67" style="fill:none;stroke:#999;stroke-width:3"></path>
<path d="M670.6700000000001,56.76c4,1.16,10.33,4.77,11.33,6.58" style="fill:none;stroke:#999;stroke-width:3"></path>
<path d="M670.42,90.33c3.33,1.17,4.73-0.69,6.16-3.13c4.16-7.11,4.92-8.7,10.09-17.87" style="fill:none;stroke:#999;stroke-width:3"></path>
<path d="M717.71,37.94c0.91,0.42,1.8,1.56,1.8,3.66c0,3.08-0.19,8.05-0.02,10.66" style="fill:none;stroke:#999;stroke-width:3"></path>

<path d="M783.3299999999999,26.17c1.25,0.53,4.67,0.83,7.83,0.67C802.69,26.23,830.0,23.5,846.0,23.17c2.26-0.05,6.12,0.57,7.17,0.83" style="fill:none;stroke:#999;stroke-width:3"></path>
<path d="M799.0,14c2.17,0.5,2.72,1.44,2.82,2.38c0.93,8.87,1.96,15.98,2.51,19.12" style="fill:none;stroke:#999;stroke-width:3"></path>
<path d="M834.4,11.75c0.6,0.75,1.37,2.49,0.8,3.94c-1.73,4.43-2.38,11.32-4.87,16.98" style="fill:none;stroke:#999;stroke-width:3"></path>
<path d="M783.97,39.5c4.25,1.35,10.97,5.56,12.03,7.67" style="fill:none;stroke:#999;stroke-width:3"></path>
<path d="M779.6700000000001,56.76c4,1.16,10.33,4.77,11.33,6.58" style="fill:none;stroke:#999;stroke-width:3"></path>
<path d="M779.42,90.33c3.33,1.17,4.73-0.69,6.16-3.13c4.16-7.11,4.92-8.7,10.09-17.87" style="fill:none;stroke:#999;stroke-width:3"></path>
<path d="M826.71,37.94c0.91,0.42,1.8,1.56,1.8,3.66c0,3.08-0.19,8.05-0.02,10.66" style="fill:none;stroke:#999;stroke-width:3"></path>
<path d="M801.83,53.67c1.67,0.33,4.42,0.83,6.83,0.83c7.19,0,32.95-3.08,42-3.33c1.5-0.04,5.08-0.42,7,0" style="fill:none;stroke:#999;stroke-width:3"></path>

<path d="M892.3299999999999,26.17c1.25,0.53,4.67,0.83,7.83,0.67C911.69,26.23,939.0,23.5,955.0,23.17c2.26-0.05,6.12,0.57,7.17,0.83" style="fill:none;stroke:#999;stroke-width:3"></path>
<path d="M908.0,14c2.17,0.5,2.72,1.44,2.82,2.38c0.93,8.87,1.96,15.98,2.51,19.12" style="fill:none;stroke:#999;stroke-width:3"></path>
<path d="M943.4,11.75c0.6,0.75,1.37,2.49,0.8,3.94c-1.73,4.43-2.38,11.32-4.87,16.98" style="fill:none;stroke:#999;stroke-width:3"></path>
<path d="M892.97,39.5c4.25,1.35,10.97,5.56,12.03,7.67" style="fill:none;stroke:#999;stroke-width:3"></path>
<path d="M888.6700000000001,56.76c4,1.16,10.33,4.77,11.33,6.58" style="fill:none;stroke:#999;stroke-width:3"></path>
<path d="M888.42,90.33c3.33,1.17,4.73-0.69,6.16-3.13c4.16-7.11,4.92-8.7,10.09-17.87" style="fill:none;stroke:#999;stroke-width:3"></path>
<path d="M935.71,37.94c0.91,0.42,1.8,1.56,1.8,3.66c0,3.08-0.19,8.05-0.02,10.66" style="fill:none;stroke:#999;stroke-width:3"></path>
<path d="M910.83,53.67c1.67,0.33,4.42,0.83,6.83,0.83c7.19,0,32.95-3.08,42-3.33c1.5-0.04,5.08-0.42,7,0" style="fill:none;stroke:#999;stroke-width:3"></path>
<path d="M917.5,55.67c0.81,0.78,0.64,4.74,0.64,5.82c0,9.6,0,18.7,0,22.33c0,4.04,0.51,8.56,9.55,9.15c9.8,0.64,26.11-0.13,28.32-0.21c3.84-0.14,6.19-0.95,8.15-1.45" style="fill:none;stroke:#999;stroke-width:3"></path>

</svg>