<svg width="981px" height="109px" viewBox="0 0 981 109" xmlns="http://www.w3.org/2000/svg" xmlns:xlink="http://www.w3.org/1999/xlink" xml:space="preserve" version="1.1" baseProfile="full">
<line x1="1" y1="1" x2="980" y2="1" style="stroke:#ddd;stroke-width:2"></line>
<line x1="1" y1="1" x2="1" y2="108" style="stroke:#ddd;stroke-width:2"></line>
<line x1="1" y1="108" x2="980" y2="108" style="stroke:#ddd;stroke-width:2"></line>
<line x1="980" y1="1" x2="980" y2="108" style="stroke:#ddd;stroke-width:2"></line>
<line x1="109" y1="1" x2="109" y2="108" style="stroke:#ddd;stroke-width:2"></line>
<line x1="218" y1="1" x2="218" y2="108" style="stroke:#ddd;stroke-width:2"></line>
<line x1="327" y1="1" x2="327" y2="108" style="stroke:#ddd;stroke-width:2"></line>
<line x1="436" y1="1" x2="436" y2="108" style="stroke:#ddd;stroke-width:2"></line>
<line x1="545" y1="1" x2="545" y2="108" style="stroke:#ddd;stroke-width:2"></line>
<line x1="654" y1="1" x2="654" y2="108" style="stroke:#ddd;stroke-width:2"></line>
<line x1="763" y1="1" x2="763" y2="108" style="stroke:#ddd;stroke-width:2"></line>
<line x1="872" y1="1" x2="872" y2="108" style="stroke:#ddd;stroke-width:2"></line>
<line x1="1" y1="54" x2="980" y2="54" style="stroke:#ddd;stroke-width:2;stroke-dasharray:3 3"></line>
<line x1="55" y1="1" x2="55" y2="108" style="stroke:#ddd;stroke-width:2;stroke-dasharray:3 3"></line>
<line x1="164" y1="1" x2="164" y2="108" style="stroke:#ddd;stroke-width:2;stroke-dasharray:3 3"></line>
<line x1="273" y1="1" x2="273" y2="108" style="stroke:#ddd;stroke-width:2;stroke-dasharray:3 3"></line>
<line x1="382" y1="1" x2="382" y2="108" style="stroke:#ddd;stroke-width:2;stroke-dasharray:3 3"></line>
<line x1="491" y1="1" x2="491" y2="108" style="stroke:#ddd;stroke-width:2;stroke-dasharray:3 3"></line>
<line x1="600" y1="1" x2="600" y2="108" style="stroke:#ddd;stroke-width:2;stroke-dasharray:3 3"></line>
<line x1="709" y1="1" x2="709" y2="108" style="stroke:#ddd;stroke-width:2;stroke-dasharray:3 3"></line>
<line x1="818" y1="1" x2="818" y2="108" style="stroke:#ddd;stroke-width:2;stroke-dasharray:3 3"></line>
<line x1="927" y1="1" x2="927" y2="108" style="stroke:#ddd;stroke-width:2;stroke-dasharray:3 3"></line>
<path d="M20.17,22.33c2.33,0.67,4.87,0.44,6.17,0.33c11.9-0.96,46.11-3.76,59.83-3.83c2.16-0.01,4.42-0.1,5.5,0.17" style="fill:none;stroke:#999;stroke-width:3"></path>

<path d="M129.17000000000002,22.33c2.33,0.67,4.87,0.44,6.17,0.33c11.9-0.96,46.11-3.76,59.83-3.83c2.16-0.01,4.42-0.1,5.5,0.17" style="fill:none;stroke:#999;stroke-width:3"></path>
<path d="M148.17000000000002,11.17c1.42,0.5,2.05,1.83,2.17,2.67c1.08,7.8,1.19,15,1.5,17.83" style="fill:none;stroke:#999;stroke-width:3"></path>

<path d="M238.17000000000002,22.33c2.33,0.67,4.87,0.44,6.17,0.33c11.9-0.96,46.11-3.76,59.83-3.83c2.16-0.01,4.42-0.1,5.5,0.17" style="fill:none;stroke:#999;stroke-width:3"></path>
<path d="M257.17,11.17c1.42,0.5,2.05,1.83,2.17,2.67c1.08,7.8,1.19,15,1.5,17.83" style="fill:none;stroke:#999;stroke-width:3"></path>
<path d="M285.5,9.5c1,0.75,1.62,2.27,1.25,3.75c-1.12,4.5-1.12,10.83-2.75,16.58" style="fill:none;stroke:#999;stroke-width:3"></path>

<path d="M347.17,22.33c2.33,0.67,4.87,0.44,6.17,0.33c11.9-0.96,46.11-3.76,59.83-3.83c2.16-0.01,4.42-0.1,5.5,0.17" style="fill:none;stroke:#999;stroke-width:3"></path>
<path d="M366.17,11.17c1.42,0.5,2.05,1.83,2.17,2.67c1.08,7.8,1.19,15,1.5,17.83" style="fill:none;stroke:#999;stroke-width:3"></path>
<path d="M394.5,9.5c1,0.75,1.62,2.27,1.25,3.75c-1.12,4.5-1.12,10.83-2.75,16.58" style="fill:none;stroke:#999;stroke-width:3"></path>
<path d="M345.0,39c3.09,1.13,6.33,1.29,9.5,1c11-1,43.91-3.45,56.5-4.5c3-0.25,7.46,0.11,8.5,0.33" style="fill:none;stroke:#999;stroke-width:3"></path>

<path d="M456.17,22.33c2.33,0.67,4.87,0.44,6.17,0.33c11.9-0.96,46.11-3.76,59.83-3.83c2.16-0.01,4.42-0.1,5.5,0.17" style="fill:none;stroke:#999;stroke-width:3"></path>
<path d="M475.17,11.17c1.42,0.5,2.05,1.83,2.17,2.67c1.08,7.8,1.19,15,1.5,17.83" style="fill:none;stroke:#999;stroke-width:3"></path>
<path d="M503.5,9.5c1,0.75,1.62,2.27,1.25,3.75c-1.12,4.5-1.12,10.83-2.75,16.58" style="fill:none;stroke:#999;stroke-width:3"></path>
<path d="M454.0,39c3.09,1.13,6.33,1.29,9.5,1c11-1,43.91-3.45,56.5-4.5c3-0.25,7.46,0.11,8.5,0.33" style="fill:none;stroke:#999;stroke-width:3"></path>
<path d="M486.5,27.17c0.37,2.5,0.03,3.3-0.91,5.53c-5.25,12.53-18.07,32.62-35.43,44.92" style="fill:none;stroke:#999;stroke-width:3"></path>

<path d="M565.1700000000001,22.33c2.33,0.67,4.87,0.44,6.17,0.33c11.9-0.96,46.11-3.76,59.83-3.83c2.16-0.01,4.42-0.1,5.5,0.17" style="fill:none;stroke:#999;stroke-width:3"></path>
<path d="M584.1700000000001,11.17c1.42,0.5,2.05,1.83,2.17,2.67c1.08,7.8,1.19,15,1.5,17.83" style="fill:none;stroke:#999;stroke-width:3"></path>
<path d="M612.5,9.5c1,0.75,1.62,2.27,1.25,3.75c-1.12,4.5-1.12,10.83-2.75,16.58" style="fill:none;stroke:#999;stroke-width:3"></path>
<path d="M563.0,39c3.09,1.13,6.33,1.29,9.5,1c11-1,43.91-3.45,56.5-4.5c3-0.25,7.46,0.11,8.5,0.33" style="fill:none;stroke:#999;stroke-width:3"></path>
<path d="M595.5,27.17c0.37,2.5,0.03,3.3-0.91,5.53c-5.25,12.53-18.07,32.62-35.43,44.92" style="fill:none;stroke:#999;stroke-width:3"></path>
<path d="M579.5,56.33c1.5,0.42,2.28,1.78,2.28,3.45c0,9.85-0.28,24.33-0.28,38.71" style="fill:none;stroke:#999;stroke-width:3"></path>

<path d="M674.1700000000001,22.33c2.33,0.67,4.87,0.44,6.17,0.33c11.9-0.96,46.11-3.76,59.83-3.83c2.16-0.01,4.42-0.1,5.5,0.17" style="fill:none;stroke:#999;stroke-width:3"></path>
<path d="M693.1700000000001,11.17c1.42,0.5,2.05,1.83,2.17,2.67c1.08,7.8,1.19,15,1.5,17.83" style="fill:none;stroke:#999;stroke-width:3"></path>
<path d="M721.5,9.5c1,0.75,1.62,2.27,1.25,3.75c-1.12,4.5-1.12,10.83-2.75,16.58" style="fill:none;stroke:#999;stroke-width:3"></path>
<path d="M672.0,39c3.09,1.13,6.33,1.29,9.5,1c11-1,43.91-3.45,56.5-4.5c3-0.25,7.46,0.11,8.5,0.33" style="fill:none;stroke:#999;stroke-width:3"></path>
<path d="M704.5,27.17c0.37,2.5,0.03,3.3-0.91,5.53c-5.25,12.53-18.07,32.62-35.43,44.92" style="fill:none;stroke:#999;stroke-width:3"></path>
<path d="M688.5,56.33c1.5,0.42,2.28,1.78,2.28,3.45c0,9.85-0.28,24.33-0.28,38.71" style="fill:none;stroke:#999;stroke-width:3"></path>
<path d="M704.5,49.83c0.95,0.29,4.14,1.13,5.57,0.87c1.74-0.31,21.62-4.37,23.27-4.37c1.66,0,2.32,1.09,0.66,2.83c-1.66,1.75-7.79,6.67-12,9.83" style="fill:none;stroke:#999;stroke-width:3"></path>

<path d="M783.1700000000001,22.33c2.33,0.67,4.87,0.44,6.17,0.33c11.9-0.96,46.11-3.76,59.83-3.83c2.16-0.01,4.42-0.1,5.5,0.17" style="fill:none;stroke:#999;stroke-width:3"></path>
<path d="M802.1700000000001,11.17c1.42,0.5,2.05,1.83,2.17,2.67c1.08,7.8,1.19,15,1.5,17.83" style="fill:none;stroke:#999;stroke-width:3"></path>
<path d="M830.5,9.5c1,0.75,1.62,2.27,1.25,3.75c-1.12,4.5-1.12,10.83-2.75,16.58" style="fill:none;stroke:#999;stroke-width:3"></path>
<path d="M781.0,39c3.09,1.13,6.33,1.29,9.5,1c11-1,43.91-3.45,56.5-4.5c3-0.25,7.46,0.11,8.5,0.33" style="fill:none;stroke:#999;stroke-width:3"></path>
<path d="M813.5,27.17c0.37,2.5,0.03,3.3-0.91,5.53c-5.25,12.53-18.07,32.62-35.43,44.92" style="fill:none;stroke:#999;stroke-width:3"></path>
<path d="M797.5,56.33c1.5,0.42,2.28,1.78,2.28,3.45c0,9.85-0.28,24.33-0.28,38.71" style="fill:none;stroke:#999;stroke-width:3"></path>
<path d="M813.5,49.83c0.95,0.29,4.14,1.13,5.57,0.87c1.74-0.31,21.62-4.37,23.27-4.37c1.66,0,2.32,1.09,0.66,2.83c-1.66,1.75-7.79,6.67-12,9.83" style="fill:none;stroke:#999;stroke-width:3"></path>
<path d="M828.67,60c5.38,2.88,13.73,14.52,6.83,34.17c-2.75,7.83-7.83,0-8.83-1.5" style="fill:none;stroke:#999;stroke-width:3"></path>

<path d="M892.1700000000001,22.33c2.33,0.67,4.87,0.44,6.17,0.33c11.9-0.96,46.11-3.76,59.83-3.83c2.16-0.01,4.42-0.1,5.5,0.17" style="fill:none;stroke:#999;stroke-width:3"></path>
<path d="M911.1700000000001,11.17c1.42,0.5,2.05,1.83,2.17,2.67c1.08,7.8,1.19,15,1.5,17.83" style="fill:none;stroke:#999;stroke-width:3"></path>
<path d="M939.5,9.5c1,0.75,1.62,2.27,1.25,3.75c-1.12,4.5-1.12,10.83-2.75,16.58" style="fill:none;stroke:#999;stroke-width:3"></path>
<path d="M890.0,39c3.09,1.13,6.33,1.29,9.5,1c11-1,43.91-3.45,56.5-4.5c3-0.25,7.46,0.11,8.5,0.33" style="fill:none;stroke:#999;stroke-width:3"></path>
<path d="M922.5,27.17c0.37,2.5,0.03,3.3-0.91,5.53c-5.25,12.53-18.07,32.62-35.43,44.92" style="fill:none;stroke:#999;stroke-width:3"></path>
<path d="M906.5,56.33c1.5,0.42,2.28,1.78,2.28,3.45c0,9.85-0.28,24.33-0.28,38.71" style="fill:none;stroke:#999;stroke-width:3"></path>
<path d="M922.5,49.83c0.95,0.29,4.14,1.13,5.57,0.87c1.74-0.31,21.62-4.37,23.27-4.37c1.66,0,2.32,1.09,0.66,2.83c-1.66,1.75-7.79,6.67-12,9.83" style="fill:none;stroke:#999;stroke-width:3"></path>
<path d="M937.67,60c5.38,2.88,13.73,14.52,6.83,34.17c-2.75,7.83-7.83,0-8.83-1.5" style="fill:none;stroke:#999;stroke-width:3"></path>
<path d="M917.0,68.68c0.82,0.66,5.35,0.99,6.83,0.83c5.18-0.57,30.5-3.85,37.33-4.09c1.49-0.05,6.85,0.44,7.83,1.11" style="fill:none;stroke:#999;stroke-width:3"></path>

</svg>