<svg width="1090px" height="109px" viewBox="0 0 1090 109" xmlns="http://www.w3.org/2000/svg" xmlns:xlink="http://www.w3.org/1999/xlink" xml:space="preserve" version="1.1" baseProfile="full">
<line x1="1" y1="1" x2="1089" y2="1" style="stroke:#ddd;stroke-width:2"></line>
<line x1="1" y1="1" x2="1" y2="108" style="stroke:#ddd;stroke-width:2"></line>
<line x1="1" y1="108" x2="1089" y2="108" style="stroke:#ddd;stroke-width:2"></line>
<line x1="1089" y1="1" x2="1089" y2="108" style="stroke:#ddd;stroke-width:2"></line>
<line x1="109" y1="1" x2="109" y2="108" style="stroke:#ddd;stroke-width:2"></line>
<line x1="218" y1="1" x2="218" y2="108" style="stroke:#ddd;stroke-width:2"></line>
<line x1="327" y1="1" x2="327" y2="108" style="stroke:#ddd;stroke-width:2"></line>
<line x1="436" y1="1" x2="436" y2="108" style="stroke:#ddd;stroke-width:2"></line>
<line x1="545" y1="1" x2="545" y2="108" style="stroke:#ddd;stroke-width:2"></line>
<line x1="654" y1="1" x2="654" y2="108" style="stroke:#ddd;stroke-width:2"></line>
<line x1="763" y1="1" x2="763" y2="108" style="stroke:#ddd;stroke-width:2"></line>
<line x1="872" y1="1" x2="872" y2="108" style="stroke:#ddd;stroke-width:2"></line>
<line x1="981" y1="1" x2="981" y2="108" style="stroke:#ddd;stroke-width:2"></line>
<line x1="1" y1="54" x2="1089" y2="54" style="stroke:#ddd;stroke-width:2;stroke-dasharray:3 3"></line>
<line x1="55" y1="1" x2="55" y2="108" style="stroke:#ddd;stroke-width:2;stroke-dasharray:3 3"></line>
<line x1="164" y1="1" x2="164" y2="108" style="stroke:#ddd;stroke-width:2;stroke-dasharray:3 3"></line>
<line x1="273" y1="1" x2="273" y2="108" style="stroke:#ddd;stroke-width:2;stroke-dasharray:3 3"></line>
<line x1="382" y1="1" x2="382" y2="108" style="stroke:#ddd;stroke-width:2;stroke-dasharray:3 3"></line>
<line x1="491" y1="1" x2="491" y2="108" style="stroke:#ddd;stroke-width:2;stroke-dasharray:3 3"></line>
<line x1="600" y1="1" x2="600" y2="108" style="stroke:#ddd;stroke-width:2;stroke-dasharray:3 3"></line>
<line x1="709" y1="1" x2="709" y2="108" style="stroke:#ddd;stroke-width:2;stroke-dasharray:3 3"></line>
<line x1="818" y1="1" x2="818" y2="108" style="stroke:#ddd;stroke-width:2;stroke-dasharray:3 3"></line>
<line x1="927" y1="1" x2="927" y2="108" style="stroke:#ddd;stroke-width:2;stroke-dasharray:3 3"></line>
<line x1="1036" y1="1" x2="1036" y2="108" style="stroke:#ddd;stroke-width:2;stroke-dasharray:3 3"></line>
<path d="M17.83,24.56c1.29,0.37,5.17,1.19,8,0.95c11.88-1.04,41.28-4.36,55-4.67c3.67-0.08,7.75,0.38,8.83,0.57" style="fill:none;stroke:#999;stroke-width:3"></path>

<path d="M126.83,24.56c1.29,0.37,5.17,1.19,8,0.95c11.88-1.04,41.28-4.36,55-4.67c3.67-0.08,7.75,0.38,8.83,0.57" style="fill:none;stroke:#999;stroke-width:3"></path>
<path d="M143.67000000000002,11.67c1.83,0.58,3.46,2.14,3.61,3c1.42,7.99,1.82,14.26,2.23,17.17" style="fill:none;stroke:#999;stroke-width:3"></path>

<path d="M235.82999999999998,24.56c1.29,0.37,5.17,1.19,8,0.95c11.88-1.04,41.28-4.36,55-4.67c3.67-0.08,7.75,0.38,8.83,0.57" style="fill:none;stroke:#999;stroke-width:3"></path>
<path d="M252.67000000000002,11.67c1.83,0.58,3.46,2.14,3.61,3c1.42,7.99,1.82,14.26,2.23,17.17" style="fill:none;stroke:#999;stroke-width:3"></path>
<path d="M284.17,9.5c1.12,1,1.87,2.19,1.5,3.67c-1.12,4.5-3.04,12.42-4.67,18.17" style="fill:none;stroke:#999;stroke-width:3"></path>

<path d="M344.83,24.56c1.29,0.37,5.17,1.19,8,0.95c11.88-1.04,41.28-4.36,55-4.67c3.67-0.08,7.75,0.38,8.83,0.57" style="fill:none;stroke:#999;stroke-width:3"></path>
<path d="M361.67,11.67c1.83,0.58,3.46,2.14,3.61,3c1.42,7.99,1.82,14.26,2.23,17.17" style="fill:none;stroke:#999;stroke-width:3"></path>
<path d="M393.17,9.5c1.12,1,1.87,2.19,1.5,3.67c-1.12,4.5-3.04,12.42-4.67,18.17" style="fill:none;stroke:#999;stroke-width:3"></path>
<path d="M409.93,30c0.09,0.39,0.35,1.13-0.18,1.58c-6.62,5.54-14.91,10.13-32.16,14.6" style="fill:none;stroke:#999;stroke-width:3"></path>

<path d="M453.83,24.56c1.29,0.37,5.17,1.19,8,0.95c11.88-1.04,41.28-4.36,55-4.67c3.67-0.08,7.75,0.38,8.83,0.57" style="fill:none;stroke:#999;stroke-width:3"></path>
<path d="M470.67,11.67c1.83,0.58,3.46,2.14,3.61,3c1.42,7.99,1.82,14.26,2.23,17.17" style="fill:none;stroke:#999;stroke-width:3"></path>
<path d="M502.17,9.5c1.12,1,1.87,2.19,1.5,3.67c-1.12,4.5-3.04,12.42-4.67,18.17" style="fill:none;stroke:#999;stroke-width:3"></path>
<path d="M518.9300000000001,30c0.09,0.39,0.35,1.13-0.18,1.58c-6.62,5.54-14.91,10.13-32.16,14.6" style="fill:none;stroke:#999;stroke-width:3"></path>
<path d="M505.07,41.86c0.84,0.3,1.34,1.37,1.51,1.97c0.17,0.61,0,29.13-0.17,32.93" style="fill:none;stroke:#999;stroke-width:3"></path>

<path d="M562.8299999999999,24.56c1.29,0.37,5.17,1.19,8,0.95c11.88-1.04,41.28-4.36,55-4.67c3.67-0.08,7.75,0.38,8.83,0.57" style="fill:none;stroke:#999;stroke-width:3"></path>
<path d="M579.6700000000001,11.67c1.83,0.58,3.46,2.14,3.61,3c1.42,7.99,1.82,14.26,2.23,17.17" style="fill:none;stroke:#999;stroke-width:3"></path>
<path d="M611.1700000000001,9.5c1.12,1,1.87,2.19,1.5,3.67c-1.12,4.5-3.04,12.42-4.67,18.17" style="fill:none;stroke:#999;stroke-width:3"></path>
<path d="M627.9300000000001,30c0.09,0.39,0.35,1.13-0.18,1.58c-6.62,5.54-14.91,10.13-32.16,14.6" style="fill:none;stroke:#999;stroke-width:3"></path>
<path d="M614.0699999999999,41.86c0.84,0.3,1.34,1.37,1.51,1.97c0.17,0.61,0,29.13-0.17,32.93" style="fill:none;stroke:#999;stroke-width:3"></path>
<path d="M616.67,55.67c5.02-0.45,9.89-1.53,15.17-1.83c1.23-0.07,2.5,0,3.67,0.67" style="fill:none;stroke:#999;stroke-width:3"></path>

<path d="M671.8299999999999,24.56c1.29,0.37,5.17,1.19,8,0.95c11.88-1.04,41.28-4.36,55-4.67c3.67-0.08,7.75,0.38,8.83,0.57" style="fill:none;stroke:#999;stroke-width:3"></path>
<path d="M688.6700000000001,11.67c1.83,0.58,3.46,2.14,3.61,3c1.42,7.99,1.82,14.26,2.23,17.17" style="fill:none;stroke:#999;stroke-width:3"></path>
<path d="M720.1700000000001,9.5c1.12,1,1.87,2.19,1.5,3.67c-1.12,4.5-3.04,12.42-4.67,18.17" style="fill:none;stroke:#999;stroke-width:3"></path>
<path d="M736.9300000000001,30c0.09,0.39,0.35,1.13-0.18,1.58c-6.62,5.54-14.91,10.13-32.16,14.6" style="fill:none;stroke:#999;stroke-width:3"></path>
<path d="M723.0699999999999,41.86c0.84,0.3,1.34,1.37,1.51,1.97c0.17,0.61,0,29.13-0.17,32.93" style="fill:none;stroke:#999;stroke-width:3"></path>
<path d="M725.67,55.67c5.02-0.45,9.89-1.53,15.17-1.83c1.23-0.07,2.5,0,3.67,0.67" style="fill:none;stroke:#999;stroke-width:3"></path>
<path d="M706.5,55c0.76,0.24,2.6,1.75,2.6,3.8c0,0.51,0.25,14.48,0.33,15.41c0.08,0.92,1.28,2.46,4.23,2.96c8,1.33,16.64,0.92,27.17,0c1.92-0.17,3.96,0.05,4.83,0.17" style="fill:none;stroke:#999;stroke-width:3"></path>

<path d="M780.8299999999999,24.56c1.29,0.37,5.17,1.19,8,0.95c11.88-1.04,41.28-4.36,55-4.67c3.67-0.08,7.75,0.38,8.83,0.57" style="fill:none;stroke:#999;stroke-width:3"></path>
<path d="M797.6700000000001,11.67c1.83,0.58,3.46,2.14,3.61,3c1.42,7.99,1.82,14.26,2.23,17.17" style="fill:none;stroke:#999;stroke-width:3"></path>
<path d="M829.1700000000001,9.5c1.12,1,1.87,2.19,1.5,3.67c-1.12,4.5-3.04,12.42-4.67,18.17" style="fill:none;stroke:#999;stroke-width:3"></path>
<path d="M845.9300000000001,30c0.09,0.39,0.35,1.13-0.18,1.58c-6.62,5.54-14.91,10.13-32.16,14.6" style="fill:none;stroke:#999;stroke-width:3"></path>
<path d="M832.0699999999999,41.86c0.84,0.3,1.34,1.37,1.51,1.97c0.17,0.61,0,29.13-0.17,32.93" style="fill:none;stroke:#999;stroke-width:3"></path>
<path d="M834.67,55.67c5.02-0.45,9.89-1.53,15.17-1.83c1.23-0.07,2.5,0,3.67,0.67" style="fill:none;stroke:#999;stroke-width:3"></path>
<path d="M815.5,55c0.76,0.24,2.6,1.75,2.6,3.8c0,0.51,0.25,14.48,0.33,15.41c0.08,0.92,1.28,2.46,4.23,2.96c8,1.33,16.64,0.92,27.17,0c1.92-0.17,3.96,0.05,4.83,0.17" style="fill:none;stroke:#999;stroke-width:3"></path>
<path d="M781.5,41.17c0.92,0.58,3.16,1.56,4.45,1.17c1.3-0.39,7.79-2.56,10.38-3.34c2.59-0.78,3.3,1.54,2.5,2.67c-1.48,2.08-7.88,14.68-10.48,19.35" style="fill:none;stroke:#999;stroke-width:3"></path>

<path d="M889.8299999999999,24.56c1.29,0.37,5.17,1.19,8,0.95c11.88-1.04,41.28-4.36,55-4.67c3.67-0.08,7.75,0.38,8.83,0.57" style="fill:none;stroke:#999;stroke-width:3"></path>
<path d="M906.6700000000001,11.67c1.83,0.58,3.46,2.14,3.61,3c1.42,7.99,1.82,14.26,2.23,17.17" style="fill:none;stroke:#999;stroke-width:3"></path>
<path d="M938.1700000000001,9.5c1.12,1,1.87,2.19,1.5,3.67c-1.12,4.5-3.04,12.42-4.67,18.17" style="fill:none;stroke:#999;stroke-width:3"></path>
<path d="M954.9300000000001,30c0.09,0.39,0.35,1.13-0.18,1.58c-6.62,5.54-14.91,10.13-32.16,14.6" style="fill:none;stroke:#999;stroke-width:3"></path>
<path d="M941.0699999999999,41.86c0.84,0.3,1.34,1.37,1.51,1.97c0.17,0.61,0,29.13-0.17,32.93" style="fill:none;stroke:#999;stroke-width:3"></path>
<path d="M943.67,55.67c5.02-0.45,9.89-1.53,15.17-1.83c1.23-0.07,2.5,0,3.67,0.67" style="fill:none;stroke:#999;stroke-width:3"></path>
<path d="M924.5,55c0.76,0.24,2.6,1.75,2.6,3.8c0,0.51,0.25,14.48,0.33,15.41c0.08,0.92,1.28,2.46,4.23,2.96c8,1.33,16.64,0.92,27.17,0c1.92-0.17,3.96,0.05,4.83,0.17" style="fill:none;stroke:#999;stroke-width:3"></path>
<path d="M890.5,41.17c0.92,0.58,3.16,1.56,4.45,1.17c1.3-0.39,7.79-2.56,10.38-3.34c2.59-0.78,3.3,1.54,2.5,2.67c-1.48,2.08-7.88,14.68-10.48,19.35" style="fill:none;stroke:#999;stroke-width:3"></path>
<path d="M896.83,61.83c3.17-0.73,10.33-2.98,12.5-3.17c2.17-0.18,3.42,0.27,2.83,3.5c-2.44,13.34-11.44,28.13-25.5,35.17" style="fill:none;stroke:#999;stroke-width:3"></path>

<path d="M998.8299999999999,24.56c1.29,0.37,5.17,1.19,8,0.95c11.88-1.04,41.28-4.36,55-4.67c3.67-0.08,7.75,0.38,8.83,0.57" style="fill:none;stroke:#999;stroke-width:3"></path>
<path d="M1015.6700000000001,11.67c1.83,0.58,3.46,2.14,3.61,3c1.42,7.99,1.82,14.26,2.23,17.17" style="fill:none;stroke:#999;stroke-width:3"></path>
<path d="M1047.17,9.5c1.12,1,1.87,2.19,1.5,3.67c-1.12,4.5-3.04,12.42-4.67,18.17" style="fill:none;stroke:#999;stroke-width:3"></path>
<path d="M1063.93,30c0.09,0.39,0.35,1.13-0.18,1.58c-6.62,5.54-14.91,10.13-32.16,14.6" style="fill:none;stroke:#999;stroke-width:3"></path>
<path d="M1050.07,41.86c0.84,0.3,1.34,1.37,1.51,1.97c0.17,0.61,0,29.13-0.17,32.93" style="fill:none;stroke:#999;stroke-width:3"></path>
<path d="M1052.67,55.67c5.02-0.45,9.89-1.53,15.17-1.83c1.23-0.07,2.5,0,3.67,0.67" style="fill:none;stroke:#999;stroke-width:3"></path>
<path d="M1033.5,55c0.76,0.24,2.6,1.75,2.6,3.8c0,0.51,0.25,14.48,0.33,15.41c0.08,0.92,1.28,2.46,4.23,2.96c8,1.33,16.64,0.92,27.17,0c1.92-0.17,3.96,0.05,4.83,0.17" style="fill:none;stroke:#999;stroke-width:3"></path>
<path d="M999.5,41.17c0.92,0.58,3.16,1.56,4.45,1.17c1.3-0.39,7.79-2.56,10.38-3.34c2.59-0.78,3.3,1.54,2.5,2.67c-1.48,2.08-7.88,14.68-10.48,19.35" style="fill:none;stroke:#999;stroke-width:3"></path>
<path d="M1005.83,61.83c3.17-0.73,10.33-2.98,12.5-3.17c2.17-0.18,3.42,0.27,2.83,3.5c-2.44,13.34-11.44,28.13-25.5,35.17" style="fill:none;stroke:#999;stroke-width:3"></path>
<path d="M1001.67,69.27c7.76-0.24,37.8,20.85,63.19,26.12c3.85,0.8,7.75,1.14,10.64,1.44" style="fill:none;stroke:#999;stroke-width:3"></path>

</svg>