<svg width="1199px" height="109px" viewBox="0 0 1199 109" xmlns="http://www.w3.org/2000/svg" xmlns:xlink="http://www.w3.org/1999/xlink" xml:space="preserve" version="1.1" baseProfile="full">
<line x1="1" y1="1" x2="1198" y2="1" style="stroke:#ddd;stroke-width:2"></line>
<line x1="1" y1="1" x2="1" y2="108" style="stroke:#ddd;stroke-width:2"></line>
<line x1="1" y1="108" x2="1198" y2="108" style="stroke:#ddd;stroke-width:2"></line>
<line x1="1198" y1="1" x2="1198" y2="108" style="stroke:#ddd;stroke-width:2"></line>
<line x1="109" y1="1" x2="109" y2="108" style="stroke:#ddd;stroke-width:2"></line>
<line x1="218" y1="1" x2="218" y2="108" style="stroke:#ddd;stroke-width:2"></line>
<line x1="327" y1="1" x2="327" y2="108" style="stroke:#ddd;stroke-width:2"></line>
<line x1="436" y1="1" x2="436" y2="108" style="stroke:#ddd;stroke-width:2"></line>
<line x1="545" y1="1" x2="545" y2="108" style="stroke:#ddd;stroke-width:2"></line>
<line x1="654" y1="1" x2="654" y2="108" style="stroke:#ddd;stroke-width:2"></line>
<line x1="763" y1="1" x2="763" y2="108" style="stroke:#ddd;stroke-width:2"></line>
<line x1="872" y1="1" x2="872" y2="108" style="stroke:#ddd;stroke-width:2"></line>
<line x1="981" y1="1" x2="981" y2="108" style="stroke:#ddd;stroke-width:2"></line>
<line x1="1090" y1="1" x2="1090" y2="108" style="stroke:#ddd;stroke-width:2"></line>
<line x1="1" y1="54" x2="1198" y2="54" style="stroke:#ddd;stroke-width:2;stroke-dasharray:3 3"></line>
<line x1="55" y1="1" x2="55" y2="108" style="stroke:#ddd;stroke-width:2;stroke-dasharray:3 3"></line>
<line x1="164" y1="1" x2="164" y2="108" style="stroke:#ddd;stroke-width:2;stroke-dasharray:3 3"></line>
<line x1="273" y1="1" x2="273" y2="108" style="stroke:#ddd;stroke-width:2;stroke-dasharray:3 3"></line>
<line x1="382" y1="1" x2="382" y2="108" style="stroke:#ddd;stroke-width:2;stroke-dasharray:3 3"></line>
<line x1="491" y1="1" x2="491" y2="108" style="stroke:#ddd;stroke-width:2;stroke-dasharray:3 3"></line>
<line x1="600" y1="1" x2="600" y2="108" style="stroke:#ddd;stroke-width:2;stroke-dasharray:3 3"></line>
<line x1="709" y1="1" x2="709" y2="108" style="stroke:#ddd;stroke-width:2;stroke-dasharray:3 3"></line>
<line x1="818" y1="1" x2="818" y2="108" style="stroke:#ddd;stroke-width:2;stroke-dasharray:3 3"></line>
<line x1="927" y1="1" x2="927" y2="108" style="stroke:#ddd;stroke-width:2;stroke-dasharray:3 3"></line>
<line x1="1036" y1="1" x2="1036" y2="108" style="stroke:#ddd;stroke-width:2;stroke-dasharray:3 3"></line>
<line x1="1145" y1="1" x2="1145" y2="108" style="stroke:#ddd;stroke-width:2;stroke-dasharray:3 3"></line>
<path d="M15.75,22.06c2.88,0.68,6.56,0.62,9.5,0.33c15.48-1.56,42.2-3.2,57.62-3.58c3.51-0.09,7.05,0.01,10.54,0.5" style="fill:none;stroke:#999;stroke-width:3"></path>

<path d="M124.75,22.06c2.88,0.68,6.56,0.62,9.5,0.33c15.48-1.56,42.2-3.2,57.62-3.58c3.51-0.09,7.05,0.01,10.54,0.5" style="fill:none;stroke:#999;stroke-width:3"></path>
<path d="M149.19,10.45c0.93,0.93,1.19,2.05,1.34,3.39c0.84,7.27,1.17,11.61,1.38,14.66" style="fill:none;stroke:#999;stroke-width:3"></path>

<path d="M233.75,22.06c2.88,0.68,6.56,0.62,9.5,0.33c15.48-1.56,42.2-3.2,57.62-3.58c3.51-0.09,7.05,0.01,10.54,0.5" style="fill:none;stroke:#999;stroke-width:3"></path>
<path d="M258.19,10.45c0.93,0.93,1.19,2.05,1.34,3.39c0.84,7.27,1.17,11.61,1.38,14.66" style="fill:none;stroke:#999;stroke-width:3"></path>
<path d="M285.04,9.17c0.33,0.96,0.49,1.94,0.29,3.21c-0.93,5.73-1.45,9.37-2.58,15.34" style="fill:none;stroke:#999;stroke-width:3"></path>

<path d="M342.75,22.06c2.88,0.68,6.56,0.62,9.5,0.33c15.48-1.56,42.2-3.2,57.62-3.58c3.51-0.09,7.05,0.01,10.54,0.5" style="fill:none;stroke:#999;stroke-width:3"></path>
<path d="M367.19,10.45c0.93,0.93,1.19,2.05,1.34,3.39c0.84,7.27,1.17,11.61,1.38,14.66" style="fill:none;stroke:#999;stroke-width:3"></path>
<path d="M394.04,9.17c0.33,0.96,0.49,1.94,0.29,3.21c-0.93,5.73-1.45,9.37-2.58,15.34" style="fill:none;stroke:#999;stroke-width:3"></path>
<path d="M351.25,36.58c3.75,0.79,6.37,0.45,9.25,0.15c10.16-1.08,31.11-2.93,41.51-3.49c3.09-0.17,6.44-0.39,9.49,0.32" style="fill:none;stroke:#999;stroke-width:3"></path>

<path d="M451.75,22.06c2.88,0.68,6.56,0.62,9.5,0.33c15.48-1.56,42.2-3.2,57.62-3.58c3.51-0.09,7.05,0.01,10.54,0.5" style="fill:none;stroke:#999;stroke-width:3"></path>
<path d="M476.19,10.45c0.93,0.93,1.19,2.05,1.34,3.39c0.84,7.27,1.17,11.61,1.38,14.66" style="fill:none;stroke:#999;stroke-width:3"></path>
<path d="M503.04,9.17c0.33,0.96,0.49,1.94,0.29,3.21c-0.93,5.73-1.45,9.37-2.58,15.34" style="fill:none;stroke:#999;stroke-width:3"></path>
<path d="M460.25,36.58c3.75,0.79,6.37,0.45,9.25,0.15c10.16-1.08,31.11-2.93,41.51-3.49c3.09-0.17,6.44-0.39,9.49,0.32" style="fill:none;stroke:#999;stroke-width:3"></path>
<path d="M465.75,47.21c0.83,0.48,1.34,1.45,1.52,2.4c0.97,3.78,1.81,7.24,2.63,10.76c0.3,1.27,0.59,2.55,0.89,3.85" style="fill:none;stroke:#999;stroke-width:3"></path>

<path d="M560.75,22.06c2.88,0.68,6.56,0.62,9.5,0.33c15.48-1.56,42.2-3.2,57.62-3.58c3.51-0.09,7.05,0.01,10.54,0.5" style="fill:none;stroke:#999;stroke-width:3"></path>
<path d="M585.19,10.45c0.93,0.93,1.19,2.05,1.34,3.39c0.84,7.27,1.17,11.61,1.38,14.66" style="fill:none;stroke:#999;stroke-width:3"></path>
<path d="M612.04,9.17c0.33,0.96,0.49,1.94,0.29,3.21c-0.93,5.73-1.45,9.37-2.58,15.34" style="fill:none;stroke:#999;stroke-width:3"></path>
<path d="M569.25,36.58c3.75,0.79,6.37,0.45,9.25,0.15c10.16-1.08,31.11-2.93,41.51-3.49c3.09-0.17,6.44-0.39,9.49,0.32" style="fill:none;stroke:#999;stroke-width:3"></path>
<path d="M574.75,47.21c0.83,0.48,1.34,1.45,1.52,2.4c0.97,3.78,1.81,7.24,2.63,10.76c0.3,1.27,0.59,2.55,0.89,3.85" style="fill:none;stroke:#999;stroke-width:3"></path>
<path d="M577.02,48.94c12.1-1.68,34.24-4.11,41.97-4.8c3.42-0.3,5.03,0.81,4.16,4.24c-0.74,2.94-1.27,4.95-2.27,8.07c-0.41,1.28-0.89,2.75-1.5,4.55" style="fill:none;stroke:#999;stroke-width:3"></path>

<path d="M669.75,22.06c2.88,0.68,6.56,0.62,9.5,0.33c15.48-1.56,42.2-3.2,57.62-3.58c3.51-0.09,7.05,0.01,10.54,0.5" style="fill:none;stroke:#999;stroke-width:3"></path>
<path d="M694.19,10.45c0.93,0.93,1.19,2.05,1.34,3.39c0.84,7.27,1.17,11.61,1.38,14.66" style="fill:none;stroke:#999;stroke-width:3"></path>
<path d="M721.04,9.17c0.33,0.96,0.49,1.94,0.29,3.21c-0.93,5.73-1.45,9.37-2.58,15.34" style="fill:none;stroke:#999;stroke-width:3"></path>
<path d="M678.25,36.58c3.75,0.79,6.37,0.45,9.25,0.15c10.16-1.08,31.11-2.93,41.51-3.49c3.09-0.17,6.44-0.39,9.49,0.32" style="fill:none;stroke:#999;stroke-width:3"></path>
<path d="M683.75,47.21c0.83,0.48,1.34,1.45,1.52,2.4c0.97,3.78,1.81,7.24,2.63,10.76c0.3,1.27,0.59,2.55,0.89,3.85" style="fill:none;stroke:#999;stroke-width:3"></path>
<path d="M686.02,48.94c12.1-1.68,34.24-4.11,41.97-4.8c3.42-0.3,5.03,0.81,4.16,4.24c-0.74,2.94-1.27,4.95-2.27,8.07c-0.41,1.28-0.89,2.75-1.5,4.55" style="fill:none;stroke:#999;stroke-width:3"></path>
<path d="M689.23,62.32c10.02-1.2,28.39-2.95,38.7-3.37" style="fill:none;stroke:#999;stroke-width:3"></path>

<path d="M778.75,22.06c2.88,0.68,6.56,0.62,9.5,0.33c15.48-1.56,42.2-3.2,57.62-3.58c3.51-0.09,7.05,0.01,10.54,0.5" style="fill:none;stroke:#999;stroke-width:3"></path>
<path d="M803.19,10.45c0.93,0.93,1.19,2.05,1.34,3.39c0.84,7.27,1.17,11.61,1.38,14.66" style="fill:none;stroke:#999;stroke-width:3"></path>
<path d="M830.04,9.17c0.33,0.96,0.49,1.94,0.29,3.21c-0.93,5.73-1.45,9.37-2.58,15.34" style="fill:none;stroke:#999;stroke-width:3"></path>
<path d="M787.25,36.58c3.75,0.79,6.37,0.45,9.25,0.15c10.16-1.08,31.11-2.93,41.51-3.49c3.09-0.17,6.44-0.39,9.49,0.32" style="fill:none;stroke:#999;stroke-width:3"></path>
<path d="M792.75,47.21c0.83,0.48,1.34,1.45,1.52,2.4c0.97,3.78,1.81,7.24,2.63,10.76c0.3,1.27,0.59,2.55,0.89,3.85" style="fill:none;stroke:#999;stroke-width:3"></path>
<path d="M795.02,48.94c12.1-1.68,34.24-4.11,41.97-4.8c3.42-0.3,5.03,0.81,4.16,4.24c-0.74,2.94-1.27,4.95-2.27,8.07c-0.41,1.28-0.89,2.75-1.5,4.55" style="fill:none;stroke:#999;stroke-width:3"></path>
<path d="M798.23,62.32c10.02-1.2,28.39-2.95,38.7-3.37" style="fill:none;stroke:#999;stroke-width:3"></path>
<path d="M815.62,36.75c0.94,0.94,1.21,2.5,1.21,4c0,4.75,0.03,44.12,0.03,53.5" style="fill:none;stroke:#999;stroke-width:3"></path>

<path d="M887.75,22.06c2.88,0.68,6.56,0.62,9.5,0.33c15.48-1.56,42.2-3.2,57.62-3.58c3.51-0.09,7.05,0.01,10.54,0.5" style="fill:none;stroke:#999;stroke-width:3"></path>
<path d="M912.19,10.45c0.93,0.93,1.19,2.05,1.34,3.39c0.84,7.27,1.17,11.61,1.38,14.66" style="fill:none;stroke:#999;stroke-width:3"></path>
<path d="M939.04,9.17c0.33,0.96,0.49,1.94,0.29,3.21c-0.93,5.73-1.45,9.37-2.58,15.34" style="fill:none;stroke:#999;stroke-width:3"></path>
<path d="M896.25,36.58c3.75,0.79,6.37,0.45,9.25,0.15c10.16-1.08,31.11-2.93,41.51-3.49c3.09-0.17,6.44-0.39,9.49,0.32" style="fill:none;stroke:#999;stroke-width:3"></path>
<path d="M901.75,47.21c0.83,0.48,1.34,1.45,1.52,2.4c0.97,3.78,1.81,7.24,2.63,10.76c0.3,1.27,0.59,2.55,0.89,3.85" style="fill:none;stroke:#999;stroke-width:3"></path>
<path d="M904.02,48.94c12.1-1.68,34.24-4.11,41.97-4.8c3.42-0.3,5.03,0.81,4.16,4.24c-0.74,2.94-1.27,4.95-2.27,8.07c-0.41,1.28-0.89,2.75-1.5,4.55" style="fill:none;stroke:#999;stroke-width:3"></path>
<path d="M907.23,62.32c10.02-1.2,28.39-2.95,38.7-3.37" style="fill:none;stroke:#999;stroke-width:3"></path>
<path d="M924.62,36.75c0.94,0.94,1.21,2.5,1.21,4c0,4.75,0.03,44.12,0.03,53.5" style="fill:none;stroke:#999;stroke-width:3"></path>
<path d="M899.75,72.58c3.25,0.67,5.87,0.53,8.49,0.29c8.93-0.84,25.01-2.12,36.64-2.71c3.12-0.16,6.29-0.56,9.38,0.16" style="fill:none;stroke:#999;stroke-width:3"></path>

<path d="M996.75,22.06c2.88,0.68,6.56,0.62,9.5,0.33c15.48-1.56,42.2-3.2,57.62-3.58c3.51-0.09,7.05,0.01,10.54,0.5" style="fill:none;stroke:#999;stroke-width:3"></path>
<path d="M1021.19,10.45c0.93,0.93,1.19,2.05,1.34,3.39c0.84,7.27,1.17,11.61,1.38,14.66" style="fill:none;stroke:#999;stroke-width:3"></path>
<path d="M1048.04,9.17c0.33,0.96,0.49,1.94,0.29,3.21c-0.93,5.73-1.45,9.37-2.58,15.34" style="fill:none;stroke:#999;stroke-width:3"></path>
<path d="M1005.25,36.58c3.75,0.79,6.37,0.45,9.25,0.15c10.16-1.08,31.11-2.93,41.51-3.49c3.09-0.17,6.44-0.39,9.49,0.32" style="fill:none;stroke:#999;stroke-width:3"></path>
<path d="M1010.75,47.21c0.83,0.48,1.34,1.45,1.52,2.4c0.97,3.78,1.81,7.24,2.63,10.76c0.3,1.27,0.59,2.55,0.89,3.85" style="fill:none;stroke:#999;stroke-width:3"></path>
<path d="M1013.02,48.94c12.1-1.68,34.24-4.11,41.97-4.8c3.42-0.3,5.03,0.81,4.16,4.24c-0.74,2.94-1.27,4.95-2.27,8.07c-0.41,1.28-0.89,2.75-1.5,4.55" style="fill:none;stroke:#999;stroke-width:3"></path>
<path d="M1016.23,62.32c10.02-1.2,28.39-2.95,38.7-3.37" style="fill:none;stroke:#999;stroke-width:3"></path>
<path d="M1033.62,36.75c0.94,0.94,1.21,2.5,1.21,4c0,4.75,0.03,44.12,0.03,53.5" style="fill:none;stroke:#999;stroke-width:3"></path>
<path d="M1008.75,72.58c3.25,0.67,5.87,0.53,8.49,0.29c8.93-0.84,25.01-2.12,36.64-2.71c3.12-0.16,6.29-0.56,9.38,0.16" style="fill:none;stroke:#999;stroke-width:3"></path>
<path d="M1014.5,83.58c2.04,0.79,4.99,0.6,7.14,0.38c7.48-0.76,21.03-2,28.49-2.44c2.31-0.14,4.6-0.24,6.87,0.29" style="fill:none;stroke:#999;stroke-width:3"></path>

<path d="M1105.75,22.06c2.88,0.68,6.56,0.62,9.5,0.33c15.48-1.56,42.2-3.2,57.62-3.58c3.51-0.09,7.05,0.01,10.54,0.5" style="fill:none;stroke:#999;stroke-width:3"></path>
<path d="M1130.19,10.45c0.93,0.93,1.19,2.05,1.34,3.39c0.84,7.27,1.17,11.61,1.38,14.66" style="fill:none;stroke:#999;stroke-width:3"></path>
<path d="M1157.04,9.17c0.33,0.96,0.49,1.94,0.29,3.21c-0.93,5.73-1.45,9.37-2.58,15.34" style="fill:none;stroke:#999;stroke-width:3"></path>
<path d="M1114.25,36.58c3.75,0.79,6.37,0.45,9.25,0.15c10.16-1.08,31.11-2.93,41.51-3.49c3.09-0.17,6.44-0.39,9.49,0.32" style="fill:none;stroke:#999;stroke-width:3"></path>
<path d="M1119.75,47.21c0.83,0.48,1.34,1.45,1.52,2.4c0.97,3.78,1.81,7.24,2.63,10.76c0.3,1.27,0.59,2.55,0.89,3.85" style="fill:none;stroke:#999;stroke-width:3"></path>
<path d="M1122.02,48.94c12.1-1.68,34.24-4.11,41.97-4.8c3.42-0.3,5.03,0.81,4.16,4.24c-0.74,2.94-1.27,4.95-2.27,8.07c-0.41,1.28-0.89,2.75-1.5,4.55" style="fill:none;stroke:#999;stroke-width:3"></path>
<path d="M1125.23,62.32c10.02-1.2,28.39-2.95,38.7-3.37" style="fill:none;stroke:#999;stroke-width:3"></path>
<path d="M1142.62,36.75c0.94,0.94,1.21,2.5,1.21,4c0,4.75,0.03,44.12,0.03,53.5" style="fill:none;stroke:#999;stroke-width:3"></path>
<path d="M1117.75,72.58c3.25,0.67,5.87,0.53,8.49,0.29c8.93-0.84,25.01-2.12,36.64-2.71c3.12-0.16,6.29-0.56,9.38,0.16" style="fill:none;stroke:#999;stroke-width:3"></path>
<path d="M1123.5,83.58c2.04,0.79,4.99,0.6,7.14,0.38c7.48-0.76,21.03-2,28.49-2.44c2.31-0.14,4.6-0.24,6.87,0.29" style="fill:none;stroke:#999;stroke-width:3"></path>
<path d="M1110.0,96.33c3.62,1.17,7.9,0.68,11.62,0.42c16-1.13,39.46-2.72,51.38-2.9c3.23-0.05,6.32,0.09,9.5,0.71" style="fill:none;stroke:#999;stroke-width:3"></path>

</svg>