<svg width="1199px" height="109px" viewBox="0 0 1199 109" xmlns="http://www.w3.org/2000/svg" xmlns:xlink="http://www.w3.org/1999/xlink" xml:space="preserve" version="1.1" baseProfile="full">
<line x1="1" y1="1" x2="1198" y2="1" style="stroke:#ddd;stroke-width:2"></line>
<line x1="1" y1="1" x2="1" y2="108" style="stroke:#ddd;stroke-width:2"></line>
<line x1="1" y1="108" x2="1198" y2="108" style="stroke:#ddd;stroke-width:2"></line>
<line x1="1198" y1="1" x2="1198" y2="108" style="stroke:#ddd;stroke-width:2"></line>
<line x1="109" y1="1" x2="109" y2="108" style="stroke:#ddd;stroke-width:2"></line>
<line x1="218" y1="1" x2="218" y2="108" style="stroke:#ddd;stroke-width:2"></line>
<line x1="327" y1="1" x2="327" y2="108" style="stroke:#ddd;stroke-width:2"></line>
<line x1="436" y1="1" x2="436" y2="108" style="stroke:#ddd;stroke-width:2"></line>
<line x1="545" y1="1" x2="545" y2="108" style="stroke:#ddd;stroke-width:2"></line>
<line x1="654" y1="1" x2="654" y2="108" style="stroke:#ddd;stroke-width:2"></line>
<line x1="763" y1="1" x2="763" y2="108" style="stroke:#ddd;stroke-width:2"></line>
<line x1="872" y1="1" x2="872" y2="108" style="stroke:#ddd;stroke-width:2"></line>
<line x1="981" y1="1" x2="981" y2="108" style="stroke:#ddd;stroke-width:2"></line>
<line x1="1090" y1="1" x2="1090" y2="108" style="stroke:#ddd;stroke-width:2"></line>
<line x1="1" y1="54" x2="1198" y2="54" style="stroke:#ddd;stroke-width:2;stroke-dasharray:3 3"></line>
<line x1="55" y1="1" x2="55" y2="108" style="stroke:#ddd;stroke-width:2;stroke-dasharray:3 3"></line>
<line x1="164" y1="1" x2="164" y2="108" style="stroke:#ddd;stroke-width:2;stroke-dasharray:3 3"></line>
<line x1="273" y1="1" x2="273" y2="108" style="stroke:#ddd;stroke-width:2;stroke-dasharray:3 3"></line>
<line x1="382" y1="1" x2="382" y2="108" style="stroke:#ddd;stroke-width:2;stroke-dasharray:3 3"></line>
<line x1="491" y1="1" x2="491" y2="108" style="stroke:#ddd;stroke-width:2;stroke-dasharray:3 3"></line>
<line x1="600" y1="1" x2="600" y2="108" style="stroke:#ddd;stroke-width:2;stroke-dasharray:3 3"></line>
<line x1="709" y1="1" x2="709" y2="108" style="stroke:#ddd;stroke-width:2;stroke-dasharray:3 3"></line>
<line x1="818" y1="1" x2="818" y2="108" style="stroke:#ddd;stroke-width:2;stroke-dasharray:3 3"></line>
<line x1="927" y1="1" x2="927" y2="108" style="stroke:#ddd;stroke-width:2;stroke-dasharray:3 3"></line>
<line x1="1036" y1="1" x2="1036" y2="108" style="stroke:#ddd;stroke-width:2;stroke-dasharray:3 3"></line>
<line x1="1145" y1="1" x2="1145" y2="108" style="stroke:#ddd;stroke-width:2;stroke-dasharray:3 3"></line>
<path d="M17.33,24.5c1.6,0.53,4.67,1,7.72,0.8c17.9-1.19,46.71-3.57,60.38-3.63c2.66-0.01,5.98,0.4,7.31,0.67" style="fill:none;stroke:#999;stroke-width:3"></path>

<path d="M126.33,24.5c1.6,0.53,4.67,1,7.72,0.8c17.9-1.19,46.71-3.57,60.38-3.63c2.66-0.01,5.98,0.4,7.31,0.67" style="fill:none;stroke:#999;stroke-width:3"></path>
<path d="M145.5,13.67c1.83,0.83,2.21,2.38,2.33,3.17c1.14,7.35,1.51,14.16,1.83,16.83" style="fill:none;stroke:#999;stroke-width:3"></path>

<path d="M235.32999999999998,24.5c1.6,0.53,4.67,1,7.72,0.8c17.9-1.19,46.71-3.57,60.38-3.63c2.66-0.01,5.98,0.4,7.31,0.67" style="fill:none;stroke:#999;stroke-width:3"></path>
<path d="M254.5,13.67c1.83,0.83,2.21,2.38,2.33,3.17c1.14,7.35,1.51,14.16,1.83,16.83" style="fill:none;stroke:#999;stroke-width:3"></path>
<path d="M286.17,11.33c1.28,0.89,1.92,3.19,1.5,4.5c-1.43,4.44-2.1,9.06-4.5,15.67" style="fill:none;stroke:#999;stroke-width:3"></path>

<path d="M344.33,24.5c1.6,0.53,4.67,1,7.72,0.8c17.9-1.19,46.71-3.57,60.38-3.63c2.66-0.01,5.98,0.4,7.31,0.67" style="fill:none;stroke:#999;stroke-width:3"></path>
<path d="M363.5,13.67c1.83,0.83,2.21,2.38,2.33,3.17c1.14,7.35,1.51,14.16,1.83,16.83" style="fill:none;stroke:#999;stroke-width:3"></path>
<path d="M395.17,11.33c1.28,0.89,1.92,3.19,1.5,4.5c-1.43,4.44-2.1,9.06-4.5,15.67" style="fill:none;stroke:#999;stroke-width:3"></path>
<path d="M342.5,51.5c0.7,0.25,2.8,1.12,4.67,1c7.58-0.5,18.22-2.25,25.23-2.75c1.86-0.13,2.77,0,3.94,0.25" style="fill:none;stroke:#999;stroke-width:3"></path>

<path d="M453.33,24.5c1.6,0.53,4.67,1,7.72,0.8c17.9-1.19,46.71-3.57,60.38-3.63c2.66-0.01,5.98,0.4,7.31,0.67" style="fill:none;stroke:#999;stroke-width:3"></path>
<path d="M472.5,13.67c1.83,0.83,2.21,2.38,2.33,3.17c1.14,7.35,1.51,14.16,1.83,16.83" style="fill:none;stroke:#999;stroke-width:3"></path>
<path d="M504.17,11.33c1.28,0.89,1.92,3.19,1.5,4.5c-1.43,4.44-2.1,9.06-4.5,15.67" style="fill:none;stroke:#999;stroke-width:3"></path>
<path d="M451.5,51.5c0.7,0.25,2.8,1.12,4.67,1c7.58-0.5,18.22-2.25,25.23-2.75c1.86-0.13,2.77,0,3.94,0.25" style="fill:none;stroke:#999;stroke-width:3"></path>
<path d="M470.67,35c0.82,0.4,1.55,2.3,1.72,3.1c0.17,0.8,0.11,55.08-0.05,60.07" style="fill:none;stroke:#999;stroke-width:3"></path>

<path d="M562.3299999999999,24.5c1.6,0.53,4.67,1,7.72,0.8c17.9-1.19,46.71-3.57,60.38-3.63c2.66-0.01,5.98,0.4,7.31,0.67" style="fill:none;stroke:#999;stroke-width:3"></path>
<path d="M581.5,13.67c1.83,0.83,2.21,2.38,2.33,3.17c1.14,7.35,1.51,14.16,1.83,16.83" style="fill:none;stroke:#999;stroke-width:3"></path>
<path d="M613.1700000000001,11.33c1.28,0.89,1.92,3.19,1.5,4.5c-1.43,4.44-2.1,9.06-4.5,15.67" style="fill:none;stroke:#999;stroke-width:3"></path>
<path d="M560.5,51.5c0.7,0.25,2.8,1.12,4.67,1c7.58-0.5,18.22-2.25,25.23-2.75c1.86-0.13,2.77,0,3.94,0.25" style="fill:none;stroke:#999;stroke-width:3"></path>
<path d="M579.6700000000001,35c0.82,0.4,1.55,2.3,1.72,3.1c0.17,0.8,0.11,55.08-0.05,60.07" style="fill:none;stroke:#999;stroke-width:3"></path>
<path d="M580.42,53.17c-3.47,10.79-13.79,28.89-21,35" style="fill:none;stroke:#999;stroke-width:3"></path>

<path d="M671.3299999999999,24.5c1.6,0.53,4.67,1,7.72,0.8c17.9-1.19,46.71-3.57,60.38-3.63c2.66-0.01,5.98,0.4,7.31,0.67" style="fill:none;stroke:#999;stroke-width:3"></path>
<path d="M690.5,13.67c1.83,0.83,2.21,2.38,2.33,3.17c1.14,7.35,1.51,14.16,1.83,16.83" style="fill:none;stroke:#999;stroke-width:3"></path>
<path d="M722.1700000000001,11.33c1.28,0.89,1.92,3.19,1.5,4.5c-1.43,4.44-2.1,9.06-4.5,15.67" style="fill:none;stroke:#999;stroke-width:3"></path>
<path d="M669.5,51.5c0.7,0.25,2.8,1.12,4.67,1c7.58-0.5,18.22-2.25,25.23-2.75c1.86-0.13,2.77,0,3.94,0.25" style="fill:none;stroke:#999;stroke-width:3"></path>
<path d="M688.6700000000001,35c0.82,0.4,1.55,2.3,1.72,3.1c0.17,0.8,0.11,55.08-0.05,60.07" style="fill:none;stroke:#999;stroke-width:3"></path>
<path d="M689.42,53.17c-3.47,10.79-13.79,28.89-21,35" style="fill:none;stroke:#999;stroke-width:3"></path>
<path d="M691.92,59.92c3.82,2.53,7.9,7.58,10.08,12" style="fill:none;stroke:#999;stroke-width:3"></path>

<path d="M780.3299999999999,24.5c1.6,0.53,4.67,1,7.72,0.8c17.9-1.19,46.71-3.57,60.38-3.63c2.66-0.01,5.98,0.4,7.31,0.67" style="fill:none;stroke:#999;stroke-width:3"></path>
<path d="M799.5,13.67c1.83,0.83,2.21,2.38,2.33,3.17c1.14,7.35,1.51,14.16,1.83,16.83" style="fill:none;stroke:#999;stroke-width:3"></path>
<path d="M831.1700000000001,11.33c1.28,0.89,1.92,3.19,1.5,4.5c-1.43,4.44-2.1,9.06-4.5,15.67" style="fill:none;stroke:#999;stroke-width:3"></path>
<path d="M778.5,51.5c0.7,0.25,2.8,1.12,4.67,1c7.58-0.5,18.22-2.25,25.23-2.75c1.86-0.13,2.77,0,3.94,0.25" style="fill:none;stroke:#999;stroke-width:3"></path>
<path d="M797.6700000000001,35c0.82,0.4,1.55,2.3,1.72,3.1c0.17,0.8,0.11,55.08-0.05,60.07" style="fill:none;stroke:#999;stroke-width:3"></path>
<path d="M798.42,53.17c-3.47,10.79-13.79,28.89-21,35" style="fill:none;stroke:#999;stroke-width:3"></path>
<path d="M800.92,59.92c3.82,2.53,7.9,7.58,10.08,12" style="fill:none;stroke:#999;stroke-width:3"></path>
<path d="M817.67,49c1.33,0.5,4.38,1.3,5.83,1.17c5.13-0.46,18.47-1.51,28.5-2.67c1.45-0.17,3.75-0.23,4.67,0" style="fill:none;stroke:#999;stroke-width:3"></path>

<path d="M889.3299999999999,24.5c1.6,0.53,4.67,1,7.72,0.8c17.9-1.19,46.71-3.57,60.38-3.63c2.66-0.01,5.98,0.4,7.31,0.67" style="fill:none;stroke:#999;stroke-width:3"></path>
<path d="M908.5,13.67c1.83,0.83,2.21,2.38,2.33,3.17c1.14,7.35,1.51,14.16,1.83,16.83" style="fill:none;stroke:#999;stroke-width:3"></path>
<path d="M940.1700000000001,11.33c1.28,0.89,1.92,3.19,1.5,4.5c-1.43,4.44-2.1,9.06-4.5,15.67" style="fill:none;stroke:#999;stroke-width:3"></path>
<path d="M887.5,51.5c0.7,0.25,2.8,1.12,4.67,1c7.58-0.5,18.22-2.25,25.23-2.75c1.86-0.13,2.77,0,3.94,0.25" style="fill:none;stroke:#999;stroke-width:3"></path>
<path d="M906.6700000000001,35c0.82,0.4,1.55,2.3,1.72,3.1c0.17,0.8,0.11,55.08-0.05,60.07" style="fill:none;stroke:#999;stroke-width:3"></path>
<path d="M907.42,53.17c-3.47,10.79-13.79,28.89-21,35" style="fill:none;stroke:#999;stroke-width:3"></path>
<path d="M909.92,59.92c3.82,2.53,7.9,7.58,10.08,12" style="fill:none;stroke:#999;stroke-width:3"></path>
<path d="M926.67,49c1.33,0.5,4.38,1.3,5.83,1.17c5.13-0.46,18.47-1.51,28.5-2.67c1.45-0.17,3.75-0.23,4.67,0" style="fill:none;stroke:#999;stroke-width:3"></path>
<path d="M941.5,35.33c0.78,0.39,1.83,2.5,1.85,3.84c0.01,0.79,0.48,53.17,0.32,57.99" style="fill:none;stroke:#999;stroke-width:3"></path>

<path d="M998.3299999999999,24.5c1.6,0.53,4.67,1,7.72,0.8c17.9-1.19,46.71-3.57,60.38-3.63c2.66-0.01,5.98,0.4,7.31,0.67" style="fill:none;stroke:#999;stroke-width:3"></path>
<path d="M1017.5,13.67c1.83,0.83,2.21,2.38,2.33,3.17c1.14,7.35,1.51,14.16,1.83,16.83" style="fill:none;stroke:#999;stroke-width:3"></path>
<path d="M1049.17,11.33c1.28,0.89,1.92,3.19,1.5,4.5c-1.43,4.44-2.1,9.06-4.5,15.67" style="fill:none;stroke:#999;stroke-width:3"></path>
<path d="M996.5,51.5c0.7,0.25,2.8,1.12,4.67,1c7.58-0.5,18.22-2.25,25.23-2.75c1.86-0.13,2.77,0,3.94,0.25" style="fill:none;stroke:#999;stroke-width:3"></path>
<path d="M1015.6700000000001,35c0.82,0.4,1.55,2.3,1.72,3.1c0.17,0.8,0.11,55.08-0.05,60.07" style="fill:none;stroke:#999;stroke-width:3"></path>
<path d="M1016.42,53.17c-3.47,10.79-13.79,28.89-21,35" style="fill:none;stroke:#999;stroke-width:3"></path>
<path d="M1018.92,59.92c3.82,2.53,7.9,7.58,10.08,12" style="fill:none;stroke:#999;stroke-width:3"></path>
<path d="M1035.67,49c1.33,0.5,4.38,1.3,5.83,1.17c5.13-0.46,18.47-1.51,28.5-2.67c1.45-0.17,3.75-0.23,4.67,0" style="fill:none;stroke:#999;stroke-width:3"></path>
<path d="M1050.5,35.33c0.78,0.39,1.83,2.5,1.85,3.84c0.01,0.79,0.48,53.17,0.32,57.99" style="fill:none;stroke:#999;stroke-width:3"></path>
<path d="M1052.08,50.83C1047.0,63.5,1036.75,78,1027.17,86.67" style="fill:none;stroke:#999;stroke-width:3"></path>

<path d="M1107.33,24.5c1.6,0.53,4.67,1,7.72,0.8c17.9-1.19,46.71-3.57,60.38-3.63c2.66-0.01,5.98,0.4,7.31,0.67" style="fill:none;stroke:#999;stroke-width:3"></path>
<path d="M1126.5,13.67c1.83,0.83,2.21,2.38,2.33,3.17c1.14,7.35,1.51,14.16,1.83,16.83" style="fill:none;stroke:#999;stroke-width:3"></path>
<path d="M1158.17,11.33c1.28,0.89,1.92,3.19,1.5,4.5c-1.43,4.44-2.1,9.06-4.5,15.67" style="fill:none;stroke:#999;stroke-width:3"></path>
<path d="M1105.5,51.5c0.7,0.25,2.8,1.12,4.67,1c7.58-0.5,18.22-2.25,25.23-2.75c1.86-0.13,2.77,0,3.94,0.25" style="fill:none;stroke:#999;stroke-width:3"></path>
<path d="M1124.67,35c0.82,0.4,1.55,2.3,1.72,3.1c0.17,0.8,0.11,55.08-0.05,60.07" style="fill:none;stroke:#999;stroke-width:3"></path>
<path d="M1125.42,53.17c-3.47,10.79-13.79,28.89-21,35" style="fill:none;stroke:#999;stroke-width:3"></path>
<path d="M1127.92,59.92c3.82,2.53,7.9,7.58,10.08,12" style="fill:none;stroke:#999;stroke-width:3"></path>
<path d="M1144.67,49c1.33,0.5,4.38,1.3,5.83,1.17c5.13-0.46,18.47-1.51,28.5-2.67c1.45-0.17,3.75-0.23,4.67,0" style="fill:none;stroke:#999;stroke-width:3"></path>
<path d="M1159.5,35.33c0.78,0.39,1.83,2.5,1.85,3.84c0.01,0.79,0.48,53.17,0.32,57.99" style="fill:none;stroke:#999;stroke-width:3"></path>
<path d="M1161.08,50.83C1156.0,63.5,1145.75,78,1136.17,86.67" style="fill:none;stroke:#999;stroke-width:3"></path>
<path d="M1161.92,51.42c5.69,11.7,14.8,26.71,19.42,31.33c1.32,1.32,2.05,2.22,3.16,2.67" style="fill:none;stroke:#999;stroke-width:3"></path>

</svg>