<svg width="1635px" height="109px" viewBox="0 0 1635 109" xmlns="http://www.w3.org/2000/svg" xmlns:xlink="http://www.w3.org/1999/xlink" xml:space="preserve" version="1.1" baseProfile="full">
<line x1="1" y1="1" x2="1634" y2="1" style="stroke:#ddd;stroke-width:2"></line>
<line x1="1" y1="1" x2="1" y2="108" style="stroke:#ddd;stroke-width:2"></line>
<line x1="1" y1="108" x2="1634" y2="108" style="stroke:#ddd;stroke-width:2"></line>
<line x1="1634" y1="1" x2="1634" y2="108" style="stroke:#ddd;stroke-width:2"></line>
<line x1="109" y1="1" x2="109" y2="108" style="stroke:#ddd;stroke-width:2"></line>
<line x1="218" y1="1" x2="218" y2="108" style="stroke:#ddd;stroke-width:2"></line>
<line x1="327" y1="1" x2="327" y2="108" style="stroke:#ddd;stroke-width:2"></line>
<line x1="436" y1="1" x2="436" y2="108" style="stroke:#ddd;stroke-width:2"></line>
<line x1="545" y1="1" x2="545" y2="108" style="stroke:#ddd;stroke-width:2"></line>
<line x1="654" y1="1" x2="654" y2="108" style="stroke:#ddd;stroke-width:2"></line>
<line x1="763" y1="1" x2="763" y2="108" style="stroke:#ddd;stroke-width:2"></line>
<line x1="872" y1="1" x2="872" y2="108" style="stroke:#ddd;stroke-width:2"></line>
<line x1="981" y1="1" x2="981" y2="108" style="stroke:#ddd;stroke-width:2"></line>
<line x1="1090" y1="1" x2="1090" y2="108" style="stroke:#ddd;stroke-width:2"></line>
<line x1="1199" y1="1" x2="1199" y2="108" style="stroke:#ddd;stroke-width:2"></line>
<line x1="1308" y1="1" x2="1308" y2="108" style="stroke:#ddd;stroke-width:2"></line>
<line x1="1417" y1="1" x2="1417" y2="108" style="stroke:#ddd;stroke-width:2"></line>
<line x1="1526" y1="1" x2="1526" y2="108" style="stroke:#ddd;stroke-width:2"></line>
<line x1="1" y1="54" x2="1634" y2="54" style="stroke:#ddd;stroke-width:2;stroke-dasharray:3 3"></line>
<line x1="55" y1="1" x2="55" y2="108" style="stroke:#ddd;stroke-width:2;stroke-dasharray:3 3"></line>
<line x1="164" y1="1" x2="164" y2="108" style="stroke:#ddd;stroke-width:2;stroke-dasharray:3 3"></line>
<line x1="273" y1="1" x2="273" y2="108" style="stroke:#ddd;stroke-width:2;stroke-dasharray:3 3"></line>
<line x1="382" y1="1" x2="382" y2="108" style="stroke:#ddd;stroke-width:2;stroke-dasharray:3 3"></line>
<line x1="491" y1="1" x2="491" y2="108" style="stroke:#ddd;stroke-width:2;stroke-dasharray:3 3"></line>
<line x1="600" y1="1" x2="600" y2="108" style="stroke:#ddd;stroke-width:2;stroke-dasharray:3 3"></line>
<line x1="709" y1="1" x2="709" y2="108" style="stroke:#ddd;stroke-width:2;stroke-dasharray:3 3"></line>
<line x1="818" y1="1" x2="818" y2="108" style="stroke:#ddd;stroke-width:2;stroke-dasharray:3 3"></line>
<line x1="927" y1="1" x2="927" y2="108" style="stroke:#ddd;stroke-width:2;stroke-dasharray:3 3"></line>
<line x1="1036" y1="1" x2="1036" y2="108" style="stroke:#ddd;stroke-width:2;stroke-dasharray:3 3"></line>
<line x1="1145" y1="1" x2="1145" y2="108" style="stroke:#ddd;stroke-width:2;stroke-dasharray:3 3"></line>
<line x1="1254" y1="1" x2="1254" y2="108" style="stroke:#ddd;stroke-width:2;stroke-dasharray:3 3"></line>
<line x1="1363" y1="1" x2="1363" y2="108" style="stroke:#ddd;stroke-width:2;stroke-dasharray:3 3"></line>
<line x1="1472" y1="1" x2="1472" y2="108" style="stroke:#ddd;stroke-width:2;stroke-dasharray:3 3"></line>
<line x1="1581" y1="1" x2="1581" y2="108" style="stroke:#ddd;stroke-width:2;stroke-dasharray:3 3"></line>
<path d="M17.5,25.27c3.77,0.74,7.53,0.53,11.39,0.1c15.58-1.76,34.99-3.74,47.99-4.39c3.84-0.19,7.36-0.1,11.12,0.54" style="fill:none;stroke:#999;stroke-width:3"></path>

<path d="M126.5,25.27c3.77,0.74,7.53,0.53,11.39,0.1c15.58-1.76,34.99-3.74,47.99-4.39c3.84-0.19,7.36-0.1,11.12,0.54" style="fill:none;stroke:#999;stroke-width:3"></path>
<path d="M143.75,12.5c1,1,1.31,1.87,1.5,2.75C147.0,23.5,148.5,30.5,149.0,33.5" style="fill:none;stroke:#999;stroke-width:3"></path>

<path d="M235.5,25.27c3.77,0.74,7.53,0.53,11.39,0.1c15.58-1.76,34.99-3.74,47.99-4.39c3.84-0.19,7.36-0.1,11.12,0.54" style="fill:none;stroke:#999;stroke-width:3"></path>
<path d="M252.75,12.5c1,1,1.31,1.87,1.5,2.75C256.0,23.5,257.5,30.5,258.0,33.5" style="fill:none;stroke:#999;stroke-width:3"></path>
<path d="M286.75,10.5c0.62,1.5,0.37,2.77,0,4.25c-1.12,4.5-2.62,9.88-4.5,17" style="fill:none;stroke:#999;stroke-width:3"></path>

<path d="M344.5,25.27c3.77,0.74,7.53,0.53,11.39,0.1c15.58-1.76,34.99-3.74,47.99-4.39c3.84-0.19,7.36-0.1,11.12,0.54" style="fill:none;stroke:#999;stroke-width:3"></path>
<path d="M361.75,12.5c1,1,1.31,1.87,1.5,2.75C365.0,23.5,366.5,30.5,367.0,33.5" style="fill:none;stroke:#999;stroke-width:3"></path>
<path d="M395.75,10.5c0.62,1.5,0.37,2.77,0,4.25c-1.12,4.5-2.62,9.88-4.5,17" style="fill:none;stroke:#999;stroke-width:3"></path>
<path d="M356.97,42.57c0.33,2.25-3.22,11.68-6.39,15.67" style="fill:none;stroke:#999;stroke-width:3"></path>

<path d="M453.5,25.27c3.77,0.74,7.53,0.53,11.39,0.1c15.58-1.76,34.99-3.74,47.99-4.39c3.84-0.19,7.36-0.1,11.12,0.54" style="fill:none;stroke:#999;stroke-width:3"></path>
<path d="M470.75,12.5c1,1,1.31,1.87,1.5,2.75C474.0,23.5,475.5,30.5,476.0,33.5" style="fill:none;stroke:#999;stroke-width:3"></path>
<path d="M504.75,10.5c0.62,1.5,0.37,2.77,0,4.25c-1.12,4.5-2.62,9.88-4.5,17" style="fill:none;stroke:#999;stroke-width:3"></path>
<path d="M465.97,42.57c0.33,2.25-3.22,11.68-6.39,15.67" style="fill:none;stroke:#999;stroke-width:3"></path>
<path d="M474.73,40c4.97,10.73,12.82,20.05,31.98,20.18c9.24,0.07,9.84-2.86,2.14-7.75" style="fill:none;stroke:#999;stroke-width:3"></path>

<path d="M562.5,25.27c3.77,0.74,7.53,0.53,11.39,0.1c15.58-1.76,34.99-3.74,47.99-4.39c3.84-0.19,7.36-0.1,11.12,0.54" style="fill:none;stroke:#999;stroke-width:3"></path>
<path d="M579.75,12.5c1,1,1.31,1.87,1.5,2.75C583.0,23.5,584.5,30.5,585.0,33.5" style="fill:none;stroke:#999;stroke-width:3"></path>
<path d="M613.75,10.5c0.62,1.5,0.37,2.77,0,4.25c-1.12,4.5-2.62,9.88-4.5,17" style="fill:none;stroke:#999;stroke-width:3"></path>
<path d="M574.97,42.57c0.33,2.25-3.22,11.68-6.39,15.67" style="fill:none;stroke:#999;stroke-width:3"></path>
<path d="M583.73,40c4.97,10.73,12.82,20.05,31.98,20.18c9.24,0.07,9.84-2.86,2.14-7.75" style="fill:none;stroke:#999;stroke-width:3"></path>
<path d="M600.25,39.75c1.54,4.65,3.78,9.31,5.42,2.18" style="fill:none;stroke:#999;stroke-width:3"></path>

<path d="M671.5,25.27c3.77,0.74,7.53,0.53,11.39,0.1c15.58-1.76,34.99-3.74,47.99-4.39c3.84-0.19,7.36-0.1,11.12,0.54" style="fill:none;stroke:#999;stroke-width:3"></path>
<path d="M688.75,12.5c1,1,1.31,1.87,1.5,2.75C692.0,23.5,693.5,30.5,694.0,33.5" style="fill:none;stroke:#999;stroke-width:3"></path>
<path d="M722.75,10.5c0.62,1.5,0.37,2.77,0,4.25c-1.12,4.5-2.62,9.88-4.5,17" style="fill:none;stroke:#999;stroke-width:3"></path>
<path d="M683.97,42.57c0.33,2.25-3.22,11.68-6.39,15.67" style="fill:none;stroke:#999;stroke-width:3"></path>
<path d="M692.73,40c4.97,10.73,12.82,20.05,31.98,20.18c9.24,0.07,9.84-2.86,2.14-7.75" style="fill:none;stroke:#999;stroke-width:3"></path>
<path d="M709.25,39.75c1.54,4.65,3.78,9.31,5.42,2.18" style="fill:none;stroke:#999;stroke-width:3"></path>
<path d="M728.26,35.23c4.67,1.97,8.49,4.89,11.97,9.86" style="fill:none;stroke:#999;stroke-width:3"></path>

<path d="M780.5,25.27c3.77,0.74,7.53,0.53,11.39,0.1c15.58-1.76,34.99-3.74,47.99-4.39c3.84-0.19,7.36-0.1,11.12,0.54" style="fill:none;stroke:#999;stroke-width:3"></path>
<path d="M797.75,12.5c1,1,1.31,1.87,1.5,2.75C801.0,23.5,802.5,30.5,803.0,33.5" style="fill:none;stroke:#999;stroke-width:3"></path>
<path d="M831.75,10.5c0.62,1.5,0.37,2.77,0,4.25c-1.12,4.5-2.62,9.88-4.5,17" style="fill:none;stroke:#999;stroke-width:3"></path>
<path d="M792.97,42.57c0.33,2.25-3.22,11.68-6.39,15.67" style="fill:none;stroke:#999;stroke-width:3"></path>
<path d="M801.73,40c4.97,10.73,12.82,20.05,31.98,20.18c9.24,0.07,9.84-2.86,2.14-7.75" style="fill:none;stroke:#999;stroke-width:3"></path>
<path d="M818.25,39.75c1.54,4.65,3.78,9.31,5.42,2.18" style="fill:none;stroke:#999;stroke-width:3"></path>
<path d="M837.26,35.23c4.67,1.97,8.49,4.89,11.97,9.86" style="fill:none;stroke:#999;stroke-width:3"></path>
<path d="M780.7,79.57c0.26,2.14-2.87,11.1-4.96,14.67" style="fill:none;stroke:#999;stroke-width:3"></path>

<path d="M889.5,25.27c3.77,0.74,7.53,0.53,11.39,0.1c15.58-1.76,34.99-3.74,47.99-4.39c3.84-0.19,7.36-0.1,11.12,0.54" style="fill:none;stroke:#999;stroke-width:3"></path>
<path d="M906.75,12.5c1,1,1.31,1.87,1.5,2.75C910.0,23.5,911.5,30.5,912.0,33.5" style="fill:none;stroke:#999;stroke-width:3"></path>
<path d="M940.75,10.5c0.62,1.5,0.37,2.77,0,4.25c-1.12,4.5-2.62,9.88-4.5,17" style="fill:none;stroke:#999;stroke-width:3"></path>
<path d="M901.97,42.57c0.33,2.25-3.22,11.68-6.39,15.67" style="fill:none;stroke:#999;stroke-width:3"></path>
<path d="M910.73,40c4.97,10.73,12.82,20.05,31.98,20.18c9.24,0.07,9.84-2.86,2.14-7.75" style="fill:none;stroke:#999;stroke-width:3"></path>
<path d="M927.25,39.75c1.54,4.65,3.78,9.31,5.42,2.18" style="fill:none;stroke:#999;stroke-width:3"></path>
<path d="M946.26,35.23c4.67,1.97,8.49,4.89,11.97,9.86" style="fill:none;stroke:#999;stroke-width:3"></path>
<path d="M889.7,79.57c0.26,2.14-2.87,11.1-4.96,14.67" style="fill:none;stroke:#999;stroke-width:3"></path>
<path d="M895.98,73.25c3.35,12.73,8.4,23.77,21.32,23.93c6.23,0.08,6.64-2.39,1.44-8.19" style="fill:none;stroke:#999;stroke-width:3"></path>

<path d="M998.5,25.27c3.77,0.74,7.53,0.53,11.39,0.1c15.58-1.76,34.99-3.74,47.99-4.39c3.84-0.19,7.36-0.1,11.12,0.54" style="fill:none;stroke:#999;stroke-width:3"></path>
<path d="M1015.75,12.5c1,1,1.31,1.87,1.5,2.75C1019.0,23.5,1020.5,30.5,1021.0,33.5" style="fill:none;stroke:#999;stroke-width:3"></path>
<path d="M1049.75,10.5c0.62,1.5,0.37,2.77,0,4.25c-1.12,4.5-2.62,9.88-4.5,17" style="fill:none;stroke:#999;stroke-width:3"></path>
<path d="M1010.97,42.57c0.33,2.25-3.22,11.68-6.39,15.67" style="fill:none;stroke:#999;stroke-width:3"></path>
<path d="M1019.73,40c4.97,10.73,12.82,20.05,31.98,20.18c9.24,0.07,9.84-2.86,2.14-7.75" style="fill:none;stroke:#999;stroke-width:3"></path>
<path d="M1036.25,39.75c1.54,4.65,3.78,9.31,5.42,2.18" style="fill:none;stroke:#999;stroke-width:3"></path>
<path d="M1055.26,35.23c4.67,1.97,8.49,4.89,11.97,9.86" style="fill:none;stroke:#999;stroke-width:3"></path>
<path d="M998.7,79.57c0.26,2.14-2.87,11.1-4.96,14.67" style="fill:none;stroke:#999;stroke-width:3"></path>
<path d="M1004.98,73.25c3.35,12.73,8.4,23.77,21.32,23.93c6.23,0.08,6.64-2.39,1.44-8.19" style="fill:none;stroke:#999;stroke-width:3"></path>
<path d="M1014.47,74.75c1.72,4.26,4.22,8.51,6.05,2" style="fill:none;stroke:#999;stroke-width:3"></path>

<path d="M1107.5,25.27c3.77,0.74,7.53,0.53,11.39,0.1c15.58-1.76,34.99-3.74,47.99-4.39c3.84-0.19,7.36-0.1,11.12,0.54" style="fill:none;stroke:#999;stroke-width:3"></path>
<path d="M1124.75,12.5c1,1,1.31,1.87,1.5,2.75C1128.0,23.5,1129.5,30.5,1130.0,33.5" style="fill:none;stroke:#999;stroke-width:3"></path>
<path d="M1158.75,10.5c0.62,1.5,0.37,2.77,0,4.25c-1.12,4.5-2.62,9.88-4.5,17" style="fill:none;stroke:#999;stroke-width:3"></path>
<path d="M1119.97,42.57c0.33,2.25-3.22,11.68-6.39,15.67" style="fill:none;stroke:#999;stroke-width:3"></path>
<path d="M1128.73,40c4.97,10.73,12.82,20.05,31.98,20.18c9.24,0.07,9.84-2.86,2.14-7.75" style="fill:none;stroke:#999;stroke-width:3"></path>
<path d="M1145.25,39.75c1.54,4.65,3.78,9.31,5.42,2.18" style="fill:none;stroke:#999;stroke-width:3"></path>
<path d="M1164.26,35.23c4.67,1.97,8.49,4.89,11.97,9.86" style="fill:none;stroke:#999;stroke-width:3"></path>
<path d="M1107.7,79.57c0.26,2.14-2.87,11.1-4.96,14.67" style="fill:none;stroke:#999;stroke-width:3"></path>
<path d="M1113.98,73.25c3.35,12.73,8.4,23.77,21.32,23.93c6.23,0.08,6.64-2.39,1.44-8.19" style="fill:none;stroke:#999;stroke-width:3"></path>
<path d="M1123.47,74.75c1.72,4.26,4.22,8.51,6.05,2" style="fill:none;stroke:#999;stroke-width:3"></path>
<path d="M1136.8,69.98c2.51,1.62,4.39,3.1,6.43,8.11" style="fill:none;stroke:#999;stroke-width:3"></path>

<path d="M1216.5,25.27c3.77,0.74,7.53,0.53,11.39,0.1c15.58-1.76,34.99-3.74,47.99-4.39c3.84-0.19,7.36-0.1,11.12,0.54" style="fill:none;stroke:#999;stroke-width:3"></path>
<path d="M1233.75,12.5c1,1,1.31,1.87,1.5,2.75C1237.0,23.5,1238.5,30.5,1239.0,33.5" style="fill:none;stroke:#999;stroke-width:3"></path>
<path d="M1267.75,10.5c0.62,1.5,0.37,2.77,0,4.25c-1.12,4.5-2.62,9.88-4.5,17" style="fill:none;stroke:#999;stroke-width:3"></path>
<path d="M1228.97,42.57c0.33,2.25-3.22,11.68-6.39,15.67" style="fill:none;stroke:#999;stroke-width:3"></path>
<path d="M1237.73,40c4.97,10.73,12.82,20.05,31.98,20.18c9.24,0.07,9.84-2.86,2.14-7.75" style="fill:none;stroke:#999;stroke-width:3"></path>
<path d="M1254.25,39.75c1.54,4.65,3.78,9.31,5.42,2.18" style="fill:none;stroke:#999;stroke-width:3"></path>
<path d="M1273.26,35.23c4.67,1.97,8.49,4.89,11.97,9.86" style="fill:none;stroke:#999;stroke-width:3"></path>
<path d="M1216.7,79.57c0.26,2.14-2.87,11.1-4.96,14.67" style="fill:none;stroke:#999;stroke-width:3"></path>
<path d="M1222.98,73.25c3.35,12.73,8.4,23.77,21.32,23.93c6.23,0.08,6.64-2.39,1.44-8.19" style="fill:none;stroke:#999;stroke-width:3"></path>
<path d="M1232.47,74.75c1.72,4.26,4.22,8.51,6.05,2" style="fill:none;stroke:#999;stroke-width:3"></path>
<path d="M1245.8,69.98c2.51,1.62,4.39,3.1,6.43,8.11" style="fill:none;stroke:#999;stroke-width:3"></path>
<path d="M1260.25,78.07c0.2,1.97-2.26,10.39-3.87,13.67" style="fill:none;stroke:#999;stroke-width:3"></path>

<path d="M1325.5,25.27c3.77,0.74,7.53,0.53,11.39,0.1c15.58-1.76,34.99-3.74,47.99-4.39c3.84-0.19,7.36-0.1,11.12,0.54" style="fill:none;stroke:#999;stroke-width:3"></path>
<path d="M1342.75,12.5c1,1,1.31,1.87,1.5,2.75C1346.0,23.5,1347.5,30.5,1348.0,33.5" style="fill:none;stroke:#999;stroke-width:3"></path>
<path d="M1376.75,10.5c0.62,1.5,0.37,2.77,0,4.25c-1.12,4.5-2.62,9.88-4.5,17" style="fill:none;stroke:#999;stroke-width:3"></path>
<path d="M1337.97,42.57c0.33,2.25-3.22,11.68-6.39,15.67" style="fill:none;stroke:#999;stroke-width:3"></path>
<path d="M1346.73,40c4.97,10.73,12.82,20.05,31.98,20.18c9.24,0.07,9.84-2.86,2.14-7.75" style="fill:none;stroke:#999;stroke-width:3"></path>
<path d="M1363.25,39.75c1.54,4.65,3.78,9.31,5.42,2.18" style="fill:none;stroke:#999;stroke-width:3"></path>
<path d="M1382.26,35.23c4.67,1.97,8.49,4.89,11.97,9.86" style="fill:none;stroke:#999;stroke-width:3"></path>
<path d="M1325.7,79.57c0.26,2.14-2.87,11.1-4.96,14.67" style="fill:none;stroke:#999;stroke-width:3"></path>
<path d="M1331.98,73.25c3.35,12.73,8.4,23.77,21.32,23.93c6.23,0.08,6.64-2.39,1.44-8.19" style="fill:none;stroke:#999;stroke-width:3"></path>
<path d="M1341.47,74.75c1.72,4.26,4.22,8.51,6.05,2" style="fill:none;stroke:#999;stroke-width:3"></path>
<path d="M1354.8,69.98c2.51,1.62,4.39,3.1,6.43,8.11" style="fill:none;stroke:#999;stroke-width:3"></path>
<path d="M1369.25,78.07c0.2,1.97-2.26,10.39-3.87,13.67" style="fill:none;stroke:#999;stroke-width:3"></path>
<path d="M1373.55,73.75c3.42,12.59,8.82,23.53,21.99,23.68c6.35,0.08,6.77-2.36,1.47-8.09" style="fill:none;stroke:#999;stroke-width:3"></path>

<path d="M1434.5,25.27c3.77,0.74,7.53,0.53,11.39,0.1c15.58-1.76,34.99-3.74,47.99-4.39c3.84-0.19,7.36-0.1,11.12,0.54" style="fill:none;stroke:#999;stroke-width:3"></path>
<path d="M1451.75,12.5c1,1,1.31,1.87,1.5,2.75C1455.0,23.5,1456.5,30.5,1457.0,33.5" style="fill:none;stroke:#999;stroke-width:3"></path>
<path d="M1485.75,10.5c0.62,1.5,0.37,2.77,0,4.25c-1.12,4.5-2.62,9.88-4.5,17" style="fill:none;stroke:#999;stroke-width:3"></path>
<path d="M1446.97,42.57c0.33,2.25-3.22,11.68-6.39,15.67" style="fill:none;stroke:#999;stroke-width:3"></path>
<path d="M1455.73,40c4.97,10.73,12.82,20.05,31.98,20.18c9.24,0.07,9.84-2.86,2.14-7.75" style="fill:none;stroke:#999;stroke-width:3"></path>
<path d="M1472.25,39.75c1.54,4.65,3.78,9.31,5.42,2.18" style="fill:none;stroke:#999;stroke-width:3"></path>
<path d="M1491.26,35.23c4.67,1.97,8.49,4.89,11.97,9.86" style="fill:none;stroke:#999;stroke-width:3"></path>
<path d="M1434.7,79.57c0.26,2.14-2.87,11.1-4.96,14.67" style="fill:none;stroke:#999;stroke-width:3"></path>
<path d="M1440.98,73.25c3.35,12.73,8.4,23.77,21.32,23.93c6.23,0.08,6.64-2.39,1.44-8.19" style="fill:none;stroke:#999;stroke-width:3"></path>
<path d="M1450.47,74.75c1.72,4.26,4.22,8.51,6.05,2" style="fill:none;stroke:#999;stroke-width:3"></path>
<path d="M1463.8,69.98c2.51,1.62,4.39,3.1,6.43,8.11" style="fill:none;stroke:#999;stroke-width:3"></path>
<path d="M1478.25,78.07c0.2,1.97-2.26,10.39-3.87,13.67" style="fill:none;stroke:#999;stroke-width:3"></path>
<path d="M1482.55,73.75c3.42,12.59,8.82,23.53,21.99,23.68c6.35,0.08,6.77-2.36,1.47-8.09" style="fill:none;stroke:#999;stroke-width:3"></path>
<path d="M1492.59,75.75c1.48,4.45,3.64,8.91,5.23,2.09" style="fill:none;stroke:#999;stroke-width:3"></path>

<path d="M1543.5,25.27c3.77,0.74,7.53,0.53,11.39,0.1c15.58-1.76,34.99-3.74,47.99-4.39c3.84-0.19,7.36-0.1,11.12,0.54" style="fill:none;stroke:#999;stroke-width:3"></path>
<path d="M1560.75,12.5c1,1,1.31,1.87,1.5,2.75C1564.0,23.5,1565.5,30.5,1566.0,33.5" style="fill:none;stroke:#999;stroke-width:3"></path>
<path d="M1594.75,10.5c0.62,1.5,0.37,2.77,0,4.25c-1.12,4.5-2.62,9.88-4.5,17" style="fill:none;stroke:#999;stroke-width:3"></path>
<path d="M1555.97,42.57c0.33,2.25-3.22,11.68-6.39,15.67" style="fill:none;stroke:#999;stroke-width:3"></path>
<path d="M1564.73,40c4.97,10.73,12.82,20.05,31.98,20.18c9.24,0.07,9.84-2.86,2.14-7.75" style="fill:none;stroke:#999;stroke-width:3"></path>
<path d="M1581.25,39.75c1.54,4.65,3.78,9.31,5.42,2.18" style="fill:none;stroke:#999;stroke-width:3"></path>
<path d="M1600.26,35.23c4.67,1.97,8.49,4.89,11.97,9.86" style="fill:none;stroke:#999;stroke-width:3"></path>
<path d="M1543.7,79.57c0.26,2.14-2.87,11.1-4.96,14.67" style="fill:none;stroke:#999;stroke-width:3"></path>
<path d="M1549.98,73.25c3.35,12.73,8.4,23.77,21.32,23.93c6.23,0.08,6.64-2.39,1.44-8.19" style="fill:none;stroke:#999;stroke-width:3"></path>
<path d="M1559.47,74.75c1.72,4.26,4.22,8.51,6.05,2" style="fill:none;stroke:#999;stroke-width:3"></path>
<path d="M1572.8,69.98c2.51,1.62,4.39,3.1,6.43,8.11" style="fill:none;stroke:#999;stroke-width:3"></path>
<path d="M1587.25,78.07c0.2,1.97-2.26,10.39-3.87,13.67" style="fill:none;stroke:#999;stroke-width:3"></path>
<path d="M1591.55,73.75c3.42,12.59,8.82,23.53,21.99,23.68c6.35,0.08,6.77-2.36,1.47-8.09" style="fill:none;stroke:#999;stroke-width:3"></path>
<path d="M1601.59,75.75c1.48,4.45,3.64,8.91,5.23,2.09" style="fill:none;stroke:#999;stroke-width:3"></path>
<path d="M1613.42,69.48c3.34,2.12,5.85,4.05,8.57,10.61" style="fill:none;stroke:#999;stroke-width:3"></path>

</svg>