<svg width="1090px" height="109px" viewBox="0 0 1090 109" xmlns="http://www.w3.org/2000/svg" xmlns:xlink="http://www.w3.org/1999/xlink" xml:space="preserve" version="1.1" baseProfile="full">
<line x1="1" y1="1" x2="1089" y2="1" style="stroke:#ddd;stroke-width:2"></line>
<line x1="1" y1="1" x2="1" y2="108" style="stroke:#ddd;stroke-width:2"></line>
<line x1="1" y1="108" x2="1089" y2="108" style="stroke:#ddd;stroke-width:2"></line>
<line x1="1089" y1="1" x2="1089" y2="108" style="stroke:#ddd;stroke-width:2"></line>
<line x1="109" y1="1" x2="109" y2="108" style="stroke:#ddd;stroke-width:2"></line>
<line x1="218" y1="1" x2="218" y2="108" style="stroke:#ddd;stroke-width:2"></line>
<line x1="327" y1="1" x2="327" y2="108" style="stroke:#ddd;stroke-width:2"></line>
<line x1="436" y1="1" x2="436" y2="108" style="stroke:#ddd;stroke-width:2"></line>
<line x1="545" y1="1" x2="545" y2="108" style="stroke:#ddd;stroke-width:2"></line>
<line x1="654" y1="1" x2="654" y2="108" style="stroke:#ddd;stroke-width:2"></line>
<line x1="763" y1="1" x2="763" y2="108" style="stroke:#ddd;stroke-width:2"></line>
<line x1="872" y1="1" x2="872" y2="108" style="stroke:#ddd;stroke-width:2"></line>
<line x1="981" y1="1" x2="981" y2="108" style="stroke:#ddd;stroke-width:2"></line>
<line x1="1" y1="54" x2="1089" y2="54" style="stroke:#ddd;stroke-width:2;stroke-dasharray:3 3"></line>
<line x1="55" y1="1" x2="55" y2="108" style="stroke:#ddd;stroke-width:2;stroke-dasharray:3 3"></line>
<line x1="164" y1="1" x2="164" y2="108" style="stroke:#ddd;stroke-width:2;stroke-dasharray:3 3"></line>
<line x1="273" y1="1" x2="273" y2="108" style="stroke:#ddd;stroke-width:2;stroke-dasharray:3 3"></line>
<line x1="382" y1="1" x2="382" y2="108" style="stroke:#ddd;stroke-width:2;stroke-dasharray:3 3"></line>
<line x1="491" y1="1" x2="491" y2="108" style="stroke:#ddd;stroke-width:2;stroke-dasharray:3 3"></line>
<line x1="600" y1="1" x2="600" y2="108" style="stroke:#ddd;stroke-width:2;stroke-dasharray:3 3"></line>
<line x1="709" y1="1" x2="709" y2="108" style="stroke:#ddd;stroke-width:2;stroke-dasharray:3 3"></line>
<line x1="818" y1="1" x2="818" y2="108" style="stroke:#ddd;stroke-width:2;stroke-dasharray:3 3"></line>
<line x1="927" y1="1" x2="927" y2="108" style="stroke:#ddd;stroke-width:2;stroke-dasharray:3 3"></line>
<line x1="1036" y1="1" x2="1036" y2="108" style="stroke:#ddd;stroke-width:2;stroke-dasharray:3 3"></line>
<path d="M25.04,16.44c0.78,0.4,1.99,1.48,1.99,3.82c0,2.71,0,3.92-0.43,8.68c-0.22,2.46-0.87,3.9,2.87,3.6c10.91-0.86,41.95-3.47,51.7-4.56" style="fill:none;stroke:#999;stroke-width:3"></path>

<path d="M134.04,16.44c0.78,0.4,1.99,1.48,1.99,3.82c0,2.71,0,3.92-0.43,8.68c-0.22,2.46-0.87,3.9,2.87,3.6c10.91-0.86,41.95-3.47,51.7-4.56" style="fill:none;stroke:#999;stroke-width:3"></path>
<path d="M188.86,11.25c0.66,0.53,2.02,2.27,1.99,3.38c-0.1,5.36-0.36,13.61-0.36,16.29" style="fill:none;stroke:#999;stroke-width:3"></path>

<path d="M243.04,16.44c0.78,0.4,1.99,1.48,1.99,3.82c0,2.71,0,3.92-0.43,8.68c-0.22,2.46-0.87,3.9,2.87,3.6c10.91-0.86,41.95-3.47,51.7-4.56" style="fill:none;stroke:#999;stroke-width:3"></path>
<path d="M297.86,11.25c0.66,0.53,2.02,2.27,1.99,3.38c-0.1,5.36-0.36,13.61-0.36,16.29" style="fill:none;stroke:#999;stroke-width:3"></path>
<path d="M270.79,11.12c0.54,0.37,1.04,1.6,1.04,2.2c0,9.68,0.17,22.93-12.27,31.27" style="fill:none;stroke:#999;stroke-width:3"></path>

<path d="M352.03999999999996,16.44c0.78,0.4,1.99,1.48,1.99,3.82c0,2.71,0,3.92-0.43,8.68c-0.22,2.46-0.87,3.9,2.87,3.6c10.91-0.86,41.95-3.47,51.7-4.56" style="fill:none;stroke:#999;stroke-width:3"></path>
<path d="M406.86,11.25c0.66,0.53,2.02,2.27,1.99,3.38c-0.1,5.36-0.36,13.61-0.36,16.29" style="fill:none;stroke:#999;stroke-width:3"></path>
<path d="M379.79,11.12c0.54,0.37,1.04,1.6,1.04,2.2c0,9.68,0.17,22.93-12.27,31.27" style="fill:none;stroke:#999;stroke-width:3"></path>
<path d="M343.75,49.2c1.52,0.54,4.3,0.58,5.82,0.54c19.93-0.49,47.18-5.49,64.61-5.23c2.53,0.04,4.05,0.26,5.31,0.53" style="fill:none;stroke:#999;stroke-width:3"></path>

<path d="M461.03999999999996,16.44c0.78,0.4,1.99,1.48,1.99,3.82c0,2.71,0,3.92-0.43,8.68c-0.22,2.46-0.87,3.9,2.87,3.6c10.91-0.86,41.95-3.47,51.7-4.56" style="fill:none;stroke:#999;stroke-width:3"></path>
<path d="M515.86,11.25c0.66,0.53,2.02,2.27,1.99,3.38c-0.1,5.36-0.36,13.61-0.36,16.29" style="fill:none;stroke:#999;stroke-width:3"></path>
<path d="M488.79,11.12c0.54,0.37,1.04,1.6,1.04,2.2c0,9.68,0.17,22.93-12.27,31.27" style="fill:none;stroke:#999;stroke-width:3"></path>
<path d="M452.75,49.2c1.52,0.54,4.3,0.58,5.82,0.54c19.93-0.49,47.18-5.49,64.61-5.23c2.53,0.04,4.05,0.26,5.31,0.53" style="fill:none;stroke:#999;stroke-width:3"></path>
<path d="M463.14,62.21c0.8,0.4,1.38,1.38,1.53,1.91c1.09,3.8,2.21,8.81,3.74,16" style="fill:none;stroke:#999;stroke-width:3"></path>

<path d="M570.04,16.44c0.78,0.4,1.99,1.48,1.99,3.82c0,2.71,0,3.92-0.43,8.68c-0.22,2.46-0.87,3.9,2.87,3.6c10.91-0.86,41.95-3.47,51.7-4.56" style="fill:none;stroke:#999;stroke-width:3"></path>
<path d="M624.86,11.25c0.66,0.53,2.02,2.27,1.99,3.38c-0.1,5.36-0.36,13.61-0.36,16.29" style="fill:none;stroke:#999;stroke-width:3"></path>
<path d="M597.79,11.12c0.54,0.37,1.04,1.6,1.04,2.2c0,9.68,0.17,22.93-12.27,31.27" style="fill:none;stroke:#999;stroke-width:3"></path>
<path d="M561.75,49.2c1.52,0.54,4.3,0.58,5.82,0.54c19.93-0.49,47.18-5.49,64.61-5.23c2.53,0.04,4.05,0.26,5.31,0.53" style="fill:none;stroke:#999;stroke-width:3"></path>
<path d="M572.14,62.21c0.8,0.4,1.38,1.38,1.53,1.91c1.09,3.8,2.21,8.81,3.74,16" style="fill:none;stroke:#999;stroke-width:3"></path>
<path d="M574.26,63.74c12.23-0.76,39.02-2.95,47.87-3.24c3.45-0.11,3.61,1.21,3.27,2.9c-0.79,3.93-0.78,5.69-3.16,12.17" style="fill:none;stroke:#999;stroke-width:3"></path>

<path d="M679.04,16.44c0.78,0.4,1.99,1.48,1.99,3.82c0,2.71,0,3.92-0.43,8.68c-0.22,2.46-0.87,3.9,2.87,3.6c10.91-0.86,41.95-3.47,51.7-4.56" style="fill:none;stroke:#999;stroke-width:3"></path>
<path d="M733.86,11.25c0.66,0.53,2.02,2.27,1.99,3.38c-0.1,5.36-0.36,13.61-0.36,16.29" style="fill:none;stroke:#999;stroke-width:3"></path>
<path d="M706.79,11.12c0.54,0.37,1.04,1.6,1.04,2.2c0,9.68,0.17,22.93-12.27,31.27" style="fill:none;stroke:#999;stroke-width:3"></path>
<path d="M670.75,49.2c1.52,0.54,4.3,0.58,5.82,0.54c19.93-0.49,47.18-5.49,64.61-5.23c2.53,0.04,4.05,0.26,5.31,0.53" style="fill:none;stroke:#999;stroke-width:3"></path>
<path d="M681.14,62.21c0.8,0.4,1.38,1.38,1.53,1.91c1.09,3.8,2.21,8.81,3.74,16" style="fill:none;stroke:#999;stroke-width:3"></path>
<path d="M683.26,63.74c12.23-0.76,39.02-2.95,47.87-3.24c3.45-0.11,3.61,1.21,3.27,2.9c-0.79,3.93-0.78,5.69-3.16,12.17" style="fill:none;stroke:#999;stroke-width:3"></path>
<path d="M686.86,78.59c9.84-0.76,32.18-2.44,45.95-3.16" style="fill:none;stroke:#999;stroke-width:3"></path>

<path d="M788.04,16.44c0.78,0.4,1.99,1.48,1.99,3.82c0,2.71,0,3.92-0.43,8.68c-0.22,2.46-0.87,3.9,2.87,3.6c10.91-0.86,41.95-3.47,51.7-4.56" style="fill:none;stroke:#999;stroke-width:3"></path>
<path d="M842.86,11.25c0.66,0.53,2.02,2.27,1.99,3.38c-0.1,5.36-0.36,13.61-0.36,16.29" style="fill:none;stroke:#999;stroke-width:3"></path>
<path d="M815.79,11.12c0.54,0.37,1.04,1.6,1.04,2.2c0,9.68,0.17,22.93-12.27,31.27" style="fill:none;stroke:#999;stroke-width:3"></path>
<path d="M779.75,49.2c1.52,0.54,4.3,0.58,5.82,0.54c19.93-0.49,47.18-5.49,64.61-5.23c2.53,0.04,4.05,0.26,5.31,0.53" style="fill:none;stroke:#999;stroke-width:3"></path>
<path d="M790.14,62.21c0.8,0.4,1.38,1.38,1.53,1.91c1.09,3.8,2.21,8.81,3.74,16" style="fill:none;stroke:#999;stroke-width:3"></path>
<path d="M792.26,63.74c12.23-0.76,39.02-2.95,47.87-3.24c3.45-0.11,3.61,1.21,3.27,2.9c-0.79,3.93-0.78,5.69-3.16,12.17" style="fill:none;stroke:#999;stroke-width:3"></path>
<path d="M795.86,78.59c9.84-0.76,32.18-2.44,45.95-3.16" style="fill:none;stroke:#999;stroke-width:3"></path>
<path d="M815.62,49.75c1.09,0.42,1.75,1.91,1.97,2.76c0.22,0.85,0,34.18-0.22,39.49" style="fill:none;stroke:#999;stroke-width:3"></path>

<path d="M897.04,16.44c0.78,0.4,1.99,1.48,1.99,3.82c0,2.71,0,3.92-0.43,8.68c-0.22,2.46-0.87,3.9,2.87,3.6c10.91-0.86,41.95-3.47,51.7-4.56" style="fill:none;stroke:#999;stroke-width:3"></path>
<path d="M951.86,11.25c0.66,0.53,2.02,2.27,1.99,3.38c-0.1,5.36-0.36,13.61-0.36,16.29" style="fill:none;stroke:#999;stroke-width:3"></path>
<path d="M924.79,11.12c0.54,0.37,1.04,1.6,1.04,2.2c0,9.68,0.17,22.93-12.27,31.27" style="fill:none;stroke:#999;stroke-width:3"></path>
<path d="M888.75,49.2c1.52,0.54,4.3,0.58,5.82,0.54c19.93-0.49,47.18-5.49,64.61-5.23c2.53,0.04,4.05,0.26,5.31,0.53" style="fill:none;stroke:#999;stroke-width:3"></path>
<path d="M899.14,62.21c0.8,0.4,1.38,1.38,1.53,1.91c1.09,3.8,2.21,8.81,3.74,16" style="fill:none;stroke:#999;stroke-width:3"></path>
<path d="M901.26,63.74c12.23-0.76,39.02-2.95,47.87-3.24c3.45-0.11,3.61,1.21,3.27,2.9c-0.79,3.93-0.78,5.69-3.16,12.17" style="fill:none;stroke:#999;stroke-width:3"></path>
<path d="M904.86,78.59c9.84-0.76,32.18-2.44,45.95-3.16" style="fill:none;stroke:#999;stroke-width:3"></path>
<path d="M924.62,49.75c1.09,0.42,1.75,1.91,1.97,2.76c0.22,0.85,0,34.18-0.22,39.49" style="fill:none;stroke:#999;stroke-width:3"></path>
<path d="M895.75,95.36c1.21,0.7,2.43,1.51,3.65,1.4c2.85-0.26,46.08-8.23,53.6-9.64" style="fill:none;stroke:#999;stroke-width:3"></path>

<path d="M1006.04,16.44c0.78,0.4,1.99,1.48,1.99,3.82c0,2.71,0,3.92-0.43,8.68c-0.22,2.46-0.87,3.9,2.87,3.6c10.91-0.86,41.95-3.47,51.7-4.56" style="fill:none;stroke:#999;stroke-width:3"></path>
<path d="M1060.8600000000001,11.25c0.66,0.53,2.02,2.27,1.99,3.38c-0.1,5.36-0.36,13.61-0.36,16.29" style="fill:none;stroke:#999;stroke-width:3"></path>
<path d="M1033.79,11.12c0.54,0.37,1.04,1.6,1.04,2.2c0,9.68,0.17,22.93-12.27,31.27" style="fill:none;stroke:#999;stroke-width:3"></path>
<path d="M997.75,49.2c1.52,0.54,4.3,0.58,5.82,0.54c19.93-0.49,47.18-5.49,64.61-5.23c2.53,0.04,4.05,0.26,5.31,0.53" style="fill:none;stroke:#999;stroke-width:3"></path>
<path d="M1008.14,62.21c0.8,0.4,1.38,1.38,1.53,1.91c1.09,3.8,2.21,8.81,3.74,16" style="fill:none;stroke:#999;stroke-width:3"></path>
<path d="M1010.26,63.74c12.23-0.76,39.02-2.95,47.87-3.24c3.45-0.11,3.61,1.21,3.27,2.9c-0.79,3.93-0.78,5.69-3.16,12.17" style="fill:none;stroke:#999;stroke-width:3"></path>
<path d="M1013.86,78.59c9.84-0.76,32.18-2.44,45.95-3.16" style="fill:none;stroke:#999;stroke-width:3"></path>
<path d="M1033.62,49.75c1.09,0.42,1.75,1.91,1.97,2.76c0.22,0.85,0,34.18-0.22,39.49" style="fill:none;stroke:#999;stroke-width:3"></path>
<path d="M1004.75,95.36c1.21,0.7,2.43,1.51,3.65,1.4c2.85-0.26,46.08-8.23,53.6-9.64" style="fill:none;stroke:#999;stroke-width:3"></path>
<path d="M1053.21,81.07c6.44,2.78,16.64,11.42,18.25,15.75" style="fill:none;stroke:#999;stroke-width:3"></path>

</svg>