<svg width="1090px" height="109px" viewBox="0 0 1090 109" xmlns="http://www.w3.org/2000/svg" xmlns:xlink="http://www.w3.org/1999/xlink" xml:space="preserve" version="1.1" baseProfile="full">
<line x1="1" y1="1" x2="1089" y2="1" style="stroke:#ddd;stroke-width:2"></line>
<line x1="1" y1="1" x2="1" y2="108" style="stroke:#ddd;stroke-width:2"></line>
<line x1="1" y1="108" x2="1089" y2="108" style="stroke:#ddd;stroke-width:2"></line>
<line x1="1089" y1="1" x2="1089" y2="108" style="stroke:#ddd;stroke-width:2"></line>
<line x1="109" y1="1" x2="109" y2="108" style="stroke:#ddd;stroke-width:2"></line>
<line x1="218" y1="1" x2="218" y2="108" style="stroke:#ddd;stroke-width:2"></line>
<line x1="327" y1="1" x2="327" y2="108" style="stroke:#ddd;stroke-width:2"></line>
<line x1="436" y1="1" x2="436" y2="108" style="stroke:#ddd;stroke-width:2"></line>
<line x1="545" y1="1" x2="545" y2="108" style="stroke:#ddd;stroke-width:2"></line>
<line x1="654" y1="1" x2="654" y2="108" style="stroke:#ddd;stroke-width:2"></line>
<line x1="763" y1="1" x2="763" y2="108" style="stroke:#ddd;stroke-width:2"></line>
<line x1="872" y1="1" x2="872" y2="108" style="stroke:#ddd;stroke-width:2"></line>
<line x1="981" y1="1" x2="981" y2="108" style="stroke:#ddd;stroke-width:2"></line>
<line x1="1" y1="54" x2="1089" y2="54" style="stroke:#ddd;stroke-width:2;stroke-dasharray:3 3"></line>
<line x1="55" y1="1" x2="55" y2="108" style="stroke:#ddd;stroke-width:2;stroke-dasharray:3 3"></line>
<line x1="164" y1="1" x2="164" y2="108" style="stroke:#ddd;stroke-width:2;stroke-dasharray:3 3"></line>
<line x1="273" y1="1" x2="273" y2="108" style="stroke:#ddd;stroke-width:2;stroke-dasharray:3 3"></line>
<line x1="382" y1="1" x2="382" y2="108" style="stroke:#ddd;stroke-width:2;stroke-dasharray:3 3"></line>
<line x1="491" y1="1" x2="491" y2="108" style="stroke:#ddd;stroke-width:2;stroke-dasharray:3 3"></line>
<line x1="600" y1="1" x2="600" y2="108" style="stroke:#ddd;stroke-width:2;stroke-dasharray:3 3"></line>
<line x1="709" y1="1" x2="709" y2="108" style="stroke:#ddd;stroke-width:2;stroke-dasharray:3 3"></line>
<line x1="818" y1="1" x2="818" y2="108" style="stroke:#ddd;stroke-width:2;stroke-dasharray:3 3"></line>
<line x1="927" y1="1" x2="927" y2="108" style="stroke:#ddd;stroke-width:2;stroke-dasharray:3 3"></line>
<line x1="1036" y1="1" x2="1036" y2="108" style="stroke:#ddd;stroke-width:2;stroke-dasharray:3 3"></line>
<path d="M14.26,35.4c0.46,0.51,1.02,1.4,1.12,2.06c0.87,5.79,1.87,13.29,3.12,21.93" style="fill:none;stroke:#999;stroke-width:3"></path>

<path d="M123.26,35.4c0.46,0.51,1.02,1.4,1.12,2.06c0.87,5.79,1.87,13.29,3.12,21.93" style="fill:none;stroke:#999;stroke-width:3"></path>
<path d="M125.22,37.48c6.93-0.97,21.61-3.83,26.63-4.2c1.96-0.14,2.86,1.38,2.62,2.83c-0.83,4.98-1.98,9.84-3.33,18.12" style="fill:none;stroke:#999;stroke-width:3"></path>

<path d="M232.26,35.4c0.46,0.51,1.02,1.4,1.12,2.06c0.87,5.79,1.87,13.29,3.12,21.93" style="fill:none;stroke:#999;stroke-width:3"></path>
<path d="M234.22,37.48c6.93-0.97,21.61-3.83,26.63-4.2c1.96-0.14,2.86,1.38,2.62,2.83c-0.83,4.98-1.98,9.84-3.33,18.12" style="fill:none;stroke:#999;stroke-width:3"></path>
<path d="M236.76,57.43c5.58-0.98,17.96-2.48,25.76-3.39" style="fill:none;stroke:#999;stroke-width:3"></path>

<path d="M341.26,35.4c0.46,0.51,1.02,1.4,1.12,2.06c0.87,5.79,1.87,13.29,3.12,21.93" style="fill:none;stroke:#999;stroke-width:3"></path>
<path d="M343.22,37.48c6.93-0.97,21.61-3.83,26.63-4.2c1.96-0.14,2.86,1.38,2.62,2.83c-0.83,4.98-1.98,9.84-3.33,18.12" style="fill:none;stroke:#999;stroke-width:3"></path>
<path d="M345.76,57.43c5.58-0.98,17.96-2.48,25.76-3.39" style="fill:none;stroke:#999;stroke-width:3"></path>
<path d="M354.42,15.75c1.08,1,2.26,2.75,2.26,4.47c0,4.78-0.2,44.78-0.2,58.16" style="fill:none;stroke:#999;stroke-width:3"></path>

<path d="M450.26,35.4c0.46,0.51,1.02,1.4,1.12,2.06c0.87,5.79,1.87,13.29,3.12,21.93" style="fill:none;stroke:#999;stroke-width:3"></path>
<path d="M452.22,37.48c6.93-0.97,21.61-3.83,26.63-4.2c1.96-0.14,2.86,1.38,2.62,2.83c-0.83,4.98-1.98,9.84-3.33,18.12" style="fill:none;stroke:#999;stroke-width:3"></path>
<path d="M454.76,57.43c5.58-0.98,17.96-2.48,25.76-3.39" style="fill:none;stroke:#999;stroke-width:3"></path>
<path d="M463.42,15.75c1.08,1,2.26,2.75,2.26,4.47c0,4.78-0.2,44.78-0.2,58.16" style="fill:none;stroke:#999;stroke-width:3"></path>
<path d="M449.57,84.77c0.6,1.16,2.46,1.11,3.06,0.82c0.6-0.29,23.04-12.65,26.76-14.97" style="fill:none;stroke:#999;stroke-width:3"></path>

<path d="M559.26,35.4c0.46,0.51,1.02,1.4,1.12,2.06c0.87,5.79,1.87,13.29,3.12,21.93" style="fill:none;stroke:#999;stroke-width:3"></path>
<path d="M561.22,37.48c6.93-0.97,21.61-3.83,26.63-4.2c1.96-0.14,2.86,1.38,2.62,2.83c-0.83,4.98-1.98,9.84-3.33,18.12" style="fill:none;stroke:#999;stroke-width:3"></path>
<path d="M563.76,57.43c5.58-0.98,17.96-2.48,25.76-3.39" style="fill:none;stroke:#999;stroke-width:3"></path>
<path d="M572.4200000000001,15.75c1.08,1,2.26,2.75,2.26,4.47c0,4.78-0.2,44.78-0.2,58.16" style="fill:none;stroke:#999;stroke-width:3"></path>
<path d="M558.5699999999999,84.77c0.6,1.16,2.46,1.11,3.06,0.82c0.6-0.29,23.04-12.65,26.76-14.97" style="fill:none;stroke:#999;stroke-width:3"></path>
<path d="M582.5,62.75c3.2,3.03,8.26,11.94,9.06,16.64" style="fill:none;stroke:#999;stroke-width:3"></path>

<path d="M668.26,35.4c0.46,0.51,1.02,1.4,1.12,2.06c0.87,5.79,1.87,13.29,3.12,21.93" style="fill:none;stroke:#999;stroke-width:3"></path>
<path d="M670.22,37.48c6.93-0.97,21.61-3.83,26.63-4.2c1.96-0.14,2.86,1.38,2.62,2.83c-0.83,4.98-1.98,9.84-3.33,18.12" style="fill:none;stroke:#999;stroke-width:3"></path>
<path d="M672.76,57.43c5.58-0.98,17.96-2.48,25.76-3.39" style="fill:none;stroke:#999;stroke-width:3"></path>
<path d="M681.4200000000001,15.75c1.08,1,2.26,2.75,2.26,4.47c0,4.78-0.2,44.78-0.2,58.16" style="fill:none;stroke:#999;stroke-width:3"></path>
<path d="M667.5699999999999,84.77c0.6,1.16,2.46,1.11,3.06,0.82c0.6-0.29,23.04-12.65,26.76-14.97" style="fill:none;stroke:#999;stroke-width:3"></path>
<path d="M691.5,62.75c3.2,3.03,8.26,11.94,9.06,16.64" style="fill:none;stroke:#999;stroke-width:3"></path>
<path d="M713.0,20.25c4.24,1.81,10.94,7.44,12,10.25" style="fill:none;stroke:#999;stroke-width:3"></path>

<path d="M777.26,35.4c0.46,0.51,1.02,1.4,1.12,2.06c0.87,5.79,1.87,13.29,3.12,21.93" style="fill:none;stroke:#999;stroke-width:3"></path>
<path d="M779.22,37.48c6.93-0.97,21.61-3.83,26.63-4.2c1.96-0.14,2.86,1.38,2.62,2.83c-0.83,4.98-1.98,9.84-3.33,18.12" style="fill:none;stroke:#999;stroke-width:3"></path>
<path d="M781.76,57.43c5.58-0.98,17.96-2.48,25.76-3.39" style="fill:none;stroke:#999;stroke-width:3"></path>
<path d="M790.4200000000001,15.75c1.08,1,2.26,2.75,2.26,4.47c0,4.78-0.2,44.78-0.2,58.16" style="fill:none;stroke:#999;stroke-width:3"></path>
<path d="M776.5699999999999,84.77c0.6,1.16,2.46,1.11,3.06,0.82c0.6-0.29,23.04-12.65,26.76-14.97" style="fill:none;stroke:#999;stroke-width:3"></path>
<path d="M800.5,62.75c3.2,3.03,8.26,11.94,9.06,16.64" style="fill:none;stroke:#999;stroke-width:3"></path>
<path d="M822.0,20.25c4.24,1.81,10.94,7.44,12,10.25" style="fill:none;stroke:#999;stroke-width:3"></path>
<path d="M817.25,41.25c4.15,1.59,10.71,6.53,11.75,9" style="fill:none;stroke:#999;stroke-width:3"></path>

<path d="M886.26,35.4c0.46,0.51,1.02,1.4,1.12,2.06c0.87,5.79,1.87,13.29,3.12,21.93" style="fill:none;stroke:#999;stroke-width:3"></path>
<path d="M888.22,37.48c6.93-0.97,21.61-3.83,26.63-4.2c1.96-0.14,2.86,1.38,2.62,2.83c-0.83,4.98-1.98,9.84-3.33,18.12" style="fill:none;stroke:#999;stroke-width:3"></path>
<path d="M890.76,57.43c5.58-0.98,17.96-2.48,25.76-3.39" style="fill:none;stroke:#999;stroke-width:3"></path>
<path d="M899.4200000000001,15.75c1.08,1,2.26,2.75,2.26,4.47c0,4.78-0.2,44.78-0.2,58.16" style="fill:none;stroke:#999;stroke-width:3"></path>
<path d="M885.5699999999999,84.77c0.6,1.16,2.46,1.11,3.06,0.82c0.6-0.29,23.04-12.65,26.76-14.97" style="fill:none;stroke:#999;stroke-width:3"></path>
<path d="M909.5,62.75c3.2,3.03,8.26,11.94,9.06,16.64" style="fill:none;stroke:#999;stroke-width:3"></path>
<path d="M931.0,20.25c4.24,1.81,10.94,7.44,12,10.25" style="fill:none;stroke:#999;stroke-width:3"></path>
<path d="M926.25,41.25c4.15,1.59,10.71,6.53,11.75,9" style="fill:none;stroke:#999;stroke-width:3"></path>
<path d="M922.75,67.75c0.65,0.25,2.4,0.93,4.13,0.75c7.12-0.75,30.62-7,40.85-7c1.74,0,2.18-0.25,3.26,0" style="fill:none;stroke:#999;stroke-width:3"></path>

<path d="M995.26,35.4c0.46,0.51,1.02,1.4,1.12,2.06c0.87,5.79,1.87,13.29,3.12,21.93" style="fill:none;stroke:#999;stroke-width:3"></path>
<path d="M997.22,37.48c6.93-0.97,21.61-3.83,26.63-4.2c1.96-0.14,2.86,1.38,2.62,2.83c-0.83,4.98-1.98,9.84-3.33,18.12" style="fill:none;stroke:#999;stroke-width:3"></path>
<path d="M999.76,57.43c5.58-0.98,17.96-2.48,25.76-3.39" style="fill:none;stroke:#999;stroke-width:3"></path>
<path d="M1008.4200000000001,15.75c1.08,1,2.26,2.75,2.26,4.47c0,4.78-0.2,44.78-0.2,58.16" style="fill:none;stroke:#999;stroke-width:3"></path>
<path d="M994.5699999999999,84.77c0.6,1.16,2.46,1.11,3.06,0.82c0.6-0.29,23.04-12.65,26.76-14.97" style="fill:none;stroke:#999;stroke-width:3"></path>
<path d="M1018.5,62.75c3.2,3.03,8.26,11.94,9.06,16.64" style="fill:none;stroke:#999;stroke-width:3"></path>
<path d="M1040.0,20.25c4.24,1.81,10.94,7.44,12,10.25" style="fill:none;stroke:#999;stroke-width:3"></path>
<path d="M1035.25,41.25c4.15,1.59,10.71,6.53,11.75,9" style="fill:none;stroke:#999;stroke-width:3"></path>
<path d="M1031.75,67.75c0.65,0.25,2.4,0.93,4.13,0.75c7.12-0.75,30.62-7,40.85-7c1.74,0,2.18-0.25,3.26,0" style="fill:none;stroke:#999;stroke-width:3"></path>
<path d="M1060.83,11c1.13,0.52,1.81,2.34,2.03,3.37s0,78.64-0.23,85.13" style="fill:none;stroke:#999;stroke-width:3"></path>

</svg>