<svg width="1199px" height="109px" viewBox="0 0 1199 109" xmlns="http://www.w3.org/2000/svg" xmlns:xlink="http://www.w3.org/1999/xlink" xml:space="preserve" version="1.1" baseProfile="full">
<line x1="1" y1="1" x2="1198" y2="1" style="stroke:#ddd;stroke-width:2"></line>
<line x1="1" y1="1" x2="1" y2="108" style="stroke:#ddd;stroke-width:2"></line>
<line x1="1" y1="108" x2="1198" y2="108" style="stroke:#ddd;stroke-width:2"></line>
<line x1="1198" y1="1" x2="1198" y2="108" style="stroke:#ddd;stroke-width:2"></line>
<line x1="109" y1="1" x2="109" y2="108" style="stroke:#ddd;stroke-width:2"></line>
<line x1="218" y1="1" x2="218" y2="108" style="stroke:#ddd;stroke-width:2"></line>
<line x1="327" y1="1" x2="327" y2="108" style="stroke:#ddd;stroke-width:2"></line>
<line x1="436" y1="1" x2="436" y2="108" style="stroke:#ddd;stroke-width:2"></line>
<line x1="545" y1="1" x2="545" y2="108" style="stroke:#ddd;stroke-width:2"></line>
<line x1="654" y1="1" x2="654" y2="108" style="stroke:#ddd;stroke-width:2"></line>
<line x1="763" y1="1" x2="763" y2="108" style="stroke:#ddd;stroke-width:2"></line>
<line x1="872" y1="1" x2="872" y2="108" style="stroke:#ddd;stroke-width:2"></line>
<line x1="981" y1="1" x2="981" y2="108" style="stroke:#ddd;stroke-width:2"></line>
<line x1="1090" y1="1" x2="1090" y2="108" style="stroke:#ddd;stroke-width:2"></line>
<line x1="1" y1="54" x2="1198" y2="54" style="stroke:#ddd;stroke-width:2;stroke-dasharray:3 3"></line>
<line x1="55" y1="1" x2="55" y2="108" style="stroke:#ddd;stroke-width:2;stroke-dasharray:3 3"></line>
<line x1="164" y1="1" x2="164" y2="108" style="stroke:#ddd;stroke-width:2;stroke-dasharray:3 3"></line>
<line x1="273" y1="1" x2="273" y2="108" style="stroke:#ddd;stroke-width:2;stroke-dasharray:3 3"></line>
<line x1="382" y1="1" x2="382" y2="108" style="stroke:#ddd;stroke-width:2;stroke-dasharray:3 3"></line>
<line x1="491" y1="1" x2="491" y2="108" style="stroke:#ddd;stroke-width:2;stroke-dasharray:3 3"></line>
<line x1="600" y1="1" x2="600" y2="108" style="stroke:#ddd;stroke-width:2;stroke-dasharray:3 3"></line>
<line x1="709" y1="1" x2="709" y2="108" style="stroke:#ddd;stroke-width:2;stroke-dasharray:3 3"></line>
<line x1="818" y1="1" x2="818" y2="108" style="stroke:#ddd;stroke-width:2;stroke-dasharray:3 3"></line>
<line x1="927" y1="1" x2="927" y2="108" style="stroke:#ddd;stroke-width:2;stroke-dasharray:3 3"></line>
<line x1="1036" y1="1" x2="1036" y2="108" style="stroke:#ddd;stroke-width:2;stroke-dasharray:3 3"></line>
<line x1="1145" y1="1" x2="1145" y2="108" style="stroke:#ddd;stroke-width:2;stroke-dasharray:3 3"></line>
<path d="M14.26,36.9c0.46,0.51,1.02,1.4,1.12,2.06c0.87,5.79,1.37,13.29,2.62,21.93" style="fill:none;stroke:#999;stroke-width:3"></path>

<path d="M123.26,36.9c0.46,0.51,1.02,1.4,1.12,2.06c0.87,5.79,1.37,13.29,2.62,21.93" style="fill:none;stroke:#999;stroke-width:3"></path>
<path d="M125.22,38.48c6.93-0.97,19.11-2.33,24.13-2.7c1.96-0.14,2.86,1.38,2.62,2.83c-0.83,4.98-1.98,10.34-3.33,18.62" style="fill:none;stroke:#999;stroke-width:3"></path>

<path d="M232.26,36.9c0.46,0.51,1.02,1.4,1.12,2.06c0.87,5.79,1.37,13.29,2.62,21.93" style="fill:none;stroke:#999;stroke-width:3"></path>
<path d="M234.22,38.48c6.93-0.97,19.11-2.33,24.13-2.7c1.96-0.14,2.86,1.38,2.62,2.83c-0.83,4.98-1.98,10.34-3.33,18.62" style="fill:none;stroke:#999;stroke-width:3"></path>
<path d="M236.26,59.43c5.58-0.98,15.96-1.48,23.76-2.39" style="fill:none;stroke:#999;stroke-width:3"></path>

<path d="M341.26,36.9c0.46,0.51,1.02,1.4,1.12,2.06c0.87,5.79,1.37,13.29,2.62,21.93" style="fill:none;stroke:#999;stroke-width:3"></path>
<path d="M343.22,38.48c6.93-0.97,19.11-2.33,24.13-2.7c1.96-0.14,2.86,1.38,2.62,2.83c-0.83,4.98-1.98,10.34-3.33,18.62" style="fill:none;stroke:#999;stroke-width:3"></path>
<path d="M345.26,59.43c5.58-0.98,15.96-1.48,23.76-2.39" style="fill:none;stroke:#999;stroke-width:3"></path>
<path d="M353.92,16.75c1.08,1,2.26,2.75,2.26,4.47c0,4.78-0.2,44.78-0.2,58.16" style="fill:none;stroke:#999;stroke-width:3"></path>

<path d="M450.26,36.9c0.46,0.51,1.02,1.4,1.12,2.06c0.87,5.79,1.37,13.29,2.62,21.93" style="fill:none;stroke:#999;stroke-width:3"></path>
<path d="M452.22,38.48c6.93-0.97,19.11-2.33,24.13-2.7c1.96-0.14,2.86,1.38,2.62,2.83c-0.83,4.98-1.98,10.34-3.33,18.62" style="fill:none;stroke:#999;stroke-width:3"></path>
<path d="M454.26,59.43c5.58-0.98,15.96-1.48,23.76-2.39" style="fill:none;stroke:#999;stroke-width:3"></path>
<path d="M462.92,16.75c1.08,1,2.26,2.75,2.26,4.47c0,4.78-0.2,44.78-0.2,58.16" style="fill:none;stroke:#999;stroke-width:3"></path>
<path d="M449.57,85.77c0.6,1.16,2.46,1.11,3.06,0.82c0.6-0.29,21.54-11.65,25.26-13.97" style="fill:none;stroke:#999;stroke-width:3"></path>

<path d="M559.26,36.9c0.46,0.51,1.02,1.4,1.12,2.06c0.87,5.79,1.37,13.29,2.62,21.93" style="fill:none;stroke:#999;stroke-width:3"></path>
<path d="M561.22,38.48c6.93-0.97,19.11-2.33,24.13-2.7c1.96-0.14,2.86,1.38,2.62,2.83c-0.83,4.98-1.98,10.34-3.33,18.62" style="fill:none;stroke:#999;stroke-width:3"></path>
<path d="M563.26,59.43c5.58-0.98,15.96-1.48,23.76-2.39" style="fill:none;stroke:#999;stroke-width:3"></path>
<path d="M571.9200000000001,16.75c1.08,1,2.26,2.75,2.26,4.47c0,4.78-0.2,44.78-0.2,58.16" style="fill:none;stroke:#999;stroke-width:3"></path>
<path d="M558.5699999999999,85.77c0.6,1.16,2.46,1.11,3.06,0.82c0.6-0.29,21.54-11.65,25.26-13.97" style="fill:none;stroke:#999;stroke-width:3"></path>
<path d="M582.75,64.5c2.4,2.81,6.21,11.53,6.81,15.89" style="fill:none;stroke:#999;stroke-width:3"></path>

<path d="M668.26,36.9c0.46,0.51,1.02,1.4,1.12,2.06c0.87,5.79,1.37,13.29,2.62,21.93" style="fill:none;stroke:#999;stroke-width:3"></path>
<path d="M670.22,38.48c6.93-0.97,19.11-2.33,24.13-2.7c1.96-0.14,2.86,1.38,2.62,2.83c-0.83,4.98-1.98,10.34-3.33,18.62" style="fill:none;stroke:#999;stroke-width:3"></path>
<path d="M672.26,59.43c5.58-0.98,15.96-1.48,23.76-2.39" style="fill:none;stroke:#999;stroke-width:3"></path>
<path d="M680.9200000000001,16.75c1.08,1,2.26,2.75,2.26,4.47c0,4.78-0.2,44.78-0.2,58.16" style="fill:none;stroke:#999;stroke-width:3"></path>
<path d="M667.5699999999999,85.77c0.6,1.16,2.46,1.11,3.06,0.82c0.6-0.29,21.54-11.65,25.26-13.97" style="fill:none;stroke:#999;stroke-width:3"></path>
<path d="M691.75,64.5c2.4,2.81,6.21,11.53,6.81,15.89" style="fill:none;stroke:#999;stroke-width:3"></path>
<path d="M702.05,42.71c0.74,0.27,2.73,0.94,4.71,0.8c11.33-0.85,25.75-3.26,36.53-3.69c1.98-0.08,3.48,0.23,4.72,0.5" style="fill:none;stroke:#999;stroke-width:3"></path>

<path d="M777.26,36.9c0.46,0.51,1.02,1.4,1.12,2.06c0.87,5.79,1.37,13.29,2.62,21.93" style="fill:none;stroke:#999;stroke-width:3"></path>
<path d="M779.22,38.48c6.93-0.97,19.11-2.33,24.13-2.7c1.96-0.14,2.86,1.38,2.62,2.83c-0.83,4.98-1.98,10.34-3.33,18.62" style="fill:none;stroke:#999;stroke-width:3"></path>
<path d="M781.26,59.43c5.58-0.98,15.96-1.48,23.76-2.39" style="fill:none;stroke:#999;stroke-width:3"></path>
<path d="M789.9200000000001,16.75c1.08,1,2.26,2.75,2.26,4.47c0,4.78-0.2,44.78-0.2,58.16" style="fill:none;stroke:#999;stroke-width:3"></path>
<path d="M776.5699999999999,85.77c0.6,1.16,2.46,1.11,3.06,0.82c0.6-0.29,21.54-11.65,25.26-13.97" style="fill:none;stroke:#999;stroke-width:3"></path>
<path d="M800.75,64.5c2.4,2.81,6.21,11.53,6.81,15.89" style="fill:none;stroke:#999;stroke-width:3"></path>
<path d="M811.05,42.71c0.74,0.27,2.73,0.94,4.71,0.8c11.33-0.85,25.75-3.26,36.53-3.69c1.98-0.08,3.48,0.23,4.72,0.5" style="fill:none;stroke:#999;stroke-width:3"></path>
<path d="M831.15,15c1.43,0.66,2.58,2.93,2.58,4.28c0,22.97-0.29,37.47-0.29,47.33" style="fill:none;stroke:#999;stroke-width:3"></path>

<path d="M886.26,36.9c0.46,0.51,1.02,1.4,1.12,2.06c0.87,5.79,1.37,13.29,2.62,21.93" style="fill:none;stroke:#999;stroke-width:3"></path>
<path d="M888.22,38.48c6.93-0.97,19.11-2.33,24.13-2.7c1.96-0.14,2.86,1.38,2.62,2.83c-0.83,4.98-1.98,10.34-3.33,18.62" style="fill:none;stroke:#999;stroke-width:3"></path>
<path d="M890.26,59.43c5.58-0.98,15.96-1.48,23.76-2.39" style="fill:none;stroke:#999;stroke-width:3"></path>
<path d="M898.9200000000001,16.75c1.08,1,2.26,2.75,2.26,4.47c0,4.78-0.2,44.78-0.2,58.16" style="fill:none;stroke:#999;stroke-width:3"></path>
<path d="M885.5699999999999,85.77c0.6,1.16,2.46,1.11,3.06,0.82c0.6-0.29,21.54-11.65,25.26-13.97" style="fill:none;stroke:#999;stroke-width:3"></path>
<path d="M909.75,64.5c2.4,2.81,6.21,11.53,6.81,15.89" style="fill:none;stroke:#999;stroke-width:3"></path>
<path d="M920.05,42.71c0.74,0.27,2.73,0.94,4.71,0.8c11.33-0.85,25.75-3.26,36.53-3.69c1.98-0.08,3.48,0.23,4.72,0.5" style="fill:none;stroke:#999;stroke-width:3"></path>
<path d="M940.15,15c1.43,0.66,2.58,2.93,2.58,4.28c0,22.97-0.29,37.47-0.29,47.33" style="fill:none;stroke:#999;stroke-width:3"></path>
<path d="M924.54,66.39c0.35,0.86,0.77,1.45,0.89,2.1c0.88,4.75,2.84,17.52,4.07,26.51" style="fill:none;stroke:#999;stroke-width:3"></path>

<path d="M995.26,36.9c0.46,0.51,1.02,1.4,1.12,2.06c0.87,5.79,1.37,13.29,2.62,21.93" style="fill:none;stroke:#999;stroke-width:3"></path>
<path d="M997.22,38.48c6.93-0.97,19.11-2.33,24.13-2.7c1.96-0.14,2.86,1.38,2.62,2.83c-0.83,4.98-1.98,10.34-3.33,18.62" style="fill:none;stroke:#999;stroke-width:3"></path>
<path d="M999.26,59.43c5.58-0.98,15.96-1.48,23.76-2.39" style="fill:none;stroke:#999;stroke-width:3"></path>
<path d="M1007.9200000000001,16.75c1.08,1,2.26,2.75,2.26,4.47c0,4.78-0.2,44.78-0.2,58.16" style="fill:none;stroke:#999;stroke-width:3"></path>
<path d="M994.5699999999999,85.77c0.6,1.16,2.46,1.11,3.06,0.82c0.6-0.29,21.54-11.65,25.26-13.97" style="fill:none;stroke:#999;stroke-width:3"></path>
<path d="M1018.75,64.5c2.4,2.81,6.21,11.53,6.81,15.89" style="fill:none;stroke:#999;stroke-width:3"></path>
<path d="M1029.05,42.71c0.74,0.27,2.73,0.94,4.71,0.8c11.33-0.85,25.75-3.26,36.53-3.69c1.98-0.08,3.48,0.23,4.72,0.5" style="fill:none;stroke:#999;stroke-width:3"></path>
<path d="M1049.15,15c1.43,0.66,2.58,2.93,2.58,4.28c0,22.97-0.29,37.47-0.29,47.33" style="fill:none;stroke:#999;stroke-width:3"></path>
<path d="M1033.54,66.39c0.35,0.86,0.77,1.45,0.89,2.1c0.88,4.75,2.84,17.52,4.07,26.51" style="fill:none;stroke:#999;stroke-width:3"></path>
<path d="M1035.56,68.69c8.39-0.89,27.24-3.67,32.96-3.81c2.37-0.06,3.14,1.76,2.93,3.12c-0.78,5.13-2.3,15.37-3.58,22.18" style="fill:none;stroke:#999;stroke-width:3"></path>

<path d="M1104.26,36.9c0.46,0.51,1.02,1.4,1.12,2.06c0.87,5.79,1.37,13.29,2.62,21.93" style="fill:none;stroke:#999;stroke-width:3"></path>
<path d="M1106.22,38.48c6.93-0.97,19.11-2.33,24.13-2.7c1.96-0.14,2.86,1.38,2.62,2.83c-0.83,4.98-1.98,10.34-3.33,18.62" style="fill:none;stroke:#999;stroke-width:3"></path>
<path d="M1108.26,59.43c5.58-0.98,15.96-1.48,23.76-2.39" style="fill:none;stroke:#999;stroke-width:3"></path>
<path d="M1116.92,16.75c1.08,1,2.26,2.75,2.26,4.47c0,4.78-0.2,44.78-0.2,58.16" style="fill:none;stroke:#999;stroke-width:3"></path>
<path d="M1103.57,85.77c0.6,1.16,2.46,1.11,3.06,0.82c0.6-0.29,21.54-11.65,25.26-13.97" style="fill:none;stroke:#999;stroke-width:3"></path>
<path d="M1127.75,64.5c2.4,2.81,6.21,11.53,6.81,15.89" style="fill:none;stroke:#999;stroke-width:3"></path>
<path d="M1138.05,42.71c0.74,0.27,2.73,0.94,4.71,0.8c11.33-0.85,25.75-3.26,36.53-3.69c1.98-0.08,3.48,0.23,4.72,0.5" style="fill:none;stroke:#999;stroke-width:3"></path>
<path d="M1158.15,15c1.43,0.66,2.58,2.93,2.58,4.28c0,22.97-0.29,37.47-0.29,47.33" style="fill:none;stroke:#999;stroke-width:3"></path>
<path d="M1142.54,66.39c0.35,0.86,0.77,1.45,0.89,2.1c0.88,4.75,2.84,17.52,4.07,26.51" style="fill:none;stroke:#999;stroke-width:3"></path>
<path d="M1144.56,68.69c8.39-0.89,27.24-3.67,32.96-3.81c2.37-0.06,3.14,1.76,2.93,3.12c-0.78,5.13-2.3,15.37-3.58,22.18" style="fill:none;stroke:#999;stroke-width:3"></path>
<path d="M1147.7,93.47c6.94-0.38,23.39-2.15,31.72-2.63" style="fill:none;stroke:#999;stroke-width:3"></path>

</svg>