<svg width="545px" height="109px" viewBox="0 0 545 109" xmlns="http://www.w3.org/2000/svg" xmlns:xlink="http://www.w3.org/1999/xlink" xml:space="preserve" version="1.1" baseProfile="full">
<line x1="1" y1="1" x2="544" y2="1" style="stroke:#ddd;stroke-width:2"></line>
<line x1="1" y1="1" x2="1" y2="108" style="stroke:#ddd;stroke-width:2"></line>
<line x1="1" y1="108" x2="544" y2="108" style="stroke:#ddd;stroke-width:2"></line>
<line x1="544" y1="1" x2="544" y2="108" style="stroke:#ddd;stroke-width:2"></line>
<line x1="109" y1="1" x2="109" y2="108" style="stroke:#ddd;stroke-width:2"></line>
<line x1="218" y1="1" x2="218" y2="108" style="stroke:#ddd;stroke-width:2"></line>
<line x1="327" y1="1" x2="327" y2="108" style="stroke:#ddd;stroke-width:2"></line>
<line x1="436" y1="1" x2="436" y2="108" style="stroke:#ddd;stroke-width:2"></line>
<line x1="1" y1="54" x2="544" y2="54" style="stroke:#ddd;stroke-width:2;stroke-dasharray:3 3"></line>
<line x1="55" y1="1" x2="55" y2="108" style="stroke:#ddd;stroke-width:2;stroke-dasharray:3 3"></line>
<line x1="164" y1="1" x2="164" y2="108" style="stroke:#ddd;stroke-width:2;stroke-dasharray:3 3"></line>
<line x1="273" y1="1" x2="273" y2="108" style="stroke:#ddd;stroke-width:2;stroke-dasharray:3 3"></line>
<line x1="382" y1="1" x2="382" y2="108" style="stroke:#ddd;stroke-width:2;stroke-dasharray:3 3"></line>
<line x1="491" y1="1" x2="491" y2="108" style="stroke:#ddd;stroke-width:2;stroke-dasharray:3 3"></line>
<path d="M45.25,7.5C51.0,9.62,57.4,13.04,62.33,16.75" style="fill:none;stroke:#999;stroke-width:3"></path>

<path d="M154.25,7.5C160.0,9.62,166.4,13.04,171.32999999999998,16.75" style="fill:none;stroke:#999;stroke-width:3"></path>
<path d="M138.21,33.05c1.92,1.46,6.38,1.42,8.66,0.96c7.34-1.5,26.11-5.91,29.1-6.62c3.52-0.83,5.17,1.3,3.17,3.85C167.44,46.22,151.61,63.13,134.38,74.5" style="fill:none;stroke:#999;stroke-width:3"></path>

<path d="M263.25,7.5C269.0,9.62,275.4,13.04,280.33,16.75" style="fill:none;stroke:#999;stroke-width:3"></path>
<path d="M247.21,33.05c1.92,1.46,6.38,1.42,8.66,0.96c7.34-1.5,26.11-5.91,29.1-6.62c3.52-0.83,5.17,1.3,3.17,3.85C276.44,46.22,260.61,63.13,243.38,74.5" style="fill:none;stroke:#999;stroke-width:3"></path>
<path d="M271.25,54.11c0.94,0.94,1.27,2.02,1.27,3.89c0,5.46,0.03,21.66,0.05,32.5c0.01,3.81,0.01,6.96,0.01,8.75" style="fill:none;stroke:#999;stroke-width:3"></path>

<path d="M372.25,7.5C378.0,9.62,384.4,13.04,389.33,16.75" style="fill:none;stroke:#999;stroke-width:3"></path>
<path d="M356.21000000000004,33.05c1.92,1.46,6.38,1.42,8.66,0.96c7.34-1.5,26.11-5.91,29.1-6.62c3.52-0.83,5.17,1.3,3.17,3.85C385.44,46.22,369.61,63.13,352.38,74.5" style="fill:none;stroke:#999;stroke-width:3"></path>
<path d="M380.25,54.11c0.94,0.94,1.27,2.02,1.27,3.89c0,5.46,0.03,21.66,0.05,32.5c0.01,3.81,0.01,6.96,0.01,8.75" style="fill:none;stroke:#999;stroke-width:3"></path>
<path d="M409.32,45.64c-0.2,1.11-0.54,2.09-1.25,2.86c-2.15,2.32-8.27,7.01-12.57,9.75" style="fill:none;stroke:#999;stroke-width:3"></path>

<path d="M481.25,7.5C487.0,9.62,493.4,13.04,498.33,16.75" style="fill:none;stroke:#999;stroke-width:3"></path>
<path d="M465.21000000000004,33.05c1.92,1.46,6.38,1.42,8.66,0.96c7.34-1.5,26.11-5.91,29.1-6.62c3.52-0.83,5.17,1.3,3.17,3.85C494.44,46.22,478.61,63.13,461.38,74.5" style="fill:none;stroke:#999;stroke-width:3"></path>
<path d="M489.25,54.11c0.94,0.94,1.27,2.02,1.27,3.89c0,5.46,0.03,21.66,0.05,32.5c0.01,3.81,0.01,6.96,0.01,8.75" style="fill:none;stroke:#999;stroke-width:3"></path>
<path d="M518.3199999999999,45.64c-0.2,1.11-0.54,2.09-1.25,2.86c-2.15,2.32-8.27,7.01-12.57,9.75" style="fill:none;stroke:#999;stroke-width:3"></path>
<path d="M493.83,55.37c14.42,7.25,21.67,12.88,27.5,21.88" style="fill:none;stroke:#999;stroke-width:3"></path>

</svg>