<svg width="763px" height="109px" viewBox="0 0 763 109" xmlns="http://www.w3.org/2000/svg" xmlns:xlink="http://www.w3.org/1999/xlink" xml:space="preserve" version="1.1" baseProfile="full">
<line x1="1" y1="1" x2="762" y2="1" style="stroke:#ddd;stroke-width:2"></line>
<line x1="1" y1="1" x2="1" y2="108" style="stroke:#ddd;stroke-width:2"></line>
<line x1="1" y1="108" x2="762" y2="108" style="stroke:#ddd;stroke-width:2"></line>
<line x1="762" y1="1" x2="762" y2="108" style="stroke:#ddd;stroke-width:2"></line>
<line x1="109" y1="1" x2="109" y2="108" style="stroke:#ddd;stroke-width:2"></line>
<line x1="218" y1="1" x2="218" y2="108" style="stroke:#ddd;stroke-width:2"></line>
<line x1="327" y1="1" x2="327" y2="108" style="stroke:#ddd;stroke-width:2"></line>
<line x1="436" y1="1" x2="436" y2="108" style="stroke:#ddd;stroke-width:2"></line>
<line x1="545" y1="1" x2="545" y2="108" style="stroke:#ddd;stroke-width:2"></line>
<line x1="654" y1="1" x2="654" y2="108" style="stroke:#ddd;stroke-width:2"></line>
<line x1="1" y1="54" x2="762" y2="54" style="stroke:#ddd;stroke-width:2;stroke-dasharray:3 3"></line>
<line x1="55" y1="1" x2="55" y2="108" style="stroke:#ddd;stroke-width:2;stroke-dasharray:3 3"></line>
<line x1="164" y1="1" x2="164" y2="108" style="stroke:#ddd;stroke-width:2;stroke-dasharray:3 3"></line>
<line x1="273" y1="1" x2="273" y2="108" style="stroke:#ddd;stroke-width:2;stroke-dasharray:3 3"></line>
<line x1="382" y1="1" x2="382" y2="108" style="stroke:#ddd;stroke-width:2;stroke-dasharray:3 3"></line>
<line x1="491" y1="1" x2="491" y2="108" style="stroke:#ddd;stroke-width:2;stroke-dasharray:3 3"></line>
<line x1="600" y1="1" x2="600" y2="108" style="stroke:#ddd;stroke-width:2;stroke-dasharray:3 3"></line>
<line x1="709" y1="1" x2="709" y2="108" style="stroke:#ddd;stroke-width:2;stroke-dasharray:3 3"></line>
<path d="M48.38,11.25c4.38,2.5,8.88,7.75,10.38,11.5" style="fill:none;stroke:#999;stroke-width:3"></path>

<path d="M157.38,11.25c4.38,2.5,8.88,7.75,10.38,11.5" style="fill:none;stroke:#999;stroke-width:3"></path>
<path d="M123.88,33.98c2.52,0.54,6.91,0.76,9.42,0.54c22.95-2.02,40.82-4.02,59.99-4.73c4.2-0.16,6.73,0.26,8.83,0.53" style="fill:none;stroke:#999;stroke-width:3"></path>

<path d="M266.38,11.25c4.38,2.5,8.88,7.75,10.38,11.5" style="fill:none;stroke:#999;stroke-width:3"></path>
<path d="M232.88,33.98c2.52,0.54,6.91,0.76,9.42,0.54c22.95-2.02,40.82-4.02,59.99-4.73c4.2-0.16,6.73,0.26,8.83,0.53" style="fill:none;stroke:#999;stroke-width:3"></path>
<path d="M256.63,46.65C258.0,47,259.0,47,260.45,46.88c7.06-0.6,18.6-2.27,22.81-2.6c1.86-0.15,3.36-0.15,4.74,0.22" style="fill:none;stroke:#999;stroke-width:3"></path>

<path d="M375.38,11.25c4.38,2.5,8.88,7.75,10.38,11.5" style="fill:none;stroke:#999;stroke-width:3"></path>
<path d="M341.88,33.98c2.52,0.54,6.91,0.76,9.42,0.54c22.95-2.02,40.82-4.02,59.99-4.73c4.2-0.16,6.73,0.26,8.83,0.53" style="fill:none;stroke:#999;stroke-width:3"></path>
<path d="M365.63,46.65C367.0,47,368.0,47,369.45,46.88c7.06-0.6,18.6-2.27,22.81-2.6c1.86-0.15,3.36-0.15,4.74,0.22" style="fill:none;stroke:#999;stroke-width:3"></path>
<path d="M364.88,61.4c1.5,0.23,2.75,0.35,4.16,0.23c7.68-0.67,20.23-2.28,24.8-2.85c2.16-0.27,3.66-0.15,5.17,0.22" style="fill:none;stroke:#999;stroke-width:3"></path>

<path d="M484.38,11.25c4.38,2.5,8.88,7.75,10.38,11.5" style="fill:none;stroke:#999;stroke-width:3"></path>
<path d="M450.88,33.98c2.52,0.54,6.91,0.76,9.42,0.54c22.95-2.02,40.82-4.02,59.99-4.73c4.2-0.16,6.73,0.26,8.83,0.53" style="fill:none;stroke:#999;stroke-width:3"></path>
<path d="M474.63,46.65C476.0,47,477.0,47,478.45,46.88c7.06-0.6,18.6-2.27,22.81-2.6c1.86-0.15,3.36-0.15,4.74,0.22" style="fill:none;stroke:#999;stroke-width:3"></path>
<path d="M473.88,61.4c1.5,0.23,2.75,0.35,4.16,0.23c7.68-0.67,20.23-2.28,24.8-2.85c2.16-0.27,3.66-0.15,5.17,0.22" style="fill:none;stroke:#999;stroke-width:3"></path>
<path d="M473.0,74.75c0.81,0.81,1.4,1.76,1.53,2.77c0.85,6.73,1.9,11.43,2.89,18.45c0.18,1.24,0.35,2.43,0.54,3.53" style="fill:none;stroke:#999;stroke-width:3"></path>

<path d="M593.38,11.25c4.38,2.5,8.88,7.75,10.38,11.5" style="fill:none;stroke:#999;stroke-width:3"></path>
<path d="M559.88,33.98c2.52,0.54,6.91,0.76,9.42,0.54c22.95-2.02,40.82-4.02,59.99-4.73c4.2-0.16,6.73,0.26,8.83,0.53" style="fill:none;stroke:#999;stroke-width:3"></path>
<path d="M583.63,46.65C585.0,47,586.0,47,587.45,46.88c7.06-0.6,18.6-2.27,22.81-2.6c1.86-0.15,3.36-0.15,4.74,0.22" style="fill:none;stroke:#999;stroke-width:3"></path>
<path d="M582.88,61.4c1.5,0.23,2.75,0.35,4.16,0.23c7.68-0.67,20.23-2.28,24.8-2.85c2.16-0.27,3.66-0.15,5.17,0.22" style="fill:none;stroke:#999;stroke-width:3"></path>
<path d="M582.0,74.75c0.81,0.81,1.4,1.76,1.53,2.77c0.85,6.73,1.9,11.43,2.89,18.45c0.18,1.24,0.35,2.43,0.54,3.53" style="fill:none;stroke:#999;stroke-width:3"></path>
<path d="M584.53,76.74c9.24-1.7,22.59-3.37,30.29-4.25c2.21-0.25,3.55,1.17,3.24,2.32c-0.69,2.52-3.74,12.7-4.94,16.98" style="fill:none;stroke:#999;stroke-width:3"></path>

<path d="M702.38,11.25c4.38,2.5,8.88,7.75,10.38,11.5" style="fill:none;stroke:#999;stroke-width:3"></path>
<path d="M668.88,33.98c2.52,0.54,6.91,0.76,9.42,0.54c22.95-2.02,40.82-4.02,59.99-4.73c4.2-0.16,6.73,0.26,8.83,0.53" style="fill:none;stroke:#999;stroke-width:3"></path>
<path d="M692.63,46.65C694.0,47,695.0,47,696.45,46.88c7.06-0.6,18.6-2.27,22.81-2.6c1.86-0.15,3.36-0.15,4.74,0.22" style="fill:none;stroke:#999;stroke-width:3"></path>
<path d="M691.88,61.4c1.5,0.23,2.75,0.35,4.16,0.23c7.68-0.67,20.23-2.28,24.8-2.85c2.16-0.27,3.66-0.15,5.17,0.22" style="fill:none;stroke:#999;stroke-width:3"></path>
<path d="M691.0,74.75c0.81,0.81,1.4,1.76,1.53,2.77c0.85,6.73,1.9,11.43,2.89,18.45c0.18,1.24,0.35,2.43,0.54,3.53" style="fill:none;stroke:#999;stroke-width:3"></path>
<path d="M693.53,76.74c9.24-1.7,22.59-3.37,30.29-4.25c2.21-0.25,3.55,1.17,3.24,2.32c-0.69,2.52-3.74,12.7-4.94,16.98" style="fill:none;stroke:#999;stroke-width:3"></path>
<path d="M696.2,95.16c6.19-0.53,16.55-1.39,25.32-2.22c1.33-0.13,2.73-0.12,3.95-0.12" style="fill:none;stroke:#999;stroke-width:3"></path>

</svg>