<svg width="1417px" height="109px" viewBox="0 0 1417 109" xmlns="http://www.w3.org/2000/svg" xmlns:xlink="http://www.w3.org/1999/xlink" xml:space="preserve" version="1.1" baseProfile="full">
<line x1="1" y1="1" x2="1416" y2="1" style="stroke:#ddd;stroke-width:2"></line>
<line x1="1" y1="1" x2="1" y2="108" style="stroke:#ddd;stroke-width:2"></line>
<line x1="1" y1="108" x2="1416" y2="108" style="stroke:#ddd;stroke-width:2"></line>
<line x1="1416" y1="1" x2="1416" y2="108" style="stroke:#ddd;stroke-width:2"></line>
<line x1="109" y1="1" x2="109" y2="108" style="stroke:#ddd;stroke-width:2"></line>
<line x1="218" y1="1" x2="218" y2="108" style="stroke:#ddd;stroke-width:2"></line>
<line x1="327" y1="1" x2="327" y2="108" style="stroke:#ddd;stroke-width:2"></line>
<line x1="436" y1="1" x2="436" y2="108" style="stroke:#ddd;stroke-width:2"></line>
<line x1="545" y1="1" x2="545" y2="108" style="stroke:#ddd;stroke-width:2"></line>
<line x1="654" y1="1" x2="654" y2="108" style="stroke:#ddd;stroke-width:2"></line>
<line x1="763" y1="1" x2="763" y2="108" style="stroke:#ddd;stroke-width:2"></line>
<line x1="872" y1="1" x2="872" y2="108" style="stroke:#ddd;stroke-width:2"></line>
<line x1="981" y1="1" x2="981" y2="108" style="stroke:#ddd;stroke-width:2"></line>
<line x1="1090" y1="1" x2="1090" y2="108" style="stroke:#ddd;stroke-width:2"></line>
<line x1="1199" y1="1" x2="1199" y2="108" style="stroke:#ddd;stroke-width:2"></line>
<line x1="1308" y1="1" x2="1308" y2="108" style="stroke:#ddd;stroke-width:2"></line>
<line x1="1" y1="54" x2="1416" y2="54" style="stroke:#ddd;stroke-width:2;stroke-dasharray:3 3"></line>
<line x1="55" y1="1" x2="55" y2="108" style="stroke:#ddd;stroke-width:2;stroke-dasharray:3 3"></line>
<line x1="164" y1="1" x2="164" y2="108" style="stroke:#ddd;stroke-width:2;stroke-dasharray:3 3"></line>
<line x1="273" y1="1" x2="273" y2="108" style="stroke:#ddd;stroke-width:2;stroke-dasharray:3 3"></line>
<line x1="382" y1="1" x2="382" y2="108" style="stroke:#ddd;stroke-width:2;stroke-dasharray:3 3"></line>
<line x1="491" y1="1" x2="491" y2="108" style="stroke:#ddd;stroke-width:2;stroke-dasharray:3 3"></line>
<line x1="600" y1="1" x2="600" y2="108" style="stroke:#ddd;stroke-width:2;stroke-dasharray:3 3"></line>
<line x1="709" y1="1" x2="709" y2="108" style="stroke:#ddd;stroke-width:2;stroke-dasharray:3 3"></line>
<line x1="818" y1="1" x2="818" y2="108" style="stroke:#ddd;stroke-width:2;stroke-dasharray:3 3"></line>
<line x1="927" y1="1" x2="927" y2="108" style="stroke:#ddd;stroke-width:2;stroke-dasharray:3 3"></line>
<line x1="1036" y1="1" x2="1036" y2="108" style="stroke:#ddd;stroke-width:2;stroke-dasharray:3 3"></line>
<line x1="1145" y1="1" x2="1145" y2="108" style="stroke:#ddd;stroke-width:2;stroke-dasharray:3 3"></line>
<line x1="1254" y1="1" x2="1254" y2="108" style="stroke:#ddd;stroke-width:2;stroke-dasharray:3 3"></line>
<line x1="1363" y1="1" x2="1363" y2="108" style="stroke:#ddd;stroke-width:2;stroke-dasharray:3 3"></line>
<path d="M20.3,16.5c3.13,1.7,8.09,6.99,8.88,9.64" style="fill:none;stroke:#999;stroke-width:3"></path>

<path d="M129.3,16.5c3.13,1.7,8.09,6.99,8.88,9.64" style="fill:none;stroke:#999;stroke-width:3"></path>
<path d="M118.12,33.89c0.71,0.24,3.4,0.28,4.1,0.24c8.73-0.44,17.48-2.79,23.83-3c1.18-0.04,2.95,0.12,3.54,0.24" style="fill:none;stroke:#999;stroke-width:3"></path>

<path d="M238.3,16.5c3.13,1.7,8.09,6.99,8.88,9.64" style="fill:none;stroke:#999;stroke-width:3"></path>
<path d="M227.12,33.89c0.71,0.24,3.4,0.28,4.1,0.24c8.73-0.44,17.48-2.79,23.83-3c1.18-0.04,2.95,0.12,3.54,0.24" style="fill:none;stroke:#999;stroke-width:3"></path>
<path d="M234.18,45.94c0.43,0.13,3.04,0.14,3.47,0.13c4.44-0.14,10.36-1.52,14.84-2.17c0.7-0.1,3.68,0.06,4.04,0.12" style="fill:none;stroke:#999;stroke-width:3"></path>

<path d="M347.3,16.5c3.13,1.7,8.09,6.99,8.88,9.64" style="fill:none;stroke:#999;stroke-width:3"></path>
<path d="M336.12,33.89c0.71,0.24,3.4,0.28,4.1,0.24c8.73-0.44,17.48-2.79,23.83-3c1.18-0.04,2.95,0.12,3.54,0.24" style="fill:none;stroke:#999;stroke-width:3"></path>
<path d="M343.18,45.94c0.43,0.13,3.04,0.14,3.47,0.13c4.44-0.14,10.36-1.52,14.84-2.17c0.7-0.1,3.68,0.06,4.04,0.12" style="fill:none;stroke:#999;stroke-width:3"></path>
<path d="M342.3,60.25c0.38,0.12,2.71,0.14,3.1,0.12c3.97-0.14,12.11-2.37,16.33-2.69c0.63-0.05,3.29,0.06,3.6,0.12" style="fill:none;stroke:#999;stroke-width:3"></path>

<path d="M456.3,16.5c3.13,1.7,8.09,6.99,8.88,9.64" style="fill:none;stroke:#999;stroke-width:3"></path>
<path d="M445.12,33.89c0.71,0.24,3.4,0.28,4.1,0.24c8.73-0.44,17.48-2.79,23.83-3c1.18-0.04,2.95,0.12,3.54,0.24" style="fill:none;stroke:#999;stroke-width:3"></path>
<path d="M452.18,45.94c0.43,0.13,3.04,0.14,3.47,0.13c4.44-0.14,10.36-1.52,14.84-2.17c0.7-0.1,3.68,0.06,4.04,0.12" style="fill:none;stroke:#999;stroke-width:3"></path>
<path d="M451.3,60.25c0.38,0.12,2.71,0.14,3.1,0.12c3.97-0.14,12.11-2.37,16.33-2.69c0.63-0.05,3.29,0.06,3.6,0.12" style="fill:none;stroke:#999;stroke-width:3"></path>
<path d="M451.51,73.39c0.37,0.38,0.78,1.21,0.9,1.71c1.04,4.4,2.84,13.7,3.89,20.15" style="fill:none;stroke:#999;stroke-width:3"></path>

<path d="M565.3,16.5c3.13,1.7,8.09,6.99,8.88,9.64" style="fill:none;stroke:#999;stroke-width:3"></path>
<path d="M554.12,33.89c0.71,0.24,3.4,0.28,4.1,0.24c8.73-0.44,17.48-2.79,23.83-3c1.18-0.04,2.95,0.12,3.54,0.24" style="fill:none;stroke:#999;stroke-width:3"></path>
<path d="M561.1800000000001,45.94c0.43,0.13,3.04,0.14,3.47,0.13c4.44-0.14,10.36-1.52,14.84-2.17c0.7-0.1,3.68,0.06,4.04,0.12" style="fill:none;stroke:#999;stroke-width:3"></path>
<path d="M560.3,60.25c0.38,0.12,2.71,0.14,3.1,0.12c3.97-0.14,12.11-2.37,16.33-2.69c0.63-0.05,3.29,0.06,3.6,0.12" style="fill:none;stroke:#999;stroke-width:3"></path>
<path d="M560.51,73.39c0.37,0.38,0.78,1.21,0.9,1.71c1.04,4.4,2.84,13.7,3.89,20.15" style="fill:none;stroke:#999;stroke-width:3"></path>
<path d="M561.36,75.42c6.77-0.93,13.54-2.72,19.78-3.66c1.57-0.23,2.52,1.08,2.29,2.15c-0.93,4.44-1.28,9.11-2.93,16.5" style="fill:none;stroke:#999;stroke-width:3"></path>

<path d="M674.3,16.5c3.13,1.7,8.09,6.99,8.88,9.64" style="fill:none;stroke:#999;stroke-width:3"></path>
<path d="M663.12,33.89c0.71,0.24,3.4,0.28,4.1,0.24c8.73-0.44,17.48-2.79,23.83-3c1.18-0.04,2.95,0.12,3.54,0.24" style="fill:none;stroke:#999;stroke-width:3"></path>
<path d="M670.1800000000001,45.94c0.43,0.13,3.04,0.14,3.47,0.13c4.44-0.14,10.36-1.52,14.84-2.17c0.7-0.1,3.68,0.06,4.04,0.12" style="fill:none;stroke:#999;stroke-width:3"></path>
<path d="M669.3,60.25c0.38,0.12,2.71,0.14,3.1,0.12c3.97-0.14,12.11-2.37,16.33-2.69c0.63-0.05,3.29,0.06,3.6,0.12" style="fill:none;stroke:#999;stroke-width:3"></path>
<path d="M669.51,73.39c0.37,0.38,0.78,1.21,0.9,1.71c1.04,4.4,2.84,13.7,3.89,20.15" style="fill:none;stroke:#999;stroke-width:3"></path>
<path d="M670.36,75.42c6.77-0.93,13.54-2.72,19.78-3.66c1.57-0.23,2.52,1.08,2.29,2.15c-0.93,4.44-1.28,9.11-2.93,16.5" style="fill:none;stroke:#999;stroke-width:3"></path>
<path d="M675.1,92.88c5.05-0.57,10.04-1.02,16.97-1.89" style="fill:none;stroke:#999;stroke-width:3"></path>

<path d="M783.3,16.5c3.13,1.7,8.09,6.99,8.88,9.64" style="fill:none;stroke:#999;stroke-width:3"></path>
<path d="M772.12,33.89c0.71,0.24,3.4,0.28,4.1,0.24c8.73-0.44,17.48-2.79,23.83-3c1.18-0.04,2.95,0.12,3.54,0.24" style="fill:none;stroke:#999;stroke-width:3"></path>
<path d="M779.1800000000001,45.94c0.43,0.13,3.04,0.14,3.47,0.13c4.44-0.14,10.36-1.52,14.84-2.17c0.7-0.1,3.68,0.06,4.04,0.12" style="fill:none;stroke:#999;stroke-width:3"></path>
<path d="M778.3,60.25c0.38,0.12,2.71,0.14,3.1,0.12c3.97-0.14,12.11-2.37,16.33-2.69c0.63-0.05,3.29,0.06,3.6,0.12" style="fill:none;stroke:#999;stroke-width:3"></path>
<path d="M778.51,73.39c0.37,0.38,0.78,1.21,0.9,1.71c1.04,4.4,2.84,13.7,3.89,20.15" style="fill:none;stroke:#999;stroke-width:3"></path>
<path d="M779.36,75.42c6.77-0.93,13.54-2.72,19.78-3.66c1.57-0.23,2.52,1.08,2.29,2.15c-0.93,4.44-1.28,9.11-2.93,16.5" style="fill:none;stroke:#999;stroke-width:3"></path>
<path d="M784.1,92.88c5.05-0.57,10.04-1.02,16.97-1.89" style="fill:none;stroke:#999;stroke-width:3"></path>
<path d="M820.54,18.91c0.71,1.56,1.39,3.51,1.39,4.72c0,7.64,0.06,21.73,0.06,30.15c0,20.84-7.27,31.87-16.59,39.4" style="fill:none;stroke:#999;stroke-width:3"></path>

<path d="M892.3,16.5c3.13,1.7,8.09,6.99,8.88,9.64" style="fill:none;stroke:#999;stroke-width:3"></path>
<path d="M881.12,33.89c0.71,0.24,3.4,0.28,4.1,0.24c8.73-0.44,17.48-2.79,23.83-3c1.18-0.04,2.95,0.12,3.54,0.24" style="fill:none;stroke:#999;stroke-width:3"></path>
<path d="M888.1800000000001,45.94c0.43,0.13,3.04,0.14,3.47,0.13c4.44-0.14,10.36-1.52,14.84-2.17c0.7-0.1,3.68,0.06,4.04,0.12" style="fill:none;stroke:#999;stroke-width:3"></path>
<path d="M887.3,60.25c0.38,0.12,2.71,0.14,3.1,0.12c3.97-0.14,12.11-2.37,16.33-2.69c0.63-0.05,3.29,0.06,3.6,0.12" style="fill:none;stroke:#999;stroke-width:3"></path>
<path d="M887.51,73.39c0.37,0.38,0.78,1.21,0.9,1.71c1.04,4.4,2.84,13.7,3.89,20.15" style="fill:none;stroke:#999;stroke-width:3"></path>
<path d="M888.36,75.42c6.77-0.93,13.54-2.72,19.78-3.66c1.57-0.23,2.52,1.08,2.29,2.15c-0.93,4.44-1.28,9.11-2.93,16.5" style="fill:none;stroke:#999;stroke-width:3"></path>
<path d="M893.1,92.88c5.05-0.57,10.04-1.02,16.97-1.89" style="fill:none;stroke:#999;stroke-width:3"></path>
<path d="M929.54,18.91c0.71,1.56,1.39,3.51,1.39,4.72c0,7.64,0.06,21.73,0.06,30.15c0,20.84-7.27,31.87-16.59,39.4" style="fill:none;stroke:#999;stroke-width:3"></path>
<path d="M915.91,38.06c3.42,1.69,8.84,6.94,9.7,9.57" style="fill:none;stroke:#999;stroke-width:3"></path>

<path d="M1001.3,16.5c3.13,1.7,8.09,6.99,8.88,9.64" style="fill:none;stroke:#999;stroke-width:3"></path>
<path d="M990.12,33.89c0.71,0.24,3.4,0.28,4.1,0.24c8.73-0.44,17.48-2.79,23.83-3c1.18-0.04,2.95,0.12,3.54,0.24" style="fill:none;stroke:#999;stroke-width:3"></path>
<path d="M997.1800000000001,45.94c0.43,0.13,3.04,0.14,3.47,0.13c4.44-0.14,10.36-1.52,14.84-2.17c0.7-0.1,3.68,0.06,4.04,0.12" style="fill:none;stroke:#999;stroke-width:3"></path>
<path d="M996.3,60.25c0.38,0.12,2.71,0.14,3.1,0.12c3.97-0.14,12.11-2.37,16.33-2.69c0.63-0.05,3.29,0.06,3.6,0.12" style="fill:none;stroke:#999;stroke-width:3"></path>
<path d="M996.51,73.39c0.37,0.38,0.78,1.21,0.9,1.71c1.04,4.4,2.84,13.7,3.89,20.15" style="fill:none;stroke:#999;stroke-width:3"></path>
<path d="M997.36,75.42c6.77-0.93,13.54-2.72,19.78-3.66c1.57-0.23,2.52,1.08,2.29,2.15c-0.93,4.44-1.28,9.11-2.93,16.5" style="fill:none;stroke:#999;stroke-width:3"></path>
<path d="M1002.1,92.88c5.05-0.57,10.04-1.02,16.97-1.89" style="fill:none;stroke:#999;stroke-width:3"></path>
<path d="M1038.54,18.91c0.71,1.56,1.39,3.51,1.39,4.72c0,7.64,0.06,21.73,0.06,30.15c0,20.84-7.27,31.87-16.59,39.4" style="fill:none;stroke:#999;stroke-width:3"></path>
<path d="M1024.9099999999999,38.06c3.42,1.69,8.84,6.94,9.7,9.57" style="fill:none;stroke:#999;stroke-width:3"></path>
<path d="M1023.61,67.79c0.95,0.45,1.9,0.59,2.62,0.09c1-0.7,8.17-6.48,12.08-9.85" style="fill:none;stroke:#999;stroke-width:3"></path>

<path d="M1110.3,16.5c3.13,1.7,8.09,6.99,8.88,9.64" style="fill:none;stroke:#999;stroke-width:3"></path>
<path d="M1099.12,33.89c0.71,0.24,3.4,0.28,4.1,0.24c8.73-0.44,17.48-2.79,23.83-3c1.18-0.04,2.95,0.12,3.54,0.24" style="fill:none;stroke:#999;stroke-width:3"></path>
<path d="M1106.18,45.94c0.43,0.13,3.04,0.14,3.47,0.13c4.44-0.14,10.36-1.52,14.84-2.17c0.7-0.1,3.68,0.06,4.04,0.12" style="fill:none;stroke:#999;stroke-width:3"></path>
<path d="M1105.3,60.25c0.38,0.12,2.71,0.14,3.1,0.12c3.97-0.14,12.11-2.37,16.33-2.69c0.63-0.05,3.29,0.06,3.6,0.12" style="fill:none;stroke:#999;stroke-width:3"></path>
<path d="M1105.51,73.39c0.37,0.38,0.78,1.21,0.9,1.71c1.04,4.4,2.84,13.7,3.89,20.15" style="fill:none;stroke:#999;stroke-width:3"></path>
<path d="M1106.3600000000001,75.42c6.77-0.93,13.54-2.72,19.78-3.66c1.57-0.23,2.52,1.08,2.29,2.15c-0.93,4.44-1.28,9.11-2.93,16.5" style="fill:none;stroke:#999;stroke-width:3"></path>
<path d="M1111.1,92.88c5.05-0.57,10.04-1.02,16.97-1.89" style="fill:none;stroke:#999;stroke-width:3"></path>
<path d="M1147.54,18.91c0.71,1.56,1.39,3.51,1.39,4.72c0,7.64,0.06,21.73,0.06,30.15c0,20.84-7.27,31.87-16.59,39.4" style="fill:none;stroke:#999;stroke-width:3"></path>
<path d="M1133.9099999999999,38.06c3.42,1.69,8.84,6.94,9.7,9.57" style="fill:none;stroke:#999;stroke-width:3"></path>
<path d="M1132.6100000000001,67.79c0.95,0.45,1.9,0.59,2.62,0.09c1-0.7,8.17-6.48,12.08-9.85" style="fill:none;stroke:#999;stroke-width:3"></path>
<path d="M1160.28,14.69c1.01,1.08,1.51,2.86,1.55,4.53c0.15,7.44-0.02,57.03-0.02,62.09c0,11.81,3.91,10.93,12.68,10.93c10.72,0,12.02-1.76,12.02-8.8" style="fill:none;stroke:#999;stroke-width:3"></path>

<path d="M1219.3,16.5c3.13,1.7,8.09,6.99,8.88,9.64" style="fill:none;stroke:#999;stroke-width:3"></path>
<path d="M1208.12,33.89c0.71,0.24,3.4,0.28,4.1,0.24c8.73-0.44,17.48-2.79,23.83-3c1.18-0.04,2.95,0.12,3.54,0.24" style="fill:none;stroke:#999;stroke-width:3"></path>
<path d="M1215.18,45.94c0.43,0.13,3.04,0.14,3.47,0.13c4.44-0.14,10.36-1.52,14.84-2.17c0.7-0.1,3.68,0.06,4.04,0.12" style="fill:none;stroke:#999;stroke-width:3"></path>
<path d="M1214.3,60.25c0.38,0.12,2.71,0.14,3.1,0.12c3.97-0.14,12.11-2.37,16.33-2.69c0.63-0.05,3.29,0.06,3.6,0.12" style="fill:none;stroke:#999;stroke-width:3"></path>
<path d="M1214.51,73.39c0.37,0.38,0.78,1.21,0.9,1.71c1.04,4.4,2.84,13.7,3.89,20.15" style="fill:none;stroke:#999;stroke-width:3"></path>
<path d="M1215.3600000000001,75.42c6.77-0.93,13.54-2.72,19.78-3.66c1.57-0.23,2.52,1.08,2.29,2.15c-0.93,4.44-1.28,9.11-2.93,16.5" style="fill:none;stroke:#999;stroke-width:3"></path>
<path d="M1220.1,92.88c5.05-0.57,10.04-1.02,16.97-1.89" style="fill:none;stroke:#999;stroke-width:3"></path>
<path d="M1256.54,18.91c0.71,1.56,1.39,3.51,1.39,4.72c0,7.64,0.06,21.73,0.06,30.15c0,20.84-7.27,31.87-16.59,39.4" style="fill:none;stroke:#999;stroke-width:3"></path>
<path d="M1242.9099999999999,38.06c3.42,1.69,8.84,6.94,9.7,9.57" style="fill:none;stroke:#999;stroke-width:3"></path>
<path d="M1241.6100000000001,67.79c0.95,0.45,1.9,0.59,2.62,0.09c1-0.7,8.17-6.48,12.08-9.85" style="fill:none;stroke:#999;stroke-width:3"></path>
<path d="M1269.28,14.69c1.01,1.08,1.51,2.86,1.55,4.53c0.15,7.44-0.02,57.03-0.02,62.09c0,11.81,3.91,10.93,12.68,10.93c10.72,0,12.02-1.76,12.02-8.8" style="fill:none;stroke:#999;stroke-width:3"></path>
<path d="M1289.14,30.75c0.04,0.36,0.09,0.94-0.08,1.46c-1.04,3.07-6.98,9.81-15.11,13.94" style="fill:none;stroke:#999;stroke-width:3"></path>

<path d="M1328.3,16.5c3.13,1.7,8.09,6.99,8.88,9.64" style="fill:none;stroke:#999;stroke-width:3"></path>
<path d="M1317.12,33.89c0.71,0.24,3.4,0.28,4.1,0.24c8.73-0.44,17.48-2.79,23.83-3c1.18-0.04,2.95,0.12,3.54,0.24" style="fill:none;stroke:#999;stroke-width:3"></path>
<path d="M1324.18,45.94c0.43,0.13,3.04,0.14,3.47,0.13c4.44-0.14,10.36-1.52,14.84-2.17c0.7-0.1,3.68,0.06,4.04,0.12" style="fill:none;stroke:#999;stroke-width:3"></path>
<path d="M1323.3,60.25c0.38,0.12,2.71,0.14,3.1,0.12c3.97-0.14,12.11-2.37,16.33-2.69c0.63-0.05,3.29,0.06,3.6,0.12" style="fill:none;stroke:#999;stroke-width:3"></path>
<path d="M1323.51,73.39c0.37,0.38,0.78,1.21,0.9,1.71c1.04,4.4,2.84,13.7,3.89,20.15" style="fill:none;stroke:#999;stroke-width:3"></path>
<path d="M1324.3600000000001,75.42c6.77-0.93,13.54-2.72,19.78-3.66c1.57-0.23,2.52,1.08,2.29,2.15c-0.93,4.44-1.28,9.11-2.93,16.5" style="fill:none;stroke:#999;stroke-width:3"></path>
<path d="M1329.1,92.88c5.05-0.57,10.04-1.02,16.97-1.89" style="fill:none;stroke:#999;stroke-width:3"></path>
<path d="M1365.54,18.91c0.71,1.56,1.39,3.51,1.39,4.72c0,7.64,0.06,21.73,0.06,30.15c0,20.84-7.27,31.87-16.59,39.4" style="fill:none;stroke:#999;stroke-width:3"></path>
<path d="M1351.9099999999999,38.06c3.42,1.69,8.84,6.94,9.7,9.57" style="fill:none;stroke:#999;stroke-width:3"></path>
<path d="M1350.6100000000001,67.79c0.95,0.45,1.9,0.59,2.62,0.09c1-0.7,8.17-6.48,12.08-9.85" style="fill:none;stroke:#999;stroke-width:3"></path>
<path d="M1378.28,14.69c1.01,1.08,1.51,2.86,1.55,4.53c0.15,7.44-0.02,57.03-0.02,62.09c0,11.81,3.91,10.93,12.68,10.93c10.72,0,12.02-1.76,12.02-8.8" style="fill:none;stroke:#999;stroke-width:3"></path>
<path d="M1398.14,30.75c0.04,0.36,0.09,0.94-0.08,1.46c-1.04,3.07-6.98,9.81-15.11,13.94" style="fill:none;stroke:#999;stroke-width:3"></path>
<path d="M1383.2,50.77c6.42,2.62,16.59,10.76,18.2,14.84" style="fill:none;stroke:#999;stroke-width:3"></path>

</svg>