<svg width="1526px" height="109px" viewBox="0 0 1526 109" xmlns="http://www.w3.org/2000/svg" xmlns:xlink="http://www.w3.org/1999/xlink" xml:space="preserve" version="1.1" baseProfile="full">
<line x1="1" y1="1" x2="1525" y2="1" style="stroke:#ddd;stroke-width:2"></line>
<line x1="1" y1="1" x2="1" y2="108" style="stroke:#ddd;stroke-width:2"></line>
<line x1="1" y1="108" x2="1525" y2="108" style="stroke:#ddd;stroke-width:2"></line>
<line x1="1525" y1="1" x2="1525" y2="108" style="stroke:#ddd;stroke-width:2"></line>
<line x1="109" y1="1" x2="109" y2="108" style="stroke:#ddd;stroke-width:2"></line>
<line x1="218" y1="1" x2="218" y2="108" style="stroke:#ddd;stroke-width:2"></line>
<line x1="327" y1="1" x2="327" y2="108" style="stroke:#ddd;stroke-width:2"></line>
<line x1="436" y1="1" x2="436" y2="108" style="stroke:#ddd;stroke-width:2"></line>
<line x1="545" y1="1" x2="545" y2="108" style="stroke:#ddd;stroke-width:2"></line>
<line x1="654" y1="1" x2="654" y2="108" style="stroke:#ddd;stroke-width:2"></line>
<line x1="763" y1="1" x2="763" y2="108" style="stroke:#ddd;stroke-width:2"></line>
<line x1="872" y1="1" x2="872" y2="108" style="stroke:#ddd;stroke-width:2"></line>
<line x1="981" y1="1" x2="981" y2="108" style="stroke:#ddd;stroke-width:2"></line>
<line x1="1090" y1="1" x2="1090" y2="108" style="stroke:#ddd;stroke-width:2"></line>
<line x1="1199" y1="1" x2="1199" y2="108" style="stroke:#ddd;stroke-width:2"></line>
<line x1="1308" y1="1" x2="1308" y2="108" style="stroke:#ddd;stroke-width:2"></line>
<line x1="1417" y1="1" x2="1417" y2="108" style="stroke:#ddd;stroke-width:2"></line>
<line x1="1" y1="54" x2="1525" y2="54" style="stroke:#ddd;stroke-width:2;stroke-dasharray:3 3"></line>
<line x1="55" y1="1" x2="55" y2="108" style="stroke:#ddd;stroke-width:2;stroke-dasharray:3 3"></line>
<line x1="164" y1="1" x2="164" y2="108" style="stroke:#ddd;stroke-width:2;stroke-dasharray:3 3"></line>
<line x1="273" y1="1" x2="273" y2="108" style="stroke:#ddd;stroke-width:2;stroke-dasharray:3 3"></line>
<line x1="382" y1="1" x2="382" y2="108" style="stroke:#ddd;stroke-width:2;stroke-dasharray:3 3"></line>
<line x1="491" y1="1" x2="491" y2="108" style="stroke:#ddd;stroke-width:2;stroke-dasharray:3 3"></line>
<line x1="600" y1="1" x2="600" y2="108" style="stroke:#ddd;stroke-width:2;stroke-dasharray:3 3"></line>
<line x1="709" y1="1" x2="709" y2="108" style="stroke:#ddd;stroke-width:2;stroke-dasharray:3 3"></line>
<line x1="818" y1="1" x2="818" y2="108" style="stroke:#ddd;stroke-width:2;stroke-dasharray:3 3"></line>
<line x1="927" y1="1" x2="927" y2="108" style="stroke:#ddd;stroke-width:2;stroke-dasharray:3 3"></line>
<line x1="1036" y1="1" x2="1036" y2="108" style="stroke:#ddd;stroke-width:2;stroke-dasharray:3 3"></line>
<line x1="1145" y1="1" x2="1145" y2="108" style="stroke:#ddd;stroke-width:2;stroke-dasharray:3 3"></line>
<line x1="1254" y1="1" x2="1254" y2="108" style="stroke:#ddd;stroke-width:2;stroke-dasharray:3 3"></line>
<line x1="1363" y1="1" x2="1363" y2="108" style="stroke:#ddd;stroke-width:2;stroke-dasharray:3 3"></line>
<line x1="1472" y1="1" x2="1472" y2="108" style="stroke:#ddd;stroke-width:2;stroke-dasharray:3 3"></line>
<path d="M20.8,16c3.13,1.72,8.09,7.07,8.88,9.75" style="fill:none;stroke:#999;stroke-width:3"></path>

<path d="M129.8,16c3.13,1.72,8.09,7.07,8.88,9.75" style="fill:none;stroke:#999;stroke-width:3"></path>
<path d="M118.62,35.08c0.71,0.23,3.4,0.27,4.1,0.23c8.73-0.42,17.48-3.17,23.83-3.37c1.18-0.04,2.95,0.11,3.54,0.23" style="fill:none;stroke:#999;stroke-width:3"></path>

<path d="M238.8,16c3.13,1.72,8.09,7.07,8.88,9.75" style="fill:none;stroke:#999;stroke-width:3"></path>
<path d="M227.62,35.08c0.71,0.23,3.4,0.27,4.1,0.23c8.73-0.42,17.48-3.17,23.83-3.37c1.18-0.04,2.95,0.11,3.54,0.23" style="fill:none;stroke:#999;stroke-width:3"></path>
<path d="M234.18,48.56c0.43,0.12,3.04,0.13,3.47,0.12c4.44-0.14,9.86-1.43,14.34-2.05c0.7-0.1,2.68-0.44,3.04-0.38" style="fill:none;stroke:#999;stroke-width:3"></path>

<path d="M347.8,16c3.13,1.72,8.09,7.07,8.88,9.75" style="fill:none;stroke:#999;stroke-width:3"></path>
<path d="M336.62,35.08c0.71,0.23,3.4,0.27,4.1,0.23c8.73-0.42,17.48-3.17,23.83-3.37c1.18-0.04,2.95,0.11,3.54,0.23" style="fill:none;stroke:#999;stroke-width:3"></path>
<path d="M343.18,48.56c0.43,0.12,3.04,0.13,3.47,0.12c4.44-0.14,9.86-1.43,14.34-2.05c0.7-0.1,2.68-0.44,3.04-0.38" style="fill:none;stroke:#999;stroke-width:3"></path>
<path d="M342.8,61.33c0.38,0.12,2.71,0.13,3.1,0.12c3.97-0.13,10.36-1.2,15.33-2.09c0.62-0.11,2.79,0.06,3.1,0.11" style="fill:none;stroke:#999;stroke-width:3"></path>

<path d="M456.8,16c3.13,1.72,8.09,7.07,8.88,9.75" style="fill:none;stroke:#999;stroke-width:3"></path>
<path d="M445.62,35.08c0.71,0.23,3.4,0.27,4.1,0.23c8.73-0.42,17.48-3.17,23.83-3.37c1.18-0.04,2.95,0.11,3.54,0.23" style="fill:none;stroke:#999;stroke-width:3"></path>
<path d="M452.18,48.56c0.43,0.12,3.04,0.13,3.47,0.12c4.44-0.14,9.86-1.43,14.34-2.05c0.7-0.1,2.68-0.44,3.04-0.38" style="fill:none;stroke:#999;stroke-width:3"></path>
<path d="M451.8,61.33c0.38,0.12,2.71,0.13,3.1,0.12c3.97-0.13,10.36-1.2,15.33-2.09c0.62-0.11,2.79,0.06,3.1,0.11" style="fill:none;stroke:#999;stroke-width:3"></path>
<path d="M451.01,74.69c0.36,0.33,0.76,1.04,0.87,1.47c1.01,3.77,2.75,12.55,3.77,18.09" style="fill:none;stroke:#999;stroke-width:3"></path>

<path d="M565.8,16c3.13,1.72,8.09,7.07,8.88,9.75" style="fill:none;stroke:#999;stroke-width:3"></path>
<path d="M554.62,35.08c0.71,0.23,3.4,0.27,4.1,0.23c8.73-0.42,17.48-3.17,23.83-3.37c1.18-0.04,2.95,0.11,3.54,0.23" style="fill:none;stroke:#999;stroke-width:3"></path>
<path d="M561.1800000000001,48.56c0.43,0.12,3.04,0.13,3.47,0.12c4.44-0.14,9.86-1.43,14.34-2.05c0.7-0.1,2.68-0.44,3.04-0.38" style="fill:none;stroke:#999;stroke-width:3"></path>
<path d="M560.8,61.33c0.38,0.12,2.71,0.13,3.1,0.12c3.97-0.13,10.36-1.2,15.33-2.09c0.62-0.11,2.79,0.06,3.1,0.11" style="fill:none;stroke:#999;stroke-width:3"></path>
<path d="M560.01,74.69c0.36,0.33,0.76,1.04,0.87,1.47c1.01,3.77,2.75,12.55,3.77,18.09" style="fill:none;stroke:#999;stroke-width:3"></path>
<path d="M561.31,76.01c6.56-0.8,13.6-3.33,19.65-4.14c1.52-0.2,2.43,0.93,2.22,1.85c-0.9,3.81-1.74,8.32-3.34,14.67" style="fill:none;stroke:#999;stroke-width:3"></path>

<path d="M674.8,16c3.13,1.72,8.09,7.07,8.88,9.75" style="fill:none;stroke:#999;stroke-width:3"></path>
<path d="M663.62,35.08c0.71,0.23,3.4,0.27,4.1,0.23c8.73-0.42,17.48-3.17,23.83-3.37c1.18-0.04,2.95,0.11,3.54,0.23" style="fill:none;stroke:#999;stroke-width:3"></path>
<path d="M670.1800000000001,48.56c0.43,0.12,3.04,0.13,3.47,0.12c4.44-0.14,9.86-1.43,14.34-2.05c0.7-0.1,2.68-0.44,3.04-0.38" style="fill:none;stroke:#999;stroke-width:3"></path>
<path d="M669.8,61.33c0.38,0.12,2.71,0.13,3.1,0.12c3.97-0.13,10.36-1.2,15.33-2.09c0.62-0.11,2.79,0.06,3.1,0.11" style="fill:none;stroke:#999;stroke-width:3"></path>
<path d="M669.01,74.69c0.36,0.33,0.76,1.04,0.87,1.47c1.01,3.77,2.75,12.55,3.77,18.09" style="fill:none;stroke:#999;stroke-width:3"></path>
<path d="M670.31,76.01c6.56-0.8,13.6-3.33,19.65-4.14c1.52-0.2,2.43,0.93,2.22,1.85c-0.9,3.81-1.74,8.32-3.34,14.67" style="fill:none;stroke:#999;stroke-width:3"></path>
<path d="M673.94,90.93c4.89-0.49,9.72-0.87,16.43-1.62" style="fill:none;stroke:#999;stroke-width:3"></path>

<path d="M783.8,16c3.13,1.72,8.09,7.07,8.88,9.75" style="fill:none;stroke:#999;stroke-width:3"></path>
<path d="M772.62,35.08c0.71,0.23,3.4,0.27,4.1,0.23c8.73-0.42,17.48-3.17,23.83-3.37c1.18-0.04,2.95,0.11,3.54,0.23" style="fill:none;stroke:#999;stroke-width:3"></path>
<path d="M779.1800000000001,48.56c0.43,0.12,3.04,0.13,3.47,0.12c4.44-0.14,9.86-1.43,14.34-2.05c0.7-0.1,2.68-0.44,3.04-0.38" style="fill:none;stroke:#999;stroke-width:3"></path>
<path d="M778.8,61.33c0.38,0.12,2.71,0.13,3.1,0.12c3.97-0.13,10.36-1.2,15.33-2.09c0.62-0.11,2.79,0.06,3.1,0.11" style="fill:none;stroke:#999;stroke-width:3"></path>
<path d="M778.01,74.69c0.36,0.33,0.76,1.04,0.87,1.47c1.01,3.77,2.75,12.55,3.77,18.09" style="fill:none;stroke:#999;stroke-width:3"></path>
<path d="M779.31,76.01c6.56-0.8,13.6-3.33,19.65-4.14c1.52-0.2,2.43,0.93,2.22,1.85c-0.9,3.81-1.74,8.32-3.34,14.67" style="fill:none;stroke:#999;stroke-width:3"></path>
<path d="M782.94,90.93c4.89-0.49,9.72-0.87,16.43-1.62" style="fill:none;stroke:#999;stroke-width:3"></path>
<path d="M811.85,18.13c1.06,0.45,2.5,0.86,3.71,0.82c1.38-0.05,22.02-4.51,29.01-4.96c2.9-0.19,2.68,1.68,1.37,3.05c-0.99,1.03-11.69,10.2-15.45,12.99" style="fill:none;stroke:#999;stroke-width:3"></path>

<path d="M892.8,16c3.13,1.72,8.09,7.07,8.88,9.75" style="fill:none;stroke:#999;stroke-width:3"></path>
<path d="M881.62,35.08c0.71,0.23,3.4,0.27,4.1,0.23c8.73-0.42,17.48-3.17,23.83-3.37c1.18-0.04,2.95,0.11,3.54,0.23" style="fill:none;stroke:#999;stroke-width:3"></path>
<path d="M888.1800000000001,48.56c0.43,0.12,3.04,0.13,3.47,0.12c4.44-0.14,9.86-1.43,14.34-2.05c0.7-0.1,2.68-0.44,3.04-0.38" style="fill:none;stroke:#999;stroke-width:3"></path>
<path d="M887.8,61.33c0.38,0.12,2.71,0.13,3.1,0.12c3.97-0.13,10.36-1.2,15.33-2.09c0.62-0.11,2.79,0.06,3.1,0.11" style="fill:none;stroke:#999;stroke-width:3"></path>
<path d="M887.01,74.69c0.36,0.33,0.76,1.04,0.87,1.47c1.01,3.77,2.75,12.55,3.77,18.09" style="fill:none;stroke:#999;stroke-width:3"></path>
<path d="M888.31,76.01c6.56-0.8,13.6-3.33,19.65-4.14c1.52-0.2,2.43,0.93,2.22,1.85c-0.9,3.81-1.74,8.32-3.34,14.67" style="fill:none;stroke:#999;stroke-width:3"></path>
<path d="M891.94,90.93c4.89-0.49,9.72-0.87,16.43-1.62" style="fill:none;stroke:#999;stroke-width:3"></path>
<path d="M920.85,18.13c1.06,0.45,2.5,0.86,3.71,0.82c1.38-0.05,22.02-4.51,29.01-4.96c2.9-0.19,2.68,1.68,1.37,3.05c-0.99,1.03-11.69,10.2-15.45,12.99" style="fill:none;stroke:#999;stroke-width:3"></path>
<path d="M931.02,24.03c2.89,1.57,10.38,7.58,11.74,11.68" style="fill:none;stroke:#999;stroke-width:3"></path>

<path d="M1001.8,16c3.13,1.72,8.09,7.07,8.88,9.75" style="fill:none;stroke:#999;stroke-width:3"></path>
<path d="M990.62,35.08c0.71,0.23,3.4,0.27,4.1,0.23c8.73-0.42,17.48-3.17,23.83-3.37c1.18-0.04,2.95,0.11,3.54,0.23" style="fill:none;stroke:#999;stroke-width:3"></path>
<path d="M997.1800000000001,48.56c0.43,0.12,3.04,0.13,3.47,0.12c4.44-0.14,9.86-1.43,14.34-2.05c0.7-0.1,2.68-0.44,3.04-0.38" style="fill:none;stroke:#999;stroke-width:3"></path>
<path d="M996.8,61.33c0.38,0.12,2.71,0.13,3.1,0.12c3.97-0.13,10.36-1.2,15.33-2.09c0.62-0.11,2.79,0.06,3.1,0.11" style="fill:none;stroke:#999;stroke-width:3"></path>
<path d="M996.01,74.69c0.36,0.33,0.76,1.04,0.87,1.47c1.01,3.77,2.75,12.55,3.77,18.09" style="fill:none;stroke:#999;stroke-width:3"></path>
<path d="M997.31,76.01c6.56-0.8,13.6-3.33,19.65-4.14c1.52-0.2,2.43,0.93,2.22,1.85c-0.9,3.81-1.74,8.32-3.34,14.67" style="fill:none;stroke:#999;stroke-width:3"></path>
<path d="M1000.94,90.93c4.89-0.49,9.72-0.87,16.43-1.62" style="fill:none;stroke:#999;stroke-width:3"></path>
<path d="M1029.85,18.13c1.06,0.45,2.5,0.86,3.71,0.82c1.38-0.05,22.02-4.51,29.01-4.96c2.9-0.19,2.68,1.68,1.37,3.05c-0.99,1.03-11.69,10.2-15.45,12.99" style="fill:none;stroke:#999;stroke-width:3"></path>
<path d="M1040.02,24.03c2.89,1.57,10.38,7.58,11.74,11.68" style="fill:none;stroke:#999;stroke-width:3"></path>
<path d="M1030.07,40.02c0.55,0.68,0.91,1.36,1.09,2.05c0.18,0.68,0.18,51,0.18,52.53" style="fill:none;stroke:#999;stroke-width:3"></path>

<path d="M1110.8,16c3.13,1.72,8.09,7.07,8.88,9.75" style="fill:none;stroke:#999;stroke-width:3"></path>
<path d="M1099.62,35.08c0.71,0.23,3.4,0.27,4.1,0.23c8.73-0.42,17.48-3.17,23.83-3.37c1.18-0.04,2.95,0.11,3.54,0.23" style="fill:none;stroke:#999;stroke-width:3"></path>
<path d="M1106.18,48.56c0.43,0.12,3.04,0.13,3.47,0.12c4.44-0.14,9.86-1.43,14.34-2.05c0.7-0.1,2.68-0.44,3.04-0.38" style="fill:none;stroke:#999;stroke-width:3"></path>
<path d="M1105.8,61.33c0.38,0.12,2.71,0.13,3.1,0.12c3.97-0.13,10.36-1.2,15.33-2.09c0.62-0.11,2.79,0.06,3.1,0.11" style="fill:none;stroke:#999;stroke-width:3"></path>
<path d="M1105.01,74.69c0.36,0.33,0.76,1.04,0.87,1.47c1.01,3.77,2.75,12.55,3.77,18.09" style="fill:none;stroke:#999;stroke-width:3"></path>
<path d="M1106.31,76.01c6.56-0.8,13.6-3.33,19.65-4.14c1.52-0.2,2.43,0.93,2.22,1.85c-0.9,3.81-1.74,8.32-3.34,14.67" style="fill:none;stroke:#999;stroke-width:3"></path>
<path d="M1109.94,90.93c4.89-0.49,9.72-0.87,16.43-1.62" style="fill:none;stroke:#999;stroke-width:3"></path>
<path d="M1138.85,18.13c1.06,0.45,2.5,0.86,3.71,0.82c1.38-0.05,22.02-4.51,29.01-4.96c2.9-0.19,2.68,1.68,1.37,3.05c-0.99,1.03-11.69,10.2-15.45,12.99" style="fill:none;stroke:#999;stroke-width:3"></path>
<path d="M1149.02,24.03c2.89,1.57,10.38,7.58,11.74,11.68" style="fill:none;stroke:#999;stroke-width:3"></path>
<path d="M1139.07,40.02c0.55,0.68,0.91,1.36,1.09,2.05c0.18,0.68,0.18,51,0.18,52.53" style="fill:none;stroke:#999;stroke-width:3"></path>
<path d="M1140.26,41.36c6.28-0.28,36.91-4.57,38.58-4.76c2.98-0.34,4.1,2.22,3.73,3.24c-0.36,0.98-0.56,36.93-0.56,50.74c0,9.99-5.83,1.47-7.02,0.88" style="fill:none;stroke:#999;stroke-width:3"></path>

<path d="M1219.8,16c3.13,1.72,8.09,7.07,8.88,9.75" style="fill:none;stroke:#999;stroke-width:3"></path>
<path d="M1208.62,35.08c0.71,0.23,3.4,0.27,4.1,0.23c8.73-0.42,17.48-3.17,23.83-3.37c1.18-0.04,2.95,0.11,3.54,0.23" style="fill:none;stroke:#999;stroke-width:3"></path>
<path d="M1215.18,48.56c0.43,0.12,3.04,0.13,3.47,0.12c4.44-0.14,9.86-1.43,14.34-2.05c0.7-0.1,2.68-0.44,3.04-0.38" style="fill:none;stroke:#999;stroke-width:3"></path>
<path d="M1214.8,61.33c0.38,0.12,2.71,0.13,3.1,0.12c3.97-0.13,10.36-1.2,15.33-2.09c0.62-0.11,2.79,0.06,3.1,0.11" style="fill:none;stroke:#999;stroke-width:3"></path>
<path d="M1214.01,74.69c0.36,0.33,0.76,1.04,0.87,1.47c1.01,3.77,2.75,12.55,3.77,18.09" style="fill:none;stroke:#999;stroke-width:3"></path>
<path d="M1215.31,76.01c6.56-0.8,13.6-3.33,19.65-4.14c1.52-0.2,2.43,0.93,2.22,1.85c-0.9,3.81-1.74,8.32-3.34,14.67" style="fill:none;stroke:#999;stroke-width:3"></path>
<path d="M1218.94,90.93c4.89-0.49,9.72-0.87,16.43-1.62" style="fill:none;stroke:#999;stroke-width:3"></path>
<path d="M1247.85,18.13c1.06,0.45,2.5,0.86,3.71,0.82c1.38-0.05,22.02-4.51,29.01-4.96c2.9-0.19,2.68,1.68,1.37,3.05c-0.99,1.03-11.69,10.2-15.45,12.99" style="fill:none;stroke:#999;stroke-width:3"></path>
<path d="M1258.02,24.03c2.89,1.57,10.38,7.58,11.74,11.68" style="fill:none;stroke:#999;stroke-width:3"></path>
<path d="M1248.07,40.02c0.55,0.68,0.91,1.36,1.09,2.05c0.18,0.68,0.18,51,0.18,52.53" style="fill:none;stroke:#999;stroke-width:3"></path>
<path d="M1249.26,41.36c6.28-0.28,36.91-4.57,38.58-4.76c2.98-0.34,4.1,2.22,3.73,3.24c-0.36,0.98-0.56,36.93-0.56,50.74c0,9.99-5.83,1.47-7.02,0.88" style="fill:none;stroke:#999;stroke-width:3"></path>
<path d="M1250.26,54.68c8.31-0.6,32.29-2.58,39-3.09" style="fill:none;stroke:#999;stroke-width:3"></path>

<path d="M1328.8,16c3.13,1.72,8.09,7.07,8.88,9.75" style="fill:none;stroke:#999;stroke-width:3"></path>
<path d="M1317.62,35.08c0.71,0.23,3.4,0.27,4.1,0.23c8.73-0.42,17.48-3.17,23.83-3.37c1.18-0.04,2.95,0.11,3.54,0.23" style="fill:none;stroke:#999;stroke-width:3"></path>
<path d="M1324.18,48.56c0.43,0.12,3.04,0.13,3.47,0.12c4.44-0.14,9.86-1.43,14.34-2.05c0.7-0.1,2.68-0.44,3.04-0.38" style="fill:none;stroke:#999;stroke-width:3"></path>
<path d="M1323.8,61.33c0.38,0.12,2.71,0.13,3.1,0.12c3.97-0.13,10.36-1.2,15.33-2.09c0.62-0.11,2.79,0.06,3.1,0.11" style="fill:none;stroke:#999;stroke-width:3"></path>
<path d="M1323.01,74.69c0.36,0.33,0.76,1.04,0.87,1.47c1.01,3.77,2.75,12.55,3.77,18.09" style="fill:none;stroke:#999;stroke-width:3"></path>
<path d="M1324.31,76.01c6.56-0.8,13.6-3.33,19.65-4.14c1.52-0.2,2.43,0.93,2.22,1.85c-0.9,3.81-1.74,8.32-3.34,14.67" style="fill:none;stroke:#999;stroke-width:3"></path>
<path d="M1327.94,90.93c4.89-0.49,9.72-0.87,16.43-1.62" style="fill:none;stroke:#999;stroke-width:3"></path>
<path d="M1356.85,18.13c1.06,0.45,2.5,0.86,3.71,0.82c1.38-0.05,22.02-4.51,29.01-4.96c2.9-0.19,2.68,1.68,1.37,3.05c-0.99,1.03-11.69,10.2-15.45,12.99" style="fill:none;stroke:#999;stroke-width:3"></path>
<path d="M1367.02,24.03c2.89,1.57,10.38,7.58,11.74,11.68" style="fill:none;stroke:#999;stroke-width:3"></path>
<path d="M1357.07,40.02c0.55,0.68,0.91,1.36,1.09,2.05c0.18,0.68,0.18,51,0.18,52.53" style="fill:none;stroke:#999;stroke-width:3"></path>
<path d="M1358.26,41.36c6.28-0.28,36.91-4.57,38.58-4.76c2.98-0.34,4.1,2.22,3.73,3.24c-0.36,0.98-0.56,36.93-0.56,50.74c0,9.99-5.83,1.47-7.02,0.88" style="fill:none;stroke:#999;stroke-width:3"></path>
<path d="M1359.26,54.68c8.31-0.6,32.29-2.58,39-3.09" style="fill:none;stroke:#999;stroke-width:3"></path>
<path d="M1358.99,69.56c5.96-0.51,32.89-3.14,39.78-3.48" style="fill:none;stroke:#999;stroke-width:3"></path>

<path d="M1437.8,16c3.13,1.72,8.09,7.07,8.88,9.75" style="fill:none;stroke:#999;stroke-width:3"></path>
<path d="M1426.62,35.08c0.71,0.23,3.4,0.27,4.1,0.23c8.73-0.42,17.48-3.17,23.83-3.37c1.18-0.04,2.95,0.11,3.54,0.23" style="fill:none;stroke:#999;stroke-width:3"></path>
<path d="M1433.18,48.56c0.43,0.12,3.04,0.13,3.47,0.12c4.44-0.14,9.86-1.43,14.34-2.05c0.7-0.1,2.68-0.44,3.04-0.38" style="fill:none;stroke:#999;stroke-width:3"></path>
<path d="M1432.8,61.33c0.38,0.12,2.71,0.13,3.1,0.12c3.97-0.13,10.36-1.2,15.33-2.09c0.62-0.11,2.79,0.06,3.1,0.11" style="fill:none;stroke:#999;stroke-width:3"></path>
<path d="M1432.01,74.69c0.36,0.33,0.76,1.04,0.87,1.47c1.01,3.77,2.75,12.55,3.77,18.09" style="fill:none;stroke:#999;stroke-width:3"></path>
<path d="M1433.31,76.01c6.56-0.8,13.6-3.33,19.65-4.14c1.52-0.2,2.43,0.93,2.22,1.85c-0.9,3.81-1.74,8.32-3.34,14.67" style="fill:none;stroke:#999;stroke-width:3"></path>
<path d="M1436.94,90.93c4.89-0.49,9.72-0.87,16.43-1.62" style="fill:none;stroke:#999;stroke-width:3"></path>
<path d="M1465.85,18.13c1.06,0.45,2.5,0.86,3.71,0.82c1.38-0.05,22.02-4.51,29.01-4.96c2.9-0.19,2.68,1.68,1.37,3.05c-0.99,1.03-11.69,10.2-15.45,12.99" style="fill:none;stroke:#999;stroke-width:3"></path>
<path d="M1476.02,24.03c2.89,1.57,10.38,7.58,11.74,11.68" style="fill:none;stroke:#999;stroke-width:3"></path>
<path d="M1466.07,40.02c0.55,0.68,0.91,1.36,1.09,2.05c0.18,0.68,0.18,51,0.18,52.53" style="fill:none;stroke:#999;stroke-width:3"></path>
<path d="M1467.26,41.36c6.28-0.28,36.91-4.57,38.58-4.76c2.98-0.34,4.1,2.22,3.73,3.24c-0.36,0.98-0.56,36.93-0.56,50.74c0,9.99-5.83,1.47-7.02,0.88" style="fill:none;stroke:#999;stroke-width:3"></path>
<path d="M1468.26,54.68c8.31-0.6,32.29-2.58,39-3.09" style="fill:none;stroke:#999;stroke-width:3"></path>
<path d="M1467.99,69.56c5.96-0.51,32.89-3.14,39.78-3.48" style="fill:none;stroke:#999;stroke-width:3"></path>
<path d="M1485.91,40.73c0.72,0.33,1.15,1.48,1.3,2.14c0.14,0.66,0,44.81-0.14,48.92" style="fill:none;stroke:#999;stroke-width:3"></path>

</svg>