<svg width="763px" height="109px" viewBox="0 0 763 109" xmlns="http://www.w3.org/2000/svg" xmlns:xlink="http://www.w3.org/1999/xlink" xml:space="preserve" version="1.1" baseProfile="full">
<line x1="1" y1="1" x2="762" y2="1" style="stroke:#ddd;stroke-width:2"></line>
<line x1="1" y1="1" x2="1" y2="108" style="stroke:#ddd;stroke-width:2"></line>
<line x1="1" y1="108" x2="762" y2="108" style="stroke:#ddd;stroke-width:2"></line>
<line x1="762" y1="1" x2="762" y2="108" style="stroke:#ddd;stroke-width:2"></line>
<line x1="109" y1="1" x2="109" y2="108" style="stroke:#ddd;stroke-width:2"></line>
<line x1="218" y1="1" x2="218" y2="108" style="stroke:#ddd;stroke-width:2"></line>
<line x1="327" y1="1" x2="327" y2="108" style="stroke:#ddd;stroke-width:2"></line>
<line x1="436" y1="1" x2="436" y2="108" style="stroke:#ddd;stroke-width:2"></line>
<line x1="545" y1="1" x2="545" y2="108" style="stroke:#ddd;stroke-width:2"></line>
<line x1="654" y1="1" x2="654" y2="108" style="stroke:#ddd;stroke-width:2"></line>
<line x1="1" y1="54" x2="762" y2="54" style="stroke:#ddd;stroke-width:2;stroke-dasharray:3 3"></line>
<line x1="55" y1="1" x2="55" y2="108" style="stroke:#ddd;stroke-width:2;stroke-dasharray:3 3"></line>
<line x1="164" y1="1" x2="164" y2="108" style="stroke:#ddd;stroke-width:2;stroke-dasharray:3 3"></line>
<line x1="273" y1="1" x2="273" y2="108" style="stroke:#ddd;stroke-width:2;stroke-dasharray:3 3"></line>
<line x1="382" y1="1" x2="382" y2="108" style="stroke:#ddd;stroke-width:2;stroke-dasharray:3 3"></line>
<line x1="491" y1="1" x2="491" y2="108" style="stroke:#ddd;stroke-width:2;stroke-dasharray:3 3"></line>
<line x1="600" y1="1" x2="600" y2="108" style="stroke:#ddd;stroke-width:2;stroke-dasharray:3 3"></line>
<line x1="709" y1="1" x2="709" y2="108" style="stroke:#ddd;stroke-width:2;stroke-dasharray:3 3"></line>
<path d="M28.38,20.42c2.62,0.46,5.87,0.52,8.39,0.29c8.96-0.82,23.61-2.71,36.49-3.24c2.29-0.09,4.63,0.02,6.87,0.57" style="fill:none;stroke:#999;stroke-width:3"></path>

<path d="M137.38,20.42c2.62,0.46,5.87,0.52,8.39,0.29c8.96-0.82,23.61-2.71,36.49-3.24c2.29-0.09,4.63,0.02,6.87,0.57" style="fill:none;stroke:#999;stroke-width:3"></path>
<path d="M138.92000000000002,38.1c1.08,0.52,1.83,1.4,2.02,2.26c0.72,3.22,2.23,9.07,3.8,15.39c0.33,1.32,0.66,2.67,0.99,4.01" style="fill:none;stroke:#999;stroke-width:3"></path>

<path d="M246.38,20.42c2.62,0.46,5.87,0.52,8.39,0.29c8.96-0.82,23.61-2.71,36.49-3.24c2.29-0.09,4.63,0.02,6.87,0.57" style="fill:none;stroke:#999;stroke-width:3"></path>
<path d="M247.92000000000002,38.1c1.08,0.52,1.83,1.4,2.02,2.26c0.72,3.22,2.23,9.07,3.8,15.39c0.33,1.32,0.66,2.67,0.99,4.01" style="fill:none;stroke:#999;stroke-width:3"></path>
<path d="M250.56,39.51c10.07-1.26,31.45-3.67,39.44-4.07c3.71-0.19,5.46,1.91,4.42,5.07c-1.22,3.72-2.62,6.92-5.58,14.02" style="fill:none;stroke:#999;stroke-width:3"></path>

<path d="M355.38,20.42c2.62,0.46,5.87,0.52,8.39,0.29c8.96-0.82,23.61-2.71,36.49-3.24c2.29-0.09,4.63,0.02,6.87,0.57" style="fill:none;stroke:#999;stroke-width:3"></path>
<path d="M356.92,38.1c1.08,0.52,1.83,1.4,2.02,2.26c0.72,3.22,2.23,9.07,3.8,15.39c0.33,1.32,0.66,2.67,0.99,4.01" style="fill:none;stroke:#999;stroke-width:3"></path>
<path d="M359.56,39.51c10.07-1.26,31.45-3.67,39.44-4.07c3.71-0.19,5.46,1.91,4.42,5.07c-1.22,3.72-2.62,6.92-5.58,14.02" style="fill:none;stroke:#999;stroke-width:3"></path>
<path d="M364.48,58.02c7.32-0.55,19.84-1.9,30.15-2.45c1.68-0.09,3.29-0.17,4.8-0.22" style="fill:none;stroke:#999;stroke-width:3"></path>

<path d="M464.38,20.42c2.62,0.46,5.87,0.52,8.39,0.29c8.96-0.82,23.61-2.71,36.49-3.24c2.29-0.09,4.63,0.02,6.87,0.57" style="fill:none;stroke:#999;stroke-width:3"></path>
<path d="M465.92,38.1c1.08,0.52,1.83,1.4,2.02,2.26c0.72,3.22,2.23,9.07,3.8,15.39c0.33,1.32,0.66,2.67,0.99,4.01" style="fill:none;stroke:#999;stroke-width:3"></path>
<path d="M468.56,39.51c10.07-1.26,31.45-3.67,39.44-4.07c3.71-0.19,5.46,1.91,4.42,5.07c-1.22,3.72-2.62,6.92-5.58,14.02" style="fill:none;stroke:#999;stroke-width:3"></path>
<path d="M473.48,58.02c7.32-0.55,19.84-1.9,30.15-2.45c1.68-0.09,3.29-0.17,4.8-0.22" style="fill:none;stroke:#999;stroke-width:3"></path>
<path d="M474.25,69.17c2.58,2.6,6.66,10.68,7.31,14.72" style="fill:none;stroke:#999;stroke-width:3"></path>

<path d="M573.38,20.42c2.62,0.46,5.87,0.52,8.39,0.29c8.96-0.82,23.61-2.71,36.49-3.24c2.29-0.09,4.63,0.02,6.87,0.57" style="fill:none;stroke:#999;stroke-width:3"></path>
<path d="M574.9200000000001,38.1c1.08,0.52,1.83,1.4,2.02,2.26c0.72,3.22,2.23,9.07,3.8,15.39c0.33,1.32,0.66,2.67,0.99,4.01" style="fill:none;stroke:#999;stroke-width:3"></path>
<path d="M577.56,39.51c10.07-1.26,31.45-3.67,39.44-4.07c3.71-0.19,5.46,1.91,4.42,5.07c-1.22,3.72-2.62,6.92-5.58,14.02" style="fill:none;stroke:#999;stroke-width:3"></path>
<path d="M582.48,58.02c7.32-0.55,19.84-1.9,30.15-2.45c1.68-0.09,3.29-0.17,4.8-0.22" style="fill:none;stroke:#999;stroke-width:3"></path>
<path d="M583.25,69.17c2.58,2.6,6.66,10.68,7.31,14.72" style="fill:none;stroke:#999;stroke-width:3"></path>
<path d="M614.36,63.81c0.13,0.67,0.12,1.61-0.05,2.34c-1.14,4.9-4.14,13.41-8.94,20.1" style="fill:none;stroke:#999;stroke-width:3"></path>

<path d="M682.38,20.42c2.62,0.46,5.87,0.52,8.39,0.29c8.96-0.82,23.61-2.71,36.49-3.24c2.29-0.09,4.63,0.02,6.87,0.57" style="fill:none;stroke:#999;stroke-width:3"></path>
<path d="M683.9200000000001,38.1c1.08,0.52,1.83,1.4,2.02,2.26c0.72,3.22,2.23,9.07,3.8,15.39c0.33,1.32,0.66,2.67,0.99,4.01" style="fill:none;stroke:#999;stroke-width:3"></path>
<path d="M686.56,39.51c10.07-1.26,31.45-3.67,39.44-4.07c3.71-0.19,5.46,1.91,4.42,5.07c-1.22,3.72-2.62,6.92-5.58,14.02" style="fill:none;stroke:#999;stroke-width:3"></path>
<path d="M691.48,58.02c7.32-0.55,19.84-1.9,30.15-2.45c1.68-0.09,3.29-0.17,4.8-0.22" style="fill:none;stroke:#999;stroke-width:3"></path>
<path d="M692.25,69.17c2.58,2.6,6.66,10.68,7.31,14.72" style="fill:none;stroke:#999;stroke-width:3"></path>
<path d="M723.36,63.81c0.13,0.67,0.12,1.61-0.05,2.34c-1.14,4.9-4.14,13.41-8.94,20.1" style="fill:none;stroke:#999;stroke-width:3"></path>
<path d="M669.13,90.63c2.47,0.76,6.99,0.96,9.46,0.76c20.87-1.63,38.01-2.76,59.03-3.25c4.11-0.09,6.58,0.36,8.64,0.75" style="fill:none;stroke:#999;stroke-width:3"></path>

</svg>