<svg width="763px" height="109px" viewBox="0 0 763 109" xmlns="http://www.w3.org/2000/svg" xmlns:xlink="http://www.w3.org/1999/xlink" xml:space="preserve" version="1.1" baseProfile="full">
<line x1="1" y1="1" x2="762" y2="1" style="stroke:#ddd;stroke-width:2"></line>
<line x1="1" y1="1" x2="1" y2="108" style="stroke:#ddd;stroke-width:2"></line>
<line x1="1" y1="108" x2="762" y2="108" style="stroke:#ddd;stroke-width:2"></line>
<line x1="762" y1="1" x2="762" y2="108" style="stroke:#ddd;stroke-width:2"></line>
<line x1="109" y1="1" x2="109" y2="108" style="stroke:#ddd;stroke-width:2"></line>
<line x1="218" y1="1" x2="218" y2="108" style="stroke:#ddd;stroke-width:2"></line>
<line x1="327" y1="1" x2="327" y2="108" style="stroke:#ddd;stroke-width:2"></line>
<line x1="436" y1="1" x2="436" y2="108" style="stroke:#ddd;stroke-width:2"></line>
<line x1="545" y1="1" x2="545" y2="108" style="stroke:#ddd;stroke-width:2"></line>
<line x1="654" y1="1" x2="654" y2="108" style="stroke:#ddd;stroke-width:2"></line>
<line x1="1" y1="54" x2="762" y2="54" style="stroke:#ddd;stroke-width:2;stroke-dasharray:3 3"></line>
<line x1="55" y1="1" x2="55" y2="108" style="stroke:#ddd;stroke-width:2;stroke-dasharray:3 3"></line>
<line x1="164" y1="1" x2="164" y2="108" style="stroke:#ddd;stroke-width:2;stroke-dasharray:3 3"></line>
<line x1="273" y1="1" x2="273" y2="108" style="stroke:#ddd;stroke-width:2;stroke-dasharray:3 3"></line>
<line x1="382" y1="1" x2="382" y2="108" style="stroke:#ddd;stroke-width:2;stroke-dasharray:3 3"></line>
<line x1="491" y1="1" x2="491" y2="108" style="stroke:#ddd;stroke-width:2;stroke-dasharray:3 3"></line>
<line x1="600" y1="1" x2="600" y2="108" style="stroke:#ddd;stroke-width:2;stroke-dasharray:3 3"></line>
<line x1="709" y1="1" x2="709" y2="108" style="stroke:#ddd;stroke-width:2;stroke-dasharray:3 3"></line>
<path d="M65.24,9c0.1,0.5,0.39,1.43-0.2,1.99c-7.43,6.99-18.42,13.41-37.79,19.05" style="fill:none;stroke:#999;stroke-width:3"></path>

<path d="M174.24,9c0.1,0.5,0.39,1.43-0.2,1.99c-7.43,6.99-18.42,13.41-37.79,19.05" style="fill:none;stroke:#999;stroke-width:3"></path>
<path d="M144.0,29.5c3,2.21,7.75,9.07,8.5,12.5" style="fill:none;stroke:#999;stroke-width:3"></path>

<path d="M283.24,9c0.1,0.5,0.39,1.43-0.2,1.99c-7.43,6.99-18.42,13.41-37.79,19.05" style="fill:none;stroke:#999;stroke-width:3"></path>
<path d="M253.0,29.5c3,2.21,7.75,9.07,8.5,12.5" style="fill:none;stroke:#999;stroke-width:3"></path>
<path d="M271.75,21.5c2.65,1.76,6.84,7.26,7.5,10" style="fill:none;stroke:#999;stroke-width:3"></path>

<path d="M392.24,9c0.1,0.5,0.39,1.43-0.2,1.99c-7.43,6.99-18.42,13.41-37.79,19.05" style="fill:none;stroke:#999;stroke-width:3"></path>
<path d="M362.0,29.5c3,2.21,7.75,9.07,8.5,12.5" style="fill:none;stroke:#999;stroke-width:3"></path>
<path d="M380.75,21.5c2.65,1.76,6.84,7.26,7.5,10" style="fill:none;stroke:#999;stroke-width:3"></path>
<path d="M402.2,20.5c0.13,0.74,0.51,2.13-0.26,2.96c-9.53,10.4-23.61,19.94-48.44,28.33" style="fill:none;stroke:#999;stroke-width:3"></path>

<path d="M501.24,9c0.1,0.5,0.39,1.43-0.2,1.99c-7.43,6.99-18.42,13.41-37.79,19.05" style="fill:none;stroke:#999;stroke-width:3"></path>
<path d="M471.0,29.5c3,2.21,7.75,9.07,8.5,12.5" style="fill:none;stroke:#999;stroke-width:3"></path>
<path d="M489.75,21.5c2.65,1.76,6.84,7.26,7.5,10" style="fill:none;stroke:#999;stroke-width:3"></path>
<path d="M511.2,20.5c0.13,0.74,0.51,2.13-0.26,2.96c-9.53,10.4-23.61,19.94-48.44,28.33" style="fill:none;stroke:#999;stroke-width:3"></path>
<path d="M493.75,39C505.0,45.75,511.11,72.45,502.83,93.33c-4.83,12.17-9.64,1.12-10.89,0.06" style="fill:none;stroke:#999;stroke-width:3"></path>

<path d="M610.24,9c0.1,0.5,0.39,1.43-0.2,1.99c-7.43,6.99-18.42,13.41-37.79,19.05" style="fill:none;stroke:#999;stroke-width:3"></path>
<path d="M580.0,29.5c3,2.21,7.75,9.07,8.5,12.5" style="fill:none;stroke:#999;stroke-width:3"></path>
<path d="M598.75,21.5c2.65,1.76,6.84,7.26,7.5,10" style="fill:none;stroke:#999;stroke-width:3"></path>
<path d="M620.2,20.5c0.13,0.74,0.51,2.13-0.26,2.96c-9.53,10.4-23.61,19.94-48.44,28.33" style="fill:none;stroke:#999;stroke-width:3"></path>
<path d="M602.75,39C614.0,45.75,620.11,72.45,611.8299999999999,93.33c-4.83,12.17-9.64,1.12-10.89,0.06" style="fill:none;stroke:#999;stroke-width:3"></path>
<path d="M605.75,44.75c0.09,0.59,0.19,1.53-0.18,2.38c-2.22,5.02-14.98,16.03-32.43,22.77" style="fill:none;stroke:#999;stroke-width:3"></path>

<path d="M719.24,9c0.1,0.5,0.39,1.43-0.2,1.99c-7.43,6.99-18.42,13.41-37.79,19.05" style="fill:none;stroke:#999;stroke-width:3"></path>
<path d="M689.0,29.5c3,2.21,7.75,9.07,8.5,12.5" style="fill:none;stroke:#999;stroke-width:3"></path>
<path d="M707.75,21.5c2.65,1.76,6.84,7.26,7.5,10" style="fill:none;stroke:#999;stroke-width:3"></path>
<path d="M729.2,20.5c0.13,0.74,0.51,2.13-0.26,2.96c-9.53,10.4-23.61,19.94-48.44,28.33" style="fill:none;stroke:#999;stroke-width:3"></path>
<path d="M711.75,39C723.0,45.75,729.11,72.45,720.8299999999999,93.33c-4.83,12.17-9.64,1.12-10.89,0.06" style="fill:none;stroke:#999;stroke-width:3"></path>
<path d="M714.75,44.75c0.09,0.59,0.19,1.53-0.18,2.38c-2.22,5.02-14.98,16.03-32.43,22.77" style="fill:none;stroke:#999;stroke-width:3"></path>
<path d="M719.25,56.75c0.1,0.81,0.44,2.19-0.21,3.24C714.25,67.75,701.25,80.75,682.75,91" style="fill:none;stroke:#999;stroke-width:3"></path>

</svg>