<svg width="763px" height="109px" viewBox="0 0 763 109" xmlns="http://www.w3.org/2000/svg" xmlns:xlink="http://www.w3.org/1999/xlink" xml:space="preserve" version="1.1" baseProfile="full">
<line x1="1" y1="1" x2="762" y2="1" style="stroke:#ddd;stroke-width:2"></line>
<line x1="1" y1="1" x2="1" y2="108" style="stroke:#ddd;stroke-width:2"></line>
<line x1="1" y1="108" x2="762" y2="108" style="stroke:#ddd;stroke-width:2"></line>
<line x1="762" y1="1" x2="762" y2="108" style="stroke:#ddd;stroke-width:2"></line>
<line x1="109" y1="1" x2="109" y2="108" style="stroke:#ddd;stroke-width:2"></line>
<line x1="218" y1="1" x2="218" y2="108" style="stroke:#ddd;stroke-width:2"></line>
<line x1="327" y1="1" x2="327" y2="108" style="stroke:#ddd;stroke-width:2"></line>
<line x1="436" y1="1" x2="436" y2="108" style="stroke:#ddd;stroke-width:2"></line>
<line x1="545" y1="1" x2="545" y2="108" style="stroke:#ddd;stroke-width:2"></line>
<line x1="654" y1="1" x2="654" y2="108" style="stroke:#ddd;stroke-width:2"></line>
<line x1="1" y1="54" x2="762" y2="54" style="stroke:#ddd;stroke-width:2;stroke-dasharray:3 3"></line>
<line x1="55" y1="1" x2="55" y2="108" style="stroke:#ddd;stroke-width:2;stroke-dasharray:3 3"></line>
<line x1="164" y1="1" x2="164" y2="108" style="stroke:#ddd;stroke-width:2;stroke-dasharray:3 3"></line>
<line x1="273" y1="1" x2="273" y2="108" style="stroke:#ddd;stroke-width:2;stroke-dasharray:3 3"></line>
<line x1="382" y1="1" x2="382" y2="108" style="stroke:#ddd;stroke-width:2;stroke-dasharray:3 3"></line>
<line x1="491" y1="1" x2="491" y2="108" style="stroke:#ddd;stroke-width:2;stroke-dasharray:3 3"></line>
<line x1="600" y1="1" x2="600" y2="108" style="stroke:#ddd;stroke-width:2;stroke-dasharray:3 3"></line>
<line x1="709" y1="1" x2="709" y2="108" style="stroke:#ddd;stroke-width:2;stroke-dasharray:3 3"></line>
<path d="M31.75,17.8c1.16,1.16,1.68,2.84,1.68,4.63c0,1.49-0.18,33.31-0.18,48.31c0,3.5-0.07,3.62-0.07,6.5" style="fill:none;stroke:#999;stroke-width:3"></path>

<path d="M140.75,17.8c1.16,1.16,1.68,2.84,1.68,4.63c0,1.49-0.18,33.31-0.18,48.31c0,3.5-0.07,3.62-0.07,6.5" style="fill:none;stroke:#999;stroke-width:3"></path>
<path d="M142.82,19.85c7.3-0.73,30.8-3.48,37.67-4.11c2.94-0.27,4.51,1,4.51,3.66c0,3.09-0.5,32.69-0.74,47.84c-0.08,4.93-0.13,8.28-0.13,8.6" style="fill:none;stroke:#999;stroke-width:3"></path>

<path d="M249.75,17.8c1.16,1.16,1.68,2.84,1.68,4.63c0,1.49-0.18,33.31-0.18,48.31c0,3.5-0.07,3.62-0.07,6.5" style="fill:none;stroke:#999;stroke-width:3"></path>
<path d="M251.82,19.85c7.3-0.73,30.8-3.48,37.67-4.11c2.94-0.27,4.51,1,4.51,3.66c0,3.09-0.5,32.69-0.74,47.84c-0.08,4.93-0.13,8.28-0.13,8.6" style="fill:none;stroke:#999;stroke-width:3"></path>
<path d="M252.76,38.26c8.99-1.26,33.57-3.64,39.78-3.64" style="fill:none;stroke:#999;stroke-width:3"></path>

<path d="M358.75,17.8c1.16,1.16,1.68,2.84,1.68,4.63c0,1.49-0.18,33.31-0.18,48.31c0,3.5-0.07,3.62-0.07,6.5" style="fill:none;stroke:#999;stroke-width:3"></path>
<path d="M360.82,19.85c7.3-0.73,30.8-3.48,37.67-4.11c2.94-0.27,4.51,1,4.51,3.66c0,3.09-0.5,32.69-0.74,47.84c-0.08,4.93-0.13,8.28-0.13,8.6" style="fill:none;stroke:#999;stroke-width:3"></path>
<path d="M361.76,38.26c8.99-1.26,33.57-3.64,39.78-3.64" style="fill:none;stroke:#999;stroke-width:3"></path>
<path d="M361.82,55.24c10.93-0.99,27.93-2.99,39.51-3.18" style="fill:none;stroke:#999;stroke-width:3"></path>

<path d="M467.75,17.8c1.16,1.16,1.68,2.84,1.68,4.63c0,1.49-0.18,33.31-0.18,48.31c0,3.5-0.07,3.62-0.07,6.5" style="fill:none;stroke:#999;stroke-width:3"></path>
<path d="M469.82,19.85c7.3-0.73,30.8-3.48,37.67-4.11c2.94-0.27,4.51,1,4.51,3.66c0,3.09-0.5,32.69-0.74,47.84c-0.08,4.93-0.13,8.28-0.13,8.6" style="fill:none;stroke:#999;stroke-width:3"></path>
<path d="M470.76,38.26c8.99-1.26,33.57-3.64,39.78-3.64" style="fill:none;stroke:#999;stroke-width:3"></path>
<path d="M470.82,55.24c10.93-0.99,27.93-2.99,39.51-3.18" style="fill:none;stroke:#999;stroke-width:3"></path>
<path d="M470.57,73.74C481.5,73,500.12,71.05,510.08,71.05" style="fill:none;stroke:#999;stroke-width:3"></path>

<path d="M576.75,17.8c1.16,1.16,1.68,2.84,1.68,4.63c0,1.49-0.18,33.31-0.18,48.31c0,3.5-0.07,3.62-0.07,6.5" style="fill:none;stroke:#999;stroke-width:3"></path>
<path d="M578.8199999999999,19.85c7.3-0.73,30.8-3.48,37.67-4.11c2.94-0.27,4.51,1,4.51,3.66c0,3.09-0.5,32.69-0.74,47.84c-0.08,4.93-0.13,8.28-0.13,8.6" style="fill:none;stroke:#999;stroke-width:3"></path>
<path d="M579.76,38.26c8.99-1.26,33.57-3.64,39.78-3.64" style="fill:none;stroke:#999;stroke-width:3"></path>
<path d="M579.8199999999999,55.24c10.93-0.99,27.93-2.99,39.51-3.18" style="fill:none;stroke:#999;stroke-width:3"></path>
<path d="M579.5699999999999,73.74C590.5,73,609.12,71.05,619.0799999999999,71.05" style="fill:none;stroke:#999;stroke-width:3"></path>
<path d="M586.95,80.5c0.55,1.41-0.42,3.3-1.5,4.33C582.17,87.94,573.56,94.07,567.0,97.75" style="fill:none;stroke:#999;stroke-width:3"></path>

<path d="M685.75,17.8c1.16,1.16,1.68,2.84,1.68,4.63c0,1.49-0.18,33.31-0.18,48.31c0,3.5-0.07,3.62-0.07,6.5" style="fill:none;stroke:#999;stroke-width:3"></path>
<path d="M687.8199999999999,19.85c7.3-0.73,30.8-3.48,37.67-4.11c2.94-0.27,4.51,1,4.51,3.66c0,3.09-0.5,32.69-0.74,47.84c-0.08,4.93-0.13,8.28-0.13,8.6" style="fill:none;stroke:#999;stroke-width:3"></path>
<path d="M688.76,38.26c8.99-1.26,33.57-3.64,39.78-3.64" style="fill:none;stroke:#999;stroke-width:3"></path>
<path d="M688.8199999999999,55.24c10.93-0.99,27.93-2.99,39.51-3.18" style="fill:none;stroke:#999;stroke-width:3"></path>
<path d="M688.5699999999999,73.74C699.5,73,718.12,71.05,728.0799999999999,71.05" style="fill:none;stroke:#999;stroke-width:3"></path>
<path d="M695.95,80.5c0.55,1.41-0.42,3.3-1.5,4.33C691.17,87.94,682.56,94.07,676.0,97.75" style="fill:none;stroke:#999;stroke-width:3"></path>
<path d="M719.75,80C726.78,84.75,735.08,93.35,737.0,97.5" style="fill:none;stroke:#999;stroke-width:3"></path>

</svg>