<svg width="1308px" height="109px" viewBox="0 0 1308 109" xmlns="http://www.w3.org/2000/svg" xmlns:xlink="http://www.w3.org/1999/xlink" xml:space="preserve" version="1.1" baseProfile="full">
<line x1="1" y1="1" x2="1307" y2="1" style="stroke:#ddd;stroke-width:2"></line>
<line x1="1" y1="1" x2="1" y2="108" style="stroke:#ddd;stroke-width:2"></line>
<line x1="1" y1="108" x2="1307" y2="108" style="stroke:#ddd;stroke-width:2"></line>
<line x1="1307" y1="1" x2="1307" y2="108" style="stroke:#ddd;stroke-width:2"></line>
<line x1="109" y1="1" x2="109" y2="108" style="stroke:#ddd;stroke-width:2"></line>
<line x1="218" y1="1" x2="218" y2="108" style="stroke:#ddd;stroke-width:2"></line>
<line x1="327" y1="1" x2="327" y2="108" style="stroke:#ddd;stroke-width:2"></line>
<line x1="436" y1="1" x2="436" y2="108" style="stroke:#ddd;stroke-width:2"></line>
<line x1="545" y1="1" x2="545" y2="108" style="stroke:#ddd;stroke-width:2"></line>
<line x1="654" y1="1" x2="654" y2="108" style="stroke:#ddd;stroke-width:2"></line>
<line x1="763" y1="1" x2="763" y2="108" style="stroke:#ddd;stroke-width:2"></line>
<line x1="872" y1="1" x2="872" y2="108" style="stroke:#ddd;stroke-width:2"></line>
<line x1="981" y1="1" x2="981" y2="108" style="stroke:#ddd;stroke-width:2"></line>
<line x1="1090" y1="1" x2="1090" y2="108" style="stroke:#ddd;stroke-width:2"></line>
<line x1="1199" y1="1" x2="1199" y2="108" style="stroke:#ddd;stroke-width:2"></line>
<line x1="1" y1="54" x2="1307" y2="54" style="stroke:#ddd;stroke-width:2;stroke-dasharray:3 3"></line>
<line x1="55" y1="1" x2="55" y2="108" style="stroke:#ddd;stroke-width:2;stroke-dasharray:3 3"></line>
<line x1="164" y1="1" x2="164" y2="108" style="stroke:#ddd;stroke-width:2;stroke-dasharray:3 3"></line>
<line x1="273" y1="1" x2="273" y2="108" style="stroke:#ddd;stroke-width:2;stroke-dasharray:3 3"></line>
<line x1="382" y1="1" x2="382" y2="108" style="stroke:#ddd;stroke-width:2;stroke-dasharray:3 3"></line>
<line x1="491" y1="1" x2="491" y2="108" style="stroke:#ddd;stroke-width:2;stroke-dasharray:3 3"></line>
<line x1="600" y1="1" x2="600" y2="108" style="stroke:#ddd;stroke-width:2;stroke-dasharray:3 3"></line>
<line x1="709" y1="1" x2="709" y2="108" style="stroke:#ddd;stroke-width:2;stroke-dasharray:3 3"></line>
<line x1="818" y1="1" x2="818" y2="108" style="stroke:#ddd;stroke-width:2;stroke-dasharray:3 3"></line>
<line x1="927" y1="1" x2="927" y2="108" style="stroke:#ddd;stroke-width:2;stroke-dasharray:3 3"></line>
<line x1="1036" y1="1" x2="1036" y2="108" style="stroke:#ddd;stroke-width:2;stroke-dasharray:3 3"></line>
<line x1="1145" y1="1" x2="1145" y2="108" style="stroke:#ddd;stroke-width:2;stroke-dasharray:3 3"></line>
<line x1="1254" y1="1" x2="1254" y2="108" style="stroke:#ddd;stroke-width:2;stroke-dasharray:3 3"></line>
<path d="M20.5,14.64c0.49,0.49,1.44,1.59,1.66,2.43c1.09,4.17,1.51,6.88,2.4,11.91c0.2,1.15,0.39,2.26,0.55,3.26" style="fill:none;stroke:#999;stroke-width:3"></path>

<path d="M129.5,14.64c0.49,0.49,1.44,1.59,1.66,2.43c1.09,4.17,1.51,6.88,2.4,11.91c0.2,1.15,0.39,2.26,0.55,3.26" style="fill:none;stroke:#999;stroke-width:3"></path>
<path d="M132.25,16.2c15.2-1.38,58.15-3.72,64.01-4.22c2.74-0.23,4.12,1.39,3.32,3.95c-1.08,3.44-1.82,5.56-3.62,10.4c-0.38,1.02-0.87,1.99-1.32,2.94" style="fill:none;stroke:#999;stroke-width:3"></path>

<path d="M238.5,14.64c0.49,0.49,1.44,1.59,1.66,2.43c1.09,4.17,1.51,6.88,2.4,11.91c0.2,1.15,0.39,2.26,0.55,3.26" style="fill:none;stroke:#999;stroke-width:3"></path>
<path d="M241.25,16.2c15.2-1.38,58.15-3.72,64.01-4.22c2.74-0.23,4.12,1.39,3.32,3.95c-1.08,3.44-1.82,5.56-3.62,10.4c-0.38,1.02-0.87,1.99-1.32,2.94" style="fill:none;stroke:#999;stroke-width:3"></path>
<path d="M261.25,16.5c0.75,0.75,0.68,1.25,0.85,2.27c0.6,3.64,1.21,7.47,1.4,9.23" style="fill:none;stroke:#999;stroke-width:3"></path>

<path d="M347.5,14.64c0.49,0.49,1.44,1.59,1.66,2.43c1.09,4.17,1.51,6.88,2.4,11.91c0.2,1.15,0.39,2.26,0.55,3.26" style="fill:none;stroke:#999;stroke-width:3"></path>
<path d="M350.25,16.2c15.2-1.38,58.15-3.72,64.01-4.22c2.74-0.23,4.12,1.39,3.32,3.95c-1.08,3.44-1.82,5.56-3.62,10.4c-0.38,1.02-0.87,1.99-1.32,2.94" style="fill:none;stroke:#999;stroke-width:3"></path>
<path d="M370.25,16.5c0.75,0.75,0.68,1.25,0.85,2.27c0.6,3.64,1.21,7.47,1.4,9.23" style="fill:none;stroke:#999;stroke-width:3"></path>
<path d="M393.25,14.5c0.5,0.75,0.42,2.03,0.29,3.01c-0.54,4.37-0.79,6.62-1.29,9.24" style="fill:none;stroke:#999;stroke-width:3"></path>

<path d="M456.5,14.64c0.49,0.49,1.44,1.59,1.66,2.43c1.09,4.17,1.51,6.88,2.4,11.91c0.2,1.15,0.39,2.26,0.55,3.26" style="fill:none;stroke:#999;stroke-width:3"></path>
<path d="M459.25,16.2c15.2-1.38,58.15-3.72,64.01-4.22c2.74-0.23,4.12,1.39,3.32,3.95c-1.08,3.44-1.82,5.56-3.62,10.4c-0.38,1.02-0.87,1.99-1.32,2.94" style="fill:none;stroke:#999;stroke-width:3"></path>
<path d="M479.25,16.5c0.75,0.75,0.68,1.25,0.85,2.27c0.6,3.64,1.21,7.47,1.4,9.23" style="fill:none;stroke:#999;stroke-width:3"></path>
<path d="M502.25,14.5c0.5,0.75,0.42,2.03,0.29,3.01c-0.54,4.37-0.79,6.62-1.29,9.24" style="fill:none;stroke:#999;stroke-width:3"></path>
<path d="M462.3,30.62c8.83-0.74,51.2-3.49,59.17-3.65" style="fill:none;stroke:#999;stroke-width:3"></path>

<path d="M565.5,14.64c0.49,0.49,1.44,1.59,1.66,2.43c1.09,4.17,1.51,6.88,2.4,11.91c0.2,1.15,0.39,2.26,0.55,3.26" style="fill:none;stroke:#999;stroke-width:3"></path>
<path d="M568.25,16.2c15.2-1.38,58.15-3.72,64.01-4.22c2.74-0.23,4.12,1.39,3.32,3.95c-1.08,3.44-1.82,5.56-3.62,10.4c-0.38,1.02-0.87,1.99-1.32,2.94" style="fill:none;stroke:#999;stroke-width:3"></path>
<path d="M588.25,16.5c0.75,0.75,0.68,1.25,0.85,2.27c0.6,3.64,1.21,7.47,1.4,9.23" style="fill:none;stroke:#999;stroke-width:3"></path>
<path d="M611.25,14.5c0.5,0.75,0.42,2.03,0.29,3.01c-0.54,4.37-0.79,6.62-1.29,9.24" style="fill:none;stroke:#999;stroke-width:3"></path>
<path d="M571.3,30.62c8.83-0.74,51.2-3.49,59.17-3.65" style="fill:none;stroke:#999;stroke-width:3"></path>
<path d="M579.7,38.87c1.09,1.09,1.57,2.82,1.57,4.01c0,1.2,0.07,32.68,0.07,33.28s-0.07,2.47-0.07,3.8" style="fill:none;stroke:#999;stroke-width:3"></path>

<path d="M674.5,14.64c0.49,0.49,1.44,1.59,1.66,2.43c1.09,4.17,1.51,6.88,2.4,11.91c0.2,1.15,0.39,2.26,0.55,3.26" style="fill:none;stroke:#999;stroke-width:3"></path>
<path d="M677.25,16.2c15.2-1.38,58.15-3.72,64.01-4.22c2.74-0.23,4.12,1.39,3.32,3.95c-1.08,3.44-1.82,5.56-3.62,10.4c-0.38,1.02-0.87,1.99-1.32,2.94" style="fill:none;stroke:#999;stroke-width:3"></path>
<path d="M697.25,16.5c0.75,0.75,0.68,1.25,0.85,2.27c0.6,3.64,1.21,7.47,1.4,9.23" style="fill:none;stroke:#999;stroke-width:3"></path>
<path d="M720.25,14.5c0.5,0.75,0.42,2.03,0.29,3.01c-0.54,4.37-0.79,6.62-1.29,9.24" style="fill:none;stroke:#999;stroke-width:3"></path>
<path d="M680.3,30.62c8.83-0.74,51.2-3.49,59.17-3.65" style="fill:none;stroke:#999;stroke-width:3"></path>
<path d="M688.7,38.87c1.09,1.09,1.57,2.82,1.57,4.01c0,1.2,0.07,32.68,0.07,33.28s-0.07,2.47-0.07,3.8" style="fill:none;stroke:#999;stroke-width:3"></path>
<path d="M691.02,40.77c8.15-0.63,32.05-3.03,34.84-3.03c2.89,0,4.19,1.26,4.19,3.7c0,2.44-0.08,19.9-0.06,33.08c0,1.35,0.04,2.86,0.04,4.34" style="fill:none;stroke:#999;stroke-width:3"></path>

<path d="M783.5,14.64c0.49,0.49,1.44,1.59,1.66,2.43c1.09,4.17,1.51,6.88,2.4,11.91c0.2,1.15,0.39,2.26,0.55,3.26" style="fill:none;stroke:#999;stroke-width:3"></path>
<path d="M786.25,16.2c15.2-1.38,58.15-3.72,64.01-4.22c2.74-0.23,4.12,1.39,3.32,3.95c-1.08,3.44-1.82,5.56-3.62,10.4c-0.38,1.02-0.87,1.99-1.32,2.94" style="fill:none;stroke:#999;stroke-width:3"></path>
<path d="M806.25,16.5c0.75,0.75,0.68,1.25,0.85,2.27c0.6,3.64,1.21,7.47,1.4,9.23" style="fill:none;stroke:#999;stroke-width:3"></path>
<path d="M829.25,14.5c0.5,0.75,0.42,2.03,0.29,3.01c-0.54,4.37-0.79,6.62-1.29,9.24" style="fill:none;stroke:#999;stroke-width:3"></path>
<path d="M789.3,30.62c8.83-0.74,51.2-3.49,59.17-3.65" style="fill:none;stroke:#999;stroke-width:3"></path>
<path d="M797.7,38.87c1.09,1.09,1.57,2.82,1.57,4.01c0,1.2,0.07,32.68,0.07,33.28s-0.07,2.47-0.07,3.8" style="fill:none;stroke:#999;stroke-width:3"></path>
<path d="M800.02,40.77c8.15-0.63,32.05-3.03,34.84-3.03c2.89,0,4.19,1.26,4.19,3.7c0,2.44-0.08,19.9-0.06,33.08c0,1.35,0.04,2.86,0.04,4.34" style="fill:none;stroke:#999;stroke-width:3"></path>
<path d="M800.53,52.38c5.97-0.26,31.44-2.43,37.25-2.43" style="fill:none;stroke:#999;stroke-width:3"></path>

<path d="M892.5,14.64c0.49,0.49,1.44,1.59,1.66,2.43c1.09,4.17,1.51,6.88,2.4,11.91c0.2,1.15,0.39,2.26,0.55,3.26" style="fill:none;stroke:#999;stroke-width:3"></path>
<path d="M895.25,16.2c15.2-1.38,58.15-3.72,64.01-4.22c2.74-0.23,4.12,1.39,3.32,3.95c-1.08,3.44-1.82,5.56-3.62,10.4c-0.38,1.02-0.87,1.99-1.32,2.94" style="fill:none;stroke:#999;stroke-width:3"></path>
<path d="M915.25,16.5c0.75,0.75,0.68,1.25,0.85,2.27c0.6,3.64,1.21,7.47,1.4,9.23" style="fill:none;stroke:#999;stroke-width:3"></path>
<path d="M938.25,14.5c0.5,0.75,0.42,2.03,0.29,3.01c-0.54,4.37-0.79,6.62-1.29,9.24" style="fill:none;stroke:#999;stroke-width:3"></path>
<path d="M898.3,30.62c8.83-0.74,51.2-3.49,59.17-3.65" style="fill:none;stroke:#999;stroke-width:3"></path>
<path d="M906.7,38.87c1.09,1.09,1.57,2.82,1.57,4.01c0,1.2,0.07,32.68,0.07,33.28s-0.07,2.47-0.07,3.8" style="fill:none;stroke:#999;stroke-width:3"></path>
<path d="M909.02,40.77c8.15-0.63,32.05-3.03,34.84-3.03c2.89,0,4.19,1.26,4.19,3.7c0,2.44-0.08,19.9-0.06,33.08c0,1.35,0.04,2.86,0.04,4.34" style="fill:none;stroke:#999;stroke-width:3"></path>
<path d="M909.53,52.38c5.97-0.26,31.44-2.43,37.25-2.43" style="fill:none;stroke:#999;stroke-width:3"></path>
<path d="M909.5,64.75C918.25,64,937.0,62.5,946.59,62.1" style="fill:none;stroke:#999;stroke-width:3"></path>

<path d="M1001.5,14.64c0.49,0.49,1.44,1.59,1.66,2.43c1.09,4.17,1.51,6.88,2.4,11.91c0.2,1.15,0.39,2.26,0.55,3.26" style="fill:none;stroke:#999;stroke-width:3"></path>
<path d="M1004.25,16.2c15.2-1.38,58.15-3.72,64.01-4.22c2.74-0.23,4.12,1.39,3.32,3.95c-1.08,3.44-1.82,5.56-3.62,10.4c-0.38,1.02-0.87,1.99-1.32,2.94" style="fill:none;stroke:#999;stroke-width:3"></path>
<path d="M1024.25,16.5c0.75,0.75,0.68,1.25,0.85,2.27c0.6,3.64,1.21,7.47,1.4,9.23" style="fill:none;stroke:#999;stroke-width:3"></path>
<path d="M1047.25,14.5c0.5,0.75,0.42,2.03,0.29,3.01c-0.54,4.37-0.79,6.62-1.29,9.24" style="fill:none;stroke:#999;stroke-width:3"></path>
<path d="M1007.3,30.62c8.83-0.74,51.2-3.49,59.17-3.65" style="fill:none;stroke:#999;stroke-width:3"></path>
<path d="M1015.7,38.87c1.09,1.09,1.57,2.82,1.57,4.01c0,1.2,0.07,32.68,0.07,33.28s-0.07,2.47-0.07,3.8" style="fill:none;stroke:#999;stroke-width:3"></path>
<path d="M1018.02,40.77c8.15-0.63,32.05-3.03,34.84-3.03c2.89,0,4.19,1.26,4.19,3.7c0,2.44-0.08,19.9-0.06,33.08c0,1.35,0.04,2.86,0.04,4.34" style="fill:none;stroke:#999;stroke-width:3"></path>
<path d="M1018.53,52.38c5.97-0.26,31.44-2.43,37.25-2.43" style="fill:none;stroke:#999;stroke-width:3"></path>
<path d="M1018.5,64.75C1027.25,64,1046.0,62.5,1055.5900000000001,62.1" style="fill:none;stroke:#999;stroke-width:3"></path>
<path d="M1018.76,76.86c8.24-0.48,27.49-1.73,36.87-2.04" style="fill:none;stroke:#999;stroke-width:3"></path>

<path d="M1110.5,14.64c0.49,0.49,1.44,1.59,1.66,2.43c1.09,4.17,1.51,6.88,2.4,11.91c0.2,1.15,0.39,2.26,0.55,3.26" style="fill:none;stroke:#999;stroke-width:3"></path>
<path d="M1113.25,16.2c15.2-1.38,58.15-3.72,64.01-4.22c2.74-0.23,4.12,1.39,3.32,3.95c-1.08,3.44-1.82,5.56-3.62,10.4c-0.38,1.02-0.87,1.99-1.32,2.94" style="fill:none;stroke:#999;stroke-width:3"></path>
<path d="M1133.25,16.5c0.75,0.75,0.68,1.25,0.85,2.27c0.6,3.64,1.21,7.47,1.4,9.23" style="fill:none;stroke:#999;stroke-width:3"></path>
<path d="M1156.25,14.5c0.5,0.75,0.42,2.03,0.29,3.01c-0.54,4.37-0.79,6.62-1.29,9.24" style="fill:none;stroke:#999;stroke-width:3"></path>
<path d="M1116.3,30.62c8.83-0.74,51.2-3.49,59.17-3.65" style="fill:none;stroke:#999;stroke-width:3"></path>
<path d="M1124.7,38.87c1.09,1.09,1.57,2.82,1.57,4.01c0,1.2,0.07,32.68,0.07,33.28s-0.07,2.47-0.07,3.8" style="fill:none;stroke:#999;stroke-width:3"></path>
<path d="M1127.02,40.77c8.15-0.63,32.05-3.03,34.84-3.03c2.89,0,4.19,1.26,4.19,3.7c0,2.44-0.08,19.9-0.06,33.08c0,1.35,0.04,2.86,0.04,4.34" style="fill:none;stroke:#999;stroke-width:3"></path>
<path d="M1127.53,52.38c5.97-0.26,31.44-2.43,37.25-2.43" style="fill:none;stroke:#999;stroke-width:3"></path>
<path d="M1127.5,64.75C1136.25,64,1155.0,62.5,1164.5900000000001,62.1" style="fill:none;stroke:#999;stroke-width:3"></path>
<path d="M1127.76,76.86c8.24-0.48,27.49-1.73,36.87-2.04" style="fill:none;stroke:#999;stroke-width:3"></path>
<path d="M1133.77,83c0.23,1.5-0.38,2.82-1.5,3.83C1128.75,90,1120.5,95.5,1111.5,99" style="fill:none;stroke:#999;stroke-width:3"></path>

<path d="M1219.5,14.64c0.49,0.49,1.44,1.59,1.66,2.43c1.09,4.17,1.51,6.88,2.4,11.91c0.2,1.15,0.39,2.26,0.55,3.26" style="fill:none;stroke:#999;stroke-width:3"></path>
<path d="M1222.25,16.2c15.2-1.38,58.15-3.72,64.01-4.22c2.74-0.23,4.12,1.39,3.32,3.95c-1.08,3.44-1.82,5.56-3.62,10.4c-0.38,1.02-0.87,1.99-1.32,2.94" style="fill:none;stroke:#999;stroke-width:3"></path>
<path d="M1242.25,16.5c0.75,0.75,0.68,1.25,0.85,2.27c0.6,3.64,1.21,7.47,1.4,9.23" style="fill:none;stroke:#999;stroke-width:3"></path>
<path d="M1265.25,14.5c0.5,0.75,0.42,2.03,0.29,3.01c-0.54,4.37-0.79,6.62-1.29,9.24" style="fill:none;stroke:#999;stroke-width:3"></path>
<path d="M1225.3,30.62c8.83-0.74,51.2-3.49,59.17-3.65" style="fill:none;stroke:#999;stroke-width:3"></path>
<path d="M1233.7,38.87c1.09,1.09,1.57,2.82,1.57,4.01c0,1.2,0.07,32.68,0.07,33.28s-0.07,2.47-0.07,3.8" style="fill:none;stroke:#999;stroke-width:3"></path>
<path d="M1236.02,40.77c8.15-0.63,32.05-3.03,34.84-3.03c2.89,0,4.19,1.26,4.19,3.7c0,2.44-0.08,19.9-0.06,33.08c0,1.35,0.04,2.86,0.04,4.34" style="fill:none;stroke:#999;stroke-width:3"></path>
<path d="M1236.53,52.38c5.97-0.26,31.44-2.43,37.25-2.43" style="fill:none;stroke:#999;stroke-width:3"></path>
<path d="M1236.5,64.75C1245.25,64,1264.0,62.5,1273.5900000000001,62.1" style="fill:none;stroke:#999;stroke-width:3"></path>
<path d="M1236.76,76.86c8.24-0.48,27.49-1.73,36.87-2.04" style="fill:none;stroke:#999;stroke-width:3"></path>
<path d="M1242.77,83c0.23,1.5-0.38,2.82-1.5,3.83C1237.75,90,1229.5,95.5,1220.5,99" style="fill:none;stroke:#999;stroke-width:3"></path>
<path d="M1268.84,83.97C1274.0,87.91,1279.38,94.38,1281.5,98.5" style="fill:none;stroke:#999;stroke-width:3"></path>

</svg>