<svg width="1308px" height="109px" viewBox="0 0 1308 109" xmlns="http://www.w3.org/2000/svg" xmlns:xlink="http://www.w3.org/1999/xlink" xml:space="preserve" version="1.1" baseProfile="full">
<line x1="1" y1="1" x2="1307" y2="1" style="stroke:#ddd;stroke-width:2"></line>
<line x1="1" y1="1" x2="1" y2="108" style="stroke:#ddd;stroke-width:2"></line>
<line x1="1" y1="108" x2="1307" y2="108" style="stroke:#ddd;stroke-width:2"></line>
<line x1="1307" y1="1" x2="1307" y2="108" style="stroke:#ddd;stroke-width:2"></line>
<line x1="109" y1="1" x2="109" y2="108" style="stroke:#ddd;stroke-width:2"></line>
<line x1="218" y1="1" x2="218" y2="108" style="stroke:#ddd;stroke-width:2"></line>
<line x1="327" y1="1" x2="327" y2="108" style="stroke:#ddd;stroke-width:2"></line>
<line x1="436" y1="1" x2="436" y2="108" style="stroke:#ddd;stroke-width:2"></line>
<line x1="545" y1="1" x2="545" y2="108" style="stroke:#ddd;stroke-width:2"></line>
<line x1="654" y1="1" x2="654" y2="108" style="stroke:#ddd;stroke-width:2"></line>
<line x1="763" y1="1" x2="763" y2="108" style="stroke:#ddd;stroke-width:2"></line>
<line x1="872" y1="1" x2="872" y2="108" style="stroke:#ddd;stroke-width:2"></line>
<line x1="981" y1="1" x2="981" y2="108" style="stroke:#ddd;stroke-width:2"></line>
<line x1="1090" y1="1" x2="1090" y2="108" style="stroke:#ddd;stroke-width:2"></line>
<line x1="1199" y1="1" x2="1199" y2="108" style="stroke:#ddd;stroke-width:2"></line>
<line x1="1" y1="54" x2="1307" y2="54" style="stroke:#ddd;stroke-width:2;stroke-dasharray:3 3"></line>
<line x1="55" y1="1" x2="55" y2="108" style="stroke:#ddd;stroke-width:2;stroke-dasharray:3 3"></line>
<line x1="164" y1="1" x2="164" y2="108" style="stroke:#ddd;stroke-width:2;stroke-dasharray:3 3"></line>
<line x1="273" y1="1" x2="273" y2="108" style="stroke:#ddd;stroke-width:2;stroke-dasharray:3 3"></line>
<line x1="382" y1="1" x2="382" y2="108" style="stroke:#ddd;stroke-width:2;stroke-dasharray:3 3"></line>
<line x1="491" y1="1" x2="491" y2="108" style="stroke:#ddd;stroke-width:2;stroke-dasharray:3 3"></line>
<line x1="600" y1="1" x2="600" y2="108" style="stroke:#ddd;stroke-width:2;stroke-dasharray:3 3"></line>
<line x1="709" y1="1" x2="709" y2="108" style="stroke:#ddd;stroke-width:2;stroke-dasharray:3 3"></line>
<line x1="818" y1="1" x2="818" y2="108" style="stroke:#ddd;stroke-width:2;stroke-dasharray:3 3"></line>
<line x1="927" y1="1" x2="927" y2="108" style="stroke:#ddd;stroke-width:2;stroke-dasharray:3 3"></line>
<line x1="1036" y1="1" x2="1036" y2="108" style="stroke:#ddd;stroke-width:2;stroke-dasharray:3 3"></line>
<line x1="1145" y1="1" x2="1145" y2="108" style="stroke:#ddd;stroke-width:2;stroke-dasharray:3 3"></line>
<line x1="1254" y1="1" x2="1254" y2="108" style="stroke:#ddd;stroke-width:2;stroke-dasharray:3 3"></line>
<path d="M19.3,17.49c0.36,1.31,0.88,2.29,0.88,4.05c0,1.75-0.39,48.11-0.24,53.9" style="fill:none;stroke:#999;stroke-width:3"></path>

<path d="M128.3,17.49c0.36,1.31,0.88,2.29,0.88,4.05c0,1.75-0.39,48.11-0.24,53.9" style="fill:none;stroke:#999;stroke-width:3"></path>
<path d="M129.78,19.53c2.03-0.22,17.49-3.52,19.34-3.79c1.54-0.22,2.75,1.23,2.62,2.85c-0.17,2.06-0.22,41.11-0.6,54.28" style="fill:none;stroke:#999;stroke-width:3"></path>

<path d="M237.3,17.49c0.36,1.31,0.88,2.29,0.88,4.05c0,1.75-0.39,48.11-0.24,53.9" style="fill:none;stroke:#999;stroke-width:3"></path>
<path d="M238.78,19.53c2.03-0.22,17.49-3.52,19.34-3.79c1.54-0.22,2.75,1.23,2.62,2.85c-0.17,2.06-0.22,41.11-0.6,54.28" style="fill:none;stroke:#999;stroke-width:3"></path>
<path d="M238.24,36.92c6.37-0.69,18.64-3,21.89-3" style="fill:none;stroke:#999;stroke-width:3"></path>

<path d="M346.3,17.49c0.36,1.31,0.88,2.29,0.88,4.05c0,1.75-0.39,48.11-0.24,53.9" style="fill:none;stroke:#999;stroke-width:3"></path>
<path d="M347.78,19.53c2.03-0.22,17.49-3.52,19.34-3.79c1.54-0.22,2.75,1.23,2.62,2.85c-0.17,2.06-0.22,41.11-0.6,54.28" style="fill:none;stroke:#999;stroke-width:3"></path>
<path d="M347.24,36.92c6.37-0.69,18.64-3,21.89-3" style="fill:none;stroke:#999;stroke-width:3"></path>
<path d="M347.41,52.68c7.75-1.07,13.02-1.63,21.54-2.63" style="fill:none;stroke:#999;stroke-width:3"></path>

<path d="M455.3,17.49c0.36,1.31,0.88,2.29,0.88,4.05c0,1.75-0.39,48.11-0.24,53.9" style="fill:none;stroke:#999;stroke-width:3"></path>
<path d="M456.78,19.53c2.03-0.22,17.49-3.52,19.34-3.79c1.54-0.22,2.75,1.23,2.62,2.85c-0.17,2.06-0.22,41.11-0.6,54.28" style="fill:none;stroke:#999;stroke-width:3"></path>
<path d="M456.24,36.92c6.37-0.69,18.64-3,21.89-3" style="fill:none;stroke:#999;stroke-width:3"></path>
<path d="M456.41,52.68c7.75-1.07,13.02-1.63,21.54-2.63" style="fill:none;stroke:#999;stroke-width:3"></path>
<path d="M456.43,72.78c4.03,0,16.38-2.13,21.6-2.13" style="fill:none;stroke:#999;stroke-width:3"></path>

<path d="M564.3,17.49c0.36,1.31,0.88,2.29,0.88,4.05c0,1.75-0.39,48.11-0.24,53.9" style="fill:none;stroke:#999;stroke-width:3"></path>
<path d="M565.78,19.53c2.03-0.22,17.49-3.52,19.34-3.79c1.54-0.22,2.75,1.23,2.62,2.85c-0.17,2.06-0.22,41.11-0.6,54.28" style="fill:none;stroke:#999;stroke-width:3"></path>
<path d="M565.24,36.92c6.37-0.69,18.64-3,21.89-3" style="fill:none;stroke:#999;stroke-width:3"></path>
<path d="M565.4100000000001,52.68c7.75-1.07,13.02-1.63,21.54-2.63" style="fill:none;stroke:#999;stroke-width:3"></path>
<path d="M565.4300000000001,72.78c4.03,0,16.38-2.13,21.6-2.13" style="fill:none;stroke:#999;stroke-width:3"></path>
<path d="M570.07,78.38c0.3,1.46,0.42,1.78,0,2.93c-1.82,4.94-6.57,12.44-12.15,16.94" style="fill:none;stroke:#999;stroke-width:3"></path>

<path d="M673.3,17.49c0.36,1.31,0.88,2.29,0.88,4.05c0,1.75-0.39,48.11-0.24,53.9" style="fill:none;stroke:#999;stroke-width:3"></path>
<path d="M674.78,19.53c2.03-0.22,17.49-3.52,19.34-3.79c1.54-0.22,2.75,1.23,2.62,2.85c-0.17,2.06-0.22,41.11-0.6,54.28" style="fill:none;stroke:#999;stroke-width:3"></path>
<path d="M674.24,36.92c6.37-0.69,18.64-3,21.89-3" style="fill:none;stroke:#999;stroke-width:3"></path>
<path d="M674.4100000000001,52.68c7.75-1.07,13.02-1.63,21.54-2.63" style="fill:none;stroke:#999;stroke-width:3"></path>
<path d="M674.4300000000001,72.78c4.03,0,16.38-2.13,21.6-2.13" style="fill:none;stroke:#999;stroke-width:3"></path>
<path d="M679.07,78.38c0.3,1.46,0.42,1.78,0,2.93c-1.82,4.94-6.57,12.44-12.15,16.94" style="fill:none;stroke:#999;stroke-width:3"></path>
<path d="M688.51,77.22c4.3,4.76,9.39,13.38,10.57,17.54" style="fill:none;stroke:#999;stroke-width:3"></path>

<path d="M782.3,17.49c0.36,1.31,0.88,2.29,0.88,4.05c0,1.75-0.39,48.11-0.24,53.9" style="fill:none;stroke:#999;stroke-width:3"></path>
<path d="M783.78,19.53c2.03-0.22,17.49-3.52,19.34-3.79c1.54-0.22,2.75,1.23,2.62,2.85c-0.17,2.06-0.22,41.11-0.6,54.28" style="fill:none;stroke:#999;stroke-width:3"></path>
<path d="M783.24,36.92c6.37-0.69,18.64-3,21.89-3" style="fill:none;stroke:#999;stroke-width:3"></path>
<path d="M783.4100000000001,52.68c7.75-1.07,13.02-1.63,21.54-2.63" style="fill:none;stroke:#999;stroke-width:3"></path>
<path d="M783.4300000000001,72.78c4.03,0,16.38-2.13,21.6-2.13" style="fill:none;stroke:#999;stroke-width:3"></path>
<path d="M788.07,78.38c0.3,1.46,0.42,1.78,0,2.93c-1.82,4.94-6.57,12.44-12.15,16.94" style="fill:none;stroke:#999;stroke-width:3"></path>
<path d="M797.51,77.22c4.3,4.76,9.39,13.38,10.57,17.54" style="fill:none;stroke:#999;stroke-width:3"></path>
<path d="M830.3199999999999,11.17c0.64,1.85,0.31,3.65-0.39,5.51C825.42,28.75,821.98,37,817.2,45.91c-2.03,3.78-0.65,4.76,1.92,4.19C828.5,48,838.0,46,853.67,42.4" style="fill:none;stroke:#999;stroke-width:3"></path>

<path d="M891.3,17.49c0.36,1.31,0.88,2.29,0.88,4.05c0,1.75-0.39,48.11-0.24,53.9" style="fill:none;stroke:#999;stroke-width:3"></path>
<path d="M892.78,19.53c2.03-0.22,17.49-3.52,19.34-3.79c1.54-0.22,2.75,1.23,2.62,2.85c-0.17,2.06-0.22,41.11-0.6,54.28" style="fill:none;stroke:#999;stroke-width:3"></path>
<path d="M892.24,36.92c6.37-0.69,18.64-3,21.89-3" style="fill:none;stroke:#999;stroke-width:3"></path>
<path d="M892.4100000000001,52.68c7.75-1.07,13.02-1.63,21.54-2.63" style="fill:none;stroke:#999;stroke-width:3"></path>
<path d="M892.4300000000001,72.78c4.03,0,16.38-2.13,21.6-2.13" style="fill:none;stroke:#999;stroke-width:3"></path>
<path d="M897.07,78.38c0.3,1.46,0.42,1.78,0,2.93c-1.82,4.94-6.57,12.44-12.15,16.94" style="fill:none;stroke:#999;stroke-width:3"></path>
<path d="M906.51,77.22c4.3,4.76,9.39,13.38,10.57,17.54" style="fill:none;stroke:#999;stroke-width:3"></path>
<path d="M939.3199999999999,11.17c0.64,1.85,0.31,3.65-0.39,5.51C934.42,28.75,930.98,37,926.2,45.91c-2.03,3.78-0.65,4.76,1.92,4.19C937.5,48,947.0,46,962.67,42.4" style="fill:none;stroke:#999;stroke-width:3"></path>
<path d="M953.17,28.83c5.15,4.17,13.3,17.15,14.58,23.63" style="fill:none;stroke:#999;stroke-width:3"></path>

<path d="M1000.3,17.49c0.36,1.31,0.88,2.29,0.88,4.05c0,1.75-0.39,48.11-0.24,53.9" style="fill:none;stroke:#999;stroke-width:3"></path>
<path d="M1001.78,19.53c2.03-0.22,17.49-3.52,19.34-3.79c1.54-0.22,2.75,1.23,2.62,2.85c-0.17,2.06-0.22,41.11-0.6,54.28" style="fill:none;stroke:#999;stroke-width:3"></path>
<path d="M1001.24,36.92c6.37-0.69,18.64-3,21.89-3" style="fill:none;stroke:#999;stroke-width:3"></path>
<path d="M1001.4100000000001,52.68c7.75-1.07,13.02-1.63,21.54-2.63" style="fill:none;stroke:#999;stroke-width:3"></path>
<path d="M1001.4300000000001,72.78c4.03,0,16.38-2.13,21.6-2.13" style="fill:none;stroke:#999;stroke-width:3"></path>
<path d="M1006.07,78.38c0.3,1.46,0.42,1.78,0,2.93c-1.82,4.94-6.57,12.44-12.15,16.94" style="fill:none;stroke:#999;stroke-width:3"></path>
<path d="M1015.51,77.22c4.3,4.76,9.39,13.38,10.57,17.54" style="fill:none;stroke:#999;stroke-width:3"></path>
<path d="M1048.32,11.17c0.64,1.85,0.31,3.65-0.39,5.51C1043.42,28.75,1039.98,37,1035.2,45.91c-2.03,3.78-0.65,4.76,1.92,4.19C1046.5,48,1056.0,46,1071.67,42.4" style="fill:none;stroke:#999;stroke-width:3"></path>
<path d="M1062.17,28.83c5.15,4.17,13.3,17.15,14.58,23.63" style="fill:none;stroke:#999;stroke-width:3"></path>
<path d="M1034.12,64.71c0.49,0.52,0.99,0.96,1.2,1.61c1.69,5.18,3.14,20.72,4.29,30.02" style="fill:none;stroke:#999;stroke-width:3"></path>

<path d="M1109.3,17.49c0.36,1.31,0.88,2.29,0.88,4.05c0,1.75-0.39,48.11-0.24,53.9" style="fill:none;stroke:#999;stroke-width:3"></path>
<path d="M1110.78,19.53c2.03-0.22,17.49-3.52,19.34-3.79c1.54-0.22,2.75,1.23,2.62,2.85c-0.17,2.06-0.22,41.11-0.6,54.28" style="fill:none;stroke:#999;stroke-width:3"></path>
<path d="M1110.24,36.92c6.37-0.69,18.64-3,21.89-3" style="fill:none;stroke:#999;stroke-width:3"></path>
<path d="M1110.41,52.68c7.75-1.07,13.02-1.63,21.54-2.63" style="fill:none;stroke:#999;stroke-width:3"></path>
<path d="M1110.43,72.78c4.03,0,16.38-2.13,21.6-2.13" style="fill:none;stroke:#999;stroke-width:3"></path>
<path d="M1115.0700000000002,78.38c0.3,1.46,0.42,1.78,0,2.93c-1.82,4.94-6.57,12.44-12.15,16.94" style="fill:none;stroke:#999;stroke-width:3"></path>
<path d="M1124.51,77.22c4.3,4.76,9.39,13.38,10.57,17.54" style="fill:none;stroke:#999;stroke-width:3"></path>
<path d="M1157.32,11.17c0.64,1.85,0.31,3.65-0.39,5.51C1152.42,28.75,1148.98,37,1144.2,45.91c-2.03,3.78-0.65,4.76,1.92,4.19C1155.5,48,1165.0,46,1180.67,42.4" style="fill:none;stroke:#999;stroke-width:3"></path>
<path d="M1171.17,28.83c5.15,4.17,13.3,17.15,14.58,23.63" style="fill:none;stroke:#999;stroke-width:3"></path>
<path d="M1143.12,64.71c0.49,0.52,0.99,0.96,1.2,1.61c1.69,5.18,3.14,20.72,4.29,30.02" style="fill:none;stroke:#999;stroke-width:3"></path>
<path d="M1145.09,66.43c13.91-1.68,25.53-2.85,32.58-3.67c2.41-0.28,3.83,0.74,3.51,3.11c-0.95,6.97-3.15,17.31-4.77,24.53" style="fill:none;stroke:#999;stroke-width:3"></path>

<path d="M1218.3,17.49c0.36,1.31,0.88,2.29,0.88,4.05c0,1.75-0.39,48.11-0.24,53.9" style="fill:none;stroke:#999;stroke-width:3"></path>
<path d="M1219.78,19.53c2.03-0.22,17.49-3.52,19.34-3.79c1.54-0.22,2.75,1.23,2.62,2.85c-0.17,2.06-0.22,41.11-0.6,54.28" style="fill:none;stroke:#999;stroke-width:3"></path>
<path d="M1219.24,36.92c6.37-0.69,18.64-3,21.89-3" style="fill:none;stroke:#999;stroke-width:3"></path>
<path d="M1219.41,52.68c7.75-1.07,13.02-1.63,21.54-2.63" style="fill:none;stroke:#999;stroke-width:3"></path>
<path d="M1219.43,72.78c4.03,0,16.38-2.13,21.6-2.13" style="fill:none;stroke:#999;stroke-width:3"></path>
<path d="M1224.0700000000002,78.38c0.3,1.46,0.42,1.78,0,2.93c-1.82,4.94-6.57,12.44-12.15,16.94" style="fill:none;stroke:#999;stroke-width:3"></path>
<path d="M1233.51,77.22c4.3,4.76,9.39,13.38,10.57,17.54" style="fill:none;stroke:#999;stroke-width:3"></path>
<path d="M1266.32,11.17c0.64,1.85,0.31,3.65-0.39,5.51C1261.42,28.75,1257.98,37,1253.2,45.91c-2.03,3.78-0.65,4.76,1.92,4.19C1264.5,48,1274.0,46,1289.67,42.4" style="fill:none;stroke:#999;stroke-width:3"></path>
<path d="M1280.17,28.83c5.15,4.17,13.3,17.15,14.58,23.63" style="fill:none;stroke:#999;stroke-width:3"></path>
<path d="M1252.12,64.71c0.49,0.52,0.99,0.96,1.2,1.61c1.69,5.18,3.14,20.72,4.29,30.02" style="fill:none;stroke:#999;stroke-width:3"></path>
<path d="M1254.09,66.43c13.91-1.68,25.53-2.85,32.58-3.67c2.41-0.28,3.83,0.74,3.51,3.11c-0.95,6.97-3.15,17.31-4.77,24.53" style="fill:none;stroke:#999;stroke-width:3"></path>
<path d="M1257.49,93.74c10.76-0.99,17.26-1.24,30.31-2.04" style="fill:none;stroke:#999;stroke-width:3"></path>

</svg>