<svg width="1417px" height="109px" viewBox="0 0 1417 109" xmlns="http://www.w3.org/2000/svg" xmlns:xlink="http://www.w3.org/1999/xlink" xml:space="preserve" version="1.1" baseProfile="full">
<line x1="1" y1="1" x2="1416" y2="1" style="stroke:#ddd;stroke-width:2"></line>
<line x1="1" y1="1" x2="1" y2="108" style="stroke:#ddd;stroke-width:2"></line>
<line x1="1" y1="108" x2="1416" y2="108" style="stroke:#ddd;stroke-width:2"></line>
<line x1="1416" y1="1" x2="1416" y2="108" style="stroke:#ddd;stroke-width:2"></line>
<line x1="109" y1="1" x2="109" y2="108" style="stroke:#ddd;stroke-width:2"></line>
<line x1="218" y1="1" x2="218" y2="108" style="stroke:#ddd;stroke-width:2"></line>
<line x1="327" y1="1" x2="327" y2="108" style="stroke:#ddd;stroke-width:2"></line>
<line x1="436" y1="1" x2="436" y2="108" style="stroke:#ddd;stroke-width:2"></line>
<line x1="545" y1="1" x2="545" y2="108" style="stroke:#ddd;stroke-width:2"></line>
<line x1="654" y1="1" x2="654" y2="108" style="stroke:#ddd;stroke-width:2"></line>
<line x1="763" y1="1" x2="763" y2="108" style="stroke:#ddd;stroke-width:2"></line>
<line x1="872" y1="1" x2="872" y2="108" style="stroke:#ddd;stroke-width:2"></line>
<line x1="981" y1="1" x2="981" y2="108" style="stroke:#ddd;stroke-width:2"></line>
<line x1="1090" y1="1" x2="1090" y2="108" style="stroke:#ddd;stroke-width:2"></line>
<line x1="1199" y1="1" x2="1199" y2="108" style="stroke:#ddd;stroke-width:2"></line>
<line x1="1308" y1="1" x2="1308" y2="108" style="stroke:#ddd;stroke-width:2"></line>
<line x1="1" y1="54" x2="1416" y2="54" style="stroke:#ddd;stroke-width:2;stroke-dasharray:3 3"></line>
<line x1="55" y1="1" x2="55" y2="108" style="stroke:#ddd;stroke-width:2;stroke-dasharray:3 3"></line>
<line x1="164" y1="1" x2="164" y2="108" style="stroke:#ddd;stroke-width:2;stroke-dasharray:3 3"></line>
<line x1="273" y1="1" x2="273" y2="108" style="stroke:#ddd;stroke-width:2;stroke-dasharray:3 3"></line>
<line x1="382" y1="1" x2="382" y2="108" style="stroke:#ddd;stroke-width:2;stroke-dasharray:3 3"></line>
<line x1="491" y1="1" x2="491" y2="108" style="stroke:#ddd;stroke-width:2;stroke-dasharray:3 3"></line>
<line x1="600" y1="1" x2="600" y2="108" style="stroke:#ddd;stroke-width:2;stroke-dasharray:3 3"></line>
<line x1="709" y1="1" x2="709" y2="108" style="stroke:#ddd;stroke-width:2;stroke-dasharray:3 3"></line>
<line x1="818" y1="1" x2="818" y2="108" style="stroke:#ddd;stroke-width:2;stroke-dasharray:3 3"></line>
<line x1="927" y1="1" x2="927" y2="108" style="stroke:#ddd;stroke-width:2;stroke-dasharray:3 3"></line>
<line x1="1036" y1="1" x2="1036" y2="108" style="stroke:#ddd;stroke-width:2;stroke-dasharray:3 3"></line>
<line x1="1145" y1="1" x2="1145" y2="108" style="stroke:#ddd;stroke-width:2;stroke-dasharray:3 3"></line>
<line x1="1254" y1="1" x2="1254" y2="108" style="stroke:#ddd;stroke-width:2;stroke-dasharray:3 3"></line>
<line x1="1363" y1="1" x2="1363" y2="108" style="stroke:#ddd;stroke-width:2;stroke-dasharray:3 3"></line>
<path d="M17.75,12.5c3.84,1.59,9.93,6.55,10.89,9.03" style="fill:none;stroke:#999;stroke-width:3"></path>

<path d="M126.75,12.5c3.84,1.59,9.93,6.55,10.89,9.03" style="fill:none;stroke:#999;stroke-width:3"></path>
<path d="M123.75,45.48c1.65,1.06,3.79,0.89,4.95,0c1.12-0.86,7.91-7.68,12.2-12.08" style="fill:none;stroke:#999;stroke-width:3"></path>

<path d="M235.75,12.5c3.84,1.59,9.93,6.55,10.89,9.03" style="fill:none;stroke:#999;stroke-width:3"></path>
<path d="M232.75,45.48c1.65,1.06,3.79,0.89,4.95,0c1.12-0.86,7.91-7.68,12.2-12.08" style="fill:none;stroke:#999;stroke-width:3"></path>
<path d="M271.8,8.75c0.1,1.15-0.03,1.91-0.51,2.96c-2.33,5.05-6.75,11.06-15.92,17.26" style="fill:none;stroke:#999;stroke-width:3"></path>

<path d="M344.75,12.5c3.84,1.59,9.93,6.55,10.89,9.03" style="fill:none;stroke:#999;stroke-width:3"></path>
<path d="M341.75,45.48c1.65,1.06,3.79,0.89,4.95,0c1.12-0.86,7.91-7.68,12.2-12.08" style="fill:none;stroke:#999;stroke-width:3"></path>
<path d="M380.8,8.75c0.1,1.15-0.03,1.91-0.51,2.96c-2.33,5.05-6.75,11.06-15.92,17.26" style="fill:none;stroke:#999;stroke-width:3"></path>
<path d="M379.89,18c1.1,0.16,2.95,0.12,4.57-0.23c5.42-1.15,10.92-2.53,18.65-4c5.84-1.12,3.4,4.23-4.76,11.3" style="fill:none;stroke:#999;stroke-width:3"></path>

<path d="M453.75,12.5c3.84,1.59,9.93,6.55,10.89,9.03" style="fill:none;stroke:#999;stroke-width:3"></path>
<path d="M450.75,45.48c1.65,1.06,3.79,0.89,4.95,0c1.12-0.86,7.91-7.68,12.2-12.08" style="fill:none;stroke:#999;stroke-width:3"></path>
<path d="M489.8,8.75c0.1,1.15-0.03,1.91-0.51,2.96c-2.33,5.05-6.75,11.06-15.92,17.26" style="fill:none;stroke:#999;stroke-width:3"></path>
<path d="M488.89,18c1.1,0.16,2.95,0.12,4.57-0.23c5.42-1.15,10.92-2.53,18.65-4c5.84-1.12,3.4,4.23-4.76,11.3" style="fill:none;stroke:#999;stroke-width:3"></path>
<path d="M493.29,23.91c0.15,1.24-0.22,2.51-0.66,3.64C490.84000000000003,32.16,485.49,39.4,474.99,43" style="fill:none;stroke:#999;stroke-width:3"></path>

<path d="M562.75,12.5c3.84,1.59,9.93,6.55,10.89,9.03" style="fill:none;stroke:#999;stroke-width:3"></path>
<path d="M559.75,45.48c1.65,1.06,3.79,0.89,4.95,0c1.12-0.86,7.91-7.68,12.2-12.08" style="fill:none;stroke:#999;stroke-width:3"></path>
<path d="M598.8,8.75c0.1,1.15-0.03,1.91-0.51,2.96c-2.33,5.05-6.75,11.06-15.92,17.26" style="fill:none;stroke:#999;stroke-width:3"></path>
<path d="M597.89,18c1.1,0.16,2.95,0.12,4.57-0.23c5.42-1.15,10.92-2.53,18.65-4c5.84-1.12,3.4,4.23-4.76,11.3" style="fill:none;stroke:#999;stroke-width:3"></path>
<path d="M602.29,23.91c0.15,1.24-0.22,2.51-0.66,3.64C599.84,32.16,594.49,39.4,583.99,43" style="fill:none;stroke:#999;stroke-width:3"></path>
<path d="M603.19,27.39c4.39,2.95,18.47,10.99,27.62,15.14c2.46,1.12,4.19,2.1,6.69,2.83" style="fill:none;stroke:#999;stroke-width:3"></path>

<path d="M671.75,12.5c3.84,1.59,9.93,6.55,10.89,9.03" style="fill:none;stroke:#999;stroke-width:3"></path>
<path d="M668.75,45.48c1.65,1.06,3.79,0.89,4.95,0c1.12-0.86,7.91-7.68,12.2-12.08" style="fill:none;stroke:#999;stroke-width:3"></path>
<path d="M707.8,8.75c0.1,1.15-0.03,1.91-0.51,2.96c-2.33,5.05-6.75,11.06-15.92,17.26" style="fill:none;stroke:#999;stroke-width:3"></path>
<path d="M706.89,18c1.1,0.16,2.95,0.12,4.57-0.23c5.42-1.15,10.92-2.53,18.65-4c5.84-1.12,3.4,4.23-4.76,11.3" style="fill:none;stroke:#999;stroke-width:3"></path>
<path d="M711.29,23.91c0.15,1.24-0.22,2.51-0.66,3.64C708.84,32.16,703.49,39.4,692.99,43" style="fill:none;stroke:#999;stroke-width:3"></path>
<path d="M712.19,27.39c4.39,2.95,18.47,10.99,27.62,15.14c2.46,1.12,4.19,2.1,6.69,2.83" style="fill:none;stroke:#999;stroke-width:3"></path>
<path d="M686.66,46.48c0.87,0.87,1.3,2.95,1.3,4.06c0,1.11-0.17,29.5-0.17,30.05c0,0.55-0.08,2.41-0.08,4.41" style="fill:none;stroke:#999;stroke-width:3"></path>

<path d="M780.75,12.5c3.84,1.59,9.93,6.55,10.89,9.03" style="fill:none;stroke:#999;stroke-width:3"></path>
<path d="M777.75,45.48c1.65,1.06,3.79,0.89,4.95,0c1.12-0.86,7.91-7.68,12.2-12.08" style="fill:none;stroke:#999;stroke-width:3"></path>
<path d="M816.8,8.75c0.1,1.15-0.03,1.91-0.51,2.96c-2.33,5.05-6.75,11.06-15.92,17.26" style="fill:none;stroke:#999;stroke-width:3"></path>
<path d="M815.89,18c1.1,0.16,2.95,0.12,4.57-0.23c5.42-1.15,10.92-2.53,18.65-4c5.84-1.12,3.4,4.23-4.76,11.3" style="fill:none;stroke:#999;stroke-width:3"></path>
<path d="M820.29,23.91c0.15,1.24-0.22,2.51-0.66,3.64C817.84,32.16,812.49,39.4,801.99,43" style="fill:none;stroke:#999;stroke-width:3"></path>
<path d="M821.19,27.39c4.39,2.95,18.47,10.99,27.62,15.14c2.46,1.12,4.19,2.1,6.69,2.83" style="fill:none;stroke:#999;stroke-width:3"></path>
<path d="M795.66,46.48c0.87,0.87,1.3,2.95,1.3,4.06c0,1.11-0.17,29.5-0.17,30.05c0,0.55-0.08,2.41-0.08,4.41" style="fill:none;stroke:#999;stroke-width:3"></path>
<path d="M797.76,48.32c10.62-0.94,23.87-2.19,33.7-2.83c3.3-0.21,4.61,0.89,4.61,4.05c0,3.46-0.06,16.82-0.05,29.02c0,1.25,0.04,2.94,0.04,4.88" style="fill:none;stroke:#999;stroke-width:3"></path>

<path d="M889.75,12.5c3.84,1.59,9.93,6.55,10.89,9.03" style="fill:none;stroke:#999;stroke-width:3"></path>
<path d="M886.75,45.48c1.65,1.06,3.79,0.89,4.95,0c1.12-0.86,7.91-7.68,12.2-12.08" style="fill:none;stroke:#999;stroke-width:3"></path>
<path d="M925.8,8.75c0.1,1.15-0.03,1.91-0.51,2.96c-2.33,5.05-6.75,11.06-15.92,17.26" style="fill:none;stroke:#999;stroke-width:3"></path>
<path d="M924.89,18c1.1,0.16,2.95,0.12,4.57-0.23c5.42-1.15,10.92-2.53,18.65-4c5.84-1.12,3.4,4.23-4.76,11.3" style="fill:none;stroke:#999;stroke-width:3"></path>
<path d="M929.29,23.91c0.15,1.24-0.22,2.51-0.66,3.64C926.84,32.16,921.49,39.4,910.99,43" style="fill:none;stroke:#999;stroke-width:3"></path>
<path d="M930.19,27.39c4.39,2.95,18.47,10.99,27.62,15.14c2.46,1.12,4.19,2.1,6.69,2.83" style="fill:none;stroke:#999;stroke-width:3"></path>
<path d="M904.66,46.48c0.87,0.87,1.3,2.95,1.3,4.06c0,1.11-0.17,29.5-0.17,30.05c0,0.55-0.08,2.41-0.08,4.41" style="fill:none;stroke:#999;stroke-width:3"></path>
<path d="M906.76,48.32c10.62-0.94,23.87-2.19,33.7-2.83c3.3-0.21,4.61,0.89,4.61,4.05c0,3.46-0.06,16.82-0.05,29.02c0,1.25,0.04,2.94,0.04,4.88" style="fill:none;stroke:#999;stroke-width:3"></path>
<path d="M906.95,59.28c15.68-1.41,26.18-2.41,36.89-2.75" style="fill:none;stroke:#999;stroke-width:3"></path>

<path d="M998.75,12.5c3.84,1.59,9.93,6.55,10.89,9.03" style="fill:none;stroke:#999;stroke-width:3"></path>
<path d="M995.75,45.48c1.65,1.06,3.79,0.89,4.95,0c1.12-0.86,7.91-7.68,12.2-12.08" style="fill:none;stroke:#999;stroke-width:3"></path>
<path d="M1034.8,8.75c0.1,1.15-0.03,1.91-0.51,2.96c-2.33,5.05-6.75,11.06-15.92,17.26" style="fill:none;stroke:#999;stroke-width:3"></path>
<path d="M1033.8899999999999,18c1.1,0.16,2.95,0.12,4.57-0.23c5.42-1.15,10.92-2.53,18.65-4c5.84-1.12,3.4,4.23-4.76,11.3" style="fill:none;stroke:#999;stroke-width:3"></path>
<path d="M1038.29,23.91c0.15,1.24-0.22,2.51-0.66,3.64C1035.8400000000001,32.16,1030.49,39.4,1019.99,43" style="fill:none;stroke:#999;stroke-width:3"></path>
<path d="M1039.19,27.39c4.39,2.95,18.47,10.99,27.62,15.14c2.46,1.12,4.19,2.1,6.69,2.83" style="fill:none;stroke:#999;stroke-width:3"></path>
<path d="M1013.66,46.48c0.87,0.87,1.3,2.95,1.3,4.06c0,1.11-0.17,29.5-0.17,30.05c0,0.55-0.08,2.41-0.08,4.41" style="fill:none;stroke:#999;stroke-width:3"></path>
<path d="M1015.76,48.32c10.62-0.94,23.87-2.19,33.7-2.83c3.3-0.21,4.61,0.89,4.61,4.05c0,3.46-0.06,16.82-0.05,29.02c0,1.25,0.04,2.94,0.04,4.88" style="fill:none;stroke:#999;stroke-width:3"></path>
<path d="M1015.95,59.28c15.68-1.41,26.18-2.41,36.89-2.75" style="fill:none;stroke:#999;stroke-width:3"></path>
<path d="M1015.99,70.23c11.51-1.11,26.76-2.48,37.18-2.91" style="fill:none;stroke:#999;stroke-width:3"></path>

<path d="M1107.75,12.5c3.84,1.59,9.93,6.55,10.89,9.03" style="fill:none;stroke:#999;stroke-width:3"></path>
<path d="M1104.75,45.48c1.65,1.06,3.79,0.89,4.95,0c1.12-0.86,7.91-7.68,12.2-12.08" style="fill:none;stroke:#999;stroke-width:3"></path>
<path d="M1143.8,8.75c0.1,1.15-0.03,1.91-0.51,2.96c-2.33,5.05-6.75,11.06-15.92,17.26" style="fill:none;stroke:#999;stroke-width:3"></path>
<path d="M1142.8899999999999,18c1.1,0.16,2.95,0.12,4.57-0.23c5.42-1.15,10.92-2.53,18.65-4c5.84-1.12,3.4,4.23-4.76,11.3" style="fill:none;stroke:#999;stroke-width:3"></path>
<path d="M1147.29,23.91c0.15,1.24-0.22,2.51-0.66,3.64C1144.8400000000001,32.16,1139.49,39.4,1128.99,43" style="fill:none;stroke:#999;stroke-width:3"></path>
<path d="M1148.19,27.39c4.39,2.95,18.47,10.99,27.62,15.14c2.46,1.12,4.19,2.1,6.69,2.83" style="fill:none;stroke:#999;stroke-width:3"></path>
<path d="M1122.6599999999999,46.48c0.87,0.87,1.3,2.95,1.3,4.06c0,1.11-0.17,29.5-0.17,30.05c0,0.55-0.08,2.41-0.08,4.41" style="fill:none;stroke:#999;stroke-width:3"></path>
<path d="M1124.76,48.32c10.62-0.94,23.87-2.19,33.7-2.83c3.3-0.21,4.61,0.89,4.61,4.05c0,3.46-0.06,16.82-0.05,29.02c0,1.25,0.04,2.94,0.04,4.88" style="fill:none;stroke:#999;stroke-width:3"></path>
<path d="M1124.95,59.28c15.68-1.41,26.18-2.41,36.89-2.75" style="fill:none;stroke:#999;stroke-width:3"></path>
<path d="M1124.99,70.23c11.51-1.11,26.76-2.48,37.18-2.91" style="fill:none;stroke:#999;stroke-width:3"></path>
<path d="M1124.66,81.5c8.59-0.63,28.02-2.16,37.18-2.16" style="fill:none;stroke:#999;stroke-width:3"></path>

<path d="M1216.75,12.5c3.84,1.59,9.93,6.55,10.89,9.03" style="fill:none;stroke:#999;stroke-width:3"></path>
<path d="M1213.75,45.48c1.65,1.06,3.79,0.89,4.95,0c1.12-0.86,7.91-7.68,12.2-12.08" style="fill:none;stroke:#999;stroke-width:3"></path>
<path d="M1252.8,8.75c0.1,1.15-0.03,1.91-0.51,2.96c-2.33,5.05-6.75,11.06-15.92,17.26" style="fill:none;stroke:#999;stroke-width:3"></path>
<path d="M1251.8899999999999,18c1.1,0.16,2.95,0.12,4.57-0.23c5.42-1.15,10.92-2.53,18.65-4c5.84-1.12,3.4,4.23-4.76,11.3" style="fill:none;stroke:#999;stroke-width:3"></path>
<path d="M1256.29,23.91c0.15,1.24-0.22,2.51-0.66,3.64C1253.8400000000001,32.16,1248.49,39.4,1237.99,43" style="fill:none;stroke:#999;stroke-width:3"></path>
<path d="M1257.19,27.39c4.39,2.95,18.47,10.99,27.62,15.14c2.46,1.12,4.19,2.1,6.69,2.83" style="fill:none;stroke:#999;stroke-width:3"></path>
<path d="M1231.6599999999999,46.48c0.87,0.87,1.3,2.95,1.3,4.06c0,1.11-0.17,29.5-0.17,30.05c0,0.55-0.08,2.41-0.08,4.41" style="fill:none;stroke:#999;stroke-width:3"></path>
<path d="M1233.76,48.32c10.62-0.94,23.87-2.19,33.7-2.83c3.3-0.21,4.61,0.89,4.61,4.05c0,3.46-0.06,16.82-0.05,29.02c0,1.25,0.04,2.94,0.04,4.88" style="fill:none;stroke:#999;stroke-width:3"></path>
<path d="M1233.95,59.28c15.68-1.41,26.18-2.41,36.89-2.75" style="fill:none;stroke:#999;stroke-width:3"></path>
<path d="M1233.99,70.23c11.51-1.11,26.76-2.48,37.18-2.91" style="fill:none;stroke:#999;stroke-width:3"></path>
<path d="M1233.66,81.5c8.59-0.63,28.02-2.16,37.18-2.16" style="fill:none;stroke:#999;stroke-width:3"></path>
<path d="M1240.82,85.22c0.05,1.03-0.25,2.33-1.27,3.26c-3.07,2.79-9.82,6.92-18.18,11.02" style="fill:none;stroke:#999;stroke-width:3"></path>

<path d="M1325.75,12.5c3.84,1.59,9.93,6.55,10.89,9.03" style="fill:none;stroke:#999;stroke-width:3"></path>
<path d="M1322.75,45.48c1.65,1.06,3.79,0.89,4.95,0c1.12-0.86,7.91-7.68,12.2-12.08" style="fill:none;stroke:#999;stroke-width:3"></path>
<path d="M1361.8,8.75c0.1,1.15-0.03,1.91-0.51,2.96c-2.33,5.05-6.75,11.06-15.92,17.26" style="fill:none;stroke:#999;stroke-width:3"></path>
<path d="M1360.8899999999999,18c1.1,0.16,2.95,0.12,4.57-0.23c5.42-1.15,10.92-2.53,18.65-4c5.84-1.12,3.4,4.23-4.76,11.3" style="fill:none;stroke:#999;stroke-width:3"></path>
<path d="M1365.29,23.91c0.15,1.24-0.22,2.51-0.66,3.64C1362.8400000000001,32.16,1357.49,39.4,1346.99,43" style="fill:none;stroke:#999;stroke-width:3"></path>
<path d="M1366.19,27.39c4.39,2.95,18.47,10.99,27.62,15.14c2.46,1.12,4.19,2.1,6.69,2.83" style="fill:none;stroke:#999;stroke-width:3"></path>
<path d="M1340.6599999999999,46.48c0.87,0.87,1.3,2.95,1.3,4.06c0,1.11-0.17,29.5-0.17,30.05c0,0.55-0.08,2.41-0.08,4.41" style="fill:none;stroke:#999;stroke-width:3"></path>
<path d="M1342.76,48.32c10.62-0.94,23.87-2.19,33.7-2.83c3.3-0.21,4.61,0.89,4.61,4.05c0,3.46-0.06,16.82-0.05,29.02c0,1.25,0.04,2.94,0.04,4.88" style="fill:none;stroke:#999;stroke-width:3"></path>
<path d="M1342.95,59.28c15.68-1.41,26.18-2.41,36.89-2.75" style="fill:none;stroke:#999;stroke-width:3"></path>
<path d="M1342.99,70.23c11.51-1.11,26.76-2.48,37.18-2.91" style="fill:none;stroke:#999;stroke-width:3"></path>
<path d="M1342.66,81.5c8.59-0.63,28.02-2.16,37.18-2.16" style="fill:none;stroke:#999;stroke-width:3"></path>
<path d="M1349.82,85.22c0.05,1.03-0.25,2.33-1.27,3.26c-3.07,2.79-9.82,6.92-18.18,11.02" style="fill:none;stroke:#999;stroke-width:3"></path>
<path d="M1372.24,85.14c7.71,4.05,16.81,11.39,18.91,14.93" style="fill:none;stroke:#999;stroke-width:3"></path>

</svg>