<svg width="1635px" height="109px" viewBox="0 0 1635 109" xmlns="http://www.w3.org/2000/svg" xmlns:xlink="http://www.w3.org/1999/xlink" xml:space="preserve" version="1.1" baseProfile="full">
<line x1="1" y1="1" x2="1634" y2="1" style="stroke:#ddd;stroke-width:2"></line>
<line x1="1" y1="1" x2="1" y2="108" style="stroke:#ddd;stroke-width:2"></line>
<line x1="1" y1="108" x2="1634" y2="108" style="stroke:#ddd;stroke-width:2"></line>
<line x1="1634" y1="1" x2="1634" y2="108" style="stroke:#ddd;stroke-width:2"></line>
<line x1="109" y1="1" x2="109" y2="108" style="stroke:#ddd;stroke-width:2"></line>
<line x1="218" y1="1" x2="218" y2="108" style="stroke:#ddd;stroke-width:2"></line>
<line x1="327" y1="1" x2="327" y2="108" style="stroke:#ddd;stroke-width:2"></line>
<line x1="436" y1="1" x2="436" y2="108" style="stroke:#ddd;stroke-width:2"></line>
<line x1="545" y1="1" x2="545" y2="108" style="stroke:#ddd;stroke-width:2"></line>
<line x1="654" y1="1" x2="654" y2="108" style="stroke:#ddd;stroke-width:2"></line>
<line x1="763" y1="1" x2="763" y2="108" style="stroke:#ddd;stroke-width:2"></line>
<line x1="872" y1="1" x2="872" y2="108" style="stroke:#ddd;stroke-width:2"></line>
<line x1="981" y1="1" x2="981" y2="108" style="stroke:#ddd;stroke-width:2"></line>
<line x1="1090" y1="1" x2="1090" y2="108" style="stroke:#ddd;stroke-width:2"></line>
<line x1="1199" y1="1" x2="1199" y2="108" style="stroke:#ddd;stroke-width:2"></line>
<line x1="1308" y1="1" x2="1308" y2="108" style="stroke:#ddd;stroke-width:2"></line>
<line x1="1417" y1="1" x2="1417" y2="108" style="stroke:#ddd;stroke-width:2"></line>
<line x1="1526" y1="1" x2="1526" y2="108" style="stroke:#ddd;stroke-width:2"></line>
<line x1="1" y1="54" x2="1634" y2="54" style="stroke:#ddd;stroke-width:2;stroke-dasharray:3 3"></line>
<line x1="55" y1="1" x2="55" y2="108" style="stroke:#ddd;stroke-width:2;stroke-dasharray:3 3"></line>
<line x1="164" y1="1" x2="164" y2="108" style="stroke:#ddd;stroke-width:2;stroke-dasharray:3 3"></line>
<line x1="273" y1="1" x2="273" y2="108" style="stroke:#ddd;stroke-width:2;stroke-dasharray:3 3"></line>
<line x1="382" y1="1" x2="382" y2="108" style="stroke:#ddd;stroke-width:2;stroke-dasharray:3 3"></line>
<line x1="491" y1="1" x2="491" y2="108" style="stroke:#ddd;stroke-width:2;stroke-dasharray:3 3"></line>
<line x1="600" y1="1" x2="600" y2="108" style="stroke:#ddd;stroke-width:2;stroke-dasharray:3 3"></line>
<line x1="709" y1="1" x2="709" y2="108" style="stroke:#ddd;stroke-width:2;stroke-dasharray:3 3"></line>
<line x1="818" y1="1" x2="818" y2="108" style="stroke:#ddd;stroke-width:2;stroke-dasharray:3 3"></line>
<line x1="927" y1="1" x2="927" y2="108" style="stroke:#ddd;stroke-width:2;stroke-dasharray:3 3"></line>
<line x1="1036" y1="1" x2="1036" y2="108" style="stroke:#ddd;stroke-width:2;stroke-dasharray:3 3"></line>
<line x1="1145" y1="1" x2="1145" y2="108" style="stroke:#ddd;stroke-width:2;stroke-dasharray:3 3"></line>
<line x1="1254" y1="1" x2="1254" y2="108" style="stroke:#ddd;stroke-width:2;stroke-dasharray:3 3"></line>
<line x1="1363" y1="1" x2="1363" y2="108" style="stroke:#ddd;stroke-width:2;stroke-dasharray:3 3"></line>
<line x1="1472" y1="1" x2="1472" y2="108" style="stroke:#ddd;stroke-width:2;stroke-dasharray:3 3"></line>
<line x1="1581" y1="1" x2="1581" y2="108" style="stroke:#ddd;stroke-width:2;stroke-dasharray:3 3"></line>
<path d="M17.9,20.68c0.31,1.17,0.77,2.04,0.77,3.6c0,1.56-0.34,45.47-0.21,50.61" style="fill:none;stroke:#999;stroke-width:3"></path>

<path d="M126.9,20.68c0.31,1.17,0.77,2.04,0.77,3.6c0,1.56-0.34,45.47-0.21,50.61" style="fill:none;stroke:#999;stroke-width:3"></path>
<path d="M128.19,22.31c1.82-0.2,15.66-2.82,17.31-3.06c1.38-0.2,2.47,1.14,2.35,2.66c-0.15,1.92-0.59,38.78-0.94,51.05" style="fill:none;stroke:#999;stroke-width:3"></path>

<path d="M235.9,20.68c0.31,1.17,0.77,2.04,0.77,3.6c0,1.56-0.34,45.47-0.21,50.61" style="fill:none;stroke:#999;stroke-width:3"></path>
<path d="M237.19,22.31c1.82-0.2,15.66-2.82,17.31-3.06c1.38-0.2,2.47,1.14,2.35,2.66c-0.15,1.92-0.59,38.78-0.94,51.05" style="fill:none;stroke:#999;stroke-width:3"></path>
<path d="M237.16,38.51c5.7-0.65,15.79-1.79,18.7-1.79" style="fill:none;stroke:#999;stroke-width:3"></path>

<path d="M344.9,20.68c0.31,1.17,0.77,2.04,0.77,3.6c0,1.56-0.34,45.47-0.21,50.61" style="fill:none;stroke:#999;stroke-width:3"></path>
<path d="M346.19,22.31c1.82-0.2,15.66-2.82,17.31-3.06c1.38-0.2,2.47,1.14,2.35,2.66c-0.15,1.92-0.59,38.78-0.94,51.05" style="fill:none;stroke:#999;stroke-width:3"></path>
<path d="M346.15999999999997,38.51c5.7-0.65,15.79-1.79,18.7-1.79" style="fill:none;stroke:#999;stroke-width:3"></path>
<path d="M345.81,55.09c6.94-0.99,11.32-1.02,18.94-1.95" style="fill:none;stroke:#999;stroke-width:3"></path>

<path d="M453.9,20.68c0.31,1.17,0.77,2.04,0.77,3.6c0,1.56-0.34,45.47-0.21,50.61" style="fill:none;stroke:#999;stroke-width:3"></path>
<path d="M455.19,22.31c1.82-0.2,15.66-2.82,17.31-3.06c1.38-0.2,2.47,1.14,2.35,2.66c-0.15,1.92-0.59,38.78-0.94,51.05" style="fill:none;stroke:#999;stroke-width:3"></path>
<path d="M455.15999999999997,38.51c5.7-0.65,15.79-1.79,18.7-1.79" style="fill:none;stroke:#999;stroke-width:3"></path>
<path d="M454.81,55.09c6.94-0.99,11.32-1.02,18.94-1.95" style="fill:none;stroke:#999;stroke-width:3"></path>
<path d="M454.78,71.93c3.61,0,13.87-1.45,18.55-1.45" style="fill:none;stroke:#999;stroke-width:3"></path>

<path d="M562.9,20.68c0.31,1.17,0.77,2.04,0.77,3.6c0,1.56-0.34,45.47-0.21,50.61" style="fill:none;stroke:#999;stroke-width:3"></path>
<path d="M564.19,22.31c1.82-0.2,15.66-2.82,17.31-3.06c1.38-0.2,2.47,1.14,2.35,2.66c-0.15,1.92-0.59,38.78-0.94,51.05" style="fill:none;stroke:#999;stroke-width:3"></path>
<path d="M564.16,38.51c5.7-0.65,15.79-1.79,18.7-1.79" style="fill:none;stroke:#999;stroke-width:3"></path>
<path d="M563.81,55.09c6.94-0.99,11.32-1.02,18.94-1.95" style="fill:none;stroke:#999;stroke-width:3"></path>
<path d="M563.78,71.93c3.61,0,13.87-1.45,18.55-1.45" style="fill:none;stroke:#999;stroke-width:3"></path>
<path d="M568.29,80.23c0.23,1.09,0.45,1.38,0,2.17c-1.37,2.39-6.37,9.77-9.12,12.59" style="fill:none;stroke:#999;stroke-width:3"></path>

<path d="M671.9,20.68c0.31,1.17,0.77,2.04,0.77,3.6c0,1.56-0.34,45.47-0.21,50.61" style="fill:none;stroke:#999;stroke-width:3"></path>
<path d="M673.19,22.31c1.82-0.2,15.66-2.82,17.31-3.06c1.38-0.2,2.47,1.14,2.35,2.66c-0.15,1.92-0.59,38.78-0.94,51.05" style="fill:none;stroke:#999;stroke-width:3"></path>
<path d="M673.16,38.51c5.7-0.65,15.79-1.79,18.7-1.79" style="fill:none;stroke:#999;stroke-width:3"></path>
<path d="M672.81,55.09c6.94-0.99,11.32-1.02,18.94-1.95" style="fill:none;stroke:#999;stroke-width:3"></path>
<path d="M672.78,71.93c3.61,0,13.87-1.45,18.55-1.45" style="fill:none;stroke:#999;stroke-width:3"></path>
<path d="M677.29,80.23c0.23,1.09,0.45,1.38,0,2.17c-1.37,2.39-6.37,9.77-9.12,12.59" style="fill:none;stroke:#999;stroke-width:3"></path>
<path d="M685.91,77.7c3.94,4.23,8.59,11.88,9.66,15.58" style="fill:none;stroke:#999;stroke-width:3"></path>

<path d="M780.9,20.68c0.31,1.17,0.77,2.04,0.77,3.6c0,1.56-0.34,45.47-0.21,50.61" style="fill:none;stroke:#999;stroke-width:3"></path>
<path d="M782.19,22.31c1.82-0.2,15.66-2.82,17.31-3.06c1.38-0.2,2.47,1.14,2.35,2.66c-0.15,1.92-0.59,38.78-0.94,51.05" style="fill:none;stroke:#999;stroke-width:3"></path>
<path d="M782.16,38.51c5.7-0.65,15.79-1.79,18.7-1.79" style="fill:none;stroke:#999;stroke-width:3"></path>
<path d="M781.81,55.09c6.94-0.99,11.32-1.02,18.94-1.95" style="fill:none;stroke:#999;stroke-width:3"></path>
<path d="M781.78,71.93c3.61,0,13.87-1.45,18.55-1.45" style="fill:none;stroke:#999;stroke-width:3"></path>
<path d="M786.29,80.23c0.23,1.09,0.45,1.38,0,2.17c-1.37,2.39-6.37,9.77-9.12,12.59" style="fill:none;stroke:#999;stroke-width:3"></path>
<path d="M794.91,77.7c3.94,4.23,8.59,11.88,9.66,15.58" style="fill:none;stroke:#999;stroke-width:3"></path>
<path d="M809.72,27.72c0.86,0.67,2.44,0.74,3.31,0.67c6.72-0.61,24.54-6.53,32.31-7.44c1.43-0.17,2.3,0.32,3.02,0.65" style="fill:none;stroke:#999;stroke-width:3"></path>

<path d="M889.9,20.68c0.31,1.17,0.77,2.04,0.77,3.6c0,1.56-0.34,45.47-0.21,50.61" style="fill:none;stroke:#999;stroke-width:3"></path>
<path d="M891.19,22.31c1.82-0.2,15.66-2.82,17.31-3.06c1.38-0.2,2.47,1.14,2.35,2.66c-0.15,1.92-0.59,38.78-0.94,51.05" style="fill:none;stroke:#999;stroke-width:3"></path>
<path d="M891.16,38.51c5.7-0.65,15.79-1.79,18.7-1.79" style="fill:none;stroke:#999;stroke-width:3"></path>
<path d="M890.81,55.09c6.94-0.99,11.32-1.02,18.94-1.95" style="fill:none;stroke:#999;stroke-width:3"></path>
<path d="M890.78,71.93c3.61,0,13.87-1.45,18.55-1.45" style="fill:none;stroke:#999;stroke-width:3"></path>
<path d="M895.29,80.23c0.23,1.09,0.45,1.38,0,2.17c-1.37,2.39-6.37,9.77-9.12,12.59" style="fill:none;stroke:#999;stroke-width:3"></path>
<path d="M903.91,77.7c3.94,4.23,8.59,11.88,9.66,15.58" style="fill:none;stroke:#999;stroke-width:3"></path>
<path d="M918.72,27.72c0.86,0.67,2.44,0.74,3.31,0.67c6.72-0.61,24.54-6.53,32.31-7.44c1.43-0.17,2.3,0.32,3.02,0.65" style="fill:none;stroke:#999;stroke-width:3"></path>
<path d="M930.31,11.5c1.39,0.79,2.04,1.92,2.33,3.62c2.44,14.22,11.33,28.09,28.41,33.4c5.48,1.7,5.39-0.29,4.01-5.9" style="fill:none;stroke:#999;stroke-width:3"></path>

<path d="M998.9,20.68c0.31,1.17,0.77,2.04,0.77,3.6c0,1.56-0.34,45.47-0.21,50.61" style="fill:none;stroke:#999;stroke-width:3"></path>
<path d="M1000.19,22.31c1.82-0.2,15.66-2.82,17.31-3.06c1.38-0.2,2.47,1.14,2.35,2.66c-0.15,1.92-0.59,38.78-0.94,51.05" style="fill:none;stroke:#999;stroke-width:3"></path>
<path d="M1000.16,38.51c5.7-0.65,15.79-1.79,18.7-1.79" style="fill:none;stroke:#999;stroke-width:3"></path>
<path d="M999.81,55.09c6.94-0.99,11.32-1.02,18.94-1.95" style="fill:none;stroke:#999;stroke-width:3"></path>
<path d="M999.78,71.93c3.61,0,13.87-1.45,18.55-1.45" style="fill:none;stroke:#999;stroke-width:3"></path>
<path d="M1004.29,80.23c0.23,1.09,0.45,1.38,0,2.17c-1.37,2.39-6.37,9.77-9.12,12.59" style="fill:none;stroke:#999;stroke-width:3"></path>
<path d="M1012.91,77.7c3.94,4.23,8.59,11.88,9.66,15.58" style="fill:none;stroke:#999;stroke-width:3"></path>
<path d="M1027.72,27.72c0.86,0.67,2.44,0.74,3.31,0.67c6.72-0.61,24.54-6.53,32.31-7.44c1.43-0.17,2.3,0.32,3.02,0.65" style="fill:none;stroke:#999;stroke-width:3"></path>
<path d="M1039.31,11.5c1.39,0.79,2.04,1.92,2.33,3.62c2.44,14.22,11.33,28.09,28.41,33.4c5.48,1.7,5.39-0.29,4.01-5.9" style="fill:none;stroke:#999;stroke-width:3"></path>
<path d="M1061.43,27.2c-0.18,0.65-0.36,1.32-0.79,1.92c-3.74,5.2-13.67,12.68-29.31,18.83" style="fill:none;stroke:#999;stroke-width:3"></path>

<path d="M1107.9,20.68c0.31,1.17,0.77,2.04,0.77,3.6c0,1.56-0.34,45.47-0.21,50.61" style="fill:none;stroke:#999;stroke-width:3"></path>
<path d="M1109.19,22.31c1.82-0.2,15.66-2.82,17.31-3.06c1.38-0.2,2.47,1.14,2.35,2.66c-0.15,1.92-0.59,38.78-0.94,51.05" style="fill:none;stroke:#999;stroke-width:3"></path>
<path d="M1109.1599999999999,38.51c5.7-0.65,15.79-1.79,18.7-1.79" style="fill:none;stroke:#999;stroke-width:3"></path>
<path d="M1108.81,55.09c6.94-0.99,11.32-1.02,18.94-1.95" style="fill:none;stroke:#999;stroke-width:3"></path>
<path d="M1108.78,71.93c3.61,0,13.87-1.45,18.55-1.45" style="fill:none;stroke:#999;stroke-width:3"></path>
<path d="M1113.29,80.23c0.23,1.09,0.45,1.38,0,2.17c-1.37,2.39-6.37,9.77-9.12,12.59" style="fill:none;stroke:#999;stroke-width:3"></path>
<path d="M1121.9099999999999,77.7c3.94,4.23,8.59,11.88,9.66,15.58" style="fill:none;stroke:#999;stroke-width:3"></path>
<path d="M1136.72,27.72c0.86,0.67,2.44,0.74,3.31,0.67c6.72-0.61,24.54-6.53,32.31-7.44c1.43-0.17,2.3,0.32,3.02,0.65" style="fill:none;stroke:#999;stroke-width:3"></path>
<path d="M1148.31,11.5c1.39,0.79,2.04,1.92,2.33,3.62c2.44,14.22,11.33,28.09,28.41,33.4c5.48,1.7,5.39-0.29,4.01-5.9" style="fill:none;stroke:#999;stroke-width:3"></path>
<path d="M1170.43,27.2c-0.18,0.65-0.36,1.32-0.79,1.92c-3.74,5.2-13.67,12.68-29.31,18.83" style="fill:none;stroke:#999;stroke-width:3"></path>
<path d="M1159.17,10.43c2.69,1.3,6.98,4.27,8.24,6.5" style="fill:none;stroke:#999;stroke-width:3"></path>

<path d="M1216.9,20.68c0.31,1.17,0.77,2.04,0.77,3.6c0,1.56-0.34,45.47-0.21,50.61" style="fill:none;stroke:#999;stroke-width:3"></path>
<path d="M1218.19,22.31c1.82-0.2,15.66-2.82,17.31-3.06c1.38-0.2,2.47,1.14,2.35,2.66c-0.15,1.92-0.59,38.78-0.94,51.05" style="fill:none;stroke:#999;stroke-width:3"></path>
<path d="M1218.1599999999999,38.51c5.7-0.65,15.79-1.79,18.7-1.79" style="fill:none;stroke:#999;stroke-width:3"></path>
<path d="M1217.81,55.09c6.94-0.99,11.32-1.02,18.94-1.95" style="fill:none;stroke:#999;stroke-width:3"></path>
<path d="M1217.78,71.93c3.61,0,13.87-1.45,18.55-1.45" style="fill:none;stroke:#999;stroke-width:3"></path>
<path d="M1222.29,80.23c0.23,1.09,0.45,1.38,0,2.17c-1.37,2.39-6.37,9.77-9.12,12.59" style="fill:none;stroke:#999;stroke-width:3"></path>
<path d="M1230.9099999999999,77.7c3.94,4.23,8.59,11.88,9.66,15.58" style="fill:none;stroke:#999;stroke-width:3"></path>
<path d="M1245.72,27.72c0.86,0.67,2.44,0.74,3.31,0.67c6.72-0.61,24.54-6.53,32.31-7.44c1.43-0.17,2.3,0.32,3.02,0.65" style="fill:none;stroke:#999;stroke-width:3"></path>
<path d="M1257.31,11.5c1.39,0.79,2.04,1.92,2.33,3.62c2.44,14.22,11.33,28.09,28.41,33.4c5.48,1.7,5.39-0.29,4.01-5.9" style="fill:none;stroke:#999;stroke-width:3"></path>
<path d="M1279.43,27.2c-0.18,0.65-0.36,1.32-0.79,1.92c-3.74,5.2-13.67,12.68-29.31,18.83" style="fill:none;stroke:#999;stroke-width:3"></path>
<path d="M1268.17,10.43c2.69,1.3,6.98,4.27,8.24,6.5" style="fill:none;stroke:#999;stroke-width:3"></path>
<path d="M1245.77,67.13c0.96,0.44,2.73,0.57,3.69,0.44c8.42-1.12,30.51-6.83,39.18-7.43c1.6-0.11,2.57,0.21,3.37,0.43" style="fill:none;stroke:#999;stroke-width:3"></path>

<path d="M1325.9,20.68c0.31,1.17,0.77,2.04,0.77,3.6c0,1.56-0.34,45.47-0.21,50.61" style="fill:none;stroke:#999;stroke-width:3"></path>
<path d="M1327.19,22.31c1.82-0.2,15.66-2.82,17.31-3.06c1.38-0.2,2.47,1.14,2.35,2.66c-0.15,1.92-0.59,38.78-0.94,51.05" style="fill:none;stroke:#999;stroke-width:3"></path>
<path d="M1327.1599999999999,38.51c5.7-0.65,15.79-1.79,18.7-1.79" style="fill:none;stroke:#999;stroke-width:3"></path>
<path d="M1326.81,55.09c6.94-0.99,11.32-1.02,18.94-1.95" style="fill:none;stroke:#999;stroke-width:3"></path>
<path d="M1326.78,71.93c3.61,0,13.87-1.45,18.55-1.45" style="fill:none;stroke:#999;stroke-width:3"></path>
<path d="M1331.29,80.23c0.23,1.09,0.45,1.38,0,2.17c-1.37,2.39-6.37,9.77-9.12,12.59" style="fill:none;stroke:#999;stroke-width:3"></path>
<path d="M1339.9099999999999,77.7c3.94,4.23,8.59,11.88,9.66,15.58" style="fill:none;stroke:#999;stroke-width:3"></path>
<path d="M1354.72,27.72c0.86,0.67,2.44,0.74,3.31,0.67c6.72-0.61,24.54-6.53,32.31-7.44c1.43-0.17,2.3,0.32,3.02,0.65" style="fill:none;stroke:#999;stroke-width:3"></path>
<path d="M1366.31,11.5c1.39,0.79,2.04,1.92,2.33,3.62c2.44,14.22,11.33,28.09,28.41,33.4c5.48,1.7,5.39-0.29,4.01-5.9" style="fill:none;stroke:#999;stroke-width:3"></path>
<path d="M1388.43,27.2c-0.18,0.65-0.36,1.32-0.79,1.92c-3.74,5.2-13.67,12.68-29.31,18.83" style="fill:none;stroke:#999;stroke-width:3"></path>
<path d="M1377.17,10.43c2.69,1.3,6.98,4.27,8.24,6.5" style="fill:none;stroke:#999;stroke-width:3"></path>
<path d="M1354.77,67.13c0.96,0.44,2.73,0.57,3.69,0.44c8.42-1.12,30.51-6.83,39.18-7.43c1.6-0.11,2.57,0.21,3.37,0.43" style="fill:none;stroke:#999;stroke-width:3"></path>
<path d="M1368.76,49.67c1.45,1.01,1.93,1.81,2.38,3.94c4.12,19.64,11.37,32.64,28.6,42.57c5.28,3.04,4.89,0.43,4.16-4.03" style="fill:none;stroke:#999;stroke-width:3"></path>

<path d="M1434.9,20.68c0.31,1.17,0.77,2.04,0.77,3.6c0,1.56-0.34,45.47-0.21,50.61" style="fill:none;stroke:#999;stroke-width:3"></path>
<path d="M1436.19,22.31c1.82-0.2,15.66-2.82,17.31-3.06c1.38-0.2,2.47,1.14,2.35,2.66c-0.15,1.92-0.59,38.78-0.94,51.05" style="fill:none;stroke:#999;stroke-width:3"></path>
<path d="M1436.1599999999999,38.51c5.7-0.65,15.79-1.79,18.7-1.79" style="fill:none;stroke:#999;stroke-width:3"></path>
<path d="M1435.81,55.09c6.94-0.99,11.32-1.02,18.94-1.95" style="fill:none;stroke:#999;stroke-width:3"></path>
<path d="M1435.78,71.93c3.61,0,13.87-1.45,18.55-1.45" style="fill:none;stroke:#999;stroke-width:3"></path>
<path d="M1440.29,80.23c0.23,1.09,0.45,1.38,0,2.17c-1.37,2.39-6.37,9.77-9.12,12.59" style="fill:none;stroke:#999;stroke-width:3"></path>
<path d="M1448.9099999999999,77.7c3.94,4.23,8.59,11.88,9.66,15.58" style="fill:none;stroke:#999;stroke-width:3"></path>
<path d="M1463.72,27.72c0.86,0.67,2.44,0.74,3.31,0.67c6.72-0.61,24.54-6.53,32.31-7.44c1.43-0.17,2.3,0.32,3.02,0.65" style="fill:none;stroke:#999;stroke-width:3"></path>
<path d="M1475.31,11.5c1.39,0.79,2.04,1.92,2.33,3.62c2.44,14.22,11.33,28.09,28.41,33.4c5.48,1.7,5.39-0.29,4.01-5.9" style="fill:none;stroke:#999;stroke-width:3"></path>
<path d="M1497.43,27.2c-0.18,0.65-0.36,1.32-0.79,1.92c-3.74,5.2-13.67,12.68-29.31,18.83" style="fill:none;stroke:#999;stroke-width:3"></path>
<path d="M1486.17,10.43c2.69,1.3,6.98,4.27,8.24,6.5" style="fill:none;stroke:#999;stroke-width:3"></path>
<path d="M1463.77,67.13c0.96,0.44,2.73,0.57,3.69,0.44c8.42-1.12,30.51-6.83,39.18-7.43c1.6-0.11,2.57,0.21,3.37,0.43" style="fill:none;stroke:#999;stroke-width:3"></path>
<path d="M1477.76,49.67c1.45,1.01,1.93,1.81,2.38,3.94c4.12,19.64,11.37,32.64,28.6,42.57c5.28,3.04,4.89,0.43,4.16-4.03" style="fill:none;stroke:#999;stroke-width:3"></path>
<path d="M1501.66,67.78c0.1,0.64,0.21,1.64-0.2,2.56c-2.43,5.39-16.07,17.81-35.16,25.05" style="fill:none;stroke:#999;stroke-width:3"></path>

<path d="M1543.9,20.68c0.31,1.17,0.77,2.04,0.77,3.6c0,1.56-0.34,45.47-0.21,50.61" style="fill:none;stroke:#999;stroke-width:3"></path>
<path d="M1545.19,22.31c1.82-0.2,15.66-2.82,17.31-3.06c1.38-0.2,2.47,1.14,2.35,2.66c-0.15,1.92-0.59,38.78-0.94,51.05" style="fill:none;stroke:#999;stroke-width:3"></path>
<path d="M1545.1599999999999,38.51c5.7-0.65,15.79-1.79,18.7-1.79" style="fill:none;stroke:#999;stroke-width:3"></path>
<path d="M1544.81,55.09c6.94-0.99,11.32-1.02,18.94-1.95" style="fill:none;stroke:#999;stroke-width:3"></path>
<path d="M1544.78,71.93c3.61,0,13.87-1.45,18.55-1.45" style="fill:none;stroke:#999;stroke-width:3"></path>
<path d="M1549.29,80.23c0.23,1.09,0.45,1.38,0,2.17c-1.37,2.39-6.37,9.77-9.12,12.59" style="fill:none;stroke:#999;stroke-width:3"></path>
<path d="M1557.9099999999999,77.7c3.94,4.23,8.59,11.88,9.66,15.58" style="fill:none;stroke:#999;stroke-width:3"></path>
<path d="M1572.72,27.72c0.86,0.67,2.44,0.74,3.31,0.67c6.72-0.61,24.54-6.53,32.31-7.44c1.43-0.17,2.3,0.32,3.02,0.65" style="fill:none;stroke:#999;stroke-width:3"></path>
<path d="M1584.31,11.5c1.39,0.79,2.04,1.92,2.33,3.62c2.44,14.22,11.33,28.09,28.41,33.4c5.48,1.7,5.39-0.29,4.01-5.9" style="fill:none;stroke:#999;stroke-width:3"></path>
<path d="M1606.43,27.2c-0.18,0.65-0.36,1.32-0.79,1.92c-3.74,5.2-13.67,12.68-29.31,18.83" style="fill:none;stroke:#999;stroke-width:3"></path>
<path d="M1595.17,10.43c2.69,1.3,6.98,4.27,8.24,6.5" style="fill:none;stroke:#999;stroke-width:3"></path>
<path d="M1572.77,67.13c0.96,0.44,2.73,0.57,3.69,0.44c8.42-1.12,30.51-6.83,39.18-7.43c1.6-0.11,2.57,0.21,3.37,0.43" style="fill:none;stroke:#999;stroke-width:3"></path>
<path d="M1586.76,49.67c1.45,1.01,1.93,1.81,2.38,3.94c4.12,19.64,11.37,32.64,28.6,42.57c5.28,3.04,4.89,0.43,4.16-4.03" style="fill:none;stroke:#999;stroke-width:3"></path>
<path d="M1610.66,67.78c0.1,0.64,0.21,1.64-0.2,2.56c-2.43,5.39-16.07,17.81-35.16,25.05" style="fill:none;stroke:#999;stroke-width:3"></path>
<path d="M1598.92,49.37c2.93,1.35,7.62,4.44,8.99,6.75" style="fill:none;stroke:#999;stroke-width:3"></path>

</svg>