<svg width="763px" height="109px" viewBox="0 0 763 109" xmlns="http://www.w3.org/2000/svg" xmlns:xlink="http://www.w3.org/1999/xlink" xml:space="preserve" version="1.1" baseProfile="full">
<line x1="1" y1="1" x2="762" y2="1" style="stroke:#ddd;stroke-width:2"></line>
<line x1="1" y1="1" x2="1" y2="108" style="stroke:#ddd;stroke-width:2"></line>
<line x1="1" y1="108" x2="762" y2="108" style="stroke:#ddd;stroke-width:2"></line>
<line x1="762" y1="1" x2="762" y2="108" style="stroke:#ddd;stroke-width:2"></line>
<line x1="109" y1="1" x2="109" y2="108" style="stroke:#ddd;stroke-width:2"></line>
<line x1="218" y1="1" x2="218" y2="108" style="stroke:#ddd;stroke-width:2"></line>
<line x1="327" y1="1" x2="327" y2="108" style="stroke:#ddd;stroke-width:2"></line>
<line x1="436" y1="1" x2="436" y2="108" style="stroke:#ddd;stroke-width:2"></line>
<line x1="545" y1="1" x2="545" y2="108" style="stroke:#ddd;stroke-width:2"></line>
<line x1="654" y1="1" x2="654" y2="108" style="stroke:#ddd;stroke-width:2"></line>
<line x1="1" y1="54" x2="762" y2="54" style="stroke:#ddd;stroke-width:2;stroke-dasharray:3 3"></line>
<line x1="55" y1="1" x2="55" y2="108" style="stroke:#ddd;stroke-width:2;stroke-dasharray:3 3"></line>
<line x1="164" y1="1" x2="164" y2="108" style="stroke:#ddd;stroke-width:2;stroke-dasharray:3 3"></line>
<line x1="273" y1="1" x2="273" y2="108" style="stroke:#ddd;stroke-width:2;stroke-dasharray:3 3"></line>
<line x1="382" y1="1" x2="382" y2="108" style="stroke:#ddd;stroke-width:2;stroke-dasharray:3 3"></line>
<line x1="491" y1="1" x2="491" y2="108" style="stroke:#ddd;stroke-width:2;stroke-dasharray:3 3"></line>
<line x1="600" y1="1" x2="600" y2="108" style="stroke:#ddd;stroke-width:2;stroke-dasharray:3 3"></line>
<line x1="709" y1="1" x2="709" y2="108" style="stroke:#ddd;stroke-width:2;stroke-dasharray:3 3"></line>
<path d="M30.13,28.92c1.62,0.38,4.6,0.57,6.21,0.38C47.25,28,60.75,26,70.08,25.16c2.69-0.24,4.32,0.18,5.67,0.37" style="fill:none;stroke:#999;stroke-width:3"></path>

<path d="M139.13,28.92c1.62,0.38,4.6,0.57,6.21,0.38C156.25,28,169.75,26,179.07999999999998,25.16c2.69-0.24,4.32,0.18,5.67,0.37" style="fill:none;stroke:#999;stroke-width:3"></path>
<path d="M161.01,12.37c1.25,1.25,2.05,2.85,2.05,5.01c0,4.58-0.06,25.5-0.06,26.37" style="fill:none;stroke:#999;stroke-width:3"></path>

<path d="M248.13,28.92c1.62,0.38,4.6,0.57,6.21,0.38C265.25,28,278.75,26,288.08,25.16c2.69-0.24,4.32,0.18,5.67,0.37" style="fill:none;stroke:#999;stroke-width:3"></path>
<path d="M270.01,12.37c1.25,1.25,2.05,2.85,2.05,5.01c0,4.58-0.06,25.5-0.06,26.37" style="fill:none;stroke:#999;stroke-width:3"></path>
<path d="M233.13,48.05c2.29,0.69,6.48,0.95,8.77,0.69c24.84-2.74,36-4.24,60.98-6.45c3.79-0.33,6.35,0.08,8.25,0.43" style="fill:none;stroke:#999;stroke-width:3"></path>

<path d="M357.13,28.92c1.62,0.38,4.6,0.57,6.21,0.38C374.25,28,387.75,26,397.08,25.16c2.69-0.24,4.32,0.18,5.67,0.37" style="fill:none;stroke:#999;stroke-width:3"></path>
<path d="M379.01,12.37c1.25,1.25,2.05,2.85,2.05,5.01c0,4.58-0.06,25.5-0.06,26.37" style="fill:none;stroke:#999;stroke-width:3"></path>
<path d="M342.13,48.05c2.29,0.69,6.48,0.95,8.77,0.69c24.84-2.74,36-4.24,60.98-6.45c3.79-0.33,6.35,0.08,8.25,0.43" style="fill:none;stroke:#999;stroke-width:3"></path>
<path d="M380.12,49c1.13,1.13,1.78,3.13,1.78,4.75c0,6.38-0.15,21.5-0.15,27" style="fill:none;stroke:#999;stroke-width:3"></path>

<path d="M466.13,28.92c1.62,0.38,4.6,0.57,6.21,0.38C483.25,28,496.75,26,506.08,25.16c2.69-0.24,4.32,0.18,5.67,0.37" style="fill:none;stroke:#999;stroke-width:3"></path>
<path d="M488.01,12.37c1.25,1.25,2.05,2.85,2.05,5.01c0,4.58-0.06,25.5-0.06,26.37" style="fill:none;stroke:#999;stroke-width:3"></path>
<path d="M451.13,48.05c2.29,0.69,6.48,0.95,8.77,0.69c24.84-2.74,36-4.24,60.98-6.45c3.79-0.33,6.35,0.08,8.25,0.43" style="fill:none;stroke:#999;stroke-width:3"></path>
<path d="M489.12,49c1.13,1.13,1.78,3.13,1.78,4.75c0,6.38-0.15,21.5-0.15,27" style="fill:none;stroke:#999;stroke-width:3"></path>
<path d="M492.5,63.5c7.75-1,15.25-2.09,17.84-2.09c1.57,0,2.5,0.18,3.29,0.37" style="fill:none;stroke:#999;stroke-width:3"></path>

<path d="M575.13,28.92c1.62,0.38,4.6,0.57,6.21,0.38C592.25,28,605.75,26,615.0799999999999,25.16c2.69-0.24,4.32,0.18,5.67,0.37" style="fill:none;stroke:#999;stroke-width:3"></path>
<path d="M597.01,12.37c1.25,1.25,2.05,2.85,2.05,5.01c0,4.58-0.06,25.5-0.06,26.37" style="fill:none;stroke:#999;stroke-width:3"></path>
<path d="M560.13,48.05c2.29,0.69,6.48,0.95,8.77,0.69c24.84-2.74,36-4.24,60.98-6.45c3.79-0.33,6.35,0.08,8.25,0.43" style="fill:none;stroke:#999;stroke-width:3"></path>
<path d="M598.12,49c1.13,1.13,1.78,3.13,1.78,4.75c0,6.38-0.15,21.5-0.15,27" style="fill:none;stroke:#999;stroke-width:3"></path>
<path d="M601.5,63.5c7.75-1,15.25-2.09,17.84-2.09c1.57,0,2.5,0.18,3.29,0.37" style="fill:none;stroke:#999;stroke-width:3"></path>
<path d="M581.75,60.25c0.11,1.43-0.01,2.77-0.41,4.15c-2.01,6.95-8.97,19.48-20.84,28.1" style="fill:none;stroke:#999;stroke-width:3"></path>

<path d="M684.13,28.92c1.62,0.38,4.6,0.57,6.21,0.38C701.25,28,714.75,26,724.0799999999999,25.16c2.69-0.24,4.32,0.18,5.67,0.37" style="fill:none;stroke:#999;stroke-width:3"></path>
<path d="M706.01,12.37c1.25,1.25,2.05,2.85,2.05,5.01c0,4.58-0.06,25.5-0.06,26.37" style="fill:none;stroke:#999;stroke-width:3"></path>
<path d="M669.13,48.05c2.29,0.69,6.48,0.95,8.77,0.69c24.84-2.74,36-4.24,60.98-6.45c3.79-0.33,6.35,0.08,8.25,0.43" style="fill:none;stroke:#999;stroke-width:3"></path>
<path d="M707.12,49c1.13,1.13,1.78,3.13,1.78,4.75c0,6.38-0.15,21.5-0.15,27" style="fill:none;stroke:#999;stroke-width:3"></path>
<path d="M710.5,63.5c7.75-1,15.25-2.09,17.84-2.09c1.57,0,2.5,0.18,3.29,0.37" style="fill:none;stroke:#999;stroke-width:3"></path>
<path d="M690.75,60.25c0.11,1.43-0.01,2.77-0.41,4.15c-2.01,6.95-8.97,19.48-20.84,28.1" style="fill:none;stroke:#999;stroke-width:3"></path>
<path d="M687.75,73.5c10.2,2.44,40.07,16.59,49.72,18.89C740.44,93.1,744.1,93.73,747.0,94" style="fill:none;stroke:#999;stroke-width:3"></path>

</svg>