<svg width="1308px" height="109px" viewBox="0 0 1308 109" xmlns="http://www.w3.org/2000/svg" xmlns:xlink="http://www.w3.org/1999/xlink" xml:space="preserve" version="1.1" baseProfile="full">
<line x1="1" y1="1" x2="1307" y2="1" style="stroke:#ddd;stroke-width:2"></line>
<line x1="1" y1="1" x2="1" y2="108" style="stroke:#ddd;stroke-width:2"></line>
<line x1="1" y1="108" x2="1307" y2="108" style="stroke:#ddd;stroke-width:2"></line>
<line x1="1307" y1="1" x2="1307" y2="108" style="stroke:#ddd;stroke-width:2"></line>
<line x1="109" y1="1" x2="109" y2="108" style="stroke:#ddd;stroke-width:2"></line>
<line x1="218" y1="1" x2="218" y2="108" style="stroke:#ddd;stroke-width:2"></line>
<line x1="327" y1="1" x2="327" y2="108" style="stroke:#ddd;stroke-width:2"></line>
<line x1="436" y1="1" x2="436" y2="108" style="stroke:#ddd;stroke-width:2"></line>
<line x1="545" y1="1" x2="545" y2="108" style="stroke:#ddd;stroke-width:2"></line>
<line x1="654" y1="1" x2="654" y2="108" style="stroke:#ddd;stroke-width:2"></line>
<line x1="763" y1="1" x2="763" y2="108" style="stroke:#ddd;stroke-width:2"></line>
<line x1="872" y1="1" x2="872" y2="108" style="stroke:#ddd;stroke-width:2"></line>
<line x1="981" y1="1" x2="981" y2="108" style="stroke:#ddd;stroke-width:2"></line>
<line x1="1090" y1="1" x2="1090" y2="108" style="stroke:#ddd;stroke-width:2"></line>
<line x1="1199" y1="1" x2="1199" y2="108" style="stroke:#ddd;stroke-width:2"></line>
<line x1="1" y1="54" x2="1307" y2="54" style="stroke:#ddd;stroke-width:2;stroke-dasharray:3 3"></line>
<line x1="55" y1="1" x2="55" y2="108" style="stroke:#ddd;stroke-width:2;stroke-dasharray:3 3"></line>
<line x1="164" y1="1" x2="164" y2="108" style="stroke:#ddd;stroke-width:2;stroke-dasharray:3 3"></line>
<line x1="273" y1="1" x2="273" y2="108" style="stroke:#ddd;stroke-width:2;stroke-dasharray:3 3"></line>
<line x1="382" y1="1" x2="382" y2="108" style="stroke:#ddd;stroke-width:2;stroke-dasharray:3 3"></line>
<line x1="491" y1="1" x2="491" y2="108" style="stroke:#ddd;stroke-width:2;stroke-dasharray:3 3"></line>
<line x1="600" y1="1" x2="600" y2="108" style="stroke:#ddd;stroke-width:2;stroke-dasharray:3 3"></line>
<line x1="709" y1="1" x2="709" y2="108" style="stroke:#ddd;stroke-width:2;stroke-dasharray:3 3"></line>
<line x1="818" y1="1" x2="818" y2="108" style="stroke:#ddd;stroke-width:2;stroke-dasharray:3 3"></line>
<line x1="927" y1="1" x2="927" y2="108" style="stroke:#ddd;stroke-width:2;stroke-dasharray:3 3"></line>
<line x1="1036" y1="1" x2="1036" y2="108" style="stroke:#ddd;stroke-width:2;stroke-dasharray:3 3"></line>
<line x1="1145" y1="1" x2="1145" y2="108" style="stroke:#ddd;stroke-width:2;stroke-dasharray:3 3"></line>
<line x1="1254" y1="1" x2="1254" y2="108" style="stroke:#ddd;stroke-width:2;stroke-dasharray:3 3"></line>
<path d="M13.78,22.21c0.37,0.32,0.75,0.58,0.91,0.97c1.28,3.13,2.85,13.7,3.73,19.32" style="fill:none;stroke:#999;stroke-width:3"></path>

<path d="M122.78,22.21c0.37,0.32,0.75,0.58,0.91,0.97c1.28,3.13,2.85,13.7,3.73,19.32" style="fill:none;stroke:#999;stroke-width:3"></path>
<path d="M124.61,23.9c8.76-1.68,18.79-2.5,23.13-2.91c1.58-0.15,2.54,0.89,2.31,1.77c-1.04,4.06-2.15,9.85-3.43,14.5" style="fill:none;stroke:#999;stroke-width:3"></path>

<path d="M231.78,22.21c0.37,0.32,0.75,0.58,0.91,0.97c1.28,3.13,2.85,13.7,3.73,19.32" style="fill:none;stroke:#999;stroke-width:3"></path>
<path d="M233.61,23.9c8.76-1.68,18.79-2.5,23.13-2.91c1.58-0.15,2.54,0.89,2.31,1.77c-1.04,4.06-2.15,9.85-3.43,14.5" style="fill:none;stroke:#999;stroke-width:3"></path>
<path d="M237.06,40.19c5.09-0.46,13.15-1.34,20.14-2.05" style="fill:none;stroke:#999;stroke-width:3"></path>

<path d="M340.78,22.21c0.37,0.32,0.75,0.58,0.91,0.97c1.28,3.13,2.85,13.7,3.73,19.32" style="fill:none;stroke:#999;stroke-width:3"></path>
<path d="M342.61,23.9c8.76-1.68,18.79-2.5,23.13-2.91c1.58-0.15,2.54,0.89,2.31,1.77c-1.04,4.06-2.15,9.85-3.43,14.5" style="fill:none;stroke:#999;stroke-width:3"></path>
<path d="M346.06,40.19c5.09-0.46,13.15-1.34,20.14-2.05" style="fill:none;stroke:#999;stroke-width:3"></path>
<path d="M354.37,41.74c1.09,0.5,1.96,2.23,1.96,3.25c0,5.51,0.28,27.01,0.28,37" style="fill:none;stroke:#999;stroke-width:3"></path>

<path d="M449.78,22.21c0.37,0.32,0.75,0.58,0.91,0.97c1.28,3.13,2.85,13.7,3.73,19.32" style="fill:none;stroke:#999;stroke-width:3"></path>
<path d="M451.61,23.9c8.76-1.68,18.79-2.5,23.13-2.91c1.58-0.15,2.54,0.89,2.31,1.77c-1.04,4.06-2.15,9.85-3.43,14.5" style="fill:none;stroke:#999;stroke-width:3"></path>
<path d="M455.06,40.19c5.09-0.46,13.15-1.34,20.14-2.05" style="fill:none;stroke:#999;stroke-width:3"></path>
<path d="M463.37,41.74c1.09,0.5,1.96,2.23,1.96,3.25c0,5.51,0.28,27.01,0.28,37" style="fill:none;stroke:#999;stroke-width:3"></path>
<path d="M465.88,58.74c3.37-0.49,7.87-1.74,11.35-2.5c1.7-0.37,2.18-0.25,3.26,0" style="fill:none;stroke:#999;stroke-width:3"></path>

<path d="M558.78,22.21c0.37,0.32,0.75,0.58,0.91,0.97c1.28,3.13,2.85,13.7,3.73,19.32" style="fill:none;stroke:#999;stroke-width:3"></path>
<path d="M560.61,23.9c8.76-1.68,18.79-2.5,23.13-2.91c1.58-0.15,2.54,0.89,2.31,1.77c-1.04,4.06-2.15,9.85-3.43,14.5" style="fill:none;stroke:#999;stroke-width:3"></path>
<path d="M564.06,40.19c5.09-0.46,13.15-1.34,20.14-2.05" style="fill:none;stroke:#999;stroke-width:3"></path>
<path d="M572.37,41.74c1.09,0.5,1.96,2.23,1.96,3.25c0,5.51,0.28,27.01,0.28,37" style="fill:none;stroke:#999;stroke-width:3"></path>
<path d="M574.88,58.74c3.37-0.49,7.87-1.74,11.35-2.5c1.7-0.37,2.18-0.25,3.26,0" style="fill:none;stroke:#999;stroke-width:3"></path>
<path d="M559.37,54.49c1.09,0.5,1.74,2.25,1.96,3.25c0.22,1,1.42,18.01,2.42,30.76" style="fill:none;stroke:#999;stroke-width:3"></path>

<path d="M667.78,22.21c0.37,0.32,0.75,0.58,0.91,0.97c1.28,3.13,2.85,13.7,3.73,19.32" style="fill:none;stroke:#999;stroke-width:3"></path>
<path d="M669.61,23.9c8.76-1.68,18.79-2.5,23.13-2.91c1.58-0.15,2.54,0.89,2.31,1.77c-1.04,4.06-2.15,9.85-3.43,14.5" style="fill:none;stroke:#999;stroke-width:3"></path>
<path d="M673.06,40.19c5.09-0.46,13.15-1.34,20.14-2.05" style="fill:none;stroke:#999;stroke-width:3"></path>
<path d="M681.37,41.74c1.09,0.5,1.96,2.23,1.96,3.25c0,5.51,0.28,27.01,0.28,37" style="fill:none;stroke:#999;stroke-width:3"></path>
<path d="M683.88,58.74c3.37-0.49,7.87-1.74,11.35-2.5c1.7-0.37,2.18-0.25,3.26,0" style="fill:none;stroke:#999;stroke-width:3"></path>
<path d="M668.37,54.49c1.09,0.5,1.74,2.25,1.96,3.25c0.22,1,1.42,18.01,2.42,30.76" style="fill:none;stroke:#999;stroke-width:3"></path>
<path d="M665.5,90.07c0.75,1.43,2.89,1.38,3.7,0.9c9.55-5.72,13.8-8.22,25.3-14.98" style="fill:none;stroke:#999;stroke-width:3"></path>

<path d="M776.78,22.21c0.37,0.32,0.75,0.58,0.91,0.97c1.28,3.13,2.85,13.7,3.73,19.32" style="fill:none;stroke:#999;stroke-width:3"></path>
<path d="M778.61,23.9c8.76-1.68,18.79-2.5,23.13-2.91c1.58-0.15,2.54,0.89,2.31,1.77c-1.04,4.06-2.15,9.85-3.43,14.5" style="fill:none;stroke:#999;stroke-width:3"></path>
<path d="M782.06,40.19c5.09-0.46,13.15-1.34,20.14-2.05" style="fill:none;stroke:#999;stroke-width:3"></path>
<path d="M790.37,41.74c1.09,0.5,1.96,2.23,1.96,3.25c0,5.51,0.28,27.01,0.28,37" style="fill:none;stroke:#999;stroke-width:3"></path>
<path d="M792.88,58.74c3.37-0.49,7.87-1.74,11.35-2.5c1.7-0.37,2.18-0.25,3.26,0" style="fill:none;stroke:#999;stroke-width:3"></path>
<path d="M777.37,54.49c1.09,0.5,1.74,2.25,1.96,3.25c0.22,1,1.42,18.01,2.42,30.76" style="fill:none;stroke:#999;stroke-width:3"></path>
<path d="M774.5,90.07c0.75,1.43,2.89,1.38,3.7,0.9c9.55-5.72,13.8-8.22,25.3-14.98" style="fill:none;stroke:#999;stroke-width:3"></path>
<path d="M808.25,32.89c1.37,0.38,3.88,0.46,5.25,0.38c8.96-0.52,32.52-3.83,40.96-3.38c2.27,0.12,3.65,0.18,4.79,0.37" style="fill:none;stroke:#999;stroke-width:3"></path>

<path d="M885.78,22.21c0.37,0.32,0.75,0.58,0.91,0.97c1.28,3.13,2.85,13.7,3.73,19.32" style="fill:none;stroke:#999;stroke-width:3"></path>
<path d="M887.61,23.9c8.76-1.68,18.79-2.5,23.13-2.91c1.58-0.15,2.54,0.89,2.31,1.77c-1.04,4.06-2.15,9.85-3.43,14.5" style="fill:none;stroke:#999;stroke-width:3"></path>
<path d="M891.06,40.19c5.09-0.46,13.15-1.34,20.14-2.05" style="fill:none;stroke:#999;stroke-width:3"></path>
<path d="M899.37,41.74c1.09,0.5,1.96,2.23,1.96,3.25c0,5.51,0.28,27.01,0.28,37" style="fill:none;stroke:#999;stroke-width:3"></path>
<path d="M901.88,58.74c3.37-0.49,7.87-1.74,11.35-2.5c1.7-0.37,2.18-0.25,3.26,0" style="fill:none;stroke:#999;stroke-width:3"></path>
<path d="M886.37,54.49c1.09,0.5,1.74,2.25,1.96,3.25c0.22,1,1.42,18.01,2.42,30.76" style="fill:none;stroke:#999;stroke-width:3"></path>
<path d="M883.5,90.07c0.75,1.43,2.89,1.38,3.7,0.9c9.55-5.72,13.8-8.22,25.3-14.98" style="fill:none;stroke:#999;stroke-width:3"></path>
<path d="M917.25,32.89c1.37,0.38,3.88,0.46,5.25,0.38c8.96-0.52,32.52-3.83,40.96-3.38c2.27,0.12,3.65,0.18,4.79,0.37" style="fill:none;stroke:#999;stroke-width:3"></path>
<path d="M937.41,10.75c0.94,1.35,1.95,1.92,1.83,4.4c-1.18,22.9-5.97,54.8-30.29,78.82" style="fill:none;stroke:#999;stroke-width:3"></path>

<path d="M994.78,22.21c0.37,0.32,0.75,0.58,0.91,0.97c1.28,3.13,2.85,13.7,3.73,19.32" style="fill:none;stroke:#999;stroke-width:3"></path>
<path d="M996.61,23.9c8.76-1.68,18.79-2.5,23.13-2.91c1.58-0.15,2.54,0.89,2.31,1.77c-1.04,4.06-2.15,9.85-3.43,14.5" style="fill:none;stroke:#999;stroke-width:3"></path>
<path d="M1000.06,40.19c5.09-0.46,13.15-1.34,20.14-2.05" style="fill:none;stroke:#999;stroke-width:3"></path>
<path d="M1008.37,41.74c1.09,0.5,1.96,2.23,1.96,3.25c0,5.51,0.28,27.01,0.28,37" style="fill:none;stroke:#999;stroke-width:3"></path>
<path d="M1010.88,58.74c3.37-0.49,7.87-1.74,11.35-2.5c1.7-0.37,2.18-0.25,3.26,0" style="fill:none;stroke:#999;stroke-width:3"></path>
<path d="M995.37,54.49c1.09,0.5,1.74,2.25,1.96,3.25c0.22,1,1.42,18.01,2.42,30.76" style="fill:none;stroke:#999;stroke-width:3"></path>
<path d="M992.5,90.07c0.75,1.43,2.89,1.38,3.7,0.9c9.55-5.72,13.8-8.22,25.3-14.98" style="fill:none;stroke:#999;stroke-width:3"></path>
<path d="M1026.25,32.89c1.37,0.38,3.88,0.46,5.25,0.38c8.96-0.52,32.52-3.83,40.96-3.38c2.27,0.12,3.65,0.18,4.79,0.37" style="fill:none;stroke:#999;stroke-width:3"></path>
<path d="M1046.4099999999999,10.75c0.94,1.35,1.95,1.92,1.83,4.4c-1.18,22.9-5.97,54.8-30.29,78.82" style="fill:none;stroke:#999;stroke-width:3"></path>
<path d="M1066.76,45c0.09,1.22,0.13,3.46-0.18,4.9C1062.94,66.79,1053.25,89,1033.0,97.29" style="fill:none;stroke:#999;stroke-width:3"></path>

<path d="M1103.78,22.21c0.37,0.32,0.75,0.58,0.91,0.97c1.28,3.13,2.85,13.7,3.73,19.32" style="fill:none;stroke:#999;stroke-width:3"></path>
<path d="M1105.6100000000001,23.9c8.76-1.68,18.79-2.5,23.13-2.91c1.58-0.15,2.54,0.89,2.31,1.77c-1.04,4.06-2.15,9.85-3.43,14.5" style="fill:none;stroke:#999;stroke-width:3"></path>
<path d="M1109.06,40.19c5.09-0.46,13.15-1.34,20.14-2.05" style="fill:none;stroke:#999;stroke-width:3"></path>
<path d="M1117.37,41.74c1.09,0.5,1.96,2.23,1.96,3.25c0,5.51,0.28,27.01,0.28,37" style="fill:none;stroke:#999;stroke-width:3"></path>
<path d="M1119.88,58.74c3.37-0.49,7.87-1.74,11.35-2.5c1.7-0.37,2.18-0.25,3.26,0" style="fill:none;stroke:#999;stroke-width:3"></path>
<path d="M1104.37,54.49c1.09,0.5,1.74,2.25,1.96,3.25c0.22,1,1.42,18.01,2.42,30.76" style="fill:none;stroke:#999;stroke-width:3"></path>
<path d="M1101.5,90.07c0.75,1.43,2.89,1.38,3.7,0.9c9.55-5.72,13.8-8.22,25.3-14.98" style="fill:none;stroke:#999;stroke-width:3"></path>
<path d="M1135.25,32.89c1.37,0.38,3.88,0.46,5.25,0.38c8.96-0.52,32.52-3.83,40.96-3.38c2.27,0.12,3.65,0.18,4.79,0.37" style="fill:none;stroke:#999;stroke-width:3"></path>
<path d="M1155.4099999999999,10.75c0.94,1.35,1.95,1.92,1.83,4.4c-1.18,22.9-5.97,54.8-30.29,78.82" style="fill:none;stroke:#999;stroke-width:3"></path>
<path d="M1175.76,45c0.09,1.22,0.13,3.46-0.18,4.9C1171.94,66.79,1162.25,89,1142.0,97.29" style="fill:none;stroke:#999;stroke-width:3"></path>
<path d="M1150.5,55.25c5.34,7.44,20.42,26.94,29.85,36.39c1.63,1.64,2.86,2.38,4.4,2.86" style="fill:none;stroke:#999;stroke-width:3"></path>

<path d="M1212.78,22.21c0.37,0.32,0.75,0.58,0.91,0.97c1.28,3.13,2.85,13.7,3.73,19.32" style="fill:none;stroke:#999;stroke-width:3"></path>
<path d="M1214.6100000000001,23.9c8.76-1.68,18.79-2.5,23.13-2.91c1.58-0.15,2.54,0.89,2.31,1.77c-1.04,4.06-2.15,9.85-3.43,14.5" style="fill:none;stroke:#999;stroke-width:3"></path>
<path d="M1218.06,40.19c5.09-0.46,13.15-1.34,20.14-2.05" style="fill:none;stroke:#999;stroke-width:3"></path>
<path d="M1226.37,41.74c1.09,0.5,1.96,2.23,1.96,3.25c0,5.51,0.28,27.01,0.28,37" style="fill:none;stroke:#999;stroke-width:3"></path>
<path d="M1228.88,58.74c3.37-0.49,7.87-1.74,11.35-2.5c1.7-0.37,2.18-0.25,3.26,0" style="fill:none;stroke:#999;stroke-width:3"></path>
<path d="M1213.37,54.49c1.09,0.5,1.74,2.25,1.96,3.25c0.22,1,1.42,18.01,2.42,30.76" style="fill:none;stroke:#999;stroke-width:3"></path>
<path d="M1210.5,90.07c0.75,1.43,2.89,1.38,3.7,0.9c9.55-5.72,13.8-8.22,25.3-14.98" style="fill:none;stroke:#999;stroke-width:3"></path>
<path d="M1244.25,32.89c1.37,0.38,3.88,0.46,5.25,0.38c8.96-0.52,32.52-3.83,40.96-3.38c2.27,0.12,3.65,0.18,4.79,0.37" style="fill:none;stroke:#999;stroke-width:3"></path>
<path d="M1264.4099999999999,10.75c0.94,1.35,1.95,1.92,1.83,4.4c-1.18,22.9-5.97,54.8-30.29,78.82" style="fill:none;stroke:#999;stroke-width:3"></path>
<path d="M1284.76,45c0.09,1.22,0.13,3.46-0.18,4.9C1280.94,66.79,1271.25,89,1251.0,97.29" style="fill:none;stroke:#999;stroke-width:3"></path>
<path d="M1259.5,55.25c5.34,7.44,20.42,26.94,29.85,36.39c1.63,1.64,2.86,2.38,4.4,2.86" style="fill:none;stroke:#999;stroke-width:3"></path>
<path d="M1280.02,14.58c3.28,1.7,8.47,6.99,9.29,9.63" style="fill:none;stroke:#999;stroke-width:3"></path>

</svg>