<svg width="763px" height="109px" viewBox="0 0 763 109" xmlns="http://www.w3.org/2000/svg" xmlns:xlink="http://www.w3.org/1999/xlink" xml:space="preserve" version="1.1" baseProfile="full">
<line x1="1" y1="1" x2="762" y2="1" style="stroke:#ddd;stroke-width:2"></line>
<line x1="1" y1="1" x2="1" y2="108" style="stroke:#ddd;stroke-width:2"></line>
<line x1="1" y1="108" x2="762" y2="108" style="stroke:#ddd;stroke-width:2"></line>
<line x1="762" y1="1" x2="762" y2="108" style="stroke:#ddd;stroke-width:2"></line>
<line x1="109" y1="1" x2="109" y2="108" style="stroke:#ddd;stroke-width:2"></line>
<line x1="218" y1="1" x2="218" y2="108" style="stroke:#ddd;stroke-width:2"></line>
<line x1="327" y1="1" x2="327" y2="108" style="stroke:#ddd;stroke-width:2"></line>
<line x1="436" y1="1" x2="436" y2="108" style="stroke:#ddd;stroke-width:2"></line>
<line x1="545" y1="1" x2="545" y2="108" style="stroke:#ddd;stroke-width:2"></line>
<line x1="654" y1="1" x2="654" y2="108" style="stroke:#ddd;stroke-width:2"></line>
<line x1="1" y1="54" x2="762" y2="54" style="stroke:#ddd;stroke-width:2;stroke-dasharray:3 3"></line>
<line x1="55" y1="1" x2="55" y2="108" style="stroke:#ddd;stroke-width:2;stroke-dasharray:3 3"></line>
<line x1="164" y1="1" x2="164" y2="108" style="stroke:#ddd;stroke-width:2;stroke-dasharray:3 3"></line>
<line x1="273" y1="1" x2="273" y2="108" style="stroke:#ddd;stroke-width:2;stroke-dasharray:3 3"></line>
<line x1="382" y1="1" x2="382" y2="108" style="stroke:#ddd;stroke-width:2;stroke-dasharray:3 3"></line>
<line x1="491" y1="1" x2="491" y2="108" style="stroke:#ddd;stroke-width:2;stroke-dasharray:3 3"></line>
<line x1="600" y1="1" x2="600" y2="108" style="stroke:#ddd;stroke-width:2;stroke-dasharray:3 3"></line>
<line x1="709" y1="1" x2="709" y2="108" style="stroke:#ddd;stroke-width:2;stroke-dasharray:3 3"></line>
<path d="M53.03,9.64c0.21,1.1,0.09,1.85-0.52,2.87c-1.82,3.01-3.19,5.09-7.77,9.92" style="fill:none;stroke:#999;stroke-width:3"></path>

<path d="M162.03,9.64c0.21,1.1,0.09,1.85-0.52,2.87c-1.82,3.01-3.19,5.09-7.77,9.92" style="fill:none;stroke:#999;stroke-width:3"></path>
<path d="M143.87,24c1.06,1.06,1.46,2.48,1.46,3.5c0,3.88,0.28,27.25,0.28,36.75" style="fill:none;stroke:#999;stroke-width:3"></path>

<path d="M271.03,9.64c0.21,1.1,0.09,1.85-0.52,2.87c-1.82,3.01-3.19,5.09-7.77,9.92" style="fill:none;stroke:#999;stroke-width:3"></path>
<path d="M252.87,24c1.06,1.06,1.46,2.48,1.46,3.5c0,3.88,0.28,27.25,0.28,36.75" style="fill:none;stroke:#999;stroke-width:3"></path>
<path d="M255.07,25.59c5.22-0.84,25.49-3.39,29.71-4.11c2.84-0.48,4.47,1.14,4.47,3.77c0,12.39-0.16,55.81-0.16,66.93c0,11.08-6.59,3.83-8.61,1.82" style="fill:none;stroke:#999;stroke-width:3"></path>

<path d="M380.03,9.64c0.21,1.1,0.09,1.85-0.52,2.87c-1.82,3.01-3.19,5.09-7.77,9.92" style="fill:none;stroke:#999;stroke-width:3"></path>
<path d="M361.87,24c1.06,1.06,1.46,2.48,1.46,3.5c0,3.88,0.28,27.25,0.28,36.75" style="fill:none;stroke:#999;stroke-width:3"></path>
<path d="M364.07,25.59c5.22-0.84,25.49-3.39,29.71-4.11c2.84-0.48,4.47,1.14,4.47,3.77c0,12.39-0.16,55.81-0.16,66.93c0,11.08-6.59,3.83-8.61,1.82" style="fill:none;stroke:#999;stroke-width:3"></path>
<path d="M364.5,37.25c8.62-1.25,27.38-3.62,32.5-4" style="fill:none;stroke:#999;stroke-width:3"></path>

<path d="M489.03,9.64c0.21,1.1,0.09,1.85-0.52,2.87c-1.82,3.01-3.19,5.09-7.77,9.92" style="fill:none;stroke:#999;stroke-width:3"></path>
<path d="M470.87,24c1.06,1.06,1.46,2.48,1.46,3.5c0,3.88,0.28,27.25,0.28,36.75" style="fill:none;stroke:#999;stroke-width:3"></path>
<path d="M473.07,25.59c5.22-0.84,25.49-3.39,29.71-4.11c2.84-0.48,4.47,1.14,4.47,3.77c0,12.39-0.16,55.81-0.16,66.93c0,11.08-6.59,3.83-8.61,1.82" style="fill:none;stroke:#999;stroke-width:3"></path>
<path d="M473.5,37.25c8.62-1.25,27.38-3.62,32.5-4" style="fill:none;stroke:#999;stroke-width:3"></path>
<path d="M473.75,49.75c6.75-1,25.74-4.25,32-4.5" style="fill:none;stroke:#999;stroke-width:3"></path>

<path d="M598.03,9.64c0.21,1.1,0.09,1.85-0.52,2.87c-1.82,3.01-3.19,5.09-7.77,9.92" style="fill:none;stroke:#999;stroke-width:3"></path>
<path d="M579.87,24c1.06,1.06,1.46,2.48,1.46,3.5c0,3.88,0.28,27.25,0.28,36.75" style="fill:none;stroke:#999;stroke-width:3"></path>
<path d="M582.0699999999999,25.59c5.22-0.84,25.49-3.39,29.71-4.11c2.84-0.48,4.47,1.14,4.47,3.77c0,12.39-0.16,55.81-0.16,66.93c0,11.08-6.59,3.83-8.61,1.82" style="fill:none;stroke:#999;stroke-width:3"></path>
<path d="M582.5,37.25c8.62-1.25,27.38-3.62,32.5-4" style="fill:none;stroke:#999;stroke-width:3"></path>
<path d="M582.75,49.75c6.75-1,25.74-4.25,32-4.5" style="fill:none;stroke:#999;stroke-width:3"></path>
<path d="M563.57,68.07c1.66,1.39,2.8,1.56,5.93,0.68c10.25-2.88,38.88-11.12,45.75-13.25" style="fill:none;stroke:#999;stroke-width:3"></path>

<path d="M707.03,9.64c0.21,1.1,0.09,1.85-0.52,2.87c-1.82,3.01-3.19,5.09-7.77,9.92" style="fill:none;stroke:#999;stroke-width:3"></path>
<path d="M688.87,24c1.06,1.06,1.46,2.48,1.46,3.5c0,3.88,0.28,27.25,0.28,36.75" style="fill:none;stroke:#999;stroke-width:3"></path>
<path d="M691.0699999999999,25.59c5.22-0.84,25.49-3.39,29.71-4.11c2.84-0.48,4.47,1.14,4.47,3.77c0,12.39-0.16,55.81-0.16,66.93c0,11.08-6.59,3.83-8.61,1.82" style="fill:none;stroke:#999;stroke-width:3"></path>
<path d="M691.5,37.25c8.62-1.25,27.38-3.62,32.5-4" style="fill:none;stroke:#999;stroke-width:3"></path>
<path d="M691.75,49.75c6.75-1,25.74-4.25,32-4.5" style="fill:none;stroke:#999;stroke-width:3"></path>
<path d="M672.57,68.07c1.66,1.39,2.8,1.56,5.93,0.68c10.25-2.88,38.88-11.12,45.75-13.25" style="fill:none;stroke:#999;stroke-width:3"></path>
<path d="M744.25,37.5c0.12,1.62-0.13,3.19-1.5,5.25C733.25,57,700.5,82,680.25,89.25" style="fill:none;stroke:#999;stroke-width:3"></path>

</svg>