<svg width="545px" height="109px" viewBox="0 0 545 109" xmlns="http://www.w3.org/2000/svg" xmlns:xlink="http://www.w3.org/1999/xlink" xml:space="preserve" version="1.1" baseProfile="full">
<line x1="1" y1="1" x2="544" y2="1" style="stroke:#ddd;stroke-width:2"></line>
<line x1="1" y1="1" x2="1" y2="108" style="stroke:#ddd;stroke-width:2"></line>
<line x1="1" y1="108" x2="544" y2="108" style="stroke:#ddd;stroke-width:2"></line>
<line x1="544" y1="1" x2="544" y2="108" style="stroke:#ddd;stroke-width:2"></line>
<line x1="109" y1="1" x2="109" y2="108" style="stroke:#ddd;stroke-width:2"></line>
<line x1="218" y1="1" x2="218" y2="108" style="stroke:#ddd;stroke-width:2"></line>
<line x1="327" y1="1" x2="327" y2="108" style="stroke:#ddd;stroke-width:2"></line>
<line x1="436" y1="1" x2="436" y2="108" style="stroke:#ddd;stroke-width:2"></line>
<line x1="1" y1="54" x2="544" y2="54" style="stroke:#ddd;stroke-width:2;stroke-dasharray:3 3"></line>
<line x1="55" y1="1" x2="55" y2="108" style="stroke:#ddd;stroke-width:2;stroke-dasharray:3 3"></line>
<line x1="164" y1="1" x2="164" y2="108" style="stroke:#ddd;stroke-width:2;stroke-dasharray:3 3"></line>
<line x1="273" y1="1" x2="273" y2="108" style="stroke:#ddd;stroke-width:2;stroke-dasharray:3 3"></line>
<line x1="382" y1="1" x2="382" y2="108" style="stroke:#ddd;stroke-width:2;stroke-dasharray:3 3"></line>
<line x1="491" y1="1" x2="491" y2="108" style="stroke:#ddd;stroke-width:2;stroke-dasharray:3 3"></line>
<path d="M63.05,35.17c-0.05,1.95-0.48,3-1.07,4.32c-5.43,12.12-16.4,26.98-25.15,33.4" style="fill:none;stroke:#999;stroke-width:3"></path>

<path d="M172.05,35.17c-0.05,1.95-0.48,3-1.07,4.32c-5.43,12.12-16.4,26.98-25.15,33.4" style="fill:none;stroke:#999;stroke-width:3"></path>
<path d="M158.1,16.75c9.15,2,18.15,28.75,32.17,45.48c3.08,3.68,6.22,7.27,9.38,9.27" style="fill:none;stroke:#999;stroke-width:3"></path>

<path d="M281.05,35.17c-0.05,1.95-0.48,3-1.07,4.32c-5.43,12.12-16.4,26.98-25.15,33.4" style="fill:none;stroke:#999;stroke-width:3"></path>
<path d="M267.1,16.75c9.15,2,18.15,28.75,32.17,45.48c3.08,3.68,6.22,7.27,9.38,9.27" style="fill:none;stroke:#999;stroke-width:3"></path>
<path d="M236.21,21.25c3.99,1.44,10.3,5.9,11.29,8.13" style="fill:none;stroke:#999;stroke-width:3"></path>

<path d="M390.05,35.17c-0.05,1.95-0.48,3-1.07,4.32c-5.43,12.12-16.4,26.98-25.15,33.4" style="fill:none;stroke:#999;stroke-width:3"></path>
<path d="M376.1,16.75c9.15,2,18.15,28.75,32.17,45.48c3.08,3.68,6.22,7.27,9.38,9.27" style="fill:none;stroke:#999;stroke-width:3"></path>
<path d="M345.21000000000004,21.25c3.99,1.44,10.3,5.9,11.29,8.13" style="fill:none;stroke:#999;stroke-width:3"></path>
<path d="M340.25,52.03c2.25,0.88,3.77,0.53,4.75,0.22c2.75-0.87,8.19-2.99,10.75-4.26c2.5-1.24,3.15,1.02,2.25,2.41c-7.5,11.6-8,6.85-0.75,16.92c0.89,1.23,1,2.66-0.5,3.76s-8,6.17-11,8.17" style="fill:none;stroke:#999;stroke-width:3"></path>

<path d="M499.05,35.17c-0.05,1.95-0.48,3-1.07,4.32c-5.43,12.12-16.4,26.98-25.15,33.4" style="fill:none;stroke:#999;stroke-width:3"></path>
<path d="M485.1,16.75c9.15,2,18.15,28.75,32.17,45.48c3.08,3.68,6.22,7.27,9.38,9.27" style="fill:none;stroke:#999;stroke-width:3"></path>
<path d="M454.21000000000004,21.25c3.99,1.44,10.3,5.9,11.29,8.13" style="fill:none;stroke:#999;stroke-width:3"></path>
<path d="M449.25,52.03c2.25,0.88,3.77,0.53,4.75,0.22c2.75-0.87,8.19-2.99,10.75-4.26c2.5-1.24,3.15,1.02,2.25,2.41c-7.5,11.6-8,6.85-0.75,16.92c0.89,1.23,1,2.66-0.5,3.76s-8,6.17-11,8.17" style="fill:none;stroke:#999;stroke-width:3"></path>
<path d="M450.25,80.72c4.12-1.22,9.73-1.09,14.43-0.81c5.82,0.34,35.54,6.53,40.1,7.5c12.38,2.62,15.09,2.97,22.72,3.06" style="fill:none;stroke:#999;stroke-width:3"></path>

</svg>