<svg width="981px" height="109px" viewBox="0 0 981 109" xmlns="http://www.w3.org/2000/svg" xmlns:xlink="http://www.w3.org/1999/xlink" xml:space="preserve" version="1.1" baseProfile="full">
<line x1="1" y1="1" x2="980" y2="1" style="stroke:#ddd;stroke-width:2"></line>
<line x1="1" y1="1" x2="1" y2="108" style="stroke:#ddd;stroke-width:2"></line>
<line x1="1" y1="108" x2="980" y2="108" style="stroke:#ddd;stroke-width:2"></line>
<line x1="980" y1="1" x2="980" y2="108" style="stroke:#ddd;stroke-width:2"></line>
<line x1="109" y1="1" x2="109" y2="108" style="stroke:#ddd;stroke-width:2"></line>
<line x1="218" y1="1" x2="218" y2="108" style="stroke:#ddd;stroke-width:2"></line>
<line x1="327" y1="1" x2="327" y2="108" style="stroke:#ddd;stroke-width:2"></line>
<line x1="436" y1="1" x2="436" y2="108" style="stroke:#ddd;stroke-width:2"></line>
<line x1="545" y1="1" x2="545" y2="108" style="stroke:#ddd;stroke-width:2"></line>
<line x1="654" y1="1" x2="654" y2="108" style="stroke:#ddd;stroke-width:2"></line>
<line x1="763" y1="1" x2="763" y2="108" style="stroke:#ddd;stroke-width:2"></line>
<line x1="872" y1="1" x2="872" y2="108" style="stroke:#ddd;stroke-width:2"></line>
<line x1="1" y1="54" x2="980" y2="54" style="stroke:#ddd;stroke-width:2;stroke-dasharray:3 3"></line>
<line x1="55" y1="1" x2="55" y2="108" style="stroke:#ddd;stroke-width:2;stroke-dasharray:3 3"></line>
<line x1="164" y1="1" x2="164" y2="108" style="stroke:#ddd;stroke-width:2;stroke-dasharray:3 3"></line>
<line x1="273" y1="1" x2="273" y2="108" style="stroke:#ddd;stroke-width:2;stroke-dasharray:3 3"></line>
<line x1="382" y1="1" x2="382" y2="108" style="stroke:#ddd;stroke-width:2;stroke-dasharray:3 3"></line>
<line x1="491" y1="1" x2="491" y2="108" style="stroke:#ddd;stroke-width:2;stroke-dasharray:3 3"></line>
<line x1="600" y1="1" x2="600" y2="108" style="stroke:#ddd;stroke-width:2;stroke-dasharray:3 3"></line>
<line x1="709" y1="1" x2="709" y2="108" style="stroke:#ddd;stroke-width:2;stroke-dasharray:3 3"></line>
<line x1="818" y1="1" x2="818" y2="108" style="stroke:#ddd;stroke-width:2;stroke-dasharray:3 3"></line>
<line x1="927" y1="1" x2="927" y2="108" style="stroke:#ddd;stroke-width:2;stroke-dasharray:3 3"></line>
<path d="M44.32,24.39c3.24,2.4,8.12,9.18,8.93,12.91" style="fill:none;stroke:#999;stroke-width:3"></path>

<path d="M153.32,24.39c3.24,2.4,8.12,9.18,8.93,12.91" style="fill:none;stroke:#999;stroke-width:3"></path>
<path d="M194.76,21.47c0.08,0.82,0.04,1.63-0.35,2.35c-1.66,3.06-4.79,7.33-8.84,11.48" style="fill:none;stroke:#999;stroke-width:3"></path>

<path d="M262.32,24.39c3.24,2.4,8.12,9.18,8.93,12.91" style="fill:none;stroke:#999;stroke-width:3"></path>
<path d="M303.76,21.47c0.08,0.82,0.04,1.63-0.35,2.35c-1.66,3.06-4.79,7.33-8.84,11.48" style="fill:none;stroke:#999;stroke-width:3"></path>
<path d="M258.35,47.23c2.15,0.39,4.7,0.36,6.9,0.03c10.19-1.5,27.19-3.32,36.64-4.23c2.47-0.24,5.03-0.35,7.47,0.27" style="fill:none;stroke:#999;stroke-width:3"></path>

<path d="M371.32,24.39c3.24,2.4,8.12,9.18,8.93,12.91" style="fill:none;stroke:#999;stroke-width:3"></path>
<path d="M412.76,21.47c0.08,0.82,0.04,1.63-0.35,2.35c-1.66,3.06-4.79,7.33-8.84,11.48" style="fill:none;stroke:#999;stroke-width:3"></path>
<path d="M367.35,47.23c2.15,0.39,4.7,0.36,6.9,0.03c10.19-1.5,27.19-3.32,36.64-4.23c2.47-0.24,5.03-0.35,7.47,0.27" style="fill:none;stroke:#999;stroke-width:3"></path>
<path d="M391.77,11.96c0.88,0.88,1.34,2.29,1.34,3.69c0,5.22-0.08,55.47-0.08,60.6c0,4.36-0.06,7.48-0.1,8.54" style="fill:none;stroke:#999;stroke-width:3"></path>

<path d="M480.32,24.39c3.24,2.4,8.12,9.18,8.93,12.91" style="fill:none;stroke:#999;stroke-width:3"></path>
<path d="M521.76,21.47c0.08,0.82,0.04,1.63-0.35,2.35c-1.66,3.06-4.79,7.33-8.84,11.48" style="fill:none;stroke:#999;stroke-width:3"></path>
<path d="M476.35,47.23c2.15,0.39,4.7,0.36,6.9,0.03c10.19-1.5,27.19-3.32,36.64-4.23c2.47-0.24,5.03-0.35,7.47,0.27" style="fill:none;stroke:#999;stroke-width:3"></path>
<path d="M500.77,11.96c0.88,0.88,1.34,2.29,1.34,3.69c0,5.22-0.08,55.47-0.08,60.6c0,4.36-0.06,7.48-0.1,8.54" style="fill:none;stroke:#999;stroke-width:3"></path>
<path d="M498.27,46.71c0,0.91-0.35,1.92-1.19,3.47c-4.94,9.08-13.79,19.5-21.83,24.3" style="fill:none;stroke:#999;stroke-width:3"></path>

<path d="M589.3199999999999,24.39c3.24,2.4,8.12,9.18,8.93,12.91" style="fill:none;stroke:#999;stroke-width:3"></path>
<path d="M630.76,21.47c0.08,0.82,0.04,1.63-0.35,2.35c-1.66,3.06-4.79,7.33-8.84,11.48" style="fill:none;stroke:#999;stroke-width:3"></path>
<path d="M585.35,47.23c2.15,0.39,4.7,0.36,6.9,0.03c10.19-1.5,27.19-3.32,36.64-4.23c2.47-0.24,5.03-0.35,7.47,0.27" style="fill:none;stroke:#999;stroke-width:3"></path>
<path d="M609.77,11.96c0.88,0.88,1.34,2.29,1.34,3.69c0,5.22-0.08,55.47-0.08,60.6c0,4.36-0.06,7.48-0.1,8.54" style="fill:none;stroke:#999;stroke-width:3"></path>
<path d="M607.27,46.71c0,0.91-0.35,1.92-1.19,3.47c-4.94,9.08-13.79,19.5-21.83,24.3" style="fill:none;stroke:#999;stroke-width:3"></path>
<path d="M615.62,51.32c7.61,5.13,14.2,11.26,19.9,20.9" style="fill:none;stroke:#999;stroke-width:3"></path>

<path d="M698.3199999999999,24.39c3.24,2.4,8.12,9.18,8.93,12.91" style="fill:none;stroke:#999;stroke-width:3"></path>
<path d="M739.76,21.47c0.08,0.82,0.04,1.63-0.35,2.35c-1.66,3.06-4.79,7.33-8.84,11.48" style="fill:none;stroke:#999;stroke-width:3"></path>
<path d="M694.35,47.23c2.15,0.39,4.7,0.36,6.9,0.03c10.19-1.5,27.19-3.32,36.64-4.23c2.47-0.24,5.03-0.35,7.47,0.27" style="fill:none;stroke:#999;stroke-width:3"></path>
<path d="M718.77,11.96c0.88,0.88,1.34,2.29,1.34,3.69c0,5.22-0.08,55.47-0.08,60.6c0,4.36-0.06,7.48-0.1,8.54" style="fill:none;stroke:#999;stroke-width:3"></path>
<path d="M716.27,46.71c0,0.91-0.35,1.92-1.19,3.47c-4.94,9.08-13.79,19.5-21.83,24.3" style="fill:none;stroke:#999;stroke-width:3"></path>
<path d="M724.62,51.32c7.61,5.13,14.2,11.26,19.9,20.9" style="fill:none;stroke:#999;stroke-width:3"></path>
<path d="M672.21,20.25c3.63,1.74,9.38,7.17,10.29,9.88" style="fill:none;stroke:#999;stroke-width:3"></path>

<path d="M807.3199999999999,24.39c3.24,2.4,8.12,9.18,8.93,12.91" style="fill:none;stroke:#999;stroke-width:3"></path>
<path d="M848.76,21.47c0.08,0.82,0.04,1.63-0.35,2.35c-1.66,3.06-4.79,7.33-8.84,11.48" style="fill:none;stroke:#999;stroke-width:3"></path>
<path d="M803.35,47.23c2.15,0.39,4.7,0.36,6.9,0.03c10.19-1.5,27.19-3.32,36.64-4.23c2.47-0.24,5.03-0.35,7.47,0.27" style="fill:none;stroke:#999;stroke-width:3"></path>
<path d="M827.77,11.96c0.88,0.88,1.34,2.29,1.34,3.69c0,5.22-0.08,55.47-0.08,60.6c0,4.36-0.06,7.48-0.1,8.54" style="fill:none;stroke:#999;stroke-width:3"></path>
<path d="M825.27,46.71c0,0.91-0.35,1.92-1.19,3.47c-4.94,9.08-13.79,19.5-21.83,24.3" style="fill:none;stroke:#999;stroke-width:3"></path>
<path d="M833.62,51.32c7.61,5.13,14.2,11.26,19.9,20.9" style="fill:none;stroke:#999;stroke-width:3"></path>
<path d="M781.21,20.25c3.63,1.74,9.38,7.17,10.29,9.88" style="fill:none;stroke:#999;stroke-width:3"></path>
<path d="M775.5,56.25c1.62,0.5,3.77,0.54,4.75,0.23c3.12-0.98,7.79-3.53,10-4.49c2-0.87,3.48,0.05,2.25,2.57c-6.5,13.31-7.88,7.56-0.25,17.01c1,1.24,1,2.82-0.5,3.99s-6.88,5.56-10.25,7.93" style="fill:none;stroke:#999;stroke-width:3"></path>

<path d="M916.3199999999999,24.39c3.24,2.4,8.12,9.18,8.93,12.91" style="fill:none;stroke:#999;stroke-width:3"></path>
<path d="M957.76,21.47c0.08,0.82,0.04,1.63-0.35,2.35c-1.66,3.06-4.79,7.33-8.84,11.48" style="fill:none;stroke:#999;stroke-width:3"></path>
<path d="M912.35,47.23c2.15,0.39,4.7,0.36,6.9,0.03c10.19-1.5,27.19-3.32,36.64-4.23c2.47-0.24,5.03-0.35,7.47,0.27" style="fill:none;stroke:#999;stroke-width:3"></path>
<path d="M936.77,11.96c0.88,0.88,1.34,2.29,1.34,3.69c0,5.22-0.08,55.47-0.08,60.6c0,4.36-0.06,7.48-0.1,8.54" style="fill:none;stroke:#999;stroke-width:3"></path>
<path d="M934.27,46.71c0,0.91-0.35,1.92-1.19,3.47c-4.94,9.08-13.79,19.5-21.83,24.3" style="fill:none;stroke:#999;stroke-width:3"></path>
<path d="M942.62,51.32c7.61,5.13,14.2,11.26,19.9,20.9" style="fill:none;stroke:#999;stroke-width:3"></path>
<path d="M890.21,20.25c3.63,1.74,9.38,7.17,10.29,9.88" style="fill:none;stroke:#999;stroke-width:3"></path>
<path d="M884.5,56.25c1.62,0.5,3.77,0.54,4.75,0.23c3.12-0.98,7.79-3.53,10-4.49c2-0.87,3.48,0.05,2.25,2.57c-6.5,13.31-7.88,7.56-0.25,17.01c1,1.24,1,2.82-0.5,3.99s-6.88,5.56-10.25,7.93" style="fill:none;stroke:#999;stroke-width:3"></path>
<path d="M885.5,85.25c3-0.5,9.17-0.78,13.75-0.25c7.5,0.88,30.07,6.96,34.5,8.25c12,3.5,18.38,3.88,26,4.25" style="fill:none;stroke:#999;stroke-width:3"></path>

</svg>