<svg width="1090px" height="109px" viewBox="0 0 1090 109" xmlns="http://www.w3.org/2000/svg" xmlns:xlink="http://www.w3.org/1999/xlink" xml:space="preserve" version="1.1" baseProfile="full">
<line x1="1" y1="1" x2="1089" y2="1" style="stroke:#ddd;stroke-width:2"></line>
<line x1="1" y1="1" x2="1" y2="108" style="stroke:#ddd;stroke-width:2"></line>
<line x1="1" y1="108" x2="1089" y2="108" style="stroke:#ddd;stroke-width:2"></line>
<line x1="1089" y1="1" x2="1089" y2="108" style="stroke:#ddd;stroke-width:2"></line>
<line x1="109" y1="1" x2="109" y2="108" style="stroke:#ddd;stroke-width:2"></line>
<line x1="218" y1="1" x2="218" y2="108" style="stroke:#ddd;stroke-width:2"></line>
<line x1="327" y1="1" x2="327" y2="108" style="stroke:#ddd;stroke-width:2"></line>
<line x1="436" y1="1" x2="436" y2="108" style="stroke:#ddd;stroke-width:2"></line>
<line x1="545" y1="1" x2="545" y2="108" style="stroke:#ddd;stroke-width:2"></line>
<line x1="654" y1="1" x2="654" y2="108" style="stroke:#ddd;stroke-width:2"></line>
<line x1="763" y1="1" x2="763" y2="108" style="stroke:#ddd;stroke-width:2"></line>
<line x1="872" y1="1" x2="872" y2="108" style="stroke:#ddd;stroke-width:2"></line>
<line x1="981" y1="1" x2="981" y2="108" style="stroke:#ddd;stroke-width:2"></line>
<line x1="1" y1="54" x2="1089" y2="54" style="stroke:#ddd;stroke-width:2;stroke-dasharray:3 3"></line>
<line x1="55" y1="1" x2="55" y2="108" style="stroke:#ddd;stroke-width:2;stroke-dasharray:3 3"></line>
<line x1="164" y1="1" x2="164" y2="108" style="stroke:#ddd;stroke-width:2;stroke-dasharray:3 3"></line>
<line x1="273" y1="1" x2="273" y2="108" style="stroke:#ddd;stroke-width:2;stroke-dasharray:3 3"></line>
<line x1="382" y1="1" x2="382" y2="108" style="stroke:#ddd;stroke-width:2;stroke-dasharray:3 3"></line>
<line x1="491" y1="1" x2="491" y2="108" style="stroke:#ddd;stroke-width:2;stroke-dasharray:3 3"></line>
<line x1="600" y1="1" x2="600" y2="108" style="stroke:#ddd;stroke-width:2;stroke-dasharray:3 3"></line>
<line x1="709" y1="1" x2="709" y2="108" style="stroke:#ddd;stroke-width:2;stroke-dasharray:3 3"></line>
<line x1="818" y1="1" x2="818" y2="108" style="stroke:#ddd;stroke-width:2;stroke-dasharray:3 3"></line>
<line x1="927" y1="1" x2="927" y2="108" style="stroke:#ddd;stroke-width:2;stroke-dasharray:3 3"></line>
<line x1="1036" y1="1" x2="1036" y2="108" style="stroke:#ddd;stroke-width:2;stroke-dasharray:3 3"></line>
<path d="M42.26,16.34c2.02,1.05,3.83,1.18,6.02,0.82c4.89-0.81,17.88-2.68,24.07-3.87c5.4-1.04,5.65,0.21,2.48,3.24c-1.27,1.22-10.89,9.19-12.62,10.4" style="fill:none;stroke:#999;stroke-width:3"></path>

<path d="M151.26,16.34c2.02,1.05,3.83,1.18,6.02,0.82c4.89-0.81,17.88-2.68,24.07-3.87c5.4-1.04,5.65,0.21,2.48,3.24c-1.27,1.22-10.89,9.19-12.62,10.4" style="fill:none;stroke:#999;stroke-width:3"></path>
<path d="M162.25,24.5c2.46,0.84,8.84,4.06,10,6.25" style="fill:none;stroke:#999;stroke-width:3"></path>

<path d="M260.26,16.34c2.02,1.05,3.83,1.18,6.02,0.82c4.89-0.81,17.88-2.68,24.07-3.87c5.4-1.04,5.65,0.21,2.48,3.24c-1.27,1.22-10.89,9.19-12.62,10.4" style="fill:none;stroke:#999;stroke-width:3"></path>
<path d="M271.25,24.5c2.46,0.84,8.84,4.06,10,6.25" style="fill:none;stroke:#999;stroke-width:3"></path>
<path d="M260.90999999999997,33.72c1,1,1.06,2.28,1.08,3.53c0.1,5.12,0.12,25.25,0.12,34.75c0,2.93,0,4.9,0,5.18" style="fill:none;stroke:#999;stroke-width:3"></path>

<path d="M369.26,16.34c2.02,1.05,3.83,1.18,6.02,0.82c4.89-0.81,17.88-2.68,24.07-3.87c5.4-1.04,5.65,0.21,2.48,3.24c-1.27,1.22-10.89,9.19-12.62,10.4" style="fill:none;stroke:#999;stroke-width:3"></path>
<path d="M380.25,24.5c2.46,0.84,8.84,4.06,10,6.25" style="fill:none;stroke:#999;stroke-width:3"></path>
<path d="M369.90999999999997,33.72c1,1,1.06,2.28,1.08,3.53c0.1,5.12,0.12,25.25,0.12,34.75c0,2.93,0,4.9,0,5.18" style="fill:none;stroke:#999;stroke-width:3"></path>
<path d="M372.08,35.4c9.66-1.15,31.03-4.16,32.28-4.28c2.39-0.24,4.44,1.51,4.44,3.58c0,2.68-0.02,28.32-0.02,40.41c0,6.64-3.78,3.39-6.48,0.77" style="fill:none;stroke:#999;stroke-width:3"></path>

<path d="M478.26,16.34c2.02,1.05,3.83,1.18,6.02,0.82c4.89-0.81,17.88-2.68,24.07-3.87c5.4-1.04,5.65,0.21,2.48,3.24c-1.27,1.22-10.89,9.19-12.62,10.4" style="fill:none;stroke:#999;stroke-width:3"></path>
<path d="M489.25,24.5c2.46,0.84,8.84,4.06,10,6.25" style="fill:none;stroke:#999;stroke-width:3"></path>
<path d="M478.90999999999997,33.72c1,1,1.06,2.28,1.08,3.53c0.1,5.12,0.12,25.25,0.12,34.75c0,2.93,0,4.9,0,5.18" style="fill:none;stroke:#999;stroke-width:3"></path>
<path d="M481.08,35.4c9.66-1.15,31.03-4.16,32.28-4.28c2.39-0.24,4.44,1.51,4.44,3.58c0,2.68-0.02,28.32-0.02,40.41c0,6.64-3.78,3.39-6.48,0.77" style="fill:none;stroke:#999;stroke-width:3"></path>
<path d="M481.23,48.8c10.02-1.55,28.02-3.55,35.12-3.88" style="fill:none;stroke:#999;stroke-width:3"></path>

<path d="M587.26,16.34c2.02,1.05,3.83,1.18,6.02,0.82c4.89-0.81,17.88-2.68,24.07-3.87c5.4-1.04,5.65,0.21,2.48,3.24c-1.27,1.22-10.89,9.19-12.62,10.4" style="fill:none;stroke:#999;stroke-width:3"></path>
<path d="M598.25,24.5c2.46,0.84,8.84,4.06,10,6.25" style="fill:none;stroke:#999;stroke-width:3"></path>
<path d="M587.91,33.72c1,1,1.06,2.28,1.08,3.53c0.1,5.12,0.12,25.25,0.12,34.75c0,2.93,0,4.9,0,5.18" style="fill:none;stroke:#999;stroke-width:3"></path>
<path d="M590.0799999999999,35.4c9.66-1.15,31.03-4.16,32.28-4.28c2.39-0.24,4.44,1.51,4.44,3.58c0,2.68-0.02,28.32-0.02,40.41c0,6.64-3.78,3.39-6.48,0.77" style="fill:none;stroke:#999;stroke-width:3"></path>
<path d="M590.23,48.8c10.02-1.55,28.02-3.55,35.12-3.88" style="fill:none;stroke:#999;stroke-width:3"></path>
<path d="M590.23,61.89c8.02-1.14,28.9-3.34,35.27-3.64" style="fill:none;stroke:#999;stroke-width:3"></path>

<path d="M696.26,16.34c2.02,1.05,3.83,1.18,6.02,0.82c4.89-0.81,17.88-2.68,24.07-3.87c5.4-1.04,5.65,0.21,2.48,3.24c-1.27,1.22-10.89,9.19-12.62,10.4" style="fill:none;stroke:#999;stroke-width:3"></path>
<path d="M707.25,24.5c2.46,0.84,8.84,4.06,10,6.25" style="fill:none;stroke:#999;stroke-width:3"></path>
<path d="M696.91,33.72c1,1,1.06,2.28,1.08,3.53c0.1,5.12,0.12,25.25,0.12,34.75c0,2.93,0,4.9,0,5.18" style="fill:none;stroke:#999;stroke-width:3"></path>
<path d="M699.0799999999999,35.4c9.66-1.15,31.03-4.16,32.28-4.28c2.39-0.24,4.44,1.51,4.44,3.58c0,2.68-0.02,28.32-0.02,40.41c0,6.64-3.78,3.39-6.48,0.77" style="fill:none;stroke:#999;stroke-width:3"></path>
<path d="M699.23,48.8c10.02-1.55,28.02-3.55,35.12-3.88" style="fill:none;stroke:#999;stroke-width:3"></path>
<path d="M699.23,61.89c8.02-1.14,28.9-3.34,35.27-3.64" style="fill:none;stroke:#999;stroke-width:3"></path>
<path d="M714.46,35.46c1.04,1.04,1.51,2.54,1.51,4.04c0,5.06,0,24.15-0.09,34c-0.02,2.63-0.05,4.53-0.08,5.22" style="fill:none;stroke:#999;stroke-width:3"></path>

<path d="M805.26,16.34c2.02,1.05,3.83,1.18,6.02,0.82c4.89-0.81,17.88-2.68,24.07-3.87c5.4-1.04,5.65,0.21,2.48,3.24c-1.27,1.22-10.89,9.19-12.62,10.4" style="fill:none;stroke:#999;stroke-width:3"></path>
<path d="M816.25,24.5c2.46,0.84,8.84,4.06,10,6.25" style="fill:none;stroke:#999;stroke-width:3"></path>
<path d="M805.91,33.72c1,1,1.06,2.28,1.08,3.53c0.1,5.12,0.12,25.25,0.12,34.75c0,2.93,0,4.9,0,5.18" style="fill:none;stroke:#999;stroke-width:3"></path>
<path d="M808.0799999999999,35.4c9.66-1.15,31.03-4.16,32.28-4.28c2.39-0.24,4.44,1.51,4.44,3.58c0,2.68-0.02,28.32-0.02,40.41c0,6.64-3.78,3.39-6.48,0.77" style="fill:none;stroke:#999;stroke-width:3"></path>
<path d="M808.23,48.8c10.02-1.55,28.02-3.55,35.12-3.88" style="fill:none;stroke:#999;stroke-width:3"></path>
<path d="M808.23,61.89c8.02-1.14,28.9-3.34,35.27-3.64" style="fill:none;stroke:#999;stroke-width:3"></path>
<path d="M823.46,35.46c1.04,1.04,1.51,2.54,1.51,4.04c0,5.06,0,24.15-0.09,34c-0.02,2.63-0.05,4.53-0.08,5.22" style="fill:none;stroke:#999;stroke-width:3"></path>
<path d="M778.21,18.75c3.81,1.32,9.84,5.44,10.79,7.5" style="fill:none;stroke:#999;stroke-width:3"></path>

<path d="M914.26,16.34c2.02,1.05,3.83,1.18,6.02,0.82c4.89-0.81,17.88-2.68,24.07-3.87c5.4-1.04,5.65,0.21,2.48,3.24c-1.27,1.22-10.89,9.19-12.62,10.4" style="fill:none;stroke:#999;stroke-width:3"></path>
<path d="M925.25,24.5c2.46,0.84,8.84,4.06,10,6.25" style="fill:none;stroke:#999;stroke-width:3"></path>
<path d="M914.91,33.72c1,1,1.06,2.28,1.08,3.53c0.1,5.12,0.12,25.25,0.12,34.75c0,2.93,0,4.9,0,5.18" style="fill:none;stroke:#999;stroke-width:3"></path>
<path d="M917.0799999999999,35.4c9.66-1.15,31.03-4.16,32.28-4.28c2.39-0.24,4.44,1.51,4.44,3.58c0,2.68-0.02,28.32-0.02,40.41c0,6.64-3.78,3.39-6.48,0.77" style="fill:none;stroke:#999;stroke-width:3"></path>
<path d="M917.23,48.8c10.02-1.55,28.02-3.55,35.12-3.88" style="fill:none;stroke:#999;stroke-width:3"></path>
<path d="M917.23,61.89c8.02-1.14,28.9-3.34,35.27-3.64" style="fill:none;stroke:#999;stroke-width:3"></path>
<path d="M932.46,35.46c1.04,1.04,1.51,2.54,1.51,4.04c0,5.06,0,24.15-0.09,34c-0.02,2.63-0.05,4.53-0.08,5.22" style="fill:none;stroke:#999;stroke-width:3"></path>
<path d="M887.21,18.75c3.81,1.32,9.84,5.44,10.79,7.5" style="fill:none;stroke:#999;stroke-width:3"></path>
<path d="M882.75,52c2.25,1,3.75,0.5,4.75,0.25s6-3.5,8.75-5.25c2.2-1.4,4.55-0.71,1.75,4c-5.5,9.25-5.72,9.46,0.75,14.75c4.12,3.38,3.99,4.09,0.25,6.5c-3.88,2.5-8,5.25-12.5,8.5" style="fill:none;stroke:#999;stroke-width:3"></path>

<path d="M1023.26,16.34c2.02,1.05,3.83,1.18,6.02,0.82c4.89-0.81,17.88-2.68,24.07-3.87c5.4-1.04,5.65,0.21,2.48,3.24c-1.27,1.22-10.89,9.19-12.62,10.4" style="fill:none;stroke:#999;stroke-width:3"></path>
<path d="M1034.25,24.5c2.46,0.84,8.84,4.06,10,6.25" style="fill:none;stroke:#999;stroke-width:3"></path>
<path d="M1023.91,33.72c1,1,1.06,2.28,1.08,3.53c0.1,5.12,0.12,25.25,0.12,34.75c0,2.93,0,4.9,0,5.18" style="fill:none;stroke:#999;stroke-width:3"></path>
<path d="M1026.08,35.4c9.66-1.15,31.03-4.16,32.28-4.28c2.39-0.24,4.44,1.51,4.44,3.58c0,2.68-0.02,28.32-0.02,40.41c0,6.64-3.78,3.39-6.48,0.77" style="fill:none;stroke:#999;stroke-width:3"></path>
<path d="M1026.23,48.8c10.02-1.55,28.02-3.55,35.12-3.88" style="fill:none;stroke:#999;stroke-width:3"></path>
<path d="M1026.23,61.89c8.02-1.14,28.9-3.34,35.27-3.64" style="fill:none;stroke:#999;stroke-width:3"></path>
<path d="M1041.46,35.46c1.04,1.04,1.51,2.54,1.51,4.04c0,5.06,0,24.15-0.09,34c-0.02,2.63-0.05,4.53-0.08,5.22" style="fill:none;stroke:#999;stroke-width:3"></path>
<path d="M996.21,18.75c3.81,1.32,9.84,5.44,10.79,7.5" style="fill:none;stroke:#999;stroke-width:3"></path>
<path d="M991.75,52c2.25,1,3.75,0.5,4.75,0.25s6-3.5,8.75-5.25c2.2-1.4,4.55-0.71,1.75,4c-5.5,9.25-5.72,9.46,0.75,14.75c4.12,3.38,3.99,4.09,0.25,6.5c-3.88,2.5-8,5.25-12.5,8.5" style="fill:none;stroke:#999;stroke-width:3"></path>
<path d="M991.75,83.91c4.5-1.66,9.53-1.34,14.17-1.19c8.83,0.28,30.46,6.62,34.94,7.81c12.15,3.23,21.52,4.15,30.64,2.54" style="fill:none;stroke:#999;stroke-width:3"></path>

</svg>