<svg width="872px" height="109px" viewBox="0 0 872 109" xmlns="http://www.w3.org/2000/svg" xmlns:xlink="http://www.w3.org/1999/xlink" xml:space="preserve" version="1.1" baseProfile="full">
<line x1="1" y1="1" x2="871" y2="1" style="stroke:#ddd;stroke-width:2"></line>
<line x1="1" y1="1" x2="1" y2="108" style="stroke:#ddd;stroke-width:2"></line>
<line x1="1" y1="108" x2="871" y2="108" style="stroke:#ddd;stroke-width:2"></line>
<line x1="871" y1="1" x2="871" y2="108" style="stroke:#ddd;stroke-width:2"></line>
<line x1="109" y1="1" x2="109" y2="108" style="stroke:#ddd;stroke-width:2"></line>
<line x1="218" y1="1" x2="218" y2="108" style="stroke:#ddd;stroke-width:2"></line>
<line x1="327" y1="1" x2="327" y2="108" style="stroke:#ddd;stroke-width:2"></line>
<line x1="436" y1="1" x2="436" y2="108" style="stroke:#ddd;stroke-width:2"></line>
<line x1="545" y1="1" x2="545" y2="108" style="stroke:#ddd;stroke-width:2"></line>
<line x1="654" y1="1" x2="654" y2="108" style="stroke:#ddd;stroke-width:2"></line>
<line x1="763" y1="1" x2="763" y2="108" style="stroke:#ddd;stroke-width:2"></line>
<line x1="1" y1="54" x2="871" y2="54" style="stroke:#ddd;stroke-width:2;stroke-dasharray:3 3"></line>
<line x1="55" y1="1" x2="55" y2="108" style="stroke:#ddd;stroke-width:2;stroke-dasharray:3 3"></line>
<line x1="164" y1="1" x2="164" y2="108" style="stroke:#ddd;stroke-width:2;stroke-dasharray:3 3"></line>
<line x1="273" y1="1" x2="273" y2="108" style="stroke:#ddd;stroke-width:2;stroke-dasharray:3 3"></line>
<line x1="382" y1="1" x2="382" y2="108" style="stroke:#ddd;stroke-width:2;stroke-dasharray:3 3"></line>
<line x1="491" y1="1" x2="491" y2="108" style="stroke:#ddd;stroke-width:2;stroke-dasharray:3 3"></line>
<line x1="600" y1="1" x2="600" y2="108" style="stroke:#ddd;stroke-width:2;stroke-dasharray:3 3"></line>
<line x1="709" y1="1" x2="709" y2="108" style="stroke:#ddd;stroke-width:2;stroke-dasharray:3 3"></line>
<line x1="818" y1="1" x2="818" y2="108" style="stroke:#ddd;stroke-width:2;stroke-dasharray:3 3"></line>
<path d="M21.26,22.54c1.53,0.56,3.9,0.43,5.51,0.26c5.46-0.6,13.76-1.81,20.49-2.34c1.97-0.16,3.93-0.36,5.88,0.07" style="fill:none;stroke:#999;stroke-width:3"></path>

<path d="M130.26,22.54c1.53,0.56,3.9,0.43,5.51,0.26c5.46-0.6,13.76-1.81,20.49-2.34c1.97-0.16,3.93-0.36,5.88,0.07" style="fill:none;stroke:#999;stroke-width:3"></path>
<path d="M135.7,26.53c0.55,1.1,0.8,2.35,0.5,4.1c-1.14,6.59-1.95,11.1-2.45,14.37" style="fill:none;stroke:#999;stroke-width:3"></path>

<path d="M239.26,22.54c1.53,0.56,3.9,0.43,5.51,0.26c5.46-0.6,13.76-1.81,20.49-2.34c1.97-0.16,3.93-0.36,5.88,0.07" style="fill:none;stroke:#999;stroke-width:3"></path>
<path d="M244.7,26.53c0.55,1.1,0.8,2.35,0.5,4.1c-1.14,6.59-1.95,11.1-2.45,14.37" style="fill:none;stroke:#999;stroke-width:3"></path>
<path d="M231.97,47.58c2.28,0.42,4.45,0.49,6.27,0.21c9.26-1.41,22.16-3.02,30.01-3.89c2.5-0.28,4.25-0.4,6.75-0.03" style="fill:none;stroke:#999;stroke-width:3"></path>

<path d="M348.26,22.54c1.53,0.56,3.9,0.43,5.51,0.26c5.46-0.6,13.76-1.81,20.49-2.34c1.97-0.16,3.93-0.36,5.88,0.07" style="fill:none;stroke:#999;stroke-width:3"></path>
<path d="M353.7,26.53c0.55,1.1,0.8,2.35,0.5,4.1c-1.14,6.59-1.95,11.1-2.45,14.37" style="fill:none;stroke:#999;stroke-width:3"></path>
<path d="M340.97,47.58c2.28,0.42,4.45,0.49,6.27,0.21c9.26-1.41,22.16-3.02,30.01-3.89c2.5-0.28,4.25-0.4,6.75-0.03" style="fill:none;stroke:#999;stroke-width:3"></path>
<path d="M372.71,23.69c1.05,1.05,1.43,2.69,1.43,4.69c0,12.62,0.01,50.12,0.01,58.04c0,12.47-5.78,3.82-7.19,2.3" style="fill:none;stroke:#999;stroke-width:3"></path>

<path d="M457.26,22.54c1.53,0.56,3.9,0.43,5.51,0.26c5.46-0.6,13.76-1.81,20.49-2.34c1.97-0.16,3.93-0.36,5.88,0.07" style="fill:none;stroke:#999;stroke-width:3"></path>
<path d="M462.7,26.53c0.55,1.1,0.8,2.35,0.5,4.1c-1.14,6.59-1.95,11.1-2.45,14.37" style="fill:none;stroke:#999;stroke-width:3"></path>
<path d="M449.97,47.58c2.28,0.42,4.45,0.49,6.27,0.21c9.26-1.41,22.16-3.02,30.01-3.89c2.5-0.28,4.25-0.4,6.75-0.03" style="fill:none;stroke:#999;stroke-width:3"></path>
<path d="M481.71,23.69c1.05,1.05,1.43,2.69,1.43,4.69c0,12.62,0.01,50.12,0.01,58.04c0,12.47-5.78,3.82-7.19,2.3" style="fill:none;stroke:#999;stroke-width:3"></path>
<path d="M481.54,45.6c0,1.03-0.36,2.14-1.14,3.4c-4.84,7.85-15.3,20.18-29.35,30.54" style="fill:none;stroke:#999;stroke-width:3"></path>

<path d="M566.26,22.54c1.53,0.56,3.9,0.43,5.51,0.26c5.46-0.6,13.76-1.81,20.49-2.34c1.97-0.16,3.93-0.36,5.88,0.07" style="fill:none;stroke:#999;stroke-width:3"></path>
<path d="M571.7,26.53c0.55,1.1,0.8,2.35,0.5,4.1c-1.14,6.59-1.95,11.1-2.45,14.37" style="fill:none;stroke:#999;stroke-width:3"></path>
<path d="M558.97,47.58c2.28,0.42,4.45,0.49,6.27,0.21c9.26-1.41,22.16-3.02,30.01-3.89c2.5-0.28,4.25-0.4,6.75-0.03" style="fill:none;stroke:#999;stroke-width:3"></path>
<path d="M590.71,23.69c1.05,1.05,1.43,2.69,1.43,4.69c0,12.62,0.01,50.12,0.01,58.04c0,12.47-5.78,3.82-7.19,2.3" style="fill:none;stroke:#999;stroke-width:3"></path>
<path d="M590.54,45.6c0,1.03-0.36,2.14-1.14,3.4c-4.84,7.85-15.3,20.18-29.35,30.54" style="fill:none;stroke:#999;stroke-width:3"></path>
<path d="M609.42,19.42c2.33,0.58,4.83,0.54,6.4,0.25c5.89-1.05,14.48-2.96,16.85-3.75c3-1,5,2,3.67,4.33c-1.33,2.33-7.08,12.25-10.08,17" style="fill:none;stroke:#999;stroke-width:3"></path>

<path d="M675.26,22.54c1.53,0.56,3.9,0.43,5.51,0.26c5.46-0.6,13.76-1.81,20.49-2.34c1.97-0.16,3.93-0.36,5.88,0.07" style="fill:none;stroke:#999;stroke-width:3"></path>
<path d="M680.7,26.53c0.55,1.1,0.8,2.35,0.5,4.1c-1.14,6.59-1.95,11.1-2.45,14.37" style="fill:none;stroke:#999;stroke-width:3"></path>
<path d="M667.97,47.58c2.28,0.42,4.45,0.49,6.27,0.21c9.26-1.41,22.16-3.02,30.01-3.89c2.5-0.28,4.25-0.4,6.75-0.03" style="fill:none;stroke:#999;stroke-width:3"></path>
<path d="M699.71,23.69c1.05,1.05,1.43,2.69,1.43,4.69c0,12.62,0.01,50.12,0.01,58.04c0,12.47-5.78,3.82-7.19,2.3" style="fill:none;stroke:#999;stroke-width:3"></path>
<path d="M699.54,45.6c0,1.03-0.36,2.14-1.14,3.4c-4.84,7.85-15.3,20.18-29.35,30.54" style="fill:none;stroke:#999;stroke-width:3"></path>
<path d="M718.42,19.42c2.33,0.58,4.83,0.54,6.4,0.25c5.89-1.05,14.48-2.96,16.85-3.75c3-1,5,2,3.67,4.33c-1.33,2.33-7.08,12.25-10.08,17" style="fill:none;stroke:#999;stroke-width:3"></path>
<path d="M735.25,37.25C754.88,52.12,750.0,78.38,736.74,71.16" style="fill:none;stroke:#999;stroke-width:3"></path>

<path d="M784.26,22.54c1.53,0.56,3.9,0.43,5.51,0.26c5.46-0.6,13.76-1.81,20.49-2.34c1.97-0.16,3.93-0.36,5.88,0.07" style="fill:none;stroke:#999;stroke-width:3"></path>
<path d="M789.7,26.53c0.55,1.1,0.8,2.35,0.5,4.1c-1.14,6.59-1.95,11.1-2.45,14.37" style="fill:none;stroke:#999;stroke-width:3"></path>
<path d="M776.97,47.58c2.28,0.42,4.45,0.49,6.27,0.21c9.26-1.41,22.16-3.02,30.01-3.89c2.5-0.28,4.25-0.4,6.75-0.03" style="fill:none;stroke:#999;stroke-width:3"></path>
<path d="M808.71,23.69c1.05,1.05,1.43,2.69,1.43,4.69c0,12.62,0.01,50.12,0.01,58.04c0,12.47-5.78,3.82-7.19,2.3" style="fill:none;stroke:#999;stroke-width:3"></path>
<path d="M808.54,45.6c0,1.03-0.36,2.14-1.14,3.4c-4.84,7.85-15.3,20.18-29.35,30.54" style="fill:none;stroke:#999;stroke-width:3"></path>
<path d="M827.42,19.42c2.33,0.58,4.83,0.54,6.4,0.25c5.89-1.05,14.48-2.96,16.85-3.75c3-1,5,2,3.67,4.33c-1.33,2.33-7.08,12.25-10.08,17" style="fill:none;stroke:#999;stroke-width:3"></path>
<path d="M844.25,37.25C863.88,52.12,859.0,78.38,845.74,71.16" style="fill:none;stroke:#999;stroke-width:3"></path>
<path d="M829.37,20.5c0.88,0.88,1.21,2.25,1.21,3.75c0,0.86,0.08,42.4,0.04,63.25c-0.01,3.98-0.01,7.21-0.01,9.25" style="fill:none;stroke:#999;stroke-width:3"></path>

</svg>