<svg width="1090px" height="109px" viewBox="0 0 1090 109" xmlns="http://www.w3.org/2000/svg" xmlns:xlink="http://www.w3.org/1999/xlink" xml:space="preserve" version="1.1" baseProfile="full">
<line x1="1" y1="1" x2="1089" y2="1" style="stroke:#ddd;stroke-width:2"></line>
<line x1="1" y1="1" x2="1" y2="108" style="stroke:#ddd;stroke-width:2"></line>
<line x1="1" y1="108" x2="1089" y2="108" style="stroke:#ddd;stroke-width:2"></line>
<line x1="1089" y1="1" x2="1089" y2="108" style="stroke:#ddd;stroke-width:2"></line>
<line x1="109" y1="1" x2="109" y2="108" style="stroke:#ddd;stroke-width:2"></line>
<line x1="218" y1="1" x2="218" y2="108" style="stroke:#ddd;stroke-width:2"></line>
<line x1="327" y1="1" x2="327" y2="108" style="stroke:#ddd;stroke-width:2"></line>
<line x1="436" y1="1" x2="436" y2="108" style="stroke:#ddd;stroke-width:2"></line>
<line x1="545" y1="1" x2="545" y2="108" style="stroke:#ddd;stroke-width:2"></line>
<line x1="654" y1="1" x2="654" y2="108" style="stroke:#ddd;stroke-width:2"></line>
<line x1="763" y1="1" x2="763" y2="108" style="stroke:#ddd;stroke-width:2"></line>
<line x1="872" y1="1" x2="872" y2="108" style="stroke:#ddd;stroke-width:2"></line>
<line x1="981" y1="1" x2="981" y2="108" style="stroke:#ddd;stroke-width:2"></line>
<line x1="1" y1="54" x2="1089" y2="54" style="stroke:#ddd;stroke-width:2;stroke-dasharray:3 3"></line>
<line x1="55" y1="1" x2="55" y2="108" style="stroke:#ddd;stroke-width:2;stroke-dasharray:3 3"></line>
<line x1="164" y1="1" x2="164" y2="108" style="stroke:#ddd;stroke-width:2;stroke-dasharray:3 3"></line>
<line x1="273" y1="1" x2="273" y2="108" style="stroke:#ddd;stroke-width:2;stroke-dasharray:3 3"></line>
<line x1="382" y1="1" x2="382" y2="108" style="stroke:#ddd;stroke-width:2;stroke-dasharray:3 3"></line>
<line x1="491" y1="1" x2="491" y2="108" style="stroke:#ddd;stroke-width:2;stroke-dasharray:3 3"></line>
<line x1="600" y1="1" x2="600" y2="108" style="stroke:#ddd;stroke-width:2;stroke-dasharray:3 3"></line>
<line x1="709" y1="1" x2="709" y2="108" style="stroke:#ddd;stroke-width:2;stroke-dasharray:3 3"></line>
<line x1="818" y1="1" x2="818" y2="108" style="stroke:#ddd;stroke-width:2;stroke-dasharray:3 3"></line>
<line x1="927" y1="1" x2="927" y2="108" style="stroke:#ddd;stroke-width:2;stroke-dasharray:3 3"></line>
<line x1="1036" y1="1" x2="1036" y2="108" style="stroke:#ddd;stroke-width:2;stroke-dasharray:3 3"></line>
<path d="M18.54,14.06c0.35,0.4,0.71,0.73,0.87,1.22c1.22,3.92,2.2,12.48,3.51,21.79" style="fill:none;stroke:#999;stroke-width:3"></path>

<path d="M127.53999999999999,14.06c0.35,0.4,0.71,0.73,0.87,1.22c1.22,3.92,2.2,12.48,3.51,21.79" style="fill:none;stroke:#999;stroke-width:3"></path>
<path d="M129.73,15.41c9.27-0.66,23.43-2.34,27.88-2.89c1.63-0.2,2.6,2.04,2.37,3.24c-0.96,4.94-2.14,6.62-3.77,16.32" style="fill:none;stroke:#999;stroke-width:3"></path>

<path d="M236.54,14.06c0.35,0.4,0.71,0.73,0.87,1.22c1.22,3.92,2.2,12.48,3.51,21.79" style="fill:none;stroke:#999;stroke-width:3"></path>
<path d="M238.73,15.41c9.27-0.66,23.43-2.34,27.88-2.89c1.63-0.2,2.6,2.04,2.37,3.24c-0.96,4.94-2.14,6.62-3.77,16.32" style="fill:none;stroke:#999;stroke-width:3"></path>
<path d="M241.27,34.48c5.22-0.63,19.44-1.66,26.07-2.29" style="fill:none;stroke:#999;stroke-width:3"></path>

<path d="M345.53999999999996,14.06c0.35,0.4,0.71,0.73,0.87,1.22c1.22,3.92,2.2,12.48,3.51,21.79" style="fill:none;stroke:#999;stroke-width:3"></path>
<path d="M347.73,15.41c9.27-0.66,23.43-2.34,27.88-2.89c1.63-0.2,2.6,2.04,2.37,3.24c-0.96,4.94-2.14,6.62-3.77,16.32" style="fill:none;stroke:#999;stroke-width:3"></path>
<path d="M350.27,34.48c5.22-0.63,19.44-1.66,26.07-2.29" style="fill:none;stroke:#999;stroke-width:3"></path>
<path d="M376.2,39.25c0.08,0.26,0.31,0.75-0.16,1.04c-5.85,3.67-14.5,7.04-29.75,10" style="fill:none;stroke:#999;stroke-width:3"></path>

<path d="M454.53999999999996,14.06c0.35,0.4,0.71,0.73,0.87,1.22c1.22,3.92,2.2,12.48,3.51,21.79" style="fill:none;stroke:#999;stroke-width:3"></path>
<path d="M456.73,15.41c9.27-0.66,23.43-2.34,27.88-2.89c1.63-0.2,2.6,2.04,2.37,3.24c-0.96,4.94-2.14,6.62-3.77,16.32" style="fill:none;stroke:#999;stroke-width:3"></path>
<path d="M459.27,34.48c5.22-0.63,19.44-1.66,26.07-2.29" style="fill:none;stroke:#999;stroke-width:3"></path>
<path d="M485.2,39.25c0.08,0.26,0.31,0.75-0.16,1.04c-5.85,3.67-14.5,7.04-29.75,10" style="fill:none;stroke:#999;stroke-width:3"></path>
<path d="M447.34,64.18c0.97,0.77,4.16,0.37,5.16,0.33c7.25-0.26,23.67-2.22,35.8-3.59c1.21-0.14,2.63-0.31,4.44,0.36" style="fill:none;stroke:#999;stroke-width:3"></path>

<path d="M563.54,14.06c0.35,0.4,0.71,0.73,0.87,1.22c1.22,3.92,2.2,12.48,3.51,21.79" style="fill:none;stroke:#999;stroke-width:3"></path>
<path d="M565.73,15.41c9.27-0.66,23.43-2.34,27.88-2.89c1.63-0.2,2.6,2.04,2.37,3.24c-0.96,4.94-2.14,6.62-3.77,16.32" style="fill:none;stroke:#999;stroke-width:3"></path>
<path d="M568.27,34.48c5.22-0.63,19.44-1.66,26.07-2.29" style="fill:none;stroke:#999;stroke-width:3"></path>
<path d="M594.2,39.25c0.08,0.26,0.31,0.75-0.16,1.04c-5.85,3.67-14.5,7.04-29.75,10" style="fill:none;stroke:#999;stroke-width:3"></path>
<path d="M556.3399999999999,64.18c0.97,0.77,4.16,0.37,5.16,0.33c7.25-0.26,23.67-2.22,35.8-3.59c1.21-0.14,2.63-0.31,4.44,0.36" style="fill:none;stroke:#999;stroke-width:3"></path>
<path d="M580.37,49.65c0.74,1.28,0.74,2.05,0.74,3.07c0,7.16,0.19,22.55,0,29.72" style="fill:none;stroke:#999;stroke-width:3"></path>

<path d="M672.54,14.06c0.35,0.4,0.71,0.73,0.87,1.22c1.22,3.92,2.2,12.48,3.51,21.79" style="fill:none;stroke:#999;stroke-width:3"></path>
<path d="M674.73,15.41c9.27-0.66,23.43-2.34,27.88-2.89c1.63-0.2,2.6,2.04,2.37,3.24c-0.96,4.94-2.14,6.62-3.77,16.32" style="fill:none;stroke:#999;stroke-width:3"></path>
<path d="M677.27,34.48c5.22-0.63,19.44-1.66,26.07-2.29" style="fill:none;stroke:#999;stroke-width:3"></path>
<path d="M703.2,39.25c0.08,0.26,0.31,0.75-0.16,1.04c-5.85,3.67-14.5,7.04-29.75,10" style="fill:none;stroke:#999;stroke-width:3"></path>
<path d="M665.3399999999999,64.18c0.97,0.77,4.16,0.37,5.16,0.33c7.25-0.26,23.67-2.22,35.8-3.59c1.21-0.14,2.63-0.31,4.44,0.36" style="fill:none;stroke:#999;stroke-width:3"></path>
<path d="M689.37,49.65c0.74,1.28,0.74,2.05,0.74,3.07c0,7.16,0.19,22.55,0,29.72" style="fill:none;stroke:#999;stroke-width:3"></path>
<path d="M670.0,87.45c0.57,1.25,3.5,1.4,4.51,1.02c9.99-3.72,21.52-8.16,32.23-12.57" style="fill:none;stroke:#999;stroke-width:3"></path>

<path d="M781.54,14.06c0.35,0.4,0.71,0.73,0.87,1.22c1.22,3.92,2.2,12.48,3.51,21.79" style="fill:none;stroke:#999;stroke-width:3"></path>
<path d="M783.73,15.41c9.27-0.66,23.43-2.34,27.88-2.89c1.63-0.2,2.6,2.04,2.37,3.24c-0.96,4.94-2.14,6.62-3.77,16.32" style="fill:none;stroke:#999;stroke-width:3"></path>
<path d="M786.27,34.48c5.22-0.63,19.44-1.66,26.07-2.29" style="fill:none;stroke:#999;stroke-width:3"></path>
<path d="M812.2,39.25c0.08,0.26,0.31,0.75-0.16,1.04c-5.85,3.67-14.5,7.04-29.75,10" style="fill:none;stroke:#999;stroke-width:3"></path>
<path d="M774.3399999999999,64.18c0.97,0.77,4.16,0.37,5.16,0.33c7.25-0.26,23.67-2.22,35.8-3.59c1.21-0.14,2.63-0.31,4.44,0.36" style="fill:none;stroke:#999;stroke-width:3"></path>
<path d="M798.37,49.65c0.74,1.28,0.74,2.05,0.74,3.07c0,7.16,0.19,22.55,0,29.72" style="fill:none;stroke:#999;stroke-width:3"></path>
<path d="M779.0,87.45c0.57,1.25,3.5,1.4,4.51,1.02c9.99-3.72,21.52-8.16,32.23-12.57" style="fill:none;stroke:#999;stroke-width:3"></path>
<path d="M827.17,17.08c0.88,0.09,2.43,0.6,3.57,0.49c5.76-0.57,18.43-2.46,21-3.37c3.16-1.13,5.31,1.63,3.91,4.26c-1.4,2.63-8.89,18.08-11.35,21.84" style="fill:none;stroke:#999;stroke-width:3"></path>

<path d="M890.54,14.06c0.35,0.4,0.71,0.73,0.87,1.22c1.22,3.92,2.2,12.48,3.51,21.79" style="fill:none;stroke:#999;stroke-width:3"></path>
<path d="M892.73,15.41c9.27-0.66,23.43-2.34,27.88-2.89c1.63-0.2,2.6,2.04,2.37,3.24c-0.96,4.94-2.14,6.62-3.77,16.32" style="fill:none;stroke:#999;stroke-width:3"></path>
<path d="M895.27,34.48c5.22-0.63,19.44-1.66,26.07-2.29" style="fill:none;stroke:#999;stroke-width:3"></path>
<path d="M921.2,39.25c0.08,0.26,0.31,0.75-0.16,1.04c-5.85,3.67-14.5,7.04-29.75,10" style="fill:none;stroke:#999;stroke-width:3"></path>
<path d="M883.3399999999999,64.18c0.97,0.77,4.16,0.37,5.16,0.33c7.25-0.26,23.67-2.22,35.8-3.59c1.21-0.14,2.63-0.31,4.44,0.36" style="fill:none;stroke:#999;stroke-width:3"></path>
<path d="M907.37,49.65c0.74,1.28,0.74,2.05,0.74,3.07c0,7.16,0.19,22.55,0,29.72" style="fill:none;stroke:#999;stroke-width:3"></path>
<path d="M888.0,87.45c0.57,1.25,3.5,1.4,4.51,1.02c9.99-3.72,21.52-8.16,32.23-12.57" style="fill:none;stroke:#999;stroke-width:3"></path>
<path d="M936.17,17.08c0.88,0.09,2.43,0.6,3.57,0.49c5.76-0.57,18.43-2.46,21-3.37c3.16-1.13,5.31,1.63,3.91,4.26c-1.4,2.63-8.89,18.08-11.35,21.84" style="fill:none;stroke:#999;stroke-width:3"></path>
<path d="M952.77,41.36c19.48,12.89,12.48,52.14-0.1,35.35" style="fill:none;stroke:#999;stroke-width:3"></path>

<path d="M999.54,14.06c0.35,0.4,0.71,0.73,0.87,1.22c1.22,3.92,2.2,12.48,3.51,21.79" style="fill:none;stroke:#999;stroke-width:3"></path>
<path d="M1001.73,15.41c9.27-0.66,23.43-2.34,27.88-2.89c1.63-0.2,2.6,2.04,2.37,3.24c-0.96,4.94-2.14,6.62-3.77,16.32" style="fill:none;stroke:#999;stroke-width:3"></path>
<path d="M1004.27,34.48c5.22-0.63,19.44-1.66,26.07-2.29" style="fill:none;stroke:#999;stroke-width:3"></path>
<path d="M1030.2,39.25c0.08,0.26,0.31,0.75-0.16,1.04c-5.85,3.67-14.5,7.04-29.75,10" style="fill:none;stroke:#999;stroke-width:3"></path>
<path d="M992.3399999999999,64.18c0.97,0.77,4.16,0.37,5.16,0.33c7.25-0.26,23.67-2.22,35.8-3.59c1.21-0.14,2.63-0.31,4.44,0.36" style="fill:none;stroke:#999;stroke-width:3"></path>
<path d="M1016.37,49.65c0.74,1.28,0.74,2.05,0.74,3.07c0,7.16,0.19,22.55,0,29.72" style="fill:none;stroke:#999;stroke-width:3"></path>
<path d="M997.0,87.45c0.57,1.25,3.5,1.4,4.51,1.02c9.99-3.72,21.52-8.16,32.23-12.57" style="fill:none;stroke:#999;stroke-width:3"></path>
<path d="M1045.17,17.08c0.88,0.09,2.43,0.6,3.57,0.49c5.76-0.57,18.43-2.46,21-3.37c3.16-1.13,5.31,1.63,3.91,4.26c-1.4,2.63-8.89,18.08-11.35,21.84" style="fill:none;stroke:#999;stroke-width:3"></path>
<path d="M1061.77,41.36c19.48,12.89,12.48,52.14-0.1,35.35" style="fill:none;stroke:#999;stroke-width:3"></path>
<path d="M1047.52,18.58c0.02,0.1,0.04,1.77,0.05,2.91c0.14,11.72-0.07,72.34-0.28,78.76" style="fill:none;stroke:#999;stroke-width:3"></path>

</svg>