<svg width="1308px" height="109px" viewBox="0 0 1308 109" xmlns="http://www.w3.org/2000/svg" xmlns:xlink="http://www.w3.org/1999/xlink" xml:space="preserve" version="1.1" baseProfile="full">
<line x1="1" y1="1" x2="1307" y2="1" style="stroke:#ddd;stroke-width:2"></line>
<line x1="1" y1="1" x2="1" y2="108" style="stroke:#ddd;stroke-width:2"></line>
<line x1="1" y1="108" x2="1307" y2="108" style="stroke:#ddd;stroke-width:2"></line>
<line x1="1307" y1="1" x2="1307" y2="108" style="stroke:#ddd;stroke-width:2"></line>
<line x1="109" y1="1" x2="109" y2="108" style="stroke:#ddd;stroke-width:2"></line>
<line x1="218" y1="1" x2="218" y2="108" style="stroke:#ddd;stroke-width:2"></line>
<line x1="327" y1="1" x2="327" y2="108" style="stroke:#ddd;stroke-width:2"></line>
<line x1="436" y1="1" x2="436" y2="108" style="stroke:#ddd;stroke-width:2"></line>
<line x1="545" y1="1" x2="545" y2="108" style="stroke:#ddd;stroke-width:2"></line>
<line x1="654" y1="1" x2="654" y2="108" style="stroke:#ddd;stroke-width:2"></line>
<line x1="763" y1="1" x2="763" y2="108" style="stroke:#ddd;stroke-width:2"></line>
<line x1="872" y1="1" x2="872" y2="108" style="stroke:#ddd;stroke-width:2"></line>
<line x1="981" y1="1" x2="981" y2="108" style="stroke:#ddd;stroke-width:2"></line>
<line x1="1090" y1="1" x2="1090" y2="108" style="stroke:#ddd;stroke-width:2"></line>
<line x1="1199" y1="1" x2="1199" y2="108" style="stroke:#ddd;stroke-width:2"></line>
<line x1="1" y1="54" x2="1307" y2="54" style="stroke:#ddd;stroke-width:2;stroke-dasharray:3 3"></line>
<line x1="55" y1="1" x2="55" y2="108" style="stroke:#ddd;stroke-width:2;stroke-dasharray:3 3"></line>
<line x1="164" y1="1" x2="164" y2="108" style="stroke:#ddd;stroke-width:2;stroke-dasharray:3 3"></line>
<line x1="273" y1="1" x2="273" y2="108" style="stroke:#ddd;stroke-width:2;stroke-dasharray:3 3"></line>
<line x1="382" y1="1" x2="382" y2="108" style="stroke:#ddd;stroke-width:2;stroke-dasharray:3 3"></line>
<line x1="491" y1="1" x2="491" y2="108" style="stroke:#ddd;stroke-width:2;stroke-dasharray:3 3"></line>
<line x1="600" y1="1" x2="600" y2="108" style="stroke:#ddd;stroke-width:2;stroke-dasharray:3 3"></line>
<line x1="709" y1="1" x2="709" y2="108" style="stroke:#ddd;stroke-width:2;stroke-dasharray:3 3"></line>
<line x1="818" y1="1" x2="818" y2="108" style="stroke:#ddd;stroke-width:2;stroke-dasharray:3 3"></line>
<line x1="927" y1="1" x2="927" y2="108" style="stroke:#ddd;stroke-width:2;stroke-dasharray:3 3"></line>
<line x1="1036" y1="1" x2="1036" y2="108" style="stroke:#ddd;stroke-width:2;stroke-dasharray:3 3"></line>
<line x1="1145" y1="1" x2="1145" y2="108" style="stroke:#ddd;stroke-width:2;stroke-dasharray:3 3"></line>
<line x1="1254" y1="1" x2="1254" y2="108" style="stroke:#ddd;stroke-width:2;stroke-dasharray:3 3"></line>
<path d="M27.75,13.57c0.78,0.78,1.14,1.76,1.3,2.41c0.41,1.72,2.33,11.48,3.37,17c0.42,2.18,0.7,3.7,0.7,3.79" style="fill:none;stroke:#999;stroke-width:3"></path>

<path d="M136.75,13.57c0.78,0.78,1.14,1.76,1.3,2.41c0.41,1.72,2.33,11.48,3.37,17c0.42,2.18,0.7,3.7,0.7,3.79" style="fill:none;stroke:#999;stroke-width:3"></path>
<path d="M139.12,14.9c6.13-0.52,40.64-3.5,45.53-3.91c2.84-0.24,4.59,1.38,4.09,4.26c-0.5,2.85-1.54,7.35-3.13,14.77c-0.24,1.12-0.49,2.31-0.76,3.57" style="fill:none;stroke:#999;stroke-width:3"></path>

<path d="M245.75,13.57c0.78,0.78,1.14,1.76,1.3,2.41c0.41,1.72,2.33,11.48,3.37,17c0.42,2.18,0.7,3.7,0.7,3.79" style="fill:none;stroke:#999;stroke-width:3"></path>
<path d="M248.12,14.9c6.13-0.52,40.64-3.5,45.53-3.91c2.84-0.24,4.59,1.38,4.09,4.26c-0.5,2.85-1.54,7.35-3.13,14.77c-0.24,1.12-0.49,2.31-0.76,3.57" style="fill:none;stroke:#999;stroke-width:3"></path>
<path d="M249.02,24.75c10.11-1,38.11-3.12,46.62-3.33" style="fill:none;stroke:#999;stroke-width:3"></path>

<path d="M354.75,13.57c0.78,0.78,1.14,1.76,1.3,2.41c0.41,1.72,2.33,11.48,3.37,17c0.42,2.18,0.7,3.7,0.7,3.79" style="fill:none;stroke:#999;stroke-width:3"></path>
<path d="M357.12,14.9c6.13-0.52,40.64-3.5,45.53-3.91c2.84-0.24,4.59,1.38,4.09,4.26c-0.5,2.85-1.54,7.35-3.13,14.77c-0.24,1.12-0.49,2.31-0.76,3.57" style="fill:none;stroke:#999;stroke-width:3"></path>
<path d="M358.02,24.75c10.11-1,38.11-3.12,46.62-3.33" style="fill:none;stroke:#999;stroke-width:3"></path>
<path d="M361.12,34.34c10.88-0.84,26.5-2.21,41.09-2.66" style="fill:none;stroke:#999;stroke-width:3"></path>

<path d="M463.75,13.57c0.78,0.78,1.14,1.76,1.3,2.41c0.41,1.72,2.33,11.48,3.37,17c0.42,2.18,0.7,3.7,0.7,3.79" style="fill:none;stroke:#999;stroke-width:3"></path>
<path d="M466.12,14.9c6.13-0.52,40.64-3.5,45.53-3.91c2.84-0.24,4.59,1.38,4.09,4.26c-0.5,2.85-1.54,7.35-3.13,14.77c-0.24,1.12-0.49,2.31-0.76,3.57" style="fill:none;stroke:#999;stroke-width:3"></path>
<path d="M467.02,24.75c10.11-1,38.11-3.12,46.62-3.33" style="fill:none;stroke:#999;stroke-width:3"></path>
<path d="M470.12,34.34c10.88-0.84,26.5-2.21,41.09-2.66" style="fill:none;stroke:#999;stroke-width:3"></path>
<path d="M448.25,45c2.69,0.5,7.66,0.28,10.33,0c20.17-2.12,49.05-4,66.2-4.74c4.47-0.19,7.35-0.01,9.59,0.24" style="fill:none;stroke:#999;stroke-width:3"></path>

<path d="M572.75,13.57c0.78,0.78,1.14,1.76,1.3,2.41c0.41,1.72,2.33,11.48,3.37,17c0.42,2.18,0.7,3.7,0.7,3.79" style="fill:none;stroke:#999;stroke-width:3"></path>
<path d="M575.12,14.9c6.13-0.52,40.64-3.5,45.53-3.91c2.84-0.24,4.59,1.38,4.09,4.26c-0.5,2.85-1.54,7.35-3.13,14.77c-0.24,1.12-0.49,2.31-0.76,3.57" style="fill:none;stroke:#999;stroke-width:3"></path>
<path d="M576.02,24.75c10.11-1,38.11-3.12,46.62-3.33" style="fill:none;stroke:#999;stroke-width:3"></path>
<path d="M579.12,34.34c10.88-0.84,26.5-2.21,41.09-2.66" style="fill:none;stroke:#999;stroke-width:3"></path>
<path d="M557.25,45c2.69,0.5,7.66,0.28,10.33,0c20.17-2.12,49.05-4,66.2-4.74c4.47-0.19,7.35-0.01,9.59,0.24" style="fill:none;stroke:#999;stroke-width:3"></path>
<path d="M575.08,52.15c0.7,0.7,1.03,1.56,1.21,2.47c0.93,4.66,1.66,11.79,2.41,17.75c0.14,1.08,0.27,2.11,0.41,3.09" style="fill:none;stroke:#999;stroke-width:3"></path>

<path d="M681.75,13.57c0.78,0.78,1.14,1.76,1.3,2.41c0.41,1.72,2.33,11.48,3.37,17c0.42,2.18,0.7,3.7,0.7,3.79" style="fill:none;stroke:#999;stroke-width:3"></path>
<path d="M684.12,14.9c6.13-0.52,40.64-3.5,45.53-3.91c2.84-0.24,4.59,1.38,4.09,4.26c-0.5,2.85-1.54,7.35-3.13,14.77c-0.24,1.12-0.49,2.31-0.76,3.57" style="fill:none;stroke:#999;stroke-width:3"></path>
<path d="M685.02,24.75c10.11-1,38.11-3.12,46.62-3.33" style="fill:none;stroke:#999;stroke-width:3"></path>
<path d="M688.12,34.34c10.88-0.84,26.5-2.21,41.09-2.66" style="fill:none;stroke:#999;stroke-width:3"></path>
<path d="M666.25,45c2.69,0.5,7.66,0.28,10.33,0c20.17-2.12,49.05-4,66.2-4.74c4.47-0.19,7.35-0.01,9.59,0.24" style="fill:none;stroke:#999;stroke-width:3"></path>
<path d="M684.08,52.15c0.7,0.7,1.03,1.56,1.21,2.47c0.93,4.66,1.66,11.79,2.41,17.75c0.14,1.08,0.27,2.11,0.41,3.09" style="fill:none;stroke:#999;stroke-width:3"></path>
<path d="M686.3,53.41c15.33-1.41,32.45-2.89,44.97-3.63c2.61-0.16,3.73,1.72,3.4,4.04c-0.47,3.29-2.05,9.5-3.65,15.22c-0.28,1-0.56,1.99-0.83,2.94" style="fill:none;stroke:#999;stroke-width:3"></path>

<path d="M790.75,13.57c0.78,0.78,1.14,1.76,1.3,2.41c0.41,1.72,2.33,11.48,3.37,17c0.42,2.18,0.7,3.7,0.7,3.79" style="fill:none;stroke:#999;stroke-width:3"></path>
<path d="M793.12,14.9c6.13-0.52,40.64-3.5,45.53-3.91c2.84-0.24,4.59,1.38,4.09,4.26c-0.5,2.85-1.54,7.35-3.13,14.77c-0.24,1.12-0.49,2.31-0.76,3.57" style="fill:none;stroke:#999;stroke-width:3"></path>
<path d="M794.02,24.75c10.11-1,38.11-3.12,46.62-3.33" style="fill:none;stroke:#999;stroke-width:3"></path>
<path d="M797.12,34.34c10.88-0.84,26.5-2.21,41.09-2.66" style="fill:none;stroke:#999;stroke-width:3"></path>
<path d="M775.25,45c2.69,0.5,7.66,0.28,10.33,0c20.17-2.12,49.05-4,66.2-4.74c4.47-0.19,7.35-0.01,9.59,0.24" style="fill:none;stroke:#999;stroke-width:3"></path>
<path d="M793.08,52.15c0.7,0.7,1.03,1.56,1.21,2.47c0.93,4.66,1.66,11.79,2.41,17.75c0.14,1.08,0.27,2.11,0.41,3.09" style="fill:none;stroke:#999;stroke-width:3"></path>
<path d="M795.3,53.41c15.33-1.41,32.45-2.89,44.97-3.63c2.61-0.16,3.73,1.72,3.4,4.04c-0.47,3.29-2.05,9.5-3.65,15.22c-0.28,1-0.56,1.99-0.83,2.94" style="fill:none;stroke:#999;stroke-width:3"></path>
<path d="M796.8,63.24c6.83-0.49,38.45-3.36,44.66-3.52" style="fill:none;stroke:#999;stroke-width:3"></path>

<path d="M899.75,13.57c0.78,0.78,1.14,1.76,1.3,2.41c0.41,1.72,2.33,11.48,3.37,17c0.42,2.18,0.7,3.7,0.7,3.79" style="fill:none;stroke:#999;stroke-width:3"></path>
<path d="M902.12,14.9c6.13-0.52,40.64-3.5,45.53-3.91c2.84-0.24,4.59,1.38,4.09,4.26c-0.5,2.85-1.54,7.35-3.13,14.77c-0.24,1.12-0.49,2.31-0.76,3.57" style="fill:none;stroke:#999;stroke-width:3"></path>
<path d="M903.02,24.75c10.11-1,38.11-3.12,46.62-3.33" style="fill:none;stroke:#999;stroke-width:3"></path>
<path d="M906.12,34.34c10.88-0.84,26.5-2.21,41.09-2.66" style="fill:none;stroke:#999;stroke-width:3"></path>
<path d="M884.25,45c2.69,0.5,7.66,0.28,10.33,0c20.17-2.12,49.05-4,66.2-4.74c4.47-0.19,7.35-0.01,9.59,0.24" style="fill:none;stroke:#999;stroke-width:3"></path>
<path d="M902.08,52.15c0.7,0.7,1.03,1.56,1.21,2.47c0.93,4.66,1.66,11.79,2.41,17.75c0.14,1.08,0.27,2.11,0.41,3.09" style="fill:none;stroke:#999;stroke-width:3"></path>
<path d="M904.3,53.41c15.33-1.41,32.45-2.89,44.97-3.63c2.61-0.16,3.73,1.72,3.4,4.04c-0.47,3.29-2.05,9.5-3.65,15.22c-0.28,1-0.56,1.99-0.83,2.94" style="fill:none;stroke:#999;stroke-width:3"></path>
<path d="M905.8,63.24c6.83-0.49,38.45-3.36,44.66-3.52" style="fill:none;stroke:#999;stroke-width:3"></path>
<path d="M907.12,73.43c11.63-0.93,25.92-2.36,40.56-3.03" style="fill:none;stroke:#999;stroke-width:3"></path>

<path d="M1008.75,13.57c0.78,0.78,1.14,1.76,1.3,2.41c0.41,1.72,2.33,11.48,3.37,17c0.42,2.18,0.7,3.7,0.7,3.79" style="fill:none;stroke:#999;stroke-width:3"></path>
<path d="M1011.12,14.9c6.13-0.52,40.64-3.5,45.53-3.91c2.84-0.24,4.59,1.38,4.09,4.26c-0.5,2.85-1.54,7.35-3.13,14.77c-0.24,1.12-0.49,2.31-0.76,3.57" style="fill:none;stroke:#999;stroke-width:3"></path>
<path d="M1012.02,24.75c10.11-1,38.11-3.12,46.62-3.33" style="fill:none;stroke:#999;stroke-width:3"></path>
<path d="M1015.12,34.34c10.88-0.84,26.5-2.21,41.09-2.66" style="fill:none;stroke:#999;stroke-width:3"></path>
<path d="M993.25,45c2.69,0.5,7.66,0.28,10.33,0c20.17-2.12,49.05-4,66.2-4.74c4.47-0.19,7.35-0.01,9.59,0.24" style="fill:none;stroke:#999;stroke-width:3"></path>
<path d="M1011.08,52.15c0.7,0.7,1.03,1.56,1.21,2.47c0.93,4.66,1.66,11.79,2.41,17.75c0.14,1.08,0.27,2.11,0.41,3.09" style="fill:none;stroke:#999;stroke-width:3"></path>
<path d="M1013.3,53.41c15.33-1.41,32.45-2.89,44.97-3.63c2.61-0.16,3.73,1.72,3.4,4.04c-0.47,3.29-2.05,9.5-3.65,15.22c-0.28,1-0.56,1.99-0.83,2.94" style="fill:none;stroke:#999;stroke-width:3"></path>
<path d="M1014.8,63.24c6.83-0.49,38.45-3.36,44.66-3.52" style="fill:none;stroke:#999;stroke-width:3"></path>
<path d="M1016.12,73.43c11.63-0.93,25.92-2.36,40.56-3.03" style="fill:none;stroke:#999;stroke-width:3"></path>
<path d="M1034.83,54.87c0.84,0.84,1.2,2,1.2,3.63c0,11.18,0.06,33.73,0.06,36.48" style="fill:none;stroke:#999;stroke-width:3"></path>

<path d="M1117.75,13.57c0.78,0.78,1.14,1.76,1.3,2.41c0.41,1.72,2.33,11.48,3.37,17c0.42,2.18,0.7,3.7,0.7,3.79" style="fill:none;stroke:#999;stroke-width:3"></path>
<path d="M1120.12,14.9c6.13-0.52,40.64-3.5,45.53-3.91c2.84-0.24,4.59,1.38,4.09,4.26c-0.5,2.85-1.54,7.35-3.13,14.77c-0.24,1.12-0.49,2.31-0.76,3.57" style="fill:none;stroke:#999;stroke-width:3"></path>
<path d="M1121.02,24.75c10.11-1,38.11-3.12,46.62-3.33" style="fill:none;stroke:#999;stroke-width:3"></path>
<path d="M1124.12,34.34c10.88-0.84,26.5-2.21,41.09-2.66" style="fill:none;stroke:#999;stroke-width:3"></path>
<path d="M1102.25,45c2.69,0.5,7.66,0.28,10.33,0c20.17-2.12,49.05-4,66.2-4.74c4.47-0.19,7.35-0.01,9.59,0.24" style="fill:none;stroke:#999;stroke-width:3"></path>
<path d="M1120.08,52.15c0.7,0.7,1.03,1.56,1.21,2.47c0.93,4.66,1.66,11.79,2.41,17.75c0.14,1.08,0.27,2.11,0.41,3.09" style="fill:none;stroke:#999;stroke-width:3"></path>
<path d="M1122.3,53.41c15.33-1.41,32.45-2.89,44.97-3.63c2.61-0.16,3.73,1.72,3.4,4.04c-0.47,3.29-2.05,9.5-3.65,15.22c-0.28,1-0.56,1.99-0.83,2.94" style="fill:none;stroke:#999;stroke-width:3"></path>
<path d="M1123.8,63.24c6.83-0.49,38.45-3.36,44.66-3.52" style="fill:none;stroke:#999;stroke-width:3"></path>
<path d="M1125.12,73.43c11.63-0.93,25.92-2.36,40.56-3.03" style="fill:none;stroke:#999;stroke-width:3"></path>
<path d="M1143.83,54.87c0.84,0.84,1.2,2,1.2,3.63c0,11.18,0.06,33.73,0.06,36.48" style="fill:none;stroke:#999;stroke-width:3"></path>
<path d="M1123.88,84.21c2.14,0.41,4.34,0.3,6.5,0.14c10.18-0.78,19.75-2.1,30.25-2.66c2.2-0.12,4.31-0.1,6.5,0.15" style="fill:none;stroke:#999;stroke-width:3"></path>

<path d="M1226.75,13.57c0.78,0.78,1.14,1.76,1.3,2.41c0.41,1.72,2.33,11.48,3.37,17c0.42,2.18,0.7,3.7,0.7,3.79" style="fill:none;stroke:#999;stroke-width:3"></path>
<path d="M1229.12,14.9c6.13-0.52,40.64-3.5,45.53-3.91c2.84-0.24,4.59,1.38,4.09,4.26c-0.5,2.85-1.54,7.35-3.13,14.77c-0.24,1.12-0.49,2.31-0.76,3.57" style="fill:none;stroke:#999;stroke-width:3"></path>
<path d="M1230.02,24.75c10.11-1,38.11-3.12,46.62-3.33" style="fill:none;stroke:#999;stroke-width:3"></path>
<path d="M1233.12,34.34c10.88-0.84,26.5-2.21,41.09-2.66" style="fill:none;stroke:#999;stroke-width:3"></path>
<path d="M1211.25,45c2.69,0.5,7.66,0.28,10.33,0c20.17-2.12,49.05-4,66.2-4.74c4.47-0.19,7.35-0.01,9.59,0.24" style="fill:none;stroke:#999;stroke-width:3"></path>
<path d="M1229.08,52.15c0.7,0.7,1.03,1.56,1.21,2.47c0.93,4.66,1.66,11.79,2.41,17.75c0.14,1.08,0.27,2.11,0.41,3.09" style="fill:none;stroke:#999;stroke-width:3"></path>
<path d="M1231.3,53.41c15.33-1.41,32.45-2.89,44.97-3.63c2.61-0.16,3.73,1.72,3.4,4.04c-0.47,3.29-2.05,9.5-3.65,15.22c-0.28,1-0.56,1.99-0.83,2.94" style="fill:none;stroke:#999;stroke-width:3"></path>
<path d="M1232.8,63.24c6.83-0.49,38.45-3.36,44.66-3.52" style="fill:none;stroke:#999;stroke-width:3"></path>
<path d="M1234.12,73.43c11.63-0.93,25.92-2.36,40.56-3.03" style="fill:none;stroke:#999;stroke-width:3"></path>
<path d="M1252.83,54.87c0.84,0.84,1.2,2,1.2,3.63c0,11.18,0.06,33.73,0.06,36.48" style="fill:none;stroke:#999;stroke-width:3"></path>
<path d="M1232.88,84.21c2.14,0.41,4.34,0.3,6.5,0.14c10.18-0.78,19.75-2.1,30.25-2.66c2.2-0.12,4.31-0.1,6.5,0.15" style="fill:none;stroke:#999;stroke-width:3"></path>
<path d="M1215.38,97.45c2.32,0.54,6.59,0.7,8.91,0.54c20.59-1.36,40.96-2.61,60.46-3.11c3.87-0.1,6.2,0.26,8.13,0.53" style="fill:none;stroke:#999;stroke-width:3"></path>

</svg>