<svg width="1308px" height="109px" viewBox="0 0 1308 109" xmlns="http://www.w3.org/2000/svg" xmlns:xlink="http://www.w3.org/1999/xlink" xml:space="preserve" version="1.1" baseProfile="full">
<line x1="1" y1="1" x2="1307" y2="1" style="stroke:#ddd;stroke-width:2"></line>
<line x1="1" y1="1" x2="1" y2="108" style="stroke:#ddd;stroke-width:2"></line>
<line x1="1" y1="108" x2="1307" y2="108" style="stroke:#ddd;stroke-width:2"></line>
<line x1="1307" y1="1" x2="1307" y2="108" style="stroke:#ddd;stroke-width:2"></line>
<line x1="109" y1="1" x2="109" y2="108" style="stroke:#ddd;stroke-width:2"></line>
<line x1="218" y1="1" x2="218" y2="108" style="stroke:#ddd;stroke-width:2"></line>
<line x1="327" y1="1" x2="327" y2="108" style="stroke:#ddd;stroke-width:2"></line>
<line x1="436" y1="1" x2="436" y2="108" style="stroke:#ddd;stroke-width:2"></line>
<line x1="545" y1="1" x2="545" y2="108" style="stroke:#ddd;stroke-width:2"></line>
<line x1="654" y1="1" x2="654" y2="108" style="stroke:#ddd;stroke-width:2"></line>
<line x1="763" y1="1" x2="763" y2="108" style="stroke:#ddd;stroke-width:2"></line>
<line x1="872" y1="1" x2="872" y2="108" style="stroke:#ddd;stroke-width:2"></line>
<line x1="981" y1="1" x2="981" y2="108" style="stroke:#ddd;stroke-width:2"></line>
<line x1="1090" y1="1" x2="1090" y2="108" style="stroke:#ddd;stroke-width:2"></line>
<line x1="1199" y1="1" x2="1199" y2="108" style="stroke:#ddd;stroke-width:2"></line>
<line x1="1" y1="54" x2="1307" y2="54" style="stroke:#ddd;stroke-width:2;stroke-dasharray:3 3"></line>
<line x1="55" y1="1" x2="55" y2="108" style="stroke:#ddd;stroke-width:2;stroke-dasharray:3 3"></line>
<line x1="164" y1="1" x2="164" y2="108" style="stroke:#ddd;stroke-width:2;stroke-dasharray:3 3"></line>
<line x1="273" y1="1" x2="273" y2="108" style="stroke:#ddd;stroke-width:2;stroke-dasharray:3 3"></line>
<line x1="382" y1="1" x2="382" y2="108" style="stroke:#ddd;stroke-width:2;stroke-dasharray:3 3"></line>
<line x1="491" y1="1" x2="491" y2="108" style="stroke:#ddd;stroke-width:2;stroke-dasharray:3 3"></line>
<line x1="600" y1="1" x2="600" y2="108" style="stroke:#ddd;stroke-width:2;stroke-dasharray:3 3"></line>
<line x1="709" y1="1" x2="709" y2="108" style="stroke:#ddd;stroke-width:2;stroke-dasharray:3 3"></line>
<line x1="818" y1="1" x2="818" y2="108" style="stroke:#ddd;stroke-width:2;stroke-dasharray:3 3"></line>
<line x1="927" y1="1" x2="927" y2="108" style="stroke:#ddd;stroke-width:2;stroke-dasharray:3 3"></line>
<line x1="1036" y1="1" x2="1036" y2="108" style="stroke:#ddd;stroke-width:2;stroke-dasharray:3 3"></line>
<line x1="1145" y1="1" x2="1145" y2="108" style="stroke:#ddd;stroke-width:2;stroke-dasharray:3 3"></line>
<line x1="1254" y1="1" x2="1254" y2="108" style="stroke:#ddd;stroke-width:2;stroke-dasharray:3 3"></line>
<path d="M31.75,12.24c0,0.91,0.05,1.63-0.15,2.72c-1.08,5.66-11.34,24.54-20.12,32.92" style="fill:none;stroke:#999;stroke-width:3"></path>

<path d="M140.75,12.24c0,0.91,0.05,1.63-0.15,2.72c-1.08,5.66-11.34,24.54-20.12,32.92" style="fill:none;stroke:#999;stroke-width:3"></path>
<path d="M141.39,20.21c5.19,2.07,11.83,7.57,14.36,12.79" style="fill:none;stroke:#999;stroke-width:3"></path>

<path d="M249.75,12.24c0,0.91,0.05,1.63-0.15,2.72c-1.08,5.66-11.34,24.54-20.12,32.92" style="fill:none;stroke:#999;stroke-width:3"></path>
<path d="M250.39,20.21c5.19,2.07,11.83,7.57,14.36,12.79" style="fill:none;stroke:#999;stroke-width:3"></path>
<path d="M238.5,41.5c1.64,0,2.38,0.09,2.91,0.06c4.73-0.31,10.18-1.53,15.75-1.75c0.81-0.03,0.98-0.05,2.34-0.05" style="fill:none;stroke:#999;stroke-width:3"></path>

<path d="M358.75,12.24c0,0.91,0.05,1.63-0.15,2.72c-1.08,5.66-11.34,24.54-20.12,32.92" style="fill:none;stroke:#999;stroke-width:3"></path>
<path d="M359.39,20.21c5.19,2.07,11.83,7.57,14.36,12.79" style="fill:none;stroke:#999;stroke-width:3"></path>
<path d="M347.5,41.5c1.64,0,2.38,0.09,2.91,0.06c4.73-0.31,10.18-1.53,15.75-1.75c0.81-0.03,0.98-0.05,2.34-0.05" style="fill:none;stroke:#999;stroke-width:3"></path>
<path d="M340.09,54.81c0.64,0.33,2.76,0.48,3.41,0.43c5.91-0.49,16.5-1.49,24.02-2.67c0.79-0.12,2.56-0.13,3.75,0.15" style="fill:none;stroke:#999;stroke-width:3"></path>

<path d="M467.75,12.24c0,0.91,0.05,1.63-0.15,2.72c-1.08,5.66-11.34,24.54-20.12,32.92" style="fill:none;stroke:#999;stroke-width:3"></path>
<path d="M468.39,20.21c5.19,2.07,11.83,7.57,14.36,12.79" style="fill:none;stroke:#999;stroke-width:3"></path>
<path d="M456.5,41.5c1.64,0,2.38,0.09,2.91,0.06c4.73-0.31,10.18-1.53,15.75-1.75c0.81-0.03,0.98-0.05,2.34-0.05" style="fill:none;stroke:#999;stroke-width:3"></path>
<path d="M449.09,54.81c0.64,0.33,2.76,0.48,3.41,0.43c5.91-0.49,16.5-1.49,24.02-2.67c0.79-0.12,2.56-0.13,3.75,0.15" style="fill:none;stroke:#999;stroke-width:3"></path>
<path d="M464.45,41.19c1.24,0.78,1.24,2.52,1.24,3.14c0,4.35,0.62,36.13,0.31,40.48" style="fill:none;stroke:#999;stroke-width:3"></path>

<path d="M576.75,12.24c0,0.91,0.05,1.63-0.15,2.72c-1.08,5.66-11.34,24.54-20.12,32.92" style="fill:none;stroke:#999;stroke-width:3"></path>
<path d="M577.39,20.21c5.19,2.07,11.83,7.57,14.36,12.79" style="fill:none;stroke:#999;stroke-width:3"></path>
<path d="M565.5,41.5c1.64,0,2.38,0.09,2.91,0.06c4.73-0.31,10.18-1.53,15.75-1.75c0.81-0.03,0.98-0.05,2.34-0.05" style="fill:none;stroke:#999;stroke-width:3"></path>
<path d="M558.0899999999999,54.81c0.64,0.33,2.76,0.48,3.41,0.43c5.91-0.49,16.5-1.49,24.02-2.67c0.79-0.12,2.56-0.13,3.75,0.15" style="fill:none;stroke:#999;stroke-width:3"></path>
<path d="M573.45,41.19c1.24,0.78,1.24,2.52,1.24,3.14c0,4.35,0.62,36.13,0.31,40.48" style="fill:none;stroke:#999;stroke-width:3"></path>
<path d="M559.64,66.26c3.63,5.04,5.41,10.5,6.15,13.44" style="fill:none;stroke:#999;stroke-width:3"></path>

<path d="M685.75,12.24c0,0.91,0.05,1.63-0.15,2.72c-1.08,5.66-11.34,24.54-20.12,32.92" style="fill:none;stroke:#999;stroke-width:3"></path>
<path d="M686.39,20.21c5.19,2.07,11.83,7.57,14.36,12.79" style="fill:none;stroke:#999;stroke-width:3"></path>
<path d="M674.5,41.5c1.64,0,2.38,0.09,2.91,0.06c4.73-0.31,10.18-1.53,15.75-1.75c0.81-0.03,0.98-0.05,2.34-0.05" style="fill:none;stroke:#999;stroke-width:3"></path>
<path d="M667.0899999999999,54.81c0.64,0.33,2.76,0.48,3.41,0.43c5.91-0.49,16.5-1.49,24.02-2.67c0.79-0.12,2.56-0.13,3.75,0.15" style="fill:none;stroke:#999;stroke-width:3"></path>
<path d="M682.45,41.19c1.24,0.78,1.24,2.52,1.24,3.14c0,4.35,0.62,36.13,0.31,40.48" style="fill:none;stroke:#999;stroke-width:3"></path>
<path d="M668.64,66.26c3.63,5.04,5.41,10.5,6.15,13.44" style="fill:none;stroke:#999;stroke-width:3"></path>
<path d="M696.7,61.05c0.3,0.84,0.46,2.06,0.34,2.76c-0.3,1.81-2.71,5.13-6.12,10.47" style="fill:none;stroke:#999;stroke-width:3"></path>

<path d="M794.75,12.24c0,0.91,0.05,1.63-0.15,2.72c-1.08,5.66-11.34,24.54-20.12,32.92" style="fill:none;stroke:#999;stroke-width:3"></path>
<path d="M795.39,20.21c5.19,2.07,11.83,7.57,14.36,12.79" style="fill:none;stroke:#999;stroke-width:3"></path>
<path d="M783.5,41.5c1.64,0,2.38,0.09,2.91,0.06c4.73-0.31,10.18-1.53,15.75-1.75c0.81-0.03,0.98-0.05,2.34-0.05" style="fill:none;stroke:#999;stroke-width:3"></path>
<path d="M776.0899999999999,54.81c0.64,0.33,2.76,0.48,3.41,0.43c5.91-0.49,16.5-1.49,24.02-2.67c0.79-0.12,2.56-0.13,3.75,0.15" style="fill:none;stroke:#999;stroke-width:3"></path>
<path d="M791.45,41.19c1.24,0.78,1.24,2.52,1.24,3.14c0,4.35,0.62,36.13,0.31,40.48" style="fill:none;stroke:#999;stroke-width:3"></path>
<path d="M777.64,66.26c3.63,5.04,5.41,10.5,6.15,13.44" style="fill:none;stroke:#999;stroke-width:3"></path>
<path d="M805.7,61.05c0.3,0.84,0.46,2.06,0.34,2.76c-0.3,1.81-2.71,5.13-6.12,10.47" style="fill:none;stroke:#999;stroke-width:3"></path>
<path d="M776.5,90.75c1.25,1,2.75,0.75,4.5,0.25c1.29-0.37,11.25-5.75,24.25-11.75" style="fill:none;stroke:#999;stroke-width:3"></path>

<path d="M903.75,12.24c0,0.91,0.05,1.63-0.15,2.72c-1.08,5.66-11.34,24.54-20.12,32.92" style="fill:none;stroke:#999;stroke-width:3"></path>
<path d="M904.39,20.21c5.19,2.07,11.83,7.57,14.36,12.79" style="fill:none;stroke:#999;stroke-width:3"></path>
<path d="M892.5,41.5c1.64,0,2.38,0.09,2.91,0.06c4.73-0.31,10.18-1.53,15.75-1.75c0.81-0.03,0.98-0.05,2.34-0.05" style="fill:none;stroke:#999;stroke-width:3"></path>
<path d="M885.0899999999999,54.81c0.64,0.33,2.76,0.48,3.41,0.43c5.91-0.49,16.5-1.49,24.02-2.67c0.79-0.12,2.56-0.13,3.75,0.15" style="fill:none;stroke:#999;stroke-width:3"></path>
<path d="M900.45,41.19c1.24,0.78,1.24,2.52,1.24,3.14c0,4.35,0.62,36.13,0.31,40.48" style="fill:none;stroke:#999;stroke-width:3"></path>
<path d="M886.64,66.26c3.63,5.04,5.41,10.5,6.15,13.44" style="fill:none;stroke:#999;stroke-width:3"></path>
<path d="M914.7,61.05c0.3,0.84,0.46,2.06,0.34,2.76c-0.3,1.81-2.71,5.13-6.12,10.47" style="fill:none;stroke:#999;stroke-width:3"></path>
<path d="M885.5,90.75c1.25,1,2.75,0.75,4.5,0.25c1.29-0.37,11.25-5.75,24.25-11.75" style="fill:none;stroke:#999;stroke-width:3"></path>
<path d="M942.58,12.75c0.08,0.38,1.65,1.97,1.73,4.38c0.36,11.54-0.23,40.99-0.23,44.92c0,10.04-6.54,0.6-7.9-0.39" style="fill:none;stroke:#999;stroke-width:3"></path>

<path d="M1012.75,12.24c0,0.91,0.05,1.63-0.15,2.72c-1.08,5.66-11.34,24.54-20.12,32.92" style="fill:none;stroke:#999;stroke-width:3"></path>
<path d="M1013.39,20.21c5.19,2.07,11.83,7.57,14.36,12.79" style="fill:none;stroke:#999;stroke-width:3"></path>
<path d="M1001.5,41.5c1.64,0,2.38,0.09,2.91,0.06c4.73-0.31,10.18-1.53,15.75-1.75c0.81-0.03,0.98-0.05,2.34-0.05" style="fill:none;stroke:#999;stroke-width:3"></path>
<path d="M994.0899999999999,54.81c0.64,0.33,2.76,0.48,3.41,0.43c5.91-0.49,16.5-1.49,24.02-2.67c0.79-0.12,2.56-0.13,3.75,0.15" style="fill:none;stroke:#999;stroke-width:3"></path>
<path d="M1009.45,41.19c1.24,0.78,1.24,2.52,1.24,3.14c0,4.35,0.62,36.13,0.31,40.48" style="fill:none;stroke:#999;stroke-width:3"></path>
<path d="M995.64,66.26c3.63,5.04,5.41,10.5,6.15,13.44" style="fill:none;stroke:#999;stroke-width:3"></path>
<path d="M1023.7,61.05c0.3,0.84,0.46,2.06,0.34,2.76c-0.3,1.81-2.71,5.13-6.12,10.47" style="fill:none;stroke:#999;stroke-width:3"></path>
<path d="M994.5,90.75c1.25,1,2.75,0.75,4.5,0.25c1.29-0.37,11.25-5.75,24.25-11.75" style="fill:none;stroke:#999;stroke-width:3"></path>
<path d="M1051.58,12.75c0.08,0.38,1.65,1.97,1.73,4.38c0.36,11.54-0.23,40.99-0.23,44.92c0,10.04-6.54,0.6-7.9-0.39" style="fill:none;stroke:#999;stroke-width:3"></path>
<path d="M1040.46,33.69c0.03,0.47,0.11,1.24-0.06,1.89c-1.18,4.7-5.42,13.24-9.48,17.58" style="fill:none;stroke:#999;stroke-width:3"></path>

<path d="M1121.75,12.24c0,0.91,0.05,1.63-0.15,2.72c-1.08,5.66-11.34,24.54-20.12,32.92" style="fill:none;stroke:#999;stroke-width:3"></path>
<path d="M1122.3899999999999,20.21c5.19,2.07,11.83,7.57,14.36,12.79" style="fill:none;stroke:#999;stroke-width:3"></path>
<path d="M1110.5,41.5c1.64,0,2.38,0.09,2.91,0.06c4.73-0.31,10.18-1.53,15.75-1.75c0.81-0.03,0.98-0.05,2.34-0.05" style="fill:none;stroke:#999;stroke-width:3"></path>
<path d="M1103.09,54.81c0.64,0.33,2.76,0.48,3.41,0.43c5.91-0.49,16.5-1.49,24.02-2.67c0.79-0.12,2.56-0.13,3.75,0.15" style="fill:none;stroke:#999;stroke-width:3"></path>
<path d="M1118.45,41.19c1.24,0.78,1.24,2.52,1.24,3.14c0,4.35,0.62,36.13,0.31,40.48" style="fill:none;stroke:#999;stroke-width:3"></path>
<path d="M1104.6399999999999,66.26c3.63,5.04,5.41,10.5,6.15,13.44" style="fill:none;stroke:#999;stroke-width:3"></path>
<path d="M1132.7,61.05c0.3,0.84,0.46,2.06,0.34,2.76c-0.3,1.81-2.71,5.13-6.12,10.47" style="fill:none;stroke:#999;stroke-width:3"></path>
<path d="M1103.5,90.75c1.25,1,2.75,0.75,4.5,0.25c1.29-0.37,11.25-5.75,24.25-11.75" style="fill:none;stroke:#999;stroke-width:3"></path>
<path d="M1160.58,12.75c0.08,0.38,1.65,1.97,1.73,4.38c0.36,11.54-0.23,40.99-0.23,44.92c0,10.04-6.54,0.6-7.9-0.39" style="fill:none;stroke:#999;stroke-width:3"></path>
<path d="M1149.46,33.69c0.03,0.47,0.11,1.24-0.06,1.89c-1.18,4.7-5.42,13.24-9.48,17.58" style="fill:none;stroke:#999;stroke-width:3"></path>
<path d="M1175.93,31.48c5.24,2.95,12.27,10.53,13.57,15.12" style="fill:none;stroke:#999;stroke-width:3"></path>

<path d="M1230.75,12.24c0,0.91,0.05,1.63-0.15,2.72c-1.08,5.66-11.34,24.54-20.12,32.92" style="fill:none;stroke:#999;stroke-width:3"></path>
<path d="M1231.3899999999999,20.21c5.19,2.07,11.83,7.57,14.36,12.79" style="fill:none;stroke:#999;stroke-width:3"></path>
<path d="M1219.5,41.5c1.64,0,2.38,0.09,2.91,0.06c4.73-0.31,10.18-1.53,15.75-1.75c0.81-0.03,0.98-0.05,2.34-0.05" style="fill:none;stroke:#999;stroke-width:3"></path>
<path d="M1212.09,54.81c0.64,0.33,2.76,0.48,3.41,0.43c5.91-0.49,16.5-1.49,24.02-2.67c0.79-0.12,2.56-0.13,3.75,0.15" style="fill:none;stroke:#999;stroke-width:3"></path>
<path d="M1227.45,41.19c1.24,0.78,1.24,2.52,1.24,3.14c0,4.35,0.62,36.13,0.31,40.48" style="fill:none;stroke:#999;stroke-width:3"></path>
<path d="M1213.6399999999999,66.26c3.63,5.04,5.41,10.5,6.15,13.44" style="fill:none;stroke:#999;stroke-width:3"></path>
<path d="M1241.7,61.05c0.3,0.84,0.46,2.06,0.34,2.76c-0.3,1.81-2.71,5.13-6.12,10.47" style="fill:none;stroke:#999;stroke-width:3"></path>
<path d="M1212.5,90.75c1.25,1,2.75,0.75,4.5,0.25c1.29-0.37,11.25-5.75,24.25-11.75" style="fill:none;stroke:#999;stroke-width:3"></path>
<path d="M1269.58,12.75c0.08,0.38,1.65,1.97,1.73,4.38c0.36,11.54-0.23,40.99-0.23,44.92c0,10.04-6.54,0.6-7.9-0.39" style="fill:none;stroke:#999;stroke-width:3"></path>
<path d="M1258.46,33.69c0.03,0.47,0.11,1.24-0.06,1.89c-1.18,4.7-5.42,13.24-9.48,17.58" style="fill:none;stroke:#999;stroke-width:3"></path>
<path d="M1284.93,31.48c5.24,2.95,12.27,10.53,13.57,15.12" style="fill:none;stroke:#999;stroke-width:3"></path>
<path d="M1287.8,47.72c0.1,1.15,0.37,3-0.21,4.61C1281.5,69.25,1266.5,86,1248.97,97" style="fill:none;stroke:#999;stroke-width:3"></path>

</svg>