<svg width="872px" height="109px" viewBox="0 0 872 109" xmlns="http://www.w3.org/2000/svg" xmlns:xlink="http://www.w3.org/1999/xlink" xml:space="preserve" version="1.1" baseProfile="full">
<line x1="1" y1="1" x2="871" y2="1" style="stroke:#ddd;stroke-width:2"></line>
<line x1="1" y1="1" x2="1" y2="108" style="stroke:#ddd;stroke-width:2"></line>
<line x1="1" y1="108" x2="871" y2="108" style="stroke:#ddd;stroke-width:2"></line>
<line x1="871" y1="1" x2="871" y2="108" style="stroke:#ddd;stroke-width:2"></line>
<line x1="109" y1="1" x2="109" y2="108" style="stroke:#ddd;stroke-width:2"></line>
<line x1="218" y1="1" x2="218" y2="108" style="stroke:#ddd;stroke-width:2"></line>
<line x1="327" y1="1" x2="327" y2="108" style="stroke:#ddd;stroke-width:2"></line>
<line x1="436" y1="1" x2="436" y2="108" style="stroke:#ddd;stroke-width:2"></line>
<line x1="545" y1="1" x2="545" y2="108" style="stroke:#ddd;stroke-width:2"></line>
<line x1="654" y1="1" x2="654" y2="108" style="stroke:#ddd;stroke-width:2"></line>
<line x1="763" y1="1" x2="763" y2="108" style="stroke:#ddd;stroke-width:2"></line>
<line x1="1" y1="54" x2="871" y2="54" style="stroke:#ddd;stroke-width:2;stroke-dasharray:3 3"></line>
<line x1="55" y1="1" x2="55" y2="108" style="stroke:#ddd;stroke-width:2;stroke-dasharray:3 3"></line>
<line x1="164" y1="1" x2="164" y2="108" style="stroke:#ddd;stroke-width:2;stroke-dasharray:3 3"></line>
<line x1="273" y1="1" x2="273" y2="108" style="stroke:#ddd;stroke-width:2;stroke-dasharray:3 3"></line>
<line x1="382" y1="1" x2="382" y2="108" style="stroke:#ddd;stroke-width:2;stroke-dasharray:3 3"></line>
<line x1="491" y1="1" x2="491" y2="108" style="stroke:#ddd;stroke-width:2;stroke-dasharray:3 3"></line>
<line x1="600" y1="1" x2="600" y2="108" style="stroke:#ddd;stroke-width:2;stroke-dasharray:3 3"></line>
<line x1="709" y1="1" x2="709" y2="108" style="stroke:#ddd;stroke-width:2;stroke-dasharray:3 3"></line>
<line x1="818" y1="1" x2="818" y2="108" style="stroke:#ddd;stroke-width:2;stroke-dasharray:3 3"></line>
<path d="M34.0,14.75C35.25,16,36.0,18,36.0,19.5s0,33.5,0,35.75" style="fill:none;stroke:#999;stroke-width:3"></path>

<path d="M143.0,14.75C144.25,16,145.0,18,145.0,19.5s0,33.5,0,35.75" style="fill:none;stroke:#999;stroke-width:3"></path>
<path d="M146.75,16c9.6-0.15,21.73-3.26,26.63-4.2c1.97-0.38,3.9-0.41,5.87,0.06" style="fill:none;stroke:#999;stroke-width:3"></path>

<path d="M252.0,14.75C253.25,16,254.0,18,254.0,19.5s0,33.5,0,35.75" style="fill:none;stroke:#999;stroke-width:3"></path>
<path d="M255.75,16c9.6-0.15,21.73-3.26,26.63-4.2c1.97-0.38,3.9-0.41,5.87,0.06" style="fill:none;stroke:#999;stroke-width:3"></path>
<path d="M255.25,29.5C266.12,28.25,275.0,27,282.0,25.72c1.96-0.36,3.76-0.25,5.25,0.06" style="fill:none;stroke:#999;stroke-width:3"></path>

<path d="M361.0,14.75C362.25,16,363.0,18,363.0,19.5s0,33.5,0,35.75" style="fill:none;stroke:#999;stroke-width:3"></path>
<path d="M364.75,16c9.6-0.15,21.73-3.26,26.63-4.2c1.97-0.38,3.9-0.41,5.87,0.06" style="fill:none;stroke:#999;stroke-width:3"></path>
<path d="M364.25,29.5C375.12,28.25,384.0,27,391.0,25.72c1.96-0.36,3.76-0.25,5.25,0.06" style="fill:none;stroke:#999;stroke-width:3"></path>
<path d="M364.5,42.5c8.88-0.86,21.62-2.62,26.75-3.53c1.97-0.35,3.88-0.32,5.75,0" style="fill:none;stroke:#999;stroke-width:3"></path>

<path d="M470.0,14.75C471.25,16,472.0,18,472.0,19.5s0,33.5,0,35.75" style="fill:none;stroke:#999;stroke-width:3"></path>
<path d="M473.75,16c9.6-0.15,21.73-3.26,26.63-4.2c1.97-0.38,3.9-0.41,5.87,0.06" style="fill:none;stroke:#999;stroke-width:3"></path>
<path d="M473.25,29.5C484.12,28.25,493.0,27,500.0,25.72c1.96-0.36,3.76-0.25,5.25,0.06" style="fill:none;stroke:#999;stroke-width:3"></path>
<path d="M473.5,42.5c8.88-0.86,21.62-2.62,26.75-3.53c1.97-0.35,3.88-0.32,5.75,0" style="fill:none;stroke:#999;stroke-width:3"></path>
<path d="M446.88,58.23c3.14,0.86,6.44,0.68,9.62,0.29c19.73-2.35,44.86-6.1,65-7.61c2.97-0.22,5.7-0.08,8.63,0.4" style="fill:none;stroke:#999;stroke-width:3"></path>

<path d="M579.0,14.75C580.25,16,581.0,18,581.0,19.5s0,33.5,0,35.75" style="fill:none;stroke:#999;stroke-width:3"></path>
<path d="M582.75,16c9.6-0.15,21.73-3.26,26.63-4.2c1.97-0.38,3.9-0.41,5.87,0.06" style="fill:none;stroke:#999;stroke-width:3"></path>
<path d="M582.25,29.5C593.12,28.25,602.0,27,609.0,25.72c1.96-0.36,3.76-0.25,5.25,0.06" style="fill:none;stroke:#999;stroke-width:3"></path>
<path d="M582.5,42.5c8.88-0.86,21.62-2.62,26.75-3.53c1.97-0.35,3.88-0.32,5.75,0" style="fill:none;stroke:#999;stroke-width:3"></path>
<path d="M555.88,58.23c3.14,0.86,6.44,0.68,9.62,0.29c19.73-2.35,44.86-6.1,65-7.61c2.97-0.22,5.7-0.08,8.63,0.4" style="fill:none;stroke:#999;stroke-width:3"></path>
<path d="M576.25,60.25c0.94,0.94,1.39,2.38,1.39,4c0,11.82-0.7,28.19-0.7,30.19s1.65,3.14,3.74,1.64c2.09-1.5,17.25-11.09,20.03-12.59" style="fill:none;stroke:#999;stroke-width:3"></path>

<path d="M688.0,14.75C689.25,16,690.0,18,690.0,19.5s0,33.5,0,35.75" style="fill:none;stroke:#999;stroke-width:3"></path>
<path d="M691.75,16c9.6-0.15,21.73-3.26,26.63-4.2c1.97-0.38,3.9-0.41,5.87,0.06" style="fill:none;stroke:#999;stroke-width:3"></path>
<path d="M691.25,29.5C702.12,28.25,711.0,27,718.0,25.72c1.96-0.36,3.76-0.25,5.25,0.06" style="fill:none;stroke:#999;stroke-width:3"></path>
<path d="M691.5,42.5c8.88-0.86,21.62-2.62,26.75-3.53c1.97-0.35,3.88-0.32,5.75,0" style="fill:none;stroke:#999;stroke-width:3"></path>
<path d="M664.88,58.23c3.14,0.86,6.44,0.68,9.62,0.29c19.73-2.35,44.86-6.1,65-7.61c2.97-0.22,5.7-0.08,8.63,0.4" style="fill:none;stroke:#999;stroke-width:3"></path>
<path d="M685.25,60.25c0.94,0.94,1.39,2.38,1.39,4c0,11.82-0.7,28.19-0.7,30.19s1.65,3.14,3.74,1.64c2.09-1.5,17.25-11.09,20.03-12.59" style="fill:none;stroke:#999;stroke-width:3"></path>
<path d="M730.52,55.25c0.23,1.25-0.33,2.45-1.05,3.41C727.5,61.25,723.62,65,718.62,68.75" style="fill:none;stroke:#999;stroke-width:3"></path>

<path d="M797.0,14.75C798.25,16,799.0,18,799.0,19.5s0,33.5,0,35.75" style="fill:none;stroke:#999;stroke-width:3"></path>
<path d="M800.75,16c9.6-0.15,21.73-3.26,26.63-4.2c1.97-0.38,3.9-0.41,5.87,0.06" style="fill:none;stroke:#999;stroke-width:3"></path>
<path d="M800.25,29.5C811.12,28.25,820.0,27,827.0,25.72c1.96-0.36,3.76-0.25,5.25,0.06" style="fill:none;stroke:#999;stroke-width:3"></path>
<path d="M800.5,42.5c8.88-0.86,21.62-2.62,26.75-3.53c1.97-0.35,3.88-0.32,5.75,0" style="fill:none;stroke:#999;stroke-width:3"></path>
<path d="M773.88,58.23c3.14,0.86,6.44,0.68,9.62,0.29c19.73-2.35,44.86-6.1,65-7.61c2.97-0.22,5.7-0.08,8.63,0.4" style="fill:none;stroke:#999;stroke-width:3"></path>
<path d="M794.25,60.25c0.94,0.94,1.39,2.38,1.39,4c0,11.82-0.7,28.19-0.7,30.19s1.65,3.14,3.74,1.64c2.09-1.5,17.25-11.09,20.03-12.59" style="fill:none;stroke:#999;stroke-width:3"></path>
<path d="M839.52,55.25c0.23,1.25-0.33,2.45-1.05,3.41C836.5,61.25,832.62,65,827.62,68.75" style="fill:none;stroke:#999;stroke-width:3"></path>
<path d="M809.5,62.25c8.21,0,34.52,25.9,44.28,29.5C856.12,92.61,857.51,93,860.0,93.5" style="fill:none;stroke:#999;stroke-width:3"></path>

</svg>