<svg width="763px" height="109px" viewBox="0 0 763 109" xmlns="http://www.w3.org/2000/svg" xmlns:xlink="http://www.w3.org/1999/xlink" xml:space="preserve" version="1.1" baseProfile="full">
<line x1="1" y1="1" x2="762" y2="1" style="stroke:#ddd;stroke-width:2"></line>
<line x1="1" y1="1" x2="1" y2="108" style="stroke:#ddd;stroke-width:2"></line>
<line x1="1" y1="108" x2="762" y2="108" style="stroke:#ddd;stroke-width:2"></line>
<line x1="762" y1="1" x2="762" y2="108" style="stroke:#ddd;stroke-width:2"></line>
<line x1="109" y1="1" x2="109" y2="108" style="stroke:#ddd;stroke-width:2"></line>
<line x1="218" y1="1" x2="218" y2="108" style="stroke:#ddd;stroke-width:2"></line>
<line x1="327" y1="1" x2="327" y2="108" style="stroke:#ddd;stroke-width:2"></line>
<line x1="436" y1="1" x2="436" y2="108" style="stroke:#ddd;stroke-width:2"></line>
<line x1="545" y1="1" x2="545" y2="108" style="stroke:#ddd;stroke-width:2"></line>
<line x1="654" y1="1" x2="654" y2="108" style="stroke:#ddd;stroke-width:2"></line>
<line x1="1" y1="54" x2="762" y2="54" style="stroke:#ddd;stroke-width:2;stroke-dasharray:3 3"></line>
<line x1="55" y1="1" x2="55" y2="108" style="stroke:#ddd;stroke-width:2;stroke-dasharray:3 3"></line>
<line x1="164" y1="1" x2="164" y2="108" style="stroke:#ddd;stroke-width:2;stroke-dasharray:3 3"></line>
<line x1="273" y1="1" x2="273" y2="108" style="stroke:#ddd;stroke-width:2;stroke-dasharray:3 3"></line>
<line x1="382" y1="1" x2="382" y2="108" style="stroke:#ddd;stroke-width:2;stroke-dasharray:3 3"></line>
<line x1="491" y1="1" x2="491" y2="108" style="stroke:#ddd;stroke-width:2;stroke-dasharray:3 3"></line>
<line x1="600" y1="1" x2="600" y2="108" style="stroke:#ddd;stroke-width:2;stroke-dasharray:3 3"></line>
<line x1="709" y1="1" x2="709" y2="108" style="stroke:#ddd;stroke-width:2;stroke-dasharray:3 3"></line>
<path d="M16.0,19.05c0.94,0.14,1.95,0.15,3,0.08c4.25-0.29,13.01-2.04,15.19-2.94c2.72-1.12,5.44,1.12,4.23,3.73c-1.21,2.61-9.35,15.78-11.46,19.51" style="fill:none;stroke:#999;stroke-width:3"></path>

<path d="M125.0,19.05c0.94,0.14,1.95,0.15,3,0.08c4.25-0.29,13.01-2.04,15.19-2.94c2.72-1.12,5.44,1.12,4.23,3.73c-1.21,2.61-9.35,15.78-11.46,19.51" style="fill:none;stroke:#999;stroke-width:3"></path>
<path d="M135.96,40c13.79,11,11.54,39,1.51,32.43" style="fill:none;stroke:#999;stroke-width:3"></path>

<path d="M234.0,19.05c0.94,0.14,1.95,0.15,3,0.08c4.25-0.29,13.01-2.04,15.19-2.94c2.72-1.12,5.44,1.12,4.23,3.73c-1.21,2.61-9.35,15.78-11.46,19.51" style="fill:none;stroke:#999;stroke-width:3"></path>
<path d="M244.96,40c13.79,11,11.54,39,1.51,32.43" style="fill:none;stroke:#999;stroke-width:3"></path>
<path d="M234.87,20.47c0.38,0.78,0.58,2.52,0.78,3.63c0.2,1.12,0,65.91-0.2,72.9" style="fill:none;stroke:#999;stroke-width:3"></path>

<path d="M343.0,19.05c0.94,0.14,1.95,0.15,3,0.08c4.25-0.29,13.01-2.04,15.19-2.94c2.72-1.12,5.44,1.12,4.23,3.73c-1.21,2.61-9.35,15.78-11.46,19.51" style="fill:none;stroke:#999;stroke-width:3"></path>
<path d="M353.96000000000004,40c13.79,11,11.54,39,1.51,32.43" style="fill:none;stroke:#999;stroke-width:3"></path>
<path d="M343.87,20.47c0.38,0.78,0.58,2.52,0.78,3.63c0.2,1.12,0,65.91-0.2,72.9" style="fill:none;stroke:#999;stroke-width:3"></path>
<path d="M395.82,13.5c1.25,0.57,1.99,2.58,2.24,3.72c0.25,1.15,0,67.33-0.25,74.48" style="fill:none;stroke:#999;stroke-width:3"></path>

<path d="M452.0,19.05c0.94,0.14,1.95,0.15,3,0.08c4.25-0.29,13.01-2.04,15.19-2.94c2.72-1.12,5.44,1.12,4.23,3.73c-1.21,2.61-9.35,15.78-11.46,19.51" style="fill:none;stroke:#999;stroke-width:3"></path>
<path d="M462.96000000000004,40c13.79,11,11.54,39,1.51,32.43" style="fill:none;stroke:#999;stroke-width:3"></path>
<path d="M452.87,20.47c0.38,0.78,0.58,2.52,0.78,3.63c0.2,1.12,0,65.91-0.2,72.9" style="fill:none;stroke:#999;stroke-width:3"></path>
<path d="M504.82,13.5c1.25,0.57,1.99,2.58,2.24,3.72c0.25,1.15,0,67.33-0.25,74.48" style="fill:none;stroke:#999;stroke-width:3"></path>
<path d="M507.2,49.64c5.86-1.14,13.15-2,18.14-2.29c1.92-0.11,2.4-0.29,3.6,0" style="fill:none;stroke:#999;stroke-width:3"></path>

<path d="M561.0,19.05c0.94,0.14,1.95,0.15,3,0.08c4.25-0.29,13.01-2.04,15.19-2.94c2.72-1.12,5.44,1.12,4.23,3.73c-1.21,2.61-9.35,15.78-11.46,19.51" style="fill:none;stroke:#999;stroke-width:3"></path>
<path d="M571.96,40c13.79,11,11.54,39,1.51,32.43" style="fill:none;stroke:#999;stroke-width:3"></path>
<path d="M561.87,20.47c0.38,0.78,0.58,2.52,0.78,3.63c0.2,1.12,0,65.91-0.2,72.9" style="fill:none;stroke:#999;stroke-width:3"></path>
<path d="M613.8199999999999,13.5c1.25,0.57,1.99,2.58,2.24,3.72c0.25,1.15,0,67.33-0.25,74.48" style="fill:none;stroke:#999;stroke-width:3"></path>
<path d="M616.2,49.64c5.86-1.14,13.15-2,18.14-2.29c1.92-0.11,2.4-0.29,3.6,0" style="fill:none;stroke:#999;stroke-width:3"></path>
<path d="M594.64,45.85c1.25,0.57,1.99,2.58,2.24,3.72c0.25,1.15,0,36.05-0.25,43.21" style="fill:none;stroke:#999;stroke-width:3"></path>

<path d="M670.0,19.05c0.94,0.14,1.95,0.15,3,0.08c4.25-0.29,13.01-2.04,15.19-2.94c2.72-1.12,5.44,1.12,4.23,3.73c-1.21,2.61-9.35,15.78-11.46,19.51" style="fill:none;stroke:#999;stroke-width:3"></path>
<path d="M680.96,40c13.79,11,11.54,39,1.51,32.43" style="fill:none;stroke:#999;stroke-width:3"></path>
<path d="M670.87,20.47c0.38,0.78,0.58,2.52,0.78,3.63c0.2,1.12,0,65.91-0.2,72.9" style="fill:none;stroke:#999;stroke-width:3"></path>
<path d="M722.8199999999999,13.5c1.25,0.57,1.99,2.58,2.24,3.72c0.25,1.15,0,67.33-0.25,74.48" style="fill:none;stroke:#999;stroke-width:3"></path>
<path d="M725.2,49.64c5.86-1.14,13.15-2,18.14-2.29c1.92-0.11,2.4-0.29,3.6,0" style="fill:none;stroke:#999;stroke-width:3"></path>
<path d="M703.64,45.85c1.25,0.57,1.99,2.58,2.24,3.72c0.25,1.15,0,36.05-0.25,43.21" style="fill:none;stroke:#999;stroke-width:3"></path>
<path d="M688.41,93.4c0.72,0.2,2.64,0.67,4.56,0.6c13.81-0.5,41.82-2.66,54.96-2.66c1.92,0,4.79,0.29,6.66,1.15" style="fill:none;stroke:#999;stroke-width:3"></path>

</svg>