<svg width="872px" height="109px" viewBox="0 0 872 109" xmlns="http://www.w3.org/2000/svg" xmlns:xlink="http://www.w3.org/1999/xlink" xml:space="preserve" version="1.1" baseProfile="full">
<line x1="1" y1="1" x2="871" y2="1" style="stroke:#ddd;stroke-width:2"></line>
<line x1="1" y1="1" x2="1" y2="108" style="stroke:#ddd;stroke-width:2"></line>
<line x1="1" y1="108" x2="871" y2="108" style="stroke:#ddd;stroke-width:2"></line>
<line x1="871" y1="1" x2="871" y2="108" style="stroke:#ddd;stroke-width:2"></line>
<line x1="109" y1="1" x2="109" y2="108" style="stroke:#ddd;stroke-width:2"></line>
<line x1="218" y1="1" x2="218" y2="108" style="stroke:#ddd;stroke-width:2"></line>
<line x1="327" y1="1" x2="327" y2="108" style="stroke:#ddd;stroke-width:2"></line>
<line x1="436" y1="1" x2="436" y2="108" style="stroke:#ddd;stroke-width:2"></line>
<line x1="545" y1="1" x2="545" y2="108" style="stroke:#ddd;stroke-width:2"></line>
<line x1="654" y1="1" x2="654" y2="108" style="stroke:#ddd;stroke-width:2"></line>
<line x1="763" y1="1" x2="763" y2="108" style="stroke:#ddd;stroke-width:2"></line>
<line x1="1" y1="54" x2="871" y2="54" style="stroke:#ddd;stroke-width:2;stroke-dasharray:3 3"></line>
<line x1="55" y1="1" x2="55" y2="108" style="stroke:#ddd;stroke-width:2;stroke-dasharray:3 3"></line>
<line x1="164" y1="1" x2="164" y2="108" style="stroke:#ddd;stroke-width:2;stroke-dasharray:3 3"></line>
<line x1="273" y1="1" x2="273" y2="108" style="stroke:#ddd;stroke-width:2;stroke-dasharray:3 3"></line>
<line x1="382" y1="1" x2="382" y2="108" style="stroke:#ddd;stroke-width:2;stroke-dasharray:3 3"></line>
<line x1="491" y1="1" x2="491" y2="108" style="stroke:#ddd;stroke-width:2;stroke-dasharray:3 3"></line>
<line x1="600" y1="1" x2="600" y2="108" style="stroke:#ddd;stroke-width:2;stroke-dasharray:3 3"></line>
<line x1="709" y1="1" x2="709" y2="108" style="stroke:#ddd;stroke-width:2;stroke-dasharray:3 3"></line>
<line x1="818" y1="1" x2="818" y2="108" style="stroke:#ddd;stroke-width:2;stroke-dasharray:3 3"></line>
<path d="M19.56,22.17c5.97-1,11.36-2,14.18-3c2.83-1,5.65,1,4.4,3.33s-7.59,13.67-9.79,17" style="fill:none;stroke:#999;stroke-width:3"></path>

<path d="M128.56,22.17c5.97-1,11.36-2,14.18-3c2.83-1,5.65,1,4.4,3.33s-7.59,13.67-9.79,17" style="fill:none;stroke:#999;stroke-width:3"></path>
<path d="M137.35,40c12.56,8.33,12.87,32.83,1.57,28.5" style="fill:none;stroke:#999;stroke-width:3"></path>

<path d="M237.56,22.17c5.97-1,11.36-2,14.18-3c2.83-1,5.65,1,4.4,3.33s-7.59,13.67-9.79,17" style="fill:none;stroke:#999;stroke-width:3"></path>
<path d="M246.35,40c12.56,8.33,12.87,32.83,1.57,28.5" style="fill:none;stroke:#999;stroke-width:3"></path>
<path d="M235.87,20.75c1.03,0.5,1.64,2.25,1.85,3.25c0.2,1,0,66.25-0.21,72.5" style="fill:none;stroke:#999;stroke-width:3"></path>

<path d="M346.56,22.17c5.97-1,11.36-2,14.18-3c2.83-1,5.65,1,4.4,3.33s-7.59,13.67-9.79,17" style="fill:none;stroke:#999;stroke-width:3"></path>
<path d="M355.35,40c12.56,8.33,12.87,32.83,1.57,28.5" style="fill:none;stroke:#999;stroke-width:3"></path>
<path d="M344.87,20.75c1.03,0.5,1.64,2.25,1.85,3.25c0.2,1,0,66.25-0.21,72.5" style="fill:none;stroke:#999;stroke-width:3"></path>
<path d="M392.98,14.49c0.86,0.4,2.09,2.33,2.07,3.47c-0.06,3.59-0.06,8.7-0.07,11.96" style="fill:none;stroke:#999;stroke-width:3"></path>

<path d="M455.56,22.17c5.97-1,11.36-2,14.18-3c2.83-1,5.65,1,4.4,3.33s-7.59,13.67-9.79,17" style="fill:none;stroke:#999;stroke-width:3"></path>
<path d="M464.35,40c12.56,8.33,12.87,32.83,1.57,28.5" style="fill:none;stroke:#999;stroke-width:3"></path>
<path d="M453.87,20.75c1.03,0.5,1.64,2.25,1.85,3.25c0.2,1,0,66.25-0.21,72.5" style="fill:none;stroke:#999;stroke-width:3"></path>
<path d="M501.98,14.49c0.86,0.4,2.09,2.33,2.07,3.47c-0.06,3.59-0.06,8.7-0.07,11.96" style="fill:none;stroke:#999;stroke-width:3"></path>
<path d="M483.63,31.24c0,3.62-1.85,11.09-2.92,13.51" style="fill:none;stroke:#999;stroke-width:3"></path>

<path d="M564.56,22.17c5.97-1,11.36-2,14.18-3c2.83-1,5.65,1,4.4,3.33s-7.59,13.67-9.79,17" style="fill:none;stroke:#999;stroke-width:3"></path>
<path d="M573.35,40c12.56,8.33,12.87,32.83,1.57,28.5" style="fill:none;stroke:#999;stroke-width:3"></path>
<path d="M562.87,20.75c1.03,0.5,1.64,2.25,1.85,3.25c0.2,1,0,66.25-0.21,72.5" style="fill:none;stroke:#999;stroke-width:3"></path>
<path d="M610.98,14.49c0.86,0.4,2.09,2.33,2.07,3.47c-0.06,3.59-0.06,8.7-0.07,11.96" style="fill:none;stroke:#999;stroke-width:3"></path>
<path d="M592.63,31.24c0,3.62-1.85,11.09-2.92,13.51" style="fill:none;stroke:#999;stroke-width:3"></path>
<path d="M592.67,33.61c12.58-2.11,36.96-5.06,42.29-4.84c7.04,0.29-0.51,6.19-2.26,7.87" style="fill:none;stroke:#999;stroke-width:3"></path>

<path d="M673.56,22.17c5.97-1,11.36-2,14.18-3c2.83-1,5.65,1,4.4,3.33s-7.59,13.67-9.79,17" style="fill:none;stroke:#999;stroke-width:3"></path>
<path d="M682.35,40c12.56,8.33,12.87,32.83,1.57,28.5" style="fill:none;stroke:#999;stroke-width:3"></path>
<path d="M671.87,20.75c1.03,0.5,1.64,2.25,1.85,3.25c0.2,1,0,66.25-0.21,72.5" style="fill:none;stroke:#999;stroke-width:3"></path>
<path d="M719.98,14.49c0.86,0.4,2.09,2.33,2.07,3.47c-0.06,3.59-0.06,8.7-0.07,11.96" style="fill:none;stroke:#999;stroke-width:3"></path>
<path d="M701.63,31.24c0,3.62-1.85,11.09-2.92,13.51" style="fill:none;stroke:#999;stroke-width:3"></path>
<path d="M701.67,33.61c12.58-2.11,36.96-5.06,42.29-4.84c7.04,0.29-0.51,6.19-2.26,7.87" style="fill:none;stroke:#999;stroke-width:3"></path>
<path d="M739.52,45.51c0.19,0.35,0.3,1.37-0.18,1.91c-3.11,3.49-13.76,13.12-23.8,16.7" style="fill:none;stroke:#999;stroke-width:3"></path>

<path d="M782.56,22.17c5.97-1,11.36-2,14.18-3c2.83-1,5.65,1,4.4,3.33s-7.59,13.67-9.79,17" style="fill:none;stroke:#999;stroke-width:3"></path>
<path d="M791.35,40c12.56,8.33,12.87,32.83,1.57,28.5" style="fill:none;stroke:#999;stroke-width:3"></path>
<path d="M780.87,20.75c1.03,0.5,1.64,2.25,1.85,3.25c0.2,1,0,66.25-0.21,72.5" style="fill:none;stroke:#999;stroke-width:3"></path>
<path d="M828.98,14.49c0.86,0.4,2.09,2.33,2.07,3.47c-0.06,3.59-0.06,8.7-0.07,11.96" style="fill:none;stroke:#999;stroke-width:3"></path>
<path d="M810.63,31.24c0,3.62-1.85,11.09-2.92,13.51" style="fill:none;stroke:#999;stroke-width:3"></path>
<path d="M810.67,33.61c12.58-2.11,36.96-5.06,42.29-4.84c7.04,0.29-0.51,6.19-2.26,7.87" style="fill:none;stroke:#999;stroke-width:3"></path>
<path d="M848.52,45.51c0.19,0.35,0.3,1.37-0.18,1.91c-3.11,3.49-13.76,13.12-23.8,16.7" style="fill:none;stroke:#999;stroke-width:3"></path>
<path d="M820.5,40.88c0.77,1.02,0.82,1.7,1.08,3.05s-0.1,35.63-0.1,39.88c0,10.92,9.55,9.21,18.3,9.21c6.78,0,11.72-0.58,14.28-3.63c2.56-3.05,2.24-6.6,2.5-9.65" style="fill:none;stroke:#999;stroke-width:3"></path>

</svg>