<svg width="1090px" height="109px" viewBox="0 0 1090 109" xmlns="http://www.w3.org/2000/svg" xmlns:xlink="http://www.w3.org/1999/xlink" xml:space="preserve" version="1.1" baseProfile="full">
<line x1="1" y1="1" x2="1089" y2="1" style="stroke:#ddd;stroke-width:2"></line>
<line x1="1" y1="1" x2="1" y2="108" style="stroke:#ddd;stroke-width:2"></line>
<line x1="1" y1="108" x2="1089" y2="108" style="stroke:#ddd;stroke-width:2"></line>
<line x1="1089" y1="1" x2="1089" y2="108" style="stroke:#ddd;stroke-width:2"></line>
<line x1="109" y1="1" x2="109" y2="108" style="stroke:#ddd;stroke-width:2"></line>
<line x1="218" y1="1" x2="218" y2="108" style="stroke:#ddd;stroke-width:2"></line>
<line x1="327" y1="1" x2="327" y2="108" style="stroke:#ddd;stroke-width:2"></line>
<line x1="436" y1="1" x2="436" y2="108" style="stroke:#ddd;stroke-width:2"></line>
<line x1="545" y1="1" x2="545" y2="108" style="stroke:#ddd;stroke-width:2"></line>
<line x1="654" y1="1" x2="654" y2="108" style="stroke:#ddd;stroke-width:2"></line>
<line x1="763" y1="1" x2="763" y2="108" style="stroke:#ddd;stroke-width:2"></line>
<line x1="872" y1="1" x2="872" y2="108" style="stroke:#ddd;stroke-width:2"></line>
<line x1="981" y1="1" x2="981" y2="108" style="stroke:#ddd;stroke-width:2"></line>
<line x1="1" y1="54" x2="1089" y2="54" style="stroke:#ddd;stroke-width:2;stroke-dasharray:3 3"></line>
<line x1="55" y1="1" x2="55" y2="108" style="stroke:#ddd;stroke-width:2;stroke-dasharray:3 3"></line>
<line x1="164" y1="1" x2="164" y2="108" style="stroke:#ddd;stroke-width:2;stroke-dasharray:3 3"></line>
<line x1="273" y1="1" x2="273" y2="108" style="stroke:#ddd;stroke-width:2;stroke-dasharray:3 3"></line>
<line x1="382" y1="1" x2="382" y2="108" style="stroke:#ddd;stroke-width:2;stroke-dasharray:3 3"></line>
<line x1="491" y1="1" x2="491" y2="108" style="stroke:#ddd;stroke-width:2;stroke-dasharray:3 3"></line>
<line x1="600" y1="1" x2="600" y2="108" style="stroke:#ddd;stroke-width:2;stroke-dasharray:3 3"></line>
<line x1="709" y1="1" x2="709" y2="108" style="stroke:#ddd;stroke-width:2;stroke-dasharray:3 3"></line>
<line x1="818" y1="1" x2="818" y2="108" style="stroke:#ddd;stroke-width:2;stroke-dasharray:3 3"></line>
<line x1="927" y1="1" x2="927" y2="108" style="stroke:#ddd;stroke-width:2;stroke-dasharray:3 3"></line>
<line x1="1036" y1="1" x2="1036" y2="108" style="stroke:#ddd;stroke-width:2;stroke-dasharray:3 3"></line>
<path d="M15.75,17c0.77,0.34,1.59,0.73,2.47,0.7c5.53-0.2,12.83-2.52,15.42-3.49c3.06-1.15,4.62,1.65,3.26,4.33c-1.36,2.68-7.63,15.21-10.01,19.05" style="fill:none;stroke:#999;stroke-width:3"></path>

<path d="M124.75,17c0.77,0.34,1.59,0.73,2.47,0.7c5.53-0.2,12.83-2.52,15.42-3.49c3.06-1.15,4.62,1.65,3.26,4.33c-1.36,2.68-7.63,15.21-10.01,19.05" style="fill:none;stroke:#999;stroke-width:3"></path>
<path d="M135.88,37.59C150.25,50.5,146.0,79.25,136.07999999999998,69.43" style="fill:none;stroke:#999;stroke-width:3"></path>

<path d="M233.75,17c0.77,0.34,1.59,0.73,2.47,0.7c5.53-0.2,12.83-2.52,15.42-3.49c3.06-1.15,4.62,1.65,3.26,4.33c-1.36,2.68-7.63,15.21-10.01,19.05" style="fill:none;stroke:#999;stroke-width:3"></path>
<path d="M244.88,37.59C259.25,50.5,255.0,79.25,245.07999999999998,69.43" style="fill:none;stroke:#999;stroke-width:3"></path>
<path d="M235.04,18.03c0.71,1.22,0.28,2.59,0.5,3.74c0.22,1.15,0,69.8-0.22,76.99" style="fill:none;stroke:#999;stroke-width:3"></path>

<path d="M342.75,17c0.77,0.34,1.59,0.73,2.47,0.7c5.53-0.2,12.83-2.52,15.42-3.49c3.06-1.15,4.62,1.65,3.26,4.33c-1.36,2.68-7.63,15.21-10.01,19.05" style="fill:none;stroke:#999;stroke-width:3"></path>
<path d="M353.88,37.59C368.25,50.5,364.0,79.25,354.08,69.43" style="fill:none;stroke:#999;stroke-width:3"></path>
<path d="M344.03999999999996,18.03c0.71,1.22,0.28,2.59,0.5,3.74c0.22,1.15,0,69.8-0.22,76.99" style="fill:none;stroke:#999;stroke-width:3"></path>
<path d="M391.87,10.99c1.51,0.44,2.43,2.01,2.74,2.91c0.31,0.9,0.53,21.81,0.29,27.45" style="fill:none;stroke:#999;stroke-width:3"></path>

<path d="M451.75,17c0.77,0.34,1.59,0.73,2.47,0.7c5.53-0.2,12.83-2.52,15.42-3.49c3.06-1.15,4.62,1.65,3.26,4.33c-1.36,2.68-7.63,15.21-10.01,19.05" style="fill:none;stroke:#999;stroke-width:3"></path>
<path d="M462.88,37.59C477.25,50.5,473.0,79.25,463.08,69.43" style="fill:none;stroke:#999;stroke-width:3"></path>
<path d="M453.03999999999996,18.03c0.71,1.22,0.28,2.59,0.5,3.74c0.22,1.15,0,69.8-0.22,76.99" style="fill:none;stroke:#999;stroke-width:3"></path>
<path d="M500.87,10.99c1.51,0.44,2.43,2.01,2.74,2.91c0.31,0.9,0.53,21.81,0.29,27.45" style="fill:none;stroke:#999;stroke-width:3"></path>
<path d="M504.14,26.48C509.5,26,517.0,24.75,521.86,23.51c2.34-0.6,3.01-0.25,4.52-0.04" style="fill:none;stroke:#999;stroke-width:3"></path>

<path d="M560.75,17c0.77,0.34,1.59,0.73,2.47,0.7c5.53-0.2,12.83-2.52,15.42-3.49c3.06-1.15,4.62,1.65,3.26,4.33c-1.36,2.68-7.63,15.21-10.01,19.05" style="fill:none;stroke:#999;stroke-width:3"></path>
<path d="M571.88,37.59C586.25,50.5,582.0,79.25,572.0799999999999,69.43" style="fill:none;stroke:#999;stroke-width:3"></path>
<path d="M562.04,18.03c0.71,1.22,0.28,2.59,0.5,3.74c0.22,1.15,0,69.8-0.22,76.99" style="fill:none;stroke:#999;stroke-width:3"></path>
<path d="M609.87,10.99c1.51,0.44,2.43,2.01,2.74,2.91c0.31,0.9,0.53,21.81,0.29,27.45" style="fill:none;stroke:#999;stroke-width:3"></path>
<path d="M613.14,26.48C618.5,26,626.0,24.75,630.86,23.51c2.34-0.6,3.01-0.25,4.52-0.04" style="fill:none;stroke:#999;stroke-width:3"></path>
<path d="M593.73,21.86c1.51,0.44,2.43,2.01,2.74,2.91c0.31,0.9,0.99,11.62,0.75,17.25" style="fill:none;stroke:#999;stroke-width:3"></path>

<path d="M669.75,17c0.77,0.34,1.59,0.73,2.47,0.7c5.53-0.2,12.83-2.52,15.42-3.49c3.06-1.15,4.62,1.65,3.26,4.33c-1.36,2.68-7.63,15.21-10.01,19.05" style="fill:none;stroke:#999;stroke-width:3"></path>
<path d="M680.88,37.59C695.25,50.5,691.0,79.25,681.0799999999999,69.43" style="fill:none;stroke:#999;stroke-width:3"></path>
<path d="M671.04,18.03c0.71,1.22,0.28,2.59,0.5,3.74c0.22,1.15,0,69.8-0.22,76.99" style="fill:none;stroke:#999;stroke-width:3"></path>
<path d="M718.87,10.99c1.51,0.44,2.43,2.01,2.74,2.91c0.31,0.9,0.53,21.81,0.29,27.45" style="fill:none;stroke:#999;stroke-width:3"></path>
<path d="M722.14,26.48C727.5,26,735.0,24.75,739.86,23.51c2.34-0.6,3.01-0.25,4.52-0.04" style="fill:none;stroke:#999;stroke-width:3"></path>
<path d="M702.73,21.86c1.51,0.44,2.43,2.01,2.74,2.91c0.31,0.9,0.99,11.62,0.75,17.25" style="fill:none;stroke:#999;stroke-width:3"></path>
<path d="M692.61,42.89c0.71,0.13,2.6,0.45,4.48,0.38c10.15-0.37,35.57-2.6,48.44-2.97c1.89-0.05,4.27,0.23,5.35,0.36" style="fill:none;stroke:#999;stroke-width:3"></path>

<path d="M778.75,17c0.77,0.34,1.59,0.73,2.47,0.7c5.53-0.2,12.83-2.52,15.42-3.49c3.06-1.15,4.62,1.65,3.26,4.33c-1.36,2.68-7.63,15.21-10.01,19.05" style="fill:none;stroke:#999;stroke-width:3"></path>
<path d="M789.88,37.59C804.25,50.5,800.0,79.25,790.0799999999999,69.43" style="fill:none;stroke:#999;stroke-width:3"></path>
<path d="M780.04,18.03c0.71,1.22,0.28,2.59,0.5,3.74c0.22,1.15,0,69.8-0.22,76.99" style="fill:none;stroke:#999;stroke-width:3"></path>
<path d="M827.87,10.99c1.51,0.44,2.43,2.01,2.74,2.91c0.31,0.9,0.53,21.81,0.29,27.45" style="fill:none;stroke:#999;stroke-width:3"></path>
<path d="M831.14,26.48C836.5,26,844.0,24.75,848.86,23.51c2.34-0.6,3.01-0.25,4.52-0.04" style="fill:none;stroke:#999;stroke-width:3"></path>
<path d="M811.73,21.86c1.51,0.44,2.43,2.01,2.74,2.91c0.31,0.9,0.99,11.62,0.75,17.25" style="fill:none;stroke:#999;stroke-width:3"></path>
<path d="M801.61,42.89c0.71,0.13,2.6,0.45,4.48,0.38c10.15-0.37,35.57-2.6,48.44-2.97c1.89-0.05,4.27,0.23,5.35,0.36" style="fill:none;stroke:#999;stroke-width:3"></path>
<path d="M828.6800000000001,45.07c0.12,0.25,1.75,1.28,1.75,2.84c0,6.84,0.14,17.82,0.14,20.38c0,7.29-2.7,4.32-7.55,0.83" style="fill:none;stroke:#999;stroke-width:3"></path>

<path d="M887.75,17c0.77,0.34,1.59,0.73,2.47,0.7c5.53-0.2,12.83-2.52,15.42-3.49c3.06-1.15,4.62,1.65,3.26,4.33c-1.36,2.68-7.63,15.21-10.01,19.05" style="fill:none;stroke:#999;stroke-width:3"></path>
<path d="M898.88,37.59C913.25,50.5,909.0,79.25,899.0799999999999,69.43" style="fill:none;stroke:#999;stroke-width:3"></path>
<path d="M889.04,18.03c0.71,1.22,0.28,2.59,0.5,3.74c0.22,1.15,0,69.8-0.22,76.99" style="fill:none;stroke:#999;stroke-width:3"></path>
<path d="M936.87,10.99c1.51,0.44,2.43,2.01,2.74,2.91c0.31,0.9,0.53,21.81,0.29,27.45" style="fill:none;stroke:#999;stroke-width:3"></path>
<path d="M940.14,26.48C945.5,26,953.0,24.75,957.86,23.51c2.34-0.6,3.01-0.25,4.52-0.04" style="fill:none;stroke:#999;stroke-width:3"></path>
<path d="M920.73,21.86c1.51,0.44,2.43,2.01,2.74,2.91c0.31,0.9,0.99,11.62,0.75,17.25" style="fill:none;stroke:#999;stroke-width:3"></path>
<path d="M910.61,42.89c0.71,0.13,2.6,0.45,4.48,0.38c10.15-0.37,35.57-2.6,48.44-2.97c1.89-0.05,4.27,0.23,5.35,0.36" style="fill:none;stroke:#999;stroke-width:3"></path>
<path d="M937.6800000000001,45.07c0.12,0.25,1.75,1.28,1.75,2.84c0,6.84,0.14,17.82,0.14,20.38c0,7.29-2.7,4.32-7.55,0.83" style="fill:none;stroke:#999;stroke-width:3"></path>
<path d="M924.89,53.89c0.04,0.46,0.13,1.21-0.07,1.85c-1.46,4.61-7.63,13.5-12.65,17.74" style="fill:none;stroke:#999;stroke-width:3"></path>

<path d="M996.75,17c0.77,0.34,1.59,0.73,2.47,0.7c5.53-0.2,12.83-2.52,15.42-3.49c3.06-1.15,4.62,1.65,3.26,4.33c-1.36,2.68-7.63,15.21-10.01,19.05" style="fill:none;stroke:#999;stroke-width:3"></path>
<path d="M1007.88,37.59C1022.25,50.5,1018.0,79.25,1008.0799999999999,69.43" style="fill:none;stroke:#999;stroke-width:3"></path>
<path d="M998.04,18.03c0.71,1.22,0.28,2.59,0.5,3.74c0.22,1.15,0,69.8-0.22,76.99" style="fill:none;stroke:#999;stroke-width:3"></path>
<path d="M1045.87,10.99c1.51,0.44,2.43,2.01,2.74,2.91c0.31,0.9,0.53,21.81,0.29,27.45" style="fill:none;stroke:#999;stroke-width:3"></path>
<path d="M1049.1399999999999,26.48C1054.5,26,1062.0,24.75,1066.8600000000001,23.51c2.34-0.6,3.01-0.25,4.52-0.04" style="fill:none;stroke:#999;stroke-width:3"></path>
<path d="M1029.73,21.86c1.51,0.44,2.43,2.01,2.74,2.91c0.31,0.9,0.99,11.62,0.75,17.25" style="fill:none;stroke:#999;stroke-width:3"></path>
<path d="M1019.61,42.89c0.71,0.13,2.6,0.45,4.48,0.38c10.15-0.37,35.57-2.6,48.44-2.97c1.89-0.05,4.27,0.23,5.35,0.36" style="fill:none;stroke:#999;stroke-width:3"></path>
<path d="M1046.68,45.07c0.12,0.25,1.75,1.28,1.75,2.84c0,6.84,0.14,17.82,0.14,20.38c0,7.29-2.7,4.32-7.55,0.83" style="fill:none;stroke:#999;stroke-width:3"></path>
<path d="M1033.8899999999999,53.89c0.04,0.46,0.13,1.21-0.07,1.85c-1.46,4.61-7.63,13.5-12.65,17.74" style="fill:none;stroke:#999;stroke-width:3"></path>
<path d="M1068.42,53.52c0.13,1.06,0.53,2.83-0.26,4.25C1061.63,69.49,1044.75,89,1021.25,99.01" style="fill:none;stroke:#999;stroke-width:3"></path>

</svg>