<svg width="1199px" height="109px" viewBox="0 0 1199 109" xmlns="http://www.w3.org/2000/svg" xmlns:xlink="http://www.w3.org/1999/xlink" xml:space="preserve" version="1.1" baseProfile="full">
<line x1="1" y1="1" x2="1198" y2="1" style="stroke:#ddd;stroke-width:2"></line>
<line x1="1" y1="1" x2="1" y2="108" style="stroke:#ddd;stroke-width:2"></line>
<line x1="1" y1="108" x2="1198" y2="108" style="stroke:#ddd;stroke-width:2"></line>
<line x1="1198" y1="1" x2="1198" y2="108" style="stroke:#ddd;stroke-width:2"></line>
<line x1="109" y1="1" x2="109" y2="108" style="stroke:#ddd;stroke-width:2"></line>
<line x1="218" y1="1" x2="218" y2="108" style="stroke:#ddd;stroke-width:2"></line>
<line x1="327" y1="1" x2="327" y2="108" style="stroke:#ddd;stroke-width:2"></line>
<line x1="436" y1="1" x2="436" y2="108" style="stroke:#ddd;stroke-width:2"></line>
<line x1="545" y1="1" x2="545" y2="108" style="stroke:#ddd;stroke-width:2"></line>
<line x1="654" y1="1" x2="654" y2="108" style="stroke:#ddd;stroke-width:2"></line>
<line x1="763" y1="1" x2="763" y2="108" style="stroke:#ddd;stroke-width:2"></line>
<line x1="872" y1="1" x2="872" y2="108" style="stroke:#ddd;stroke-width:2"></line>
<line x1="981" y1="1" x2="981" y2="108" style="stroke:#ddd;stroke-width:2"></line>
<line x1="1090" y1="1" x2="1090" y2="108" style="stroke:#ddd;stroke-width:2"></line>
<line x1="1" y1="54" x2="1198" y2="54" style="stroke:#ddd;stroke-width:2;stroke-dasharray:3 3"></line>
<line x1="55" y1="1" x2="55" y2="108" style="stroke:#ddd;stroke-width:2;stroke-dasharray:3 3"></line>
<line x1="164" y1="1" x2="164" y2="108" style="stroke:#ddd;stroke-width:2;stroke-dasharray:3 3"></line>
<line x1="273" y1="1" x2="273" y2="108" style="stroke:#ddd;stroke-width:2;stroke-dasharray:3 3"></line>
<line x1="382" y1="1" x2="382" y2="108" style="stroke:#ddd;stroke-width:2;stroke-dasharray:3 3"></line>
<line x1="491" y1="1" x2="491" y2="108" style="stroke:#ddd;stroke-width:2;stroke-dasharray:3 3"></line>
<line x1="600" y1="1" x2="600" y2="108" style="stroke:#ddd;stroke-width:2;stroke-dasharray:3 3"></line>
<line x1="709" y1="1" x2="709" y2="108" style="stroke:#ddd;stroke-width:2;stroke-dasharray:3 3"></line>
<line x1="818" y1="1" x2="818" y2="108" style="stroke:#ddd;stroke-width:2;stroke-dasharray:3 3"></line>
<line x1="927" y1="1" x2="927" y2="108" style="stroke:#ddd;stroke-width:2;stroke-dasharray:3 3"></line>
<line x1="1036" y1="1" x2="1036" y2="108" style="stroke:#ddd;stroke-width:2;stroke-dasharray:3 3"></line>
<line x1="1145" y1="1" x2="1145" y2="108" style="stroke:#ddd;stroke-width:2;stroke-dasharray:3 3"></line>
<path d="M16.92,19.67c1.35,0.65,3.16,0.72,4.64,0.43c4.94-0.97,8.31-1.97,12.61-2.93c3.09-0.69,4.41,1.08,3.42,3.58c-1.33,3.38-5.33,11.38-8.33,16.5" style="fill:none;stroke:#999;stroke-width:3"></path>

<path d="M125.92,19.67c1.35,0.65,3.16,0.72,4.64,0.43c4.94-0.97,8.31-1.97,12.61-2.93c3.09-0.69,4.41,1.08,3.42,3.58c-1.33,3.38-5.33,11.38-8.33,16.5" style="fill:none;stroke:#999;stroke-width:3"></path>
<path d="M138.48,37.5c12.09,7.56,7.89,32.88-1.24,25.3" style="fill:none;stroke:#999;stroke-width:3"></path>

<path d="M234.92000000000002,19.67c1.35,0.65,3.16,0.72,4.64,0.43c4.94-0.97,8.31-1.97,12.61-2.93c3.09-0.69,4.41,1.08,3.42,3.58c-1.33,3.38-5.33,11.38-8.33,16.5" style="fill:none;stroke:#999;stroke-width:3"></path>
<path d="M247.48,37.5c12.09,7.56,7.89,32.88-1.24,25.3" style="fill:none;stroke:#999;stroke-width:3"></path>
<path d="M236.37,21c1.06,1.06,1.21,2.25,1.21,3.75c0,6.87,0.03,49.25,0.03,61c0,4.42,0,7.88,0,9.75" style="fill:none;stroke:#999;stroke-width:3"></path>

<path d="M343.92,19.67c1.35,0.65,3.16,0.72,4.64,0.43c4.94-0.97,8.31-1.97,12.61-2.93c3.09-0.69,4.41,1.08,3.42,3.58c-1.33,3.38-5.33,11.38-8.33,16.5" style="fill:none;stroke:#999;stroke-width:3"></path>
<path d="M356.48,37.5c12.09,7.56,7.89,32.88-1.24,25.3" style="fill:none;stroke:#999;stroke-width:3"></path>
<path d="M345.37,21c1.06,1.06,1.21,2.25,1.21,3.75c0,6.87,0.03,49.25,0.03,61c0,4.42,0,7.88,0,9.75" style="fill:none;stroke:#999;stroke-width:3"></path>
<path d="M378.19,23.59c2.18,0.53,3.59,0.35,5.2,0.16c6.71-0.8,14.91-2.08,21.61-2.51c1.6-0.1,3.24-0.27,4.82,0.1" style="fill:none;stroke:#999;stroke-width:3"></path>

<path d="M452.92,19.67c1.35,0.65,3.16,0.72,4.64,0.43c4.94-0.97,8.31-1.97,12.61-2.93c3.09-0.69,4.41,1.08,3.42,3.58c-1.33,3.38-5.33,11.38-8.33,16.5" style="fill:none;stroke:#999;stroke-width:3"></path>
<path d="M465.48,37.5c12.09,7.56,7.89,32.88-1.24,25.3" style="fill:none;stroke:#999;stroke-width:3"></path>
<path d="M454.37,21c1.06,1.06,1.21,2.25,1.21,3.75c0,6.87,0.03,49.25,0.03,61c0,4.42,0,7.88,0,9.75" style="fill:none;stroke:#999;stroke-width:3"></path>
<path d="M487.19,23.59c2.18,0.53,3.59,0.35,5.2,0.16c6.71-0.8,14.91-2.08,21.61-2.51c1.6-0.1,3.24-0.27,4.82,0.1" style="fill:none;stroke:#999;stroke-width:3"></path>
<path d="M501.93,11.62c0.79,0.79,1.19,1.74,1.19,3.26c0,4.77-0.04,12.87-0.04,20.56" style="fill:none;stroke:#999;stroke-width:3"></path>

<path d="M561.9200000000001,19.67c1.35,0.65,3.16,0.72,4.64,0.43c4.94-0.97,8.31-1.97,12.61-2.93c3.09-0.69,4.41,1.08,3.42,3.58c-1.33,3.38-5.33,11.38-8.33,16.5" style="fill:none;stroke:#999;stroke-width:3"></path>
<path d="M574.48,37.5c12.09,7.56,7.89,32.88-1.24,25.3" style="fill:none;stroke:#999;stroke-width:3"></path>
<path d="M563.37,21c1.06,1.06,1.21,2.25,1.21,3.75c0,6.87,0.03,49.25,0.03,61c0,4.42,0,7.88,0,9.75" style="fill:none;stroke:#999;stroke-width:3"></path>
<path d="M596.19,23.59c2.18,0.53,3.59,0.35,5.2,0.16c6.71-0.8,14.91-2.08,21.61-2.51c1.6-0.1,3.24-0.27,4.82,0.1" style="fill:none;stroke:#999;stroke-width:3"></path>
<path d="M610.9300000000001,11.62c0.79,0.79,1.19,1.74,1.19,3.26c0,4.77-0.04,12.87-0.04,20.56" style="fill:none;stroke:#999;stroke-width:3"></path>
<path d="M588.26,37.71c3.04,0.57,5.95,0.22,8.99-0.13c10.54-1.2,24.87-3.11,34.5-3.89c2.67-0.21,5.4-0.6,8,0.17" style="fill:none;stroke:#999;stroke-width:3"></path>

<path d="M670.9200000000001,19.67c1.35,0.65,3.16,0.72,4.64,0.43c4.94-0.97,8.31-1.97,12.61-2.93c3.09-0.69,4.41,1.08,3.42,3.58c-1.33,3.38-5.33,11.38-8.33,16.5" style="fill:none;stroke:#999;stroke-width:3"></path>
<path d="M683.48,37.5c12.09,7.56,7.89,32.88-1.24,25.3" style="fill:none;stroke:#999;stroke-width:3"></path>
<path d="M672.37,21c1.06,1.06,1.21,2.25,1.21,3.75c0,6.87,0.03,49.25,0.03,61c0,4.42,0,7.88,0,9.75" style="fill:none;stroke:#999;stroke-width:3"></path>
<path d="M705.19,23.59c2.18,0.53,3.59,0.35,5.2,0.16c6.71-0.8,14.91-2.08,21.61-2.51c1.6-0.1,3.24-0.27,4.82,0.1" style="fill:none;stroke:#999;stroke-width:3"></path>
<path d="M719.9300000000001,11.62c0.79,0.79,1.19,1.74,1.19,3.26c0,4.77-0.04,12.87-0.04,20.56" style="fill:none;stroke:#999;stroke-width:3"></path>
<path d="M697.26,37.71c3.04,0.57,5.95,0.22,8.99-0.13c10.54-1.2,24.87-3.11,34.5-3.89c2.67-0.21,5.4-0.6,8,0.17" style="fill:none;stroke:#999;stroke-width:3"></path>
<path d="M712.14,41.25c0.11,1.03,0.04,2.05-0.41,2.96c-2.1,4.17-6.01,9.87-13.94,15.71" style="fill:none;stroke:#999;stroke-width:3"></path>

<path d="M779.9200000000001,19.67c1.35,0.65,3.16,0.72,4.64,0.43c4.94-0.97,8.31-1.97,12.61-2.93c3.09-0.69,4.41,1.08,3.42,3.58c-1.33,3.38-5.33,11.38-8.33,16.5" style="fill:none;stroke:#999;stroke-width:3"></path>
<path d="M792.48,37.5c12.09,7.56,7.89,32.88-1.24,25.3" style="fill:none;stroke:#999;stroke-width:3"></path>
<path d="M781.37,21c1.06,1.06,1.21,2.25,1.21,3.75c0,6.87,0.03,49.25,0.03,61c0,4.42,0,7.88,0,9.75" style="fill:none;stroke:#999;stroke-width:3"></path>
<path d="M814.19,23.59c2.18,0.53,3.59,0.35,5.2,0.16c6.71-0.8,14.91-2.08,21.61-2.51c1.6-0.1,3.24-0.27,4.82,0.1" style="fill:none;stroke:#999;stroke-width:3"></path>
<path d="M828.9300000000001,11.62c0.79,0.79,1.19,1.74,1.19,3.26c0,4.77-0.04,12.87-0.04,20.56" style="fill:none;stroke:#999;stroke-width:3"></path>
<path d="M806.26,37.71c3.04,0.57,5.95,0.22,8.99-0.13c10.54-1.2,24.87-3.11,34.5-3.89c2.67-0.21,5.4-0.6,8,0.17" style="fill:none;stroke:#999;stroke-width:3"></path>
<path d="M821.14,41.25c0.11,1.03,0.04,2.05-0.41,2.96c-2.1,4.17-6.01,9.87-13.94,15.71" style="fill:none;stroke:#999;stroke-width:3"></path>
<path d="M838.35,37.12c0.7,0.7,0.95,1.63,0.95,2.81c0,3.36-0.02,6.11-0.02,8.4c0,3.54,1.47,4.73,9,4.73c4.71,0,7.81-0.69,8.47-1.08" style="fill:none;stroke:#999;stroke-width:3"></path>

<path d="M888.9200000000001,19.67c1.35,0.65,3.16,0.72,4.64,0.43c4.94-0.97,8.31-1.97,12.61-2.93c3.09-0.69,4.41,1.08,3.42,3.58c-1.33,3.38-5.33,11.38-8.33,16.5" style="fill:none;stroke:#999;stroke-width:3"></path>
<path d="M901.48,37.5c12.09,7.56,7.89,32.88-1.24,25.3" style="fill:none;stroke:#999;stroke-width:3"></path>
<path d="M890.37,21c1.06,1.06,1.21,2.25,1.21,3.75c0,6.87,0.03,49.25,0.03,61c0,4.42,0,7.88,0,9.75" style="fill:none;stroke:#999;stroke-width:3"></path>
<path d="M923.19,23.59c2.18,0.53,3.59,0.35,5.2,0.16c6.71-0.8,14.91-2.08,21.61-2.51c1.6-0.1,3.24-0.27,4.82,0.1" style="fill:none;stroke:#999;stroke-width:3"></path>
<path d="M937.9300000000001,11.62c0.79,0.79,1.19,1.74,1.19,3.26c0,4.77-0.04,12.87-0.04,20.56" style="fill:none;stroke:#999;stroke-width:3"></path>
<path d="M915.26,37.71c3.04,0.57,5.95,0.22,8.99-0.13c10.54-1.2,24.87-3.11,34.5-3.89c2.67-0.21,5.4-0.6,8,0.17" style="fill:none;stroke:#999;stroke-width:3"></path>
<path d="M930.14,41.25c0.11,1.03,0.04,2.05-0.41,2.96c-2.1,4.17-6.01,9.87-13.94,15.71" style="fill:none;stroke:#999;stroke-width:3"></path>
<path d="M947.35,37.12c0.7,0.7,0.95,1.63,0.95,2.81c0,3.36-0.02,6.11-0.02,8.4c0,3.54,1.47,4.73,9,4.73c4.71,0,7.81-0.69,8.47-1.08" style="fill:none;stroke:#999;stroke-width:3"></path>
<path d="M934.0,53.5c0.1,0.97-0.25,1.97-0.69,2.78C930.75,61.01,925.3,69.1,915.7,76.65" style="fill:none;stroke:#999;stroke-width:3"></path>

<path d="M997.9200000000001,19.67c1.35,0.65,3.16,0.72,4.64,0.43c4.94-0.97,8.31-1.97,12.61-2.93c3.09-0.69,4.41,1.08,3.42,3.58c-1.33,3.38-5.33,11.38-8.33,16.5" style="fill:none;stroke:#999;stroke-width:3"></path>
<path d="M1010.48,37.5c12.09,7.56,7.89,32.88-1.24,25.3" style="fill:none;stroke:#999;stroke-width:3"></path>
<path d="M999.37,21c1.06,1.06,1.21,2.25,1.21,3.75c0,6.87,0.03,49.25,0.03,61c0,4.42,0,7.88,0,9.75" style="fill:none;stroke:#999;stroke-width:3"></path>
<path d="M1032.19,23.59c2.18,0.53,3.59,0.35,5.2,0.16c6.71-0.8,14.91-2.08,21.61-2.51c1.6-0.1,3.24-0.27,4.82,0.1" style="fill:none;stroke:#999;stroke-width:3"></path>
<path d="M1046.93,11.62c0.79,0.79,1.19,1.74,1.19,3.26c0,4.77-0.04,12.87-0.04,20.56" style="fill:none;stroke:#999;stroke-width:3"></path>
<path d="M1024.26,37.71c3.04,0.57,5.95,0.22,8.99-0.13c10.54-1.2,24.87-3.11,34.5-3.89c2.67-0.21,5.4-0.6,8,0.17" style="fill:none;stroke:#999;stroke-width:3"></path>
<path d="M1039.1399999999999,41.25c0.11,1.03,0.04,2.05-0.41,2.96c-2.1,4.17-6.01,9.87-13.94,15.71" style="fill:none;stroke:#999;stroke-width:3"></path>
<path d="M1056.35,37.12c0.7,0.7,0.95,1.63,0.95,2.81c0,3.36-0.02,6.11-0.02,8.4c0,3.54,1.47,4.73,9,4.73c4.71,0,7.81-0.69,8.47-1.08" style="fill:none;stroke:#999;stroke-width:3"></path>
<path d="M1043.0,53.5c0.1,0.97-0.25,1.97-0.69,2.78C1039.75,61.01,1034.3,69.1,1024.7,76.65" style="fill:none;stroke:#999;stroke-width:3"></path>
<path d="M1042.5,62.88c1.63,0.18,3.07,0.28,4.65-0.16c3.48-0.97,5.6-1.47,8.49-2.44c3.12-1.06,4.49,0.15,2.91,3.3c-4.4,8.83-19.7,26.24-35.47,31.68" style="fill:none;stroke:#999;stroke-width:3"></path>

<path d="M1106.92,19.67c1.35,0.65,3.16,0.72,4.64,0.43c4.94-0.97,8.31-1.97,12.61-2.93c3.09-0.69,4.41,1.08,3.42,3.58c-1.33,3.38-5.33,11.38-8.33,16.5" style="fill:none;stroke:#999;stroke-width:3"></path>
<path d="M1119.48,37.5c12.09,7.56,7.89,32.88-1.24,25.3" style="fill:none;stroke:#999;stroke-width:3"></path>
<path d="M1108.37,21c1.06,1.06,1.21,2.25,1.21,3.75c0,6.87,0.03,49.25,0.03,61c0,4.42,0,7.88,0,9.75" style="fill:none;stroke:#999;stroke-width:3"></path>
<path d="M1141.19,23.59c2.18,0.53,3.59,0.35,5.2,0.16c6.71-0.8,14.91-2.08,21.61-2.51c1.6-0.1,3.24-0.27,4.82,0.1" style="fill:none;stroke:#999;stroke-width:3"></path>
<path d="M1155.93,11.62c0.79,0.79,1.19,1.74,1.19,3.26c0,4.77-0.04,12.87-0.04,20.56" style="fill:none;stroke:#999;stroke-width:3"></path>
<path d="M1133.26,37.71c3.04,0.57,5.95,0.22,8.99-0.13c10.54-1.2,24.87-3.11,34.5-3.89c2.67-0.21,5.4-0.6,8,0.17" style="fill:none;stroke:#999;stroke-width:3"></path>
<path d="M1148.1399999999999,41.25c0.11,1.03,0.04,2.05-0.41,2.96c-2.1,4.17-6.01,9.87-13.94,15.71" style="fill:none;stroke:#999;stroke-width:3"></path>
<path d="M1165.35,37.12c0.7,0.7,0.95,1.63,0.95,2.81c0,3.36-0.02,6.11-0.02,8.4c0,3.54,1.47,4.73,9,4.73c4.71,0,7.81-0.69,8.47-1.08" style="fill:none;stroke:#999;stroke-width:3"></path>
<path d="M1152.0,53.5c0.1,0.97-0.25,1.97-0.69,2.78C1148.75,61.01,1143.3,69.1,1133.7,76.65" style="fill:none;stroke:#999;stroke-width:3"></path>
<path d="M1151.5,62.88c1.63,0.18,3.07,0.28,4.65-0.16c3.48-0.97,5.6-1.47,8.49-2.44c3.12-1.06,4.49,0.15,2.91,3.3c-4.4,8.83-19.7,26.24-35.47,31.68" style="fill:none;stroke:#999;stroke-width:3"></path>
<path d="M1145.26,66.89c3.73,3.76,19.65,16.99,27.82,23.29c2.48,1.92,4.93,3.44,8.1,5.03" style="fill:none;stroke:#999;stroke-width:3"></path>

</svg>