<svg width="1090px" height="109px" viewBox="0 0 1090 109" xmlns="http://www.w3.org/2000/svg" xmlns:xlink="http://www.w3.org/1999/xlink" xml:space="preserve" version="1.1" baseProfile="full">
<line x1="1" y1="1" x2="1089" y2="1" style="stroke:#ddd;stroke-width:2"></line>
<line x1="1" y1="1" x2="1" y2="108" style="stroke:#ddd;stroke-width:2"></line>
<line x1="1" y1="108" x2="1089" y2="108" style="stroke:#ddd;stroke-width:2"></line>
<line x1="1089" y1="1" x2="1089" y2="108" style="stroke:#ddd;stroke-width:2"></line>
<line x1="109" y1="1" x2="109" y2="108" style="stroke:#ddd;stroke-width:2"></line>
<line x1="218" y1="1" x2="218" y2="108" style="stroke:#ddd;stroke-width:2"></line>
<line x1="327" y1="1" x2="327" y2="108" style="stroke:#ddd;stroke-width:2"></line>
<line x1="436" y1="1" x2="436" y2="108" style="stroke:#ddd;stroke-width:2"></line>
<line x1="545" y1="1" x2="545" y2="108" style="stroke:#ddd;stroke-width:2"></line>
<line x1="654" y1="1" x2="654" y2="108" style="stroke:#ddd;stroke-width:2"></line>
<line x1="763" y1="1" x2="763" y2="108" style="stroke:#ddd;stroke-width:2"></line>
<line x1="872" y1="1" x2="872" y2="108" style="stroke:#ddd;stroke-width:2"></line>
<line x1="981" y1="1" x2="981" y2="108" style="stroke:#ddd;stroke-width:2"></line>
<line x1="1" y1="54" x2="1089" y2="54" style="stroke:#ddd;stroke-width:2;stroke-dasharray:3 3"></line>
<line x1="55" y1="1" x2="55" y2="108" style="stroke:#ddd;stroke-width:2;stroke-dasharray:3 3"></line>
<line x1="164" y1="1" x2="164" y2="108" style="stroke:#ddd;stroke-width:2;stroke-dasharray:3 3"></line>
<line x1="273" y1="1" x2="273" y2="108" style="stroke:#ddd;stroke-width:2;stroke-dasharray:3 3"></line>
<line x1="382" y1="1" x2="382" y2="108" style="stroke:#ddd;stroke-width:2;stroke-dasharray:3 3"></line>
<line x1="491" y1="1" x2="491" y2="108" style="stroke:#ddd;stroke-width:2;stroke-dasharray:3 3"></line>
<line x1="600" y1="1" x2="600" y2="108" style="stroke:#ddd;stroke-width:2;stroke-dasharray:3 3"></line>
<line x1="709" y1="1" x2="709" y2="108" style="stroke:#ddd;stroke-width:2;stroke-dasharray:3 3"></line>
<line x1="818" y1="1" x2="818" y2="108" style="stroke:#ddd;stroke-width:2;stroke-dasharray:3 3"></line>
<line x1="927" y1="1" x2="927" y2="108" style="stroke:#ddd;stroke-width:2;stroke-dasharray:3 3"></line>
<line x1="1036" y1="1" x2="1036" y2="108" style="stroke:#ddd;stroke-width:2;stroke-dasharray:3 3"></line>
<path d="M70.2,12.39c0.11,0.77,0.23,2-0.21,3.11c-2.62,6.55-17.63,20.92-38.18,29.72" style="fill:none;stroke:#999;stroke-width:3"></path>

<path d="M179.2,12.39c0.11,0.77,0.23,2-0.21,3.11c-2.62,6.55-17.63,20.92-38.18,29.72" style="fill:none;stroke:#999;stroke-width:3"></path>
<path d="M143.27,18.33c13.25,5.01,34.23,20.59,37.54,28.38" style="fill:none;stroke:#999;stroke-width:3"></path>

<path d="M288.2,12.39c0.11,0.77,0.23,2-0.21,3.11c-2.62,6.55-17.63,20.92-38.18,29.72" style="fill:none;stroke:#999;stroke-width:3"></path>
<path d="M252.27,18.33c13.25,5.01,34.23,20.59,37.54,28.38" style="fill:none;stroke:#999;stroke-width:3"></path>
<path d="M264.77,11.08c3.54,1.74,9.16,7.17,10.04,9.88" style="fill:none;stroke:#999;stroke-width:3"></path>

<path d="M397.2,12.39c0.11,0.77,0.23,2-0.21,3.11c-2.62,6.55-17.63,20.92-38.18,29.72" style="fill:none;stroke:#999;stroke-width:3"></path>
<path d="M361.27,18.33c13.25,5.01,34.23,20.59,37.54,28.38" style="fill:none;stroke:#999;stroke-width:3"></path>
<path d="M373.77,11.08c3.54,1.74,9.16,7.17,10.04,9.88" style="fill:none;stroke:#999;stroke-width:3"></path>
<path d="M356.52,26.33c3.54,1.74,9.16,7.17,10.04,9.88" style="fill:none;stroke:#999;stroke-width:3"></path>

<path d="M506.2,12.39c0.11,0.77,0.23,2-0.21,3.11c-2.62,6.55-17.63,20.92-38.18,29.72" style="fill:none;stroke:#999;stroke-width:3"></path>
<path d="M470.27,18.33c13.25,5.01,34.23,20.59,37.54,28.38" style="fill:none;stroke:#999;stroke-width:3"></path>
<path d="M482.77,11.08c3.54,1.74,9.16,7.17,10.04,9.88" style="fill:none;stroke:#999;stroke-width:3"></path>
<path d="M465.52,26.33c3.54,1.74,9.16,7.17,10.04,9.88" style="fill:none;stroke:#999;stroke-width:3"></path>
<path d="M504.27,27.58c3.54,1.74,9.16,7.17,10.04,9.88" style="fill:none;stroke:#999;stroke-width:3"></path>

<path d="M615.2,12.39c0.11,0.77,0.23,2-0.21,3.11c-2.62,6.55-17.63,20.92-38.18,29.72" style="fill:none;stroke:#999;stroke-width:3"></path>
<path d="M579.27,18.33c13.25,5.01,34.23,20.59,37.54,28.38" style="fill:none;stroke:#999;stroke-width:3"></path>
<path d="M591.77,11.08c3.54,1.74,9.16,7.17,10.04,9.88" style="fill:none;stroke:#999;stroke-width:3"></path>
<path d="M574.52,26.33c3.54,1.74,9.16,7.17,10.04,9.88" style="fill:none;stroke:#999;stroke-width:3"></path>
<path d="M613.27,27.58c3.54,1.74,9.16,7.17,10.04,9.88" style="fill:none;stroke:#999;stroke-width:3"></path>
<path d="M595.77,41.33c2.93,1.21,7.56,4.99,8.29,6.88" style="fill:none;stroke:#999;stroke-width:3"></path>

<path d="M724.2,12.39c0.11,0.77,0.23,2-0.21,3.11c-2.62,6.55-17.63,20.92-38.18,29.72" style="fill:none;stroke:#999;stroke-width:3"></path>
<path d="M688.27,18.33c13.25,5.01,34.23,20.59,37.54,28.38" style="fill:none;stroke:#999;stroke-width:3"></path>
<path d="M700.77,11.08c3.54,1.74,9.16,7.17,10.04,9.88" style="fill:none;stroke:#999;stroke-width:3"></path>
<path d="M683.52,26.33c3.54,1.74,9.16,7.17,10.04,9.88" style="fill:none;stroke:#999;stroke-width:3"></path>
<path d="M722.27,27.58c3.54,1.74,9.16,7.17,10.04,9.88" style="fill:none;stroke:#999;stroke-width:3"></path>
<path d="M704.77,41.33c2.93,1.21,7.56,4.99,8.29,6.88" style="fill:none;stroke:#999;stroke-width:3"></path>
<path d="M675.96,17.55c0.65,0.39,1.74,1.83,1.74,3.67c0,0.78,1.35,28.3,1.28,30.13c-0.06,1.83,0.58,3.12,2.72,2.93c11.87-1.09,46.92-2.8,53.72-3.19" style="fill:none;stroke:#999;stroke-width:3"></path>

<path d="M833.2,12.39c0.11,0.77,0.23,2-0.21,3.11c-2.62,6.55-17.63,20.92-38.18,29.72" style="fill:none;stroke:#999;stroke-width:3"></path>
<path d="M797.27,18.33c13.25,5.01,34.23,20.59,37.54,28.38" style="fill:none;stroke:#999;stroke-width:3"></path>
<path d="M809.77,11.08c3.54,1.74,9.16,7.17,10.04,9.88" style="fill:none;stroke:#999;stroke-width:3"></path>
<path d="M792.52,26.33c3.54,1.74,9.16,7.17,10.04,9.88" style="fill:none;stroke:#999;stroke-width:3"></path>
<path d="M831.27,27.58c3.54,1.74,9.16,7.17,10.04,9.88" style="fill:none;stroke:#999;stroke-width:3"></path>
<path d="M813.77,41.33c2.93,1.21,7.56,4.99,8.29,6.88" style="fill:none;stroke:#999;stroke-width:3"></path>
<path d="M784.96,17.55c0.65,0.39,1.74,1.83,1.74,3.67c0,0.78,1.35,28.3,1.28,30.13c-0.06,1.83,0.58,3.12,2.72,2.93c11.87-1.09,46.92-2.8,53.72-3.19" style="fill:none;stroke:#999;stroke-width:3"></path>
<path d="M845.75,11.38c1.24,0.53,2.17,1.61,2.17,3.67c0,4.13-1.42,20.7-2.92,39.2" style="fill:none;stroke:#999;stroke-width:3"></path>

<path d="M942.2,12.39c0.11,0.77,0.23,2-0.21,3.11c-2.62,6.55-17.63,20.92-38.18,29.72" style="fill:none;stroke:#999;stroke-width:3"></path>
<path d="M906.27,18.33c13.25,5.01,34.23,20.59,37.54,28.38" style="fill:none;stroke:#999;stroke-width:3"></path>
<path d="M918.77,11.08c3.54,1.74,9.16,7.17,10.04,9.88" style="fill:none;stroke:#999;stroke-width:3"></path>
<path d="M901.52,26.33c3.54,1.74,9.16,7.17,10.04,9.88" style="fill:none;stroke:#999;stroke-width:3"></path>
<path d="M940.27,27.58c3.54,1.74,9.16,7.17,10.04,9.88" style="fill:none;stroke:#999;stroke-width:3"></path>
<path d="M922.77,41.33c2.93,1.21,7.56,4.99,8.29,6.88" style="fill:none;stroke:#999;stroke-width:3"></path>
<path d="M893.96,17.55c0.65,0.39,1.74,1.83,1.74,3.67c0,0.78,1.35,28.3,1.28,30.13c-0.06,1.83,0.58,3.12,2.72,2.93c11.87-1.09,46.92-2.8,53.72-3.19" style="fill:none;stroke:#999;stroke-width:3"></path>
<path d="M954.75,11.38c1.24,0.53,2.17,1.61,2.17,3.67c0,4.13-1.42,20.7-2.92,39.2" style="fill:none;stroke:#999;stroke-width:3"></path>
<path d="M946.89,59.56c0.35,0.35,0.57,1.36-0.33,1.9c-5.85,3.46-25.91,13-44.81,16.54" style="fill:none;stroke:#999;stroke-width:3"></path>

<path d="M1051.2,12.39c0.11,0.77,0.23,2-0.21,3.11c-2.62,6.55-17.63,20.92-38.18,29.72" style="fill:none;stroke:#999;stroke-width:3"></path>
<path d="M1015.27,18.33c13.25,5.01,34.23,20.59,37.54,28.38" style="fill:none;stroke:#999;stroke-width:3"></path>
<path d="M1027.77,11.08c3.54,1.74,9.16,7.17,10.04,9.88" style="fill:none;stroke:#999;stroke-width:3"></path>
<path d="M1010.52,26.33c3.54,1.74,9.16,7.17,10.04,9.88" style="fill:none;stroke:#999;stroke-width:3"></path>
<path d="M1049.27,27.58c3.54,1.74,9.16,7.17,10.04,9.88" style="fill:none;stroke:#999;stroke-width:3"></path>
<path d="M1031.77,41.33c2.93,1.21,7.56,4.99,8.29,6.88" style="fill:none;stroke:#999;stroke-width:3"></path>
<path d="M1002.96,17.55c0.65,0.39,1.74,1.83,1.74,3.67c0,0.78,1.35,28.3,1.28,30.13c-0.06,1.83,0.58,3.12,2.72,2.93c11.87-1.09,46.92-2.8,53.72-3.19" style="fill:none;stroke:#999;stroke-width:3"></path>
<path d="M1063.75,11.38c1.24,0.53,2.17,1.61,2.17,3.67c0,4.13-1.42,20.7-2.92,39.2" style="fill:none;stroke:#999;stroke-width:3"></path>
<path d="M1055.8899999999999,59.56c0.35,0.35,0.57,1.36-0.33,1.9c-5.85,3.46-25.91,13-44.81,16.54" style="fill:none;stroke:#999;stroke-width:3"></path>
<path d="M1008.0,61.25c1.24,1.09,1.32,1.81,1.73,3.26c0.41,1.45-0.09,17.37-0.09,21.91c0,11.66,16.56,9.84,30.66,9.84c10.93,0,20.05-0.62,24.17-3.88s3.62-7.05,4.03-10.31" style="fill:none;stroke:#999;stroke-width:3"></path>

</svg>