<svg width="872px" height="109px" viewBox="0 0 872 109" xmlns="http://www.w3.org/2000/svg" xmlns:xlink="http://www.w3.org/1999/xlink" xml:space="preserve" version="1.1" baseProfile="full">
<line x1="1" y1="1" x2="871" y2="1" style="stroke:#ddd;stroke-width:2"></line>
<line x1="1" y1="1" x2="1" y2="108" style="stroke:#ddd;stroke-width:2"></line>
<line x1="1" y1="108" x2="871" y2="108" style="stroke:#ddd;stroke-width:2"></line>
<line x1="871" y1="1" x2="871" y2="108" style="stroke:#ddd;stroke-width:2"></line>
<line x1="109" y1="1" x2="109" y2="108" style="stroke:#ddd;stroke-width:2"></line>
<line x1="218" y1="1" x2="218" y2="108" style="stroke:#ddd;stroke-width:2"></line>
<line x1="327" y1="1" x2="327" y2="108" style="stroke:#ddd;stroke-width:2"></line>
<line x1="436" y1="1" x2="436" y2="108" style="stroke:#ddd;stroke-width:2"></line>
<line x1="545" y1="1" x2="545" y2="108" style="stroke:#ddd;stroke-width:2"></line>
<line x1="654" y1="1" x2="654" y2="108" style="stroke:#ddd;stroke-width:2"></line>
<line x1="763" y1="1" x2="763" y2="108" style="stroke:#ddd;stroke-width:2"></line>
<line x1="1" y1="54" x2="871" y2="54" style="stroke:#ddd;stroke-width:2;stroke-dasharray:3 3"></line>
<line x1="55" y1="1" x2="55" y2="108" style="stroke:#ddd;stroke-width:2;stroke-dasharray:3 3"></line>
<line x1="164" y1="1" x2="164" y2="108" style="stroke:#ddd;stroke-width:2;stroke-dasharray:3 3"></line>
<line x1="273" y1="1" x2="273" y2="108" style="stroke:#ddd;stroke-width:2;stroke-dasharray:3 3"></line>
<line x1="382" y1="1" x2="382" y2="108" style="stroke:#ddd;stroke-width:2;stroke-dasharray:3 3"></line>
<line x1="491" y1="1" x2="491" y2="108" style="stroke:#ddd;stroke-width:2;stroke-dasharray:3 3"></line>
<line x1="600" y1="1" x2="600" y2="108" style="stroke:#ddd;stroke-width:2;stroke-dasharray:3 3"></line>
<line x1="709" y1="1" x2="709" y2="108" style="stroke:#ddd;stroke-width:2;stroke-dasharray:3 3"></line>
<line x1="818" y1="1" x2="818" y2="108" style="stroke:#ddd;stroke-width:2;stroke-dasharray:3 3"></line>
<path d="M24.43,17.52c5.18,4.68,10.73,12.88,11.47,15.23" style="fill:none;stroke:#999;stroke-width:3"></path>

<path d="M133.43,17.52c5.18,4.68,10.73,12.88,11.47,15.23" style="fill:none;stroke:#999;stroke-width:3"></path>
<path d="M152.95,11.94c2.88,3.22,9.8,11.68,10.96,16.92" style="fill:none;stroke:#999;stroke-width:3"></path>

<path d="M242.43,17.52c5.18,4.68,10.73,12.88,11.47,15.23" style="fill:none;stroke:#999;stroke-width:3"></path>
<path d="M261.95,11.94c2.88,3.22,9.8,11.68,10.96,16.92" style="fill:none;stroke:#999;stroke-width:3"></path>
<path d="M298.11,9.5c0.63,0.94,1.97,2.16,0.94,3.76c-2.55,3.99-9.71,13.66-11.9,16.48" style="fill:none;stroke:#999;stroke-width:3"></path>

<path d="M351.43,17.52c5.18,4.68,10.73,12.88,11.47,15.23" style="fill:none;stroke:#999;stroke-width:3"></path>
<path d="M370.95,11.94c2.88,3.22,9.8,11.68,10.96,16.92" style="fill:none;stroke:#999;stroke-width:3"></path>
<path d="M407.11,9.5c0.63,0.94,1.97,2.16,0.94,3.76c-2.55,3.99-9.71,13.66-11.9,16.48" style="fill:none;stroke:#999;stroke-width:3"></path>
<path d="M354.47,39.39c1.03,0.81,1.72,1.62,2.06,2.43c0.34,0.81,0.34,21.36,0.34,23.18c0,15.19-7.11,29.39-16.37,35.25" style="fill:none;stroke:#999;stroke-width:3"></path>

<path d="M460.43,17.52c5.18,4.68,10.73,12.88,11.47,15.23" style="fill:none;stroke:#999;stroke-width:3"></path>
<path d="M479.95,11.94c2.88,3.22,9.8,11.68,10.96,16.92" style="fill:none;stroke:#999;stroke-width:3"></path>
<path d="M516.11,9.5c0.63,0.94,1.97,2.16,0.94,3.76c-2.55,3.99-9.71,13.66-11.9,16.48" style="fill:none;stroke:#999;stroke-width:3"></path>
<path d="M463.47,39.39c1.03,0.81,1.72,1.62,2.06,2.43c0.34,0.81,0.34,21.36,0.34,23.18c0,15.19-7.11,29.39-16.37,35.25" style="fill:none;stroke:#999;stroke-width:3"></path>
<path d="M465.75,42.5c11-1.75,41.75-5.75,45.75-5.75c2.25,0,5,1,5,3.75c0,18.5-1.92,37.7,7.5,54.25c5.07,8.91,5.75,3.5,6-3" style="fill:none;stroke:#999;stroke-width:3"></path>

<path d="M569.4300000000001,17.52c5.18,4.68,10.73,12.88,11.47,15.23" style="fill:none;stroke:#999;stroke-width:3"></path>
<path d="M588.95,11.94c2.88,3.22,9.8,11.68,10.96,16.92" style="fill:none;stroke:#999;stroke-width:3"></path>
<path d="M625.11,9.5c0.63,0.94,1.97,2.16,0.94,3.76c-2.55,3.99-9.71,13.66-11.9,16.48" style="fill:none;stroke:#999;stroke-width:3"></path>
<path d="M572.47,39.39c1.03,0.81,1.72,1.62,2.06,2.43c0.34,0.81,0.34,21.36,0.34,23.18c0,15.19-7.11,29.39-16.37,35.25" style="fill:none;stroke:#999;stroke-width:3"></path>
<path d="M574.75,42.5c11-1.75,41.75-5.75,45.75-5.75c2.25,0,5,1,5,3.75c0,18.5-1.92,37.7,7.5,54.25c5.07,8.91,5.75,3.5,6-3" style="fill:none;stroke:#999;stroke-width:3"></path>
<path d="M575.24,58.91c12.26-0.91,38.51-4.2,50-4.2" style="fill:none;stroke:#999;stroke-width:3"></path>

<path d="M678.4300000000001,17.52c5.18,4.68,10.73,12.88,11.47,15.23" style="fill:none;stroke:#999;stroke-width:3"></path>
<path d="M697.95,11.94c2.88,3.22,9.8,11.68,10.96,16.92" style="fill:none;stroke:#999;stroke-width:3"></path>
<path d="M734.11,9.5c0.63,0.94,1.97,2.16,0.94,3.76c-2.55,3.99-9.71,13.66-11.9,16.48" style="fill:none;stroke:#999;stroke-width:3"></path>
<path d="M681.47,39.39c1.03,0.81,1.72,1.62,2.06,2.43c0.34,0.81,0.34,21.36,0.34,23.18c0,15.19-7.11,29.39-16.37,35.25" style="fill:none;stroke:#999;stroke-width:3"></path>
<path d="M683.75,42.5c11-1.75,41.75-5.75,45.75-5.75c2.25,0,5,1,5,3.75c0,18.5-1.92,37.7,7.5,54.25c5.07,8.91,5.75,3.5,6-3" style="fill:none;stroke:#999;stroke-width:3"></path>
<path d="M684.24,58.91c12.26-0.91,38.51-4.2,50-4.2" style="fill:none;stroke:#999;stroke-width:3"></path>
<path d="M683.0,76c8.79-0.78,41.83-3.73,52-4.25" style="fill:none;stroke:#999;stroke-width:3"></path>

<path d="M787.4300000000001,17.52c5.18,4.68,10.73,12.88,11.47,15.23" style="fill:none;stroke:#999;stroke-width:3"></path>
<path d="M806.95,11.94c2.88,3.22,9.8,11.68,10.96,16.92" style="fill:none;stroke:#999;stroke-width:3"></path>
<path d="M843.11,9.5c0.63,0.94,1.97,2.16,0.94,3.76c-2.55,3.99-9.71,13.66-11.9,16.48" style="fill:none;stroke:#999;stroke-width:3"></path>
<path d="M790.47,39.39c1.03,0.81,1.72,1.62,2.06,2.43c0.34,0.81,0.34,21.36,0.34,23.18c0,15.19-7.11,29.39-16.37,35.25" style="fill:none;stroke:#999;stroke-width:3"></path>
<path d="M792.75,42.5c11-1.75,41.75-5.75,45.75-5.75c2.25,0,5,1,5,3.75c0,18.5-1.92,37.7,7.5,54.25c5.07,8.91,5.75,3.5,6-3" style="fill:none;stroke:#999;stroke-width:3"></path>
<path d="M793.24,58.91c12.26-0.91,38.51-4.2,50-4.2" style="fill:none;stroke:#999;stroke-width:3"></path>
<path d="M792.0,76c8.79-0.78,41.83-3.73,52-4.25" style="fill:none;stroke:#999;stroke-width:3"></path>
<path d="M815.37,41.75c1.09,0.5,1.74,2.25,1.96,3.25c0.22,1,0,46.75-0.22,53" style="fill:none;stroke:#999;stroke-width:3"></path>

</svg>